<?xml version="1.0" encoding="UTF-8"?>
<svg xmlns="http://www.w3.org/2000/svg" viewBox="0 0 33.98 22.39">
  <defs>
    <style>
      .cls-1 {
        opacity: .05;
      }

      .cls-1, .cls-2, .cls-3, .cls-4, .cls-5, .cls-6, .cls-7, .cls-8, .cls-9, .cls-10, .cls-11, .cls-12, .cls-13, .cls-14, .cls-15, .cls-16, .cls-17, .cls-18, .cls-19, .cls-20, .cls-21, .cls-22 {
        fill: #a3adb8;
      }

      .cls-2 {
        opacity: .1;
      }

      .cls-23 {
        mix-blend-mode: multiply;
      }

      .cls-4 {
        opacity: .14;
      }

      .cls-5 {
        opacity: .19;
      }

      .cls-6 {
        opacity: 0;
      }

      .cls-24 {
        isolation: isolate;
      }

      .cls-7 {
        opacity: .57;
      }

      .cls-8 {
        opacity: .62;
      }

      .cls-9 {
        opacity: .52;
      }

      .cls-10 {
        opacity: .48;
      }

      .cls-11 {
        opacity: .9;
      }

      .cls-12 {
        opacity: .86;
      }

      .cls-13 {
        opacity: .76;
      }

      .cls-14 {
        opacity: .81;
      }

      .cls-15 {
        opacity: .71;
      }

      .cls-16 {
        opacity: .33;
      }

      .cls-17 {
        opacity: .29;
      }

      .cls-18 {
        opacity: .24;
      }

      .cls-19 {
        opacity: .43;
      }

      .cls-20 {
        opacity: .38;
      }

      .cls-21 {
        opacity: .67;
      }

      .cls-22 {
        opacity: .95;
      }
    </style>
  </defs>
  <g class="cls-24">
    <g id="Ebene_2" data-name="Ebene 2">
      <g id="_ŽÓť_4" data-name="—ŽÓť_4">
        <g>
          <g>
            <g class="cls-23">
              <path class="cls-6" d="M31.87,16.82c2.52-2.53,2.4-4.56,1.56-6.74-.63-1.64-.93-2.72-1.99-4.23-.95-1.36-2.96-3.09-5.98-3.52-2.92-.41-9.84,4.34-12.22,4.98-2.57,.69-5.72,2.5-9.02,3.84C2.54,11.83,.05,13.99,0,15.14c-.07,1.86,.55,2.63,1.37,3.37s2.54,2.05,3.56,2.53c.97,.46,3.48,1.14,4.33,1.23,1.86,.2,2.54-.37,4.01-.21,1.93,.21,2.57,.34,3.45,.32,.81-.02,1.46-.19,1.9-.21,.64-.03,1.61,.06,2.4-.11,2.04-.43,2.36-.27,3.4-.6,2.22-.69,5.37-2.57,7.44-4.65Z"/>
              <path class="cls-1" d="M31.59,16.72c2.45-2.43,2.34-4.42,1.5-6.53-.64-1.6-.97-2.65-2.01-4.12-.94-1.33-2.84-3.04-5.84-3.53-2.88-.46-9.62,4.24-11.98,4.87-2.56,.69-5.59,2.5-8.81,3.8C2.79,11.89,.13,13.94,.1,15.11c-.04,1.8,.59,2.52,1.42,3.25,.83,.74,2.5,2.02,3.51,2.48s3.39,1.04,4.26,1.13c1.84,.19,2.51-.29,3.99-.14,1.92,.2,2.53,.3,3.4,.28,.79-.02,1.43-.16,1.9-.18,.68-.02,1.63,.02,2.4-.14,1.99-.41,2.3-.25,3.37-.58,2.19-.69,5.19-2.49,7.23-4.49Z"/>
              <path class="cls-2" d="M31.3,16.63c2.39-2.31,2.28-4.29,1.44-6.33-.64-1.57-1.01-2.58-2.02-4.01-.93-1.29-2.72-2.99-5.7-3.53S15.61,6.89,13.27,7.53c-2.54,.69-5.46,2.49-8.61,3.77C3.04,11.94,.21,13.88,.2,15.08c0,1.74,.64,2.42,1.46,3.13,.84,.73,2.47,2,3.47,2.42s3.3,.93,4.18,1.02c1.82,.18,2.49-.21,3.96-.07,1.91,.19,2.48,.27,3.36,.25,.77-.02,1.4-.13,1.9-.15,.72-.02,1.65-.01,2.41-.17,1.93-.4,2.25-.22,3.34-.57,2.15-.69,5.02-2.4,7.01-4.32Z"/>
              <path class="cls-4" d="M31.01,16.53c2.32-2.2,2.22-4.15,1.39-6.13-.65-1.53-1.04-2.51-2.04-3.9-.91-1.26-2.6-2.94-5.56-3.54S15.6,7,13.29,7.63c-2.52,.69-5.33,2.48-8.41,3.73-1.58,.64-4.59,2.46-4.57,3.69,.02,1.68,.68,2.31,1.51,3.01s2.43,1.97,3.42,2.36c1.06,.42,3.21,.83,4.11,.91,1.8,.17,2.47-.13,3.93,0,1.9,.18,2.44,.23,3.31,.22,.75-.01,1.36-.11,1.9-.12,.76-.02,1.67-.05,2.42-.2,1.88-.38,2.19-.2,3.3-.55,2.12-.68,4.85-2.32,6.8-4.16Z"/>
              <path class="cls-5" d="M30.72,16.43c2.26-2.08,2.16-4.01,1.33-5.92-.65-1.5-1.08-2.44-2.06-3.78-.9-1.23-2.48-2.89-5.42-3.54-2.78-.61-8.97,3.93-11.27,4.56-2.5,.69-5.2,2.48-8.21,3.69-1.55,.62-4.73,2.33-4.69,3.59,.05,1.61,.72,2.21,1.55,2.89s2.4,1.94,3.38,2.3c1.09,.4,3.11,.72,4.03,.81,1.78,.16,2.45-.05,3.9,.08,1.9,.17,2.4,.19,3.26,.18,.73,0,1.33-.08,1.91-.09,.8-.02,1.68-.09,2.43-.23,1.83-.37,2.14-.17,3.27-.54,2.09-.68,4.68-2.23,6.59-3.99Z"/>
              <path class="cls-18" d="M30.43,16.34c2.19-1.97,2.1-3.88,1.27-5.72-.66-1.46-1.12-2.36-2.08-3.67-.89-1.2-2.35-2.84-5.28-3.55-2.75-.66-8.76,3.82-11.03,4.45-2.49,.69-5.07,2.47-8.01,3.66-1.51,.61-4.87,2.2-4.81,3.49,.07,1.55,.77,2.1,1.6,2.77s2.37,1.92,3.34,2.25c1.12,.38,3.02,.62,3.96,.7,1.76,.15,2.43,.03,3.88,.15,1.89,.16,2.35,.15,3.21,.15,.71,0,1.29-.05,1.91-.06,.83-.01,1.7-.12,2.43-.27,1.78-.35,2.08-.14,3.23-.52,2.06-.68,4.51-2.15,6.37-3.83Z"/>
              <path class="cls-17" d="M30.14,16.24c2.12-1.86,2.04-3.74,1.22-5.52-.66-1.42-1.16-2.29-2.1-3.56-.88-1.17-2.23-2.79-5.13-3.55-2.71-.71-8.54,3.72-10.79,4.34-2.47,.69-4.94,2.46-7.81,3.62-1.48,.6-5.01,2.07-4.92,3.39,.1,1.48,.81,2,1.65,2.65s2.33,1.89,3.29,2.19c1.15,.36,2.93,.51,3.88,.59,1.74,.15,2.41,.11,3.85,.22,1.88,.15,2.31,.13,3.17,.11,.7,0,1.26-.02,1.91-.02,.87-.01,1.72-.16,2.44-.3,1.72-.33,2.03-.12,3.2-.51,2.02-.68,4.34-2.06,6.16-3.66Z"/>
              <path class="cls-16" d="M29.85,16.14c2.05-1.75,1.98-3.6,1.16-5.31-.67-1.39-1.19-2.22-2.12-3.45-.86-1.14-2.11-2.74-4.99-3.56-2.68-.76-8.33,3.61-10.55,4.24-2.45,.69-4.81,2.46-7.61,3.58-1.44,.58-5.14,1.94-5.04,3.29,.11,1.42,.86,1.89,1.69,2.53s2.3,1.86,3.25,2.13c1.18,.34,2.83,.41,3.81,.49,1.72,.14,2.39,.19,3.82,.3,1.87,.14,2.27,.09,3.12,.08,.68,0,1.23,.01,1.91,0,.91,0,1.74-.2,2.45-.33,1.67-.32,1.97-.09,3.17-.49,1.99-.67,4.17-1.98,5.94-3.5Z"/>
              <path class="cls-20" d="M29.56,16.05c1.98-1.64,1.92-3.47,1.1-5.11-.68-1.35-1.23-2.15-2.14-3.34-.85-1.11-1.99-2.69-4.85-3.56-2.65-.81-8.11,3.51-10.32,4.13-2.43,.69-4.68,2.45-7.41,3.55-1.41,.57-5.28,1.81-5.15,3.19s.9,1.78,1.74,2.41c.88,.66,2.27,1.82,3.2,2.07,1.21,.32,2.74,.3,3.73,.38,1.7,.13,2.37,.27,3.79,.37,1.86,.13,2.22,.04,3.07,.05,.66,0,1.19,.04,1.91,.04,.95,0,1.76-.23,2.46-.36,1.62-.3,1.92-.06,3.13-.48,1.96-.67,3.99-1.9,5.73-3.33Z"/>
              <path class="cls-19" d="M29.27,15.95c1.91-1.53,1.86-3.33,1.04-4.91-.68-1.32-1.27-2.08-2.16-3.22-.84-1.08-1.86-2.64-4.71-3.57-2.61-.85-7.9,3.4-10.08,4.02-2.42,.69-4.55,2.44-7.2,3.51-1.37,.55-5.43,1.68-5.27,3.09,.15,1.29,.95,1.68,1.78,2.29,.88,.65,2.24,1.79,3.16,2.02,1.24,.3,2.65,.2,3.66,.27,1.68,.12,2.35,.35,3.76,.44,1.86,.12,2.18,0,3.02,.01,.64,0,1.16,.07,1.91,.07,.99,0,1.78-.27,2.46-.39,1.57-.28,1.86-.04,3.1-.46,1.93-.67,3.82-1.81,5.52-3.17Z"/>
              <path class="cls-10" d="M28.98,15.85c1.84-1.42,1.8-3.19,.99-4.7-.69-1.28-1.3-2.01-2.17-3.11s-1.74-2.58-4.57-3.57c-2.58-.9-7.68,3.3-9.84,3.92-2.4,.69-4.42,2.44-7,3.48-1.34,.54-5.57,1.55-5.38,2.99,.16,1.23,.99,1.57,1.83,2.17,.89,.64,2.21,1.76,3.12,1.96,1.28,.28,2.56,.09,3.58,.17,1.66,.12,2.33,.43,3.74,.51,1.85,.11,2.13-.04,2.98-.02,.62,.01,1.13,.1,1.91,.1,1.03,0,1.8-.31,2.47-.43,1.51-.27,1.81-.01,3.06-.45,1.89-.66,3.65-1.73,5.3-3Z"/>
              <path class="cls-9" d="M28.69,15.76c1.77-1.31,1.74-3.05,.93-4.5-.69-1.24-1.34-1.93-2.19-3s-1.62-2.53-4.43-3.58c-2.55-.95-7.46,3.2-9.6,3.81-2.38,.68-4.29,2.43-6.8,3.44-1.3,.52-5.71,1.42-5.5,2.89,.17,1.16,1.04,1.47,1.87,2.05,.9,.63,2.17,1.73,3.07,1.9,1.31,.26,2.46-.01,3.51,.06,1.64,.11,2.31,.51,3.71,.58,1.84,.1,2.09-.08,2.93-.05,.6,.02,1.09,.13,1.91,.13,1.07,0,1.82-.34,2.48-.46,1.46-.25,1.75,.02,3.03-.43,1.86-.66,3.47-1.65,5.09-2.84Z"/>
              <path class="cls-7" d="M28.4,15.66c1.7-1.2,1.67-2.92,.87-4.3-.7-1.21-1.38-1.86-2.21-2.89s-1.5-2.48-4.29-3.58c-2.51-.99-7.25,3.09-9.36,3.7-2.36,.68-4.16,2.42-6.6,3.4-1.27,.51-5.86,1.29-5.62,2.79,.18,1.1,1.08,1.36,1.92,1.93,.9,.61,2.14,1.69,3.03,1.84,1.34,.23,2.37-.12,3.43-.05,1.62,.1,2.29,.59,3.68,.66,1.83,.09,2.05-.12,2.88-.09,.58,.02,1.06,.16,1.91,.16,1.11,0,1.84-.38,2.49-.49,1.41-.24,1.7,.04,3-.42,1.83-.65,3.3-1.56,4.88-2.68Z"/>
              <path class="cls-8" d="M28.12,15.56c1.63-1.09,1.61-2.78,.81-4.09-.71-1.17-1.42-1.79-2.23-2.78s-1.38-2.43-4.15-3.59c-2.48-1.04-7.03,2.99-9.13,3.6-2.34,.68-4.03,2.41-6.4,3.37-1.23,.49-6.01,1.16-5.73,2.69,.19,1.03,1.13,1.26,1.96,1.81,.91,.6,2.11,1.66,2.98,1.79,1.38,.21,2.28-.22,3.36-.15,1.6,.1,2.26,.67,3.65,.73,1.82,.08,2-.15,2.83-.12,.57,.02,1.02,.19,1.91,.19,1.15,0,1.86-.42,2.5-.52,1.36-.22,1.64,.07,2.96-.41,1.8-.65,3.12-1.48,4.66-2.51Z"/>
              <path class="cls-21" d="M27.83,15.47c1.56-.98,1.55-2.64,.76-3.89-.72-1.13-1.46-1.72-2.25-2.66s-1.26-2.37-4.01-3.59c-2.45-1.08-6.82,2.88-8.89,3.49-2.33,.68-3.9,2.41-6.2,3.33-1.2,.48-6.16,1.03-5.85,2.59,.19,.97,1.17,1.15,2.01,1.69,.92,.59,2.08,1.62,2.94,1.73,1.41,.18,2.18-.32,3.28-.26,1.58,.09,2.24,.75,3.62,.8,1.82,.07,1.96-.19,2.79-.16,.55,.03,.99,.22,1.91,.22,1.19,0,1.88-.45,2.5-.55,1.3-.21,1.59,.1,2.93-.39,1.76-.64,2.95-1.4,4.45-2.35Z"/>
              <path class="cls-15" d="M27.54,15.37c1.48-.87,1.48-2.5,.7-3.69-.73-1.1-1.49-1.64-2.27-2.55s-1.14-2.32-3.87-3.6c-2.41-1.13-6.6,2.78-8.65,3.39-2.31,.68-3.77,2.4-6,3.29-1.16,.47-6.31,.9-5.96,2.49,.2,.91,1.22,1.05,2.05,1.57,.92,.58,2.05,1.58,2.89,1.67,1.44,.15,2.09-.43,3.21-.37,1.56,.08,2.22,.83,3.6,.87,1.81,.06,1.92-.23,2.74-.19,.53,.03,.96,.24,1.92,.25,1.22,.01,1.9-.49,2.51-.59,1.25-.19,1.53,.13,2.89-.38,1.73-.64,2.77-1.32,4.24-2.18Z"/>
              <path class="cls-13" d="M27.25,15.27c1.41-.77,1.42-2.36,.64-3.48-.73-1.06-1.53-1.57-2.29-2.44s-1.01-2.26-3.73-3.6c-2.38-1.17-6.39,2.68-8.41,3.28-2.29,.68-3.64,2.39-5.8,3.26-1.13,.45-6.47,.77-6.08,2.39,.2,.84,1.26,.94,2.1,1.45,.93,.57,2.02,1.55,2.85,1.61,1.48,.12,2-.53,3.13-.47,1.54,.08,2.2,.91,3.57,.95,1.8,.05,1.87-.27,2.69-.22,.51,.03,.92,.27,1.92,.29,1.26,.01,1.91-.53,2.52-.62,1.2-.18,1.48,.15,2.86-.36,1.7-.63,2.6-1.24,4.02-2.02Z"/>
              <path class="cls-14" d="M26.96,15.18c1.34-.66,1.36-2.22,.59-3.28s-1.57-1.5-2.31-2.33-.89-2.21-3.59-3.61c-2.35-1.22-6.17,2.57-8.17,3.17-2.27,.68-3.51,2.39-5.59,3.22-1.09,.44-6.63,.64-6.19,2.29,.21,.78,1.31,.83,2.14,1.33,.94,.56,1.99,1.51,2.81,1.56,1.51,.09,1.91-.64,3.06-.58,1.52,.07,2.18,.99,3.54,1.02,1.79,.04,1.83-.31,2.64-.26,.49,.03,.89,.3,1.92,.32,1.3,.02,1.93-.56,2.53-.65,1.15-.17,1.43,.18,2.83-.35,1.67-.63,2.42-1.16,3.81-1.85Z"/>
              <path class="cls-12" d="M26.67,15.08c1.26-.56,1.29-2.08,.53-3.08s-1.61-1.43-2.32-2.22-.77-2.15-3.45-3.61c-2.32-1.26-5.95,2.47-7.93,3.07-2.26,.68-3.38,2.38-5.39,3.18-1.06,.42-6.79,.52-6.31,2.19,.21,.72,1.35,.73,2.19,1.21,.94,.54,1.96,1.47,2.76,1.5,1.54,.05,1.81-.74,2.98-.69,1.5,.07,2.16,1.07,3.51,1.09,1.78,.03,1.78-.35,2.59-.29,.47,.04,.85,.33,1.92,.35,1.34,.02,1.95-.6,2.53-.68,1.09-.15,1.37,.21,2.79-.33,1.64-.62,2.24-1.09,3.6-1.69Z"/>
              <path class="cls-11" d="M26.38,14.99c1.19-.46,1.22-1.94,.47-2.87s-1.65-1.35-2.34-2.1c-.72-.77-.65-2.1-3.31-3.62-2.28-1.31-5.74,2.36-7.7,2.96-2.24,.68-3.25,2.37-5.19,3.15-1.02,.41-6.96,.4-6.43,2.09,.21,.66,1.4,.62,2.23,1.09,.95,.53,1.93,1.46,2.72,1.44,1.58-.03,1.72-.84,2.91-.8,1.48,.06,2.14,1.15,3.49,1.16,1.78,.02,1.74-.39,2.55-.32,.45,.04,.82,.36,1.92,.38,1.38,.02,1.97-.64,2.54-.71,1.04-.14,1.32,.24,2.76-.32,1.61-.62,2.06-1.01,3.38-1.52Z"/>
              <path class="cls-22" d="M26.09,14.89c1.11-.36,1.16-1.8,.41-2.67s-1.69-1.28-2.36-1.99c-.71-.74-.54-2.04-3.17-3.62-2.25-1.35-5.52,2.26-7.46,2.85-2.22,.68-3.12,2.37-4.99,3.11-.99,.39-7.14,.28-6.54,1.99,.21,.6,1.45,.51,2.28,.97,.96,.52,1.89,1.39,2.67,1.38,1.61-.02,1.63-.94,2.83-.9,1.46,.06,2.12,1.23,3.46,1.24,1.77,0,1.7-.43,2.5-.36,.44,.04,.79,.39,1.92,.41,1.42,.02,1.99-.68,2.55-.75,.99-.12,1.26,.27,2.72-.3,1.58-.61,1.88-.94,3.17-1.36Z"/>
              <path class="cls-3" d="M25.8,14.79c1.03-.26,1.09-1.66,.36-2.47-.79-.86-1.72-1.21-2.38-1.88-.69-.71-.41-1.99-3.03-3.63-2.22-1.39-5.31,2.16-7.22,2.75-2.2,.68-2.99,2.36-4.79,3.08-.95,.38-7.33,.17-6.66,1.89,.21,.54,1.49,.41,2.32,.85,.97,.51,1.86,1.35,2.63,1.32,1.64-.06,1.53-1.05,2.76-1.01,1.44,.05,2.1,1.31,3.43,1.31,1.76,0,1.65-.47,2.45-.39,.42,.04,.75,.42,1.92,.44,1.46,.03,2.01-.71,2.56-.78,.94-.11,1.21,.3,2.69-.29,1.54-.61,1.7-.87,2.96-1.19Z"/>
            </g>
            <path class="cls-3" d="M25.14,11.29c-.23-.79-.71-1.49-1.35-1.98,.16-.44,.26-.91,.28-1.39,.11-2.5-1.83-4.61-4.33-4.72-1.91-.08-3.59,1.03-4.33,2.68-.13-.02-.26-.03-.4-.04-1.58-.07-3.01,.67-3.89,1.84-.25-.1-.52-.16-.8-.17-1.36-.06-2.51,1-2.57,2.35,0,.22,.01,.44,.06,.65-.49,.08-.92,.38-1.18,.79-.41-.55-1.06-.93-1.8-.96-1.03-.04-1.93,.58-2.3,1.48-.05,0-.09-.01-.14-.01-.94-.04-1.73,.69-1.78,1.63-.04,.94,.69,1.73,1.63,1.78,.48,.02,.93-.16,1.25-.47,.33,.2,.71,.32,1.12,.34,.37,.82,1.18,1.41,2.14,1.45,1,.04,1.88-.51,2.3-1.35,.28,.13,.59,.21,.92,.22,.1,0,.2,0,.31,0,.58,.77,1.48,1.29,2.52,1.33,1.01,.04,1.94-.37,2.58-1.06,.39,.75,1.17,1.28,2.08,1.32,.97,.04,1.83-.48,2.26-1.28,.48,.25,1.01,.4,1.59,.42,1.25,.05,2.38-.5,3.11-1.4,.17,.07,.36,.1,.55,.11,.99,.04,1.82-.72,1.86-1.71,.04-.98-.72-1.81-1.7-1.86Z"/>
            <path class="cls-3" d="M25.21,11.36c-.23-.79-.71-1.49-1.35-1.98,.16-.44,.26-.9,.28-1.39,.11-2.5-1.83-4.61-4.33-4.72-1.91-.08-3.59,1.03-4.33,2.68-.13-.02-.26-.03-.4-.04-1.58-.07-3.01,.67-3.89,1.84-.25-.1-.52-.16-.8-.17-1.36-.06-2.51,1-2.57,2.35,0,.23,.01,.44,.06,.65-.5,.08-.92,.38-1.18,.79-.41-.56-1.06-.93-1.8-.96-1.03-.04-1.93,.58-2.3,1.48-.05,0-.09-.01-.14-.01-.94-.04-1.73,.69-1.78,1.63-.04,.94,.69,1.73,1.63,1.78,.48,.02,.93-.16,1.25-.47,.33,.2,.71,.32,1.12,.34,.37,.82,1.18,1.41,2.14,1.45,1,.04,1.88-.51,2.3-1.35,.28,.13,.59,.21,.92,.22,.1,0,.21,0,.31,0,.58,.77,1.48,1.29,2.52,1.33,1.01,.04,1.94-.37,2.58-1.06,.39,.75,1.17,1.28,2.08,1.32,.97,.04,1.83-.48,2.26-1.28,.48,.25,1.01,.4,1.59,.42,1.25,.05,2.38-.5,3.11-1.4,.17,.06,.36,.1,.55,.11,.99,.04,1.82-.72,1.86-1.71,.04-.98-.72-1.81-1.7-1.86Z"/>
          </g>
          <g>
            <g class="cls-23">
              <path class="cls-6" d="M22.35,13.78c1.16-2.03-.02-4.81-.58-6.26-.42-1.09-1.83-2.58-2.92-3.13-1.1-.55-1.51-1.13-3.01-1.28-1.95-.2-4.55,1.3-6.14,1.72-1.71,.46-4.66,1.86-6.25,3.62-1.87,2.05-1.91,3.68-1.41,4.87,.54,1.27,1.43,1.97,1.98,2.47,.55,.5,1.16,.94,1.84,1.26,1.3,.62,2.43,.59,3.4,.66,.74,.05,2.63,.21,4.55-.19,1.36-.28,2.59-.49,3.28-.7,1.48-.46,4.3-1.34,5.27-3.04Z"/>
              <path class="cls-1" d="M22.14,13.69c1.16-1.97,.04-4.65-.52-6.06-.43-1.07-1.77-2.49-2.86-3.03-1.08-.54-1.43-1.23-2.95-1.42-1.93-.24-4.54,1.33-6.11,1.75-1.7,.46-4.61,1.83-6.16,3.52-1.8,1.97-1.95,3.6-1.42,4.8s1.43,1.89,2,2.37,1.18,.9,1.85,1.2c1.31,.6,2.4,.51,3.34,.59,.73,.06,2.58,.24,4.5-.15,1.37-.28,2.53-.5,3.21-.7,1.43-.42,4.15-1.24,5.11-2.88Z"/>
              <path class="cls-2" d="M21.93,13.6c1.16-1.91,.1-4.5-.46-5.86-.43-1.04-1.71-2.39-2.79-2.93-1.05-.52-1.35-1.33-2.88-1.56-1.91-.28-4.52,1.36-6.08,1.78-1.69,.46-4.57,1.8-6.06,3.42-1.74,1.9-1.98,3.52-1.44,4.73s1.43,1.8,2.02,2.27,1.19,.85,1.87,1.14c1.32,.57,2.38,.43,3.29,.51,.72,.06,2.53,.27,4.44-.12,1.38-.28,2.48-.51,3.14-.69,1.39-.38,3.99-1.14,4.94-2.72Z"/>
              <path class="cls-4" d="M21.72,13.51c1.15-1.85,.16-4.34-.39-5.66-.43-1.02-1.66-2.3-2.72-2.83-1.03-.51-1.27-1.44-2.81-1.7-1.88-.32-4.51,1.39-6.05,1.81-1.68,.46-4.53,1.77-5.96,3.33-1.67,1.82-2.01,3.44-1.45,4.66s1.43,1.72,2.04,2.18c.58,.43,1.21,.81,1.88,1.08,1.32,.55,2.35,.35,3.23,.44,.71,.07,2.47,.31,4.39-.08,1.38-.28,2.43-.52,3.07-.68,1.35-.35,3.84-1.04,4.78-2.56Z"/>
              <path class="cls-5" d="M21.51,13.41c1.15-1.79,.22-4.19-.33-5.46-.44-1-1.6-2.21-2.65-2.72-1.01-.49-1.18-1.54-2.74-1.84-1.86-.37-4.5,1.42-6.03,1.84-1.67,.46-4.49,1.74-5.87,3.23-1.61,1.75-2.05,3.36-1.47,4.59,.54,1.14,1.43,1.64,2.06,2.08,.59,.41,1.23,.76,1.89,1.02,1.33,.52,2.32,.27,3.18,.37,.7,.08,2.42,.34,4.34-.04,1.39-.27,2.38-.53,3-.67,1.3-.31,3.68-.95,4.62-2.4Z"/>
              <path class="cls-18" d="M21.3,13.32c1.15-1.72,.28-4.03-.27-5.26-.44-.97-1.54-2.12-2.59-2.62-.98-.48-1.1-1.63-2.67-1.98-1.83-.4-4.49,1.45-6,1.87-1.66,.46-4.45,1.7-5.77,3.13-1.54,1.67-2.08,3.28-1.48,4.52,.54,1.11,1.43,1.55,2.08,1.98,.59,.39,1.24,.72,1.9,.96,1.34,.5,2.3,.2,3.12,.3,.69,.08,2.37,.38,4.28,0,1.4-.27,2.33-.54,2.93-.66,1.26-.27,3.53-.85,4.46-2.24Z"/>
              <path class="cls-17" d="M21.09,13.23c1.15-1.66,.35-3.88-.21-5.06-.44-.95-1.49-2.02-2.52-2.52-.96-.47-1.02-1.73-2.6-2.12-1.81-.44-4.47,1.49-5.97,1.9-1.64,.46-4.41,1.67-5.67,3.04-1.48,1.6-2.12,3.2-1.5,4.45,.54,1.08,1.43,1.47,2.1,1.88,.6,.37,1.26,.68,1.92,.9,1.35,.47,2.27,.12,3.07,.22,.68,.09,2.31,.41,4.23,.04,1.41-.27,2.28-.55,2.86-.65,1.22-.23,3.38-.75,4.3-2.08Z"/>
              <path class="cls-16" d="M20.88,13.14c1.14-1.6,.41-3.72-.14-4.86-.45-.93-1.43-1.93-2.45-2.42-.94-.45-.94-1.83-2.53-2.26-1.79-.48-4.46,1.52-5.95,1.93-1.63,.46-4.37,1.64-5.58,2.94-1.41,1.52-2.16,3.12-1.51,4.38,.53,1.04,1.42,1.39,2.12,1.78,.61,.35,1.28,.63,1.93,.84,1.36,.44,2.25,.04,3.01,.15,.67,.1,2.26,.45,4.18,.08,1.42-.27,2.23-.56,2.79-.65,1.17-.19,3.23-.65,4.13-1.92Z"/>
              <path class="cls-20" d="M20.67,13.05c1.14-1.54,.47-3.57-.08-4.66-.45-.9-1.37-1.83-2.38-2.32-.91-.44-.85-1.93-2.46-2.4-1.76-.52-4.45,1.55-5.92,1.96-1.62,.46-4.33,1.61-5.48,2.84-1.35,1.45-2.19,3.04-1.53,4.3,.53,1.01,1.42,1.3,2.14,1.68,.62,.33,1.3,.59,1.94,.78,1.37,.42,2.22-.04,2.96,.08,.66,.1,2.21,.48,4.12,.12,1.43-.26,2.18-.56,2.72-.64,1.13-.16,3.07-.55,3.97-1.76Z"/>
              <path class="cls-19" d="M20.46,12.96c1.14-1.48,.53-3.41-.02-4.46-.45-.88-1.32-1.74-2.32-2.22-.89-.42-.77-2.02-2.39-2.54-1.74-.55-4.44,1.58-5.89,1.99-1.61,.46-4.29,1.58-5.38,2.75-1.28,1.37-2.23,2.96-1.54,4.23,.53,.98,1.42,1.22,2.16,1.58,.62,.3,1.31,.54,1.96,.72,1.38,.39,2.2-.11,2.9,0,.65,.11,2.15,.51,4.07,.16,1.44-.26,2.13-.57,2.65-.63,1.08-.12,2.92-.45,3.81-1.6Z"/>
              <path class="cls-10" d="M20.25,12.86c1.14-1.41,.59-3.25,.04-4.26-.46-.85-1.26-1.65-2.25-2.12-.87-.41-.69-2.12-2.32-2.68-1.71-.59-4.43,1.61-5.86,2.02-1.6,.46-4.25,1.54-5.29,2.65-1.22,1.29-2.27,2.88-1.56,4.16,.52,.95,1.42,1.14,2.18,1.48,.63,.29,1.33,.5,1.97,.67,1.39,.36,2.17-.19,2.85-.06,.64,.12,2.1,.55,4.01,.2,1.44-.26,2.08-.58,2.58-.62,1.04-.08,2.77-.35,3.65-1.44Z"/>
              <path class="cls-9" d="M20.04,12.77c1.14-1.35,.65-3.1,.11-4.06-.46-.83-1.2-1.55-2.18-2.01-.84-.4-.6-2.21-2.25-2.82s-4.41,1.64-5.84,2.05c-1.59,.46-4.21,1.51-5.19,2.55-1.15,1.22-2.3,2.8-1.57,4.09,.52,.92,1.41,1.06,2.2,1.39,.63,.27,1.35,.45,1.98,.61,1.4,.33,2.15-.27,2.79-.14s2.05,.58,3.96,.24c1.45-.26,2.03-.59,2.5-.61,1-.04,2.62-.25,3.49-1.28Z"/>
              <path class="cls-7" d="M19.83,12.68c1.14-1.29,.7-2.94,.17-3.86-.47-.81-1.15-1.46-2.12-1.91-.82-.38-.52-2.31-2.18-2.96s-4.4,1.67-5.81,2.08c-1.57,.46-4.17,1.48-5.09,2.46-1.09,1.14-2.34,2.72-1.59,4.02,.52,.89,1.41,.98,2.22,1.29,.64,.25,1.36,.41,2,.55,1.41,.31,2.12-.35,2.74-.21s1.99,.62,3.91,.28c1.46-.26,1.98-.6,2.43-.6,.95,0,2.47-.16,3.32-1.12Z"/>
              <path class="cls-8" d="M19.62,12.59c1.14-1.22,.76-2.79,.23-3.66-.47-.78-1.09-1.37-2.05-1.81-.8-.37-.44-2.4-2.11-3.1s-4.39,1.7-5.78,2.11c-1.56,.46-4.13,1.45-5,2.36-1.02,1.07-2.38,2.65-1.6,3.95,.51,.86,1.41,.89,2.24,1.19,.65,.23,1.38,.36,2.01,.49,1.42,.28,2.1-.42,2.68-.28s1.94,.65,3.85,.32c1.47-.25,1.93-.61,2.36-.6,.91,.04,2.32-.06,3.16-.96Z"/>
              <path class="cls-21" d="M19.41,12.5c1.14-1.16,.82-2.63,.3-3.46-.48-.76-1.03-1.27-1.98-1.71-.77-.35-.36-2.49-2.04-3.24s-4.38,1.73-5.76,2.14c-1.55,.46-4.08,1.41-4.9,2.26-.96,.99-2.42,2.57-1.62,3.88,.51,.83,1.4,.81,2.26,1.09,.65,.21,1.4,.32,2.02,.43,1.43,.25,2.07-.5,2.63-.35,.6,.15,1.88,.68,3.8,.36,1.48-.25,1.88-.62,2.29-.59,.87,.07,2.17,.04,3-.8Z"/>
              <path class="cls-15" d="M19.2,12.4c1.14-1.1,.88-2.47,.36-3.26-.48-.73-.98-1.18-1.91-1.61-.75-.34-.28-2.58-1.97-3.38-1.6-.75-4.36,1.77-5.73,2.17-1.54,.46-4.04,1.38-4.81,2.17-.89,.92-2.46,2.49-1.63,3.81,.5,.8,1.4,.74,2.28,.99,.66,.19,1.42,.27,2.04,.37,1.44,.22,2.04-.57,2.57-.43,.59,.16,1.83,.72,3.75,.4,1.49-.25,1.83-.63,2.22-.58,.82,.11,2.02,.14,2.84-.64Z"/>
              <path class="cls-13" d="M18.98,12.31c1.15-1.03,.94-2.32,.42-3.06-.49-.71-.92-1.09-1.85-1.51-.72-.33-.2-2.68-1.9-3.52-1.58-.78-4.35,1.8-5.7,2.2-1.53,.46-4,1.35-4.71,2.07-.83,.84-2.5,2.41-1.65,3.74,.49,.77,1.4,.66,2.3,.89,.66,.17,1.43,.23,2.05,.31,1.45,.19,2.02-.65,2.52-.5,.58,.17,1.78,.75,3.69,.44,1.5-.25,1.78-.64,2.15-.57,.78,.15,1.87,.24,2.68-.48Z"/>
              <path class="cls-14" d="M18.77,12.22c1.15-.97,1-2.16,.48-2.86s-.86-1-1.78-1.41c-.7-.31-.12-2.77-1.83-3.66-1.56-.81-4.34,1.83-5.67,2.23-1.52,.46-3.96,1.32-4.61,1.97-.76,.76-2.55,2.34-1.66,3.67,.49,.74,1.39,.58,2.32,.79,.67,.16,1.45,.18,2.06,.25,1.46,.16,1.99-.72,2.46-.57,.57,.18,1.72,.79,3.64,.48,1.51-.24,1.73-.65,2.08-.56,.73,.19,1.72,.35,2.51-.32Z"/>
              <path class="cls-12" d="M18.56,12.13c1.15-.9,1.05-2,.55-2.66s-.81-.9-1.71-1.3c-.68-.3-.04-2.86-1.76-3.79-1.54-.84-4.33,1.86-5.65,2.26-1.5,.45-3.92,1.29-4.52,1.88-.7,.69-2.59,2.26-1.68,3.59,.48,.71,1.39,.5,2.33,.69,.68,.14,1.47,.13,2.07,.19,1.47,.13,1.97-.8,2.41-.64,.55,.19,1.67,.82,3.59,.52,1.51-.24,1.68-.66,2.01-.55,.69,.22,1.57,.45,2.35-.16Z"/>
              <path class="cls-11" d="M18.35,12.04c1.16-.83,1.11-1.84,.61-2.46s-.75-.81-1.64-1.2c-.65-.29,.04-2.94-1.69-3.93-1.52-.87-4.31,1.89-5.62,2.29-1.49,.45-3.88,1.25-4.42,1.78-.63,.61-2.63,2.19-1.69,3.52,.47,.68,1.38,.42,2.35,.59,.68,.12,1.49,.09,2.09,.13,1.49,.1,1.94-.87,2.35-.72,.54,.2,1.62,.86,3.53,.55,1.52-.24,1.63-.67,1.94-.55,.65,.26,1.42,.55,2.19,0Z"/>
              <path class="cls-22" d="M18.14,11.95c1.16-.76,1.17-1.68,.67-2.26s-.69-.72-1.58-1.1c-.63-.27,.12-3.03-1.62-4.07-1.5-.9-4.3,1.92-5.59,2.32-1.48,.45-3.84,1.22-4.32,1.68-.57,.54-2.68,2.11-1.71,3.45,.47,.65,1.38,.34,2.37,.5,.69,.11,1.5,.04,2.1,.07,1.5,.06,1.91-.94,2.3-.79,.53,.21,1.56,.89,3.48,.59,1.53-.24,1.57-.68,1.87-.54,.6,.3,1.28,.65,2.03,.16Z"/>
              <path class="cls-3" d="M17.93,11.85c1.16-.69,1.22-1.53,.74-2.07-.52-.58-.64-.63-1.51-1-.61-.26,.19-3.12-1.55-4.21-1.48-.93-4.29,1.95-5.56,2.35-1.47,.45-3.8,1.19-4.23,1.59-.5,.46-2.72,2.04-1.72,3.38,.46,.62,1.38,.27,2.39,.4,.69,.09,1.52,0,2.11,0,1.51,.03,1.89-1.02,2.24-.86,.52,.23,1.51,.92,3.43,.63,1.54-.23,1.52-.69,1.8-.53,.56,.34,1.13,.76,1.87,.32Z"/>
            </g>
            <path class="cls-3" d="M17.99,8.76c.12-.42,.18-.86,.18-1.31,0-2.7-2.19-4.89-4.89-4.89-2.29,0-4.21,1.57-4.74,3.69-.05,0-.1,0-.15,0-1.07,0-2.01,.55-2.55,1.38-.28-.12-.58-.18-.91-.18-1.31,0-2.37,1.06-2.37,2.37s1.06,2.37,2.37,2.37c.58,0,1.1-.21,1.51-.55,.53,.44,1.2,.7,1.94,.7,.82,0,1.57-.33,2.12-.86,.79,.54,1.74,.86,2.77,.86,.94,0,1.82-.27,2.56-.73,.34,.42,.86,.7,1.44,.7,1.02,0,1.85-.83,1.85-1.85,0-.77-.47-1.43-1.14-1.7Z"/>
            <path class="cls-3" d="M18.06,8.83c.12-.42,.18-.86,.18-1.31,0-2.7-2.19-4.89-4.89-4.89-2.29,0-4.21,1.57-4.74,3.69-.05,0-.1,0-.15,0-1.07,0-2.01,.55-2.55,1.38-.28-.12-.58-.18-.91-.18-1.31,0-2.37,1.06-2.37,2.37s1.06,2.37,2.37,2.37c.58,0,1.1-.21,1.51-.55,.53,.44,1.2,.7,1.94,.7,.82,0,1.57-.33,2.12-.86,.79,.54,1.74,.86,2.77,.86,.94,0,1.82-.27,2.56-.73,.34,.42,.86,.69,1.44,.69,1.02,0,1.85-.83,1.85-1.85,0-.77-.47-1.43-1.14-1.7Z"/>
          </g>
          <g>
            <g class="cls-23">
              <path class="cls-6" d="M31.4,15.24c1.44-1.22,1.18-4.99,.45-5.99-.96-1.32-1.99-2.13-2.87-2.57-.88-.44-3.36-.82-4.49-.82-1.58,0-3.13,.38-4.4,.72-1.38,.37-4.08,1.36-5.36,2.77-1.5,1.65-.18,4.92,.21,5.4,.72,.9,1.58,1.79,2.67,2.31,1.04,.5,1.95,.48,2.73,.53,.59,.04,3.22,.33,4.76,.01,1.09-.23,2.94-.56,3.46-.83,.49-.24,1.71-.56,2.85-1.53Z"/>
              <path class="cls-1" d="M31.17,15.12c1.42-1.18,1.18-4.82,.45-5.84-.95-1.33-1.96-2.09-2.84-2.52-.86-.43-3.24-.81-4.35-.82-1.54-.01-3.08,.36-4.34,.7-1.37,.37-4.04,1.36-5.28,2.71-1.45,1.58-.21,4.77,.2,5.28,.69,.87,1.51,1.75,2.61,2.26,1.03,.49,1.92,.44,2.68,.5,.58,.05,3.12,.37,4.66,.06,1.1-.23,2.88-.59,3.39-.85,.49-.24,1.69-.53,2.83-1.47Z"/>
              <path class="cls-2" d="M30.94,14.99c1.4-1.14,1.18-4.66,.46-5.69-.93-1.33-1.94-2.05-2.8-2.47-.85-.42-3.11-.8-4.21-.82-1.5-.03-3.04,.33-4.29,.67-1.36,.37-4,1.36-5.19,2.66-1.4,1.52-.24,4.62,.19,5.15,.67,.84,1.45,1.71,2.54,2.21,1.02,.47,1.9,.41,2.63,.47,.57,.05,3.02,.41,4.56,.1,1.1-.22,2.81-.62,3.31-.87,.48-.24,1.67-.49,2.8-1.42Z"/>
              <path class="cls-4" d="M30.7,14.87c1.38-1.1,1.18-4.5,.47-5.54-.91-1.34-1.91-2.01-2.77-2.43-.83-.41-2.98-.79-4.07-.82-1.46-.04-2.99,.3-4.23,.64-1.35,.37-3.96,1.36-5.11,2.61-1.34,1.46-.27,4.47,.18,5.03,.65,.81,1.38,1.67,2.47,2.16,1.01,.45,1.87,.37,2.58,.44,.57,.06,2.92,.45,4.46,.14,1.11-.22,2.75-.65,3.24-.89,.48-.24,1.66-.46,2.78-1.36Z"/>
              <path class="cls-5" d="M30.47,14.74c1.36-1.06,1.18-4.34,.48-5.39-.89-1.34-1.89-1.96-2.74-2.38-.81-.4-2.85-.78-3.93-.82-1.42-.05-2.94,.28-4.17,.62-1.34,.37-3.92,1.36-5.02,2.56-1.29,1.4-.31,4.32,.17,4.91,.63,.78,1.31,1.64,2.41,2.11,1,.43,1.85,.34,2.53,.41,.56,.06,2.82,.49,4.36,.19,1.12-.22,2.69-.67,3.16-.91s1.64-.43,2.75-1.3Z"/>
              <path class="cls-18" d="M30.24,14.62c1.34-1.03,1.18-4.17,.49-5.24-.87-1.34-1.86-1.92-2.7-2.33-.79-.39-2.72-.77-3.79-.82-1.38-.06-2.9,.25-4.11,.59-1.33,.37-3.88,1.36-4.94,2.51-1.24,1.34-.34,4.17,.16,4.78,.61,.75,1.24,1.6,2.34,2.06,.99,.42,1.82,.3,2.48,.39,.55,.07,2.72,.53,4.26,.23,1.13-.22,2.63-.7,3.08-.93,.48-.24,1.62-.4,2.73-1.25Z"/>
              <path class="cls-17" d="M30.01,14.5c1.32-.99,1.18-4.01,.5-5.08-.86-1.35-1.84-1.88-2.67-2.28-.77-.38-2.59-.76-3.65-.82-1.34-.07-2.85,.23-4.06,.56-1.32,.37-3.84,1.36-4.86,2.46-1.19,1.28-.37,4.02,.15,4.66,.59,.72,1.17,1.56,2.27,2.01,.97,.4,1.8,.27,2.44,.36,.54,.07,2.62,.57,4.16,.27,1.13-.22,2.57-.73,3.01-.95,.47-.24,1.6-.37,2.7-1.19Z"/>
              <path class="cls-16" d="M29.78,14.37c1.3-.95,1.18-3.85,.51-4.93-.84-1.35-1.81-1.84-2.63-2.23-.75-.36-2.46-.75-3.5-.82-1.3-.09-2.81,.2-4,.53-1.31,.37-3.8,1.36-4.77,2.41-1.13,1.22-.4,3.87,.14,4.54s1.1,1.52,2.21,1.96c.96,.38,1.77,.24,2.39,.33,.54,.08,2.52,.61,4.06,.32,1.14-.21,2.51-.76,2.93-.97,.47-.24,1.59-.33,2.68-1.13Z"/>
              <path class="cls-20" d="M29.54,14.25c1.27-.91,1.18-3.68,.51-4.78-.82-1.35-1.79-1.79-2.6-2.18-.73-.35-2.34-.74-3.36-.82-1.26-.1-2.76,.18-3.94,.51-1.3,.37-3.76,1.36-4.69,2.36-1.08,1.16-.44,3.73,.13,4.41s1.03,1.49,2.14,1.91c.95,.37,1.75,.2,2.34,.3,.53,.08,2.42,.65,3.96,.36,1.15-.21,2.45-.78,2.86-.99,.47-.24,1.57-.3,2.65-1.08Z"/>
              <path class="cls-19" d="M29.31,14.13c1.25-.87,1.18-3.52,.52-4.63-.8-1.36-1.76-1.75-2.57-2.14-.71-.34-2.21-.73-3.22-.82-1.22-.11-2.72,.15-3.88,.48-1.29,.37-3.72,1.36-4.6,2.31-1.03,1.1-.47,3.58,.12,4.29,.52,.64,.96,1.45,2.07,1.87,.94,.35,1.72,.17,2.29,.27,.52,.09,2.33,.69,3.86,.4,1.15-.21,2.38-.81,2.78-1.01,.46-.24,1.55-.27,2.63-1.02Z"/>
              <path class="cls-10" d="M29.08,14c1.23-.84,1.18-3.36,.53-4.48-.79-1.36-1.74-1.71-2.53-2.09-.7-.33-2.08-.72-3.08-.82-1.18-.12-2.67,.12-3.83,.45-1.28,.37-3.68,1.37-4.52,2.25-.98,1.04-.5,3.43,.11,4.17,.5,.61,.89,1.41,2,1.82,.93,.34,1.7,.14,2.24,.24,.51,.1,2.23,.73,3.77,.45,1.16-.21,2.32-.84,2.7-1.04,.46-.24,1.53-.24,2.6-.96Z"/>
              <path class="cls-9" d="M28.85,13.88c1.21-.8,1.18-3.2,.54-4.33-.77-1.36-1.71-1.67-2.5-2.04-.68-.32-1.95-.7-2.94-.82-1.14-.13-2.63,.1-3.77,.43-1.27,.37-3.64,1.37-4.43,2.2-.93,.98-.53,3.28,.1,4.05,.48,.58,.82,1.38,1.94,1.77,.92,.32,1.67,.11,2.19,.21s2.13,.77,3.67,.49c1.17-.21,2.26-.87,2.63-1.06,.46-.24,1.52-.21,2.58-.91Z"/>
              <path class="cls-7" d="M28.62,13.75c1.19-.76,1.18-3.03,.55-4.17-.75-1.37-1.69-1.63-2.47-1.99-.66-.31-1.82-.69-2.8-.82-1.1-.14-2.58,.07-3.71,.4-1.26,.37-3.6,1.37-4.35,2.15-.87,.92-.57,3.13,.09,3.92,.46,.55,.75,1.34,1.87,1.72,.9,.3,1.65,.08,2.14,.18s2.03,.81,3.57,.54c1.17-.2,2.2-.89,2.55-1.08,.45-.24,1.5-.18,2.55-.85Z"/>
              <path class="cls-8" d="M28.38,13.63c1.17-.73,1.18-2.87,.56-4.02-.74-1.37-1.66-1.59-2.43-1.94-.64-.3-1.69-.68-2.66-.82-1.06-.15-2.54,.05-3.65,.37-1.25,.37-3.56,1.37-4.26,2.1-.82,.86-.6,2.98,.08,3.8,.44,.53,.68,1.3,1.8,1.67,.89,.29,1.62,.04,2.09,.16s1.93,.85,3.47,.58c1.18-.2,2.14-.92,2.48-1.1,.45-.24,1.48-.14,2.53-.79Z"/>
              <path class="cls-21" d="M28.15,13.51c1.15-.69,1.18-2.71,.57-3.87-.72-1.37-1.64-1.54-2.4-1.89-.62-.28-1.56-.67-2.52-.81-1.02-.16-2.49,.02-3.6,.35-1.25,.37-3.52,1.37-4.18,2.05-.77,.8-.63,2.83,.07,3.68,.41,.5,.61,1.27,1.74,1.62,.88,.27,1.6,.01,2.05,.13,.48,.12,1.83,.88,3.37,.62,1.19-.2,2.08-.95,2.4-1.12,.45-.24,1.46-.11,2.5-.74Z"/>
              <path class="cls-15" d="M27.92,13.38c1.13-.65,1.18-2.54,.58-3.72-.7-1.37-1.61-1.5-2.37-1.85-.6-.27-1.44-.65-2.37-.81s-2.44,0-3.54,.32c-1.24,.37-3.48,1.37-4.09,2-.72,.74-.67,2.68,.06,3.55,.39,.47,.54,1.23,1.67,1.57,.87,.26,1.57-.02,2,.1,.47,.13,1.73,.92,3.27,.67,1.19-.2,2.01-.98,2.32-1.14,.45-.24,1.44-.08,2.48-.68Z"/>
              <path class="cls-13" d="M27.69,13.26c1.1-.62,1.18-2.38,.58-3.57-.69-1.38-1.59-1.46-2.33-1.8-.58-.26-1.31-.64-2.23-.81s-2.4-.03-3.48,.29c-1.23,.37-3.44,1.37-4.01,1.95-.66,.68-.7,2.53,.05,3.43,.37,.44,.47,1.2,1.6,1.52,.85,.24,1.55-.05,1.95,.07,.46,.14,1.63,.96,3.17,.71,1.2-.2,1.95-1,2.25-1.16,.44-.24,1.43-.05,2.45-.62Z"/>
              <path class="cls-14" d="M27.45,13.14c1.08-.58,1.18-2.22,.59-3.42-.67-1.38-1.56-1.42-2.3-1.75-.56-.25-1.18-.63-2.09-.81s-2.35-.06-3.43,.26c-1.22,.37-3.4,1.37-3.92,1.9-.61,.61-.73,2.39,.04,3.31,.35,.41,.4,1.16,1.54,1.47,.84,.23,1.52-.08,1.9,.04,.45,.15,1.53,1,3.07,.75,1.21-.19,1.89-1.03,2.17-1.18,.44-.24,1.41-.02,2.43-.57Z"/>
              <path class="cls-12" d="M27.22,13.01c1.06-.54,1.18-2.05,.6-3.26-.65-1.38-1.54-1.38-2.26-1.7-.54-.24-1.05-.61-1.95-.81s-2.31-.08-3.37,.24c-1.21,.37-3.36,1.37-3.84,1.84-.56,.55-.77,2.24,.03,3.18,.32,.38,.33,1.12,1.47,1.42,.83,.21,1.5-.11,1.85,.01,.45,.15,1.43,1.04,2.97,.8,1.22-.19,1.83-1.06,2.09-1.2,.44-.24,1.39,0,2.4-.51Z"/>
              <path class="cls-11" d="M26.99,12.89c1.04-.51,1.17-1.89,.61-3.11-.64-1.38-1.51-1.34-2.23-1.65-.52-.23-.92-.6-1.81-.81-.82-.2-2.26-.11-3.31,.21-1.2,.37-3.32,1.37-3.75,1.79-.51,.49-.8,2.09,.02,3.06,.3,.36,.26,1.09,1.4,1.37,.82,.2,1.47-.14,1.8-.02,.44,.16,1.34,1.08,2.87,.84,1.22-.19,1.77-1.09,2.02-1.23,.43-.24,1.37,.04,2.37-.45Z"/>
              <path class="cls-22" d="M26.76,12.76c1.02-.48,1.17-1.72,.62-2.96-.62-1.39-1.49-1.3-2.2-1.6-.51-.22-.79-.58-1.67-.81-.79-.2-2.22-.14-3.25,.18-1.19,.37-3.28,1.37-3.67,1.74-.45,.43-.84,1.94,0,2.94,.28,.33,.19,1.06,1.34,1.32,.81,.19,1.44-.17,1.75-.05,.43,.17,1.24,1.12,2.78,.88,1.23-.19,1.71-1.11,1.94-1.25,.43-.24,1.35,.07,2.35-.4Z"/>
              <path class="cls-3" d="M26.53,12.64c1-.44,1.17-1.56,.63-2.81-.61-1.39-1.46-1.26-2.16-1.56-.49-.21-.67-.57-1.53-.81-.75-.21-2.17-.16-3.2,.16-1.18,.36-3.24,1.37-3.58,1.69-.4,.37-.87,1.8,0,2.82,.26,.3,.12,1.02,1.27,1.27,.79,.17,1.42-.2,1.71-.07,.42,.18,1.14,1.16,2.68,.93,1.24-.19,1.64-1.14,1.87-1.27,.43-.24,1.33,.1,2.32-.34Z"/>
            </g>
            <path class="cls-3" d="M25.2,7.96c-.05,0-.11,0-.16,0-.29-.81-1.06-1.4-1.97-1.4-.27,0-.53,.05-.77,.15-.28-.78-1.03-1.34-1.91-1.34s-1.59,.53-1.89,1.28c-.1-.02-.2-.03-.31-.03-.92,0-1.68,.7-1.78,1.6-.13-.03-.26-.04-.4-.04-1.11,0-2.01,.9-2.01,2.01s.9,2.01,2.01,2.01c.02,0,.03,0,.05,0,.2,.81,.93,1.42,1.8,1.42,.68,0,1.27-.36,1.59-.9,.44,.76,1.26,1.26,2.2,1.26,1.04,0,1.93-.62,2.33-1.51,.35,.2,.77,.32,1.2,.32,1.34,0,2.42-1.08,2.42-2.42s-1.08-2.42-2.42-2.42Z"/>
            <path class="cls-3" d="M25.28,8.04c-.05,0-.11,0-.16,0-.29-.82-1.06-1.4-1.97-1.4-.27,0-.53,.05-.77,.15-.28-.78-1.03-1.34-1.91-1.34s-1.59,.53-1.89,1.28c-.1-.02-.2-.03-.31-.03-.92,0-1.68,.7-1.78,1.6-.13-.03-.26-.04-.4-.04-1.11,0-2.01,.9-2.01,2.01s.9,2.02,2.01,2.02c.02,0,.03,0,.05,0,.2,.81,.93,1.42,1.8,1.42,.68,0,1.27-.36,1.59-.9,.44,.76,1.26,1.26,2.2,1.26,1.04,0,1.93-.62,2.33-1.52,.35,.2,.77,.32,1.2,.32,1.34,0,2.42-1.08,2.42-2.42s-1.08-2.42-2.42-2.42Z"/>
          </g>
          <g>
            <g class="cls-23">
              <path class="cls-6" d="M29.82,10.98c1.71-1.77,1.6-5.41,.65-6.71-1.24-1.71-2.75-2.34-3.88-2.9-1.14-.57-2.79-1.09-4.23-1.31-1.78-.27-3.74,.5-5.38,.94-1.77,.47-7.25,2.32-8.9,4.13-.91,1-1.14,2.3-1.01,3.5,.15,1.34,.75,2.55,1.01,2.87,.92,1.16,4.3,2.31,5.7,2.99,1.34,.64,2.51,.61,3.51,.68,.76,.05,2.89,0,4.87-.42,1.4-.29,2.8-1.38,3.48-1.72,.63-.31,2.88-.71,4.17-2.06Z"/>
              <path class="cls-1" d="M29.56,10.85c1.69-1.72,1.6-5.25,.67-6.54-1.21-1.68-2.69-2.28-3.81-2.84-1.11-.55-2.69-1.07-4.12-1.3-1.73-.27-3.64,.46-5.28,.9-1.76,.48-7.26,2.32-8.87,4.05-.91,.98-1.14,2.27-.98,3.45,.17,1.31,.81,2.47,1.09,2.79,.94,1.07,4.15,2.26,5.55,2.92,1.33,.62,2.47,.52,3.44,.59,.75,.06,2.8,.1,4.82-.33,1.41-.3,2.74-1.41,3.4-1.74,.63-.31,2.79-.65,4.09-1.96Z"/>
              <path class="cls-2" d="M29.3,10.72c1.67-1.65,1.61-5.08,.69-6.37-1.19-1.66-2.63-2.22-3.74-2.77-1.09-.54-2.58-1.05-4.01-1.29-1.69-.28-3.55,.42-5.18,.87-1.74,.48-7.28,2.31-8.84,3.96-.91,.96-1.14,2.24-.96,3.4,.2,1.29,.87,2.38,1.18,2.71,.95,1,4,2.21,5.4,2.85,1.31,.6,2.43,.42,3.37,.5,.74,.07,2.71,.19,4.76-.25,1.42-.3,2.69-1.43,3.33-1.75,.62-.31,2.71-.59,4-1.86Z"/>
              <path class="cls-4" d="M29.05,10.59c1.65-1.59,1.61-4.92,.71-6.19-1.16-1.64-2.57-2.17-3.67-2.71-1.06-.52-2.48-1.03-3.91-1.28-1.65-.28-3.46,.38-5.07,.83-1.73,.48-7.3,2.31-8.81,3.87-.91,.94-1.14,2.22-.94,3.35,.22,1.27,.93,2.3,1.27,2.62,.95,.92,3.84,2.15,5.25,2.78,1.3,.58,2.39,.33,3.3,.42,.73,.07,2.62,.29,4.71-.16,1.42-.31,2.63-1.46,3.25-1.77,.62-.31,2.63-.53,3.91-1.77Z"/>
              <path class="cls-5" d="M28.79,10.46c1.63-1.53,1.61-4.75,.73-6.02-1.13-1.61-2.52-2.11-3.6-2.64-1.04-.51-2.37-1.01-3.8-1.26-1.61-.29-3.37,.34-4.97,.79-1.71,.49-7.31,2.31-8.79,3.79-.91,.92-1.13,2.19-.92,3.31,.24,1.24,.99,2.22,1.35,2.54,.94,.85,3.69,2.1,5.1,2.71,1.28,.56,2.35,.23,3.23,.33,.72,.08,2.53,.39,4.65-.08,1.43-.31,2.58-1.49,3.18-1.79,.61-.31,2.54-.47,3.83-1.67Z"/>
              <path class="cls-18" d="M28.54,10.33c1.61-1.47,1.62-4.59,.75-5.85-1.1-1.59-2.46-2.06-3.53-2.58-1.01-.49-2.27-.99-3.69-1.25-1.57-.29-3.28,.3-4.87,.76-1.7,.49-7.33,2.3-8.76,3.7-.91,.89-1.13,2.16-.89,3.26,.26,1.22,1.05,2.13,1.44,2.46,.93,.78,3.54,2.04,4.95,2.64,1.27,.54,2.31,.14,3.16,.24,.71,.09,2.44,.49,4.6,0,1.43-.32,2.52-1.51,3.1-1.81s2.46-.41,3.74-1.57Z"/>
              <path class="cls-17" d="M28.28,10.2c1.59-1.41,1.63-4.42,.77-5.67-1.07-1.57-2.4-2-3.46-2.52-.99-.48-2.16-.96-3.59-1.24-1.52-.3-3.19,.26-4.77,.72-1.69,.49-7.35,2.3-8.73,3.62-.91,.87-1.13,2.13-.87,3.21,.28,1.2,1.11,2.05,1.53,2.37,.92,.72,3.39,1.99,4.8,2.57,1.25,.51,2.27,.04,3.09,.15,.7,.09,2.35,.59,4.55,.09,1.44-.32,2.47-1.54,3.03-1.82,.61-.31,2.37-.35,3.65-1.48Z"/>
              <path class="cls-16" d="M28.03,10.07c1.57-1.35,1.63-4.26,.79-5.5-1.04-1.55-2.34-1.95-3.39-2.45-.96-.47-2.06-.94-3.48-1.23s-3.1,.22-4.67,.69c-1.67,.49-7.37,2.29-8.7,3.53-.91,.85-1.12,2.1-.85,3.16,.3,1.17,1.17,1.96,1.61,2.29,.9,.66,3.24,1.94,4.65,2.5,1.23,.49,2.23-.05,3.02,.06,.69,.1,2.26,.69,4.49,.17,1.45-.33,2.41-1.56,2.96-1.84,.6-.31,2.29-.28,3.56-1.38Z"/>
              <path class="cls-20" d="M27.77,9.94c1.55-1.29,1.64-4.09,.81-5.33-1.01-1.52-2.28-1.89-3.32-2.39-.94-.45-1.95-.92-3.37-1.22s-3.01,.18-4.57,.65c-1.66,.5-7.39,2.28-8.67,3.45-.91,.83-1.12,2.07-.83,3.11,.32,1.15,1.22,1.88,1.7,2.21,.87,.6,3.09,1.89,4.5,2.43,1.22,.47,2.19-.15,2.95-.03,.67,.11,2.18,.78,4.44,.26,1.45-.33,2.36-1.59,2.88-1.86,.6-.31,2.21-.22,3.48-1.28Z"/>
              <path class="cls-19" d="M27.52,9.81c1.53-1.23,1.64-3.93,.83-5.16-.99-1.5-2.22-1.83-3.25-2.32-.91-.44-1.85-.89-3.27-1.21s-2.91,.14-4.47,.61c-1.64,.5-7.42,2.27-8.64,3.36-.91,.81-1.12,2.04-.81,3.06,.34,1.12,1.23,1.89,1.79,2.12,.74,.68,2.94,1.83,4.35,2.37,1.2,.45,2.15-.24,2.88-.11,.66,.11,2.09,.88,4.38,.34,1.46-.34,2.3-1.61,2.81-1.88,.59-.31,2.12-.16,3.39-1.19Z"/>
              <path class="cls-10" d="M27.26,9.68c1.51-1.17,1.65-3.76,.85-4.98-.96-1.48-2.17-1.78-3.18-2.26-.89-.42-1.74-.87-3.16-1.2s-2.82,.1-4.36,.58c-1.63,.5-7.44,2.27-8.61,3.27-.91,.78-1.12,2.02-.78,3.01,.36,1.1,1.28,1.82,1.87,2.04,.72,.63,2.79,1.78,4.2,2.3,1.19,.43,2.11-.33,2.81-.2,.65,.12,2,.98,4.33,.43,1.46-.34,2.24-1.64,2.73-1.89,.59-.31,2.04-.1,3.3-1.09Z"/>
              <path class="cls-9" d="M27,9.55c1.49-1.12,1.65-3.6,.88-4.81-.93-1.45-2.11-1.72-3.11-2.19-.86-.41-1.64-.85-3.05-1.19-1.32-.32-2.73,.06-4.26,.54-1.61,.5-7.47,2.26-8.59,3.19-.91,.76-1.11,1.99-.76,2.96,.39,1.08,1.33,1.75,1.96,1.96,.7,.58,2.63,1.73,4.05,2.23,1.17,.41,2.07-.42,2.74-.29s1.91,1.08,4.28,.51c1.47-.35,2.19-1.67,2.66-1.91,.58-.31,1.95-.05,3.21-.99Z"/>
              <path class="cls-7" d="M26.75,9.42c1.46-1.06,1.66-3.43,.9-4.64-.9-1.43-2.05-1.67-3.04-2.13-.84-.39-1.53-.82-2.95-1.18-1.27-.32-2.64,.02-4.16,.51-1.6,.51-7.49,2.25-8.56,3.1-.92,.74-1.11,1.96-.74,2.91,.41,1.05,1.39,1.67,2.05,1.87,.68,.53,2.48,1.68,3.9,2.16,1.15,.39,2.03-.52,2.67-.38s1.82,1.18,4.22,.59c1.47-.35,2.13-1.69,2.58-1.93,.58-.31,1.87,.01,3.13-.9Z"/>
              <path class="cls-8" d="M26.49,9.29c1.44-1,1.66-3.27,.92-4.47-.88-1.41-1.99-1.61-2.97-2.06-.81-.38-1.43-.8-2.84-1.17-1.23-.32-2.55-.02-4.06,.47-1.58,.51-7.52,2.23-8.53,3.02-.92,.71-1.11,1.93-.72,2.86,.43,1.03,1.44,1.6,2.13,1.79,.66,.47,2.33,1.62,3.75,2.09,1.14,.37,1.99-.61,2.59-.47s1.73,1.27,4.17,.68c1.48-.36,2.08-1.72,2.51-1.95,.57-.3,1.78,.07,3.04-.8Z"/>
              <path class="cls-21" d="M26.24,9.16c1.42-.94,1.67-3.1,.94-4.29-.85-1.38-1.93-1.55-2.9-2-.79-.36-1.32-.77-2.73-1.15-1.19-.32-2.46-.06-3.96,.43-1.57,.51-7.55,2.22-8.5,2.93s-1.11,1.9-.7,2.81c.45,1,1.54,1.41,2.22,1.71s2.18,1.57,3.6,2.02c1.12,.35,1.95-.7,2.52-.55,.61,.15,1.64,1.37,4.11,.76,1.49-.36,2.02-1.74,2.43-1.96,.57-.3,1.7,.13,2.95-.7Z"/>
              <path class="cls-15" d="M25.98,9.03c1.4-.89,1.67-2.94,.96-4.12-.82-1.36-1.88-1.5-2.83-1.93-.76-.35-1.22-.75-2.63-1.14-1.15-.32-2.37-.1-3.86,.4-1.55,.52-7.58,2.21-8.47,2.84s-1.1,1.87-.67,2.76c.47,.98,1.58,1.34,2.31,1.63,.67,.27,2.03,1.52,3.46,1.95,1.1,.33,1.91-.79,2.45-.64,.6,.16,1.55,1.47,4.06,.85,1.49-.37,1.97-1.77,2.36-1.98,.57-.3,1.61,.19,2.86-.61Z"/>
              <path class="cls-13" d="M25.73,8.9c1.37-.83,1.67-2.77,.98-3.95-.79-1.33-1.82-1.44-2.76-1.87-.74-.34-1.11-.72-2.52-1.13-1.11-.32-2.27-.14-3.75,.36-1.54,.52-7.6,2.19-8.44,2.76-.93,.63-1.1,1.84-.65,2.71,.49,.96,1.63,1.27,2.4,1.54,.64,.23,1.87,1.47,3.31,1.88,1.09,.31,1.87-.88,2.38-.73,.59,.17,1.46,1.57,4,.93,1.5-.37,1.91-1.8,2.29-2,.56-.3,1.52,.25,2.78-.51Z"/>
              <path class="cls-14" d="M25.47,8.77c1.35-.77,1.68-2.61,1-3.77-.77-1.31-1.76-1.39-2.69-1.8-.71-.32-1.01-.7-2.41-1.12-1.07-.32-2.18-.18-3.65,.32-1.52,.52-7.64,2.17-8.41,2.67-.94,.6-1.1,1.82-.63,2.66,.51,.93,1.68,1.21,2.48,1.46,.61,.19,1.72,1.42,3.16,1.81,1.07,.29,1.83-.97,2.31-.82,.58,.18,1.37,1.67,3.95,1.01,1.5-.38,1.86-1.82,2.21-2.02,.56-.3,1.44,.31,2.69-.41Z"/>
              <path class="cls-12" d="M25.21,8.64c1.33-.72,1.68-2.44,1.02-3.6-.74-1.29-1.7-1.33-2.62-1.74-.69-.31-.91-.67-2.3-1.11-1.03-.32-2.09-.22-3.55,.29-1.51,.52-7.67,2.15-8.39,2.59-.95,.57-1.09,1.79-.61,2.61,.53,.91,1.73,1.15,2.57,1.38,.58,.15,1.57,1.37,3.01,1.74,1.05,.27,1.79-1.06,2.24-.91,.57,.19,1.28,1.77,3.9,1.1,1.51-.38,1.8-1.85,2.14-2.04,.55-.3,1.35,.36,2.6-.31Z"/>
              <path class="cls-11" d="M24.96,8.51c1.3-.66,1.69-2.28,1.04-3.43-.71-1.26-1.64-1.28-2.55-1.67-.66-.29-.8-.64-2.2-1.1-.99-.32-2-.26-3.45,.25-1.49,.53-7.7,2.13-8.36,2.5-.96,.53-1.09,1.76-.58,2.56,.55,.88,1.77,1.1,2.66,1.29,.55,.12,1.42,1.32,2.86,1.68,1.03,.25,1.75-1.15,2.17-1,.55,.21,1.19,1.86,3.84,1.18,1.52-.39,1.74-1.88,2.06-2.05,.55-.3,1.26,.42,2.51-.22Z"/>
              <path class="cls-22" d="M24.7,8.38c1.28-.61,1.69-2.11,1.06-3.26-.68-1.24-1.58-1.22-2.48-1.61-.64-.28-.7-.61-2.09-1.09-.95-.32-1.91-.3-3.35,.22-1.48,.53-7.73,2.11-8.33,2.41-.97,.49-1.09,1.73-.56,2.52,.58,.86,1.82,1.06,2.74,1.21,.52,.09,1.27,1.27,2.71,1.61,1.02,.24,1.71-1.24,2.1-1.08,.54,.22,1.1,1.96,3.79,1.27,1.52-.39,1.69-1.9,1.99-2.07,.54-.3,1.18,.47,2.43-.12Z"/>
              <path class="cls-3" d="M24.45,8.25c1.26-.55,1.69-1.95,1.08-3.08-.66-1.22-1.53-1.16-2.41-1.54-.61-.26-.6-.58-1.98-1.08-.91-.32-1.82-.34-3.25,.18-1.47,.53-7.76,2.09-8.3,2.33-.99,.44-1.09,1.7-.54,2.47,.6,.84,1.87,1.02,2.83,1.13,.5,.05,1.11,1.22,2.56,1.54,1,.22,1.67-1.33,2.03-1.17,.53,.23,1.01,2.06,3.73,1.35,1.53-.4,1.63-1.93,1.91-2.09,.54-.3,1.09,.53,2.34-.02Z"/>
            </g>
            <path class="cls-3" d="M23.38,3.24c-.11,0-.22,0-.33,.02-.41-1.2-1.54-2.06-2.87-2.06-.62,0-1.19,.18-1.67,.5-.33-.9-1.19-1.54-2.2-1.54-1.14,0-2.09,.82-2.3,1.9-.32-.24-.72-.38-1.16-.38-.99,0-1.81,.74-1.93,1.7,0,0-.01,0-.01,0-1.54,0-2.79,1.25-2.79,2.79s1.25,2.79,2.79,2.79c.49,0,.95-.13,1.35-.35,.15,.97,.98,1.71,1.99,1.71,.8,0,1.49-.46,1.81-1.14,.62,.9,1.65,1.5,2.83,1.5,1.52,0,2.81-.99,3.25-2.36,.37,.19,.79,.3,1.23,.3,1.49,0,2.69-1.21,2.69-2.69s-1.21-2.69-2.69-2.69Z"/>
            <path class="cls-3" d="M23.47,3.32c-.11,0-.22,0-.33,.02-.41-1.2-1.54-2.06-2.87-2.06-.62,0-1.19,.18-1.67,.5-.33-.9-1.19-1.54-2.2-1.54-1.14,0-2.09,.82-2.3,1.9-.32-.24-.72-.38-1.16-.38-.99,0-1.81,.74-1.93,1.7h-.01c-1.54,0-2.79,1.25-2.79,2.79s1.25,2.79,2.79,2.79c.49,0,.95-.13,1.36-.35,.14,.97,.98,1.71,1.99,1.71,.8,0,1.49-.46,1.81-1.14,.62,.9,1.65,1.5,2.83,1.5,1.52,0,2.8-.99,3.25-2.36,.37,.19,.79,.3,1.23,.3,1.49,0,2.69-1.21,2.69-2.69s-1.21-2.69-2.69-2.69Z"/>
          </g>
          <g>
            <g class="cls-23">
              <path class="cls-6" d="M18.96,14.53c.88-1.31,.45-3.73-.16-4.57-.81-1.11-1.87-1.6-2.6-1.97-.74-.37-2.35-1.03-3.3-1.03-1.32,0-1.99,.49-3.06,.78-1.15,.31-3.11,2.11-4.19,3.29-1.26,1.38-.94,3.46-.62,3.86,.6,.75,1.33,1.5,2.24,1.94,.87,.42,1.63,.4,2.29,.44,.5,.03,1.07,.28,2.36,.01,.91-.19,1.35-.26,1.82-.41,1-.31,4.15-.75,5.22-2.33Z"/>
              <path class="cls-1" d="M18.77,14.47c.88-1.26,.51-3.6-.1-4.46-.79-1.11-1.86-1.58-2.59-1.94-.72-.36-2.29-1.03-3.23-1.04-1.29,0-1.99,.46-3.05,.74-1.15,.31-3.07,2.09-4.1,3.23-1.21,1.33-.97,3.36-.63,3.78,.58,.73,1.29,1.46,2.21,1.88,.88,.4,1.62,.35,2.26,.4,.49,.04,1.07,.28,2.36,.01,.92-.19,1.36-.27,1.82-.41,.97-.28,4-.68,5.06-2.21Z"/>
              <path class="cls-2" d="M18.59,14.41c.87-1.22,.56-3.48-.04-4.34-.78-1.12-1.85-1.55-2.58-1.91-.71-.35-2.24-1.04-3.16-1.06-1.26-.02-1.98,.43-3.03,.71-1.14,.31-3.02,2.07-4.02,3.17-1.17,1.28-1,3.25-.64,3.7,.57,.7,1.25,1.43,2.17,1.83,.89,.38,1.61,.31,2.22,.36,.48,.04,1.06,.28,2.35,.02,.93-.19,1.38-.28,1.82-.4,.94-.26,3.85-.61,4.9-2.08Z"/>
              <path class="cls-4" d="M18.41,14.36c.87-1.18,.61-3.35,.02-4.23-.76-1.12-1.85-1.52-2.56-1.88-.69-.34-2.18-1.05-3.09-1.07-1.22-.03-1.97,.4-3.01,.68-1.13,.31-2.97,2.05-3.93,3.1-1.13,1.23-1.04,3.15-.66,3.62,.55,.68,1.21,1.39,2.13,1.77,.89,.36,1.6,.27,2.19,.33,.48,.05,1.06,.28,2.35,.02,.93-.19,1.39-.29,1.82-.4,.91-.23,3.7-.55,4.74-1.95Z"/>
              <path class="cls-5" d="M18.23,14.3c.87-1.13,.67-3.23,.08-4.11-.75-1.12-1.84-1.5-2.55-1.84-.68-.33-2.12-1.06-3.02-1.09-1.19-.04-1.96,.37-2.99,.65-1.12,.31-2.92,2.04-3.84,3.04-1.08,1.18-1.07,3.05-.67,3.54,.53,.65,1.17,1.36,2.1,1.72s1.59,.22,2.16,.29c.47,.05,1.05,.28,2.34,.03,.94-.18,1.4-.3,1.82-.4,.88-.21,3.55-.48,4.58-1.83Z"/>
              <path class="cls-18" d="M18.04,14.24c.86-1.09,.72-3.1,.14-3.99-.73-1.13-1.83-1.47-2.54-1.81-.66-.32-2.06-1.06-2.95-1.1-1.16-.05-1.95,.34-2.97,.62-1.12,.31-2.87,2.02-3.76,2.98-1.04,1.13-1.1,2.95-.68,3.46,.51,.63,1.13,1.32,2.06,1.66s1.58,.18,2.13,.25c.46,.06,1.05,.28,2.34,.03,.94-.18,1.42-.31,1.82-.39,.85-.18,3.39-.41,4.41-1.7Z"/>
              <path class="cls-17" d="M17.86,14.18c.86-1.05,.77-2.98,.2-3.88-.72-1.13-1.83-1.45-2.52-1.78-.65-.31-2-1.07-2.89-1.12-1.12-.06-1.94,.31-2.95,.59-1.11,.31-2.82,2-3.67,2.92-1,1.07-1.13,2.85-.7,3.39,.49,.61,1.09,1.29,2.02,1.6s1.56,.14,2.1,.21c.46,.06,1.05,.28,2.33,.04,.95-.18,1.43-.31,1.82-.39,.82-.16,3.24-.34,4.25-1.57Z"/>
              <path class="cls-16" d="M17.68,14.13c.86-1,.83-2.85,.26-3.76-.7-1.13-1.82-1.42-2.51-1.75-.63-.3-1.95-1.08-2.82-1.14-1.09-.07-1.94,.28-2.94,.56-1.1,.31-2.77,1.98-3.58,2.86-.95,1.02-1.16,2.75-.71,3.31s1.05,1.25,1.99,1.55,1.55,.09,2.07,.17c.45,.07,1.04,.28,2.33,.04,.96-.18,1.44-.32,1.82-.38,.79-.13,3.09-.28,4.09-1.45Z"/>
              <path class="cls-20" d="M17.5,14.07c.85-.96,.88-2.73,.32-3.65-.69-1.13-1.81-1.39-2.5-1.72-.61-.29-1.89-1.08-2.75-1.15-1.06-.08-1.93,.25-2.92,.53-1.09,.31-2.72,1.96-3.49,2.79-.91,.97-1.2,2.65-.72,3.23s1.01,1.22,1.95,1.49,1.54,.05,2.03,.13c.44,.07,1.04,.28,2.33,.04,.96-.18,1.45-.33,1.82-.38,.76-.11,2.94-.21,3.93-1.32Z"/>
              <path class="cls-19" d="M17.32,14.01c.85-.92,.93-2.6,.38-3.53-.67-1.14-1.81-1.36-2.48-1.69-.6-.29-1.83-1.09-2.68-1.17-1.02-.09-1.92,.22-2.9,.5-1.08,.31-2.67,1.94-3.41,2.73-.86,.92-1.23,2.55-.74,3.15,.44,.53,.97,1.18,1.92,1.44s1.53,0,2,.09c.44,.08,1.03,.29,2.32,.05,.97-.18,1.47-.34,1.81-.38,.73-.08,2.79-.14,3.77-1.19Z"/>
              <path class="cls-10" d="M17.13,13.95c.85-.87,.99-2.48,.44-3.42-.66-1.14-1.8-1.34-2.47-1.65-.58-.28-1.77-1.1-2.61-1.18-.99-.1-1.91,.19-2.88,.47-1.08,.31-2.62,1.92-3.32,2.67-.82,.87-1.26,2.45-.75,3.07,.42,.51,.93,1.15,1.88,1.38s1.52-.04,1.97,.05c.43,.08,1.03,.29,2.32,.05,.97-.17,1.48-.35,1.81-.37,.7-.05,2.64-.07,3.61-1.07Z"/>
              <path class="cls-9" d="M16.95,13.9c.85-.83,1.04-2.35,.5-3.3-.65-1.14-1.8-1.31-2.45-1.62-.57-.27-1.71-1.1-2.54-1.2-.96-.11-1.9,.16-2.86,.44-1.07,.31-2.57,1.9-3.23,2.61-.78,.82-1.29,2.35-.76,2.99,.4,.49,.89,1.11,1.84,1.33s1.5-.08,1.94,0,1.02,.29,2.31,.06c.98-.17,1.49-.35,1.81-.37,.67-.03,2.49,0,3.45-.94Z"/>
              <path class="cls-7" d="M16.77,13.84c.84-.78,1.09-2.23,.56-3.18-.63-1.15-1.79-1.29-2.44-1.59-.55-.26-1.66-1.11-2.47-1.21-.92-.12-1.9,.13-2.84,.41-1.06,.31-2.52,1.89-3.15,2.54-.73,.77-1.33,2.25-.78,2.91,.38,.46,.85,1.08,1.81,1.27s1.49-.12,1.91-.03,1.02,.29,2.31,.06c.98-.17,1.51-.36,1.81-.36,.64,0,2.34,.06,3.28-.81Z"/>
              <path class="cls-8" d="M16.59,13.78c.84-.74,1.14-2.1,.62-3.07-.62-1.15-1.78-1.26-2.43-1.56-.54-.25-1.6-1.12-2.41-1.23-.89-.12-1.89,.1-2.83,.38-1.05,.31-2.47,1.87-3.06,2.48-.69,.72-1.36,2.15-.79,2.83,.36,.44,.81,1.04,1.77,1.22s1.48-.16,1.88-.07,1.01,.29,2.3,.06c.99-.17,1.52-.37,1.81-.36,.61,.02,2.19,.13,3.12-.69Z"/>
              <path class="cls-21" d="M16.4,13.72c.84-.69,1.2-1.98,.68-2.95-.6-1.15-1.78-1.23-2.41-1.53-.52-.24-1.54-1.12-2.34-1.24-.86-.13-1.88,.07-2.81,.35-1.04,.31-2.42,1.85-2.97,2.42-.64,.67-1.39,2.05-.8,2.75,.35,.42,.77,1,1.73,1.16s1.47-.21,1.84-.11c.4,.1,1.01,.29,2.3,.07,1-.17,1.53-.38,1.81-.35,.58,.05,2.04,.2,2.96-.56Z"/>
              <path class="cls-15" d="M16.22,13.67c.84-.65,1.25-1.85,.74-2.84-.59-1.15-1.77-1.21-2.4-1.49-.5-.23-1.48-1.13-2.27-1.26s-1.87,.04-2.79,.32c-1.04,.31-2.37,1.83-2.89,2.36-.6,.62-1.43,1.95-.82,2.68,.33,.39,.74,.97,1.7,1.1s1.46-.25,1.81-.15c.4,.11,1,.29,2.29,.07,1-.17,1.55-.39,1.81-.35,.55,.07,1.89,.27,2.8-.43Z"/>
              <path class="cls-13" d="M16.04,13.61c.84-.6,1.3-1.73,.8-2.72-.58-1.16-1.76-1.18-2.39-1.46-.49-.22-1.42-1.13-2.2-1.28s-1.86,.01-2.77,.28c-1.03,.31-2.32,1.81-2.8,2.29-.56,.57-1.46,1.85-.83,2.6,.31,.37,.7,.93,1.66,1.05s1.44-.29,1.78-.19c.39,.11,1,.29,2.29,.08,1.01-.16,1.56-.39,1.81-.35,.52,.1,1.74,.34,2.64-.31Z"/>
              <path class="cls-14" d="M15.86,13.55c.84-.56,1.35-1.6,.86-2.61-.56-1.16-1.76-1.16-2.37-1.43-.47-.21-1.37-1.14-2.13-1.29s-1.85-.02-2.75,.25c-1.02,.31-2.27,1.79-2.71,2.23-.51,.51-1.49,1.75-.84,2.52,.29,.35,.66,.9,1.63,.99s1.43-.33,1.75-.23c.38,.12,.99,.29,2.28,.08,1.01-.16,1.57-.4,1.81-.34,.49,.13,1.59,.41,2.48-.18Z"/>
              <path class="cls-12" d="M15.67,13.5c.84-.51,1.41-1.47,.93-2.49-.55-1.16-1.75-1.13-2.36-1.4-.46-.2-1.31-1.14-2.06-1.31s-1.85-.05-2.73,.22c-1.01,.31-2.22,1.77-2.62,2.17-.47,.46-1.52,1.65-.86,2.44,.27,.32,.62,.86,1.59,.94s1.42-.37,1.72-.27c.37,.13,.99,.29,2.28,.09,1.02-.16,1.58-.41,1.81-.34,.46,.15,1.45,.48,2.32-.05Z"/>
              <path class="cls-11" d="M15.49,13.44c.84-.46,1.46-1.35,.99-2.38-.54-1.16-1.74-1.1-2.34-1.37-.44-.19-1.25-1.14-2-1.32-.69-.17-1.84-.08-2.72,.19-1,.31-2.17,1.75-2.54,2.11-.42,.41-1.56,1.55-.87,2.36,.25,.3,.58,.82,1.55,.88,1,.06,1.41-.41,1.69-.31,.37,.14,.98,.29,2.27,.09,1.03-.16,1.6-.42,1.81-.33,.44,.18,1.3,.55,2.15,.07Z"/>
              <path class="cls-22" d="M15.31,13.38c.83-.42,1.51-1.22,1.05-2.26-.52-1.16-1.74-1.08-2.33-1.34-.42-.18-1.19-1.15-1.93-1.34-.66-.17-1.83-.11-2.7,.16-1,.31-2.13,1.74-2.45,2.05-.38,.36-1.59,1.45-.88,2.28,.23,.28,.54,.79,1.52,.83,1.01,.04,1.39-.45,1.65-.35,.36,.14,.98,.29,2.27,.09,1.03-.16,1.61-.43,1.81-.33,.41,.2,1.15,.62,1.99,.2Z"/>
              <path class="cls-3" d="M15.13,13.32c.83-.37,1.56-1.1,1.11-2.14-.51-1.17-1.73-1.05-2.32-1.3-.41-.18-1.14-1.15-1.86-1.35-.63-.18-1.82-.13-2.68,.13-.99,.31-2.08,1.72-2.36,1.98-.34,.31-1.63,1.35-.9,2.2,.21,.25,.5,.75,1.48,.77,1.01,.02,1.38-.49,1.62-.39,.35,.15,.98,.29,2.27,.1,1.04-.16,1.62-.44,1.81-.33,.38,.23,1,.69,1.83,.33Z"/>
            </g>
            <path class="cls-3" d="M14.58,9.79c-.23-.01-.46,.02-.67,.09-.27-1.39-1.46-2.47-2.94-2.54-1.43-.07-2.69,.82-3.15,2.1h0c-1.21-.06-2.25,.87-2.31,2.08-.06,1.21,.87,2.25,2.08,2.31,.63,.03,1.2-.2,1.62-.6,.42,.25,.9,.4,1.42,.42,.93,.05,1.78-.31,2.4-.92,.31,.4,.8,.68,1.35,.7,1.01,.05,1.87-.72,1.92-1.73,.05-1.01-.72-1.87-1.73-1.92Z"/>
          </g>
        </g>
      </g>
    </g>
  </g>
</svg>