<?xml version="1.0" encoding="UTF-8"?>
<svg xmlns="http://www.w3.org/2000/svg" xmlns:xlink="http://www.w3.org/1999/xlink" viewBox="0 0 22.79 19.82">
  <defs>
    <style>
      .cls-1 {
        fill: url(#radial-gradient-2);
      }

      .cls-1, .cls-2, .cls-3, .cls-4, .cls-5, .cls-6, .cls-7, .cls-8, .cls-9, .cls-10, .cls-11, .cls-12, .cls-13, .cls-14 {
        mix-blend-mode: multiply;
      }

      .cls-2 {
        fill: url(#radial-gradient-5);
      }

      .cls-3 {
        fill: url(#radial-gradient-6);
      }

      .cls-4 {
        fill: url(#radial-gradient-7);
      }

      .cls-5 {
        fill: url(#radial-gradient-3);
      }

      .cls-6 {
        fill: url(#radial-gradient-4);
      }

      .cls-7 {
        fill: url(#radial-gradient-9);
      }

      .cls-8 {
        fill: url(#radial-gradient-8);
      }

      .cls-15 {
        fill: #fff;
      }

      .cls-16 {
        fill: #eef7fa;
      }

      .cls-17 {
        fill: #91d5eb;
      }

      .cls-18 {
        fill: #9ddef2;
      }

      .cls-19 {
        fill: #bee9f7;
      }

      .cls-20 {
        fill: #c8eefa;
      }

      .cls-21 {
        fill: #a2def2;
      }

      .cls-9 {
        fill: url(#radial-gradient);
      }

      .cls-10 {
        fill: url(#radial-gradient-14);
      }

      .cls-11 {
        fill: url(#radial-gradient-13);
      }

      .cls-12 {
        fill: url(#radial-gradient-12);
      }

      .cls-13 {
        fill: url(#radial-gradient-11);
      }

      .cls-14 {
        fill: url(#radial-gradient-10);
      }

      .cls-22 {
        isolation: isolate;
      }
    </style>
    <radialGradient id="radial-gradient" cx="-52.37" cy="-187.93" fx="-52.37" fy="-187.93" r="1.93" gradientTransform="translate(28.66 208.96) rotate(10.44)" gradientUnits="userSpaceOnUse">
      <stop offset="0" stop-color="#aed5eb"/>
      <stop offset=".19" stop-color="#c0deef"/>
      <stop offset=".69" stop-color="#edf5fa"/>
      <stop offset=".95" stop-color="#fff"/>
    </radialGradient>
    <radialGradient id="radial-gradient-2" cx="-52.61" cy="-187.86" fx="-52.61" fy="-187.86" r="1.77" xlink:href="#radial-gradient"/>
    <radialGradient id="radial-gradient-3" cx="-44.4" cy="-186.1" fx="-44.4" fy="-186.1" r="1.93" xlink:href="#radial-gradient"/>
    <radialGradient id="radial-gradient-4" cx="-44.64" cy="-186.03" fx="-44.64" fy="-186.03" r="1.77" xlink:href="#radial-gradient"/>
    <radialGradient id="radial-gradient-5" cx="-55.3" cy="-184.16" fx="-55.3" fy="-184.16" r="1.51" xlink:href="#radial-gradient"/>
    <radialGradient id="radial-gradient-6" cx="-55.49" cy="-184.11" fx="-55.49" fy="-184.11" r="1.39" xlink:href="#radial-gradient"/>
    <radialGradient id="radial-gradient-7" cx="-47.61" cy="-191.74" fx="-47.61" fy="-191.74" r="1.51" xlink:href="#radial-gradient"/>
    <radialGradient id="radial-gradient-8" cx="-47.79" cy="-191.68" fx="-47.79" fy="-191.68" r="1.39" xlink:href="#radial-gradient"/>
    <radialGradient id="radial-gradient-9" cx="-42.49" cy="-189.89" fx="-42.49" fy="-189.89" r="1.51" xlink:href="#radial-gradient"/>
    <radialGradient id="radial-gradient-10" cx="-42.68" cy="-189.84" fx="-42.68" fy="-189.84" r="1.39" xlink:href="#radial-gradient"/>
    <radialGradient id="radial-gradient-11" cx="-49.87" cy="-184.82" fx="-49.87" fy="-184.82" r="1.03" xlink:href="#radial-gradient"/>
    <radialGradient id="radial-gradient-12" cx="-50" cy="-184.78" fx="-50" fy="-184.78" r=".95" xlink:href="#radial-gradient"/>
    <radialGradient id="radial-gradient-13" cx="-58.79" cy="-185.92" fx="-58.79" fy="-185.92" r="1.03" xlink:href="#radial-gradient"/>
    <radialGradient id="radial-gradient-14" cx="-58.92" cy="-185.89" fx="-58.92" fy="-185.89" r=".95" xlink:href="#radial-gradient"/>
  </defs>
  <g class="cls-22">
    <g id="Ebene_2" data-name="Ebene 2">
      <g id="_ŽÓť_4" data-name="—ŽÓť_4">
        <g>
          <g>
            <path class="cls-16" d="M20.6,9.49c-.19-.67-.59-1.25-1.14-1.66,.14-.37,.22-.76,.24-1.17,.09-2.1-1.54-3.88-3.64-3.96-1.61-.07-3.02,.87-3.64,2.25-.11-.01-.22-.02-.33-.03-1.33-.06-2.53,.56-3.27,1.55-.21-.08-.43-.13-.67-.14-1.14-.05-2.11,.84-2.16,1.98,0,.19,.01,.37,.05,.55-.42,.07-.77,.32-.99,.67-.35-.47-.89-.78-1.52-.8-.87-.04-1.62,.48-1.93,1.24-.04,0-.08,0-.12-.01C.7,9.9,.04,10.52,0,11.31c-.03,.79,.58,1.46,1.37,1.49,.41,.02,.78-.14,1.05-.4,.28,.17,.6,.27,.94,.29,.31,.69,.99,1.18,1.8,1.22,.84,.04,1.58-.43,1.93-1.13,.24,.11,.5,.17,.77,.19,.09,0,.17,0,.26,0,.49,.65,1.25,1.08,2.12,1.12,.85,.04,1.63-.31,2.17-.89,.33,.63,.98,1.08,1.75,1.11,.81,.04,1.54-.41,1.9-1.07,.4,.21,.85,.33,1.33,.35,1.05,.05,2-.42,2.62-1.17,.14,.05,.3,.09,.46,.09,.83,.04,1.53-.61,1.56-1.44,.04-.83-.6-1.52-1.43-1.56Z"/>
            <path class="cls-17" d="M20.65,9.55c-.19-.67-.59-1.25-1.14-1.66,.14-.37,.22-.76,.24-1.17,.09-2.1-1.54-3.88-3.64-3.96-1.61-.07-3.02,.87-3.64,2.25-.11-.01-.22-.02-.33-.03-1.33-.06-2.53,.56-3.27,1.55-.21-.08-.43-.13-.67-.14-1.14-.05-2.11,.84-2.16,1.98,0,.19,.01,.37,.05,.55-.42,.07-.77,.32-.99,.67-.35-.47-.89-.78-1.52-.8-.87-.04-1.62,.48-1.93,1.24-.04,0-.08,0-.12-.01-.79-.03-1.46,.58-1.49,1.37-.03,.79,.58,1.46,1.37,1.49,.41,.02,.78-.14,1.05-.4,.28,.17,.6,.27,.94,.29,.31,.69,.99,1.18,1.8,1.22,.84,.04,1.58-.43,1.93-1.13,.24,.11,.5,.17,.77,.19,.09,0,.17,0,.26,0,.48,.65,1.25,1.08,2.12,1.12,.85,.04,1.63-.31,2.16-.89,.33,.63,.98,1.08,1.75,1.11,.81,.04,1.54-.41,1.9-1.08,.4,.21,.85,.33,1.33,.35,1.05,.04,2-.42,2.62-1.17,.14,.05,.3,.09,.46,.09,.83,.04,1.53-.61,1.56-1.44,.04-.83-.6-1.52-1.43-1.56Z"/>
          </g>
          <g>
            <path class="cls-15" d="M14.59,7.37c.1-.35,.15-.72,.15-1.1,0-2.27-1.84-4.11-4.11-4.11-1.92,0-3.54,1.32-3.99,3.1-.04,0-.08,0-.13,0-.9,0-1.69,.46-2.15,1.16-.23-.1-.49-.15-.76-.15-1.1,0-1.99,.89-1.99,1.99s.89,1.99,1.99,1.99c.48,0,.93-.17,1.27-.46,.44,.37,1.01,.59,1.63,.59,.69,0,1.32-.28,1.78-.72,.66,.46,1.46,.72,2.33,.72,.79,0,1.53-.22,2.15-.61,.28,.36,.72,.58,1.21,.58,.86,0,1.55-.69,1.55-1.55,0-.65-.4-1.2-.96-1.43Z"/>
            <path class="cls-18" d="M14.65,7.43c.1-.35,.15-.72,.15-1.1,0-2.27-1.84-4.11-4.11-4.11-1.92,0-3.54,1.32-3.99,3.1-.04,0-.08,0-.13,0-.9,0-1.69,.46-2.14,1.16-.23-.1-.49-.15-.76-.15-1.1,0-1.99,.89-1.99,1.99s.89,1.99,1.99,1.99c.48,0,.93-.17,1.27-.46,.44,.37,1.01,.59,1.63,.59,.69,0,1.32-.28,1.78-.72,.66,.46,1.46,.72,2.33,.72,.79,0,1.53-.22,2.15-.61,.28,.36,.72,.58,1.21,.58,.86,0,1.55-.7,1.55-1.55,0-.65-.4-1.2-.96-1.43Z"/>
          </g>
          <g>
            <path class="cls-15" d="M20.65,6.69s-.09,0-.13,0c-.24-.68-.89-1.18-1.66-1.18-.23,0-.45,.04-.65,.12-.24-.66-.87-1.13-1.6-1.13s-1.33,.44-1.58,1.07c-.08-.01-.17-.02-.26-.02-.78,0-1.41,.59-1.49,1.34-.11-.02-.22-.03-.33-.03-.94,0-1.69,.76-1.69,1.69s.76,1.69,1.69,1.69c.01,0,.03,0,.04,0,.17,.68,.78,1.19,1.52,1.19,.57,0,1.07-.3,1.34-.76,.37,.64,1.06,1.06,1.85,1.06,.87,0,1.62-.52,1.96-1.27,.3,.17,.64,.27,1.01,.27,1.12,0,2.03-.91,2.03-2.03s-.91-2.03-2.03-2.03Z"/>
            <path class="cls-21" d="M20.72,6.76s-.09,0-.13,0c-.24-.68-.89-1.18-1.66-1.18-.23,0-.45,.04-.65,.12-.24-.66-.87-1.13-1.61-1.13s-1.33,.45-1.58,1.07c-.08-.01-.17-.02-.26-.02-.78,0-1.41,.59-1.49,1.34-.11-.02-.22-.03-.33-.03-.93,0-1.69,.76-1.69,1.69s.76,1.69,1.69,1.69h.04c.17,.68,.78,1.19,1.52,1.19,.57,0,1.07-.3,1.34-.76,.37,.64,1.06,1.06,1.85,1.06,.87,0,1.62-.52,1.96-1.27,.3,.17,.64,.27,1.01,.27,1.12,0,2.03-.91,2.03-2.03s-.91-2.03-2.03-2.03Z"/>
          </g>
          <g>
            <path class="cls-15" d="M18.98,2.59c-.09,0-.18,0-.27,.02-.34-1.01-1.29-1.73-2.41-1.73-.52,0-1,.16-1.4,.42-.28-.75-1-1.29-1.85-1.29-.96,0-1.76,.69-1.93,1.59-.27-.2-.61-.32-.97-.32-.83,0-1.52,.63-1.62,1.43h-.01c-1.3,0-2.35,1.05-2.35,2.35s1.05,2.35,2.35,2.35c.41,0,.8-.11,1.14-.3,.12,.81,.82,1.44,1.67,1.44,.67,0,1.25-.39,1.52-.96,.52,.76,1.39,1.26,2.38,1.26,1.28,0,2.36-.83,2.73-1.98,.31,.16,.66,.25,1.04,.25,1.25,0,2.26-1.01,2.26-2.26s-1.01-2.26-2.26-2.26Z"/>
            <path class="cls-19" d="M19.05,2.65c-.09,0-.18,0-.27,.02-.34-1.01-1.29-1.73-2.41-1.73-.52,0-1,.16-1.4,.42-.28-.75-1-1.29-1.85-1.29-.96,0-1.76,.69-1.93,1.59-.27-.2-.61-.32-.97-.32-.83,0-1.52,.62-1.62,1.43h-.01c-1.3,0-2.35,1.05-2.35,2.35s1.05,2.35,2.35,2.35c.41,0,.8-.11,1.14-.29,.12,.81,.82,1.44,1.67,1.44,.67,0,1.25-.39,1.52-.96,.52,.76,1.39,1.26,2.38,1.26,1.28,0,2.36-.83,2.73-1.98,.31,.16,.66,.25,1.04,.25,1.25,0,2.26-1.01,2.26-2.26s-1.01-2.26-2.26-2.26Z"/>
          </g>
          <g>
            <path class="cls-15" d="M11.65,8.16c-.2-.01-.38,.02-.56,.07-.23-1.17-1.23-2.07-2.47-2.14-1.2-.06-2.26,.69-2.64,1.77h0c-1.02-.05-1.89,.73-1.94,1.75-.05,1.02,.73,1.89,1.75,1.94,.53,.03,1.01-.17,1.36-.5,.35,.21,.76,.33,1.2,.36,.78,.04,1.5-.26,2.01-.77,.26,.34,.67,.57,1.13,.59,.85,.04,1.57-.61,1.61-1.45,.04-.85-.61-1.57-1.45-1.61Z"/>
            <path class="cls-20" d="M11.72,8.23c-.2-.01-.38,.02-.56,.07-.23-1.17-1.23-2.07-2.47-2.14-1.2-.06-2.26,.69-2.64,1.77h0c-1.02-.05-1.89,.73-1.94,1.75-.05,1.02,.73,1.89,1.75,1.94,.53,.03,1.01-.17,1.36-.5,.35,.21,.76,.33,1.2,.36,.78,.04,1.5-.26,2.01-.77,.26,.34,.67,.57,1.13,.59,.85,.04,1.57-.61,1.61-1.45,.04-.85-.61-1.57-1.45-1.61Z"/>
          </g>
          <g>
            <path class="cls-9" d="M13.11,14.99c-.19,1.05-1.2,1.74-2.25,1.55-1.05-.19-1.74-1.2-1.55-2.25,.19-1.05,1.2-1.74,2.25-1.55,1.05,.19,1.74,1.2,1.55,2.25Z"/>
            <path class="cls-1" d="M12.7,14.99c-.18,.96-1.1,1.6-2.06,1.42-.96-.18-1.6-1.1-1.42-2.06,.18-.96,1.1-1.6,2.06-1.42,.96,.18,1.6,1.1,1.42,2.06Z"/>
            <path class="cls-15" d="M11.47,14.02c0,.62-.5,1.12-1.12,1.12s-1.12-.5-1.12-1.12,.5-1.12,1.12-1.12,1.12,.5,1.12,1.12Z"/>
            <path class="cls-20" d="M11.57,14.07c0,.62-.5,1.12-1.12,1.12s-1.12-.5-1.12-1.12,.5-1.12,1.12-1.12,1.12,.5,1.12,1.12Z"/>
          </g>
          <g>
            <path class="cls-5" d="M20.61,18.23c-.19,1.05-1.2,1.74-2.25,1.55-1.05-.19-1.74-1.2-1.55-2.25,.19-1.05,1.2-1.74,2.25-1.55,1.05,.19,1.74,1.2,1.55,2.25Z"/>
            <path class="cls-6" d="M20.21,18.23c-.18,.96-1.1,1.6-2.06,1.42-.96-.18-1.6-1.1-1.42-2.06,.18-.96,1.1-1.6,2.06-1.42,.96,.18,1.6,1.1,1.42,2.06Z"/>
            <path class="cls-15" d="M18.97,17.27c0,.62-.5,1.12-1.12,1.12s-1.12-.5-1.12-1.12,.5-1.12,1.12-1.12,1.12,.5,1.12,1.12Z"/>
            <circle class="cls-20" cx="17.95" cy="17.31" r="1.12"/>
          </g>
          <g>
            <path class="cls-2" d="M9.13,18.09c-.15,.82-.94,1.36-1.76,1.21-.82-.15-1.36-.94-1.21-1.76,.15-.82,.94-1.36,1.76-1.21,.82,.15,1.36,.94,1.21,1.76Z"/>
            <path class="cls-3" d="M8.81,18.09c-.14,.75-.86,1.25-1.61,1.11-.75-.14-1.25-.86-1.11-1.61,.14-.75,.86-1.25,1.61-1.11,.75,.14,1.25,.86,1.11,1.61Z"/>
            <path class="cls-15" d="M7.84,17.33c0,.48-.39,.88-.88,.88s-.88-.39-.88-.88,.39-.88,.88-.88,.88,.39,.88,.88Z"/>
            <circle class="cls-18" cx="7.04" cy="17.37" r=".88"/>
          </g>
          <g>
            <path class="cls-4" d="M18.07,12.03c-.15,.82-.94,1.36-1.76,1.21-.82-.15-1.36-.94-1.21-1.76,.15-.82,.94-1.36,1.76-1.21,.82,.15,1.36,.94,1.21,1.76Z"/>
            <path class="cls-8" d="M17.75,12.03c-.14,.75-.86,1.25-1.61,1.11-.75-.14-1.25-.86-1.11-1.61,.14-.75,.86-1.25,1.61-1.11,.75,.14,1.25,.86,1.11,1.61Z"/>
            <path class="cls-15" d="M16.79,11.28c0,.49-.39,.88-.88,.88s-.88-.39-.88-.88,.39-.88,.88-.88,.88,.39,.88,.88Z"/>
            <path class="cls-20" d="M16.86,11.31c0,.48-.39,.88-.88,.88s-.88-.39-.88-.88,.39-.88,.88-.88,.88,.39,.88,.88Z"/>
          </g>
          <g>
            <path class="cls-7" d="M22.77,14.77c-.15,.82-.94,1.36-1.76,1.21-.82-.15-1.36-.94-1.21-1.76,.15-.82,.94-1.36,1.76-1.21,.82,.15,1.36,.94,1.21,1.76Z"/>
            <path class="cls-14" d="M22.45,14.77c-.14,.75-.86,1.25-1.61,1.11-.75-.14-1.25-.86-1.11-1.61,.14-.75,.86-1.25,1.61-1.11,.75,.14,1.25,.86,1.11,1.61Z"/>
            <path class="cls-15" d="M21.48,14.02c0,.48-.39,.88-.88,.88s-.88-.39-.88-.88,.39-.88,.88-.88,.88,.39,.88,.88Z"/>
            <path class="cls-18" d="M21.56,14.05c0,.49-.39,.88-.88,.88s-.88-.39-.88-.88,.39-.88,.88-.88,.88,.39,.88,.88Z"/>
          </g>
          <g>
            <path class="cls-13" d="M14.12,18.34c-.1,.56-.64,.93-1.2,.83-.56-.1-.93-.64-.83-1.2,.1-.56,.64-.93,1.2-.83,.56,.1,.93,.64,.83,1.2Z"/>
            <path class="cls-12" d="M13.9,18.34c-.09,.51-.59,.85-1.1,.76-.51-.09-.85-.59-.76-1.1,.09-.51,.59-.85,1.1-.76,.51,.09,.85,.59,.76,1.1Z"/>
            <path class="cls-15" d="M13.24,17.82c0,.33-.27,.6-.6,.6s-.6-.27-.6-.6,.27-.6,.6-.6,.6,.27,.6,.6Z"/>
            <path class="cls-18" d="M13.29,17.85c0,.33-.27,.6-.6,.6s-.6-.27-.6-.6,.27-.6,.6-.6,.6,.27,.6,.6Z"/>
          </g>
          <g>
            <path class="cls-11" d="M5.54,15.64c-.1,.56-.64,.93-1.2,.83-.56-.1-.93-.64-.83-1.2,.1-.56,.64-.93,1.2-.83,.56,.1,.93,.64,.83,1.2Z"/>
            <path class="cls-10" d="M5.33,15.64c-.09,.51-.59,.85-1.1,.76-.51-.09-.85-.59-.76-1.1,.09-.51,.59-.85,1.1-.76,.51,.09,.85,.59,.76,1.1Z"/>
            <path class="cls-15" d="M4.67,15.12c0,.33-.27,.6-.6,.6s-.6-.27-.6-.6,.27-.6,.6-.6,.6,.27,.6,.6Z"/>
            <path class="cls-20" d="M4.72,15.15c0,.33-.27,.6-.6,.6s-.6-.27-.6-.6,.27-.6,.6-.6,.6,.27,.6,.6Z"/>
          </g>
        </g>
      </g>
    </g>
  </g>
</svg>