<?xml version="1.0" encoding="UTF-8"?>
<svg id="Ebene_2" data-name="Ebene 2" xmlns="http://www.w3.org/2000/svg" xmlns:xlink="http://www.w3.org/1999/xlink" viewBox="0 0 18.95 15.14">
  <defs>
    <style>
      .cls-1 {
        fill: url(#linear-gradient);
      }

      .cls-2 {
        fill: #ffe3ab;
      }

      .cls-3 {
        fill: url(#linear-gradient-3);
      }

      .cls-4 {
        fill: url(#linear-gradient-4);
      }

      .cls-5 {
        fill: url(#linear-gradient-2);
      }
    </style>
    <linearGradient id="linear-gradient" x1="593.12" y1="-236.39" x2="602.93" y2="-226.59" gradientTransform="translate(-252.14 594.76) rotate(-45)" gradientUnits="userSpaceOnUse">
      <stop offset="0" stop-color="#ffd45c"/>
      <stop offset="1" stop-color="#ff9d00"/>
    </linearGradient>
    <linearGradient id="linear-gradient-2" x1="610.91" y1="261.27" x2="612.57" y2="262.93" gradientTransform="translate(-598.13 -259.88) rotate(-.08)" gradientUnits="userSpaceOnUse">
      <stop offset="0" stop-color="#ffca36"/>
      <stop offset="1" stop-color="#ff9d00"/>
    </linearGradient>
    <linearGradient id="linear-gradient-3" x1="607.36" y1="265.71" x2="609.32" y2="267.67" xlink:href="#linear-gradient-2"/>
    <linearGradient id="linear-gradient-4" x1="615.26" y1="267.44" x2="616.46" y2="268.63" xlink:href="#linear-gradient-2"/>
  </defs>
  <g id="_ŽÓť_4" data-name="—ŽÓť_4">
    <g>
      <g>
        <path class="cls-2" d="M12.15,11.03c-2.27,2.27-5.96,2.27-8.23,0C1.64,8.76,1.64,5.07,3.91,2.8c.89-.89,2.11-1.33,3.26-1.52-1.82-.08-3.76,.53-5.14,1.92C-.68,5.91-.68,10.3,2.03,13.01c2.71,2.71,7.1,2.71,9.8,0,1.53-1.53,2.3-3.48,2.1-5.47-.17,1.32-.78,2.49-1.79,3.5Z"/>
        <path class="cls-1" d="M12.26,11.14c-2.27,2.27-5.96,2.27-8.23,0S1.75,5.18,4.02,2.91c.89-.89,2-1.43,3.15-1.63-1.82-.04-3.65,.64-5.04,2.03C-.57,6.02-.57,10.41,2.14,13.11c2.71,2.71,7.1,2.71,9.8,0,1.53-1.53,2.19-3.58,2-5.58-.12,1.31-.68,2.6-1.68,3.6Z"/>
      </g>
      <g>
        <path class="cls-2" d="M14.02,.07l.31,.63,.7,.1c.1,.01,.13,.09,.05,.16l-.5,.49,.12,.69c.02,.1-.04,.15-.14,.1l-.62-.33-.62,.33c-.09,.05-.16,0-.14-.1l.12-.69-.5-.49c-.08-.07-.05-.15,.05-.16l.7-.1,.31-.63c.05-.1,.12-.1,.17,0Z"/>
        <path class="cls-5" d="M14.06,.11l.31,.63,.7,.1c.11,.02,.13,.09,.05,.16l-.5,.49,.12,.69c.02,.11-.04,.15-.14,.1l-.62-.33-.62,.33c-.09,.05-.16,0-.14-.1l.12-.69-.5-.49c-.08-.07-.05-.15,.05-.16l.69-.1,.31-.63c.05-.1,.12-.1,.17,0Z"/>
      </g>
      <g>
        <path class="cls-2" d="M10.64,4.43l.37,.74,.82,.12c.12,.02,.15,.1,.06,.19l-.59,.58,.14,.82c.02,.12-.05,.18-.16,.12l-.73-.38-.73,.39c-.11,.06-.18,0-.16-.12l.14-.82-.59-.58c-.09-.09-.06-.17,.06-.19l.82-.12,.36-.74c.06-.11,.15-.11,.2,0Z"/>
        <path class="cls-3" d="M10.68,4.48l.37,.74,.82,.12c.12,.02,.15,.1,.06,.19l-.59,.58,.14,.82c.02,.12-.05,.18-.16,.12l-.73-.38-.73,.39c-.11,.06-.18,0-.16-.12l.14-.82-.59-.58c-.09-.09-.06-.17,.06-.19l.82-.12,.37-.74c.05-.11,.14-.11,.2,0Z"/>
      </g>
      <g>
        <path class="cls-2" d="M18.14,6.37l.22,.45,.5,.07c.08,.01,.09,.06,.04,.12l-.36,.35,.09,.5c.01,.08-.03,.11-.1,.07l-.45-.23-.45,.23c-.07,.04-.11,0-.1-.07l.08-.5-.36-.35c-.05-.05-.04-.11,.04-.12l.5-.07,.22-.45c.03-.07,.09-.07,.12,0Z"/>
        <path class="cls-4" d="M18.16,6.4l.22,.45,.5,.07c.08,.01,.09,.06,.04,.12l-.36,.35,.09,.5c.01,.07-.03,.11-.1,.07l-.45-.23-.45,.23c-.07,.04-.11,0-.1-.07l.08-.5-.36-.35c-.05-.05-.04-.11,.04-.12l.5-.07,.22-.45c.03-.07,.09-.07,.12,0Z"/>
      </g>
    </g>
  </g>
</svg>