<?xml version="1.0" encoding="UTF-8"?>
<svg id="Ebene_2" data-name="Ebene 2" xmlns="http://www.w3.org/2000/svg" viewBox="0 0 19.95 11.71">
  <defs>
    <style>
      .cls-1 {
        fill: #e9f2f5;
      }

      .cls-2 {
        fill: #fff;
      }
    </style>
  </defs>
  <g id="_ŽÓť_4" data-name="—ŽÓť_4">
    <g>
      <g>
        <path class="cls-2" d="M16.74,3.88c-.07,0-.14,0-.2,0-.37-1.04-1.36-1.79-2.53-1.79-.35,0-.68,.07-.99,.19-.36-1-1.32-1.72-2.45-1.72s-2.03,.68-2.42,1.64c-.13-.02-.26-.04-.39-.04-1.18,0-2.16,.9-2.28,2.05-.16-.03-.34-.05-.51-.05-1.43,0-2.58,1.16-2.58,2.58s1.16,2.58,2.58,2.58c.02,0,.04,0,.07,0,.25,1.04,1.19,1.82,2.31,1.82,.87,0,1.63-.46,2.04-1.16,.57,.97,1.62,1.62,2.82,1.62,1.33,0,2.48-.8,2.99-1.94,.45,.26,.98,.41,1.54,.41,1.71,0,3.1-1.39,3.1-3.1s-1.39-3.1-3.1-3.1Z"/>
        <path class="cls-1" d="M16.85,3.99c-.07,0-.14,0-.2,0-.37-1.04-1.36-1.79-2.53-1.79-.35,0-.68,.07-.99,.19-.36-1-1.32-1.72-2.45-1.72s-2.03,.68-2.42,1.64c-.13-.02-.26-.04-.39-.04-1.18,0-2.16,.9-2.28,2.05-.16-.03-.34-.05-.51-.05-1.43,0-2.58,1.16-2.58,2.58s1.16,2.58,2.58,2.58c.02,0,.04,0,.07,0,.25,1.04,1.19,1.82,2.31,1.82,.87,0,1.63-.46,2.04-1.16,.57,.97,1.62,1.62,2.82,1.62,1.33,0,2.48-.8,2.99-1.94,.45,.26,.98,.41,1.54,.41,1.71,0,3.1-1.39,3.1-3.1s-1.39-3.1-3.1-3.1Z"/>
      </g>
      <path class="cls-2" d="M10.69,2.9c-.27-.01-.54,.02-.79,.11C9.58,1.37,8.18,.09,6.44,0c-1.69-.09-3.17,.96-3.71,2.48h0C1.3,2.41,.08,3.51,0,4.94c-.07,1.43,1.02,2.65,2.45,2.72,.74,.04,1.42-.24,1.91-.71,.5,.29,1.07,.47,1.68,.5,1.1,.06,2.1-.37,2.83-1.08,.37,.48,.94,.8,1.59,.83,1.19,.06,2.2-.85,2.26-2.04,.06-1.19-.85-2.2-2.04-2.26Z"/>
    </g>
  </g>
</svg>