<?xml version="1.0" encoding="UTF-8"?>
<svg xmlns="http://www.w3.org/2000/svg" xmlns:xlink="http://www.w3.org/1999/xlink" viewBox="0 0 22.75 20.75">
  <defs>
    <style>
      .cls-1 {
        fill: url(#radial-gradient-2);
      }

      .cls-1, .cls-2, .cls-3, .cls-4, .cls-5, .cls-6, .cls-7, .cls-8, .cls-9 {
        mix-blend-mode: multiply;
      }

      .cls-2 {
        fill: url(#radial-gradient-5);
      }

      .cls-3 {
        fill: url(#radial-gradient-6);
      }

      .cls-4 {
        fill: url(#radial-gradient-7);
      }

      .cls-5 {
        fill: url(#radial-gradient-3);
      }

      .cls-6 {
        fill: url(#radial-gradient-4);
      }

      .cls-7 {
        fill: url(#radial-gradient-9);
      }

      .cls-8 {
        fill: url(#radial-gradient-8);
      }

      .cls-10 {
        fill: #fff;
      }

      .cls-11 {
        fill: #eef7fa;
      }

      .cls-12 {
        fill: #91d5eb;
      }

      .cls-13 {
        fill: #9ddef2;
      }

      .cls-14 {
        fill: #bee9f7;
      }

      .cls-15 {
        fill: #c8eefa;
      }

      .cls-16 {
        fill: #e1f0fa;
      }

      .cls-17 {
        fill: #a2def2;
      }

      .cls-9 {
        fill: url(#radial-gradient);
      }

      .cls-18 {
        isolation: isolate;
      }
    </style>
    <radialGradient id="radial-gradient" cx="-60.77" cy="-180.58" fx="-60.77" fy="-180.58" r="2.39" gradientTransform="translate(34.77 204.1) rotate(10.44)" gradientUnits="userSpaceOnUse">
      <stop offset="0" stop-color="#aed5eb"/>
      <stop offset=".19" stop-color="#c0deef"/>
      <stop offset=".69" stop-color="#edf5fa"/>
      <stop offset=".95" stop-color="#fff"/>
    </radialGradient>
    <radialGradient id="radial-gradient-2" cx="-59.96" cy="-181.78" fx="-59.96" fy="-181.78" r="2.93" xlink:href="#radial-gradient"/>
    <radialGradient id="radial-gradient-3" cx="-59.94" cy="-180.75" fx="-59.94" fy="-180.75" r="2.93" xlink:href="#radial-gradient"/>
    <radialGradient id="radial-gradient-4" cx="-55.71" cy="-178.43" fx="-55.71" fy="-178.43" r="1.83" xlink:href="#radial-gradient"/>
    <radialGradient id="radial-gradient-5" cx="-55.09" cy="-179.35" fx="-55.09" fy="-179.35" r="2.25" xlink:href="#radial-gradient"/>
    <radialGradient id="radial-gradient-6" cx="-55.08" cy="-178.56" fx="-55.08" fy="-178.56" r="2.25" xlink:href="#radial-gradient"/>
    <radialGradient id="radial-gradient-7" cx="-50.99" cy="-182.27" fx="-50.99" fy="-182.27" r="2.7" xlink:href="#radial-gradient"/>
    <radialGradient id="radial-gradient-8" cx="-50.08" cy="-183.62" fx="-50.08" fy="-183.62" r="3.32" xlink:href="#radial-gradient"/>
    <radialGradient id="radial-gradient-9" cx="-50.05" cy="-182.46" fx="-50.05" fy="-182.46" r="3.31" xlink:href="#radial-gradient"/>
  </defs>
  <g class="cls-18">
    <g id="Ebene_2" data-name="Ebene 2">
      <g id="_ŽÓť_4" data-name="—ŽÓť_4">
        <g>
          <g>
            <path class="cls-11" d="M20.6,9.49c-.19-.67-.59-1.25-1.14-1.66,.14-.37,.22-.76,.24-1.17,.09-2.1-1.54-3.88-3.64-3.96-1.61-.07-3.02,.87-3.64,2.25-.11-.01-.22-.02-.33-.03-1.33-.06-2.53,.56-3.27,1.55-.21-.08-.43-.13-.67-.14-1.14-.05-2.11,.84-2.16,1.98,0,.19,.01,.37,.05,.55-.42,.07-.77,.32-.99,.67-.35-.47-.89-.78-1.52-.8-.87-.04-1.62,.48-1.93,1.24-.04,0-.08,0-.12-.01C.7,9.9,.04,10.52,0,11.31c-.03,.79,.58,1.46,1.37,1.49,.41,.02,.78-.14,1.05-.4,.28,.17,.6,.27,.94,.29,.31,.69,.99,1.18,1.8,1.22,.84,.04,1.58-.43,1.93-1.13,.24,.11,.5,.17,.77,.19,.09,0,.17,0,.26,0,.48,.65,1.25,1.08,2.12,1.12,.85,.04,1.63-.31,2.17-.89,.33,.63,.98,1.08,1.75,1.11,.81,.04,1.54-.41,1.9-1.08,.4,.21,.85,.33,1.33,.35,1.05,.04,2-.42,2.62-1.17,.14,.05,.3,.09,.46,.09,.83,.04,1.53-.61,1.56-1.44,.04-.83-.6-1.52-1.43-1.56Z"/>
            <path class="cls-12" d="M20.66,9.55c-.19-.67-.59-1.25-1.14-1.66,.14-.37,.22-.76,.24-1.17,.09-2.1-1.54-3.88-3.64-3.96-1.61-.07-3.02,.87-3.64,2.25-.11-.01-.22-.03-.33-.03-1.33-.06-2.53,.56-3.27,1.55-.21-.08-.43-.13-.67-.14-1.14-.05-2.11,.84-2.16,1.98,0,.19,.01,.37,.05,.55-.42,.07-.77,.32-.99,.67-.35-.47-.89-.78-1.52-.8-.87-.04-1.62,.48-1.93,1.24-.04,0-.08,0-.12-.01-.79-.03-1.46,.58-1.49,1.37-.03,.79,.58,1.46,1.37,1.49,.41,.02,.78-.14,1.05-.4,.28,.17,.6,.27,.94,.29,.31,.69,.99,1.18,1.8,1.22,.84,.04,1.58-.43,1.93-1.13,.24,.11,.5,.17,.77,.19,.09,0,.17,0,.26,0,.48,.65,1.25,1.08,2.12,1.12,.85,.04,1.63-.31,2.16-.89,.33,.63,.98,1.08,1.75,1.11,.81,.04,1.54-.41,1.9-1.08,.4,.21,.85,.33,1.33,.35,1.05,.04,2-.42,2.62-1.17,.14,.05,.3,.09,.46,.09,.83,.04,1.53-.61,1.56-1.44,.04-.83-.6-1.52-1.43-1.56Z"/>
          </g>
          <g>
            <path class="cls-9" d="M10.08,15.92c-.24,1.3-1.48,2.15-2.78,1.91-1.3-.24-2.15-1.48-1.91-2.78,.24-1.3,1.48-2.15,2.78-1.92,1.3,.24,2.15,1.48,1.92,2.78Z"/>
            <path class="cls-1" d="M11.62,14.99c-.29,1.59-1.82,2.64-3.41,2.35s-2.64-1.82-2.35-3.41c.29-1.59,1.82-2.64,3.41-2.35,1.59,.29,2.64,1.82,2.35,3.41Z"/>
            <path class="cls-5" d="M11.45,16c-.29,1.59-1.82,2.64-3.41,2.35-1.59-.29-2.64-1.82-2.35-3.41,.29-1.59,1.82-2.64,3.41-2.35,1.59,.29,2.64,1.82,2.35,3.41Z"/>
            <g>
              <path class="cls-10" d="M9.5,13.65s0,0-.01,0l-4.25,1.97s-.06,.01-.08,0c-.03-.01-.05-.03-.06-.06-.02-.05,0-.11,.04-.14,0,0,0,0,.01,0l4.25-1.97c.06-.02,.12,0,.15,.05,.02,.05,0,.11-.04,.14Z"/>
              <path class="cls-10" d="M9.25,14.14s0,0-.01,0c-.05,.02-.12,0-.14-.05l-.29-.62s0-.11,.04-.14c0,0,0,0,.01,0,.05-.03,.12,0,.15,.05l.29,.62s0,.11-.04,.14Z"/>
              <path class="cls-10" d="M5.78,15.75s0,0-.01,0c-.05,.03-.12,0-.15-.05l-.29-.62s0-.11,.04-.14c0,0,0,0,.01,0,.05-.03,.12,0,.14,.05l.29,.62s0,.11-.04,.14Z"/>
              <path class="cls-10" d="M8.36,16.76s0,0-.01,0c-.03,.01-.06,.01-.08,0-.03,0-.05-.03-.06-.06l-1.97-4.25s0-.11,.04-.14c0,0,0,0,.01,0,.03-.01,.06-.01,.08,0,.03,0,.05,.03,.06,.06l1.97,4.25s0,.11-.04,.14Z"/>
              <path class="cls-10" d="M8.49,16.23s0,0-.01,0l-.62,.29s-.06,.01-.08,0c-.03,0-.05-.03-.06-.06-.02-.05,0-.11,.04-.14,0,0,0,0,.01,0l.62-.29s.06-.01,.08,0c.03,0,.05,.03,.06,.06,.02,.05,0,.11-.04,.14Z"/>
              <path class="cls-10" d="M6.88,12.75s0,0-.01,0l-.62,.29s-.06,.01-.08,0c-.03,0-.05-.03-.06-.06-.02-.05,0-.11,.04-.14,0,0,0,0,.01,0l.62-.29s.06-.01,.08,0c.03,0,.05,.03,.06,.06,.02,.05,0,.11-.04,.14Z"/>
              <path class="cls-10" d="M6.57,16.83s0,0-.01,0c-.03,.01-.06,.01-.08,0-.03,0-.05-.03-.06-.06-.01-.03-.01-.06,0-.08l1.61-4.4s.02-.04,.04-.05c.03-.02,.06-.02,.1-.01,.03,0,.05,.03,.06,.06,.01,.03,.01,.06,0,.08l-1.61,4.4s-.02,.04-.04,.05Z"/>
              <path class="cls-10" d="M7.04,16.55s0,0-.01,0c-.03,.01-.06,.01-.08,0l-.64-.24s-.05-.03-.06-.06c-.01-.03-.01-.06,0-.08,0-.02,.02-.04,.04-.05,.03-.02,.06-.02,.1-.01l.64,.24s.05,.03,.06,.06c.01,.03,.01,.06,0,.08,0,.02-.02,.04-.04,.05Z"/>
              <path class="cls-10" d="M8.35,12.95s0,0-.01,0c-.03,.01-.06,.01-.08,0l-.64-.24c-.06-.02-.09-.08-.07-.14,0-.02,.02-.04,.04-.05,.03-.02,.06-.02,.1-.01l.64,.24s.05,.03,.06,.06c.01,.03,.01,.06,0,.08,0,.02-.02,.04-.04,.05Z"/>
              <path class="cls-10" d="M9.57,15.44s0,0-.01,0c-.03,.01-.06,.01-.08,0l-4.4-1.62s-.05-.03-.06-.06c-.01-.03-.01-.06,0-.08,0-.02,.02-.04,.04-.05,.03-.02,.06-.02,.1-.01l4.4,1.62s.05,.03,.06,.06c.01,.03,.01,.06,0,.08,0,.02-.02,.04-.04,.05Z"/>
              <path class="cls-10" d="M5.46,14.3s0,0-.01,0c-.03,.01-.06,.01-.08,0-.03,0-.05-.03-.06-.06-.01-.03-.01-.06,0-.08l.24-.64s.02-.04,.04-.05c.03-.02,.06-.02,.1-.01,.03,0,.05,.03,.06,.06,.01,.03,.01,.06,0,.08l-.24,.64s-.02,.04-.04,.05Z"/>
              <path class="cls-10" d="M9.05,15.62s0,0-.01,0c-.03,.01-.06,.01-.08,0-.03,0-.05-.03-.06-.06-.01-.03-.01-.06,0-.08l.24-.65s.02-.04,.04-.05c.03-.02,.06-.02,.1-.01,.03,.01,.05,.03,.06,.06,.01,.03,.01,.06,0,.08l-.24,.64s-.02,.04-.04,.05Z"/>
              <path class="cls-10" d="M7.91,15.81s0,0-.01,0c-.03,.01-.06,.01-.09,0l-.46-.26-.44,.29s-.06,.02-.09,.01c-.03-.01-.05-.04-.06-.07l-.14-.51-.52-.1s-.06-.03-.07-.05c-.01-.03-.01-.06,0-.09l.26-.46-.29-.44s-.02-.06-.01-.09c0-.02,.02-.04,.04-.05,0,0,.02,0,.03-.01l.51-.14,.1-.52s.02-.05,.04-.06c0,0,0,0,.01,0,.03-.01,.06-.01,.09,0l.46,.26,.44-.29s.06-.02,.09-.01c.03,.01,.05,.04,.06,.07l.14,.51,.52,.1s.06,.03,.07,.05c.01,.03,.01,.06,0,.09l-.26,.46,.29,.42s.01,.02,.02,.02c.02,.04,0,.1-.03,.12,0,0,0,0-.01,0h0s0,0-.01,0l-.51,.14-.1,.52s-.02,.05-.04,.06Zm-.62-.45s0,0,.01,0c.03-.01,.06-.01,.09,0l.39,.22,.09-.44s.02-.05,.04-.06c0,0,.02,0,.03-.01l.43-.12-.25-.37s-.02-.07,0-.1l.22-.39-.44-.09s-.07-.03-.08-.07l-.12-.43-.37,.25s-.07,.02-.1,0l-.39-.22-.09,.44s-.02,.05-.04,.06c0,0-.02,0-.03,.01l-.43,.12,.25,.37s.02,.07,0,.1l-.22,.39,.44,.09s.07,.03,.08,.07l.12,.43,.37-.25h0Z"/>
              <path class="cls-10" d="M8.64,15.79s0,0-.01,0c-.02,0-.03,.01-.05,0l-.71-.08-.4,.6s-.02,.02-.03,.03c-.01,0-.03,.02-.05,.02-.03,0-.06-.01-.08-.04l-.44-.56-.7,.14s-.06,0-.09-.02c-.02-.02-.03-.05-.03-.08l.09-.71-.6-.4s-.04-.05-.04-.08c0-.03,.01-.06,.04-.08l.56-.44-.14-.7s0-.06,.02-.09c0,0,.01-.01,.02-.02,.02-.01,.04-.02,.07-.02l.71,.09,.39-.6s.02-.02,.03-.03c.02,0,.03-.02,.05-.02,.03,0,.06,.01,.08,.04l.44,.56,.7-.14s.06,0,.09,.02c.02,.02,.03,.05,.03,.08l-.09,.71,.6,.39s.04,.05,.04,.08c0,.03-.01,.06-.04,.08l-.56,.44,.14,.7s0,.06-.02,.09c0,0-.01,.01-.02,.02Zm-.88-.26s.04-.02,.07-.02l.64,.08-.13-.63s0-.07,.04-.1l.5-.4-.53-.35s-.05-.06-.04-.09l.08-.64-.63,.13s-.07,0-.1-.04l-.4-.5-.35,.53s-.02,.02-.03,.03c-.02,.01-.04,.02-.07,.01l-.64-.08,.13,.63s0,.07-.04,.1l-.5,.4,.54,.35s.05,.06,.04,.09l-.08,.64,.63-.13s.07,0,.1,.04l.4,.5,.35-.54s.02-.02,.03-.03Z"/>
            </g>
            <g>
              <path class="cls-16" d="M9.56,13.65s0,0-.01,0l-4.25,1.97s-.06,.01-.08,0c-.03-.01-.05-.03-.06-.06-.02-.05,0-.11,.04-.14,0,0,0,0,.01,0l4.25-1.97c.05-.02,.12,0,.15,.05,.02,.05,0,.11-.04,.14Z"/>
              <path class="cls-16" d="M9.31,14.14s0,0-.01,0c-.05,.02-.12,0-.14-.05l-.29-.62s0-.11,.04-.14c0,0,0,0,.01,0,.06-.03,.12,0,.15,.05l.29,.62s0,.11-.04,.14Z"/>
              <path class="cls-16" d="M5.83,15.75s0,0-.01,0c-.05,.03-.12,0-.14-.05l-.29-.62s0-.11,.04-.14c0,0,0,0,.01,0,.05-.03,.12,0,.14,.05l.29,.62s0,.11-.04,.14Z"/>
              <path class="cls-16" d="M8.41,16.76s0,0-.01,0c-.03,.01-.06,.01-.08,0-.03,0-.05-.03-.06-.06l-1.97-4.25s0-.11,.04-.14c0,0,0,0,.01,0,.03-.01,.06-.01,.08,0,.03,0,.05,.03,.06,.06l1.97,4.25s0,.11-.04,.14Z"/>
              <path class="cls-16" d="M8.54,16.23s0,0-.01,0l-.62,.29s-.06,.01-.08,0c-.03,0-.05-.03-.06-.06-.02-.05,0-.11,.04-.14,0,0,0,0,.01,0l.62-.29s.06-.01,.08,0c.03,0,.05,.03,.06,.06,.02,.05,0,.11-.04,.14Z"/>
              <path class="cls-16" d="M6.93,12.75s0,0-.01,0l-.62,.29s-.06,.01-.08,0c-.03,0-.05-.03-.06-.06-.02-.05,0-.11,.04-.14,0,0,0,0,.01,0l.62-.29s.06-.01,.08,0c.03,0,.05,.03,.06,.06,.02,.05,0,.11-.04,.14Z"/>
              <path class="cls-16" d="M6.62,16.83s0,0-.01,0c-.03,.01-.06,.01-.08,0-.03,0-.05-.03-.06-.06-.01-.03-.01-.06,0-.08l1.61-4.4s.02-.04,.04-.05c.03-.02,.07-.02,.1-.01,.03,0,.05,.03,.06,.06,.01,.03,.01,.06,0,.08l-1.62,4.4s-.02,.04-.04,.05Z"/>
              <path class="cls-16" d="M7.09,16.55s0,0-.01,0c-.03,.01-.06,.01-.08,0l-.64-.24s-.05-.03-.06-.06c-.01-.03-.01-.06,0-.08,0-.02,.02-.04,.04-.05,.03-.02,.06-.02,.1-.01l.64,.24s.05,.03,.06,.06c.01,.03,.01,.06,0,.08,0,.02-.02,.04-.04,.05Z"/>
              <path class="cls-16" d="M8.41,12.95s0,0-.01,0c-.03,.01-.06,.01-.08,0l-.64-.24c-.06-.02-.09-.08-.06-.14,0-.02,.02-.04,.04-.05,.03-.02,.07-.02,.1-.01l.64,.24s.05,.03,.06,.06c.01,.03,.01,.06,0,.08,0,.02-.02,.04-.04,.05Z"/>
              <path class="cls-16" d="M9.63,15.44s0,0-.01,0c-.03,.01-.06,.01-.08,0l-4.4-1.62s-.05-.03-.06-.06c-.01-.03-.01-.06,0-.08,0-.02,.02-.04,.04-.05,.03-.02,.06-.02,.1-.01l4.4,1.62s.05,.03,.06,.06c.01,.03,.01,.06,0,.08,0,.02-.02,.04-.04,.05Z"/>
              <path class="cls-16" d="M5.51,14.3s0,0-.01,0c-.03,.01-.06,.01-.08,0-.03,0-.05-.03-.06-.06-.01-.03-.01-.06,0-.08l.24-.64s.02-.04,.04-.05c.03-.02,.07-.02,.1-.01,.03,0,.05,.03,.06,.06s.01,.06,0,.08l-.24,.64s-.02,.04-.04,.05Z"/>
              <path class="cls-16" d="M9.11,15.62s0,0-.01,0c-.03,.01-.06,.01-.08,0-.03,0-.05-.03-.06-.06-.01-.03-.01-.06,0-.08l.24-.65s.02-.04,.04-.05c.03-.02,.07-.02,.1-.01,.03,.01,.05,.03,.06,.06,.01,.03,.01,.06,0,.08l-.24,.64s-.02,.04-.04,.05Z"/>
              <path class="cls-16" d="M7.97,15.81s0,0-.01,0c-.03,.01-.06,.01-.09,0l-.46-.26-.44,.29s-.06,.02-.09,.01c-.03-.01-.05-.04-.06-.07l-.14-.51-.52-.1s-.06-.03-.07-.05c-.01-.03-.01-.06,0-.09l.26-.46-.29-.44s-.02-.06-.01-.09c0-.02,.02-.04,.04-.05,0,0,.02,0,.03-.01l.51-.14,.1-.52s.02-.05,.04-.06c0,0,0,0,.01,0,.03-.01,.06-.01,.09,0l.46,.26,.44-.29s.06-.02,.09-.01c.03,.01,.05,.04,.06,.07l.14,.51,.52,.1s.06,.03,.07,.05c.01,.03,.01,.06,0,.09l-.26,.46,.29,.42s.01,.02,.02,.02c.02,.04,0,.1-.03,.12,0,0,0,0-.01,0h0s0,0-.01,0l-.51,.14-.1,.52s-.02,.05-.04,.06Zm-.62-.45s0,0,.01,0c.03-.01,.06-.01,.09,0l.39,.22,.09-.44s.02-.05,.04-.06c0,0,.02,0,.03-.01l.43-.12-.25-.37s-.02-.07,0-.1l.22-.39-.44-.09s-.07-.03-.08-.07l-.12-.43-.37,.25s-.07,.02-.1,0l-.39-.22-.09,.44s-.02,.05-.04,.06c0,0-.02,0-.03,.01l-.43,.12,.25,.37s.02,.07,0,.1l-.22,.39,.44,.09s.07,.03,.08,.07l.12,.43,.37-.25h0Z"/>
              <path class="cls-16" d="M8.69,15.79s0,0-.01,0c-.02,0-.03,.01-.05,0l-.71-.08-.39,.6s-.02,.02-.03,.03c-.01,0-.03,.02-.05,.02-.03,0-.06-.01-.08-.04l-.44-.56-.7,.14s-.06,0-.09-.02c-.02-.02-.03-.05-.03-.08l.09-.71-.6-.4s-.04-.05-.04-.08c0-.03,.01-.06,.04-.08l.56-.44-.14-.7s0-.06,.02-.09c0,0,.01-.01,.02-.02,.02-.01,.04-.02,.07-.02l.71,.09,.39-.6s.02-.02,.03-.03c.01,0,.03-.02,.05-.02,.03,0,.06,.01,.08,.04l.44,.56,.7-.14s.06,0,.09,.02c.02,.02,.03,.05,.03,.08l-.09,.71,.6,.39s.04,.05,.04,.08c0,.03-.01,.06-.04,.08l-.56,.44,.14,.7s0,.06-.02,.09c0,0-.01,.01-.02,.02Zm-.88-.26s.04-.02,.07-.02l.64,.08-.13-.63s0-.07,.04-.1l.5-.4-.53-.35s-.05-.06-.04-.09l.08-.64-.63,.13s-.07,0-.1-.04l-.4-.5-.35,.53s-.02,.02-.03,.03c-.02,.01-.04,.02-.07,.01l-.64-.08,.13,.63s0,.07-.04,.1l-.5,.4,.54,.35s.05,.06,.04,.09l-.08,.64,.63-.13s.07,0,.1,.04l.4,.5,.35-.54s.02-.02,.03-.03Z"/>
            </g>
          </g>
          <g>
            <path class="cls-6" d="M14.11,18.86c-.18,1-1.14,1.65-2.13,1.47-1-.18-1.65-1.14-1.47-2.13,.18-1,1.14-1.66,2.14-1.47,1,.18,1.65,1.14,1.47,2.14Z"/>
            <path class="cls-2" d="M15.3,18.14c-.23,1.22-1.4,2.03-2.62,1.81-1.22-.23-2.03-1.4-1.81-2.62,.23-1.22,1.4-2.03,2.62-1.81,1.22,.23,2.03,1.4,1.81,2.62Z"/>
            <path class="cls-3" d="M15.16,18.92c-.23,1.22-1.4,2.03-2.62,1.8-1.22-.22-2.03-1.4-1.8-2.62,.23-1.22,1.4-2.03,2.62-1.8,1.22,.23,2.03,1.4,1.8,2.62Z"/>
            <g>
              <path class="cls-10" d="M13.81,17.06s0,0-.01,0l-3.27,1.51s-.04,.01-.06,0c-.02,0-.04-.02-.05-.04-.02-.04,0-.08,.03-.11,0,0,0,0,.01,0l3.27-1.51s.09,0,.11,.04c.02,.04,0,.08-.03,.11Z"/>
              <path class="cls-10" d="M13.62,17.44s0,0-.01,0c-.04,.02-.09,0-.11-.04l-.22-.48s0-.08,.03-.11c0,0,0,0,.01,0,.04-.02,.09,0,.11,.04l.22,.48s0,.08-.03,.11Z"/>
              <path class="cls-10" d="M10.95,18.67s0,0-.01,0c-.04,.02-.09,0-.11-.04l-.22-.48s0-.08,.03-.1c0,0,0,0,.01,0,.04-.02,.09,0,.11,.04l.22,.48s0,.08-.03,.11Z"/>
              <path class="cls-10" d="M12.93,19.45s0,0-.01,0c-.02,0-.04,0-.06,0-.02,0-.04-.02-.05-.04l-1.51-3.27s0-.08,.03-.11c0,0,0,0,.01,0,.02,0,.04,0,.06,0,.02,0,.04,.02,.05,.04l1.51,3.27s0,.08-.03,.11Z"/>
              <path class="cls-10" d="M13.03,19.04s0,0-.01,0l-.48,.22s-.04,.01-.06,0c-.02,0-.04-.02-.05-.04-.02-.04,0-.08,.03-.11,0,0,0,0,.01,0l.48-.22s.04-.01,.06,0c.02,0,.04,.02,.05,.04,.02,.04,0,.08-.03,.11Z"/>
              <path class="cls-10" d="M11.79,16.37s0,0-.01,0l-.48,.22s-.04,.01-.06,0-.04-.02-.05-.04c-.02-.04,0-.08,.03-.11,0,0,0,0,.01,0l.48-.22s.04,0,.06,0c.02,0,.04,.02,.05,.04,.02,.04,0,.08-.03,.11Z"/>
              <path class="cls-10" d="M11.55,19.51s0,0-.01,0c-.02,0-.04,.01-.06,0-.02,0-.04-.02-.05-.04,0-.02-.01-.04,0-.06l1.24-3.38s.02-.03,.03-.04c.02-.02,.05-.02,.08,0,.02,0,.04,.02,.05,.04,0,.02,.01,.04,0,.06l-1.24,3.38s-.02,.03-.03,.04Z"/>
              <path class="cls-10" d="M11.91,19.29s0,0-.01,0c-.02,0-.04,.01-.06,0l-.5-.18s-.04-.02-.05-.04c0-.02-.01-.04,0-.06,0-.02,.02-.03,.03-.04,.02-.02,.05-.02,.07,0l.5,.18s.04,.02,.05,.04c0,.02,.01,.04,0,.06,0,.02-.02,.03-.03,.04Z"/>
              <path class="cls-10" d="M12.93,16.53s0,0-.01,0c-.02,0-.04,0-.06,0l-.5-.18s-.07-.06-.05-.11c0-.02,.02-.03,.03-.04,.02-.02,.05-.02,.08,0l.5,.18s.04,.02,.05,.04c0,.02,.01,.04,0,.06,0,.02-.02,.03-.03,.04Z"/>
              <path class="cls-10" d="M13.86,18.44s0,0-.01,0c-.02,0-.04,.01-.06,0l-3.38-1.24s-.04-.02-.05-.04c0-.02,0-.04,0-.06,0-.02,.02-.03,.03-.04,.02-.02,.05-.02,.08,0l3.38,1.24s.04,.02,.05,.04c0,.02,.01,.04,0,.06,0,.02-.02,.03-.03,.04Z"/>
              <path class="cls-10" d="M10.7,17.56s0,0-.01,0c-.02,0-.04,.01-.06,0-.02,0-.04-.02-.05-.04,0-.02-.01-.04,0-.06l.18-.5s.02-.03,.03-.04c.02-.01,.05-.02,.08,0,.02,0,.04,.02,.05,.04,0,.02,.01,.04,0,.06l-.18,.5s-.02,.03-.03,.04Z"/>
              <path class="cls-10" d="M13.46,18.57s0,0-.01,0c-.02,0-.04,.01-.06,0-.02,0-.04-.02-.05-.04,0-.02-.01-.04,0-.06l.18-.5s.02-.03,.03-.04c.02-.01,.05-.02,.08,0,.02,0,.04,.02,.05,.04,0,.02,.01,.04,0,.06l-.18,.5s-.02,.03-.03,.04Z"/>
              <path class="cls-10" d="M12.59,18.72s0,0,0,0c-.02,0-.05,0-.07,0l-.35-.2-.33,.23s-.05,.02-.07,0c-.02,0-.04-.03-.05-.05l-.11-.39-.4-.08s-.04-.02-.05-.04c0-.02,0-.05,0-.07l.2-.35-.23-.33s-.02-.04,0-.07c0-.02,.02-.03,.03-.04,0,0,.01,0,.02,0l.39-.11,.08-.4s.02-.04,.03-.05c0,0,0,0,0,0,.02,0,.05,0,.07,0l.35,.2,.34-.23s.04-.02,.07,0c.02,0,.04,.03,.05,.05l.11,.39,.4,.08s.04,.02,.05,.04c.01,.02,0,.05,0,.07l-.2,.35,.22,.33s0,.01,.01,.02c.02,.03,0,.07-.03,.09,0,0,0,0,0,0h0s0,0,0,0l-.39,.11-.08,.4s-.02,.04-.03,.05Zm-.48-.35s0,0,.01,0c.02-.01,.05,0,.07,0l.3,.17,.07-.34s.02-.04,.03-.05c0,0,.01,0,.02,0l.33-.09-.19-.29s-.02-.06,0-.08l.17-.3-.34-.07s-.05-.03-.06-.05l-.09-.33-.29,.19s-.05,.02-.08,0l-.3-.17-.07,.34s-.02,.04-.03,.05c0,0-.01,0-.02,0l-.33,.09,.19,.29s.02,.05,0,.08l-.17,.3,.34,.07s.05,.03,.06,.05l.09,.33,.29-.19h0Z"/>
              <path class="cls-10" d="M13.14,18.71s0,0,0,0c-.01,0-.03,0-.04,0l-.55-.07-.3,.46s-.01,.02-.02,.02c-.01,0-.02,.01-.04,.01-.02,0-.05,0-.06-.03l-.34-.43-.54,.11s-.05,0-.07-.02c-.02-.02-.03-.04-.02-.06l.07-.55-.46-.3s-.03-.04-.03-.06,0-.05,.03-.06l.43-.34-.11-.54s0-.05,.02-.07c0,0,0,0,.01-.01,.01,0,.03-.01,.05-.01l.55,.07,.3-.46s.01-.02,.02-.02c.01,0,.02-.01,.04-.01,.02,0,.05,0,.06,.03l.34,.43,.54-.11s.05,0,.07,.02c.02,.02,.03,.04,.02,.06l-.07,.55,.46,.3s.03,.04,.03,.06c0,.02,0,.05-.03,.06l-.43,.34,.11,.54s0,.05-.02,.07c0,0,0,0-.01,.01Zm-.68-.2s.03-.01,.05-.01l.49,.06-.1-.48s0-.06,.03-.07l.39-.3-.41-.27s-.04-.04-.03-.07l.06-.49-.48,.1s-.06,0-.07-.03l-.3-.39-.27,.41s-.01,.02-.02,.02c-.01,.01-.03,.01-.05,.01l-.49-.06,.1,.48s0,.06-.03,.08l-.39,.3,.41,.27s.04,.04,.03,.07l-.06,.49,.48-.1s.06,0,.07,.03l.3,.39,.27-.41s.01-.02,.02-.02Z"/>
            </g>
            <g>
              <path class="cls-16" d="M13.85,17.06s0,0-.01,0l-3.27,1.51s-.04,.01-.06,0c-.02,0-.04-.02-.05-.04-.02-.04,0-.08,.03-.11,0,0,0,0,.01,0l3.27-1.51s.09,0,.11,.04c.02,.04,0,.08-.03,.11Z"/>
              <path class="cls-16" d="M13.66,17.44s0,0-.01,0c-.04,.02-.09,0-.11-.04l-.22-.48s0-.08,.03-.11c0,0,0,0,.01,0,.04-.02,.09,0,.11,.04l.22,.48s0,.08-.03,.11Z"/>
              <path class="cls-16" d="M10.99,18.67s0,0-.01,0c-.04,.02-.09,0-.11-.04l-.22-.48s0-.08,.03-.1c0,0,0,0,.01,0,.04-.02,.09,0,.11,.04l.22,.48s0,.08-.03,.11Z"/>
              <path class="cls-16" d="M12.97,19.45s0,0-.01,0c-.02,0-.04,0-.06,0-.02,0-.04-.02-.05-.04l-1.51-3.27s0-.08,.03-.11c0,0,0,0,.01,0,.02,0,.04,0,.06,0,.02,0,.04,.02,.05,.04l1.51,3.27s0,.08-.03,.11Z"/>
              <path class="cls-16" d="M13.07,19.04s0,0-.01,0l-.48,.22s-.04,.01-.06,0c-.02,0-.04-.02-.05-.04-.02-.04,0-.08,.03-.11,0,0,0,0,.01,0l.48-.22s.04-.01,.06,0c.02,0,.04,.02,.05,.04,.02,.04,0,.08-.03,.11Z"/>
              <path class="cls-16" d="M11.84,16.37s0,0-.01,0l-.48,.22s-.04,.01-.06,0c-.02,0-.04-.02-.05-.04-.02-.04,0-.08,.03-.11,0,0,0,0,.01,0l.48-.22s.04,0,.06,0,.04,.02,.05,.04c.02,.04,0,.08-.03,.11Z"/>
              <path class="cls-16" d="M11.6,19.51s0,0-.01,0c-.02,0-.04,.01-.06,0-.02,0-.04-.02-.05-.04,0-.02-.01-.04,0-.06l1.24-3.38s.02-.03,.03-.04c.02-.02,.05-.02,.07,0,.02,0,.04,.02,.05,.04,0,.02,.01,.04,0,.06l-1.24,3.38s-.02,.03-.03,.04Z"/>
              <path class="cls-16" d="M11.96,19.29s0,0-.01,0c-.02,0-.04,.01-.06,0l-.5-.18s-.04-.02-.05-.04c0-.02-.01-.04,0-.06,0-.02,.02-.03,.03-.04,.02-.02,.05-.02,.07,0l.5,.18s.04,.02,.05,.04c0,.02,.01,.04,0,.06,0,.02-.02,.03-.03,.04Z"/>
              <path class="cls-16" d="M12.97,16.53s0,0-.01,0c-.02,0-.04,0-.06,0l-.49-.18s-.07-.06-.05-.11c0-.02,.02-.03,.03-.04,.02-.02,.05-.02,.08,0l.5,.18s.04,.02,.05,.04c0,.02,.01,.04,0,.06,0,.02-.02,.03-.03,.04Z"/>
              <path class="cls-16" d="M13.91,18.44s0,0-.01,0c-.02,0-.04,.01-.06,0l-3.38-1.24s-.04-.02-.05-.04c0-.02-.01-.04,0-.06,0-.02,.02-.03,.03-.04,.02-.02,.05-.02,.07,0l3.38,1.24s.04,.02,.05,.04c0,.02,0,.04,0,.06,0,.02-.02,.03-.03,.04Z"/>
              <path class="cls-16" d="M10.74,17.56s0,0-.01,0c-.02,0-.04,.01-.06,0s-.04-.02-.05-.04c0-.02-.01-.04,0-.06l.18-.5s.02-.03,.03-.04c.02-.01,.05-.02,.07,0,.02,0,.04,.02,.05,.04,0,.02,.01,.04,0,.06l-.18,.5s-.02,.03-.03,.04Z"/>
              <path class="cls-16" d="M13.5,18.57s0,0-.01,0c-.02,0-.04,.01-.06,0-.02,0-.04-.02-.05-.04,0-.02-.01-.04,0-.06l.18-.5s.02-.03,.03-.04c.02-.01,.05-.02,.07,0,.02,0,.04,.02,.05,.04,0,.02,.01,.04,0,.06l-.18,.5s-.02,.03-.03,.04Z"/>
              <path class="cls-16" d="M12.63,18.72s0,0,0,0c-.02,0-.05,0-.07,0l-.35-.2-.34,.23s-.05,.02-.07,0c-.02,0-.04-.03-.05-.05l-.11-.39-.4-.08s-.04-.02-.05-.04c-.01-.02,0-.05,0-.07l.2-.35-.23-.33s-.02-.04,0-.07c0-.02,.02-.03,.03-.04,0,0,.01,0,.02,0l.39-.11,.08-.4s.02-.04,.03-.05c0,0,0,0,0,0,.02,0,.05,0,.07,0l.35,.2,.34-.23s.04-.02,.07,0c.02,0,.04,.03,.05,.05l.11,.39,.4,.08s.04,.02,.05,.04c0,.02,0,.05,0,.07l-.2,.35,.22,.33s0,.01,.01,.02c.02,.03,0,.07-.03,.09,0,0,0,0,0,0h0s0,0,0,0l-.39,.11-.08,.4s-.02,.04-.03,.05Zm-.48-.35s0,0,.01,0c.02-.01,.05,0,.07,0l.3,.17,.07-.34s.02-.04,.03-.05c0,0,.01,0,.02,0l.33-.09-.19-.29s-.02-.06,0-.08l.17-.3-.34-.07s-.05-.03-.06-.05l-.09-.33-.29,.19s-.05,.02-.08,0l-.3-.17-.07,.34s-.02,.04-.03,.05c0,0-.01,0-.02,0l-.33,.09,.19,.29s.02,.05,0,.08l-.17,.3,.34,.07s.05,.03,.06,.05l.09,.33,.29-.19h0Z"/>
              <path class="cls-16" d="M13.19,18.71s0,0,0,0c-.01,0-.03,0-.04,0l-.55-.07-.3,.46s-.01,.02-.02,.02c-.01,0-.02,.01-.04,.01-.02,0-.05,0-.06-.03l-.34-.43-.54,.11s-.05,0-.07-.02c-.02-.02-.03-.04-.02-.06l.07-.55-.46-.3s-.03-.04-.03-.06,0-.05,.03-.06l.43-.34-.11-.54s0-.05,.02-.07c0,0,0,0,.01-.01,.01,0,.03-.01,.05-.01l.55,.07,.3-.46s.01-.02,.02-.02c.01,0,.02-.01,.04-.01,.02,0,.05,0,.06,.03l.34,.43,.54-.11s.05,0,.07,.02c.02,.02,.03,.04,.02,.06l-.07,.55,.46,.3s.03,.04,.03,.06c0,.02,0,.05-.03,.06l-.43,.34,.11,.54s0,.05-.02,.07c0,0,0,0-.01,.01Zm-.68-.2s.03-.01,.05-.01l.49,.06-.1-.48s0-.06,.03-.07l.39-.3-.41-.27s-.04-.04-.03-.07l.06-.49-.48,.1s-.06,0-.07-.03l-.3-.39-.27,.41s-.01,.02-.02,.02c-.02,.01-.03,.01-.05,.01l-.49-.06,.1,.48s0,.06-.03,.08l-.39,.3,.41,.27s.04,.04,.03,.07l-.06,.49,.48-.1s.06,0,.07,.03l.3,.39,.27-.41s.01-.02,.02-.02Z"/>
            </g>
          </g>
          <g>
            <path class="cls-4" d="M20.31,16.1c-.27,1.47-1.68,2.44-3.15,2.17-1.47-.27-2.44-1.68-2.17-3.15,.27-1.47,1.68-2.44,3.15-2.17,1.47,.27,2.44,1.68,2.17,3.15Z"/>
            <path class="cls-8" d="M22.06,15.04c-.33,1.8-2.06,2.99-3.86,2.66-1.8-.33-2.99-2.06-2.66-3.86,.33-1.8,2.06-2.99,3.86-2.66,1.8,.33,2.99,2.06,2.66,3.86Z"/>
            <path class="cls-7" d="M21.86,16.18c-.33,1.8-2.06,2.99-3.86,2.66-1.8-.33-2.99-2.06-2.66-3.86,.33-1.8,2.06-2.99,3.86-2.66,1.8,.33,2.99,2.06,2.66,3.86Z"/>
            <g>
              <path class="cls-10" d="M19.62,13.4s-.01,0-.02,0l-4.82,2.23s-.06,.01-.09,0c-.03-.01-.06-.04-.07-.06-.03-.06,0-.12,.04-.16,0,0,0,0,.02,0l4.82-2.23c.06-.03,.14,0,.16,.06,.03,.06,0,.12-.04,.16Z"/>
              <path class="cls-10" d="M19.34,13.96s-.01,0-.02,0c-.06,.03-.14,0-.16-.06l-.33-.71c-.03-.06,0-.12,.04-.16,0,0,.01,0,.02,0,.06-.03,.14,0,.16,.06l.33,.71c.03,.06,0,.12-.04,.16Z"/>
              <path class="cls-10" d="M15.41,15.78s-.01,0-.02,0c-.06,.03-.14,0-.16-.06l-.33-.71c-.03-.05,0-.12,.04-.16,0,0,.01,0,.02,0,.06-.03,.14,0,.16,.06l.33,.71c.03,.06,0,.12-.04,.16Z"/>
              <path class="cls-10" d="M18.33,16.93s-.01,0-.02,0c-.03,.01-.06,.02-.09,0-.03-.01-.06-.03-.07-.06l-2.23-4.82c-.03-.05,0-.12,.04-.16,0,0,.01,0,.02,0,.03-.01,.06-.02,.09,0,.03,.01,.06,.03,.07,.06l2.23,4.82c.03,.05,0,.12-.04,.16Z"/>
              <path class="cls-10" d="M18.47,16.32s-.01,0-.02,0l-.71,.33s-.06,.02-.09,0c-.03-.01-.06-.03-.07-.06-.03-.06,0-.12,.04-.16,0,0,.01,0,.02,0l.71-.33s.06-.02,.09,0c.03,.01,.06,.03,.07,.06,.03,.06,0,.12-.04,.16Z"/>
              <path class="cls-10" d="M16.65,12.39s-.01,0-.02,0l-.7,.33s-.06,.02-.09,0c-.03-.01-.06-.03-.07-.06-.03-.06,0-.12,.04-.16,0,0,.01,0,.02,0l.7-.33s.06-.02,.09,0c.03,.01,.06,.03,.07,.06,.03,.05,0,.12-.04,.16Z"/>
              <path class="cls-10" d="M16.3,17.01s-.01,0-.02,0c-.03,.01-.06,.02-.09,0-.03-.01-.06-.03-.07-.06-.01-.03-.01-.06,0-.09l1.83-4.98s.03-.05,.05-.06c.03-.02,.07-.03,.11-.01,.03,.01,.06,.03,.07,.06,.01,.03,.02,.06,0,.09l-1.83,4.98s-.03,.05-.05,.06Z"/>
              <path class="cls-10" d="M16.83,16.69s-.01,0-.02,0c-.03,.01-.06,.02-.09,0l-.73-.27s-.06-.03-.07-.06c-.01-.03-.02-.06,0-.09,0-.03,.03-.05,.05-.06,.03-.02,.07-.03,.11-.01l.73,.27s.06,.04,.07,.06c.01,.03,.02,.06,0,.09,0,.03-.03,.05-.05,.06Z"/>
              <path class="cls-10" d="M18.32,12.62s0,0-.02,0c-.03,.01-.06,.01-.09,0l-.73-.27c-.06-.02-.1-.09-.07-.16,0-.03,.03-.05,.05-.06,.03-.02,.07-.03,.11-.01l.73,.27s.06,.03,.07,.06c.01,.03,.02,.06,0,.09,0,.03-.03,.05-.05,.06Z"/>
              <path class="cls-10" d="M19.7,15.43s-.01,0-.02,0c-.03,.01-.06,.02-.09,0l-4.98-1.83s-.06-.03-.07-.06c-.01-.03-.02-.06,0-.09,0-.03,.03-.05,.05-.06,.03-.02,.07-.03,.11-.01l4.98,1.83s.06,.03,.07,.06c.01,.03,.02,.06,0,.09,0,.03-.03,.05-.05,.06Z"/>
              <path class="cls-10" d="M15.04,14.14s-.01,0-.02,0c-.03,.01-.06,.01-.09,0-.03-.01-.06-.03-.07-.06-.01-.03-.02-.06,0-.09l.27-.73s.03-.04,.05-.06c.03-.02,.07-.03,.11-.01,.03,.01,.06,.03,.07,.06,.01,.03,.02,.06,0,.09l-.27,.73s-.03,.04-.05,.06Z"/>
              <path class="cls-10" d="M19.11,15.63s-.01,0-.02,0c-.03,.01-.06,.01-.09,0-.03-.01-.06-.04-.07-.06-.01-.03-.02-.06,0-.09l.27-.73s.03-.05,.05-.06c.03-.02,.07-.03,.11-.01,.03,.01,.06,.03,.07,.06,.01,.03,.02,.06,0,.09l-.27,.73s-.03,.05-.05,.06Z"/>
              <path class="cls-10" d="M17.83,15.85s0,0-.01,0c-.03,.02-.07,.01-.1,0l-.52-.29-.49,.33s-.07,.02-.1,.01c-.03-.01-.06-.04-.07-.07l-.16-.57-.59-.11s-.06-.03-.08-.06c-.02-.03-.01-.07,0-.1l.29-.52-.33-.49s-.02-.07-.01-.1c0-.02,.02-.04,.04-.05,0,0,.02-.01,.03-.01l.57-.16,.11-.58s.02-.06,.05-.07c0,0,0,0,.01,0,.03-.02,.07-.01,.1,0l.52,.29,.49-.33s.07-.02,.1-.01c.03,.01,.06,.04,.07,.07l.16,.58,.59,.11s.06,.03,.08,.06c.02,.03,.01,.07,0,.1l-.29,.52,.33,.48s.01,.02,.02,.03c.02,.05,0,.11-.04,.14,0,0,0,0-.01,0h0s0,0-.01,0l-.57,.16-.11,.58s-.02,.06-.05,.07Zm-.7-.51s0,0,.02,0c.03-.01,.07-.01,.1,0l.44,.25,.1-.5s.02-.06,.05-.07c0,0,.02-.01,.03-.01l.49-.14-.29-.42s-.03-.08,0-.12l.25-.45-.5-.1s-.07-.04-.09-.08l-.14-.49-.42,.29s-.08,.03-.12,0l-.44-.25-.1,.5s-.02,.06-.05,.07c0,0-.02,.01-.03,.01l-.49,.14,.29,.42s.03,.08,0,.12l-.25,.44,.5,.1s.07,.04,.09,.08l.14,.49,.42-.29h0Z"/>
              <path class="cls-10" d="M18.64,15.83s0,0-.01,0c-.02,0-.04,.01-.06,0l-.8-.1-.45,.68s-.02,.02-.03,.03c-.02,.01-.04,.02-.06,.02-.04,0-.07-.01-.09-.04l-.5-.64-.79,.16s-.07,0-.1-.03-.04-.06-.03-.09l.1-.8-.68-.45s-.05-.05-.05-.09c0-.04,.01-.07,.04-.09l.64-.5-.16-.79s0-.07,.03-.1c0,0,.01-.01,.02-.02,.02-.01,.05-.02,.07-.02l.81,.1,.45-.68s.02-.02,.03-.03c.02-.01,.04-.02,.06-.02,.04,0,.07,.01,.09,.04l.5,.64,.79-.16s.07,0,.1,.03c.03,.02,.04,.06,.04,.1l-.1,.8,.68,.45s.05,.05,.05,.09c0,.04-.01,.07-.04,.09l-.64,.5,.16,.79s0,.07-.03,.1c0,0-.01,.01-.02,.02Zm-.99-.29s.05-.02,.07-.02l.72,.09-.15-.71s0-.08,.04-.11l.57-.45-.61-.4s-.05-.06-.05-.11l.09-.72-.71,.15s-.08,0-.11-.04l-.45-.57-.4,.61s-.02,.02-.03,.03c-.02,.01-.05,.02-.07,.02l-.72-.09,.15,.71s0,.08-.04,.11l-.57,.45,.61,.4s.05,.06,.05,.11l-.09,.72,.71-.15s.08,0,.11,.04l.45,.57,.4-.61s.02-.02,.03-.03Z"/>
            </g>
            <g>
              <path class="cls-16" d="M19.68,13.4s-.01,0-.02,0l-4.82,2.23s-.06,.01-.09,0c-.03-.01-.06-.04-.07-.06-.03-.06,0-.12,.04-.16,0,0,.01,0,.02,0l4.82-2.23c.06-.03,.14,0,.16,.06,.03,.06,0,.12-.04,.16Z"/>
              <path class="cls-16" d="M19.4,13.96s-.01,0-.02,0c-.06,.03-.14,0-.16-.06l-.33-.71c-.03-.06,0-.12,.04-.16,0,0,.01,0,.02,0,.06-.03,.14,0,.16,.06l.33,.71c.03,.06,0,.12-.04,.16Z"/>
              <path class="cls-16" d="M15.47,15.78s-.01,0-.02,0c-.06,.03-.14,0-.16-.06l-.33-.71c-.03-.05,0-.12,.04-.16,0,0,.01,0,.02,0,.06-.03,.14,0,.16,.06l.33,.71c.03,.06,0,.12-.04,.16Z"/>
              <path class="cls-16" d="M18.39,16.93s-.01,0-.02,0c-.03,.01-.06,.02-.09,0-.03-.01-.06-.03-.07-.06l-2.23-4.82c-.03-.05,0-.12,.04-.16,0,0,.01,0,.02,0,.03-.01,.06-.02,.09,0,.03,.01,.06,.03,.07,.06l2.23,4.82c.03,.05,0,.12-.04,.16Z"/>
              <path class="cls-16" d="M18.54,16.32s-.01,0-.02,0l-.71,.33s-.06,.02-.09,0c-.03-.01-.06-.03-.07-.06-.03-.06,0-.12,.04-.16,0,0,.01,0,.02,0l.71-.33s.06-.02,.09,0c.03,.01,.06,.03,.07,.06,.03,.06,0,.12-.04,.16Z"/>
              <path class="cls-16" d="M16.71,12.39s-.01,0-.02,0l-.71,.33s-.06,.02-.09,0c-.03-.01-.06-.03-.07-.06-.03-.06,0-.12,.04-.16,0,0,.01,0,.02,0l.7-.33s.06-.02,.09,0c.03,.01,.06,.03,.07,.06,.03,.05,0,.12-.04,.16Z"/>
              <path class="cls-16" d="M16.36,17.01s-.01,0-.02,0c-.03,.01-.06,.02-.09,0-.03-.01-.06-.03-.07-.06-.01-.03-.02-.06,0-.09l1.83-4.98s.03-.05,.05-.06c.03-.02,.07-.03,.11-.01,.03,.01,.06,.03,.07,.06,.01,.03,.02,.06,0,.09l-1.83,4.98s-.03,.05-.05,.06Z"/>
              <path class="cls-16" d="M16.89,16.69s-.01,0-.02,0c-.03,.01-.06,.02-.09,0l-.73-.27s-.06-.03-.07-.06c-.01-.03-.01-.06,0-.09,0-.03,.03-.05,.05-.06,.03-.02,.07-.03,.11-.01l.73,.27s.06,.04,.07,.06c.01,.03,.02,.06,0,.09,0,.03-.03,.05-.05,.06Z"/>
              <path class="cls-16" d="M18.38,12.62s-.01,0-.02,0c-.03,.01-.06,.01-.09,0l-.73-.27c-.06-.02-.1-.09-.07-.16,0-.03,.03-.05,.05-.06,.03-.02,.07-.03,.11-.01l.73,.27s.06,.03,.07,.06c.01,.03,.02,.06,0,.09,0,.03-.03,.05-.05,.06Z"/>
              <path class="cls-16" d="M19.76,15.43s-.01,0-.02,0c-.03,.01-.06,.02-.09,0l-4.98-1.83s-.06-.03-.07-.06c-.01-.03-.02-.06,0-.09,0-.03,.03-.05,.05-.06,.03-.02,.07-.03,.11-.01l4.98,1.83s.06,.03,.07,.06,.02,.06,0,.09c0,.03-.03,.05-.05,.06Z"/>
              <path class="cls-16" d="M15.1,14.14s-.01,0-.02,0c-.03,.01-.06,.01-.09,0-.03-.01-.06-.03-.07-.06-.01-.03-.02-.06,0-.09l.27-.73s.03-.04,.05-.06c.03-.02,.07-.03,.11-.01,.03,.01,.06,.03,.07,.06,.01,.03,.02,.06,0,.09l-.27,.73s-.03,.04-.05,.06Z"/>
              <path class="cls-16" d="M19.17,15.63s-.01,0-.02,0c-.03,.01-.06,.01-.09,0-.03-.01-.06-.04-.07-.06-.01-.03-.02-.06,0-.09l.27-.73s.03-.05,.05-.06c.03-.02,.07-.03,.11-.01,.03,.01,.06,.03,.07,.06,.01,.03,.02,.06,0,.09l-.27,.73s-.03,.05-.05,.06Z"/>
              <path class="cls-16" d="M17.89,15.85s0,0-.01,0c-.03,.02-.07,.01-.1,0l-.52-.29-.49,.33s-.07,.02-.1,.01c-.03-.01-.06-.04-.07-.07l-.16-.57-.59-.11s-.06-.03-.08-.06c-.02-.03-.01-.07,0-.1l.29-.52-.33-.49s-.02-.07-.01-.1c0-.02,.02-.04,.04-.05,0,0,.02-.01,.03-.01l.57-.16,.11-.58s.02-.06,.05-.07c0,0,0,0,.01,0,.03-.02,.07-.01,.1,0l.52,.29,.49-.33s.07-.02,.1-.01c.03,.01,.06,.04,.07,.07l.16,.58,.59,.11s.06,.03,.08,.06c.01,.03,.01,.07,0,.1l-.29,.52,.33,.48s.01,.02,.02,.03c.02,.05,0,.11-.04,.14,0,0,0,0-.01,0h0s0,0-.01,0l-.57,.16-.11,.58s-.02,.06-.05,.07Zm-.7-.51s.01,0,.02,0c.03-.01,.07-.01,.1,0l.44,.25,.1-.5s.02-.06,.05-.07c0,0,.02-.01,.03-.01l.49-.14-.29-.42s-.02-.08,0-.12l.25-.45-.5-.1s-.08-.04-.09-.08l-.14-.49-.42,.29s-.08,.03-.12,0l-.45-.25-.1,.5s-.02,.06-.05,.07c0,0-.02,.01-.03,.01l-.49,.14,.29,.42s.03,.08,0,.12l-.25,.44,.5,.1s.07,.04,.09,.08l.14,.49,.42-.29h0Z"/>
              <path class="cls-16" d="M18.7,15.83s0,0-.01,0c-.02,0-.04,.01-.06,0l-.81-.1-.45,.68s-.02,.02-.03,.03c-.02,.01-.04,.02-.06,.02-.04,0-.07-.01-.09-.04l-.5-.64-.79,.16s-.07,0-.1-.03c-.03-.02-.04-.06-.04-.09l.1-.8-.68-.45s-.05-.05-.05-.09c0-.04,.01-.07,.04-.09l.64-.5-.16-.79s0-.07,.03-.1c0,0,.01-.01,.02-.02,.02-.01,.05-.02,.07-.02l.81,.1,.45-.68s.02-.02,.03-.03c.02-.01,.04-.02,.06-.02,.04,0,.07,.01,.09,.04l.5,.64,.79-.16s.07,0,.1,.03c.03,.02,.04,.06,.04,.1l-.1,.8,.68,.45s.05,.05,.05,.09c0,.04-.01,.07-.04,.09l-.64,.5,.16,.79s0,.07-.03,.1c0,0-.01,.01-.02,.02Zm-1-.29s.05-.02,.07-.02l.72,.09-.15-.71s0-.08,.04-.11l.57-.45-.61-.4s-.05-.06-.05-.11l.09-.72-.71,.15s-.08,0-.11-.04l-.45-.57-.4,.61s-.02,.02-.03,.03c-.02,.01-.05,.02-.07,.02l-.72-.09,.15,.71s0,.08-.04,.11l-.57,.45,.61,.4s.05,.06,.05,.11l-.09,.72,.71-.15s.08,0,.11,.04l.45,.57,.4-.61s.02-.02,.03-.03Z"/>
            </g>
          </g>
          <g>
            <path class="cls-10" d="M14.59,7.37c.1-.35,.15-.72,.15-1.1,0-2.27-1.84-4.11-4.11-4.11-1.92,0-3.54,1.32-3.99,3.1-.04,0-.08,0-.12,0-.9,0-1.69,.46-2.15,1.16-.23-.1-.49-.15-.76-.15-1.1,0-1.99,.89-1.99,1.99s.89,1.99,1.99,1.99c.48,0,.93-.17,1.27-.46,.44,.37,1.01,.59,1.63,.59,.69,0,1.32-.28,1.78-.72,.66,.45,1.46,.72,2.33,.72,.79,0,1.53-.22,2.15-.61,.28,.36,.72,.59,1.21,.59,.86,0,1.55-.69,1.55-1.55,0-.65-.4-1.2-.96-1.43Z"/>
            <path class="cls-13" d="M14.65,7.43c.1-.35,.15-.72,.15-1.1,0-2.27-1.84-4.11-4.11-4.11-1.92,0-3.54,1.32-3.99,3.1-.04,0-.08,0-.12,0-.9,0-1.69,.46-2.15,1.16-.23-.1-.49-.15-.76-.15-1.1,0-1.99,.89-1.99,1.99s.89,1.99,1.99,1.99c.48,0,.93-.17,1.27-.46,.44,.37,1.01,.59,1.63,.59,.69,0,1.32-.28,1.78-.72,.66,.46,1.46,.72,2.33,.72,.79,0,1.53-.22,2.15-.61,.28,.36,.72,.59,1.21,.59,.86,0,1.55-.7,1.55-1.55,0-.65-.4-1.2-.96-1.43Z"/>
          </g>
          <g>
            <path class="cls-10" d="M20.65,6.69s-.09,0-.13,0c-.24-.69-.89-1.18-1.66-1.18-.23,0-.45,.04-.65,.12-.24-.66-.87-1.12-1.6-1.12s-1.33,.44-1.59,1.07c-.08-.01-.17-.02-.26-.02-.78,0-1.41,.59-1.49,1.34-.11-.02-.22-.03-.34-.03-.93,0-1.69,.76-1.69,1.69s.76,1.69,1.69,1.69c.01,0,.03,0,.04,0,.17,.68,.78,1.19,1.52,1.19,.57,0,1.07-.3,1.34-.76,.37,.63,1.06,1.06,1.85,1.06,.87,0,1.62-.52,1.96-1.27,.3,.17,.64,.27,1.01,.27,1.12,0,2.03-.91,2.03-2.03s-.91-2.03-2.03-2.03Z"/>
            <path class="cls-17" d="M20.72,6.76s-.09,0-.13,0c-.24-.68-.89-1.17-1.66-1.17-.23,0-.45,.04-.65,.12-.24-.66-.87-1.13-1.6-1.13s-1.33,.44-1.58,1.07c-.08-.01-.17-.02-.26-.02-.78,0-1.41,.59-1.49,1.34-.11-.02-.22-.03-.34-.03-.94,0-1.69,.76-1.69,1.69s.76,1.69,1.69,1.69c.01,0,.03,0,.04,0,.17,.68,.78,1.19,1.52,1.19,.57,0,1.07-.3,1.34-.76,.37,.63,1.06,1.06,1.85,1.06,.87,0,1.62-.52,1.96-1.27,.3,.17,.64,.27,1.01,.27,1.12,0,2.03-.91,2.03-2.03s-.91-2.03-2.03-2.03Z"/>
          </g>
          <g>
            <path class="cls-10" d="M18.98,2.59c-.09,0-.18,0-.27,.02-.34-1.01-1.29-1.73-2.41-1.73-.52,0-1,.16-1.4,.42-.28-.76-1-1.29-1.85-1.29-.96,0-1.76,.69-1.93,1.6-.27-.2-.61-.32-.97-.32-.83,0-1.52,.63-1.62,1.43h-.01c-1.3,0-2.35,1.05-2.35,2.35s1.05,2.35,2.35,2.35c.41,0,.8-.11,1.14-.29,.12,.81,.82,1.44,1.67,1.44,.67,0,1.25-.39,1.52-.96,.52,.76,1.39,1.26,2.38,1.26,1.28,0,2.36-.83,2.73-1.98,.31,.16,.66,.25,1.04,.25,1.25,0,2.26-1.01,2.26-2.26s-1.01-2.26-2.26-2.26Z"/>
            <path class="cls-14" d="M19.05,2.65c-.09,0-.18,0-.27,.02-.34-1.01-1.29-1.73-2.41-1.73-.52,0-1,.16-1.4,.42-.28-.75-1-1.29-1.85-1.29-.96,0-1.76,.69-1.93,1.59-.27-.2-.61-.32-.97-.32-.83,0-1.52,.63-1.62,1.43,0,0,0,0-.01,0-1.3,0-2.35,1.05-2.35,2.35s1.05,2.35,2.35,2.35c.41,0,.8-.11,1.14-.3,.12,.81,.82,1.44,1.67,1.44,.67,0,1.25-.39,1.52-.96,.52,.76,1.39,1.26,2.38,1.26,1.28,0,2.36-.83,2.73-1.98,.31,.16,.66,.25,1.04,.25,1.25,0,2.26-1.01,2.26-2.26s-1.01-2.26-2.26-2.26Z"/>
          </g>
          <g>
            <path class="cls-10" d="M11.66,8.16c-.2-.01-.38,.02-.56,.07-.23-1.17-1.23-2.07-2.47-2.14-1.2-.06-2.26,.69-2.64,1.77h0c-1.02-.05-1.89,.73-1.94,1.75-.05,1.02,.73,1.89,1.75,1.94,.53,.03,1.01-.17,1.36-.5,.35,.21,.76,.33,1.2,.36,.78,.04,1.5-.26,2.01-.77,.26,.34,.67,.57,1.13,.59,.85,.04,1.57-.61,1.61-1.45,.04-.85-.61-1.57-1.45-1.61Z"/>
            <path class="cls-15" d="M11.72,8.23c-.2,0-.38,.02-.56,.08-.23-1.17-1.23-2.07-2.47-2.14-1.2-.06-2.26,.69-2.64,1.77h0c-1.02-.05-1.89,.73-1.94,1.75-.05,1.02,.73,1.89,1.75,1.94,.53,.03,1.01-.17,1.36-.5,.35,.21,.76,.33,1.2,.36,.78,.04,1.5-.26,2.01-.77,.26,.34,.67,.57,1.13,.59,.85,.04,1.57-.61,1.61-1.45,.04-.85-.61-1.57-1.45-1.61Z"/>
          </g>
        </g>
      </g>
    </g>
  </g>
</svg>