<?xml version="1.0" encoding="UTF-8"?>
<svg id="Ebene_2" data-name="Ebene 2" xmlns="http://www.w3.org/2000/svg" xmlns:xlink="http://www.w3.org/1999/xlink" viewBox="0 0 19.17 18.1">
  <defs>
    <style>
      .cls-1 {
        fill: url(#linear-gradient);
      }

      .cls-2 {
        fill: #ffa1a1;
      }

      .cls-3 {
        fill: #ffe194;
      }

      .cls-4 {
        fill: #0a4d80;
      }

      .cls-5 {
        fill: #36bcff;
      }

      .cls-6 {
        fill: url(#linear-gradient-3);
      }

      .cls-7 {
        fill: url(#linear-gradient-4);
      }

      .cls-8 {
        fill: url(#linear-gradient-2);
      }
    </style>
    <linearGradient id="linear-gradient" x1="3.04" y1="3.1" x2="5.29" y2="5.34" gradientUnits="userSpaceOnUse">
      <stop offset="0" stop-color="#ff1a1a"/>
      <stop offset="1" stop-color="#d40000"/>
    </linearGradient>
    <linearGradient id="linear-gradient-2" x1="11.76" y1="3.14" x2="18.13" y2="9.51" xlink:href="#linear-gradient"/>
    <linearGradient id="linear-gradient-3" x1="5.74" y1="2.97" x2="12.02" y2="9.25" gradientUnits="userSpaceOnUse">
      <stop offset="0" stop-color="#ff9d00"/>
      <stop offset="1" stop-color="#ffd45c"/>
    </linearGradient>
    <linearGradient id="linear-gradient-4" x1="9.31" y1="15.18" x2="11.88" y2="17.75" gradientUnits="userSpaceOnUse">
      <stop offset="0" stop-color="#ffd45c"/>
      <stop offset="1" stop-color="#ff9d00"/>
    </linearGradient>
  </defs>
  <g id="_ŽÓť_4" data-name="—ŽÓť_4">
    <g>
      <path class="cls-2" d="M9.55,.67C4.43,.67,.24,4.34,0,8.95c.02,.03,.04,.05,.06,.08,.02,0,.04-.1,.06-.11,.45-.1,.92-.15,1.42-.15,1.16,0,2.23,.29,3.03,.77,.65-1.08,4.99-4.15,4.99-4.15,0,0,4.33,3.06,4.99,4.15,.8-.48,1.86-.77,3.03-.77,.54,0,1.06,.06,1.54,.18C18.87,4.34,14.68,.67,9.55,.67Z"/>
      <path class="cls-5" d="M9.49,15.53c-.12,0-.21-.1-.21-.21V.21c0-.12,.09-.21,.21-.21s.21,.1,.21,.21V15.32c0,.12-.09,.21-.21,.21Z"/>
      <path class="cls-4" d="M9.62,15.53c-.12,0-.21-.1-.21-.21V.21c0-.12,.09-.21,.21-.21s.21,.1,.21,.21V15.32c0,.12-.09,.21-.21,.21Z"/>
      <path class="cls-1" d="M.06,9.03c.48-.12,1-.18,1.54-.18,1.16,0,2.23,.29,3.03,.77,.65-1.08,4.99-4.15,4.99-4.15V.75C4.49,.75,.31,4.42,.06,9.03Z"/>
      <path class="cls-8" d="M19.17,9.03c-.48-.12-1-.18-1.54-.18-1.16,0-2.23,.29-3.03,.77-.65-1.08-4.99-4.15-4.99-4.15V.75c5.13,0,9.31,3.67,9.56,8.29Z"/>
      <path class="cls-3" d="M9.54,8.25c1.94,0,3.7,.5,4.99,1.3,.1-.56,.15-1.14,.15-1.74,0-3.94-2.3-7.14-5.14-7.14S4.39,3.86,4.39,7.81c0,.6,.05,1.18,.15,1.74,.02,.02,.05,.05,.08,.08,.03-.02,.02-.14,.05-.16,1.27-.76,2.98-1.22,4.86-1.22Z"/>
      <path class="cls-6" d="M9.62,8.33c1.94,0,3.7,.5,4.99,1.3,.1-.56,.15-1.14,.15-1.74,0-3.94-2.3-7.14-5.14-7.14S4.48,3.95,4.48,7.89c0,.6,.05,1.18,.15,1.74,1.28-.8,3.04-1.3,4.99-1.3Z"/>
      <path class="cls-3" d="M10.74,18.1c-.89,0-1.62-.73-1.62-1.62v-1.07c0-.2,.17-.37,.37-.37s.37,.17,.37,.37v1.07c0,.49,.4,.88,.88,.88s.88-.4,.88-.88c0-.2,.17-.37,.37-.37s.37,.17,.37,.37c0,.89-.73,1.62-1.62,1.62Z"/>
      <path class="cls-7" d="M10.87,18.1c-.89,0-1.62-.73-1.62-1.62v-1.07c0-.2,.17-.37,.37-.37s.37,.17,.37,.37v1.07c0,.49,.4,.88,.88,.88s.88-.4,.88-.88c0-.2,.17-.37,.37-.37s.37,.17,.37,.37c0,.89-.73,1.62-1.62,1.62Z"/>
    </g>
  </g>
</svg>