<?xml version="1.0" encoding="UTF-8"?>
<svg id="Ebene_2" data-name="Ebene 2" xmlns="http://www.w3.org/2000/svg" xmlns:xlink="http://www.w3.org/1999/xlink" viewBox="0 0 22.75 19.85">
  <defs>
    <style>
      .cls-1 {
        fill: url(#linear-gradient);
      }

      .cls-2 {
        fill: #008dd4;
      }

      .cls-3 {
        fill: #008cde;
      }

      .cls-4 {
        fill: #007fc9;
      }

      .cls-5 {
        fill: #ffe3ab;
      }

      .cls-6 {
        fill: #63ccff;
      }

      .cls-7 {
        fill: #b3edff;
      }

      .cls-8 {
        fill: #61d7ff;
      }

      .cls-9 {
        fill: #6ed8ff;
      }

      .cls-10 {
        fill: #4fc5ff;
      }

      .cls-11 {
        fill: url(#linear-gradient-3);
      }

      .cls-12 {
        fill: url(#linear-gradient-4);
      }

      .cls-13 {
        fill: url(#linear-gradient-2);
      }
    </style>
    <linearGradient id="linear-gradient" x1="6.15" y1="4.74" x2="17.58" y2="16.17" gradientUnits="userSpaceOnUse">
      <stop offset="0" stop-color="#1062a1"/>
      <stop offset="1" stop-color="#0a4d80"/>
    </linearGradient>
    <linearGradient id="linear-gradient-2" x1="1.68" y1="6.33" x2="15.61" y2="6.33" gradientUnits="userSpaceOnUse">
      <stop offset="0" stop-color="#076bba"/>
      <stop offset="1" stop-color="#0060ab"/>
    </linearGradient>
    <linearGradient id="linear-gradient-3" x1="-321.24" y1="-543.86" x2="-325.27" y2="-549.94" gradientTransform="translate(209.14 620.2) rotate(13.06)" gradientUnits="userSpaceOnUse">
      <stop offset="0" stop-color="#ffd45c"/>
      <stop offset="1" stop-color="#ff9d00"/>
    </linearGradient>
    <linearGradient id="linear-gradient-4" x1="11.31" y1="8.21" x2="22.75" y2="8.21" xlink:href="#linear-gradient-2"/>
  </defs>
  <g id="_ŽÓť_4" data-name="—ŽÓť_4">
    <g>
      <g>
        <path class="cls-2" d="M20.6,9.49c-.19-.67-.59-1.25-1.14-1.66,.14-.37,.22-.76,.24-1.17,.09-2.1-1.54-3.88-3.64-3.96-1.61-.07-3.02,.87-3.64,2.25-.11-.01-.22-.03-.33-.03-1.33-.06-2.53,.56-3.27,1.55-.21-.08-.43-.13-.67-.14-1.14-.05-2.11,.84-2.16,1.98,0,.19,.01,.37,.05,.55-.42,.07-.77,.32-.99,.67-.35-.46-.89-.78-1.52-.8-.87-.04-1.62,.48-1.93,1.24-.04,0-.08,0-.12-.01C.7,9.9,.04,10.52,0,11.31c-.03,.79,.58,1.46,1.37,1.49,.41,.02,.78-.14,1.05-.4,.28,.17,.6,.27,.94,.29,.31,.69,.99,1.18,1.8,1.22,.84,.04,1.58-.43,1.93-1.13,.24,.11,.5,.17,.77,.19,.09,0,.17,0,.26,0,.48,.65,1.25,1.08,2.12,1.12,.85,.04,1.63-.31,2.17-.89,.33,.63,.98,1.08,1.75,1.11,.81,.04,1.54-.41,1.9-1.08,.4,.21,.85,.33,1.33,.35,1.05,.04,2-.42,2.62-1.17,.14,.05,.3,.09,.46,.09,.83,.04,1.53-.61,1.56-1.44,.04-.83-.6-1.52-1.43-1.56Z"/>
        <path class="cls-1" d="M20.65,9.55c-.19-.67-.59-1.25-1.14-1.66,.14-.37,.22-.76,.24-1.17,.09-2.1-1.54-3.88-3.64-3.96-1.61-.07-3.02,.87-3.64,2.25-.11-.01-.22-.02-.33-.03-1.33-.06-2.53,.56-3.27,1.55-.21-.08-.43-.13-.67-.14-1.14-.05-2.11,.84-2.16,1.98,0,.19,.01,.37,.05,.55-.42,.07-.77,.32-.99,.67-.35-.47-.89-.78-1.52-.8-.87-.04-1.62,.48-1.93,1.24-.04,0-.08,0-.12-.01-.79-.03-1.46,.58-1.49,1.37-.03,.79,.58,1.46,1.37,1.49,.41,.02,.78-.14,1.05-.4,.28,.17,.6,.27,.94,.29,.31,.69,.99,1.18,1.8,1.22,.84,.04,1.58-.43,1.93-1.13,.24,.11,.5,.17,.77,.19,.09,0,.17,0,.26,0,.48,.65,1.25,1.08,2.12,1.12,.85,.04,1.63-.31,2.17-.89,.33,.63,.98,1.08,1.75,1.11,.81,.04,1.54-.41,1.9-1.07,.4,.21,.85,.33,1.33,.35,1.05,.04,2-.42,2.62-1.17,.14,.05,.3,.09,.46,.09,.83,.04,1.53-.61,1.56-1.44,.04-.83-.6-1.52-1.43-1.56Z"/>
      </g>
      <g>
        <path class="cls-10" d="M14.59,7.37c.1-.35,.15-.72,.15-1.1,0-2.27-1.84-4.11-4.11-4.11-1.92,0-3.54,1.32-3.99,3.1-.04,0-.08,0-.13,0-.9,0-1.69,.46-2.14,1.16-.23-.1-.49-.15-.76-.15-1.1,0-1.99,.89-1.99,1.99s.89,1.99,1.99,1.99c.48,0,.93-.17,1.27-.46,.44,.37,1.01,.59,1.63,.59,.69,0,1.32-.28,1.78-.72,.66,.46,1.46,.72,2.33,.72,.79,0,1.53-.22,2.15-.61,.28,.36,.72,.59,1.21,.59,.86,0,1.55-.7,1.55-1.55,0-.65-.4-1.2-.96-1.43Z"/>
        <path class="cls-13" d="M14.65,7.43c.1-.35,.15-.72,.15-1.1,0-2.27-1.84-4.11-4.11-4.11-1.92,0-3.54,1.32-3.99,3.1-.04,0-.08,0-.12,0-.9,0-1.69,.46-2.14,1.16-.23-.1-.49-.15-.76-.15-1.1,0-1.99,.89-1.99,1.99s.89,1.99,1.99,1.99c.48,0,.93-.17,1.27-.46,.44,.37,1.01,.59,1.63,.59,.69,0,1.32-.28,1.78-.72,.66,.46,1.46,.72,2.33,.72,.79,0,1.53-.22,2.15-.61,.28,.36,.72,.58,1.21,.58,.86,0,1.55-.69,1.55-1.55,0-.65-.4-1.2-.96-1.43Z"/>
      </g>
      <g>
        <polygon class="cls-5" points="16.88 10.2 17.51 15.23 19.98 13.83 19.84 19.85 18.49 16.11 16.43 17.68 13.95 10.2 16.88 10.2"/>
        <polygon class="cls-11" points="16.88 10.2 17.7 15.35 19.98 13.83 19.84 19.85 18.74 16.12 16.55 17.59 14.08 10.2 16.88 10.2"/>
      </g>
      <g>
        <path class="cls-10" d="M20.65,6.69s-.09,0-.13,0c-.24-.68-.89-1.18-1.66-1.18-.23,0-.45,.05-.65,.12-.24-.66-.87-1.13-1.6-1.13s-1.33,.45-1.59,1.07c-.08-.01-.17-.02-.26-.02-.78,0-1.41,.59-1.49,1.34-.11-.02-.22-.03-.34-.03-.93,0-1.69,.76-1.69,1.69s.76,1.69,1.69,1.69c.01,0,.03,0,.04,0,.17,.68,.78,1.19,1.52,1.19,.57,0,1.07-.3,1.34-.76,.37,.64,1.06,1.06,1.85,1.06,.87,0,1.62-.52,1.96-1.27,.3,.17,.64,.27,1.01,.27,1.12,0,2.03-.91,2.03-2.03s-.91-2.03-2.03-2.03Z"/>
        <path class="cls-12" d="M20.72,6.76s-.09,0-.13,0c-.24-.69-.89-1.18-1.66-1.18-.23,0-.45,.04-.65,.12-.24-.66-.87-1.12-1.6-1.12s-1.33,.44-1.58,1.07c-.08-.01-.17-.02-.26-.02-.78,0-1.41,.59-1.49,1.34-.11-.02-.22-.03-.33-.03-.94,0-1.69,.76-1.69,1.69s.76,1.69,1.69,1.69c.01,0,.03,0,.04,0,.17,.68,.78,1.19,1.52,1.19,.57,0,1.07-.3,1.34-.76,.37,.64,1.06,1.06,1.85,1.06,.87,0,1.62-.52,1.96-1.27,.3,.17,.64,.27,1.01,.27,1.12,0,2.03-.91,2.03-2.03s-.91-2.03-2.03-2.03Z"/>
      </g>
      <g>
        <path class="cls-6" d="M18.98,2.59c-.09,0-.18,0-.27,.02-.34-1.01-1.29-1.73-2.42-1.73-.52,0-1,.16-1.4,.42-.28-.75-1-1.29-1.85-1.29-.96,0-1.76,.69-1.93,1.59-.27-.2-.61-.32-.97-.32-.83,0-1.52,.62-1.62,1.43h-.01c-1.3,0-2.35,1.05-2.35,2.35s1.05,2.35,2.35,2.35c.41,0,.8-.11,1.14-.29,.12,.81,.82,1.44,1.67,1.44,.67,0,1.25-.39,1.52-.96,.52,.76,1.39,1.26,2.38,1.26,1.28,0,2.36-.83,2.73-1.98,.31,.16,.66,.25,1.04,.25,1.25,0,2.26-1.01,2.26-2.26s-1.01-2.26-2.26-2.26Z"/>
        <path class="cls-4" d="M19.05,2.65c-.09,0-.18,0-.27,.02-.34-1.01-1.29-1.73-2.41-1.73-.52,0-1,.16-1.4,.42-.28-.75-1-1.29-1.85-1.29-.96,0-1.76,.69-1.93,1.59-.27-.2-.61-.32-.97-.32-.83,0-1.52,.63-1.62,1.43,0,0,0,0-.01,0-1.3,0-2.35,1.05-2.35,2.35s1.05,2.35,2.35,2.35c.41,0,.8-.11,1.14-.29,.12,.81,.82,1.44,1.67,1.44,.67,0,1.25-.39,1.52-.96,.52,.76,1.39,1.26,2.38,1.26,1.28,0,2.36-.83,2.73-1.98,.31,.16,.66,.25,1.04,.25,1.25,0,2.26-1.01,2.26-2.26s-1.01-2.26-2.26-2.26Z"/>
      </g>
      <g>
        <path class="cls-9" d="M11.63,8.22c-.2,0-.38,.02-.56,.08-.23-1.17-1.23-2.07-2.47-2.14-1.2-.06-2.26,.69-2.64,1.77h0c-1.02-.05-1.89,.73-1.94,1.75-.05,1.02,.73,1.89,1.75,1.94,.53,.03,1.01-.17,1.36-.5,.35,.21,.76,.33,1.2,.36,.78,.04,1.5-.26,2.01-.77,.26,.34,.67,.57,1.13,.59,.85,.04,1.57-.61,1.61-1.46,.04-.85-.61-1.57-1.45-1.61Z"/>
        <path class="cls-3" d="M11.72,8.23c-.2-.01-.38,.02-.56,.08-.23-1.17-1.23-2.07-2.47-2.14-1.2-.06-2.26,.69-2.64,1.77h0c-1.02-.05-1.89,.73-1.94,1.75-.05,1.02,.73,1.89,1.75,1.94,.53,.03,1.01-.17,1.36-.5,.35,.21,.76,.33,1.2,.36,.78,.04,1.5-.26,2.01-.77,.26,.34,.67,.57,1.13,.59,.85,.04,1.57-.61,1.61-1.45,.04-.85-.61-1.57-1.45-1.61Z"/>
      </g>
      <g>
        <g>
          <path class="cls-7" d="M6.73,17.04c0,.44-.36,.8-.8,.8s-.83-.36-.83-.8c0-.75,.84-1.76,.84-1.76l.06-.03s0,.04,.02,.06c.15,.24,.72,1.16,.72,1.73Z"/>
          <path class="cls-8" d="M6.79,17.07c0,.44-.36,.8-.8,.8s-.8-.36-.8-.8c0-.66,.8-1.81,.8-1.81,0,0,.8,1.15,.8,1.81Z"/>
        </g>
        <g>
          <path class="cls-7" d="M4.06,13.67c0,.35-.29,.64-.64,.64s-.67-.29-.67-.64c0-.6,.67-1.4,.67-1.4l.05-.02s0,.03,.01,.05c.12,.19,.57,.92,.57,1.38Z"/>
          <path class="cls-8" d="M4.12,13.69c0,.35-.29,.64-.64,.64s-.64-.29-.64-.64c0-.53,.64-1.45,.64-1.45,0,0,.64,.92,.64,1.45Z"/>
        </g>
        <g>
          <path class="cls-7" d="M21.5,11.19c0,.33-.27,.6-.6,.6s-.62-.27-.62-.6c0-.56,.63-1.32,.63-1.32l.05-.02s0,.03,.01,.04c.11,.18,.54,.87,.54,1.3Z"/>
          <path class="cls-8" d="M21.55,11.21c0,.33-.27,.6-.6,.6s-.6-.27-.6-.6c0-.5,.6-1.36,.6-1.36,0,0,.6,.86,.6,1.36Z"/>
        </g>
        <g>
          <path class="cls-7" d="M13.58,19.15c0,.33-.27,.6-.6,.6s-.62-.27-.62-.6c0-.56,.63-1.32,.63-1.32l.05-.02s0,.03,.01,.04c.11,.18,.54,.87,.54,1.3Z"/>
          <path class="cls-8" d="M13.63,19.16c0,.33-.27,.6-.6,.6s-.6-.27-.6-.6c0-.5,.6-1.36,.6-1.36,0,0,.6,.86,.6,1.36Z"/>
        </g>
        <g>
          <path class="cls-7" d="M11.53,15.83c0,.53-.43,.96-.96,.96s-1-.43-1-.96c0-.9,1.01-2.11,1.01-2.11l.07-.04s0,.04,.02,.07c.18,.29,.86,1.39,.86,2.08Z"/>
          <path class="cls-8" d="M11.61,15.85c0,.53-.43,.96-.96,.96s-.96-.43-.96-.96c0-.8,.96-2.17,.96-2.17,0,0,.96,1.38,.96,2.17Z"/>
        </g>
      </g>
    </g>
  </g>
</svg>