<?xml version="1.0" encoding="UTF-8"?>
<svg id="Ebene_2" data-name="Ebene 2" xmlns="http://www.w3.org/2000/svg" xmlns:xlink="http://www.w3.org/1999/xlink" viewBox="0 0 8.87 15.19">
  <defs>
    <style>
      .cls-1 {
        fill: url(#linear-gradient);
      }

      .cls-2 {
        fill: #c4f1ff;
      }

      .cls-3 {
        fill: url(#linear-gradient-3);
      }

      .cls-4 {
        fill: url(#linear-gradient-2);
      }
    </style>
    <linearGradient id="linear-gradient" x1=".46" y1="2.06" x2="4.57" y2="6.17" gradientUnits="userSpaceOnUse">
      <stop offset="0" stop-color="#6bd9ff"/>
      <stop offset="1" stop-color="#3ec9f7"/>
    </linearGradient>
    <linearGradient id="linear-gradient-2" x1=".53" y1="11.91" x2="3.1" y2="14.48" xlink:href="#linear-gradient"/>
    <linearGradient id="linear-gradient-3" x1="5.68" y1="7.64" x2="8.74" y2="10.7" xlink:href="#linear-gradient"/>
  </defs>
  <g id="_ŽÓť_4" data-name="—ŽÓť_4">
    <g>
      <g>
        <path class="cls-2" d="M4.56,5c0,1.24-1,2.24-2.24,2.24S0,6.23,0,5C0,2.9,2.35,.09,2.35,.09l.17-.09s0,.1,.04,.16c.43,.67,2.01,3.23,2.01,4.84Z"/>
        <path class="cls-1" d="M4.76,5.06c0,1.24-1,2.24-2.24,2.24S.27,6.3,.27,5.06C.27,3.2,2.51,0,2.51,0c0,0,2.24,3.2,2.24,5.06Z"/>
      </g>
      <g>
        <path class="cls-2" d="M3.09,13.75c0,.77-.63,1.4-1.4,1.4s-1.45-.63-1.45-1.4c0-1.31,1.47-3.07,1.47-3.07l.11-.06s0,.06,.03,.1c.27,.42,1.25,2.02,1.25,3.02Z"/>
        <path class="cls-4" d="M3.21,13.79c0,.77-.63,1.4-1.4,1.4s-1.4-.63-1.4-1.4c0-1.16,1.4-3.16,1.4-3.16,0,0,1.4,2,1.4,3.16Z"/>
      </g>
      <g>
        <path class="cls-2" d="M8.73,9.83c0,.92-.75,1.67-1.67,1.67s-1.73-.75-1.73-1.67c0-1.56,1.74-3.65,1.74-3.65l.13-.07s0,.07,.03,.12c.32,.49,1.49,2.4,1.49,3.6Z"/>
        <path class="cls-3" d="M8.87,9.88c0,.92-.75,1.67-1.67,1.67s-1.67-.75-1.67-1.67c0-1.38,1.67-3.76,1.67-3.76,0,0,1.67,2.38,1.67,3.76Z"/>
      </g>
    </g>
  </g>
</svg>