<?xml version="1.0" encoding="UTF-8"?>
<svg id="Ebene_2" data-name="Ebene 2" xmlns="http://www.w3.org/2000/svg" xmlns:xlink="http://www.w3.org/1999/xlink" viewBox="0 0 21.67 17.77">
  <defs>
    <style>
      .cls-1 {
        fill: url(#linear-gradient);
      }

      .cls-2 {
        fill: #e9f2f5;
      }

      .cls-3 {
        fill: #ffe3ab;
      }

      .cls-4 {
        fill: #fff;
      }
    </style>
    <linearGradient id="linear-gradient" x1="577.16" y1="-174.71" x2="586.97" y2="-164.91" gradientTransform="translate(-276.76 538.59) rotate(-45)" gradientUnits="userSpaceOnUse">
      <stop offset="0" stop-color="#ffd45c"/>
      <stop offset="1" stop-color="#ff9d00"/>
    </linearGradient>
  </defs>
  <g id="_ŽÓť_4" data-name="—ŽÓť_4">
    <g>
      <g>
        <path class="cls-4" d="M16.74,9.93c-.07,0-.14,0-.2,0-.37-1.04-1.36-1.79-2.53-1.79-.35,0-.68,.07-.99,.19-.36-1-1.32-1.72-2.45-1.72s-2.03,.68-2.42,1.64c-.13-.02-.26-.03-.39-.03-1.18,0-2.16,.9-2.28,2.05-.16-.03-.34-.05-.51-.05-1.43,0-2.58,1.16-2.58,2.58s1.16,2.58,2.58,2.58c.02,0,.04,0,.07,0,.25,1.04,1.19,1.82,2.31,1.82,.87,0,1.63-.46,2.04-1.16,.57,.97,1.62,1.62,2.82,1.62,1.33,0,2.48-.8,2.99-1.94,.45,.26,.98,.41,1.54,.41,1.71,0,3.1-1.39,3.1-3.1s-1.39-3.1-3.1-3.1Z"/>
        <path class="cls-2" d="M16.85,10.04c-.07,0-.14,0-.2,0-.37-1.04-1.36-1.79-2.53-1.79-.35,0-.68,.07-.99,.19-.36-1-1.32-1.72-2.45-1.72s-2.03,.68-2.42,1.64c-.13-.02-.26-.03-.39-.03-1.18,0-2.16,.9-2.28,2.05-.16-.03-.34-.05-.51-.05-1.43,0-2.58,1.16-2.58,2.58s1.16,2.58,2.58,2.58c.02,0,.04,0,.07,0,.25,1.04,1.19,1.82,2.31,1.82,.87,0,1.63-.46,2.04-1.16,.57,.97,1.62,1.62,2.82,1.62,1.33,0,2.48-.8,2.99-1.94,.45,.26,.98,.41,1.54,.41,1.71,0,3.1-1.39,3.1-3.1s-1.39-3.1-3.1-3.1Z"/>
      </g>
      <g>
        <path class="cls-3" d="M19.85,9.76c-2.27,2.27-5.96,2.27-8.23,0-2.27-2.27-2.27-5.96,0-8.23C12.51,.64,13.72,.2,14.88,0c-1.82-.08-3.76,.53-5.15,1.92-2.71,2.71-2.71,7.1,0,9.8,2.71,2.71,7.1,2.71,9.8,0,1.53-1.53,2.3-3.48,2.1-5.47-.17,1.32-.78,2.49-1.79,3.5Z"/>
        <path class="cls-1" d="M19.96,9.87c-2.27,2.27-5.96,2.27-8.23,0-2.27-2.27-2.27-5.96,0-8.23C12.62,.74,13.72,.2,14.88,0c-1.82-.04-3.65,.64-5.04,2.03-2.71,2.71-2.71,7.1,0,9.8,2.71,2.71,7.1,2.71,9.8,0,1.53-1.53,2.19-3.58,2-5.58-.12,1.31-.68,2.6-1.68,3.6Z"/>
      </g>
      <path class="cls-4" d="M10.69,10.36c-.27-.01-.54,.02-.78,.11-.32-1.64-1.72-2.91-3.47-3-1.69-.09-3.17,.96-3.71,2.48h0C1.3,9.87,.08,10.97,0,12.4c-.07,1.43,1.02,2.65,2.45,2.72,.74,.04,1.42-.24,1.91-.71,.5,.29,1.07,.47,1.68,.5,1.1,.06,2.1-.37,2.83-1.08,.37,.48,.94,.8,1.59,.83,1.19,.06,2.2-.85,2.26-2.04,.06-1.19-.85-2.2-2.04-2.26Z"/>
    </g>
  </g>
</svg>