<?xml version="1.0" encoding="UTF-8"?>
<svg id="Ebene_2" data-name="Ebene 2" xmlns="http://www.w3.org/2000/svg" xmlns:xlink="http://www.w3.org/1999/xlink" viewBox="0 0 19.9 18.74">
  <defs>
    <style>
      .cls-1 {
        fill: url(#linear-gradient);
      }

      .cls-2 {
        fill: #e9f2f5;
      }

      .cls-3 {
        fill: #ffe3ab;
      }

      .cls-4 {
        fill: #fff;
      }

      .cls-5 {
        fill: url(#linear-gradient-8);
      }

      .cls-6 {
        fill: url(#linear-gradient-9);
      }

      .cls-7 {
        fill: url(#linear-gradient-3);
      }

      .cls-8 {
        fill: url(#linear-gradient-4);
      }

      .cls-9 {
        fill: url(#linear-gradient-2);
      }

      .cls-10 {
        fill: url(#linear-gradient-6);
      }

      .cls-11 {
        fill: url(#linear-gradient-7);
      }

      .cls-12 {
        fill: url(#linear-gradient-5);
      }

      .cls-13 {
        fill: url(#linear-gradient-14);
      }

      .cls-14 {
        fill: url(#linear-gradient-15);
      }

      .cls-15 {
        fill: url(#linear-gradient-16);
      }

      .cls-16 {
        fill: url(#linear-gradient-17);
      }

      .cls-17 {
        fill: url(#linear-gradient-13);
      }

      .cls-18 {
        fill: url(#linear-gradient-12);
      }

      .cls-19 {
        fill: url(#linear-gradient-10);
      }

      .cls-20 {
        fill: url(#linear-gradient-11);
      }
    </style>
    <linearGradient id="linear-gradient" x1="10.53" y1="1.02" x2="12.41" y2="2.9" gradientUnits="userSpaceOnUse">
      <stop offset="0" stop-color="#ffd45c"/>
      <stop offset="1" stop-color="#ff9d00"/>
    </linearGradient>
    <linearGradient id="linear-gradient-2" x1="10.53" y1="14.13" x2="12.41" y2="16.01" xlink:href="#linear-gradient"/>
    <linearGradient id="linear-gradient-3" x1="2228.39" y1="254.7" x2="2226.51" y2="256.58" gradientTransform="translate(-250.73 2235.97) rotate(-90)" xlink:href="#linear-gradient"/>
    <linearGradient id="linear-gradient-4" x1="2228.39" y1="267.81" x2="2226.51" y2="269.69" gradientTransform="translate(-250.73 2235.97) rotate(-90)" xlink:href="#linear-gradient"/>
    <linearGradient id="linear-gradient-5" x1="2560.62" y1="1416.27" x2="2558.7" y2="1416.27" gradientTransform="translate(815.33 2824.53) rotate(-135)" xlink:href="#linear-gradient"/>
    <linearGradient id="linear-gradient-6" x1="2560.62" y1="1429.37" x2="2558.7" y2="1429.37" gradientTransform="translate(815.33 2824.53) rotate(-135)" xlink:href="#linear-gradient"/>
    <linearGradient id="linear-gradient-7" x1="813.33" y1="2805.71" x2="813.33" y2="2801.96" gradientTransform="translate(2573.8 1420.64) rotate(135)" xlink:href="#linear-gradient"/>
    <linearGradient id="linear-gradient-8" x1="813.33" y1="2818.82" x2="813.33" y2="2815.06" gradientTransform="translate(2573.8 1420.64) rotate(135)" xlink:href="#linear-gradient"/>
    <linearGradient id="linear-gradient-9" x1="16.54" y1="10.04" x2="18.51" y2="12" gradientUnits="userSpaceOnUse">
      <stop offset="0" stop-color="#ffbb31"/>
      <stop offset="1" stop-color="#ff9d00"/>
    </linearGradient>
    <linearGradient id="linear-gradient-10" x1="4.44" y1="5.03" x2="6.4" y2="6.99" xlink:href="#linear-gradient-9"/>
    <linearGradient id="linear-gradient-11" x1="7.98" y1="1.48" x2="9.94" y2="3.44" xlink:href="#linear-gradient-9"/>
    <linearGradient id="linear-gradient-12" x1="13" y1="13.59" x2="14.96" y2="15.55" xlink:href="#linear-gradient-9"/>
    <linearGradient id="linear-gradient-13" x1="4.84" y1="10.44" x2="6" y2="11.6" xlink:href="#linear-gradient-9"/>
    <linearGradient id="linear-gradient-14" x1="16.94" y1="5.43" x2="18.11" y2="6.59" xlink:href="#linear-gradient-9"/>
    <linearGradient id="linear-gradient-15" x1="8.38" y1="13.99" x2="9.54" y2="15.15" xlink:href="#linear-gradient-9"/>
    <linearGradient id="linear-gradient-16" x1="13.4" y1="1.88" x2="14.56" y2="3.04" xlink:href="#linear-gradient-9"/>
    <linearGradient id="linear-gradient-17" x1="7.69" y1="4.74" x2="15.25" y2="12.29" xlink:href="#linear-gradient"/>
  </defs>
  <g id="_ŽÓť_4" data-name="—ŽÓť_4">
    <g>
      <g>
        <g>
          <path class="cls-3" d="M12.34,1.88c0,1.04-.96,1.88-.96,1.88,0,0-.96-.84-.96-1.88s.96-1.88,.96-1.88c0,0,.96,.84,.96,1.88Z"/>
          <path class="cls-3" d="M12.34,14.98c0,1.04-.96,1.88-.96,1.88,0,0-.96-.84-.96-1.88s.96-1.88,.96-1.88c0,0,.96,.84,.96,1.88Z"/>
          <path class="cls-3" d="M4.83,7.47c1.04,0,1.88,.96,1.88,.96,0,0-.84,.96-1.88,.96s-1.88-.96-1.88-.96c0,0,.84-.96,1.88-.96Z"/>
          <path class="cls-3" d="M17.94,7.47c1.04,0,1.88,.96,1.88,.96,0,0-.84,.96-1.88,.96s-1.88-.96-1.88-.96c0,0,.84-.96,1.88-.96Z"/>
          <path class="cls-3" d="M6.07,12.38c.73-.73,2-.65,2-.65,0,0,.08,1.27-.65,2-.73,.73-2,.65-2,.65,0,0-.08-1.27,.65-2Z"/>
          <path class="cls-3" d="M15.34,3.12c.73-.73,2-.65,2-.65,0,0,.08,1.27-.65,2-.73,.73-2,.65-2,.65,0,0-.08-1.27,.65-2Z"/>
          <path class="cls-3" d="M15.34,13.74c-.73-.73-.65-2-.65-2,0,0,1.27-.08,2,.65,.73,.73,.65,2,.65,2,0,0-1.27,.08-2-.65Z"/>
          <path class="cls-3" d="M6.07,4.47c-.73-.73-.65-2-.65-2,0,0,1.27-.09,2,.65,.73,.73,.65,2,.65,2,0,0-1.27,.09-2-.65Z"/>
        </g>
        <g>
          <path class="cls-3" d="M17.14,11.64c-.77-.32-1.09-1.28-1.09-1.28,0,0,.91-.45,1.68-.13,.77,.32,1.09,1.28,1.09,1.28,0,0-.91,.45-1.68,.13Z"/>
          <path class="cls-3" d="M5.04,6.63c-.77-.32-1.09-1.28-1.09-1.28,0,0,.91-.45,1.68-.13,.77,.32,1.09,1.28,1.09,1.28,0,0-.91,.45-1.68,.13Z"/>
          <path class="cls-3" d="M9.58,2.08c.32,.77-.13,1.68-.13,1.68,0,0-.97-.33-1.28-1.09-.32-.77,.13-1.68,.13-1.68,0,0,.97,.33,1.28,1.09Z"/>
          <path class="cls-3" d="M14.6,14.19c.32,.77-.13,1.68-.13,1.68,0,0-.97-.33-1.28-1.09-.32-.77,.13-1.68,.13-1.68,0,0,.97,.33,1.28,1.09Z"/>
          <path class="cls-3" d="M5.04,10.23c.77-.32,1.68,.13,1.68,.13,0,0-.33,.97-1.09,1.28-.77,.32-1.68-.13-1.68-.13,0,0,.33-.97,1.09-1.28Z"/>
          <path class="cls-3" d="M17.14,5.21c.77-.32,1.68,.13,1.68,.13,0,0-.33,.97-1.09,1.28-.77,.32-1.68-.13-1.68-.13,0,0,.33-.97,1.09-1.28Z"/>
          <path class="cls-3" d="M8.17,14.19c.32-.77,1.28-1.09,1.28-1.09,0,0,.45,.91,.13,1.68-.32,.77-1.28,1.09-1.28,1.09,0,0-.45-.91-.13-1.68Z"/>
          <path class="cls-3" d="M13.18,2.08c.32-.77,1.28-1.09,1.28-1.09,0,0,.45,.92,.13,1.68-.32,.77-1.28,1.09-1.28,1.09,0,0-.45-.92-.13-1.68Z"/>
        </g>
        <g>
          <path class="cls-1" d="M12.43,1.96c0,1.04-.96,1.88-.96,1.88,0,0-.96-.84-.96-1.88S11.47,.09,11.47,.09c0,0,.96,.84,.96,1.88Z"/>
          <path class="cls-9" d="M12.43,15.07c0,1.04-.96,1.88-.96,1.88,0,0-.96-.84-.96-1.88s.96-1.88,.96-1.88c0,0,.96,.84,.96,1.88Z"/>
          <path class="cls-7" d="M4.92,7.56c1.04,0,1.88,.96,1.88,.96,0,0-.84,.96-1.88,.96s-1.88-.96-1.88-.96c0,0,.84-.96,1.88-.96Z"/>
          <path class="cls-8" d="M18.02,7.56c1.04,0,1.88,.96,1.88,.96,0,0-.84,.96-1.88,.96s-1.88-.96-1.88-.96c0,0,.84-.96,1.88-.96Z"/>
          <path class="cls-12" d="M6.16,12.47c.73-.73,2-.65,2-.65,0,0,.08,1.27-.65,2-.73,.73-2,.65-2,.65,0,0-.08-1.27,.65-2.01Z"/>
          <path class="cls-10" d="M15.43,3.2c.73-.73,2-.65,2-.65,0,0,.08,1.27-.65,2-.73,.73-2,.65-2,.65,0,0-.08-1.27,.65-2Z"/>
          <path class="cls-11" d="M15.43,13.83c-.73-.73-.65-2-.65-2,0,0,1.27-.08,2,.65,.73,.73,.65,2.01,.65,2.01,0,0-1.27,.08-2-.65Z"/>
          <path class="cls-5" d="M6.16,4.56c-.73-.73-.65-2-.65-2,0,0,1.27-.08,2,.65,.73,.73,.65,2,.65,2,0,0-1.27,.08-2-.65Z"/>
        </g>
        <g>
          <path class="cls-6" d="M17.23,11.73c-.77-.32-1.09-1.28-1.09-1.28,0,0,.91-.45,1.68-.13,.77,.32,1.09,1.28,1.09,1.28,0,0-.91,.45-1.68,.13Z"/>
          <path class="cls-19" d="M5.12,6.72c-.77-.32-1.09-1.28-1.09-1.28,0,0,.91-.45,1.68-.13,.77,.32,1.09,1.28,1.09,1.28,0,0-.91,.45-1.68,.13Z"/>
          <path class="cls-20" d="M9.67,2.17c.32,.77-.13,1.68-.13,1.68,0,0-.97-.33-1.28-1.09-.32-.77,.13-1.68,.13-1.68,0,0,.97,.33,1.28,1.09Z"/>
          <path class="cls-18" d="M14.69,14.28c.32,.77-.13,1.68-.13,1.68,0,0-.97-.33-1.28-1.09-.32-.77,.13-1.68,.13-1.68,0,0,.97,.33,1.28,1.09Z"/>
          <path class="cls-17" d="M5.12,10.31c.77-.32,1.68,.13,1.68,.13,0,0-.33,.97-1.09,1.28-.77,.32-1.68-.13-1.68-.13,0,0,.33-.97,1.09-1.28Z"/>
          <path class="cls-13" d="M17.23,5.3c.77-.32,1.68,.13,1.68,.13,0,0-.33,.97-1.09,1.28-.77,.32-1.68-.13-1.68-.13,0,0,.33-.96,1.09-1.28Z"/>
          <path class="cls-14" d="M8.25,14.28c.32-.77,1.28-1.09,1.28-1.09,0,0,.45,.91,.13,1.68-.32,.77-1.28,1.09-1.28,1.09,0,0-.45-.92-.13-1.68Z"/>
          <path class="cls-15" d="M13.27,2.17c.32-.77,1.28-1.09,1.28-1.09,0,0,.45,.91,.13,1.68-.32,.77-1.28,1.09-1.28,1.09,0,0-.45-.92-.13-1.68Z"/>
        </g>
        <path class="cls-3" d="M16.73,8.43c0,2.95-2.39,5.34-5.34,5.34s-5.34-2.39-5.34-5.34,2.39-5.34,5.34-5.34,5.34,2.39,5.34,5.34Z"/>
        <path class="cls-16" d="M16.81,8.52c0,2.95-2.39,5.34-5.34,5.34s-5.34-2.39-5.34-5.34,2.39-5.34,5.34-5.34,5.34,2.39,5.34,5.34Z"/>
      </g>
      <g>
        <path class="cls-4" d="M16.43,11.86c-.06,0-.12,0-.18,0-.32-.92-1.19-1.57-2.22-1.57-.31,0-.6,.06-.87,.17-.32-.88-1.16-1.51-2.15-1.51s-1.79,.59-2.12,1.44c-.11-.02-.23-.03-.35-.03-1.04,0-1.89,.79-2,1.8-.14-.03-.29-.04-.45-.04-1.25,0-2.27,1.01-2.27,2.27s1.01,2.27,2.27,2.27c.02,0,.04,0,.06,0,.22,.92,1.05,1.6,2.03,1.6,.76,0,1.43-.41,1.79-1.02,.5,.85,1.42,1.42,2.48,1.42,1.17,0,2.17-.7,2.62-1.7,.4,.23,.86,.36,1.35,.36,1.5,0,2.72-1.22,2.72-2.72s-1.22-2.72-2.72-2.72Z"/>
        <path class="cls-2" d="M16.52,11.96c-.06,0-.12,0-.18,0-.32-.92-1.19-1.57-2.22-1.57-.31,0-.6,.06-.87,.16-.32-.88-1.16-1.51-2.15-1.51s-1.79,.6-2.12,1.44c-.11-.02-.23-.03-.35-.03-1.04,0-1.89,.79-2,1.8-.14-.03-.29-.04-.45-.04-1.25,0-2.27,1.01-2.27,2.27s1.01,2.27,2.27,2.27c.02,0,.04,0,.06,0,.22,.92,1.05,1.6,2.03,1.6,.76,0,1.43-.41,1.79-1.02,.5,.85,1.42,1.42,2.48,1.42,1.17,0,2.17-.7,2.62-1.7,.4,.23,.86,.36,1.35,.36,1.5,0,2.72-1.22,2.72-2.72s-1.22-2.72-2.72-2.72Z"/>
      </g>
      <path class="cls-4" d="M10.69,11.29c-.27-.01-.54,.02-.78,.1-.32-1.64-1.72-2.91-3.47-3-1.69-.09-3.17,.96-3.71,2.48h0C1.3,10.8,.08,11.9,0,13.33c-.07,1.43,1.02,2.65,2.45,2.72,.74,.04,1.42-.24,1.91-.71,.5,.29,1.07,.47,1.68,.5,1.1,.06,2.1-.36,2.83-1.08,.37,.48,.94,.8,1.59,.83,1.19,.06,2.2-.85,2.26-2.04,.06-1.19-.85-2.2-2.04-2.26Z"/>
    </g>
  </g>
</svg>