<?xml version="1.0" encoding="UTF-8"?>
<svg id="Ebene_2" data-name="Ebene 2" xmlns="http://www.w3.org/2000/svg" viewBox="0 0 24.79 10.85">
  <defs>
    <style>
      .cls-1 {
        fill: #fff;
      }

      .cls-2 {
        fill: #eef7fa;
      }

      .cls-3 {
        fill: #e4f1f5;
      }
    </style>
  </defs>
  <g id="_ŽÓť_4" data-name="—ŽÓť_4">
    <g>
      <g>
        <path class="cls-1" d="M19.86,6.2c0,.63-.51,1.14-1.14,1.14H1.14c-.63,0-1.14-.51-1.14-1.14H0c0-.63,.51-1.14,1.14-1.14H18.72c.63,0,1.14,.51,1.14,1.14h0Z"/>
        <path class="cls-3" d="M19.99,6.34c0,.63-.51,1.14-1.14,1.14H1.27c-.63,0-1.14-.51-1.14-1.14H.13c0-.63,.51-1.14,1.14-1.14H18.85c.63,0,1.14,.51,1.14,1.14h0Z"/>
      </g>
      <g>
        <path class="cls-1" d="M24.65,4.58c0,.63-.51,1.14-1.14,1.14H5.93c-.63,0-1.14-.51-1.14-1.14h0c0-.63,.51-1.14,1.14-1.14H23.51c.63,0,1.14,.51,1.14,1.14h0Z"/>
        <path class="cls-2" d="M24.79,4.71c0,.63-.51,1.14-1.14,1.14H6.07c-.63,0-1.14-.51-1.14-1.14h0c0-.63,.51-1.14,1.14-1.14H23.65c.63,0,1.14,.51,1.14,1.14h0Z"/>
      </g>
      <g>
        <path class="cls-1" d="M15.88,1.14c0,.63-.51,1.14-1.14,1.14H5.55c-.63,0-1.14-.51-1.14-1.14h0c0-.63,.51-1.14,1.14-1.14H14.74c.63,0,1.14,.51,1.14,1.14h0Z"/>
        <path class="cls-3" d="M16.02,1.27c0,.63-.51,1.14-1.14,1.14H5.69c-.63,0-1.14-.51-1.14-1.14h0c0-.63,.51-1.14,1.14-1.14H14.88c.63,0,1.14,.51,1.14,1.14h0Z"/>
      </g>
      <path class="cls-1" d="M19.9,2.93c0,.63-.51,1.14-1.14,1.14H9.57c-.63,0-1.14-.51-1.14-1.14h0c0-.63,.51-1.14,1.14-1.14h9.19c.63,0,1.14,.51,1.14,1.14h0Z"/>
      <g>
        <path class="cls-1" d="M22.65,9.58c0,.63-.51,1.14-1.14,1.14H9.13c-.63,0-1.14-.51-1.14-1.14h0c0-.63,.51-1.14,1.14-1.14h12.38c.63,0,1.14,.51,1.14,1.14h0Z"/>
        <path class="cls-3" d="M22.79,9.71c0,.63-.51,1.14-1.14,1.14H9.27c-.63,0-1.14-.51-1.14-1.14h0c0-.63,.51-1.14,1.14-1.14h12.38c.63,0,1.14,.51,1.14,1.14h0Z"/>
      </g>
    </g>
  </g>
</svg>