<?xml version="1.0" encoding="UTF-8"?>
<svg id="Ebene_2" data-name="Ebene 2" xmlns="http://www.w3.org/2000/svg" xmlns:xlink="http://www.w3.org/1999/xlink" viewBox="0 0 24.37 16.03">
  <defs>
    <style>
      .cls-1 {
        fill: none;
      }

      .cls-2 {
        clip-path: url(#clippath);
      }

      .cls-3 {
        fill: #0095ff;
      }

      .cls-4 {
        fill: #ffa1a1;
      }

      .cls-5 {
        fill: #fff;
      }

      .cls-6 {
        fill: #ffe194;
      }

      .cls-7 {
        fill: #ffc736;
      }

      .cls-8 {
        fill: #ffcf8c;
      }

      .cls-9 {
        fill: red;
      }

      .cls-10 {
        fill: #eef7fa;
      }

      .cls-11 {
        fill: #e4f1f5;
      }

      .cls-12 {
        fill: #ff7b00;
      }

      .cls-13 {
        fill: #65bf2e;
      }

      .cls-14 {
        fill: #8f37c4;
      }

      .cls-15 {
        fill: #8df54e;
      }

      .cls-16 {
        fill: #c86eff;
      }

      .cls-17 {
        fill: #5ebcff;
      }
    </style>
    <clipPath id="clippath">
      <path class="cls-1" d="M17.45,2.48c-1.51-1.53-3.61-2.48-5.92-2.48C6.94,0,3.21,3.73,3.21,8.32c0,.03,0,.06,0,.09H19.94c0-2.32-.95-4.41-2.48-5.92Z"/>
    </clipPath>
  </defs>
  <g id="_ŽÓť_4" data-name="—ŽÓť_4">
    <g>
      <g class="cls-2">
        <g>
          <path class="cls-16" d="M11.53,0C6.94,0,3.21,3.73,3.21,8.32s3.73,8.32,8.32,8.32,8.32-3.73,8.32-8.32S16.12,0,11.53,0Zm0,15.7c-4.07,0-7.38-3.31-7.38-7.38S7.46,.93,11.53,.93s7.38,3.31,7.38,7.38-3.31,7.38-7.38,7.38Z"/>
          <path class="cls-14" d="M11.62,.09C7.03,.09,3.3,3.82,3.3,8.41s3.73,8.32,8.32,8.32,8.32-3.73,8.32-8.32S16.2,.09,11.62,.09Zm0,15.7c-4.07,0-7.38-3.31-7.38-7.38S7.55,1.02,11.62,1.02s7.38,3.31,7.38,7.38-3.31,7.38-7.38,7.38Z"/>
          <path class="cls-17" d="M11.53,.93c-4.07,0-7.38,3.31-7.38,7.38s3.31,7.38,7.38,7.38,7.38-3.31,7.38-7.38S15.6,.93,11.53,.93Zm0,13.83c-3.56,0-6.45-2.89-6.45-6.45S7.97,1.87,11.53,1.87s6.45,2.89,6.45,6.45-2.89,6.45-6.45,6.45Z"/>
          <path class="cls-3" d="M11.62,1.02c-4.07,0-7.38,3.31-7.38,7.38s3.31,7.38,7.38,7.38,7.38-3.31,7.38-7.38S15.69,1.02,11.62,1.02Zm0,13.83c-3.56,0-6.45-2.89-6.45-6.45S8.06,1.95,11.62,1.95s6.45,2.89,6.45,6.45-2.89,6.45-6.45,6.45Z"/>
          <path class="cls-15" d="M11.53,1.87c-3.56,0-6.45,2.89-6.45,6.45s2.89,6.45,6.45,6.45,6.45-2.89,6.45-6.45S15.09,1.87,11.53,1.87Zm0,11.97c-3.04,0-5.52-2.48-5.52-5.52s2.47-5.52,5.52-5.52,5.52,2.48,5.52,5.52-2.47,5.52-5.52,5.52Z"/>
          <path class="cls-13" d="M11.62,1.95c-3.56,0-6.45,2.89-6.45,6.45s2.89,6.45,6.45,6.45,6.45-2.89,6.45-6.45S15.18,1.95,11.62,1.95Zm0,11.97c-3.04,0-5.52-2.48-5.52-5.52s2.47-5.52,5.52-5.52,5.52,2.48,5.52,5.52-2.48,5.52-5.52,5.52Z"/>
          <path class="cls-6" d="M11.53,2.8c-3.04,0-5.52,2.48-5.52,5.52s2.47,5.52,5.52,5.52,5.52-2.48,5.52-5.52-2.47-5.52-5.52-5.52Zm0,10.1c-2.53,0-4.58-2.06-4.58-4.58s2.06-4.58,4.58-4.58,4.58,2.06,4.58,4.58-2.06,4.58-4.58,4.58Z"/>
          <path class="cls-7" d="M11.62,2.89c-3.04,0-5.52,2.48-5.52,5.52s2.47,5.52,5.52,5.52,5.52-2.48,5.52-5.52-2.48-5.52-5.52-5.52Zm0,10.1c-2.53,0-4.58-2.06-4.58-4.58s2.06-4.58,4.58-4.58,4.58,2.06,4.58,4.58-2.06,4.58-4.58,4.58Z"/>
          <path class="cls-8" d="M11.53,3.73c-2.53,0-4.58,2.06-4.58,4.58s2.06,4.58,4.58,4.58,4.58-2.06,4.58-4.58-2.06-4.58-4.58-4.58Zm0,8.24c-2.01,0-3.65-1.64-3.65-3.65s1.64-3.65,3.65-3.65,3.65,1.64,3.65,3.65-1.64,3.65-3.65,3.65Z"/>
          <path class="cls-12" d="M11.62,3.82c-2.53,0-4.58,2.06-4.58,4.58s2.06,4.58,4.58,4.58,4.58-2.06,4.58-4.58-2.06-4.58-4.58-4.58Zm0,8.24c-2.01,0-3.65-1.64-3.65-3.65s1.64-3.65,3.65-3.65,3.65,1.64,3.65,3.65-1.64,3.65-3.65,3.65Z"/>
          <path class="cls-4" d="M11.53,4.66c-2.01,0-3.65,1.64-3.65,3.65s1.64,3.65,3.65,3.65,3.65-1.64,3.65-3.65-1.64-3.65-3.65-3.65Zm0,6.37c-1.5,0-2.72-1.22-2.72-2.72s1.22-2.72,2.72-2.72,2.72,1.22,2.72,2.72-1.22,2.72-2.72,2.72Z"/>
          <path class="cls-9" d="M11.62,4.75c-2.01,0-3.65,1.64-3.65,3.65s1.64,3.65,3.65,3.65,3.65-1.64,3.65-3.65-1.64-3.65-3.65-3.65Zm0,6.37c-1.5,0-2.72-1.22-2.72-2.72s1.22-2.72,2.72-2.72,2.72,1.22,2.72,2.72-1.22,2.72-2.72,2.72Z"/>
        </g>
      </g>
      <g>
        <path class="cls-5" d="M21.86,8.33c-.05,0-.11,0-.16,0-.29-.82-1.07-1.41-1.99-1.41-.28,0-.54,.05-.78,.15-.29-.79-1.04-1.35-1.93-1.35s-1.6,.54-1.9,1.29c-.1-.02-.2-.03-.31-.03-.93,0-1.7,.71-1.79,1.61-.13-.03-.26-.04-.4-.04-1.12,0-2.03,.91-2.03,2.03s.91,2.03,2.03,2.03c.02,0,.04,0,.05,0,.2,.82,.94,1.43,1.82,1.43,.68,0,1.28-.37,1.61-.91,.45,.76,1.27,1.28,2.22,1.28,1.05,0,1.95-.63,2.35-1.53,.36,.21,.77,.32,1.22,.32,1.35,0,2.44-1.09,2.44-2.44s-1.09-2.44-2.44-2.44Z"/>
        <path class="cls-10" d="M21.93,8.4c-.05,0-.11,0-.16,0-.29-.82-1.07-1.41-1.99-1.41-.27,0-.54,.05-.78,.15-.29-.79-1.04-1.35-1.93-1.35s-1.6,.54-1.9,1.29c-.1-.02-.2-.03-.31-.03-.93,0-1.7,.71-1.79,1.61-.13-.03-.26-.04-.4-.04-1.12,0-2.03,.91-2.03,2.03s.91,2.03,2.03,2.03c.02,0,.04,0,.05,0,.2,.82,.94,1.43,1.82,1.43,.68,0,1.28-.37,1.61-.91,.45,.76,1.27,1.28,2.22,1.28,1.05,0,1.95-.63,2.35-1.53,.36,.21,.77,.32,1.22,.32,1.35,0,2.44-1.09,2.44-2.44s-1.09-2.44-2.44-2.44Z"/>
      </g>
      <g>
        <path class="cls-5" d="M8.62,8.55c-.22-.01-.43,.02-.63,.08-.26-1.32-1.39-2.35-2.79-2.42-1.36-.07-2.56,.78-2.99,2h0C1.05,8.16,.06,9.04,0,10.2c-.06,1.15,.83,2.13,1.98,2.19,.59,.03,1.14-.19,1.54-.57,.4,.23,.86,.38,1.35,.4,.88,.05,1.7-.29,2.28-.87,.3,.38,.76,.64,1.28,.67,.96,.05,1.78-.69,1.83-1.65,.05-.96-.69-1.77-1.64-1.83Z"/>
        <path class="cls-11" d="M8.68,8.65c-.22-.01-.43,.02-.63,.08-.26-1.32-1.39-2.35-2.79-2.42-1.36-.07-2.56,.78-2.99,2h0c-1.15-.06-2.13,.83-2.19,1.98-.06,1.15,.83,2.13,1.98,2.19,.59,.03,1.14-.19,1.54-.57,.4,.23,.86,.38,1.35,.4,.88,.05,1.7-.29,2.28-.87,.3,.38,.76,.64,1.28,.67,.96,.05,1.78-.69,1.83-1.64,.05-.96-.69-1.78-1.65-1.83Z"/>
      </g>
      <path class="cls-5" d="M15.88,9.77c-.09,0-.18,0-.27,.02-.34-1.01-1.29-1.73-2.41-1.73-.52,0-1,.16-1.4,.42-.28-.75-1-1.29-1.85-1.29-.96,0-1.76,.69-1.93,1.6-.27-.2-.61-.32-.97-.32-.83,0-1.52,.63-1.62,1.43,0,0,0,0-.01,0-1.3,0-2.35,1.05-2.35,2.35s1.05,2.35,2.35,2.35c.41,0,.8-.11,1.14-.29,.12,.81,.82,1.44,1.67,1.44,.67,0,1.25-.39,1.52-.96,.52,.76,1.39,1.26,2.38,1.26,1.28,0,2.36-.83,2.73-1.98,.31,.16,.66,.25,1.04,.25,1.25,0,2.26-1.01,2.26-2.26s-1.01-2.26-2.26-2.26Z"/>
    </g>
  </g>
</svg>