<?xml version="1.0" encoding="UTF-8"?>
<svg xmlns="http://www.w3.org/2000/svg" xmlns:xlink="http://www.w3.org/1999/xlink" viewBox="0 0 22.75 20.89">
  <defs>
    <style>
      .cls-1 {
        fill: url(#radial-gradient-2);
      }

      .cls-1, .cls-2, .cls-3, .cls-4, .cls-5, .cls-6 {
        mix-blend-mode: multiply;
      }

      .cls-2 {
        fill: url(#radial-gradient-5);
      }

      .cls-3 {
        fill: url(#radial-gradient-6);
      }

      .cls-4 {
        fill: url(#radial-gradient-3);
      }

      .cls-5 {
        fill: url(#radial-gradient-4);
      }

      .cls-7 {
        fill: #fff;
      }

      .cls-8 {
        fill: #eef7fa;
      }

      .cls-9 {
        fill: #91d5eb;
      }

      .cls-10 {
        fill: #b3edff;
      }

      .cls-11 {
        fill: #9ddef2;
      }

      .cls-12 {
        fill: #bee9f7;
      }

      .cls-13 {
        fill: #c8eefa;
      }

      .cls-14 {
        fill: #e1f0fa;
      }

      .cls-15 {
        fill: #a2def2;
      }

      .cls-16 {
        fill: #61d7ff;
      }

      .cls-6 {
        fill: url(#radial-gradient);
      }

      .cls-17 {
        isolation: isolate;
      }
    </style>
    <radialGradient id="radial-gradient" cx="-54.2" cy="-181.23" fx="-54.2" fy="-181.23" r="2.62" gradientTransform="translate(29.25 203.6) rotate(10.44)" gradientUnits="userSpaceOnUse">
      <stop offset="0" stop-color="#aed5eb"/>
      <stop offset=".19" stop-color="#c0deef"/>
      <stop offset=".69" stop-color="#edf5fa"/>
      <stop offset=".95" stop-color="#fff"/>
    </radialGradient>
    <radialGradient id="radial-gradient-2" cx="-53.31" cy="-182.55" fx="-53.31" fy="-182.55" r="3.22" xlink:href="#radial-gradient"/>
    <radialGradient id="radial-gradient-3" cx="-53.29" cy="-181.42" fx="-53.29" fy="-181.42" r="3.22" xlink:href="#radial-gradient"/>
    <radialGradient id="radial-gradient-4" cx="-57.59" cy="-177.23" fx="-57.59" fy="-177.23" r="1.67" xlink:href="#radial-gradient"/>
    <radialGradient id="radial-gradient-5" cx="-57.03" cy="-178.06" fx="-57.03" fy="-178.06" r="2.05" xlink:href="#radial-gradient"/>
    <radialGradient id="radial-gradient-6" cx="-57.02" cy="-177.35" fx="-57.02" fy="-177.35" r="2.05" xlink:href="#radial-gradient"/>
  </defs>
  <g class="cls-17">
    <g id="Ebene_2" data-name="Ebene 2">
      <g id="_ŽÓť_4" data-name="—ŽÓť_4">
        <g>
          <g>
            <path class="cls-8" d="M20.6,9.49c-.19-.67-.59-1.25-1.14-1.66,.14-.37,.22-.76,.24-1.17,.09-2.1-1.54-3.88-3.64-3.97-1.61-.07-3.02,.87-3.64,2.25-.11-.01-.22-.03-.33-.03-1.33-.06-2.53,.56-3.27,1.55-.21-.08-.43-.13-.67-.14-1.14-.05-2.11,.84-2.16,1.98,0,.19,.01,.37,.05,.55-.42,.07-.77,.32-.99,.67-.35-.47-.89-.78-1.52-.8-.87-.04-1.62,.48-1.93,1.24-.04,0-.08,0-.12-.01C.7,9.9,.04,10.52,0,11.31c-.03,.79,.58,1.46,1.37,1.49,.41,.02,.78-.14,1.05-.4,.28,.17,.6,.27,.94,.29,.31,.69,.99,1.18,1.8,1.22,.84,.04,1.58-.43,1.93-1.13,.24,.11,.5,.17,.77,.19,.09,0,.17,0,.26,0,.48,.65,1.25,1.08,2.12,1.12,.85,.04,1.63-.31,2.17-.89,.33,.63,.98,1.08,1.75,1.11,.81,.03,1.54-.41,1.9-1.08,.4,.21,.85,.33,1.33,.35,1.05,.04,2-.42,2.62-1.17,.14,.05,.3,.09,.46,.09,.83,.04,1.53-.61,1.56-1.44,.04-.83-.6-1.52-1.43-1.56Z"/>
            <path class="cls-9" d="M20.66,9.55c-.19-.67-.59-1.25-1.14-1.66,.14-.37,.22-.76,.24-1.17,.09-2.1-1.54-3.88-3.64-3.96-1.61-.07-3.02,.87-3.64,2.25-.11-.01-.22-.03-.33-.03-1.33-.06-2.53,.56-3.27,1.55-.21-.08-.43-.13-.67-.14-1.14-.05-2.11,.84-2.16,1.98,0,.19,.01,.37,.05,.55-.42,.07-.77,.32-.99,.67-.35-.47-.89-.78-1.52-.8-.87-.04-1.62,.48-1.93,1.24-.04,0-.08,0-.12-.01-.79-.03-1.46,.58-1.49,1.37-.03,.79,.58,1.46,1.37,1.49,.41,.02,.78-.14,1.05-.4,.28,.17,.6,.27,.94,.29,.31,.69,.99,1.18,1.8,1.22,.84,.04,1.58-.43,1.93-1.13,.24,.11,.5,.17,.77,.19,.09,0,.17,0,.26,0,.48,.65,1.25,1.08,2.12,1.12,.85,.04,1.63-.31,2.16-.89,.33,.63,.98,1.08,1.75,1.11,.81,.04,1.54-.41,1.9-1.08,.4,.21,.85,.33,1.33,.35,1.05,.04,2-.42,2.62-1.17,.14,.05,.3,.09,.46,.09,.83,.04,1.53-.61,1.56-1.44,.04-.83-.6-1.52-1.43-1.56Z"/>
          </g>
          <g>
            <path class="cls-6" d="M11.37,16.01c-.26,1.42-1.63,2.37-3.06,2.1-1.43-.26-2.37-1.63-2.11-3.06,.26-1.43,1.63-2.37,3.06-2.11,1.42,.26,2.37,1.63,2.1,3.06Z"/>
            <path class="cls-1" d="M13.06,14.99c-.32,1.75-2,2.91-3.75,2.58-1.75-.32-2.91-2-2.59-3.75,.32-1.75,2-2.91,3.75-2.58,1.75,.32,2.91,2,2.58,3.75Z"/>
            <path class="cls-4" d="M12.87,16.1c-.32,1.75-2,2.9-3.74,2.58-1.75-.32-2.9-2-2.58-3.74,.32-1.75,2-2.9,3.74-2.58,1.75,.32,2.9,2,2.58,3.75Z"/>
            <g>
              <path class="cls-7" d="M10.7,13.4s-.01,0-.02,0l-4.68,2.17s-.06,.01-.09,0c-.03-.01-.05-.03-.07-.06-.02-.05,0-.12,.04-.15,0,0,0,0,.02,0l4.68-2.17c.06-.03,.13,0,.16,.06,.02,.05,0,.12-.04,.15Z"/>
              <path class="cls-7" d="M10.43,13.94s-.01,0-.02,0c-.06,.03-.13,0-.16-.06l-.32-.68c-.02-.05,0-.12,.04-.15,0,0,.01,0,.02,0,.06-.03,.13,0,.16,.06l.32,.68c.02,.05,0,.12-.04,.15Z"/>
              <path class="cls-7" d="M6.61,15.71s-.01,0-.02,0c-.06,.03-.13,0-.16-.06l-.32-.69c-.03-.05,0-.12,.04-.15,0,0,0,0,.02,0,.06-.03,.13,0,.16,.06l.32,.68c.03,.05,0,.12-.04,.15Z"/>
              <path class="cls-7" d="M9.44,16.82s-.01,0-.02,0c-.03,.01-.06,.01-.09,0-.03-.01-.05-.03-.07-.06l-2.17-4.68c-.02-.05,0-.12,.04-.15,0,0,.01,0,.02,0,.03-.01,.06-.02,.09,0,.03,.01,.05,.03,.07,.06l2.17,4.68c.02,.05,0,.12-.04,.15Z"/>
              <path class="cls-7" d="M9.58,16.23s0,0-.02,0l-.68,.32s-.06,.01-.09,0c-.03-.01-.05-.03-.07-.06-.02-.05,0-.12,.04-.15,0,0,.01,0,.02,0l.69-.32s.06-.01,.09,0c.03,.01,.05,.03,.07,.06,.02,.05,0,.12-.04,.15Z"/>
              <path class="cls-7" d="M7.81,12.41s0,0-.02,0l-.68,.32s-.06,.01-.09,0c-.03-.01-.05-.03-.07-.06-.02-.05,0-.12,.04-.15,0,0,.01,0,.02,0l.69-.32s.06-.02,.09,0c.03,.01,.05,.03,.07,.06,.03,.05,0,.12-.04,.15Z"/>
              <path class="cls-7" d="M7.47,16.9s0,0-.02,0c-.03,.01-.06,.02-.09,0-.03-.01-.05-.03-.07-.06-.01-.03-.01-.06,0-.09l1.77-4.84s.02-.04,.05-.06c.03-.02,.07-.03,.11-.01,.03,.01,.05,.03,.07,.06,.01,.03,.02,.06,0,.09l-1.77,4.84s-.02,.04-.05,.06Z"/>
              <path class="cls-7" d="M7.99,16.59s-.01,0-.02,0c-.03,.01-.06,.02-.09,0l-.71-.26s-.05-.03-.07-.06c-.01-.03-.02-.06,0-.09,0-.03,.03-.04,.05-.06,.03-.02,.07-.03,.11-.01l.71,.26s.05,.03,.07,.06,.01,.06,0,.09c0,.02-.03,.04-.05,.06Z"/>
              <path class="cls-7" d="M9.44,12.63s0,0-.02,0c-.03,.01-.06,.01-.09,0l-.71-.26c-.06-.02-.09-.09-.07-.15,0-.02,.02-.04,.05-.06,.03-.02,.07-.03,.11-.01l.71,.26s.05,.03,.07,.06c.01,.03,.01,.06,0,.09,0,.02-.02,.05-.05,.06Z"/>
              <path class="cls-7" d="M10.78,15.37s-.01,0-.02,0c-.03,.01-.06,.01-.09,0l-4.84-1.78s-.05-.03-.07-.06c-.01-.03-.01-.06,0-.09,0-.02,.03-.05,.05-.06,.03-.02,.07-.03,.11-.01l4.84,1.78s.05,.03,.07,.06c.01,.03,.02,.06,0,.09,0,.03-.02,.04-.05,.06Z"/>
              <path class="cls-7" d="M6.25,14.11s-.01,0-.02,0c-.03,.01-.06,.01-.09,0-.03-.01-.05-.03-.07-.06s-.02-.06,0-.09l.26-.71s.03-.04,.05-.06c.03-.02,.07-.03,.11-.01,.03,.01,.05,.03,.07,.06,.01,.03,.02,.06,0,.09l-.26,.71s-.02,.04-.05,.06Z"/>
              <path class="cls-7" d="M10.2,15.56s-.01,0-.02,0c-.03,.01-.06,.02-.09,0-.03-.01-.05-.03-.07-.06-.01-.03-.02-.06,0-.09l.26-.71s.02-.04,.05-.06c.03-.02,.07-.03,.11-.01,.03,.01,.05,.03,.07,.06,.01,.03,.01,.06,0,.09l-.26,.71s-.03,.05-.05,.06Z"/>
              <path class="cls-7" d="M8.95,15.77s0,0-.01,0c-.03,.01-.07,.01-.1,0l-.5-.28-.48,.33s-.07,.02-.1,.01c-.03-.01-.06-.04-.07-.07l-.16-.56-.57-.11s-.06-.03-.08-.06c-.01-.03-.01-.07,0-.1l.28-.5-.32-.48s-.02-.07-.01-.1c0-.02,.02-.04,.04-.05,0,0,.02-.01,.03-.01l.56-.16,.11-.57s.02-.05,.05-.07c0,0,0,0,.01,0,.03-.01,.07-.01,.1,0l.5,.28,.48-.32s.07-.02,.1-.01c.03,.01,.06,.04,.07,.07l.16,.56,.57,.11s.06,.03,.08,.06c.01,.03,.01,.07,0,.1l-.28,.5,.32,.47s.01,.02,.02,.03c.02,.05,0,.11-.04,.13,0,0,0,0-.01,0h0s0,0-.01,0l-.56,.16-.11,.57s-.02,.05-.05,.07Zm-.68-.5s0,0,.01,0c.03-.01,.07-.01,.1,0l.43,.24,.09-.49s.02-.05,.05-.07c0,0,.02-.01,.03-.01l.48-.13-.28-.41s-.02-.08,0-.11l.24-.43-.49-.09s-.07-.04-.08-.08l-.13-.48-.41,.28s-.08,.02-.11,0l-.43-.24-.09,.49s-.02,.05-.05,.07c0,0-.02,.01-.03,.01l-.48,.13,.28,.41s.02,.08,0,.11l-.24,.43,.49,.09s.07,.04,.08,.08l.13,.48,.41-.28h0Z"/>
              <path class="cls-7" d="M9.75,15.75s0,0-.01,0c-.02,0-.04,.01-.06,0l-.78-.09-.43,.66s-.02,.02-.03,.03c-.02,.01-.04,.02-.05,.02-.03,0-.07-.01-.09-.04l-.49-.62-.77,.16s-.07,0-.09-.03c-.03-.02-.04-.06-.03-.09l.09-.78-.66-.43s-.05-.05-.05-.09c0-.04,.01-.07,.04-.09l.62-.49-.16-.77s0-.07,.03-.09c0,0,.01-.01,.02-.02,.02-.01,.05-.02,.07-.02l.78,.09,.43-.66s.02-.02,.03-.03c.02-.01,.04-.02,.06-.02,.03,0,.07,.01,.09,.04l.49,.62,.77-.16s.07,0,.09,.03c.03,.02,.04,.06,.03,.09l-.09,.78,.66,.43s.05,.05,.05,.08c0,.04-.01,.07-.04,.09l-.62,.49,.16,.77s0,.07-.03,.1c0,0-.01,.01-.02,.02Zm-.97-.28s.05-.02,.07-.02l.7,.08-.14-.69s0-.08,.04-.11l.55-.44-.59-.39s-.05-.06-.05-.1l.08-.7-.69,.14s-.08,0-.11-.04l-.43-.55-.39,.59s-.02,.02-.03,.03c-.02,.01-.05,.02-.07,.02l-.7-.08,.14,.69s0,.08-.04,.11l-.55,.44,.59,.39s.05,.06,.05,.1l-.08,.7,.69-.14s.08,0,.11,.04l.44,.55,.39-.59s.02-.02,.03-.03Z"/>
            </g>
            <g>
              <path class="cls-14" d="M10.76,13.4s0,0-.02,0l-4.68,2.17s-.06,.01-.09,0c-.03-.01-.05-.03-.07-.06-.02-.05,0-.12,.04-.15,0,0,.01,0,.02,0l4.68-2.17c.06-.03,.13,0,.16,.06,.02,.05,0,.12-.04,.15Z"/>
              <path class="cls-14" d="M10.49,13.94s-.01,0-.02,0c-.06,.03-.13,0-.16-.06l-.32-.68c-.03-.05,0-.12,.04-.15,0,0,0,0,.02,0,.06-.03,.13,0,.16,.06l.32,.68c.02,.05,0,.12-.04,.15Z"/>
              <path class="cls-14" d="M6.67,15.71s-.01,0-.02,0c-.06,.03-.13,0-.16-.06l-.32-.69c-.02-.05,0-.12,.04-.15,0,0,.01,0,.02,0,.06-.03,.13,0,.16,.06l.32,.68c.03,.05,0,.12-.04,.15Z"/>
              <path class="cls-14" d="M9.5,16.82s-.01,0-.02,0c-.03,.01-.06,.01-.09,0-.03-.01-.05-.03-.07-.06l-2.17-4.68c-.02-.05,0-.12,.04-.15,0,0,.01,0,.02,0,.03-.01,.06-.02,.09,0,.03,.01,.05,.03,.07,.06l2.17,4.68c.02,.05,0,.12-.04,.15Z"/>
              <path class="cls-14" d="M9.64,16.23s-.01,0-.02,0l-.69,.32s-.06,.01-.09,0c-.03-.01-.05-.03-.07-.06-.02-.05,0-.12,.04-.15,0,0,0,0,.02,0l.69-.32s.06-.01,.09,0c.03,.01,.05,.03,.07,.06,.03,.05,0,.12-.04,.15Z"/>
              <path class="cls-14" d="M7.88,12.41s-.01,0-.02,0l-.69,.32s-.06,.01-.09,0c-.03-.01-.05-.03-.07-.06-.02-.05,0-.12,.04-.15,0,0,0,0,.02,0l.68-.32s.06-.02,.09,0c.03,.01,.05,.03,.07,.06,.02,.05,0,.12-.04,.15Z"/>
              <path class="cls-14" d="M7.53,16.9s-.01,0-.02,0c-.03,.01-.06,.02-.09,0-.03-.01-.05-.03-.07-.06-.01-.03-.02-.06,0-.09l1.77-4.84s.02-.04,.05-.06c.03-.02,.07-.03,.11-.01,.03,.01,.05,.03,.07,.06,.01,.03,.02,.06,0,.09l-1.77,4.84s-.03,.04-.05,.06Z"/>
              <path class="cls-14" d="M8.05,16.59s0,0-.02,0c-.03,.01-.06,.02-.09,0l-.71-.26s-.05-.03-.07-.06c-.01-.03-.01-.06,0-.09,0-.03,.03-.04,.05-.06,.03-.02,.07-.03,.11-.01l.71,.26s.05,.03,.07,.06c.01,.03,.02,.06,0,.09,0,.02-.02,.04-.05,.06Z"/>
              <path class="cls-14" d="M9.5,12.63s0,0-.02,0c-.03,.01-.06,.01-.09,0l-.71-.26c-.06-.02-.09-.09-.07-.15,0-.02,.03-.04,.05-.06,.03-.02,.07-.03,.11-.01l.71,.26s.05,.03,.07,.06c.01,.03,.01,.06,0,.09,0,.02-.03,.05-.05,.06Z"/>
              <path class="cls-14" d="M10.84,15.37s0,0-.02,0c-.03,.01-.06,.01-.09,0l-4.84-1.78s-.05-.03-.07-.06c-.01-.03-.01-.06,0-.09,0-.02,.02-.05,.05-.06,.03-.02,.07-.03,.11-.01l4.84,1.78s.05,.03,.07,.06c.01,.03,.01,.06,0,.09,0,.03-.03,.04-.05,.06Z"/>
              <path class="cls-14" d="M6.31,14.11s-.01,0-.02,0c-.03,.01-.06,.01-.09,0-.03-.01-.05-.03-.07-.06-.01-.03-.02-.06,0-.09l.26-.71s.03-.04,.05-.06c.03-.02,.07-.03,.11-.01,.03,.01,.05,.03,.07,.06,.01,.03,.01,.06,0,.09l-.26,.71s-.03,.04-.05,.06Z"/>
              <path class="cls-14" d="M10.26,15.56s-.01,0-.02,0c-.03,.01-.06,.02-.09,0-.03-.01-.05-.03-.07-.06-.01-.03-.02-.06,0-.09l.26-.71s.03-.04,.05-.06c.03-.02,.07-.03,.11-.01,.03,.01,.05,.03,.07,.06,.01,.03,.01,.06,0,.09l-.26,.71s-.03,.05-.05,.06Z"/>
              <path class="cls-14" d="M9.01,15.77s0,0-.01,0c-.03,.01-.07,.01-.1,0l-.5-.28-.48,.33s-.07,.02-.1,.01c-.03-.01-.06-.04-.07-.07l-.16-.56-.57-.11s-.06-.03-.08-.06c-.01-.03-.01-.07,0-.1l.28-.5-.32-.48s-.02-.07-.01-.1c0-.02,.02-.04,.04-.05,0,0,.02-.01,.03-.01l.56-.16,.11-.57s.02-.05,.05-.07c0,0,0,0,.01,0,.03-.01,.07-.01,.1,0l.5,.28,.48-.32s.06-.02,.1-.01c.03,.01,.06,.04,.07,.07l.16,.56,.57,.11s.06,.03,.08,.06c.01,.03,.01,.07,0,.1l-.28,.5,.32,.47s.01,.02,.02,.03c.02,.05,0,.11-.04,.13,0,0,0,0-.01,0h0s0,0-.01,0l-.56,.16-.11,.57s-.02,.05-.05,.07Zm-.68-.5s0,0,.01,0c.03-.01,.07-.01,.1,0l.43,.24,.09-.49s.02-.05,.05-.07c0,0,.02-.01,.03-.01l.48-.13-.28-.41s-.02-.08,0-.11l.24-.43-.49-.09s-.07-.04-.08-.08l-.13-.48-.41,.28s-.08,.02-.11,0l-.43-.24-.09,.49s-.02,.05-.05,.07c0,0-.02,.01-.03,.01l-.48,.13,.28,.41s.02,.08,0,.11l-.24,.43,.49,.09s.07,.04,.08,.08l.13,.48,.41-.28h0Z"/>
              <path class="cls-14" d="M9.81,15.75s0,0-.01,0c-.02,0-.04,.01-.06,0l-.78-.09-.43,.66s-.02,.02-.03,.03c-.02,.01-.04,.02-.06,.02-.03,0-.07-.01-.09-.04l-.49-.62-.77,.16s-.07,0-.1-.03-.04-.06-.03-.09l.09-.78-.66-.43s-.05-.05-.05-.09c0-.04,.01-.07,.04-.09l.62-.49-.16-.77s0-.07,.03-.09c0,0,.01-.01,.02-.02,.02-.01,.05-.02,.07-.02l.78,.09,.43-.66s.02-.02,.03-.03c.02-.01,.04-.02,.05-.02,.03,0,.07,.01,.09,.04l.49,.62,.77-.16s.07,0,.1,.03c.02,.02,.04,.06,.03,.09l-.09,.78,.66,.43s.05,.05,.05,.08c0,.04-.01,.07-.04,.09l-.62,.49,.16,.77s0,.07-.03,.1c0,0-.01,.01-.02,.02Zm-.97-.28s.05-.02,.07-.02l.7,.08-.14-.69s0-.08,.04-.11l.55-.44-.59-.39s-.05-.06-.05-.1l.08-.7-.69,.14s-.08,0-.11-.04l-.43-.55-.39,.59s-.02,.02-.03,.03c-.02,.01-.05,.02-.07,.02l-.7-.08,.14,.69s0,.08-.04,.11l-.55,.44,.59,.39s.05,.06,.05,.1l-.08,.7,.69-.14s.08,0,.11,.04l.44,.55,.39-.59s.02-.02,.03-.03Z"/>
            </g>
          </g>
          <g>
            <path class="cls-5" d="M6.36,19.16c-.17,.91-1.04,1.51-1.94,1.34-.91-.17-1.51-1.04-1.34-1.94,.17-.91,1.04-1.51,1.94-1.34,.91,.17,1.51,1.04,1.34,1.94Z"/>
            <path class="cls-2" d="M7.44,18.51c-.21,1.11-1.27,1.85-2.39,1.64-1.11-.2-1.85-1.27-1.64-2.39,.21-1.11,1.27-1.85,2.39-1.64s1.85,1.27,1.64,2.39Z"/>
            <path class="cls-3" d="M7.32,19.22c-.21,1.11-1.27,1.85-2.38,1.64-1.11-.21-1.85-1.27-1.64-2.38,.2-1.11,1.27-1.85,2.38-1.64,1.11,.2,1.85,1.27,1.64,2.38Z"/>
            <g>
              <path class="cls-7" d="M5.93,17.5s0,0-.01,0l-2.97,1.38s-.04,0-.06,0c-.02,0-.03-.02-.04-.04-.02-.03,0-.08,.03-.1,0,0,0,0,0,0l2.97-1.38s.08,0,.1,.04c.02,.03,0,.08-.03,.1Z"/>
              <path class="cls-7" d="M5.76,17.84s0,0,0,0c-.04,.02-.08,0-.1-.04l-.2-.44s0-.08,.03-.1c0,0,0,0,0,0,.04-.02,.08,0,.1,.04l.2,.44s0,.08-.03,.1Z"/>
              <path class="cls-7" d="M3.33,18.97s0,0-.01,0c-.04,.02-.08,0-.1-.04l-.2-.44s0-.08,.03-.1c0,0,0,0,.01,0,.04-.02,.08,0,.1,.04l.2,.44s0,.08-.03,.1Z"/>
              <path class="cls-7" d="M5.14,19.68s0,0-.01,0c-.02,0-.04,0-.06,0-.02,0-.03-.02-.04-.04l-1.38-2.97s0-.08,.03-.1c0,0,0,0,0,0,.02,0,.04,0,.06,0,.02,0,.03,.02,.04,.04l1.38,2.97s0,.08-.03,.1Z"/>
              <path class="cls-7" d="M5.23,19.3s0,0-.01,0l-.44,.2s-.04,0-.06,0c-.02,0-.03-.02-.04-.04-.02-.03,0-.08,.03-.1,0,0,0,0,0,0l.44-.2s.04,0,.06,0c.02,0,.03,.02,.04,.04,.02,.03,0,.08-.03,.1Z"/>
              <path class="cls-7" d="M4.1,16.87s0,0,0,0l-.44,.2s-.04,0-.06,0c-.02,0-.03-.02-.04-.04-.02-.03,0-.08,.03-.1,0,0,0,0,0,0l.44-.2s.04,0,.06,0c.02,0,.03,.02,.04,.04,.02,.03,0,.08-.03,.1Z"/>
              <path class="cls-7" d="M3.88,19.73s0,0,0,0c-.02,0-.04,0-.06,0-.02,0-.03-.02-.04-.04,0-.02,0-.04,0-.06l1.13-3.08s.02-.03,.03-.04c.02-.01,.05-.02,.07,0,.02,0,.04,.02,.04,.04,0,.02,0,.04,0,.06l-1.13,3.08s-.02,.03-.03,.04Z"/>
              <path class="cls-7" d="M4.21,19.53s0,0,0,0c-.02,0-.04,0-.06,0l-.45-.17s-.03-.02-.04-.04c0-.02,0-.04,0-.06,0-.02,.02-.03,.03-.04,.02-.01,.05-.02,.07,0l.45,.17s.03,.02,.04,.04c0,.02,0,.04,0,.06,0,.01-.02,.03-.03,.04Z"/>
              <path class="cls-7" d="M5.13,17.01s0,0,0,0c-.02,0-.04,0-.06,0l-.45-.17s-.06-.06-.05-.1c0-.01,.02-.03,.03-.04,.02-.01,.05-.02,.07,0l.45,.16s.03,.02,.04,.04c0,.02,0,.04,0,.06,0,.02-.02,.03-.03,.04Z"/>
              <path class="cls-7" d="M5.99,18.75s0,0,0,0c-.02,0-.04,0-.06,0l-3.08-1.13s-.03-.02-.04-.04c0-.02,0-.04,0-.06,0-.01,.02-.03,.03-.04,.02-.01,.04-.02,.07,0l3.08,1.13s.03,.02,.04,.04c0,.02,0,.04,0,.06,0,.02-.02,.03-.03,.04Z"/>
              <path class="cls-7" d="M3.11,17.95s0,0,0,0c-.02,0-.04,0-.06,0-.02,0-.03-.02-.04-.04,0-.02,0-.04,0-.06l.17-.45s.02-.03,.03-.04c.02-.01,.05-.02,.07,0,.02,0,.03,.02,.04,.04,0,.02,0,.04,0,.06l-.17,.45s-.02,.03-.03,.04Z"/>
              <path class="cls-7" d="M5.62,18.88s0,0,0,0c-.02,0-.04,0-.06,0-.02,0-.03-.02-.04-.04,0-.02,0-.04,0-.06l.17-.45s.02-.03,.03-.04c.02-.01,.05-.02,.07,0,.02,0,.03,.02,.04,.04,0,.02,0,.04,0,.06l-.17,.45s-.02,.03-.03,.04Z"/>
              <path class="cls-7" d="M4.83,19.01s0,0,0,0c-.02,0-.04,0-.06,0l-.32-.18-.3,.21s-.04,.02-.06,0-.04-.03-.04-.05l-.1-.35-.36-.07s-.04-.02-.05-.04c0-.02,0-.04,0-.06l.18-.32-.21-.3s-.02-.04,0-.06c0-.01,.01-.03,.03-.03,0,0,.01,0,.02,0l.35-.1,.07-.36s.01-.03,.03-.04c0,0,0,0,0,0,.02,0,.04,0,.06,0l.32,.18,.31-.21s.04-.01,.06,0c.02,0,.04,.02,.04,.04l.1,.36,.36,.07s.04,.02,.05,.04c0,.02,0,.04,0,.06l-.18,.32,.2,.3s0,.01,.01,.02c.01,.03,0,.07-.02,.09,0,0,0,0,0,0h0s0,0,0,0l-.35,.1-.07,.36s-.01,.03-.03,.04Zm-.43-.32s0,0,0,0c.02,0,.04,0,.06,0l.27,.15,.06-.31s.01-.03,.03-.04c0,0,.01,0,.02,0l.3-.09-.18-.26s-.02-.05,0-.07l.15-.28-.31-.06s-.05-.02-.05-.05l-.09-.3-.26,.18s-.05,.02-.07,0l-.27-.16-.06,.31s-.01,.03-.03,.04c0,0-.01,0-.02,0l-.3,.09,.18,.26s.02,.05,0,.07l-.15,.27,.31,.06s.05,.02,.05,.05l.09,.3,.26-.18h0Z"/>
              <path class="cls-7" d="M5.33,19s0,0,0,0c-.01,0-.02,0-.04,0l-.5-.06-.28,.42s-.01,.01-.02,.02c-.01,0-.02,.01-.03,.01-.02,0-.04,0-.06-.03l-.31-.39-.49,.1s-.04,0-.06-.02c-.02-.02-.02-.04-.02-.06l.06-.5-.42-.28s-.03-.03-.03-.05c0-.02,0-.04,.03-.06l.39-.31-.1-.49s0-.04,.02-.06c0,0,0,0,.01-.01,.01,0,.03-.01,.05,0l.5,.06,.28-.42s.01-.01,.02-.02c.01,0,.02-.01,.03-.01,.02,0,.04,0,.06,.03l.31,.39,.49-.1s.04,0,.06,.02c.02,.01,.02,.04,.02,.06l-.06,.5,.42,.28s.03,.03,.03,.05c0,.02,0,.04-.03,.06l-.39,.31,.1,.49s0,.04-.02,.06c0,0,0,0-.01,.01Zm-.61-.18s.03-.01,.05-.01l.44,.05-.09-.44s0-.05,.02-.07l.35-.28-.37-.25s-.03-.04-.03-.07l.05-.44-.44,.09s-.05,0-.07-.02l-.28-.35-.25,.37s-.01,.01-.02,.02c-.01,0-.03,.01-.05,0l-.44-.05,.09,.44s0,.05-.02,.07l-.35,.28,.37,.25s.03,.04,.03,.07l-.05,.44,.44-.09s.05,0,.07,.02l.28,.35,.25-.37s.01-.01,.02-.02Z"/>
            </g>
            <g>
              <path class="cls-14" d="M5.97,17.5s0,0,0,0l-2.97,1.38s-.04,0-.06,0c-.02,0-.03-.02-.04-.04-.02-.03,0-.08,.03-.1,0,0,0,0,0,0l2.97-1.38s.08,0,.1,.04c.02,.03,0,.08-.03,.1Z"/>
              <path class="cls-14" d="M5.8,17.84s0,0,0,0c-.04,.02-.08,0-.1-.04l-.2-.44s0-.08,.03-.1c0,0,0,0,.01,0,.04-.02,.08,0,.1,.04l.2,.44s0,.08-.03,.1Z"/>
              <path class="cls-14" d="M3.37,18.97s0,0-.01,0c-.04,.02-.08,0-.1-.04l-.2-.44s0-.08,.03-.1c0,0,0,0,0,0,.04-.02,.08,0,.1,.04l.2,.44s0,.08-.03,.1Z"/>
              <path class="cls-14" d="M5.17,19.68s0,0-.01,0c-.02,0-.04,0-.06,0-.02,0-.03-.02-.04-.04l-1.38-2.97s0-.08,.03-.1c0,0,0,0,0,0,.02,0,.04,0,.06,0,.02,0,.03,.02,.04,.04l1.38,2.97s0,.08-.03,.1Z"/>
              <path class="cls-14" d="M5.27,19.3s0,0-.01,0l-.44,.2s-.04,0-.06,0c-.02,0-.03-.02-.04-.04-.02-.03,0-.08,.03-.1,0,0,0,0,0,0l.44-.2s.04,0,.06,0c.02,0,.03,.02,.04,.04,.02,.03,0,.08-.03,.1Z"/>
              <path class="cls-14" d="M4.14,16.87s0,0,0,0l-.44,.2s-.04,0-.06,0c-.02,0-.03-.02-.04-.04-.02-.03,0-.08,.03-.1,0,0,0,0,0,0l.44-.2s.04,0,.06,0c.02,0,.03,.02,.04,.04,.02,.03,0,.08-.03,.1Z"/>
              <path class="cls-14" d="M3.92,19.73s0,0,0,0c-.02,0-.04,0-.06,0-.02,0-.03-.02-.04-.04s0-.04,0-.06l1.13-3.08s.02-.03,.03-.04c.02-.01,.05-.02,.07,0,.02,0,.03,.02,.04,.04,0,.02,0,.04,0,.06l-1.13,3.08s-.02,.03-.03,.04Z"/>
              <path class="cls-14" d="M4.25,19.53s0,0,0,0c-.02,0-.04,0-.06,0l-.45-.17s-.03-.02-.04-.04c0-.02,0-.04,0-.06,0-.02,.02-.03,.03-.04,.02-.01,.05-.02,.07,0l.45,.17s.03,.02,.04,.04c0,.02,0,.04,0,.06,0,.01-.02,.03-.03,.04Z"/>
              <path class="cls-14" d="M5.17,17.01s0,0,0,0c-.02,0-.04,0-.06,0l-.45-.17s-.06-.06-.05-.1c0-.01,.02-.03,.03-.04,.02-.01,.05-.02,.07,0l.45,.16s.03,.02,.04,.04c0,.02,0,.04,0,.06,0,.02-.02,.03-.03,.04Z"/>
              <path class="cls-14" d="M6.02,18.75s0,0-.01,0c-.02,0-.04,0-.06,0l-3.08-1.13s-.03-.02-.04-.04c0-.02,0-.04,0-.06,0-.01,.02-.03,.03-.04,.02-.01,.05-.02,.07,0l3.08,1.13s.03,.02,.04,.04c0,.02,0,.04,0,.06,0,.02-.02,.03-.03,.04Z"/>
              <path class="cls-14" d="M3.15,17.95s0,0,0,0c-.02,0-.04,0-.06,0-.02,0-.03-.02-.04-.04,0-.02,0-.04,0-.06l.17-.45s.02-.03,.03-.04c.02-.01,.05-.02,.07,0,.02,0,.03,.02,.04,.04,0,.02,0,.04,0,.06l-.17,.45s-.02,.03-.03,.04Z"/>
              <path class="cls-14" d="M5.66,18.88s0,0,0,0c-.02,0-.04,0-.06,0-.02,0-.03-.02-.04-.04,0-.02,0-.04,0-.06l.17-.45s.02-.03,.03-.04c.02-.01,.04-.02,.07,0,.02,0,.03,.02,.04,.04,0,.02,0,.04,0,.06l-.16,.45s-.02,.03-.03,.04Z"/>
              <path class="cls-14" d="M4.86,19.01s0,0,0,0c-.02,0-.04,0-.06,0l-.32-.18-.31,.21s-.04,.02-.06,0-.04-.03-.04-.05l-.1-.35-.36-.07s-.04-.02-.05-.04c0-.02,0-.04,0-.06l.18-.32-.21-.3s-.02-.04,0-.06c0-.01,.01-.03,.03-.03,0,0,.01,0,.02,0l.35-.1,.07-.36s.01-.03,.03-.04c0,0,0,0,0,0,.02,0,.04,0,.06,0l.32,.18,.31-.21s.04-.01,.06,0c.02,0,.04,.02,.04,.04l.1,.36,.36,.07s.04,.02,.05,.04,0,.04,0,.06l-.18,.32,.2,.3s0,.01,.01,.02c.01,.03,0,.07-.02,.09,0,0,0,0,0,0h0s0,0,0,0l-.35,.1-.07,.36s-.01,.03-.03,.04Zm-.43-.32s0,0,0,0c.02,0,.04,0,.06,0l.27,.15,.06-.31s.01-.03,.03-.04c0,0,.01,0,.02,0l.3-.09-.18-.26s-.02-.05,0-.07l.15-.28-.31-.06s-.05-.02-.05-.05l-.09-.3-.26,.18s-.05,.02-.07,0l-.27-.16-.06,.31s-.01,.03-.03,.04c0,0-.01,0-.02,0l-.3,.09,.18,.26s.02,.05,0,.07l-.15,.27,.31,.06s.05,.02,.05,.05l.08,.3,.26-.18h0Z"/>
              <path class="cls-14" d="M5.37,19s0,0,0,0c-.01,0-.02,0-.04,0l-.5-.06-.28,.42s-.01,.01-.02,.02c-.01,0-.02,.01-.04,.01-.02,0-.04,0-.06-.03l-.31-.39-.49,.1s-.04,0-.06-.02c-.02-.02-.02-.04-.02-.06l.06-.5-.42-.28s-.03-.03-.03-.05c0-.02,0-.04,.03-.06l.39-.31-.1-.49s0-.04,.02-.06c0,0,0,0,.01-.01,.01,0,.03-.01,.05,0l.5,.06,.28-.42s.01-.01,.02-.02c.01,0,.02-.01,.04-.01,.02,0,.04,0,.06,.03l.31,.39,.49-.1s.04,0,.06,.02c.02,.01,.02,.04,.02,.06l-.06,.5,.42,.28s.03,.03,.03,.05c0,.02,0,.04-.03,.06l-.39,.31,.1,.49s0,.04-.02,.06c0,0,0,0-.01,.01Zm-.61-.18s.03-.01,.05-.01l.44,.05-.09-.44s0-.05,.02-.07l.35-.28-.37-.25s-.03-.04-.03-.07l.05-.44-.44,.09s-.05,0-.07-.02l-.28-.35-.25,.37s-.01,.01-.02,.02c-.01,0-.03,.01-.05,0l-.44-.05,.09,.44s0,.05-.03,.07l-.35,.28,.37,.25s.03,.04,.03,.07l-.05,.44,.44-.09s.05,0,.07,.02l.28,.35,.25-.37s.01-.01,.02-.02Z"/>
            </g>
          </g>
          <g>
            <path class="cls-7" d="M14.59,7.37c.1-.35,.15-.72,.15-1.1,0-2.27-1.84-4.11-4.11-4.11-1.92,0-3.54,1.32-3.99,3.1-.04,0-.08,0-.12,0-.9,0-1.69,.46-2.15,1.16-.23-.1-.49-.15-.76-.15-1.1,0-1.99,.89-1.99,1.99s.89,1.99,1.99,1.99c.48,0,.93-.17,1.27-.46,.44,.37,1.01,.59,1.63,.59,.69,0,1.32-.28,1.78-.72,.66,.46,1.46,.72,2.33,.72,.79,0,1.53-.22,2.15-.61,.28,.36,.72,.58,1.21,.58,.86,0,1.55-.69,1.55-1.55,0-.65-.4-1.2-.96-1.43Z"/>
            <path class="cls-11" d="M14.65,7.43c.1-.35,.15-.72,.15-1.1,0-2.27-1.84-4.11-4.11-4.11-1.92,0-3.54,1.32-3.99,3.1-.04,0-.08,0-.12,0-.9,0-1.69,.46-2.15,1.16-.23-.1-.49-.15-.76-.15-1.1,0-1.99,.89-1.99,1.99s.89,1.99,1.99,1.99c.48,0,.93-.17,1.27-.46,.44,.37,1.01,.59,1.63,.59,.69,0,1.32-.28,1.78-.72,.66,.45,1.46,.72,2.33,.72,.79,0,1.53-.22,2.15-.61,.28,.36,.72,.58,1.21,.58,.86,0,1.55-.69,1.55-1.55,0-.65-.4-1.2-.96-1.43Z"/>
          </g>
          <g>
            <path class="cls-7" d="M20.65,6.69s-.09,0-.13,0c-.24-.68-.89-1.17-1.66-1.17-.23,0-.45,.04-.65,.12-.24-.66-.87-1.13-1.6-1.13s-1.33,.45-1.59,1.07c-.08-.01-.17-.02-.26-.02-.78,0-1.41,.59-1.49,1.34-.11-.02-.22-.03-.34-.03-.93,0-1.69,.76-1.69,1.69s.76,1.69,1.69,1.69c.01,0,.03,0,.04,0,.17,.68,.78,1.19,1.52,1.19,.57,0,1.07-.3,1.34-.76,.37,.63,1.06,1.06,1.85,1.06,.87,0,1.62-.52,1.96-1.27,.3,.17,.64,.27,1.01,.27,1.12,0,2.03-.91,2.03-2.03s-.91-2.03-2.03-2.03Z"/>
            <path class="cls-15" d="M20.72,6.76s-.09,0-.13,0c-.24-.68-.89-1.17-1.66-1.17-.23,0-.45,.04-.65,.12-.24-.66-.87-1.13-1.6-1.13s-1.33,.44-1.58,1.07c-.08-.01-.17-.02-.26-.02-.78,0-1.41,.59-1.49,1.34-.11-.02-.22-.03-.34-.03-.94,0-1.69,.76-1.69,1.69s.76,1.69,1.69,1.69c.01,0,.03,0,.04,0,.17,.68,.78,1.19,1.52,1.19,.57,0,1.07-.3,1.34-.76,.37,.64,1.06,1.06,1.85,1.06,.87,0,1.62-.52,1.96-1.27,.3,.17,.64,.27,1.01,.27,1.12,0,2.03-.91,2.03-2.03s-.91-2.03-2.03-2.03Z"/>
          </g>
          <g>
            <path class="cls-7" d="M18.98,2.59c-.09,0-.18,0-.27,.02-.34-1.01-1.29-1.73-2.41-1.73-.52,0-1,.16-1.4,.42-.28-.75-1-1.29-1.85-1.29-.96,0-1.76,.69-1.93,1.6-.27-.2-.61-.32-.97-.32-.83,0-1.52,.62-1.62,1.43,0,0,0,0-.01,0-1.3,0-2.35,1.05-2.35,2.35s1.05,2.35,2.35,2.35c.41,0,.8-.11,1.14-.29,.12,.81,.82,1.44,1.67,1.44,.67,0,1.25-.39,1.52-.96,.52,.76,1.39,1.26,2.38,1.26,1.28,0,2.36-.83,2.73-1.98,.31,.16,.66,.25,1.04,.25,1.25,0,2.26-1.01,2.26-2.26s-1.01-2.26-2.26-2.26Z"/>
            <path class="cls-12" d="M19.05,2.65c-.09,0-.18,0-.27,.02-.34-1.01-1.29-1.73-2.41-1.73-.52,0-1,.15-1.4,.42-.28-.75-1-1.29-1.85-1.29-.96,0-1.76,.69-1.93,1.59-.27-.2-.61-.32-.97-.32-.83,0-1.52,.62-1.62,1.43,0,0,0,0-.01,0-1.3,0-2.35,1.05-2.35,2.35s1.05,2.35,2.35,2.35c.41,0,.8-.11,1.14-.29,.12,.81,.82,1.44,1.67,1.44,.67,0,1.25-.39,1.52-.96,.52,.76,1.39,1.26,2.38,1.26,1.28,0,2.36-.83,2.73-1.98,.31,.16,.66,.25,1.04,.25,1.25,0,2.26-1.01,2.26-2.26s-1.01-2.26-2.26-2.26Z"/>
          </g>
          <g>
            <path class="cls-7" d="M11.66,8.16c-.2-.01-.38,.02-.56,.07-.23-1.17-1.23-2.07-2.47-2.14-1.2-.06-2.26,.69-2.64,1.77h0c-1.02-.05-1.89,.73-1.94,1.75-.05,1.02,.73,1.89,1.75,1.94,.53,.03,1.01-.17,1.36-.5,.35,.21,.76,.33,1.2,.36,.78,.04,1.5-.26,2.01-.77,.26,.34,.67,.57,1.13,.59,.85,.04,1.57-.61,1.61-1.45,.04-.85-.61-1.57-1.45-1.61Z"/>
            <path class="cls-13" d="M11.72,8.23c-.2,0-.38,.02-.56,.07-.23-1.17-1.23-2.07-2.47-2.14-1.2-.06-2.26,.69-2.64,1.77h0c-1.02-.05-1.89,.73-1.94,1.75-.05,1.02,.73,1.89,1.75,1.94,.53,.03,1.01-.17,1.36-.5,.35,.21,.76,.33,1.2,.36,.78,.04,1.5-.26,2.01-.77,.26,.34,.67,.57,1.13,.59,.85,.04,1.57-.61,1.61-1.45,.04-.85-.61-1.57-1.45-1.61Z"/>
          </g>
          <g>
            <g>
              <path class="cls-10" d="M19.44,17.8c0,.44-.36,.8-.8,.8s-.83-.36-.83-.8c0-.75,.84-1.76,.84-1.76l.06-.03s0,.04,.02,.06c.15,.24,.72,1.16,.72,1.73Z"/>
              <path class="cls-16" d="M19.51,17.82c0,.44-.36,.8-.8,.8s-.8-.36-.8-.8c0-.66,.8-1.81,.8-1.81,0,0,.8,1.15,.8,1.81Z"/>
            </g>
            <g>
              <path class="cls-10" d="M22.12,14.91c0,.33-.27,.6-.6,.6s-.62-.27-.62-.6c0-.56,.63-1.32,.63-1.32l.05-.02s0,.03,.01,.04c.11,.18,.54,.87,.54,1.3Z"/>
              <path class="cls-16" d="M22.17,14.93c0,.33-.27,.6-.6,.6s-.6-.27-.6-.6c0-.5,.6-1.36,.6-1.36,0,0,.6,.86,.6,1.36Z"/>
            </g>
            <g>
              <path class="cls-10" d="M16.18,16.25c0,.33-.27,.6-.6,.6s-.62-.27-.62-.6c0-.56,.63-1.32,.63-1.32l.05-.02s0,.03,.01,.04c.11,.18,.54,.87,.54,1.3Z"/>
              <path class="cls-16" d="M16.23,16.26c0,.33-.27,.6-.6,.6s-.6-.27-.6-.6c0-.5,.6-1.36,.6-1.36,0,0,.6,.86,.6,1.36Z"/>
            </g>
            <g>
              <path class="cls-10" d="M13.56,18.36c0,.53-.43,.96-.96,.96s-1-.43-1-.96c0-.9,1.01-2.11,1.01-2.11l.07-.04s0,.04,.02,.07c.18,.29,.86,1.39,.86,2.08Z"/>
              <path class="cls-16" d="M13.64,18.39c0,.53-.43,.96-.96,.96s-.96-.43-.96-.96c0-.79,.96-2.17,.96-2.17,0,0,.96,1.38,.96,2.17Z"/>
            </g>
          </g>
        </g>
      </g>
    </g>
  </g>
</svg>