<?xml version="1.0" encoding="UTF-8"?>
<svg xmlns="http://www.w3.org/2000/svg" xmlns:xlink="http://www.w3.org/1999/xlink" viewBox="0 0 12.34 17.46">
  <defs>
    <linearGradient id="linear-gradient" x1="2.05" y1="9.53" x2="5.59" y2="13.07" gradientUnits="userSpaceOnUse">
      <stop offset="0" stop-color="#076bba"/>
      <stop offset="1" stop-color="#0060ab"/>
    </linearGradient>
    <clipPath id="clippath">
      <path d="M4.28,8.87V1.55c0-.38-.3-.68-.68-.68s-.68,.3-.68,.68v7.32c-1.17,.3-2.05,1.37-2.05,2.64,0,1.5,1.22,2.72,2.73,2.72s2.72-1.22,2.72-2.72c0-1.27-.87-2.33-2.05-2.64Z" fill="none"/>
    </clipPath>
  </defs>
  <g isolation="isolate">
    <g id="Ebene_2" data-name="Ebene 2">
      <g id="_ŽÓť_4" data-name="—ŽÓť_4">
        <g>
          <g mix-blend-mode="multiply">
            <path d="M1.85,11.67C1.78,10.04,2.98,.21,4.56,.21c1.94,0,3.23,4.76,3.61,5.98,.54,1.71,1.57,1.88,2.37,2.76,1.3,1.43,2.67,4.36,1.07,6.6-1.48,2.07-5.17,2.63-8.01,.77-2.55-1.67-1.71-3.71-1.75-4.65Z" fill="#fff" opacity="0"/>
            <path d="M4.56,.3c1.9,0,3.13,4.74,3.52,5.95,.54,1.68,1.56,1.86,2.35,2.73,1.28,1.41,2.61,4.29,1.05,6.49-1.44,2.03-5.05,2.62-7.84,.81-2.52-1.63-1.72-3.64-1.75-4.57C1.81,10.1,3.02,.3,4.56,.3Z" fill="#fbfcfc" opacity=".03"/>
            <path d="M4.56,.39c1.86,0,3.03,4.72,3.43,5.92,.55,1.65,1.55,1.84,2.32,2.7,1.26,1.4,2.55,4.22,1.03,6.38-1.4,1.99-4.93,2.6-7.68,.85-2.49-1.58-1.72-3.58-1.76-4.49C1.84,10.17,3.05,.39,4.56,.39Z" fill="#f7f9fa" opacity=".05"/>
            <path d="M4.56,.47c1.82,0,2.94,4.7,3.35,5.89,.55,1.61,1.54,1.82,2.29,2.67,1.23,1.38,2.49,4.14,1,6.27-1.36,1.95-4.8,2.59-7.51,.89-2.46-1.54-1.73-3.51-1.76-4.41C1.87,10.23,3.09,.47,4.56,.47Z" fill="#f3f6f7" opacity=".08"/>
            <path d="M4.57,.56c1.78,0,2.84,4.68,3.26,5.86,.55,1.58,1.52,1.8,2.26,2.64,1.21,1.36,2.42,4.07,.98,6.16-1.32,1.91-4.68,2.57-7.34,.93-2.43-1.5-1.73-3.45-1.76-4.33-.06-1.52,1.17-11.25,2.6-11.25Z" fill="#eff3f5" opacity=".1"/>
            <path d="M4.57,.65c1.73,0,2.75,4.66,3.17,5.83,.56,1.55,1.51,1.78,2.24,2.6,1.18,1.35,2.36,4,.96,6.05-1.28,1.87-4.56,2.56-7.18,.97-2.4-1.46-1.74-3.39-1.77-4.25-.06-1.49,1.18-11.2,2.58-11.2Z" fill="#ebf0f2" opacity=".13"/>
            <path d="M4.57,.74c1.69,0,2.65,4.64,3.08,5.8,.56,1.52,1.5,1.75,2.21,2.57,1.16,1.33,2.3,3.92,.94,5.94-1.24,1.83-4.44,2.54-7.01,1.01-2.37-1.41-1.74-3.32-1.77-4.17-.06-1.46,1.19-11.15,2.55-11.15Z" fill="#e8edf0" opacity=".15"/>
            <path d="M4.57,.82c1.65,0,2.55,4.62,2.99,5.77,.56,1.48,1.49,1.73,2.18,2.54,1.13,1.32,2.24,3.85,.91,5.83-1.2,1.79-4.32,2.53-6.84,1.05-2.33-1.37-1.75-3.26-1.77-4.09-.05-1.43,1.2-11.1,2.53-11.1Z" fill="#e4eaed" opacity=".18"/>
            <path d="M4.58,.91c1.61,0,2.46,4.59,2.9,5.74,.57,1.45,1.47,1.71,2.16,2.51,1.11,1.3,2.18,3.78,.89,5.72-1.16,1.75-4.2,2.51-6.67,1.09-2.3-1.33-1.75-3.2-1.78-4.01-.05-1.4,1.21-11.04,2.5-11.04Z" fill="#e0e7eb" opacity=".21"/>
            <path d="M4.58,1c1.57,0,2.36,4.57,2.81,5.71,.57,1.42,1.46,1.69,2.13,2.48,1.09,1.28,2.12,3.7,.87,5.61-1.12,1.71-4.08,2.5-6.51,1.13-2.27-1.28-1.76-3.13-1.78-3.93-.05-1.37,1.22-10.99,2.47-10.99Z" fill="#dce4e8" opacity=".23"/>
            <path d="M4.58,1.09c1.53,0,2.26,4.55,2.73,5.68,.57,1.39,1.45,1.67,2.1,2.45,1.06,1.27,2.05,3.63,.85,5.5-1.08,1.67-3.96,2.48-6.34,1.17-2.24-1.24-1.76-3.07-1.79-3.85-.05-1.35,1.23-10.94,2.45-10.94Z" fill="#d8e1e6" opacity=".26"/>
            <path d="M4.58,1.17c1.49,0,2.17,4.53,2.64,5.65,.57,1.36,1.44,1.65,2.07,2.42,1.04,1.25,1.99,3.56,.83,5.39-1.04,1.63-3.84,2.47-6.17,1.21-2.21-1.2-1.76-3.01-1.79-3.77-.04-1.32,1.24-10.89,2.42-10.89Z" fill="#d4dee3" opacity=".28"/>
            <path d="M4.58,1.26c1.45,0,2.07,4.51,2.55,5.62,.57,1.32,1.42,1.62,2.05,2.39,1.01,1.24,1.93,3.48,.8,5.28-1,1.59-3.72,2.46-6.01,1.25s-1.77-2.94-1.79-3.69c-.04-1.29,1.25-10.84,2.4-10.84Z" fill="#d0dbe0" opacity=".31"/>
            <path d="M4.59,1.35c1.41,0,1.97,4.49,2.46,5.59,.57,1.29,1.41,1.6,2.02,2.35,.99,1.22,1.87,3.41,.78,5.17-.96,1.55-3.6,2.44-5.84,1.29s-1.77-2.88-1.8-3.61c-.04-1.26,1.26-10.78,2.37-10.78Z" fill="#ccd8de" opacity=".34"/>
            <path d="M4.59,1.44c1.37,0,1.87,4.47,2.37,5.56,.57,1.26,1.4,1.58,1.99,2.32,.97,1.2,1.81,3.33,.76,5.06-.92,1.51-3.48,2.43-5.67,1.33s-1.78-2.81-1.8-3.53c-.04-1.23,1.27-10.73,2.35-10.73Z" fill="#c8d5db" opacity=".36"/>
            <path d="M4.59,1.52c1.32,0,1.78,4.45,2.28,5.53,.58,1.23,1.39,1.56,1.97,2.29,.94,1.19,1.74,3.26,.74,4.95-.88,1.47-3.36,2.42-5.5,1.37s-1.78-2.75-1.8-3.45c-.03-1.2,1.28-10.68,2.32-10.68Z" fill="#c4d2d9" opacity=".39"/>
            <path d="M4.59,1.61c1.28,0,1.68,4.43,2.2,5.5,.58,1.2,1.37,1.54,1.94,2.26,.92,1.17,1.68,3.19,.72,4.83-.84,1.43-3.24,2.4-5.34,1.41s-1.79-2.69-1.81-3.37c-.03-1.18,1.29-10.63,2.29-10.63Z" fill="#c1cfd6" opacity=".41"/>
            <path d="M4.6,1.7c1.24,0,1.58,4.41,2.11,5.47,.58,1.16,1.36,1.52,1.91,2.23,.89,1.16,1.62,3.11,.69,4.72-.8,1.39-3.12,2.39-5.17,1.44s-1.79-2.62-1.81-3.29c-.03-1.15,1.3-10.58,2.27-10.58Z" fill="#bdccd4" opacity=".44"/>
            <path d="M4.6,1.79c1.2,0,1.48,4.39,2.02,5.44,.58,1.13,1.35,1.49,1.88,2.2,.87,1.14,1.56,3.04,.67,4.61-.76,1.35-3,2.38-5,1.48s-1.8-2.56-1.81-3.21c-.03-1.12,1.31-10.53,2.24-10.53Z" fill="#b9c9d1" opacity=".46"/>
            <path d="M4.6,1.87c1.16,0,1.38,4.37,1.93,5.41,.58,1.1,1.34,1.47,1.86,2.17,.84,1.12,1.49,2.96,.65,4.5-.72,1.31-2.88,2.36-4.84,1.52s-1.8-2.5-1.82-3.13c-.03-1.09,1.32-10.47,2.22-10.47Z" fill="#b5c6cf" opacity=".49"/>
            <path d="M4.6,1.96c1.12,0,1.29,4.35,1.84,5.38s1.32,1.45,1.83,2.13c.82,1.11,1.43,2.89,.63,4.39-.68,1.27-2.76,2.35-4.67,1.56s-1.81-2.43-1.82-3.05c-.02-1.06,1.34-10.42,2.19-10.42Z" fill="#b1c3cc" opacity=".52"/>
            <path d="M4.6,2.05c1.08,0,1.19,4.33,1.75,5.35s1.31,1.43,1.8,2.1c.8,1.09,1.37,2.82,.61,4.28-.64,1.23-2.64,2.34-4.5,1.6s-1.81-2.37-1.82-2.97c-.02-1.03,1.35-10.37,2.16-10.37Z" fill="#adc0c9" opacity=".54"/>
            <path d="M4.61,2.14c1.04,0,1.09,4.31,1.66,5.32s1.3,1.41,1.78,2.07c.77,1.08,1.3,2.74,.58,4.17-.6,1.18-2.52,2.33-4.34,1.64s-1.82-2.31-1.83-2.89c-.02-1.01,1.36-10.32,2.14-10.32Z" fill="#a9bdc7" opacity=".57"/>
            <path d="M4.61,2.23c1,0,.99,4.29,1.58,5.29s1.29,1.39,1.75,2.04c.75,1.06,1.24,2.67,.56,4.06-.56,1.14-2.4,2.32-4.17,1.68-1.85-.66-1.82-2.24-1.83-2.81-.02-.98,1.37-10.27,2.11-10.27Z" fill="#a5bac4" opacity=".59"/>
            <path d="M4.61,2.31c.96,0,.89,4.27,1.49,5.26s1.28,1.37,1.72,2.01c.72,1.04,1.18,2.59,.54,3.95-.52,1.1-2.28,2.31-4,1.72-1.83-.62-1.83-2.18-1.84-2.73-.01-.95,1.38-10.21,2.09-10.21Z" fill="#a1b7c2" opacity=".62"/>
            <path d="M4.61,2.4c.91,0,.79,4.25,1.4,5.23,.57,.92,1.26,1.34,1.69,1.98,.7,1.03,1.11,2.52,.52,3.84-.48,1.06-2.16,2.29-3.83,1.76-1.8-.57-1.83-2.11-1.84-2.65-.01-.92,1.39-10.16,2.06-10.16Z" fill="#9db4bf" opacity=".65"/>
            <path d="M4.61,2.49c.87,0,.69,4.23,1.31,5.2,.57,.88,1.25,1.32,1.67,1.95,.67,1.01,1.05,2.44,.5,3.73-.44,1.02-2.04,2.28-3.67,1.8-1.77-.52-1.84-2.05-1.84-2.57,0-.89,1.4-10.11,2.03-10.11Z" fill="#9ab1bd" opacity=".67"/>
            <path d="M4.62,2.58c.83,0,.59,4.22,1.22,5.17,.57,.85,1.24,1.3,1.64,1.92,.65,1,.99,2.37,.47,3.62-.4,.98-1.92,2.27-3.5,1.84-1.74-.48-1.84-1.99-1.85-2.49,0-.86,1.41-10.06,2.01-10.06Z" fill="#96aeba" opacity=".7"/>
            <path d="M4.62,2.66c.79,0,.49,4.2,1.13,5.15,.56,.82,1.23,1.28,1.61,1.88,.63,.98,.92,2.29,.45,3.51-.36,.94-1.81,2.27-3.33,1.88-1.71-.43-1.85-1.92-1.85-2.41,0-.84,1.42-10.01,1.98-10.01Z" fill="#92abb8" opacity=".72"/>
            <path d="M4.62,2.75c.75,0,.39,4.18,1.05,5.12,.56,.79,1.21,1.26,1.59,1.85,.6,.96,.86,2.22,.43,3.4-.33,.9-1.69,2.26-3.17,1.92-1.68-.38-1.85-1.86-1.85-2.33,0-.81,1.43-9.95,1.96-9.95Z" fill="#8ea8b5" opacity=".75"/>
            <path d="M4.62,2.84c.71,0,.28,4.16,.96,5.09,.56,.77,1.2,1.24,1.56,1.82,.58,.95,.79,2.14,.41,3.29-.29,.86-1.57,2.25-3,1.96-1.65-.33-1.86-1.8-1.86-2.25,0-.78,1.44-9.9,1.93-9.9Z" fill="#8aa5b3" opacity=".77"/>
            <path d="M4.63,2.93c.67,0,.18,4.14,.87,5.06,.55,.74,1.19,1.21,1.53,1.79,.55,.93,.73,2.07,.39,3.18-.25,.81-1.45,2.24-2.83,2-1.62-.28-1.86-1.73-1.86-2.17,0-.75,1.45-9.85,1.91-9.85Z" fill="#86a2b0" opacity=".8"/>
          </g>
          <path d="M3.6,10.87c-.37,0-.68-.3-.68-.68V1.55c0-.38,.3-.68,.68-.68s.68,.3,.68,.68V10.19c0,.37-.3,.68-.68,.68Z" fill="#bee9f7"/>
          <path d="M4.28,8.87v-1.39h-1.36v1.39c-1.17,.3-2.05,1.37-2.05,2.64,0,1.5,1.22,2.72,2.73,2.72s2.72-1.22,2.72-2.72c0-1.27-.87-2.33-2.05-2.64Z" fill="url(#linear-gradient)"/>
          <g clip-path="url(#clippath)">
            <g mix-blend-mode="multiply">
              <path d="M3.5,11.51c-.38,.85-.13,1.94,0,2.54,.3,1.36-1.7,1.33-2.47,.9-2.66-1.49-2.1-4.62-1.55-5.43,.59-.89,1.32-1.35,1.97-2.28,.31-.45,.49-2.91,.55-4.79,.02-.73-.24-1.28,.72-2.37,.48-.55,2.56-.27,1.92,.8-.55,.93-.32,1.69-.36,2.54-.06,1.25,.28,4.96-.07,6.08-.28,.9-.44,1.4-.71,2Z" fill="#fff" opacity="0"/>
              <path d="M3.39,11.45c-.39,.86-.14,1.96,0,2.54,.31,1.33-1.64,1.28-2.38,.86-2.53-1.44-2.02-4.47-1.49-5.28,.58-.88,1.34-1.37,1.96-2.28,.31-.46,.48-2.98,.54-4.84,.02-.73-.22-1.29,.7-2.34,.49-.55,2.49-.27,1.86,.76-.53,.89-.33,1.64-.37,2.49-.05,1.28,.27,5.02-.07,6.11-.28,.88-.47,1.35-.76,1.98Z" fill="#f9fbfb" opacity=".05"/>
              <path d="M3.29,11.4c-.4,.86-.14,1.97,0,2.54,.32,1.3-1.58,1.23-2.29,.82-2.41-1.4-1.94-4.32-1.42-5.12,.56-.87,1.36-1.38,1.95-2.28,.31-.46,.47-3.05,.52-4.9,.02-.73-.2-1.29,.68-2.3,.49-.56,2.41-.27,1.8,.72-.52,.85-.33,1.59-.37,2.44-.05,1.3,.27,5.08-.07,6.13-.28,.85-.51,1.3-.81,1.95Z" fill="#f4f6f8" opacity=".1"/>
              <path d="M3.18,11.34c-.41,.86-.14,1.99,0,2.54,.32,1.27-1.51,1.19-2.2,.78-2.29-1.36-1.86-4.17-1.36-4.97,.55-.86,1.38-1.4,1.95-2.27,.31-.47,.45-3.11,.51-4.95,.02-.72-.18-1.3,.66-2.26,.49-.56,2.34-.28,1.74,.69-.51,.82-.34,1.54-.37,2.38-.05,1.33,.26,5.14-.07,6.15-.27,.83-.54,1.24-.86,1.92Z" fill="#eef2f4" opacity=".14"/>
              <path d="M3.08,11.29c-.42,.87-.15,2.01,0,2.54,.33,1.24-1.45,1.14-2.11,.74-2.16-1.31-1.78-4.02-1.29-4.82,.53-.85,1.39-1.41,1.94-2.27,.3-.48,.44-3.18,.49-5.01,.02-.72-.17-1.3,.65-2.22,.49-.56,2.26-.28,1.68,.65-.49,.78-.34,1.49-.37,2.33-.05,1.36,.26,5.2-.07,6.17-.27,.8-.57,1.19-.91,1.89Z" fill="#e9edf1" opacity=".19"/>
              <path d="M2.97,11.23c-.42,.87-.15,2.02,0,2.54,.34,1.21-1.39,1.09-2.02,.7-2.04-1.27-1.71-3.88-1.23-4.66,.52-.85,1.41-1.43,1.93-2.27,.3-.49,.43-3.25,.48-5.06,.02-.72-.15-1.3,.63-2.19,.49-.56,2.19-.28,1.62,.61-.47,.74-.35,1.44-.37,2.27-.04,1.38,.25,5.26-.07,6.19-.26,.77-.61,1.14-.96,1.86Z" fill="#e3e9ed" opacity=".24"/>
              <path d="M2.87,11.18c-.43,.88-.16,2.04,0,2.54,.35,1.18-1.32,1.05-1.93,.66-1.92-1.22-1.63-3.73-1.16-4.51,.5-.84,1.43-1.44,1.92-2.26,.3-.5,.41-3.31,.46-5.12,.02-.72-.13-1.31,.61-2.15,.49-.57,2.12-.28,1.56,.57-.46,.7-.35,1.39-.38,2.22-.04,1.41,.24,5.32-.07,6.21-.26,.75-.64,1.09-1.01,1.83Z" fill="#dee5ea" opacity=".29"/>
              <path d="M2.76,11.12c-.44,.88-.16,2.05,0,2.54,.36,1.15-1.26,1-1.84,.62-1.8-1.17-1.55-3.58-1.1-4.36,.49-.83,1.45-1.46,1.91-2.26,.29-.5,.4-3.38,.45-5.17,.02-.72-.11-1.31,.59-2.11,.49-.57,2.04-.28,1.5,.53-.44,.66-.36,1.34-.38,2.16-.03,1.44,.24,5.38-.06,6.23-.26,.72-.67,1.03-1.06,1.8Z" fill="#d8e0e6" opacity=".33"/>
              <path d="M2.65,11.07c-.45,.88-.16,2.07-.01,2.54,.37,1.12-1.2,.96-1.75,.58-1.67-1.13-1.47-3.43-1.03-4.2,.47-.82,1.46-1.48,1.91-2.25,.29-.51,.39-3.44,.43-5.23,.02-.71-.09-1.31,.57-2.07,.5-.57,1.97-.28,1.44,.5-.43,.62-.36,1.29-.38,2.11-.03,1.46,.23,5.44-.06,6.26-.25,.7-.7,.98-1.11,1.78Z" fill="#d3dce3" opacity=".38"/>
              <path d="M2.55,11.01c-.45,.89-.17,2.09-.01,2.54,.37,1.09-1.13,.91-1.66,.54-1.55-1.08-1.39-3.29-.96-4.05,.46-.81,1.48-1.49,1.9-2.25,.29-.52,.38-3.51,.42-5.28,.02-.71-.07-1.32,.55-2.04,.5-.57,1.9-.29,1.37,.46-.41,.59-.37,1.24-.38,2.05-.03,1.49,.22,5.5-.06,6.28-.25,.67-.74,.93-1.16,1.75Z" fill="#cdd8df" opacity=".43"/>
              <path d="M2.44,10.96c-.46,.89-.17,2.1-.01,2.54,.38,1.06-1.07,.87-1.57,.5C-.58,12.98-.46,10.87-.04,10.11c.45-.81,1.49-1.51,1.89-2.25,.28-.53,.36-3.58,.4-5.34,.01-.71-.05-1.32,.54-2,.5-.58,1.82-.29,1.31,.42-.39,.55-.37,1.19-.39,2-.02,1.52,.22,5.56-.06,6.3-.24,.65-.77,.88-1.21,1.72Z" fill="#c8d3dc" opacity=".48"/>
              <path d="M2.34,10.91c-.47,.9-.18,2.12-.01,2.54,.39,1.03-1.01,.82-1.49,.46C-.47,12.93-.4,10.92,0,10.17c.43-.8,1.51-1.53,1.88-2.24,.28-.54,.35-3.64,.39-5.39,.01-.71-.03-1.32,.52-1.96,.5-.58,1.75-.29,1.25,.38-.38,.51-.38,1.14-.39,1.94-.02,1.54,.21,5.62-.06,6.32-.24,.62-.8,.82-1.26,1.69Z" fill="#c2cfd8" opacity=".52"/>
              <path d="M2.23,10.85c-.48,.9-.18,2.13-.02,2.54,.4,1-.94,.78-1.4,.43C-.37,12.89-.34,10.97,.05,10.23c.42-.79,1.53-1.54,1.88-2.24,.28-.55,.34-3.71,.37-5.45,.01-.7-.02-1.33,.5-1.93s1.68-.29,1.19,.35c-.36,.47-.38,1.09-.39,1.89-.02,1.57,.2,5.68-.06,6.34-.24,.6-.83,.77-1.31,1.66Z" fill="#bdcad5" opacity=".57"/>
              <path d="M2.13,10.8c-.48,.9-.18,2.15-.02,2.54,.41,.97-.88,.73-1.31,.39-1.07-.87-1.08-2.69-.7-3.43,.4-.78,1.54-1.56,1.87-2.24,.27-.56,.32-3.78,.36-5.5,.01-.7,0-1.33,.48-1.89,.5-.58,1.61-.29,1.13,.31-.34,.43-.39,1.04-.39,1.83-.01,1.6,.2,5.74-.06,6.36-.23,.57-.87,.72-1.36,1.63Z" fill="#b7c6d1" opacity=".62"/>
              <path d="M2.02,10.74c-.49,.91-.19,2.16-.02,2.54,.42,.94-.82,.69-1.22,.35-.95-.82-1-2.55-.64-3.28,.39-.77,1.55-1.58,1.86-2.23,.27-.57,.31-3.84,.34-5.56,.01-.7,.02-1.34,.46-1.85,.5-.59,1.53-.29,1.07,.27-.33,.4-.39,.99-.4,1.78,0,1.62,.19,5.8-.06,6.38-.23,.54-.9,.67-1.41,1.61Z" fill="#b2c2ce" opacity=".67"/>
              <path d="M1.92,10.69c-.5,.91-.19,2.18-.02,2.54,.43,.91-.75,.65-1.13,.31-.84-.76-.93-2.4-.57-3.13,.37-.77,1.57-1.6,1.85-2.23,.26-.58,.3-3.91,.32-5.61,.01-.7,.04-1.34,.44-1.81,.51-.59,1.46-.29,1.01,.23-.31,.36-.4,.94-.4,1.72,0,1.65,.18,5.86-.06,6.41s-.93,.61-1.46,1.58Z" fill="#acbdca" opacity=".71"/>
              <path d="M1.81,10.63c-.51,.92-.19,2.2-.02,2.54,.44,.88-.69,.6-1.04,.27C.03,12.74-.1,11.19,.24,10.46c.36-.76,1.58-1.62,1.84-2.23s.29-3.97,.31-5.67c0-.7,.06-1.34,.43-1.78,.51-.59,1.39-.29,.95,.19-.29,.32-.4,.9-.4,1.67,0,1.68,.17,5.92-.06,6.43s-.96,.56-1.51,1.55Z" fill="#a7b9c7" opacity=".76"/>
              <path d="M1.7,10.58c-.51,.92-.2,2.21-.02,2.54,.45,.84-.63,.56-.95,.23-.61-.64-.77-2.1-.44-2.82,.34-.75,1.59-1.63,1.84-2.22s.27-4.04,.29-5.72c0-.69,.08-1.35,.41-1.74,.51-.59,1.32-.29,.89,.16-.27,.29-.41,.85-.4,1.61,0,1.71,.17,5.98-.05,6.45s-.99,.51-1.56,1.52Z" fill="#a1b5c3" opacity=".81"/>
              <path d="M1.6,10.52c-.52,.93-.2,2.23-.02,2.54,.46,.81-.57,.52-.86,.19-.5-.57-.69-1.96-.38-2.67,.33-.74,1.6-1.65,1.83-2.22,.24-.61,.26-4.11,.28-5.78,0-.69,.09-1.35,.39-1.7,.51-.6,1.25-.29,.83,.12-.26,.25-.41,.8-.4,1.56,.02,1.73,.16,6.04-.05,6.47s-1.03,.46-1.61,1.49Z" fill="#9cb0c0" opacity=".86"/>
              <path d="M1.49,10.47c-.53,.93-.2,2.24-.02,2.54,.47,.78-.51,.48-.77,.15-.39-.5-.61-1.81-.31-2.51,.31-.73,1.62-1.67,1.82-2.21,.23-.62,.25-4.17,.26-5.83,0-.69,.11-1.36,.37-1.66,.51-.6,1.18-.29,.77,.08-.24,.21-.41,.75-.41,1.5,.02,1.76,.15,6.1-.05,6.49-.21,.42-1.06,.41-1.66,1.46Z" fill="#96acbc" opacity=".9"/>
              <path d="M1.39,10.41c-.53,.94-.2,2.26-.03,2.54,.48,.75-.46,.45-.68,.11-.29-.44-.54-1.66-.25-2.36,.3-.73,1.63-1.69,1.81-2.21,.22-.63,.23-4.24,.25-5.89,0-.69,.13-1.36,.35-1.63,.51-.6,1.11-.29,.7,.04-.22,.18-.42,.7-.41,1.45,.02,1.79,.14,6.16-.05,6.51-.21,.39-1.09,.35-1.71,1.43Z" fill="#91a7b9" opacity=".95"/>
              <path d="M1.28,10.36c-.54,.94-.21,2.27-.03,2.54,.49,.72-.41,.41-.59,.07-.19-.37-.46-1.51-.18-2.21,.28-.72,1.64-1.71,1.81-2.21,.21-.64,.22-4.31,.23-5.94,0-.68,.15-1.37,.34-1.59,.51-.61,1.05-.28,.64,0-.2,.14-.42,.65-.41,1.39,.03,1.81,.13,6.22-.05,6.53-.21,.36-1.12,.3-1.75,1.41Z" fill="#8ba3b5"/>
            </g>
          </g>
          <path d="M5.01,8.23V1.48c0-.82-.66-1.48-1.48-1.48s-1.48,.66-1.48,1.48v6.75c-1.21,.56-2.05,1.78-2.05,3.2,0,1.95,1.58,3.53,3.53,3.53s3.53-1.58,3.53-3.53c0-1.42-.84-2.64-2.05-3.2Zm-1.48,5.93c-1.5,0-2.72-1.22-2.72-2.72,0-1.27,.87-2.33,2.05-2.64V1.48c0-.37,.3-.68,.68-.68s.68,.3,.68,.68v7.32c1.17,.3,2.05,1.37,2.05,2.64,0,1.5-1.22,2.72-2.72,2.72Z" fill="#fff"/>
          <path d="M5.08,8.31V1.55C5.08,.74,4.42,.07,3.6,.07s-1.48,.66-1.48,1.48v6.75C.91,8.87,.07,10.09,.07,11.51c0,1.95,1.58,3.53,3.53,3.53s3.53-1.58,3.53-3.53c0-1.42-.84-2.64-2.05-3.2Zm-1.48,5.93c-1.5,0-2.73-1.22-2.73-2.72,0-1.27,.87-2.33,2.05-2.64V1.55c0-.38,.3-.68,.68-.68s.68,.3,.68,.68v7.32c1.17,.3,2.05,1.37,2.05,2.64,0,1.5-1.22,2.72-2.72,2.72Z" fill="#e4f1f5"/>
          <g>
            <rect x="4.42" y="3.51" width=".66" height=".41" fill="#0a4d80"/>
            <rect x="4.42" y="2.18" width=".66" height=".41" fill="#0a4d80"/>
            <rect x="4.42" y="4.84" width=".66" height=".41" fill="#0a4d80"/>
            <rect x="4.42" y="6.17" width=".66" height=".41" fill="#0a4d80"/>
            <rect x="4.42" y="7.5" width=".66" height=".41" fill="#0a4d80"/>
          </g>
        </g>
      </g>
    </g>
  </g>
</svg>