<?xml version="1.0" encoding="UTF-8"?>
<svg xmlns="http://www.w3.org/2000/svg" viewBox="0 0 56.13 18.81">
  <defs>
    <style>
      .cls-1 {
        fill: #f9fbfb;
        opacity: .05;
      }

      .cls-2 {
        fill: #f4f6f8;
        opacity: .1;
      }

      .cls-3 {
        fill: #e9f2f5;
      }

      .cls-4, .cls-5 {
        fill: #fff;
      }

      .cls-6 {
        fill: #eef7fa;
      }

      .cls-7 {
        fill: #e4f1f5;
      }

      .cls-8 {
        fill: #8ba3b5;
      }

      .cls-9 {
        mix-blend-mode: multiply;
      }

      .cls-10 {
        fill: #eef2f4;
        opacity: .14;
      }

      .cls-11 {
        fill: #e9edf1;
        opacity: .19;
      }

      .cls-5 {
        opacity: 0;
      }

      .cls-12 {
        isolation: isolate;
      }

      .cls-13 {
        fill: #bdcad5;
        opacity: .57;
      }

      .cls-14 {
        fill: #b7c6d1;
        opacity: .62;
      }

      .cls-15 {
        fill: #c2cfd8;
        opacity: .52;
      }

      .cls-16 {
        fill: #c8d3dc;
        opacity: .48;
      }

      .cls-17 {
        fill: #96acbc;
        opacity: .9;
      }

      .cls-18 {
        fill: #9cb0c0;
        opacity: .86;
      }

      .cls-19 {
        fill: #a7b9c7;
        opacity: .76;
      }

      .cls-20 {
        fill: #a1b5c3;
        opacity: .81;
      }

      .cls-21 {
        fill: #acbdca;
        opacity: .71;
      }

      .cls-22 {
        fill: #d8e0e6;
        opacity: .33;
      }

      .cls-23 {
        fill: #dee5ea;
        opacity: .29;
      }

      .cls-24 {
        fill: #e3e9ed;
        opacity: .24;
      }

      .cls-25 {
        fill: #cdd8df;
        opacity: .43;
      }

      .cls-26 {
        fill: #d3dce3;
        opacity: .38;
      }

      .cls-27 {
        fill: #b2c2ce;
        opacity: .67;
      }

      .cls-28 {
        fill: #91a7b9;
        opacity: .95;
      }
    </style>
  </defs>
  <g class="cls-12">
    <g id="Ebene_2" data-name="Ebene 2">
      <g id="Paper-Icons">
        <g>
          <g>
            <g class="cls-9">
              <path class="cls-5" d="M54.36,14.13c2.12-2.13,2.02-3.83,1.31-5.66-.53-1.38-.78-2.29-1.67-3.56-.8-1.14-2.49-2.6-5.02-2.96-2.45-.35-8.27,3.65-10.27,4.19-2.16,.58-4.8,2.1-7.58,3.23-1.42,.57-3.52,2.39-3.55,3.35-.06,1.57,.46,2.21,1.15,2.84s2.13,1.72,2.99,2.13c.81,.39,2.93,.96,3.64,1.04,1.56,.17,2.13-.31,3.37-.18,1.62,.17,2.16,.29,2.9,.27,.68-.02,1.23-.16,1.6-.18,.54-.02,1.35,.05,2.01-.09,1.71-.36,1.98-.23,2.86-.5,1.87-.58,4.51-2.16,6.25-3.91Z"/>
              <path class="cls-1" d="M54.12,14.05c2.06-2.04,1.96-3.72,1.26-5.49-.54-1.35-.81-2.23-1.69-3.46-.79-1.11-2.39-2.55-4.91-2.96-2.42-.39-8.09,3.56-10.07,4.1-2.15,.58-4.69,2.1-7.41,3.2-1.39,.56-3.63,2.28-3.65,3.27-.03,1.51,.5,2.12,1.19,2.73,.7,.62,2.1,1.7,2.95,2.08s2.85,.87,3.58,.95c1.54,.16,2.11-.24,3.35-.12,1.61,.17,2.12,.26,2.86,.24,.66-.02,1.2-.14,1.6-.15,.57-.02,1.37,.02,2.02-.12,1.67-.34,1.93-.21,2.83-.49,1.84-.58,4.36-2.09,6.07-3.77Z"/>
              <path class="cls-2" d="M53.88,13.97c2.01-1.94,1.92-3.6,1.21-5.32-.54-1.32-.84-2.17-1.7-3.37-.78-1.09-2.29-2.51-4.79-2.97s-7.9,3.47-9.87,4.01c-2.13,.58-4.59,2.09-7.24,3.16-1.36,.55-3.74,2.17-3.75,3.18,0,1.46,.53,2.03,1.23,2.63,.71,.61,2.07,1.68,2.92,2.03s2.77,.78,3.51,.86c1.53,.15,2.1-.18,3.33-.06,1.61,.16,2.09,.22,2.82,.21,.65-.01,1.17-.11,1.6-.13,.6-.02,1.38-.01,2.03-.14,1.62-.33,1.89-.19,2.8-.48,1.81-.58,4.22-2.02,5.89-3.63Z"/>
              <path class="cls-10" d="M53.63,13.89c1.95-1.85,1.87-3.49,1.17-5.15-.54-1.29-.88-2.11-1.72-3.27-.77-1.06-2.18-2.47-4.67-2.97s-7.72,3.39-9.67,3.92c-2.12,.58-4.48,2.09-7.07,3.13-1.33,.54-3.86,2.07-3.84,3.1,.02,1.41,.57,1.94,1.27,2.53s2.04,1.66,2.88,1.98c.89,.35,2.69,.69,3.45,.77,1.51,.14,2.08-.11,3.3,0,1.6,.15,2.05,.19,2.78,.18,.63,0,1.14-.09,1.6-.1,.64-.02,1.4-.04,2.03-.17,1.58-.32,1.84-.16,2.77-.47,1.78-.58,4.08-1.95,5.71-3.49Z"/>
              <path class="cls-11" d="M53.39,13.81c1.9-1.75,1.82-3.37,1.12-4.98-.55-1.26-.91-2.05-1.73-3.18-.76-1.04-2.08-2.43-4.55-2.98-2.34-.52-7.54,3.3-9.47,3.83-2.1,.58-4.37,2.08-6.9,3.1-1.3,.52-3.97,1.96-3.94,3.01,.04,1.35,.61,1.85,1.31,2.43s2.02,1.63,2.84,1.94c.91,.33,2.62,.61,3.39,.68,1.49,.14,2.06-.04,3.28,.07,1.59,.14,2.01,.16,2.74,.15,.62,0,1.12-.06,1.6-.07,.67-.01,1.42-.07,2.04-.2,1.54-.31,1.8-.14,2.75-.45,1.75-.57,3.93-1.88,5.53-3.35Z"/>
              <path class="cls-24" d="M53.15,13.73c1.84-1.66,1.77-3.26,1.07-4.81-.55-1.23-.94-1.99-1.75-3.09-.75-1.01-1.98-2.39-4.43-2.98-2.31-.56-7.36,3.21-9.27,3.74-2.09,.58-4.26,2.07-6.73,3.07-1.27,.51-4.09,1.85-4.04,2.93,.06,1.3,.65,1.77,1.34,2.33s1.99,1.61,2.8,1.89c.94,.32,2.54,.52,3.33,.59,1.48,.13,2.04,.02,3.26,.13,1.59,.13,1.98,.13,2.7,.12,.6,0,1.09-.04,1.6-.05,.7-.01,1.43-.1,2.05-.22,1.49-.29,1.75-.12,2.72-.44,1.73-.57,3.79-1.81,5.35-3.22Z"/>
              <path class="cls-23" d="M52.9,13.65c1.78-1.56,1.72-3.14,1.02-4.64-.56-1.2-.97-1.93-1.76-2.99-.74-.98-1.88-2.35-4.32-2.98-2.28-.6-7.18,3.12-9.07,3.65-2.07,.58-4.15,2.07-6.56,3.04-1.24,.5-4.21,1.74-4.14,2.85,.08,1.25,.68,1.68,1.38,2.23s1.96,1.58,2.77,1.84c.96,.3,2.46,.43,3.26,.5,1.46,.12,2.03,.09,3.23,.19,1.58,.12,1.94,.11,2.66,.1,.58,0,1.06-.02,1.6-.02,.73,0,1.45-.13,2.05-.25,1.45-.28,1.7-.1,2.69-.43,1.7-.57,3.65-1.73,5.18-3.08Z"/>
              <path class="cls-22" d="M52.66,13.57c1.72-1.47,1.67-3.03,.97-4.47-.56-1.17-1-1.87-1.78-2.9-.73-.96-1.77-2.3-4.2-2.99-2.25-.64-7,3.04-8.87,3.56-2.06,.58-4.04,2.06-6.39,3.01-1.21,.49-4.32,1.63-4.23,2.76,.1,1.19,.72,1.59,1.42,2.13s1.93,1.56,2.73,1.79c.99,.29,2.38,.34,3.2,.41,1.44,.12,2.01,.16,3.21,.25,1.57,.12,1.9,.07,2.62,.07,.57,0,1.03,0,1.6,0,.77,0,1.46-.17,2.06-.28,1.4-.26,1.66-.08,2.66-.42,1.67-.57,3.5-1.66,5-2.94Z"/>
              <path class="cls-26" d="M52.42,13.48c1.67-1.38,1.61-2.91,.92-4.29-.57-1.14-1.03-1.81-1.8-2.8-.71-.93-1.67-2.26-4.08-2.99-2.22-.68-6.82,2.95-8.67,3.47-2.04,.58-3.93,2.06-6.22,2.98-1.18,.48-4.44,1.52-4.33,2.68s.76,1.5,1.46,2.03c.74,.55,1.91,1.53,2.69,1.74,1.02,.27,2.3,.25,3.14,.32,1.43,.11,1.99,.23,3.19,.31,1.57,.11,1.87,.03,2.58,.04,.55,0,1,.03,1.6,.03,.8,0,1.48-.2,2.06-.3,1.36-.25,1.61-.05,2.63-.4,1.65-.56,3.36-1.59,4.82-2.8Z"/>
              <path class="cls-25" d="M52.18,13.4c1.61-1.28,1.56-2.8,.88-4.12-.57-1.11-1.06-1.75-1.81-2.71-.7-.91-1.57-2.22-3.96-3-2.2-.72-6.64,2.86-8.47,3.38-2.03,.58-3.82,2.05-6.05,2.95-1.15,.46-4.56,1.41-4.43,2.6,.12,1.08,.8,1.41,1.5,1.93,.74,.55,1.88,1.51,2.66,1.69,1.05,.25,2.23,.17,3.07,.23,1.41,.1,1.97,.29,3.16,.37,1.56,.1,1.83,0,2.54,.01,.54,0,.97,.06,1.61,.06,.83,0,1.5-.23,2.07-.33,1.32-.24,1.56-.03,2.6-.39,1.62-.56,3.21-1.52,4.64-2.66Z"/>
              <path class="cls-16" d="M51.93,13.32c1.55-1.19,1.51-2.68,.83-3.95-.58-1.08-1.1-1.69-1.83-2.61s-1.46-2.17-3.84-3c-2.17-.76-6.45,2.77-8.27,3.29-2.01,.58-3.71,2.05-5.89,2.92-1.12,.45-4.68,1.3-4.52,2.51,.13,1.03,.83,1.32,1.53,1.82,.75,.54,1.85,1.48,2.62,1.65,1.07,.23,2.15,.08,3.01,.14,1.39,.1,1.96,.36,3.14,.43,1.55,.09,1.79-.03,2.5-.02,.52,.01,.95,.08,1.61,.08,.87,0,1.51-.26,2.08-.36,1.27-.23,1.52,0,2.57-.38,1.59-.56,3.06-1.45,4.46-2.52Z"/>
              <path class="cls-15" d="M51.69,13.24c1.49-1.1,1.46-2.57,.78-3.78-.58-1.05-1.13-1.62-1.84-2.52s-1.36-2.13-3.73-3.01c-2.14-.79-6.27,2.69-8.07,3.2-2,.58-3.6,2.04-5.72,2.89-1.09,.44-4.8,1.19-4.62,2.43,.14,.98,.87,1.23,1.57,1.72,.75,.53,1.83,1.45,2.58,1.6,1.1,.22,2.07,0,2.95,.05,1.38,.09,1.94,.43,3.12,.49,1.55,.08,1.76-.06,2.46-.05,.51,.01,.92,.11,1.61,.11,.9,0,1.53-.29,2.08-.39,1.23-.21,1.47,.01,2.55-.37,1.56-.55,2.92-1.38,4.28-2.39Z"/>
              <path class="cls-13" d="M51.45,13.16c1.43-1.01,1.41-2.45,.73-3.61-.59-1.01-1.16-1.56-1.86-2.43s-1.26-2.08-3.61-3.01c-2.11-.83-6.09,2.6-7.87,3.11-1.99,.58-3.5,2.03-5.55,2.86-1.06,.43-4.92,1.08-4.72,2.34,.15,.92,.91,1.15,1.61,1.62,.76,.52,1.8,1.42,2.54,1.55,1.13,.19,1.99-.1,2.89-.04,1.36,.09,1.92,.49,3.09,.55,1.54,.07,1.72-.1,2.42-.07,.49,.02,.89,.13,1.61,.14,.93,0,1.54-.32,2.09-.41,1.18-.2,1.43,.04,2.52-.35,1.54-.55,2.77-1.31,4.1-2.25Z"/>
              <path class="cls-14" d="M51.2,13.08c1.37-.91,1.35-2.33,.68-3.44-.6-.98-1.19-1.5-1.87-2.33s-1.16-2.04-3.49-3.01c-2.08-.87-5.91,2.51-7.67,3.02-1.97,.58-3.39,2.03-5.38,2.83-1.03,.42-5.05,.97-4.82,2.26,.16,.87,.95,1.06,1.65,1.52,.77,.51,1.78,1.39,2.51,1.5,1.16,.17,1.91-.19,2.82-.13,1.34,.08,1.9,.56,3.07,.61,1.53,.07,1.68-.13,2.38-.1,.48,.02,.86,.16,1.61,.16,.96,0,1.56-.35,2.1-.44,1.14-.19,1.38,.06,2.49-.34,1.51-.55,2.62-1.25,3.92-2.11Z"/>
              <path class="cls-27" d="M50.96,13c1.31-.82,1.3-2.22,.64-3.27-.6-.95-1.22-1.44-1.89-2.24s-1.06-1.99-3.37-3.02c-2.06-.91-5.73,2.42-7.47,2.93-1.96,.57-3.28,2.02-5.21,2.8-1.01,.4-5.17,.86-4.91,2.18,.16,.82,.99,.97,1.69,1.42,.77,.5,1.75,1.36,2.47,1.45,1.19,.15,1.84-.27,2.76-.22,1.33,.08,1.89,.63,3.05,.67,1.53,.06,1.65-.16,2.34-.13,.46,.02,.83,.18,1.61,.19,1,0,1.58-.38,2.1-.47,1.1-.18,1.34,.08,2.46-.33,1.48-.54,2.48-1.18,3.74-1.97Z"/>
              <path class="cls-21" d="M50.72,12.92c1.25-.73,1.25-2.1,.59-3.1-.61-.92-1.26-1.38-1.91-2.14s-.95-1.95-3.25-3.02c-2.03-.95-5.55,2.34-7.27,2.84-1.94,.57-3.17,2.02-5.04,2.77-.98,.39-5.3,.76-5.01,2.09,.17,.76,1.02,.88,1.73,1.32,.78,.49,1.72,1.33,2.43,1.4,1.21,.13,1.76-.36,2.7-.31,1.31,.07,1.87,.7,3.02,.73,1.52,.05,1.61-.2,2.3-.16,.44,.02,.8,.21,1.61,.21,1.03,0,1.59-.41,2.11-.49,1.05-.16,1.29,.11,2.43-.32,1.46-.54,2.33-1.11,3.56-1.83Z"/>
              <path class="cls-19" d="M50.47,12.84c1.18-.64,1.19-1.99,.54-2.93-.62-.89-1.29-1.32-1.92-2.05s-.85-1.9-3.14-3.03c-2-.99-5.37,2.25-7.07,2.76-1.93,.57-3.06,2.01-4.87,2.74-.95,.38-5.43,.65-5.11,2.01,.17,.71,1.06,.79,1.76,1.22,.78,.48,1.7,1.3,2.39,1.36,1.24,.1,1.68-.45,2.63-.4,1.29,.07,1.85,.76,3,.8,1.51,.04,1.57-.23,2.26-.19,.43,.03,.77,.23,1.61,.24,1.06,.01,1.61-.44,2.12-.52,1.01-.15,1.24,.13,2.4-.3,1.43-.53,2.18-1.04,3.38-1.69Z"/>
              <path class="cls-20" d="M50.23,12.76c1.12-.56,1.14-1.87,.49-2.76s-1.32-1.26-1.94-1.96-.75-1.86-3.02-3.03c-1.97-1.02-5.19,2.16-6.87,2.67-1.91,.57-2.95,2.01-4.7,2.71-.92,.37-5.57,.54-5.21,1.92,.17,.66,1.1,.7,1.8,1.12,.79,.47,1.67,1.27,2.36,1.31,1.27,.07,1.6-.53,2.57-.49,1.28,.06,1.83,.83,2.98,.86,1.51,.03,1.54-.26,2.22-.22,.41,.03,.75,.25,1.61,.27,1.09,.01,1.62-.47,2.12-.55,.96-.14,1.2,.15,2.37-.29,1.4-.53,2.03-.98,3.2-1.56Z"/>
              <path class="cls-18" d="M49.99,12.67c1.06-.47,1.08-1.75,.44-2.59s-1.35-1.2-1.95-1.86-.65-1.81-2.9-3.04c-1.95-1.06-5,2.07-6.67,2.58-1.9,.57-2.84,2-4.53,2.68-.89,.35-5.71,.44-5.3,1.84,.17,.61,1.14,.61,1.84,1.01,.79,.46,1.64,1.23,2.32,1.26,1.3,.05,1.52-.62,2.51-.58,1.26,.06,1.82,.9,2.95,.92,1.5,.02,1.5-.3,2.18-.24,.4,.03,.72,.28,1.61,.29,1.13,.02,1.64-.51,2.13-.57,.92-.13,1.15,.18,2.35-.28,1.38-.52,1.88-.91,3.02-1.42Z"/>
              <path class="cls-17" d="M49.75,12.59c1-.38,1.03-1.63,.4-2.42s-1.38-1.14-1.97-1.77c-.6-.65-.55-1.76-2.78-3.04-1.92-1.1-4.82,1.99-6.47,2.49-1.88,.57-2.73,1.99-4.36,2.65-.86,.34-5.85,.33-5.4,1.76,.18,.55,1.18,.52,1.88,.91,.8,.45,1.62,1.22,2.28,1.21,1.33-.03,1.45-.71,2.44-.67,1.24,.05,1.8,.97,2.93,.98,1.49,.02,1.46-.33,2.14-.27,.38,.03,.69,.3,1.61,.32,1.16,.02,1.66-.54,2.14-.6,.88-.12,1.11,.2,2.32-.27,1.35-.52,1.73-.85,2.84-1.28Z"/>
              <path class="cls-28" d="M49.5,12.51c.93-.3,.97-1.51,.35-2.25s-1.42-1.08-1.99-1.67c-.59-.62-.45-1.71-2.66-3.04-1.89-1.13-4.64,1.9-6.27,2.4-1.87,.57-2.62,1.99-4.19,2.62-.83,.33-6,.23-5.5,1.67,.18,.5,1.21,.43,1.92,.81,.81,.44,1.59,1.17,2.25,1.16,1.35-.01,1.37-.79,2.38-.76,1.23,.05,1.78,1.03,2.91,1.04,1.49,0,1.43-.36,2.1-.3,.37,.03,.66,.33,1.61,.34,1.19,.02,1.67-.57,2.14-.63,.83-.1,1.06,.23,2.29-.25,1.32-.51,1.58-.79,2.66-1.14Z"/>
              <path class="cls-8" d="M49.26,12.43c.87-.22,.92-1.39,.3-2.07-.66-.73-1.45-1.02-2-1.58-.58-.59-.35-1.67-2.54-3.05-1.87-1.17-4.46,1.81-6.07,2.31-1.85,.57-2.52,1.98-4.02,2.58-.8,.32-6.16,.14-5.59,1.59,.18,.46,1.25,.34,1.95,.71,.81,.43,1.56,1.14,2.21,1.11,1.38-.05,1.29-.88,2.32-.85,1.21,.04,1.76,1.1,2.88,1.1,1.48,0,1.39-.4,2.06-.33,.35,.04,.63,.35,1.61,.37,1.23,.02,1.69-.6,2.15-.65,.79-.09,1.02,.25,2.26-.24,1.3-.51,1.43-.74,2.48-1Z"/>
            </g>
            <path class="cls-6" d="M48.7,9.49c-.19-.67-.59-1.25-1.14-1.66,.14-.37,.22-.76,.24-1.17,.09-2.1-1.54-3.88-3.64-3.97-1.61-.07-3.02,.87-3.64,2.25-.11-.01-.22-.03-.33-.03-1.33-.06-2.53,.56-3.27,1.55-.21-.08-.43-.13-.67-.14-1.14-.05-2.11,.84-2.16,1.98,0,.19,.01,.37,.05,.55-.42,.07-.77,.32-.99,.67-.35-.47-.89-.78-1.52-.8-.87-.04-1.62,.48-1.93,1.24-.04,0-.08,0-.12-.01-.79-.03-1.46,.58-1.49,1.37-.03,.79,.58,1.46,1.37,1.49,.41,.02,.78-.14,1.05-.4,.28,.17,.6,.27,.94,.29,.31,.69,.99,1.18,1.8,1.22,.84,.04,1.58-.43,1.93-1.13,.24,.11,.5,.17,.77,.19,.09,0,.17,0,.26,0,.48,.65,1.25,1.08,2.12,1.12,.85,.04,1.63-.31,2.17-.89,.33,.63,.98,1.08,1.75,1.11,.81,.04,1.54-.41,1.9-1.08,.4,.21,.85,.33,1.33,.35,1.05,.04,2-.42,2.62-1.17,.14,.05,.3,.09,.46,.09,.83,.04,1.53-.61,1.56-1.44,.04-.83-.6-1.52-1.43-1.56Z"/>
            <path class="cls-7" d="M48.76,9.54c-.19-.67-.59-1.25-1.14-1.66,.14-.37,.22-.76,.24-1.17,.09-2.1-1.54-3.88-3.64-3.97-1.61-.07-3.02,.87-3.64,2.25-.11-.01-.22-.03-.33-.03-1.33-.06-2.53,.56-3.27,1.55-.21-.08-.43-.13-.67-.14-1.14-.05-2.11,.84-2.16,1.98,0,.19,.01,.37,.05,.55-.42,.07-.77,.32-.99,.67-.35-.47-.89-.78-1.52-.8-.87-.04-1.62,.48-1.93,1.24-.04,0-.08,0-.12-.01-.79-.03-1.46,.58-1.49,1.37-.03,.79,.58,1.46,1.37,1.49,.41,.02,.78-.14,1.05-.4,.28,.17,.6,.27,.94,.29,.31,.69,.99,1.18,1.8,1.22,.84,.04,1.58-.43,1.93-1.13,.24,.11,.5,.17,.77,.19,.09,0,.17,0,.26,0,.48,.65,1.25,1.08,2.12,1.12,.85,.04,1.63-.31,2.17-.89,.33,.63,.98,1.08,1.75,1.11,.81,.03,1.54-.41,1.9-1.08,.4,.21,.85,.33,1.33,.35,1.05,.04,2-.42,2.62-1.17,.14,.05,.3,.09,.46,.09,.83,.04,1.53-.61,1.56-1.44,.04-.83-.6-1.52-1.43-1.56Z"/>
          </g>
          <g>
            <g class="cls-9">
              <path class="cls-5" d="M46.36,11.58c.98-1.71-.02-4.04-.49-5.26-.36-.92-1.53-2.17-2.46-2.63-.92-.46-1.27-.95-2.53-1.08-1.64-.16-3.82,1.09-5.16,1.45-1.44,.39-3.91,1.57-5.26,3.04-1.57,1.72-1.61,3.09-1.18,4.09,.45,1.07,1.2,1.66,1.67,2.08,.46,.42,.98,.79,1.55,1.06,1.09,.52,2.04,.5,2.85,.55,.62,.04,2.21,.17,3.82-.16,1.14-.24,2.17-.41,2.76-.59,1.24-.39,3.61-1.12,4.43-2.55Z"/>
              <path class="cls-1" d="M46.18,11.5c.98-1.66,.03-3.91-.44-5.09-.36-.9-1.49-2.09-2.4-2.54-.9-.45-1.2-1.04-2.48-1.19-1.62-.2-3.81,1.12-5.13,1.47-1.43,.39-3.88,1.54-5.17,2.96-1.52,1.66-1.64,3.02-1.2,4.04s1.2,1.59,1.68,1.99,.99,.75,1.56,1.01c1.1,.5,2.02,.43,2.81,.49,.61,.05,2.17,.2,3.78-.13,1.15-.24,2.13-.42,2.7-.58,1.21-.35,3.48-1.04,4.29-2.42Z"/>
              <path class="cls-2" d="M46.01,11.43c.97-1.61,.08-3.78-.38-4.92-.36-.88-1.44-2.01-2.34-2.46-.88-.44-1.13-1.12-2.42-1.31-1.6-.24-3.8,1.14-5.11,1.5-1.42,.39-3.84,1.51-5.09,2.88-1.46,1.6-1.66,2.96-1.21,3.98s1.2,1.52,1.7,1.91,1,.72,1.57,.96c1.11,.48,2,.36,2.76,.43,.6,.05,2.12,.23,3.73-.1,1.16-.23,2.09-.43,2.64-.58,1.17-.32,3.35-.96,4.15-2.28Z"/>
              <path class="cls-10" d="M45.83,11.35c.97-1.55,.14-3.65-.33-4.76-.36-.86-1.39-1.93-2.29-2.37-.86-.43-1.06-1.21-2.36-1.43-1.58-.27-3.79,1.17-5.09,1.52-1.41,.39-3.81,1.49-5.01,2.8-1.41,1.53-1.69,2.89-1.22,3.92s1.2,1.45,1.72,1.83c.49,.36,1.02,.68,1.58,.91,1.11,.46,1.97,.3,2.72,.37,.59,.06,2.08,.26,3.69-.06,1.16-.23,2.05-.43,2.58-.57,1.13-.29,3.22-.88,4.02-2.15Z"/>
              <path class="cls-11" d="M45.65,11.27c.97-1.5,.19-3.52-.28-4.59-.37-.84-1.34-1.86-2.23-2.29-.84-.42-1-1.29-2.3-1.55-1.56-.31-3.78,1.2-5.07,1.55-1.4,.38-3.78,1.46-4.93,2.71-1.35,1.47-1.72,2.82-1.23,3.86,.45,.96,1.2,1.37,1.73,1.75,.49,.34,1.03,.64,1.59,.86,1.12,.44,1.95,.23,2.67,.31,.58,.06,2.03,.29,3.64-.03,1.17-.23,2-.44,2.52-.56,1.1-.26,3.1-.79,3.88-2.02Z"/>
              <path class="cls-24" d="M45.48,11.2c.97-1.45,.24-3.39-.23-4.42-.37-.82-1.3-1.78-2.17-2.2-.83-.4-.93-1.37-2.24-1.66-1.54-.34-3.77,1.22-5.04,1.57-1.39,.38-3.74,1.43-4.85,2.63-1.3,1.41-1.75,2.75-1.25,3.8,.45,.93,1.2,1.3,1.75,1.66,.5,.33,1.05,.61,1.6,.81,1.13,.42,1.93,.16,2.62,.25,.58,.07,1.99,.32,3.6,0,1.18-.23,1.96-.45,2.46-.56,1.06-.23,2.97-.71,3.75-1.88Z"/>
              <path class="cls-23" d="M45.3,11.12c.96-1.4,.29-3.26-.17-4.25-.37-.8-1.25-1.7-2.12-2.12-.81-.39-.86-1.46-2.18-1.78-1.52-.37-3.76,1.25-5.02,1.6-1.38,.38-3.71,1.4-4.77,2.55-1.24,1.34-1.78,2.69-1.26,3.74,.45,.9,1.2,1.23,1.76,1.58,.51,.31,1.06,.57,1.61,.76,1.14,.4,1.91,.1,2.58,.19,.57,.08,1.94,.35,3.55,.04,1.18-.23,1.92-.46,2.4-.55,1.02-.19,2.84-.63,3.61-1.75Z"/>
              <path class="cls-22" d="M45.12,11.04c.96-1.34,.34-3.13-.12-4.08-.38-.78-1.2-1.62-2.06-2.03-.79-.38-.79-1.54-2.12-1.9-1.5-.4-3.75,1.27-5,1.62-1.37,.38-3.67,1.38-4.69,2.47-1.19,1.28-1.81,2.62-1.27,3.68,.45,.88,1.2,1.16,1.78,1.5,.51,.29,1.07,.53,1.62,.71,1.14,.37,1.89,.03,2.53,.13,.56,.08,1.9,.37,3.51,.07,1.19-.22,1.88-.47,2.34-.54,.99-.16,2.71-.55,3.47-1.61Z"/>
              <path class="cls-26" d="M44.95,10.96c.96-1.29,.39-3-.07-3.92-.38-.76-1.15-1.54-2-1.95-.77-.37-.72-1.62-2.06-2.02-1.48-.43-3.74,1.3-4.97,1.65-1.36,.38-3.64,1.35-4.61,2.39-1.13,1.21-1.84,2.55-1.29,3.62,.45,.85,1.19,1.09,1.8,1.41,.52,.27,1.09,.49,1.63,.66,1.15,.35,1.87-.03,2.49,.07,.55,.09,1.85,.4,3.46,.1,1.2-.22,1.83-.47,2.28-.54,.95-.13,2.58-.46,3.34-1.48Z"/>
              <path class="cls-25" d="M44.77,10.89c.96-1.24,.44-2.87-.02-3.75-.38-.74-1.11-1.46-1.95-1.86-.75-.36-.65-1.7-2.01-2.13-1.46-.46-3.73,1.33-4.95,1.67-1.35,.38-3.6,1.32-4.52,2.31-1.08,1.15-1.87,2.49-1.3,3.56,.44,.82,1.19,1.03,1.81,1.33,.52,.26,1.1,.46,1.64,.61,1.16,.33,1.85-.1,2.44,0,.54,.09,1.81,.43,3.42,.13,1.21-.22,1.79-.48,2.22-.53,.91-.1,2.46-.38,3.2-1.34Z"/>
              <path class="cls-16" d="M44.59,10.81c.96-1.19,.49-2.73,.04-3.58-.39-.72-1.06-1.38-1.89-1.78-.73-.34-.58-1.78-1.95-2.25-1.44-.49-3.72,1.35-4.93,1.7-1.34,.38-3.57,1.3-4.44,2.23-1.02,1.09-1.91,2.42-1.31,3.5,.44,.8,1.19,.96,1.83,1.25,.53,.24,1.12,.42,1.66,.56,1.17,.3,1.83-.16,2.39-.05,.53,.1,1.76,.46,3.37,.17,1.21-.22,1.75-.49,2.16-.52,.87-.07,2.33-.3,3.07-1.21Z"/>
              <path class="cls-15" d="M44.42,10.73c.96-1.14,.54-2.6,.09-3.41-.39-.7-1.01-1.31-1.83-1.69-.71-.33-.51-1.86-1.89-2.37s-3.71,1.38-4.91,1.72c-1.33,.38-3.54,1.27-4.36,2.14-.97,1.02-1.94,2.35-1.32,3.44,.44,.77,1.19,.89,1.85,1.16,.53,.22,1.13,.38,1.67,.51,1.18,.28,1.8-.23,2.35-.12s1.72,.49,3.33,.2c1.22-.22,1.71-.5,2.1-.51,.84-.04,2.2-.21,2.93-1.08Z"/>
              <path class="cls-13" d="M44.24,10.66c.96-1.08,.59-2.47,.14-3.25-.39-.68-.96-1.23-1.78-1.61-.69-.32-.44-1.94-1.83-2.49s-3.7,1.41-4.88,1.75c-1.32,.38-3.5,1.24-4.28,2.06-.91,.96-1.97,2.29-1.34,3.38,.43,.75,1.18,.82,1.86,1.08,.54,.21,1.15,.34,1.68,.46,1.19,.26,1.78-.29,2.3-.18s1.67,.52,3.28,.23c1.23-.21,1.66-.51,2.05-.51,.8,0,2.07-.13,2.79-.94Z"/>
              <path class="cls-14" d="M44.06,10.58c.96-1.03,.64-2.34,.2-3.08-.4-.66-.92-1.15-1.72-1.52-.67-.31-.37-2.02-1.77-2.6s-3.69,1.43-4.86,1.77c-1.31,.38-3.47,1.22-4.2,1.98-.86,.9-2,2.22-1.35,3.32,.43,.72,1.18,.75,1.88,1,.54,.19,1.16,.3,1.69,.41,1.2,.23,1.76-.35,2.26-.24s1.63,.55,3.24,.27c1.24-.21,1.62-.51,1.99-.5,.76,.03,1.95-.05,2.66-.81Z"/>
              <path class="cls-27" d="M43.88,10.5c.96-.98,.69-2.21,.25-2.91-.4-.64-.87-1.07-1.67-1.44-.65-.3-.3-2.1-1.71-2.72s-3.68,1.46-4.84,1.8c-1.3,.38-3.43,1.19-4.12,1.9-.8,.83-2.04,2.16-1.36,3.26,.42,.69,1.18,.68,1.9,.92,.55,.18,1.18,.27,1.7,.36,1.2,.21,1.74-.42,2.21-.3,.5,.13,1.58,.58,3.19,.3,1.24-.21,1.58-.52,1.93-.49,.73,.06,1.82,.04,2.52-.67Z"/>
              <path class="cls-21" d="M43.71,10.42c.96-.92,.74-2.08,.3-2.74-.41-.61-.82-.99-1.61-1.35-.63-.29-.23-2.17-1.65-2.84-1.34-.63-3.67,1.48-4.81,1.82-1.29,.38-3.4,1.16-4.04,1.82-.75,.77-2.07,2.09-1.37,3.2,.42,.67,1.18,.62,1.91,.83,.55,.16,1.19,.23,1.71,.31,1.21,.18,1.72-.48,2.16-.36,.49,.14,1.54,.6,3.15,.33,1.25-.21,1.54-.53,1.87-.49,.69,.09,1.7,.12,2.39-.54Z"/>
              <path class="cls-19" d="M43.53,10.35c.96-.87,.79-1.95,.35-2.57-.41-.59-.77-.91-1.55-1.27-.61-.28-.17-2.25-1.6-2.95-1.33-.66-3.66,1.51-4.79,1.85-1.28,.38-3.36,1.13-3.96,1.74-.69,.71-2.1,2.03-1.39,3.14,.42,.64,1.17,.55,1.93,.75,.56,.15,1.21,.19,1.72,.26,1.22,.16,1.7-.54,2.12-.42,.48,.14,1.49,.63,3.1,.37,1.26-.21,1.49-.54,1.81-.48,.65,.12,1.57,.21,2.25-.4Z"/>
              <path class="cls-20" d="M43.35,10.27c.97-.81,.84-1.81,.41-2.41s-.73-.84-1.5-1.18c-.59-.26-.1-2.32-1.54-3.07-1.31-.68-3.65,1.54-4.77,1.87-1.27,.38-3.33,1.11-3.88,1.66-.64,.64-2.14,1.96-1.4,3.08,.41,.62,1.17,.49,1.95,.67,.56,.13,1.22,.15,1.73,.21,1.23,.13,1.67-.61,2.07-.48,.48,.15,1.45,.66,3.06,.4,1.27-.2,1.45-.55,1.75-.47,.62,.16,1.45,.29,2.11-.27Z"/>
              <path class="cls-18" d="M43.18,10.19c.97-.76,.89-1.68,.46-2.24s-.68-.76-1.44-1.1c-.57-.25-.03-2.4-1.48-3.19-1.29-.71-3.64,1.56-4.75,1.9-1.26,.38-3.3,1.08-3.79,1.58-.58,.58-2.18,1.9-1.41,3.02,.4,.59,1.17,.42,1.96,.58,.57,.12,1.23,.11,1.74,.16,1.24,.11,1.65-.67,2.02-.54,.47,.16,1.4,.69,3.01,.43,1.27-.2,1.41-.56,1.69-.47,.58,.19,1.32,.38,1.98-.14Z"/>
              <path class="cls-17" d="M43,10.12c.97-.7,.93-1.55,.51-2.07s-.63-.68-1.38-1.01c-.55-.24,.03-2.47-1.42-3.31-1.28-.73-3.63,1.59-4.72,1.92-1.25,.38-3.26,1.05-3.71,1.49-.53,.52-2.21,1.84-1.42,2.96,.4,.57,1.16,.35,1.98,.5,.57,.1,1.25,.07,1.75,.11,1.25,.08,1.63-.73,1.98-.6,.46,.17,1.36,.72,2.97,.47,1.28-.2,1.37-.56,1.63-.46,.54,.22,1.2,.46,1.84,0Z"/>
              <path class="cls-28" d="M42.82,10.04c.97-.64,.98-1.42,.57-1.9s-.58-.6-1.33-.93c-.53-.23,.1-2.55-1.36-3.42-1.26-.76-3.62,1.62-4.7,1.95-1.24,.38-3.23,1.03-3.63,1.41-.48,.45-2.25,1.78-1.44,2.9,.39,.54,1.16,.29,2,.42,.58,.09,1.26,.03,1.76,.06,1.26,.05,1.61-.79,1.93-.66,.45,.18,1.31,.75,2.92,.5,1.29-.2,1.32-.57,1.57-.45,.51,.25,1.07,.55,1.7,.13Z"/>
              <path class="cls-8" d="M42.65,9.96c.98-.58,1.03-1.28,.62-1.74-.44-.48-.54-.53-1.27-.84-.51-.22,.16-2.62-1.3-3.54-1.24-.78-3.61,1.64-4.68,1.97-1.23,.38-3.19,1-3.55,1.33-.42,.39-2.29,1.71-1.45,2.84,.39,.52,1.16,.22,2.01,.33,.58,.07,1.28,0,1.78,0,1.26,.03,1.58-.86,1.89-.72,.44,.19,1.27,.78,2.88,.53,1.29-.2,1.28-.58,1.51-.44,.47,.28,.95,.64,1.57,.27Z"/>
            </g>
            <path class="cls-4" d="M42.69,7.36c.1-.35,.15-.72,.15-1.1,0-2.27-1.84-4.11-4.11-4.11-1.92,0-3.54,1.32-3.99,3.1-.04,0-.08,0-.13,0-.9,0-1.69,.46-2.14,1.16-.23-.1-.49-.15-.76-.15-1.1,0-1.99,.89-1.99,1.99s.89,1.99,1.99,1.99c.48,0,.93-.17,1.27-.46,.44,.37,1.01,.59,1.63,.59,.69,0,1.32-.28,1.78-.72,.66,.46,1.46,.72,2.33,.72,.79,0,1.53-.22,2.15-.61,.28,.36,.72,.58,1.21,.58,.86,0,1.55-.7,1.55-1.55,0-.65-.4-1.2-.96-1.43Z"/>
            <path class="cls-7" d="M42.75,7.42c.1-.35,.15-.72,.15-1.1,0-2.27-1.84-4.11-4.11-4.11-1.92,0-3.54,1.32-3.99,3.1-.04,0-.08,0-.13,0-.9,0-1.69,.46-2.15,1.16-.23-.1-.49-.15-.76-.15-1.1,0-1.99,.89-1.99,1.99s.89,1.99,1.99,1.99c.48,0,.93-.17,1.27-.46,.44,.37,1.01,.59,1.63,.59,.69,0,1.32-.28,1.78-.72,.66,.46,1.46,.72,2.33,.72,.79,0,1.53-.22,2.15-.61,.28,.36,.72,.58,1.21,.58,.86,0,1.55-.69,1.55-1.55,0-.65-.4-1.2-.96-1.43Z"/>
          </g>
          <g>
            <g class="cls-9">
              <path class="cls-5" d="M53.96,12.81c1.21-1.02,.99-4.19,.37-5.04-.81-1.11-1.67-1.79-2.41-2.16-.74-.37-2.83-.69-3.78-.69-1.33,0-2.63,.32-3.7,.61-1.16,.31-3.43,1.14-4.51,2.32-1.26,1.38-.15,4.13,.17,4.54,.6,.75,1.33,1.5,2.25,1.94,.88,.42,1.64,.4,2.29,.44,.5,.04,2.7,.28,4,.01,.92-.19,2.47-.47,2.91-.69,.41-.2,1.43-.47,2.4-1.29Z"/>
              <path class="cls-1" d="M53.77,12.7c1.19-.99,.99-4.05,.38-4.91-.8-1.12-1.65-1.76-2.38-2.12-.73-.36-2.72-.68-3.66-.69-1.29,0-2.59,.3-3.65,.59-1.15,.31-3.4,1.14-4.44,2.28-1.22,1.33-.18,4.01,.17,4.43,.58,.73,1.27,1.47,2.19,1.9,.87,.41,1.62,.37,2.25,.42,.49,.04,2.62,.31,3.91,.05,.92-.19,2.42-.5,2.85-.71,.41-.2,1.42-.44,2.38-1.24Z"/>
              <path class="cls-2" d="M53.57,12.6c1.17-.96,.99-3.92,.39-4.78-.78-1.12-1.63-1.72-2.36-2.08-.71-.35-2.61-.68-3.54-.69-1.26-.02-2.55,.28-3.6,.56-1.14,.31-3.36,1.14-4.37,2.24-1.17,1.28-.2,3.88,.16,4.33,.57,.7,1.22,1.44,2.14,1.86,.86,.39,1.6,.34,2.21,.4,.48,.04,2.54,.35,3.83,.08,.93-.19,2.37-.52,2.78-.73,.41-.2,1.41-.42,2.36-1.19Z"/>
              <path class="cls-10" d="M53.38,12.49c1.16-.93,.99-3.78,.4-4.65-.76-1.12-1.61-1.69-2.33-2.04-.69-.34-2.5-.67-3.42-.69-1.23-.03-2.51,.26-3.55,.54-1.13,.31-3.33,1.14-4.29,2.2-1.13,1.23-.23,3.76,.15,4.23,.55,.68,1.16,1.41,2.08,1.82,.85,.38,1.57,.31,2.17,.37,.48,.05,2.45,.38,3.75,.12,.93-.19,2.31-.54,2.72-.75,.4-.2,1.39-.39,2.34-1.14Z"/>
              <path class="cls-11" d="M53.18,12.39c1.14-.89,.99-3.64,.4-4.53-.75-1.13-1.59-1.65-2.3-2-.68-.33-2.4-.66-3.3-.69-1.19-.04-2.47,.23-3.51,.52-1.13,.31-3.29,1.14-4.22,2.15-1.09,1.18-.26,3.63,.14,4.12,.53,.66,1.1,1.38,2.02,1.78,.84,.36,1.55,.28,2.13,.35,.47,.05,2.37,.41,3.66,.16,.94-.18,2.26-.57,2.66-.76s1.38-.36,2.31-1.09Z"/>
              <path class="cls-24" d="M52.99,12.29c1.12-.86,.99-3.51,.41-4.4-.73-1.13-1.57-1.62-2.27-1.96-.66-.32-2.29-.65-3.18-.69-1.16-.05-2.44,.21-3.46,.49-1.12,.31-3.26,1.14-4.15,2.11-1.04,1.13-.28,3.51,.13,4.02,.51,.63,1.04,1.34,1.97,1.73,.83,.35,1.53,.26,2.09,.32,.46,.06,2.29,.45,3.58,.19,.95-.18,2.21-.59,2.59-.78,.4-.2,1.36-.33,2.29-1.05Z"/>
              <path class="cls-23" d="M52.79,12.18c1.11-.83,.99-3.37,.42-4.27-.72-1.13-1.54-1.58-2.24-1.92-.65-.32-2.18-.64-3.06-.69-1.13-.06-2.4,.19-3.41,.47-1.11,.31-3.23,1.15-4.08,2.07-1,1.08-.31,3.38,.12,3.92,.49,.61,.98,1.31,1.91,1.69,.82,.34,1.51,.23,2.05,.3,.46,.06,2.2,.48,3.5,.23,.95-.18,2.16-.61,2.53-.8,.4-.2,1.35-.31,2.27-1Z"/>
              <path class="cls-22" d="M52.6,12.08c1.09-.8,.99-3.23,.43-4.15-.71-1.13-1.52-1.54-2.21-1.88-.63-.3-2.07-.63-2.94-.69-1.09-.07-2.36,.17-3.36,.45-1.1,.31-3.19,1.15-4.01,2.02-.95,1.03-.34,3.26,.12,3.81s.93,1.28,1.85,1.65c.81,.32,1.49,.2,2.01,.28,.45,.07,2.12,.51,3.41,.27,.96-.18,2.11-.64,2.46-.82,.39-.2,1.33-.28,2.25-.95Z"/>
              <path class="cls-26" d="M52.4,11.97c1.07-.77,.99-3.1,.43-4.02-.69-1.14-1.5-1.51-2.19-1.84-.62-.3-1.96-.62-2.83-.69-1.06-.08-2.32,.15-3.31,.43-1.09,.31-3.16,1.15-3.94,1.98-.91,.98-.37,3.13,.11,3.71s.87,1.25,1.8,1.61c.8,.31,1.47,.17,1.97,.25,.44,.07,2.04,.55,3.33,.3,.96-.18,2.06-.66,2.4-.84,.39-.2,1.32-.25,2.23-.9Z"/>
              <path class="cls-25" d="M52.21,11.87c1.05-.73,.99-2.96,.44-3.89-.68-1.14-1.48-1.47-2.16-1.79-.6-.29-1.85-.61-2.71-.69-1.03-.09-2.28,.13-3.26,.4-1.09,.31-3.13,1.15-3.87,1.94-.87,.92-.39,3.01,.1,3.61,.44,.54,.81,1.22,1.74,1.57,.79,.3,1.45,.14,1.92,.23,.44,.08,1.95,.58,3.25,.34,.97-.18,2-.68,2.34-.85,.39-.2,1.3-.23,2.21-.86Z"/>
              <path class="cls-16" d="M52.01,11.77c1.04-.7,.99-2.82,.45-3.76-.66-1.14-1.46-1.44-2.13-1.75-.58-.28-1.75-.6-2.59-.69-.99-.1-2.25,.1-3.22,.38-1.08,.31-3.09,1.15-3.8,1.89-.82,.87-.42,2.88,.09,3.5,.42,.51,.75,1.19,1.68,1.53,.78,.28,1.43,.12,1.88,.2,.43,.08,1.87,.61,3.16,.38,.97-.18,1.95-.7,2.27-.87,.39-.2,1.29-.2,2.19-.81Z"/>
              <path class="cls-15" d="M51.82,11.66c1.02-.67,.99-2.69,.45-3.64-.65-1.15-1.44-1.4-2.1-1.71-.57-.27-1.64-.59-2.47-.69-.96-.11-2.21,.08-3.17,.36-1.07,.31-3.06,1.15-3.72,1.85-.78,.82-.45,2.76,.08,3.4,.4,.49,.69,1.16,1.63,1.48,.77,.27,1.41,.09,1.84,.18s1.79,.64,3.08,.41c.98-.17,1.9-.73,2.21-.89,.38-.2,1.27-.17,2.17-.76Z"/>
              <path class="cls-13" d="M51.62,11.56c1-.64,.99-2.55,.46-3.51-.63-1.15-1.42-1.37-2.07-1.67-.55-.26-1.53-.58-2.35-.69-.92-.12-2.17,.06-3.12,.34-1.06,.31-3.03,1.15-3.65,1.81-.73,.77-.48,2.63,.07,3.3,.38,.46,.63,1.13,1.57,1.44,.76,.26,1.38,.06,1.8,.15s1.71,.68,3,.45c.99-.17,1.85-.75,2.14-.91,.38-.2,1.26-.15,2.14-.71Z"/>
              <path class="cls-14" d="M51.43,11.45c.98-.61,.99-2.41,.47-3.38-.62-1.15-1.4-1.33-2.04-1.63-.54-.25-1.42-.57-2.23-.69-.89-.12-2.13,.04-3.07,.31-1.05,.31-2.99,1.15-3.58,1.77-.69,.72-.5,2.5,.07,3.19,.37,.44,.57,1.1,1.52,1.4,.75,.24,1.36,.04,1.76,.13s1.62,.71,2.91,.49c.99-.17,1.8-.77,2.08-.92,.38-.2,1.24-.12,2.12-.67Z"/>
              <path class="cls-27" d="M51.23,11.35c.96-.58,.99-2.27,.48-3.25-.61-1.15-1.38-1.3-2.02-1.59-.52-.24-1.31-.56-2.11-.68-.86-.13-2.09,.02-3.02,.29-1.05,.31-2.96,1.15-3.51,1.72-.65,.67-.53,2.38,.06,3.09,.35,.42,.52,1.06,1.46,1.36,.74,.23,1.34,.01,1.72,.11,.4,.1,1.54,.74,2.83,.52,1-.17,1.75-.8,2.02-.94,.38-.2,1.23-.1,2.1-.62Z"/>
              <path class="cls-21" d="M51.04,11.25c.95-.55,.99-2.14,.48-3.13-.59-1.16-1.36-1.26-1.99-1.55-.51-.23-1.21-.55-2-.68s-2.05,0-2.97,.27c-1.04,.31-2.93,1.15-3.44,1.68-.6,.62-.56,2.25,.05,2.99,.33,.39,.46,1.03,1.4,1.32,.73,.22,1.32-.02,1.68,.08,.4,.11,1.46,.78,2.75,.56,1-.17,1.69-.82,1.95-.96,.37-.2,1.21-.07,2.08-.57Z"/>
              <path class="cls-19" d="M50.84,11.14c.93-.52,.99-2,.49-3-.58-1.16-1.34-1.23-1.96-1.51-.49-.22-1.1-.54-1.88-.68s-2.02-.03-2.93,.24c-1.03,.31-2.89,1.15-3.37,1.64-.56,.57-.59,2.13,.04,2.88,.31,.37,.4,1,1.35,1.28,.72,.21,1.3-.04,1.64,.06,.39,.12,1.37,.81,2.67,.6,1.01-.17,1.64-.84,1.89-.98,.37-.2,1.2-.04,2.06-.52Z"/>
              <path class="cls-20" d="M50.65,11.04c.91-.49,.99-1.86,.5-2.87-.56-1.16-1.31-1.19-1.93-1.47-.47-.21-.99-.53-1.76-.68s-1.98-.05-2.88,.22c-1.02,.31-2.86,1.15-3.3,1.59-.51,.52-.62,2.01,.03,2.78,.29,.35,.34,.97,1.29,1.23,.71,.19,1.28-.07,1.6,.03,.38,.12,1.29,.84,2.58,.63,1.02-.16,1.59-.87,1.82-.99,.37-.2,1.18-.02,2.04-.48Z"/>
              <path class="cls-18" d="M50.45,10.93c.89-.46,.99-1.72,.51-2.74-.55-1.16-1.29-1.16-1.9-1.43-.46-.2-.88-.52-1.64-.68s-1.94-.07-2.83,.2c-1.02,.31-2.82,1.15-3.23,1.55-.47,.47-.64,1.88,.02,2.68,.27,.32,.28,.95,1.23,1.19,.7,.18,1.26-.09,1.56,0,.37,.13,1.21,.88,2.5,.67,1.02-.16,1.54-.89,1.76-1.01,.37-.2,1.17,0,2.02-.43Z"/>
              <path class="cls-17" d="M50.26,10.83c.87-.43,.99-1.59,.51-2.62-.54-1.16-1.27-1.12-1.87-1.39-.44-.19-.78-.5-1.52-.68-.69-.17-1.9-.09-2.78,.18-1.01,.31-2.79,1.15-3.15,1.51-.43,.41-.67,1.76,.02,2.57,.25,.3,.22,.92,1.18,1.15,.69,.17,1.23-.12,1.51-.01,.37,.14,1.12,.91,2.42,.71,1.03-.16,1.49-.91,1.7-1.03,.36-.2,1.15,.03,2-.38Z"/>
              <path class="cls-28" d="M50.06,10.73c.85-.4,.99-1.45,.52-2.49-.52-1.17-1.25-1.09-1.85-1.35-.43-.19-.67-.49-1.4-.68-.66-.17-1.86-.11-2.73,.15-1,.31-2.76,1.15-3.08,1.46-.38,.36-.7,1.63,0,2.47,.23,.28,.16,.89,1.12,1.11,.68,.16,1.21-.14,1.47-.04,.36,.15,1.04,.94,2.33,.74,1.03-.16,1.43-.94,1.63-1.05,.36-.2,1.14,.06,1.97-.33Z"/>
              <path class="cls-8" d="M49.87,10.62c.84-.37,.98-1.31,.53-2.36-.51-1.17-1.23-1.05-1.82-1.31-.41-.18-.56-.48-1.28-.68-.63-.18-1.83-.14-2.69,.13-.99,.31-2.72,1.15-3.01,1.42-.34,.31-.73,1.51,0,2.37,.22,.25,.1,.86,1.07,1.07,.67,.15,1.19-.17,1.43-.06,.35,.15,.96,.97,2.25,.78,1.04-.16,1.38-.96,1.57-1.07,.36-.2,1.12,.08,1.95-.29Z"/>
            </g>
            <path class="cls-4" d="M48.75,6.69s-.09,0-.13,0c-.24-.68-.89-1.17-1.66-1.17-.23,0-.45,.04-.65,.12-.24-.66-.87-1.13-1.6-1.13s-1.33,.45-1.58,1.07c-.08-.01-.17-.02-.26-.02-.78,0-1.41,.59-1.49,1.34-.11-.02-.22-.03-.33-.03-.94,0-1.69,.76-1.69,1.69s.76,1.69,1.69,1.69c.01,0,.03,0,.04,0,.17,.68,.78,1.19,1.52,1.19,.57,0,1.07-.3,1.34-.76,.37,.63,1.06,1.06,1.85,1.06,.87,0,1.62-.52,1.96-1.27,.3,.17,.64,.27,1.01,.27,1.12,0,2.03-.91,2.03-2.03s-.91-2.03-2.03-2.03Z"/>
            <path class="cls-3" d="M48.82,6.76s-.09,0-.13,0c-.24-.69-.89-1.18-1.66-1.18-.23,0-.45,.04-.65,.12-.24-.66-.87-1.13-1.6-1.13s-1.33,.44-1.58,1.07c-.08-.01-.17-.02-.26-.02-.78,0-1.41,.59-1.49,1.34-.11-.02-.22-.03-.34-.03-.93,0-1.69,.76-1.69,1.69s.76,1.69,1.69,1.69c.01,0,.03,0,.04,0,.17,.68,.78,1.19,1.52,1.19,.57,0,1.07-.3,1.34-.76,.37,.64,1.06,1.06,1.85,1.06,.87,0,1.62-.52,1.96-1.27,.3,.17,.64,.27,1.01,.27,1.12,0,2.03-.91,2.03-2.03s-.91-2.03-2.03-2.03Z"/>
          </g>
          <g>
            <g class="cls-9">
              <path class="cls-5" d="M52.63,9.23c1.44-1.49,1.34-4.55,.55-5.64-1.04-1.43-2.31-1.96-3.26-2.44-.96-.48-2.34-.92-3.55-1.1-1.49-.22-3.14,.42-4.52,.79-1.49,.4-6.09,1.95-7.48,3.47-.77,.84-.96,1.93-.84,2.94,.13,1.12,.63,2.14,.84,2.41,.78,.97,3.61,1.94,4.79,2.51,1.13,.54,2.11,.51,2.95,.57,.64,.05,2.43,0,4.09-.35,1.18-.25,2.35-1.16,2.92-1.44,.53-.26,2.42-.6,3.51-1.73Z"/>
              <path class="cls-1" d="M52.42,9.12c1.42-1.44,1.35-4.41,.56-5.49-1.02-1.41-2.26-1.92-3.2-2.39-.93-.46-2.26-.9-3.46-1.09-1.46-.23-3.06,.39-4.43,.76-1.48,.4-6.1,1.95-7.46,3.4-.77,.82-.96,1.91-.83,2.9,.15,1.1,.68,2.07,.92,2.34,.79,.9,3.48,1.9,4.67,2.45,1.12,.52,2.08,.43,2.89,.5,.63,.05,2.35,.08,4.05-.28,1.19-.25,2.31-1.18,2.86-1.46,.53-.26,2.35-.55,3.43-1.65Z"/>
              <path class="cls-2" d="M52.2,9.01c1.41-1.39,1.35-4.27,.58-5.35-1-1.4-2.21-1.87-3.15-2.33-.91-.45-2.17-.88-3.37-1.08-1.42-.23-2.99,.35-4.35,.73-1.47,.4-6.12,1.94-7.43,3.33-.77,.81-.96,1.89-.81,2.86,.16,1.08,.73,2,.99,2.27,.79,.84,3.36,1.85,4.54,2.39,1.1,.5,2.04,.35,2.83,.42,.62,.06,2.28,.16,4-.21,1.19-.25,2.26-1.2,2.8-1.47,.52-.26,2.28-.49,3.36-1.57Z"/>
              <path class="cls-10" d="M51.99,8.9c1.39-1.34,1.35-4.13,.6-5.2-.97-1.38-2.16-1.82-3.09-2.28-.89-.44-2.08-.86-3.28-1.07-1.39-.24-2.91,.32-4.26,.7-1.45,.41-6.13,1.94-7.41,3.26-.76,.79-.95,1.86-.79,2.82,.18,1.06,.78,1.93,1.06,2.2,.8,.77,3.23,1.81,4.41,2.34,1.09,.49,2.01,.27,2.77,.35,.61,.06,2.2,.25,3.96-.14,1.19-.26,2.21-1.23,2.73-1.49,.52-.26,2.21-.44,3.29-1.48Z"/>
              <path class="cls-11" d="M51.77,8.79c1.37-1.29,1.36-3.99,.62-5.06-.95-1.36-2.11-1.78-3.03-2.22-.87-.43-1.99-.85-3.19-1.06-1.35-.24-2.83,.29-4.18,.67-1.44,.41-6.15,1.94-7.38,3.18-.76,.77-.95,1.84-.77,2.78,.2,1.04,.83,1.86,1.14,2.13,.79,.71,3.1,1.76,4.29,2.28,1.08,.47,1.98,.19,2.72,.28,.6,.07,2.13,.33,3.91-.07,1.2-.26,2.17-1.25,2.67-1.5,.52-.26,2.14-.39,3.21-1.4Z"/>
              <path class="cls-24" d="M51.56,8.68c1.36-1.24,1.36-3.85,.63-4.91-.93-1.34-2.07-1.73-2.97-2.17-.85-.42-1.9-.83-3.1-1.05-1.32-.25-2.76,.25-4.09,.64-1.43,.41-6.16,1.93-7.36,3.11-.76,.75-.95,1.81-.75,2.74,.22,1.02,.88,1.79,1.21,2.06,.78,.66,2.98,1.72,4.16,2.22,1.06,.45,1.94,.11,2.66,.2,.59,.07,2.05,.41,3.87,0,1.2-.27,2.12-1.27,2.61-1.52s2.07-.34,3.14-1.32Z"/>
              <path class="cls-23" d="M51.34,8.57c1.34-1.19,1.37-3.72,.65-4.77-.9-1.32-2.02-1.68-2.91-2.11-.83-.4-1.82-.81-3.01-1.04-1.28-.25-2.68,.22-4.01,.61-1.42,.41-6.18,1.93-7.34,3.04-.76,.73-.95,1.79-.73,2.69,.24,1,.93,1.72,1.28,1.99,.77,.6,2.85,1.67,4.04,2.16,1.05,.43,1.91,.04,2.6,.13,.59,.08,1.98,.49,3.82,.07,1.21-.27,2.07-1.29,2.55-1.53,.51-.26,2-.29,3.07-1.24Z"/>
              <path class="cls-22" d="M51.13,8.46c1.32-1.14,1.37-3.58,.67-4.62-.88-1.3-1.97-1.63-2.85-2.06-.81-.39-1.73-.79-2.92-1.03s-2.6,.18-3.92,.58c-1.4,.41-6.2,1.92-7.31,2.97-.76,.71-.94,1.77-.71,2.65,.25,.98,.98,1.65,1.36,1.92,.75,.55,2.72,1.63,3.91,2.1,1.04,.41,1.87-.04,2.54,.05,.58,.08,1.9,.58,3.77,.15,1.21-.28,2.03-1.31,2.48-1.55,.51-.26,1.93-.24,2.99-1.16Z"/>
              <path class="cls-26" d="M50.91,8.35c1.3-1.09,1.38-3.44,.68-4.48-.85-1.28-1.92-1.59-2.79-2-.79-.38-1.64-.77-2.83-1.03s-2.53,.15-3.84,.55c-1.39,.42-6.21,1.92-7.29,2.9-.76,.7-.94,1.74-.7,2.61,.27,.96,1.03,1.58,1.43,1.85,.73,.5,2.6,1.58,3.78,2.05,1.02,.4,1.84-.12,2.48-.02,.57,.09,1.83,.66,3.73,.22,1.22-.28,1.98-1.33,2.42-1.56,.5-.26,1.85-.19,2.92-1.08Z"/>
              <path class="cls-25" d="M50.7,8.24c1.29-1.04,1.38-3.3,.7-4.33-.83-1.26-1.87-1.54-2.73-1.95-.77-.37-1.55-.75-2.74-1.02s-2.45,.12-3.75,.52c-1.38,.42-6.23,1.91-7.26,2.82-.76,.68-.94,1.72-.68,2.57,.29,.94,1.03,1.59,1.5,1.79,.62,.57,2.47,1.54,3.66,1.99,1.01,.38,1.81-.2,2.42-.1,.56,.1,1.75,.74,3.68,.29,1.22-.28,1.93-1.36,2.36-1.58,.5-.26,1.78-.14,2.85-1Z"/>
              <path class="cls-16" d="M50.48,8.14c1.27-.99,1.38-3.16,.72-4.19-.81-1.24-1.82-1.49-2.67-1.9-.75-.35-1.46-.73-2.65-1.01s-2.37,.08-3.67,.49c-1.37,.42-6.25,1.9-7.24,2.75-.77,.66-.94,1.69-.66,2.53,.31,.92,1.08,1.53,1.57,1.72,.61,.53,2.34,1.5,3.53,1.93,1,.36,1.77-.28,2.36-.17,.55,.1,1.68,.82,3.64,.36,1.23-.29,1.89-1.38,2.3-1.59,.49-.26,1.71-.09,2.77-.92Z"/>
              <path class="cls-15" d="M50.27,8.03c1.25-.94,1.39-3.02,.74-4.04-.78-1.22-1.77-1.45-2.62-1.84-.73-.34-1.38-.71-2.56-1-1.11-.27-2.29,.05-3.58,.46-1.35,.42-6.27,1.9-7.21,2.68-.77,.64-.94,1.67-.64,2.49,.32,.9,1.12,1.47,1.65,1.65,.59,.49,2.21,1.45,3.41,1.87,.98,.34,1.74-.36,2.3-.24s1.6,.91,3.59,.43c1.23-.29,1.84-1.4,2.23-1.61,.49-.26,1.64-.04,2.7-.83Z"/>
              <path class="cls-13" d="M50.05,7.92c1.23-.89,1.39-2.89,.75-3.9-.76-1.2-1.72-1.4-2.56-1.79-.7-.33-1.29-.69-2.48-.99-1.07-.27-2.22,.02-3.5,.42-1.34,.43-6.3,1.89-7.19,2.61-.77,.62-.93,1.65-.62,2.45,.34,.88,1.17,1.41,1.72,1.58,.57,.44,2.09,1.41,3.28,1.81,.97,.33,1.71-.43,2.24-.32s1.53,.99,3.55,.5c1.24-.3,1.79-1.42,2.17-1.62,.49-.26,1.57,.01,2.63-.75Z"/>
              <path class="cls-14" d="M49.84,7.81c1.21-.84,1.4-2.75,.77-3.75-.74-1.18-1.67-1.35-2.5-1.73-.68-.32-1.2-.67-2.39-.98-1.04-.27-2.14-.02-3.41,.39-1.33,.43-6.32,1.88-7.17,2.53-.77,.6-.93,1.62-.6,2.4,.36,.86,1.21,1.35,1.79,1.51,.55,.4,1.96,1.37,3.16,1.76,.95,.31,1.67-.51,2.18-.39s1.45,1.07,3.5,.57c1.24-.3,1.75-1.44,2.11-1.64,.48-.26,1.5,.06,2.55-.67Z"/>
              <path class="cls-27" d="M49.62,7.7c1.19-.79,1.4-2.61,.79-3.61-.71-1.16-1.62-1.31-2.44-1.68-.66-.31-1.11-.65-2.3-.97-1-.27-2.06-.05-3.33,.36-1.32,.43-6.34,1.87-7.14,2.46s-.93,1.6-.58,2.36c.38,.84,1.29,1.18,1.87,1.44s1.83,1.32,3.03,1.7c.94,.29,1.64-.59,2.12-.47,.51,.13,1.38,1.15,3.46,.64,1.25-.31,1.7-1.47,2.05-1.65,.48-.26,1.42,.11,2.48-.59Z"/>
              <path class="cls-21" d="M49.41,7.59c1.17-.74,1.4-2.47,.8-3.46-.69-1.14-1.58-1.26-2.38-1.62-.64-.29-1.02-.63-2.21-.96-.97-.27-1.99-.08-3.24,.33-1.31,.43-6.37,1.85-7.12,2.39s-.93,1.57-.57,2.32c.4,.82,1.33,1.12,1.94,1.37,.56,.22,1.7,1.28,2.9,1.64,.93,.28,1.61-.67,2.06-.54,.5,.14,1.3,1.24,3.41,.71,1.25-.31,1.65-1.49,1.98-1.67,.48-.26,1.35,.16,2.41-.51Z"/>
              <path class="cls-19" d="M49.19,7.48c1.15-.7,1.41-2.33,.82-3.32-.67-1.12-1.53-1.21-2.32-1.57-.62-.28-.94-.61-2.12-.95-.93-.27-1.91-.12-3.16,.3-1.29,.44-6.39,1.84-7.09,2.32-.78,.53-.92,1.55-.55,2.28,.41,.8,1.37,1.07,2.01,1.3,.54,.19,1.57,1.24,2.78,1.58,.91,.26,1.57-.74,2-.61,.49,.15,1.23,1.32,3.37,.78,1.26-.31,1.61-1.51,1.92-1.68,.47-.26,1.28,.21,2.33-.43Z"/>
              <path class="cls-20" d="M48.98,7.37c1.13-.65,1.41-2.19,.84-3.17-.64-1.1-1.48-1.17-2.26-1.51-.6-.27-.85-.58-2.03-.94-.9-.27-1.83-.15-3.07,.27-1.28,.44-6.42,1.83-7.07,2.25-.79,.51-.92,1.53-.53,2.24,.43,.78,1.41,1.02,2.09,1.23,.51,.16,1.45,1.19,2.65,1.52,.9,.25,1.54-.82,1.94-.69,.48,.15,1.15,1.4,3.32,.85,1.26-.32,1.56-1.53,1.86-1.7,.47-.26,1.21,.26,2.26-.35Z"/>
              <path class="cls-18" d="M48.77,7.26c1.11-.6,1.41-2.05,.86-3.03-.62-1.08-1.43-1.12-2.2-1.46-.58-.26-.76-.56-1.94-.93-.86-.27-1.76-.18-2.98,.24-1.27,.44-6.44,1.81-7.05,2.17-.8,.48-.92,1.5-.51,2.2,.45,.76,1.45,.97,2.16,1.16,.48,.13,1.32,1.15,2.53,1.47,.88,.23,1.5-.89,1.88-.76,.48,.16,1.08,1.48,3.27,.92,1.27-.32,1.51-1.55,1.8-1.71,.46-.26,1.13,.3,2.19-.26Z"/>
              <path class="cls-17" d="M48.55,7.15c1.09-.56,1.42-1.91,.87-2.88-.6-1.06-1.38-1.07-2.14-1.41-.56-.25-.67-.54-1.85-.92-.83-.27-1.68-.22-2.9,.21-1.26,.44-6.47,1.79-7.02,2.1-.81,.45-.92,1.48-.49,2.16,.47,.74,1.49,.92,2.23,1.09,.46,.1,1.19,1.11,2.4,1.41,.87,.21,1.47-.97,1.82-.84,.47,.17,1,1.57,3.23,.99,1.27-.33,1.47-1.58,1.73-1.73,.46-.26,1.06,.35,2.11-.18Z"/>
              <path class="cls-28" d="M48.34,7.04c1.07-.51,1.42-1.77,.89-2.74-.58-1.04-1.33-1.03-2.08-1.35-.54-.23-.59-.51-1.76-.91-.8-.27-1.6-.25-2.81,.18-1.24,.44-6.5,1.77-7,2.03-.82,.41-.92,1.45-.47,2.11,.48,.72,1.53,.89,2.3,1.02,.44,.07,1.06,1.07,2.27,1.35,.86,.2,1.43-1.04,1.76-.91,.45,.18,.93,1.65,3.18,1.07,1.28-.33,1.42-1.6,1.67-1.74,.45-.26,.99,.4,2.04-.1Z"/>
              <path class="cls-8" d="M48.12,6.94c1.06-.46,1.42-1.63,.91-2.59-.55-1.02-1.28-.98-2.03-1.3-.52-.22-.5-.49-1.67-.91-.76-.27-1.53-.28-2.73,.15-1.23,.45-6.52,1.75-6.97,1.96-.83,.37-.91,1.43-.45,2.07,.5,.7,1.57,.86,2.38,.95,.42,.05,.94,1.03,2.15,1.29,.84,.18,1.4-1.12,1.7-.99,.44,.19,.85,1.73,3.14,1.14,1.28-.34,1.37-1.62,1.61-1.75,.45-.26,.92,.44,1.97-.02Z"/>
            </g>
            <path class="cls-4" d="M47.23,2.72c-.09,0-.18,0-.27,.02-.34-1.01-1.29-1.73-2.41-1.73-.52,0-1,.15-1.4,.42-.28-.75-1-1.29-1.85-1.29-.96,0-1.76,.69-1.93,1.6-.27-.2-.61-.32-.97-.32-.83,0-1.52,.62-1.62,1.43,0,0,0,0-.01,0-1.3,0-2.35,1.05-2.35,2.35s1.05,2.35,2.35,2.35c.41,0,.8-.11,1.14-.29,.12,.81,.82,1.44,1.67,1.44,.67,0,1.25-.39,1.52-.96,.52,.76,1.39,1.26,2.38,1.26,1.28,0,2.36-.83,2.73-1.98,.31,.16,.66,.25,1.04,.25,1.25,0,2.26-1.01,2.26-2.26s-1.01-2.26-2.26-2.26Z"/>
            <path class="cls-6" d="M47.3,2.79c-.09,0-.18,0-.27,.02-.34-1.01-1.29-1.73-2.41-1.73-.52,0-1,.16-1.4,.42-.28-.76-1-1.29-1.85-1.29-.96,0-1.76,.69-1.93,1.6-.27-.2-.61-.32-.97-.32-.83,0-1.52,.63-1.62,1.43h-.01c-1.3,0-2.35,1.05-2.35,2.35s1.05,2.35,2.35,2.35c.41,0,.8-.11,1.14-.3,.12,.81,.82,1.44,1.67,1.44,.67,0,1.25-.39,1.52-.96,.52,.76,1.39,1.26,2.38,1.26,1.28,0,2.36-.83,2.73-1.98,.31,.16,.66,.25,1.04,.25,1.25,0,2.26-1.01,2.26-2.26s-1.01-2.26-2.26-2.26Z"/>
          </g>
          <g>
            <g class="cls-9">
              <path class="cls-5" d="M43.51,12.21c.74-1.1,.38-3.13-.14-3.84-.68-.93-1.57-1.35-2.19-1.66-.62-.31-1.98-.86-2.77-.86-1.11,0-1.68,.41-2.57,.65-.97,.26-2.62,1.77-3.52,2.77-1.06,1.16-.79,2.9-.52,3.24,.5,.63,1.12,1.26,1.88,1.63,.74,.35,1.37,.34,1.92,.37,.42,.03,.9,.24,1.99,0,.77-.16,1.14-.22,1.53-.35,.84-.26,3.49-.63,4.39-1.96Z"/>
              <path class="cls-1" d="M43.35,12.16c.74-1.06,.43-3.03-.08-3.75-.67-.93-1.56-1.32-2.18-1.63-.61-.3-1.93-.87-2.71-.88-1.08,0-1.67,.39-2.56,.63-.96,.26-2.58,1.76-3.45,2.71-1.02,1.12-.82,2.82-.53,3.18,.49,.61,1.08,1.23,1.85,1.58,.74,.34,1.36,.3,1.9,.34,.41,.03,.9,.24,1.98,.01,.77-.16,1.15-.23,1.53-.34,.81-.24,3.36-.57,4.25-1.85Z"/>
              <path class="cls-2" d="M43.2,12.11c.73-1.03,.47-2.92-.03-3.65-.66-.94-1.56-1.3-2.17-1.6-.6-.3-1.88-.88-2.65-.89-1.06-.02-1.66,.36-2.54,.6-.96,.26-2.53,1.74-3.38,2.66-.98,1.07-.84,2.73-.54,3.11,.48,.59,1.05,1.2,1.82,1.54,.75,.32,1.35,.26,1.87,.31,.41,.04,.89,.24,1.98,.02,.78-.16,1.16-.24,1.53-.34,.79-.22,3.23-.52,4.12-1.75Z"/>
              <path class="cls-10" d="M43.05,12.07c.73-.99,.52-2.82,.02-3.55-.64-.94-1.55-1.28-2.15-1.58-.58-.29-1.83-.88-2.6-.9-1.03-.03-1.66,.34-2.53,.57-.95,.26-2.49,1.73-3.3,2.61-.95,1.03-.87,2.65-.55,3.04,.46,.57,1.02,1.17,1.79,1.49,.75,.3,1.34,.22,1.84,.27,.4,.04,.89,.24,1.97,.02,.78-.16,1.17-.24,1.53-.34,.76-.2,3.11-.46,3.98-1.64Z"/>
              <path class="cls-11" d="M42.89,12.02c.73-.95,.56-2.71,.07-3.45-.63-.94-1.55-1.26-2.14-1.55-.57-.28-1.78-.89-2.54-.92-1-.04-1.65,.31-2.51,.55-.94,.26-2.45,1.71-3.23,2.56-.91,.99-.9,2.57-.56,2.98,.45,.55,.98,1.14,1.76,1.44s1.33,.19,1.82,.24c.39,.04,.89,.24,1.97,.02,.79-.15,1.18-.25,1.53-.33,.74-.17,2.98-.4,3.84-1.54Z"/>
              <path class="cls-24" d="M42.74,11.97c.73-.92,.61-2.61,.12-3.36-.62-.95-1.54-1.24-2.13-1.52-.56-.27-1.73-.89-2.48-.93-.97-.04-1.64,.29-2.5,.52-.94,.26-2.41,1.69-3.16,2.5-.87,.95-.92,2.48-.57,2.91,.43,.53,.95,1.11,1.73,1.4s1.32,.15,1.79,.21c.39,.05,.88,.24,1.97,.03,.79-.15,1.19-.26,1.53-.33,.71-.15,2.85-.35,3.71-1.43Z"/>
              <path class="cls-23" d="M42.59,11.92c.72-.88,.65-2.5,.17-3.26-.6-.95-1.54-1.21-2.12-1.5-.54-.26-1.68-.9-2.42-.94-.94-.05-1.63,.26-2.48,.5-.93,.26-2.37,1.68-3.08,2.45-.84,.9-.95,2.4-.59,2.84,.41,.51,.92,1.08,1.7,1.35s1.31,.11,1.76,.17c.38,.05,.88,.24,1.96,.03,.8-.15,1.2-.26,1.53-.33,.69-.13,2.73-.29,3.57-1.32Z"/>
              <path class="cls-22" d="M42.43,11.87c.72-.84,.7-2.4,.22-3.16-.59-.95-1.53-1.19-2.11-1.47-.53-.26-1.63-.91-2.37-.95-.92-.06-1.63,.24-2.47,.47-.92,.26-2.33,1.66-3.01,2.4-.8,.86-.98,2.31-.6,2.78s.88,1.05,1.67,1.3,1.3,.08,1.74,.14c.38,.06,.87,.24,1.96,.03,.8-.15,1.21-.27,1.53-.32,.66-.11,2.6-.23,3.44-1.22Z"/>
              <path class="cls-26" d="M42.28,11.82c.72-.81,.74-2.29,.27-3.07-.58-.95-1.52-1.17-2.1-1.44-.52-.25-1.59-.91-2.31-.97-.89-.07-1.62,.21-2.45,.45-.92,.26-2.28,1.65-2.94,2.35-.76,.82-1.01,2.23-.61,2.71s.85,1.02,1.64,1.26,1.29,.04,1.71,.11c.37,.06,.87,.24,1.95,.04,.81-.15,1.22-.28,1.53-.32,.64-.09,2.47-.18,3.3-1.11Z"/>
              <path class="cls-25" d="M42.13,11.78c.71-.77,.78-2.19,.32-2.97-.57-.96-1.52-1.15-2.09-1.42-.5-.24-1.54-.92-2.25-.98-.86-.08-1.61,.19-2.44,.42-.91,.26-2.24,1.63-2.86,2.29-.73,.77-1.03,2.14-.62,2.65,.37,.45,.82,.99,1.61,1.21s1.28,0,1.68,.07c.37,.06,.87,.24,1.95,.04,.81-.15,1.23-.28,1.52-.32,.61-.07,2.35-.12,3.17-1Z"/>
              <path class="cls-16" d="M41.97,11.73c.71-.73,.83-2.08,.37-2.87-.56-.96-1.51-1.12-2.07-1.39-.49-.23-1.49-.92-2.19-.99-.83-.08-1.61,.16-2.42,.39-.9,.26-2.2,1.62-2.79,2.24-.69,.73-1.06,2.06-.63,2.58,.35,.43,.78,.96,1.58,1.16s1.27-.03,1.66,.04c.36,.07,.86,.24,1.95,.04,.82-.15,1.24-.29,1.52-.31,.59-.04,2.22-.06,3.03-.9Z"/>
              <path class="cls-15" d="M41.82,11.68c.71-.7,.87-1.98,.42-2.77-.54-.96-1.51-1.1-2.06-1.36-.48-.22-1.44-.93-2.14-1.01-.8-.09-1.6,.14-2.41,.37-.9,.26-2.16,1.6-2.72,2.19-.65,.69-1.09,1.97-.64,2.51,.34,.41,.75,.93,1.55,1.12s1.26-.07,1.63,0,.86,.24,1.94,.05c.82-.15,1.26-.3,1.52-.31,.56-.02,2.09,0,2.9-.79Z"/>
              <path class="cls-13" d="M41.67,11.63c.71-.66,.92-1.87,.47-2.68-.53-.96-1.5-1.08-2.05-1.34-.46-.22-1.39-.93-2.08-1.02-.78-.1-1.59,.11-2.39,.34-.89,.26-2.12,1.58-2.64,2.14-.61,.65-1.12,1.89-.65,2.45,.32,.39,.72,.9,1.52,1.07s1.25-.1,1.6-.03,.85,.24,1.94,.05c.83-.14,1.27-.3,1.52-.3,.54,0,1.97,.05,2.76-.68Z"/>
              <path class="cls-14" d="M41.51,11.58c.71-.62,.96-1.77,.52-2.58-.52-.96-1.5-1.06-2.04-1.31-.45-.21-1.34-.94-2.02-1.03-.75-.1-1.59,.09-2.37,.32-.88,.26-2.08,1.57-2.57,2.09-.58,.6-1.14,1.8-.66,2.38,.31,.37,.68,.87,1.49,1.02s1.24-.14,1.58-.06,.85,.24,1.93,.05c.83-.14,1.28-.31,1.52-.3,.51,.02,1.84,.11,2.62-.58Z"/>
              <path class="cls-27" d="M41.36,11.53c.71-.58,1.01-1.66,.57-2.48-.51-.97-1.49-1.04-2.03-1.28-.44-.2-1.29-.94-1.96-1.05-.72-.11-1.58,.06-2.36,.29-.88,.26-2.04,1.55-2.5,2.03-.54,.56-1.17,1.72-.68,2.32,.29,.35,.65,.84,1.46,.98s1.23-.17,1.55-.09c.34,.09,.85,.24,1.93,.06,.84-.14,1.29-.32,1.52-.3,.49,.04,1.72,.17,2.49-.47Z"/>
              <path class="cls-21" d="M41.21,11.49c.7-.55,1.05-1.56,.63-2.38-.5-.97-1.49-1.01-2.02-1.26-.42-.19-1.24-.95-1.91-1.06s-1.57,.04-2.34,.26c-.87,.26-1.99,1.54-2.42,1.98-.5,.52-1.2,1.64-.69,2.25,.28,.33,.62,.81,1.43,.93s1.22-.21,1.52-.13c.33,.09,.84,.24,1.93,.06,.84-.14,1.3-.32,1.52-.29,.47,.06,1.59,.23,2.35-.36Z"/>
              <path class="cls-19" d="M41.05,11.44c.7-.51,1.09-1.45,.68-2.29-.48-.97-1.48-.99-2.01-1.23-.41-.19-1.2-.95-1.85-1.07s-1.57,.01-2.33,.24c-.86,.26-1.95,1.52-2.35,1.93-.47,.48-1.23,1.55-.7,2.18,.26,.31,.58,.78,1.4,.88s1.21-.24,1.5-.16c.33,.1,.84,.24,1.92,.06,.85-.14,1.31-.33,1.52-.29,.44,.08,1.46,.28,2.22-.26Z"/>
              <path class="cls-20" d="M40.9,11.39c.7-.47,1.14-1.34,.73-2.19-.47-.97-1.48-.97-1.99-1.2-.4-.18-1.15-.95-1.79-1.08s-1.56-.01-2.31,.21c-.86,.26-1.91,1.51-2.28,1.88-.43,.43-1.25,1.47-.71,2.12,.24,.29,.55,.75,1.37,.84s1.2-.28,1.47-.19c.32,.1,.84,.24,1.92,.07,.85-.14,1.32-.34,1.52-.29,.42,.11,1.34,.34,2.08-.15Z"/>
              <path class="cls-18" d="M40.75,11.34c.7-.43,1.18-1.24,.78-2.09-.46-.97-1.47-.95-1.98-1.18-.38-.17-1.1-.96-1.73-1.1s-1.55-.04-2.3,.19c-.85,.26-1.87,1.49-2.21,1.82-.39,.39-1.28,1.38-.72,2.05,.23,.27,.52,.72,1.34,.79s1.19-.31,1.44-.23c.31,.11,.83,.24,1.92,.07,.86-.14,1.33-.35,1.52-.28,.39,.13,1.22,.4,1.95-.04Z"/>
              <path class="cls-17" d="M40.59,11.29c.7-.39,1.22-1.13,.83-2-.45-.98-1.46-.93-1.97-1.15-.37-.16-1.05-.96-1.68-1.11-.58-.14-1.54-.06-2.28,.16-.84,.26-1.83,1.47-2.13,1.77-.36,.35-1.31,1.3-.73,1.98,.21,.25,.49,.69,1.31,.74,.84,.05,1.18-.35,1.42-.26,.31,.11,.83,.25,1.91,.08,.86-.13,1.34-.35,1.52-.28,.37,.15,1.09,.46,1.81,.06Z"/>
              <path class="cls-28" d="M40.44,11.24c.7-.35,1.27-1.03,.88-1.9-.44-.98-1.46-.91-1.96-1.12-.36-.16-1-.96-1.62-1.12-.55-.14-1.54-.09-2.27,.14-.84,.26-1.79,1.46-2.06,1.72-.32,.3-1.34,1.22-.74,1.92,.2,.23,.45,.66,1.27,.7,.85,.03,1.17-.38,1.39-.29,.3,.12,.82,.25,1.91,.08,.87-.13,1.35-.36,1.52-.28,.34,.17,.97,.52,1.68,.17Z"/>
              <path class="cls-8" d="M40.29,11.2c.7-.31,1.31-.92,.93-1.8-.43-.98-1.45-.88-1.95-1.1-.34-.15-.96-.96-1.56-1.14-.53-.15-1.53-.11-2.25,.11-.83,.26-1.74,1.44-1.99,1.67-.28,.26-1.37,1.13-.75,1.85,.18,.21,.42,.63,1.24,.65,.85,.02,1.16-.41,1.36-.33,.29,.13,.82,.25,1.9,.08,.87-.13,1.36-.37,1.52-.27,.32,.19,.84,.58,1.54,.27Z"/>
            </g>
            <path class="cls-4" d="M39.83,8.22c-.2,0-.38,.02-.56,.08-.23-1.17-1.23-2.07-2.47-2.14-1.2-.06-2.26,.69-2.64,1.77h0c-1.02-.05-1.89,.73-1.94,1.75-.05,1.02,.73,1.89,1.75,1.94,.53,.03,1.01-.17,1.36-.5,.35,.21,.76,.33,1.2,.36,.78,.04,1.5-.26,2.01-.77,.26,.34,.67,.57,1.13,.59,.85,.04,1.57-.61,1.61-1.45,.04-.85-.61-1.57-1.45-1.61Z"/>
          </g>
        </g>
        <g>
          <g>
            <g class="cls-9">
              <path class="cls-5" d="M25.61,14.06c1.84-1.56,1.51-6.39,.57-7.68-1.24-1.7-2.55-2.73-3.68-3.29-1.13-.57-4.31-1.06-5.76-1.06-2.02,0-4.01,.49-5.64,.93-1.76,.47-5.23,1.74-6.88,3.54-1.92,2.11-.23,6.3,.26,6.92,.92,1.15,2.03,2.29,3.43,2.96,1.34,.64,2.5,.61,3.5,.68,.76,.05,4.12,.43,6.09,.02,1.4-.29,3.77-.72,4.44-1.06,.63-.31,2.19-.72,3.66-1.96Z"/>
              <path class="cls-1" d="M25.32,13.9c1.81-1.51,1.51-6.18,.58-7.49-1.21-1.7-2.52-2.68-3.64-3.23-1.11-.55-4.15-1.04-5.58-1.06-1.97-.01-3.95,.46-5.57,.89-1.75,.47-5.18,1.74-6.77,3.48-1.86,2.03-.27,6.11,.25,6.76,.89,1.11,1.94,2.25,3.34,2.9,1.32,.62,2.47,.56,3.43,.64,.75,.06,4,.48,5.97,.07,1.41-.29,3.69-.76,4.34-1.08,.63-.31,2.17-.68,3.63-1.89Z"/>
              <path class="cls-2" d="M25.02,13.74c1.79-1.46,1.51-5.97,.59-7.29-1.19-1.71-2.48-2.62-3.59-3.17-1.08-.54-3.98-1.03-5.4-1.06-1.92-.03-3.89,.42-5.49,.86-1.74,.47-5.13,1.74-6.66,3.41-1.79,1.95-.31,5.92,.24,6.6,.87,1.08,1.85,2.2,3.26,2.84,1.31,.6,2.43,.52,3.37,.6,.74,.07,3.87,.53,5.84,.13,1.42-.29,3.61-.79,4.24-1.11s2.14-.63,3.59-1.82Z"/>
              <path class="cls-10" d="M24.72,13.58c1.76-1.41,1.51-5.76,.6-7.1-1.17-1.71-2.45-2.57-3.55-3.11-1.06-.52-3.82-1.02-5.21-1.05-1.87-.05-3.83,.39-5.42,.82-1.73,.47-5.08,1.74-6.55,3.35-1.72,1.88-.35,5.73,.23,6.45,.84,1.04,1.77,2.15,3.17,2.77,1.29,.58,2.4,.48,3.31,.57,.73,.07,3.74,.58,5.71,.18,1.42-.28,3.53-.83,4.15-1.14s2.12-.59,3.56-1.74Z"/>
              <path class="cls-11" d="M24.42,13.42c1.74-1.36,1.51-5.55,.61-6.9-1.14-1.72-2.42-2.52-3.51-3.05-1.03-.51-3.65-1-5.03-1.05-1.82-.07-3.77,.36-5.35,.79-1.72,.47-5.02,1.75-6.44,3.28-1.66,1.8-.39,5.54,.21,6.29,.81,1,1.68,2.1,3.08,2.71,1.28,.55,2.37,.43,3.25,.53,.72,.08,3.62,.63,5.59,.24,1.43-.28,3.45-.86,4.05-1.16s2.1-.55,3.53-1.67Z"/>
              <path class="cls-24" d="M24.13,13.26c1.71-1.31,1.51-5.35,.63-6.71-1.12-1.72-2.39-2.46-3.46-2.99-1.01-.5-3.49-.99-4.85-1.05-1.77-.08-3.72,.32-5.27,.75-1.7,.47-4.97,1.75-6.33,3.22-1.59,1.72-.43,5.35,.2,6.13,.78,.96,1.59,2.05,3,2.65,1.26,.53,2.34,.39,3.18,.49,.71,.09,3.49,.68,5.46,.3,1.44-.28,3.37-.9,3.95-1.19,.61-.31,2.08-.51,3.5-1.6Z"/>
              <path class="cls-23" d="M23.83,13.11c1.69-1.27,1.51-5.14,.64-6.51-1.1-1.73-2.36-2.41-3.42-2.92-.99-.48-3.32-.98-4.67-1.05-1.72-.1-3.66,.29-5.2,.72-1.69,.47-4.92,1.75-6.22,3.15-1.52,1.64-.48,5.16,.19,5.97,.76,.93,1.5,2,2.91,2.58,1.25,.51,2.31,.35,3.12,.46,.7,.09,3.36,.73,5.33,.35,1.45-.28,3.29-.93,3.85-1.22,.61-.31,2.06-.47,3.46-1.53Z"/>
              <path class="cls-22" d="M23.53,12.95c1.66-1.22,1.51-4.93,.65-6.32-1.08-1.73-2.33-2.35-3.38-2.86-.96-.46-3.16-.96-4.49-1.05-1.67-.11-3.6,.26-5.13,.68-1.68,.47-4.87,1.75-6.11,3.09-1.45,1.57-.52,4.97,.18,5.82,.73,.89,1.41,1.96,2.83,2.52,1.23,.49,2.27,.31,3.06,.42,.69,.1,3.24,.78,5.21,.41,1.46-.27,3.21-.97,3.76-1.25,.6-.31,2.03-.43,3.43-1.45Z"/>
              <path class="cls-26" d="M23.23,12.79c1.63-1.17,1.51-4.72,.66-6.13-1.05-1.73-2.29-2.3-3.33-2.8-.94-.45-2.99-.95-4.31-1.05-1.61-.12-3.54,.23-5.05,.65-1.67,.47-4.82,1.75-6.01,3.02-1.39,1.49-.56,4.77,.16,5.66s1.32,1.91,2.74,2.45c1.22,.47,2.24,.26,3,.38,.68,.11,3.11,.83,5.08,.46,1.47-.27,3.14-1,3.66-1.27,.6-.31,2.01-.39,3.4-1.38Z"/>
              <path class="cls-25" d="M22.94,12.63c1.61-1.12,1.51-4.51,.67-5.93-1.03-1.74-2.26-2.25-3.29-2.74-.92-.44-2.83-.93-4.13-1.05-1.56-.14-3.48,.19-4.98,.62-1.66,.47-4.77,1.75-5.9,2.95-1.32,1.41-.6,4.58,.15,5.5,.67,.82,1.23,1.86,2.66,2.39,1.2,.45,2.21,.22,2.93,.35,.67,.11,2.98,.88,4.95,.52,1.48-.27,3.06-1.04,3.56-1.3,.59-.31,1.99-.35,3.37-1.31Z"/>
              <path class="cls-16" d="M22.64,12.47c1.58-1.07,1.51-4.3,.68-5.74-1.01-1.74-2.23-2.19-3.25-2.68-.89-.42-2.66-.92-3.95-1.05-1.51-.15-3.42,.16-4.91,.58-1.64,.47-4.72,1.75-5.79,2.89-1.25,1.33-.64,4.39,.14,5.34,.64,.78,1.14,1.81,2.57,2.33,1.19,.43,2.18,.18,2.87,.31,.66,.12,2.85,.93,4.83,.57,1.49-.27,2.98-1.07,3.46-1.33,.59-.31,1.97-.31,3.34-1.24Z"/>
              <path class="cls-15" d="M22.34,12.31c1.55-1.02,1.51-4.09,.69-5.54-.99-1.75-2.2-2.14-3.2-2.61-.87-.41-2.5-.9-3.77-1.05-1.46-.17-3.37,.13-4.83,.55-1.63,.47-4.67,1.75-5.68,2.82-1.19,1.25-.69,4.2,.13,5.19,.61,.75,1.05,1.77,2.48,2.26,1.17,.41,2.14,.14,2.81,.27s2.73,.98,4.7,.63c1.5-.26,2.9-1.11,3.37-1.35,.59-.31,1.94-.27,3.3-1.16Z"/>
              <path class="cls-13" d="M22.04,12.15c1.53-.98,1.51-3.89,.7-5.35-.97-1.75-2.16-2.09-3.16-2.55-.84-.39-2.33-.89-3.59-1.05-1.41-.18-3.31,.09-4.76,.51-1.62,.47-4.61,1.75-5.57,2.76-1.12,1.18-.73,4.01,.11,5.03,.59,.71,.97,1.72,2.4,2.2,1.16,.39,2.11,.1,2.75,.24s2.6,1.03,4.57,.69c1.5-.26,2.82-1.14,3.27-1.38,.58-.31,1.92-.22,3.27-1.09Z"/>
              <path class="cls-14" d="M21.75,12c1.5-.93,1.51-3.68,.72-5.15-.95-1.75-2.13-2.03-3.12-2.49-.82-.38-2.17-.87-3.4-1.05-1.36-.19-3.25,.06-4.68,.48-1.61,.47-4.56,1.75-5.46,2.69-1.05,1.1-.77,3.82,.1,4.87,.56,.67,.88,1.67,2.31,2.14,1.14,.37,2.08,.06,2.69,.2s2.47,1.08,4.45,.74c1.51-.26,2.74-1.18,3.17-1.41,.58-.31,1.9-.18,3.24-1.02Z"/>
              <path class="cls-27" d="M21.45,11.84c1.47-.88,1.51-3.47,.73-4.96-.92-1.76-2.1-1.98-3.07-2.43-.79-.37-2-.86-3.22-1.04-1.31-.2-3.19,.03-4.61,.44-1.6,.47-4.51,1.76-5.35,2.63-.98,1.02-.81,3.63,.09,4.71,.53,.64,.79,1.63,2.23,2.07,1.13,.35,2.05,.02,2.62,.16,.61,.16,2.35,1.13,4.32,.8,1.52-.26,2.66-1.21,3.07-1.44,.57-.31,1.87-.14,3.21-.94Z"/>
              <path class="cls-21" d="M21.15,11.68c1.44-.84,1.51-3.26,.74-4.77-.9-1.76-2.07-1.93-3.03-2.37-.77-.35-1.84-.84-3.04-1.04s-3.13,0-4.54,.41c-1.58,.47-4.46,1.76-5.24,2.56-.92,.94-.85,3.44,.08,4.55,.5,.6,.7,1.58,2.14,2.01,1.11,.33,2.02-.02,2.56,.13,.6,.17,2.22,1.18,4.19,.85,1.53-.25,2.58-1.25,2.98-1.46,.57-.31,1.85-.11,3.17-.87Z"/>
              <path class="cls-19" d="M20.85,11.52c1.42-.79,1.51-3.05,.75-4.57-.88-1.77-2.04-1.87-2.99-2.3-.75-.34-1.67-.82-2.86-1.04s-3.08-.04-4.46,.37c-1.57,.47-4.41,1.76-5.14,2.5-.85,.87-.9,3.25,.06,4.4,.47,.57,.61,1.53,2.05,1.95,1.1,.31,1.98-.06,2.5,.09,.59,.18,2.09,1.23,4.06,.91,1.54-.25,2.5-1.29,2.88-1.49,.57-.31,1.83-.07,3.14-.8Z"/>
              <path class="cls-20" d="M20.56,11.36c1.39-.74,1.51-2.84,.76-4.38-.86-1.77-2-1.82-2.95-2.24-.72-.32-1.51-.8-2.68-1.04s-3.02-.07-4.39,.34c-1.56,.47-4.36,1.76-5.03,2.43-.78,.79-.94,3.06,.05,4.24,.44,.53,.52,1.49,1.97,1.88,1.08,.29,1.95-.1,2.44,.05,.58,.19,1.97,1.28,3.94,.96,1.55-.25,2.42-1.32,2.78-1.52,.56-.31,1.8-.03,3.11-.73Z"/>
              <path class="cls-18" d="M20.26,11.2c1.36-.7,1.51-2.63,.77-4.18-.84-1.77-1.97-1.77-2.9-2.18-.7-.31-1.35-.79-2.5-1.04s-2.96-.11-4.32,.3c-1.55,.47-4.31,1.76-4.92,2.36-.72,.71-.98,2.87,.04,4.08,.41,.49,.43,1.44,1.88,1.82,1.06,.28,1.92-.14,2.37,.01,.57,.2,1.84,1.34,3.81,1.02,1.56-.25,2.35-1.36,2.68-1.54,.56-.31,1.78,.01,3.08-.65Z"/>
              <path class="cls-17" d="M19.96,11.05c1.33-.65,1.5-2.42,.78-3.99-.82-1.78-1.94-1.72-2.86-2.12-.67-.3-1.18-.77-2.32-1.04-1.06-.25-2.9-.14-4.24,.27-1.54,.47-4.26,1.76-4.81,2.3-.65,.63-1.03,2.68,.03,3.92,.39,.46,.34,1.4,1.8,1.76,1.05,.26,1.88-.18,2.31-.02,.56,.21,1.71,1.39,3.68,1.08,1.57-.24,2.27-1.39,2.59-1.57,.55-.31,1.76,.05,3.04-.58Z"/>
              <path class="cls-28" d="M19.66,10.89c1.3-.61,1.5-2.21,.79-3.79-.8-1.78-1.91-1.66-2.82-2.06-.65-.28-1.02-.75-2.14-1.04-1.01-.26-2.84-.17-4.17,.23-1.52,.47-4.21,1.76-4.7,2.23-.58,.55-1.07,2.49,.01,3.77,.36,.42,.25,1.35,1.71,1.69,1.03,.24,1.85-.22,2.25-.06,.55,.22,1.58,1.44,3.56,1.13,1.58-.24,2.19-1.43,2.49-1.6,.55-.31,1.73,.09,3.01-.51Z"/>
              <path class="cls-8" d="M19.37,10.73c1.28-.56,1.5-2,.8-3.6-.78-1.78-1.87-1.61-2.77-2-.62-.27-.85-.73-1.96-1.04-.96-.27-2.78-.21-4.1,.2-1.51,.47-4.15,1.76-4.59,2.17-.51,.48-1.12,2.3,0,3.61,.33,.39,.16,1.31,1.63,1.63,1.02,.22,1.82-.26,2.19-.1,.54,.23,1.46,1.49,3.43,1.19,1.58-.24,2.11-1.46,2.39-1.62,.55-.31,1.71,.13,2.98-.44Z"/>
            </g>
            <path class="cls-4" d="M17.66,4.73c-.07,0-.14,0-.2,0-.37-1.04-1.36-1.79-2.53-1.79-.35,0-.68,.07-.99,.19-.36-1-1.32-1.72-2.45-1.72s-2.03,.68-2.42,1.64c-.13-.02-.26-.04-.39-.04-1.18,0-2.16,.9-2.28,2.05-.16-.03-.34-.05-.51-.05-1.43,0-2.58,1.16-2.58,2.58s1.16,2.58,2.58,2.58c.02,0,.04,0,.07,0,.25,1.04,1.19,1.82,2.31,1.82,.87,0,1.63-.46,2.04-1.16,.57,.97,1.62,1.62,2.82,1.62,1.33,0,2.48-.8,2.99-1.94,.45,.26,.98,.41,1.54,.41,1.71,0,3.1-1.39,3.1-3.1s-1.39-3.1-3.1-3.1Z"/>
            <path class="cls-3" d="M17.77,4.83c-.07,0-.14,0-.2,0-.37-1.04-1.36-1.79-2.53-1.79-.35,0-.68,.07-.99,.19-.36-1-1.32-1.72-2.45-1.72s-2.03,.68-2.42,1.64c-.13-.02-.26-.04-.39-.04-1.18,0-2.16,.9-2.28,2.05-.17-.03-.34-.05-.51-.05-1.43,0-2.58,1.16-2.58,2.58s1.16,2.58,2.58,2.58c.02,0,.04,0,.07,0,.25,1.04,1.19,1.82,2.31,1.82,.87,0,1.63-.46,2.04-1.16,.57,.97,1.62,1.62,2.82,1.62,1.33,0,2.48-.8,2.99-1.94,.45,.26,.98,.41,1.54,.41,1.71,0,3.1-1.39,3.1-3.1s-1.39-3.1-3.1-3.1Z"/>
          </g>
          <g>
            <g class="cls-9">
              <path class="cls-5" d="M16.77,9.34c1.04-1.54,.54-4.4-.19-5.39-.95-1.31-2.44-1.49-3.32-1.93-.87-.44-2.53-1.61-3.64-1.61-1.56,0-2.35,.58-3.61,.91-1.36,.36-3.67,2.49-4.94,3.88C-.42,6.84-.04,9.28,.34,9.76c.71,.89,1.57,1.77,2.64,2.29,1.03,.49,1.93,.47,2.7,.52,.58,.04,1.27,.33,2.79,.01,1.08-.22,1.59-.31,2.15-.49,1.17-.37,4.9-.88,6.16-2.75Z"/>
              <path class="cls-1" d="M16.57,9.29c1.04-1.49,.56-4.28-.15-5.27-.94-1.31-2.42-1.47-3.28-1.9-.85-.43-2.46-1.61-3.56-1.62-1.52,0-2.34,.54-3.59,.88-1.35,.36-3.61,2.47-4.84,3.81C-.29,6.75,0,9.14,.4,9.64c.69,.86,1.52,1.73,2.6,2.22,1.04,.47,1.91,.42,2.66,.48,.58,.05,1.27,.35,2.79,.04,1.09-.22,1.61-.33,2.14-.49,1.14-.34,4.73-.8,5.98-2.6Z"/>
              <path class="cls-2" d="M16.37,9.24c1.03-1.44,.59-4.17-.11-5.14-.93-1.31-2.4-1.44-3.25-1.86-.84-.41-2.39-1.62-3.48-1.64-1.48-.03-2.33,.51-3.57,.84-1.34,.36-3.56,2.44-4.74,3.73C-.16,6.67,.04,9,.46,9.53c.67,.83,1.47,1.68,2.56,2.16,1.05,.45,1.9,.37,2.62,.43,.57,.05,1.27,.38,2.79,.07,1.09-.22,1.62-.35,2.14-.49,1.11-.31,4.56-.72,5.8-2.45Z"/>
              <path class="cls-10" d="M16.17,9.18c1.03-1.39,.61-4.05-.07-5.02-.93-1.31-2.37-1.42-3.22-1.83-.82-.4-2.32-1.62-3.4-1.65-1.44-.04-2.32,.47-3.55,.81-1.33,.36-3.5,2.42-4.63,3.66C-.03,6.59,.08,8.86,.53,9.41c.65,.8,1.43,1.65,2.52,2.09s1.89,.31,2.59,.38c.56,.06,1.27,.4,2.79,.09,1.1-.22,1.63-.36,2.14-.49,1.07-.27,4.39-.64,5.62-2.3Z"/>
              <path class="cls-11" d="M15.97,9.13c1.02-1.34,.64-3.94-.03-4.89-.92-1.31-2.35-1.39-3.18-1.8-.8-.39-2.25-1.63-3.32-1.67-1.4-.05-2.31,.44-3.53,.77-1.32,.36-3.44,2.4-4.53,3.59C.1,6.51,.12,8.72,.59,9.3c.63,.77,1.38,1.6,2.47,2.02s1.87,.26,2.55,.34c.55,.06,1.27,.42,2.79,.12,1.11-.22,1.64-.38,2.13-.5,1.04-.24,4.23-.57,5.44-2.15Z"/>
              <path class="cls-24" d="M15.77,9.08c1.02-1.29,.67-3.83,0-4.77-.91-1.3-2.32-1.37-3.15-1.77-.78-.38-2.18-1.63-3.23-1.68-1.36-.06-2.3,.4-3.51,.73-1.32,.36-3.38,2.38-4.43,3.51C.23,6.43,.16,8.58,.65,9.18c.6,.74,1.33,1.56,2.43,1.96s1.86,.21,2.51,.29c.55,.07,1.27,.44,2.79,.15,1.11-.22,1.66-.4,2.13-.5,1-.21,4.06-.49,5.26-2Z"/>
              <path class="cls-23" d="M15.57,9.02c1.01-1.23,.69-3.71,.05-4.65-.9-1.3-2.3-1.35-3.12-1.74-.76-.37-2.11-1.64-3.15-1.69-1.32-.07-2.29,.37-3.48,.7-1.31,.36-3.32,2.36-4.33,3.44-1.17,1.27-1.33,3.36-.82,3.99,.58,.72,1.29,1.52,2.39,1.89s1.84,.16,2.47,.24c.54,.07,1.27,.47,2.79,.17,1.12-.21,1.67-.42,2.13-.5,.97-.18,3.89-.41,5.08-1.86Z"/>
              <path class="cls-22" d="M15.36,8.97c1.01-1.18,.72-3.6,.08-4.52-.89-1.3-2.27-1.32-3.08-1.71-.74-.36-2.04-1.64-3.07-1.71-1.28-.08-2.28,.33-3.46,.66-1.3,.36-3.26,2.33-4.22,3.37-1.12,1.21-1.37,3.24-.84,3.9,.56,.69,1.24,1.48,2.35,1.83s1.83,.11,2.44,.2c.53,.08,1.27,.49,2.79,.2,1.13-.21,1.68-.43,2.12-.51,.93-.15,3.72-.33,4.9-1.71Z"/>
              <path class="cls-26" d="M15.16,8.91c1.01-1.13,.74-3.48,.12-4.4-.88-1.3-2.25-1.3-3.05-1.68-.72-.35-1.97-1.64-2.99-1.72-1.25-.1-2.27,.3-3.44,.62-1.29,.36-3.21,2.31-4.12,3.29-1.07,1.15-1.41,3.12-.85,3.81s1.19,1.44,2.3,1.76,1.82,.06,2.4,.15c.52,.08,1.27,.51,2.79,.23,1.13-.21,1.69-.45,2.12-.51,.9-.12,3.56-.25,4.72-1.56Z"/>
              <path class="cls-25" d="M14.96,8.86c1-1.08,.77-3.37,.16-4.27-.87-1.3-2.22-1.27-3.02-1.65-.71-.34-1.9-1.64-2.91-1.73-1.21-.11-2.26,.26-3.42,.59-1.28,.36-3.15,2.29-4.02,3.22-1.02,1.09-1.45,3.01-.87,3.71,.52,.63,1.15,1.4,2.26,1.7s1.8,0,2.36,.1c.51,.09,1.27,.54,2.79,.26,1.14-.21,1.71-.47,2.12-.51,.86-.09,3.39-.17,4.54-1.41Z"/>
              <path class="cls-16" d="M14.76,8.81c1-1.03,.79-3.26,.2-4.15-.86-1.3-2.2-1.25-2.98-1.62-.69-.33-1.83-1.65-2.82-1.75-1.17-.12-2.25,.23-3.4,.55-1.27,.36-3.09,2.27-3.92,3.15-.97,1.03-1.49,2.89-.88,3.62,.5,.6,1.1,1.35,2.22,1.63s1.79-.04,2.32,.06c.51,.09,1.27,.56,2.79,.28,1.15-.21,1.72-.49,2.11-.52,.83-.06,3.22-.09,4.36-1.26Z"/>
              <path class="cls-15" d="M14.56,8.75c1-.98,.82-3.14,.24-4.02-.86-1.3-2.17-1.22-2.95-1.59-.67-.31-1.76-1.65-2.74-1.76-1.13-.13-2.25,.19-3.38,.52-1.26,.36-3.03,2.25-3.81,3.07-.91,.97-1.53,2.77-.9,3.53,.47,.58,1.05,1.31,2.17,1.57s1.77-.09,2.29,.01,1.27,.58,2.79,.31c1.15-.2,1.73-.5,2.11-.52,.79-.03,3.06,0,4.18-1.11Z"/>
              <path class="cls-13" d="M14.36,8.7c1-.92,.85-3.03,.28-3.9-.85-1.3-2.15-1.2-2.92-1.56-.65-.3-1.7-1.65-2.66-1.77-1.09-.14-2.24,.16-3.35,.48-1.25,.36-2.97,2.22-3.71,3-.86,.91-1.56,2.65-.92,3.43,.45,.55,1.01,1.27,2.13,1.5s1.76-.14,2.25-.04,1.27,.6,2.79,.34c1.16-.2,1.75-.52,2.11-.52,.76,0,2.89,.07,4.01-.96Z"/>
              <path class="cls-14" d="M14.16,8.65c.99-.87,.87-2.91,.32-3.77-.84-1.3-2.13-1.18-2.89-1.53-.63-.29-1.63-1.65-2.58-1.79-1.05-.15-2.23,.12-3.33,.44-1.24,.36-2.91,2.2-3.61,2.93-.81,.85-1.6,2.53-.93,3.34,.43,.52,.96,1.23,2.09,1.43s1.75-.19,2.21-.08,1.27,.63,2.79,.36c1.17-.2,1.76-.54,2.1-.53,.72,.03,2.73,.15,3.83-.81Z"/>
              <path class="cls-27" d="M13.96,8.59c.99-.82,.9-2.8,.36-3.65-.83-1.3-2.1-1.15-2.85-1.5-.61-.28-1.56-1.66-2.5-1.8-1.01-.16-2.22,.09-3.31,.41-1.23,.36-2.86,2.18-3.51,2.85-.76,.79-1.64,2.41-.95,3.25,.41,.49,.91,1.18,2.05,1.37s1.73-.24,2.18-.13c.47,.12,1.27,.65,2.79,.39,1.17-.2,1.77-.56,2.1-.53,.69,.06,2.56,.24,3.65-.66Z"/>
              <path class="cls-21" d="M13.75,8.54c.99-.77,.93-2.69,.4-3.53-.82-1.3-2.08-1.13-2.82-1.47-.59-.27-1.49-1.66-2.42-1.82s-2.21,.05-3.29,.37c-1.22,.36-2.8,2.16-3.4,2.78-.71,.73-1.68,2.29-.96,3.16,.39,.46,.87,1.14,2,1.3s1.72-.29,2.14-.18c.47,.13,1.27,.67,2.79,.42,1.18-.2,1.78-.57,2.1-.53,.65,.09,2.4,.32,3.47-.51Z"/>
              <path class="cls-19" d="M13.55,8.49c.99-.71,.95-2.57,.44-3.4-.81-1.3-2.05-1.11-2.79-1.44-.58-.26-1.42-1.66-2.33-1.83s-2.2,.02-3.27,.34c-1.21,.36-2.74,2.14-3.3,2.71-.66,.67-1.72,2.18-.98,3.06,.36,.44,.82,1.1,1.96,1.24s1.7-.34,2.1-.22c.46,.14,1.27,.69,2.79,.44,1.19-.19,1.8-.59,2.09-.54,.62,.12,2.23,.4,3.29-.36Z"/>
              <path class="cls-20" d="M13.35,8.43c.99-.66,.98-2.46,.48-3.28-.8-1.3-2.03-1.08-2.75-1.41-.56-.25-1.35-1.66-2.25-1.84s-2.19-.02-3.25,.3c-1.2,.36-2.68,2.11-3.2,2.63-.6,.61-1.76,2.06-.99,2.97,.34,.41,.77,1.06,1.92,1.17s1.69-.39,2.06-.27c.45,.14,1.27,.72,2.79,.47,1.2-.19,1.81-.61,2.09-.54,.58,.15,2.07,.48,3.11-.21Z"/>
              <path class="cls-18" d="M13.15,8.38c.99-.6,1.01-2.35,.52-3.15-.79-1.3-2-1.06-2.72-1.38-.54-.24-1.28-1.66-2.17-1.86s-2.18-.05-3.22,.26c-1.19,.36-2.62,2.09-3.09,2.56-.55,.55-1.8,1.94-1.01,2.88,.32,.38,.73,1.01,1.87,1.11,1.17,.09,1.67-.44,2.03-.32,.44,.15,1.27,.74,2.79,.5,1.2-.19,1.82-.63,2.09-.54,.55,.18,1.9,.56,2.93-.06Z"/>
              <path class="cls-17" d="M12.95,8.32c.99-.55,1.03-2.23,.55-3.03-.78-1.3-1.98-1.04-2.69-1.35-.52-.23-1.21-1.66-2.09-1.87-.81-.2-2.17-.09-3.2,.23-1.19,.36-2.56,2.07-2.99,2.49-.5,.49-1.84,1.82-1.03,2.78,.3,.35,.68,.97,1.83,1.04,1.18,.07,1.66-.48,1.99-.36,.43,.16,1.27,.76,2.79,.52,1.21-.19,1.83-.64,2.08-.54,.51,.21,1.74,.65,2.75,.09Z"/>
              <path class="cls-28" d="M12.75,8.27c.98-.49,1.06-2.12,.59-2.9-.77-1.3-1.95-1.01-2.65-1.31-.5-.22-1.14-1.66-2.01-1.88-.78-.2-2.16-.12-3.18,.19-1.18,.36-2.51,2.05-2.89,2.41-.45,.43-1.88,1.71-1.04,2.69,.28,.33,.64,.93,1.79,.98,1.19,.05,1.64-.53,1.95-.41,.42,.17,1.27,.79,2.79,.55,1.22-.19,1.85-.66,2.08-.55,.48,.24,1.58,.73,2.57,.24Z"/>
              <path class="cls-8" d="M12.55,8.22c.98-.43,1.09-2.01,.63-2.78-.76-1.3-1.93-.99-2.62-1.28-.48-.21-1.07-1.66-1.92-1.9-.74-.21-2.15-.16-3.16,.15-1.17,.36-2.45,2.03-2.79,2.34-.4,.37-1.92,1.59-1.06,2.6,.25,.3,.59,.89,1.75,.91,1.2,.03,1.63-.58,1.91-.46,.41,.18,1.27,.81,2.79,.58,1.22-.19,1.86-.68,2.08-.55,.44,.27,1.41,.82,2.39,.39Z"/>
            </g>
            <path class="cls-4" d="M11.61,3.75c-.27-.01-.54,.02-.79,.11-.32-1.64-1.72-2.91-3.47-3-1.69-.09-3.17,.96-3.71,2.48h0c-1.43-.07-2.65,1.02-2.72,2.45-.07,1.43,1.02,2.65,2.45,2.72,.74,.04,1.42-.24,1.91-.71,.5,.29,1.07,.47,1.68,.5,1.1,.06,2.1-.37,2.83-1.08,.37,.48,.94,.8,1.59,.83,1.19,.06,2.2-.85,2.26-2.04,.06-1.19-.85-2.2-2.04-2.26Z"/>
          </g>
        </g>
      </g>
    </g>
  </g>
</svg>