<?xml version="1.0" encoding="UTF-8"?>
<svg xmlns="http://www.w3.org/2000/svg" xmlns:xlink="http://www.w3.org/1999/xlink" viewBox="0 0 12.36 17.07">
  <defs>
    <style>
      .cls-1 {
        fill: #fbfcfc;
        opacity: .03;
      }

      .cls-2 {
        fill: #f7f9fa;
        opacity: .06;
      }

      .cls-3 {
        fill: #f3f6f7;
        opacity: .1;
      }

      .cls-4 {
        fill: url(#linear-gradient);
      }

      .cls-5 {
        fill: #c4f1ff;
      }

      .cls-6 {
        fill: #86a2b0;
      }

      .cls-7 {
        mix-blend-mode: multiply;
      }

      .cls-8 {
        fill: #eff3f5;
        opacity: .13;
      }

      .cls-9 {
        fill: #e4eaed;
        opacity: .23;
      }

      .cls-10 {
        fill: #e8edf0;
        opacity: .19;
      }

      .cls-11 {
        fill: #d8e1e6;
        opacity: .32;
      }

      .cls-12 {
        fill: #ebf0f2;
        opacity: .16;
      }

      .cls-13 {
        fill: url(#linear-gradient-3);
      }

      .cls-14 {
        fill: url(#linear-gradient-2);
      }

      .cls-15 {
        fill: #fff;
        opacity: 0;
      }

      .cls-16 {
        isolation: isolate;
      }

      .cls-17 {
        fill: #b9c9d1;
        opacity: .58;
      }

      .cls-18 {
        fill: #c1cfd6;
        opacity: .52;
      }

      .cls-19 {
        fill: #bdccd4;
        opacity: .55;
      }

      .cls-20 {
        fill: #c4d2d9;
        opacity: .48;
      }

      .cls-21 {
        fill: #92abb8;
        opacity: .9;
      }

      .cls-22 {
        fill: #8ea8b5;
        opacity: .94;
      }

      .cls-23 {
        fill: #9ab1bd;
        opacity: .84;
      }

      .cls-24 {
        fill: #96aeba;
        opacity: .87;
      }

      .cls-25 {
        fill: #a1b7c2;
        opacity: .77;
      }

      .cls-26 {
        fill: #9db4bf;
        opacity: .81;
      }

      .cls-27 {
        fill: #adc0c9;
        opacity: .68;
      }

      .cls-28 {
        fill: #a9bdc7;
        opacity: .71;
      }

      .cls-29 {
        fill: #a5bac4;
        opacity: .74;
      }

      .cls-30 {
        fill: #dce4e8;
        opacity: .29;
      }

      .cls-31 {
        fill: #e0e7eb;
        opacity: .26;
      }

      .cls-32 {
        fill: #c8d5db;
        opacity: .45;
      }

      .cls-33 {
        fill: #ccd8de;
        opacity: .42;
      }

      .cls-34 {
        fill: #d0dbe0;
        opacity: .39;
      }

      .cls-35 {
        fill: #d4dee3;
        opacity: .35;
      }

      .cls-36 {
        fill: #b5c6cf;
        opacity: .61;
      }

      .cls-37 {
        fill: #b1c3cc;
        opacity: .65;
      }

      .cls-38 {
        fill: #8aa5b3;
        opacity: .97;
      }
    </style>
    <linearGradient id="linear-gradient" x1=".46" y1="2.06" x2="4.57" y2="6.17" gradientUnits="userSpaceOnUse">
      <stop offset="0" stop-color="#6bd9ff"/>
      <stop offset="1" stop-color="#3ec9f7"/>
    </linearGradient>
    <linearGradient id="linear-gradient-2" x1=".53" y1="11.91" x2="3.1" y2="14.48" xlink:href="#linear-gradient"/>
    <linearGradient id="linear-gradient-3" x1="5.68" y1="7.64" x2="8.74" y2="10.7" xlink:href="#linear-gradient"/>
  </defs>
  <g class="cls-16">
    <g id="Ebene_2" data-name="Ebene 2">
      <g id="Paper-Icons">
        <g>
          <g>
            <g class="cls-7">
              <path class="cls-15" d="M.35,6.34C.27,4.49,2.55,.45,4.23,.33c1.81-.13,5.52,3.85,5.2,6.54-.38,3.24-4.3,3.85-6.2,3.23C1.23,9.46,.4,7.42,.35,6.34Z"/>
              <path class="cls-1" d="M4.19,.4c1.77-.12,5.38,3.79,5.07,6.42-.37,3.16-4.18,3.77-6.05,3.17C1.26,9.37,.44,7.37,.4,6.31,.32,4.5,2.55,.51,4.19,.4Z"/>
              <path class="cls-2" d="M4.16,.47c1.72-.12,5.25,3.72,4.95,6.31-.36,3.08-4.06,3.69-5.89,3.11C1.29,9.29,.49,7.32,.45,6.29,.37,4.51,2.56,.58,4.16,.47Z"/>
              <path class="cls-3" d="M4.12,.54c1.68-.11,5.12,3.66,4.83,6.19-.35,3-3.94,3.61-5.74,3.05-1.9-.58-2.68-2.52-2.72-3.53C.42,4.52,2.56,.65,4.12,.54Z"/>
              <path class="cls-8" d="M4.09,.61c1.63-.11,4.99,3.59,4.7,6.08-.34,2.93-3.82,3.53-5.58,3-1.87-.56-2.63-2.46-2.67-3.45C.48,4.53,2.57,.71,4.09,.61Z"/>
              <path class="cls-12" d="M4.05,.68c1.59-.11,4.86,3.53,4.58,5.96-.33,2.85-3.7,3.45-5.42,2.94-1.84-.55-2.58-2.41-2.62-3.38-.07-1.67,1.99-5.43,3.46-5.52Z"/>
              <path class="cls-10" d="M4.02,.75c1.54-.1,4.73,3.47,4.46,5.85-.32,2.77-3.58,3.37-5.27,2.88-1.81-.53-2.53-2.35-2.57-3.3-.06-1.63,1.94-5.33,3.38-5.43Z"/>
              <path class="cls-9" d="M3.99,.82c1.5-.1,4.6,3.4,4.33,5.73-.31,2.69-3.46,3.29-5.11,2.82-1.79-.51-2.49-2.3-2.52-3.23-.06-1.59,1.9-5.24,3.3-5.33Z"/>
              <path class="cls-31" d="M3.95,.89c1.45-.09,4.47,3.34,4.21,5.62-.3,2.61-3.34,3.21-4.96,2.76-1.76-.49-2.44-2.24-2.47-3.15-.06-1.55,1.86-5.14,3.22-5.23Z"/>
              <path class="cls-30" d="M3.92,.96c1.4-.09,4.34,3.27,4.09,5.5-.29,2.53-3.21,3.13-4.8,2.7-1.73-.47-2.39-2.19-2.42-3.07-.05-1.52,1.82-5.05,3.13-5.13Z"/>
              <path class="cls-11" d="M3.88,1.03c1.36-.09,4.21,3.21,3.97,5.39-.28,2.45-3.09,3.05-4.65,2.65-1.7-.45-2.34-2.14-2.37-3-.05-1.48,1.78-4.96,3.05-5.04Z"/>
              <path class="cls-35" d="M3.85,1.1c1.31-.08,4.08,3.15,3.84,5.27-.27,2.37-2.97,2.97-4.49,2.59-1.67-.43-2.29-2.08-2.32-2.92-.05-1.44,1.74-4.86,2.97-4.94Z"/>
              <path class="cls-34" d="M3.81,1.17c1.27-.08,3.95,3.08,3.72,5.16-.26,2.29-2.85,2.89-4.33,2.53-1.64-.41-2.24-2.03-2.27-2.85-.05-1.4,1.69-4.77,2.89-4.84Z"/>
              <path class="cls-33" d="M3.78,1.24c1.22-.07,3.82,3.02,3.6,5.04-.25,2.21-2.73,2.82-4.18,2.47-1.61-.39-2.2-1.97-2.22-2.77-.04-1.37,1.65-4.68,2.8-4.74Z"/>
              <path class="cls-32" d="M3.74,1.31c1.18-.07,3.69,2.95,3.47,4.93-.24,2.13-2.61,2.74-4.02,2.41-1.59-.37-2.15-1.92-2.17-2.69-.04-1.33,1.61-4.58,2.72-4.65Z"/>
              <path class="cls-20" d="M3.71,1.38c1.13-.07,3.56,2.89,3.35,4.81-.23,2.05-2.49,2.66-3.87,2.35-1.56-.35-2.1-1.87-2.12-2.62-.04-1.29,1.57-4.49,2.64-4.55Z"/>
              <path class="cls-18" d="M3.68,1.45c1.09-.06,3.43,2.83,3.23,4.7-.21,1.97-2.37,2.58-3.71,2.29-1.53-.33-2.05-1.81-2.07-2.54-.04-1.25,1.53-4.4,2.56-4.45Z"/>
              <path class="cls-19" d="M3.64,1.52c1.04-.06,3.3,2.76,3.1,4.59s-2.25,2.5-3.55,2.24c-1.5-.31-2-1.76-2.02-2.47-.03-1.21,1.49-4.3,2.47-4.35Z"/>
              <path class="cls-17" d="M3.61,1.59c1-.05,3.17,2.7,2.98,4.47s-2.13,2.42-3.4,2.18c-1.47-.29-1.95-1.7-1.97-2.39-.03-1.18,1.44-4.21,2.39-4.26Z"/>
              <path class="cls-36" d="M3.57,1.67c.95-.05,3.04,2.63,2.86,4.36s-2.01,2.34-3.24,2.12c-1.44-.26-1.91-1.65-1.92-2.31-.03-1.14,1.4-4.11,2.31-4.16Z"/>
              <path class="cls-37" d="M3.54,1.74c.9-.05,2.91,2.57,2.73,4.24s-1.89,2.27-3.09,2.06c-1.42-.24-1.86-1.59-1.87-2.24-.03-1.1,1.36-4.02,2.23-4.06Z"/>
              <path class="cls-27" d="M3.5,1.81c.86-.04,2.78,2.51,2.61,4.13s-1.77,2.19-2.93,2c-1.39-.22-1.81-1.54-1.82-2.16-.02-1.06,1.32-3.93,2.14-3.97Z"/>
              <path class="cls-28" d="M3.47,1.88c.81-.04,2.65,2.44,2.49,4.01s-1.65,2.11-2.77,1.94c-1.36-.2-1.76-1.49-1.77-2.09-.02-1.03,1.28-3.83,2.06-3.87Z"/>
              <path class="cls-29" d="M3.44,1.95c.77-.03,2.52,2.38,2.36,3.9-.14,1.41-1.54,2.03-2.62,1.88-1.33-.18-1.71-1.43-1.72-2.01-.02-.99,1.23-3.74,1.98-3.77Z"/>
              <path class="cls-25" d="M3.4,2.02c.72-.03,2.38,2.31,2.24,3.78-.13,1.34-1.42,1.95-2.46,1.83-1.3-.16-1.66-1.38-1.67-1.93-.02-.95,1.19-3.65,1.9-3.67Z"/>
              <path class="cls-26" d="M3.37,2.09c.68-.02,2.25,2.25,2.12,3.67-.12,1.26-1.3,1.88-2.31,1.77-1.28-.14-1.62-1.32-1.62-1.86-.01-.91,1.15-3.55,1.81-3.58Z"/>
              <path class="cls-23" d="M3.33,2.16c.63-.02,2.12,2.19,1.99,3.55-.11,1.18-1.18,1.8-2.15,1.71-1.25-.12-1.57-1.27-1.57-1.78-.01-.88,1.11-3.46,1.73-3.48Z"/>
              <path class="cls-24" d="M3.3,2.23c.59-.02,1.99,2.12,1.87,3.44-.1,1.1-1.06,1.72-2,1.65-1.22-.09-1.52-1.21-1.52-1.71,0-.84,1.07-3.37,1.65-3.38Z"/>
              <path class="cls-21" d="M3.26,2.3c.54-.01,1.86,2.06,1.75,3.32-.09,1.02-.94,1.65-1.84,1.59-1.19-.07-1.47-1.16-1.47-1.63,0-.8,1.03-3.27,1.57-3.28Z"/>
              <path class="cls-22" d="M3.23,2.37c.5,0,1.73,1.99,1.62,3.21-.08,.94-.82,1.57-1.68,1.53-1.16-.05-1.42-1.11-1.42-1.55,0-.76,.98-3.18,1.48-3.19Z"/>
              <path class="cls-38" d="M3.19,2.44c.45,0,1.6,1.93,1.5,3.09-.07,.86-.7,1.49-1.53,1.48-1.13-.02-1.37-1.05-1.37-1.48,0-.72,.94-3.08,1.4-3.09Z"/>
              <path class="cls-6" d="M3.16,2.51c.4,0,1.47,1.87,1.38,2.98-.06,.78-.58,1.42-1.37,1.42-1.11,0-1.33-1-1.32-1.4,0-.69,.9-2.99,1.32-2.99Z"/>
            </g>
            <path class="cls-5" d="M4.56,5c0,1.24-1,2.24-2.24,2.24S0,6.23,0,5C0,2.9,2.35,.09,2.35,.09l.17-.09s0,.1,.04,.16c.43,.67,2.01,3.23,2.01,4.84Z"/>
            <path class="cls-4" d="M4.76,5.06c0,1.24-1,2.24-2.24,2.24S.27,6.3,.27,5.06C.27,3.2,2.51,0,2.51,0c0,0,2.24,3.2,2.24,5.06Z"/>
          </g>
          <g>
            <g class="cls-7">
              <path class="cls-15" d="M.46,14.59c-.05-1.16,1.37-3.68,2.42-3.76,1.13-.08,3.45,2.41,3.25,4.09-.24,2.03-2.69,2.4-3.88,2.02-1.24-.4-1.77-1.67-1.79-2.35Z"/>
              <path class="cls-1" d="M2.86,10.88c1.1-.08,3.36,2.37,3.17,4.01-.23,1.98-2.61,2.36-3.78,1.98-1.22-.39-1.74-1.64-1.76-2.3-.05-1.14,1.35-3.63,2.37-3.7Z"/>
              <path class="cls-2" d="M2.84,10.92c1.08-.07,3.28,2.33,3.09,3.94-.23,1.93-2.54,2.31-3.68,1.95-1.21-.38-1.7-1.61-1.73-2.25-.05-1.11,1.32-3.57,2.32-3.64Z"/>
              <path class="cls-3" d="M2.82,10.97c1.05-.07,3.2,2.29,3.02,3.87-.22,1.88-2.46,2.25-3.58,1.91-1.19-.37-1.67-1.57-1.7-2.21-.04-1.09,1.29-3.51,2.27-3.57Z"/>
              <path class="cls-8" d="M2.8,11.01c1.02-.07,3.12,2.25,2.94,3.8-.21,1.83-2.38,2.21-3.49,1.87-1.17-.35-1.64-1.54-1.67-2.16-.04-1.07,1.27-3.45,2.22-3.51Z"/>
              <path class="cls-12" d="M2.78,11.05c.99-.07,3.04,2.21,2.86,3.73-.21,1.78-2.31,2.16-3.39,1.84-1.15-.34-1.61-1.5-1.64-2.11-.04-1.04,1.24-3.39,2.16-3.45Z"/>
              <path class="cls-10" d="M2.75,11.1c.96-.06,2.96,2.17,2.79,3.65-.2,1.73-2.23,2.11-3.29,1.8-1.13-.33-1.58-1.47-1.61-2.06-.04-1.02,1.21-3.33,2.11-3.39Z"/>
              <path class="cls-9" d="M2.73,11.14c.93-.06,2.88,2.13,2.71,3.58-.19,1.68-2.16,2.06-3.2,1.76-1.12-.32-1.55-1.44-1.57-2.02-.04-1,1.19-3.27,2.06-3.33Z"/>
              <path class="cls-31" d="M2.71,11.19c.91-.06,2.79,2.09,2.63,3.51-.19,1.63-2.08,2.01-3.1,1.73-1.1-.3-1.52-1.4-1.54-1.97-.04-.97,1.16-3.22,2.01-3.27Z"/>
              <path class="cls-30" d="M2.69,11.23c.88-.06,2.71,2.05,2.55,3.44-.18,1.58-2.01,1.96-3,1.69-1.08-.29-1.49-1.37-1.51-1.92-.03-.95,1.14-3.16,1.96-3.21Z"/>
              <path class="cls-11" d="M2.67,11.27c.85-.05,2.63,2.01,2.48,3.37-.18,1.53-1.93,1.91-2.9,1.65-1.06-.28-1.46-1.33-1.48-1.87-.03-.92,1.11-3.1,1.91-3.15Z"/>
              <path class="cls-35" d="M2.65,11.32c.82-.05,2.55,1.97,2.4,3.3-.17,1.48-1.86,1.86-2.81,1.62-1.04-.27-1.43-1.3-1.45-1.83-.03-.9,1.08-3.04,1.85-3.09Z"/>
              <path class="cls-34" d="M2.62,11.36c.79-.05,2.47,1.93,2.32,3.22-.16,1.43-1.78,1.81-2.71,1.58-1.03-.25-1.4-1.27-1.42-1.78-.03-.88,1.06-2.98,1.8-3.03Z"/>
              <path class="cls-33" d="M2.6,11.4c.76-.05,2.39,1.89,2.25,3.15-.16,1.38-1.71,1.76-2.61,1.54-1.01-.24-1.37-1.23-1.39-1.73-.03-.85,1.03-2.92,1.75-2.97Z"/>
              <path class="cls-32" d="M2.58,11.45c.74-.04,2.3,1.85,2.17,3.08-.15,1.33-1.63,1.71-2.51,1.51-.99-.23-1.34-1.2-1.36-1.68-.03-.83,1.01-2.86,1.7-2.9Z"/>
              <path class="cls-20" d="M2.56,11.49c.71-.04,2.22,1.81,2.09,3.01-.14,1.28-1.56,1.66-2.42,1.47-.97-.22-1.31-1.17-1.33-1.64-.02-.81,.98-2.81,1.65-2.84Z"/>
              <path class="cls-18" d="M2.54,11.54c.68-.04,2.14,1.77,2.02,2.94-.13,1.23-1.48,1.61-2.32,1.43-.96-.2-1.28-1.13-1.29-1.59-.02-.78,.95-2.75,1.6-2.78Z"/>
              <path class="cls-19" d="M2.52,11.58c.65-.04,2.06,1.73,1.94,2.86s-1.41,1.56-2.22,1.4c-.94-.19-1.25-1.1-1.26-1.54-.02-.76,.93-2.69,1.55-2.72Z"/>
              <path class="cls-17" d="M2.5,11.62c.62-.03,1.98,1.69,1.86,2.79s-1.33,1.51-2.12,1.36c-.92-.18-1.22-1.06-1.23-1.49-.02-.74,.9-2.63,1.49-2.66Z"/>
              <path class="cls-36" d="M2.47,11.67c.59-.03,1.9,1.65,1.78,2.72s-1.26,1.47-2.03,1.32c-.9-.17-1.19-1.03-1.2-1.45-.02-.71,.88-2.57,1.44-2.6Z"/>
              <path class="cls-37" d="M2.45,11.71c.57-.03,1.82,1.61,1.71,2.65s-1.18,1.42-1.93,1.29c-.88-.15-1.16-1-1.17-1.4-.02-.69,.85-2.51,1.39-2.54Z"/>
              <path class="cls-27" d="M2.43,11.76c.54-.03,1.74,1.57,1.63,2.58s-1.11,1.37-1.83,1.25c-.87-.14-1.13-.96-1.14-1.35-.02-.67,.82-2.46,1.34-2.48Z"/>
              <path class="cls-28" d="M2.41,11.8c.51-.02,1.65,1.53,1.55,2.51s-1.03,1.32-1.73,1.21c-.85-.13-1.1-.93-1.11-1.3-.01-.64,.8-2.4,1.29-2.42Z"/>
              <path class="cls-29" d="M2.39,11.84c.48-.02,1.57,1.49,1.48,2.43-.09,.88-.96,1.27-1.64,1.18-.83-.11-1.07-.89-1.08-1.26-.01-.62,.77-2.34,1.24-2.36Z"/>
              <path class="cls-25" d="M2.37,11.89c.45-.02,1.49,1.45,1.4,2.36-.08,.84-.88,1.22-1.54,1.14-.81-.1-1.04-.86-1.05-1.21-.01-.59,.75-2.28,1.18-2.3Z"/>
              <path class="cls-26" d="M2.35,11.93c.42-.02,1.41,1.41,1.32,2.29-.08,.79-.81,1.17-1.44,1.11-.8-.09-1.01-.83-1.01-1.16,0-.57,.72-2.22,1.13-2.24Z"/>
              <path class="cls-23" d="M2.32,11.97c.4-.01,1.33,1.37,1.25,2.22-.07,.74-.74,1.12-1.34,1.07-.78-.07-.98-.79-.98-1.11,0-.55,.69-2.16,1.08-2.17Z"/>
              <path class="cls-24" d="M2.3,12.02c.37-.01,1.24,1.33,1.17,2.15-.06,.69-.66,1.08-1.25,1.03-.76-.06-.95-.76-.95-1.07,0-.52,.67-2.1,1.03-2.11Z"/>
              <path class="cls-21" d="M2.28,12.06c.34,0,1.16,1.29,1.09,2.07-.06,.64-.59,1.03-1.15,1-.74-.04-.92-.72-.92-1.02,0-.5,.64-2.05,.98-2.05Z"/>
              <path class="cls-22" d="M2.26,12.11c.31,0,1.08,1.25,1.02,2-.05,.59-.51,.98-1.05,.96-.73-.03-.89-.69-.89-.97,0-.48,.61-1.99,.93-1.99Z"/>
              <path class="cls-38" d="M2.24,12.15c.28,0,1,1.21,.94,1.93-.05,.54-.44,.93-.96,.92-.71-.01-.86-.66-.86-.92,0-.45,.59-1.93,.88-1.93Z"/>
              <path class="cls-6" d="M2.22,12.19c.25,0,.92,1.17,.86,1.86-.04,.49-.36,.89-.86,.89-.69,0-.83-.62-.83-.88,0-.43,.56-1.87,.82-1.87Z"/>
            </g>
            <path class="cls-5" d="M3.09,13.75c0,.77-.63,1.4-1.4,1.4s-1.45-.63-1.45-1.4c0-1.31,1.47-3.07,1.47-3.07l.11-.06s0,.06,.03,.1c.27,.42,1.25,2.02,1.25,3.02Z"/>
            <path class="cls-14" d="M3.21,13.79c0,.77-.63,1.4-1.4,1.4s-1.4-.63-1.4-1.4c0-1.16,1.4-3.16,1.4-3.16,0,0,1.4,2,1.4,3.16Z"/>
          </g>
          <g>
            <g class="cls-7">
              <path class="cls-15" d="M5.6,10.83c-.06-1.38,1.63-4.38,2.88-4.47,1.35-.09,4.1,2.86,3.87,4.86-.29,2.41-3.2,2.86-4.61,2.4-1.48-.48-2.1-1.99-2.13-2.79Z"/>
              <path class="cls-1" d="M8.46,6.41c1.31-.09,4,2.82,3.77,4.78-.28,2.35-3.11,2.8-4.5,2.36-1.46-.46-2.06-1.95-2.1-2.74-.06-1.35,1.6-4.31,2.82-4.4Z"/>
              <path class="cls-2" d="M8.43,6.46c1.28-.09,3.91,2.77,3.68,4.69-.27,2.29-3.02,2.74-4.38,2.32-1.44-.45-2.03-1.91-2.06-2.68-.05-1.32,1.57-4.24,2.76-4.33Z"/>
              <path class="cls-3" d="M8.4,6.52c1.25-.09,3.81,2.72,3.59,4.61-.26,2.24-2.93,2.69-4.27,2.27-1.41-.43-1.99-1.87-2.02-2.63-.05-1.3,1.54-4.17,2.7-4.25Z"/>
              <path class="cls-8" d="M8.38,6.57c1.21-.08,3.71,2.67,3.5,4.52-.25,2.18-2.84,2.63-4.15,2.23-1.39-.42-1.96-1.83-1.99-2.57-.05-1.27,1.51-4.11,2.64-4.18Z"/>
              <path class="cls-12" d="M8.35,6.62c1.18-.08,3.62,2.63,3.41,4.43-.25,2.12-2.75,2.57-4.03,2.19-1.37-.41-1.92-1.79-1.95-2.51-.05-1.24,1.48-4.04,2.58-4.11Z"/>
              <path class="cls-10" d="M8.33,6.67c1.15-.08,3.52,2.58,3.32,4.35-.24,2.06-2.66,2.51-3.92,2.14-1.35-.39-1.88-1.75-1.91-2.46-.05-1.21,1.45-3.97,2.51-4.04Z"/>
              <path class="cls-9" d="M8.3,6.72c1.11-.07,3.42,2.53,3.22,4.26-.23,2-2.57,2.45-3.8,2.1-1.33-.38-1.85-1.71-1.87-2.4-.04-1.18,1.41-3.9,2.45-3.96Z"/>
              <path class="cls-31" d="M8.28,6.78c1.08-.07,3.32,2.48,3.13,4.18-.22,1.94-2.48,2.39-3.69,2.06-1.31-.36-1.81-1.67-1.84-2.34-.04-1.16,1.38-3.83,2.39-3.89Z"/>
              <path class="cls-30" d="M8.25,6.83c1.04-.07,3.23,2.43,3.04,4.09-.22,1.88-2.39,2.33-3.57,2.01-1.29-.35-1.78-1.63-1.8-2.29-.04-1.13,1.35-3.76,2.33-3.82Z"/>
              <path class="cls-11" d="M8.23,6.88c1.01-.06,3.13,2.39,2.95,4.01-.21,1.82-2.3,2.27-3.45,1.97-1.26-.33-1.74-1.59-1.76-2.23-.04-1.1,1.32-3.69,2.27-3.75Z"/>
              <path class="cls-35" d="M8.2,6.93c.98-.06,3.03,2.34,2.86,3.92-.2,1.76-2.21,2.21-3.34,1.92-1.24-.32-1.71-1.55-1.73-2.17-.04-1.07,1.29-3.62,2.21-3.67Z"/>
              <path class="cls-34" d="M8.17,6.99c.94-.06,2.94,2.29,2.77,3.84-.19,1.7-2.12,2.15-3.22,1.88-1.22-.3-1.67-1.51-1.69-2.12-.04-1.04,1.26-3.55,2.15-3.6Z"/>
              <path class="cls-33" d="M8.15,7.04c.91-.05,2.84,2.24,2.67,3.75-.19,1.64-2.03,2.09-3.11,1.84-1.2-.29-1.63-1.47-1.65-2.06-.03-1.02,1.23-3.48,2.08-3.53Z"/>
              <path class="cls-32" d="M8.12,7.09c.88-.05,2.74,2.2,2.58,3.67-.18,1.59-1.94,2.04-2.99,1.79-1.18-.27-1.6-1.43-1.61-2-.03-.99,1.2-3.41,2.02-3.46Z"/>
              <path class="cls-20" d="M8.1,7.14c.84-.05,2.64,2.15,2.49,3.58-.17,1.53-1.86,1.98-2.88,1.75-1.16-.26-1.56-1.39-1.58-1.95-.03-.96,1.17-3.34,1.96-3.38Z"/>
              <path class="cls-18" d="M8.07,7.19c.81-.05,2.55,2.1,2.4,3.49-.16,1.47-1.77,1.92-2.76,1.71-1.14-.24-1.53-1.35-1.54-1.89-.03-.93,1.14-3.27,1.9-3.31Z"/>
              <path class="cls-19" d="M8.05,7.25c.77-.04,2.45,2.05,2.31,3.41s-1.68,1.86-2.64,1.66c-1.12-.23-1.49-1.31-1.5-1.83-.03-.9,1.1-3.2,1.84-3.24Z"/>
              <path class="cls-17" d="M8.02,7.3c.74-.04,2.36,2.01,2.22,3.32s-1.59,1.8-2.53,1.62c-1.1-.21-1.45-1.27-1.47-1.78-.02-.88,1.07-3.13,1.78-3.17Z"/>
              <path class="cls-36" d="M8,7.35c.71-.04,2.26,1.96,2.12,3.24s-1.5,1.74-2.41,1.58c-1.07-.2-1.42-1.23-1.43-1.72-.02-.85,1.04-3.06,1.72-3.09Z"/>
              <path class="cls-37" d="M7.97,7.4c.67-.03,2.16,1.91,2.03,3.15s-1.41,1.69-2.3,1.53c-1.05-.18-1.38-1.19-1.39-1.66-.02-.82,1.01-2.99,1.66-3.02Z"/>
              <path class="cls-27" d="M7.94,7.46c.64-.03,2.07,1.86,1.94,3.07s-1.32,1.63-2.18,1.49c-1.03-.17-1.35-1.15-1.36-1.61-.02-.79,.98-2.92,1.59-2.95Z"/>
              <path class="cls-28" d="M7.92,7.51c.61-.03,1.97,1.82,1.85,2.98s-1.23,1.57-2.06,1.45c-1.01-.15-1.31-1.11-1.32-1.55-.02-.76,.95-2.85,1.53-2.88Z"/>
              <path class="cls-29" d="M7.89,7.56c.57-.02,1.87,1.77,1.76,2.9-.11,1.05-1.14,1.51-1.95,1.4-.99-.13-1.27-1.06-1.28-1.49-.01-.74,.92-2.78,1.47-2.8Z"/>
              <path class="cls-25" d="M7.87,7.61c.54-.02,1.77,1.72,1.67,2.81-.1,.99-1.05,1.45-1.83,1.36-.97-.12-1.24-1.02-1.24-1.44-.01-.71,.89-2.71,1.41-2.73Z"/>
              <path class="cls-26" d="M7.84,7.66c.5-.02,1.68,1.67,1.57,2.73-.09,.94-.96,1.4-1.72,1.32-.95-.1-1.2-.98-1.21-1.38-.01-.68,.86-2.64,1.35-2.66Z"/>
              <path class="cls-23" d="M7.82,7.72c.47-.02,1.58,1.63,1.48,2.64-.08,.88-.87,1.34-1.6,1.27-.93-.09-1.17-.94-1.17-1.32,0-.65,.83-2.57,1.29-2.59Z"/>
              <path class="cls-24" d="M7.79,7.77c.44-.01,1.48,1.58,1.39,2.55-.08,.82-.79,1.28-1.48,1.23-.91-.07-1.13-.9-1.13-1.27,0-.62,.79-2.5,1.23-2.52Z"/>
              <path class="cls-21" d="M7.77,7.82c.4,0,1.38,1.53,1.3,2.47-.07,.76-.7,1.22-1.37,1.19-.89-.05-1.09-.86-1.1-1.21,0-.6,.76-2.43,1.16-2.44Z"/>
              <path class="cls-22" d="M7.74,7.87c.37,0,1.29,1.48,1.21,2.38-.06,.7-.61,1.17-1.25,1.14-.86-.04-1.06-.82-1.06-1.16,0-.57,.73-2.36,1.1-2.37Z"/>
              <path class="cls-38" d="M7.71,7.93c.34,0,1.19,1.44,1.12,2.3-.05,.64-.52,1.11-1.14,1.1-.84-.02-1.02-.78-1.02-1.1,0-.54,.7-2.3,1.04-2.3Z"/>
              <path class="cls-6" d="M7.69,7.98c.3,0,1.09,1.39,1.02,2.21-.05,.58-.43,1.05-1.02,1.05-.82,0-.99-.74-.99-1.04,0-.51,.67-2.23,.98-2.23Z"/>
            </g>
            <path class="cls-5" d="M8.73,9.83c0,.92-.75,1.67-1.67,1.67s-1.73-.75-1.73-1.67c0-1.56,1.74-3.65,1.74-3.65l.13-.07s0,.07,.03,.12c.32,.49,1.49,2.4,1.49,3.6Z"/>
            <path class="cls-13" d="M8.87,9.88c0,.92-.75,1.67-1.67,1.67s-1.67-.75-1.67-1.67c0-1.38,1.67-3.76,1.67-3.76,0,0,1.67,2.38,1.67,3.76Z"/>
          </g>
        </g>
      </g>
    </g>
  </g>
</svg>