<?xml version="1.0" encoding="UTF-8"?>
<svg xmlns="http://www.w3.org/2000/svg" xmlns:xlink="http://www.w3.org/1999/xlink" viewBox="0 0 29.83 21.66">
  <defs>
    <style>
      .cls-1 {
        fill: none;
      }

      .cls-2 {
        fill: #f9fbfb;
      }

      .cls-2, .cls-3, .cls-4 {
        opacity: .05;
      }

      .cls-3 {
        fill: #fdfaf6;
      }

      .cls-4 {
        fill: #fcf6f6;
      }

      .cls-5 {
        fill: #f8eded;
      }

      .cls-5, .cls-6, .cls-7, .cls-8 {
        opacity: .1;
      }

      .cls-6 {
        fill: #f3f6f7;
      }

      .cls-7 {
        fill: #f4f6f8;
      }

      .cls-8 {
        fill: #faf6ee;
      }

      .cls-9 {
        clip-path: url(#clippath);
      }

      .cls-10 {
        fill: #0095ff;
      }

      .cls-11 {
        fill: #ffa1a1;
      }

      .cls-12, .cls-13 {
        fill: #fff;
      }

      .cls-14 {
        fill: #ffe194;
      }

      .cls-15 {
        fill: #ffc736;
      }

      .cls-16 {
        fill: #ffcf8c;
      }

      .cls-17 {
        fill: red;
      }

      .cls-18 {
        fill: #eef7fa;
      }

      .cls-19 {
        fill: #e4f1f5;
      }

      .cls-20 {
        fill: #ff7b00;
      }

      .cls-21 {
        fill: #ba3d3d;
      }

      .cls-22 {
        fill: #8ba3b5;
      }

      .cls-23 {
        fill: #65bf2e;
      }

      .cls-24 {
        fill: #8f37c4;
      }

      .cls-25 {
        fill: #8df54e;
      }

      .cls-26 {
        fill: #cca048;
      }

      .cls-27 {
        fill: #c86eff;
      }

      .cls-28 {
        fill: #86a2b0;
      }

      .cls-29 {
        fill: #5ebcff;
      }

      .cls-30 {
        mix-blend-mode: multiply;
      }

      .cls-31 {
        fill: #f5e3e3;
      }

      .cls-31, .cls-32, .cls-33 {
        opacity: .14;
      }

      .cls-32 {
        fill: #eef2f4;
      }

      .cls-33 {
        fill: #f8f1e5;
      }

      .cls-34 {
        fill: #e8edf0;
      }

      .cls-34, .cls-35, .cls-36, .cls-37 {
        opacity: .19;
      }

      .cls-35 {
        fill: #e9edf1;
      }

      .cls-36 {
        fill: #f5eddc;
      }

      .cls-37 {
        fill: #f2dada;
      }

      .cls-13 {
        opacity: 0;
      }

      .cls-38 {
        isolation: isolate;
      }

      .cls-39 {
        fill: #bdcad5;
      }

      .cls-39, .cls-40, .cls-41, .cls-42 {
        opacity: .57;
      }

      .cls-40 {
        fill: #d89090;
      }

      .cls-41 {
        fill: #e2c996;
      }

      .cls-42 {
        fill: #bacad2;
      }

      .cls-43 {
        fill: #d48787;
      }

      .cls-43, .cls-44, .cls-45, .cls-46 {
        opacity: .62;
      }

      .cls-44 {
        fill: #dfc48e;
      }

      .cls-45 {
        fill: #b7c6d1;
      }

      .cls-46 {
        fill: #b4c5ce;
      }

      .cls-47 {
        fill: #db9999;
      }

      .cls-47, .cls-48, .cls-49, .cls-50 {
        opacity: .52;
      }

      .cls-48 {
        fill: #c0ced6;
      }

      .cls-49 {
        fill: #c2cfd8;
      }

      .cls-50 {
        fill: #e4cd9f;
      }

      .cls-51 {
        fill: #c8d3dc;
      }

      .cls-51, .cls-52, .cls-53, .cls-54 {
        opacity: .48;
      }

      .cls-52 {
        fill: #c5d3d9;
      }

      .cls-53 {
        fill: #dea3a3;
      }

      .cls-54 {
        fill: #e7d2a8;
      }

      .cls-55 {
        fill: #96acbc;
      }

      .cls-55, .cls-56, .cls-57, .cls-58 {
        opacity: .9;
      }

      .cls-56 {
        fill: #c14f4f;
      }

      .cls-57 {
        fill: #d1a959;
      }

      .cls-58 {
        fill: #92abb8;
      }

      .cls-59 {
        fill: #d3ae62;
      }

      .cls-59, .cls-60, .cls-61, .cls-62 {
        opacity: .86;
      }

      .cls-60 {
        fill: #c45959;
      }

      .cls-61 {
        fill: #9cb0c0;
      }

      .cls-62 {
        fill: #97afbb;
      }

      .cls-63 {
        fill: #a7b9c7;
      }

      .cls-63, .cls-64, .cls-65, .cls-66 {
        opacity: .76;
      }

      .cls-64 {
        fill: #ca6b6b;
      }

      .cls-65 {
        fill: #a3b8c3;
      }

      .cls-66 {
        fill: #d8b774;
      }

      .cls-67 {
        fill: #a1b5c3;
      }

      .cls-67, .cls-68, .cls-69, .cls-70 {
        opacity: .81;
      }

      .cls-68 {
        fill: #d6b26b;
      }

      .cls-69 {
        fill: #c76262;
      }

      .cls-70 {
        fill: #9db4bf;
      }

      .cls-71 {
        fill: #acbdca;
      }

      .cls-71, .cls-72, .cls-73, .cls-74 {
        opacity: .71;
      }

      .cls-72 {
        fill: #dbbb7c;
      }

      .cls-73 {
        fill: #a9bdc7;
      }

      .cls-74 {
        fill: #ce7474;
      }

      .cls-75 {
        fill: #d7e0e5;
      }

      .cls-75, .cls-76, .cls-77, .cls-78 {
        opacity: .33;
      }

      .cls-76 {
        fill: #d8e0e6;
      }

      .cls-77 {
        fill: #e8bebe;
      }

      .cls-78 {
        fill: #eedfc2;
      }

      .cls-79 {
        fill: #dee5ea;
      }

      .cls-79, .cls-80, .cls-81, .cls-82 {
        opacity: .29;
      }

      .cls-80 {
        fill: #dce4e8;
      }

      .cls-81 {
        fill: #ebc8c8;
      }

      .cls-82 {
        fill: #f0e4cb;
      }

      .cls-83 {
        fill: #e2e9ec;
      }

      .cls-83, .cls-84, .cls-85, .cls-86 {
        opacity: .24;
      }

      .cls-84 {
        fill: #efd1d1;
      }

      .cls-85 {
        fill: #e3e9ed;
      }

      .cls-86 {
        fill: #f3e8d3;
      }

      .cls-87 {
        fill: #e1acac;
      }

      .cls-87, .cls-88, .cls-89, .cls-90 {
        opacity: .43;
      }

      .cls-88 {
        fill: #cbd7dd;
      }

      .cls-89 {
        fill: #cdd8df;
      }

      .cls-90 {
        fill: #e9d6b1;
      }

      .cls-91 {
        fill: #d3dce3;
      }

      .cls-91, .cls-92, .cls-93, .cls-94 {
        opacity: .38;
      }

      .cls-92 {
        fill: #d1dce1;
      }

      .cls-93 {
        fill: #ecdbb9;
      }

      .cls-94 {
        fill: #e5b5b5;
      }

      .cls-95 {
        fill: #b2c2ce;
      }

      .cls-95, .cls-96, .cls-97, .cls-98 {
        opacity: .67;
      }

      .cls-96 {
        fill: #aec1ca;
      }

      .cls-97 {
        fill: #ddc085;
      }

      .cls-98 {
        fill: #d17e7e;
      }

      .cls-99 {
        fill: #bd4646;
      }

      .cls-99, .cls-100, .cls-101, .cls-102 {
        opacity: .95;
      }

      .cls-100 {
        fill: #cea551;
      }

      .cls-101 {
        fill: #8ca6b4;
      }

      .cls-102 {
        fill: #91a7b9;
      }
    </style>
    <clipPath id="clippath">
      <path class="cls-1" d="M18.13,4.39c-1.51-1.53-3.61-2.48-5.92-2.48C7.62,1.91,3.89,5.64,3.89,10.22c0,.03,0,.06,0,.09H20.61c0-2.32-.95-4.41-2.48-5.92Z"/>
    </clipPath>
  </defs>
  <g class="cls-38">
    <g id="Ebene_2" data-name="Ebene 2">
      <g id="Paper-Icons">
        <g>
          <g>
            <g class="cls-30">
              <path class="cls-13" d="M6.55,4.72c1.27-1.78,3-2.53,7.03-2.07,5.36,.62,3.97,4.58,1.93,5.12-1,.27-2.23,.95-2.81,1.9-.38,.62-1.02,1.16-1.48,1.58-1.5,1.39-5.89,1.86-6.98-1.06-.69-1.85,.78-3.33,2.31-5.48Z"/>
              <path class="cls-2" d="M6.55,4.82c1.25-1.73,3.01-2.45,6.92-1.99,5.18,.6,3.87,4.42,1.89,4.94-.98,.26-2.16,.89-2.77,1.85-.39,.61-1.01,1.17-1.47,1.58-1.45,1.32-5.75,1.79-6.82-1.03-.68-1.78,.74-3.27,2.25-5.35Z"/>
              <path class="cls-6" d="M6.54,4.91c1.23-1.68,3.01-2.38,6.81-1.92,5,.59,3.77,4.26,1.85,4.76-.95,.25-2.1,.84-2.73,1.81-.4,.6-1,1.18-1.46,1.58-1.4,1.25-5.61,1.71-6.66-1-.66-1.71,.69-3.2,2.18-5.23Z"/>
              <path class="cls-32" d="M6.54,5.01c1.21-1.63,3.01-2.3,6.7-1.84,4.81,.58,3.67,4.1,1.81,4.58-.93,.24-2.04,.79-2.7,1.76-.41,.59-.99,1.19-1.45,1.58-1.36,1.18-5.47,1.63-6.49-.98-.64-1.64,.64-3.14,2.12-5.11Z"/>
              <path class="cls-34" d="M6.53,5.1c1.19-1.58,3.01-2.21,6.6-1.76,4.63,.58,3.57,3.94,1.77,4.4-.91,.23-1.97,.74-2.66,1.71-.41,.58-.98,1.2-1.44,1.59-1.31,1.12-5.33,1.55-6.33-.95-.62-1.57,.6-3.07,2.06-4.98Z"/>
              <path class="cls-83" d="M6.53,5.19c1.18-1.53,3.02-2.13,6.49-1.69,4.44,.57,3.47,3.78,1.73,4.23-.88,.23-1.91,.69-2.62,1.66-.42,.57-.97,1.21-1.43,1.59-1.26,1.05-5.2,1.48-6.16-.93-.61-1.5,.55-3,1.99-4.86Z"/>
              <path class="cls-80" d="M6.52,5.29c1.16-1.47,3.02-2.05,6.38-1.61,4.26,.56,3.37,3.61,1.69,4.05-.86,.22-1.84,.64-2.58,1.61-.43,.56-.96,1.22-1.42,1.59-1.2,.99-5.06,1.4-6-.9-.59-1.43,.5-2.94,1.93-4.74Z"/>
              <path class="cls-75" d="M6.52,5.38c1.14-1.42,3.02-1.98,6.27-1.53,4.08,.55,3.27,3.45,1.65,3.87-.84,.21-1.78,.59-2.54,1.56-.44,.56-.95,1.23-1.41,1.59-1.15,.92-4.92,1.32-5.84-.88-.57-1.37,.46-2.87,1.86-4.61Z"/>
              <path class="cls-92" d="M6.51,5.48c1.12-1.37,3.02-1.9,6.16-1.46,3.89,.54,3.18,3.29,1.61,3.69-.81,.2-1.71,.54-2.5,1.52-.44,.55-.94,1.24-1.4,1.6-1.1,.86-4.78,1.25-5.67-.85-.55-1.3,.41-2.8,1.8-4.49Z"/>
              <path class="cls-88" d="M6.51,5.57c1.11-1.32,3.02-1.82,6.05-1.38,3.71,.53,3.08,3.13,1.57,3.51-.79,.2-1.64,.49-2.47,1.47-.45,.54-.93,1.25-1.39,1.6-1.04,.8-4.64,1.17-5.51-.82-.53-1.23,.37-2.73,1.74-4.37Z"/>
              <path class="cls-52" d="M6.5,5.67c1.09-1.27,3.03-1.74,5.94-1.31,3.52,.52,2.98,2.97,1.53,3.33-.77,.19-1.58,.44-2.43,1.42-.46,.53-.92,1.26-1.38,1.6-.99,.73-4.5,1.09-5.34-.8-.51-1.16,.32-2.67,1.67-4.24Z"/>
              <path class="cls-48" d="M6.5,5.76c1.07-1.22,3.03-1.66,5.84-1.23,3.34,.51,2.88,2.81,1.49,3.15-.75,.18-1.51,.39-2.39,1.37-.47,.52-.91,1.27-1.37,1.6-.93,.67-4.36,1.02-5.18-.77-.5-1.09,.27-2.6,1.61-4.12Z"/>
              <path class="cls-42" d="M6.5,5.86c1.05-1.16,3.03-1.58,5.73-1.15,3.16,.5,2.78,2.65,1.45,2.97-.72,.17-1.44,.34-2.35,1.32-.47,.51-.89,1.28-1.36,1.6-.88,.61-4.22,.94-5.01-.75-.48-1.02,.23-2.53,1.55-3.99Z"/>
              <path class="cls-46" d="M6.49,5.95c1.03-1.11,3.03-1.5,5.62-1.08,2.97,.49,2.68,2.49,1.41,2.79-.7,.16-1.38,.29-2.31,1.27-.48,.5-.88,1.29-1.35,1.61-.82,.55-4.08,.86-4.85-.72-.46-.95,.18-2.47,1.48-3.87Z"/>
              <path class="cls-96" d="M6.49,6.05c1.01-1.06,3.04-1.43,5.51-1,2.79,.48,2.58,2.33,1.37,2.61-.68,.16-1.31,.24-2.28,1.22-.49,.49-.87,1.3-1.34,1.61-.76,.5-3.95,.78-4.69-.69-.44-.88,.13-2.4,1.42-3.75Z"/>
              <path class="cls-73" d="M6.48,6.14c.99-1.01,3.04-1.35,5.4-.93,2.61,.47,2.48,2.17,1.33,2.43-.65,.15-1.24,.2-2.24,1.18-.49,.49-.86,1.31-1.33,1.61-.7,.44-3.81,.71-4.52-.67-.42-.81,.09-2.33,1.35-3.62Z"/>
              <path class="cls-65" d="M6.48,6.24c.97-.96,3.04-1.27,5.29-.85,2.42,.45,2.39,2,1.29,2.25-.63,.14-1.17,.15-2.2,1.13-.5,.48-.84,1.33-1.32,1.61-.64,.39-3.67,.63-4.36-.64-.4-.74,.04-2.27,1.29-3.5Z"/>
              <path class="cls-70" d="M6.47,6.33c.95-.91,3.04-1.2,5.18-.77s2.29,1.84,1.25,2.07c-.61,.13-1.11,.1-2.16,1.08-.51,.47-.83,1.34-1.31,1.62-.58,.33-3.53,.55-4.19-.62-.38-.67,0-2.2,1.23-3.38Z"/>
              <path class="cls-62" d="M6.47,6.43c.94-.86,3.04-1.12,5.08-.7s2.19,1.68,1.21,1.89c-.58,.12-1.04,.05-2.12,1.03-.51,.46-.81,1.36-1.3,1.62-.52,.28-3.39,.47-4.03-.59-.36-.6-.06-2.13,1.16-3.25Z"/>
              <path class="cls-58" d="M6.46,6.52c.91-.81,3.05-1.04,4.97-.62s2.09,1.52,1.17,1.71c-.56,.12-.97,0-2.08,.98-.52,.45-.8,1.38-1.29,1.62-.46,.23-3.24,.4-3.87-.57-.35-.54-.11-2.07,1.1-3.13Z"/>
              <path class="cls-101" d="M6.46,6.62c.9-.76,3.05-.97,4.86-.54,1.69,.4,1.99,1.36,1.13,1.53-.54,.11-.9-.04-2.05,.93-.52,.45-.78,1.4-1.28,1.62-.4,.18-3.1,.32-3.7-.54-.33-.47-.15-2,1.04-3Z"/>
              <path class="cls-28" d="M6.45,6.71c.88-.71,3.05-.9,4.75-.47,1.51,.38,1.89,1.2,1.09,1.35-.51,.1-.83-.09-2.01,.89-.53,.44-.76,1.43-1.27,1.62-.34,.13-2.96,.24-3.54-.51-.31-.4-.2-1.94,.97-2.88Z"/>
            </g>
            <g class="cls-30">
              <path class="cls-13" d="M23.97,6.63c1.03,3.61-.05,5.49-2.26,6.11-1.4,.39-5.37,.05-5.94-.4-.86-.67-.4-1.55-.97-3.1-.8-2.17-2.28-2.53-4.1-3.23-1.63-.62-3.33-3.79,2.34-5.6,4.41-1.4,9.37,.72,10.94,6.21Z"/>
              <path class="cls-2" d="M23.76,6.62c1.02,3.5,.01,5.4-2.12,6.01-1.35,.38-5.27,.05-5.84-.39-.85-.66-.39-1.52-.96-3.05-.8-2.14-2.26-2.51-4.04-3.25-1.59-.65-3.12-3.75,2.35-5.43,4.27-1.3,9.07,.78,10.61,6.1Z"/>
              <path class="cls-6" d="M23.54,6.61c1,3.39,.08,5.32-1.99,5.9-1.31,.37-5.18,.05-5.75-.38-.84-.64-.39-1.5-.94-2.99-.79-2.12-2.24-2.5-3.98-3.26-1.55-.68-2.92-3.72,2.36-5.25,4.13-1.2,8.77,.84,10.29,5.98Z"/>
              <path class="cls-32" d="M23.32,6.6c.99,3.28,.14,5.23-1.85,5.79-1.26,.35-5.09,.05-5.65-.37-.82-.62-.38-1.47-.92-2.93-.78-2.09-2.22-2.48-3.92-3.28-1.52-.71-2.72-3.69,2.37-5.08,3.99-1.09,8.47,.9,9.97,5.87Z"/>
              <path class="cls-34" d="M23.11,6.58c.98,3.17,.2,5.14-1.71,5.68-1.21,.34-4.99,.06-5.55-.36-.81-.6-.37-1.45-.91-2.87-.78-2.07-2.19-2.46-3.85-3.29-1.48-.73-2.52-3.66,2.38-4.91,3.85-.99,8.17,.96,9.64,5.76Z"/>
              <path class="cls-83" d="M22.89,6.57c.96,3.06,.27,5.05-1.57,5.57-1.16,.33-4.9,.06-5.45-.35-.8-.59-.37-1.42-.89-2.81-.77-2.04-2.17-2.44-3.79-3.3-1.44-.76-2.32-3.62,2.39-4.74,3.71-.88,7.87,1.02,9.32,5.64Z"/>
              <path class="cls-80" d="M22.67,6.56c.95,2.94,.33,4.96-1.44,5.46-1.11,.31-4.81,.06-5.36-.34-.78-.57-.36-1.4-.87-2.75-.77-2.02-2.15-2.43-3.73-3.32-1.4-.79-2.12-3.59,2.4-4.57,3.57-.77,7.57,1.07,9,5.53Z"/>
              <path class="cls-75" d="M22.46,6.55c.94,2.83,.39,4.87-1.3,5.35-1.06,.3-4.71,.06-5.26-.33-.77-.55-.35-1.37-.86-2.7-.76-1.99-2.13-2.41-3.67-3.33-1.36-.82-1.91-3.56,2.41-4.4,3.43-.67,7.27,1.13,8.67,5.41Z"/>
              <path class="cls-92" d="M22.24,6.53c.92,2.72,.46,4.78-1.16,5.24-1.01,.29-4.62,.06-5.16-.33-.75-.53-.35-1.34-.84-2.64-.75-1.97-2.11-2.39-3.6-3.35-1.32-.85-1.71-3.52,2.42-4.23,3.29-.56,6.97,1.19,8.35,5.3Z"/>
              <path class="cls-88" d="M22.02,6.52c.91,2.61,.52,4.69-1.03,5.13-.96,.27-4.53,.06-5.07-.32-.74-.52-.34-1.32-.82-2.58-.75-1.94-2.09-2.37-3.54-3.36-1.28-.87-1.51-3.49,2.43-4.06,3.15-.46,6.67,1.25,8.03,5.18Z"/>
              <path class="cls-52" d="M21.81,6.51c.9,2.5,.59,4.6-.89,5.03-.91,.26-4.43,.06-4.97-.31-.72-.5-.34-1.29-.81-2.52-.74-1.92-2.07-2.35-3.48-3.38-1.24-.9-1.3-3.45,2.44-3.89,3.01-.35,6.36,1.31,7.7,5.07Z"/>
              <path class="cls-48" d="M21.59,6.5c.88,2.39,.65,4.51-.75,4.92-.86,.25-4.34,.06-4.87-.3-.71-.48-.33-1.27-.79-2.46-.73-1.89-2.04-2.33-3.42-3.39-1.2-.93-1.1-3.42,2.45-3.72,2.87-.24,6.06,1.37,7.38,4.96Z"/>
              <path class="cls-42" d="M21.37,6.48c.87,2.28,.71,4.43-.61,4.81-.81,.23-4.24,.06-4.78-.29-.7-.46-.32-1.24-.77-2.4-.73-1.87-2.02-2.32-3.36-3.41-1.17-.95-.89-3.38,2.46-3.55,2.74-.14,5.76,1.43,7.06,4.84Z"/>
              <path class="cls-46" d="M21.16,6.47c.86,2.17,.78,4.34-.48,4.7-.76,.22-4.15,.07-4.68-.28-.68-.45-.32-1.22-.76-2.35-.72-1.84-2-2.3-3.29-3.42-1.13-.98-.69-3.45,2.47-3.38,2.6,.06,5.46,1.49,6.73,4.73Z"/>
              <path class="cls-96" d="M20.94,6.46c.84,2.06,.84,4.25-.34,4.59-.71,.21-4.06,.07-4.58-.27-.67-.43-.31-1.19-.74-2.29-.71-1.82-1.98-2.28-3.23-3.43-1.09-1.01-.48-3.3,2.48-3.21,2.46,.08,5.16,1.54,6.41,4.61Z"/>
              <path class="cls-73" d="M20.72,6.45c.83,1.94,.9,4.16-.2,4.48-.66,.19-3.96,.07-4.48-.26-.65-.41-.3-1.17-.72-2.23-.71-1.79-1.96-2.26-3.17-3.45-1.05-1.03-.28-3.26,2.49-3.04,2.32,.19,4.86,1.6,6.09,4.5Z"/>
              <path class="cls-65" d="M20.51,6.43c.82,1.83,.97,4.07-.06,4.37-.61,.18-3.87,.07-4.39-.25-.64-.4-.3-1.14-.71-2.17-.7-1.77-1.94-2.24-3.11-3.46-1.01-1.06-.07-3.22,2.5-2.87,2.19,.3,4.56,1.66,5.76,4.38Z"/>
              <path class="cls-70" d="M20.29,6.42c.8,1.72,1.03,3.98,.07,4.26-.57,.17-3.77,.07-4.29-.25-.62-.38-.29-1.11-.69-2.11-.69-1.75-1.92-2.22-3.04-3.48-.98-1.09,.13-3.18,2.51-2.7,2.05,.42,4.26,1.72,5.44,4.27Z"/>
              <path class="cls-62" d="M20.07,6.41c.79,1.61,1.09,3.89,.21,4.15-.52,.15-3.68,.07-4.19-.24-.61-.36-.29-1.09-.67-2.06-.69-1.72-1.9-2.2-2.98-3.49-.94-1.11,.34-3.13,2.52-2.53,1.91,.53,3.96,1.78,5.12,4.16Z"/>
              <path class="cls-58" d="M19.86,6.4c.78,1.5,1.16,3.8,.35,4.05-.47,.14-3.58,.07-4.1-.23-.59-.35-.28-1.06-.66-2-.68-1.7-1.88-2.18-2.92-3.51-.9-1.14,.54-3.08,2.53-2.35,1.77,.65,3.66,1.84,4.79,4.04Z"/>
              <path class="cls-101" d="M19.64,6.38c.76,1.39,1.22,3.71,.48,3.94-.42,.13-3.49,.07-4-.22-.58-.33-.27-1.04-.64-1.94-.68-1.67-1.86-2.16-2.86-3.52-.86-1.17,.74-3.03,2.54-2.18,1.63,.77,3.36,1.9,4.47,3.93Z"/>
              <path class="cls-28" d="M19.42,6.37c.75,1.28,1.28,3.62,.62,3.83-.37,.11-3.4,.07-3.9-.21-.56-.31-.27-1.01-.62-1.88-.67-1.65-1.84-2.15-2.79-3.54-.82-1.19,.94-2.98,2.55-2.01,1.48,.89,3.06,1.96,4.15,3.81Z"/>
            </g>
            <g class="cls-9">
              <g>
                <path class="cls-27" d="M12.21,1.91C7.62,1.91,3.89,5.64,3.89,10.22s3.73,8.32,8.32,8.32,8.32-3.73,8.32-8.32S16.79,1.91,12.21,1.91Zm0,15.7c-4.07,0-7.38-3.31-7.38-7.38s3.31-7.38,7.38-7.38,7.38,3.31,7.38,7.38-3.31,7.38-7.38,7.38Z"/>
                <path class="cls-24" d="M12.3,2C7.71,2,3.98,5.73,3.98,10.31s3.73,8.32,8.32,8.32,8.32-3.73,8.32-8.32S16.88,2,12.3,2Zm0,15.7c-4.07,0-7.38-3.31-7.38-7.38s3.31-7.38,7.38-7.38,7.38,3.31,7.38,7.38-3.31,7.38-7.38,7.38Z"/>
                <g class="cls-30">
                  <path class="cls-13" d="M22.29,7.46c.87,3.13,.85,4.65-1.99,7.17-2.11,1.88-4.93,.42-4.07-1.22,.85-1.62,1.6-2.98,1.12-4.61-.55-1.9-1.05-2.5-2.98-3.08-1.8-.54-2.34-2.95,1.28-3.54,2.81-.46,5.78,2.16,6.64,5.29Z"/>
                  <path class="cls-2" d="M22.15,7.47c.85,3.05,.85,4.57-1.9,7.04-2.04,1.83-4.76,.41-3.93-1.18,.82-1.57,1.55-2.94,1.08-4.57-.54-1.86-1.05-2.48-2.93-3.07-1.74-.54-2.26-2.87,1.23-3.4,2.72-.41,5.6,2.14,6.44,5.18Z"/>
                  <path class="cls-6" d="M22.01,7.49c.83,2.97,.84,4.5-1.8,6.91-1.97,1.79-4.59,.41-3.78-1.14,.8-1.53,1.51-2.9,1.05-4.52-.52-1.82-1.05-2.47-2.88-3.06-1.68-.54-2.19-2.8,1.17-3.27,2.62-.36,5.42,2.12,6.24,5.07Z"/>
                  <path class="cls-32" d="M21.87,7.5c.81,2.9,.84,4.43-1.7,6.78-1.89,1.75-4.42,.4-3.64-1.1,.77-1.49,1.47-2.87,1.01-4.48-.51-1.78-1.05-2.45-2.83-3.04-1.63-.54-2.11-2.73,1.12-3.13,2.53-.31,5.23,2.1,6.03,4.97Z"/>
                  <path class="cls-34" d="M21.73,7.51c.79,2.82,.84,4.36-1.6,6.65-1.82,1.71-4.25,.39-3.49-1.06,.75-1.45,1.43-2.83,.97-4.44-.49-1.74-1.05-2.43-2.78-3.03-1.57-.54-2.03-2.66,1.07-2.99,2.43-.26,5.05,2.09,5.83,4.86Z"/>
                  <path class="cls-83" d="M21.59,7.52c.77,2.74,.84,4.28-1.5,6.52-1.75,1.67-4.07,.39-3.35-1.02,.73-1.41,1.38-2.79,.94-4.39-.47-1.7-1.05-2.41-2.74-3.01-1.51-.54-1.95-2.59,1.02-2.85,2.34-.21,4.87,2.07,5.63,4.75Z"/>
                  <path class="cls-80" d="M21.45,7.53c.75,2.66,.84,4.21-1.41,6.38-1.67,1.63-3.9,.38-3.2-.98,.7-1.36,1.34-2.75,.9-4.35s-1.05-2.39-2.69-3c-1.45-.53-1.88-2.51,.97-2.71,2.24-.15,4.69,2.05,5.42,4.65Z"/>
                  <path class="cls-75" d="M21.31,7.55c.73,2.58,.83,4.14-1.31,6.25-1.6,1.59-3.73,.37-3.05-.93,.68-1.32,1.3-2.72,.86-4.31s-1.05-2.38-2.64-2.98c-1.39-.53-1.8-2.44,.91-2.57,2.15-.1,4.51,2.03,5.22,4.54Z"/>
                  <path class="cls-92" d="M21.17,7.56c.72,2.5,.83,4.06-1.21,6.12-1.53,1.55-3.56,.37-2.91-.89,.66-1.28,1.25-2.68,.83-4.26s-1.05-2.36-2.59-2.97c-1.34-.53-1.72-2.37,.86-2.43,2.06-.05,4.33,2.02,5.02,4.44Z"/>
                  <path class="cls-88" d="M21.03,7.57c.7,2.42,.83,3.99-1.11,5.99-1.45,1.51-3.38,.36-2.76-.85,.63-1.24,1.21-2.64,.79-4.22s-1.04-2.34-2.54-2.95c-1.28-.53-1.64-2.35,.81-2.29,1.96,.05,4.15,2,4.82,4.33Z"/>
                  <path class="cls-52" d="M20.89,7.58c.68,2.34,.83,3.92-1.01,5.86-1.38,1.46-3.21,.35-2.62-.81,.61-1.19,1.17-2.6,.76-4.18s-1.04-2.32-2.49-2.94c-1.22-.52-1.56-2.22,.76-2.16,1.87,.05,3.97,1.98,4.61,4.22Z"/>
                  <path class="cls-48" d="M20.75,7.6c.66,2.26,.82,3.84-.92,5.73-1.31,1.42-3.04,.35-2.47-.77,.58-1.15,1.12-2.57,.72-4.13-.38-1.47-1.04-2.3-2.45-2.92-1.16-.52-1.49-2.15,.71-2.02,1.77,.11,3.78,1.96,4.41,4.12Z"/>
                  <path class="cls-42" d="M20.61,7.61c.64,2.19,.82,3.77-.82,5.6-1.23,1.38-2.87,.34-2.33-.73,.56-1.11,1.08-2.53,.68-4.09-.36-1.43-1.04-2.28-2.4-2.91-1.11-.52-1.41-2.07,.65-1.88,1.68,.16,3.6,1.94,4.21,4.01Z"/>
                  <path class="cls-46" d="M20.47,7.62c.62,2.11,.82,3.7-.72,5.47-1.16,1.34-2.7,.33-2.18-.69,.54-1.07,1.04-2.49,.65-4.05-.35-1.39-1.04-2.26-2.35-2.89-1.05-.51-1.33-2,.6-1.74,1.59,.21,3.42,1.93,4,3.9Z"/>
                  <path class="cls-96" d="M20.33,7.63c.6,2.03,.82,3.62-.62,5.34-1.09,1.3-2.52,.33-2.03-.65,.51-1.02,.99-2.45,.61-4-.33-1.35-1.04-2.24-2.3-2.88-.99-.51-1.25-1.92,.55-1.6,1.49,.27,3.24,1.91,3.8,3.8Z"/>
                  <path class="cls-73" d="M20.19,7.64c.58,1.95,.81,3.55-.52,5.21-1.01,1.26-2.35,.32-1.89-.61,.49-.98,.95-2.42,.57-3.96-.32-1.31-1.04-2.22-2.25-2.87-.93-.5-1.17-1.85,.5-1.46,1.4,.32,3.06,1.89,3.6,3.69Z"/>
                  <path class="cls-65" d="M20.05,7.66c.57,1.87,.81,3.48-.43,5.07-.94,1.22-2.18,.31-1.74-.57,.46-.94,.91-2.38,.54-3.92-.3-1.27-1.05-2.19-2.21-2.85-.88-.5-1.09-1.77,.45-1.32,1.31,.38,2.88,1.87,3.39,3.58Z"/>
                  <path class="cls-70" d="M19.91,7.67c.55,1.79,.81,3.41-.33,4.94-.86,1.18-2.01,.31-1.6-.52,.44-.9,.86-2.34,.5-3.87-.29-1.23-1.05-2.17-2.16-2.84-.82-.49-1.01-1.69,.39-1.19,1.21,.44,2.7,1.86,3.19,3.48Z"/>
                  <path class="cls-62" d="M19.77,7.68c.53,1.71,.81,3.33-.23,4.81-.79,1.14-1.83,.3-1.45-.48,.42-.85,.82-2.3,.46-3.83-.27-1.19-1.05-2.15-2.11-2.82-.77-.48-.94-1.61,.34-1.05,1.12,.49,2.52,1.84,2.99,3.37Z"/>
                  <path class="cls-58" d="M19.63,7.69c.51,1.63,.8,3.26-.13,4.68-.72,1.09-1.66,.29-1.31-.44,.39-.81,.77-2.27,.43-3.79-.26-1.15-1.05-2.13-2.06-2.81-.71-.48-.86-1.53,.29-.91,1.02,.55,2.33,1.82,2.78,3.26Z"/>
                  <path class="cls-101" d="M19.49,7.7c.49,1.55,.8,3.19-.03,4.55-.64,1.05-1.49,.29-1.16-.4,.37-.77,.72-2.23,.39-3.74-.25-1.11-1.05-2.1-2.01-2.79-.65-.47-.78-1.45,.24-.77,.92,.61,2.15,1.8,2.58,3.16Z"/>
                  <path class="cls-28" d="M19.34,7.72c.47,1.47,.8,3.11,.06,4.42-.57,1.01-1.32,.28-1.01-.36,.35-.73,.68-2.19,.35-3.7-.23-1.07-1.06-2.08-1.97-2.78-.6-.46-.71-1.36,.19-.63,.83,.67,1.97,1.79,2.38,3.05Z"/>
                </g>
                <path class="cls-29" d="M12.21,2.84c-4.07,0-7.38,3.31-7.38,7.38s3.31,7.38,7.38,7.38,7.38-3.31,7.38-7.38-3.31-7.38-7.38-7.38Zm0,13.83c-3.56,0-6.45-2.89-6.45-6.45s2.89-6.45,6.45-6.45,6.45,2.89,6.45,6.45-2.89,6.45-6.45,6.45Z"/>
                <path class="cls-10" d="M12.3,2.93c-4.07,0-7.38,3.31-7.38,7.38s3.31,7.38,7.38,7.38,7.38-3.31,7.38-7.38-3.31-7.38-7.38-7.38Zm0,13.83c-3.56,0-6.45-2.89-6.45-6.45s2.89-6.45,6.45-6.45,6.45,2.89,6.45,6.45-2.89,6.45-6.45,6.45Z"/>
                <g class="cls-30">
                  <path class="cls-13" d="M21.31,7.9c.8,2.89,.78,4.29-1.84,6.62-1.95,1.73-4.55,.39-3.76-1.13,.78-1.49,1.47-2.75,1.03-4.25-.51-1.75-.97-2.31-2.75-2.85-1.66-.5-2.16-2.72,1.18-3.27,2.6-.43,5.33,1.99,6.13,4.88Z"/>
                  <path class="cls-2" d="M21.18,7.91c.78,2.82,.78,4.22-1.75,6.5-1.88,1.69-4.39,.38-3.63-1.09,.76-1.45,1.43-2.71,1-4.21-.5-1.72-.97-2.29-2.7-2.83-1.61-.5-2.09-2.65,1.13-3.14,2.51-.38,5.16,1.97,5.94,4.78Z"/>
                  <path class="cls-6" d="M21.05,7.92c.76,2.74,.78,4.15-1.66,6.37-1.82,1.66-4.24,.38-3.49-1.05,.74-1.41,1.39-2.68,.97-4.17-.48-1.68-.97-2.28-2.66-2.82-1.55-.5-2.02-2.59,1.08-3.01,2.42-.33,5,1.96,5.76,4.68Z"/>
                  <path class="cls-32" d="M20.92,7.93c.75,2.67,.78,4.09-1.57,6.25-1.75,1.62-4.08,.37-3.36-1.01,.71-1.38,1.35-2.65,.93-4.13-.47-1.64-.97-2.26-2.61-2.81-1.5-.5-1.95-2.52,1.04-2.89,2.33-.29,4.83,1.94,5.57,4.58Z"/>
                  <path class="cls-34" d="M20.79,7.94c.73,2.6,.77,4.02-1.48,6.13-1.68,1.58-3.92,.37-3.22-.98,.69-1.34,1.32-2.61,.9-4.09-.45-1.61-.97-2.24-2.57-2.79-1.45-.5-1.87-2.45,.99-2.76,2.24-.24,4.66,1.93,5.38,4.49Z"/>
                  <path class="cls-83" d="M20.66,7.95c.71,2.53,.77,3.95-1.39,6.01-1.61,1.54-3.76,.36-3.09-.94,.67-1.3,1.28-2.58,.87-4.05-.44-1.57-.97-2.23-2.52-2.78-1.39-.49-1.8-2.39,.94-2.63,2.16-.19,4.5,1.91,5.19,4.39Z"/>
                  <path class="cls-80" d="M20.53,7.96c.7,2.45,.77,3.88-1.3,5.89-1.54,1.5-3.6,.35-2.95-.9,.65-1.26,1.24-2.54,.83-4.01s-.97-2.21-2.48-2.77c-1.34-.49-1.73-2.32,.89-2.5,2.07-.14,4.33,1.89,5.01,4.29Z"/>
                  <path class="cls-75" d="M20.4,7.97c.68,2.38,.77,3.82-1.21,5.77-1.48,1.47-3.44,.35-2.82-.86,.63-1.22,1.2-2.51,.8-3.97s-.96-2.19-2.43-2.75c-1.29-.49-1.66-2.25,.84-2.37,1.98-.1,4.16,1.88,4.82,4.19Z"/>
                  <path class="cls-92" d="M20.27,7.99c.66,2.31,.77,3.75-1.12,5.65-1.41,1.43-3.28,.34-2.68-.82,.6-1.18,1.16-2.47,.76-3.93s-.96-2.17-2.39-2.74c-1.23-.49-1.59-2.19,.8-2.25,1.9-.05,3.99,1.86,4.63,4.09Z"/>
                  <path class="cls-88" d="M20.14,8c.64,2.23,.76,3.68-1.03,5.53-1.34,1.39-3.12,.33-2.55-.79,.58-1.14,1.12-2.44,.73-3.89s-.96-2.16-2.35-2.72c-1.18-.48-1.51-2.17,.75-2.12,1.81,.04,3.83,1.84,4.44,3.99Z"/>
                  <path class="cls-52" d="M20.01,8.01c.63,2.16,.76,3.61-.94,5.41-1.27,1.35-2.96,.33-2.41-.75,.56-1.1,1.08-2.4,.7-3.85s-.96-2.14-2.3-2.71c-1.13-.48-1.44-2.05,.7-1.99,1.72,.05,3.66,1.83,4.26,3.9Z"/>
                  <path class="cls-48" d="M19.88,8.02c.61,2.09,.76,3.55-.84,5.29-1.2,1.31-2.8,.32-2.28-.71,.54-1.06,1.04-2.37,.66-3.81-.35-1.35-.96-2.12-2.26-2.7-1.07-.48-1.37-1.98,.65-1.86,1.64,.1,3.49,1.81,4.07,3.8Z"/>
                  <path class="cls-42" d="M19.75,8.03c.59,2.02,.76,3.48-.75,5.17-1.14,1.28-2.65,.31-2.15-.67,.52-1.02,1-2.34,.63-3.77-.34-1.32-.96-2.1-2.21-2.68-1.02-.48-1.3-1.91,.6-1.73,1.55,.15,3.33,1.79,3.88,3.7Z"/>
                  <path class="cls-46" d="M19.62,8.04c.57,1.94,.76,3.41-.66,5.04-1.07,1.24-2.49,.31-2.01-.63,.49-.99,.96-2.3,.6-3.73-.32-1.28-.96-2.08-2.17-2.67-.97-.47-1.23-1.85,.56-1.61,1.46,.2,3.16,1.78,3.69,3.6Z"/>
                  <path class="cls-96" d="M19.49,8.05c.56,1.87,.75,3.34-.57,4.92-1,1.2-2.33,.3-1.88-.6,.47-.95,.92-2.27,.56-3.69-.31-1.24-.96-2.06-2.12-2.66-.92-.47-1.15-1.78,.51-1.48,1.38,.25,2.99,1.76,3.51,3.5Z"/>
                  <path class="cls-73" d="M19.36,8.06c.54,1.8,.75,3.28-.48,4.8-.93,1.16-2.17,.3-1.74-.56,.45-.91,.88-2.23,.53-3.65-.29-1.21-.96-2.05-2.08-2.64-.86-.46-1.08-1.7,.46-1.35,1.29,.3,2.82,1.75,3.32,3.4Z"/>
                  <path class="cls-65" d="M19.23,8.08c.52,1.72,.75,3.21-.39,4.68-.87,1.13-2.01,.29-1.61-.52,.43-.87,.83-2.2,.49-3.61-.28-1.17-.96-2.02-2.03-2.63-.81-.46-1.01-1.63,.41-1.22,1.2,.35,2.66,1.73,3.13,3.31Z"/>
                  <path class="cls-70" d="M19.1,8.09c.5,1.65,.75,3.14-.3,4.56-.8,1.09-1.85,.28-1.47-.48,.41-.83,.79-2.16,.46-3.57-.27-1.13-.97-2-1.99-2.62-.76-.45-.93-1.56,.36-1.09,1.12,.4,2.49,1.71,2.94,3.21Z"/>
                  <path class="cls-62" d="M18.98,8.1c.49,1.58,.74,3.07-.21,4.44-.73,1.05-1.69,.28-1.34-.44,.38-.79,.75-2.13,.43-3.53-.25-1.1-.97-1.98-1.95-2.6-.71-.45-.86-1.49,.31-.97,1.03,.46,2.32,1.7,2.75,3.11Z"/>
                  <path class="cls-58" d="M18.85,8.11c.47,1.51,.74,3.01-.12,4.32-.66,1.01-1.53,.27-1.2-.41,.36-.75,.71-2.09,.39-3.49-.24-1.06-.97-1.96-1.9-2.59-.66-.44-.79-1.41,.27-.84,.94,.51,2.15,1.68,2.57,3.01Z"/>
                  <path class="cls-101" d="M18.72,8.12c.45,1.43,.74,2.94-.03,4.2-.59,.97-1.37,.26-1.07-.37,.34-.71,.67-2.06,.36-3.45-.23-1.02-.97-1.94-1.86-2.58-.6-.44-.72-1.34,.22-.71,.85,.57,1.99,1.66,2.38,2.91Z"/>
                  <path class="cls-28" d="M18.59,8.13c.43,1.36,.74,2.87,.06,4.08-.53,.94-1.21,.26-.94-.33,.32-.67,.63-2.02,.33-3.42-.21-.99-.98-1.92-1.81-2.56-.55-.43-.66-1.26,.17-.58,.76,.62,1.82,1.65,2.19,2.81Z"/>
                </g>
                <path class="cls-25" d="M12.21,3.77c-3.56,0-6.45,2.89-6.45,6.45s2.89,6.45,6.45,6.45,6.45-2.89,6.45-6.45-2.89-6.45-6.45-6.45Zm0,11.97c-3.04,0-5.52-2.48-5.52-5.52s2.47-5.52,5.52-5.52,5.52,2.48,5.52,5.52-2.47,5.52-5.52,5.52Z"/>
                <path class="cls-23" d="M12.3,3.86c-3.56,0-6.45,2.89-6.45,6.45s2.89,6.45,6.45,6.45,6.45-2.89,6.45-6.45-2.89-6.45-6.45-6.45Zm0,11.97c-3.04,0-5.52-2.48-5.52-5.52s2.47-5.52,5.52-5.52,5.52,2.48,5.52,5.52-2.48,5.52-5.52,5.52Z"/>
                <g class="cls-30">
                  <path class="cls-13" d="M19.42,8.28c.63,2.77,.94,4.08-1.54,6.28-1.84,1.64-4.31,.37-3.55-1.07,.74-1.41,1.39-2.6,.98-4.02-.48-1.66-.92-2.18-2.6-2.69-1.57-.47-2.04-2.57,1.11-3.09,2.45-.41,4.82,1.16,5.6,4.59Z"/>
                  <path class="cls-2" d="M19.33,8.28c.63,2.71,.93,4.02-1.46,6.17-1.78,1.6-4.15,.37-3.42-1.02,.72-1.37,1.35-2.57,.95-3.98-.47-1.62-.93-2.19-2.57-2.69-1.53-.46-1.97-2.5,1.08-2.97,2.37-.36,4.67,1.17,5.44,4.49Z"/>
                  <path class="cls-6" d="M19.24,8.27c.63,2.65,.92,3.96-1.38,6.06-1.72,1.57-4,.37-3.29-.98,.7-1.34,1.32-2.53,.91-3.95-.46-1.59-.94-2.2-2.55-2.69-1.49-.45-1.89-2.44,1.04-2.84,2.29-.32,4.53,1.18,5.28,4.39Z"/>
                  <path class="cls-32" d="M19.15,8.27c.62,2.59,.91,3.91-1.31,5.96-1.65,1.53-3.85,.37-3.16-.94,.68-1.3,1.28-2.5,.88-3.91-.44-1.55-.95-2.2-2.53-2.68-1.45-.44-1.82-2.37,1-2.72,2.21-.27,4.37,1.2,5.12,4.29Z"/>
                  <path class="cls-34" d="M19.06,8.26c.62,2.53,.9,3.85-1.23,5.85-1.59,1.49-3.69,.37-3.03-.9,.65-1.26,1.24-2.47,.85-3.87-.43-1.52-.97-2.21-2.51-2.68-1.41-.43-1.74-2.31,.96-2.59,2.12-.23,4.23,1.21,4.96,4.19Z"/>
                  <path class="cls-83" d="M18.97,8.26c.62,2.47,.89,3.79-1.15,5.74-1.52,1.46-3.54,.37-2.9-.85,.63-1.23,1.21-2.44,.82-3.83-.41-1.49-.98-2.21-2.49-2.68-1.37-.42-1.67-2.24,.93-2.47,2.04-.18,4.08,1.22,4.8,4.09Z"/>
                  <path class="cls-80" d="M18.88,8.25c.61,2.41,.88,3.74-1.07,5.63-1.46,1.42-3.39,.37-2.77-.81,.61-1.19,1.17-2.4,.79-3.79s-.99-2.22-2.46-2.67c-1.33-.41-1.59-2.17,.89-2.35,1.96-.14,3.93,1.24,4.64,3.99Z"/>
                  <path class="cls-75" d="M18.79,8.25c.61,2.35,.87,3.68-.99,5.53-1.4,1.39-3.23,.38-2.64-.77,.59-1.15,1.13-2.37,.75-3.76s-1.01-2.22-2.44-2.67c-1.29-.4-1.52-2.11,.85-2.22,1.88-.09,3.79,1.25,4.47,3.89Z"/>
                  <path class="cls-92" d="M18.71,8.25c.61,2.29,.86,3.62-.92,5.42-1.33,1.35-3.08,.38-2.51-.72,.57-1.12,1.09-2.34,.72-3.72s-1.02-2.23-2.42-2.67c-1.25-.39-1.44-2.04,.81-2.1,1.79-.04,3.64,1.26,4.31,3.79Z"/>
                  <path class="cls-88" d="M18.62,8.24c.61,2.23,.85,3.56-.84,5.31-1.27,1.31-2.93,.38-2.38-.68,.55-1.08,1.06-2.31,.69-3.68s-1.03-2.24-2.4-2.66c-1.21-.38-1.36-2.02,.77-1.97,1.71,.04,3.49,1.28,4.15,3.69Z"/>
                  <path class="cls-52" d="M18.53,8.24c.61,2.17,.85,3.51-.76,5.2-1.2,1.28-2.77,.38-2.25-.64,.53-1.04,1.02-2.27,.66-3.64s-1.04-2.24-2.38-2.66c-1.17-.37-1.29-1.91,.74-1.85,1.63,.05,3.35,1.29,3.99,3.59Z"/>
                  <path class="cls-48" d="M18.44,8.23c.61,2.11,.84,3.45-.68,5.1-1.14,1.24-2.62,.38-2.12-.6,.51-1,.98-2.24,.63-3.61-.33-1.28-1.06-2.25-2.35-2.66-1.13-.36-1.21-1.84,.7-1.72,1.55,.09,3.2,1.3,3.83,3.49Z"/>
                  <path class="cls-42" d="M18.35,8.23c.6,2.05,.83,3.39-.6,4.99-1.08,1.21-2.47,.38-1.99-.55,.49-.97,.94-2.21,.6-3.57-.32-1.24-1.07-2.25-2.33-2.66-1.09-.35-1.14-1.77,.66-1.6,1.47,.14,3.06,1.31,3.67,3.39Z"/>
                  <path class="cls-46" d="M18.26,8.22c.6,1.99,.82,3.34-.53,4.88-1.01,1.17-2.31,.38-1.86-.51,.47-.93,.9-2.18,.56-3.53-.3-1.21-1.08-2.26-2.31-2.65-1.05-.34-1.06-1.7,.62-1.48,1.38,.19,2.92,1.33,3.51,3.29Z"/>
                  <path class="cls-96" d="M18.17,8.22c.6,1.93,.81,3.28-.45,4.77-.95,1.14-2.16,.38-1.73-.47,.45-.89,.87-2.14,.53-3.49-.29-1.18-1.1-2.27-2.29-2.65-1.02-.33-.98-1.63,.58-1.35,1.3,.23,2.77,1.34,3.35,3.19Z"/>
                  <path class="cls-73" d="M18.08,8.22c.6,1.87,.8,3.22-.37,4.66-.88,1.1-2.01,.38-1.6-.42,.43-.86,.83-2.11,.5-3.45-.28-1.14-1.11-2.27-2.26-2.65-.98-.32-.91-1.56,.55-1.23,1.22,.28,2.63,1.35,3.19,3.09Z"/>
                  <path class="cls-65" d="M17.99,8.21c.61,1.81,.79,3.16-.29,4.56-.82,1.06-1.85,.38-1.47-.38,.41-.82,.79-2.08,.47-3.42-.27-1.11-1.12-2.28-2.24-2.64-.94-.31-.83-1.49,.51-1.1,1.14,.33,2.49,1.36,3.03,2.99Z"/>
                  <path class="cls-70" d="M17.91,8.21c.61,1.75,.78,3.11-.21,4.45-.75,1.03-1.7,.38-1.34-.34,.38-.78,.75-2.04,.44-3.38-.25-1.07-1.13-2.28-2.22-2.64-.9-.29-.76-1.42,.47-.98,1.06,.38,2.34,1.38,2.87,2.89Z"/>
                  <path class="cls-62" d="M17.82,8.2c.61,1.69,.77,3.05-.14,4.34-.69,.99-1.55,.39-1.21-.3,.36-.75,.71-2.01,.4-3.34-.24-1.04-1.15-2.29-2.2-2.64-.86-.28-.68-1.35,.43-.85,.97,.43,2.2,1.39,2.71,2.79Z"/>
                  <path class="cls-58" d="M17.73,8.2c.61,1.62,.76,2.99-.06,4.23-.63,.96-1.39,.39-1.08-.25,.34-.71,.67-1.98,.37-3.3-.23-1-1.16-2.29-2.18-2.64-.82-.27-.61-1.27,.4-.73,.89,.48,2.06,1.4,2.55,2.69Z"/>
                  <path class="cls-101" d="M17.64,8.2c.62,1.56,.75,2.94,.02,4.13-.56,.92-1.24,.39-.95-.21,.32-.67,.63-1.94,.34-3.27-.22-.97-1.17-2.3-2.15-2.63-.78-.26-.53-1.2,.36-.6,.81,.54,1.92,1.41,2.39,2.59Z"/>
                  <path class="cls-28" d="M17.55,8.19c.63,1.5,.74,2.88,.1,4.02-.5,.88-1.09,.39-.82-.17,.3-.64,.59-1.91,.31-3.23-.2-.93-1.19-2.31-2.13-2.63-.74-.25-.46-1.12,.32-.48,.72,.59,1.78,1.42,2.23,2.49Z"/>
                </g>
                <path class="cls-14" d="M12.21,4.71c-3.04,0-5.52,2.48-5.52,5.52s2.47,5.52,5.52,5.52,5.52-2.48,5.52-5.52-2.47-5.52-5.52-5.52Zm0,10.1c-2.53,0-4.58-2.06-4.58-4.58s2.06-4.58,4.58-4.58,4.58,2.06,4.58,4.58-2.06,4.58-4.58,4.58Z"/>
                <path class="cls-15" d="M12.3,4.8c-3.04,0-5.52,2.48-5.52,5.52s2.47,5.52,5.52,5.52,5.52-2.48,5.52-5.52-2.48-5.52-5.52-5.52Zm0,10.1c-2.53,0-4.58-2.06-4.58-4.58s2.06-4.58,4.58-4.58,4.58,2.06,4.58,4.58-2.06,4.58-4.58,4.58Z"/>
                <g class="cls-30">
                  <path class="cls-13" d="M18.7,9.93c.12,2.71,.19,4.01-2.53,5.66-2.02,1.23-4.12-.39-3.17-1.61,.94-1.2,1.76-2.21,1.61-3.62-.17-1.64-.49-2.21-1.99-2.98-1.4-.72-1.48-2.77,1.58-2.72,2.38,.04,4.34,1.91,4.49,5.29Z"/>
                  <path class="cls-3" d="M18.62,9.91c.13,2.66,.19,3.95-2.44,5.57-1.95,1.2-3.98-.36-3.05-1.55,.91-1.17,1.72-2.19,1.57-3.59-.17-1.61-.5-2.22-1.97-2.98-1.36-.7-1.44-2.69,1.52-2.61,2.31,.06,4.2,1.9,4.36,5.16Z"/>
                  <path class="cls-8" d="M18.53,9.89c.14,2.6,.19,3.89-2.34,5.48-1.89,1.18-3.83-.34-2.94-1.49,.89-1.14,1.68-2.16,1.54-3.56-.16-1.58-.51-2.23-1.95-2.97-1.33-.68-1.4-2.6,1.47-2.5,2.23,.08,4.06,1.89,4.22,5.04Z"/>
                  <path class="cls-33" d="M18.45,9.87c.14,2.54,.19,3.84-2.25,5.39-1.82,1.16-3.69-.31-2.82-1.43,.86-1.11,1.63-2.14,1.5-3.53-.15-1.54-.52-2.24-1.93-2.96-1.29-.67-1.35-2.52,1.41-2.39,2.15,.1,3.92,1.88,4.09,4.92Z"/>
                  <path class="cls-36" d="M18.37,9.85c.15,2.49,.19,3.78-2.16,5.3-1.75,1.14-3.54-.28-2.71-1.36,.83-1.08,1.6-2.11,1.46-3.5-.14-1.51-.53-2.25-1.9-2.96-1.26-.65-1.31-2.43,1.35-2.28,2.07,.12,3.78,1.86,3.95,4.8Z"/>
                  <path class="cls-86" d="M18.29,9.83c.16,2.43,.19,3.73-2.07,5.21-1.69,1.11-3.4-.25-2.59-1.3,.81-1.05,1.55-2.09,1.43-3.47-.13-1.47-.54-2.25-1.88-2.95-1.22-.63-1.27-2.35,1.3-2.17,2,.14,3.64,1.85,3.82,4.68Z"/>
                  <path class="cls-82" d="M18.2,9.81c.17,2.37,.19,3.67-1.98,5.13-1.62,1.09-3.26-.23-2.48-1.24,.78-1.02,1.51-2.07,1.39-3.44s-.56-2.26-1.86-2.94c-1.18-.62-1.22-2.26,1.24-2.06,1.92,.16,3.5,1.84,3.69,4.56Z"/>
                  <path class="cls-78" d="M18.12,9.79c.17,2.32,.19,3.62-1.88,5.04-1.55,1.07-3.11-.2-2.36-1.18,.76-.98,1.47-2.04,1.36-3.41s-.57-2.27-1.84-2.94c-1.15-.6-1.18-2.18,1.18-1.95,1.84,.18,3.36,1.83,3.55,4.43Z"/>
                  <path class="cls-93" d="M18.04,9.77c.18,2.26,.19,3.56-1.79,4.95-1.49,1.04-2.97-.17-2.24-1.11,.73-.95,1.43-2.02,1.32-3.38s-.58-2.28-1.82-2.93c-1.11-.58-1.14-2.09,1.12-1.84,1.76,.2,3.22,1.81,3.42,4.31Z"/>
                  <path class="cls-90" d="M17.95,9.75c.19,2.2,.2,3.51-1.7,4.86-1.42,1.02-2.82-.15-2.13-1.05,.7-.92,1.39-1.99,1.28-3.35s-.59-2.28-1.8-2.92c-1.08-.57-1.09-2.01,1.07-1.73,1.69,.22,3.08,1.8,3.28,4.19Z"/>
                  <path class="cls-54" d="M17.87,9.74c.2,2.15,.2,3.45-1.61,4.77-1.35,1-2.68-.12-2.01-.99,.68-.89,1.35-1.97,1.25-3.32s-.6-2.29-1.78-2.92c-1.04-.55-1.05-1.92,1.01-1.62,1.61,.24,2.94,1.79,3.15,4.07Z"/>
                  <path class="cls-50" d="M17.79,9.72c.21,2.09,.2,3.4-1.52,4.69-1.29,.98-2.53-.09-1.9-.92,.65-.86,1.31-1.94,1.21-3.29-.09-1.26-.61-2.3-1.76-2.91-1.01-.53-1-1.84,.95-1.51,1.53,.26,2.8,1.78,3.01,3.95Z"/>
                  <path class="cls-41" d="M17.7,9.7c.22,2.03,.2,3.34-1.42,4.6-1.22,.95-2.39-.06-1.78-.86,.63-.83,1.27-1.92,1.17-3.26-.09-1.23-.62-2.31-1.74-2.9-.97-.52-.96-1.75,.9-1.39,1.45,.29,2.66,1.76,2.88,3.82Z"/>
                  <path class="cls-44" d="M17.62,9.68c.23,1.98,.2,3.28-1.33,4.51-1.15,.93-2.24-.04-1.67-.8,.6-.8,1.23-1.9,1.14-3.23-.08-1.19-.63-2.32-1.72-2.9-.94-.5-.92-1.67,.84-1.28,1.38,.31,2.52,1.75,2.75,3.7Z"/>
                  <path class="cls-97" d="M17.54,9.66c.24,1.92,.2,3.23-1.24,4.42-1.09,.91-2.1,0-1.55-.74,.57-.77,1.18-1.87,1.1-3.2-.07-1.16-.64-2.32-1.7-2.89-.9-.48-.87-1.58,.78-1.17,1.3,.33,2.38,1.74,2.61,3.58Z"/>
                  <path class="cls-72" d="M17.45,9.64c.25,1.86,.2,3.17-1.15,4.33-1.02,.89-1.96,.02-1.44-.67,.55-.73,1.14-1.85,1.06-3.17-.07-1.12-.66-2.33-1.68-2.88-.87-.47-.83-1.5,.73-1.06,1.22,.35,2.25,1.72,2.48,3.46Z"/>
                  <path class="cls-66" d="M17.37,9.62c.26,1.81,.2,3.12-1.06,4.25-.95,.86-1.81,.04-1.32-.61,.52-.7,1.1-1.82,1.03-3.14-.06-1.09-.67-2.34-1.66-2.88-.83-.45-.79-1.41,.67-.95,1.14,.37,2.11,1.71,2.34,3.34Z"/>
                  <path class="cls-68" d="M17.29,9.6c.27,1.75,.2,3.06-.96,4.16-.89,.84-1.67,.07-1.21-.55,.5-.67,1.06-1.8,.99-3.11-.05-1.05-.68-2.35-1.64-2.87-.79-.43-.74-1.33,.61-.84,1.07,.39,1.97,1.7,2.21,3.21Z"/>
                  <path class="cls-59" d="M17.21,9.58c.29,1.69,.2,3.01-.87,4.07-.82,.82-1.52,.1-1.09-.49,.47-.64,1.02-1.77,.95-3.08-.05-1.02-.69-2.35-1.62-2.86-.76-.41-.7-1.24,.55-.73,.99,.41,1.84,1.69,2.08,3.09Z"/>
                  <path class="cls-57" d="M17.12,9.56c.3,1.64,.2,2.95-.78,3.98-.75,.79-1.38,.13-.98-.42,.44-.61,.97-1.75,.92-3.05-.04-.98-.7-2.36-1.6-2.86-.72-.4-.66-1.16,.5-.62,.91,.43,1.7,1.67,1.94,2.97Z"/>
                  <path class="cls-100" d="M17.04,9.54c.32,1.58,.2,2.9-.69,3.89-.69,.77-1.23,.15-.86-.36,.42-.58,.93-1.72,.88-3.02-.04-.95-.71-2.37-1.58-2.85-.69-.38-.61-1.07,.44-.51,.83,.45,1.57,1.66,1.81,2.85Z"/>
                  <path class="cls-26" d="M16.96,9.52c.33,1.52,.2,2.84-.6,3.8-.62,.75-1.09,.18-.75-.3,.39-.55,.89-1.7,.84-2.99-.03-.92-.72-2.38-1.56-2.84-.65-.36-.57-.99,.38-.4,.76,.47,1.44,1.65,1.67,2.73Z"/>
                </g>
                <path class="cls-16" d="M12.21,5.64c-2.53,0-4.58,2.06-4.58,4.58s2.06,4.58,4.58,4.58,4.58-2.06,4.58-4.58-2.06-4.58-4.58-4.58Zm0,8.24c-2.01,0-3.65-1.64-3.65-3.65s1.64-3.65,3.65-3.65,3.65,1.64,3.65,3.65-1.64,3.65-3.65,3.65Z"/>
                <path class="cls-20" d="M12.3,5.73c-2.53,0-4.58,2.06-4.58,4.58s2.06,4.58,4.58,4.58,4.58-2.06,4.58-4.58-2.06-4.58-4.58-4.58Zm0,8.24c-2.01,0-3.65-1.64-3.65-3.65s1.64-3.65,3.65-3.65,3.65,1.64,3.65,3.65-1.64,3.65-3.65,3.65Z"/>
                <g class="cls-30">
                  <path class="cls-13" d="M17.15,9.52c.22,2.11,.34,3.11-1.7,4.52-1.51,1.05-1.95,.08-1.27-.92,.67-.98,.92-2.04,.73-3.13-.21-1.27-.91-2.15-2.39-2.38-1.21-.19-1.5-1.88,.89-1.98,1.86-.08,3.47,1.28,3.74,3.9Z"/>
                  <path class="cls-4" d="M17.08,9.51c.23,2.06,.33,3.06-1.63,4.45-1.46,1.03-1.9,.08-1.24-.89,.65-.95,.9-2.01,.72-3.1-.2-1.24-.9-2.13-2.34-2.37-1.18-.19-1.45-1.82,.86-1.9,1.8-.06,3.36,1.28,3.63,3.81Z"/>
                  <path class="cls-5" d="M17.02,9.5c.23,2.02,.33,3.02-1.56,4.37-1.41,1.01-1.85,.09-1.2-.85,.63-.93,.89-1.98,.71-3.06-.2-1.22-.89-2.12-2.3-2.36-1.14-.2-1.4-1.76,.83-1.82,1.74-.05,3.25,1.28,3.52,3.72Z"/>
                  <path class="cls-31" d="M16.95,9.49c.23,1.97,.33,2.98-1.5,4.3-1.36,.99-1.79,.09-1.17-.82,.62-.9,.87-1.95,.7-3.02-.19-1.19-.88-2.1-2.25-2.35-1.11-.2-1.35-1.7,.8-1.74,1.68-.03,3.14,1.27,3.41,3.63Z"/>
                  <path class="cls-37" d="M16.89,9.48c.23,1.93,.33,2.93-1.43,4.23-1.31,.97-1.74,.1-1.14-.78,.6-.88,.86-1.91,.69-2.99-.18-1.16-.87-2.08-2.2-2.34-1.08-.2-1.3-1.65,.77-1.67,1.62-.01,3.03,1.27,3.3,3.55Z"/>
                  <path class="cls-84" d="M16.82,9.47c.24,1.88,.33,2.89-1.36,4.15-1.26,.95-1.69,.1-1.11-.75,.58-.85,.85-1.88,.68-2.95-.17-1.14-.86-2.07-2.15-2.32-1.05-.21-1.26-1.59,.74-1.59,1.56,0,2.92,1.27,3.19,3.46Z"/>
                  <path class="cls-81" d="M16.75,9.46c.24,1.84,.32,2.85-1.29,4.08-1.21,.92-1.63,.11-1.08-.71,.56-.83,.83-1.85,.67-2.91s-.85-2.05-2.1-2.31c-1.01-.21-1.21-1.53,.71-1.51,1.51,.03,2.81,1.26,3.08,3.37Z"/>
                  <path class="cls-77" d="M16.69,9.45c.25,1.79,.32,2.8-1.23,4.01-1.16,.9-1.58,.11-1.04-.68,.54-.8,.82-1.82,.66-2.88s-.83-2.04-2.05-2.3c-.98-.21-1.16-1.48,.68-1.43,1.45,.04,2.7,1.26,2.97,3.28Z"/>
                  <path class="cls-94" d="M16.62,9.44c.25,1.75,.32,2.76-1.16,3.94-1.11,.88-1.53,.12-1.01-.65,.52-.78,.8-1.79,.65-2.84s-.82-2.02-2-2.29c-.95-.21-1.11-1.42,.65-1.35,1.39,.06,2.59,1.26,2.86,3.19Z"/>
                  <path class="cls-87" d="M16.56,9.42c.25,1.71,.32,2.72-1.09,3.86-1.06,.86-1.48,.13-.98-.61,.5-.75,.79-1.75,.64-2.81s-.81-2.01-1.95-2.28c-.92-.22-1.06-1.37,.63-1.27,1.33,.07,2.48,1.26,2.75,3.1Z"/>
                  <path class="cls-53" d="M16.49,9.41c.26,1.66,.32,2.68-1.03,3.79-1.01,.84-1.42,.13-.95-.58,.49-.72,.77-1.72,.63-2.77s-.8-1.99-1.9-2.27c-.88-.22-1.01-1.31,.6-1.19,1.27,.09,2.37,1.25,2.64,3.02Z"/>
                  <path class="cls-47" d="M16.43,9.4c.26,1.62,.31,2.63-.96,3.72-.95,.82-1.37,.14-.91-.54,.47-.7,.76-1.69,.62-2.73-.13-.98-.79-1.97-1.85-2.25-.85-.22-.96-1.25,.57-1.11,1.21,.11,2.26,1.25,2.53,2.93Z"/>
                  <path class="cls-40" d="M16.36,9.39c.27,1.57,.31,2.59-.89,3.64-.9,.8-1.32,.14-.88-.51,.45-.67,.75-1.66,.61-2.7-.13-.95-.78-1.96-1.8-2.24-.82-.23-.91-1.2,.54-1.04,1.16,.13,2.15,1.25,2.42,2.84Z"/>
                  <path class="cls-43" d="M16.3,9.38c.27,1.53,.31,2.55-.82,3.57-.85,.78-1.26,.15-.85-.47,.43-.65,.73-1.62,.6-2.66-.12-.92-.77-1.94-1.75-2.23-.79-.23-.86-1.14,.51-.96,1.1,.15,2.04,1.24,2.31,2.75Z"/>
                  <path class="cls-98" d="M16.23,9.37c.28,1.48,.31,2.5-.76,3.5-.8,.76-1.21,.15-.82-.44,.41-.62,.72-1.59,.59-2.62-.11-.9-.75-1.93-1.7-2.22-.75-.23-.81-1.08,.48-.88,1.04,.16,1.94,1.24,2.2,2.66Z"/>
                  <path class="cls-74" d="M16.16,9.36c.28,1.44,.31,2.46-.69,3.42-.75,.74-1.16,.16-.79-.4,.39-.6,.7-1.56,.58-2.59-.11-.87-.74-1.91-1.65-2.21-.72-.23-.76-1.02,.45-.8,.98,.18,1.83,1.23,2.09,2.57Z"/>
                  <path class="cls-64" d="M16.1,9.35c.29,1.39,.3,2.42-.62,3.35-.7,.72-1.1,.16-.75-.37,.37-.57,.69-1.53,.57-2.55-.1-.84-.73-1.89-1.6-2.2-.69-.24-.71-.97,.42-.72,.92,.2,1.72,1.23,1.98,2.48Z"/>
                  <path class="cls-69" d="M16.03,9.34c.3,1.35,.3,2.37-.55,3.28-.65,.69-1.05,.17-.72-.34,.35-.55,.67-1.49,.56-2.51-.09-.82-.72-1.88-1.55-2.19-.65-.24-.67-.91,.39-.64,.86,.22,1.62,1.23,1.87,2.4Z"/>
                  <path class="cls-60" d="M15.97,9.33c.3,1.3,.3,2.33-.49,3.21-.6,.67-1,.18-.69-.3,.34-.52,.66-1.46,.55-2.48-.09-.79-.71-1.86-1.5-2.17-.62-.24-.62-.85,.37-.56,.81,.24,1.51,1.22,1.76,2.31Z"/>
                  <path class="cls-56" d="M15.9,9.31c.31,1.26,.3,2.29-.42,3.13-.55,.65-.95,.18-.66-.27,.32-.5,.64-1.43,.54-2.44-.08-.76-.7-1.85-1.45-2.16-.59-.25-.57-.79,.34-.48,.75,.26,1.4,1.22,1.65,2.22Z"/>
                  <path class="cls-99" d="M15.84,9.3c.32,1.21,.3,2.24-.35,3.06-.5,.63-.89,.19-.63-.23,.3-.47,.62-1.4,.53-2.4-.07-.74-.69-1.83-1.4-2.15-.56-.25-.52-.73,.31-.41,.69,.28,1.3,1.22,1.54,2.13Z"/>
                  <path class="cls-21" d="M15.77,9.29c.33,1.17,.29,2.2-.28,2.99-.45,.61-.84,.19-.59-.2,.28-.44,.61-1.36,.51-2.37-.07-.71-.67-1.82-1.35-2.14-.52-.25-.47-.68,.28-.33,.63,.29,1.2,1.21,1.43,2.04Z"/>
                </g>
                <path class="cls-11" d="M12.21,6.57c-2.01,0-3.65,1.64-3.65,3.65s1.64,3.65,3.65,3.65,3.65-1.64,3.65-3.65-1.64-3.65-3.65-3.65Zm0,6.37c-1.5,0-2.72-1.22-2.72-2.72s1.22-2.72,2.72-2.72,2.72,1.22,2.72,2.72-1.22,2.72-2.72,2.72Z"/>
                <path class="cls-17" d="M12.3,6.66c-2.01,0-3.65,1.64-3.65,3.65s1.64,3.65,3.65,3.65,3.65-1.64,3.65-3.65-1.64-3.65-3.65-3.65Zm0,6.37c-1.5,0-2.72-1.22-2.72-2.72s1.22-2.72,2.72-2.72,2.72,1.22,2.72,2.72-1.22,2.72-2.72,2.72Z"/>
              </g>
            </g>
          </g>
          <g>
            <g class="cls-30">
              <path class="cls-13" d="M28.79,17.57c1.45-1.23,1.19-5.03,.45-6.05-.97-1.34-2.01-2.15-2.9-2.6-.89-.45-3.4-.83-4.54-.83-1.59,0-3.16,.39-4.44,.73-1.39,.37-4.12,1.37-5.42,2.79-1.52,1.66-.18,4.97,.21,5.45,.72,.91,1.6,1.81,2.7,2.33,1.05,.5,1.97,.48,2.75,.53,.6,.04,3.25,.34,4.8,.01,1.1-.23,2.97-.57,3.5-.83,.5-.25,1.72-.57,2.88-1.54Z"/>
              <path class="cls-2" d="M28.55,17.45c1.43-1.19,1.19-4.87,.46-5.9-.96-1.34-1.98-2.11-2.86-2.55-.87-.43-3.27-.82-4.39-.83-1.55-.01-3.11,.36-4.39,.7-1.38,.37-4.08,1.37-5.33,2.74-1.46,1.6-.21,4.82,.2,5.33,.7,.88,1.53,1.77,2.63,2.28,1.04,.49,1.94,.44,2.71,.51,.59,.05,3.15,.38,4.7,.06,1.11-.23,2.9-.6,3.42-.85,.49-.25,1.71-.53,2.86-1.49Z"/>
              <path class="cls-7" d="M28.32,17.32c1.41-1.15,1.19-4.7,.47-5.74-.94-1.34-1.96-2.07-2.83-2.5-.85-.42-3.14-.81-4.25-.83-1.51-.03-3.06,.33-4.33,.68-1.37,.37-4.04,1.37-5.24,2.69-1.41,1.54-.24,4.66,.19,5.2,.68,.85,1.46,1.73,2.57,2.23,1.03,.47,1.92,.41,2.66,.48,.58,.05,3.05,.42,4.6,.1,1.11-.23,2.84-.62,3.34-.87s1.69-.5,2.83-1.43Z"/>
              <path class="cls-32" d="M28.08,17.2c1.39-1.11,1.19-4.54,.48-5.59-.92-1.35-1.93-2.03-2.8-2.45-.83-.41-3.01-.8-4.11-.83-1.47-.04-3.02,.31-4.27,.65-1.36,.37-4,1.37-5.16,2.64-1.36,1.48-.28,4.51,.18,5.08,.66,.82,1.39,1.69,2.5,2.18,1.02,.45,1.89,.38,2.61,.45,.57,.06,2.95,.46,4.5,.15,1.12-.22,2.78-.65,3.27-.9s1.67-.47,2.81-1.37Z"/>
              <path class="cls-35" d="M27.85,17.07c1.37-1.07,1.19-4.38,.48-5.44-.9-1.35-1.91-1.98-2.76-2.4-.82-.4-2.88-.79-3.97-.83-1.43-.05-2.97,.28-4.21,.62-1.35,.37-3.96,1.37-5.07,2.59-1.3,1.42-.31,4.36,.17,4.95,.64,.79,1.32,1.65,2.43,2.13,1.01,.44,1.87,.34,2.56,.42,.56,.06,2.85,.5,4.4,.19,1.13-.22,2.72-.68,3.19-.92s1.66-.43,2.78-1.32Z"/>
              <path class="cls-85" d="M27.61,16.95c1.35-1.04,1.19-4.21,.49-5.29-.88-1.36-1.88-1.94-2.73-2.35-.8-.39-2.75-.78-3.82-.83-1.39-.06-2.93,.26-4.15,.59-1.34,.37-3.92,1.38-4.99,2.53-1.25,1.36-.34,4.21,.16,4.83,.62,.76,1.25,1.61,2.36,2.08,1,.42,1.84,.31,2.51,.39,.56,.07,2.75,.54,4.3,.23,1.14-.22,2.66-.71,3.11-.94,.48-.24,1.64-.4,2.76-1.26Z"/>
              <path class="cls-79" d="M27.38,16.82c1.33-1,1.19-4.05,.5-5.13-.87-1.36-1.86-1.9-2.69-2.3-.78-.38-2.62-.77-3.68-.83-1.35-.08-2.88,.23-4.1,.57-1.33,.37-3.88,1.38-4.9,2.48-1.2,1.29-.38,4.06,.15,4.71,.6,.73,1.18,1.58,2.29,2.03,.98,.4,1.82,.27,2.46,.36,.55,.07,2.65,.58,4.2,.28,1.14-.22,2.59-.73,3.04-.96,.48-.24,1.62-.37,2.73-1.2Z"/>
              <path class="cls-76" d="M27.15,16.7c1.31-.96,1.19-3.88,.51-4.98-.85-1.36-1.83-1.86-2.66-2.25-.76-.37-2.49-.76-3.54-.83-1.31-.09-2.83,.2-4.04,.54-1.32,.37-3.84,1.38-4.82,2.43-1.15,1.23-.41,3.91,.14,4.58s1.11,1.54,2.23,1.98c.97,.39,1.79,.24,2.41,.33,.54,.08,2.55,.62,4.1,.32,1.15-.22,2.53-.76,2.96-.98,.47-.24,1.6-.34,2.7-1.14Z"/>
              <path class="cls-91" d="M26.91,16.57c1.29-.92,1.19-3.72,.52-4.83-.83-1.37-1.81-1.81-2.63-2.21-.74-.35-2.36-.75-3.4-.83-1.27-.1-2.79,.18-3.98,.51-1.31,.37-3.8,1.38-4.73,2.38-1.09,1.17-.44,3.76,.13,4.46s1.04,1.5,2.16,1.93c.96,.37,1.77,.21,2.36,.3,.53,.09,2.45,.66,4,.36,1.16-.21,2.47-.79,2.88-1,.47-.24,1.58-.3,2.68-1.09Z"/>
              <path class="cls-89" d="M26.68,16.45c1.27-.88,1.19-3.56,.53-4.67-.81-1.37-1.78-1.77-2.59-2.16-.72-.34-2.23-.74-3.25-.83-1.23-.11-2.74,.15-3.92,.48-1.31,.37-3.76,1.38-4.65,2.33-1.04,1.11-.47,3.61,.12,4.33,.53,.64,.97,1.46,2.09,1.88,.95,.35,1.74,.17,2.31,.27,.52,.09,2.35,.7,3.9,.41,1.16-.21,2.41-.82,2.81-1.02,.47-.24,1.57-.27,2.65-1.03Z"/>
              <path class="cls-51" d="M26.44,16.32c1.24-.85,1.19-3.39,.54-4.52-.8-1.37-1.76-1.73-2.56-2.11-.7-.33-2.1-.72-3.11-.83-1.19-.12-2.7,.12-3.86,.46-1.3,.37-3.72,1.38-4.56,2.28-.99,1.05-.51,3.46,.11,4.21,.51,.62,.9,1.43,2.02,1.83,.94,.34,1.71,.14,2.26,.24,.52,.1,2.25,.73,3.8,.45,1.17-.21,2.35-.84,2.73-1.05,.47-.24,1.55-.24,2.63-.97Z"/>
              <path class="cls-49" d="M26.21,16.2c1.22-.81,1.19-3.23,.55-4.37-.78-1.38-1.73-1.69-2.52-2.06-.68-.32-1.97-.71-2.97-.82-1.15-.13-2.65,.1-3.81,.43-1.29,.37-3.68,1.38-4.47,2.22-.93,.99-.54,3.31,.1,4.08,.48,.59,.83,1.39,1.96,1.78,.92,.32,1.69,.11,2.21,.21s2.15,.77,3.7,.5c1.18-.21,2.28-.87,2.65-1.07,.46-.24,1.53-.21,2.6-.92Z"/>
              <path class="cls-39" d="M25.97,16.07c1.2-.77,1.19-3.06,.55-4.21-.76-1.38-1.71-1.64-2.49-2.01-.66-.31-1.84-.7-2.83-.82-1.11-.14-2.61,.07-3.75,.4-1.28,.37-3.64,1.38-4.39,2.17-.88,.93-.57,3.16,.09,3.96,.46,.56,.76,1.35,1.89,1.73,.91,.31,1.66,.08,2.16,.19s2.05,.81,3.6,.54c1.19-.21,2.22-.9,2.58-1.09,.46-.24,1.51-.18,2.58-.86Z"/>
              <path class="cls-45" d="M25.74,15.95c1.18-.73,1.19-2.9,.56-4.06-.74-1.38-1.68-1.6-2.46-1.96-.65-.3-1.71-.69-2.68-.82-1.07-.15-2.56,.05-3.69,.38-1.27,.37-3.6,1.38-4.3,2.12-.83,.87-.61,3.01,.08,3.84,.44,.53,.69,1.32,1.82,1.68,.9,.29,1.64,.04,2.12,.16s1.95,.85,3.5,.58c1.19-.2,2.16-.93,2.5-1.11,.46-.24,1.5-.15,2.55-.8Z"/>
              <path class="cls-95" d="M25.5,15.82c1.16-.7,1.19-2.73,.57-3.91-.73-1.39-1.65-1.56-2.42-1.91-.63-.29-1.58-.67-2.54-.82-1.03-.16-2.51,.02-3.63,.35-1.26,.37-3.55,1.38-4.22,2.07-.78,.8-.64,2.86,.07,3.71,.42,.5,.62,1.28,1.75,1.63,.89,.28,1.61,.01,2.07,.13,.48,.12,1.85,.89,3.4,.63,1.2-.2,2.1-.96,2.42-1.13,.45-.24,1.48-.11,2.53-.74Z"/>
              <path class="cls-71" d="M25.27,15.7c1.14-.66,1.19-2.57,.58-3.76-.71-1.39-1.63-1.52-2.39-1.86-.61-.28-1.45-.66-2.4-.82s-2.47,0-3.57,.32c-1.25,.37-3.51,1.38-4.13,2.02-.72,.74-.67,2.71,.06,3.59,.39,.47,.55,1.24,1.69,1.58,.88,.26,1.59-.02,2.02,.1,.48,.13,1.75,.93,3.3,.67,1.21-.2,2.03-.98,2.35-1.15,.45-.24,1.46-.08,2.5-.69Z"/>
              <path class="cls-63" d="M25.04,15.57c1.12-.62,1.19-2.4,.59-3.6-.69-1.39-1.6-1.48-2.35-1.82-.59-.27-1.32-.65-2.26-.82s-2.42-.03-3.52,.29c-1.24,.37-3.47,1.38-4.05,1.97-.67,.68-.71,2.56,.05,3.46,.37,.45,.48,1.21,1.62,1.53,.86,.25,1.56-.05,1.97,.07,.47,.14,1.65,.97,3.2,.72,1.21-.2,1.97-1.01,2.27-1.17,.45-.24,1.44-.05,2.47-.63Z"/>
              <path class="cls-67" d="M24.8,15.45c1.09-.59,1.19-2.24,.6-3.45-.68-1.39-1.58-1.44-2.32-1.77-.57-.26-1.19-.63-2.11-.82s-2.38-.06-3.46,.27c-1.23,.37-3.43,1.38-3.96,1.91-.62,.62-.74,2.41,.04,3.34,.35,.42,.41,1.17,1.55,1.48,.85,.23,1.54-.08,1.92,.04,.46,.15,1.55,1.01,3.1,.76,1.22-.2,1.91-1.04,2.19-1.19,.44-.24,1.42-.02,2.45-.57Z"/>
              <path class="cls-61" d="M24.57,15.32c1.07-.55,1.19-2.07,.61-3.3-.66-1.4-1.55-1.39-2.29-1.72-.55-.24-1.06-.62-1.97-.82s-2.33-.08-3.4,.24c-1.22,.37-3.39,1.39-3.88,1.86-.56,.56-.78,2.26,.03,3.22,.33,.39,.34,1.14,1.48,1.43,.84,.22,1.51-.11,1.87,.01,.45,.16,1.45,1.05,3,.8,1.23-.19,1.85-1.07,2.12-1.22,.44-.24,1.4,0,2.42-.52Z"/>
              <path class="cls-55" d="M24.33,15.2c1.05-.51,1.18-1.91,.62-3.14-.65-1.4-1.53-1.35-2.25-1.67-.53-.23-.93-.6-1.83-.82-.83-.2-2.28-.11-3.34,.21-1.21,.37-3.35,1.39-3.79,1.81-.51,.5-.81,2.11,.02,3.09,.3,.36,.27,1.1,1.42,1.38,.83,.2,1.48-.14,1.82-.02,.44,.16,1.35,1.09,2.9,.85,1.23-.19,1.79-1.1,2.04-1.24,.44-.24,1.38,.04,2.4-.46Z"/>
              <path class="cls-102" d="M24.1,15.07c1.03-.48,1.18-1.74,.63-2.99-.63-1.4-1.5-1.31-2.22-1.62-.51-.22-.8-.59-1.69-.82-.79-.21-2.24-.14-3.28,.18-1.2,.37-3.31,1.39-3.7,1.76-.46,.44-.85,1.96,0,2.97,.28,.33,.2,1.07,1.35,1.33,.81,.19,1.46-.17,1.77-.05,.43,.17,1.25,1.13,2.8,.89,1.24-.19,1.72-1.12,1.96-1.26,.43-.24,1.36,.07,2.37-.4Z"/>
              <path class="cls-22" d="M23.86,14.95c1-.44,1.18-1.58,.63-2.84-.61-1.41-1.48-1.27-2.18-1.57-.49-.21-.67-.57-1.54-.82-.75-.21-2.19-.16-3.23,.16-1.19,.37-3.27,1.39-3.62,1.71-.4,.38-.88,1.81,0,2.84,.26,.3,.13,1.03,1.28,1.28,.8,.17,1.43-.2,1.72-.08,.42,.19,1.15,1.17,2.7,.94,1.25-.19,1.66-1.15,1.88-1.28,.43-.24,1.35,.1,2.35-.34Z"/>
            </g>
            <path class="cls-12" d="M22.54,10.24c-.05,0-.11,0-.16,0-.29-.82-1.07-1.41-1.99-1.41-.28,0-.54,.05-.78,.15-.29-.79-1.04-1.35-1.93-1.35s-1.6,.54-1.9,1.29c-.1-.02-.2-.03-.31-.03-.93,0-1.7,.71-1.79,1.61-.13-.03-.26-.04-.4-.04-1.12,0-2.03,.91-2.03,2.03s.91,2.03,2.03,2.03c.02,0,.04,0,.05,0,.2,.82,.94,1.43,1.82,1.43,.68,0,1.28-.37,1.61-.91,.45,.76,1.27,1.28,2.22,1.28,1.05,0,1.95-.63,2.35-1.53,.36,.21,.77,.32,1.22,.32,1.35,0,2.44-1.09,2.44-2.44s-1.09-2.44-2.44-2.44Z"/>
            <path class="cls-18" d="M22.6,10.31c-.05,0-.11,0-.16,0-.29-.82-1.07-1.41-1.99-1.41-.27,0-.54,.05-.78,.15-.29-.79-1.04-1.35-1.93-1.35s-1.6,.54-1.9,1.29c-.1-.02-.2-.03-.31-.03-.93,0-1.7,.71-1.79,1.61-.13-.03-.26-.04-.4-.04-1.12,0-2.03,.91-2.03,2.03s.91,2.03,2.03,2.03c.02,0,.04,0,.05,0,.2,.82,.94,1.43,1.82,1.43,.68,0,1.28-.37,1.61-.91,.45,.76,1.27,1.28,2.22,1.28,1.05,0,1.95-.63,2.35-1.53,.36,.21,.77,.32,1.22,.32,1.35,0,2.44-1.09,2.44-2.44s-1.09-2.44-2.44-2.44Z"/>
          </g>
          <g>
            <g class="cls-30">
              <path class="cls-13" d="M13.52,15.06c.84-1.24,.43-3.54-.15-4.35-.77-1.05-1.97-1.2-2.67-1.55-.7-.35-2.04-1.3-2.94-1.3-1.26,0-1.9,.46-2.91,.74-1.1,.29-2.96,2.01-3.98,3.13C-.33,13.04-.03,15.02,.27,15.4c.57,.72,1.26,1.43,2.13,1.84,.83,.4,1.55,.38,2.17,.42,.47,.03,1.02,.27,2.25,.01,.87-.18,1.28-.25,1.73-.39,.95-.29,3.95-.71,4.96-2.22Z"/>
              <path class="cls-2" d="M13.36,15.02c.84-1.2,.45-3.45-.12-4.25-.76-1.05-1.95-1.18-2.65-1.53-.69-.34-1.98-1.3-2.87-1.31-1.23,0-1.89,.44-2.9,.71-1.09,.29-2.91,1.99-3.9,3.07C-.23,12.98,0,14.9,.32,15.31c.55,.69,1.23,1.39,2.1,1.79,.84,.38,1.54,.34,2.14,.38,.46,.04,1.02,.28,2.25,.03,.87-.18,1.29-.27,1.73-.39,.92-.27,3.81-.65,4.82-2.1Z"/>
              <path class="cls-7" d="M13.2,14.98c.83-1.16,.47-3.36-.09-4.15-.75-1.05-1.93-1.16-2.62-1.5-.67-.33-1.93-1.31-2.8-1.32-1.19-.02-1.88,.41-2.88,.68-1.08,.29-2.87,1.97-3.82,3.01C-.13,12.91,.03,14.79,.37,15.21c.54,.67,1.19,1.36,2.06,1.74,.84,.36,1.53,.29,2.11,.35,.46,.04,1.02,.3,2.25,.05,.88-.18,1.3-.28,1.73-.4,.89-.25,3.68-.58,4.67-1.98Z"/>
              <path class="cls-32" d="M13.03,14.94c.83-1.12,.5-3.27-.06-4.05-.75-1.05-1.91-1.14-2.59-1.48-.66-.33-1.87-1.31-2.74-1.33-1.16-.03-1.87,.38-2.86,.65-1.08,.29-2.82,1.95-3.74,2.95C-.02,12.85,.06,14.68,.42,15.12c.52,.65,1.15,1.32,2.03,1.68,.85,.35,1.52,.25,2.08,.31,.45,.05,1.02,.32,2.25,.08,.89-.18,1.31-.29,1.72-.4,.86-.22,3.54-.52,4.53-1.86Z"/>
              <path class="cls-35" d="M12.87,14.89c.82-1.08,.52-3.18-.03-3.95-.74-1.05-1.89-1.12-2.57-1.45-.64-.32-1.81-1.31-2.67-1.34-1.13-.04-1.86,.35-2.84,.62-1.07,.29-2.77,1.94-3.65,2.89C.08,12.78,.1,14.56,.47,15.03c.5,.62,1.11,1.29,1.99,1.63s1.51,.21,2.05,.27c.45,.05,1.02,.34,2.25,.1,.89-.18,1.32-.31,1.72-.4,.83-.2,3.41-.46,4.38-1.74Z"/>
              <path class="cls-85" d="M12.71,14.85c.82-1.04,.54-3.08,0-3.85-.73-1.05-1.87-1.1-2.54-1.43-.63-.31-1.76-1.31-2.61-1.35-1.1-.05-1.86,.32-2.83,.59-1.06,.29-2.73,1.92-3.57,2.83-.99,1.07-1.05,2.81-.65,3.29,.49,.6,1.07,1.26,1.96,1.58s1.5,.17,2.02,.23c.44,.05,1.02,.36,2.25,.12,.9-.17,1.33-.32,1.72-.4,.81-.17,3.27-.39,4.24-1.62Z"/>
              <path class="cls-79" d="M12.55,14.81c.82-1,.56-2.99,.04-3.75-.72-1.05-1.85-1.09-2.51-1.4-.61-.3-1.7-1.32-2.54-1.36-1.07-.06-1.85,.29-2.81,.56-1.05,.29-2.68,1.9-3.49,2.77-.95,1.02-1.08,2.71-.66,3.22,.47,.58,1.04,1.23,1.92,1.53s1.49,.13,1.99,.2c.43,.06,1.02,.38,2.25,.14,.9-.17,1.35-.34,1.71-.41,.78-.15,3.14-.33,4.1-1.5Z"/>
              <path class="cls-76" d="M12.38,14.76c.81-.95,.58-2.9,.07-3.65-.72-1.05-1.83-1.06-2.49-1.38-.6-.29-1.65-1.32-2.47-1.38-1.04-.07-1.84,.27-2.79,.53-1.05,.29-2.63,1.88-3.4,2.71-.9,.97-1.11,2.61-.68,3.14s1,1.19,1.89,1.47,1.47,.09,1.96,.16c.43,.06,1.02,.4,2.25,.16,.91-.17,1.36-.35,1.71-.41,.75-.12,3-.26,3.95-1.37Z"/>
              <path class="cls-91" d="M12.22,14.72c.81-.91,.6-2.81,.1-3.54-.71-1.05-1.81-1.04-2.46-1.35-.58-.28-1.59-1.32-2.41-1.39-1-.08-1.83,.24-2.77,.5-1.04,.29-2.58,1.86-3.32,2.65-.86,.93-1.14,2.52-.69,3.07s.96,1.16,1.86,1.42,1.46,.05,1.93,.12c.42,.07,1.02,.41,2.25,.18,.91-.17,1.37-.36,1.71-.41,.72-.1,2.87-.2,3.81-1.25Z"/>
              <path class="cls-89" d="M12.06,14.68c.81-.87,.62-2.72,.13-3.44-.7-1.05-1.79-1.03-2.43-1.33-.57-.27-1.53-1.33-2.34-1.4-.97-.09-1.83,.21-2.76,.47-1.03,.29-2.54,1.85-3.24,2.6-.82,.88-1.17,2.42-.7,2.99,.42,.51,.92,1.12,1.82,1.37s1.45,0,1.9,.08c.41,.07,1.02,.43,2.25,.21,.92-.17,1.38-.38,1.71-.41,.69-.08,2.73-.13,3.66-1.13Z"/>
              <path class="cls-51" d="M11.9,14.63c.81-.83,.64-2.62,.16-3.34-.7-1.05-1.77-1.01-2.41-1.31-.55-.26-1.48-1.33-2.28-1.41-.94-.09-1.82,.18-2.74,.44-1.02,.29-2.49,1.83-3.16,2.54-.78,.83-1.2,2.33-.71,2.92,.4,.49,.89,1.09,1.79,1.31s1.44-.04,1.87,.05c.41,.08,1.02,.45,2.25,.23,.92-.17,1.39-.39,1.7-.42,.67-.05,2.6-.07,3.52-1.01Z"/>
              <path class="cls-49" d="M11.74,14.59c.8-.79,.66-2.53,.19-3.24-.69-1.05-1.75-.99-2.38-1.28-.54-.25-1.42-1.33-2.21-1.42-.91-.1-1.81,.15-2.72,.42-1.02,.29-2.44,1.81-3.07,2.48-.74,.78-1.23,2.23-.73,2.84,.38,.46,.85,1.06,1.75,1.26s1.43-.08,1.84,0,1.02,.47,2.25,.25c.93-.16,1.4-.41,1.7-.42,.64-.03,2.46,0,3.37-.89Z"/>
              <path class="cls-39" d="M11.57,14.55c.8-.74,.68-2.44,.23-3.14-.68-1.05-1.73-.97-2.35-1.26-.52-.24-1.37-1.33-2.14-1.43-.88-.11-1.8,.13-2.7,.39-1.01,.29-2.4,1.79-2.99,2.42-.7,.73-1.26,2.14-.74,2.77,.36,.44,.81,1.02,1.72,1.21s1.42-.12,1.81-.03,1.02,.49,2.25,.27c.94-.16,1.41-.42,1.7-.42,.61,0,2.33,.06,3.23-.77Z"/>
              <path class="cls-45" d="M11.41,14.5c.8-.7,.7-2.35,.26-3.04-.67-1.05-1.71-.95-2.33-1.23-.51-.24-1.31-1.33-2.08-1.44-.85-.12-1.79,.1-2.69,.36-1,.29-2.35,1.78-2.91,2.36-.65,.68-1.29,2.04-.75,2.69,.35,.42,.77,.99,1.68,1.16s1.41-.16,1.78-.07,1.02,.51,2.25,.29c.94-.16,1.42-.43,1.69-.42,.58,.02,2.2,.13,3.08-.65Z"/>
              <path class="cls-95" d="M11.25,14.46c.8-.66,.73-2.26,.29-2.94-.67-1.05-1.69-.93-2.3-1.21-.49-.23-1.25-1.33-2.01-1.45-.81-.13-1.79,.07-2.67,.33-.99,.29-2.3,1.76-2.83,2.3-.61,.64-1.32,1.95-.76,2.62,.33,.4,.74,.95,1.65,1.1s1.4-.2,1.75-.1c.38,.1,1.02,.52,2.25,.31,.95-.16,1.43-.45,1.69-.43,.55,.05,2.06,.19,2.94-.53Z"/>
              <path class="cls-71" d="M11.09,14.42c.8-.62,.75-2.17,.32-2.84-.66-1.05-1.67-.91-2.27-1.18-.48-.22-1.2-1.34-1.95-1.46s-1.78,.04-2.65,.3c-.99,.29-2.26,1.74-2.74,2.24-.57,.59-1.35,1.85-.78,2.54,.31,.37,.7,.92,1.61,1.05s1.38-.23,1.72-.14c.38,.1,1.02,.54,2.25,.34,.95-.16,1.44-.46,1.69-.43,.53,.07,1.93,.26,2.8-.41Z"/>
              <path class="cls-63" d="M10.92,14.37c.8-.57,.77-2.07,.35-2.74-.65-1.05-1.65-.89-2.25-1.16-.46-.21-1.14-1.34-1.88-1.47s-1.77,.01-2.63,.27c-.98,.29-2.21,1.72-2.66,2.18-.53,.54-1.39,1.75-.79,2.47,.29,.35,.66,.89,1.58,1s1.37-.27,1.69-.18c.37,.11,1.02,.56,2.25,.36,.96-.16,1.45-.48,1.69-.43,.5,.1,1.8,.32,2.65-.29Z"/>
              <path class="cls-67" d="M10.76,14.33c.8-.53,.79-1.98,.38-2.64-.64-1.05-1.63-.87-2.22-1.13-.45-.2-1.09-1.34-1.82-1.48s-1.76-.02-2.62,.24c-.97,.29-2.16,1.7-2.58,2.12-.49,.49-1.42,1.66-.8,2.39,.28,.33,.62,.85,1.55,.94s1.36-.31,1.66-.22c.36,.12,1.02,.58,2.25,.38,.96-.15,1.46-.49,1.68-.43,.47,.12,1.67,.39,2.51-.17Z"/>
              <path class="cls-61" d="M10.6,14.29c.79-.49,.81-1.89,.42-2.54-.63-1.05-1.61-.85-2.19-1.11-.43-.19-1.03-1.34-1.75-1.5s-1.75-.04-2.6,.21c-.96,.29-2.11,1.69-2.49,2.06-.45,.44-1.45,1.56-.81,2.32,.26,.31,.59,.82,1.51,.89,.94,.07,1.35-.35,1.63-.25,.36,.12,1.02,.6,2.25,.4,.97-.15,1.47-.51,1.68-.44,.44,.14,1.53,.46,2.36-.05Z"/>
              <path class="cls-55" d="M10.44,14.24c.79-.44,.83-1.8,.45-2.44-.63-1.05-1.59-.83-2.17-1.08-.42-.18-.98-1.34-1.68-1.51-.66-.16-1.75-.07-2.58,.18-.96,.29-2.07,1.67-2.41,2-.4,.39-1.48,1.47-.83,2.24,.24,.28,.55,.78,1.48,.84,.95,.06,1.34-.39,1.6-.29,.35,.13,1.02,.62,2.25,.42,.97-.15,1.48-.52,1.68-.44,.41,.17,1.4,.52,2.22,.07Z"/>
              <path class="cls-102" d="M10.28,14.2c.79-.4,.85-1.71,.48-2.34-.62-1.05-1.57-.81-2.14-1.06-.4-.18-.92-1.34-1.62-1.52-.63-.16-1.74-.1-2.56,.15-.95,.29-2.02,1.65-2.33,1.94-.36,.35-1.51,1.37-.84,2.17,.22,.26,.51,.75,1.44,.79,.96,.04,1.33-.43,1.57-.33,.34,.14,1.02,.63,2.25,.44,.98-.15,1.49-.53,1.68-.44,.39,.19,1.27,.59,2.07,.19Z"/>
              <path class="cls-22" d="M10.11,14.16c.79-.35,.87-1.62,.51-2.24-.61-1.05-1.55-.8-2.11-1.03-.39-.17-.87-1.33-1.55-1.53-.59-.17-1.73-.13-2.55,.12-.94,.29-1.97,1.63-2.25,1.89-.32,.3-1.55,1.28-.85,2.09,.2,.24,.47,.71,1.41,.73,.96,.02,1.31-.47,1.54-.37,.33,.15,1.02,.65,2.25,.47,.99-.15,1.5-.55,1.67-.44,.36,.21,1.14,.66,1.93,.31Z"/>
            </g>
            <path class="cls-12" d="M9.29,10.46c-.22-.01-.43,.02-.63,.08-.26-1.32-1.39-2.35-2.79-2.42-1.36-.07-2.56,.78-2.99,2h0c-1.15-.06-2.13,.83-2.19,1.98-.06,1.15,.83,2.13,1.98,2.19,.59,.03,1.14-.19,1.54-.57,.4,.23,.86,.38,1.35,.4,.88,.05,1.7-.29,2.28-.87,.3,.38,.76,.64,1.28,.67,.96,.05,1.78-.69,1.83-1.65,.05-.96-.69-1.77-1.64-1.83Z"/>
            <path class="cls-19" d="M9.36,10.55c-.22-.01-.43,.02-.63,.08-.26-1.32-1.39-2.35-2.79-2.42-1.36-.07-2.56,.78-2.99,2h0c-1.15-.06-2.13,.83-2.19,1.98-.06,1.15,.83,2.13,1.98,2.19,.59,.03,1.14-.19,1.54-.57,.4,.23,.86,.38,1.35,.4,.88,.05,1.7-.29,2.28-.87,.3,.38,.76,.64,1.28,.67,.96,.05,1.78-.69,1.83-1.64,.05-.96-.69-1.78-1.65-1.83Z"/>
          </g>
          <g>
            <g class="cls-30">
              <path class="cls-13" d="M21.89,18.12c1.44-1.49,1.34-4.55,.55-5.64-1.04-1.43-2.31-1.96-3.26-2.44-.96-.48-2.34-.92-3.55-1.1-1.49-.22-3.14,.42-4.52,.79-1.49,.4-6.09,1.95-7.48,3.47-.77,.84-.96,1.93-.85,2.94,.13,1.12,.63,2.14,.85,2.41,.78,.97,3.61,1.94,4.79,2.51,1.13,.54,2.11,.51,2.95,.57,.64,.04,2.43,0,4.09-.35,1.18-.25,2.35-1.16,2.92-1.44,.53-.26,2.42-.6,3.51-1.73Z"/>
              <path class="cls-2" d="M21.67,18.01c1.42-1.44,1.35-4.41,.56-5.5-1.02-1.41-2.26-1.92-3.2-2.39-.93-.47-2.26-.9-3.46-1.09-1.46-.23-3.06,.39-4.43,.76-1.48,.4-6.1,1.95-7.45,3.4-.77,.82-.96,1.91-.83,2.9,.15,1.1,.68,2.07,.92,2.34,.79,.9,3.48,1.9,4.67,2.45,1.12,.52,2.08,.43,2.89,.5,.63,.05,2.35,.08,4.05-.28,1.18-.25,2.31-1.18,2.86-1.46,.53-.26,2.35-.55,3.43-1.65Z"/>
              <path class="cls-7" d="M21.46,17.9c1.41-1.39,1.35-4.27,.58-5.35-1-1.39-2.21-1.87-3.15-2.33-.91-.45-2.17-.88-3.37-1.08-1.42-.23-2.99,.35-4.35,.73-1.47,.4-6.12,1.95-7.43,3.33-.77,.81-.96,1.89-.81,2.86,.16,1.08,.73,2,.99,2.27,.79,.84,3.36,1.85,4.54,2.39,1.1,.5,2.04,.35,2.83,.42,.62,.06,2.28,.16,4-.21,1.19-.25,2.26-1.2,2.8-1.47,.52-.26,2.28-.49,3.36-1.57Z"/>
              <path class="cls-32" d="M21.25,17.79c1.39-1.34,1.35-4.13,.6-5.21-.97-1.37-2.16-1.82-3.09-2.28-.89-.44-2.08-.87-3.28-1.07-1.39-.24-2.91,.32-4.26,.7-1.45,.41-6.13,1.94-7.41,3.26-.76,.79-.95,1.86-.79,2.82,.18,1.06,.78,1.93,1.06,2.2,.8,.77,3.23,1.81,4.41,2.34,1.09,.49,2.01,.27,2.77,.35,.61,.06,2.2,.25,3.96-.14,1.19-.26,2.21-1.23,2.73-1.49,.52-.26,2.21-.44,3.29-1.48Z"/>
              <path class="cls-35" d="M21.03,17.68c1.37-1.29,1.36-3.99,.62-5.06-.95-1.36-2.11-1.77-3.03-2.22-.87-.43-1.99-.85-3.19-1.06-1.35-.24-2.83,.29-4.18,.67-1.44,.41-6.15,1.94-7.38,3.18-.76,.77-.95,1.84-.77,2.78,.2,1.04,.83,1.86,1.14,2.13,.79,.71,3.1,1.76,4.29,2.28,1.08,.47,1.98,.19,2.72,.28,.6,.07,2.13,.33,3.91-.07,1.2-.26,2.17-1.25,2.67-1.5s2.14-.39,3.21-1.4Z"/>
              <path class="cls-85" d="M20.82,17.57c1.36-1.24,1.36-3.86,.63-4.91-.92-1.34-2.07-1.73-2.97-2.17-.85-.42-1.9-.83-3.1-1.05-1.32-.25-2.76,.25-4.09,.64-1.43,.41-6.16,1.93-7.36,3.11-.76,.75-.95,1.81-.75,2.74,.22,1.02,.88,1.79,1.21,2.06,.78,.66,2.98,1.72,4.16,2.22,1.06,.45,1.94,.11,2.66,.2,.59,.07,2.05,.41,3.87,0,1.2-.27,2.12-1.27,2.61-1.52s2.07-.34,3.14-1.32Z"/>
              <path class="cls-79" d="M20.6,17.46c1.34-1.19,1.37-3.72,.65-4.77-.9-1.32-2.02-1.68-2.91-2.11-.83-.4-1.82-.81-3.01-1.05-1.28-.25-2.68,.22-4.01,.61-1.42,.41-6.18,1.93-7.33,3.04-.76,.73-.95,1.79-.73,2.69,.24,1,.93,1.72,1.28,1.99,.77,.6,2.85,1.67,4.04,2.16,1.05,.43,1.91,.04,2.6,.13,.59,.08,1.98,.49,3.82,.07,1.21-.27,2.07-1.29,2.55-1.53,.51-.26,2-.29,3.07-1.24Z"/>
              <path class="cls-76" d="M20.39,17.36c1.32-1.14,1.37-3.58,.67-4.62-.88-1.3-1.97-1.63-2.85-2.06-.81-.39-1.73-.79-2.92-1.04s-2.6,.18-3.92,.58c-1.4,.42-6.2,1.92-7.31,2.97-.76,.71-.95,1.77-.71,2.65,.25,.98,.98,1.65,1.36,1.92,.75,.55,2.72,1.63,3.91,2.1,1.04,.41,1.87-.04,2.54,.05,.58,.08,1.9,.58,3.77,.15,1.21-.28,2.03-1.31,2.48-1.55,.51-.26,1.93-.24,2.99-1.16Z"/>
              <path class="cls-91" d="M20.17,17.25c1.3-1.09,1.38-3.44,.68-4.48-.85-1.28-1.92-1.59-2.79-2-.79-.38-1.64-.77-2.83-1.03s-2.53,.15-3.84,.55c-1.39,.42-6.21,1.92-7.29,2.9-.76,.7-.94,1.74-.7,2.61,.27,.96,1.03,1.58,1.43,1.85,.73,.5,2.6,1.59,3.78,2.05,1.02,.4,1.84-.12,2.48-.02,.57,.09,1.83,.66,3.73,.22,1.22-.28,1.98-1.33,2.42-1.56,.5-.26,1.85-.19,2.92-1.08Z"/>
              <path class="cls-89" d="M19.96,17.14c1.29-1.04,1.38-3.3,.7-4.33-.83-1.26-1.87-1.54-2.73-1.95-.77-.37-1.55-.75-2.74-1.02s-2.45,.12-3.75,.52c-1.38,.42-6.23,1.91-7.26,2.82-.76,.68-.94,1.72-.68,2.57,.29,.94,1.03,1.59,1.5,1.78,.62,.58,2.47,1.54,3.66,1.99,1.01,.38,1.81-.2,2.42-.1,.56,.1,1.75,.74,3.68,.29,1.22-.28,1.93-1.36,2.36-1.58,.5-.26,1.78-.14,2.85-1Z"/>
              <path class="cls-51" d="M19.74,17.03c1.27-.99,1.38-3.16,.72-4.19-.81-1.24-1.82-1.49-2.67-1.89-.75-.35-1.46-.73-2.65-1.01s-2.37,.08-3.67,.49c-1.37,.42-6.25,1.9-7.24,2.75-.77,.66-.94,1.69-.66,2.53,.31,.92,1.08,1.53,1.57,1.71,.61,.53,2.34,1.5,3.53,1.93,1,.36,1.77-.28,2.36-.17,.55,.1,1.68,.82,3.64,.36,1.23-.29,1.89-1.38,2.3-1.59,.49-.26,1.71-.09,2.77-.92Z"/>
              <path class="cls-49" d="M19.53,16.92c1.25-.94,1.39-3.02,.74-4.04-.78-1.22-1.77-1.44-2.62-1.84-.73-.34-1.37-.71-2.56-1-1.11-.27-2.29,.05-3.58,.46-1.35,.42-6.27,1.9-7.21,2.68-.77,.64-.94,1.67-.64,2.49,.32,.9,1.12,1.47,1.65,1.64,.59,.49,2.21,1.45,3.41,1.87,.98,.34,1.74-.36,2.3-.24s1.6,.91,3.59,.43c1.23-.29,1.84-1.4,2.23-1.61,.49-.26,1.64-.04,2.7-.83Z"/>
              <path class="cls-39" d="M19.31,16.81c1.23-.89,1.39-2.89,.75-3.9-.76-1.2-1.72-1.4-2.56-1.79-.71-.33-1.29-.69-2.47-.99-1.07-.27-2.22,.02-3.5,.43-1.34,.43-6.3,1.89-7.19,2.61-.77,.62-.93,1.65-.62,2.45,.34,.88,1.17,1.41,1.72,1.57,.57,.44,2.09,1.41,3.28,1.81,.97,.33,1.71-.43,2.24-.32s1.53,.99,3.55,.5c1.24-.3,1.79-1.42,2.17-1.62,.49-.26,1.57,.01,2.63-.75Z"/>
              <path class="cls-45" d="M19.1,16.7c1.21-.84,1.4-2.75,.77-3.75-.74-1.18-1.67-1.35-2.5-1.73-.68-.32-1.2-.67-2.39-.98-1.04-.27-2.14-.02-3.41,.39-1.33,.43-6.32,1.88-7.17,2.53-.77,.6-.93,1.62-.6,2.4,.36,.86,1.21,1.35,1.79,1.5,.55,.4,1.96,1.37,3.16,1.76,.95,.31,1.67-.51,2.18-.39s1.45,1.07,3.5,.57c1.24-.3,1.75-1.44,2.11-1.64,.48-.26,1.5,.06,2.55-.67Z"/>
              <path class="cls-95" d="M18.88,16.59c1.19-.79,1.4-2.61,.79-3.61-.71-1.16-1.63-1.3-2.44-1.68-.66-.31-1.11-.65-2.3-.97-1-.27-2.06-.05-3.33,.36-1.32,.43-6.34,1.87-7.14,2.46s-.93,1.6-.58,2.36c.38,.84,1.29,1.18,1.87,1.43s1.83,1.32,3.03,1.7c.94,.29,1.64-.59,2.12-.47,.51,.13,1.38,1.15,3.46,.64,1.25-.31,1.7-1.47,2.05-1.65,.48-.26,1.42,.11,2.48-.59Z"/>
              <path class="cls-71" d="M18.67,16.48c1.17-.74,1.4-2.47,.8-3.46-.69-1.14-1.58-1.26-2.38-1.62-.64-.29-1.02-.63-2.21-.96-.97-.27-1.99-.08-3.24,.33-1.31,.43-6.37,1.85-7.12,2.39s-.93,1.57-.57,2.32c.4,.82,1.33,1.12,1.94,1.36,.56,.22,1.7,1.28,2.9,1.64,.93,.28,1.61-.67,2.06-.54,.5,.14,1.3,1.24,3.41,.71,1.25-.31,1.65-1.49,1.98-1.67,.48-.26,1.35,.16,2.41-.51Z"/>
              <path class="cls-63" d="M18.45,16.37c1.15-.7,1.41-2.33,.82-3.32-.67-1.12-1.53-1.21-2.32-1.57-.62-.28-.94-.61-2.12-.95-.93-.27-1.91-.12-3.16,.3-1.29,.44-6.39,1.84-7.09,2.32-.78,.53-.92,1.55-.55,2.28,.41,.8,1.37,1.07,2.01,1.29,.54,.19,1.57,1.24,2.78,1.58,.91,.26,1.57-.74,2-.62,.49,.15,1.23,1.32,3.37,.78,1.26-.31,1.61-1.51,1.92-1.68,.47-.26,1.28,.21,2.33-.43Z"/>
              <path class="cls-67" d="M18.24,16.26c1.13-.65,1.41-2.19,.84-3.17-.64-1.1-1.48-1.16-2.26-1.51-.6-.27-.85-.59-2.03-.94-.9-.27-1.83-.15-3.07,.27-1.28,.44-6.42,1.83-7.07,2.25-.79,.51-.92,1.53-.53,2.24,.43,.78,1.41,1.01,2.09,1.23,.51,.16,1.45,1.2,2.65,1.52,.9,.25,1.54-.82,1.94-.69,.49,.15,1.15,1.4,3.32,.85,1.26-.32,1.56-1.53,1.86-1.69,.47-.26,1.21,.26,2.26-.35Z"/>
              <path class="cls-61" d="M18.02,16.16c1.11-.6,1.41-2.05,.86-3.03-.62-1.08-1.43-1.12-2.2-1.46-.58-.26-.76-.56-1.94-.93-.86-.27-1.76-.18-2.98,.24-1.27,.44-6.44,1.81-7.05,2.17-.8,.48-.92,1.5-.51,2.2,.45,.76,1.45,.97,2.16,1.16,.48,.13,1.32,1.15,2.53,1.47,.88,.23,1.5-.89,1.88-.76,.48,.16,1.08,1.48,3.27,.92,1.27-.32,1.51-1.55,1.8-1.71,.46-.26,1.13,.3,2.19-.26Z"/>
              <path class="cls-55" d="M17.81,16.05c1.09-.56,1.42-1.91,.87-2.88-.6-1.06-1.38-1.07-2.14-1.4-.56-.25-.67-.54-1.85-.92-.83-.27-1.68-.22-2.9,.21-1.26,.44-6.47,1.79-7.02,2.1-.81,.45-.92,1.48-.49,2.16,.47,.74,1.49,.92,2.23,1.09,.46,.1,1.19,1.11,2.4,1.41,.87,.21,1.47-.97,1.82-.84,.47,.17,1,1.57,3.23,.99,1.27-.33,1.47-1.58,1.73-1.72,.46-.26,1.06,.35,2.11-.18Z"/>
              <path class="cls-102" d="M17.59,15.94c1.07-.51,1.42-1.77,.89-2.74-.58-1.04-1.33-1.02-2.08-1.35-.54-.23-.59-.52-1.76-.92-.8-.27-1.6-.25-2.81,.18-1.24,.45-6.5,1.77-7,2.03-.82,.41-.92,1.45-.47,2.11,.48,.72,1.53,.89,2.3,1.02,.44,.07,1.06,1.07,2.27,1.35,.86,.2,1.43-1.04,1.76-.91,.45,.18,.93,1.65,3.18,1.07,1.28-.33,1.42-1.6,1.67-1.74,.45-.26,.99,.4,2.04-.1Z"/>
              <path class="cls-22" d="M17.38,15.83c1.05-.47,1.42-1.63,.91-2.59-.55-1.02-1.28-.98-2.03-1.3-.52-.22-.5-.49-1.67-.91-.76-.27-1.53-.28-2.73,.15-1.23,.45-6.52,1.75-6.97,1.96-.83,.37-.91,1.43-.45,2.07,.5,.7,1.57,.86,2.38,.95,.42,.05,.94,1.03,2.15,1.29,.84,.18,1.4-1.12,1.7-.99,.44,.2,.85,1.73,3.14,1.14,1.28-.33,1.37-1.62,1.61-1.75,.45-.26,.92,.44,1.97-.02Z"/>
            </g>
            <path class="cls-12" d="M16.55,11.68c-.09,0-.18,0-.27,.02-.34-1.01-1.29-1.73-2.41-1.73-.52,0-1,.16-1.4,.42-.28-.75-1-1.29-1.85-1.29-.96,0-1.76,.69-1.93,1.6-.27-.2-.61-.32-.97-.32-.83,0-1.52,.63-1.62,1.43,0,0,0,0-.01,0-1.3,0-2.35,1.05-2.35,2.35s1.05,2.35,2.35,2.35c.41,0,.8-.11,1.14-.29,.12,.81,.82,1.44,1.67,1.44,.67,0,1.25-.39,1.52-.96,.52,.76,1.39,1.26,2.38,1.26,1.28,0,2.36-.83,2.73-1.98,.31,.16,.66,.25,1.04,.25,1.25,0,2.26-1.01,2.26-2.26s-1.01-2.26-2.26-2.26Z"/>
          </g>
        </g>
      </g>
    </g>
  </g>
</svg>