<?xml version="1.0" encoding="UTF-8"?>
<svg xmlns="http://www.w3.org/2000/svg" xmlns:xlink="http://www.w3.org/1999/xlink" viewBox="0 0 24.08 20.29">
  <defs>
    <style>
      .cls-1 {
        fill: none;
      }

      .cls-2 {
        fill: #fbf8f6;
      }

      .cls-2, .cls-3 {
        opacity: .05;
      }

      .cls-3 {
        fill: #f7f9fa;
      }

      .cls-4 {
        fill: #fdfbfa;
      }

      .cls-4, .cls-5 {
        opacity: .03;
      }

      .cls-5 {
        fill: #fbfcfc;
      }

      .cls-6 {
        fill: #f8f4f1;
      }

      .cls-6, .cls-7 {
        opacity: .08;
      }

      .cls-7 {
        fill: #f3f6f7;
      }

      .cls-8 {
        fill: #eff3f5;
      }

      .cls-8, .cls-9 {
        opacity: .1;
      }

      .cls-9 {
        fill: #f6f1ec;
      }

      .cls-10 {
        fill: url(#linear-gradient);
      }

      .cls-11 {
        clip-path: url(#clippath);
      }

      .cls-12 {
        fill: #ffa1a1;
      }

      .cls-13 {
        fill: #ffe194;
      }

      .cls-14 {
        fill: #0a4d80;
      }

      .cls-15 {
        fill: #36bcff;
      }

      .cls-16 {
        mix-blend-mode: multiply;
      }

      .cls-17 {
        fill: #e8edf0;
      }

      .cls-17, .cls-18 {
        opacity: .15;
      }

      .cls-18 {
        fill: #f2e9e3;
      }

      .cls-19 {
        fill: #ebf0f2;
      }

      .cls-19, .cls-20 {
        opacity: .13;
      }

      .cls-20 {
        fill: #f4ede8;
      }

      .cls-21 {
        fill: #dce4e8;
      }

      .cls-21, .cls-22 {
        opacity: .23;
      }

      .cls-22 {
        fill: #ebded5;
      }

      .cls-23 {
        fill: #e0e7eb;
      }

      .cls-23, .cls-24 {
        opacity: .21;
      }

      .cls-24 {
        fill: #ede2da;
      }

      .cls-25 {
        fill: #efe6de;
      }

      .cls-25, .cls-26 {
        opacity: .18;
      }

      .cls-26 {
        fill: #e4eaed;
      }

      .cls-27 {
        fill: url(#linear-gradient-3);
      }

      .cls-28 {
        fill: url(#linear-gradient-4);
      }

      .cls-29 {
        fill: url(#linear-gradient-2);
      }

      .cls-30 {
        fill: #fff;
        opacity: 0;
      }

      .cls-31 {
        isolation: isolate;
      }

      .cls-32 {
        fill: #a5bac4;
      }

      .cls-32, .cls-33 {
        opacity: .59;
      }

      .cls-33 {
        fill: #ccac93;
      }

      .cls-34 {
        fill: #ceb098;
      }

      .cls-34, .cls-35 {
        opacity: .57;
      }

      .cls-35 {
        fill: #a9bdc7;
      }

      .cls-36 {
        fill: #a1b7c2;
      }

      .cls-36, .cls-37 {
        opacity: .62;
      }

      .cls-37 {
        fill: #caa88f;
      }

      .cls-38 {
        fill: #d2b7a1;
      }

      .cls-38, .cls-39 {
        opacity: .52;
      }

      .cls-39 {
        fill: #b1c3cc;
      }

      .cls-40 {
        fill: #d0b39d;
      }

      .cls-40, .cls-41 {
        opacity: .54;
      }

      .cls-41 {
        fill: #adc0c9;
      }

      .cls-42 {
        fill: #d5baa6;
      }

      .cls-42, .cls-43 {
        opacity: .49;
      }

      .cls-43 {
        fill: #b5c6cf;
      }

      .cls-44 {
        fill: #bc9373;
      }

      .cls-44, .cls-45 {
        opacity: .77;
      }

      .cls-45 {
        fill: #8aa5b3;
      }

      .cls-46 {
        fill: #86a2b0;
      }

      .cls-46, .cls-47 {
        opacity: .8;
      }

      .cls-47 {
        fill: #ba8f6e;
      }

      .cls-48 {
        fill: #c39d81;
      }

      .cls-48, .cls-49 {
        opacity: .7;
      }

      .cls-49 {
        fill: #96aeba;
      }

      .cls-50 {
        fill: #c19a7c;
      }

      .cls-50, .cls-51 {
        opacity: .72;
      }

      .cls-51 {
        fill: #92abb8;
      }

      .cls-52 {
        fill: #be9677;
      }

      .cls-52, .cls-53 {
        opacity: .75;
      }

      .cls-53 {
        fill: #8ea8b5;
      }

      .cls-54 {
        fill: #ccd8de;
      }

      .cls-54, .cls-55 {
        opacity: .34;
      }

      .cls-55 {
        fill: #e2d0c2;
      }

      .cls-56 {
        fill: #d0dbe0;
      }

      .cls-56, .cls-57 {
        opacity: .31;
      }

      .cls-57 {
        fill: #e4d4c7;
      }

      .cls-58 {
        fill: #d8e1e6;
      }

      .cls-58, .cls-59 {
        opacity: .26;
      }

      .cls-59 {
        fill: #e9dbd0;
      }

      .cls-60 {
        fill: #d4dee3;
      }

      .cls-60, .cls-61 {
        opacity: .28;
      }

      .cls-61 {
        fill: #e7d7cc;
      }

      .cls-62 {
        fill: #d7beab;
      }

      .cls-62, .cls-63 {
        opacity: .46;
      }

      .cls-63 {
        fill: #b9c9d1;
      }

      .cls-64 {
        fill: #dbc5b4;
      }

      .cls-64, .cls-65 {
        opacity: .41;
      }

      .cls-65 {
        fill: #c1cfd6;
      }

      .cls-66 {
        fill: #d9c2af;
      }

      .cls-66, .cls-67 {
        opacity: .44;
      }

      .cls-67 {
        fill: #bdccd4;
      }

      .cls-68 {
        fill: #c4d2d9;
      }

      .cls-68, .cls-69 {
        opacity: .39;
      }

      .cls-69 {
        fill: #dec9b9;
      }

      .cls-70 {
        fill: #c8d5db;
      }

      .cls-70, .cls-71 {
        opacity: .36;
      }

      .cls-71 {
        fill: #e0ccbe;
      }

      .cls-72 {
        fill: #c7a58a;
      }

      .cls-72, .cls-73 {
        opacity: .65;
      }

      .cls-73 {
        fill: #9db4bf;
      }

      .cls-74 {
        fill: #9ab1bd;
      }

      .cls-74, .cls-75 {
        opacity: .67;
      }

      .cls-75 {
        fill: #c5a185;
      }
    </style>
    <linearGradient id="linear-gradient" x1="3.04" y1="3.82" x2="5.29" y2="6.07" gradientUnits="userSpaceOnUse">
      <stop offset="0" stop-color="#ff1a1a"/>
      <stop offset="1" stop-color="#d40000"/>
    </linearGradient>
    <linearGradient id="linear-gradient-2" x1="11.76" y1="3.87" x2="18.13" y2="10.24" xlink:href="#linear-gradient"/>
    <clipPath id="clippath">
      <path class="cls-1" d="M19.17,9.76c-.48-.12-1-.18-1.54-.18-1.16,0-2.23,.29-3.03,.77-.65-1.08-4.99-4.15-4.99-4.15V1.48c5.13,0,9.31,3.67,9.56,8.29Z"/>
    </clipPath>
    <linearGradient id="linear-gradient-3" x1="5.74" y1="3.7" x2="12.02" y2="9.98" gradientUnits="userSpaceOnUse">
      <stop offset="0" stop-color="#ff9d00"/>
      <stop offset="1" stop-color="#ffd45c"/>
    </linearGradient>
    <linearGradient id="linear-gradient-4" x1="9.31" y1="15.91" x2="11.88" y2="18.48" gradientUnits="userSpaceOnUse">
      <stop offset="0" stop-color="#ffd45c"/>
      <stop offset="1" stop-color="#ff9d00"/>
    </linearGradient>
  </defs>
  <g class="cls-31">
    <g id="Ebene_2" data-name="Ebene 2">
      <g id="Paper-Icons">
        <g>
          <g class="cls-16">
            <path class="cls-30" d="M.24,9.83C-.23,7.05,5.49,.96,10.87,.17c4.2-.62,9.78,.34,12.14,4.63,1.4,2.55,1.43,5.92,.06,7.69-.88,1.15-2.2,2.33-4.48,2.43-1.04,.04-3.01,.26-4.2,.2-1.66-.09-3.34-.48-5.34-.96-1.59-.38-3.26-.94-4.58-1.43C2.48,12,.33,10.39,.24,9.83Z"/>
            <path class="cls-5" d="M10.94,.25c4.15-.59,9.61,.38,11.93,4.6,1.37,2.5,1.41,5.83,.08,7.56-.86,1.12-2.15,2.26-4.41,2.37-1.04,.05-2.98,.27-4.14,.21-1.63-.09-3.32-.49-5.33-.97-1.61-.38-3.29-.9-4.58-1.36-1.95-.71-4.12-2.29-4.22-2.87C-.19,7.02,5.65,1.01,10.94,.25Z"/>
            <path class="cls-3" d="M11.01,.32c4.1-.57,9.44,.42,11.72,4.57,1.34,2.45,1.39,5.74,.1,7.42-.84,1.1-2.1,2.19-4.34,2.3-1.03,.05-2.94,.28-4.09,.22-1.59-.09-3.3-.5-5.32-.98-1.62-.38-3.31-.84-4.59-1.3-1.91-.68-4.1-2.23-4.19-2.83C-.14,7,5.8,1.05,11.01,.32Z"/>
            <path class="cls-7" d="M11.09,.4c4.06-.54,9.27,.46,11.5,4.55,1.31,2.4,1.38,5.66,.13,7.29-.82,1.08-2.06,2.12-4.27,2.24-1.03,.06-2.91,.29-4.03,.22-1.56-.09-3.28-.51-5.3-.99-1.63-.38-3.33-.79-4.6-1.23-1.86-.65-4.07-2.18-4.17-2.8C-.09,6.98,5.96,1.1,11.09,.4Z"/>
            <path class="cls-8" d="M11.16,.48C15.17-.04,20.27,.98,22.45,5c1.28,2.34,1.36,5.57,.15,7.15-.8,1.05-2.01,2.05-4.2,2.17-1.02,.06-2.87,.29-3.98,.23-1.52-.08-3.26-.52-5.29-.99-1.65-.38-3.36-.74-4.6-1.17-1.82-.63-4.05-2.12-4.15-2.76C-.05,6.95,6.12,1.14,11.16,.48Z"/>
            <path class="cls-19" d="M11.23,.55c3.96-.5,8.94,.54,11.08,4.49,1.25,2.29,1.34,5.48,.17,7.02-.79,1.03-1.96,1.98-4.13,2.11-1.02,.06-2.84,.3-3.93,.24-1.49-.08-3.24-.53-5.28-1-1.66-.38-3.38-.69-4.61-1.11-1.77-.6-4.02-2.06-4.12-2.73C0,6.93,6.27,1.18,11.23,.55Z"/>
            <path class="cls-17" d="M11.31,.63c3.91-.47,8.77,.58,10.87,4.46,1.22,2.24,1.32,5.4,.19,6.88-.77,1.01-1.91,1.91-4.06,2.05-1.02,.07-2.8,.31-3.87,.25-1.45-.08-3.21-.54-5.27-1.01-1.68-.38-3.4-.64-4.62-1.04-1.73-.58-3.99-2.01-4.1-2.69C.04,6.91,6.43,1.22,11.31,.63Z"/>
            <path class="cls-26" d="M11.38,.71c3.86-.45,8.6,.62,10.66,4.44,1.19,2.19,1.31,5.31,.21,6.74-.75,.99-1.87,1.83-3.99,1.98-1.01,.07-2.77,.31-3.82,.26-1.42-.07-3.19-.55-5.25-1.02-1.69-.38-3.43-.59-4.62-.98-1.68-.55-3.97-1.95-4.08-2.66C.08,6.89,6.58,1.26,11.38,.71Z"/>
            <path class="cls-23" d="M11.45,.78c3.81-.42,8.43,.66,10.44,4.41,1.15,2.14,1.29,5.22,.23,6.61-.73,.96-1.82,1.76-3.92,1.92-1.01,.07-2.73,.32-3.76,.27-1.38-.07-3.17-.56-5.24-1.03-1.7-.38-3.45-.54-4.63-.91-1.64-.53-3.94-1.89-4.05-2.63C.13,6.86,6.74,1.31,11.45,.78Z"/>
            <path class="cls-21" d="M11.53,.86c3.76-.4,8.26,.7,10.23,4.38,1.12,2.09,1.27,5.13,.25,6.47-.71,.94-1.77,1.69-3.85,1.85-1.01,.08-2.7,.33-3.71,.28-1.35-.07-3.15-.57-5.23-1.04-1.72-.38-3.47-.48-4.64-.85-1.59-.5-3.92-1.84-4.03-2.59C.17,6.84,6.9,1.35,11.53,.86Z"/>
            <path class="cls-58" d="M11.6,.94c3.72-.37,8.09,.74,10.02,4.35,1.09,2.03,1.25,5.05,.27,6.34-.69,.91-1.72,1.62-3.78,1.79-1,.08-2.66,.33-3.65,.29-1.31-.07-3.13-.58-5.22-1.05-1.73-.38-3.49-.43-4.64-.79-1.55-.48-3.89-1.78-4.01-2.56C.21,6.82,7.05,1.39,11.6,.94Z"/>
            <path class="cls-60" d="M11.67,1.02c3.67-.35,7.92,.78,9.81,4.33,1.06,1.98,1.24,4.96,.29,6.2-.67,.89-1.68,1.55-3.71,1.73-1,.09-2.63,.34-3.6,.3-1.28-.06-3.11-.59-5.21-1.05-1.74-.38-3.52-.38-4.65-.72-1.5-.45-3.87-1.72-3.98-2.52C.25,6.79,7.21,1.44,11.67,1.02Z"/>
            <path class="cls-56" d="M11.74,1.09c3.62-.32,7.76,.82,9.59,4.3,1.03,1.93,1.22,4.87,.31,6.07-.66,.87-1.63,1.48-3.64,1.66-1,.09-2.59,.35-3.55,.3-1.24-.06-3.08-.6-5.19-1.06-1.76-.39-3.54-.33-4.66-.66-1.45-.43-3.84-1.67-3.96-2.49C.3,6.77,7.37,1.48,11.74,1.09Z"/>
            <path class="cls-54" d="M11.82,1.17c3.57-.29,7.59,.86,9.38,4.27,1,1.88,1.2,4.78,.34,5.93-.64,.85-1.58,1.41-3.57,1.6-.99,.09-2.56,.35-3.49,.31-1.21-.06-3.06-.61-5.18-1.07-1.77-.39-3.56-.28-4.66-.6-1.41-.4-3.81-1.61-3.94-2.45C.34,6.75,7.52,1.52,11.82,1.17Z"/>
            <path class="cls-70" d="M11.89,1.25c3.52-.27,7.41,.9,9.17,4.25,.96,1.83,1.19,4.7,.36,5.8-.62,.82-1.53,1.34-3.5,1.53-.99,.1-2.52,.36-3.44,.32-1.17-.05-3.04-.62-5.17-1.08-1.78-.39-3.59-.23-4.67-.53-1.36-.38-3.79-1.55-3.91-2.42C.38,6.73,7.68,1.57,11.89,1.25Z"/>
            <path class="cls-68" d="M11.96,1.32c3.48-.24,7.24,.94,8.96,4.22,.93,1.78,1.17,4.61,.38,5.66-.6,.8-1.49,1.27-3.43,1.47-.99,.1-2.49,.37-3.38,.33-1.14-.05-3.02-.62-5.16-1.09-1.8-.39-3.61-.18-4.67-.47-1.32-.35-3.76-1.5-3.89-2.38C.42,6.7,7.84,1.61,11.96,1.32Z"/>
            <path class="cls-65" d="M12.04,1.4c3.43-.22,7.07,.98,8.74,4.19,.9,1.73,1.15,4.52,.4,5.53-.58,.78-1.44,1.2-3.36,1.41-.98,.1-2.45,.37-3.33,.34-1.1-.05-3-.63-5.14-1.1-1.81-.39-3.63-.13-4.68-.4-1.27-.33-3.74-1.44-3.87-2.35C.47,6.68,7.99,1.65,12.04,1.4Z"/>
            <path class="cls-67" d="M12.11,1.48c3.38-.19,6.9,1.02,8.53,4.16,.87,1.68,1.13,4.43,.42,5.39-.56,.75-1.39,1.13-3.29,1.34-.98,.11-2.42,.38-3.27,.35-1.06-.05-2.98-.64-5.13-1.1-1.82-.39-3.65-.08-4.69-.34-1.22-.31-3.71-1.39-3.84-2.31C.51,6.66,8.15,1.7,12.11,1.48Z"/>
            <path class="cls-63" d="M12.18,1.55c3.33-.16,6.74,1.06,8.32,4.14,.84,1.62,1.12,4.35,.44,5.26-.54,.73-1.35,1.06-3.22,1.28-.98,.11-2.38,.39-3.22,.36-1.03-.04-2.95-.65-5.12-1.11-1.84-.39-3.68-.03-4.69-.28-1.18-.28-3.69-1.33-3.82-2.28C.55,6.64,8.31,1.74,12.18,1.55Z"/>
            <path class="cls-43" d="M12.26,1.63c3.28-.14,6.57,1.1,8.11,4.11,.81,1.57,1.1,4.26,.46,5.12-.53,.71-1.3,.99-3.15,1.22-.97,.12-2.35,.4-3.16,.37-.99-.04-2.93-.66-5.11-1.12-1.85-.39-3.7,.02-4.7-.21-1.13-.26-3.66-1.27-3.8-2.24C.59,6.61,8.46,1.79,12.26,1.63Z"/>
            <path class="cls-39" d="M12.33,1.71c3.23-.11,6.4,1.14,7.9,4.08,.77,1.52,1.08,4.17,.48,4.99-.51,.68-1.25,.92-3.08,1.15-.97,.12-2.31,.4-3.11,.37-.96-.04-2.91-.67-5.1-1.13-1.86-.39-3.72,.07-4.71-.15-1.09-.24-3.64-1.22-3.77-2.21C.63,6.59,8.62,1.83,12.33,1.71Z"/>
            <path class="cls-41" d="M12.4,1.78c3.19-.08,6.23,1.18,7.68,4.05,.74,1.47,1.07,4.09,.5,4.85-.49,.66-1.2,.85-3.01,1.09-.97,.12-2.28,.41-3.06,.38-.92-.03-2.89-.68-5.08-1.14-1.88-.39-3.74,.12-4.71-.08-1.04-.22-3.61-1.16-3.75-2.17C.68,6.57,8.78,1.88,12.4,1.78Z"/>
            <path class="cls-35" d="M12.47,1.86c3.14-.06,6.06,1.22,7.47,4.03,.71,1.42,1.05,4,.52,4.71-.47,.64-1.16,.78-2.94,1.02-.96,.13-2.24,.42-3,.39-.89-.03-2.87-.69-5.07-1.15-1.89-.39-3.77,.17-4.72-.02s-3.59-1.1-3.73-2.14C.72,6.55,8.93,1.92,12.47,1.86Z"/>
            <path class="cls-32" d="M12.55,1.94c3.09-.03,5.89,1.26,7.26,4,.68,1.36,1.03,3.91,.55,4.58-.45,.61-1.11,.71-2.87,.96-.96,.13-2.21,.42-2.95,.4-.85-.03-2.85-.7-5.06-1.16-1.9-.39-3.79,.21-4.73,.04s-3.56-1.05-3.7-2.1C.76,6.52,9.09,1.97,12.55,1.94Z"/>
            <path class="cls-36" d="M12.62,2.01c3.04,.03,5.72,1.3,7.05,3.97,.65,1.31,1.02,3.83,.57,4.44s-1.06,.65-2.8,.9c-.96,.14-2.17,.43-2.89,.41-.82-.02-2.82-.71-5.05-1.16-1.92-.39-3.81,.26-4.73,.11s-3.54-.99-3.68-2.07C.8,6.5,9.25,1.98,12.62,2.01Z"/>
            <path class="cls-73" d="M12.69,2.09c2.99,.03,5.56,1.34,6.83,3.94,.62,1.26,1,3.74,.59,4.31s-1.01,.58-2.73,.83c-.95,.14-2.14,.44-2.84,.42-.78-.02-2.8-.72-5.04-1.17-1.93-.39-3.83,.31-4.74,.17-.85-.13-3.51-.93-3.65-2.03C.84,6.48,9.4,2.06,12.69,2.09Z"/>
            <path class="cls-74" d="M12.77,2.17c2.95,.05,5.39,1.38,6.62,3.92,.59,1.21,.98,3.65,.61,4.17-.39,.55-.97,.51-2.66,.77-.95,.15-2.1,.44-2.78,.43-.75-.02-2.78-.73-5.02-1.18-1.94-.39-3.86,.36-4.75,.23-.81-.11-3.49-.88-3.63-2C.88,6.46,9.56,2.11,12.77,2.17Z"/>
            <path class="cls-49" d="M12.84,2.24c2.9,.08,5.22,1.42,6.41,3.89,.56,1.16,.97,3.57,.63,4.04-.37,.52-.92,.44-2.59,.7-.95,.15-2.07,.45-2.73,.44-.71-.02-2.76-.74-5.01-1.19-1.96-.39-3.88,.4-4.75,.3-.76-.09-3.46-.82-3.61-1.96C.92,6.43,9.72,2.16,12.84,2.24Z"/>
            <path class="cls-51" d="M12.91,2.32c2.85,.11,5.06,1.46,6.2,3.86,.53,1.1,.95,3.48,.65,3.9-.35,.5-.87,.37-2.52,.64-.94,.15-2.04,.46-2.68,.45-.68-.01-2.74-.75-5-1.2-1.97-.39-3.9,.45-4.76,.36-.71-.07-3.44-.76-3.58-1.93-.26-2,8.65-6.21,11.69-6.09Z"/>
            <path class="cls-53" d="M12.99,2.4c2.8,.14,4.89,1.5,5.99,3.83,.5,1.05,.93,3.39,.67,3.77-.34,.48-.82,.3-2.45,.58-.94,.16-2,.46-2.62,.45-.64-.01-2.72-.76-4.99-1.21-1.98-.39-3.92,.49-4.76,.43-.66-.05-3.41-.71-3.56-1.89-.25-1.97,8.77-6.11,11.73-5.96Z"/>
            <path class="cls-45" d="M13.06,2.47c2.75,.17,4.72,1.54,5.77,3.81,.47,1,.92,3.31,.69,3.63-.32,.46-.77,.23-2.38,.51-.94,.17-1.97,.47-2.57,.46-.61,0-2.69-.77-4.97-1.21-2-.39-3.94,.54-4.77,.49-.62-.04-3.39-.65-3.54-1.86-.24-1.94,8.89-6.01,11.77-5.83Z"/>
            <path class="cls-46" d="M13.13,2.55c2.7,.2,4.55,1.58,5.56,3.78,.43,.95,.9,3.22,.71,3.5-.3,.43-.73,.16-2.31,.45-.93,.17-1.93,.48-2.51,.47-.57,0-2.67-.77-4.96-1.22-2.01-.39-3.97,.58-4.78,.55-.57-.02-3.36-.59-3.51-1.82-.24-1.91,9.02-5.91,11.81-5.71Z"/>
          </g>
          <g class="cls-16">
            <path class="cls-30" d="M9.25,17.21c-.05-1.21-.14-9.3,.59-9.3,.58,0,1.96,.81,1.9,5.32-.02,1.33-.26,2.54,1.31,2.43,1.83-.13,2.59,1.83,1.83,3.17-.94,1.64-2.74,1.64-3.98,1.24-1.29-.42-1.62-2.16-1.65-2.86Z"/>
            <path class="cls-5" d="M9.83,7.94c.57,0,1.91,.95,1.84,5.39-.02,1.33-.22,2.51,1.33,2.38,1.78-.15,2.53,1.77,1.79,3.07-.91,1.6-2.68,1.63-3.9,1.24-1.29-.4-1.62-2.14-1.65-2.83-.05-1.18-.13-9.26,.58-9.26Z"/>
            <path class="cls-3" d="M9.83,7.98c.55,0,1.86,1.08,1.79,5.47-.02,1.34-.19,2.48,1.34,2.34,1.74-.17,2.47,1.7,1.75,2.97-.88,1.57-2.61,1.61-3.81,1.24-1.29-.4-1.62-2.11-1.65-2.79-.05-1.16-.12-9.22,.58-9.22Z"/>
            <path class="cls-7" d="M9.82,8.02c.54,0,1.81,1.22,1.74,5.54-.02,1.34-.15,2.46,1.36,2.29,1.7-.19,2.4,1.64,1.71,2.87-.86,1.54-2.55,1.59-3.73,1.23-1.28-.38-1.63-2.09-1.65-2.75-.05-1.14-.12-9.18,.57-9.18Z"/>
            <path class="cls-8" d="M9.82,8.05c.53,0,1.75,1.35,1.69,5.61-.02,1.34-.12,2.43,1.37,2.24,1.66-.21,2.34,1.57,1.67,2.77-.83,1.5-2.48,1.57-3.65,1.23-1.28-.37-1.63-2.07-1.65-2.72-.04-1.12-.11-9.14,.56-9.14Z"/>
            <path class="cls-19" d="M9.81,8.09c.51,0,1.7,1.49,1.64,5.68-.02,1.35-.08,2.4,1.38,2.2,1.62-.23,2.27,1.5,1.63,2.67-.8,1.47-2.42,1.55-3.57,1.23-1.28-.36-1.63-2.04-1.66-2.68-.04-1.1-.1-9.1,.56-9.1Z"/>
            <path class="cls-17" d="M9.81,8.13c.5,0,1.65,1.63,1.59,5.75-.02,1.35-.05,2.38,1.4,2.15,1.58-.24,2.21,1.44,1.6,2.57-.78,1.44-2.36,1.54-3.48,1.23-1.27-.35-1.63-2.02-1.66-2.65-.04-1.08-.1-9.05,.55-9.05Z"/>
            <path class="cls-26" d="M9.81,8.17c.49,0,1.6,1.76,1.54,5.83-.02,1.36-.01,2.35,1.41,2.11,1.54-.26,2.14,1.37,1.56,2.47-.75,1.4-2.29,1.52-3.4,1.23-1.27-.34-1.64-2-1.66-2.61-.04-1.06-.09-9.01,.55-9.01Z"/>
            <path class="cls-23" d="M9.8,8.2c.47,0,1.55,1.9,1.49,5.9-.02,1.36,.02,2.32,1.43,2.06,1.5-.28,2.08,1.31,1.52,2.37-.72,1.37-2.23,1.51-3.32,1.22-1.27-.33-1.64-1.97-1.66-2.58-.04-1.04-.09-8.97,.54-8.97Z"/>
            <path class="cls-21" d="M9.8,8.24c.46,0,1.49,2.04,1.44,5.97-.02,1.36,.06,2.3,1.44,2.01s2.01,1.24,1.48,2.27c-.69,1.34-2.17,1.49-3.24,1.22-1.27-.32-1.64-1.95-1.66-2.54-.04-1.02-.08-8.93,.53-8.93Z"/>
            <path class="cls-58" d="M9.79,8.28c.44,0,1.44,2.17,1.39,6.04-.02,1.37,.09,2.27,1.46,1.97s1.95,1.17,1.44,2.17c-.67,1.3-2.1,1.47-3.15,1.22-1.26-.3-1.64-1.93-1.66-2.51-.03-1-.07-8.89,.53-8.89Z"/>
            <path class="cls-60" d="M9.79,8.31c.43,0,1.39,2.31,1.34,6.11-.01,1.37,.12,2.25,1.47,1.92s1.89,1.11,1.4,2.07c-.64,1.27-2.04,1.46-3.07,1.22-1.26-.29-1.65-1.9-1.66-2.47-.03-.97-.07-8.85,.52-8.85Z"/>
            <path class="cls-56" d="M9.78,8.35c.42,0,1.34,2.44,1.29,6.19-.01,1.37,.16,2.22,1.49,1.87s1.82,1.04,1.36,1.97c-.61,1.24-1.98,1.44-2.99,1.21-1.26-.28-1.65-1.88-1.67-2.44-.03-.95-.06-8.81,.51-8.81Z"/>
            <path class="cls-54" d="M9.78,8.39c.4,0,1.29,2.58,1.24,6.26-.01,1.38,.19,2.2,1.5,1.83s1.76,.98,1.32,1.87c-.59,1.2-1.91,1.43-2.91,1.21-1.26-.27-1.65-1.86-1.67-2.4-.03-.93-.05-8.76,.51-8.76Z"/>
            <path class="cls-70" d="M9.77,8.43c.39,0,1.23,2.72,1.19,6.33-.01,1.38,.23,2.17,1.52,1.78s1.69,.91,1.28,1.77c-.56,1.17-1.85,1.41-2.83,1.21-1.25-.26-1.65-1.84-1.67-2.37-.03-.91-.05-8.72,.5-8.72Z"/>
            <path class="cls-68" d="M9.77,8.46c.38,0,1.18,2.85,1.14,6.4-.01,1.39,.26,2.15,1.53,1.73,1.2-.39,1.63,.85,1.24,1.67-.53,1.14-1.79,1.39-2.74,1.21-1.25-.24-1.66-1.81-1.67-2.33-.03-.89-.04-8.68,.5-8.68Z"/>
            <path class="cls-65" d="M9.76,8.5c.36,0,1.13,2.99,1.09,6.48-.01,1.39,.29,2.13,1.55,1.69,1.16-.41,1.57,.78,1.2,1.57-.51,1.1-1.73,1.38-2.66,1.21-1.25-.23-1.66-1.79-1.67-2.3-.02-.87-.04-8.64,.49-8.64Z"/>
            <path class="cls-67" d="M9.76,8.54c.35,0,1.08,3.12,1.04,6.55-.01,1.39,.33,2.11,1.56,1.64,1.12-.42,1.5,.71,1.16,1.47-.48,1.07-1.66,1.36-2.58,1.2-1.25-.22-1.66-1.77-1.67-2.26-.02-.85-.03-8.6,.48-8.6Z"/>
            <path class="cls-63" d="M9.76,8.57c.34,0,1.03,3.26,.99,6.62-.01,1.4,.36,2.08,1.58,1.59,1.08-.43,1.44,.65,1.13,1.37-.45,1.04-1.6,1.35-2.5,1.2-1.25-.2-1.66-1.74-1.67-2.23-.02-.83-.02-8.56,.48-8.56Z"/>
            <path class="cls-43" d="M9.75,8.61c.32,0,.97,3.4,.94,6.69-.01,1.4,.4,2.06,1.59,1.55,1.04-.45,1.37,.58,1.09,1.27-.42,1.01-1.54,1.33-2.41,1.2-1.24-.19-1.66-1.72-1.68-2.19-.02-.81-.02-8.52,.47-8.52Z"/>
            <path class="cls-39" d="M9.75,8.65c.31,0,.92,3.53,.89,6.76-.01,1.41,.43,2.04,1.61,1.5,1-.46,1.31,.52,1.05,1.17-.4,.97-1.48,1.32-2.33,1.2-1.24-.18-1.67-1.7-1.68-2.16-.02-.79-.01-8.47,.46-8.47Z"/>
            <path class="cls-41" d="M9.74,8.69c.29,0,.87,3.67,.84,6.84-.01,1.41,.47,2.02,1.62,1.46,.96-.47,1.25,.45,1.01,1.07-.37,.94-1.41,1.31-2.25,1.2-1.24-.16-1.67-1.67-1.68-2.12-.02-.76,0-8.43,.46-8.43Z"/>
            <path class="cls-35" d="M9.74,8.72c.28,0,.82,3.8,.79,6.91,0,1.41,.5,2,1.64,1.41,.92-.48,1.19,.39,.97,.97-.34,.91-1.35,1.29-2.17,1.19-1.24-.15-1.67-1.65-1.68-2.09-.01-.74,0-8.39,.45-8.39Z"/>
            <path class="cls-32" d="M9.73,8.76c.27,0,.76,3.94,.74,6.98,0,1.42,.54,1.99,1.65,1.36,.88-.49,1.12,.32,.93,.87-.31,.88-1.29,1.28-2.09,1.19-1.24-.13-1.67-1.63-1.68-2.05-.01-.72,0-8.35,.45-8.35Z"/>
            <path class="cls-36" d="M9.73,8.8c.25,0,.71,4.08,.69,7.05,0,1.42,.58,1.97,1.67,1.32,.84-.5,1.06,.26,.89,.77-.28,.85-1.22,1.26-2,1.19-1.23-.12-1.68-1.6-1.68-2.02-.01-.7,.01-8.31,.44-8.31Z"/>
            <path class="cls-73" d="M9.72,8.84c.24,0,.66,4.21,.64,7.12,0,1.42,.61,1.95,1.68,1.27,.8-.51,1,.19,.85,.67-.25,.81-1.16,1.25-1.92,1.19-1.23-.1-1.68-1.58-1.68-1.98,0-.68,.02-8.27,.43-8.27Z"/>
            <path class="cls-74" d="M9.72,8.87c.23,0,.61,4.35,.59,7.2,0,1.43,.65,1.94,1.69,1.22,.76-.52,.94,.13,.81,.57-.22,.78-1.1,1.24-1.84,1.19-1.23-.09-1.68-1.56-1.69-1.95,0-.66,.03-8.23,.43-8.23Z"/>
            <path class="cls-49" d="M9.71,8.91c.21,0,.56,4.48,.54,7.27,0,1.43,.69,1.92,1.71,1.18,.72-.53,.88,.07,.77,.47-.19,.75-1.04,1.22-1.76,1.18-1.23-.07-1.68-1.54-1.69-1.91,0-.64,.03-8.18,.42-8.18Z"/>
            <path class="cls-51" d="M9.71,8.95c.2,0,.5,4.62,.49,7.34,0,1.44,.73,1.91,1.72,1.13,.68-.53,.82,0,.73,.37-.16,.72-.97,1.21-1.67,1.18-1.23-.05-1.69-1.51-1.69-1.88,0-.62,.04-8.14,.41-8.14Z"/>
            <path class="cls-53" d="M9.71,8.98c.19,0,.45,4.76,.44,7.41,0,1.44,.77,1.89,1.74,1.08,.65-.54,.76-.06,.7,.27-.13,.69-.91,1.2-1.59,1.18-1.22-.04-1.69-1.49-1.69-1.84,0-.6,.05-8.1,.41-8.1Z"/>
            <path class="cls-45" d="M9.7,9.02c.17,0,.4,4.89,.39,7.48,0,1.44,.82,1.88,1.75,1.04,.61-.55,.7-.13,.66,.17-.09,.66-.85,1.19-1.51,1.18-1.22-.02-1.69-1.47-1.69-1.8,0-.58,.05-8.06,.4-8.06Z"/>
            <path class="cls-46" d="M9.7,9.06c.16,0,.35,5.03,.34,7.56,0,1.45,.86,1.87,1.77,.99,.58-.56,.64-.19,.62,.07-.05,.63-.79,1.17-1.43,1.17-1.22,0-1.69-1.44-1.69-1.77,0-.55,.06-8.02,.4-8.02Z"/>
          </g>
          <path class="cls-12" d="M9.55,1.4C4.43,1.4,.24,5.07,0,9.68c.02,.03,.04,.05,.06,.08,.02,0,.04-.1,.06-.11,.45-.1,.92-.15,1.42-.15,1.16,0,2.23,.29,3.03,.77,.65-1.08,4.99-4.15,4.99-4.15,0,0,4.33,3.06,4.99,4.15,.8-.48,1.86-.77,3.03-.77,.54,0,1.06,.06,1.54,.18-.24-4.61-4.43-8.29-9.56-8.29Z"/>
          <path class="cls-15" d="M9.49,16.26c-.12,0-.21-.1-.21-.21V.94c0-.12,.09-.21,.21-.21s.21,.1,.21,.21v15.11c0,.12-.09,.21-.21,.21Z"/>
          <path class="cls-14" d="M9.62,16.26c-.12,0-.21-.1-.21-.21V.94c0-.12,.09-.21,.21-.21s.21,.1,.21,.21v15.11c0,.12-.09,.21-.21,.21Z"/>
          <path class="cls-10" d="M.06,9.76c.48-.12,1-.18,1.54-.18,1.16,0,2.23,.29,3.03,.77,.65-1.08,4.99-4.15,4.99-4.15V1.48C4.49,1.48,.31,5.15,.06,9.76Z"/>
          <path class="cls-29" d="M19.17,9.76c-.48-.12-1-.18-1.54-.18-1.16,0-2.23,.29-3.03,.77-.65-1.08-4.99-4.15-4.99-4.15V1.48c5.13,0,9.31,3.67,9.56,8.29Z"/>
          <path class="cls-13" d="M9.54,8.98c1.94,0,3.7,.5,4.99,1.3,.1-.56,.15-1.14,.15-1.74,0-3.94-2.3-7.14-5.14-7.14s-5.14,3.2-5.14,7.14c0,.6,.05,1.18,.15,1.74,.02,.02,.05,.05,.08,.08,.03-.02,.02-.14,.05-.16,1.27-.76,2.98-1.22,4.86-1.22Z"/>
          <g class="cls-11">
            <g class="cls-16">
              <path class="cls-30" d="M9.32,8.94c-.66-2.07-1.15-7.56,.71-8.21,2.01-.7,6.38,2.07,7.65,4.96,1.76,4,1.42,6.61-2.61,6.94-2.43,.2-5.37-2.49-5.76-3.69Z"/>
              <path class="cls-4" d="M10.04,.76c1.96-.69,6.28,2.03,7.55,4.93,1.73,3.94,1.4,6.55-2.54,6.88-2.41,.21-5.29-2.47-5.67-3.66-.65-2.03-1.16-7.52,.66-8.16Z"/>
              <path class="cls-2" d="M10.04,.8c1.91-.67,6.18,2,7.44,4.9,1.69,3.88,1.37,6.49-2.47,6.82-2.38,.21-5.21-2.46-5.58-3.62-.64-2-1.17-7.49,.61-8.11Z"/>
              <path class="cls-6" d="M10.05,.83c1.87-.65,6.09,1.97,7.34,4.88,1.66,3.81,1.34,6.42-2.41,6.76-2.35,.21-5.12-2.44-5.48-3.59-.62-1.96-1.18-7.45,.55-8.05Z"/>
              <path class="cls-9" d="M10.05,.86c1.82-.63,5.98,1.94,7.23,4.85,1.62,3.75,1.32,6.36-2.34,6.71-2.32,.22-5.04-2.43-5.39-3.55-.61-1.93-1.2-7.41,.5-8Z"/>
              <path class="cls-20" d="M10.06,.9c1.77-.61,5.88,1.91,7.13,4.82,1.58,3.69,1.29,6.3-2.27,6.65-2.29,.22-4.96-2.41-5.3-3.51-.6-1.89-1.21-7.38,.44-7.95Z"/>
              <path class="cls-18" d="M10.06,.93c1.73-.6,5.78,1.88,7.02,4.79,1.55,3.63,1.26,6.24-2.2,6.59-2.26,.23-4.87-2.4-5.21-3.48-.58-1.85-1.22-7.34,.39-7.9Z"/>
              <path class="cls-25" d="M10.07,.96c1.68-.58,5.69,1.85,6.92,4.76,1.51,3.57,1.24,6.18-2.13,6.53-2.24,.23-4.79-2.38-5.12-3.44-.57-1.82-1.23-7.31,.34-7.85Z"/>
              <path class="cls-24" d="M10.07,.99c1.63-.56,5.59,1.82,6.81,4.73,1.48,3.51,1.21,6.12-2.07,6.47-2.21,.24-4.71-2.37-5.03-3.41-.56-1.78-1.25-7.27,.28-7.79Z"/>
              <path class="cls-22" d="M10.08,1.03c1.59-.54,5.49,1.79,6.71,4.7,1.44,3.44,1.19,6.06-2,6.41-2.18,.24-4.62-2.35-4.94-3.37-.55-1.75-1.26-7.23,.23-7.74Z"/>
              <path class="cls-59" d="M10.08,1.06c1.54-.53,5.39,1.76,6.6,4.68,1.41,3.38,1.16,5.99-1.93,6.35-2.15,.25-4.54-2.34-4.85-3.34-.53-1.71-1.27-7.2,.17-7.69Z"/>
              <path class="cls-61" d="M10.09,1.09c1.5-.51,5.29,1.73,6.5,4.65,1.37,3.32,1.13,5.93-1.86,6.29-2.12,.25-4.46-2.32-4.76-3.3-.52-1.68-1.29-7.16,.12-7.64Z"/>
              <path class="cls-57" d="M10.09,1.13c1.45-.49,5.19,1.7,6.39,4.62,1.34,3.26,1.11,5.87-1.79,6.23-2.09,.26-4.37-2.31-4.67-3.26-.51-1.64-1.3-7.13,.07-7.59Z"/>
              <path class="cls-55" d="M10.1,1.16c1.4-.47,5.09,1.66,6.29,4.59,1.3,3.2,1.08,5.81-1.72,6.17-2.07,.26-4.29-2.29-4.58-3.23-.49-1.6-1.31-7.09,.01-7.54Z"/>
              <path class="cls-71" d="M10.1,1.19c1.36-.46,5,1.63,6.18,4.56,1.27,3.13,1.05,5.75-1.66,6.11-2.04,.27-4.21-2.28-4.49-3.19-.48-1.57-1.32-7.05-.04-7.48Z"/>
              <path class="cls-69" d="M10.11,1.23c1.31-.44,4.9,1.6,6.08,4.53s1.03,5.7-1.59,6.05c-2.01,.28-4.12-2.26-4.4-3.16-.47-1.53-1.34-7.02-.09-7.43Z"/>
              <path class="cls-64" d="M10.11,1.26c1.26-.42,4.8,1.57,5.97,4.51s1,5.64-1.52,6c-1.98,.28-4.04-2.25-4.31-3.12-.46-1.5-1.35-6.98-.15-7.38Z"/>
              <path class="cls-66" d="M10.12,1.29c1.22-.4,4.7,1.54,5.87,4.48,1.17,2.95,.98,5.58-1.45,5.94-1.95,.29-3.96-2.23-4.21-3.09-.44-1.46-1.36-6.95-.2-7.33Z"/>
              <path class="cls-62" d="M10.12,1.33c1.17-.39,4.6,1.51,5.76,4.45,1.14,2.88,.95,5.52-1.38,5.88-1.92,.3-3.87-2.22-4.12-3.05-.43-1.43-1.38-6.91-.26-7.28Z"/>
              <path class="cls-42" d="M10.13,1.36c1.12-.37,4.51,1.48,5.66,4.42s.92,5.46-1.31,5.82c-1.9,.3-3.79-2.2-4.03-3.01-.42-1.39-1.39-6.87-.31-7.22Z"/>
              <path class="cls-38" d="M10.13,1.39c1.08-.35,4.41,1.44,5.55,4.39,1.07,2.76,.9,5.41-1.25,5.76-1.87,.31-3.71-2.19-3.94-2.98-.4-1.36-1.4-6.84-.36-7.17Z"/>
              <path class="cls-40" d="M10.14,1.43c1.03-.33,4.31,1.41,5.45,4.36,1.04,2.7,.87,5.35-1.18,5.7-1.84,.32-3.62-2.17-3.85-2.94-.39-1.32-1.41-6.8-.42-7.12Z"/>
              <path class="cls-34" d="M10.14,1.46c.99-.31,4.21,1.38,5.34,4.34,1,2.63,.85,5.29-1.11,5.64-1.81,.32-3.54-2.16-3.76-2.91-.38-1.28-1.43-6.77-.47-7.07Z"/>
              <path class="cls-33" d="M10.15,1.49c.94-.3,4.12,1.35,5.24,4.31,.97,2.57,.82,5.24-1.04,5.58s-3.46-2.14-3.67-2.87c-.36-1.25-1.44-6.73-.53-7.02Z"/>
              <path class="cls-37" d="M10.15,1.53c.89-.28,4.02,1.32,5.13,4.28,.94,2.51,.79,5.18-.97,5.52s-3.37-2.13-3.58-2.84c-.35-1.21-1.45-6.69-.58-6.96Z"/>
              <path class="cls-72" d="M10.15,1.56c.85-.26,3.93,1.29,5.03,4.25,.91,2.44,.77,5.12-.9,5.46s-3.29-2.11-3.49-2.8c-.34-1.18-1.46-6.66-.63-6.91Z"/>
              <path class="cls-75" d="M10.16,1.59c.8-.24,3.83,1.25,4.92,4.22,.88,2.38,.74,5.07-.84,5.4-1.7,.36-3.21-2.1-3.4-2.77-.33-1.14-1.48-6.62-.69-6.86Z"/>
              <path class="cls-48" d="M10.16,1.63c.75-.23,3.73,1.22,4.82,4.19,.84,2.32,.72,5.02-.77,5.35-1.67,.37-3.12-2.08-3.31-2.73-.31-1.11-1.49-6.59-.74-6.81Z"/>
              <path class="cls-50" d="M10.17,1.66c.71-.21,3.64,1.19,4.71,4.16,.81,2.25,.69,4.96-.7,5.29-1.64,.38-3.04-2.07-3.22-2.69-.3-1.07-1.5-6.55-.79-6.76Z"/>
              <path class="cls-52" d="M10.17,1.69c.66-.19,3.54,1.16,4.61,4.14,.78,2.19,.67,4.91-.63,5.23-1.61,.39-2.96-2.05-3.13-2.66-.29-1.03-1.52-6.51-.85-6.71Z"/>
              <path class="cls-44" d="M10.18,1.72c.61-.17,3.45,1.12,4.5,4.11,.75,2.13,.64,4.86-.56,5.17-1.58,.41-2.87-2.04-3.04-2.62-.27-1-1.53-6.48-.9-6.65Z"/>
              <path class="cls-47" d="M10.18,1.76c.57-.16,3.36,1.09,4.4,4.08,.72,2.06,.62,4.8-.5,5.11-1.55,.42-2.79-2.02-2.94-2.59-.26-.96-1.54-6.44-.96-6.6Z"/>
            </g>
          </g>
          <path class="cls-27" d="M9.62,9.06c1.94,0,3.7,.5,4.99,1.3,.1-.56,.15-1.14,.15-1.74,0-3.94-2.3-7.14-5.14-7.14s-5.14,3.2-5.14,7.14c0,.6,.05,1.18,.15,1.74,1.28-.8,3.04-1.3,4.99-1.3Z"/>
          <path class="cls-13" d="M10.74,18.83c-.89,0-1.62-.73-1.62-1.62v-1.07c0-.2,.17-.37,.37-.37s.37,.17,.37,.37v1.07c0,.49,.4,.88,.88,.88s.88-.4,.88-.88c0-.2,.17-.37,.37-.37s.37,.17,.37,.37c0,.89-.73,1.62-1.62,1.62Z"/>
          <path class="cls-28" d="M10.87,18.83c-.89,0-1.62-.73-1.62-1.62v-1.07c0-.2,.17-.37,.37-.37s.37,.17,.37,.37v1.07c0,.49,.4,.88,.88,.88s.88-.4,.88-.88c0-.2,.17-.37,.37-.37s.37,.17,.37,.37c0,.89-.73,1.62-1.62,1.62Z"/>
        </g>
      </g>
    </g>
  </g>
</svg>