<?xml version="1.0" encoding="UTF-8"?>
<svg xmlns="http://www.w3.org/2000/svg" xmlns:xlink="http://www.w3.org/1999/xlink" viewBox="0 0 19.05 19.57">
  <defs>
    <style>
      .cls-1 {
        fill: url(#radial-gradient-2);
      }

      .cls-1, .cls-2, .cls-3 {
        mix-blend-mode: multiply;
      }

      .cls-2 {
        fill: url(#radial-gradient-3);
      }

      .cls-4 {
        fill: #fff;
      }

      .cls-3 {
        fill: url(#radial-gradient);
      }

      .cls-5 {
        isolation: isolate;
      }
    </style>
    <radialGradient id="radial-gradient" cx="842.08" cy="1077.31" fx="842.08" fy="1077.31" r="6.81" gradientTransform="translate(-1004.08 -906.96) rotate(-9.76)" gradientUnits="userSpaceOnUse">
      <stop offset="0" stop-color="#bcd3e0"/>
      <stop offset=".05" stop-color="#c0d5e1"/>
      <stop offset=".65" stop-color="#edf3f6"/>
      <stop offset=".95" stop-color="#fff"/>
    </radialGradient>
    <radialGradient id="radial-gradient-2" cx="844.37" cy="1073.9" fx="844.37" fy="1073.9" r="8.36" xlink:href="#radial-gradient"/>
    <radialGradient id="radial-gradient-3" cx="844.43" cy="1076.82" fx="844.43" fy="1076.82" r="8.34" xlink:href="#radial-gradient"/>
  </defs>
  <g class="cls-5">
    <g id="Ebene_2" data-name="Ebene 2">
      <g id="Paper-Icons">
        <g>
          <path class="cls-3" d="M15.19,10.96c.64,3.71-1.85,7.23-5.55,7.86-3.71,.64-7.23-1.85-7.86-5.55-.64-3.71,1.85-7.23,5.55-7.86,3.71-.64,7.23,1.85,7.86,5.55Z"/>
          <path class="cls-1" d="M18.4,6.94c.78,4.55-2.27,8.87-6.82,9.65-4.55,.78-8.87-2.27-9.65-6.82C1.14,5.23,4.2,.9,8.75,.12c4.55-.78,8.87,2.27,9.65,6.82Z"/>
          <path class="cls-2" d="M18.93,9.81c.78,4.54-2.27,8.86-6.81,9.64-4.54,.78-8.86-2.27-9.64-6.81C1.71,8.1,4.76,3.79,9.3,3.01c4.54-.78,8.86,2.27,9.64,6.81Z"/>
          <g>
            <path class="cls-4" d="M11.97,5.04s-.02,.02-.03,.04L2.49,14.54c-.06,.06-.14,.09-.22,.09-.08,0-.16-.03-.22-.09-.11-.11-.12-.28-.03-.41,0-.01,.02-.02,.03-.03L11.5,4.63c.12-.12,.32-.12,.44,0,.11,.11,.12,.28,.03,.41Z"/>
            <path class="cls-4" d="M11.8,6.6s-.02,.02-.03,.04c-.12,.12-.32,.12-.44,0l-1.39-1.38c-.11-.11-.12-.28-.03-.41,0-.01,.02-.02,.03-.04,.12-.12,.32-.12,.44,0l1.39,1.38c.11,.11,.12,.28,.03,.41Z"/>
            <path class="cls-4" d="M4.08,14.33s-.02,.02-.03,.04c-.12,.12-.32,.12-.44,0l-1.39-1.38c-.11-.11-.12-.28-.03-.41,0-.01,.02-.03,.03-.04,.12-.12,.32-.12,.44,0l1.38,1.38c.11,.11,.12,.28,.03,.41Z"/>
            <path class="cls-4" d="M11.98,14.49s-.02,.03-.03,.04c-.06,.06-.14,.09-.22,.09s-.16-.03-.22-.09L2.04,5.08c-.11-.11-.12-.28-.03-.41,0-.01,.02-.02,.03-.04,.06-.06,.14-.09,.22-.09s.16,.03,.22,.09L11.95,14.09c.11,.11,.12,.28,.03,.41Z"/>
            <path class="cls-4" d="M11.81,12.93s-.02,.02-.03,.04l-1.38,1.39c-.06,.06-.14,.09-.22,.09-.08,0-.16-.03-.22-.09-.11-.11-.12-.28-.03-.41,0-.01,.02-.02,.03-.03l1.38-1.39c.06-.06,.14-.09,.22-.09s.16,.03,.22,.09c.11,.11,.12,.28,.03,.41Z"/>
            <path class="cls-4" d="M4.07,5.22s-.02,.02-.03,.04l-1.38,1.38c-.06,.06-.14,.09-.22,.09-.08,0-.16-.03-.22-.09-.11-.11-.12-.28-.03-.41,0-.01,.02-.03,.03-.04l1.38-1.39c.06-.06,.14-.09,.22-.09s.16,.03,.22,.09c.11,.11,.12,.28,.03,.41Z"/>
            <path class="cls-4" d="M7.26,16.45s-.02,.03-.03,.04c-.06,.06-.14,.09-.22,.09s-.16-.03-.22-.09c-.06-.06-.09-.14-.09-.22V2.9c-.01-.07,0-.13,.05-.19,.06-.08,.15-.13,.25-.12,.08,0,.16,.03,.22,.09,.06,.06,.09,.14,.09,.22v13.37c.01,.07,0,.13-.05,.18Z"/>
            <path class="cls-4" d="M8.23,15.23s-.02,.02-.03,.04c-.06,.06-.14,.09-.22,.09h-1.96c-.08,0-.16-.03-.22-.09-.06-.06-.09-.14-.09-.22,0-.07,.02-.13,.06-.18,.06-.08,.15-.13,.25-.13h1.96c.08,0,.16,.03,.22,.09,.06,.06,.09,.14,.09,.22,0,.07-.02,.13-.06,.18Z"/>
            <path class="cls-4" d="M8.22,4.31s-.02,.02-.03,.04c-.06,.06-.14,.09-.22,.09h-1.96c-.17,0-.31-.14-.31-.31,0-.07,.02-.13,.06-.19,.06-.08,.15-.12,.25-.12h1.96c.08,0,.16,.03,.22,.09,.06,.06,.09,.14,.09,.22,0,.07-.02,.13-.06,.19Z"/>
            <path class="cls-4" d="M13.93,9.76s-.02,.02-.03,.03c-.06,.06-.14,.09-.22,.09H.31c-.08,.01-.16-.02-.22-.08-.06-.06-.09-.14-.09-.22,0-.07,.02-.13,.06-.18,.06-.08,.15-.13,.25-.13H13.68c.08-.01,.16,.02,.22,.08,.06,.06,.09,.14,.09,.22,0,.07-.02,.13-.06,.19Z"/>
            <path class="cls-4" d="M1.79,10.75s-.02,.03-.03,.04c-.06,.06-.14,.09-.22,.09-.08,0-.16-.03-.22-.09-.06-.06-.09-.14-.09-.22v-1.96c0-.07,.02-.13,.06-.18,.06-.08,.15-.13,.25-.13,.08,0,.16,.04,.22,.09,.06,.06,.09,.14,.09,.22v1.96c0,.07-.02,.13-.06,.19Z"/>
            <path class="cls-4" d="M12.71,10.74s-.02,.02-.03,.04c-.06,.06-.14,.09-.22,.09-.08,0-.16-.03-.22-.09-.06-.06-.09-.14-.09-.22v-1.96c0-.07,.02-.13,.06-.19,.06-.08,.15-.13,.25-.13,.08,0,.16,.03,.22,.09,.06,.06,.09,.14,.09,.22v1.96c0,.07-.02,.13-.06,.18Z"/>
            <path class="cls-4" d="M9.86,12.38s-.02,.02-.03,.03c-.06,.06-.15,.09-.24,.08l-1.48-.24-.88,1.22c-.06,.07-.14,.12-.23,.12s-.17-.04-.23-.12l-.88-1.22-1.48,.24c-.09,.01-.18-.02-.24-.08-.06-.06-.09-.15-.08-.24l.24-1.48-1.22-.88c-.07-.05-.12-.14-.12-.23,0-.06,.02-.12,.05-.17,.02-.02,.04-.04,.06-.06l1.22-.88-.24-1.48c-.01-.07,0-.15,.05-.21,0-.01,.02-.02,.03-.03,.06-.06,.15-.09,.24-.08l1.48,.24,.88-1.22c.05-.08,.14-.12,.23-.12,.09,0,.18,.04,.23,.12l.88,1.22,1.48-.24c.09-.01,.18,.02,.24,.08,.06,.06,.09,.15,.08,.24l-.24,1.48,1.19,.85s.05,.03,.07,.05c.1,.1,.11,.25,.03,.36,0,.01-.02,.02-.03,.03h0s-.02,.03-.03,.03l-1.22,.88,.24,1.48c.01,.07,0,.15-.05,.21Zm-2.11-.6s.02-.02,.03-.03c.06-.06,.15-.09,.24-.08l1.27,.2-.21-1.27c-.01-.07,0-.15,.05-.21,.02-.02,.04-.04,.06-.06l1.04-.75-1.04-.75c-.09-.06-.13-.17-.11-.27l.2-1.27-1.27,.21c-.1,.02-.21-.03-.27-.11l-.75-1.04-.75,1.04c-.06,.09-.17,.13-.27,.11l-1.27-.2,.21,1.27c.01,.07,0,.15-.05,.21-.02,.02-.04,.04-.06,.06l-1.04,.75,1.04,.75c.09,.06,.13,.17,.11,.27l-.21,1.27,1.27-.21c.1-.02,.21,.03,.27,.11l.75,1.04,.75-1.04h0Z"/>
            <path class="cls-4" d="M11.78,11.63s-.02,.02-.03,.03c-.04,.04-.08,.06-.13,.07l-1.99,.47-.47,1.99s-.02,.07-.05,.1c-.03,.04-.07,.07-.12,.09-.08,.04-.18,.03-.25-.02l-1.74-1.07-1.74,1.08c-.08,.05-.17,.06-.25,.02-.08-.03-.14-.11-.16-.19l-.47-1.99-1.99-.47c-.09-.02-.16-.08-.19-.16-.04-.08-.03-.18,.02-.25l1.07-1.74-1.08-1.74c-.05-.08-.06-.17-.02-.25,0-.02,.02-.04,.03-.06,.04-.05,.1-.09,.16-.11l1.99-.47,.47-1.99s.02-.07,.05-.1c.03-.04,.07-.07,.12-.09,.08-.04,.18-.03,.25,.02l1.74,1.07,1.74-1.07c.08-.05,.17-.05,.26-.02,.08,.04,.14,.11,.17,.2l.47,1.99,1.99,.47c.09,.02,.16,.08,.19,.17,.03,.08,.03,.18-.02,.25l-1.07,1.74,1.07,1.74c.05,.08,.06,.17,.02,.25,0,.02-.02,.04-.03,.06Zm-2.61,.18c.04-.05,.1-.09,.16-.11l1.78-.42-.96-1.56c-.06-.09-.06-.2,0-.29l.96-1.56-1.78-.42c-.1-.02-.18-.11-.21-.21l-.42-1.78-1.55,.96c-.09,.06-.2,.06-.29,0l-1.56-.96-.42,1.78s-.03,.07-.05,.1c-.04,.05-.1,.09-.16,.11l-1.78,.42,.96,1.55c.06,.09,.06,.2,0,.29l-.96,1.55,1.78,.42c.1,.03,.18,.1,.21,.21l.42,1.78,1.55-.96c.09-.06,.2-.06,.29,0l1.56,.96,.42-1.78s.02-.07,.05-.1Z"/>
          </g>
        </g>
      </g>
    </g>
  </g>
</svg>