<?xml version="1.0" encoding="UTF-8"?>
<svg xmlns="http://www.w3.org/2000/svg" xmlns:xlink="http://www.w3.org/1999/xlink" viewBox="0 0 25.5 23.34">
  <defs>
    <style>
      .cls-1 {
        fill: #f9fbfb;
        opacity: .05;
      }

      .cls-2 {
        fill: #f3f6f7;
      }

      .cls-2, .cls-3 {
        opacity: .1;
      }

      .cls-3 {
        fill: #f4f6f8;
      }

      .cls-4 {
        fill: url(#linear-gradient);
      }

      .cls-5 {
        fill: #e9f2f5;
      }

      .cls-6 {
        fill: #ffe3ab;
      }

      .cls-7, .cls-8 {
        fill: #fff;
      }

      .cls-9 {
        fill: #8ba3b5;
      }

      .cls-10 {
        fill: #86a2b0;
      }

      .cls-11 {
        mix-blend-mode: multiply;
      }

      .cls-12 {
        fill: #eef2f4;
        opacity: .14;
      }

      .cls-13 {
        fill: #e8edf0;
      }

      .cls-13, .cls-14 {
        opacity: .19;
      }

      .cls-14 {
        fill: #e9edf1;
      }

      .cls-15 {
        fill: url(#linear-gradient-8);
      }

      .cls-16 {
        fill: url(#linear-gradient-9);
      }

      .cls-17 {
        fill: url(#linear-gradient-3);
      }

      .cls-18 {
        fill: url(#linear-gradient-4);
      }

      .cls-19 {
        fill: url(#linear-gradient-2);
      }

      .cls-20 {
        fill: url(#linear-gradient-6);
      }

      .cls-21 {
        fill: url(#linear-gradient-7);
      }

      .cls-22 {
        fill: url(#linear-gradient-5);
      }

      .cls-8 {
        opacity: 0;
      }

      .cls-23 {
        fill: url(#linear-gradient-14);
      }

      .cls-24 {
        fill: url(#linear-gradient-15);
      }

      .cls-25 {
        fill: url(#linear-gradient-16);
      }

      .cls-26 {
        fill: url(#linear-gradient-17);
      }

      .cls-27 {
        fill: url(#linear-gradient-13);
      }

      .cls-28 {
        fill: url(#linear-gradient-12);
      }

      .cls-29 {
        fill: url(#linear-gradient-10);
      }

      .cls-30 {
        fill: url(#linear-gradient-11);
      }

      .cls-31 {
        isolation: isolate;
      }

      .cls-32 {
        fill: #bdcad5;
      }

      .cls-32, .cls-33 {
        opacity: .57;
      }

      .cls-33 {
        fill: #bacad2;
      }

      .cls-34 {
        fill: #b7c6d1;
      }

      .cls-34, .cls-35 {
        opacity: .62;
      }

      .cls-35 {
        fill: #b4c5ce;
      }

      .cls-36 {
        fill: #c0ced6;
      }

      .cls-36, .cls-37 {
        opacity: .52;
      }

      .cls-37 {
        fill: #c2cfd8;
      }

      .cls-38 {
        fill: #c8d3dc;
      }

      .cls-38, .cls-39 {
        opacity: .48;
      }

      .cls-39 {
        fill: #c5d3d9;
      }

      .cls-40 {
        fill: #96acbc;
      }

      .cls-40, .cls-41 {
        opacity: .9;
      }

      .cls-41 {
        fill: #92abb8;
      }

      .cls-42 {
        fill: #9cb0c0;
      }

      .cls-42, .cls-43 {
        opacity: .86;
      }

      .cls-43 {
        fill: #97afbb;
      }

      .cls-44 {
        fill: #a7b9c7;
      }

      .cls-44, .cls-45 {
        opacity: .76;
      }

      .cls-45 {
        fill: #a3b8c3;
      }

      .cls-46 {
        fill: #a1b5c3;
      }

      .cls-46, .cls-47 {
        opacity: .81;
      }

      .cls-47 {
        fill: #9db4bf;
      }

      .cls-48 {
        fill: #acbdca;
      }

      .cls-48, .cls-49 {
        opacity: .71;
      }

      .cls-49 {
        fill: #a9bdc7;
      }

      .cls-50 {
        fill: #d7e0e5;
      }

      .cls-50, .cls-51 {
        opacity: .33;
      }

      .cls-51 {
        fill: #d8e0e6;
      }

      .cls-52 {
        fill: #dee5ea;
      }

      .cls-52, .cls-53 {
        opacity: .29;
      }

      .cls-53 {
        fill: #dce4e8;
      }

      .cls-54 {
        fill: #e2e9ec;
      }

      .cls-54, .cls-55 {
        opacity: .24;
      }

      .cls-55 {
        fill: #e3e9ed;
      }

      .cls-56 {
        fill: #cbd7dd;
      }

      .cls-56, .cls-57 {
        opacity: .43;
      }

      .cls-57 {
        fill: #cdd8df;
      }

      .cls-58 {
        fill: #d3dce3;
      }

      .cls-58, .cls-59 {
        opacity: .38;
      }

      .cls-59 {
        fill: #d1dce1;
      }

      .cls-60 {
        fill: #b2c2ce;
      }

      .cls-60, .cls-61 {
        opacity: .67;
      }

      .cls-61 {
        fill: #aec1ca;
      }

      .cls-62 {
        fill: #8ca6b4;
      }

      .cls-62, .cls-63 {
        opacity: .95;
      }

      .cls-63 {
        fill: #91a7b9;
      }
    </style>
    <linearGradient id="linear-gradient" x1="11.45" y1="1.49" x2="13.33" y2="3.37" gradientUnits="userSpaceOnUse">
      <stop offset="0" stop-color="#ffd45c"/>
      <stop offset="1" stop-color="#ff9d00"/>
    </linearGradient>
    <linearGradient id="linear-gradient-2" x1="11.45" y1="14.6" x2="13.33" y2="16.48" xlink:href="#linear-gradient"/>
    <linearGradient id="linear-gradient-3" x1="2189.19" y1="209.14" x2="2187.31" y2="211.02" gradientTransform="translate(-204.24 2197.23) rotate(-90)" xlink:href="#linear-gradient"/>
    <linearGradient id="linear-gradient-4" x1="2189.19" y1="222.25" x2="2187.31" y2="224.13" gradientTransform="translate(-204.24 2197.23) rotate(-90)" xlink:href="#linear-gradient"/>
    <linearGradient id="linear-gradient-5" x1="2536.12" y1="1341.11" x2="2534.2" y2="1341.11" gradientTransform="translate(852.08 2754.53) rotate(-135)" xlink:href="#linear-gradient"/>
    <linearGradient id="linear-gradient-6" x1="2536.12" y1="1354.21" x2="2534.2" y2="1354.21" gradientTransform="translate(852.08 2754.53) rotate(-135)" xlink:href="#linear-gradient"/>
    <linearGradient id="linear-gradient-7" x1="849.75" y1="2734.73" x2="849.75" y2="2730.97" gradientTransform="translate(2550.29 1345.16) rotate(135)" xlink:href="#linear-gradient"/>
    <linearGradient id="linear-gradient-8" x1="849.75" y1="2747.83" x2="849.75" y2="2744.08" gradientTransform="translate(2550.29 1345.16) rotate(135)" xlink:href="#linear-gradient"/>
    <linearGradient id="linear-gradient-9" x1="17.47" y1="10.51" x2="19.43" y2="12.47" gradientUnits="userSpaceOnUse">
      <stop offset="0" stop-color="#ffbb31"/>
      <stop offset="1" stop-color="#ff9d00"/>
    </linearGradient>
    <linearGradient id="linear-gradient-10" x1="5.36" y1="5.5" x2="7.32" y2="7.46" xlink:href="#linear-gradient-9"/>
    <linearGradient id="linear-gradient-11" x1="8.9" y1="1.95" x2="10.87" y2="3.91" xlink:href="#linear-gradient-9"/>
    <linearGradient id="linear-gradient-12" x1="13.92" y1="14.06" x2="15.88" y2="16.02" xlink:href="#linear-gradient-9"/>
    <linearGradient id="linear-gradient-13" x1="5.76" y1="10.91" x2="6.92" y2="12.07" xlink:href="#linear-gradient-9"/>
    <linearGradient id="linear-gradient-14" x1="17.87" y1="5.9" x2="19.03" y2="7.06" xlink:href="#linear-gradient-9"/>
    <linearGradient id="linear-gradient-15" x1="9.3" y1="14.46" x2="10.47" y2="15.62" xlink:href="#linear-gradient-9"/>
    <linearGradient id="linear-gradient-16" x1="14.32" y1="2.35" x2="15.48" y2="3.51" xlink:href="#linear-gradient-9"/>
    <linearGradient id="linear-gradient-17" x1="8.61" y1="5.21" x2="16.17" y2="12.76" xlink:href="#linear-gradient"/>
  </defs>
  <g class="cls-31">
    <g id="Ebene_2" data-name="Ebene 2">
      <g id="Paper-Icons">
        <g>
          <g>
            <g>
              <g class="cls-11">
                <path class="cls-8" d="M17,8.6c-1.18-.44-1.25-1.65-.19-2.65,.56-.52,1.46-.83,2.53-.67,1.16,.18,1.65,1.1,.89,2.09-.75,.97-2.13,1.64-3.23,1.23Z"/>
                <path class="cls-1" d="M17.04,8.54c-1.16-.42-1.23-1.61-.19-2.57,.56-.52,1.45-.81,2.48-.65,1.13,.17,1.6,1.07,.85,2.04-.73,.94-2.06,1.58-3.14,1.19Z"/>
                <path class="cls-2" d="M17.08,8.49c-1.14-.4-1.21-1.56-.19-2.49,.56-.51,1.43-.79,2.43-.64,1.09,.16,1.55,1.03,.81,1.98s-1.99,1.52-3.05,1.15Z"/>
                <path class="cls-12" d="M17.12,8.44c-1.11-.37-1.19-1.52-.19-2.41,.56-.5,1.42-.77,2.37-.62,1.05,.16,1.5,.99,.77,1.92-.69,.87-1.92,1.46-2.95,1.11Z"/>
                <path class="cls-13" d="M17.17,8.38c-1.09-.35-1.16-1.47-.19-2.33,.56-.49,1.4-.75,2.32-.61,1.02,.15,1.45,.96,.73,1.86-.67,.84-1.86,1.4-2.86,1.08Z"/>
                <path class="cls-54" d="M17.21,8.33c-1.07-.33-1.14-1.42-.19-2.25,.55-.48,1.39-.72,2.27-.59,.98,.14,1.4,.92,.69,1.81-.65,.81-1.79,1.34-2.77,1.04Z"/>
                <path class="cls-53" d="M17.25,8.27c-1.05-.3-1.12-1.38-.19-2.17,.55-.47,1.37-.7,2.22-.58,.94,.13,1.35,.89,.64,1.75-.63,.77-1.72,1.28-2.67,1Z"/>
                <path class="cls-50" d="M17.29,8.22c-1.03-.28-1.09-1.33-.19-2.09,.55-.46,1.36-.68,2.16-.56,.91,.12,1.3,.85,.6,1.69-.61,.74-1.65,1.22-2.58,.97Z"/>
                <path class="cls-59" d="M17.33,8.16c-1.01-.26-1.07-1.29-.19-2.01,.55-.46,1.34-.66,2.11-.55,.87,.12,1.25,.81,.56,1.63-.59,.71-1.58,1.16-2.49,.93Z"/>
                <path class="cls-56" d="M17.37,8.11c-.99-.23-1.04-1.24-.19-1.93,.55-.45,1.33-.63,2.06-.53,.83,.11,1.2,.78,.52,1.58-.57,.67-1.51,1.1-2.39,.89Z"/>
                <path class="cls-39" d="M17.41,8.05c-.97-.21-1.02-1.19-.19-1.85,.55-.44,1.31-.61,2.01-.52,.79,.1,1.15,.74,.48,1.52-.55,.64-1.44,1.04-2.3,.85Z"/>
                <path class="cls-36" d="M17.45,8c-.95-.19-1-1.14-.19-1.77,.55-.43,1.3-.59,1.95-.5,.76,.09,1.1,.71,.44,1.46-.53,.61-1.37,.98-2.21,.82Z"/>
                <path class="cls-33" d="M17.49,7.94c-.93-.16-.97-1.1-.19-1.69,.55-.42,1.28-.56,1.9-.49,.72,.09,1.05,.67,.4,1.41-.51,.58-1.3,.92-2.11,.78Z"/>
                <path class="cls-35" d="M17.54,7.89c-.91-.14-.95-1.05-.19-1.61,.55-.41,1.27-.54,1.85-.47,.68,.08,1,.64,.36,1.35-.49,.54-1.23,.86-2.02,.74Z"/>
                <path class="cls-61" d="M17.58,7.84c-.89-.11-.92-1-.19-1.53,.55-.4,1.25-.52,1.79-.46,.65,.07,.96,.6,.32,1.29-.47,.51-1.16,.8-1.93,.7Z"/>
                <path class="cls-49" d="M17.62,7.78c-.87-.09-.9-.95-.19-1.45,.55-.39,1.24-.5,1.74-.45,.61,.06,.91,.57,.28,1.23-.45,.48-1.09,.74-1.83,.67Z"/>
                <path class="cls-45" d="M17.66,7.73c-.85-.06-.87-.9-.19-1.37,.55-.38,1.22-.47,1.69-.43,.57,.06,.86,.53,.24,1.18-.43,.45-1.03,.68-1.74,.63Z"/>
                <path class="cls-47" d="M17.7,7.67c-.83-.04-.84-.85-.19-1.29,.55-.37,1.21-.45,1.64-.42,.54,.05,.81,.5,.2,1.12-.41,.42-.96,.62-1.65,.59Z"/>
                <path class="cls-43" d="M17.74,7.62c-.81-.01-.82-.8-.19-1.21,.55-.36,1.19-.43,1.58-.4,.5,.04,.76,.46,.16,1.06-.39,.38-.89,.56-1.55,.55Z"/>
                <path class="cls-41" d="M17.78,7.56c-.79,.01-.79-.75-.19-1.13,.55-.35,1.18-.41,1.53-.39,.46,.03,.71,.43,.12,1-.37,.35-.82,.51-1.46,.52Z"/>
                <path class="cls-62" d="M17.82,7.51c-.77,.04-.77-.7-.19-1.05s1.17-.39,1.48-.37c.43,.02,.67,.4,.08,.95-.35,.32-.75,.45-1.37,.48Z"/>
                <path class="cls-10" d="M17.86,7.45c-.75,.07-.74-.65-.19-.97,.56-.32,1.15-.36,1.43-.36,.39,.01,.62,.36,.03,.89-.33,.29-.68,.39-1.27,.44Z"/>
              </g>
              <g class="cls-11">
                <path class="cls-8" d="M15.61,5.5c-1.14,.52-2.31-.44-2.26-1.9,.02-.77,.44-1.62,1.31-2.26,.95-.7,2.23,.08,2.4,1.32,.16,1.21-.38,2.36-1.45,2.84Z"/>
                <path class="cls-1" d="M15.59,5.42c-1.11,.52-2.25-.41-2.19-1.83,.03-.76,.44-1.6,1.29-2.22,.92-.68,2.16,.07,2.32,1.29,.15,1.18-.37,2.28-1.41,2.77Z"/>
                <path class="cls-2" d="M15.57,5.35c-1.08,.52-2.19-.39-2.12-1.77,.03-.75,.45-1.57,1.26-2.17,.89-.66,2.09,.05,2.23,1.25s-.36,2.2-1.37,2.69Z"/>
                <path class="cls-12" d="M15.54,5.27c-1.05,.52-2.13-.37-2.06-1.71,.04-.75,.46-1.55,1.23-2.12,.85-.64,2.01,.04,2.15,1.22,.13,1.1-.36,2.13-1.33,2.61Z"/>
                <path class="cls-13" d="M15.52,5.2c-1.02,.53-2.06-.34-1.99-1.64,.04-.74,.46-1.52,1.21-2.07,.82-.62,1.94,.03,2.07,1.18,.12,1.07-.35,2.05-1.29,2.53Z"/>
                <path class="cls-54" d="M15.5,5.12c-.99,.53-2-.32-1.92-1.58,.05-.73,.47-1.49,1.18-2.03,.79-.59,1.86,.02,1.98,1.15,.11,1.03-.34,1.97-1.24,2.46Z"/>
                <path class="cls-53" d="M15.48,5.05c-.96,.53-1.94-.3-1.85-1.52,.06-.73,.47-1.47,1.15-1.98,.76-.57,1.79,0,1.9,1.12,.1,.99-.33,1.9-1.2,2.38Z"/>
                <path class="cls-50" d="M15.46,4.97c-.93,.53-1.88-.27-1.78-1.45,.06-.72,.48-1.44,1.13-1.93,.73-.55,1.71,0,1.82,1.08,.09,.96-.32,1.82-1.16,2.3Z"/>
                <path class="cls-59" d="M15.44,4.9c-.9,.54-1.82-.25-1.71-1.39,.07-.71,.48-1.41,1.1-1.88,.7-.53,1.64-.02,1.73,1.05,.08,.92-.32,1.74-1.12,2.22Z"/>
                <path class="cls-56" d="M15.42,4.82c-.87,.54-1.76-.22-1.64-1.32,.07-.71,.49-1.39,1.07-1.83,.67-.51,1.56-.03,1.65,1.01,.07,.88-.31,1.67-1.08,2.15Z"/>
                <path class="cls-39" d="M15.39,4.75c-.84,.54-1.69-.2-1.58-1.26,.08-.7,.5-1.36,1.05-1.79,.63-.49,1.49-.05,1.57,.98,.06,.84-.3,1.59-1.04,2.07Z"/>
                <path class="cls-36" d="M15.37,4.67c-.8,.54-1.63-.18-1.51-1.2,.08-.69,.5-1.33,1.02-1.74,.6-.47,1.42-.06,1.48,.94,.05,.81-.29,1.51-1,1.99Z"/>
                <path class="cls-33" d="M15.35,4.6c-.77,.55-1.57-.15-1.44-1.13,.09-.69,.51-1.31,.99-1.69,.57-.45,1.34-.07,1.4,.91,.05,.77-.28,1.44-.96,1.91Z"/>
                <path class="cls-35" d="M15.33,4.52c-.74,.55-1.51-.13-1.37-1.07,.1-.68,.51-1.28,.97-1.64,.54-.43,1.27-.08,1.32,.88,.04,.73-.28,1.36-.92,1.83Z"/>
                <path class="cls-61" d="M15.31,4.45c-.71,.55-1.44-.11-1.3-1,.1-.67,.52-1.25,.94-1.6,.51-.41,1.2-.1,1.23,.84,.03,.7-.27,1.29-.87,1.76Z"/>
                <path class="cls-49" d="M15.29,4.37c-.68,.56-1.38-.08-1.23-.94,.11-.67,.52-1.23,.91-1.55,.48-.39,1.12-.11,1.15,.81,.02,.66-.26,1.21-.83,1.68Z"/>
                <path class="cls-45" d="M15.27,4.3c-.65,.56-1.31-.06-1.16-.88,.12-.66,.53-1.2,.89-1.5,.44-.37,1.05-.12,1.07,.77,.01,.62-.25,1.13-.79,1.6Z"/>
                <path class="cls-47" d="M15.24,4.22c-.62,.56-1.25-.03-1.1-.81,.13-.65,.53-1.18,.86-1.45,.41-.35,.98-.13,.99,.74,0,.58-.24,1.06-.75,1.52Z"/>
                <path class="cls-43" d="M15.22,4.14c-.58,.57-1.18-.01-1.03-.75,.14-.64,.54-1.15,.83-1.4,.38-.33,.91-.15,.9,.71,0,.55-.23,.98-.71,1.45Z"/>
                <path class="cls-41" d="M15.2,4.07c-.55,.57-1.12,.01-.96-.68,.14-.64,.54-1.12,.81-1.36,.35-.31,.84-.16,.82,.67-.01,.51-.22,.91-.67,1.37Z"/>
                <path class="cls-62" d="M15.18,3.99c-.52,.57-1.05,.04-.89-.62s.55-1.1,.78-1.31c.32-.29,.76-.17,.74,.64-.02,.47-.21,.83-.63,1.29Z"/>
                <path class="cls-10" d="M15.16,3.92c-.49,.58-.98,.06-.82-.56,.16-.62,.55-1.07,.76-1.26,.28-.27,.7-.18,.65,.6-.02,.44-.2,.76-.59,1.21Z"/>
              </g>
              <g class="cls-11">
                <path class="cls-8" d="M11.98,4.15c-.36,1.2-1.56,1.36-2.63,.37-.56-.52-.93-1.4-.84-2.48,.1-1.17,1.46-1.34,2.5-.65,1.02,.68,1.31,1.64,.97,2.76Z"/>
                <path class="cls-1" d="M11.93,4.11c-.34,1.18-1.52,1.34-2.55,.36-.55-.52-.91-1.39-.82-2.43,.09-1.14,1.4-1.31,2.42-.63,.99,.66,1.27,1.59,.95,2.69Z"/>
                <path class="cls-2" d="M11.87,4.07c-.32,1.16-1.48,1.31-2.47,.36-.55-.52-.89-1.37-.8-2.38,.09-1.1,1.35-1.28,2.35-.6s1.23,1.54,.93,2.62Z"/>
                <path class="cls-12" d="M11.81,4.03c-.3,1.14-1.43,1.29-2.39,.35-.54-.52-.86-1.36-.79-2.33,.08-1.06,1.29-1.24,2.27-.57,.92,.63,1.18,1.5,.91,2.55Z"/>
                <path class="cls-13" d="M11.76,4c-.28,1.11-1.39,1.26-2.31,.35-.53-.52-.84-1.35-.77-2.27,.08-1.02,1.24-1.21,2.19-.55,.88,.61,1.14,1.45,.89,2.47Z"/>
                <path class="cls-54" d="M11.7,3.96c-.25,1.09-1.34,1.23-2.23,.34-.52-.52-.82-1.33-.75-2.22,.07-.99,1.18-1.17,2.12-.52,.85,.59,1.1,1.4,.87,2.4Z"/>
                <path class="cls-53" d="M11.64,3.92c-.23,1.07-1.3,1.21-2.15,.34-.51-.52-.79-1.32-.73-2.17,.07-.95,1.13-1.14,2.04-.49,.81,.58,1.06,1.35,.85,2.33Z"/>
                <path class="cls-50" d="M11.58,3.89c-.21,1.05-1.25,1.18-2.07,.33-.5-.52-.77-1.31-.71-2.12,.06-.91,1.07-1.1,1.96-.47,.78,.56,1.01,1.31,.82,2.26Z"/>
                <path class="cls-59" d="M11.53,3.85c-.19,1.03-1.21,1.15-2,.32-.49-.52-.75-1.29-.69-2.07,.06-.87,1.02-1.07,1.88-.44,.75,.54,.97,1.26,.8,2.18Z"/>
                <path class="cls-56" d="M11.47,3.81c-.16,1.01-1.16,1.13-1.92,.32-.48-.52-.72-1.28-.67-2.02,.05-.84,.96-1.04,1.81-.41,.71,.52,.93,1.21,.78,2.11Z"/>
                <path class="cls-39" d="M11.41,3.77c-.14,.98-1.12,1.1-1.84,.31-.48-.52-.7-1.27-.66-1.96,.05-.8,.91-1,1.73-.39,.68,.51,.89,1.17,.76,2.04Z"/>
                <path class="cls-36" d="M11.36,3.74c-.12,.96-1.07,1.07-1.76,.31-.47-.52-.67-1.25-.64-1.91,.04-.76,.85-.97,1.65-.36,.64,.49,.85,1.12,.74,1.97Z"/>
                <path class="cls-33" d="M11.3,3.7c-.1,.94-1.03,1.04-1.68,.3-.46-.52-.65-1.24-.62-1.86,.04-.73,.8-.93,1.58-.33,.61,.47,.8,1.07,.72,1.89Z"/>
                <path class="cls-35" d="M11.24,3.66c-.07,.92-.98,1.02-1.6,.3-.45-.52-.63-1.23-.6-1.81,.03-.69,.75-.9,1.5-.31,.58,.45,.76,1.03,.7,1.82Z"/>
                <path class="cls-61" d="M11.18,3.62c-.05,.9-.93,.99-1.52,.29-.44-.52-.6-1.21-.58-1.76,.03-.65,.69-.87,1.42-.28,.54,.44,.72,.98,.68,1.75Z"/>
                <path class="cls-49" d="M11.13,3.59c-.03,.88-.89,.96-1.44,.29-.43-.52-.58-1.2-.56-1.71,.02-.61,.64-.84,1.35-.25,.51,.42,.68,.93,.66,1.68Z"/>
                <path class="cls-45" d="M11.07,3.55c0,.85-.84,.93-1.36,.28-.42-.52-.56-1.19-.55-1.66,.02-.58,.58-.8,1.27-.23,.48,.4,.64,.89,.63,1.6Z"/>
                <path class="cls-47" d="M11.01,3.51c.02,.83-.79,.9-1.28,.28-.41-.53-.53-1.17-.53-1.6,0-.54,.53-.77,1.19-.2,.44,.38,.6,.84,.61,1.53Z"/>
                <path class="cls-43" d="M10.96,3.47c.04,.81-.74,.87-1.2,.27-.4-.53-.51-1.16-.51-1.55,0-.5,.48-.74,1.11-.17,.41,.36,.56,.79,.59,1.46Z"/>
                <path class="cls-41" d="M10.9,3.44c.07,.79-.7,.84-1.12,.26-.39-.53-.49-1.15-.49-1.5,0-.46,.42-.71,1.04-.15,.38,.34,.52,.75,.57,1.39Z"/>
                <path class="cls-62" d="M10.84,3.4c.09,.77-.65,.81-1.04,.26s-.47-1.14-.47-1.45c0-.43,.37-.67,.96-.12,.34,.32,.48,.7,.55,1.31Z"/>
                <path class="cls-10" d="M10.78,3.36c.12,.75-.6,.78-.96,.25-.36-.53-.44-1.12-.45-1.4-.01-.39,.32-.64,.88-.09,.31,.3,.44,.65,.53,1.24Z"/>
              </g>
              <g class="cls-11">
                <path class="cls-8" d="M16.09,12.13c-.59-1.11,.16-2.07,1.62-2.11,.77-.02,1.65,.34,2.34,1.18,.75,.91,.5,1.92-.73,2.16-1.2,.23-2.68-.19-3.23-1.23Z"/>
                <path class="cls-1" d="M16.16,12.12c-.59-1.08,.15-2.02,1.57-2.05,.76-.01,1.62,.35,2.29,1.16,.73,.88,.49,1.86-.72,2.09-1.17,.22-2.59-.19-3.14-1.2Z"/>
                <path class="cls-2" d="M16.22,12.11c-.58-1.05,.13-1.97,1.51-1.99,.75-.01,1.6,.36,2.24,1.13,.71,.85,.48,1.8-.71,2.02s-2.5-.19-3.04-1.16Z"/>
                <path class="cls-12" d="M16.29,12.09c-.58-1.02,.12-1.92,1.46-1.93,.75,0,1.57,.37,2.19,1.11,.68,.82,.46,1.74-.7,1.95-1.09,.2-2.41-.19-2.95-1.13Z"/>
                <path class="cls-13" d="M16.36,12.08c-.59-.99,.11-1.89,1.41-1.87,.74,.01,1.54,.37,2.14,1.08,.66,.78,.45,1.68-.7,1.88-1.06,.18-2.32-.19-2.85-1.09Z"/>
                <path class="cls-54" d="M16.42,12.07c-.59-.96,.09-1.85,1.35-1.81,.73,.02,1.52,.38,2.09,1.06,.64,.75,.44,1.62-.69,1.81-1.02,.17-2.22-.18-2.76-1.06Z"/>
                <path class="cls-53" d="M16.49,12.05c-.59-.93,.08-1.77,1.3-1.75,.73,.01,1.49,.39,2.04,1.04,.62,.72,.42,1.56-.68,1.74-.99,.16-2.13-.18-2.66-1.03Z"/>
                <path class="cls-50" d="M16.56,12.04c-.59-.9,.07-1.72,1.25-1.69,.72,.02,1.47,.39,1.99,1.01,.59,.69,.41,1.5-.67,1.67-.95,.15-2.04-.18-2.57-.99Z"/>
                <path class="cls-59" d="M16.63,12.03c-.59-.86,.05-1.67,1.2-1.63,.72,.03,1.44,.4,1.94,.99,.57,.66,.4,1.44-.66,1.6-.91,.14-1.95-.18-2.48-.96Z"/>
                <path class="cls-56" d="M16.69,12.01c-.59-.83,.04-1.62,1.14-1.57,.71,.03,1.41,.41,1.89,.97,.55,.63,.38,1.38-.66,1.53-.88,.12-1.86-.18-2.38-.92Z"/>
                <path class="cls-39" d="M16.76,12c-.59-.8,.03-1.57,1.09-1.51,.7,.04,1.39,.42,1.84,.94,.53,.6,.37,1.32-.65,1.46-.84,.11-1.77-.18-2.29-.89Z"/>
                <path class="cls-36" d="M16.83,11.99c-.59-.77,.01-1.52,1.04-1.45,.7,.04,1.36,.42,1.8,.92,.5,.57,.36,1.26-.64,1.39-.8,.1-1.67-.18-2.19-.86Z"/>
                <path class="cls-33" d="M16.89,11.97c-.59-.74,0-1.46,.98-1.39,.69,.05,1.33,.43,1.75,.89,.48,.54,.34,1.2-.63,1.32-.77,.09-1.58-.18-2.1-.82Z"/>
                <path class="cls-35" d="M16.96,11.96c-.59-.71-.01-1.41,.93-1.33,.68,.06,1.31,.44,1.7,.87,.46,.51,.33,1.14-.63,1.25-.73,.08-1.49-.18-2-.79Z"/>
                <path class="cls-61" d="M17.03,11.95c-.59-.68-.03-1.36,.88-1.27,.68,.07,1.28,.44,1.65,.85,.44,.48,.32,1.08-.62,1.18-.69,.07-1.4-.17-1.91-.75Z"/>
                <path class="cls-49" d="M17.09,11.93c-.59-.65-.04-1.31,.83-1.21,.67,.07,1.26,.45,1.6,.82,.41,.45,.3,1.02-.61,1.11-.66,.06-1.31-.17-1.81-.72Z"/>
                <path class="cls-45" d="M17.16,11.92c-.6-.61-.05-1.25,.77-1.15,.66,.08,1.23,.46,1.55,.8,.39,.42,.29,.97-.6,1.04-.62,.05-1.22-.17-1.72-.68Z"/>
                <path class="cls-47" d="M17.23,11.91c-.6-.58-.07-1.2,.72-1.09,.66,.09,1.2,.46,1.5,.78,.37,.39,.28,.91-.59,.97-.58,.04-1.13-.17-1.62-.65Z"/>
                <path class="cls-43" d="M17.29,11.89c-.6-.55-.08-1.14,.67-1.03,.65,.1,1.18,.47,1.45,.75,.35,.36,.26,.85-.59,.9-.55,.03-1.04-.17-1.53-.62Z"/>
                <path class="cls-41" d="M17.36,11.88c-.6-.52-.09-1.09,.61-.97,.64,.11,1.15,.48,1.4,.73,.33,.33,.25,.79-.58,.83-.51,.02-.95-.16-1.44-.58Z"/>
                <path class="cls-62" d="M17.43,11.87c-.6-.48-.11-1.03,.56-.91s1.13,.48,1.35,.7c.3,.3,.24,.74-.57,.76-.47,.01-.86-.16-1.34-.55Z"/>
                <path class="cls-10" d="M17.5,11.85c-.61-.45-.12-.98,.51-.85,.63,.13,1.1,.49,1.3,.68,.28,.27,.22,.68-.56,.69-.44,0-.77-.16-1.25-.51Z"/>
              </g>
              <g class="cls-11">
                <path class="cls-8" d="M13.22,13.92c.39-1.2,1.59-1.33,2.64-.32,.55,.53,.91,1.42,.79,2.49-.12,1.17-1.02,1.7-2.05,.99-1.01-.7-1.75-2.05-1.38-3.17Z"/>
                <path class="cls-1" d="M13.26,13.95c.36-1.17,1.55-1.3,2.57-.31,.54,.53,.88,1.39,.77,2.43-.12,1.13-.99,1.66-2,.95-.97-.68-1.68-1.98-1.34-3.08Z"/>
                <path class="cls-2" d="M13.31,13.97c.34-1.15,1.51-1.28,2.49-.31,.53,.53,.86,1.37,.75,2.37-.11,1.1-.96,1.61-1.94,.92s-1.62-1.92-1.3-2.98Z"/>
                <path class="cls-12" d="M13.36,14c.32-1.13,1.47-1.25,2.42-.3,.53,.53,.83,1.35,.73,2.31-.1,1.06-.93,1.57-1.89,.88-.91-.65-1.55-1.85-1.26-2.89Z"/>
                <path class="cls-13" d="M13.4,14.02c.3-1.11,1.44-1.22,2.34-.29,.52,.53,.8,1.32,.71,2.25-.1,1.02-.9,1.52-1.84,.85-.87-.63-1.49-1.78-1.22-2.8Z"/>
                <path class="cls-54" d="M13.45,14.04c.27-1.09,1.4-1.2,2.27-.29,.51,.53,.78,1.3,.69,2.19-.09,.98-.87,1.48-1.79,.81-.84-.61-1.43-1.72-1.18-2.71Z"/>
                <path class="cls-53" d="M13.49,14.07c.25-1.07,1.36-1.17,2.2-.28,.5,.53,.75,1.28,.67,2.13-.09,.95-.84,1.43-1.74,.77-.8-.59-1.36-1.65-1.13-2.62Z"/>
                <path class="cls-50" d="M13.54,14.09c.23-1.05,1.32-1.14,2.12-.27,.49,.53,.72,1.26,.65,2.07-.08,.91-.81,1.39-1.68,.74-.77-.58-1.3-1.58-1.09-2.53Z"/>
                <path class="cls-59" d="M13.58,14.11c.21-1.02,1.28-1.11,2.05-.27,.48,.53,.7,1.23,.63,2.01-.08,.87-.78,1.35-1.63,.7-.74-.56-1.24-1.52-1.05-2.44Z"/>
                <path class="cls-56" d="M13.63,14.14c.18-1,1.24-1.08,1.98-.26,.47,.53,.67,1.21,.61,1.94-.07,.84-.75,1.3-1.58,.66-.7-.54-1.17-1.45-1.01-2.35Z"/>
                <path class="cls-39" d="M13.67,14.16c.16-.98,1.2-1.05,1.9-.25,.46,.53,.65,1.19,.59,1.88-.06,.8-.72,1.26-1.53,.63-.67-.52-1.11-1.39-.97-2.26Z"/>
                <path class="cls-36" d="M13.72,14.19c.14-.96,1.16-1.02,1.83-.25,.46,.53,.62,1.16,.57,1.82-.06,.76-.69,1.21-1.48,.59-.63-.5-1.05-1.32-.92-2.16Z"/>
                <path class="cls-33" d="M13.76,14.21c.12-.94,1.12-.99,1.75-.24,.45,.53,.6,1.14,.55,1.76-.05,.72-.66,1.17-1.42,.55-.6-.48-.98-1.25-.88-2.07Z"/>
                <path class="cls-35" d="M13.81,14.23c.09-.92,1.08-.97,1.68-.23,.44,.53,.57,1.12,.53,1.7-.05,.69-.63,1.13-1.37,.52-.57-.47-.92-1.19-.84-1.98Z"/>
                <path class="cls-61" d="M13.85,14.26c.07-.9,1.04-.94,1.61-.23,.43,.53,.54,1.09,.51,1.64-.04,.65-.6,1.08-1.32,.48-.53-.45-.86-1.12-.8-1.89Z"/>
                <path class="cls-49" d="M13.9,14.28c.05-.88,1-.91,1.53-.22,.42,.53,.52,1.07,.49,1.58-.03,.61-.57,1.04-1.27,.44-.5-.43-.79-1.06-.76-1.8Z"/>
                <path class="cls-45" d="M13.95,14.3c.02-.85,.95-.87,1.46-.22,.41,.53,.49,1.05,.47,1.52-.03,.58-.54,.99-1.22,.41-.47-.41-.73-.99-.71-1.71Z"/>
                <path class="cls-47" d="M13.99,14.33c0-.83,.91-.84,1.39-.21,.4,.53,.47,1.03,.45,1.46-.02,.54-.51,.95-1.16,.37-.44-.39-.67-.93-.67-1.62Z"/>
                <path class="cls-43" d="M14.04,14.35c-.03-.81,.87-.81,1.31-.2,.39,.53,.44,1,.43,1.39-.01,.5-.49,.91-1.11,.33-.4-.37-.61-.86-.63-1.53Z"/>
                <path class="cls-41" d="M14.08,14.38c-.05-.79,.83-.78,1.24-.2,.37,.54,.42,.98,.41,1.33,0,.46-.46,.87-1.06,.3-.37-.35-.55-.79-.59-1.43Z"/>
                <path class="cls-62" d="M14.13,14.4c-.08-.77,.78-.75,1.16-.19s.39,.96,.39,1.27c0,.43-.43,.83-1.01,.26-.34-.33-.49-.73-.55-1.34Z"/>
                <path class="cls-10" d="M14.17,14.42c-.1-.75,.74-.72,1.09-.18,.35,.54,.37,.93,.37,1.21,0,.39-.4,.78-.96,.22-.31-.31-.42-.66-.51-1.25Z"/>
              </g>
              <g class="cls-11">
                <path class="cls-8" d="M9.68,13.37c1.09-.63,2.07,.07,2.17,1.53,.05,.77-.27,1.66-1.08,2.39-.87,.79-1.9,.58-2.19-.63-.28-1.19,.07-2.69,1.09-3.28Z"/>
                <path class="cls-1" d="M9.69,13.42c1.05-.62,2.01,.06,2.11,1.47,.05,.76-.28,1.63-1.05,2.33-.84,.76-1.84,.57-2.12-.62-.27-1.16,.08-2.61,1.06-3.18Z"/>
                <path class="cls-2" d="M9.7,13.46c1.01-.6,1.95,.04,2.05,1.42,.05,.75-.28,1.61-1.03,2.28-.82,.74-1.78,.56-2.05-.62s.09-2.52,1.03-3.08Z"/>
                <path class="cls-12" d="M9.71,13.51c.98-.59,1.89,.02,1.98,1.36,.05,.74-.29,1.58-1,2.23-.79,.72-1.72,.55-1.98-.61-.24-1.09,.09-2.44,1-2.99Z"/>
                <path class="cls-13" d="M9.72,13.56c.94-.57,1.84,0,1.92,1.3,.04,.74-.29,1.55-.98,2.18-.76,.69-1.66,.54-1.91-.6-.23-1.05,.1-2.35,.97-2.89Z"/>
                <path class="cls-54" d="M9.73,13.6c.9-.56,1.78-.02,1.85,1.25,.04,.73-.3,1.53-.95,2.13-.73,.67-1.61,.53-1.84-.59-.21-1.01,.1-2.27,.94-2.79Z"/>
                <path class="cls-53" d="M9.74,13.65c.87-.55,1.72-.04,1.79,1.19,.04,.72-.3,1.5-.93,2.08-.7,.65-1.55,.52-1.77-.58-.2-.98,.11-2.18,.91-2.69Z"/>
                <path class="cls-50" d="M9.75,13.69c.83-.53,1.66-.05,1.72,1.13,.04,.71-.31,1.47-.9,2.03-.67,.62-1.49,.51-1.7-.57-.19-.94,.11-2.1,.88-2.59Z"/>
                <path class="cls-59" d="M9.76,13.74c.79-.52,1.6-.07,1.66,1.07,.04,.7-.31,1.45-.88,1.98-.64,.6-1.43,.49-1.63-.56-.17-.91,.12-2.01,.85-2.49Z"/>
                <path class="cls-56" d="M9.77,13.78c.75-.5,1.54-.09,1.59,1.02,.03,.7-.31,1.42-.85,1.92-.61,.57-1.37,.48-1.56-.55-.16-.87,.12-1.93,.82-2.39Z"/>
                <path class="cls-39" d="M9.78,13.83c.72-.49,1.48-.11,1.53,.96,.03,.69-.32,1.39-.83,1.87-.58,.55-1.32,.47-1.49-.54-.15-.83,.13-1.84,.79-2.3Z"/>
                <path class="cls-36" d="M9.79,13.87c.68-.48,1.42-.13,1.47,.9,.03,.68-.32,1.37-.8,1.82-.55,.53-1.26,.46-1.43-.53-.14-.8,.13-1.76,.76-2.2Z"/>
                <path class="cls-33" d="M9.8,13.92c.64-.46,1.36-.14,1.4,.85,.03,.67-.33,1.34-.78,1.77-.52,.5-1.2,.45-1.36-.52-.12-.76,.14-1.67,.73-2.1Z"/>
                <path class="cls-35" d="M9.81,13.96c.61-.45,1.3-.16,1.34,.79,.02,.67-.33,1.31-.75,1.72-.49,.48-1.14,.44-1.29-.51-.11-.73,.14-1.59,.7-2Z"/>
                <path class="cls-61" d="M9.82,14.01c.57-.43,1.24-.18,1.27,.73,.02,.66-.34,1.29-.72,1.67-.46,.46-1.09,.43-1.22-.5-.1-.69,.15-1.5,.67-1.9Z"/>
                <path class="cls-49" d="M9.83,14.05c.53-.42,1.18-.2,1.21,.67,.02,.65-.34,1.26-.7,1.62-.43,.43-1.03,.42-1.15-.49-.09-.65,.15-1.42,.64-1.8Z"/>
                <path class="cls-45" d="M9.84,14.1c.5-.41,1.12-.22,1.14,.62,.02,.64-.34,1.23-.67,1.57-.4,.41-.97,.41-1.08-.48-.07-.62,.16-1.33,.61-1.7Z"/>
                <path class="cls-47" d="M9.85,14.15c.46-.39,1.06-.24,1.08,.56,.01,.64-.35,1.21-.65,1.51-.38,.39-.92,.4-1.01-.47-.06-.58,.16-1.25,.58-1.61Z"/>
                <path class="cls-43" d="M9.86,14.19c.42-.38,1-.25,1.02,.5,0,.63-.35,1.18-.62,1.46-.35,.36-.86,.39-.94-.46-.05-.55,.17-1.17,.55-1.51Z"/>
                <path class="cls-41" d="M9.86,14.24c.39-.36,.94-.27,.95,.45,0,.62-.36,1.15-.6,1.41-.32,.34-.81,.38-.87-.45-.04-.51,.17-1.08,.52-1.41Z"/>
                <path class="cls-62" d="M9.87,14.28c.35-.35,.88-.29,.89,.39,0,.61-.36,1.13-.57,1.36-.29,.32-.75,.37-.8-.44-.03-.47,.18-1,.49-1.31Z"/>
                <path class="cls-10" d="M9.88,14.33c.31-.34,.82-.31,.82,.33,0,.61-.36,1.1-.55,1.31-.26,.29-.7,.36-.74-.43-.02-.44,.18-.91,.46-1.21Z"/>
              </g>
              <g class="cls-11">
                <path class="cls-8" d="M7.56,10.28c1.24,.2,1.57,1.21,.73,2.41-.44,.63-1.42,.95-2.51,1-1.18,.06-1.84-.74-1.3-1.87,.53-1.1,1.91-1.72,3.07-1.54Z"/>
                <path class="cls-1" d="M7.53,10.31c1.2,.18,1.53,1.16,.72,2.32-.44,.62-1.4,.93-2.45,.99-1.14,.06-1.79-.72-1.25-1.82,.52-1.07,1.86-1.66,2.98-1.49Z"/>
                <path class="cls-2" d="M7.5,10.35c1.17,.17,1.5,1.11,.7,2.24-.44,.61-1.38,.92-2.39,.97-1.1,.06-1.74-.69-1.2-1.77s1.8-1.6,2.89-1.44Z"/>
                <path class="cls-12" d="M7.48,10.38c1.13,.16,1.46,1.06,.68,2.15-.43,.61-1.36,.9-2.33,.95-1.06,.06-1.68-.66-1.15-1.72,.5-.99,1.74-1.54,2.8-1.39Z"/>
                <path class="cls-13" d="M7.45,10.41c1.09,.15,1.43,1.01,.67,2.07-.43,.6-1.34,.89-2.27,.94-1.02,.06-1.63-.63-1.11-1.67,.49-.96,1.69-1.48,2.7-1.34Z"/>
                <path class="cls-54" d="M7.42,10.45c1.05,.13,1.39,.95,.65,1.98-.43,.59-1.32,.87-2.21,.92-.99,.06-1.58-.6-1.06-1.62,.47-.92,1.63-1.42,2.61-1.29Z"/>
                <path class="cls-53" d="M7.39,10.48c1.02,.12,1.36,.9,.64,1.9-.42,.58-1.3,.85-2.15,.91-.95,.06-1.53-.57-1.01-1.56,.46-.89,1.58-1.35,2.52-1.24Z"/>
                <path class="cls-50" d="M7.37,10.51c.98,.11,1.32,.85,.62,1.81-.42,.58-1.28,.84-2.09,.89-.91,.06-1.48-.55-.96-1.51,.45-.85,1.52-1.29,2.43-1.19Z"/>
                <path class="cls-59" d="M7.34,10.55c.94,.1,1.29,.8,.61,1.73-.42,.57-1.25,.82-2.03,.88-.87,.06-1.42-.52-.92-1.46,.44-.81,1.46-1.23,2.34-1.14Z"/>
                <path class="cls-56" d="M7.31,10.58c.9,.08,1.25,.75,.59,1.64-.41,.56-1.23,.81-1.97,.86-.84,.06-1.37-.49-.87-1.41,.42-.78,1.41-1.17,2.24-1.09Z"/>
                <path class="cls-39" d="M7.28,10.61c.87,.07,1.21,.7,.58,1.56-.41,.55-1.21,.79-1.91,.84-.8,.06-1.32-.46-.82-1.36,.41-.74,1.35-1.11,2.15-1.04Z"/>
                <path class="cls-36" d="M7.25,10.65c.83,.06,1.18,.65,.56,1.47-.41,.55-1.19,.78-1.85,.83-.76,.06-1.27-.43-.77-1.31,.4-.7,1.29-1.05,2.06-.99Z"/>
                <path class="cls-33" d="M7.23,10.68c.79,.05,1.14,.59,.55,1.39-.4,.54-1.17,.76-1.79,.81-.72,.06-1.22-.41-.73-1.26,.38-.67,1.24-.99,1.97-.94Z"/>
                <path class="cls-35" d="M7.2,10.72c.75,.03,1.11,.54,.53,1.3-.4,.53-1.15,.75-1.73,.8-.69,.06-1.17-.38-.68-1.21,.37-.63,1.18-.93,1.88-.89Z"/>
                <path class="cls-61" d="M7.17,10.75c.72,.02,1.07,.49,.52,1.22-.4,.52-1.13,.73-1.67,.78-.65,.06-1.11-.35-.63-1.16,.36-.6,1.13-.86,1.78-.84Z"/>
                <path class="cls-49" d="M7.14,10.78c.68,.01,1.03,.44,.5,1.13-.4,.52-1.1,.71-1.61,.77-.61,.06-1.06-.32-.58-1.1,.34-.56,1.07-.8,1.69-.79Z"/>
                <path class="cls-45" d="M7.12,10.82c.64,0,1,.39,.49,1.05-.39,.51-1.08,.7-1.55,.75-.57,.06-1.01-.3-.54-1.05,.33-.53,1.01-.74,1.6-.74Z"/>
                <path class="cls-47" d="M7.09,10.85c.6-.01,.96,.33,.47,.96-.39,.5-1.06,.68-1.49,.73-.53,.06-.96-.27-.49-1,.32-.49,.96-.68,1.51-.69Z"/>
                <path class="cls-43" d="M7.06,10.88c.57-.03,.93,.28,.46,.88-.39,.49-1.04,.67-1.43,.72-.5,.06-.91-.24-.44-.95,.3-.46,.9-.62,1.41-.64Z"/>
                <path class="cls-41" d="M7.03,10.92c.53-.04,.89,.23,.44,.79-.39,.49-1.02,.65-1.37,.7-.46,.06-.86-.22-.39-.9,.29-.42,.85-.56,1.32-.6Z"/>
                <path class="cls-62" d="M7,10.95c.49-.05,.85,.18,.43,.71-.38,.48-1,.64-1.31,.69-.42,.07-.82-.19-.35-.85,.27-.39,.79-.5,1.23-.55Z"/>
                <path class="cls-10" d="M6.98,10.98c.45-.07,.82,.12,.41,.62-.38,.47-.98,.62-1.25,.67-.38,.07-.77-.17-.3-.8,.26-.35,.73-.44,1.14-.5Z"/>
              </g>
              <g class="cls-11">
                <path class="cls-8" d="M16.58,10.7c-1.07-.98-.63-2.31,.93-2.92,.82-.32,1.92-.27,3,.37,1.17,.69,1.3,1.89,.06,2.63-1.22,.72-2.99,.85-3.99-.07Z"/>
                <path class="cls-1" d="M16.65,10.66c-1.06-.94-.63-2.25,.9-2.84,.82-.31,1.9-.25,2.94,.36,1.13,.67,1.26,1.83,.04,2.55-1.18,.7-2.89,.81-3.87-.07Z"/>
                <path class="cls-2" d="M16.71,10.62c-1.05-.91-.63-2.19,.87-2.75,.81-.31,1.87-.23,2.87,.35,1.1,.64,1.22,1.77,.02,2.47s-2.79,.78-3.76-.07Z"/>
                <path class="cls-12" d="M16.78,10.58c-1.03-.88-.62-2.13,.83-2.67,.81-.3,1.85-.22,2.81,.35,1.06,.62,1.18,1.71,0,2.39-1.11,.64-2.69,.74-3.64-.07Z"/>
                <path class="cls-13" d="M16.85,10.54c-1.02-.84-.62-2.07,.8-2.58,.81-.29,1.82-.2,2.75,.34,1.02,.59,1.14,1.65-.02,2.31-1.08,.61-2.59,.71-3.53-.07Z"/>
                <path class="cls-54" d="M16.91,10.5c-1.01-.81-.61-2.01,.76-2.49,.8-.28,1.79-.18,2.69,.33,.99,.57,1.11,1.59-.04,2.23-1.04,.59-2.49,.67-3.41-.07Z"/>
                <path class="cls-53" d="M16.98,10.46c-1-.78-.61-1.95,.73-2.41,.8-.27,1.77-.16,2.62,.33,.95,.54,1.07,1.53-.06,2.15-1.01,.56-2.39,.64-3.29-.07Z"/>
                <path class="cls-50" d="M17.05,10.42c-.99-.74-.6-1.89,.7-2.32,.79-.26,1.74-.15,2.56,.32,.92,.52,1.03,1.47-.08,2.07-.97,.53-2.29,.6-3.18-.07Z"/>
                <path class="cls-59" d="M17.12,10.38c-.98-.71-.59-1.83,.66-2.24,.79-.25,1.72-.13,2.5,.31,.88,.5,.99,1.41-.1,1.99-.94,.5-2.19,.57-3.06-.07Z"/>
                <path class="cls-56" d="M17.18,10.34c-.96-.67-.59-1.77,.63-2.15,.78-.24,1.69-.11,2.43,.31,.84,.47,.95,1.35-.12,1.91-.9,.48-2.09,.53-2.95-.07Z"/>
                <path class="cls-39" d="M17.25,10.3c-.95-.64-.58-1.71,.59-2.07,.78-.23,1.67-.09,2.37,.3,.81,.45,.92,1.29-.13,1.84-.87,.45-1.99,.5-2.83-.07Z"/>
                <path class="cls-36" d="M17.32,10.26c-.94-.61-.58-1.65,.56-1.98,.77-.22,1.64-.07,2.31,.29,.77,.43,.88,1.23-.15,1.76-.83,.42-1.89,.46-2.71-.07Z"/>
                <path class="cls-33" d="M17.39,10.21c-.93-.57-.57-1.59,.52-1.89,.77-.21,1.62-.06,2.25,.29,.74,.4,.84,1.17-.17,1.68-.8,.4-1.79,.43-2.6-.07Z"/>
                <path class="cls-35" d="M17.45,10.17c-.92-.54-.57-1.53,.49-1.81,.77-.2,1.59-.04,2.18,.28,.7,.38,.8,1.11-.19,1.6-.76,.37-1.69,.39-2.48-.07Z"/>
                <path class="cls-61" d="M17.52,10.13c-.91-.5-.56-1.46,.46-1.72,.76-.19,1.57-.02,2.12,.28,.66,.35,.77,1.05-.21,1.52-.73,.35-1.59,.36-2.37-.07Z"/>
                <path class="cls-49" d="M17.59,10.09c-.9-.47-.55-1.4,.42-1.64,.76-.18,1.54,0,2.06,.27,.63,.33,.73,.99-.23,1.44-.69,.32-1.49,.33-2.25-.07Z"/>
                <path class="cls-45" d="M17.66,10.05c-.89-.43-.55-1.34,.39-1.55,.75-.17,1.51,.02,1.99,.26,.59,.3,.69,.94-.25,1.36-.65,.3-1.39,.29-2.13-.07Z"/>
                <path class="cls-47" d="M17.72,10.01c-.88-.4-.54-1.27,.35-1.47,.75-.16,1.49,.03,1.93,.26,.56,.28,.66,.88-.27,1.28-.62,.27-1.29,.26-2.02-.07Z"/>
                <path class="cls-43" d="M17.79,9.97c-.87-.36-.53-1.21,.32-1.38,.75-.15,1.46,.05,1.87,.25,.52,.26,.62,.82-.29,1.2-.58,.24-1.19,.22-1.9-.07Z"/>
                <path class="cls-41" d="M17.86,9.93c-.86-.33-.53-1.15,.29-1.29,.74-.14,1.44,.07,1.81,.24,.48,.23,.58,.77-.3,1.12-.55,.22-1.09,.19-1.79-.07Z"/>
                <path class="cls-62" d="M17.93,9.89c-.84-.29-.52-1.08,.25-1.21s1.41,.08,1.74,.24c.45,.21,.55,.71-.32,1.04-.51,.2-1,.16-1.67-.07Z"/>
                <path class="cls-10" d="M17.99,9.85c-.83-.25-.51-1.02,.22-1.12,.73-.11,1.39,.1,1.68,.23,.41,.18,.51,.65-.34,.97-.47,.17-.9,.13-1.56-.07Z"/>
              </g>
              <g class="cls-11">
                <path class="cls-8" d="M16.42,7.25c-1.45,0-2.03-1.27-1.29-2.78,.39-.8,1.23-1.5,2.46-1.76,1.33-.28,2.28,.86,1.87,2.24-.41,1.35-1.68,2.3-3.04,2.3Z"/>
                <path class="cls-1" d="M16.45,7.18c-1.42,.02-1.99-1.23-1.26-2.7,.39-.79,1.23-1.47,2.41-1.72,1.29-.27,2.21,.83,1.8,2.18-.4,1.31-1.63,2.22-2.95,2.24Z"/>
                <path class="cls-2" d="M16.47,7.1c-1.39,.04-1.94-1.19-1.22-2.61,.39-.78,1.22-1.44,2.36-1.68,1.24-.27,2.14,.79,1.73,2.12s-1.57,2.14-2.86,2.18Z"/>
                <path class="cls-12" d="M16.49,7.03c-1.36,.05-1.9-1.15-1.19-2.53,.4-.77,1.21-1.41,2.3-1.65,1.2-.26,2.07,.76,1.66,2.06-.39,1.22-1.52,2.07-2.77,2.11Z"/>
                <path class="cls-13" d="M16.51,6.95c-1.32,.07-1.86-1.11-1.16-2.44,.4-.76,1.21-1.38,2.25-1.61,1.16-.26,2,.72,1.59,2-.38,1.18-1.47,1.99-2.68,2.05Z"/>
                <path class="cls-54" d="M16.53,6.87c-1.29,.09-1.81-1.07-1.12-2.35,.4-.75,1.2-1.35,2.2-1.57,1.11-.25,1.93,.69,1.52,1.93-.37,1.14-1.42,1.91-2.6,1.99Z"/>
                <path class="cls-53" d="M16.56,6.8c-1.26,.1-1.77-1.03-1.09-2.27,.4-.74,1.19-1.32,2.15-1.53,1.07-.24,1.86,.65,1.45,1.87-.37,1.09-1.36,1.83-2.51,1.93Z"/>
                <path class="cls-50" d="M16.58,6.72c-1.23,.12-1.72-.99-1.06-2.18,.41-.73,1.19-1.29,2.1-1.5,1.03-.24,1.79,.62,1.38,1.81-.36,1.05-1.31,1.76-2.42,1.87Z"/>
                <path class="cls-59" d="M16.6,6.65c-1.2,.14-1.68-.95-1.03-2.09,.41-.72,1.18-1.26,2.05-1.46,.98-.23,1.71,.58,1.31,1.75-.35,1.01-1.26,1.68-2.33,1.8Z"/>
                <path class="cls-56" d="M16.62,6.57c-1.17,.15-1.63-.91-.99-2.01,.41-.71,1.17-1.23,2-1.42,.94-.22,1.64,.55,1.24,1.69-.34,.96-1.21,1.6-2.25,1.74Z"/>
                <path class="cls-39" d="M16.64,6.5c-1.14,.17-1.59-.87-.96-1.92,.42-.7,1.17-1.19,1.95-1.38,.9-.21,1.57,.51,1.17,1.62-.33,.92-1.15,1.53-2.16,1.68Z"/>
                <path class="cls-36" d="M16.67,6.42c-1.1,.19-1.54-.83-.93-1.84,.42-.69,1.16-1.16,1.9-1.34,.86-.21,1.5,.48,1.1,1.56-.33,.87-1.1,1.45-2.07,1.62Z"/>
                <path class="cls-33" d="M16.69,6.35c-1.07,.21-1.5-.78-.89-1.75,.42-.68,1.15-1.13,1.85-1.31,.81-.2,1.43,.44,1.03,1.5-.32,.83-1.05,1.38-1.98,1.56Z"/>
                <path class="cls-35" d="M16.71,6.27c-1.04,.23-1.45-.74-.86-1.66,.43-.67,1.15-1.1,1.8-1.27,.77-.19,1.36,.41,.96,1.44-.31,.79-1,1.3-1.9,1.49Z"/>
                <path class="cls-61" d="M16.73,6.19c-1.01,.24-1.4-.7-.83-1.58,.43-.66,1.14-1.07,1.75-1.23,.73-.19,1.29,.37,.89,1.38-.3,.75-.94,1.22-1.81,1.43Z"/>
                <path class="cls-49" d="M16.75,6.12c-.98,.26-1.36-.66-.8-1.49,.43-.65,1.13-1.04,1.7-1.19,.68-.18,1.22,.34,.82,1.31-.29,.7-.89,1.15-1.72,1.37Z"/>
                <path class="cls-45" d="M16.78,6.04c-.95,.28-1.31-.62-.76-1.41,.44-.64,1.13-1.01,1.65-1.16,.64-.18,1.16,.3,.75,1.25-.28,.66-.84,1.07-1.63,1.31Z"/>
                <path class="cls-47" d="M16.8,5.97c-.91,.3-1.26-.57-.73-1.32,.44-.63,1.12-.98,1.6-1.12,.6-.17,1.09,.27,.68,1.19-.27,.62-.79,1-1.54,1.25Z"/>
                <path class="cls-43" d="M16.82,5.89c-.88,.32-1.21-.53-.7-1.23,.45-.61,1.11-.95,1.55-1.08,.56-.16,1.02,.24,.61,1.13-.26,.57-.73,.92-1.46,1.18Z"/>
                <path class="cls-41" d="M16.84,5.82c-.85,.34-1.16-.49-.67-1.15,.46-.6,1.11-.92,1.49-1.04,.51-.16,.95,.2,.54,1.07-.25,.53-.68,.85-1.37,1.12Z"/>
                <path class="cls-62" d="M16.87,5.74c-.82,.36-1.11-.44-.63-1.06s1.1-.89,1.44-1.01c.47-.15,.88,.17,.47,1.01-.24,.49-.63,.77-1.28,1.06Z"/>
                <path class="cls-10" d="M16.89,5.67c-.79,.38-1.07-.4-.6-.97,.47-.58,1.09-.86,1.39-.97,.43-.15,.82,.14,.4,.94-.23,.45-.57,.7-1.19,1Z"/>
              </g>
              <g class="cls-11">
                <path class="cls-8" d="M14.31,4.73c-.99,1.06-2.58,.69-3.17-.89-.31-.83-.25-1.92,.4-2.99,.7-1.16,2.46-1.13,3.18,.12,.71,1.22,.52,2.77-.41,3.76Z"/>
                <path class="cls-1" d="M14.25,4.66c-.96,1.05-2.51,.68-3.08-.86-.3-.82-.23-1.9,.39-2.93,.68-1.13,2.37-1.1,3.08,.14,.68,1.19,.5,2.68-.39,3.65Z"/>
                <path class="cls-2" d="M14.2,4.6c-.92,1.04-2.44,.67-2.98-.83-.3-.82-.21-1.87,.39-2.87,.66-1.09,2.28-1.07,2.97,.15s.48,2.59-.38,3.55Z"/>
                <path class="cls-12" d="M14.15,4.53c-.89,1.02-2.37,.66-2.88-.79-.29-.81-.2-1.85,.38-2.81,.63-1.05,2.2-1.04,2.86,.16,.63,1.12,.46,2.5-.36,3.44Z"/>
                <path class="cls-13" d="M14.09,4.47c-.86,1.01-2.29,.66-2.78-.76-.28-.81-.18-1.82,.37-2.74,.61-1.02,2.11-1,2.76,.17,.6,1.08,.44,2.41-.35,3.34Z"/>
                <path class="cls-54" d="M14.04,4.41c-.82,1-2.22,.65-2.69-.73-.27-.8-.16-1.8,.36-2.68C12.3,.01,13.74,.02,14.37,1.17c.57,1.05,.42,2.32-.33,3.23Z"/>
                <path class="cls-53" d="M13.99,4.34c-.79,.99-2.15,.64-2.59-.7-.26-.8-.14-1.77,.36-2.62,.56-.95,1.94-.94,2.55,.19,.55,1.01,.4,2.23-.32,3.13Z"/>
                <path class="cls-50" d="M13.94,4.28c-.75,.98-2.08,.63-2.49-.67-.25-.79-.13-1.75,.35-2.56,.53-.91,1.85-.91,2.44,.2,.52,.98,.38,2.14-.3,3.02Z"/>
                <path class="cls-59" d="M13.88,4.21c-.72,.97-2,.62-2.39-.64-.24-.79-.11-1.72,.34-2.49,.51-.87,1.76-.88,2.34,.21,.49,.94,.36,2.05-.29,2.92Z"/>
                <path class="cls-56" d="M13.83,4.15c-.69,.96-1.93,.61-2.29-.61-.23-.78-.09-1.69,.34-2.43,.48-.84,1.68-.85,2.23,.22,.47,.91,.34,1.96-.27,2.81Z"/>
                <path class="cls-39" d="M13.78,4.09c-.65,.94-1.86,.61-2.2-.58-.22-.78-.07-1.67,.33-2.37,.46-.8,1.59-.82,2.12,.23,.44,.87,.32,1.87-.26,2.71Z"/>
                <path class="cls-36" d="M13.73,4.02c-.62,.93-1.78,.6-2.1-.54-.21-.78-.05-1.64,.32-2.3,.43-.77,1.5-.79,2.02,.24,.41,.84,.3,1.78-.24,2.6Z"/>
                <path class="cls-33" d="M13.67,3.96c-.58,.92-1.71,.59-2-.51-.2-.77-.04-1.62,.31-2.24,.41-.73,1.42-.76,1.91,.26,.39,.8,.28,1.69-.23,2.5Z"/>
                <path class="cls-35" d="M13.62,3.89c-.55,.91-1.63,.58-1.9-.48-.19-.77-.02-1.59,.31-2.18,.39-.69,1.33-.73,1.81,.27,.36,.77,.26,1.61-.21,2.39Z"/>
                <path class="cls-61" d="M13.57,3.83c-.51,.9-1.56,.57-1.81-.45-.18-.76,0-1.57,.3-2.12,.36-.66,1.25-.7,1.7,.28,.34,.73,.24,1.52-.2,2.29Z"/>
                <path class="cls-49" d="M13.52,3.77c-.48,.89-1.48,.56-1.71-.42-.17-.76,.02-1.54,.29-2.05,.34-.62,1.16-.67,1.6,.29,.31,.69,.22,1.43-.18,2.18Z"/>
                <path class="cls-45" d="M13.46,3.7c-.44,.88-1.41,.55-1.61-.39-.16-.75,.03-1.51,.29-1.99,.31-.59,1.08-.65,1.49,.3,.29,.66,.21,1.34-.17,2.08Z"/>
                <path class="cls-47" d="M13.41,3.64c-.41,.87-1.33,.54-1.51-.36-.15-.75,.05-1.49,.28-1.93,.29-.55,.99-.62,1.38,.31,.26,.62,.19,1.25-.15,1.97Z"/>
                <path class="cls-43" d="M13.36,3.57c-.37,.86-1.25,.53-1.41-.32-.14-.75,.07-1.46,.27-1.87,.26-.52,.91-.59,1.28,.32,.24,.58,.17,1.16-.14,1.87Z"/>
                <path class="cls-41" d="M13.31,3.51c-.34,.85-1.18,.52-1.32-.29-.13-.74,.08-1.44,.26-1.8,.24-.48,.82-.56,1.17,.33,.21,.55,.15,1.07-.12,1.76Z"/>
                <path class="cls-62" d="M13.25,3.45c-.3,.84-1.1,.51-1.22-.26s.1-1.41,.26-1.74c.21-.45,.74-.53,1.07,.34,.19,.51,.13,.99-.11,1.66Z"/>
                <path class="cls-10" d="M13.2,3.38c-.26,.83-1.02,.5-1.12-.23-.1-.74,.12-1.39,.25-1.68,.19-.41,.66-.5,.96,.35,.17,.47,.12,.9-.09,1.55Z"/>
              </g>
              <g class="cls-11">
                <path class="cls-8" d="M10.95,6.49c-.34,1.41-1.72,1.66-3.01,.58-.68-.57-1.16-1.56-1.12-2.81,.04-1.36,1.03-2.04,2.28-1.31,1.22,.72,2.18,2.21,1.85,3.53Z"/>
                <path class="cls-1" d="M10.88,6.45c-.32,1.38-1.67,1.63-2.92,.57-.67-.57-1.13-1.54-1.09-2.75,.04-1.31,1-1.98,2.22-1.26,1.18,.7,2.1,2.14,1.8,3.43Z"/>
                <path class="cls-2" d="M10.81,6.41c-.29,1.36-1.62,1.6-2.83,.56-.66-.57-1.1-1.53-1.07-2.69,.04-1.27,.96-1.92,2.16-1.2s2.02,2.07,1.74,3.33Z"/>
                <path class="cls-12" d="M10.74,6.37c-.27,1.33-1.57,1.57-2.74,.55-.65-.57-1.08-1.52-1.05-2.63,.03-1.23,.93-1.86,2.1-1.15,1.1,.67,1.94,2,1.69,3.23Z"/>
                <path class="cls-13" d="M10.67,6.33c-.25,1.3-1.52,1.54-2.65,.54-.64-.57-1.05-1.5-1.02-2.57,.03-1.18,.9-1.8,2.04-1.09,1.05,.65,1.86,1.93,1.63,3.13Z"/>
                <path class="cls-54" d="M10.61,6.29c-.23,1.28-1.47,1.5-2.55,.53-.63-.57-1.02-1.49-1-2.52,.02-1.14,.86-1.73,1.98-1.04,1.01,.63,1.78,1.86,1.58,3.02Z"/>
                <path class="cls-53" d="M10.54,6.25c-.2,1.25-1.42,1.47-2.46,.52-.62-.57-.99-1.47-.97-2.46,.02-1.1,.83-1.67,1.92-.98,.97,.62,1.7,1.79,1.52,2.92Z"/>
                <path class="cls-50" d="M10.47,6.21c-.18,1.22-1.37,1.44-2.37,.5-.61-.57-.96-1.46-.95-2.4,.02-1.05,.79-1.61,1.85-.93,.93,.6,1.62,1.72,1.46,2.82Z"/>
                <path class="cls-59" d="M10.4,6.17c-.15,1.2-1.32,1.4-2.28,.49-.6-.57-.94-1.45-.92-2.34,.01-1.01,.76-1.55,1.79-.87,.89,.58,1.55,1.65,1.41,2.72Z"/>
                <path class="cls-56" d="M10.33,6.13c-.13,1.17-1.27,1.37-2.19,.48-.59-.57-.91-1.43-.9-2.28,.01-.97,.73-1.49,1.73-.82,.85,.56,1.47,1.58,1.35,2.62Z"/>
                <path class="cls-39" d="M10.27,6.09c-.11,1.14-1.22,1.33-2.1,.47-.58-.57-.88-1.42-.87-2.22,0-.92,.69-1.42,1.67-.76,.81,.54,1.39,1.5,1.3,2.52Z"/>
                <path class="cls-36" d="M10.2,6.05c-.08,1.12-1.17,1.3-2.01,.46-.57-.57-.85-1.4-.85-2.17,0-.88,.66-1.36,1.61-.71,.77,.53,1.31,1.43,1.24,2.42Z"/>
                <path class="cls-33" d="M10.13,6.01c-.06,1.09-1.12,1.26-1.91,.45-.56-.57-.82-1.39-.83-2.11,0-.84,.62-1.3,1.55-.65,.73,.51,1.23,1.36,1.19,2.31Z"/>
                <path class="cls-35" d="M10.06,5.97c-.03,1.06-1.07,1.23-1.82,.44-.55-.57-.8-1.38-.8-2.05,0-.79,.59-1.24,1.49-.6,.69,.49,1.16,1.29,1.13,2.21Z"/>
                <path class="cls-61" d="M9.99,5.93c0,1.04-1.02,1.19-1.73,.43-.54-.57-.77-1.36-.78-1.99,0-.75,.56-1.18,1.43-.55,.65,.47,1.08,1.22,1.07,2.11Z"/>
                <path class="cls-49" d="M9.93,5.89c.02,1.01-.96,1.16-1.64,.42-.52-.58-.74-1.35-.75-1.93-.01-.71,.52-1.12,1.37-.49,.61,.45,1,1.15,1.02,2.01Z"/>
                <path class="cls-45" d="M9.86,5.85c.05,.99-.91,1.12-1.55,.4-.51-.58-.71-1.34-.73-1.88-.02-.66,.49-1.06,1.31-.44,.57,.43,.92,1.08,.96,1.91Z"/>
                <path class="cls-47" d="M9.79,5.81c.07,.96-.86,1.09-1.46,.39-.5-.58-.69-1.32-.7-1.82-.02-.62,.46-1,1.25-.38,.53,.41,.85,1.01,.91,1.81Z"/>
                <path class="cls-43" d="M9.72,5.77c.1,.93-.81,1.05-1.36,.38-.49-.58-.66-1.31-.68-1.76-.02-.58,.42-.94,1.19-.33,.49,.39,.77,.94,.85,1.7Z"/>
                <path class="cls-41" d="M9.65,5.73c.13,.91-.75,1.01-1.27,.37-.47-.59-.63-1.29-.65-1.7-.03-.53,.39-.88,1.13-.27,.46,.37,.69,.87,.8,1.6Z"/>
                <path class="cls-62" d="M9.59,5.69c.15,.88-.7,.98-1.18,.36s-.6-1.28-.63-1.64c-.03-.49,.36-.82,1.07-.22,.42,.35,.62,.8,.74,1.5Z"/>
                <path class="cls-10" d="M9.52,5.66c.18,.85-.64,.94-1.09,.35-.45-.59-.58-1.27-.61-1.58-.04-.45,.33-.76,1.01-.16,.38,.33,.54,.73,.68,1.4Z"/>
              </g>
              <g class="cls-11">
                <path class="cls-8" d="M7.44,16.32c-1.45,.08-2.09-1.16-1.43-2.71,.35-.81,1.15-1.56,2.36-1.88,1.31-.35,2.44,.49,2.1,1.89-.34,1.37-1.67,2.63-3.03,2.71Z"/>
                <path class="cls-1" d="M7.46,16.25c-1.42,.09-2.05-1.13-1.39-2.63,.35-.8,1.15-1.53,2.31-1.84,1.27-.34,2.36,.47,2.02,1.85-.33,1.33-1.62,2.54-2.94,2.63Z"/>
                <path class="cls-2" d="M7.48,16.17c-1.38,.11-2-1.09-1.36-2.55,.35-.79,1.14-1.5,2.27-1.8,1.23-.33,2.28,.45,1.94,1.8s-1.57,2.45-2.85,2.55Z"/>
                <path class="cls-12" d="M7.5,16.09c-1.35,.12-1.96-1.05-1.32-2.46,.36-.79,1.14-1.47,2.22-1.76,1.18-.32,2.21,.43,1.86,1.75-.32,1.24-1.51,2.36-2.76,2.47Z"/>
                <path class="cls-13" d="M7.51,16.02c-1.32,.14-1.91-1.01-1.28-2.38,.36-.78,1.13-1.44,2.17-1.72,1.14-.31,2.13,.41,1.78,1.71-.32,1.2-1.46,2.27-2.67,2.39Z"/>
                <path class="cls-54" d="M7.53,15.94c-1.29,.15-1.86-.98-1.24-2.29,.36-.77,1.13-1.41,2.12-1.68,1.1-.31,2.05,.39,1.7,1.66-.31,1.15-1.4,2.17-2.58,2.31Z"/>
                <path class="cls-53" d="M7.55,15.86c-1.25,.17-1.82-.94-1.21-2.21,.36-.76,1.12-1.38,2.07-1.64,1.06-.3,1.97,.37,1.63,1.61-.31,1.11-1.35,2.08-2.49,2.24Z"/>
                <path class="cls-50" d="M7.57,15.79c-1.22,.18-1.77-.9-1.17-2.12,.37-.75,1.12-1.35,2.02-1.6,1.01-.29,1.89,.35,1.55,1.57-.3,1.07-1.3,1.99-2.4,2.16Z"/>
                <path class="cls-59" d="M7.59,15.71c-1.19,.2-1.73-.86-1.13-2.04,.37-.74,1.11-1.32,1.97-1.56,.97-.28,1.81,.34,1.47,1.52-.3,1.02-1.24,1.9-2.31,2.08Z"/>
                <path class="cls-56" d="M7.61,15.63c-1.16,.21-1.68-.82-1.09-1.95,.37-.73,1.11-1.28,1.92-1.52,.93-.27,1.74,.32,1.39,1.48-.29,.98-1.19,1.81-2.22,2Z"/>
                <path class="cls-39" d="M7.62,15.56c-1.12,.23-1.63-.78-1.06-1.87,.38-.72,1.1-1.25,1.88-1.48,.89-.26,1.66,.3,1.31,1.43-.29,.94-1.14,1.72-2.13,1.92Z"/>
                <path class="cls-36" d="M7.64,15.48c-1.09,.25-1.58-.74-1.02-1.79,.38-.71,1.1-1.22,1.83-1.44,.84-.25,1.58,.28,1.23,1.38-.28,.89-1.08,1.63-2.04,1.84Z"/>
                <path class="cls-33" d="M7.66,15.4c-1.06,.26-1.53-.71-.98-1.7,.39-.7,1.09-1.19,1.78-1.4,.8-.24,1.5,.26,1.16,1.34-.27,.85-1.03,1.54-1.95,1.76Z"/>
                <path class="cls-35" d="M7.68,15.33c-1.03,.28-1.49-.67-.95-1.62,.39-.69,1.09-1.16,1.73-1.36,.76-.23,1.43,.24,1.08,1.29-.27,.8-.97,1.45-1.86,1.69Z"/>
                <path class="cls-61" d="M7.7,15.25c-1,.3-1.44-.63-.91-1.53,.4-.68,1.08-1.13,1.68-1.32,.72-.23,1.35,.22,1,1.24-.26,.76-.92,1.36-1.77,1.61Z"/>
                <path class="cls-49" d="M7.71,15.17c-.96,.31-1.39-.59-.87-1.45,.4-.67,1.08-1.1,1.63-1.28,.67-.22,1.27,.2,.92,1.2-.25,.72-.87,1.26-1.68,1.53Z"/>
                <path class="cls-45" d="M7.73,15.1c-.93,.33-1.34-.55-.83-1.36,.41-.66,1.07-1.07,1.58-1.24,.63-.21,1.2,.18,.84,1.15-.25,.67-.81,1.17-1.59,1.45Z"/>
                <path class="cls-47" d="M7.75,15.02c-.9,.35-1.29-.51-.8-1.28,.41-.65,1.07-1.04,1.54-1.2,.59-.2,1.12,.17,.76,1.11-.24,.63-.76,1.09-1.5,1.37Z"/>
                <path class="cls-43" d="M7.77,14.94c-.86,.36-1.24-.47-.76-1.19,.42-.64,1.06-1.01,1.49-1.16,.55-.19,1.05,.15,.68,1.06-.23,.59-.7,1-1.41,1.29Z"/>
                <path class="cls-41" d="M7.79,14.87c-.83,.38-1.19-.43-.72-1.11,.42-.62,1.06-.98,1.44-1.12,.5-.18,.97,.13,.61,1.01-.23,.54-.65,.91-1.32,1.22Z"/>
                <path class="cls-62" d="M7.8,14.79c-.8,.4-1.14-.39-.69-1.03s1.05-.95,1.39-1.08c.46-.18,.9,.11,.53,.97-.22,.5-.59,.82-1.23,1.14Z"/>
                <path class="cls-10" d="M7.82,14.71c-.76,.42-1.08-.34-.65-.94,.44-.6,1.05-.92,1.34-1.04,.42-.17,.82,.09,.45,.92-.21,.46-.54,.73-1.14,1.06Z"/>
              </g>
              <g class="cls-11">
                <path class="cls-8" d="M4.3,11.13c-1.27-.7-1.16-2.09,.22-3.06,.73-.51,1.81-.71,3-.35,1.3,.4,1.7,1.53,.67,2.54-1.01,.99-2.71,1.52-3.89,.87Z"/>
                <path class="cls-1" d="M4.36,11.07c-1.25-.67-1.14-2.04,.21-2.97,.72-.5,1.78-.69,2.94-.34,1.26,.38,1.65,1.48,.63,2.47-.98,.95-2.62,1.46-3.78,.84Z"/>
                <path class="cls-2" d="M4.41,11.02c-1.23-.64-1.12-1.98,.2-2.88,.72-.49,1.76-.67,2.88-.33,1.22,.37,1.6,1.43,.59,2.4s-2.53,1.41-3.67,.81Z"/>
                <path class="cls-12" d="M4.47,10.96c-1.21-.61-1.1-1.93,.18-2.79,.72-.48,1.74-.64,2.81-.32,1.18,.35,1.55,1.38,.56,2.32-.93,.88-2.44,1.35-3.56,.78Z"/>
                <path class="cls-13" d="M4.53,10.91c-1.19-.58-1.08-1.87,.17-2.69,.72-.47,1.72-.62,2.75-.31,1.14,.34,1.5,1.33,.52,2.25-.9,.85-2.35,1.29-3.44,.76Z"/>
                <path class="cls-54" d="M4.58,10.85c-1.17-.55-1.07-1.81,.16-2.6,.71-.46,1.7-.6,2.69-.3,1.09,.32,1.45,1.28,.48,2.18-.88,.81-2.26,1.23-3.33,.73Z"/>
                <path class="cls-53" d="M4.64,10.8c-1.15-.52-1.05-1.76,.15-2.51,.71-.45,1.68-.57,2.63-.3,1.05,.31,1.4,1.24,.45,2.11-.85,.78-2.17,1.18-3.22,.7Z"/>
                <path class="cls-50" d="M4.69,10.74c-1.13-.49-1.03-1.7,.13-2.42,.71-.44,1.66-.55,2.56-.29,1.01,.29,1.35,1.19,.41,2.03-.82,.74-2.08,1.12-3.11,.68Z"/>
                <path class="cls-59" d="M4.75,10.69c-1.11-.46-1.01-1.64,.12-2.33,.71-.43,1.64-.53,2.5-.28,.97,.28,1.29,1.14,.37,1.96-.79,.71-1.99,1.06-2.99,.65Z"/>
                <path class="cls-56" d="M4.81,10.63c-1.1-.43-.99-1.59,.11-2.24,.7-.42,1.62-.5,2.44-.27,.93,.26,1.24,1.09,.34,1.89-.77,.68-1.9,1.01-2.88,.62Z"/>
                <path class="cls-39" d="M4.86,10.58c-1.08-.4-.97-1.53,.09-2.15,.7-.41,1.6-.48,2.38-.26,.89,.25,1.19,1.04,.3,1.82-.74,.64-1.82,.95-2.77,.59Z"/>
                <path class="cls-36" d="M4.92,10.52c-1.06-.37-.95-1.47,.08-2.06,.7-.4,1.58-.46,2.31-.25,.85,.23,1.14,.99,.26,1.74-.71,.61-1.73,.89-2.66,.57Z"/>
                <path class="cls-33" d="M4.97,10.47c-1.04-.34-.93-1.41,.07-1.96,.7-.39,1.56-.43,2.25-.25,.81,.22,1.09,.94,.23,1.67-.68,.57-1.64,.83-2.54,.54Z"/>
                <path class="cls-35" d="M5.03,10.41c-1.02-.31-.91-1.35,.05-1.87,.7-.38,1.54-.41,2.19-.24,.77,.2,1.04,.89,.19,1.6-.65,.54-1.55,.78-2.43,.51Z"/>
                <path class="cls-61" d="M5.09,10.35c-1-.28-.89-1.29,.04-1.78,.69-.37,1.52-.39,2.13-.23,.73,.19,.99,.84,.15,1.53-.62,.51-1.46,.72-2.32,.49Z"/>
                <path class="cls-49" d="M5.14,10.3c-.98-.24-.87-1.23,.03-1.69,.69-.36,1.5-.36,2.06-.22,.69,.17,.94,.8,.11,1.45-.6,.47-1.37,.67-2.2,.46Z"/>
                <path class="cls-45" d="M5.2,10.24c-.96-.21-.84-1.17,.01-1.6,.69-.34,1.48-.34,2-.21,.65,.16,.89,.75,.08,1.38-.57,.44-1.28,.61-2.09,.43Z"/>
                <path class="cls-47" d="M5.25,10.19c-.94-.18-.82-1.11,0-1.51,.69-.33,1.46-.32,1.94-.2,.61,.14,.84,.7,.04,1.31-.54,.41-1.2,.55-1.98,.4Z"/>
                <path class="cls-43" d="M5.31,10.13c-.93-.15-.8-1.05-.01-1.42,.69-.32,1.44-.29,1.88-.2,.56,.13,.79,.65,0,1.24-.51,.37-1.11,.5-1.87,.38Z"/>
                <path class="cls-41" d="M5.37,10.08c-.91-.12-.78-.99-.03-1.33,.69-.31,1.41-.27,1.81-.19,.52,.11,.75,.61-.03,1.16-.48,.34-1.02,.44-1.75,.35Z"/>
                <path class="cls-62" d="M5.42,10.02c-.89-.08-.76-.93-.04-1.23s1.39-.25,1.75-.18c.48,.1,.7,.56-.07,1.09-.45,.31-.93,.39-1.64,.32Z"/>
                <path class="cls-10" d="M5.48,9.97c-.87-.05-.74-.87-.05-1.14,.69-.28,1.37-.23,1.69-.17,.44,.08,.65,.52-.11,1.02-.42,.28-.84,.33-1.53,.29Z"/>
              </g>
              <g class="cls-11">
                <path class="cls-8" d="M14.75,13.88c-.23-1.43,.94-2.2,2.55-1.7,.85,.26,1.67,.99,2.12,2.16,.48,1.27-.16,2.29-1.59,2.09-1.4-.19-2.86-1.2-3.07-2.54Z"/>
                <path class="cls-1" d="M14.81,13.88c-.24-1.4,.91-2.16,2.48-1.67,.84,.27,1.64,.98,2.07,2.11,.46,1.23-.15,2.21-1.55,2.01-1.36-.19-2.77-1.16-2.99-2.46Z"/>
                <path class="cls-2" d="M14.88,13.89c-.25-1.37,.89-2.12,2.4-1.63,.83,.27,1.6,.97,2.02,2.07,.45,1.19-.13,2.14-1.51,1.94-1.31-.18-2.68-1.12-2.91-2.38Z"/>
                <path class="cls-12" d="M14.94,13.89c-.26-1.33,.86-2.08,2.32-1.59,.82,.27,1.57,.96,1.97,2.03,.43,1.15-.11,2.06-1.47,1.87-1.27-.18-2.58-1.08-2.82-2.3Z"/>
                <path class="cls-13" d="M15.01,13.89c-.27-1.3,.83-2.05,2.25-1.56,.81,.28,1.54,.95,1.91,1.99,.41,1.11-.09,1.99-1.42,1.8-1.22-.17-2.49-1.03-2.74-2.23Z"/>
                <path class="cls-54" d="M15.07,13.89c-.28-1.26,.8-2.01,2.17-1.52,.8,.28,1.51,.95,1.86,1.94,.39,1.07-.08,1.91-1.38,1.73-1.18-.16-2.4-.99-2.66-2.15Z"/>
                <path class="cls-53" d="M15.14,13.9c-.3-1.23,.77-1.97,2.09-1.49,.79,.28,1.47,.94,1.81,1.9,.37,1.03-.06,1.84-1.34,1.65-1.13-.16-2.3-.95-2.57-2.07Z"/>
                <path class="cls-50" d="M15.2,13.9c-.31-1.2,.74-1.93,2.02-1.45,.78,.29,1.44,.93,1.76,1.86,.35,.99-.04,1.76-1.3,1.58-1.09-.15-2.21-.91-2.49-1.99Z"/>
                <path class="cls-59" d="M15.27,13.9c-.32-1.16,.71-1.89,1.94-1.42,.77,.29,1.41,.92,1.71,1.82,.33,.95-.03,1.69-1.25,1.51-1.04-.15-2.12-.87-2.4-1.91Z"/>
                <path class="cls-56" d="M15.33,13.9c-.33-1.13,.68-1.85,1.87-1.38,.76,.3,1.37,.91,1.66,1.77,.31,.91,0,1.61-1.21,1.44-1-.14-2.02-.82-2.32-1.83Z"/>
                <path class="cls-39" d="M15.4,13.9c-.34-1.1,.65-1.8,1.79-1.35,.75,.3,1.34,.9,1.61,1.73,.29,.88,0,1.54-1.17,1.37-.95-.14-1.93-.78-2.24-1.75Z"/>
                <path class="cls-36" d="M15.46,13.91c-.36-1.06,.62-1.76,1.71-1.31,.74,.31,1.3,.9,1.56,1.69,.27,.84,.03,1.46-1.12,1.29-.91-.13-1.84-.74-2.15-1.67Z"/>
                <path class="cls-33" d="M15.53,13.91c-.37-1.03,.59-1.72,1.64-1.28,.73,.31,1.27,.89,1.51,1.65,.26,.8,.04,1.39-1.08,1.22-.86-.12-1.75-.7-2.07-1.59Z"/>
                <path class="cls-35" d="M15.59,13.91c-.38-.99,.56-1.68,1.56-1.24,.73,.32,1.24,.88,1.46,1.61s.06,1.31-1.04,1.15c-.81-.12-1.66-.66-1.99-1.51Z"/>
                <path class="cls-61" d="M15.66,13.91c-.4-.96,.53-1.64,1.48-1.2,.72,.32,1.2,.87,1.41,1.56s.08,1.24-1,1.08c-.77-.11-1.56-.61-1.9-1.44Z"/>
                <path class="cls-49" d="M15.72,13.92c-.41-.93,.5-1.59,1.41-1.17,.71,.33,1.17,.86,1.36,1.52s.1,1.16-.95,1.01c-.72-.11-1.47-.57-1.82-1.36Z"/>
                <path class="cls-45" d="M15.79,13.92c-.42-.89,.47-1.55,1.33-1.13,.7,.34,1.14,.85,1.31,1.48s.11,1.09-.91,.93c-.68-.1-1.38-.53-1.73-1.28Z"/>
                <path class="cls-47" d="M15.85,13.92c-.44-.86,.44-1.51,1.25-1.1,.69,.34,1.11,.85,1.26,1.44s.13,1.01-.87,.86c-.63-.09-1.29-.49-1.65-1.2Z"/>
                <path class="cls-43" d="M15.92,13.92c-.45-.82,.4-1.46,1.18-1.06,.67,.35,1.07,.84,1.21,1.39s.15,.94-.82,.79c-.59-.09-1.2-.45-1.57-1.12Z"/>
                <path class="cls-41" d="M15.98,13.92c-.47-.79,.37-1.42,1.1-1.03,.66,.36,1.04,.83,1.16,1.35s.17,.86-.78,.72c-.54-.08-1.11-.4-1.48-1.04Z"/>
                <path class="cls-62" d="M16.05,13.93c-.48-.75,.34-1.37,1.03-.99s1.01,.82,1.11,1.31c.11,.48,.18,.79-.74,.64-.5-.08-1.02-.36-1.4-.96Z"/>
                <path class="cls-10" d="M16.11,13.93c-.49-.72,.31-1.33,.95-.96,.64,.37,.97,.81,1.06,1.27,.09,.44,.2,.71-.7,.57-.45-.07-.93-.32-1.32-.88Z"/>
              </g>
              <g class="cls-11">
                <path class="cls-8" d="M13.97,13.61c-1.03-1.02-2.34-.52-2.87,1.08-.28,.84-.17,1.93,.52,2.98,.75,1.13,1.95,1.2,2.62-.08,.66-1.25,.7-3.03-.27-3.98Z"/>
                <path class="cls-1" d="M13.93,13.67c-1-1.01-2.29-.52-2.8,1.04-.27,.83-.16,1.9,.51,2.91,.73,1.1,1.88,1.17,2.54-.08,.64-1.21,.68-2.93-.25-3.87Z"/>
                <path class="cls-2" d="M13.89,13.72c-.96-1-2.24-.52-2.73,1-.26,.83-.15,1.87,.5,2.85,.71,1.06,1.81,1.14,2.46-.09,.62-1.17,.66-2.83-.24-3.75Z"/>
                <path class="cls-12" d="M13.86,13.78c-.93-.99-2.19-.52-2.65,.96-.26,.82-.14,1.84,.5,2.78,.69,1.02,1.74,1.11,2.37-.1,.6-1.13,.63-2.73-.22-3.64Z"/>
                <path class="cls-13" d="M13.82,13.83c-.89-.98-2.14-.52-2.58,.91-.25,.82-.12,1.81,.49,2.71,.66,.98,1.67,1.08,2.29-.1,.57-1.09,.61-2.62-.21-3.52Z"/>
                <path class="cls-54" d="M13.78,13.88c-.86-.97-2.09-.52-2.5,.87-.24,.81-.11,1.77,.49,2.65,.64,.94,1.6,1.05,2.21-.11,.55-1.05,.59-2.52-.19-3.41Z"/>
                <path class="cls-53" d="M13.75,13.94c-.83-.96-2.04-.52-2.43,.83-.23,.81-.1,1.74,.48,2.58,.62,.9,1.52,1.02,2.12-.12,.53-1.01,.57-2.42-.18-3.3Z"/>
                <path class="cls-50" d="M13.71,13.99c-.79-.95-1.99-.53-2.36,.79-.22,.8-.09,1.71,.48,2.52,.6,.87,1.45,.99,2.04-.13,.51-.97,.55-2.32-.16-3.18Z"/>
                <path class="cls-59" d="M13.68,14.04c-.76-.94-1.94-.53-2.28,.75-.21,.8-.07,1.68,.47,2.45,.58,.83,1.38,.96,1.96-.13,.49-.93,.53-2.22-.15-3.07Z"/>
                <path class="cls-56" d="M13.64,14.1c-.72-.93-1.89-.53-2.21,.71-.2,.79-.06,1.65,.47,2.39,.56,.79,1.31,.93,1.87-.14,.47-.89,.51-2.13-.13-2.95Z"/>
                <path class="cls-39" d="M13.6,14.15c-.69-.92-1.84-.53-2.14,.67-.19,.79-.05,1.61,.46,2.32,.54,.75,1.24,.9,1.79-.15,.45-.85,.49-2.03-.12-2.84Z"/>
                <path class="cls-36" d="M13.57,14.21c-.65-.91-1.79-.53-2.06,.62-.18,.78-.03,1.58,.46,2.26,.52,.71,1.17,.87,1.71-.16,.42-.81,.47-1.93-.1-2.73Z"/>
                <path class="cls-33" d="M13.53,14.26c-.62-.9-1.74-.53-1.99,.58-.18,.78-.02,1.55,.45,2.19s1.1,.85,1.62-.16c.4-.77,.45-1.83-.09-2.61Z"/>
                <path class="cls-35" d="M13.5,14.31c-.58-.89-1.69-.53-1.92,.54-.17,.77,0,1.52,.45,2.13s1.03,.82,1.54-.17c.38-.73,.43-1.73-.07-2.5Z"/>
                <path class="cls-61" d="M13.46,14.37c-.55-.88-1.64-.53-1.84,.5-.16,.77,0,1.49,.44,2.06s.96,.79,1.46-.18c.36-.69,.41-1.63-.05-2.38Z"/>
                <path class="cls-49" d="M13.42,14.42c-.51-.87-1.58-.53-1.77,.46-.14,.76,.02,1.46,.44,2s.89,.76,1.37-.19c.34-.65,.39-1.53-.04-2.27Z"/>
                <path class="cls-45" d="M13.39,14.48c-.48-.86-1.53-.53-1.7,.42-.13,.76,.03,1.42,.43,1.93s.81,.73,1.29-.19c.32-.61,.38-1.43-.02-2.15Z"/>
                <path class="cls-47" d="M13.35,14.53c-.44-.85-1.48-.53-1.62,.38-.12,.76,.04,1.39,.43,1.87s.74,.7,1.21-.2c.29-.57,.36-1.33,0-2.04Z"/>
                <path class="cls-43" d="M13.31,14.58c-.4-.85-1.42-.53-1.55,.34-.11,.75,.05,1.36,.42,1.8s.67,.67,1.12-.21c.27-.53,.34-1.23,0-1.93Z"/>
                <path class="cls-41" d="M13.28,14.64c-.37-.84-1.37-.53-1.48,.29-.1,.75,.07,1.33,.42,1.73,.35,.4,.6,.64,1.04-.22,.25-.49,.32-1.13,.02-1.81Z"/>
                <path class="cls-62" d="M13.24,14.69c-.33-.83-1.31-.52-1.4,.25s.08,1.3,.41,1.67c.33,.37,.53,.61,.95-.22,.23-.45,.3-1.03,.04-1.7Z"/>
                <path class="cls-10" d="M13.21,14.75c-.29-.82-1.26-.52-1.33,.21-.07,.74,.09,1.27,.41,1.6,.31,.33,.46,.58,.87-.23,.21-.41,.28-.94,.05-1.58Z"/>
              </g>
            </g>
            <g>
              <path class="cls-6" d="M13.26,2.34c0,1.04-.96,1.88-.96,1.88,0,0-.96-.84-.96-1.88s.96-1.88,.96-1.88c0,0,.96,.84,.96,1.88Z"/>
              <path class="cls-6" d="M13.26,15.45c0,1.04-.96,1.88-.96,1.88,0,0-.96-.84-.96-1.88s.96-1.88,.96-1.88c0,0,.96,.84,.96,1.88Z"/>
              <path class="cls-6" d="M5.75,7.94c1.04,0,1.88,.96,1.88,.96,0,0-.84,.96-1.88,.96s-1.88-.96-1.88-.96c0,0,.84-.96,1.88-.96Z"/>
              <path class="cls-6" d="M18.86,7.94c1.04,0,1.88,.96,1.88,.96,0,0-.84,.96-1.88,.96s-1.88-.96-1.88-.96c0,0,.84-.96,1.88-.96Z"/>
              <path class="cls-6" d="M6.99,12.85c.73-.73,2-.65,2-.65,0,0,.08,1.27-.65,2-.73,.73-2,.65-2,.65,0,0-.08-1.27,.65-2Z"/>
              <path class="cls-6" d="M16.26,3.59c.73-.73,2-.65,2-.65,0,0,.08,1.27-.65,2-.73,.73-2,.65-2,.65,0,0-.08-1.27,.65-2Z"/>
              <path class="cls-6" d="M16.26,14.21c-.73-.73-.65-2-.65-2,0,0,1.27-.08,2,.65,.73,.73,.65,2,.65,2,0,0-1.27,.08-2-.65Z"/>
              <path class="cls-6" d="M6.99,4.94c-.73-.73-.65-2-.65-2,0,0,1.27-.08,2,.65,.73,.73,.65,2,.65,2,0,0-1.27,.08-2-.65Z"/>
            </g>
            <g>
              <path class="cls-6" d="M18.07,12.11c-.77-.32-1.09-1.28-1.09-1.28,0,0,.91-.45,1.68-.13,.77,.32,1.09,1.28,1.09,1.28,0,0-.91,.45-1.68,.13Z"/>
              <path class="cls-6" d="M5.96,7.1c-.77-.32-1.09-1.28-1.09-1.28,0,0,.91-.45,1.68-.13,.77,.32,1.09,1.28,1.09,1.28,0,0-.91,.45-1.68,.13Z"/>
              <path class="cls-6" d="M10.51,2.55c.32,.77-.13,1.68-.13,1.68,0,0-.97-.33-1.28-1.09-.32-.77,.13-1.68,.13-1.68,0,0,.97,.33,1.28,1.09Z"/>
              <path class="cls-6" d="M15.52,14.66c.32,.77-.13,1.68-.13,1.68,0,0-.97-.33-1.28-1.09-.32-.77,.13-1.68,.13-1.68,0,0,.97,.33,1.28,1.09Z"/>
              <path class="cls-6" d="M5.96,10.7c.77-.32,1.68,.13,1.68,.13,0,0-.33,.97-1.09,1.28-.77,.32-1.68-.13-1.68-.13,0,0,.33-.97,1.09-1.28Z"/>
              <path class="cls-6" d="M18.07,5.68c.77-.32,1.68,.13,1.68,.13,0,0-.33,.97-1.09,1.28-.77,.32-1.68-.13-1.68-.13,0,0,.33-.97,1.09-1.28Z"/>
              <path class="cls-6" d="M9.09,14.66c.32-.77,1.28-1.09,1.28-1.09,0,0,.45,.91,.13,1.68-.32,.77-1.28,1.09-1.28,1.09,0,0-.45-.91-.13-1.68Z"/>
              <path class="cls-6" d="M14.1,2.55c.32-.77,1.28-1.09,1.28-1.09,0,0,.45,.92,.13,1.68-.32,.77-1.28,1.09-1.28,1.09,0,0-.45-.92-.13-1.68Z"/>
            </g>
            <g>
              <path class="cls-4" d="M13.35,2.43c0,1.04-.96,1.88-.96,1.88,0,0-.96-.84-.96-1.88s.96-1.88,.96-1.88c0,0,.96,.84,.96,1.88Z"/>
              <path class="cls-19" d="M13.35,15.54c0,1.04-.96,1.88-.96,1.88,0,0-.96-.84-.96-1.88s.96-1.88,.96-1.88c0,0,.96,.84,.96,1.88Z"/>
              <path class="cls-17" d="M5.84,8.03c1.04,0,1.88,.96,1.88,.96,0,0-.84,.96-1.88,.96s-1.88-.96-1.88-.96c0,0,.84-.96,1.88-.96Z"/>
              <path class="cls-18" d="M18.95,8.03c1.04,0,1.88,.96,1.88,.96,0,0-.84,.96-1.88,.96s-1.88-.96-1.88-.96c0,0,.84-.96,1.88-.96Z"/>
              <path class="cls-22" d="M7.08,12.94c.73-.73,2-.65,2-.65,0,0,.08,1.27-.65,2-.73,.73-2,.65-2,.65,0,0-.08-1.27,.65-2.01Z"/>
              <path class="cls-20" d="M16.35,3.67c.73-.73,2-.65,2-.65,0,0,.08,1.27-.65,2-.73,.73-2,.65-2,.65,0,0-.08-1.27,.65-2Z"/>
              <path class="cls-21" d="M16.35,14.3c-.73-.73-.65-2-.65-2,0,0,1.27-.08,2,.65,.73,.73,.65,2.01,.65,2.01,0,0-1.27,.08-2-.65Z"/>
              <path class="cls-15" d="M7.08,5.03c-.73-.73-.65-2-.65-2,0,0,1.27-.08,2,.65,.73,.73,.65,2,.65,2,0,0-1.27,.08-2-.65Z"/>
            </g>
            <g>
              <path class="cls-16" d="M18.15,12.2c-.77-.32-1.09-1.28-1.09-1.28,0,0,.91-.45,1.68-.13,.77,.32,1.09,1.28,1.09,1.28,0,0-.91,.45-1.68,.13Z"/>
              <path class="cls-29" d="M6.04,7.19c-.77-.32-1.09-1.28-1.09-1.28,0,0,.91-.45,1.68-.13,.77,.32,1.09,1.28,1.09,1.28,0,0-.91,.45-1.68,.13Z"/>
              <path class="cls-30" d="M10.59,2.64c.32,.77-.13,1.68-.13,1.68,0,0-.97-.33-1.28-1.09-.32-.77,.13-1.68,.13-1.68,0,0,.97,.33,1.28,1.09Z"/>
              <path class="cls-28" d="M15.61,14.74c.32,.77-.13,1.68-.13,1.68,0,0-.97-.33-1.28-1.09-.32-.77,.13-1.68,.13-1.68,0,0,.97,.33,1.28,1.09Z"/>
              <path class="cls-27" d="M6.04,10.78c.77-.32,1.68,.13,1.68,.13,0,0-.33,.97-1.09,1.28-.77,.32-1.68-.13-1.68-.13,0,0,.33-.97,1.09-1.28Z"/>
              <path class="cls-23" d="M18.15,5.77c.77-.32,1.68,.13,1.68,.13,0,0-.33,.97-1.09,1.28-.77,.32-1.68-.13-1.68-.13,0,0,.33-.96,1.09-1.28Z"/>
              <path class="cls-24" d="M9.18,14.74c.32-.77,1.28-1.09,1.28-1.09,0,0,.45,.91,.13,1.68-.32,.77-1.28,1.09-1.28,1.09,0,0-.45-.92-.13-1.68Z"/>
              <path class="cls-25" d="M14.19,2.64c.32-.77,1.28-1.09,1.28-1.09,0,0,.45,.91,.13,1.68-.32,.77-1.28,1.09-1.28,1.09,0,0-.45-.92-.13-1.68Z"/>
            </g>
            <g class="cls-11">
              <path class="cls-8" d="M18.35,15.71c-2.71,2.25-6.42,2.73-9.71,.68-4.38-2.73-3.37-6.42-1.36-6.51,1.97-.08,3.64,.57,4.91-.76,1.48-1.55,1.49-3.26,1.88-5.04,.44-1.99,2.96-2.63,5.68,.27,2.96,3.15,2.01,8.53-1.4,11.36Z"/>
              <path class="cls-1" d="M18.27,15.55c-2.63,2.2-6.23,2.69-9.44,.74-4.29-2.6-3.39-6.19-1.44-6.29,1.9-.09,3.61,.62,4.94-.79,1.47-1.57,1.47-3.24,1.83-5,.41-1.94,2.86-2.55,5.48,.28,2.84,3.05,1.95,8.26-1.37,11.05Z"/>
              <path class="cls-2" d="M18.19,15.38c-2.56,2.16-6.04,2.66-9.17,.81-4.2-2.46-3.4-5.96-1.52-6.06s3.59,.67,4.96-.81c1.47-1.58,1.45-3.23,1.79-4.96,.37-1.89,2.75-2.47,5.28,.29,2.71,2.96,1.9,8-1.35,10.74Z"/>
              <path class="cls-12" d="M18.11,15.21c-2.48,2.11-5.84,2.61-8.9,.87-4.11-2.34-3.42-5.72-1.6-5.84s3.56,.72,4.99-.84,1.43-3.22,1.74-4.92c.34-1.84,2.64-2.4,5.09,.3,2.59,2.86,1.84,7.73-1.32,10.42Z"/>
              <path class="cls-13" d="M18.03,15.04c-2.41,2.06-5.65,2.57-8.63,.93-4.02-2.21-3.44-5.49-1.68-5.61s3.53,.77,5.01-.87,1.41-3.21,1.69-4.88c.3-1.79,2.54-2.32,4.89,.32s1.78,7.47-1.29,10.11Z"/>
              <path class="cls-54" d="M17.95,14.87c-2.33,2.02-5.46,2.53-8.35,1-3.93-2.08-3.45-5.25-1.76-5.39s3.51,.82,5.04-.89,1.39-3.2,1.64-4.84c.27-1.74,2.43-2.25,4.69,.33s1.72,7.21-1.26,9.8Z"/>
              <path class="cls-53" d="M17.86,14.71c-2.26,1.97-5.26,2.49-8.08,1.06-3.84-1.95-3.47-5.02-1.84-5.16,1.54-.14,3.48,.87,5.06-.92,1.45-1.64,1.37-3.18,1.59-4.81s2.33-2.18,4.49,.34c2.22,2.57,1.66,6.94-1.23,9.49Z"/>
              <path class="cls-50" d="M17.78,14.54c-2.18,1.93-5.07,2.46-7.81,1.13-3.75-1.82-3.48-4.78-1.91-4.94,1.46-.14,3.45,.92,5.09-.95,1.45-1.66,1.35-3.17,1.55-4.77s2.23-2.1,4.3,.35,1.61,6.68-1.2,9.18Z"/>
              <path class="cls-59" d="M17.7,14.37c-2.11,1.88-4.88,2.42-7.54,1.19-3.66-1.69-3.5-4.55-1.99-4.71,1.39-.15,3.43,.97,5.11-.98,1.45-1.67,1.33-3.16,1.5-4.73s2.12-2.03,4.1,.36,1.55,6.42-1.18,8.86Z"/>
              <path class="cls-56" d="M17.62,14.2c-2.03,1.83-4.69,2.38-7.27,1.25-3.57-1.56-3.52-4.31-2.07-4.49,1.32-.16,3.4,1.02,5.14-1,1.45-1.68,1.31-3.14,1.45-4.69s2.02-1.95,3.9,.37,1.49,6.15-1.15,8.55Z"/>
              <path class="cls-39" d="M17.54,14.03c-1.95,1.79-4.5,2.34-7,1.32-3.49-1.43-3.53-4.08-2.15-4.26,1.25-.17,3.38,1.07,5.16-1.03,1.44-1.7,1.29-3.13,1.4-4.65s1.92-1.88,3.7,.38,1.43,5.89-1.12,8.24Z"/>
              <path class="cls-36" d="M17.46,13.87c-1.88,1.74-4.31,2.3-6.73,1.38-3.4-1.29-3.55-3.84-2.23-4.04,1.17-.18,3.35,1.12,5.19-1.06,1.44-1.71,1.27-3.12,1.35-4.61s1.81-1.81,3.51,.4c1.6,2.09,1.38,5.63-1.09,7.93Z"/>
              <path class="cls-33" d="M17.37,13.7c-1.8,1.7-4.11,2.27-6.46,1.44-3.31-1.16-3.57-3.61-2.31-3.81,1.1-.18,3.33,1.17,5.22-1.09,1.44-1.72,1.25-3.1,1.31-4.57s1.71-1.74,3.31,.41c1.48,1.99,1.32,5.37-1.06,7.62Z"/>
              <path class="cls-35" d="M17.29,13.53c-1.72,1.65-3.92,2.23-6.19,1.51-3.22-1.03-3.58-3.37-2.39-3.59,1.03-.19,3.3,1.22,5.24-1.11,1.44-1.73,1.23-3.09,1.26-4.53,.02-1.35,1.61-1.67,3.11,.42,1.36,1.89,1.26,5.1-1.03,7.3Z"/>
              <path class="cls-61" d="M17.21,13.36c-1.65,1.61-3.73,2.19-5.92,1.57-3.14-.89-3.6-3.13-2.47-3.37,.95-.2,3.28,1.27,5.27-1.14,1.44-1.75,1.22-3.08,1.21-4.49,0-1.3,1.51-1.59,2.91,.43,1.24,1.79,1.2,4.84-1.01,6.99Z"/>
              <path class="cls-49" d="M17.13,13.19c-1.57,1.56-3.54,2.16-5.65,1.63-3.05-.76-3.61-2.9-2.54-3.14,.88-.2,3.26,1.33,5.29-1.17,1.44-1.76,1.2-3.06,1.16-4.45-.03-1.25,1.41-1.52,2.72,.44,1.12,1.69,1.14,4.58-.98,6.68Z"/>
              <path class="cls-45" d="M17.05,13.03c-1.5,1.51-3.35,2.12-5.38,1.7-2.96-.62-3.63-2.66-2.62-2.92,.81-.21,3.23,1.38,5.32-1.2,1.43-1.77,1.18-3.05,1.12-4.41-.06-1.2,1.31-1.45,2.52,.45,1.01,1.59,1.09,4.31-.95,6.37Z"/>
              <path class="cls-47" d="M16.97,12.86c-1.43,1.46-3.16,2.09-5.11,1.76-2.88-.49-3.65-2.42-2.7-2.69,.73-.21,3.21,1.43,5.34-1.22,1.43-1.78,1.17-3.04,1.07-4.37-.09-1.15,1.21-1.39,2.32,.46,.89,1.48,1.02,4.05-.92,6.06Z"/>
              <path class="cls-43" d="M16.88,12.69c-1.35,1.42-2.97,2.06-4.84,1.82-2.79-.35-3.66-2.18-2.78-2.47,.66-.22,3.19,1.48,5.37-1.25,1.43-1.8,1.15-3.02,1.02-4.33-.11-1.1,1.12-1.32,2.13,.48,.78,1.38,.97,3.78-.89,5.74Z"/>
              <path class="cls-41" d="M16.8,12.52c-1.27,1.37-2.78,2.02-4.57,1.89-2.71-.21-3.68-1.94-2.86-2.24,.59-.22,3.17,1.54,5.39-1.28,1.43-1.81,1.14-3.01,.97-4.29-.14-1.05,1.02-1.25,1.93,.49,.66,1.28,.91,3.52-.86,5.43Z"/>
              <path class="cls-62" d="M16.72,12.36c-1.2,1.32-2.59,1.99-4.3,1.95-2.62-.06-3.69-1.7-2.94-2.02,.52-.22,3.15,1.59,5.42-1.3,1.43-1.82,1.13-3,.92-4.25-.16-1,.93-1.19,1.73,.5,.55,1.17,.85,3.25-.84,5.12Z"/>
              <path class="cls-10" d="M16.64,12.19c-1.12,1.28-2.4,1.96-4.03,2.02-2.53,.08-3.7-1.45-3.02-1.79,.45-.22,3.12,1.64,5.44-1.33,1.43-1.83,1.12-2.99,.88-4.21-.19-.95,.85-1.12,1.53,.51,.44,1.07,.79,2.99-.81,4.81Z"/>
            </g>
            <path class="cls-6" d="M17.65,8.9c0,2.95-2.39,5.34-5.34,5.34s-5.34-2.39-5.34-5.34,2.39-5.34,5.34-5.34,5.34,2.39,5.34,5.34Z"/>
            <path class="cls-26" d="M17.73,8.98c0,2.95-2.39,5.34-5.34,5.34s-5.34-2.39-5.34-5.34,2.39-5.34,5.34-5.34,5.34,2.39,5.34,5.34Z"/>
          </g>
          <g>
            <g class="cls-11">
              <path class="cls-8" d="M24.33,20.52c1.62-1.37,1.33-5.61,.5-6.74-1.08-1.49-2.24-2.4-3.23-2.89-.99-.5-3.78-.93-5.05-.93-1.77,0-3.52,.43-4.95,.81-1.55,.41-4.59,1.53-6.03,3.11-1.69,1.85-.2,5.53,.23,6.07,.81,1.01,1.78,2.01,3.01,2.6,1.17,.56,2.19,.53,3.07,.59,.66,.05,3.62,.38,5.35,.02,1.23-.26,3.3-.63,3.9-.93,.55-.27,1.92-.63,3.21-1.72Z"/>
              <path class="cls-1" d="M24.07,20.38c1.59-1.33,1.33-5.42,.51-6.57-1.07-1.49-2.21-2.35-3.19-2.84-.97-.48-3.64-.91-4.89-.93-1.73-.01-3.47,.4-4.89,.78-1.54,.41-4.54,1.53-5.94,3.05-1.63,1.78-.24,5.36,.22,5.93,.78,.98,1.7,1.97,2.93,2.54,1.16,.54,2.16,.49,3.01,.56,.66,.05,3.51,.42,5.24,.06,1.23-.25,3.24-.67,3.81-.95,.55-.27,1.9-.59,3.18-1.66Z"/>
              <path class="cls-3" d="M23.81,20.24c1.57-1.28,1.33-5.24,.52-6.4-1.05-1.5-2.18-2.3-3.15-2.78-.95-.47-3.5-.9-4.74-.93-1.69-.03-3.41,.37-4.82,.75-1.53,.41-4.5,1.53-5.84,3-1.57,1.72-.27,5.2,.21,5.8,.76,.95,1.63,1.93,2.86,2.49,1.15,.52,2.14,.46,2.96,.53,.65,.06,3.4,.46,5.13,.11,1.24-.25,3.17-.7,3.73-.98,.55-.27,1.88-.56,3.15-1.59Z"/>
              <path class="cls-12" d="M23.55,20.1c1.55-1.24,1.33-5.06,.53-6.23-1.03-1.5-2.15-2.26-3.11-2.73-.93-.46-3.35-.89-4.58-.92-1.64-.04-3.36,.34-4.76,.72-1.52,.41-4.45,1.53-5.75,2.94-1.51,1.65-.31,5.03,.2,5.66,.74,.91,1.55,1.88,2.78,2.43,1.14,.51,2.11,.42,2.9,.5,.64,.06,3.28,.51,5.01,.16,1.25-.25,3.1-.73,3.64-1,.54-.27,1.86-.52,3.13-1.53Z"/>
              <path class="cls-14" d="M23.29,19.96c1.53-1.2,1.33-4.88,.54-6.06-1-1.51-2.12-2.21-3.08-2.68-.91-.45-3.21-.88-4.42-.92-1.6-.06-3.31,.31-4.69,.69-1.51,.41-4.41,1.53-5.65,2.88-1.45,1.58-.34,4.86,.19,5.52,.71,.88,1.47,1.84,2.71,2.38,1.12,.49,2.08,.38,2.85,.47,.63,.07,3.17,.55,4.9,.21,1.26-.25,3.03-.76,3.55-1.02s1.84-.48,3.1-1.47Z"/>
              <path class="cls-55" d="M23.03,19.83c1.5-1.15,1.33-4.69,.55-5.89-.98-1.51-2.1-2.16-3.04-2.62-.89-.43-3.06-.87-4.26-.92-1.55-.07-3.26,.28-4.63,.66-1.5,.41-4.37,1.53-5.56,2.82-1.39,1.51-.38,4.69,.18,5.38,.69,.85,1.39,1.8,2.63,2.32,1.11,.47,2.05,.34,2.79,.43,.62,.08,3.06,.6,4.79,.26,1.27-.25,2.96-.79,3.47-1.05,.54-.27,1.82-.45,3.07-1.4Z"/>
              <path class="cls-52" d="M22.76,19.69c1.48-1.11,1.33-4.51,.56-5.72-.96-1.52-2.07-2.12-3-2.57-.87-.42-2.92-.86-4.1-.92-1.51-.08-3.21,.26-4.56,.63-1.49,.41-4.32,1.53-5.46,2.77-1.33,1.44-.42,4.53,.17,5.24,.66,.81,1.32,1.76,2.56,2.27,1.1,.45,2.02,.3,2.74,.4,.61,.08,2.95,.64,4.68,.31,1.27-.24,2.89-.82,3.38-1.07,.53-.27,1.8-.41,3.04-1.34Z"/>
              <path class="cls-51" d="M22.5,19.55c1.46-1.07,1.33-4.33,.57-5.55-.94-1.52-2.04-2.07-2.96-2.51-.84-.41-2.77-.84-3.94-.92-1.46-.1-3.16,.23-4.5,.6-1.48,.41-4.28,1.53-5.37,2.71-1.28,1.37-.45,4.36,.15,5.1s1.24,1.71,2.48,2.21c1.08,.43,1.99,.27,2.69,.37,.6,.09,2.84,.69,4.57,.36,1.28-.24,2.82-.85,3.3-1.09,.53-.27,1.79-.38,3.01-1.27Z"/>
              <path class="cls-58" d="M22.24,19.41c1.43-1.03,1.33-4.14,.58-5.38-.93-1.52-2.01-2.02-2.93-2.46-.82-.4-2.63-.83-3.78-.92-1.42-.11-3.11,.2-4.43,.57-1.46,.41-4.23,1.54-5.27,2.65-1.22,1.31-.49,4.19,.14,4.97s1.16,1.67,2.41,2.15c1.07,.41,1.97,.23,2.63,.34,.59,.09,2.73,.73,4.46,.41,1.29-.24,2.75-.88,3.21-1.12,.53-.27,1.77-.34,2.98-1.21Z"/>
              <path class="cls-57" d="M21.98,19.27c1.41-.98,1.33-3.96,.59-5.21-.91-1.53-1.98-1.97-2.89-2.4-.8-.38-2.48-.82-3.62-.92-1.37-.12-3.06,.17-4.37,.54-1.45,.41-4.19,1.54-5.18,2.59-1.16,1.24-.53,4.02,.13,4.83,.59,.72,1.08,1.63,2.33,2.1,1.06,.4,1.94,.19,2.58,.3,.58,.1,2.62,.77,4.35,.46,1.3-.24,2.68-.91,3.13-1.14,.52-.27,1.75-.3,2.96-1.15Z"/>
              <path class="cls-38" d="M21.72,19.13c1.39-.94,1.33-3.78,.6-5.04-.89-1.53-1.96-1.93-2.85-2.35-.78-.37-2.34-.81-3.46-.92-1.33-.13-3.01,.14-4.3,.51-1.44,.41-4.14,1.54-5.08,2.54-1.1,1.17-.56,3.85,.12,4.69,.56,.69,1,1.59,2.26,2.04,1.04,.38,1.91,.16,2.52,.27,.58,.11,2.51,.82,4.24,.5,1.3-.23,2.61-.94,3.04-1.17,.52-.27,1.73-.27,2.93-1.08Z"/>
              <path class="cls-37" d="M21.46,18.99c1.36-.9,1.33-3.59,.61-4.87-.87-1.53-1.93-1.88-2.81-2.29-.76-.36-2.19-.79-3.31-.92-1.28-.14-2.95,.11-4.24,.48-1.43,.41-4.1,1.54-4.98,2.48-1.04,1.1-.6,3.69,.11,4.55,.54,.65,.93,1.55,2.18,1.99,1.03,.36,1.88,.12,2.47,.24s2.39,.86,4.12,.55c1.31-.23,2.54-.97,2.96-1.19,.51-.27,1.71-.23,2.9-1.02Z"/>
              <path class="cls-32" d="M21.2,18.85c1.34-.86,1.33-3.41,.62-4.7-.85-1.54-1.9-1.83-2.77-2.24-.74-.35-2.05-.78-3.15-.92-1.24-.16-2.9,.08-4.18,.45-1.42,.41-4.05,1.54-4.89,2.42-.98,1.03-.64,3.52,.1,4.41,.51,.62,.85,1.51,2.1,1.93,1.02,.34,1.85,.08,2.41,.21s2.28,.91,4.01,.6c1.32-.23,2.47-1,2.87-1.21,.51-.27,1.69-.2,2.87-.96Z"/>
              <path class="cls-34" d="M20.94,18.71c1.32-.82,1.33-3.23,.63-4.52-.83-1.54-1.87-1.79-2.74-2.19-.72-.33-1.9-.77-2.99-.92-1.19-.17-2.85,.05-4.11,.42-1.41,.41-4.01,1.54-4.79,2.36-.92,.96-.68,3.35,.09,4.27,.49,.59,.77,1.47,2.03,1.88,1,.33,1.83,.05,2.36,.17s2.17,.95,3.9,.65c1.33-.23,2.41-1.04,2.78-1.24,.51-.27,1.67-.16,2.84-.89Z"/>
              <path class="cls-60" d="M20.67,18.57c1.29-.78,1.33-3.04,.64-4.35-.81-1.54-1.84-1.74-2.7-2.13-.7-.32-1.76-.75-2.83-.92-1.15-.18-2.8,.02-4.05,.39-1.4,.41-3.96,1.54-4.7,2.31-.86,.9-.71,3.19,.08,4.14,.46,.56,.69,1.43,1.95,1.82,.99,.31,1.8,.01,2.3,.14,.54,.14,2.06,1,3.79,.7,1.34-.23,2.34-1.07,2.7-1.26,.5-.27,1.65-.13,2.81-.83Z"/>
              <path class="cls-48" d="M20.41,18.43c1.27-.73,1.33-2.86,.65-4.18-.79-1.55-1.81-1.69-2.66-2.08-.68-.31-1.61-.74-2.67-.92s-2.75,0-3.98,.36c-1.39,.41-3.92,1.54-4.6,2.25-.8,.83-.75,3.02,.07,4,.44,.53,.61,1.39,1.88,1.76,.98,.29,1.77-.02,2.25,.11,.53,.15,1.95,1.04,3.68,.75,1.34-.22,2.27-1.1,2.61-1.28,.5-.27,1.62-.09,2.79-.76Z"/>
              <path class="cls-44" d="M20.15,18.3c1.24-.69,1.32-2.68,.66-4.01-.77-1.55-1.79-1.65-2.62-2.02-.65-.3-1.47-.72-2.51-.91s-2.7-.04-3.92,.33c-1.38,.41-3.87,1.54-4.51,2.19-.75,.76-.79,2.85,.06,3.86,.41,.5,.53,1.34,1.8,1.71,.96,.27,1.74-.06,2.19,.08,.52,.15,1.84,1.08,3.57,.8,1.35-.22,2.2-1.13,2.53-1.31,.5-.27,1.6-.06,2.76-.7Z"/>
              <path class="cls-46" d="M19.89,18.16c1.22-.65,1.32-2.49,.67-3.84-.76-1.55-1.76-1.6-2.58-1.97-.63-.28-1.33-.71-2.35-.91s-2.65-.06-3.85,.3c-1.37,.41-3.83,1.54-4.41,2.13-.69,.69-.83,2.68,.04,3.72,.39,.46,.45,1.31,1.73,1.65,.95,.26,1.71-.09,2.14,.04,.51,.16,1.73,1.13,3.46,.85,1.36-.22,2.13-1.16,2.44-1.33,.49-.27,1.58-.02,2.73-.64Z"/>
              <path class="cls-42" d="M19.63,18.02c1.19-.61,1.32-2.31,.68-3.67-.74-1.56-1.73-1.55-2.55-1.91-.61-.27-1.18-.69-2.19-.91s-2.6-.09-3.79,.27c-1.36,.41-3.78,1.54-4.32,2.08-.63,.62-.86,2.52,.03,3.58,.36,.43,.38,1.27,1.65,1.6,.93,.24,1.68-.13,2.08,.01,.5,.17,1.61,1.17,3.34,.9,1.37-.22,2.06-1.19,2.36-1.36,.49-.27,1.56,.01,2.7-.57Z"/>
              <path class="cls-40" d="M19.37,17.88c1.17-.57,1.32-2.12,.69-3.5-.72-1.56-1.7-1.51-2.51-1.86-.59-.26-1.04-.67-2.04-.91-.93-.22-2.55-.12-3.72,.24-1.35,.41-3.74,1.54-4.22,2.02-.57,.55-.9,2.35,.02,3.44,.34,.4,.3,1.23,1.58,1.54,.92,.23,1.65-.16,2.03-.02,.49,.18,1.5,1.22,3.23,.95,1.38-.22,1.99-1.22,2.27-1.38,.49-.27,1.54,.04,2.67-.51Z"/>
              <path class="cls-63" d="M19.11,17.74c1.14-.53,1.32-1.94,.7-3.33-.7-1.56-1.67-1.46-2.47-1.81-.57-.25-.89-.66-1.88-.91-.88-.23-2.49-.15-3.66,.21-1.34,.41-3.69,1.55-4.13,1.96-.51,.49-.94,2.19,.01,3.31,.31,.37,.22,1.19,1.5,1.48,.91,.21,1.62-.19,1.97-.05,.48,.19,1.39,1.26,3.12,.99,1.38-.21,1.92-1.25,2.19-1.4,.48-.27,1.52,.08,2.64-.45Z"/>
              <path class="cls-9" d="M18.85,17.6c1.12-.49,1.32-1.76,.71-3.16-.68-1.57-1.65-1.41-2.43-1.75-.55-.23-.75-.64-1.72-.91-.84-.24-2.44-.18-3.59,.17-1.33,.41-3.65,1.55-4.03,1.9-.45,.42-.98,2.02,0,3.17,.29,.34,.14,1.15,1.43,1.43,.89,.19,1.59-.23,1.92-.08,.47,.21,1.28,1.3,3.01,1.04,1.39-.21,1.85-1.29,2.1-1.43,.48-.27,1.5,.11,2.61-.38Z"/>
            </g>
            <path class="cls-7" d="M17.35,12.33c-.06,0-.12,0-.18,0-.32-.92-1.19-1.57-2.22-1.57-.31,0-.6,.06-.87,.17-.32-.88-1.16-1.51-2.15-1.51s-1.79,.59-2.12,1.44c-.11-.02-.23-.03-.35-.03-1.04,0-1.89,.79-2,1.8-.14-.03-.29-.04-.45-.04-1.25,0-2.27,1.01-2.27,2.27s1.01,2.27,2.27,2.27c.02,0,.04,0,.06,0,.22,.92,1.05,1.6,2.03,1.6,.76,0,1.43-.41,1.79-1.02,.5,.85,1.42,1.42,2.48,1.42,1.17,0,2.17-.7,2.62-1.7,.4,.23,.86,.36,1.35,.36,1.5,0,2.72-1.22,2.72-2.72s-1.22-2.72-2.72-2.72Z"/>
            <path class="cls-5" d="M17.44,12.43c-.06,0-.12,0-.18,0-.32-.92-1.19-1.57-2.22-1.57-.31,0-.6,.06-.87,.17-.32-.88-1.16-1.51-2.15-1.51s-1.79,.6-2.12,1.44c-.11-.02-.23-.03-.35-.03-1.04,0-1.89,.79-2,1.8-.14-.03-.29-.04-.45-.04-1.25,0-2.27,1.01-2.27,2.27s1.01,2.27,2.27,2.27c.02,0,.04,0,.06,0,.22,.92,1.05,1.6,2.03,1.6,.76,0,1.43-.41,1.79-1.02,.5,.85,1.42,1.42,2.48,1.42,1.17,0,2.17-.7,2.62-1.7,.4,.23,.86,.36,1.35,.36,1.5,0,2.72-1.22,2.72-2.72s-1.22-2.72-2.72-2.72Z"/>
          </g>
          <g>
            <g class="cls-11">
              <path class="cls-8" d="M16.77,17.35c1.04-1.54,.54-4.4-.19-5.39-.95-1.31-2.44-1.49-3.32-1.93-.87-.44-2.53-1.61-3.64-1.61-1.56,0-2.35,.58-3.61,.91-1.36,.37-3.67,2.49-4.94,3.88C-.42,14.85-.04,17.29,.34,17.77c.71,.89,1.57,1.77,2.64,2.29,1.03,.5,1.93,.47,2.7,.52,.58,.04,1.27,.33,2.79,.01,1.08-.23,1.59-.31,2.15-.49,1.17-.37,4.9-.88,6.16-2.75Z"/>
              <path class="cls-1" d="M16.57,17.3c1.04-1.49,.56-4.28-.15-5.27-.94-1.31-2.42-1.47-3.28-1.9-.85-.42-2.46-1.61-3.56-1.62-1.52,0-2.34,.54-3.59,.88-1.35,.36-3.62,2.47-4.84,3.81C-.29,14.76,0,17.15,.4,17.65c.69,.86,1.52,1.73,2.6,2.22,1.04,.47,1.91,.42,2.66,.48,.58,.05,1.27,.35,2.79,.04,1.09-.22,1.61-.33,2.14-.49,1.14-.34,4.73-.8,5.98-2.6Z"/>
              <path class="cls-3" d="M16.37,17.25c1.03-1.44,.59-4.17-.11-5.14-.93-1.31-2.4-1.44-3.25-1.86-.84-.41-2.39-1.62-3.48-1.64-1.48-.03-2.33,.51-3.57,.84-1.34,.36-3.56,2.45-4.74,3.73C-.16,14.68,.04,17.01,.46,17.54c.67,.83,1.47,1.69,2.56,2.16,1.05,.45,1.9,.37,2.62,.43,.57,.05,1.27,.38,2.79,.07,1.09-.22,1.62-.35,2.14-.49,1.11-.31,4.56-.72,5.8-2.45Z"/>
              <path class="cls-12" d="M16.17,17.19c1.03-1.39,.61-4.05-.07-5.02-.93-1.31-2.37-1.42-3.22-1.83-.82-.4-2.32-1.62-3.4-1.65-1.44-.04-2.32,.47-3.55,.8-1.33,.36-3.5,2.42-4.63,3.66C-.03,14.6,.08,16.87,.53,17.42c.65,.8,1.43,1.64,2.52,2.09,1.06,.43,1.89,.31,2.59,.38,.56,.06,1.27,.4,2.79,.09,1.1-.22,1.63-.36,2.14-.49,1.07-.27,4.39-.64,5.62-2.3Z"/>
              <path class="cls-14" d="M15.97,17.14c1.02-1.34,.64-3.94-.03-4.9-.92-1.31-2.35-1.39-3.18-1.8-.8-.39-2.25-1.63-3.32-1.66-1.4-.05-2.31,.44-3.53,.77-1.32,.36-3.44,2.4-4.53,3.59C.1,14.52,.12,16.73,.59,17.31c.63,.77,1.38,1.6,2.47,2.02s1.87,.26,2.55,.34c.55,.06,1.27,.42,2.79,.12,1.11-.22,1.64-.38,2.13-.5,1.04-.24,4.23-.57,5.44-2.15Z"/>
              <path class="cls-55" d="M15.77,17.09c1.02-1.29,.67-3.83,0-4.77-.91-1.31-2.32-1.37-3.15-1.77-.78-.38-2.18-1.63-3.23-1.68-1.36-.06-2.3,.4-3.51,.73-1.32,.36-3.38,2.38-4.43,3.51-1.23,1.33-1.3,3.48-.81,4.08,.6,.74,1.33,1.56,2.43,1.96s1.86,.21,2.51,.29c.54,.07,1.27,.45,2.79,.15,1.11-.22,1.66-.4,2.13-.5,1-.21,4.06-.49,5.26-2Z"/>
              <path class="cls-52" d="M15.57,17.03c1.01-1.24,.69-3.71,.05-4.65-.9-1.31-2.3-1.35-3.12-1.74-.76-.37-2.11-1.63-3.15-1.69-1.32-.07-2.29,.37-3.48,.7-1.31,.36-3.32,2.36-4.33,3.44-1.17,1.27-1.34,3.36-.82,3.99,.58,.72,1.29,1.52,2.39,1.89s1.84,.16,2.47,.24c.54,.07,1.27,.47,2.79,.17,1.12-.21,1.67-.42,2.13-.5,.97-.18,3.89-.41,5.08-1.86Z"/>
              <path class="cls-51" d="M15.36,16.98c1.01-1.18,.72-3.6,.08-4.52-.89-1.3-2.27-1.32-3.08-1.71-.74-.36-2.04-1.64-3.07-1.71-1.28-.09-2.28,.33-3.46,.66-1.3,.36-3.26,2.33-4.22,3.37-1.12,1.21-1.37,3.24-.84,3.9,.56,.69,1.24,1.48,2.35,1.83s1.83,.11,2.44,.2c.53,.08,1.27,.49,2.79,.2,1.13-.21,1.68-.43,2.12-.51,.93-.15,3.72-.33,4.9-1.71Z"/>
              <path class="cls-58" d="M15.16,16.93c1.01-1.13,.74-3.48,.12-4.4-.88-1.3-2.25-1.3-3.05-1.68-.72-.35-1.97-1.64-2.99-1.72-1.25-.1-2.27,.3-3.44,.62-1.29,.36-3.21,2.31-4.12,3.29-1.07,1.15-1.41,3.12-.85,3.81s1.19,1.44,2.3,1.76,1.82,.06,2.4,.15c.52,.08,1.27,.51,2.79,.23,1.13-.21,1.69-.45,2.12-.51,.9-.12,3.56-.25,4.72-1.56Z"/>
              <path class="cls-57" d="M14.96,16.87c1-1.08,.77-3.37,.16-4.27-.87-1.3-2.22-1.27-3.02-1.65-.71-.34-1.9-1.64-2.91-1.73-1.21-.11-2.26,.26-3.42,.59-1.28,.36-3.15,2.29-4.02,3.22-1.02,1.09-1.45,3.01-.87,3.71,.52,.63,1.15,1.4,2.26,1.7s1.8,0,2.36,.1c.51,.09,1.27,.54,2.79,.26,1.14-.21,1.71-.47,2.12-.51,.86-.09,3.39-.17,4.54-1.41Z"/>
              <path class="cls-38" d="M14.76,16.82c1-1.03,.8-3.26,.2-4.15-.86-1.3-2.2-1.25-2.98-1.62-.69-.33-1.83-1.65-2.82-1.75-1.17-.12-2.25,.23-3.4,.55-1.27,.36-3.09,2.27-3.92,3.15-.97,1.03-1.49,2.89-.89,3.62,.5,.6,1.1,1.35,2.22,1.63s1.79-.04,2.32,.06c.51,.09,1.27,.56,2.79,.28,1.15-.21,1.72-.49,2.11-.52,.83-.06,3.22-.09,4.36-1.26Z"/>
              <path class="cls-37" d="M14.56,16.76c1-.98,.82-3.14,.24-4.02-.85-1.3-2.17-1.22-2.95-1.59-.67-.31-1.76-1.65-2.74-1.76-1.13-.13-2.25,.19-3.38,.52-1.26,.36-3.03,2.25-3.81,3.07-.91,.97-1.53,2.77-.9,3.53,.47,.58,1.05,1.31,2.17,1.57s1.77-.09,2.29,.01,1.27,.58,2.79,.31c1.15-.2,1.73-.5,2.11-.52,.79-.03,3.06,0,4.18-1.11Z"/>
              <path class="cls-32" d="M14.36,16.71c1-.92,.85-3.03,.28-3.9-.85-1.3-2.15-1.2-2.92-1.56-.65-.3-1.7-1.65-2.66-1.77-1.09-.14-2.24,.16-3.35,.48-1.25,.36-2.97,2.22-3.71,3-.86,.91-1.56,2.65-.92,3.43,.45,.55,1.01,1.27,2.13,1.5s1.76-.14,2.25-.04,1.27,.6,2.79,.34c1.16-.2,1.74-.52,2.11-.52,.76,0,2.89,.07,4.01-.96Z"/>
              <path class="cls-34" d="M14.16,16.66c.99-.87,.87-2.91,.32-3.78-.84-1.3-2.13-1.18-2.89-1.53-.63-.29-1.63-1.65-2.58-1.79-1.05-.15-2.23,.12-3.33,.44-1.24,.36-2.91,2.2-3.61,2.93-.81,.85-1.6,2.53-.93,3.34,.43,.52,.96,1.23,2.09,1.43s1.75-.19,2.21-.08,1.27,.63,2.79,.36c1.17-.2,1.76-.54,2.1-.53,.72,.03,2.73,.15,3.83-.81Z"/>
              <path class="cls-60" d="M13.96,16.6c.99-.82,.9-2.8,.36-3.65-.83-1.3-2.1-1.15-2.85-1.5-.61-.28-1.56-1.66-2.5-1.8-1.01-.16-2.22,.09-3.31,.41-1.23,.36-2.86,2.18-3.51,2.85-.76,.79-1.64,2.41-.95,3.25,.41,.49,.91,1.18,2.05,1.37s1.73-.24,2.18-.13c.47,.12,1.27,.65,2.79,.39,1.17-.2,1.77-.56,2.1-.53,.69,.06,2.56,.24,3.65-.66Z"/>
              <path class="cls-48" d="M13.75,16.55c.99-.77,.93-2.69,.4-3.53-.82-1.3-2.08-1.13-2.82-1.47-.59-.27-1.49-1.66-2.42-1.81s-2.21,.05-3.29,.37c-1.22,.36-2.8,2.16-3.4,2.78-.71,.73-1.68,2.29-.96,3.16,.39,.46,.87,1.14,2,1.3s1.72-.29,2.14-.18c.47,.13,1.27,.67,2.79,.42,1.18-.2,1.78-.57,2.1-.53,.65,.09,2.4,.32,3.47-.51Z"/>
              <path class="cls-44" d="M13.55,16.5c.99-.71,.95-2.57,.44-3.4-.81-1.3-2.05-1.1-2.79-1.44-.58-.26-1.42-1.66-2.33-1.83s-2.2,.02-3.27,.33c-1.21,.36-2.74,2.14-3.3,2.71-.66,.67-1.72,2.18-.98,3.06,.36,.44,.82,1.1,1.96,1.24s1.7-.34,2.1-.22c.46,.14,1.27,.7,2.79,.44,1.19-.19,1.8-.59,2.09-.53,.62,.12,2.23,.4,3.29-.36Z"/>
              <path class="cls-46" d="M13.35,16.44c.99-.66,.98-2.46,.48-3.28-.8-1.3-2.03-1.08-2.75-1.41-.56-.25-1.35-1.66-2.25-1.84s-2.19-.02-3.25,.3c-1.2,.36-2.68,2.11-3.2,2.63-.6,.61-1.76,2.06-.99,2.97,.34,.41,.77,1.06,1.92,1.17s1.69-.39,2.06-.27c.45,.14,1.27,.72,2.79,.47,1.2-.19,1.81-.61,2.09-.54,.58,.15,2.07,.48,3.11-.21Z"/>
              <path class="cls-42" d="M13.15,16.39c.99-.6,1.01-2.35,.52-3.15-.79-1.3-2-1.06-2.72-1.38-.54-.24-1.28-1.66-2.17-1.86s-2.18-.05-3.22,.26c-1.19,.36-2.62,2.09-3.09,2.56-.55,.55-1.8,1.94-1.01,2.88,.32,.38,.73,1.01,1.87,1.11,1.17,.09,1.67-.44,2.03-.32,.44,.15,1.27,.74,2.79,.5,1.2-.19,1.82-.63,2.09-.54,.55,.18,1.9,.56,2.93-.06Z"/>
              <path class="cls-40" d="M12.95,16.34c.99-.55,1.03-2.23,.55-3.03-.78-1.3-1.98-1.03-2.69-1.34-.52-.23-1.21-1.66-2.09-1.87-.81-.2-2.17-.09-3.2,.23-1.19,.36-2.56,2.07-2.99,2.49-.5,.49-1.84,1.82-1.03,2.78,.3,.35,.68,.97,1.83,1.04,1.18,.07,1.66-.49,1.99-.36,.43,.16,1.27,.76,2.79,.52,1.21-.19,1.83-.64,2.08-.54,.51,.21,1.74,.65,2.75,.09Z"/>
              <path class="cls-63" d="M12.75,16.28c.98-.49,1.06-2.12,.59-2.9-.77-1.3-1.95-1.01-2.65-1.31-.5-.22-1.14-1.66-2.01-1.88-.78-.2-2.16-.12-3.18,.19-1.18,.36-2.51,2.05-2.89,2.41-.45,.43-1.88,1.71-1.04,2.69,.28,.33,.64,.93,1.79,.98,1.19,.05,1.64-.53,1.95-.41,.42,.17,1.27,.79,2.79,.55,1.22-.19,1.85-.66,2.08-.55,.48,.24,1.58,.73,2.57,.24Z"/>
              <path class="cls-9" d="M12.55,16.23c.98-.43,1.09-2.01,.63-2.78-.76-1.3-1.93-.99-2.62-1.28-.48-.21-1.07-1.66-1.92-1.9-.74-.21-2.15-.16-3.16,.15-1.17,.36-2.45,2.03-2.79,2.34-.4,.37-1.92,1.59-1.06,2.6,.25,.3,.59,.89,1.75,.91,1.2,.03,1.63-.58,1.91-.46,.41,.18,1.27,.81,2.79,.58,1.22-.18,1.86-.68,2.08-.55,.44,.27,1.41,.82,2.39,.39Z"/>
            </g>
            <path class="cls-7" d="M11.61,11.76c-.27-.01-.54,.02-.78,.1-.32-1.64-1.72-2.91-3.47-3-1.69-.09-3.17,.96-3.71,2.48h0c-1.43-.07-2.65,1.02-2.72,2.45-.07,1.43,1.02,2.65,2.45,2.72,.74,.04,1.42-.24,1.91-.71,.5,.29,1.07,.47,1.68,.5,1.1,.06,2.1-.36,2.83-1.08,.37,.48,.94,.8,1.59,.83,1.19,.06,2.2-.85,2.26-2.04,.06-1.19-.85-2.2-2.04-2.26Z"/>
          </g>
        </g>
      </g>
    </g>
  </g>
</svg>