<?xml version="1.0" encoding="utf-8"?>
<!-- Generator: Adobe Illustrator 27.0.1, SVG Export Plug-In . SVG Version: 6.00 Build 0)  -->
<svg version="1.1" id="Ebene_1" xmlns="http://www.w3.org/2000/svg" xmlns:xlink="http://www.w3.org/1999/xlink" x="0px" y="0px"
	 viewBox="0 0 142.54 139.99" style="enable-background:new 0 0 142.54 139.99;" xml:space="preserve">
<style type="text/css">
	.st0{opacity:0;fill:#FFFFFF;}
	.st1{opacity:0.0476;fill:#F9FBFB;}
	.st2{opacity:0.0952;fill:#F3F6F7;}
	.st3{opacity:0.1429;fill:#EEF2F4;}
	.st4{opacity:0.1905;fill:#E8EDF0;}
	.st5{opacity:0.2381;fill:#E2E9EC;}
	.st6{opacity:0.2857;fill:#DCE4E8;}
	.st7{opacity:0.3333;fill:#D7E0E5;}
	.st8{opacity:0.381;fill:#D1DCE1;}
	.st9{opacity:0.4286;fill:#CBD7DD;}
	.st10{opacity:0.4762;fill:#C5D3D9;}
	.st11{opacity:0.5238;fill:#C0CED6;}
	.st12{opacity:0.5714;fill:#BACAD2;}
	.st13{opacity:0.619;fill:#B4C5CE;}
	.st14{opacity:0.6667;fill:#AEC1CA;}
	.st15{opacity:0.7143;fill:#A9BDC7;}
	.st16{opacity:0.7619;fill:#A3B8C3;}
	.st17{opacity:0.8095;fill:#9DB4BF;}
	.st18{opacity:0.8571;fill:#97AFBB;}
	.st19{opacity:0.9048;fill:#92ABB8;}
	.st20{opacity:0.9524;fill:#8CA6B4;}
	.st21{fill:#86A2B0;}
	.st22{fill:#FFE3AB;}
	.st23{fill:url(#SVGID_1_);}
	.st24{fill:url(#SVGID_00000155130068656377532680000006959234511616346767_);}
	.st25{fill:url(#SVGID_00000026845069355649087170000014865719606237856443_);}
	.st26{fill:url(#SVGID_00000026867704226995258940000002797224566828115587_);}
	.st27{fill:url(#SVGID_00000124871575871470613000000000025968254842837382_);}
	.st28{fill:url(#SVGID_00000148644914581638310510000015391924790973463726_);}
	.st29{fill:url(#SVGID_00000063594028893395894220000016501502654430877882_);}
	.st30{fill:url(#SVGID_00000124122685445157379700000008278400396781539973_);}
	.st31{fill:url(#SVGID_00000054237920192248219370000016194034936728988557_);}
	.st32{fill:url(#SVGID_00000098940183746920908330000010936829262010188714_);}
	.st33{fill:url(#SVGID_00000170983069995419463700000012489056551153121717_);}
	.st34{fill:url(#SVGID_00000108990502119673607580000016245886822145383069_);}
	.st35{fill:url(#SVGID_00000165949374175880587590000006452314730175453059_);}
	.st36{fill:url(#SVGID_00000084530817783449598150000005087474596622085763_);}
	.st37{fill:url(#SVGID_00000029748951597107213030000002608488541822518688_);}
	.st38{fill:url(#SVGID_00000101095313522883550200000004445221827025072304_);}
	.st39{fill:url(#SVGID_00000138555639531878455620000006656234626129658524_);}
</style>
<g>
	<g>
		<g>
			<path class="st0" d="M100.89,65.08c-8.6-3.25-9.16-12.09-1.37-19.39c4.09-3.83,10.67-6.1,18.5-4.89
				c8.51,1.31,12.07,8.06,6.5,15.32C119.07,63.23,108.93,68.12,100.89,65.08z"/>
			<path class="st1" d="M101.19,64.69c-8.45-3.07-8.99-11.76-1.37-18.81c4.08-3.77,10.57-5.94,18.12-4.78
				c8.24,1.26,11.71,7.8,6.2,14.9C118.83,62.86,109.06,67.56,101.19,64.69z"/>
			<path class="st2" d="M101.5,64.29c-8.3-2.89-8.83-11.42-1.37-18.22c4.07-3.71,10.46-5.78,17.73-4.67
				c7.97,1.2,11.34,7.53,5.9,14.48C118.58,62.49,109.18,67,101.5,64.29z"/>
			<path class="st3" d="M101.8,63.89c-8.15-2.74-8.66-11.09-1.37-17.64c4.06-3.65,10.35-5.61,17.35-4.56
				c7.7,1.14,10.97,7.27,5.6,14.06C118.34,62.12,109.31,66.42,101.8,63.89z"/>
			<path class="st4" d="M102.1,63.49c-8-2.57-8.5-10.75-1.37-17.05c4.06-3.59,10.24-5.45,16.96-4.45c7.43,1.08,10.61,7,5.31,13.64
				C118.1,61.75,109.44,65.85,102.1,63.49z"/>
			<path class="st5" d="M102.4,63.09c-7.85-2.4-8.33-10.41-1.37-16.47c4.05-3.52,10.13-5.28,16.58-4.34
				c7.16,1.02,10.24,6.74,5.01,13.22C117.86,61.39,109.57,65.28,102.4,63.09z"/>
			<path class="st6" d="M102.7,62.69c-7.7-2.23-8.16-10.08-1.37-15.89c4.04-3.46,10.03-5.12,16.19-4.23
				c6.89,0.96,9.88,6.48,4.71,12.8C117.62,61.02,109.69,64.72,102.7,62.69z"/>
			<path class="st7" d="M103,62.3c-7.55-2.05-7.98-9.74-1.37-15.3c4.04-3.4,9.92-4.94,15.81-4.12c6.62,0.92,9.51,6.22,4.42,12.37
				C117.38,60.65,109.82,64.15,103,62.3z"/>
			<path class="st8" d="M103.3,61.9c-7.41-1.88-7.81-9.39-1.37-14.72c4.03-3.33,9.81-4.78,15.43-4.01
				c6.35,0.86,9.15,5.95,4.12,11.95C117.15,60.29,109.94,63.59,103.3,61.9z"/>
			<path class="st9" d="M103.6,61.5c-7.26-1.71-7.64-9.05-1.37-14.13c4.03-3.27,9.7-4.61,15.04-3.91c6.08,0.81,8.78,5.69,3.82,11.53
				C116.91,59.92,110.07,63.02,103.6,61.5z"/>
			<path class="st10" d="M103.9,61.1c-7.11-1.53-7.46-8.71-1.37-13.55c4.03-3.2,9.59-4.45,14.66-3.8c5.81,0.75,8.42,5.43,3.52,11.11
				C116.67,59.56,110.19,62.46,103.9,61.1z"/>
			<path class="st11" d="M104.2,60.7c-6.97-1.36-7.28-8.36-1.37-12.97c4.02-3.13,9.49-4.29,14.27-3.69
				c5.54,0.69,8.06,5.17,3.23,10.69C116.44,59.19,110.31,61.9,104.2,60.7z"/>
			<path class="st12" d="M104.5,60.31c-6.82-1.18-7.1-8.01-1.37-12.38c4.02-3.06,9.38-4.12,13.89-3.58
				c5.27,0.64,7.7,4.91,2.93,10.27C116.2,58.83,110.44,61.34,104.5,60.31z"/>
			<path class="st13" d="M104.8,59.91c-6.67-1.01-6.92-7.66-1.36-11.8c4.02-3,9.27-3.96,13.5-3.47c5,0.58,7.34,4.65,2.63,9.85
				C115.97,58.47,110.56,60.77,104.8,59.91z"/>
			<path class="st14" d="M105.1,59.51c-6.53-0.83-6.74-7.31-1.36-11.21c4.02-2.92,9.16-3.79,13.12-3.36
				c4.73,0.52,6.98,4.39,2.33,9.43C115.74,58.11,110.68,60.22,105.1,59.51z"/>
			<path class="st15" d="M105.4,59.11c-6.38-0.65-6.55-6.95-1.36-10.63c4.02-2.85,9.05-3.63,12.73-3.25
				c4.46,0.46,6.63,4.13,2.04,9.01C115.51,57.75,110.81,59.66,105.4,59.11z"/>
			<path class="st16" d="M105.71,58.71c-6.24-0.46-6.37-6.6-1.36-10.05c4.03-2.78,8.95-3.47,12.35-3.14
				c4.19,0.4,6.27,3.88,1.74,8.59C115.28,57.39,110.93,59.1,105.71,58.71z"/>
			<path class="st17" d="M106.01,58.32c-6.09-0.28-6.18-6.24-1.36-9.46c4.03-2.7,8.84-3.3,11.96-3.03c3.92,0.34,5.92,3.63,1.44,8.17
				C115.05,57.03,111.05,58.55,106.01,58.32z"/>
			<path class="st18" d="M106.31,57.92c-5.95-0.09-5.99-5.88-1.36-8.88c4.04-2.62,8.73-3.14,11.58-2.92
				c3.66,0.28,5.57,3.38,1.15,7.75C114.82,56.67,111.18,57.99,106.31,57.92z"/>
			<path class="st19" d="M106.61,57.52c-5.8,0.09-5.8-5.51-1.36-8.29c4.05-2.54,8.62-2.98,11.2-2.81c3.39,0.22,5.22,3.13,0.85,7.32
				C114.6,56.32,111.3,57.44,106.61,57.52z"/>
			<path class="st20" d="M106.91,57.12c-5.65,0.29-5.61-5.14-1.36-7.71c4.06-2.45,8.52-2.82,10.81-2.7c3.12,0.16,4.88,2.89,0.55,6.9
				C114.37,55.97,111.42,56.89,106.91,57.12z"/>
			<path class="st21" d="M107.21,56.72c-5.5,0.48-5.42-4.77-1.36-7.13c4.07-2.36,8.41-2.66,10.43-2.59
				c2.85,0.09,4.54,2.65,0.25,6.48C114.15,55.62,111.55,56.34,107.21,56.72z"/>
		</g>
		<g>
			<path class="st0" d="M90.72,42.42c-8.37,3.79-16.86-3.21-16.53-13.88c0.17-5.61,3.21-11.87,9.6-16.56
				c6.94-5.1,16.34,0.57,17.54,9.65C102.5,30.51,98.54,38.86,90.72,42.42z"/>
			<path class="st1" d="M90.56,41.87c-8.14,3.81-16.42-3.04-16.03-13.41c0.21-5.56,3.25-11.68,9.4-16.21
				c6.7-4.95,15.8,0.48,16.94,9.4C101.98,30.25,98.14,38.32,90.56,41.87z"/>
			<path class="st2" d="M90.4,41.32c-7.91,3.83-15.98-2.86-15.53-12.95c0.25-5.51,3.29-11.49,9.21-15.86
				c6.47-4.8,15.25,0.39,16.33,9.15C101.44,30,97.75,37.78,90.4,41.32z"/>
			<path class="st3" d="M90.25,40.77c-7.69,3.84-15.54-2.69-15.03-12.48c0.28-5.46,3.33-11.3,9.01-15.51
				c6.24-4.65,14.7,0.3,15.72,8.9C100.9,29.75,97.34,37.23,90.25,40.77z"/>
			<path class="st4" d="M90.09,40.22c-7.46,3.85-15.1-2.52-14.53-12.01c0.32-5.41,3.37-11.1,8.82-15.16
				c6.01-4.5,14.16,0.21,15.11,8.65C100.37,29.5,96.94,36.68,90.09,40.22z"/>
			<path class="st5" d="M89.93,39.67c-7.24,3.87-14.65-2.34-14.03-11.54c0.36-5.36,3.41-10.91,8.62-14.81
				c5.78-4.35,13.61,0.12,14.5,8.4C99.84,29.24,96.54,36.14,89.93,39.67z"/>
			<path class="st6" d="M89.77,39.12c-7.01,3.88-14.2-2.17-13.53-11.08c0.4-5.31,3.45-10.72,8.43-14.46
				c5.55-4.2,13.07,0.03,13.9,8.15C99.32,28.99,96.14,35.59,89.77,39.12z"/>
			<path class="st7" d="M89.62,38.57c-6.78,3.9-13.75-1.99-13.02-10.61c0.44-5.26,3.49-10.53,8.24-14.11
				c5.32-4.05,12.52-0.06,13.29,7.9C98.79,28.74,95.75,35.05,89.62,38.57z"/>
			<path class="st8" d="M89.46,38.02c-6.56,3.91-13.3-1.82-12.52-10.14c0.49-5.21,3.53-10.33,8.04-13.76
				c5.09-3.9,11.98-0.15,12.68,7.65C98.26,28.48,95.35,34.51,89.46,38.02z"/>
			<path class="st9" d="M89.3,37.47c-6.33,3.93-12.84-1.65-12.02-9.68c0.53-5.16,3.58-10.13,7.85-13.41
				c4.86-3.74,11.44-0.24,12.07,7.4C97.73,28.23,94.95,33.96,89.3,37.47z"/>
			<path class="st10" d="M89.15,36.92c-6.1,3.95-12.39-1.47-11.52-9.21c0.57-5.12,3.62-9.94,7.65-13.06
				c4.63-3.59,10.9-0.33,11.46,7.15C97.21,27.98,94.55,33.42,89.15,36.92z"/>
			<path class="st11" d="M88.99,36.37c-5.88,3.97-11.93-1.3-11.02-8.74c0.62-5.07,3.66-9.75,7.46-12.71
				c4.4-3.44,10.36-0.42,10.85,6.9C96.69,27.72,94.15,32.88,88.99,36.37z"/>
			<path class="st12" d="M88.83,35.82c-5.65,3.99-11.47-1.12-10.52-8.27c0.67-5.02,3.7-9.55,7.27-12.37
				c4.17-3.29,9.82-0.51,10.25,6.65C96.16,27.47,93.75,32.34,88.83,35.82z"/>
			<path class="st13" d="M88.67,35.27c-5.42,4.01-11-0.95-10.02-7.81c0.72-4.97,3.74-9.36,7.07-12.02c3.94-3.14,9.28-0.6,9.64,6.4
				C95.64,27.21,93.36,31.81,88.67,35.27z"/>
			<path class="st14" d="M88.52,34.72c-5.19,4.04-10.54-0.77-9.51-7.34c0.77-4.92,3.78-9.17,6.88-11.67
				c3.71-2.99,8.75-0.7,9.03,6.15C95.12,26.96,92.96,31.27,88.52,34.72z"/>
			<path class="st15" d="M88.36,34.17c-4.96,4.06-10.07-0.6-9.01-6.87c0.82-4.87,3.82-8.98,6.68-11.32c3.48-2.84,8.21-0.79,8.42,5.9
				C94.6,26.71,92.56,30.73,88.36,34.17z"/>
			<path class="st16" d="M88.2,33.63c-4.73,4.09-9.6-0.42-8.51-6.41c0.87-4.82,3.86-8.78,6.49-10.97c3.24-2.69,7.68-0.88,7.81,5.65
				C94.09,26.45,92.17,30.2,88.2,33.63z"/>
			<path class="st17" d="M88.05,33.08c-4.5,4.11-9.12-0.25-8.01-5.94c0.93-4.76,3.9-8.59,6.29-10.62c3.01-2.54,7.16-0.97,7.21,5.4
				C93.57,26.2,91.78,29.66,88.05,33.08z"/>
			<path class="st18" d="M87.89,32.53c-4.26,4.14-8.65-0.07-7.51-5.47c0.99-4.71,3.93-8.4,6.1-10.27c2.78-2.39,6.63-1.06,6.6,5.15
				C93.06,25.94,91.38,29.13,87.89,32.53z"/>
			<path class="st19" d="M87.73,31.98c-4.02,4.17-8.17,0.11-7.01-5c1.06-4.66,3.97-8.21,5.91-9.92c2.55-2.24,6.11-1.15,5.99,4.9
				C92.55,25.69,90.99,28.6,87.73,31.98z"/>
			<path class="st20" d="M87.57,31.43c-3.79,4.2-7.68,0.29-6.51-4.54c1.12-4.6,4.01-8.02,5.71-9.57c2.31-2.1,5.6-1.25,5.38,4.65
				C92.04,25.43,90.6,28.07,87.57,31.43z"/>
			<path class="st21" d="M87.42,30.88c-3.54,4.23-7.2,0.47-6-4.07c1.2-4.55,4.05-7.83,5.52-9.22c2.08-1.95,5.08-1.33,4.77,4.4
				C91.53,25.18,90.22,27.54,87.42,30.88z"/>
		</g>
		<g>
			<path class="st0" d="M64.22,32.53c-2.65,8.8-11.43,9.97-19.25,2.7c-4.11-3.82-6.83-10.23-6.15-18.13
				c0.73-8.57,10.66-9.83,18.28-4.77C64.56,17.29,66.69,24.31,64.22,32.53z"/>
			<path class="st1" d="M63.8,32.26c-2.48,8.64-11.11,9.78-18.67,2.66c-4.05-3.81-6.65-10.13-6.02-17.75
				c0.69-8.3,10.26-9.59,17.72-4.58C64.05,17.42,66.12,24.22,63.8,32.26z"/>
			<path class="st2" d="M63.38,31.99c-2.31,8.48-10.79,9.59-18.09,2.62c-3.98-3.81-6.48-10.04-5.88-17.37
				c0.65-8.03,9.85-9.33,17.16-4.38C63.53,17.56,65.55,24.14,63.38,31.99z"/>
			<path class="st3" d="M62.96,31.72c-2.17,8.31-10.47,9.4-17.5,2.58c-3.92-3.81-6.31-9.94-5.75-17c0.61-7.76,9.45-9.07,16.59-4.19
				C63.02,17.7,64.96,24.05,62.96,31.72z"/>
			<path class="st4" d="M62.54,31.44c-2.01,8.15-10.14,9.21-16.92,2.54c-3.86-3.8-6.14-9.84-5.61-16.62
				c0.57-7.48,9.05-8.82,16.03-3.99C62.5,17.83,64.39,23.96,62.54,31.44z"/>
			<path class="st5" d="M62.13,31.17c-1.85,7.99-9.82,9.02-16.34,2.5c-3.8-3.8-5.97-9.75-5.47-16.25c0.53-7.21,8.65-8.57,15.47-3.8
				C61.99,17.97,63.82,23.87,62.13,31.17z"/>
			<path class="st6" d="M61.71,30.9c-1.69,7.83-9.49,8.83-15.75,2.46c-3.73-3.8-5.8-9.65-5.34-15.87c0.49-6.94,8.25-8.32,14.91-3.6
				C61.47,18.1,63.24,23.79,61.71,30.9z"/>
			<path class="st7" d="M61.29,30.63c-1.53,7.67-9.16,8.63-15.17,2.42c-3.67-3.8-5.63-9.56-5.2-15.49
				c0.45-6.67,7.85-8.07,14.34-3.41C60.96,18.23,62.67,23.7,61.29,30.63z"/>
			<path class="st8" d="M60.87,30.35c-1.37,7.51-8.83,8.44-14.59,2.38c-3.61-3.8-5.45-9.46-5.07-15.12
				c0.43-6.39,7.45-7.82,13.78-3.22C60.45,18.36,62.1,23.61,60.87,30.35z"/>
			<path class="st9" d="M60.45,30.08c-1.21,7.35-8.5,8.24-14,2.33c-3.54-3.8-5.27-9.36-4.93-14.74c0.39-6.12,7.05-7.57,13.22-3.02
				C59.94,18.49,61.53,23.53,60.45,30.08z"/>
			<path class="st10" d="M60.04,29.81c-1.04,7.2-8.17,8.04-13.42,2.29c-3.47-3.8-5.1-9.26-4.8-14.36c0.35-5.85,6.65-7.33,12.65-2.83
				C59.42,18.62,60.96,23.44,60.04,29.81z"/>
			<path class="st11" d="M59.62,29.54c-0.88,7.04-7.84,7.83-12.84,2.25c-3.41-3.8-4.93-9.17-4.66-13.99
				c0.31-5.57,6.25-7.08,12.09-2.63C58.91,18.75,60.39,23.36,59.62,29.54z"/>
			<path class="st12" d="M59.2,29.26c-0.71,6.88-7.5,7.63-12.25,2.21c-3.34-3.81-4.76-9.07-4.53-13.61
				c0.27-5.3,5.85-6.83,11.53-2.44C58.4,18.88,59.82,23.27,59.2,29.26z"/>
			<path class="st13" d="M58.78,28.99c-0.54,6.72-7.16,7.42-11.67,2.17c-3.27-3.81-4.59-8.97-4.39-13.23
				c0.23-5.03,5.45-6.59,10.96-2.25C57.89,19.01,59.25,23.19,58.78,28.99z"/>
			<path class="st14" d="M58.36,28.72c-0.38,6.56-6.82,7.22-11.09,2.13c-3.2-3.82-4.42-8.88-4.26-12.86
				c0.19-4.76,5.05-6.35,10.4-2.05C57.38,19.13,58.69,23.1,58.36,28.72z"/>
			<path class="st15" d="M57.95,28.44c-0.21,6.41-6.48,7.01-10.51,2.09c-3.13-3.82-4.25-8.78-4.12-12.48
				c0.15-4.48,4.66-6.11,9.84-1.86C56.88,19.25,58.12,23.02,57.95,28.44z"/>
			<path class="st16" d="M57.53,28.17c-0.04,6.25-6.14,6.8-9.92,2.05c-3.05-3.83-4.08-8.69-3.99-12.11
				c0.11-4.21,4.27-5.87,9.27-1.66C56.37,19.38,57.56,22.93,57.53,28.17z"/>
			<path class="st17" d="M57.11,27.9c0.14,6.09-5.79,6.59-9.34,2.01c-2.98-3.84-3.91-8.59-3.85-11.73c0.07-3.94,3.87-5.63,8.71-1.47
				C55.87,19.5,56.99,22.85,57.11,27.9z"/>
			<path class="st18" d="M56.69,27.63C57,33.56,51.25,34,47.93,29.6c-2.9-3.85-3.74-8.49-3.72-11.35c0.03-3.67,3.48-5.4,8.15-1.27
				C55.36,19.62,56.43,22.76,56.69,27.63z"/>
			<path class="st19" d="M56.27,27.35c0.49,5.78-5.09,6.16-8.17,1.93c-2.82-3.87-3.57-8.4-3.58-10.98c-0.01-3.39,3.1-5.16,7.58-1.08
				C54.86,19.74,55.88,22.68,56.27,27.35z"/>
			<path class="st20" d="M55.86,27.08c0.67,5.62-4.74,5.94-7.59,1.89c-2.73-3.88-3.41-8.3-3.45-10.6c-0.06-3.12,2.71-4.94,7.02-0.89
				C54.36,19.85,55.32,22.59,55.86,27.08z"/>
			<path class="st21" d="M55.44,26.81c0.86,5.45-4.38,5.73-7.01,1.85c-2.64-3.9-3.24-8.2-3.31-10.22c-0.1-2.85,2.34-4.71,6.46-0.69
				C53.86,19.97,54.77,22.5,55.44,26.81z"/>
		</g>
		<g>
			<path class="st0" d="M94.23,90.93c-4.28-8.12,1.17-15.11,11.84-15.41c5.61-0.15,12.04,2.52,17.09,8.62
				c5.49,6.62,3.68,14.04-5.31,15.77C109.06,101.61,98.23,98.55,94.23,90.93z"/>
			<path class="st1" d="M94.72,90.84c-4.29-7.89,1.07-14.76,11.46-14.97c5.56-0.11,11.85,2.57,16.73,8.45
				c5.32,6.4,3.58,13.61-5.25,15.26C109.12,101.19,98.7,98.21,94.72,90.84z"/>
			<path class="st2" d="M95.21,90.74c-4.28-7.68,0.97-14.4,11.07-14.53c5.51-0.07,11.66,2.62,16.37,8.28
				c5.16,6.18,3.48,13.16-5.19,14.75C109.18,100.74,99.18,97.86,95.21,90.74z"/>
			<path class="st3" d="M95.7,90.64c-4.28-7.45,0.88-14.17,10.68-14.1c5.47,0.04,11.47,2.67,16.01,8.1c5,5.96,3.38,12.72-5.14,14.23
				C109.25,100.31,99.65,97.52,95.7,90.64z"/>
			<path class="st4" d="M96.19,90.54c-4.28-7.22,0.78-13.84,10.3-13.66c5.42,0.1,11.28,2.72,15.65,7.93
				c4.84,5.74,3.28,12.28-5.08,13.72C109.31,99.87,100.12,97.18,96.19,90.54z"/>
			<path class="st5" d="M96.68,90.45c-4.28-7,0.69-13.5,9.91-13.22c5.37,0.16,11.09,2.78,15.29,7.76
				c4.67,5.51,3.18,11.84-5.02,13.21C109.38,99.44,100.59,96.84,96.68,90.45z"/>
			<path class="st6" d="M97.17,90.35c-4.28-6.77,0.58-12.95,9.52-12.79c5.32,0.1,10.9,2.83,14.93,7.58
				c4.51,5.29,3.08,11.4-4.97,12.7C109.44,99.01,101.06,96.5,97.17,90.35z"/>
			<path class="st7" d="M97.66,90.25c-4.29-6.55,0.49-12.58,9.13-12.35c5.28,0.14,10.71,2.88,14.57,7.41
				c4.35,5.07,2.99,10.96-4.91,12.19C109.5,98.57,101.53,96.16,97.66,90.25z"/>
			<path class="st8" d="M98.15,90.15c-4.29-6.32,0.39-12.21,8.75-11.91c5.23,0.19,10.51,2.94,14.2,7.23
				c4.17,4.86,2.89,10.52-4.85,11.67C109.57,98.14,102,95.82,98.15,90.15z"/>
			<path class="st9" d="M98.63,90.05c-4.3-6.09,0.29-11.84,8.36-11.48c5.18,0.23,10.32,2.99,13.84,7.06
				c4.01,4.64,2.79,10.09-4.8,11.16C109.63,97.71,102.46,95.48,98.63,90.05z"/>
			<path class="st10" d="M99.12,89.96c-4.3-5.86,0.2-11.46,7.97-11.04c5.14,0.28,10.13,3.04,13.48,6.89
				c3.85,4.41,2.69,9.65-4.74,10.65C109.7,97.28,102.93,95.15,99.12,89.96z"/>
			<path class="st11" d="M99.61,89.86c-4.31-5.64,0.1-11.08,7.58-10.6c5.09,0.33,9.94,3.09,13.12,6.71
				c3.68,4.19,2.6,9.22-4.68,10.14C109.76,96.85,103.4,94.81,99.61,89.86z"/>
			<path class="st12" d="M100.1,89.76c-4.32-5.41,0-10.7,7.2-10.16c5.04,0.38,9.75,3.14,12.76,6.54c3.52,3.97,2.5,8.78-4.63,9.63
				C109.83,96.43,103.86,94.47,100.1,89.76z"/>
			<path class="st13" d="M100.59,89.66c-4.32-5.18-0.09-10.32,6.81-9.73c5,0.43,9.56,3.19,12.4,6.37c3.36,3.75,2.4,8.35-4.57,9.11
				C109.9,96,104.32,94.13,100.59,89.66z"/>
			<path class="st14" d="M101.08,89.56c-4.33-4.95-0.19-9.93,6.42-9.29c4.95,0.48,9.37,3.24,12.04,6.19c3.2,3.53,2.3,7.92-4.51,8.6
				C109.96,95.58,104.79,93.8,101.08,89.56z"/>
			<path class="st15" d="M101.57,89.47c-4.35-4.72-0.29-9.55,6.04-8.85c4.9,0.54,9.18,3.29,11.68,6.02
				c3.03,3.31,2.21,7.49-4.46,8.09C110.03,95.15,105.25,93.46,101.57,89.47z"/>
			<path class="st16" d="M102.06,89.37c-4.36-4.49-0.38-9.16,5.65-8.42c4.86,0.59,8.99,3.34,11.32,5.84
				c2.87,3.08,2.11,7.07-4.4,7.58C110.09,94.73,105.71,93.13,102.06,89.37z"/>
			<path class="st17" d="M102.55,89.27c-4.37-4.25-0.48-8.76,5.26-7.98c4.81,0.66,8.8,3.39,10.96,5.67
				c2.71,2.86,2.02,6.64-4.34,7.07C110.16,94.31,106.17,92.79,102.55,89.27z"/>
			<path class="st18" d="M103.04,89.17c-4.39-4.02-0.58-8.37,4.87-7.54c4.76,0.72,8.62,3.44,10.6,5.5c2.55,2.64,1.92,6.22-4.29,6.55
				C110.23,93.89,106.63,92.46,103.04,89.17z"/>
			<path class="st19" d="M103.52,89.07c-4.4-3.78-0.68-7.97,4.49-7.11c4.71,0.79,8.43,3.49,10.24,5.32
				c2.39,2.41,1.82,5.81-4.23,6.04C110.29,93.48,107.09,92.13,103.52,89.07z"/>
			<path class="st20" d="M104.01,88.98c-4.42-3.54-0.78-7.57,4.1-6.67c4.66,0.86,8.24,3.54,9.88,5.15c2.23,2.18,1.73,5.4-4.17,5.53
				C110.36,93.07,107.54,91.8,104.01,88.98z"/>
			<path class="st21" d="M104.5,88.88c-4.43-3.3-0.89-7.16,3.71-6.23c4.61,0.94,8.05,3.59,9.52,4.98c2.07,1.96,1.63,5-4.12,5.02
				C110.42,92.66,108,91.48,104.5,88.88z"/>
		</g>
		<g>
			<path class="st0" d="M73.25,104.02c2.81-8.75,11.62-9.75,19.3-2.33c4.03,3.89,6.63,10.35,5.8,18.23
				c-0.89,8.56-7.45,12.46-14.98,7.25C76,122.08,70.61,112.2,73.25,104.02z"/>
			<path class="st1" d="M73.58,104.19c2.64-8.59,11.34-9.55,18.76-2.28c3.97,3.89,6.44,10.18,5.65,17.79
				c-0.85,8.29-7.24,12.14-14.6,6.98C76.27,121.72,71.1,112.19,73.58,104.19z"/>
			<path class="st2" d="M73.91,104.37c2.49-8.43,11.05-9.35,18.22-2.23c3.91,3.88,6.25,10.02,5.51,17.34
				c-0.8,8.02-7.01,11.8-14.22,6.71C76.55,121.34,71.6,112.18,73.91,104.37z"/>
			<path class="st3" d="M74.24,104.54c2.33-8.27,10.77-9.15,17.68-2.19c3.84,3.88,6.06,9.85,5.36,16.89
				c-0.76,7.74-6.79,11.47-13.84,6.45C76.83,120.98,72.09,112.17,74.24,104.54z"/>
			<path class="st4" d="M74.57,104.72c2.17-8.11,10.49-8.95,17.14-2.14c3.78,3.87,5.87,9.68,5.21,16.45
				c-0.71,7.47-6.57,11.14-13.46,6.18C77.1,120.61,72.58,112.16,74.57,104.72z"/>
			<path class="st5" d="M74.91,104.89c2-7.96,10.21-8.74,16.6-2.09c3.72,3.87,5.69,9.51,5.07,16c-0.67,7.2-6.35,10.82-13.08,5.91
				C77.37,120.24,73.08,112.15,74.91,104.89z"/>
			<path class="st6" d="M75.24,105.06c1.84-7.8,9.92-8.54,16.06-2.05c3.66,3.87,5.5,9.35,4.92,15.55
				c-0.63,6.93-6.13,10.49-12.7,5.65C77.65,119.88,73.57,112.14,75.24,105.06z"/>
			<path class="st7" d="M75.57,105.24c1.68-7.64,9.63-8.33,15.52-2c3.59,3.86,5.31,9.18,4.77,15.11
				c-0.58,6.66-5.91,10.16-12.32,5.38C77.92,119.52,74.06,112.13,75.57,105.24z"/>
			<path class="st8" d="M75.9,105.41c1.51-7.49,9.34-8.13,14.98-1.95c3.53,3.86,5.12,9.01,4.63,14.66
				c-0.54,6.38-5.7,9.84-11.94,5.11C78.19,119.15,74.55,112.12,75.9,105.41z"/>
			<path class="st9" d="M76.23,105.58c1.35-7.33,9.05-7.92,14.44-1.91c3.46,3.86,4.92,8.84,4.48,14.21
				c-0.51,6.11-5.48,9.51-11.56,4.84C78.47,118.79,75.03,112.11,76.23,105.58z"/>
			<path class="st10" d="M76.56,105.76c1.18-7.18,8.76-7.7,13.9-1.86c3.4,3.86,4.74,8.68,4.33,13.77
				c-0.46,5.84-5.26,9.19-11.18,4.58C78.74,118.43,75.52,112.1,76.56,105.76z"/>
			<path class="st11" d="M76.9,105.93c1.01-7.02,8.47-7.49,13.36-1.82c3.33,3.86,4.55,8.51,4.19,13.32
				c-0.42,5.57-5.04,8.87-10.8,4.31C79.01,118.07,76.01,112.09,76.9,105.93z"/>
			<path class="st12" d="M77.23,106.11c0.84-6.87,8.17-7.28,12.82-1.77c3.26,3.86,4.36,8.34,4.04,12.87
				c-0.37,5.3-4.83,8.55-10.42,4.04C79.28,117.71,76.5,112.08,77.23,106.11z"/>
			<path class="st13" d="M77.56,106.28c0.67-6.72,7.88-7.06,12.28-1.72c3.19,3.87,4.17,8.17,3.89,12.43
				c-0.33,5.02-4.61,8.23-10.04,3.78C79.55,117.36,76.98,112.07,77.56,106.28z"/>
			<path class="st14" d="M77.89,106.45c0.5-6.56,7.58-6.84,11.74-1.68c3.12,3.87,3.99,8,3.75,11.98c-0.28,4.75-4.4,7.91-9.66,3.51
				C79.82,117,77.46,112.06,77.89,106.45z"/>
			<path class="st15" d="M78.22,106.63c0.33-6.41,7.28-6.62,11.2-1.63c3.05,3.88,3.8,7.84,3.6,11.53c-0.24,4.48-4.19,7.59-9.28,3.24
				C80.08,116.64,77.95,112.05,78.22,106.63z"/>
			<path class="st16" d="M78.56,106.8c0.15-6.25,6.97-6.4,10.66-1.58c2.98,3.89,3.61,7.67,3.45,11.09c-0.19,4.21-3.98,7.27-8.9,2.98
				C80.35,116.29,78.43,112.03,78.56,106.8z"/>
			<path class="st17" d="M78.89,106.97c-0.02-6.1,6.67-6.18,10.13-1.54c2.9,3.89,3.42,7.5,3.31,10.64
				c-0.15,3.94-3.77,6.96-8.52,2.71C80.62,115.94,78.91,112.02,78.89,106.97z"/>
			<path class="st18" d="M79.22,107.15c-0.2-5.94,6.36-5.95,9.59-1.49c2.82,3.9,3.24,7.34,3.16,10.19c-0.1,3.66-3.56,6.65-8.14,2.44
				C80.88,115.59,79.38,112.01,79.22,107.15z"/>
			<path class="st19" d="M79.55,107.32c-0.38-5.79,6.05-5.73,9.05-1.44c2.74,3.92,3.05,7.17,3.01,9.75
				c-0.05,3.39-3.36,6.34-7.76,2.18C81.14,115.24,79.86,112,79.55,107.32z"/>
			<path class="st20" d="M79.88,107.5c-0.57-5.63,5.73-5.5,8.51-1.4c2.65,3.93,2.87,7,2.87,9.3c0,3.12-3.16,6.04-7.38,1.91
				C81.4,114.89,80.33,111.99,79.88,107.5z"/>
			<path class="st21" d="M80.21,107.67c-0.75-5.48,5.42-5.28,7.97-1.35c2.56,3.95,2.68,6.83,2.72,8.85c0.04,2.85-2.96,5.73-7,1.64
				C81.66,114.54,80.81,111.98,80.21,107.67z"/>
		</g>
		<g>
			<path class="st0" d="M47.37,100c7.95-4.61,15.16,0.54,15.9,11.18c0.39,5.6-2.01,12.14-7.9,17.44
				c-6.39,5.76-13.88,4.26-15.98-4.64C37.33,115.27,39.94,104.31,47.37,100z"/>
			<path class="st1" d="M47.44,100.33c7.68-4.51,14.72,0.4,15.43,10.76c0.37,5.54-2.04,11.94-7.71,17.07
				c-6.18,5.59-13.46,4.18-15.47-4.57C37.71,115.14,40.27,104.54,47.44,100.33z"/>
			<path class="st2" d="M47.51,100.66c7.41-4.41,14.29,0.27,14.96,10.35c0.35,5.49-2.08,11.75-7.52,16.69
				c-5.96,5.42-13.02,4.1-14.97-4.5C38.11,115.01,40.59,104.77,47.51,100.66z"/>
			<path class="st3" d="M47.58,101c7.14-4.3,13.87,0.14,14.49,9.93c0.34,5.43-2.11,11.55-7.34,16.32
				c-5.75,5.25-12.59,4.02-14.46-4.43C38.51,114.88,40.92,105.01,47.58,101z"/>
			<path class="st4" d="M47.65,101.33c6.87-4.2,13.44,0,14.02,9.51c0.33,5.38-2.14,11.36-7.15,15.94
				c-5.53,5.07-12.17,3.94-13.96-4.36C38.9,114.75,41.25,105.24,47.65,101.33z"/>
			<path class="st5" d="M47.72,101.66c6.6-4.1,13.01-0.13,13.55,9.1c0.31,5.32-2.17,11.16-6.97,15.57
				c-5.32,4.9-11.74,3.86-13.45-4.28C39.29,114.63,41.58,105.47,47.72,101.66z"/>
			<path class="st6" d="M47.79,101.99c6.33-4,12.58-0.26,13.07,8.68c0.29,5.26-2.2,10.97-6.78,15.19
				c-5.1,4.73-11.31,3.78-12.95-4.21C39.67,114.5,41.91,105.7,47.79,101.99z"/>
			<path class="st7" d="M47.87,102.32c6.06-3.9,12.14-0.4,12.6,8.26c0.28,5.21-2.23,10.77-6.6,14.82
				c-4.89,4.56-10.89,3.7-12.44-4.14C40.06,114.37,42.24,105.93,47.87,102.32z"/>
			<path class="st8" d="M47.94,102.65c5.79-3.79,11.71-0.53,12.13,7.85c0.26,5.15-2.27,10.57-6.41,14.44
				c-4.68,4.38-10.47,3.62-11.94-4.07C40.45,114.25,42.57,106.16,47.94,102.65z"/>
			<path class="st9" d="M48.01,102.98c5.52-3.69,11.27-0.66,11.66,7.43c0.24,5.1-2.3,10.37-6.23,14.07c-4.47,4.2-10.04,3.54-11.43-4
				C40.83,114.12,42.9,106.39,48.01,102.98z"/>
			<path class="st10" d="M48.08,103.32c5.25-3.59,10.84-0.8,11.19,7.01c0.23,5.04-2.33,10.18-6.04,13.69
				c-4.25,4.03-9.62,3.46-10.93-3.93C41.22,114,43.22,106.62,48.08,103.32z"/>
			<path class="st11" d="M48.15,103.65c4.98-3.49,10.4-0.93,10.72,6.6c0.21,4.99-2.37,9.98-5.85,13.32
				c-4.04,3.86-9.2,3.38-10.42-3.86C41.6,113.87,43.55,106.85,48.15,103.65z"/>
			<path class="st12" d="M48.22,103.98c4.71-3.38,9.97-1.06,10.25,6.18c0.19,4.93-2.4,9.79-5.67,12.94
				c-3.82,3.68-8.78,3.3-9.92-3.78C41.99,113.74,43.88,107.08,48.22,103.98z"/>
			<path class="st13" d="M48.29,104.31c4.44-3.28,9.53-1.19,9.78,5.76c0.17,4.88-2.43,9.59-5.48,12.57
				c-3.61,3.51-8.36,3.22-9.42-3.71C42.37,113.62,44.21,107.31,48.29,104.31z"/>
			<path class="st14" d="M48.37,104.64c4.17-3.18,9.09-1.33,9.31,5.34c0.15,4.82-2.46,9.4-5.3,12.19c-3.39,3.34-7.94,3.14-8.91-3.64
				C42.75,113.49,44.54,107.54,48.37,104.64z"/>
			<path class="st15" d="M48.44,104.97c3.9-3.08,8.66-1.46,8.84,4.93c0.13,4.77-2.49,9.2-5.11,11.82c-3.18,3.17-7.53,3.06-8.41-3.57
				C43.13,113.37,44.87,107.77,48.44,104.97z"/>
			<path class="st16" d="M48.51,105.31c3.63-2.97,8.22-1.59,8.37,4.51c0.11,4.71-2.52,9.01-4.93,11.44c-2.96,3-7.12,2.99-7.9-3.5
				C43.5,113.25,45.2,108,48.51,105.31z"/>
			<path class="st17" d="M48.58,105.64c3.36-2.87,7.78-1.72,7.89,4.09c0.09,4.66-2.55,8.82-4.74,11.07
				c-2.75,2.82-6.71,2.91-7.4-3.43C43.88,113.12,45.52,108.23,48.58,105.64z"/>
			<path class="st18" d="M48.65,105.97c3.09-2.77,7.34-1.86,7.42,3.68c0.07,4.6-2.58,8.62-4.55,10.69c-2.53,2.65-6.3,2.83-6.89-3.36
				C44.25,113,45.85,108.46,48.65,105.97z"/>
			<path class="st19" d="M48.72,106.3c2.82-2.67,6.9-1.99,6.95,3.26c0.05,4.54-2.61,8.43-4.37,10.32c-2.31,2.48-5.9,2.75-6.39-3.28
				C44.62,112.87,46.18,108.69,48.72,106.3z"/>
			<path class="st20" d="M48.79,106.63c2.55-2.57,6.45-2.12,6.48,2.84c0.02,4.49-2.64,8.24-4.18,9.94c-2.09,2.31-5.5,2.68-5.88-3.21
				C44.99,112.75,46.51,108.92,48.79,106.63z"/>
			<path class="st21" d="M48.87,106.96c2.28-2.46,6.01-2.26,6.01,2.43c0,4.43-2.67,8.05-4,9.57c-1.87,2.15-5.11,2.6-5.38-3.14
				C45.36,112.62,46.84,109.15,48.87,106.96z"/>
		</g>
		<g>
			<path class="st0" d="M31.87,77.38c9.07,1.43,11.48,8.85,5.34,17.59c-3.23,4.58-10.42,6.93-18.33,7.33
				c-8.6,0.44-13.46-5.43-9.48-13.67C13.3,80.56,23.38,76.05,31.87,77.38z"/>
			<path class="st1" d="M31.66,77.63c8.8,1.34,11.22,8.47,5.23,16.97c-3.21,4.53-10.26,6.81-17.89,7.21
				c-8.32,0.44-13.09-5.23-9.13-13.3C13.67,80.7,23.44,76.38,31.66,77.63z"/>
			<path class="st2" d="M31.46,77.87c8.53,1.25,10.95,8.1,5.12,16.35c-3.19,4.47-10.1,6.7-17.45,7.1
				c-8.04,0.45-12.7-5.02-8.79-12.93C14.07,80.86,23.5,76.7,31.46,77.87z"/>
			<path class="st3" d="M31.26,78.12c8.25,1.16,10.71,7.73,5.01,15.73c-3.16,4.43-9.95,6.59-17.01,6.98
				c-7.77,0.45-12.31-4.82-8.44-12.55C14.45,81.01,23.56,77.03,31.26,78.12z"/>
			<path class="st4" d="M31.06,78.36c7.98,1.06,10.45,7.35,4.9,15.11c-3.13,4.37-9.79,6.48-16.57,6.87
				c-7.49,0.45-11.93-4.61-8.09-12.18C14.84,81.15,23.62,77.36,31.06,78.36z"/>
			<path class="st5" d="M30.85,78.6c7.7,0.97,10.19,6.98,4.78,14.49c-3.11,4.32-9.64,6.36-16.14,6.75
				c-7.22,0.45-11.55-4.41-7.75-11.81C15.22,81.3,23.68,77.69,30.85,78.6z"/>
			<path class="st6" d="M30.65,78.85c7.43,0.88,9.93,6.6,4.67,13.87c-3.09,4.27-9.48,6.25-15.7,6.64c-6.94,0.45-11.17-4.2-7.4-11.43
				C15.6,81.45,23.74,78.02,30.65,78.85z"/>
			<path class="st7" d="M30.45,79.09c7.15,0.79,9.67,6.23,4.56,13.25c-3.06,4.21-9.32,6.14-15.26,6.52
				c-6.67,0.46-10.79-4-7.05-11.06C15.98,81.59,23.8,78.34,30.45,79.09z"/>
			<path class="st8" d="M30.25,79.34c6.88,0.7,9.4,5.85,4.45,12.62c-3.04,4.16-9.17,6.01-14.82,6.41
				c-6.39,0.44-10.41-3.79-6.7-10.69C16.36,81.74,23.87,78.67,30.25,79.34z"/>
			<path class="st9" d="M30.04,79.58c6.61,0.61,9.14,5.47,4.34,12c-3.02,4.11-9.01,5.9-14.38,6.29c-6.12,0.45-10.03-3.59-6.36-10.32
				C16.74,81.88,23.93,79,30.04,79.58z"/>
			<path class="st10" d="M29.84,79.83c6.33,0.52,8.88,5.09,4.23,11.38c-3,4.05-8.86,5.79-13.95,6.18c-5.84,0.45-9.65-3.38-6.01-9.94
				C17.12,82.03,23.99,79.33,29.84,79.83z"/>
			<path class="st11" d="M29.64,80.07c6.06,0.43,8.62,4.72,4.12,10.76c-2.98,4-8.7,5.67-13.51,6.06c-5.56,0.45-9.27-3.18-5.66-9.57
				C17.49,82.17,24.05,79.65,29.64,80.07z"/>
			<path class="st12" d="M29.44,80.31c5.78,0.34,8.35,4.34,4,10.14c-2.96,3.95-8.54,5.56-13.07,5.95c-5.29,0.45-8.9-2.98-5.32-9.2
				C17.87,82.32,24.11,79.98,29.44,80.31z"/>
			<path class="st13" d="M29.23,80.56c5.51,0.26,8.09,3.96,3.89,9.52c-2.94,3.89-8.39,5.45-12.63,5.83
				c-5.01,0.45-8.52-2.77-4.97-8.82C18.24,82.46,24.17,80.32,29.23,80.56z"/>
			<path class="st14" d="M29.03,80.8c5.24,0.17,7.82,3.58,3.78,8.9c-2.92,3.84-8.23,5.34-12.19,5.72c-4.74,0.45-8.15-2.57-4.62-8.45
				C18.62,82.6,24.23,80.65,29.03,80.8z"/>
			<path class="st15" d="M28.83,81.05c4.96,0.08,7.56,3.2,3.67,8.28c-2.9,3.78-8.08,5.22-11.76,5.6c-4.46,0.46-7.78-2.37-4.27-8.08
				C18.99,82.75,24.29,80.98,28.83,81.05z"/>
			<path class="st16" d="M28.62,81.29c4.69-0.01,7.29,2.82,3.56,7.66c-2.88,3.73-7.92,5.11-11.32,5.49
				c-4.19,0.46-7.41-2.17-3.93-7.7C19.36,82.89,24.35,81.3,28.62,81.29z"/>
			<path class="st17" d="M28.42,81.53c4.41-0.11,7.03,2.44,3.45,7.04c-2.86,3.67-7.76,5-10.88,5.37c-3.91,0.46-7.04-1.98-3.58-7.33
				C19.73,83.03,24.41,81.63,28.42,81.53z"/>
			<path class="st18" d="M28.22,81.78c4.14-0.2,6.76,2.06,3.34,6.42c-2.84,3.61-7.61,4.89-10.44,5.26
				c-3.63,0.47-6.68-1.78-3.23-6.96C20.1,83.17,24.47,81.96,28.22,81.78z"/>
			<path class="st19" d="M28.02,82.02c3.87-0.29,6.49,1.68,3.22,5.8c-2.82,3.56-7.45,4.78-10,5.14c-3.36,0.47-6.32-1.59-2.89-6.59
				C20.46,83.3,24.54,82.28,28.02,82.02z"/>
			<path class="st20" d="M27.81,82.27c3.59-0.39,6.22,1.29,3.11,5.18c-2.81,3.5-7.29,4.67-9.57,5.03c-3.08,0.48-5.96-1.4-2.54-6.21
				C20.83,83.44,24.6,82.6,27.81,82.27z"/>
			<path class="st21" d="M27.61,82.51c3.32-0.48,5.96,0.91,3,4.55c-2.79,3.44-7.14,4.56-9.13,4.91c-2.81,0.49-5.61-1.21-2.19-5.84
				C21.19,83.57,24.66,82.93,27.61,82.51z"/>
		</g>
		<g>
			<path class="st0" d="M97.8,80.48c-7.82-7.15-4.64-16.87,6.83-21.36c6.03-2.36,14.05-1.98,21.92,2.67
				c8.55,5.05,9.49,13.81,0.41,19.2C118.07,86.27,105.12,87.17,97.8,80.48z"/>
			<path class="st1" d="M98.29,80.18c-7.74-6.9-4.6-16.42,6.58-20.73c6-2.29,13.86-1.85,21.46,2.62c8.29,4.87,9.21,13.38,0.27,18.62
				C117.97,85.78,105.49,86.62,98.29,80.18z"/>
			<path class="st2" d="M98.78,79.88c-7.66-6.65-4.57-16.01,6.33-20.11c5.96-2.24,13.68-1.72,21,2.58
				c8.02,4.69,8.93,12.92,0.13,18.04C117.87,85.27,105.86,86.07,98.78,79.88z"/>
			<path class="st3" d="M99.28,79.58c-7.56-6.42-4.54-15.58,6.08-19.48c5.92-2.17,13.49-1.59,20.54,2.53
				c7.76,4.51,8.65,12.48-0.01,17.46C117.76,84.77,106.25,85.5,99.28,79.58z"/>
			<path class="st4" d="M99.77,79.28c-7.47-6.17-4.5-15.15,5.83-18.86c5.89-2.11,13.31-1.46,20.09,2.48
				c7.49,4.34,8.37,12.05-0.15,16.88C117.66,84.27,106.63,84.95,99.77,79.28z"/>
			<path class="st5" d="M100.26,78.99c-7.39-5.93-4.47-14.72,5.58-18.23c5.85-2.05,13.12-1.33,19.63,2.44
				c7.23,4.16,8.09,11.61-0.29,16.31C117.56,83.77,107.01,84.4,100.26,78.99z"/>
			<path class="st6" d="M100.75,78.69c-7.3-5.68-4.43-14.28,5.33-17.61c5.82-1.98,12.94-1.2,19.17,2.39
				c6.97,3.98,7.81,11.17-0.43,15.73C117.46,83.28,107.38,83.84,100.75,78.69z"/>
			<path class="st7" d="M101.25,78.39c-7.22-5.43-4.39-13.84,5.08-16.98c5.78-1.91,12.74-1.06,18.71,2.34
				c6.7,3.82,7.53,10.73-0.56,15.15C117.36,82.79,107.76,83.29,101.25,78.39z"/>
			<path class="st8" d="M101.74,78.09c-7.13-5.18-4.35-13.4,4.83-16.35c5.75-1.85,12.56-0.93,18.25,2.29
				c6.43,3.64,7.25,10.29-0.7,14.57C117.27,82.29,108.14,82.74,101.74,78.09z"/>
			<path class="st9" d="M102.23,77.8c-7.05-4.94-4.31-12.96,4.58-15.73c5.72-1.78,12.37-0.8,17.79,2.25
				c6.17,3.46,6.98,9.86-0.84,13.99C117.17,81.8,108.51,82.19,102.23,77.8z"/>
			<path class="st10" d="M102.73,77.5c-6.97-4.69-4.27-12.52,4.34-15.1c5.69-1.71,12.19-0.67,17.33,2.2
				c5.9,3.29,6.7,9.42-0.98,13.42C117.07,81.31,108.88,81.64,102.73,77.5z"/>
			<path class="st11" d="M103.22,77.2c-6.88-4.44-4.22-12.07,4.09-14.48c5.66-1.64,12-0.54,16.87,2.15
				c5.64,3.11,6.43,8.99-1.12,12.84C116.97,80.82,109.26,81.09,103.22,77.2z"/>
			<path class="st12" d="M103.71,76.9c-6.8-4.19-4.18-11.62,3.84-13.85c5.63-1.57,11.81-0.41,16.41,2.11
				c5.37,2.93,6.15,8.56-1.26,12.26C116.88,80.33,109.63,80.54,103.71,76.9z"/>
			<path class="st13" d="M104.2,76.6c-6.72-3.93-4.14-11.16,3.59-13.22c5.6-1.49,11.63-0.28,15.96,2.06
				c5.11,2.76,5.88,8.12-1.4,11.68C116.78,79.84,110,80,104.2,76.6z"/>
			<path class="st14" d="M104.7,76.31c-6.64-3.68-4.09-10.71,3.34-12.6c5.57-1.42,11.44-0.15,15.5,2.01
				c4.85,2.58,5.6,7.69-1.54,11.1C116.69,79.35,110.37,79.45,104.7,76.31z"/>
			<path class="st15" d="M105.19,76.01c-6.57-3.42-4.04-10.25,3.09-11.97c5.54-1.34,11.26-0.02,15.04,1.97
				c4.58,2.4,5.33,7.27-1.67,10.52C116.6,78.87,110.74,78.91,105.19,76.01z"/>
			<path class="st16" d="M105.68,75.71c-6.49-3.17-4-9.79,2.84-11.35c5.51-1.26,11.07,0.11,14.58,1.92
				c4.32,2.22,5.06,6.84-1.81,9.95C116.5,78.39,111.11,78.36,105.68,75.71z"/>
			<path class="st17" d="M106.17,75.41c-6.41-2.91-3.95-9.32,2.59-10.72c5.48-1.17,10.89,0.24,14.12,1.87
				c4.06,2.05,4.79,6.42-1.95,9.37C116.41,77.91,111.48,77.82,106.17,75.41z"/>
			<path class="st18" d="M106.67,75.12c-6.33-2.65-3.9-8.85,2.34-10.1c5.45-1.09,10.7,0.37,13.66,1.83c3.79,1.87,4.52,6-2.09,8.79
				C116.32,77.43,111.85,77.28,106.67,75.12z"/>
			<path class="st19" d="M107.16,74.82c-6.26-2.38-3.86-8.38,2.09-9.47c5.43-0.99,10.52,0.5,13.2,1.78
				c3.53,1.69,4.26,5.59-2.23,8.21C116.23,76.95,112.22,76.74,107.16,74.82z"/>
			<path class="st20" d="M107.65,74.52c-6.18-2.12-3.81-7.91,1.84-8.84c5.4-0.9,10.33,0.62,12.74,1.73
				c3.27,1.51,3.99,5.18-2.37,7.63C116.14,76.48,112.59,76.21,107.65,74.52z"/>
			<path class="st21" d="M108.14,74.22c-6.1-1.85-3.76-7.43,1.59-8.22c5.37-0.79,10.15,0.74,12.28,1.69
				c3.01,1.31,3.73,4.78-2.51,7.05C116.05,76.01,112.96,75.67,108.14,74.22z"/>
		</g>
		<g>
			<path class="st0" d="M96.67,55.25c-10.61,0.02-14.83-9.3-9.42-20.35c2.84-5.82,9.02-10.96,17.96-12.85
				c9.72-2.06,16.69,6.28,13.65,16.39C115.89,48.34,106.59,55.23,96.67,55.25z"/>
			<path class="st1" d="M96.84,54.69c-10.37,0.15-14.5-8.99-9.18-19.72c2.87-5.74,8.97-10.74,17.59-12.58
				c9.4-2.02,16.18,6.03,13.14,15.94C115.47,47.93,106.49,54.57,96.84,54.69z"/>
			<path class="st2" d="M97,54.14c-10.14,0.26-14.2-8.71-8.94-19.09c2.88-5.68,8.92-10.52,17.22-12.3
				c9.09-1.97,15.65,5.77,12.63,15.49C115.02,47.5,106.4,53.9,97,54.14z"/>
			<path class="st3" d="M97.16,53.59c-9.91,0.38-13.88-8.42-8.7-18.46c2.89-5.61,8.87-10.3,16.85-12.03
				c8.77-1.92,15.12,5.52,12.12,15.04C114.6,47.08,106.3,53.23,97.16,53.59z"/>
			<path class="st4" d="M97.32,53.04c-9.68,0.51-13.57-8.12-8.46-17.83c2.91-5.54,8.82-10.07,16.48-11.75
				c8.46-1.87,14.6,5.26,11.61,14.58C114.17,46.66,106.21,52.57,97.32,53.04z"/>
			<path class="st5" d="M97.48,52.48c-9.45,0.63-13.25-7.83-8.22-17.2c2.93-5.47,8.77-9.85,16.11-11.48
				c8.14-1.83,14.08,5.01,11.09,14.13C113.74,46.25,106.11,51.91,97.48,52.48z"/>
			<path class="st6" d="M97.64,51.93c-9.22,0.75-12.92-7.53-7.98-16.57c2.95-5.39,8.72-9.63,15.74-11.2
				c7.83-1.78,13.57,4.75,10.58,13.68C113.32,45.83,106.01,51.25,97.64,51.93z"/>
			<path class="st7" d="M97.8,51.38c-8.99,0.88-12.6-7.23-7.74-15.94c2.97-5.32,8.67-9.41,15.37-10.93
				c7.51-1.73,13.05,4.5,10.07,13.23C112.89,45.41,105.92,50.59,97.8,51.38z"/>
			<path class="st8" d="M97.96,50.83c-8.76,1-12.27-6.94-7.5-15.31c2.99-5.25,8.63-9.18,15-10.65c7.2-1.67,12.53,4.24,9.56,12.77
				C112.47,44.99,105.82,49.93,97.96,50.83z"/>
			<path class="st9" d="M98.13,50.27c-8.53,1.13-11.94-6.64-7.26-14.69c3.01-5.18,8.58-8.95,14.63-10.38
				c6.89-1.62,12.01,3.99,9.05,12.32C112.04,44.57,105.72,49.27,98.13,50.27z"/>
			<path class="st10" d="M98.29,49.72c-8.3,1.26-11.61-6.34-7.02-14.06c3.04-5.11,8.53-8.73,14.26-10.1
				c6.57-1.57,11.5,3.74,8.54,11.87C111.62,44.16,105.63,48.61,98.29,49.72z"/>
			<path class="st11" d="M98.45,49.17c-8.07,1.39-11.27-6.04-6.78-13.43c3.06-5.03,8.48-8.51,13.89-9.83
				c6.26-1.52,10.99,3.48,8.03,11.42C111.2,43.74,105.53,47.95,98.45,49.17z"/>
			<path class="st12" d="M98.61,48.62c-7.84,1.52-10.93-5.73-6.54-12.8c3.09-4.96,8.43-8.29,13.52-9.55
				c5.95-1.47,10.47,3.23,7.52,10.97C110.78,43.32,105.43,47.3,98.61,48.62z"/>
			<path class="st13" d="M98.77,48.06c-7.61,1.65-10.6-5.43-6.3-12.17c3.11-4.88,8.38-8.07,13.15-9.28
				c5.63-1.43,9.96,2.98,7.01,10.51C110.37,42.91,105.34,46.64,98.77,48.06z"/>
			<path class="st14" d="M98.93,47.51c-7.38,1.78-10.25-5.12-6.06-11.54c3.14-4.81,8.33-7.85,12.78-9c5.32-1.38,9.45,2.73,6.5,10.06
				C109.95,42.49,105.24,45.99,98.93,47.51z"/>
			<path class="st15" d="M99.09,46.96c-7.15,1.92-9.91-4.82-5.82-10.91c3.18-4.73,8.28-7.63,12.41-8.72c5-1.33,8.95,2.47,5.99,9.61
				C109.54,42.08,105.15,45.34,99.09,46.96z"/>
			<path class="st16" d="M99.26,46.41c-6.92,2.05-9.56-4.51-5.58-10.28c3.21-4.65,8.23-7.41,12.04-8.45
				c4.69-1.28,8.44,2.22,5.48,9.16C109.13,41.66,105.05,44.69,99.26,46.41z"/>
			<path class="st17" d="M99.42,45.85c-6.69,2.19-9.21-4.2-5.34-9.65c3.25-4.57,8.18-7.19,11.67-8.17c4.37-1.24,7.94,1.98,4.97,8.7
				C108.72,41.25,104.96,44.04,99.42,45.85z"/>
			<path class="st18" d="M99.58,45.3c-6.45,2.33-8.86-3.88-5.1-9.02c3.28-4.49,8.13-6.97,11.3-7.9c4.06-1.19,7.45,1.73,4.46,8.25
				C108.31,40.84,104.86,43.39,99.58,45.3z"/>
			<path class="st19" d="M99.74,44.75c-6.22,2.48-8.51-3.57-4.86-8.39c3.33-4.4,8.08-6.75,10.92-7.62c3.74-1.15,6.95,1.48,3.95,7.8
				C107.9,40.43,104.77,42.74,99.74,44.75z"/>
			<path class="st20" d="M99.9,44.2c-5.98,2.62-8.15-3.25-4.62-7.76c3.37-4.31,8.03-6.54,10.55-7.35c3.42-1.11,6.46,1.24,3.44,7.35
				C107.5,40.02,104.68,42.1,99.9,44.2z"/>
			<path class="st21" d="M100.06,43.64c-5.74,2.77-7.79-2.93-4.38-7.13c3.42-4.22,7.98-6.32,10.18-7.07
				c3.11-1.06,5.98,1.01,2.93,6.9C107.09,39.61,104.59,41.46,100.06,43.64z"/>
		</g>
		<g>
			<path class="st0" d="M81.19,36.78c-7.25,7.74-18.86,5.03-23.21-6.49c-2.29-6.06-1.81-14.08,2.93-21.9
				C66.05-0.1,78.87,0.15,84.16,9.3C89.34,18.25,87.96,29.54,81.19,36.78z"/>
			<path class="st1" d="M80.8,36.31c-7,7.66-18.32,4.96-22.49-6.26c-2.22-6.03-1.69-13.89,2.87-21.44
				c4.97-8.23,17.34-8.02,22.48,0.99C88.65,18.29,87.33,29.18,80.8,36.31z"/>
			<path class="st2" d="M80.42,35.84c-6.75,7.58-17.82,4.91-21.78-6.03c-2.17-5.99-1.56-13.7,2.82-20.98
				c4.79-7.97,16.7-7.79,21.71,1.07C87.95,18.34,86.69,28.83,80.42,35.84z"/>
			<path class="st3" d="M80.03,35.37c-6.51,7.48-17.3,4.86-21.06-5.8c-2.1-5.95-1.43-13.52,2.77-20.52
				c4.61-7.7,16.06-7.57,20.94,1.15C87.26,18.38,86.04,28.47,80.03,35.37z"/>
			<path class="st4" d="M79.65,34.9c-6.26,7.4-16.77,4.8-20.35-5.58C57.26,23.41,58,16,62.02,9.27c4.43-7.44,15.42-7.35,20.16,1.23
				C86.57,18.42,85.4,28.11,79.65,34.9z"/>
			<path class="st5" d="M79.26,34.44c-6.01,7.32-16.24,4.74-19.63-5.35c-1.98-5.88-1.18-13.14,2.66-19.6
				c4.25-7.18,14.79-7.13,19.39,1.31C85.87,18.47,84.76,27.75,79.26,34.44z"/>
			<path class="st6" d="M78.88,33.97c-5.77,7.23-15.71,4.68-18.92-5.12c-1.91-5.84-1.05-12.95,2.61-19.14
				c4.07-6.92,14.15-6.9,18.62,1.39C85.18,18.51,84.12,27.4,78.88,33.97z"/>
			<path class="st7" d="M78.5,33.5c-5.52,7.15-15.18,4.61-18.2-4.89c-1.85-5.81-0.92-12.77,2.56-18.68
				c3.89-6.66,13.52-6.68,17.85,1.47C84.5,18.55,83.48,27.04,78.5,33.5z"/>
			<path class="st8" d="M78.11,33.03c-5.27,7.07-14.65,4.55-17.49-4.66c-1.78-5.78-0.78-12.57,2.51-18.22
				c3.72-6.39,12.89-6.46,17.07,1.55C83.81,18.59,82.84,26.69,78.11,33.03z"/>
			<path class="st9" d="M77.73,32.57c-5.02,6.99-14.11,4.49-16.77-4.43c-1.71-5.74-0.65-12.39,2.45-17.77
				c3.54-6.13,12.26-6.24,16.3,1.63C83.12,18.63,82.2,26.34,77.73,32.57z"/>
			<path class="st10" d="M77.34,32.1c-4.77,6.91-13.58,4.42-16.06-4.21c-1.64-5.71-0.53-12.2,2.4-17.31
				c3.36-5.86,11.62-6.02,15.53,1.71C82.44,18.67,81.56,25.98,77.34,32.1z"/>
			<path class="st11" d="M76.96,31.63c-4.51,6.83-13.04,4.36-15.34-3.98c-1.57-5.68-0.4-12.01,2.35-16.85
				c3.18-5.6,10.99-5.8,14.75,1.79C81.75,18.71,80.93,25.63,76.96,31.63z"/>
			<path class="st12" d="M76.58,31.16c-4.26,6.75-12.49,4.29-14.63-3.75c-1.5-5.64-0.27-11.82,2.3-16.39
				c3-5.34,10.36-5.59,13.98,1.87C81.07,18.75,80.29,25.28,76.58,31.16z"/>
			<path class="st13" d="M76.19,30.69c-4.01,6.67-11.95,4.22-13.91-3.52c-1.43-5.61-0.14-11.63,2.24-15.93
				c2.82-5.08,9.74-5.37,13.21,1.95C80.38,18.78,79.66,24.93,76.19,30.69z"/>
			<path class="st14" d="M75.81,30.23c-3.75,6.59-11.4,4.16-13.2-3.29c-1.35-5.58-0.01-11.45,2.19-15.47
				c2.64-4.82,9.11-5.15,12.44,2.03C79.7,18.82,79.02,24.58,75.81,30.23z"/>
			<path class="st15" d="M75.42,29.76c-3.5,6.51-10.84,4.09-12.48-3.06c-1.27-5.55,0.11-11.26,2.14-15.01
				c2.46-4.56,8.49-4.94,11.66,2.11C79.03,18.86,78.39,24.23,75.42,29.76z"/>
			<path class="st16" d="M75.04,29.29c-3.24,6.44-10.29,4.02-11.77-2.83c-1.19-5.52,0.24-11.07,2.09-14.55
				c2.28-4.29,7.87-4.72,10.89,2.19C78.35,18.89,77.76,23.88,75.04,29.29z"/>
			<path class="st17" d="M74.65,28.82c-2.98,6.36-9.73,3.95-11.05-2.61c-1.11-5.49,0.37-10.89,2.03-14.09
				c2.1-4.03,7.25-4.51,10.12,2.27C77.67,18.93,77.13,23.54,74.65,28.82z"/>
			<path class="st18" d="M74.27,28.36c-2.72,6.29-9.17,3.88-10.34-2.38c-1.02-5.46,0.49-10.7,1.98-13.64
				c1.91-3.77,6.63-4.3,9.34,2.35C77,18.96,76.5,23.19,74.27,28.36z"/>
			<path class="st19" d="M73.89,27.89c-2.45,6.22-8.61,3.81-9.62-2.15c-0.93-5.43,0.62-10.51,1.93-13.18
				c1.73-3.51,6.02-4.09,8.57,2.43C76.33,18.99,75.88,22.84,73.89,27.89z"/>
			<path class="st20" d="M73.5,27.42c-2.18,6.14-8.04,3.74-8.91-1.92c-0.83-5.4,0.74-10.33,1.88-12.72c1.55-3.25,5.42-3.88,7.8,2.51
				C75.66,19.02,75.25,22.49,73.5,27.42z"/>
			<path class="st21" d="M73.12,26.95c-1.91,6.07-7.46,3.67-8.19-1.69C64.2,19.88,65.79,15.11,66.75,13c1.35-3,4.83-3.68,7.02,2.59
				C75,19.06,74.63,22.15,73.12,26.95z"/>
		</g>
		<g>
			<path class="st0" d="M56.63,49.64c-2.52,10.29-12.58,12.17-22.02,4.26c-4.97-4.16-8.48-11.38-8.18-20.52
				c0.33-9.92,7.56-14.95,16.65-9.57C51.98,29.08,59,40,56.63,49.64z"/>
			<path class="st1" d="M56.14,49.35c-2.34,10.1-12.22,11.93-21.35,4.18c-4.89-4.15-8.28-11.28-8-20.09
				c0.3-9.61,7.31-14.5,16.21-9.17C51.6,29.4,58.34,39.94,56.14,49.35z"/>
			<path class="st2" d="M55.64,49.06c-2.18,9.9-11.86,11.7-20.68,4.1c-4.82-4.15-8.08-11.18-7.82-19.67
				c0.27-9.29,7.06-14.04,15.76-8.78C51.2,29.73,57.66,39.87,55.64,49.06z"/>
			<path class="st3" d="M55.14,48.77c-2,9.71-11.5,11.46-20.01,4.02c-4.75-4.15-7.87-11.08-7.64-19.24
				c0.24-8.97,6.8-13.58,15.32-8.38C50.82,30.06,56.99,39.8,55.14,48.77z"/>
			<path class="st4" d="M54.64,48.48C52.81,58,43.51,59.7,35.3,52.42c-4.68-4.15-7.67-10.98-7.46-18.82
				c0.21-8.66,6.55-13.13,14.88-7.98C50.43,30.39,56.32,39.74,54.64,48.48z"/>
			<path class="st5" d="M54.14,48.19c-1.65,9.32-10.77,10.98-18.67,3.85c-4.6-4.15-7.47-10.88-7.28-18.39
				c0.18-8.34,6.3-12.67,14.44-7.58C50.04,30.72,55.66,39.67,54.14,48.19z"/>
			<path class="st6" d="M53.65,47.9c-1.48,9.13-10.41,10.74-18,3.77c-4.53-4.15-7.26-10.77-7.11-17.96c0.15-8.02,6.05-12.22,14-7.18
				C49.65,31.04,54.99,39.61,53.65,47.9z"/>
			<path class="st7" d="M53.15,47.62c-1.3,8.93-10.04,10.49-17.34,3.69c-4.46-4.16-7.06-10.67-6.93-17.54
				c0.12-7.71,5.8-11.76,13.56-6.78C49.27,31.37,54.33,39.54,53.15,47.62z"/>
			<path class="st8" d="M52.65,47.33c-1.13,8.74-9.67,10.25-16.67,3.61c-4.38-4.16-6.84-10.57-6.75-17.11
				c0.11-7.39,5.55-11.31,13.12-6.38C48.88,31.69,53.66,39.48,52.65,47.33z"/>
			<path class="st9" d="M52.15,47.04c-0.95,8.55-9.3,10-16,3.53c-4.31-4.16-6.64-10.47-6.57-16.69c0.08-7.08,5.3-10.86,12.68-5.98
				C48.5,32.01,53,39.41,52.15,47.04z"/>
			<path class="st10" d="M51.66,46.75c-0.77,8.36-8.93,9.75-15.33,3.45c-4.23-4.17-6.44-10.37-6.39-16.26
				c0.05-6.76,5.05-10.41,12.24-5.58C48.11,32.33,52.34,39.35,51.66,46.75z"/>
			<path class="st11" d="M51.16,46.46c-0.59,8.17-8.56,9.5-14.66,3.36c-4.15-4.17-6.23-10.27-6.21-15.84
				c0.03-6.44,4.8-9.96,11.8-5.18C47.73,32.65,51.68,39.29,51.16,46.46z"/>
			<path class="st12" d="M50.66,46.17c-0.41,7.97-8.19,9.24-13.99,3.28c-4.07-4.18-6.03-10.17-6.03-15.41
				c0-6.13,4.56-9.51,11.36-4.78C47.35,32.97,51.02,39.22,50.66,46.17z"/>
			<path class="st13" d="M50.16,45.88c-0.22,7.78-7.81,8.99-13.32,3.2c-3.99-4.19-5.83-10.07-5.85-14.98
				c-0.03-5.81,4.31-9.06,10.92-4.39C46.96,33.29,50.36,39.16,50.16,45.88z"/>
			<path class="st14" d="M49.67,45.59c-0.04,7.59-7.43,8.73-12.65,3.12c-3.91-4.2-5.62-9.97-5.67-14.56
				c-0.06-5.49,4.06-8.61,10.48-3.99C46.58,33.61,49.7,39.1,49.67,45.59z"/>
			<path class="st15" d="M49.17,45.3c0.15,7.4-7.05,8.47-11.98,3.04c-3.83-4.21-5.42-9.87-5.5-14.13
				c-0.09-5.18,3.82-8.17,10.04-3.59C46.2,33.92,49.04,39.03,49.17,45.3z"/>
			<path class="st16" d="M48.67,45.01c0.33,7.21-6.67,8.2-11.32,2.96c-3.74-4.23-5.22-9.77-5.32-13.71
				c-0.12-4.86,3.58-7.73,9.6-3.19C45.82,34.23,48.39,38.97,48.67,45.01z"/>
			<path class="st17" d="M48.17,44.72c0.52,7.02-6.28,7.94-10.65,2.87c-3.66-4.24-5.02-9.66-5.14-13.28
				c-0.15-4.54,3.34-7.29,9.16-2.79C45.45,34.55,47.74,38.91,48.17,44.72z"/>
			<path class="st18" d="M47.67,44.43c0.72,6.82-5.89,7.67-9.98,2.79c-3.57-4.26-4.82-9.56-4.96-12.86
				c-0.18-4.23,3.1-6.85,8.71-2.39C45.07,34.86,47.09,38.84,47.67,44.43z"/>
			<path class="st19" d="M47.18,44.14c0.91,6.63-5.5,7.41-9.31,2.71c-3.47-4.28-4.62-9.46-4.78-12.43
				c-0.21-3.91,2.86-6.42,8.27-1.99C44.69,35.16,46.44,38.78,47.18,44.14z"/>
			<path class="st20" d="M46.68,43.85c1.11,6.44-5.11,7.14-8.64,2.63c-3.37-4.3-4.42-9.36-4.6-12.01c-0.25-3.59,2.63-5.99,7.83-1.59
				C44.32,35.47,45.79,38.71,46.68,43.85z"/>
			<path class="st21" d="M46.18,43.56c1.31,6.24-4.71,6.87-7.97,2.55c-3.27-4.33-4.22-9.26-4.42-11.58
				c-0.29-3.28,2.41-5.57,7.39-1.19C43.95,35.78,45.15,38.65,46.18,43.56z"/>
		</g>
		<g>
			<path class="st0" d="M31.01,121.56c-10.59,0.57-15.29-8.52-10.45-19.84C23.1,95.77,29,90.31,37.83,87.95
				c9.6-2.56,17.85,3.57,15.33,13.83C50.69,111.82,40.91,121.03,31.01,121.56z"/>
			<path class="st1" d="M31.14,121c-10.35,0.69-14.94-8.23-10.18-19.22c2.57-5.88,8.4-11.19,16.91-13.48
				c9.28-2.49,17.29,3.43,14.75,13.49C50.21,111.52,40.78,120.38,31.14,121z"/>
			<path class="st2" d="M31.28,120.44c-10.11,0.79-14.63-7.96-9.91-18.61c2.58-5.82,8.36-10.97,16.56-13.18
				c8.97-2.43,16.7,3.29,14.18,13.15C49.71,111.21,40.65,119.71,31.28,120.44z"/>
			<path class="st3" d="M31.41,119.88c-9.88,0.9-14.3-7.69-9.64-17.99c2.6-5.75,8.33-10.75,16.2-12.89
				c8.66-2.37,16.12,3.15,13.61,12.82C49.22,110.9,40.52,119.05,31.41,119.88z"/>
			<path class="st4" d="M31.54,119.32c-9.64,1.01-13.96-7.41-9.36-17.37c2.62-5.68,8.29-10.52,15.85-12.59
				c8.35-2.3,15.55,3.01,13.03,12.48C48.73,110.59,40.39,118.4,31.54,119.32z"/>
			<path class="st5" d="M31.67,118.76c-9.4,1.12-13.63-7.13-9.09-16.76c2.64-5.61,8.25-10.3,15.49-12.3
				c8.04-2.24,14.98,2.87,12.46,12.14C48.24,110.28,40.26,117.74,31.67,118.76z"/>
			<path class="st6" d="M31.81,118.2c-9.17,1.23-13.29-6.85-8.82-16.14c2.66-5.54,8.21-10.08,15.14-12.01
				c7.72-2.17,14.4,2.73,11.89,11.8C47.75,109.98,40.13,117.08,31.81,118.2z"/>
			<path class="st7" d="M31.94,117.64c-8.93,1.34-12.95-6.57-8.55-15.52c2.69-5.47,8.17-9.85,14.78-11.71
				C45.58,88.3,52,93,49.48,101.87C47.27,109.67,40,116.43,31.94,117.64z"/>
			<path class="st8" d="M32.07,117.08c-8.7,1.46-12.61-6.29-8.28-14.9c2.71-5.4,8.14-9.63,14.43-11.42
				c7.1-2.05,13.26,2.45,10.74,11.13C46.78,109.36,39.87,115.77,32.07,117.08z"/>
			<path class="st9" d="M32.2,116.52c-8.46,1.57-12.26-6.01-8.01-14.29c2.74-5.32,8.1-9.39,14.07-11.12
				c6.79-1.97,12.69,2.31,10.16,10.79C46.3,109.05,39.74,115.12,32.2,116.52z"/>
			<path class="st10" d="M32.34,115.96c-8.22,1.69-11.92-5.73-7.73-13.67c2.77-5.25,8.06-9.17,13.72-10.83
				c6.48-1.9,12.13,2.17,9.59,10.45C45.81,108.75,39.61,114.47,32.34,115.96z"/>
			<path class="st11" d="M32.47,115.4c-7.99,1.8-11.57-5.44-7.46-13.05c2.79-5.18,8.03-8.94,13.36-10.53
				c6.17-1.84,11.56,2.03,9.02,10.11C45.33,108.44,39.48,113.82,32.47,115.4z"/>
			<path class="st12" d="M32.6,114.84c-7.75,1.92-11.21-5.16-7.19-12.44c2.82-5.11,7.99-8.72,13-10.24
				c5.86-1.77,10.99,1.89,8.44,9.77C44.85,108.14,39.35,113.17,32.6,114.84z"/>
			<path class="st13" d="M32.73,114.28c-7.52,2.04-10.86-4.87-6.92-11.82c2.86-5.03,7.95-8.5,12.65-9.94
				c5.55-1.71,10.43,1.75,7.87,9.44C44.37,107.83,39.22,112.52,32.73,114.28z"/>
			<path class="st14" d="M32.87,113.72c-7.28,2.16-10.5-4.58-6.65-11.2c2.89-4.96,7.91-8.27,12.29-9.65
				c5.24-1.65,9.87,1.62,7.29,9.1C43.9,107.53,39.09,111.87,32.87,113.72z"/>
			<path class="st15" d="M33,113.16c-7.04,2.29-10.14-4.29-6.37-10.58c2.93-4.88,7.88-8.05,11.94-9.36
				c4.93-1.58,9.31,1.48,6.72,8.76C43.42,107.22,38.96,111.22,33,113.16z"/>
			<path class="st16" d="M33.13,112.6c-6.8,2.41-9.78-4-6.1-9.97c2.96-4.81,7.84-7.83,11.58-9.06c4.61-1.52,8.75,1.34,6.15,8.42
				C42.95,106.92,38.83,110.58,33.13,112.6z"/>
			<path class="st17" d="M33.26,112.04c-6.56,2.54-9.42-3.71-5.83-9.35c3-4.73,7.8-7.6,11.23-8.77c4.3-1.46,8.2,1.21,5.57,8.08
				C42.47,106.61,38.7,109.94,33.26,112.04z"/>
			<path class="st18" d="M33.4,111.48c-6.32,2.67-9.05-3.41-5.56-8.73c3.05-4.65,7.76-7.38,10.87-8.47c3.99-1.4,7.64,1.08,5,7.75
				C42,106.31,38.58,109.29,33.4,111.48z"/>
			<path class="st19" d="M33.53,110.92c-6.08,2.8-8.68-3.12-5.29-8.12c3.09-4.56,7.72-7.16,10.52-8.18c3.68-1.34,7.1,0.94,4.42,7.41
				C41.54,106.01,38.45,108.66,33.53,110.92z"/>
			<path class="st20" d="M33.66,110.36c-5.84,2.93-8.31-2.82-5.02-7.5c3.14-4.47,7.68-6.94,10.16-7.88
				c3.36-1.28,6.56,0.82,3.85,7.07C41.07,105.71,38.33,108.02,33.66,110.36z"/>
			<path class="st21" d="M33.79,109.8c-5.59,3.07-7.93-2.51-4.74-6.88c3.2-4.38,7.64-6.73,9.81-7.59c3.05-1.22,6.03,0.69,3.28,6.73
				C40.61,105.41,38.21,107.38,33.79,109.8z"/>
		</g>
		<g>
			<path class="st0" d="M8.06,83.6C-1.22,78.47-0.4,68.27,9.7,61.22c5.3-3.71,13.2-5.21,21.94-2.53c9.49,2.91,12.45,11.2,4.89,18.57
				C29.12,84.47,16.74,88.38,8.06,83.6z"/>
			<path class="st1" d="M8.47,83.19c-9.14-4.9-8.33-14.91,1.54-21.71c5.28-3.64,13.05-5.04,21.48-2.47
				c9.19,2.8,12.09,10.85,4.62,18.04C28.91,84.01,16.97,87.76,8.47,83.19z"/>
			<path class="st2" d="M8.88,82.78c-9-4.67-8.2-14.51,1.45-21.04c5.26-3.57,12.9-4.87,21.02-2.41c8.9,2.69,11.7,10.48,4.35,17.51
				C28.69,83.54,17.2,87.14,8.88,82.78z"/>
			<path class="st3" d="M9.28,82.38c-8.85-4.47-8.06-14.1,1.35-20.37c5.25-3.5,12.75-4.7,20.57-2.35
				c8.6,2.58,11.33,10.11,4.08,16.98C28.47,83.08,17.45,86.5,9.28,82.38z"/>
			<path class="st4" d="M9.69,81.97c-8.71-4.25-7.92-13.68,1.25-19.7c5.23-3.43,12.6-4.53,20.11-2.29
				c8.3,2.47,10.95,9.75,3.81,16.45C28.26,82.63,17.69,85.87,9.69,81.97z"/>
			<path class="st5" d="M10.1,81.57c-8.57-4.03-7.79-13.27,1.16-19.04c5.21-3.36,12.45-4.37,19.65-2.23
				c8,2.36,10.58,9.39,3.54,15.92C28.04,82.17,17.93,85.25,10.1,81.57z"/>
			<path class="st6" d="M10.51,81.16c-8.43-3.81-7.65-12.86,1.06-18.37c5.19-3.29,12.3-4.2,19.2-2.17
				c7.7,2.25,10.21,9.03,3.27,15.39C27.83,81.71,18.16,84.62,10.51,81.16z"/>
			<path class="st7" d="M10.92,80.76c-8.29-3.59-7.51-12.44,0.97-17.7c5.17-3.21,12.15-4.03,18.74-2.1c7.41,2.13,9.83,8.67,3,14.86
				C27.62,81.25,18.4,84,10.92,80.76z"/>
			<path class="st8" d="M11.33,80.35c-8.15-3.37-7.37-12.02,0.87-17.04c5.16-3.14,12-3.86,18.28-2.04
				c7.11,2.02,9.46,8.31,2.73,14.33C27.41,80.79,18.64,83.37,11.33,80.35z"/>
			<path class="st9" d="M11.74,79.95c-8.01-3.15-7.22-11.6,0.77-16.37c5.14-3.07,11.84-3.67,17.82-1.98
				c6.81,1.93,9.09,7.95,2.46,13.8C27.2,80.34,18.87,82.75,11.74,79.95z"/>
			<path class="st10" d="M12.15,79.54c-7.87-2.92-7.08-11.17,0.68-15.7c5.13-2.99,11.69-3.5,17.37-1.92
				c6.51,1.82,8.72,7.59,2.19,13.27C26.99,79.88,19.11,82.13,12.15,79.54z"/>
			<path class="st11" d="M12.56,79.14c-7.73-2.7-6.93-10.75,0.58-15.03c5.11-2.92,11.54-3.33,16.91-1.86
				c6.21,1.71,8.35,7.23,1.92,12.74C26.78,79.43,19.34,81.51,12.56,79.14z"/>
			<path class="st12" d="M12.97,78.73c-7.59-2.47-6.78-10.32,0.49-14.37c5.1-2.84,11.39-3.16,16.45-1.8
				c5.91,1.6,7.98,6.88,1.65,12.21C26.57,78.98,19.57,80.89,12.97,78.73z"/>
			<path class="st13" d="M13.37,78.33c-7.45-2.25-6.63-9.89,0.39-13.7c5.09-2.76,11.24-2.99,15.99-1.73
				c5.61,1.49,7.62,6.52,1.38,11.68C26.36,78.53,19.81,80.27,13.37,78.33z"/>
			<path class="st14" d="M13.78,77.92c-7.32-2.02-6.48-9.46,0.29-13.03c5.08-2.68,11.09-2.82,15.54-1.67
				c5.32,1.38,7.25,6.17,1.11,11.15C26.16,78.08,20.04,79.65,13.78,77.92z"/>
			<path class="st15" d="M14.19,77.52c-7.18-1.79-6.33-9.02,0.2-12.36c5.07-2.6,10.94-2.66,15.08-1.61
				c5.02,1.27,6.89,5.82,0.84,10.62C25.95,77.63,20.27,79.03,14.19,77.52z"/>
			<path class="st16" d="M14.6,77.11c-7.04-1.56-6.18-8.58,0.1-11.7c5.06-2.51,10.79-2.49,14.62-1.55
				c4.72,1.15,6.52,5.47,0.57,10.09C25.75,77.18,20.51,78.42,14.6,77.11z"/>
			<path class="st17" d="M15.01,76.71c-6.91-1.32-6.02-8.14,0.01-11.03c5.05-2.42,10.64-2.32,14.17-1.49
				c4.42,1.04,6.16,5.12,0.3,9.56C25.55,76.73,20.74,77.8,15.01,76.71z"/>
			<path class="st18" d="M15.42,76.3c-6.77-1.09-5.87-7.69-0.09-10.36c5.05-2.33,10.49-2.15,13.71-1.43
				c4.13,0.93,5.8,4.78,0.03,9.03C25.35,76.29,20.97,77.19,15.42,76.3z"/>
			<path class="st19" d="M15.83,75.9c-6.64-0.85-5.71-7.25-0.19-9.69c5.04-2.23,10.34-1.98,13.25-1.37
				c3.83,0.82,5.45,4.44-0.24,8.51C25.15,75.85,21.2,76.58,15.83,75.9z"/>
			<path class="st20" d="M16.24,75.49c-6.5-0.61-5.55-6.8-0.28-9.03c5.04-2.13,10.19-1.82,12.79-1.3c3.53,0.7,5.1,4.1-0.51,7.98
				C24.95,75.41,21.43,75.98,16.24,75.49z"/>
			<path class="st21" d="M16.65,75.09c-6.36-0.36-5.39-6.34-0.38-8.36c5.04-2.03,10.04-1.66,12.34-1.24
				c3.24,0.58,4.75,3.78-0.78,7.45C24.75,74.97,21.67,75.37,16.65,75.09z"/>
		</g>
		<g>
			<path class="st0" d="M84.42,103.71c-1.65-10.47,6.9-16.09,18.67-12.44c6.18,1.91,12.22,7.23,15.46,15.76
				c3.53,9.28-1.2,16.71-11.66,15.26C96.65,120.88,85.96,113.51,84.42,103.71z"/>
			<path class="st1" d="M84.89,103.73C83.15,93.51,91.57,87.95,103,91.55c6.11,1.95,11.97,7.16,15.1,15.45
				c3.39,8.99-1.07,16.16-11.35,14.74C96.84,120.36,86.5,113.26,84.89,103.73z"/>
			<path class="st2" d="M85.37,103.75c-1.84-9.98,6.48-15.52,17.55-11.92c6.05,1.97,11.73,7.1,14.73,15.14
				c3.25,8.71-0.95,15.61-11.03,14.21C97.03,119.84,87.03,113,85.37,103.75z"/>
			<path class="st3" d="M85.84,103.76c-1.9-9.73,6.26-15.24,16.99-11.66c5.98,1.99,11.49,7.04,14.37,14.83
				c3.12,8.42-0.82,15.06-10.72,13.68C97.23,119.32,87.6,112.74,85.84,103.76z"/>
			<path class="st4" d="M86.32,103.78c-1.99-9.49,6.05-14.95,16.43-11.4c5.91,2.02,11.25,6.98,14,14.52
				c2.98,8.13-0.69,14.51-10.41,13.15C97.42,118.8,88.14,112.49,86.32,103.78z"/>
			<path class="st5" d="M86.79,103.79c-2.07-9.24,5.83-14.66,15.87-11.14c5.85,2.05,11,6.92,13.63,14.21
				c2.84,7.84-0.56,13.96-10.1,12.63C97.61,118.28,88.68,112.23,86.79,103.79z"/>
			<path class="st6" d="M87.26,103.81c-2.16-8.99,5.62-14.37,15.31-10.88c5.78,2.08,10.76,6.86,13.27,13.91
				c2.7,7.55-0.44,13.42-9.78,12.1C97.8,117.77,89.23,111.98,87.26,103.81z"/>
			<path class="st7" d="M87.74,103.83c-2.25-8.75,5.4-14.08,14.76-10.62c5.71,2.11,10.52,6.8,12.9,13.6
				c2.57,7.26-0.31,12.87-9.47,11.57C97.99,117.25,89.77,111.72,87.74,103.83z"/>
			<path class="st8" d="M88.21,103.84c-2.34-8.5,5.18-13.79,14.2-10.36c5.64,2.14,10.27,6.74,12.53,13.29
				c2.43,6.98-0.18,12.32-9.16,11.04C98.19,116.73,90.31,111.47,88.21,103.84z"/>
			<path class="st9" d="M88.69,103.86c-2.43-8.25,4.97-13.49,13.64-10.1c5.58,2.18,10.03,6.67,12.17,12.98
				c2.29,6.69-0.06,11.77-8.84,10.52C98.38,116.21,90.85,111.21,88.69,103.86z"/>
			<path class="st10" d="M89.16,103.87c-2.52-8.01,4.75-13.19,13.08-9.84c5.51,2.21,9.79,6.61,11.8,12.67
				c2.15,6.4,0.07,11.22-8.53,9.99C98.57,115.69,91.39,110.96,89.16,103.87z"/>
			<path class="st11" d="M89.64,103.89c-2.61-7.76,4.53-12.89,12.52-9.58c5.44,2.25,9.53,6.56,11.43,12.36
				c2,6.11,0.2,10.67-8.22,9.46C98.76,115.17,91.93,110.7,89.64,103.89z"/>
			<path class="st12" d="M90.11,103.91c-2.7-7.51,4.31-12.58,11.96-9.32c5.37,2.28,9.29,6.49,11.07,12.05
				c1.86,5.83,0.33,10.13-7.91,8.93C98.95,114.66,92.47,110.45,90.11,103.91z"/>
			<path class="st13" d="M90.59,103.92c-2.8-7.27,4.09-12.27,11.4-9.06c5.3,2.32,9.05,6.43,10.7,11.74c1.73,5.54,0.45,9.58-7.59,8.4
				C99.15,114.14,93,110.19,90.59,103.92z"/>
			<path class="st14" d="M91.06,103.94c-2.89-7.02,3.86-11.96,10.85-8.81c5.23,2.36,8.81,6.37,10.34,11.43
				c1.59,5.25,0.58,9.03-7.28,7.88C99.34,113.62,93.54,109.94,91.06,103.94z"/>
			<path class="st15" d="M91.54,103.95c-2.99-6.77,3.64-11.65,10.29-8.55c5.16,2.41,8.56,6.31,9.97,11.12
				c1.45,4.96,0.71,8.48-6.97,7.35C99.53,113.1,94.07,109.69,91.54,103.95z"/>
			<path class="st16" d="M92.01,103.97c-3.09-6.52,3.41-11.33,9.73-8.29c5.09,2.45,8.32,6.25,9.6,10.81
				c1.31,4.67,0.84,7.93-6.65,6.82C99.72,112.58,94.6,109.43,92.01,103.97z"/>
			<path class="st17" d="M92.49,103.99c-3.19-6.27,3.19-11.01,9.17-8.03c5.01,2.5,8.08,6.19,9.24,10.5
				c1.18,4.38,0.96,7.38-6.34,6.29C99.91,112.06,95.13,109.18,92.49,103.99z"/>
			<path class="st18" d="M92.96,104c-3.3-6.02,2.96-10.69,8.61-7.77c4.93,2.55,7.84,6.13,8.87,10.19c1.04,4.09,1.09,6.84-6.03,5.77
				C100.11,111.54,95.66,108.93,92.96,104z"/>
			<path class="st19" d="M93.44,104.02c-3.4-5.76,2.73-10.37,8.05-7.51c4.85,2.61,7.6,6.06,8.5,9.88c0.9,3.81,1.22,6.29-5.72,5.24
				C100.3,111.03,96.19,108.68,93.44,104.02z"/>
			<path class="st20" d="M93.91,104.03c-3.51-5.51,2.5-10.04,7.49-7.25c4.77,2.67,7.36,6,8.14,9.57c0.78,3.52,1.34,5.74-5.4,4.71
				C100.49,110.51,96.72,108.44,93.91,104.03z"/>
			<path class="st21" d="M94.39,104.05c-3.62-5.25,2.26-9.72,6.94-6.99c4.69,2.73,7.12,5.94,7.77,9.26
				c0.64,3.23,1.47,5.19-5.09,4.18C100.68,109.99,97.24,108.19,94.39,104.05z"/>
		</g>
		<g>
			<path class="st0" d="M78.7,101.74c-7.54-7.45-17.08-3.79-21,7.89c-2.06,6.14-1.27,14.14,3.77,21.76
				c5.47,8.29,14.26,8.79,19.19-0.55C85.49,121.7,85.75,108.72,78.7,101.74z"/>
			<path class="st1" d="M78.44,102.14c-7.28-7.38-16.73-3.8-20.46,7.59c-2,6.1-1.18,13.9,3.73,21.28c5.32,8.01,13.74,8.57,18.58-0.6
				C84.96,121.55,85.23,109.01,78.44,102.14z"/>
			<path class="st2" d="M78.17,102.53c-7.03-7.31-16.38-3.81-19.92,7.29c-1.94,6.06-1.09,13.67,3.69,20.81
				c5.17,7.73,13.22,8.35,17.97-0.66C84.42,121.41,84.71,109.3,78.17,102.53z"/>
			<path class="st3" d="M77.91,102.93c-6.79-7.23-16.03-3.82-19.39,6.98c-1.87,6.02-0.99,13.44,3.65,20.33
				c5.01,7.45,12.7,8.14,17.36-0.71C83.89,121.26,84.18,109.6,77.91,102.93z"/>
			<path class="st4" d="M77.64,103.32c-6.54-7.15-15.67-3.83-18.85,6.68c-1.81,5.98-0.9,13.21,3.62,19.85
				c4.86,7.17,12.18,7.92,16.75-0.77C83.36,121.11,83.65,109.89,77.64,103.32z"/>
			<path class="st5" d="M77.38,103.72c-6.29-7.08-15.31-3.83-18.31,6.38c-1.75,5.95-0.81,12.97,3.58,19.37
				c4.7,6.89,11.66,7.7,16.14-0.82C82.83,120.97,83.13,110.19,77.38,103.72z"/>
			<path class="st6" d="M77.12,104.11c-6.04-7-14.95-3.84-17.78,6.08c-1.69,5.91-0.72,12.74,3.54,18.89
				c4.55,6.61,11.15,7.48,15.53-0.88C82.29,120.82,82.6,110.48,77.12,104.11z"/>
			<path class="st7" d="M76.85,104.51c-5.78-6.93-14.59-3.84-17.24,5.78c-1.62,5.87-0.62,12.51,3.51,18.41
				c4.4,6.33,10.63,7.27,14.92-0.93C81.76,120.67,82.08,110.77,76.85,104.51z"/>
			<path class="st8" d="M76.59,104.9c-5.53-6.86-14.22-3.84-16.71,5.47c-1.56,5.84-0.53,12.28,3.47,17.94
				c4.24,6.05,10.11,7.05,14.31-0.98C81.23,120.53,81.55,111.06,76.59,104.9z"/>
			<path class="st9" d="M76.32,105.3c-5.28-6.79-13.85-3.85-16.17,5.17c-1.49,5.8-0.44,12.04,3.43,17.46
				c4.09,5.76,9.59,6.83,13.7-1.04C80.69,120.38,81.03,111.35,76.32,105.3z"/>
			<path class="st10" d="M76.06,105.69c-5.03-6.72-13.48-3.85-15.63,4.87c-1.42,5.76-0.34,11.8,3.39,16.98
				c3.95,5.48,9.07,6.61,13.09-1.09C80.16,120.23,80.51,111.64,76.06,105.69z"/>
			<path class="st11" d="M75.8,106.09c-4.77-6.65-13.11-3.85-15.1,4.57c-1.35,5.73-0.24,11.57,3.36,16.5
				c3.79,5.2,8.55,6.4,12.48-1.15C79.63,120.09,79.99,111.93,75.8,106.09z"/>
			<path class="st12" d="M75.53,106.48c-4.52-6.58-12.73-3.85-14.56,4.27c-1.28,5.69-0.15,11.34,3.32,16.02
				c3.64,4.91,8.03,6.18,11.87-1.2C79.09,119.94,79.47,112.21,75.53,106.48z"/>
			<path class="st13" d="M75.27,106.87c-4.26-6.51-12.35-3.85-14.02,3.96c-1.21,5.66-0.06,11.1,3.28,15.55
				c3.48,4.63,7.51,5.96,11.25-1.26C78.56,119.79,78.95,112.5,75.27,106.87z"/>
			<path class="st14" d="M75,107.27c-4-6.45-11.97-3.85-13.49,3.66c-1.13,5.63,0.03,10.87,3.24,15.07
				c3.33,4.35,6.99,5.74,10.64-1.31C78.03,119.65,78.43,112.79,75,107.27z"/>
			<path class="st15" d="M74.74,107.66c-3.74-6.38-11.59-3.85-12.95,3.36c-1.06,5.59,0.13,10.64,3.21,14.59
				c3.18,4.07,6.47,5.53,10.03-1.37C77.49,119.5,77.91,113.07,74.74,107.66z"/>
			<path class="st16" d="M74.47,108.06c-3.48-6.31-11.2-3.84-12.41,3.06c-0.98,5.56,0.22,10.41,3.17,14.11
				c3.02,3.79,5.95,5.31,9.42-1.42C76.96,119.35,77.4,113.36,74.47,108.06z"/>
			<path class="st17" d="M74.21,108.45c-3.22-6.25-10.81-3.84-11.88,2.76c-0.89,5.53,0.31,10.17,3.13,13.63
				c2.87,3.51,5.43,5.09,8.81-1.47C76.43,119.21,76.88,113.64,74.21,108.45z"/>
			<path class="st18" d="M73.95,108.85c-2.95-6.19-10.42-3.84-11.34,2.45c-0.81,5.49,0.4,9.94,3.1,13.16
				c2.71,3.23,4.91,4.87,8.2-1.53C75.9,119.06,76.37,113.92,73.95,108.85z"/>
			<path class="st19" d="M73.68,109.24c-2.69-6.12-10.02-3.84-10.8,2.15c-0.72,5.46,0.49,9.71,3.06,12.68
				c2.56,2.95,4.39,4.65,7.59-1.58C75.36,118.91,75.86,114.21,73.68,109.24z"/>
			<path class="st20" d="M73.42,109.64c-2.42-6.06-9.62-3.84-10.27,1.85c-0.62,5.43,0.58,9.48,3.02,12.2
				c2.4,2.68,3.87,4.44,6.98-1.64C74.83,118.77,75.35,114.49,73.42,109.64z"/>
			<path class="st21" d="M73.15,110.03c-2.14-6-9.21-3.83-9.73,1.55c-0.52,5.4,0.67,9.25,2.98,11.72c2.24,2.4,3.36,4.22,6.37-1.69
				C74.3,118.62,74.85,114.77,73.15,110.03z"/>
		</g>
	</g>
	<g>
		<path class="st22" d="M73.57,19.36c0,7.57-7.01,13.71-7.01,13.71s-7.01-6.14-7.01-13.71c0-7.58,7.01-13.71,7.01-13.71
			S73.57,11.79,73.57,19.36z"/>
		<path class="st22" d="M73.57,115.17c0,7.58-7.01,13.71-7.01,13.71s-7.01-6.14-7.01-13.71c0-7.57,7.01-13.71,7.01-13.71
			S73.57,107.6,73.57,115.17z"/>
		<path class="st22" d="M18.65,60.26c7.57,0,13.72,7.01,13.72,7.01s-6.14,7.01-13.72,7.01S4.94,67.27,4.94,67.27
			S11.08,60.26,18.65,60.26z"/>
		<path class="st22" d="M114.47,60.26c7.58,0,13.72,7.01,13.72,7.01s-6.14,7.01-13.72,7.01c-7.58,0-13.71-7.01-13.71-7.01
			S106.89,60.26,114.47,60.26z"/>
		<path class="st22" d="M27.73,96.18c5.36-5.35,14.66-4.74,14.66-4.74s0.62,9.3-4.74,14.66c-5.36,5.35-14.65,4.74-14.65,4.74
			S22.37,101.54,27.73,96.18z"/>
		<path class="st22" d="M95.48,28.44c5.35-5.35,14.66-4.74,14.66-4.74s0.61,9.3-4.74,14.65c-5.36,5.36-14.66,4.75-14.66,4.75
			S90.12,33.79,95.48,28.44z"/>
		<path class="st22" d="M95.48,106.1c-5.35-5.35-4.74-14.66-4.74-14.66s9.3-0.61,14.66,4.74c5.36,5.36,4.74,14.66,4.74,14.66
			S100.83,111.45,95.48,106.1z"/>
		<path class="st22" d="M27.73,38.35c-5.35-5.35-4.74-14.65-4.74-14.65s9.29-0.61,14.65,4.74c5.36,5.35,4.74,14.66,4.74,14.66
			S33.08,43.71,27.73,38.35z"/>
	</g>
	<g>
		<path class="st22" d="M108.67,90.78c-5.6-2.31-7.99-9.37-7.99-9.37s6.68-3.31,12.28-0.99c5.6,2.32,7.99,9.38,7.99,9.38
			S114.27,93.11,108.67,90.78z"/>
		<path class="st22" d="M20.16,54.12c-5.6-2.32-7.99-9.38-7.99-9.38s6.69-3.31,12.29-0.99c5.6,2.32,7.99,9.38,7.99,9.38
			S25.75,56.44,20.16,54.12z"/>
		<path class="st22" d="M53.41,20.86c2.32,5.6-0.98,12.29-0.98,12.29s-7.06-2.4-9.38-8c-2.32-5.6,0.98-12.29,0.98-12.29
			S51.09,15.26,53.41,20.86z"/>
		<path class="st22" d="M90.07,109.38c2.32,5.6-0.98,12.28-0.98,12.28s-7.06-2.39-9.38-7.99c-2.32-5.6,0.98-12.29,0.98-12.29
			S87.75,103.79,90.07,109.38z"/>
		<path class="st22" d="M20.16,80.42c5.6-2.32,12.28,0.99,12.28,0.99s-2.39,7.06-7.99,9.37c-5.6,2.33-12.29-0.98-12.29-0.98
			S14.55,82.74,20.16,80.42z"/>
		<path class="st22" d="M108.67,43.75c5.6-2.32,12.29,0.99,12.29,0.99s-2.39,7.06-7.99,9.38c-5.6,2.32-12.28-0.99-12.28-0.99
			S103.07,46.07,108.67,43.75z"/>
		<path class="st22" d="M43.05,109.38c2.32-5.6,9.38-8,9.38-8s3.3,6.69,0.98,12.29c-2.32,5.6-9.38,7.99-9.38,7.99
			S40.73,114.98,43.05,109.38z"/>
		<path class="st22" d="M79.71,20.86c2.32-5.6,9.38-8,9.38-8s3.3,6.69,0.98,12.29c-2.32,5.6-9.38,8-9.38,8S77.39,26.46,79.71,20.86z
			"/>
	</g>
	<g>
		<linearGradient id="SVGID_1_" gradientUnits="userSpaceOnUse" x1="60.3252" y1="13.127" x2="74.0736" y2="26.8753">
			<stop  offset="0" style="stop-color:#FFD45C"/>
			<stop  offset="1" style="stop-color:#FF9D00"/>
		</linearGradient>
		<path class="st23" d="M74.21,20c0,7.57-7.01,13.72-7.01,13.72S60.19,27.57,60.19,20c0-7.58,7.01-13.71,7.01-13.71
			S74.21,12.42,74.21,20z"/>
		
			<linearGradient id="SVGID_00000152249408756403589540000018203096641809727399_" gradientUnits="userSpaceOnUse" x1="60.3269" y1="108.9424" x2="74.0719" y2="122.6874">
			<stop  offset="0" style="stop-color:#FFD45C"/>
			<stop  offset="1" style="stop-color:#FF9D00"/>
		</linearGradient>
		<path style="fill:url(#SVGID_00000152249408756403589540000018203096641809727399_);" d="M74.21,115.82
			c0,7.57-7.01,13.71-7.01,13.71s-7.01-6.15-7.01-13.71c0-7.57,7.01-13.71,7.01-13.71S74.21,108.24,74.21,115.82z"/>
		
			<linearGradient id="SVGID_00000134216600507926820000000009059657896194540699_" gradientUnits="userSpaceOnUse" x1="2326.603" y1="166.0502" x2="2312.856" y2="179.7974" gradientTransform="matrix(0 -1 1 0 -153.6311 2387.6326)">
			<stop  offset="0" style="stop-color:#FFD45C"/>
			<stop  offset="1" style="stop-color:#FF9D00"/>
		</linearGradient>
		<path style="fill:url(#SVGID_00000134216600507926820000000009059657896194540699_);" d="M19.29,60.89
			c7.57,0,13.71,7.01,13.71,7.01s-6.14,7.01-13.71,7.01c-7.58,0-13.72-7.01-13.72-7.01S11.72,60.89,19.29,60.89z"/>
		
			<linearGradient id="SVGID_00000062896440048541897300000015315597354894032540_" gradientUnits="userSpaceOnUse" x1="2326.6021" y1="261.8632" x2="2312.8569" y2="275.6082" gradientTransform="matrix(0 -1 1 0 -153.6311 2387.6326)">
			<stop  offset="0" style="stop-color:#FFD45C"/>
			<stop  offset="1" style="stop-color:#FF9D00"/>
		</linearGradient>
		<path style="fill:url(#SVGID_00000062896440048541897300000015315597354894032540_);" d="M115.1,60.89
			c7.57,0,13.71,7.01,13.71,7.01s-6.14,7.01-13.71,7.01c-7.58,0-13.71-7.01-13.71-7.01S107.53,60.89,115.1,60.89z"/>
		
			<linearGradient id="SVGID_00000100349345159000326480000004090901981798183592_" gradientUnits="userSpaceOnUse" x1="2716.8962" y1="1330.9489" x2="2702.8669" y2="1330.9489" gradientTransform="matrix(-0.7071 -0.7071 0.7071 -0.7071 1008.3659 2959.0515)">
			<stop  offset="0" style="stop-color:#FFD45C"/>
			<stop  offset="1" style="stop-color:#FF9D00"/>
		</linearGradient>
		<path style="fill:url(#SVGID_00000100349345159000326480000004090901981798183592_);" d="M28.36,96.82
			c5.36-5.35,14.66-4.73,14.66-4.73s0.61,9.3-4.74,14.66c-5.36,5.35-14.66,4.74-14.66,4.74S23.01,102.18,28.36,96.82z"/>
		
			<linearGradient id="SVGID_00000023990184639343805460000010614336559391360934_" gradientUnits="userSpaceOnUse" x1="2716.8938" y1="1426.7623" x2="2702.8699" y2="1426.7623" gradientTransform="matrix(-0.7071 -0.7071 0.7071 -0.7071 1008.3659 2959.0515)">
			<stop  offset="0" style="stop-color:#FFD45C"/>
			<stop  offset="1" style="stop-color:#FF9D00"/>
		</linearGradient>
		<path style="fill:url(#SVGID_00000023990184639343805460000010614336559391360934_);" d="M96.11,29.07
			c5.36-5.35,14.66-4.74,14.66-4.74s0.61,9.3-4.74,14.66c-5.35,5.36-14.66,4.74-14.66,4.74S90.76,34.43,96.11,29.07z"/>
		
			<linearGradient id="SVGID_00000128453628108714593250000003406040263395645631_" gradientUnits="userSpaceOnUse" x1="1008.9553" y1="2829.3218" x2="1008.9553" y2="2801.8889" gradientTransform="matrix(-0.7071 0.7071 -0.7071 -0.7071 2805.4209 1379.2637)">
			<stop  offset="0" style="stop-color:#FFD45C"/>
			<stop  offset="1" style="stop-color:#FF9D00"/>
		</linearGradient>
		<path style="fill:url(#SVGID_00000128453628108714593250000003406040263395645631_);" d="M96.11,106.74
			c-5.35-5.35-4.74-14.66-4.74-14.66s9.3-0.62,14.66,4.73c5.36,5.36,4.74,14.66,4.74,14.66S101.48,112.1,96.11,106.74z"/>
		
			<linearGradient id="SVGID_00000157303268710098964320000017486811992332534964_" gradientUnits="userSpaceOnUse" x1="1008.955" y1="2925.1365" x2="1008.955" y2="2897.7014" gradientTransform="matrix(-0.7071 0.7071 -0.7071 -0.7071 2805.4209 1379.2637)">
			<stop  offset="0" style="stop-color:#FFD45C"/>
			<stop  offset="1" style="stop-color:#FF9D00"/>
		</linearGradient>
		<path style="fill:url(#SVGID_00000157303268710098964320000017486811992332534964_);" d="M28.36,38.99
			c-5.35-5.35-4.74-14.66-4.74-14.66s9.3-0.61,14.66,4.74c5.35,5.35,4.74,14.66,4.74,14.66S33.72,44.34,28.36,38.99z"/>
	</g>
	<g>
		
			<linearGradient id="SVGID_00000032648629822203022320000016440485858106433426_" gradientUnits="userSpaceOnUse" x1="104.2911" y1="79.07" x2="118.6266" y2="93.4056">
			<stop  offset="0" style="stop-color:#FFBB31"/>
			<stop  offset="1" style="stop-color:#FF9D00"/>
		</linearGradient>
		<path style="fill:url(#SVGID_00000032648629822203022320000016440485858106433426_);" d="M109.31,91.42
			c-5.6-2.32-7.99-9.38-7.99-9.38s6.69-3.3,12.28-0.99c5.6,2.32,7.99,9.38,7.99,9.38S114.91,93.73,109.31,91.42z"/>
		
			<linearGradient id="SVGID_00000000205870019088360100000005556421220297049533_" gradientUnits="userSpaceOnUse" x1="15.769" y1="42.4036" x2="30.1046" y2="56.7392">
			<stop  offset="0" style="stop-color:#FFBB31"/>
			<stop  offset="1" style="stop-color:#FF9D00"/>
		</linearGradient>
		<path style="fill:url(#SVGID_00000000205870019088360100000005556421220297049533_);" d="M20.79,54.75
			c-5.6-2.31-7.99-9.38-7.99-9.38s6.69-3.3,12.28-0.98c5.6,2.32,7.99,9.37,7.99,9.37S26.39,57.07,20.79,54.75z"/>
		
			<linearGradient id="SVGID_00000173841692679860895380000016685992140119794848_" gradientUnits="userSpaceOnUse" x1="41.6962" y1="16.4764" x2="56.0336" y2="30.8138">
			<stop  offset="0" style="stop-color:#FFBB31"/>
			<stop  offset="1" style="stop-color:#FF9D00"/>
		</linearGradient>
		<path style="fill:url(#SVGID_00000173841692679860895380000016685992140119794848_);" d="M54.05,21.5
			c2.32,5.6-0.99,12.29-0.99,12.29s-7.06-2.39-9.38-7.99c-2.32-5.6,0.98-12.29,0.98-12.29S51.73,15.9,54.05,21.5z"/>
		
			<linearGradient id="SVGID_00000147926052925430800630000009298041848244263577_" gradientUnits="userSpaceOnUse" x1="78.3646" y1="104.9965" x2="92.7024" y2="119.3343">
			<stop  offset="0" style="stop-color:#FFBB31"/>
			<stop  offset="1" style="stop-color:#FF9D00"/>
		</linearGradient>
		<path style="fill:url(#SVGID_00000147926052925430800630000009298041848244263577_);" d="M90.71,110.02
			c2.32,5.6-0.98,12.29-0.98,12.29s-7.06-2.4-9.38-8c-2.32-5.6,0.98-12.28,0.98-12.28S88.4,104.42,90.71,110.02z"/>
		
			<linearGradient id="SVGID_00000160900011639279540930000018246877250543292035_" gradientUnits="userSpaceOnUse" x1="18.6906" y1="81.9885" x2="27.1876" y2="90.4854">
			<stop  offset="0" style="stop-color:#FFBB31"/>
			<stop  offset="1" style="stop-color:#FF9D00"/>
		</linearGradient>
		<path style="fill:url(#SVGID_00000160900011639279540930000018246877250543292035_);" d="M20.79,81.05
			c5.6-2.31,12.28,0.99,12.28,0.99s-2.39,7.06-7.99,9.38c-5.6,2.31-12.28-0.99-12.28-0.99S15.19,83.37,20.79,81.05z"/>
		
			<linearGradient id="SVGID_00000118390399435615828130000000277240203102913433_" gradientUnits="userSpaceOnUse" x1="107.2131" y1="45.3225" x2="115.7093" y2="53.8186">
			<stop  offset="0" style="stop-color:#FFBB31"/>
			<stop  offset="1" style="stop-color:#FF9D00"/>
		</linearGradient>
		<path style="fill:url(#SVGID_00000118390399435615828130000000277240203102913433_);" d="M109.31,44.39
			c5.6-2.32,12.29,0.98,12.29,0.98s-2.39,7.07-7.99,9.38c-5.6,2.32-12.28-0.99-12.28-0.99S103.71,46.71,109.31,44.39z"/>
		
			<linearGradient id="SVGID_00000146481146106612239130000016883320765802229647_" gradientUnits="userSpaceOnUse" x1="44.6162" y1="107.9196" x2="53.1107" y2="116.4141">
			<stop  offset="0" style="stop-color:#FFBB31"/>
			<stop  offset="1" style="stop-color:#FF9D00"/>
		</linearGradient>
		<path style="fill:url(#SVGID_00000146481146106612239130000016883320765802229647_);" d="M43.69,110.02
			c2.32-5.6,9.38-7.99,9.38-7.99s3.3,6.68,0.99,12.28c-2.32,5.6-9.38,8-9.38,8S41.37,115.62,43.69,110.02z"/>
		
			<linearGradient id="SVGID_00000132774311894447712680000000374477931812160901_" gradientUnits="userSpaceOnUse" x1="81.2835" y1="19.398" x2="89.7806" y2="27.8951">
			<stop  offset="0" style="stop-color:#FFBB31"/>
			<stop  offset="1" style="stop-color:#FF9D00"/>
		</linearGradient>
		<path style="fill:url(#SVGID_00000132774311894447712680000000374477931812160901_);" d="M80.35,21.5
			c2.32-5.6,9.38-7.99,9.38-7.99s3.3,6.68,0.98,12.29c-2.32,5.6-9.38,7.99-9.38,7.99S78.03,27.09,80.35,21.5z"/>
	</g>
	<g>
		<path class="st0" d="M110.79,117.1c-19.81,16.45-46.93,19.96-70.96,4.98c-32.01-19.96-24.66-46.96-9.96-47.59
			c14.44-0.61,26.62,4.2,35.91-5.53C76.6,57.62,76.67,45.14,79.53,32.07c3.18-14.54,21.61-19.19,41.52,1.98
			C142.68,57.05,135.76,96.37,110.79,117.1z"/>
		<path class="st1" d="M110.19,115.87c-19.26,16.11-45.53,19.7-68.99,5.44C9.83,102.33,16.43,76.08,30.66,75.36
			c13.91-0.66,26.42,4.55,36.1-5.73c10.78-11.45,10.76-23.72,13.41-36.59c2.97-14.18,20.88-18.67,40.07,2.06
			C141,57.38,134.53,95.5,110.19,115.87z"/>
		<path class="st2" d="M109.59,114.65c-18.71,15.77-44.13,19.43-67.01,5.91C11.86,102.55,17.7,77.01,31.47,76.24
			c13.37-0.75,26.22,4.9,36.28-5.93c10.74-11.57,10.59-23.64,13.06-36.3c2.7-13.83,20.09-18.09,38.63,2.14
			C139.25,57.77,133.3,94.63,109.59,114.65z"/>
		<path class="st3" d="M109,113.42c-18.16,15.43-42.7,19.1-65.03,6.37c-30.03-17.11-25-41.82-11.69-42.67
			c12.84-0.81,26.02,5.26,36.47-6.13c10.71-11.68,10.43-23.55,12.71-36.01c2.46-13.47,19.32-17.54,37.19,2.23
			C137.54,58.13,132.07,93.76,109,113.42z"/>
		<path class="st4" d="M108.4,112.19c-17.61,15.09-41.29,18.81-63.05,6.84C15.97,102.86,20.22,78.92,33.08,78
			c12.31-0.87,25.83,5.62,36.65-6.33c10.68-11.79,10.28-23.46,12.36-35.72c2.22-13.11,18.56-16.99,35.74,2.31
			C135.83,58.48,130.84,92.88,108.4,112.19z"/>
		<path class="st5" d="M107.8,110.96c-17.05,14.76-39.88,18.52-61.08,7.3C18,103.05,21.49,79.87,33.88,78.88
			c11.78-0.94,25.63,5.98,36.84-6.53c10.65-11.89,10.13-23.36,12.01-35.43c1.98-12.75,17.8-16.45,34.3,2.39
			C134.12,58.84,129.61,92.01,107.8,110.96z"/>
		<path class="st6" d="M107.2,109.73c-16.5,14.42-38.48,18.24-59.1,7.76c-28.07-14.26-25.36-36.68-13.42-37.74
			c11.24-1,25.44,6.34,37.02-6.73c10.63-12,9.98-23.27,11.66-35.13c1.75-12.39,17.04-15.9,32.86,2.48
			C132.42,59.19,128.38,91.14,107.2,109.73z"/>
		<path class="st7" d="M106.61,108.51c-15.95,14.08-37.07,17.96-57.12,8.23c-27.42-13.3-25.47-34.96-14-36.1
			c10.71-1.06,25.25,6.71,37.21-6.93C83.3,61.61,82.53,50.53,84,38.86c1.51-12.03,16.28-15.36,31.41,2.56
			C130.71,59.53,127.15,90.26,106.61,108.51z"/>
		<path class="st8" d="M106.01,107.28c-15.4,13.74-35.67,17.68-55.14,8.69c-26.77-12.35-25.59-33.24-14.57-34.45
			c10.17-1.12,25.06,7.07,37.39-7.13c10.59-12.2,9.69-23.08,10.96-34.55c1.28-11.67,15.52-14.82,29.97,2.64
			C129.01,59.88,125.92,89.39,106.01,107.28z"/>
		<path class="st9" d="M105.41,106.05c-14.84,13.4-34.27,17.4-53.17,9.16C26.12,103.82,26.54,83.69,37.1,82.4
			c9.64-1.18,24.88,7.44,37.58-7.33c10.57-12.3,9.55-22.99,10.61-34.26c1.06-11.3,14.76-14.28,28.53,2.73
			C127.31,60.22,124.69,88.52,105.41,106.05z"/>
		<path class="st10" d="M104.81,104.82c-14.29,13.06-32.87,17.12-51.19,9.62C28.14,104.02,27.8,84.64,37.9,83.28
			c9.11-1.23,24.69,7.81,37.76-7.54c10.55-12.39,9.41-22.89,10.26-33.97c0.83-10.94,14.01-13.75,27.08,2.81
			C125.61,60.56,123.46,87.64,104.81,104.82z"/>
		<path class="st11" d="M104.22,103.6c-13.71,12.75-31.47,16.84-49.21,10.09c-24.84-9.46-25.95-28.08-16.3-29.53
			c8.57-1.29,24.51,8.18,37.94-7.74c10.54-12.49,9.27-22.79,9.91-33.68c0.61-10.58,13.25-13.22,25.64,2.89
			C123.92,60.89,122.27,86.81,104.22,103.6z"/>
		<path class="st12" d="M103.62,102.37c-13.16,12.42-30.08,16.57-47.23,10.55c-24.21-8.49-26.07-26.36-16.88-27.89
			c8.04-1.34,24.33,8.56,38.13-7.94c10.52-12.58,9.14-22.7,9.56-33.39c0.4-10.21,12.5-12.69,24.2,2.98
			C122.23,61.22,121.04,85.94,103.62,102.37z"/>
		<path class="st13" d="M103.02,101.14c-12.61,12.08-28.68,16.3-45.25,11.02c-23.57-7.52-26.18-24.63-17.45-26.24
			c7.5-1.39,24.16,8.93,38.31-8.14c10.51-12.68,9.01-22.6,9.21-33.09c0.18-9.85,11.76-12.17,22.75,3.06
			C120.55,61.55,119.81,85.06,103.02,101.14z"/>
		<path class="st14" d="M102.42,99.91c-12.06,11.74-27.29,16.04-43.28,11.48c-22.94-6.54-26.3-22.9-18.03-24.6
			c6.97-1.43,23.98,9.31,38.5-8.34c10.5-12.77,8.89-22.5,8.86-32.8C88.45,36.17,99.49,34,109.78,48.8
			C118.87,61.87,118.58,84.19,102.42,99.91z"/>
		<path class="st15" d="M101.83,98.69c-11.5,11.4-25.9,15.78-41.3,11.95c-22.31-5.55-26.42-21.17-18.6-22.96
			c6.44-1.48,23.81,9.69,38.68-8.54c10.49-12.86,8.76-22.4,8.51-32.51c-0.23-9.11,10.29-11.14,19.87,3.23
			C117.2,62.18,117.34,83.31,101.83,98.69z"/>
		<path class="st16" d="M101.23,97.46c-10.95,11.06-24.51,15.53-39.32,12.41c-21.68-4.56-26.54-19.43-19.18-21.32
			c5.9-1.51,23.64,10.07,38.87-8.74c10.48-12.95,8.65-22.31,8.15-32.22c-0.44-8.75,9.56-10.63,18.42,3.31
			C115.54,62.49,116.11,82.44,101.23,97.46z"/>
		<path class="st17" d="M100.63,96.23c-10.43,10.69-23.13,15.28-37.34,12.88c-21.05-3.56-26.66-17.69-19.76-19.68
			c5.37-1.55,23.47,10.45,39.05-8.94c10.48-13.04,8.54-22.21,7.8-31.93c-0.63-8.38,8.85-10.13,16.98,3.39
			C113.88,62.8,114.85,81.53,100.63,96.23z"/>
		<path class="st18" d="M100.03,95c-9.87,10.35-21.74,15.04-35.37,13.34C44.25,105.8,37.9,92.41,44.34,90.31
			c4.84-1.58,23.31,10.84,39.24-9.14c10.47-13.13,8.43-22.11,7.45-31.64c-0.82-8.02,8.15-9.64,15.54,3.48
			C112.24,63.1,113.62,80.66,100.03,95z"/>
		<path class="st19" d="M99.44,93.78c-9.32,10.02-20.35,14.8-33.39,13.81c-19.79-1.51-26.88-14.18-20.91-16.39
			c4.31-1.6,23.18,11.25,39.42-9.34c10.49-13.2,8.34-22.02,7.1-31.35c-1.01-7.66,7.48-9.16,14.09,3.56
			C110.61,63.39,112.39,79.79,99.44,93.78z"/>
		<path class="st20" d="M98.84,92.55c-8.77,9.68-18.96,14.58-31.41,14.27c-19.16-0.47-26.98-12.4-21.48-14.75
			c3.79-1.62,23,11.62,39.61-9.54c10.47-13.3,8.25-21.93,6.75-31.05c-1.19-7.3,6.83-8.68,12.65,3.64
			C109,63.68,111.16,78.91,98.84,92.55z"/>
		<path class="st21" d="M98.24,91.32c-8.22,9.34-17.56,14.36-29.43,14.74c-18.52,0.58-27.07-10.62-22.06-13.11
			c3.28-1.63,22.82,11.99,39.79-9.74c10.45-13.39,8.16-21.85,6.4-30.76c-1.37-6.95,6.22-8.22,11.21,3.73
			C107.4,63.97,109.93,78.04,98.24,91.32z"/>
	</g>
	<path class="st22" d="M105.62,67.27c0,21.57-17.49,39.05-39.06,39.05c-21.57,0-39.06-17.48-39.06-39.05s17.48-39.06,39.06-39.06
		C88.13,28.21,105.62,45.7,105.62,67.27z"/>
	
		<linearGradient id="SVGID_00000032627329274792271170000001960008544075852184_" gradientUnits="userSpaceOnUse" x1="39.5836" y1="40.2914" x2="94.8133" y2="95.5211">
		<stop  offset="0" style="stop-color:#FFD45C"/>
		<stop  offset="1" style="stop-color:#FF9D00"/>
	</linearGradient>
	<path style="fill:url(#SVGID_00000032627329274792271170000001960008544075852184_);" d="M106.25,67.9
		c0,21.57-17.48,39.06-39.05,39.06S28.14,89.47,28.14,67.9c0-21.56,17.49-39.05,39.06-39.05S106.25,46.34,106.25,67.9z"/>
</g>
</svg>
