<?xml version="1.0" encoding="utf-8"?>
<!-- Generator: Adobe Illustrator 27.0.1, SVG Export Plug-In . SVG Version: 6.00 Build 0)  -->
<svg version="1.1" id="Ebene_1" xmlns="http://www.w3.org/2000/svg" xmlns:xlink="http://www.w3.org/1999/xlink" x="0px" y="0px"
	 viewBox="0 0 56.7 56.7" style="enable-background:new 0 0 56.7 56.7;" xml:space="preserve">
<style type="text/css">
	.st0{display:none;}
	.st1{display:inline;}
	.st2{fill:#FFFFFF;fill-opacity:0;}
	.st3{opacity:4.761905e-02;fill:#FAFBFC;enable-background:new    ;}
	.st4{opacity:9.523810e-02;fill:#F4F6F8;enable-background:new    ;}
	.st5{opacity:0.1429;fill:#EFF1F4;enable-background:new    ;}
	.st6{opacity:0.1905;fill:#E9ECF0;enable-background:new    ;}
	.st7{opacity:0.2381;fill:#E3E8EC;enable-background:new    ;}
	.st8{opacity:0.2857;fill:#DEE3E8;enable-background:new    ;}
	.st9{opacity:0.3333;fill:#D8DEE4;enable-background:new    ;}
	.st10{opacity:0.381;fill:#D3DAE0;enable-background:new    ;}
	.st11{opacity:0.4286;fill:#CDD5DC;enable-background:new    ;}
	.st12{opacity:0.4762;fill:#C8D1D9;enable-background:new    ;}
	.st13{opacity:0.5238;fill:#C2CDD5;enable-background:new    ;}
	.st14{opacity:0.5714;fill:#BDC8D1;enable-background:new    ;}
	.st15{opacity:0.619;fill:#B7C4CD;enable-background:new    ;}
	.st16{opacity:0.6667;fill:#B1C0CA;enable-background:new    ;}
	.st17{opacity:0.7143;fill:#ABBBC6;enable-background:new    ;}
	.st18{opacity:0.7619;fill:#A5B7C3;enable-background:new    ;}
	.st19{opacity:0.8095;fill:#9FB3BF;enable-background:new    ;}
	.st20{opacity:0.8571;fill:#99AFBB;enable-background:new    ;}
	.st21{opacity:0.9048;fill:#93ABB8;enable-background:new    ;}
	.st22{opacity:0.9524;fill:#8DA7B4;enable-background:new    ;}
	.st23{fill:#87A3B1;}
	.st24{display:none;fill:#FFFFFF;fill-opacity:0;}
	.st25{display:none;opacity:4.761905e-02;fill:#FAFBFC;enable-background:new    ;}
	.st26{display:none;opacity:9.523810e-02;fill:#F4F6F8;enable-background:new    ;}
	.st27{display:none;opacity:0.1429;fill:#EFF1F4;enable-background:new    ;}
	.st28{display:none;opacity:0.1905;fill:#E9ECF0;enable-background:new    ;}
	.st29{display:none;opacity:0.2381;fill:#E3E8EC;enable-background:new    ;}
	.st30{display:none;opacity:0.2857;fill:#DEE3E8;enable-background:new    ;}
	.st31{display:none;opacity:0.3333;fill:#D8DEE4;enable-background:new    ;}
	.st32{display:none;opacity:0.381;fill:#D3DAE0;enable-background:new    ;}
	.st33{display:none;opacity:0.4286;fill:#CDD5DC;enable-background:new    ;}
	.st34{display:none;opacity:0.4762;fill:#C8D1D9;enable-background:new    ;}
	.st35{display:none;opacity:0.5714;fill:#BDC8D1;enable-background:new    ;}
	.st36{display:none;opacity:0.619;fill:#B7C4CD;enable-background:new    ;}
	.st37{display:none;opacity:0.6667;fill:#B1C0CA;enable-background:new    ;}
	.st38{display:none;opacity:0.8571;fill:#99AFBB;enable-background:new    ;}
	.st39{display:none;opacity:0.9048;fill:#93ABB8;enable-background:new    ;}
	.st40{display:none;opacity:0.9524;fill:#8DA7B4;enable-background:new    ;}
	.st41{display:none;fill:#87A3B1;}
	.st42{fill:#FFE3AC;}
	.st43{fill:url(#SVGID_1_);}
	.st44{fill:url(#SVGID_00000000910475028757114890000005262889557214487708_);}
	.st45{fill:url(#SVGID_00000029025902400044600600000004361261778378474906_);}
	.st46{fill:url(#SVGID_00000103227545679552403240000000586369182522950534_);}
	.st47{fill:url(#SVGID_00000128443536885274205660000006294209299883963288_);}
	.st48{fill:url(#SVGID_00000026164496237269623090000004809663964176572344_);}
	.st49{fill:url(#SVGID_00000071518194044144558630000000247548177277048217_);}
	.st50{fill:url(#SVGID_00000042702183176373266910000014470808978260537273_);}
	.st51{fill:url(#SVGID_00000040548704532507661730000006543878035045177473_);}
	.st52{fill:url(#SVGID_00000023973352265300367050000015046267480362548864_);}
	.st53{fill:url(#SVGID_00000042700992511462256630000004901020187402416805_);}
	.st54{fill:url(#SVGID_00000025416470392740695680000017362698441012829068_);}
	.st55{fill:url(#SVGID_00000167386058485530454650000006019938472205960108_);}
	.st56{fill:url(#SVGID_00000122694290510050865500000013554067317803254930_);}
	.st57{fill:url(#SVGID_00000133505369423690815870000013478978801832464031_);}
	.st58{fill:url(#SVGID_00000134951956781487808400000018370820710690067604_);}
	.st59{fill:url(#SVGID_00000082332214544863878580000014148333915807414186_);}
</style>
<g class="st0">
	<g class="st1">
		<path class="st2" d="M42.1,26.4c-3.5-1.3-3.8-4.9-0.6-7.9c1.7-1.6,4.4-2.5,7.6-2c3.5,0.5,5,3.3,2.7,6.2
			C49.6,25.7,45.4,27.7,42.1,26.4z"/>
		<path class="st3" d="M42.2,26.3c-3.5-1.2-3.7-4.8-0.6-7.6c1.7-1.5,4.3-2.4,7.5-1.9c3.4,0.5,4.8,3.2,2.6,6.1
			C49.5,25.5,45.5,27.4,42.2,26.3z"/>
		<path class="st4" d="M42.4,26.1c-3.4-1.2-3.6-4.6-0.6-7.4c1.7-1.5,4.3-2.3,7.3-1.9c3.3,0.5,4.7,3.1,2.4,5.9
			C49.4,25.4,45.5,27.2,42.4,26.1z"/>
		<path class="st5" d="M42.5,26c-3.4-1.1-3.6-4.5-0.6-7.2c1.7-1.5,4.3-2.3,7.1-1.9c3.2,0.5,4.5,3,2.3,5.7C49.3,25.2,45.6,27,42.5,26
			z"/>
		<path class="st6" d="M42.6,25.8c-3.3-1-3.5-4.4-0.6-6.9c1.7-1.5,4.2-2.2,7-1.8c3.1,0.4,4.4,2.8,2.2,5.5
			C49.2,25.1,45.6,26.7,42.6,25.8z"/>
		<path class="st7" d="M42.7,25.6c-3.2-1-3.4-4.2-0.6-6.7c1.7-1.4,4.2-2.1,6.8-1.8c2.9,0.4,4.2,2.7,2.1,5.4
			C49.1,24.9,45.7,26.5,42.7,25.6z"/>
		<path class="st8" d="M42.9,25.5c-3.2-0.9-3.4-4.1-0.6-6.5c1.7-1.4,4.1-2.1,6.7-1.7c2.8,0.4,4.1,2.6,1.9,5.2
			C49,24.8,45.7,26.3,42.9,25.5z"/>
		<path class="st9" d="M43,25.3c-3.1-0.8-3.3-4-0.6-6.2c1.7-1.4,4.1-2,6.5-1.7c2.7,0.4,3.9,2.5,1.8,5C48.9,24.6,45.8,26.1,43,25.3z"
			/>
		<path class="st10" d="M43.1,25.1c-3-0.8-3.2-3.8-0.6-6c1.7-1.4,4-1.9,6.3-1.6c2.6,0.4,3.8,2.4,1.7,4.9
			C48.8,24.5,45.8,25.8,43.1,25.1z"/>
		<path class="st11" d="M43.2,25c-3-0.7-3.1-3.7-0.6-5.7c1.7-1.3,4-1.9,6.2-1.6c2.5,0.3,3.6,2.3,1.6,4.7
			C48.7,24.3,45.9,25.6,43.2,25z"/>
		<path class="st12" d="M43.4,24.8c-2.9-0.6-3.1-3.5-0.6-5.5c1.7-1.3,3.9-1.8,6-1.5c2.4,0.3,3.5,2.2,1.5,4.5
			C48.6,24.2,45.9,25.4,43.4,24.8z"/>
		<path class="st13" d="M43.5,24.7c-2.9-0.6-3-3.4-0.6-5.3c1.7-1.3,3.9-1.7,5.9-1.5c2.3,0.3,3.3,2.1,1.3,4.3
			C48.5,24,46,25.1,43.5,24.7z"/>
		<path class="st14" d="M43.6,24.5c-2.8-0.5-2.9-3.3-0.6-5c1.7-1.2,3.9-1.7,5.7-1.5c2.2,0.3,3.2,2,1.2,4.2
			C48.4,23.9,46,24.9,43.6,24.5z"/>
		<path class="st15" d="M43.7,24.3c-2.7-0.4-2.8-3.1-0.6-4.8c1.7-1.2,3.8-1.6,5.6-1.4c2.1,0.2,3,1.9,1.1,4
			C48.3,23.7,46.1,24.7,43.7,24.3z"/>
		<path class="st16" d="M43.9,24.2c-2.7-0.3-2.8-3-0.6-4.6c1.7-1.2,3.8-1.5,5.4-1.4c1.9,0.2,2.9,1.8,1,3.8
			C48.2,23.6,46.1,24.5,43.9,24.2z"/>
		<path class="st17" d="M44,24c-2.6-0.3-2.7-2.8-0.6-4.3c1.7-1.2,3.7-1.5,5.2-1.3c1.8,0.2,2.7,1.7,0.8,3.7
			C48.1,23.5,46.2,24.2,44,24z"/>
		<path class="st18" d="M44.1,23.8c-2.6-0.2-2.6-2.7-0.6-4.1c1.7-1.1,3.7-1.4,5.1-1.3c1.7,0.2,2.6,1.6,0.7,3.5
			C48,23.3,46.2,24,44.1,23.8z"/>
		<path class="st19" d="M44.2,23.7c-2.5-0.1-2.5-2.5-0.6-3.8c1.7-1.1,3.6-1.3,4.9-1.2c1.6,0.1,2.4,1.5,0.6,3.3
			C47.9,23.2,46.3,23.8,44.2,23.7z"/>
		<path class="st20" d="M44.3,23.5c-2.4,0-2.5-2.4-0.6-3.6c1.7-1.1,3.6-1.3,4.8-1.2c1.5,0.1,2.3,1.4,0.5,3.1
			C47.9,23,46.4,23.6,44.3,23.5z"/>
		<path class="st21" d="M44.5,23.4c-2.4,0-2.4-2.2-0.6-3.4c1.7-1,3.5-1.2,4.6-1.1c1.4,0.1,2.1,1.3,0.3,3
			C47.8,22.9,46.4,23.3,44.5,23.4z"/>
		<path class="st22" d="M44.6,23.2c-2.3,0.1-2.3-2.1-0.6-3.1s3.5-1.1,4.4-1.1c1.3,0.1,2,1.2,0.2,2.8C47.7,22.7,46.5,23.1,44.6,23.2z
			"/>
		<path class="st23" d="M44.7,23c-2.3,0.2-2.2-1.9-0.6-2.9c1.7-1,3.5-1.1,4.3-1.1c1.2,0,1.9,1.1,0.1,2.6
			C47.6,22.6,46.5,22.9,44.7,23z"/>
	</g>
	<g class="st1">
		<path class="st2" d="M37.9,17.2c-3.4,1.5-6.9-1.3-6.8-5.6c0.1-2.3,1.3-4.8,3.9-6.7c2.9-2.1,6.7,0.2,7.2,3.9
			C42.8,12.4,41.2,15.8,37.9,17.2z"/>
		<path class="st3" d="M37.9,17c-3.3,1.5-6.8-1.2-6.6-5.5c0.1-2.3,1.3-4.7,3.9-6.6c2.8-2,6.5,0.2,7,3.8C42.6,12.3,41,15.6,37.9,17z"
			/>
		<path class="st4" d="M37.8,16.8c-3.3,1.6-6.6-1.2-6.4-5.3c0.1-2.2,1.4-4.7,3.8-6.5c2.7-2,6.3,0.2,6.7,3.7
			C42.3,12.2,40.8,15.3,37.8,16.8z"/>
		<path class="st5" d="M37.7,16.5c-3.2,1.6-6.4-1.1-6.2-5.1c0.1-2.2,1.4-4.6,3.7-6.3c2.6-1.9,6,0.1,6.5,3.6
			C42.1,12.1,40.7,15.1,37.7,16.5z"/>
		<path class="st6" d="M37.7,16.3c-3.1,1.6-6.2-1-6-4.9c0.1-2.2,1.4-4.5,3.6-6.2c2.5-1.8,5.8,0.1,6.2,3.5
			C41.9,12,40.5,14.9,37.7,16.3z"/>
		<path class="st7" d="M37.6,16.1c-3,1.6-6-1-5.8-4.7c0.1-2.2,1.4-4.4,3.5-6c2.4-1.8,5.6,0,6,3.4C41.7,11.9,40.3,14.7,37.6,16.1z"/>
		<path class="st8" d="M37.5,15.9c-2.9,1.6-5.8-0.9-5.6-4.5c0.2-2.2,1.4-4.4,3.5-5.9c2.3-1.7,5.4,0,5.7,3.3
			C41.5,11.8,40.2,14.4,37.5,15.9z"/>
		<path class="st9" d="M37.5,15.7c-2.8,1.6-5.7-0.8-5.4-4.3c0.2-2.1,1.4-4.3,3.4-5.7c2.2-1.6,5.2,0,5.5,3.2
			C41.3,11.7,40,14.2,37.5,15.7z"/>
		<path class="st10" d="M37.4,15.4c-2.7,1.6-5.5-0.7-5.2-4.1c0.2-2.1,1.5-4.2,3.3-5.6c2.1-1.6,4.9-0.1,5.2,3.1
			C41,11.6,39.8,14,37.4,15.4z"/>
		<path class="st11" d="M37.4,15.2c-2.6,1.6-5.3-0.7-4.9-3.9c0.2-2.1,1.5-4.1,3.2-5.5c2-1.5,4.7-0.1,5,3
			C40.8,11.5,39.7,13.8,37.4,15.2z"/>
		<path class="st12" d="M37.3,15c-2.5,1.6-5.1-0.6-4.7-3.7c0.2-2.1,1.5-4,3.1-5.3c1.9-1.5,4.5-0.1,4.7,2.9
			C40.6,11.3,39.5,13.6,37.3,15z"/>
		<path class="st13" d="M37.2,14.8c-2.4,1.6-4.9-0.5-4.5-3.6c0.3-2.1,1.5-4,3.1-5.2c1.8-1.4,4.3-0.2,4.5,2.8
			C40.4,11.2,39.3,13.3,37.2,14.8z"/>
		<path class="st14" d="M37.2,14.5c-2.3,1.6-4.7-0.5-4.3-3.4c0.3-2,1.5-3.9,3-5c1.7-1.3,4-0.2,4.2,2.7
			C40.2,11.1,39.2,13.1,37.2,14.5z"/>
		<path class="st15" d="M37.1,14.3c-2.2,1.6-4.5-0.4-4.1-3.2c0.3-2,1.5-3.8,2.9-4.9c1.6-1.3,3.8-0.2,4,2.6C40,11,39,12.9,37.1,14.3z
			"/>
		<path class="st16" d="M37,14.1c-2.1,1.6-4.3-0.3-3.9-3c0.3-2,1.6-3.7,2.8-4.7c1.5-1.2,3.6-0.3,3.7,2.5
			C39.7,10.9,38.9,12.7,37,14.1z"/>
		<path class="st17" d="M37,13.9c-2,1.7-4.1-0.2-3.7-2.8c0.3-2,1.6-3.7,2.8-4.6c1.4-1.2,3.4-0.3,3.5,2.4
			C39.5,10.8,38.7,12.5,37,13.9z"/>
		<path class="st18" d="M36.9,13.6C35,15.3,33,13.4,33.4,11c0.4-2,1.6-3.6,2.7-4.5c1.3-1.1,3.2-0.4,3.2,2.3
			C39.3,10.7,38.5,12.3,36.9,13.6z"/>
		<path class="st19" d="M36.8,13.4C35,15.1,33,13.3,33.5,11c0.4-1.9,1.6-3.5,2.6-4.3c1.2-1,2.9-0.4,3,2.2
			C39.1,10.6,38.4,12,36.8,13.4z"/>
		<path class="st20" d="M36.8,13.2c-1.8,1.7-3.6,0-3.1-2.2c0.4-1.9,1.6-3.4,2.5-4.2c1.1-1,2.7-0.4,2.7,2.1
			C38.9,10.5,38.2,11.8,36.8,13.2z"/>
		<path class="st21" d="M36.7,13c-1.7,1.7-3.4,0-2.9-2c0.4-1.9,1.6-3.3,2.4-4c1-0.9,2.5-0.5,2.5,2C38.7,10.4,38,11.6,36.7,13z"/>
		<path class="st22" d="M36.6,12.8c-1.6,1.7-3.2,0.1-2.7-1.8c0.5-2,1.7-3.4,2.4-4c1-0.9,2.3-0.5,2.2,1.9
			C38.5,10.3,37.9,11.4,36.6,12.8z"/>
		<path class="st23" d="M36.6,12.5c-1.5,1.7-3,0.2-2.5-1.7c0.5-1.8,1.7-3.2,2.3-3.7c0.9-0.8,2.1-0.5,2,1.8
			C38.3,10.2,37.7,11.2,36.6,12.5z"/>
	</g>
	<g class="st1">
		<path class="st2" d="M27,13.2c-1.1,3.6-4.7,4.1-7.9,1.1c-1.7-1.6-2.8-4.2-2.5-7.4c0.3-3.5,4.4-4,7.5-1.9C27.2,7,28,9.9,27,13.2z"
			/>
		<path class="st3" d="M26.9,13.1c-1,3.5-4.6,4-7.7,1.1c-1.7-1.6-2.7-4.1-2.5-7.2C17,3.6,20.9,3.1,24,5.1C27,7.1,27.8,9.8,26.9,13.1
			z"/>
		<path class="st4" d="M26.7,13c-1,3.4-4.4,3.9-7.4,1.1c-1.6-1.5-2.7-4.1-2.4-7.1C17.2,3.7,21,3.2,24,5.2C26.7,7.1,27.6,9.8,26.7,13
			z"/>
		<path class="st5" d="M26.5,12.9c-0.9,3.4-4.3,3.8-7.2,1c-1.6-1.5-2.6-4-2.4-6.9c0.3-3.2,3.9-3.7,6.8-1.7
			C26.5,7.2,27.3,9.7,26.5,12.9z"/>
		<path class="st6" d="M26.3,12.8c-0.8,3.3-4.2,3.7-7,1c-1.6-1.5-2.5-4-2.3-6.8c0.2-3,3.7-3.6,6.6-1.6C26.3,7.2,27.1,9.7,26.3,12.8z
			"/>
		<path class="st7" d="M26.2,12.6c-0.8,3.2-4,3.7-6.7,1c-1.6-1.5-2.5-4-2.3-6.6c0.2-2.9,3.6-3.5,6.4-1.5
			C26.1,7.3,26.9,9.7,26.2,12.6z"/>
		<path class="st8" d="M26,12.5c-0.7,3.2-3.9,3.6-6.5,1C18,12,17.1,9.6,17.3,7.1c0.2-2.8,3.4-3.4,6.1-1.5C25.9,7.3,26.6,9.6,26,12.5
			z"/>
		<path class="st9" d="M25.8,12.4c-0.6,3.1-3.8,3.5-6.2,1c-1.5-1.5-2.3-3.9-2.1-6.3c0.2-2.7,3.2-3.3,5.9-1.4
			C25.7,7.4,26.4,9.6,25.8,12.4z"/>
		<path class="st10" d="M25.7,12.3c-0.6,3.1-3.6,3.4-6,1c-1.5-1.5-2.2-3.8-2.1-6.1c0.2-2.6,3.1-3.2,5.7-1.3
			C25.5,7.4,26.2,9.6,25.7,12.3z"/>
		<path class="st11" d="M25.5,12.2c-0.5,3-3.5,3.3-5.8,0.9c-1.5-1.5-2.2-3.8-2-6c0.2-2.5,2.9-3.1,5.4-1.2
			C25.3,7.5,25.9,9.5,25.5,12.2z"/>
		<path class="st12" d="M25.3,12.1c-0.4,2.9-3.4,3.3-5.5,0.9c-1.4-1.5-2.1-3.8-2-5.8C18,4.8,20.5,4.2,23,6
			C25.1,7.5,25.7,9.5,25.3,12.1z"/>
		<path class="st13" d="M25.1,12c-0.4,2.9-3.2,3.2-5.3,0.9c-1.4-1.5-2-3.7-1.9-5.7c0.1-2.3,2.6-2.9,5-1.1C24.8,7.6,25.5,9.5,25.1,12
			z"/>
		<path class="st14" d="M25,11.9c-0.3,2.8-3.1,3.1-5,0.9c-1.4-1.5-2-3.7-1.9-5.5c0.1-2.2,2.4-2.8,4.7-1C24.6,7.6,25.2,9.4,25,11.9z"
			/>
		<path class="st15" d="M24.8,11.8c-0.2,2.7-2.9,3-4.8,0.9c-1.3-1.5-1.9-3.6-1.8-5.4c0.1-2,2.2-2.7,4.5-0.9
			C24.4,7.7,25,9.4,24.8,11.8z"/>
		<path class="st16" d="M24.6,11.6c-0.2,2.7-2.8,2.9-4.6,0.9c-1.3-1.6-1.8-3.6-1.8-5.2c0.1-1.9,2.1-2.6,4.3-0.8
			C24.2,7.8,24.8,9.4,24.6,11.6z"/>
		<path class="st17" d="M24.4,11.5c-0.1,2.6-2.7,2.9-4.3,0.9c-1.3-1.6-1.7-3.6-1.7-5.1c0.1-1.8,1.9-2.5,4-0.8
			C24,7.8,24.5,9.3,24.4,11.5z"/>
		<path class="st18" d="M24.3,11.4c0,2.5-2.5,2.8-4.1,0.8c-1.3-1.6-1.7-3.5-1.6-4.9c0-1.7,1.8-2.4,3.8-0.7
			C23.8,7.9,24.3,9.3,24.3,11.4z"/>
		<path class="st19" d="M24.1,11.3c0.1,2.5-2.4,2.7-3.8,0.8c-1.2-1.6-1.6-3.5-1.6-4.8c0-1.6,1.6-2.3,3.6-0.6
			C23.6,7.9,24.1,9.3,24.1,11.3z"/>
		<path class="st20" d="M23.9,11.2c0.1,2.4-2.2,2.6-3.6,0.8c-1.2-1.6-1.5-3.5-1.5-4.6c0-1.5,1.4-2.2,3.4-0.5
			C23.4,7.9,23.8,9.2,23.9,11.2z"/>
		<path class="st21" d="M23.8,11.1c0.2,2.3-2.1,2.5-3.4,0.8c-1.2-1.6-1.5-3.4-1.5-4.5C18.9,6,20.2,5.3,22,7
			C23.2,8,23.6,9.2,23.8,11.1z"/>
		<path class="st22" d="M23.6,11c0.3,2.3-2,2.4-3.1,0.8s-1.4-3.4-1.4-4.3c0-1.3,1.1-2,2.9-0.4C23,8,23.4,9.2,23.6,11z"/>
		<path class="st23" d="M23.4,10.9c0.4,2.2-1.8,2.3-2.9,0.8c-1.1-1.6-1.3-3.3-1.4-4.2c0-1.2,1-1.9,2.7-0.3
			C22.8,8.1,23.1,9.1,23.4,10.9z"/>
	</g>
	<g class="st1">
		<path class="st2" d="M39.4,36.9c-1.8-3.3,0.5-6.1,4.9-6.3c2.3-0.1,5,1,7,3.5c2.3,2.7,1.5,5.7-2.2,6.4C45.5,41.3,41,40,39.4,36.9z"
			/>
		<path class="st3" d="M39.6,36.9c-1.8-3.2,0.4-6,4.7-6.1c2.3,0,4.9,1,6.9,3.4c2.2,2.6,1.5,5.5-2.2,6.2
			C45.5,41.1,41.2,39.9,39.6,36.9z"/>
		<path class="st4" d="M39.8,36.9C38,33.7,40.2,31,44.3,31c2.3,0,4.8,1.1,6.7,3.4c2.1,2.5,1.4,5.4-2.1,6
			C45.5,40.9,41.4,39.8,39.8,36.9z"/>
		<path class="st5" d="M40,36.8c-1.8-3,0.4-5.8,4.4-5.7c2.2,0,4.7,1.1,6.6,3.3c2.1,2.4,1.4,5.2-2.1,5.8C45.6,40.8,41.6,39.6,40,36.8
			z"/>
		<path class="st6" d="M40.2,36.8c-1.8-2.9,0.3-5.6,4.2-5.6c2.2,0,4.6,1.1,6.4,3.2c2,2.3,1.4,5-2.1,5.6
			C45.6,40.6,41.8,39.5,40.2,36.8z"/>
		<path class="st7" d="M40.4,36.7c-1.8-2.8,0.3-5.5,4.1-5.4c2.2,0.1,4.6,1.1,6.3,3.2c1.9,2.2,1.3,4.8-2.1,5.4
			C45.6,40.4,42,39.4,40.4,36.7z"/>
		<path class="st8" d="M40.6,36.7c-1.8-2.8,0.2-5.3,3.9-5.2c2.2,0,4.5,1.1,6.1,3.1c1.9,2.2,1.3,4.6-2,5.2
			C45.6,40.2,42.2,39.2,40.6,36.7z"/>
		<path class="st9" d="M40.8,36.7c-1.8-2.7,0.2-5.1,3.8-5c2.2,0.1,4.4,1.2,6,3c1.8,2.1,1.2,4.5-2,5C45.7,40.1,42.4,39.1,40.8,36.7z"
			/>
		<path class="st10" d="M41,36.6c-1.8-2.6,0.2-5,3.6-4.8c2.2,0.1,4.3,1.2,5.8,2.9c1.7,2,1.2,4.3-2,4.7C45.7,39.9,42.6,38.9,41,36.6z
			"/>
		<path class="st11" d="M41.2,36.6c-1.8-2.5,0.1-4.8,3.4-4.7c2.1,0.1,4.2,1.2,5.7,2.9c1.7,1.9,1.1,4.1-2,4.5
			C45.7,39.7,42.8,38.8,41.2,36.6z"/>
		<path class="st12" d="M41.4,36.6c-1.8-2.4,0.1-4.7,3.3-4.5c2.1,0.1,4.2,1.2,5.5,2.8c1.6,1.8,1.1,3.9-2,4.3
			C45.7,39.5,43,38.7,41.4,36.6z"/>
		<path class="st13" d="M41.6,36.5c-1.8-2.3,0-4.5,3.1-4.3c2.1,0.1,4.1,1.3,5.4,2.7c1.5,1.7,1.1,3.7-1.9,4.1
			C45.8,39.4,43.1,38.5,41.6,36.5z"/>
		<path class="st14" d="M41.8,36.5c-1.8-2.2,0-4.4,3-4.1c2.1,0.2,4,1.3,5.3,2.7c1.4,1.6,1,3.6-1.9,3.9
			C45.8,39.2,43.3,38.4,41.8,36.5z"/>
		<path class="st15" d="M42,36.4c-1.8-2.1,0-4.2,2.8-4c2.1,0.2,3.9,1.3,5.1,2.6c1.4,1.5,1,3.4-1.9,3.7C45.8,39,43.5,38.2,42,36.4z"
			/>
		<path class="st16" d="M42.2,36.4c-1.8-2-0.1-4,2.6-3.8c2,0.2,3.9,1.3,5,2.5c1.3,1.4,0.9,3.2-1.9,3.5
			C45.9,38.8,43.7,38.1,42.2,36.4z"/>
		<path class="st17" d="M42.4,36.4c-1.8-1.9-0.1-3.9,2.5-3.6c2,0.2,3.8,1.3,4.8,2.4c1.2,1.3,0.9,3-1.8,3.3
			C45.9,38.7,43.9,38,42.4,36.4z"/>
		<path class="st18" d="M42.6,36.3c-1.8-1.8-0.2-3.7,2.3-3.4c2,0.2,3.7,1.4,4.7,2.4c1.2,1.3,0.9,2.9-1.8,3.1
			C45.9,38.5,44.1,37.8,42.6,36.3z"/>
		<path class="st19" d="M42.8,36.3C41,34.5,42.6,32.7,45,33c2,0.3,3.6,1.4,4.5,2.3c1.1,1.2,0.8,2.7-1.8,2.9
			C45.9,38.3,44.3,37.7,42.8,36.3z"/>
		<path class="st20" d="M43,36.2c-1.8-1.6-0.2-3.4,2-3.1c2,0.3,3.5,1.4,4.4,2.2c1,1.1,0.8,2.5-1.8,2.7C46,38.2,44.5,37.6,43,36.2z"
			/>
		<path class="st21" d="M43.2,36.2c-1.8-1.5-0.3-3.2,1.8-2.9c1.9,0.3,3.5,1.4,4.2,2.2c1,1,0.8,2.4-1.7,2.5
			C46,38,44.7,37.4,43.2,36.2z"/>
		<path class="st22" d="M43.4,36.2c-1.8-1.4-0.3-3.1,1.7-2.7c1.9,0.3,3.4,1.4,4.1,2.1c0.9,0.9,0.7,2.2-1.7,2.2
			C46,37.8,44.9,37.3,43.4,36.2z"/>
		<path class="st23" d="M43.6,36.1c-1.8-1.3-0.4-2.9,1.5-2.5s3.3,1.5,3.9,2c0.9,0.8,0.7,2-1.7,2C46,37.6,45,37.2,43.6,36.1z"/>
	</g>
	<g class="st1">
		<path class="st2" d="M30.7,42.3c1.2-3.6,4.8-4,7.9-0.9c1.7,1.6,2.7,4.2,2.4,7.4c-0.4,3.5-3.1,5.1-6.2,2.9
			C31.9,49.6,29.7,45.6,30.7,42.3z"/>
		<path class="st3" d="M30.9,42.3c1.1-3.5,4.7-3.9,7.7-0.9c1.6,1.6,2.6,4.1,2.3,7.2c-0.3,3.4-3,4.9-6,2.8
			C32,49.5,29.9,45.6,30.9,42.3z"/>
		<path class="st4" d="M31,42.4c1-3.4,4.5-3.8,7.5-0.9c1.6,1.6,2.6,4.1,2.3,7.1c-0.3,3.3-2.9,4.8-5.9,2.7
			C32.1,49.3,30.1,45.6,31,42.4z"/>
		<path class="st5" d="M31.2,42.5c1-3.4,4.4-3.7,7.3-0.9c1.6,1.6,2.5,4,2.2,6.9c-0.3,3.1-2.8,4.7-5.7,2.6
			C32.2,49.2,30.3,45.6,31.2,42.5z"/>
		<path class="st6" d="M31.3,42.6c0.9-3.3,4.3-3.6,7.1-0.9c1.6,1.6,2.4,3.9,2.1,6.7c-0.3,3-2.7,4.5-5.5,2.5
			C32.3,49,30.5,45.6,31.3,42.6z"/>
		<path class="st7" d="M31.4,42.6c0.8-3.2,4.2-3.6,6.8-0.9c1.5,1.6,2.3,3.9,2.1,6.5c-0.3,2.9-2.6,4.4-5.4,2.4
			C32.4,48.9,30.7,45.6,31.4,42.6z"/>
		<path class="st8" d="M31.6,42.7c0.8-3.2,4.1-3.5,6.6-0.8c1.5,1.6,2.3,3.8,2,6.3c-0.3,2.8-2.5,4.3-5.2,2.3
			C32.6,48.7,30.9,45.6,31.6,42.7z"/>
		<path class="st9" d="M31.7,42.8c0.7-3.1,4-3.4,6.4-0.8c1.5,1.6,2.2,3.7,2,6.1c-0.2,2.7-2.4,4.1-5.1,2.2
			C32.7,48.6,31.1,45.6,31.7,42.8z"/>
		<path class="st10" d="M31.8,42.8c0.6-3,3.8-3.3,6.2-0.8c1.5,1.6,2.1,3.7,1.9,6c-0.2,2.6-2.3,4-4.9,2.1
			C32.8,48.4,31.3,45.6,31.8,42.8z"/>
		<path class="st11" d="M32,42.9c0.6-3,3.7-3.2,5.9-0.8c1.4,1.6,2,3.6,1.8,5.8c-0.2,2.5-2.3,3.9-4.8,2C32.9,48.3,31.5,45.6,32,42.9z
			"/>
		<path class="st12" d="M32.1,43c0.5-2.9,3.6-3.1,5.7-0.8c1.4,1.6,1.9,3.5,1.8,5.6c-0.2,2.4-2.2,3.7-4.6,1.9
			C33,48.1,31.7,45.6,32.1,43z"/>
		<path class="st13" d="M32.2,43c0.4-2.9,3.5-3,5.5-0.7c1.4,1.6,1.9,3.5,1.7,5.4c-0.2,2.3-2.1,3.6-4.4,1.8
			C33.1,48,31.9,45.6,32.2,43z"/>
		<path class="st14" d="M32.4,43.1c0.3-2.8,3.4-3,5.3-0.7c1.3,1.6,1.8,3.4,1.7,5.2c-0.2,2.2-2,3.5-4.3,1.6
			C33.2,47.8,32.1,45.5,32.4,43.1z"/>
		<path class="st15" d="M32.5,43.2c0.3-2.7,3.2-2.9,5.1-0.7c1.3,1.6,1.7,3.3,1.6,5.1c-0.1,2-1.9,3.3-4.1,1.5
			C33.3,47.7,32.3,45.5,32.5,43.2z"/>
		<path class="st16" d="M32.7,43.3c0.2-2.7,3.1-2.8,4.8-0.7c1.3,1.6,1.6,3.3,1.5,4.9c-0.1,1.9-1.8,3.2-4,1.4
			C33.4,47.5,32.5,45.5,32.7,43.3z"/>
		<path class="st17" d="M32.8,43.3c0.1-2.6,3-2.7,4.6-0.7c1.3,1.6,1.6,3.2,1.5,4.7c-0.1,1.8-1.7,3.1-3.8,1.3
			C33.6,47.4,32.7,45.5,32.8,43.3z"/>
		<path class="st18" d="M32.9,43.4c0.1-2.5,2.9-2.6,4.4-0.6c1.2,1.6,1.5,3.1,1.4,4.5c-0.1,1.7-1.6,3-3.7,1.2
			C33.7,47.3,32.9,45.5,32.9,43.4z"/>
		<path class="st19" d="M33.1,43.5c0-2.5,2.7-2.5,4.2-0.6c1.2,1.6,1.4,3.1,1.4,4.3c-0.1,1.6-1.6,2.8-3.5,1.1
			C33.8,47.1,33.1,45.5,33.1,43.5z"/>
		<path class="st20" d="M33.2,43.5c-0.1-2.4,2.6-2.4,3.9-0.6c1.2,1.6,1.3,3,1.3,4.1c0,1.5-1.5,2.7-3.3,1
			C33.9,47,33.3,45.5,33.2,43.5z"/>
		<path class="st21" d="M33.3,43.6c-0.2-2.4,2.5-2.3,3.7-0.6c1.1,1.6,1.3,2.9,1.2,4c0,1.4-1.4,2.6-3.2,0.9
			C34,46.8,33.5,45.5,33.3,43.6z"/>
		<path class="st22" d="M33.5,43.7c-0.2-2.3,2.4-2.2,3.5-0.6c1.1,1.6,1.2,2.8,1.2,3.8c0,1.3-1.3,2.5-3,0.8
			C34.1,46.7,33.7,45.5,33.5,43.7z"/>
		<path class="st23" d="M33.6,43.8c-0.3-2.2,2.2-2.1,3.3-0.5s1.1,2.8,1.1,3.6c0,1.2-1.2,2.3-2.9,0.7C34.2,46.5,33.9,45.5,33.6,43.8z
			"/>
	</g>
	<g class="st1">
		<path class="st2" d="M20.1,40.6c3.3-1.9,6.2,0.2,6.5,4.5c0.2,2.3-0.8,4.9-3.2,7.1c-2.6,2.3-5.7,1.7-6.6-1.9
			C16,46.8,17,42.4,20.1,40.6z"/>
		<path class="st3" d="M20.1,40.8c3.2-1.8,6.1,0.2,6.3,4.4c0.2,2.3-0.8,4.9-3.2,6.9c-2.5,2.3-5.5,1.7-6.4-1.9
			C16.1,46.8,17.2,42.5,20.1,40.8z"/>
		<path class="st4" d="M20.2,40.9c3-1.8,5.9,0.1,6.2,4.2c0.1,2.2-0.9,4.8-3.1,6.8c-2.5,2.2-5.4,1.7-6.2-1.8
			C16.3,46.7,17.3,42.6,20.2,40.9z"/>
		<path class="st5" d="M20.2,41c2.9-1.8,5.7,0.1,6,4c0.1,2.2-0.9,4.7-3,6.6c-2.4,2.1-5.2,1.6-6-1.8C16.4,46.7,17.4,42.7,20.2,41z"/>
		<path class="st6" d="M20.2,41.2c2.8-1.7,5.5,0,5.8,3.9c0.1,2.2-0.9,4.6-2.9,6.5c-2.3,2.1-5,1.6-5.7-1.8
			C16.6,46.6,17.6,42.8,20.2,41.2z"/>
		<path class="st7" d="M20.2,41.3c2.7-1.7,5.4-0.1,5.6,3.7c0.1,2.2-0.9,4.5-2.9,6.3c-2.2,2-4.8,1.6-5.5-1.7
			C16.8,46.6,17.7,42.9,20.2,41.3z"/>
		<path class="st8" d="M20.3,41.4c2.6-1.6,5.2-0.1,5.4,3.5c0.1,2.1-0.9,4.5-2.8,6.2c-2.1,1.9-4.7,1.5-5.3-1.7
			C16.9,46.5,17.8,43,20.3,41.4z"/>
		<path class="st9" d="M20.3,41.6c2.5-1.6,5-0.2,5.2,3.4c0.1,2.1-0.9,4.4-2.7,6c-2,1.9-4.5,1.5-5.1-1.7C17.1,46.5,18,43,20.3,41.6z"
			/>
		<path class="st10" d="M20.3,41.7c2.4-1.5,4.8-0.2,5,3.2c0.1,2.1-0.9,4.3-2.6,5.9c-1.9,1.8-4.3,1.5-4.9-1.7
			C17.2,46.4,18.1,43.1,20.3,41.7z"/>
		<path class="st11" d="M20.4,41.8c2.3-1.5,4.6-0.3,4.8,3c0.1,2.1-0.9,4.2-2.6,5.7c-1.8,1.7-4.1,1.4-4.7-1.6
			C17.4,46.4,18.3,43.2,20.4,41.8z"/>
		<path class="st12" d="M20.4,42c2.2-1.5,4.5-0.3,4.6,2.9c0.1,2.1-1,4.1-2.5,5.6c-1.7,1.6-4,1.4-4.5-1.6
			C17.6,46.3,18.4,43.3,20.4,42z"/>
		<path class="st13" d="M20.4,42.1c2-1.4,4.3-0.4,4.4,2.7c0.1,2-1,4.1-2.4,5.4c-1.7,1.6-3.8,1.4-4.3-1.6
			C17.7,46.3,18.5,43.4,20.4,42.1z"/>
		<path class="st14" d="M20.4,42.3c1.9-1.4,4.1-0.4,4.2,2.5c0.1,2-1,4-2.3,5.3c-1.6,1.5-3.6,1.3-4.1-1.5
			C17.9,46.2,18.7,43.5,20.4,42.3z"/>
		<path class="st15" d="M20.5,42.4c1.8-1.3,3.9-0.5,4,2.3c0.1,2-1,3.9-2.3,5.1c-1.5,1.4-3.4,1.3-3.9-1.5
			C18,46.2,18.8,43.6,20.5,42.4z"/>
		<path class="st16" d="M20.5,42.5c1.7-1.3,3.7-0.5,3.8,2.2c0.1,2-1,3.8-2.2,5c-1.4,1.4-3.3,1.3-3.7-1.5
			C18.2,46.1,18.9,43.7,20.5,42.5z"/>
		<path class="st17" d="M20.5,42.7c1.6-1.3,3.6-0.6,3.6,2c0.1,1.9-1,3.7-2.1,4.8c-1.3,1.3-3.1,1.2-3.5-1.5
			C18.3,46.1,19.1,43.8,20.5,42.7z"/>
		<path class="st18" d="M20.6,42.8c1.5-1.2,3.4-0.6,3.4,1.8c0,1.9-1,3.7-2,4.7c-1.2,1.2-2.9,1.2-3.3-1.4
			C18.5,46,19.2,43.9,20.6,42.8z"/>
		<path class="st19" d="M20.6,42.9c1.4-1.2,3.2-0.7,3.2,1.7c0,1.9-1.1,3.6-2,4.5c-1.1,1.1-2.8,1.2-3-1.4C18.7,46,19.3,44,20.6,42.9z
			"/>
		<path class="st20" d="M20.6,43.1c1.3-1.1,3-0.8,3.1,1.5c0,1.9-1.1,3.5-1.9,4.3c-1,1.1-2.6,1.2-2.8-1.4
			C18.8,45.9,19.5,44.1,20.6,43.1z"/>
		<path class="st21" d="M20.7,43.2c1.2-1.1,2.8-0.8,2.9,1.3c0,1.8-1.1,3.4-1.8,4.2c-1,1-2.4,1.1-2.6-1.3
			C19,45.9,19.6,44.2,20.7,43.2z"/>
		<path class="st22" d="M20.7,43.3c1-1,2.7-0.9,2.7,1.2c0,1.8-1.1,3.3-1.7,4c-0.9,0.9-2.3,1.1-2.4-1.3
			C19.1,45.8,19.7,44.3,20.7,43.3z"/>
		<path class="st23" d="M20.7,43.5c0.9-1,2.5-0.9,2.5,1c0,1.8-1.1,3.3-1.6,3.9c-0.8,0.9-2.1,1.1-2.2-1.3
			C19.3,45.8,19.9,44.4,20.7,43.5z"/>
	</g>
	<g class="st1">
		<path class="st2" d="M13.7,31.4c3.7,0.6,4.7,3.6,2.2,7.2c-1.3,1.9-4.3,2.8-7.5,3c-3.5,0.2-5.5-2.2-3.9-5.6
			C6.1,32.7,10.2,30.9,13.7,31.4z"/>
		<path class="st3" d="M13.6,31.5c3.6,0.5,4.6,3.4,2.2,6.9c-1.3,1.8-4.2,2.8-7.4,2.9C5,41.6,3,39.2,4.7,36
			C6.2,32.8,10.2,31,13.6,31.5z"/>
		<path class="st4" d="M13.5,31.6c3.5,0.5,4.5,3.3,2.1,6.6c-1.3,1.8-4.2,2.7-7.2,2.9c-3.3,0.2-5.2-2-3.6-5.3
			C6.4,32.9,10.3,31.2,13.5,31.6z"/>
		<path class="st5" d="M13.5,31.7c3.4,0.5,4.4,3.1,2.1,6.4c-1.3,1.8-4.1,2.7-7,2.8c-3.2,0.2-5.1-2-3.5-5.1
			C6.5,32.9,10.3,31.3,13.5,31.7z"/>
		<path class="st6" d="M13.4,31.8c3.3,0.4,4.3,3,2,6.1c-1.3,1.8-4,2.6-6.8,2.8c-3.1,0.2-4.9-1.9-3.3-5C6.7,33,10.3,31.4,13.4,31.8z"
			/>
		<path class="st7" d="M13.3,31.9c3.2,0.4,4.2,2.8,2,5.9c-1.3,1.8-4,2.6-6.6,2.7c-3,0.2-4.8-1.8-3.2-4.8C6.9,33,10.3,31.6,13.3,31.9
			z"/>
		<path class="st8" d="M13.2,32c3.1,0.4,4.1,2.7,1.9,5.6c-1.3,1.7-3.9,2.5-6.5,2.7c-2.9,0.2-4.6-1.7-3-4.6C7,33.1,10.4,31.7,13.2,32
			z"/>
		<path class="st9" d="M13.1,32.1c2.9,0.3,4,2.5,1.9,5.4c-1.3,1.7-3.8,2.5-6.3,2.7c-2.7,0.2-4.4-1.6-2.9-4.5
			C7.2,33.1,10.4,31.8,13.1,32.1z"/>
		<path class="st10" d="M13,32.2c2.8,0.3,3.9,2.4,1.8,5.1c-1.3,1.7-3.8,2.4-6.1,2.6c-2.6,0.2-4.3-1.5-2.8-4.3
			C7.3,33.2,10.4,32,13,32.2z"/>
		<path class="st11" d="M13,32.3c2.7,0.2,3.8,2.2,1.8,4.9c-1.2,1.7-3.7,2.4-5.9,2.6c-2.5,0.2-4.1-1.5-2.6-4.2
			C7.5,33.3,10.4,32.1,13,32.3z"/>
		<path class="st12" d="M12.9,32.4c2.6,0.2,3.7,2.1,1.7,4.6c-1.2,1.6-3.6,2.4-5.7,2.5c-2.4,0.2-4-1.4-2.5-4
			C7.6,33.3,10.5,32.2,12.9,32.4z"/>
		<path class="st13" d="M12.8,32.5c2.5,0.2,3.5,1.9,1.7,4.4c-1.2,1.6-3.6,2.3-5.6,2.5c-2.3,0.2-3.8-1.3-2.3-3.9
			C7.8,33.4,10.5,32.4,12.8,32.5z"/>
		<path class="st14" d="M12.7,32.6c2.4,0.1,3.4,1.8,1.6,4.1c-1.2,1.6-3.5,2.3-5.4,2.4c-2.2,0.2-3.7-1.2-2.2-3.7
			C8,33.4,10.5,32.5,12.7,32.6z"/>
		<path class="st15" d="M12.6,32.7c2.3,0.1,3.3,1.6,1.6,3.9C13,38.2,10.8,38.8,9,39c-2.1,0.2-3.5-1.1-2-3.6
			C8.1,33.5,10.5,32.6,12.6,32.7z"/>
		<path class="st16" d="M12.5,32.8c2.2,0.1,3.2,1.5,1.6,3.6c-1.2,1.6-3.4,2.2-5,2.3c-1.9,0.2-3.4-1-1.9-3.4
			C8.3,33.6,10.6,32.8,12.5,32.8z"/>
		<path class="st17" d="M12.5,32.9c2,0,3.1,1.3,1.5,3.4c-1.2,1.5-3.3,2.1-4.8,2.3c-1.8,0.2-3.2-1-1.8-3.3
			C8.4,33.6,10.6,32.9,12.5,32.9z"/>
		<path class="st18" d="M12.4,33c1.9,0,3,1.1,1.5,3.1c-1.2,1.5-3.3,2.1-4.7,2.2c-1.7,0.2-3-0.9-1.6-3.1C8.6,33.7,10.6,33,12.4,33z"
			/>
		<path class="st19" d="M12.3,33.1c1.8,0,2.9,1,1.4,2.9c-1.2,1.5-3.2,2-4.5,2.2c-1.6,0.2-2.9-0.8-1.5-3
			C8.7,33.7,10.6,33.2,12.3,33.1z"/>
		<path class="st20" d="M12.2,33.2c1.7-0.1,2.8,0.8,1.4,2.6c-1.2,1.5-3.1,2-4.3,2.1c-1.5,0.2-2.7-0.7-1.3-2.8
			C8.9,33.8,10.7,33.3,12.2,33.2z"/>
		<path class="st21" d="M12.1,33.3c1.6-0.1,2.7,0.7,1.3,2.4c-1.2,1.4-3.1,1.9-4.1,2.1C8,38,6.7,37.1,8.2,35.1
			C9,33.8,10.7,33.4,12.1,33.3z"/>
		<path class="st22" d="M12,33.4c1.5-0.2,2.6,0.5,1.3,2.1c-1.2,1.4-3,1.9-3.9,2c-1.3,0.2-2.5-0.6-1-2.5C9.2,33.9,10.7,33.6,12,33.4z
			"/>
		<path class="st23" d="M12,33.5c1.4-0.2,2.5,0.4,1.2,1.9c-1.1,1.4-2.9,1.9-3.8,2c-1.2,0.2-2.3-0.5-0.9-2.4
			C9.3,34,10.7,33.7,12,33.5z"/>
	</g>
	<g class="st1">
		<path class="st2" d="M40.8,32.7c-3.2-2.9-1.9-6.9,2.8-8.7c2.5-1,5.8-0.8,9,1.1c3.5,2.1,3.9,5.6,0.2,7.8
			C49.2,35,43.9,35.4,40.8,32.7z"/>
		<path class="st3" d="M41,32.6c-3.2-2.8-1.9-6.7,2.7-8.4c2.5-0.9,5.7-0.8,8.8,1.1c3.4,2,3.8,5.4,0.1,7.6C49.1,34.9,44,35.2,41,32.6
			z"/>
		<path class="st4" d="M41.3,32.5c-3.2-2.7-1.9-6.5,2.6-8.2c2.5-0.9,5.6-0.7,8.6,1c3.3,1.9,3.7,5.3,0.1,7.3
			C49.1,34.6,44.2,35,41.3,32.5z"/>
		<path class="st5" d="M41.5,32.3c-3.1-2.6-1.9-6.3,2.5-7.9c2.4-0.9,5.6-0.6,8.5,1c3.2,1.8,3.6,5.1,0,7.1
			C49.1,34.4,44.3,34.7,41.5,32.3z"/>
		<path class="st6" d="M41.7,32.2c-3.1-2.5-1.9-6.2,2.4-7.7c2.4-0.9,5.5-0.6,8.3,1c3.1,1.8,3.4,4.9-0.1,6.9
			C49,34.2,44.5,34.5,41.7,32.2z"/>
		<path class="st7" d="M41.9,32.1c-3-2.4-1.8-6,2.3-7.4c2.4-0.8,5.4-0.5,8.1,1c3,1.7,3.3,4.7-0.1,6.6C49,34,44.6,34.3,41.9,32.1z"/>
		<path class="st8" d="M42.1,32c-3-2.3-1.8-5.8,2.2-7.2c2.4-0.8,5.3-0.5,7.9,1c2.9,1.6,3.2,4.5-0.2,6.4C48.9,33.8,44.8,34.1,42.1,32
			z"/>
		<path class="st9" d="M42.3,31.8c-3-2.2-1.8-5.6,2.1-6.9c2.4-0.8,5.2-0.4,7.7,1c2.8,1.6,3.1,4.4-0.2,6.2
			C48.9,33.6,44.9,33.8,42.3,31.8z"/>
		<path class="st10" d="M42.5,31.7c-2.9-2.1-1.8-5.5,2-6.7c2.4-0.8,5.2-0.4,7.5,0.9c2.6,1.5,3,4.2-0.3,5.9
			C48.9,33.4,45.1,33.6,42.5,31.7z"/>
		<path class="st11" d="M42.7,31.6c-2.9-2-1.8-5.3,1.9-6.4c2.4-0.7,5.1-0.3,7.3,0.9c2.5,1.4,2.9,4-0.3,5.7
			C48.8,33.2,45.3,33.4,42.7,31.6z"/>
		<path class="st12" d="M42.9,31.5c-2.9-1.9-1.8-5.1,1.8-6.1c2.3-0.7,5-0.3,7.1,0.9c2.4,1.3,2.8,3.8-0.4,5.5
			C48.8,33,45.4,33.2,42.9,31.5z"/>
		<path class="st13" d="M43.1,31.4c-2.8-1.8-1.7-4.9,1.7-5.9c2.3-0.7,4.9-0.2,6.9,0.9c2.3,1.3,2.6,3.7-0.5,5.2
			C48.7,32.8,45.6,32.9,43.1,31.4z"/>
		<path class="st14" d="M43.3,31.2c-2.8-1.7-1.7-4.7,1.6-5.6c2.3-0.6,4.9-0.2,6.8,0.9c2.2,1.2,2.5,3.5-0.5,5
			C48.7,32.6,45.7,32.7,43.3,31.2z"/>
		<path class="st15" d="M43.5,31.1c-2.8-1.6-1.7-4.5,1.5-5.4c2.3-0.6,4.8-0.1,6.6,0.8c2.1,1.1,2.4,3.3-0.6,4.7
			C48.7,32.4,45.9,32.5,43.5,31.1z"/>
		<path class="st16" d="M43.7,31c-2.7-1.5-1.7-4.4,1.4-5.1c2.3-0.6,4.7-0.1,6.4,0.8c2,1,2.3,3.1-0.6,4.5C48.6,32.2,46,32.3,43.7,31z
			"/>
		<path class="st17" d="M43.9,30.9c-2.7-1.4-1.7-4.2,1.3-4.9c2.3-0.5,4.6,0,6.2,0.8c1.9,1,2.2,3-0.7,4.3
			C48.6,32,46.2,32.1,43.9,30.9z"/>
		<path class="st18" d="M44.1,30.8c-2.7-1.3-1.6-4,1.2-4.6c2.3-0.5,4.6,0,6,0.8c1.8,0.9,2.1,2.8-0.7,4
			C48.5,31.8,46.3,31.8,44.1,30.8z"/>
		<path class="st19" d="M44.3,30.6c-2.6-1.2-1.6-3.8,1.1-4.4c2.3-0.5,4.5,0.1,5.8,0.8c1.7,0.8,2,2.6-0.8,3.8
			C48.5,31.7,46.5,31.6,44.3,30.6z"/>
		<path class="st20" d="M44.5,30.5c-2.6-1.1-1.6-3.6,1-4.1c2.2-0.4,4.4,0.2,5.6,0.7c1.6,0.8,1.9,2.4-0.9,3.6
			C48.5,31.5,46.6,31.4,44.5,30.5z"/>
		<path class="st21" d="M44.7,30.4c-2.6-1-1.6-3.4,0.9-3.9c2.2-0.4,4.3,0.2,5.4,0.7c1.5,0.7,1.8,2.3-0.9,3.3
			C48.4,31.3,46.8,31.2,44.7,30.4z"/>
		<path class="st22" d="M44.9,30.3c-2.5-0.9-1.6-3.2,0.8-3.6c2.2-0.4,4.3,0.3,5.2,0.7c1.3,0.6,1.6,2.1-1,3.1
			C48.4,31.1,46.9,31,44.9,30.3z"/>
		<path class="st23" d="M45.1,30.2c-2.5-0.8-1.5-3,0.7-3.3s4.2,0.3,5.1,0.7c1.2,0.5,1.5,1.9-1,2.9C48.4,30.9,47.1,30.7,45.1,30.2z"
			/>
	</g>
	<g class="st1">
		<path class="st2" d="M40.4,22.4c-4.4,0-6.1-3.8-3.9-8.3c1.2-2.4,3.7-4.5,7.4-5.2c4-0.8,6.9,2.6,5.6,6.7
			C48.3,19.6,44.5,22.4,40.4,22.4z"/>
		<path class="st3" d="M40.5,22.2c-4.3,0.1-6-3.7-3.8-8c1.2-2.3,3.7-4.4,7.2-5.1c3.9-0.8,6.7,2.5,5.4,6.5
			C48.1,19.5,44.4,22.2,40.5,22.2z"/>
		<path class="st4" d="M40.5,22c-4.2,0.1-5.8-3.5-3.7-7.8c1.2-2.3,3.7-4.3,7.1-5c3.7-0.8,6.4,2.3,5.2,6.3
			C47.9,19.3,44.4,21.9,40.5,22z"/>
		<path class="st5" d="M40.6,21.8c-4.1,0.2-5.7-3.4-3.6-7.5c1.2-2.3,3.7-4.2,6.9-4.9c3.6-0.8,6.2,2.2,5,6.1
			C47.8,19.1,44.3,21.6,40.6,21.8z"/>
		<path class="st6" d="M40.6,21.5c-4,0.2-5.6-3.3-3.5-7.3c1.2-2.3,3.6-4.1,6.8-4.8c3.5-0.8,6,2.1,4.8,5.9
			C47.6,18.9,44.3,21.3,40.6,21.5z"/>
		<path class="st7" d="M40.7,21.3c-3.9,0.3-5.5-3.2-3.4-7c1.2-2.2,3.6-4,6.6-4.7c3.4-0.7,5.8,2,4.6,5.7
			C47.4,18.8,44.3,21.1,40.7,21.3z"/>
		<path class="st8" d="M40.8,21.1c-3.8,0.3-5.3-3.1-3.3-6.7c1.2-2.2,3.6-3.9,6.5-4.6c3.2-0.7,5.6,1.9,4.4,5.6
			C47.2,18.6,44.2,20.8,40.8,21.1z"/>
		<path class="st9" d="M40.8,20.9c-3.7,0.4-5.2-2.9-3.2-6.5c1.2-2.2,3.6-3.8,6.3-4.4c3.1-0.7,5.4,1.8,4.1,5.4
			C47.1,18.4,44.2,20.5,40.8,20.9z"/>
		<path class="st10" d="M40.9,20.6c-3.6,0.4-5-2.8-3.1-6.2c1.2-2.1,3.6-3.7,6.2-4.3c3-0.7,5.2,1.7,3.9,5.2
			C46.9,18.3,44.1,20.3,40.9,20.6z"/>
		<path class="st11" d="M41,20.4c-3.5,0.5-4.9-2.7-3-6c1.2-2.1,3.5-3.6,6-4.2c2.8-0.7,4.9,1.6,3.7,5C46.7,18.1,44.1,20,41,20.4z"/>
		<path class="st12" d="M41,20.2c-3.4,0.5-4.8-2.6-2.9-5.7c1.2-2.1,3.5-3.6,5.9-4.1c2.7-0.6,4.7,1.5,3.5,4.8
			C46.5,17.9,44.1,19.7,41,20.2z"/>
		<path class="st13" d="M41.1,20c-3.3,0.6-4.6-2.5-2.8-5.5c1.3-2,3.5-3.5,5.7-4c2.6-0.6,4.5,1.4,3.3,4.6C46.4,17.8,44,19.5,41.1,20z
			"/>
		<path class="st14" d="M41.2,19.7c-3.2,0.6-4.5-2.3-2.7-5.2c1.3-2,3.5-3.4,5.6-3.9c2.4-0.6,4.3,1.3,3.1,4.5
			C46.2,17.6,44,19.2,41.2,19.7z"/>
		<path class="st15" d="M41.2,19.5c-3.1,0.7-4.4-2.2-2.6-4.9c1.3-2,3.4-3.3,5.4-3.8c2.3-0.6,4.1,1.2,2.9,4.3
			C46,17.4,43.9,18.9,41.2,19.5z"/>
		<path class="st16" d="M41.3,19.3c-3,0.7-4.2-2.1-2.5-4.7c1.3-2,3.4-3.2,5.3-3.7c2.2-0.6,3.9,1.1,2.7,4.1
			C45.8,17.2,43.9,18.7,41.3,19.3z"/>
		<path class="st17" d="M41.4,19.1c-2.9,0.8-4.1-2-2.4-4.4c1.3-1.9,3.4-3.1,5.1-3.5c2.1-0.5,3.7,1,2.5,3.9
			C45.7,17.1,43.9,18.4,41.4,19.1z"/>
		<path class="st18" d="M41.4,18.8c-2.8,0.8-3.9-1.8-2.3-4.2c1.3-1.9,3.4-3,5-3.4c1.9-0.5,3.5,0.9,2.3,3.7
			C45.5,16.9,43.8,18.1,41.4,18.8z"/>
		<path class="st19" d="M41.5,18.6c-2.8,0.9-3.8-1.7-2.2-3.9c1.3-1.9,3.4-2.9,4.8-3.3c1.8-0.5,3.3,0.8,2,3.5
			C45.3,16.7,43.8,17.9,41.5,18.6z"/>
		<path class="st20" d="M41.6,18.4c-2.7,0.9-3.6-1.6-2.1-3.7c1.4-1.8,3.3-2.8,4.6-3.2c1.7-0.5,3.1,0.7,1.8,3.4
			C45.2,16.6,43.8,17.6,41.6,18.4z"/>
		<path class="st21" d="M41.6,18.2c-2.6,1-3.5-1.5-2-3.4C41,13,43,12,44.1,11.7c1.5-0.5,2.9,0.6,1.6,3.2
			C45,16.4,43.7,17.4,41.6,18.2z"/>
		<path class="st22" d="M41.7,17.9c-2.5,1.1-3.4-1.3-1.9-3.2c1.4-1.8,3.3-2.7,4.3-3c1.4-0.5,2.7,0.5,1.4,3
			C44.8,16.2,43.7,17.1,41.7,17.9z"/>
		<path class="st23" d="M41.8,17.7c-2.4,1.1-3.2-1.2-1.8-2.9s3.3-2.6,4.2-2.9c1.3-0.4,2.5,0.4,1.2,2.8
			C44.7,16.1,43.6,16.8,41.8,17.7z"/>
	</g>
	<g class="st1">
		<path class="st2" d="M34,14.9c-3,3.1-7.8,2-9.6-2.6c-0.9-2.5-0.7-5.7,1.2-8.9C27.7-0.1,33,0,35.2,3.8C37.4,7.4,36.8,12,34,14.9z"
			/>
		<path class="st3" d="M33.9,14.7c-2.9,3.1-7.5,2-9.3-2.5c-0.9-2.4-0.7-5.6,1.2-8.7c2-3.3,7.1-3.3,9.3,0.4
			C37.1,7.4,36.5,11.8,33.9,14.7z"/>
		<path class="st4" d="M33.7,14.5c-2.8,3.1-7.3,2-9-2.5c-0.9-2.4-0.6-5.6,1.2-8.5c2-3.2,6.9-3.2,8.9,0.4
			C36.8,7.4,36.3,11.7,33.7,14.5z"/>
		<path class="st5" d="M33.5,14.4c-2.7,3-7.1,2-8.7-2.4C24,9.6,24.3,6.5,26,3.7c1.9-3.1,6.6-3.1,8.6,0.5C36.5,7.4,36,11.5,33.5,14.4
			z"/>
		<path class="st6" d="M33.4,14.2c-2.6,3-6.9,2-8.4-2.3c-0.8-2.4-0.5-5.4,1.1-8.2c1.8-3,6.3-3,8.3,0.5C36.2,7.5,35.7,11.4,33.4,14.2
			z"/>
		<path class="st7" d="M33.2,14c-2.5,3-6.7,1.9-8.1-2.2c-0.8-2.4-0.5-5.3,1.1-8c1.7-2.9,6.1-2.9,8,0.5C35.9,7.5,35.5,11.3,33.2,14z"
			/>
		<path class="st8" d="M33.1,13.8c-2.4,2.9-6.5,1.9-7.8-2.1c-0.8-2.4-0.4-5.3,1.1-7.8C28,1.1,32.2,1.1,34,4.5
			C35.7,7.5,35.2,11.1,33.1,13.8z"/>
		<path class="st9" d="M32.9,13.6c-2.3,2.9-6.2,1.9-7.5-2C24.7,9.2,25,6.4,26.5,4c1.6-2.7,5.6-2.7,7.3,0.6C35.4,7.5,35,11,32.9,13.6
			z"/>
		<path class="st10" d="M32.7,13.4c-2.2,2.9-6,1.9-7.2-1.9c-0.7-2.3-0.3-5.1,1-7.4c1.5-2.6,5.3-2.6,7,0.6
			C35.1,7.5,34.7,10.8,32.7,13.4z"/>
		<path class="st11" d="M32.6,13.2c-2.1,2.8-5.8,1.8-6.9-1.8c-0.7-2.3-0.3-5,1-7.2c1.5-2.5,5-2.5,6.7,0.7
			C34.8,7.5,34.4,10.7,32.6,13.2z"/>
		<path class="st12" d="M32.4,13c-2,2.8-5.6,1.8-6.6-1.7c-0.7-2.3-0.2-5,1-7c1.4-2.4,4.8-2.4,6.4,0.7C34.5,7.6,34.2,10.5,32.4,13z"
			/>
		<path class="st13" d="M32.3,12.8c-1.9,2.8-5.4,1.8-6.3-1.6c-0.6-2.3-0.2-4.9,1-6.9c1.2-2.2,4.4-2.3,6,0.8
			C34.2,7.6,33.9,10.4,32.3,12.8z"/>
		<path class="st14" d="M32.1,12.6c-1.8,2.7-5.1,1.7-6-1.5C25.5,8.8,26,6.3,27,4.5c1.2-2.2,4.3-2.3,5.8,0.8
			C34,7.6,33.6,10.3,32.1,12.6z"/>
		<path class="st15" d="M32,12.5c-1.6,2.7-4.9,1.7-5.7-1.4c-0.6-2.3-0.1-4.7,0.9-6.5c1.2-2.1,4-2.2,5.4,0.8
			C33.7,7.6,33.4,10.1,32,12.5z"/>
		<path class="st16" d="M31.8,12.3C30.3,15,27.1,14,26.4,11c-0.6-2.3,0-4.7,0.9-6.3c1.1-2,3.7-2.1,5.1,0.8
			C33.4,7.6,33.1,10,31.8,12.3z"/>
		<path class="st17" d="M31.6,12.1c-1.4,2.6-4.5,1.7-5.1-1.2c-0.5-2.3,0-4.6,0.9-6.1c1-1.9,3.5-2,4.8,0.9
			C33.1,7.6,32.9,9.8,31.6,12.1z"/>
		<path class="st18" d="M31.5,11.9c-1.3,2.6-4.2,1.6-4.8-1.2c-0.5-2.2,0.1-4.5,0.9-5.9c0.9-1.7,3.2-1.9,4.5,0.9
			C32.8,7.7,32.6,9.7,31.5,11.9z"/>
		<path class="st19" d="M31.3,11.7c-1.2,2.6-4,1.6-4.5-1.1c-0.5-2.2,0.2-4.4,0.8-5.7c0.9-1.6,3-1.8,4.2,0.9
			C32.6,7.7,32.3,9.5,31.3,11.7z"/>
		<path class="st20" d="M31.2,11.5c-1.1,2.6-3.8,1.6-4.3-1c-0.4-2.2,0.2-4.4,0.8-5.5c0.8-1.5,2.7-1.7,3.8,1
			C32.3,7.7,32.1,9.4,31.2,11.5z"/>
		<path class="st21" d="M31,11.3c-1,2.5-3.5,1.5-4-0.9c-0.4-2.2,0.3-4.3,0.8-5.4c0.7-1.4,2.5-1.7,3.5,1C32,7.7,31.8,9.3,31,11.3z"/>
		<path class="st22" d="M30.8,11.1c-0.9,2.5-3.3,1.5-3.7-0.8c-0.3-2.2,0.3-4.2,0.8-5.2c0.6-1.3,2.2-1.6,3.2,1
			C31.7,7.7,31.6,9.1,30.8,11.1z"/>
		<path class="st23" d="M30.7,10.9c-0.8,2.5-3.1,1.5-3.4-0.7s0.4-4.1,0.8-5c0.6-1.2,2-1.5,2.9,1.1C31.5,7.7,31.3,9,30.7,10.9z"/>
	</g>
	<g class="st1">
		<path class="st2" d="M23.9,20.2c-1,4.2-5.2,4.9-9.1,1.7c-2-1.7-3.5-4.6-3.4-8.3c0.1-4,3.1-6.1,6.8-3.9
			C22,11.8,24.9,16.2,23.9,20.2z"/>
		<path class="st3" d="M23.7,20c-1,4.1-5,4.9-8.8,1.7c-2-1.7-3.4-4.6-3.3-8.2c0.1-3.9,3-5.9,6.7-3.7C21.8,11.9,24.6,16.2,23.7,20z"
			/>
		<path class="st4" d="M23.5,19.9c-0.9,4-4.9,4.8-8.5,1.7c-2-1.7-3.3-4.5-3.2-8c0.1-3.8,2.9-5.7,6.5-3.6
			C21.7,12.1,24.3,16.2,23.5,19.9z"/>
		<path class="st5" d="M23.3,19.8c-0.8,3.9-4.7,4.7-8.2,1.6c-2-1.7-3.2-4.5-3.1-7.8c0.1-3.6,2.8-5.5,6.3-3.4
			C21.5,12.2,24.1,16.2,23.3,19.8z"/>
		<path class="st6" d="M23.1,19.7c-0.8,3.9-4.6,4.6-8,1.6c-1.9-1.7-3.2-4.5-3.1-7.7c0.1-3.5,2.7-5.3,6.1-3.2
			C21.4,12.3,23.8,16.1,23.1,19.7z"/>
		<path class="st7" d="M22.9,19.6c-0.7,3.8-4.4,4.5-7.7,1.6c-1.9-1.7-3.1-4.4-3-7.5c0.1-3.4,2.6-5.2,5.9-3.1
			C21.2,12.5,23.5,16.1,22.9,19.6z"/>
		<path class="st8" d="M22.7,19.5c-0.6,3.7-4.3,4.4-7.4,1.5c-1.9-1.7-3-4.4-2.9-7.3c0.1-3.3,2.5-5,5.8-2.9
			C21,12.6,23.2,16.1,22.7,19.5z"/>
		<path class="st9" d="M22.5,19.3c-0.5,3.6-4.1,4.3-7.1,1.5c-1.8-1.7-2.9-4.3-2.9-7.1c0.1-3.1,2.4-4.8,5.6-2.8
			C20.9,12.7,23,16.1,22.5,19.3z"/>
		<path class="st10" d="M22.3,19.2c-0.5,3.6-4,4.2-6.9,1.5c-1.8-1.7-2.8-4.3-2.8-7c0-3,2.3-4.6,5.4-2.6C20.7,12.9,22.7,16,22.3,19.2
			z"/>
		<path class="st11" d="M22.1,19.1c-0.4,3.5-3.8,4.1-6.6,1.4c-1.8-1.7-2.7-4.3-2.7-6.8c0-2.9,2.2-4.4,5.2-2.4
			C20.6,13,22.4,16,22.1,19.1z"/>
		<path class="st12" d="M21.9,19c-0.3,3.4-3.7,4-6.3,1.4c-1.7-1.7-2.6-4.2-2.6-6.6c0-2.7,2.1-4.2,5-2.3C20.4,13.1,22.1,16,21.9,19z"
			/>
		<path class="st13" d="M21.7,18.9c-0.2,3.3-3.5,3.9-6,1.4c-1.7-1.7-2.6-4.2-2.6-6.4c0-2.6,2-4,4.9-2.1
			C20.2,13.2,21.9,15.9,21.7,18.9z"/>
		<path class="st14" d="M21.4,18.7c-0.2,3.2-3.4,3.8-5.8,1.3c-1.7-1.7-2.5-4.1-2.5-6.3c0-2.5,1.9-3.9,4.7-1.9
			C20.1,13.4,21.6,15.9,21.4,18.7z"/>
		<path class="st15" d="M21.2,18.6c-0.1,3.2-3.2,3.7-5.5,1.3c-1.6-1.7-2.4-4.1-2.4-6.1c0-2.4,1.8-3.7,4.5-1.8
			C19.9,13.5,21.3,15.9,21.2,18.6z"/>
		<path class="st16" d="M21,18.5c0,3.1-3.1,3.5-5.2,1.3c-1.6-1.7-2.3-4.1-2.3-5.9c0-2.2,1.7-3.5,4.3-1.6
			C19.8,13.6,21.1,15.9,21,18.5z"/>
		<path class="st17" d="M20.8,18.4c0.1,3-2.9,3.4-4.9,1.2c-1.6-1.7-2.2-4-2.3-5.7c0-2.1,1.6-3.3,4.1-1.5
			C19.6,13.8,20.8,15.8,20.8,18.4z"/>
		<path class="st18" d="M20.6,18.3c0.1,2.9-2.7,3.3-4.7,1.2c-1.5-1.7-2.1-4-2.2-5.6c0-2,1.5-3.1,3.9-1.3
			C19.5,13.9,20.5,15.8,20.6,18.3z"/>
		<path class="st19" d="M20.4,18.2c0.2,2.9-2.6,3.2-4.4,1.2c-1.5-1.7-2.1-3.9-2.1-5.4c-0.1-1.8,1.4-3,3.8-1.1
			C19.3,14,20.2,15.8,20.4,18.2z"/>
		<path class="st20" d="M20.2,18c0.3,2.8-2.4,3.1-4.1,1.1c-1.5-1.7-2-3.9-2-5.2c-0.1-1.7,1.3-2.8,3.6-1C19.1,14.1,20,15.8,20.2,18z"
			/>
		<path class="st21" d="M20,17.9c0.4,2.7-2.3,3-3.8,1.1c-1.4-1.7-1.9-3.8-2-5.1c-0.1-1.6,1.2-2.6,3.4-0.8C19,14.3,19.7,15.7,20,17.9
			z"/>
		<path class="st22" d="M19.8,17.8c0.5,2.6-2.1,2.9-3.6,1.1c-1.4-1.7-1.8-3.8-1.9-4.9c-0.1-1.5,1.1-2.4,3.2-0.6
			C18.8,14.4,19.4,15.7,19.8,17.8z"/>
		<path class="st23" d="M19.6,17.7c0.5,2.5-1.9,2.8-3.3,1C15,17,14.6,15,14.5,14c-0.1-1.3,1-2.3,3-0.5
			C18.7,14.5,19.2,15.7,19.6,17.7z"/>
	</g>
	<g class="st1">
		<path class="st2" d="M13.4,49.4c-4.4,0.2-6.3-3.5-4.3-8.1c1-2.4,3.5-4.6,7.1-5.6c3.9-1,7.3,1.5,6.3,5.6S17.4,49.2,13.4,49.4z"/>
		<path class="st3" d="M13.4,49.2c-4.3,0.3-6.1-3.3-4.2-7.8c1.1-2.4,3.5-4.6,7-5.5c3.8-1,7.1,1.4,6.1,5.5
			C21.3,45.3,17.4,48.9,13.4,49.2z"/>
		<path class="st4" d="M13.5,48.9c-4.2,0.3-6-3.2-4.1-7.6c1.1-2.4,3.4-4.5,6.8-5.4c3.7-1,6.9,1.3,5.8,5.3
			C21.1,45.2,17.3,48.7,13.5,48.9z"/>
		<path class="st5" d="M13.5,48.7c-4.1,0.4-5.9-3.1-4-7.3c1.1-2.3,3.4-4.4,6.7-5.2c3.6-1,6.6,1.3,5.6,5.2
			C20.9,45.1,17.3,48.4,13.5,48.7z"/>
		<path class="st6" d="M13.6,48.5c-4,0.4-5.7-3-3.9-7.1c1.1-2.3,3.4-4.3,6.5-5.1c3.4-0.9,6.4,1.2,5.4,5.1
			C20.7,44.9,17.2,48.1,13.6,48.5z"/>
		<path class="st7" d="M13.6,48.3c-3.9,0.5-5.6-2.9-3.7-6.8c1.1-2.3,3.4-4.2,6.4-5c3.3-0.9,6.2,1.2,5.1,4.9
			C20.5,44.8,17.2,47.8,13.6,48.3z"/>
		<path class="st8" d="M13.7,48c-3.8,0.5-5.5-2.8-3.6-6.6c1.1-2.3,3.4-4.1,6.2-4.9c3.2-0.9,5.9,1.1,4.9,4.8
			C20.3,44.7,17.1,47.6,13.7,48z"/>
		<path class="st9" d="M13.7,47.8c-3.7,0.5-5.3-2.7-3.5-6.3c1.1-2.2,3.4-4,6.1-4.8c3.1-0.9,5.7,1.1,4.7,4.7
			C20.1,44.6,17.1,47.3,13.7,47.8z"/>
		<path class="st10" d="M13.8,47.6c-3.6,0.6-5.2-2.6-3.4-6.1c1.1-2.2,3.3-3.9,5.9-4.6c2.9-0.8,5.5,1,4.4,4.5
			C19.9,44.4,17,47,13.8,47.6z"/>
		<path class="st11" d="M13.9,47.4c-3.5,0.6-5-2.4-3.3-5.8c1.1-2.2,3.3-3.8,5.8-4.5c2.8-0.8,5.2,0.9,4.2,4.4
			C19.7,44.3,17,46.8,13.9,47.4z"/>
		<path class="st12" d="M13.9,47.1c-3.4,0.7-4.9-2.3-3.2-5.6c1.1-2.1,3.3-3.7,5.6-4.4c2.7-0.8,5,0.9,3.9,4.2
			C19.5,44.2,16.9,46.5,13.9,47.1z"/>
		<path class="st13" d="M14,46.9c-3.3,0.7-4.8-2.2-3.1-5.3c1.2-2.1,3.3-3.6,5.5-4.3c2.5-0.7,4.8,0.8,3.7,4.1
			C19.3,44.1,16.8,46.3,14,46.9z"/>
		<path class="st14" d="M14,46.7c-3.2,0.8-4.6-2.1-3-5.1c1.2-2.1,3.3-3.5,5.4-4.2c2.4-0.7,4.5,0.8,3.5,4C19.1,43.9,16.8,46,14,46.7z
			"/>
		<path class="st15" d="M14.1,46.4c-3.1,0.8-4.5-2-2.8-4.8c1.2-2,3.3-3.5,5.2-4c2.3-0.7,4.3,0.7,3.2,3.8
			C18.9,43.8,16.7,45.7,14.1,46.4z"/>
		<path class="st16" d="M14.1,46.2c-3,0.9-4.3-1.9-2.7-4.6c1.2-2,3.3-3.4,5.1-3.9c2.2-0.7,4.1,0.7,3,3.7
			C18.7,43.7,16.7,45.5,14.1,46.2z"/>
		<path class="st17" d="M14.2,46c-2.9,0.9-4.2-1.7-2.6-4.3c1.2-2,3.2-3.3,4.9-3.8c2-0.6,3.8,0.6,2.8,3.6
			C18.5,43.6,16.6,45.2,14.2,46z"/>
		<path class="st18" d="M14.2,45.8c-2.8,1-4-1.6-2.5-4.1c1.2-2,3.2-3.2,4.8-3.7c1.9-0.6,3.6,0.5,2.5,3.4
			C18.3,43.4,16.6,44.9,14.2,45.8z"/>
		<path class="st19" d="M14.3,45.5c-2.7,1-3.9-1.5-2.4-3.8c1.2-1.9,3.2-3.1,4.6-3.6c1.8-0.6,3.4,0.5,2.3,3.3
			C18.1,43.3,16.5,44.7,14.3,45.5z"/>
		<path class="st20" d="M14.3,45.3c-2.6,1.1-3.7-1.4-2.3-3.6c1.3-1.9,3.2-3,4.5-3.4c1.6-0.6,3.1,0.4,2.1,3.1
			C17.9,43.2,16.5,44.4,14.3,45.3z"/>
		<path class="st21" d="M14.4,45.1c-2.5,1.1-3.6-1.3-2.2-3.3c1.3-1.9,3.2-2.9,4.3-3.3c1.5-0.5,2.9,0.4,1.8,3
			C17.7,43.1,16.4,44.2,14.4,45.1z"/>
		<path class="st22" d="M14.5,44.8c-2.4,1.2-3.4-1.1-2.1-3c1.3-1.8,3.2-2.8,4.2-3.2c1.4-0.5,2.7,0.3,1.6,2.9
			C17.5,43,16.4,43.9,14.5,44.8z"/>
		<path class="st23" d="M14.5,44.6c-2.3,1.2-3.3-1-2-2.8s3.1-2.7,4-3.1c1.3-0.5,2.5,0.3,1.3,2.7C17.3,42.8,16.3,43.6,14.5,44.6z"/>
	</g>
	<g class="st1">
		<path class="st2" d="M3.9,34c-3.8-2.1-3.5-6.2,0.7-9.1c2.2-1.5,5.4-2.1,9-1c3.9,1.2,5.1,4.6,2,7.6C12.6,34.3,7.5,35.9,3.9,34z"/>
		<path class="st3" d="M4.1,33.8c-3.8-2-3.4-6.1,0.6-8.8c2.2-1.5,5.4-2.1,8.8-1c3.8,1.1,5,4.4,1.9,7.3C12.5,34.1,7.6,35.7,4.1,33.8z
			"/>
		<path class="st4" d="M4.3,33.6c-3.7-1.9-3.4-5.9,0.6-8.6c2.2-1.5,5.3-2,8.7-1c3.7,1.1,4.8,4.3,1.8,7.1
			C12.4,33.9,7.7,35.4,4.3,33.6z"/>
		<path class="st5" d="M4.4,33.5c-3.6-1.8-3.3-5.7,0.6-8.3c2.2-1.4,5.2-1.9,8.5-1c3.5,1,4.7,4.1,1.7,6.9
			C12.3,33.8,7.8,35.1,4.4,33.5z"/>
		<path class="st6" d="M4.6,33.3c-3.6-1.7-3.3-5.6,0.5-8c2.2-1.4,5.2-1.8,8.3-0.9c3.4,1,4.5,4,1.6,6.7C12.2,33.6,7.9,34.9,4.6,33.3z
			"/>
		<path class="st7" d="M4.8,33.1c-3.5-1.6-3.2-5.4,0.5-7.7c2.1-1.4,5.1-1.8,8.1-0.9c3.3,1,4.4,3.8,1.5,6.5
			C12.1,33.4,8,34.6,4.8,33.1z"/>
		<path class="st8" d="M4.9,33c-3.5-1.5-3.1-5.2,0.4-7.5c2.1-1.3,5.1-1.7,7.9-0.9c3.2,0.9,4.2,3.7,1.3,6.3
			C12.1,33.2,8.1,34.4,4.9,33z"/>
		<path class="st9" d="M5.1,32.8c-3.4-1.5-3.1-5.1,0.4-7.2c2.1-1.3,5-1.6,7.7-0.9c3,0.9,4,3.5,1.2,6C12,33,8.2,34.1,5.1,32.8z"/>
		<path class="st10" d="M5.3,32.6c-3.4-1.4-3-4.9,0.4-6.9c2.1-1.3,4.9-1.6,7.5-0.8c2.9,0.8,3.9,3.4,1.1,5.8
			C11.9,32.8,8.3,33.9,5.3,32.6z"/>
		<path class="st11" d="M5.4,32.5c-3.3-1.3-3-4.7,0.3-6.7c2.1-1.2,4.9-1.5,7.3-0.8c2.8,0.8,3.7,3.2,1,5.6
			C11.8,32.6,8.4,33.6,5.4,32.5z"/>
		<path class="st12" d="M5.6,32.3c-3.2-1.2-2.9-4.5,0.3-6.4c2.1-1.2,4.8-1.4,7.1-0.8c2.7,0.7,3.6,3.1,0.9,5.4
			C11.7,32.5,8.5,33.4,5.6,32.3z"/>
		<path class="st13" d="M5.8,32.2C2.6,31.1,2.9,27.8,6,26c2.1-1.2,4.8-1.4,7-0.8c2.6,0.7,3.4,2.9,0.8,5.2
			C11.6,32.3,8.6,33.1,5.8,32.2z"/>
		<path class="st14" d="M5.9,32c-3.1-1-2.8-4.2,0.2-5.8c2.1-1.2,4.7-1.3,6.8-0.7c2.4,0.6,3.3,2.8,0.7,5C11.5,32.1,8.7,32.9,5.9,32z"
			/>
		<path class="st15" d="M6.1,31.8c-3.1-0.9-2.7-4,0.2-5.6c2.1-1.1,4.6-1.2,6.6-0.7c2.3,0.6,3.1,2.7,0.6,4.8
			C11.5,31.9,8.8,32.6,6.1,31.8z"/>
		<path class="st16" d="M6.3,31.7c-3-0.8-2.7-3.8,0.1-5.3c2.1-1.1,4.6-1.1,6.4-0.7c2.2,0.6,3,2.5,0.5,4.5
			C11.4,31.7,8.8,32.4,6.3,31.7z"/>
		<path class="st17" d="M6.4,31.5c-3-0.7-2.6-3.7,0.1-5c2.1-1.1,4.5-1.1,6.2-0.7c2.1,0.5,2.8,2.4,0.3,4.3
			C11.3,31.5,8.9,32.1,6.4,31.5z"/>
		<path class="st18" d="M6.6,31.3c-2.9-0.6-2.5-3.5,0-4.8c2.1-1,4.4-1,6-0.6c1.9,0.5,2.7,2.2,0.2,4.1C11.2,31.4,9,31.9,6.6,31.3z"/>
		<path class="st19" d="M6.8,31.2c-2.8-0.5-2.5-3.3,0-4.5c2.1-1,4.4-0.9,5.8-0.6c1.8,0.4,2.5,2.1,0.1,3.9
			C11.1,31.2,9.1,31.6,6.8,31.2z"/>
		<path class="st20" d="M6.9,31c-2.8-0.4-2.4-3.1,0-4.2c2.1-0.9,4.3-0.9,5.6-0.6c1.7,0.4,2.4,1.9,0,3.7C11,31,9.2,31.4,6.9,31z"/>
		<path class="st21" d="M7.1,30.8c-2.7-0.3-2.3-2.9-0.1-3.9c2.1-0.9,4.3-0.8,5.5-0.6c1.6,0.3,2.2,1.8-0.1,3.5
			C10.9,30.8,9.3,31.1,7.1,30.8z"/>
		<path class="st22" d="M7.3,30.7C4.6,30.4,5,27.9,7.2,27c2.1-0.9,4.2-0.7,5.3-0.5c1.5,0.3,2.1,1.7-0.2,3.2
			C10.9,30.6,9.4,30.9,7.3,30.7z"/>
		<path class="st23" d="M7.5,30.5c-2.6-0.1-2.2-2.6-0.2-3.4c2.1-0.8,4.1-0.7,5.1-0.5c1.3,0.2,2,1.5-0.3,3
			C10.8,30.5,9.5,30.6,7.5,30.5z"/>
	</g>
	<g class="st1">
		<path class="st2" d="M35.3,42.1c-0.7-4.3,2.8-6.5,7.7-5.1c2.5,0.8,5,2.9,6.4,6.4c1.5,3.8-0.5,6.8-4.8,6.2
			C40.4,49.1,36,46.1,35.3,42.1z"/>
		<path class="st3" d="M35.5,42.2c-0.7-4.2,2.7-6.4,7.5-5c2.5,0.8,4.9,2.9,6.2,6.3c1.4,3.7-0.4,6.6-4.7,6
			C40.5,48.9,36.2,46,35.5,42.2z"/>
		<path class="st4" d="M35.7,42.2c-0.8-4.1,2.7-6.3,7.2-4.8c2.5,0.8,4.8,2.9,6.1,6.2c1.3,3.5-0.4,6.3-4.5,5.8
			C40.5,48.7,36.4,45.9,35.7,42.2z"/>
		<path class="st5" d="M35.9,42.2c-0.8-4,2.6-6.2,7-4.7c2.5,0.8,4.7,2.9,5.9,6c1.3,3.4-0.3,6.1-4.4,5.6
			C40.6,48.5,36.6,45.8,35.9,42.2z"/>
		<path class="st6" d="M36.1,42.2c-0.8-3.9,2.5-6.1,6.8-4.6c2.4,0.8,4.6,2.8,5.8,5.9c1.2,3.3-0.3,5.9-4.3,5.3
			C40.7,48.3,36.9,45.7,36.1,42.2z"/>
		<path class="st7" d="M36.3,42.2c-0.9-3.8,2.4-6,6.5-4.5c2.4,0.8,4.5,2.8,5.6,5.8c1.2,3.2-0.2,5.7-4.2,5.1
			C40.8,48.1,37.1,45.6,36.3,42.2z"/>
		<path class="st8" d="M36.5,42.2c-0.9-3.7,2.3-5.8,6.3-4.4c2.4,0.8,4.4,2.8,5.5,5.7c1.1,3.1-0.2,5.5-4,4.9
			C40.8,47.9,37.3,45.5,36.5,42.2z"/>
		<path class="st9" d="M36.7,42.2c-0.9-3.6,2.2-5.7,6.1-4.3c2.4,0.9,4.3,2.8,5.3,5.5c1.1,3-0.1,5.2-3.9,4.7
			C40.9,47.6,37.5,45.4,36.7,42.2z"/>
		<path class="st10" d="M36.9,42.2c-1-3.5,2.1-5.6,5.8-4.2c2.3,0.9,4.2,2.7,5.2,5.4c1,2.8-0.1,5-3.8,4.5
			C41,47.4,37.8,45.3,36.9,42.2z"/>
		<path class="st11" d="M37.1,42.2c-1-3.4,2-5.5,5.6-4.1c2.3,0.9,4.1,2.7,5,5.3c0.9,2.7,0,4.8-3.6,4.3C41.1,47.2,38,45.2,37.1,42.2z
			"/>
		<path class="st12" d="M37.3,42.2c-1-3.3,2-5.4,5.4-4c2.3,0.9,4,2.7,4.9,5.2c0.9,2.6,0,4.6-3.5,4.1C41.2,47,38.2,45.1,37.3,42.2z"
			/>
		<path class="st13" d="M37.5,42.2c-1.1-3.2,1.9-5.2,5.2-3.9c2.2,0.9,3.9,2.7,4.7,5c0.8,2.5,0.1,4.3-3.4,3.8
			C41.2,46.8,38.4,45,37.5,42.2z"/>
		<path class="st14" d="M37.7,42.2c-1.1-3.1,1.8-5.1,4.9-3.8c2.2,0.9,3.8,2.6,4.6,4.9c0.8,2.4,0.1,4.1-3.3,3.6
			C41.3,46.6,38.7,44.9,37.7,42.2z"/>
		<path class="st15" d="M37.9,42.2c-1.2-3,1.7-5,4.7-3.7c2.2,0.9,3.7,2.6,4.4,4.8c0.7,2.3,0.2,3.9-3.1,3.4
			C41.4,46.4,38.9,44.8,37.9,42.2z"/>
		<path class="st16" d="M38.1,42.2c-1.2-2.9,1.6-4.9,4.5-3.6c2.2,1,3.6,2.6,4.3,4.6c0.7,2.1,0.2,3.7-3,3.2
			C41.5,46.2,39.1,44.7,38.1,42.2z"/>
		<path class="st17" d="M38.3,42.2c-1.2-2.8,1.5-4.7,4.2-3.5c2.1,1,3.5,2.6,4.1,4.5c0.6,2,0.3,3.4-2.9,3
			C41.6,46,39.3,44.6,38.3,42.2z"/>
		<path class="st18" d="M38.5,42.2c-1.3-2.7,1.4-4.6,4-3.4c2.1,1,3.4,2.5,4,4.4c0.5,1.9,0.3,3.2-2.7,2.8
			C41.6,45.8,39.5,44.5,38.5,42.2z"/>
		<path class="st19" d="M38.7,42.3c-1.3-2.5,1.3-4.5,3.8-3.3c2.1,1,3.3,2.5,3.8,4.3s0.4,3-2.6,2.6C41.7,45.5,39.8,44.4,38.7,42.3z"
			/>
		<path class="st20" d="M38.9,42.3c-1.4-2.4,1.2-4.3,3.5-3.2c2,1,3.2,2.5,3.7,4.1c0.4,1.7,0.4,2.8-2.5,2.3
			C41.8,45.3,40,44.3,38.9,42.3z"/>
		<path class="st21" d="M39.1,42.3c-1.4-2.3,1.1-4.2,3.3-3.1c2,1.1,3.1,2.5,3.5,4s0.5,2.6-2.4,2.1C41.9,45.1,40.2,44.2,39.1,42.3z"
			/>
		<path class="st22" d="M39.2,42.3c-1.4-2.2,1-4.1,3.1-2.9c2,1.1,3,2.4,3.3,3.9c0.3,1.4,0.6,2.3-2.2,1.9
			C42,44.9,40.4,44.1,39.2,42.3z"/>
		<path class="st23" d="M39.4,42.3c-1.5-2.1,0.9-4,2.9-2.8c1.9,1.1,2.9,2.4,3.2,3.8c0.3,1.3,0.6,2.1-2.1,1.7
			C42,44.7,40.6,44,39.4,42.3z"/>
	</g>
	<g class="st1">
		<path class="st24" d="M33,41.3c-3.1-3-7-1.5-8.6,3.2c-0.8,2.5-0.5,5.7,1.5,8.8c2.3,3.4,5.9,3.6,7.9-0.2
			C35.8,49.5,35.9,44.2,33,41.3z"/>
		<path class="st25" d="M32.9,41.5c-3-3-6.9-1.5-8.4,3.1c-0.8,2.5-0.5,5.7,1.5,8.7c2.2,3.3,5.7,3.5,7.6-0.2
			C35.6,49.4,35.7,44.3,32.9,41.5z"/>
		<path class="st26" d="M32.8,41.7c-2.9-3-6.7-1.5-8.2,3c-0.8,2.5-0.4,5.6,1.5,8.5c2.1,3.1,5.4,3.4,7.4-0.3
			C35.3,49.3,35.5,44.4,32.8,41.7z"/>
		<path class="st27" d="M32.7,41.8c-2.8-2.9-6.6-1.6-8,2.8c-0.8,2.4-0.4,5.5,1.5,8.3c2.1,3,5.2,3.3,7.1-0.3
			C35.1,49.3,35.2,44.5,32.7,41.8z"/>
		<path class="st28" d="M32.6,42c-2.7-2.9-6.4-1.6-7.8,2.7c-0.7,2.4-0.4,5.4,1.5,8.1c2,2.9,5,3.2,6.9-0.3C34.9,49.2,35,44.7,32.6,42
			z"/>
		<path class="st29" d="M32.4,42.1c-2.6-2.9-6.3-1.6-7.5,2.6c-0.7,2.4-0.3,5.3,1.5,7.9c1.9,2.8,4.8,3.1,6.6-0.3
			C34.7,49.2,34.8,44.8,32.4,42.1z"/>
		<path class="st30" d="M32.3,42.3c-2.5-2.8-6.2-1.6-7.3,2.5c-0.7,2.4-0.3,5.2,1.5,7.7c1.9,2.7,4.6,3,6.4-0.4
			C34.5,49.1,34.6,44.9,32.3,42.3z"/>
		<path class="st31" d="M32.2,42.5c-2.4-2.8-6-1.6-7.1,2.3c-0.7,2.4-0.3,5.1,1.4,7.5c1.8,2.6,4.4,3,6.1-0.4
			C34.2,49,34.4,45,32.2,42.5z"/>
		<path class="st32" d="M32.1,42.6c-2.3-2.8-5.9-1.6-6.9,2.2c-0.6,2.4-0.2,5,1.4,7.3c1.7,2.5,4.2,2.9,5.9-0.4
			C34,49,34.2,45.1,32.1,42.6z"/>
		<path class="st33" d="M32,42.8c-2.2-2.8-5.7-1.6-6.7,2.1c-0.6,2.4-0.2,4.9,1.4,7.1c1.7,2.3,3.9,2.8,5.6-0.4
			C33.8,48.9,33.9,45.3,32,42.8z"/>
		<path class="st34" d="M31.9,42.9c-2.1-2.7-5.5-1.6-6.4,2c-0.6,2.3-0.1,4.8,1.4,6.9c1.6,2.2,3.7,2.7,5.4-0.4
			C33.6,48.9,33.7,45.4,31.9,42.9z"/>
		<path class="st13" d="M31,43c-2-2.7-4.6-1.5-5.4,2c-0.6,2.3-0.1,4.7,1.4,6.7c1.6,1.6,3,1.4,4.6-1.2C32.9,48.1,32.7,45.4,31,43z"/>
		<path class="st35" d="M31.7,43.3c-1.9-2.7-5.2-1.6-6,1.7c-0.5,2.3-0.1,4.6,1.4,6.5c1.5,2,3.3,2.5,4.9-0.5
			C33.1,48.7,33.3,45.6,31.7,43.3z"/>
		<path class="st36" d="M31.6,43.4c-1.8-2.6-5.1-1.6-5.8,1.6c-0.5,2.3,0,4.5,1.4,6.3c1.4,1.9,3.1,2.4,4.6-0.5
			C32.9,48.7,33.1,45.7,31.6,43.4z"/>
		<path class="st37" d="M31.5,43.6C29.9,41,26.6,42,26,45.1c-0.5,2.3,0,4.4,1.3,6.1c1.4,1.8,2.9,2.3,4.4-0.5
			C32.7,48.6,32.9,45.8,31.5,43.6z"/>
		<path class="st17" d="M31,43.7c-1.5-2.6-4.8-1.6-5.3,1.4c-0.4,2.3,0.1,4.3,1.3,5.9c1.3,1.7,2.7,2.2,4.1-0.6
			C32.1,48.5,32.3,45.9,31,43.7z"/>
		<path class="st18" d="M30.5,44.2c-1.4-2.6-4.6-1.6-5.1,1.2c-0.4,2.3,0.1,4.2,1.3,5.7c1.2,1.5,2.4,2.2,3.9-0.6
			C31.6,48.8,31.8,46.4,30.5,44.2z"/>
		<path class="st19" d="M31,43.6c-1.3-2.5-4.4-1.6-4.9,1.1c-0.4,2.2,0.1,4.1,1.3,5.5c1.2,1.4,2.2,2.1,3.6-0.6
			C32,47.9,32.1,45.7,31,43.6z"/>
		<path class="st38" d="M31,44.2c-1.2-2.5-4.3-1.6-4.7,1c-0.3,2.2,0.2,4,1.3,5.4c1.1,1.3,2,2,3.4-0.6C31.8,48.4,32,46.3,31,44.2z"/>
		<path class="st39" d="M30.9,44.4c-1.1-2.5-4.1-1.6-4.4,0.9c-0.3,2.2,0.2,3.9,1.3,5.2c1.1,1.2,1.8,1.9,3.1-0.6
			C31.6,48.3,31.8,46.4,30.9,44.4z"/>
		<path class="st40" d="M30.8,44.6c-1-2.5-4-1.6-4.2,0.8c-0.3,2.2,0.2,3.9,1.2,5s1.6,1.8,2.9-0.7C31.4,48.3,31.6,46.5,30.8,44.6z"/>
		<path class="st41" d="M30.7,44.7c-0.9-2.4-3.8-1.6-4,0.6c-0.2,2.2,0.3,3.8,1.2,4.8c0.9,1,1.4,1.7,2.6-0.7
			C31.2,48.2,31.4,46.6,30.7,44.7z"/>
	</g>
</g>
<g>
	<path class="st42" d="M30.9,7.8c0,3.1-2.9,5.6-2.9,5.6s-2.9-2.5-2.9-5.6S28,2.2,28,2.2S30.9,4.8,30.9,7.8z"/>
	<path class="st42" d="M30.9,46.8c0,3.1-2.9,5.6-2.9,5.6s-2.9-2.5-2.9-5.6s2.9-5.6,2.9-5.6S30.9,43.7,30.9,46.8z"/>
	<path class="st42" d="M8.3,24.5c3.1,0,5.6,2.9,5.6,2.9s-2.5,2.9-5.6,2.9s-5.6-2.9-5.6-2.9S5.2,24.5,8.3,24.5z"/>
	<path class="st42" d="M47.7,24.5c3.1,0,5.6,2.9,5.6,2.9s-2.5,2.9-5.6,2.9s-5.6-2.9-5.6-2.9S44.6,24.5,47.7,24.5z"/>
	<path class="st42" d="M12,39.1c2.2-2.2,6-1.9,6-1.9s0.3,3.8-2,6c-2.2,2.2-6,1.9-6,1.9S9.8,41.3,12,39.1z"/>
	<path class="st42" d="M39.9,11.5c2.2-2.2,6-1.9,6-1.9s0.3,3.8-2,6c-2.2,2.2-6,1.9-6,1.9S37.7,13.7,39.9,11.5z"/>
	<path class="st42" d="M39.9,43.1c-2.2-2.2-2-6-2-6s3.8-0.2,6,1.9c2.2,2.2,2,6,2,6S42.1,45.3,39.9,43.1z"/>
	<path class="st42" d="M12,15.6c-2.2-2.2-1.9-6-1.9-6s3.8-0.2,6,1.9c2.2,2.2,2,6,2,6S14.2,17.7,12,15.6z"/>
</g>
<g>
	<path class="st42" d="M45.3,36.9c-2.3-1-3.3-3.8-3.3-3.8s2.7-1.3,5.1-0.4c2.3,0.9,3.3,3.8,3.3,3.8S47.6,37.8,45.3,36.9z"/>
	<path class="st42" d="M8.9,22c-2.3-0.9-3.3-3.8-3.3-3.8s2.8-1.3,5.1-0.4s3.3,3.8,3.3,3.8S11.2,22.9,8.9,22z"/>
	<path class="st42" d="M22.6,8.5c1,2.3-0.4,5-0.4,5s-2.9-1-3.9-3.3s0.4-5,0.4-5S21.6,6.2,22.6,8.5z"/>
	<path class="st42" d="M37.7,44.5c1,2.3-0.4,5-0.4,5s-2.9-1-3.9-3.2c-1-2.3,0.4-5,0.4-5S36.7,42.2,37.7,44.5z"/>
	<path class="st42" d="M8.9,32.7c2.3-0.9,5.1,0.4,5.1,0.4s-1,2.9-3.3,3.8c-2.3,0.9-5.1-0.4-5.1-0.4S6.6,33.6,8.9,32.7z"/>
	<path class="st42" d="M45.3,17.8c2.3-0.9,5.1,0.4,5.1,0.4s-1,2.9-3.3,3.8S42,21.6,42,21.6S43,18.7,45.3,17.8z"/>
	<path class="st42" d="M18.3,44.5c1-2.3,3.9-3.3,3.9-3.3s1.4,2.7,0.4,5s-3.9,3.2-3.9,3.2S17.4,46.7,18.3,44.5z"/>
	<path class="st42" d="M33.4,8.5c1-2.3,3.9-3.3,3.9-3.3s1.4,2.7,0.4,5s-3.9,3.3-3.9,3.3S32.5,10.7,33.4,8.5z"/>
</g>
<g>
	
		<linearGradient id="SVGID_1_" gradientUnits="userSpaceOnUse" x1="26.1073" y1="51.9777" x2="31.7012" y2="46.3837" gradientTransform="matrix(1 0 0 -1 0 56.6929)">
		<stop  offset="0" style="stop-color:#FFD45E"/>
		<stop  offset="1" style="stop-color:#F59B1B"/>
	</linearGradient>
	<path class="st43" d="M31.8,7.5c0,3.1-2.9,5.6-2.9,5.6S26,10.6,26,7.5s2.9-5.6,2.9-5.6S31.8,4.4,31.8,7.5z"/>
	
		<linearGradient id="SVGID_00000052826140416573062810000002150952636274101385_" gradientUnits="userSpaceOnUse" x1="26.0886" y1="12.9963" x2="31.6812" y2="7.4037" gradientTransform="matrix(1 0 0 -1 0 56.6929)">
		<stop  offset="0" style="stop-color:#FFD45E"/>
		<stop  offset="1" style="stop-color:#F59B1B"/>
	</linearGradient>
	<path style="fill:url(#SVGID_00000052826140416573062810000002150952636274101385_);" d="M31.8,46.5c0,3.1-2.9,5.6-2.9,5.6
		S26,49.6,26,46.5s2.9-5.6,2.9-5.6S31.8,43.4,31.8,46.5z"/>
	
		<linearGradient id="SVGID_00000166637288494467498470000014890890011444282766_" gradientUnits="userSpaceOnUse" x1="2278.0005" y1="-103.833" x2="2272.3464" y2="-109.4872" gradientTransform="matrix(0 -1 -1 0 -97.4736 2302.168)">
		<stop  offset="0" style="stop-color:#FFD45E"/>
		<stop  offset="1" style="stop-color:#F59B1B"/>
	</linearGradient>
	<path style="fill:url(#SVGID_00000166637288494467498470000014890890011444282766_);" d="M9.2,24.1c3.1,0,5.6,2.9,5.6,2.9
		s-2.5,2.9-5.6,2.9S3.6,27,3.6,27S6.1,24.1,9.2,24.1z"/>
	
		<linearGradient id="SVGID_00000020372276741653337490000007124387409039165361_" gradientUnits="userSpaceOnUse" x1="2278.0364" y1="-143.2972" x2="2272.3833" y2="-148.9505" gradientTransform="matrix(0 -1 -1 0 -97.4736 2302.168)">
		<stop  offset="0" style="stop-color:#FFD45E"/>
		<stop  offset="1" style="stop-color:#F59B1B"/>
	</linearGradient>
	<path style="fill:url(#SVGID_00000020372276741653337490000007124387409039165361_);" d="M48.7,24.1c3.1,0,5.6,2.9,5.6,2.9
		s-2.5,2.9-5.6,2.9S43.1,27,43.1,27S45.6,24.1,48.7,24.1z"/>
	
		<linearGradient id="SVGID_00000181778871301833427130000009484136990596669058_" gradientUnits="userSpaceOnUse" x1="2665.4434" y1="-1262.3635" x2="2659.7041" y2="-1262.3635" gradientTransform="matrix(-0.7071 -0.7071 -0.7071 0.7071 1005.0749 2816.0671)">
		<stop  offset="0" style="stop-color:#FFD45E"/>
		<stop  offset="1" style="stop-color:#F59B1B"/>
	</linearGradient>
	<path style="fill:url(#SVGID_00000181778871301833427130000009484136990596669058_);" d="M13,38.7c2.2-2.2,6-1.9,6-1.9s0.3,3.8-2,6
		c-2.2,2.2-6,1.9-6,1.9S10.8,40.9,13,38.7z"/>
	
		<linearGradient id="SVGID_00000093863303505200209970000011861542022655151773_" gradientUnits="userSpaceOnUse" x1="2665.209" y1="-1301.5376" x2="2659.4722" y2="-1301.5376" gradientTransform="matrix(-0.7071 -0.7071 -0.7071 0.7071 1005.0749 2816.0671)">
		<stop  offset="0" style="stop-color:#FFD45E"/>
		<stop  offset="1" style="stop-color:#F59B1B"/>
	</linearGradient>
	<path style="fill:url(#SVGID_00000093863303505200209970000011861542022655151773_);" d="M40.9,11.2c2.2-2.2,6-1.9,6-1.9
		s0.3,3.8-2,6c-2.2,2.2-6,1.9-6,1.9S38.6,13.4,40.9,11.2z"/>
	
		<linearGradient id="SVGID_00000175304850118814607220000006925959354017528229_" gradientUnits="userSpaceOnUse" x1="963.562" y1="-2745.9451" x2="963.562" y2="-2734.7231" gradientTransform="matrix(-0.7071 0.7071 0.7071 0.7071 2661.9014 1297.0902)">
		<stop  offset="0" style="stop-color:#FFD45E"/>
		<stop  offset="1" style="stop-color:#F59B1B"/>
	</linearGradient>
	<path style="fill:url(#SVGID_00000175304850118814607220000006925959354017528229_);" d="M40.9,42.8c-2.2-2.2-2-6-2-6
		s3.8-0.3,6,1.9s2,6,2,6S43.1,45,40.9,42.8z"/>
	
		<linearGradient id="SVGID_00000149383753733631149930000016489027323130878647_" gradientUnits="userSpaceOnUse" x1="963.774" y1="-2785.1404" x2="963.774" y2="-2773.9175" gradientTransform="matrix(-0.7071 0.7071 0.7071 0.7071 2661.9014 1297.0902)">
		<stop  offset="0" style="stop-color:#FFD45E"/>
		<stop  offset="1" style="stop-color:#F59B1B"/>
	</linearGradient>
	<path style="fill:url(#SVGID_00000149383753733631149930000016489027323130878647_);" d="M13,15.2c-2.2-2.2-2-6-2-6s3.8-0.2,6,1.9
		c2.2,2.2,2,6,2,6S15.2,17.4,13,15.2z"/>
</g>
<g>
	
		<linearGradient id="SVGID_00000003797364884863634320000002653566498816753836_" gradientUnits="userSpaceOnUse" x1="43.6049" y1="25.3081" x2="49.4837" y2="19.4294" gradientTransform="matrix(1 0 0 -1 0 56.6929)">
		<stop  offset="0" style="stop-color:#FBBA37"/>
		<stop  offset="1" style="stop-color:#F59B1B"/>
	</linearGradient>
	<path style="fill:url(#SVGID_00000003797364884863634320000002653566498816753836_);" d="M45.6,36.4c-2.3-0.9-3.3-3.8-3.3-3.8
		s2.8-1.3,5.1-0.4c2.3,0.9,3.3,3.8,3.3,3.8S47.9,37.4,45.6,36.4z"/>
	
		<linearGradient id="SVGID_00000157295193934243890280000015231917090868441502_" gradientUnits="userSpaceOnUse" x1="7.1911" y1="40.2218" x2="13.0699" y2="34.343" gradientTransform="matrix(1 0 0 -1 0 56.6929)">
		<stop  offset="0" style="stop-color:#FBBA37"/>
		<stop  offset="1" style="stop-color:#F59B1B"/>
	</linearGradient>
	<path style="fill:url(#SVGID_00000157295193934243890280000015231917090868441502_);" d="M9.2,21.5c-2.3-0.9-3.3-3.8-3.3-3.8
		s2.8-1.3,5.1-0.4s3.3,3.8,3.3,3.8S11.5,22.5,9.2,21.5z"/>
	
		<linearGradient id="SVGID_00000117641782463116363050000000951676866370103486_" gradientUnits="userSpaceOnUse" x1="17.8097" y1="50.6952" x2="23.6597" y2="44.8452" gradientTransform="matrix(1 0 0 -1 0 56.6929)">
		<stop  offset="0" style="stop-color:#FBBA37"/>
		<stop  offset="1" style="stop-color:#F59B1B"/>
	</linearGradient>
	<path style="fill:url(#SVGID_00000117641782463116363050000000951676866370103486_);" d="M22.8,8c1,2.3-0.4,5-0.4,5s-2.9-1-3.9-3.2
		c-1-2.3,0.4-5,0.4-5S21.9,5.7,22.8,8z"/>
	
		<linearGradient id="SVGID_00000116227427685634095400000008791518986555450249_" gradientUnits="userSpaceOnUse" x1="32.9168" y1="14.7174" x2="38.7675" y2="8.8667" gradientTransform="matrix(1 0 0 -1 0 56.6929)">
		<stop  offset="0" style="stop-color:#FBBA37"/>
		<stop  offset="1" style="stop-color:#F59B1B"/>
	</linearGradient>
	<path style="fill:url(#SVGID_00000116227427685634095400000008791518986555450249_);" d="M37.9,44c1,2.3-0.4,5-0.4,5
		s-2.9-1-3.9-3.3s0.4-5,0.4-5S37,41.7,37.9,44z"/>
	
		<linearGradient id="SVGID_00000034796333769854119860000000596750925701184143_" gradientUnits="userSpaceOnUse" x1="8.3887" y1="24.1242" x2="11.8727" y2="20.6402" gradientTransform="matrix(1 0 0 -1 0 56.6929)">
		<stop  offset="0" style="stop-color:#FBBA37"/>
		<stop  offset="1" style="stop-color:#F59B1B"/>
	</linearGradient>
	<path style="fill:url(#SVGID_00000034796333769854119860000000596750925701184143_);" d="M9.2,32.2c2.3-0.9,5.1,0.4,5.1,0.4
		s-1,2.9-3.3,3.8C8.7,37.3,5.9,36,5.9,36S6.9,33.2,9.2,32.2z"/>
	
		<linearGradient id="SVGID_00000116950970878610120770000012773286514783571091_" gradientUnits="userSpaceOnUse" x1="44.7977" y1="39.0152" x2="48.2814" y2="35.5315" gradientTransform="matrix(1 0 0 -1 0 56.6929)">
		<stop  offset="0" style="stop-color:#FBBA37"/>
		<stop  offset="1" style="stop-color:#F59B1B"/>
	</linearGradient>
	<path style="fill:url(#SVGID_00000116950970878610120770000012773286514783571091_);" d="M45.6,17.3c2.3-0.9,5.1,0.4,5.1,0.4
		s-1,2.9-3.3,3.8s-5.1-0.4-5.1-0.4S43.3,18.3,45.6,17.3z"/>
	
		<linearGradient id="SVGID_00000155867324707811002820000004492301662047869866_" gradientUnits="userSpaceOnUse" x1="19.0033" y1="13.5097" x2="22.4704" y2="10.0426" gradientTransform="matrix(1 0 0 -1 0 56.6929)">
		<stop  offset="0" style="stop-color:#FBBA37"/>
		<stop  offset="1" style="stop-color:#F59B1B"/>
	</linearGradient>
	<path style="fill:url(#SVGID_00000155867324707811002820000004492301662047869866_);" d="M18.6,44c1-2.3,3.9-3.2,3.9-3.2
		s1.4,2.7,0.4,5S19,49.1,19,49.1S17.6,46.3,18.6,44z"/>
	
		<linearGradient id="SVGID_00000016781291255366322210000011916682388253139877_" gradientUnits="userSpaceOnUse" x1="34.1246" y1="49.5383" x2="37.5928" y2="46.0702" gradientTransform="matrix(1 0 0 -1 0 56.6929)">
		<stop  offset="0" style="stop-color:#FBBA37"/>
		<stop  offset="1" style="stop-color:#F59B1B"/>
	</linearGradient>
	<path style="fill:url(#SVGID_00000016781291255366322210000011916682388253139877_);" d="M33.7,8c1-2.3,3.9-3.2,3.9-3.2
		s1.4,2.7,0.4,5S34.1,13,34.1,13S32.7,10.3,33.7,8z"/>
</g>
<path class="st42" d="M44.1,27.3c0,8.8-7.2,15.9-16.1,15.9s-16.1-7.1-16.1-15.9S19.1,11.4,28,11.4S44.1,18.6,44.1,27.3z"/>
<linearGradient id="SVGID_00000110439403489680302020000009514829498333437596_" gradientUnits="userSpaceOnUse" x1="17.0724" y1="40.5704" x2="39.6659" y2="17.977" gradientTransform="matrix(1 0 0 -1 0 56.6929)">
	<stop  offset="0" style="stop-color:#FFD45E"/>
	<stop  offset="1" style="stop-color:#F59B1B"/>
</linearGradient>
<path style="fill:url(#SVGID_00000110439403489680302020000009514829498333437596_);" d="M44.5,27.4c0,8.8-7.2,15.9-16.1,15.9
	s-16.1-7.1-16.1-15.9s7.2-15.9,16.1-15.9S44.5,18.6,44.5,27.4z"/>
</svg>
