<?xml version="1.0" encoding="utf-8"?>
<!-- Generator: Adobe Illustrator 27.0.1, SVG Export Plug-In . SVG Version: 6.00 Build 0)  -->
<svg version="1.1" id="Ebene_1" xmlns="http://www.w3.org/2000/svg" xmlns:xlink="http://www.w3.org/1999/xlink" x="0px" y="0px"
	 viewBox="0 0 47.9 47.9" style="enable-background:new 0 0 47.9 47.9;" xml:space="preserve">
<style type="text/css">
	.st0{fill:#FFFFFF;fill-opacity:0;}
	.st1{opacity:4.761905e-02;fill:#F9FBFB;enable-background:new    ;}
	.st2{opacity:9.523810e-02;fill:#F3F6F7;enable-background:new    ;}
	.st3{opacity:0.1429;fill:#EEF2F4;enable-background:new    ;}
	.st4{opacity:0.1905;fill:#E8EDF0;enable-background:new    ;}
	.st5{opacity:0.2381;fill:#E2E9EC;enable-background:new    ;}
	.st6{opacity:0.2857;fill:#DCE4E8;enable-background:new    ;}
	.st7{opacity:0.3333;fill:#D7E0E5;enable-background:new    ;}
	.st8{opacity:0.381;fill:#D1DCE1;enable-background:new    ;}
	.st9{opacity:0.4286;fill:#CBD7DD;enable-background:new    ;}
	.st10{opacity:0.4762;fill:#C5D3D9;enable-background:new    ;}
	.st11{opacity:0.5238;fill:#C0CED6;enable-background:new    ;}
	.st12{opacity:0.5714;fill:#BACAD2;enable-background:new    ;}
	.st13{opacity:0.619;fill:#B4C5CE;enable-background:new    ;}
	.st14{opacity:0.6667;fill:#AEC1CA;enable-background:new    ;}
	.st15{opacity:0.7143;fill:#A9BDC7;enable-background:new    ;}
	.st16{opacity:0.7619;fill:#A3B8C3;enable-background:new    ;}
	.st17{opacity:0.8095;fill:#9DB4BF;enable-background:new    ;}
	.st18{opacity:0.8571;fill:#97AFBB;enable-background:new    ;}
	.st19{opacity:0.9048;fill:#92ABB8;enable-background:new    ;}
	.st20{opacity:0.9524;fill:#8CA6B4;enable-background:new    ;}
	.st21{fill:#86A2B0;}
	.st22{fill:#FFE3AB;}
	.st23{fill:url(#SVGID_1_);}
	.st24{opacity:2.857143e-02;fill:#F9FBFB;enable-background:new    ;}
	.st25{opacity:5.714286e-02;fill:#F3F6F7;enable-background:new    ;}
	.st26{opacity:8.571429e-02;fill:#EEF2F4;enable-background:new    ;}
	.st27{opacity:0.1143;fill:#E8EDF0;enable-background:new    ;}
	.st28{opacity:0.1429;fill:#E2E9EC;enable-background:new    ;}
	.st29{opacity:0.1714;fill:#DCE4E8;enable-background:new    ;}
	.st30{opacity:0.2;fill:#D7E0E5;enable-background:new    ;}
	.st31{opacity:0.2286;fill:#D1DCE1;enable-background:new    ;}
	.st32{opacity:0.2571;fill:#CBD7DD;enable-background:new    ;}
	.st33{opacity:0.2857;fill:#C5D3D9;enable-background:new    ;}
	.st34{opacity:0.3143;fill:#C0CED6;enable-background:new    ;}
	.st35{opacity:0.3429;fill:#BACAD2;enable-background:new    ;}
	.st36{opacity:0.3714;fill:#B4C5CE;enable-background:new    ;}
	.st37{opacity:0.4;fill:#AEC1CA;enable-background:new    ;}
	.st38{opacity:0.4286;fill:#A9BDC7;enable-background:new    ;}
	.st39{opacity:0.4571;fill:#A3B8C3;enable-background:new    ;}
	.st40{opacity:0.4857;fill:#9DB4BF;enable-background:new    ;}
	.st41{opacity:0.5143;fill:#97AFBB;enable-background:new    ;}
	.st42{opacity:0.5429;fill:#92ABB8;enable-background:new    ;}
	.st43{opacity:0.5714;fill:#8CA6B4;enable-background:new    ;}
	.st44{opacity:0.6;fill:#86A2B0;enable-background:new    ;}
	.st45{fill:url(#SVGID_00000021833817690564737070000014385342916739194515_);}
	.st46{fill:url(#SVGID_00000072981854212642936650000010172309120128672168_);}
	.st47{fill:url(#SVGID_00000114057415663487432200000001328624275883588010_);}
</style>
<g>
	<g>
		<g>
			<g>
				<path class="st0" d="M23.3,44.7C16.1,45.2,5.4,41.4,3,36.5c-2.4-4.7-0.5-8.4,3.3-9.6c2.4-0.7,8.3,3.5,13.6,3.3
					c7.1-0.2,8.6-2.3,11-5.6c1.9-2.6,11.4-0.7,10.5,6.1C40.2,39.6,32.1,44,23.3,44.7z"/>
				<path class="st1" d="M23.3,44.5c-6.9,0.5-17.4-3-19.8-7.9c-2.4-4.7-0.7-8.2,2.9-9.3c2.4-0.7,8.1,3.5,13.6,3.3
					c7.1-0.2,8.6-2.6,11-5.8c1.9-2.6,10.7-0.7,9.8,6.1C39.5,39.3,31.8,43.8,23.3,44.5z"/>
				<path class="st2" d="M23.3,44C16.6,44.5,6.6,41,4,36.5s-1-7.9,2.6-9.1c2.1-0.7,8.1,3.5,13.6,3.3c6.9-0.2,8.6-2.6,11-5.8
					c1.9-2.6,10.2-0.5,9.3,5.8C39,39.1,31.6,43.3,23.3,44z"/>
				<path class="st3" d="M23.3,43.8c-6.4,0.5-16.2-3-18.8-7.2c-2.6-4.4-1.2-7.5,2.1-8.6c2.1-0.7,7.9,3.5,13.6,3
					c6.9-0.5,8.6-2.8,11-5.8c1.7-2.6,9.8-0.2,8.6,5.8C38.5,38.9,31.4,42.8,23.3,43.8z"/>
				<path class="st4" d="M23.3,43.3C16.9,44,7.6,40.5,4.9,36.5c-2.6-4.4-1.4-7.5,1.7-8.4c2.1-0.7,7.9,3.5,13.6,3
					c6.7-0.5,8.8-2.8,11-5.8c1.7-2.3,9-0.2,8.1,5.8C37.8,38.4,31.1,42.6,23.3,43.3z"/>
				<path class="st5" d="M23.3,43.1c-6.2,0.7-15-2.6-17.9-6.5c-2.9-4.2-1.7-7,1.4-8.2c1.9-0.7,7.6,3.5,13.6,3
					c6.7-0.5,8.8-3,10.7-5.8c1.7-2.3,8.6,0,7.6,5.6C37.3,38.2,30.9,42.1,23.3,43.1z"/>
				<path class="st6" d="M23.3,42.6c-6,0.7-14.5-2.3-17.1-6.1c-2.9-4-2.1-6.8,1-7.9c1.9-0.7,7.4,3.5,13.3,3c6.4-0.5,8.8-3,10.7-5.8
					c1.7-2.3,8.1,0,6.9,5.6C36.6,37.9,30.7,41.7,23.3,42.6z"/>
				<path class="st7" d="M23.3,42.1c-5.7,0.7-14-2.3-16.7-5.8c-3.1-4-2.4-6.5,0.5-7.5c1.9-0.7,7.4,3.5,13.3,2.8
					c6.4-0.7,8.8-3.3,10.7-6.1c1.7-2.1,7.6,0.2,6.4,5.4C36.1,37.7,30.4,41.4,23.3,42.1z"/>
				<path class="st8" d="M23.3,41.9c-5.5,0.7-13.6-2.1-16.2-5.4c-3.1-3.7-2.6-6.3,0-7.2c1.7-0.7,7.1,3.5,13.3,2.8s8.8-3.3,10.7-6.1
					c1.4-2.1,6.9,0.2,5.7,5.4C35.7,37.5,30.2,41,23.3,41.9z"/>
				<path class="st9" d="M23.3,41.4c-5.5,0.7-12.9-2.1-15.7-5.1c-3.3-3.7-2.9-6.1-0.2-7c1.7-0.7,7.1,3.5,13.3,2.8
					c6.2-0.7,8.8-3.5,10.7-6.1c1.4-2.1,6.4,0.5,5.2,5.1C34.9,37,29.9,40.5,23.3,41.4z"/>
				<path class="st10" d="M23.5,41.2c-5.2,0.9-12.4-1.9-15.2-4.7c-3.3-3.5-3.1-5.8-0.7-6.8c1.7-0.7,6.9,3.5,13.3,2.8
					c6-0.7,8.8-3.5,10.7-6.1c1.4-2.1,5.7,0.2,4.5,4.9C34.5,36.8,29.7,40.3,23.5,41.2z"/>
				<path class="st11" d="M23.5,40.7c-5,0.9-11.9-1.6-14.8-4.4c-3.6-3.5-3.3-5.6-1.2-6.5c1.4-0.7,6.9,3.5,13.3,2.8
					c5.7-0.7,8.8-3.7,10.7-6.1c1.4-1.9,5.2,0.7,4,5.1C34,36.5,29.5,39.8,23.5,40.7z"/>
				<path class="st12" d="M23.5,40.5c-4.8,0.9-11.4-1.6-14.3-4c-3.6-3.3-3.6-5.4-1.4-6.1c1.4-0.7,6.7,3.5,13.1,2.6
					c5.7-0.7,9-3.7,10.7-6.1c1.4-1.9,4.8,0.7,3.3,4.9C33.3,36.3,29.2,39.3,23.5,40.5z"/>
				<path class="st13" d="M23.5,40c-4.5,0.9-11-1.4-13.8-3.7c-3.8-3.3-3.8-4.9-1.9-5.8c1.4-0.7,6.4,3.5,13.1,2.6
					c5.5-0.9,9-4,10.7-6.3c1.2-1.9,4.3,0.9,2.9,4.9C32.8,36.1,29,39.1,23.5,40z"/>
				<path class="st14" d="M23.5,39.8C19,40.7,13,38.4,10.2,36.3c-4-3-4-4.7-2.4-5.6c1.2-0.7,6.4,3.5,13.1,2.6c5.5-0.9,9-4,10.7-6.3
					c1.2-1.6,3.8,0.9,2.1,4.7C32.3,35.6,28.8,38.6,23.5,39.8z"/>
				<path class="st15" d="M23.5,39.3c-4.3,0.9-10-1.2-12.6-3c-4-2.8-4.3-4.4-2.6-5.4c1.2-0.7,6.2,3.5,13.1,2.6
					c5.2-0.9,9-4.2,10.5-6.3c1.2-1.6,3.3,1.2,1.7,4.7C31.8,35.4,28.5,38.2,23.5,39.3z"/>
				<path class="st16" d="M23.5,39.1c-4,0.9-9.5-0.9-12.1-2.8c-4.3-2.8-4.5-4.2-3.1-5.1c1.2-0.5,6.2,3.7,13.1,2.6
					c5.2-0.9,9-4.2,10.5-6.3c1.2-1.6,2.6,1.2,1,4.7C31.1,35.1,28.3,37.9,23.5,39.1z"/>
				<path class="st17" d="M23.5,38.6c-3.8,0.9-8.8-0.7-11.7-2.3c-4.5-2.6-5-4-3.6-4.7c1-0.5,6,3.7,13.1,2.3c5-0.9,9-4.4,10.5-6.3
					c1.2-1.6,2.1,1.4,0.5,4.4C30.7,34.9,28,37.5,23.5,38.6z"/>
				<path class="st18" d="M23.5,38.4c-3.6,1.2-8.3-0.5-11.2-2.1c-4.5-2.3-5.2-3.7-3.8-4.4c1-0.5,6,3.7,12.9,2.3
					c5-0.9,9-4.4,10.5-6.3c1-1.4,1.7,1.4-0.2,4.4C30.2,34.7,27.8,37,23.5,38.4z"/>
				<path class="st19" d="M23.5,37.9c-3.6,1.2-7.9-0.5-10.7-1.6c-4.8-2.1-5.5-3.5-4.3-4.2c1-0.5,5.7,3.7,12.9,2.3
					c4.8-0.9,9-4.7,10.5-6.5c1-1.4,1.2,1.6-0.7,4.2C29.7,34.2,27.6,36.8,23.5,37.9z"/>
				<path class="st20" d="M23.8,37.5c-3.3,1.2-7.4-0.2-10.2-1.4c-5-2.1-5.7-3.3-4.8-4c0.7-0.2,5.7,4,12.9,2.6
					c4.8-0.9,9.3-4.7,10.5-6.5c1-1.4,0.7,1.9-1.4,4.2C29.2,34,27.3,36.3,23.8,37.5z"/>
				<path class="st21" d="M23.8,37.2c-3.1,1.2-6.9,0-9.8-0.9c-5-1.9-6-3-5-3.7c0.7-0.5,5.5,3.7,12.9,2.1c4.5-0.9,9.3-4.9,10.5-6.5
					c1-1.2,0.2,1.9-1.9,4C28.8,33.7,27.1,35.8,23.8,37.2z"/>
			</g>
			<g>
				<path class="st0" d="M1.4,16.2c2.9-6.5,10.5-8.6,14.3-8.6c2.4,0,4.5,2.3,1,7.7c-3.8,6.1-1.9,11.2,1.2,13.8
					c3.6,3.3,8.3,3,7.4,5.8c-1.9,4.9-10.7,5.8-17.6,1.9C0.4,33-1.7,23.5,1.4,16.2z"/>
				<path class="st1" d="M1.6,16.4c2.6-6.5,10.2-8.9,13.8-8.9c2.1,0,4,2.3,0.7,7.7c-3.8,6.1-1.7,11,1.2,13.8
					c3.3,3.3,8.3,3.3,7.4,5.8c-1.7,4.7-10.5,5.6-17.4,1.9C0.7,33-1.5,23.7,1.6,16.4z"/>
				<path class="st2" d="M1.6,16.4c2.6-6.3,10.2-8.9,13.6-8.9c2.1,0,3.8,2.3,0.5,7.5c-3.8,6.3-1.7,11.2,1.2,14
					c3.3,3.3,8.3,3.3,7.4,5.8c-1.7,4.4-10.2,5.4-16.9,1.6C0.9,32.8-1.2,23.7,1.6,16.4z"/>
				<path class="st3" d="M1.6,16.7c2.6-6.5,10.2-9.1,13.3-8.9c1.9,0,3.6,2.1,0.2,7.5c-3.6,5.8-1.7,11,1.2,13.8
					c3.3,3.3,8.3,3.5,7.4,5.8c-1.7,4.2-10.2,5.1-16.4,1.4C0.9,32.8-1,23.7,1.6,16.7z"/>
				<path class="st4" d="M1.9,16.9c2.4-6.5,10-9.3,12.9-9.1C16.6,8,18,9.9,14.9,15c-3.8,6.1-1.7,11,1.2,14c3.1,3.3,8.3,3.5,7.6,5.8
					c-1.7,4-10,4.7-16.2,1.2C1.1,32.6-0.8,23.9,1.9,16.9z"/>
				<path class="st5" d="M1.9,17.1c2.4-6.5,9.8-9.3,12.6-9.1c1.9,0,2.9,1.9,0,7c-3.8,6.1-1.7,11,1.2,14c3.1,3,8.3,3.7,7.6,5.8
					c-1.4,3.7-9.8,4.4-15.7,0.9C1.1,32.6-0.5,23.9,1.9,17.1z"/>
				<path class="st6" d="M2.1,17.4c2.4-6.5,9.8-9.6,12.4-9.3c1.7,0.2,2.6,2.1-0.5,7c-3.6,6.1-1.7,11,1.2,14c3.1,3,8.3,4,7.6,5.8
					c-1.4,3.5-9.5,4.2-15.5,0.9C1.4,32.3-0.3,23.9,2.1,17.4z"/>
				<path class="st7" d="M2.1,17.6c2.4-6.8,9.5-9.8,12.1-9.3c1.4,0,2.1,1.9-0.7,6.8c-3.6,6.1-1.7,11,1.2,14s8.3,4,7.6,5.8
					c-1.4,3.3-9.3,4-15,0.7S-0.1,24.2,2.1,17.6z"/>
				<path class="st8" d="M2.3,17.8C4.5,11.1,11.9,8,14,8.3c1.4,0.2,1.9,1.9-1,6.8c-3.6,6.1-1.7,10.7,1.2,13.8s8.3,4.2,7.6,5.8
					c-1.2,3-9,3.7-14.8,0.5C1.6,32.1,0.2,24.2,2.3,17.8z"/>
				<path class="st9" d="M2.3,18.1c2.1-6.8,9.3-10,11.4-9.8c1.4,0.2,1.7,1.9-1.2,6.5c-3.6,6.1-1.7,11,1.2,14s8.3,4.2,7.6,5.8
					c-1.2,2.8-9,3.5-14.3,0.2C1.9,32.1,0.4,24.2,2.3,18.1z"/>
				<path class="st10" d="M2.3,18.3c2.1-7,9.3-10.3,11.2-9.8c1.2,0.2,1.2,1.6-1.4,6.5c-3.6,6.1-1.7,11,1.2,14s8.3,4.4,7.6,5.8
					c-1.2,2.6-8.8,3.3-14,0C2.1,31.9,0.7,24.4,2.3,18.3z"/>
				<path class="st11" d="M2.6,18.3c1.9-6.8,9-10.3,10.7-9.8c1.2,0.2,1,1.6-1.7,6.3c-3.6,6.3-1.4,11,1.2,14s8.3,4.4,7.6,5.8
					c-1.2,2.6-8.6,3-13.6,0C2.1,31.9,0.9,24.4,2.6,18.3z"/>
				<path class="st12" d="M2.6,18.5c1.9-6.8,9-10.5,10.7-10c1,0.5,0.5,1.6-2.1,6.3c-3.6,6.3-1.4,11,1.2,14s8.3,4.7,7.9,5.8
					c-1,2.3-8.3,2.6-13.3-0.2C2.3,31.6,1.1,24.4,2.6,18.5z"/>
				<path class="st13" d="M2.8,18.8c1.7-7,8.8-10.7,10.2-10c1,0.2,0.2,1.6-2.1,6.1c-3.3,6.3-1.4,10.7,1.4,14c2.6,3,8.3,4.7,7.9,5.8
					c-1.2,2.1-8.3,2.6-13.1-0.5C2.6,31.6,1.4,24.6,2.8,18.8z"/>
				<path class="st14" d="M2.8,19c1.7-7,8.8-10.7,10-10.3c0.7,0.2,0,1.4-2.4,5.8C7.1,20.9,9,25.3,11.9,28.8c2.4,3,8.3,4.9,7.9,5.8
					c-1,1.9-7.9,2.1-12.6-0.7C2.6,31.4,1.6,24.6,2.8,19z"/>
				<path class="st15" d="M3,19.3c1.4-7,8.6-11,9.5-10.3c0.7,0.2-0.2,1.4-2.6,5.6c-3.3,6.3-1.4,10.7,1.4,14.3c2.4,3,8.3,5.1,7.9,5.8
					c-1,1.6-7.9,1.9-12.1-0.7C2.8,31.4,1.9,24.6,3,19.3z"/>
				<path class="st16" d="M3,19.5c1.4-7,8.6-11,9.3-10.5c0.5,0.5-0.7,1.4-2.9,5.6C6.1,20.9,8,25.3,10.9,28.8c2.4,3,8.3,5.1,7.9,5.8
					c-1,1.4-7.6,1.6-11.9-0.9C2.8,31.2,2.1,24.6,3,19.5z"/>
				<path class="st17" d="M3,19.7c1.2-7,8.3-11.2,9-10.5c0.5,0.2-1,1.2-3.1,5.4c-3.3,6.3-1.4,10.7,1.4,14.3c2.1,2.8,8.3,5.4,7.9,5.8
					c-0.7,1.2-7.4,1.4-11.4-1.2C3,31.2,2.3,24.9,3,19.7z"/>
				<path class="st18" d="M3.3,20c1.2-7.2,8.3-11.4,8.6-10.7c0.5,0.5-1.2,1.2-3.3,5.4c-3.3,6.3-1.2,10.7,1.4,14.3
					c2.1,2.8,8.3,5.4,7.9,5.8c-0.7,0.9-7.1,1.2-11-1.4C3.3,30.9,2.3,24.9,3.3,20z"/>
				<path class="st19" d="M3.3,20.2c1.2-7.2,8.1-11.7,8.6-11c0,0.5-1.7,1.2-3.8,5.1c-3.1,6.3-1.2,10.7,1.4,14.3
					c2.1,2.8,8.3,5.6,7.9,5.8c-0.5,0.7-6.9,0.9-10.7-1.6C3.3,30.9,2.6,24.9,3.3,20.2z"/>
				<path class="st20" d="M3.5,20.2c1-7.2,7.9-11.7,8.1-11c0,0.5-1.9,1.2-3.8,5.1c-3.1,6.3-1.2,10.7,1.4,14.3
					c2.1,2.8,8.3,5.6,8.1,5.8c-0.5,0.5-6.7,0.5-10.2-1.6C3.5,30.7,2.8,25.1,3.5,20.2z"/>
				<path class="st21" d="M3.5,20.4c0.7-7.2,7.9-11.7,7.9-11c0,0.5-2.1,1.2-4,4.9c-3.1,6.3-1.2,10.5,1.4,14.3
					c1.9,2.8,8.1,5.8,7.9,6.1c-0.5,0.2-6.7,0.2-10-1.9C3.8,30.7,3,25.1,3.5,20.4z"/>
			</g>
		</g>
		<path class="st22" d="M29.5,29.5c-5.5,5.1-14.3,5.1-19.5,0c-5.5-5.1-5.5-13.6,0-18.7c1.9-2.1,5-3,7.6-3.5c-4.3,0-8.8,1.2-12.1,4.4
			C-1,17.8-1,27.9,5.4,34s16.9,6.1,23.3,0c3.6-3.5,5.5-7.9,5-12.4C33.3,24.4,31.8,27.2,29.5,29.5z"/>
		<g>
			
				<linearGradient id="SVGID_1_" gradientUnits="userSpaceOnUse" x1="542.2949" y1="248.2266" x2="565.6237" y2="224.8977" gradientTransform="matrix(0.7071 -0.7071 -0.7071 -0.7071 -207.163 582.0245)">
				<stop  offset="0" style="stop-color:#FFD45C"/>
				<stop  offset="1" style="stop-color:#FF9D00"/>
			</linearGradient>
			<path class="st23" d="M29.7,29.8c-5.5,5.1-14.3,5.1-19.5,0s-5.5-13.6,0-18.7c2.1-2.1,4.8-3.3,7.6-3.7c-4.3,0-8.6,1.4-11.9,4.7
				c-6.4,6.1-6.4,16.1,0,22.2s16.9,6.1,23.3,0c3.6-3.5,5.2-8.2,4.8-12.6C33.5,24.4,32.1,27.4,29.7,29.8z"/>
		</g>
	</g>
	<g>
		<g>
			<path class="st0" d="M39.7,7.1c-0.2-0.5-1-1.4-1.4-1.9s-1-1.4-2.4-1.6c-1-0.2-3.3,0.7-3.8,2.8c-0.5,2.6-0.7,5.8,1.9,6.3
				c0.7,0.2,2.9-0.7,3.3-0.7c0.5,0,1.4-0.5,1.9-0.7c0.7-0.5,0.5-1.2,0.7-1.9C39.9,9,39.7,7.6,39.7,7.1z"/>
			<path class="st24" d="M39.5,7.1c-0.2-0.5-1-1.4-1.4-1.6c-0.5-0.5-1-1.2-2.4-1.6c-1-0.2-3.3,0.7-3.8,2.8c-0.5,2.6-0.7,5.6,1.9,6.1
				c0.7,0.2,2.9-0.7,3.3-0.7c0.5,0,1.4-0.5,1.9-0.7c0.7-0.5,0.5-1.2,0.7-1.9C39.9,8.7,39.7,7.6,39.5,7.1z"/>
			<path class="st25" d="M39.2,7.1c-0.2-0.5-1-1.4-1.4-1.6c-0.5-0.5-1-1.2-2.4-1.6c-1-0.2-3.1,0.7-3.6,2.8c-0.5,2.3-0.7,5.4,1.7,5.8
				c0.7,0.2,2.6-0.7,3.3-0.7c0.5,0,1.2-0.2,1.9-0.7c0.7-0.5,0.5-1.2,0.7-1.9C39.7,8.7,39.5,7.6,39.2,7.1z"/>
			<path class="st26" d="M39.2,7.1c-0.2-0.5-1-1.2-1.4-1.6s-1-1.2-2.4-1.6c-1-0.2-3.1,0.7-3.6,2.8c-0.5,2.3-0.5,5.1,1.7,5.6
				c0.7,0.2,2.6-0.7,3.1-0.7c0.5,0,1.2-0.2,1.9-0.7c0.7-0.5,0.5-1.2,0.7-1.6C39.5,8.7,39.2,7.6,39.2,7.1z"/>
			<path class="st27" d="M39,7.1c-0.2-0.5-1-1.2-1.4-1.6c-0.5-0.5-1-1.2-2.1-1.4c-1-0.2-2.9,0.7-3.3,2.8c-0.5,2.3-0.5,5.1,1.7,5.4
				c0.7,0.2,2.6-0.7,3.1-0.7c0.5,0,1.2-0.2,1.9-0.5c0.5-0.5,0.5-0.9,0.7-1.6C39.2,8.7,39.2,7.6,39,7.1z"/>
			<path class="st28" d="M39,7.1c-0.2-0.5-1-1.2-1.4-1.6c-0.5-0.5-1-1.2-2.1-1.4c-0.7-0.2-2.9,0.7-3.3,2.8c-0.5,2.1-0.5,4.9,1.4,5.4
				c0.7,0.2,2.6-0.7,3.1-0.5c0.5,0,1.2-0.2,1.7-0.5c0.5-0.5,0.5-0.9,0.7-1.6C39.2,8.5,39,7.6,39,7.1z"/>
			<path class="st29" d="M38.8,7.1c-0.2-0.5-1-1.2-1.4-1.6s-1-1.2-2.1-1.4c-0.7-0.2-2.6,0.9-3.1,2.6c-0.5,2.1-0.5,4.7,1.4,5.1
				c0.7,0.2,2.6-0.7,3.1-0.5c0.5,0,1.2,0,1.7-0.5s0.5-0.9,0.5-1.6C39,8.5,39,7.6,38.8,7.1z"/>
			<path class="st30" d="M38.8,7.1c-0.2-0.5-1-0.9-1.4-1.4c-0.5-0.5-1-1.2-2.1-1.4c-0.7-0.2-2.6,0.9-3.1,2.6
				c-0.5,2.1-0.5,4.4,1.2,4.9c0.7,0.2,2.4-0.7,2.9-0.5c0.5,0,1.2,0,1.7-0.5c0.5-0.2,0.5-0.9,0.5-1.6C38.8,8.5,38.8,7.6,38.8,7.1z"/>
			<path class="st31" d="M38.5,7.1c0-0.5-1-0.9-1.4-1.4c-0.5-0.5-1-1.2-2.1-1.4c-0.7-0.2-2.4,0.9-2.9,2.6c-0.5,2.1-0.5,4.2,1.2,4.7
				c0.7,0.2,2.4-0.7,2.9-0.5c0.5,0,1.2,0,1.7-0.2c0.5-0.2,0.2-0.9,0.5-1.6C38.5,8.5,38.8,7.6,38.5,7.1z"/>
			<path class="st32" d="M38.5,7.1c0-0.5-1-0.9-1.4-1.4c-0.5-0.5-1-1.2-1.9-1.4c-0.7,0-2.4,0.9-2.9,2.6c-0.5,1.9-0.5,4,1.2,4.4
				c0.7,0.2,2.4-0.7,2.9-0.5c0.5,0,1.2,0,1.7-0.2c0.5-0.2,0.2-0.9,0.5-1.6C38.5,8.3,38.5,7.6,38.5,7.1z"/>
			<path class="st33" d="M38.3,7.1c0-0.5-1-0.9-1.4-1.4c-0.5-0.5-1-1.2-1.9-1.4c-0.7,0-2.4,0.9-2.6,2.6c-0.5,1.9-0.2,3.7,1,4.2
				c0.7,0.2,2.4-0.7,2.6-0.5c0.2,0,1.2,0,1.4-0.2C38,10.1,37.8,9.4,38,9C38.3,8.3,38.3,7.3,38.3,7.1z"/>
			<path class="st34" d="M38.3,7.1c0-0.5-1-0.9-1.4-1.2c-0.5-0.5-1-1.2-1.9-1.4c-0.5,0-2.1,0.9-2.6,2.6c-0.5,1.9-0.2,3.5,1,4
				c0.5,0.2,2.4-0.7,2.6-0.5c0.2,0,1.2,0.2,1.4-0.2c0.5-0.2,0.2-0.9,0.5-1.4C38,8.3,38.3,7.3,38.3,7.1z"/>
			<path class="st35" d="M38,7.1c0-0.2-1-0.7-1.4-1.2c-0.5-0.5-1-1.2-1.9-1.4c-0.5,0-2.1,0.9-2.4,2.6c-0.5,1.6-0.2,3.5,1,3.7
				c0.5,0.2,2.1-0.5,2.6-0.5c0.2,0,1,0.2,1.4,0c0.5-0.2,0.2-0.9,0.5-1.4C37.8,8.3,38,7.3,38,7.1z"/>
			<path class="st36" d="M37.8,7.1c0-0.2-1-0.7-1.4-1.2s-1-1.2-1.7-1.4c-0.5,0-1.9,1.2-2.4,2.6c-0.2,1.6-0.2,3.3,1,3.7
				c0.5,0.2,2.1-0.7,2.6-0.5c0.2,0,1,0.2,1.4,0c0.5-0.2,0.2-0.9,0.2-1.4C37.8,8,38,7.3,37.8,7.1z"/>
			<path class="st37" d="M37.8,7.1c0-0.2-1-0.7-1.4-1.2s-1-1.2-1.7-1.4c-0.5,0-1.9,1.2-2.1,2.6c-0.5,1.6-0.2,3,0.7,3.5
				c0.5,0.2,2.1-0.7,2.4-0.5c0.2,0.2,1,0.2,1.4,0c0.2-0.2,0.2-0.9,0.2-1.4C37.6,8,37.8,7.3,37.8,7.1z"/>
			<path class="st38" d="M37.6,7.1c0-0.2-1.2-0.7-1.4-1.2c-0.5-0.5-1-1.2-1.7-1.4c-0.5,0-1.7,1.2-2.1,2.6c-0.2,1.6,0,3,1,3.3
				c0.5,0.2,2.1-0.7,2.4-0.5c0.2,0.2,1,0.2,1.2,0c0.2-0.2,0-0.9,0.2-1.4C37.3,8,37.8,7.3,37.6,7.1z"/>
			<path class="st39" d="M37.6,7.1c0-0.2-1.2-0.7-1.4-0.9c-0.5-0.5-1-1.2-1.7-1.4c-0.5,0-1.7,1.2-1.9,2.6c-0.5,1.4-0.2,2.6,0.5,3
				c0.5,0.2,2.1-0.7,2.4-0.5c0.2,0.2,1,0.5,1.2,0.2c0.2-0.2,0-0.7,0.2-1.4C37.1,8,37.6,7.3,37.6,7.1z"/>
			<path class="st40" d="M37.3,7.1c0-0.2-1.2-0.5-1.4-0.9c-0.5-0.5-1-1.2-1.7-1.2c-0.5,0-1.4,1.2-1.9,2.6c-0.5,1.4-0.2,2.6,0.5,2.8
				c0.5,0.2,2.1-0.7,2.1-0.5c0.2,0.2,1,0.5,1.2,0.2c0.2-0.2,0-0.7,0.2-1.4C36.8,8,37.6,7.3,37.3,7.1z"/>
			<path class="st41" d="M37.3,7.1c0-0.2-1.2-0.5-1.4-0.9c-0.2-0.5-1-1.2-1.4-1.2c-0.2,0-1.4,1.2-1.7,2.6c-0.5,1.2,0,2.3,0.5,2.6
				c0.5,0.2,1.9-0.5,2.1-0.5c0.2,0.2,1,0.5,1.2,0.2c0.2-0.2,0-0.7,0.2-1.4C36.8,7.8,37.3,7.3,37.3,7.1z"/>
			<path class="st42" d="M37.1,7.1c0-0.2-1.2-0.5-1.4-0.9c-0.2-0.5-1-1.2-1.4-1.2C34,5,33,6.2,32.6,7.6c-0.5,1.2,0,2.1,0.2,2.3
				c0.5,0.2,1.9-0.5,2.1-0.5c0.2,0.2,1,0.5,1.2,0.2c0.2-0.2,0-0.7,0.2-1.2C36.6,7.8,37.1,7.3,37.1,7.1z"/>
			<path class="st43" d="M37.1,7.1c0-0.2-1.2-0.5-1.4-0.7c-0.2-0.5-1-1.2-1.4-1.2c-0.2,0-1.2,1.2-1.4,2.6c-0.5,1.2,0,1.9,0.2,2.1
				c0.5,0.2,1.9-0.5,2.1-0.5c0.2,0.2,1,0.5,1.2,0.5c0.2-0.2,0-0.7,0-1.2C36.4,7.8,37.1,7.3,37.1,7.1z"/>
			<path class="st44" d="M36.8,7.1c0-0.2-1.2-0.5-1.4-0.7c-0.2-0.5-1-1.2-1.4-1.2c-0.2,0-1,1.4-1.4,2.3c-0.5,0.9,0,1.9,0.2,1.9
				C33.3,9.7,34.7,9,34.7,9c0.2,0.2,0.7,0.7,1,0.5c0.2-0.2,0-0.7,0-1.2C36.1,7.8,36.8,7.3,36.8,7.1z"/>
		</g>
		<path class="st22" d="M34,4.8l0.7,1.4l1.7,0.2c0.2,0,0.2,0.2,0.2,0.5L35.4,8l0.2,1.6c0,0.2,0,0.2-0.2,0.2L34,9.2l-1.4,0.7
			c-0.2,0-0.5,0-0.2-0.2L32.6,8l-1.7-1.4c0,0,0-0.2,0.2-0.2l1.7-0.2l0.7-1.4C33.5,4.5,33.8,4.5,34,4.8z"/>
		
			<linearGradient id="SVGID_00000102515721488362475880000017825452687363966609_" gradientUnits="userSpaceOnUse" x1="629.6323" y1="-218.0194" x2="633.5015" y2="-221.8886" gradientTransform="matrix(1 -1.400000e-03 -1.400000e-03 -1 -598.0131 -211.5515)">
			<stop  offset="0" style="stop-color:#FFCA36"/>
			<stop  offset="1" style="stop-color:#FF9D00"/>
		</linearGradient>
		<path style="fill:url(#SVGID_00000102515721488362475880000017825452687363966609_);" d="M34,4.8l0.7,1.4l1.7,0.2
			c0.2,0,0.2,0.2,0.2,0.5L35.4,8l0.2,1.4c0,0.2,0,0.2-0.2,0.2L34,9l-1.4,0.7c-0.2,0-0.5,0-0.2-0.2l0.2-1.6l-1.2-1.2
			c-0.5,0-0.5-0.2-0.2-0.2l1.7-0.2l0.7-1.4C33.8,4.5,34,4.5,34,4.8z"/>
	</g>
	<g>
		<g>
			<path class="st0" d="M32.6,17.4c-0.2-0.7-1.2-1.6-1.7-2.1s-1.2-1.4-2.9-1.9c-1.2-0.2-4,0.7-4.5,3.3c-0.7,3-0.7,7,2.1,7.5
				c1,0.2,3.3-0.9,4-0.7c0.7,0,1.7-0.5,2.4-0.9c0.7-0.5,0.7-1.4,1-2.1C33,19.5,32.8,18.1,32.6,17.4z"/>
			<path class="st24" d="M32.3,17.4c-0.2-0.7-1.2-1.6-1.7-2.1s-1.2-1.4-2.9-1.9c-1.2-0.2-3.8,0.7-4.5,3.3c-0.5,3-0.5,6.8,2.4,7.2
				c1,0.2,3.3-0.9,3.8-0.7c0.5,0,1.7-0.5,2.4-0.9c0.7-0.5,0.7-1.4,1-2.1C32.8,19.5,32.6,18.1,32.3,17.4z"/>
			<path class="st25" d="M32.3,17.4c-0.2-0.7-1.2-1.6-1.7-2.1s-1.2-1.4-2.9-1.9c-1.2-0.2-3.8,0.9-4.3,3.3c-0.7,2.8-0.7,6.3,2.1,7
				c1,0.2,3.1-0.7,3.8-0.7c0.5,0,1.4-0.5,2.1-0.7c0.7-0.5,0.7-1.2,1-2.1C32.6,19.3,32.3,18.1,32.3,17.4z"/>
			<path class="st26" d="M32.1,17.4c-0.2-0.5-1.2-1.4-1.7-1.9c-0.5-0.5-1.2-1.4-2.6-1.9c-1-0.2-3.6,0.9-4,3.3
				c-0.7,2.8-1,6.1,1.7,6.5c1,0.2,3.1-0.7,3.8-0.7c0.5,0,1.4-0.2,2.1-0.7c0.7-0.5,0.5-1.2,0.7-2.1C32.6,19.3,32.3,17.8,32.1,17.4z"
				/>
			<path class="st27" d="M31.8,17.4c-0.2-0.5-1.2-1.4-1.7-1.9c-0.5-0.5-1.2-1.4-2.6-1.9c-1-0.2-3.6,0.9-4,3.3
				c-0.5,2.8-0.5,5.8,1.9,6.5c0.7,0.2,3.1-0.7,3.6-0.7c0.5,0,1.4-0.2,2.1-0.7c0.7-0.5,0.5-1.2,0.7-2.1
				C32.3,19.3,32.1,17.8,31.8,17.4z"/>
			<path class="st28" d="M31.8,17.4c-0.2-0.5-1.2-1.4-1.7-1.9c-0.5-0.5-1.2-1.4-2.6-1.9c-1-0.2-3.3,0.9-3.8,3.3
				c-0.5,2.6-0.7,5.6,1.7,6.3c0.7,0.2,3.1-0.9,3.6-0.7c0.5,0,1.4-0.2,2.1-0.7c0.7-0.5,0.5-1.2,0.7-1.9S31.8,17.8,31.8,17.4z"/>
			<path class="st29" d="M31.6,17.4c-0.2-0.5-1.2-1.4-1.7-1.9c-0.5-0.5-1.2-1.4-2.6-1.6c-1-0.2-3.3,0.9-3.8,3.3
				C23,19.7,23,22.5,25.2,23c0.7,0.2,2.9-0.7,3.6-0.7c0.5,0,1.4-0.2,1.9-0.5c0.7-0.5,0.5-1.2,0.7-1.9C31.8,19,31.8,17.8,31.6,17.4z"
				/>
			<path class="st30" d="M31.4,17.4c-0.2-0.5-1.2-1.2-1.7-1.6s-1.2-1.4-2.4-1.6c-1-0.2-3.1,0.9-3.6,3c-0.5,2.3-0.5,5.1,1.4,5.6
				c1,0.2,3.1-0.7,3.6-0.7c0.5,0,1.4,0,1.9-0.5c0.7-0.5,0.5-1.2,0.7-1.9C31.6,19,31.6,17.8,31.4,17.4z"/>
			<path class="st31" d="M31.4,17.4c-0.2-0.5-1.2-1.2-1.7-1.6s-1.2-1.4-2.4-1.6c-1-0.2-3.1,0.9-3.6,3c-0.5,2.3-0.5,4.9,1.4,5.4
				c1,0.2,2.9-0.7,3.3-0.5c0.5,0,1.4,0,1.9-0.5c0.7-0.5,0.5-1.2,0.7-1.9C31.4,19,31.4,17.8,31.4,17.4z"/>
			<path class="st32" d="M31.1,17.4c-0.2-0.5-1.2-1.2-1.7-1.6s-1.2-1.4-2.4-1.6c-0.7-0.2-2.9,1.2-3.3,3c-0.5,2.3-0.5,4.7,1.4,5.1
				c0.7,0.2,2.9-0.7,3.3-0.7s1.4,0,1.9-0.2c0.5-0.2,0.2-0.9,0.5-1.6C31.1,18.8,31.4,17.8,31.1,17.4z"/>
			<path class="st33" d="M30.9,17.4c-0.2-0.5-1.2-1.2-1.7-1.6c-0.5-0.7-1.2-1.4-2.4-1.6c-0.7-0.2-2.6,1.2-3.1,3
				c-0.5,2.1-0.5,4.4,1.2,4.9c0.7,0.2,2.9-0.7,3.1-0.7c0.5,0.2,1.2,0,1.9-0.2c0.5-0.5,0.2-1.2,0.5-1.9
				C30.9,18.8,31.1,17.8,30.9,17.4z"/>
			<path class="st34" d="M30.9,17.4c0-0.5-1.2-0.9-1.7-1.4c-0.5-0.7-1.2-1.4-2.1-1.6c-0.7,0-2.6,1.2-3.1,3c-0.5,2.1-0.5,4.2,1.2,4.7
				c0.7,0.2,2.6-0.7,3.1-0.7c0.5,0.2,1.2,0.2,1.7-0.2c0.5-0.5,0.2-1.2,0.5-1.9C30.7,18.8,30.9,17.8,30.9,17.4z"/>
			<path class="st35" d="M30.7,17.4c0-0.5-1.2-0.9-1.7-1.4c-0.5-0.7-1.2-1.4-2.1-1.6c-0.7,0-2.4,1.2-2.9,3c-0.5,2.1-0.2,4,1.2,4.4
				c0.7,0.2,2.6-0.7,3.1-0.7c0.5,0.2,1.2,0.2,1.7-0.2c0.5-0.2,0.2-0.9,0.5-1.6C30.4,18.8,30.9,17.8,30.7,17.4z"/>
			<path class="st36" d="M30.7,17.4c0-0.5-1.2-0.9-1.7-1.4c-0.5-0.7-1.2-1.4-2.1-1.6c-0.7,0-2.1,1.2-2.6,3c-0.7,1.9-0.5,4,0.7,4.2
				c0.7,0.2,2.6-0.7,2.9-0.7c0.2,0.2,1.2,0.2,1.7,0s0.2-0.9,0.5-1.6C30.4,18.5,30.7,17.6,30.7,17.4z"/>
			<path class="st37" d="M30.4,17.4c0-0.5-1.2-0.9-1.7-1.4c-0.5-0.7-1.2-1.4-2.1-1.6c-0.5,0-2.1,1.2-2.6,3c-0.5,1.9-0.2,3.5,1,4
				c0.7,0.2,2.6-0.7,2.9-0.5c0.2,0.2,1.2,0.2,1.7,0s0.2-0.9,0.5-1.6C30.2,18.5,30.4,17.6,30.4,17.4z"/>
			<path class="st38" d="M30.2,17.4c0-0.2-1.2-0.7-1.7-1.2c-0.5-0.7-1.2-1.4-1.9-1.6c-0.5,0-1.9,1.4-2.4,3c-0.5,1.6-0.2,3.3,0.7,3.7
				c0.7,0.2,2.6-0.7,2.9-0.5c0.2,0.2,1.2,0.5,1.4,0c0.5-0.2,0-0.9,0.2-1.6C29.9,18.5,30.4,17.6,30.2,17.4z"/>
			<path class="st39" d="M30.2,17.4c0-0.2-1.2-0.7-1.7-1.2c-0.5-0.7-1.2-1.4-1.9-1.4c-0.5,0-1.9,1.4-2.4,3s-0.2,3,0.7,3.5
				c0.7,0.2,2.4-0.7,2.6-0.5c0.2,0.2,1.2,0.5,1.4,0.2c0.5-0.2,0-0.9,0.2-1.6C29.7,18.3,30.2,17.6,30.2,17.4z"/>
			<path class="st40" d="M29.9,17.4c0-0.2-1.2-0.7-1.7-1.2c-0.5-0.7-1-1.4-1.9-1.4c-0.5,0-1.7,1.4-2.1,3c-0.5,1.6-0.2,3,0.5,3.3
				c0.5,0.2,2.4-0.7,2.6-0.5s1.2,0.5,1.4,0.2s0-0.9,0.2-1.6C29.5,18.3,29.9,17.6,29.9,17.4z"/>
			<path class="st41" d="M29.7,17.4c0-0.2-1.2-0.7-1.7-1.2c-0.5-0.7-1-1.4-1.9-1.4c-0.5,0-1.7,1.4-2.1,3c-0.5,1.4-0.2,2.8,0.5,3
				c0.5,0.2,2.4-0.7,2.6-0.5s1,0.5,1.4,0.2c0.2-0.2,0-0.9,0.2-1.6C29.2,18.3,29.9,17.6,29.7,17.4z"/>
			<path class="st42" d="M29.7,17.4c0-0.2-1.2-0.5-1.7-0.9c-0.5-0.7-1-1.4-1.7-1.4c-0.2,0-1.4,1.4-1.9,2.8c-0.5,1.4,0,2.6,0.2,2.8
				c0.5,0.2,2.4-0.7,2.4-0.5c0.2,0.2,1,0.7,1.4,0.5c0.2-0.2,0-0.9,0.2-1.4C29,18.3,29.7,17.6,29.7,17.4z"/>
			<path class="st43" d="M29.5,17.4c0-0.2-1.4-0.5-1.7-0.9c-0.2-0.7-1-1.4-1.7-1.4c-0.2,0-1.2,1.4-1.7,2.8c-0.5,1.4,0,2.3,0.2,2.6
				c0.5,0.2,2.1-0.7,2.4-0.5s1,0.7,1.2,0.5c0.2-0.2,0-0.9,0.2-1.4C28.8,18.1,29.5,17.6,29.5,17.4z"/>
			<path class="st44" d="M29.2,17.4c0-0.2-1.4-0.5-1.7-0.9c-0.2-0.7-1-1.4-1.4-1.4c-0.2,0-1.2,1.6-1.7,2.8c-0.5,1.2,0,2.1,0.2,2.3
				c0.5,0.5,2.1-0.7,2.4-0.5s1,0.7,1.2,0.5c0.2-0.2,0-0.9,0-1.4C28.5,18.1,29.5,17.6,29.2,17.4z"/>
		</g>
		<path class="st22" d="M25.9,14.6l1,1.6l1.9,0.2c0.2,0,0.5,0.2,0.2,0.5l-1.4,1.4l0.2,1.9c0,0.2-0.2,0.5-0.5,0.2l-1.7-0.9l-1.9,0.9
			c-0.2,0.2-0.5,0-0.5-0.2l0.5-1.9l-1.4-1.4c-0.2-0.2,0-0.5,0.2-0.5l1.9-0.2l1-1.6C25.4,14.3,25.7,14.3,25.9,14.6z"/>
		
			<linearGradient id="SVGID_00000031918152195429451460000017802927067813070256_" gradientUnits="userSpaceOnUse" x1="621.1521" y1="-228.0633" x2="625.7103" y2="-232.6214" gradientTransform="matrix(1 -1.400000e-03 -1.400000e-03 -1 -598.0131 -211.5515)">
			<stop  offset="0" style="stop-color:#FFCA36"/>
			<stop  offset="1" style="stop-color:#FF9D00"/>
		</linearGradient>
		<path style="fill:url(#SVGID_00000031918152195429451460000017802927067813070256_);" d="M25.9,14.6l1,1.6l1.9,0.2
			c0.2,0,0.5,0.2,0.2,0.5l-1.4,1.4l0.2,1.9c0,0.2-0.2,0.5-0.5,0.2l-1.7-0.9L24,20.4c-0.2,0.2-0.5,0-0.5-0.2l0.2-1.9l-1.2-1.4
			c-0.2,0-0.2-0.2,0-0.2l1.9-0.2l1-1.6C25.7,14.3,25.9,14.3,25.9,14.6z"/>
	</g>
	<g>
		<g>
			<path class="st0" d="M47.8,20.7c0-0.5-0.7-0.9-1-1.4c-0.2-0.2-0.7-0.9-1.7-1.2c-0.7-0.2-2.4,0.5-2.9,2.1
				c-0.5,1.9-0.5,4.2,1.2,4.4c0.5,0,1.9-0.5,2.4-0.5s1-0.2,1.4-0.5s0.5-0.7,0.5-1.4C48,21.8,47.8,21.1,47.8,20.7z"/>
			<path class="st24" d="M47.6,20.7c0-0.5-0.7-0.9-1-1.2c-0.2-0.2-0.7-0.9-1.7-1.2c-0.7-0.2-2.4,0.5-2.6,1.9
				c-0.5,1.9-0.5,4.2,1.2,4.4c0.5,0,1.9-0.5,2.4-0.5c0.2,0,1-0.2,1.4-0.5s0.5-0.7,0.5-1.4C48,21.8,47.8,21.1,47.6,20.7z"/>
			<path class="st25" d="M47.6,20.7c0-0.5-0.7-0.9-1-1.2c-0.2-0.2-0.7-0.9-1.7-1.2c-0.7-0.2-2.4,0.5-2.6,1.9c-0.5,1.9-0.5,4,1.2,4.2
				c0.5,0,1.9-0.5,2.4-0.5c0.2,0,1-0.2,1.4-0.5c0.2-0.2,0.2-0.7,0.5-1.2C47.8,21.8,47.8,20.9,47.6,20.7z"/>
			<path class="st26" d="M47.6,20.7c0-0.2-0.7-0.9-1-1.2c-0.2-0.2-0.7-0.9-1.7-1.2c-0.7-0.2-2.1,0.5-2.6,1.9c-0.5,1.9-0.5,4,1.2,4.2
				c0.5,0,1.9-0.5,2.4-0.5c0.2,0,1-0.2,1.4-0.5c0.2-0.2,0-0.7,0.2-1.2C47.8,21.8,47.6,20.9,47.6,20.7z"/>
			<path class="st27" d="M47.3,20.7c0-0.2-0.7-0.9-1-1.2c-0.2-0.2-0.7-0.9-1.7-1.2c-0.7-0.2-2.1,0.5-2.4,1.9c-0.5,1.6-0.5,3.5,1.2,4
				c0.5,0,1.9-0.5,2.1-0.5c0.2,0,1-0.2,1.2-0.5c0.5-0.2,0.2-0.7,0.5-1.2C47.6,21.8,47.6,20.9,47.3,20.7z"/>
			<path class="st28" d="M47.3,20.7c0-0.2-0.7-0.9-1-1.2c-0.2-0.2-0.7-0.9-1.7-1.2c-0.5,0-2.1,0.5-2.4,1.9c-0.2,1.6-0.5,3.5,1,3.7
				c0.5,0,1.9-0.5,2.1-0.5c0.2,0,1,0,1.2-0.5c0.5-0.2,0.2-0.7,0.5-1.2C47.6,21.6,47.3,20.9,47.3,20.7z"/>
			<path class="st29" d="M47.3,20.7c0-0.2-0.7-0.7-1-1.2c-0.2-0.2-0.7-0.9-1.4-1.2c-0.5,0-1.9,0.7-2.1,1.9c-0.2,1.6-0.2,3.3,1,3.5
				c0.5,0,1.9-0.5,2.1-0.5c0.2,0,1,0,1.2-0.2c0.5-0.2,0.2-0.7,0.5-1.2C47.3,21.6,47.3,20.9,47.3,20.7z"/>
			<path class="st30" d="M47.1,20.7c0-0.2-0.7-0.7-1-1.2c-0.2-0.2-0.7-0.9-1.4-0.9c-0.5,0-1.9,0.7-2.1,1.9c-0.2,1.4-0.2,3.3,1,3.5
				c0.5,0,1.7-0.5,2.1-0.5c0.2,0,1,0,1.2-0.2c0.5-0.2,0.2-0.7,0.5-1.2C47.1,21.6,47.1,20.9,47.1,20.7z"/>
			<path class="st31" d="M47.1,20.7c0-0.2-0.7-0.7-1-0.9c-0.2-0.5-0.7-0.9-1.4-0.9c-0.5,0-1.9,0.7-2.1,1.9c-0.2,1.4-0.2,3,1,3.3
				c0.5,0,1.7-0.5,2.1-0.5c0.2,0,0.7,0,1.2-0.2c0.2-0.2,0.2-0.7,0.5-1.2C47.1,21.6,47.1,20.9,47.1,20.7z"/>
			<path class="st32" d="M46.8,20.7c0-0.2-0.7-0.7-1-0.9c-0.2-0.5-0.7-0.9-1.4-0.9c-0.5,0-1.7,0.7-1.9,1.9c-0.2,1.4-0.2,2.8,0.7,3.3
				c0.5,0.2,1.7-0.5,1.9-0.5c0.2,0,0.7,0,1.2-0.2c0.2-0.2,0.2-0.7,0.2-1.2C46.8,21.6,47.1,20.9,46.8,20.7z"/>
			<path class="st33" d="M46.8,20.7c0-0.2-0.7-0.7-1-0.9c-0.2-0.5-0.7-0.9-1.4-0.9c-0.5,0-1.7,0.7-1.9,1.9c-0.2,1.4-0.2,2.8,0.7,3
				c0.5,0.2,1.7-0.5,1.9-0.5c0.2,0,0.7,0,1.2-0.2c0.2-0.2,0.2-0.7,0.2-1.2C46.8,21.6,46.8,20.9,46.8,20.7z"/>
			<path class="st34" d="M46.8,20.7c0-0.2-0.7-0.7-1-0.9c-0.2-0.5-0.7-0.9-1.4-0.9c-0.5,0-1.4,0.7-1.9,1.9c-0.2,1.2-0.2,2.6,0.7,2.8
				c0.5,0.2,1.7-0.5,1.9-0.5c0.2,0,0.7,0,1-0.2c0.2-0.2,0.2-0.7,0.2-1.2C46.6,21.4,46.8,20.9,46.8,20.7z"/>
			<path class="st35" d="M46.6,20.7c0-0.2-0.7-0.5-1-0.9c-0.2-0.5-0.7-0.9-1.4-0.9c-0.5,0-1.4,0.7-1.7,1.9c-0.2,1.2-0.2,2.3,0.7,2.8
				c0.5,0.2,1.7-0.5,1.9-0.5c0.2,0,0.7,0.2,1,0c0.2-0.2,0.2-0.7,0.2-1.2C46.6,21.4,46.6,20.9,46.6,20.7z"/>
			<path class="st36" d="M46.6,20.7c0-0.2-0.7-0.5-1-0.9c-0.2-0.5-0.7-0.9-1.2-0.9s-1.4,0.7-1.7,1.9c-0.2,1.2-0.2,2.3,0.5,2.6
				c0.5,0.2,1.7-0.5,1.9-0.5c0.2,0,0.7,0.2,1,0c0.2-0.2,0-0.7,0.2-0.9C46.4,21.4,46.6,20.9,46.6,20.7z"/>
			<path class="st37" d="M46.4,20.7c0-0.2-0.7-0.5-1-0.7c-0.2-0.5-0.7-0.9-1.2-0.9c-0.2,0-1.2,0.7-1.7,1.9c-0.2,1.2-0.2,2.1,0.5,2.3
				c0.5,0.2,1.7-0.5,1.7-0.2c0.2,0,0.7,0.2,1,0c0.2-0.2,0-0.7,0.2-0.9C46.4,21.4,46.6,20.9,46.4,20.7z"/>
			<path class="st38" d="M46.4,20.7c0-0.2-0.7-0.5-1-0.7c-0.2-0.5-0.7-0.9-1.2-0.9c-0.2,0-1.2,0.7-1.4,1.9c-0.2,1.2-0.2,2.1,0.5,2.3
				c0.5,0.2,1.4-0.5,1.7-0.2c0.2,0,0.7,0.2,1,0c0.2-0.2,0-0.7,0.2-0.9C46.1,21.4,46.4,20.9,46.4,20.7z"/>
			<path class="st39" d="M46.4,20.7c0-0.2-0.7-0.5-1-0.7c-0.2-0.5-0.7-0.9-1.2-0.9C44,19,43,20,42.8,20.9s-0.2,1.9,0.5,2.1
				c0.5,0.2,1.4-0.5,1.7-0.2c0.2,0,0.7,0.2,1,0s0-0.5,0.2-0.9C46.1,21.4,46.4,20.9,46.4,20.7z"/>
			<path class="st40" d="M46.1,20.7c0-0.2-0.7-0.5-1-0.7C44.9,19.5,44.5,19,44,19c-0.2,0-1,0.9-1.4,1.9c-0.2,0.9,0,1.9,0.2,1.9
				c0.2,0.2,1.4-0.5,1.7-0.2c0.2,0,0.7,0.2,1,0.2c0.2-0.2,0-0.5,0.2-0.9C45.9,21.1,46.1,20.9,46.1,20.7z"/>
			<path class="st41" d="M46.1,20.7c0-0.2-0.7-0.5-1-0.7C44.9,19.5,44.5,19,44,19c-0.2,0-1,0.9-1.2,1.9s0,1.6,0.2,1.9
				c0.2,0.2,1.4-0.5,1.7-0.2c0.2,0,0.7,0.2,1,0.2c0.2-0.2,0-0.5,0.2-0.9C45.7,21.1,46.1,20.7,46.1,20.7z"/>
			<path class="st42" d="M45.9,20.7c0-0.2-0.7-0.2-1-0.7c-0.2-0.5-0.7-0.9-1-0.9c-0.2,0-1,0.9-1.2,1.9s0,1.6,0.2,1.6
				c0.2,0.2,1.4-0.5,1.4-0.2c0.2,0,0.7,0.5,0.7,0.2c0.2-0.2,0-0.5,0-0.9C45.7,21.1,46.1,20.7,45.9,20.7z"/>
			<path class="st43" d="M45.9,20.7c0-0.2-0.7-0.2-1-0.5c-0.2-0.5-0.7-0.9-1-0.9c-0.2,0-0.7,0.9-1,1.9c-0.2,0.7,0,1.4,0.2,1.6
				l1.2-0.7c0.2,0,0.7,0.5,0.7,0.2c0.2-0.2,0-0.5,0-0.9C45.4,21.1,45.9,20.7,45.9,20.7z"/>
			<path class="st44" d="M45.9,20.7c0-0.2-0.7-0.2-1-0.5c-0.2-0.5-0.7-0.9-1-0.9c-0.2,0-0.7,0.9-1,1.6c-0.2,0.7,0,1.2,0,1.4
				c0.2,0.2,1.4-0.5,1.4-0.2c0,0,0.5,0.5,0.7,0.2c0.2-0.2,0-0.5,0-0.9C45.4,21.1,45.9,20.7,45.9,20.7z"/>
		</g>
		<path class="st22" d="M43.8,18.8l0.5,0.9l1.2,0.2c0.2,0,0.2,0.2,0,0.2l-1,0.7l0.2,1.2c0,0.2,0,0.2-0.2,0.2l-1-0.5l-1,0.5
			c-0.2,0-0.2,0-0.2-0.2l0.2-1.2l-1-0.7c-0.2-0.2,0-0.2,0-0.2h1.2l0.5-0.9C43.5,18.8,43.5,18.8,43.8,18.8z"/>
		
			<linearGradient id="SVGID_00000099620994493119655230000015186631424488414631_" gradientUnits="userSpaceOnUse" x1="639.8958" y1="-232.0615" x2="642.6659" y2="-234.8318" gradientTransform="matrix(1 -1.400000e-03 -1.400000e-03 -1 -598.0131 -211.5515)">
			<stop  offset="0" style="stop-color:#FFCA36"/>
			<stop  offset="1" style="stop-color:#FF9D00"/>
		</linearGradient>
		<path style="fill:url(#SVGID_00000099620994493119655230000015186631424488414631_);" d="M43.8,19l0.5,0.9l1.2,0.2
			c0.2,0,0.2,0.2,0,0.2l-1,0.7l0.2,1.2c0,0.2,0,0.2-0.2,0.2l-1-0.5l-1,0.5c-0.2,0-0.2,0-0.2-0.2l0.2-1.2l-1-0.7
			c-0.2-0.2,0-0.2,0-0.2l1.2-0.2l0.5-0.9C43.5,18.8,43.8,18.8,43.8,19z"/>
	</g>
</g>
</svg>
