<?xml version="1.0" encoding="utf-8"?>
<!-- Generator: Adobe Illustrator 27.0.1, SVG Export Plug-In . SVG Version: 6.00 Build 0)  -->
<svg version="1.1" id="Ebene_1" xmlns="http://www.w3.org/2000/svg" xmlns:xlink="http://www.w3.org/1999/xlink" x="0px" y="0px"
	 viewBox="0 0 20.2 18.2" style="enable-background:new 0 0 20.2 18.2;" xml:space="preserve">
<style type="text/css">
	.st0{opacity:0;fill:#FFFFFF;}
	.st1{opacity:4.761905e-02;fill:#F9FBFB;}
	.st2{opacity:9.523810e-02;fill:#F3F6F7;}
	.st3{opacity:0.1429;fill:#EEF2F4;}
	.st4{opacity:0.1905;fill:#E8EDF0;}
	.st5{opacity:0.2381;fill:#E2E9EC;}
	.st6{opacity:0.2857;fill:#DCE4E8;}
	.st7{opacity:0.3333;fill:#D7E0E5;}
	.st8{opacity:0.381;fill:#D1DCE1;}
	.st9{opacity:0.4286;fill:#CBD7DD;}
	.st10{opacity:0.4762;fill:#C5D3D9;}
	.st11{opacity:0.5238;fill:#C0CED6;}
	.st12{opacity:0.5714;fill:#BACAD2;}
	.st13{opacity:0.619;fill:#B4C5CE;}
	.st14{opacity:0.6667;fill:#AEC1CA;}
	.st15{opacity:0.7143;fill:#A9BDC7;}
	.st16{opacity:0.7619;fill:#A3B8C3;}
	.st17{opacity:0.8095;fill:#9DB4BF;}
	.st18{opacity:0.8571;fill:#97AFBB;}
	.st19{opacity:0.9048;fill:#92ABB8;}
	.st20{opacity:0.9524;fill:#8CA6B4;}
	.st21{fill:#86A2B0;}
	.st22{fill:#FFE3AB;}
	.st23{fill:url(#SVGID_1_);}
	.st24{opacity:2.857143e-02;fill:#F9FBFB;}
	.st25{opacity:5.714286e-02;fill:#F3F6F7;}
	.st26{opacity:8.571429e-02;fill:#EEF2F4;}
	.st27{opacity:0.1143;fill:#E8EDF0;}
	.st28{opacity:0.1429;fill:#E2E9EC;}
	.st29{opacity:0.1714;fill:#DCE4E8;}
	.st30{opacity:0.2;fill:#D7E0E5;}
	.st31{opacity:0.2286;fill:#D1DCE1;}
	.st32{opacity:0.2571;fill:#CBD7DD;}
	.st33{opacity:0.2857;fill:#C5D3D9;}
	.st34{opacity:0.3143;fill:#C0CED6;}
	.st35{opacity:0.3429;fill:#BACAD2;}
	.st36{opacity:0.3714;fill:#B4C5CE;}
	.st37{opacity:0.4;fill:#AEC1CA;}
	.st38{opacity:0.4286;fill:#A9BDC7;}
	.st39{opacity:0.4571;fill:#A3B8C3;}
	.st40{opacity:0.4857;fill:#9DB4BF;}
	.st41{opacity:0.5143;fill:#97AFBB;}
	.st42{opacity:0.5429;fill:#92ABB8;}
	.st43{opacity:0.5714;fill:#8CA6B4;}
	.st44{opacity:0.6;fill:#86A2B0;}
	.st45{fill:url(#SVGID_00000180363929442797422490000004151322854082795931_);}
	.st46{fill:url(#SVGID_00000017502047252699968470000007947914532686321810_);}
	.st47{fill:url(#SVGID_00000119801850017337632970000001606181917421416345_);}
</style>
<g>
	<g>
		<g>
			<g>
				<path class="st0" d="M9.8,17.7c-3,0.2-7.5-1.4-8.5-3.5c-1-2-0.2-3.6,1.4-4.1c1-0.3,3.5,1.5,5.7,1.4c3-0.1,3.6-1,4.6-2.4
					c0.8-1.1,4.8-0.3,4.4,2.6C16.9,15.5,13.5,17.4,9.8,17.7z"/>
				<path class="st1" d="M9.8,17.6c-2.9,0.2-7.3-1.3-8.3-3.4c-1-2-0.3-3.5,1.2-4c1-0.3,3.4,1.5,5.7,1.4c3-0.1,3.6-1.1,4.6-2.5
					c0.8-1.1,4.5-0.3,4.1,2.6C16.6,15.4,13.4,17.3,9.8,17.6z"/>
				<path class="st2" d="M9.8,17.4c-2.8,0.2-7-1.3-8.1-3.2c-1.1-1.9-0.4-3.4,1.1-3.9c0.9-0.3,3.4,1.5,5.7,1.4
					c2.9-0.1,3.6-1.1,4.6-2.5c0.8-1.1,4.3-0.2,3.9,2.5C16.4,15.3,13.3,17.1,9.8,17.4z"/>
				<path class="st3" d="M9.8,17.3C7.1,17.5,3,16,1.9,14.2c-1.1-1.9-0.5-3.2,0.9-3.7c0.9-0.3,3.3,1.5,5.7,1.3
					c2.9-0.2,3.6-1.2,4.6-2.5c0.7-1.1,4.1-0.1,3.6,2.5C16.2,15.2,13.2,16.9,9.8,17.3z"/>
				<path class="st4" d="M9.8,17.1c-2.7,0.3-6.6-1.2-7.7-2.9C1,12.3,1.5,11,2.8,10.6c0.9-0.3,3.3,1.5,5.7,1.3
					c2.8-0.2,3.7-1.2,4.6-2.5c0.7-1,3.8-0.1,3.4,2.5C15.9,15,13.1,16.8,9.8,17.1z"/>
				<path class="st5" d="M9.8,17c-2.6,0.3-6.3-1.1-7.5-2.8c-1.2-1.8-0.7-3,0.6-3.5c0.8-0.3,3.2,1.5,5.7,1.3c2.8-0.2,3.7-1.3,4.5-2.5
					c0.7-1,3.6,0,3.2,2.4C15.7,14.9,13,16.6,9.8,17z"/>
				<path class="st6" d="M9.8,16.8c-2.5,0.3-6.1-1-7.2-2.6c-1.2-1.7-0.9-2.9,0.4-3.4c0.8-0.3,3.1,1.5,5.6,1.3
					c2.7-0.2,3.7-1.3,4.5-2.5c0.7-1,3.4,0,2.9,2.4C15.4,14.8,12.9,16.4,9.8,16.8z"/>
				<path class="st7" d="M9.8,16.6c-2.4,0.3-5.9-1-7-2.5c-1.3-1.7-1-2.8,0.2-3.2c0.8-0.3,3.1,1.5,5.6,1.2c2.7-0.3,3.7-1.4,4.5-2.6
					c0.7-0.9,3.2,0.1,2.7,2.3C15.2,14.7,12.8,16.3,9.8,16.6z"/>
				<path class="st8" d="M9.8,16.5c-2.3,0.3-5.7-0.9-6.8-2.3c-1.3-1.6-1.1-2.7,0-3.1c0.7-0.3,3,1.5,5.6,1.2c2.6-0.3,3.7-1.4,4.5-2.6
					c0.6-0.9,2.9,0.1,2.4,2.3C15,14.6,12.7,16.1,9.8,16.5z"/>
				<path class="st9" d="M9.8,16.3c-2.3,0.3-5.4-0.9-6.6-2.2c-1.4-1.6-1.2-2.6-0.1-3c0.7-0.3,3,1.5,5.6,1.2c2.6-0.3,3.7-1.5,4.5-2.6
					c0.6-0.9,2.7,0.2,2.2,2.2C14.7,14.4,12.6,15.9,9.8,16.3z"/>
				<path class="st10" d="M9.9,16.2c-2.2,0.4-5.2-0.8-6.4-2c-1.4-1.5-1.3-2.5-0.3-2.9c0.7-0.3,2.9,1.5,5.6,1.2
					c2.5-0.3,3.7-1.5,4.5-2.6C13.9,9,15.7,10,15.2,12C14.5,14.3,12.5,15.8,9.9,16.2z"/>
				<path class="st11" d="M9.9,16c-2.1,0.4-5-0.7-6.2-1.9c-1.5-1.5-1.4-2.4-0.5-2.8c0.6-0.3,2.9,1.5,5.6,1.2
					c2.4-0.3,3.7-1.6,4.5-2.6c0.6-0.8,2.2,0.3,1.7,2.2C14.3,14.2,12.4,15.6,9.9,16z"/>
				<path class="st12" d="M9.9,15.9c-2,0.4-4.8-0.7-6-1.7c-1.5-1.4-1.5-2.3-0.6-2.6c0.6-0.3,2.8,1.5,5.5,1.1
					c2.4-0.3,3.8-1.6,4.5-2.6c0.6-0.8,2,0.3,1.4,2.1C14,14.1,12.3,15.4,9.9,15.9z"/>
				<path class="st13" d="M9.9,15.7c-1.9,0.4-4.6-0.6-5.8-1.6c-1.6-1.4-1.6-2.1-0.8-2.5c0.6-0.3,2.7,1.5,5.5,1.1
					c2.3-0.4,3.8-1.7,4.5-2.7c0.5-0.8,1.8,0.4,1.2,2.1C13.8,14,12.2,15.3,9.9,15.7z"/>
				<path class="st14" d="M9.9,15.6C8,16,5.5,15,4.3,14.1c-1.7-1.3-1.7-2-1-2.4c0.5-0.3,2.7,1.5,5.5,1.1c2.3-0.4,3.8-1.7,4.5-2.7
					c0.5-0.7,1.6,0.4,0.9,2C13.6,13.8,12.1,15.1,9.9,15.6z"/>
				<path class="st15" d="M9.9,15.4c-1.8,0.4-4.2-0.5-5.3-1.3c-1.7-1.2-1.8-1.9-1.1-2.3c0.5-0.3,2.6,1.5,5.5,1.1
					c2.2-0.4,3.8-1.8,4.4-2.7c0.5-0.7,1.4,0.5,0.7,2C13.4,13.7,12,14.9,9.9,15.4z"/>
				<path class="st16" d="M9.9,15.3c-1.7,0.4-4-0.4-5.1-1.2c-1.8-1.2-1.9-1.8-1.3-2.2C4,11.7,6.1,13.5,9,13c2.2-0.4,3.8-1.8,4.4-2.7
					c0.5-0.7,1.1,0.5,0.4,2C13.1,13.6,11.9,14.8,9.9,15.3z"/>
				<path class="st17" d="M9.9,15.1c-1.6,0.4-3.7-0.3-4.9-1c-1.9-1.1-2.1-1.7-1.5-2c0.4-0.2,2.5,1.6,5.5,1c2.1-0.4,3.8-1.9,4.4-2.7
					c0.5-0.7,0.9,0.6,0.2,1.9C12.9,13.5,11.8,14.6,9.9,15.1z"/>
				<path class="st18" d="M9.9,15c-1.5,0.5-3.5-0.2-4.7-0.9c-1.9-1-2.2-1.6-1.6-1.9c0.4-0.2,2.5,1.6,5.4,1c2.1-0.4,3.8-1.9,4.4-2.7
					c0.4-0.6,0.7,0.6-0.1,1.9C12.7,13.4,11.7,14.4,9.9,15z"/>
				<path class="st19" d="M9.9,14.8c-1.5,0.5-3.3-0.2-4.5-0.7c-2-0.9-2.3-1.5-1.8-1.8c0.4-0.2,2.4,1.6,5.4,1c2-0.4,3.8-2,4.4-2.8
					c0.4-0.6,0.5,0.7-0.3,1.8C12.5,13.2,11.6,14.3,9.9,14.8z"/>
				<path class="st20" d="M10,14.6c-1.4,0.5-3.1-0.1-4.3-0.6c-2.1-0.9-2.4-1.4-2-1.7C4,12.2,6.1,14,9.1,13.4c2-0.4,3.9-2,4.4-2.8
					c0.4-0.6,0.3,0.8-0.6,1.8C12.3,13.1,11.5,14.1,10,14.6z"/>
				<path class="st21" d="M10,14.5c-1.3,0.5-2.9,0-4.1-0.4c-2.1-0.8-2.5-1.3-2.1-1.6c0.3-0.2,2.3,1.6,5.4,0.9
					c1.9-0.4,3.9-2.1,4.4-2.8c0.4-0.5,0.1,0.8-0.8,1.7C12.1,13,11.4,13.9,10,14.5z"/>
			</g>
			<g>
				<path class="st0" d="M0.6,5.5c1.2-2.8,4.4-3.7,6-3.7c1,0,1.9,1,0.4,3.3C5.4,7.7,6.2,9.9,7.5,11c1.5,1.4,3.5,1.3,3.1,2.5
					c-0.8,2.1-4.5,2.5-7.4,0.8C0.2,12.7-0.7,8.6,0.6,5.5z"/>
				<path class="st1" d="M0.7,5.6C1.8,2.8,5,1.8,6.5,1.8c0.9,0,1.7,1,0.3,3.3C5.2,7.7,6.1,9.8,7.3,11c1.4,1.4,3.5,1.4,3.1,2.5
					c-0.7,2-4.4,2.4-7.3,0.8C0.3,12.7-0.6,8.7,0.7,5.6z"/>
				<path class="st2" d="M0.7,5.6C1.8,2.9,5,1.8,6.4,1.8c0.9,0,1.6,1,0.2,3.2C5,7.7,5.9,9.8,7.1,11c1.4,1.4,3.5,1.4,3.1,2.5
					c-0.7,1.9-4.3,2.3-7.1,0.7C0.4,12.6-0.5,8.7,0.7,5.6z"/>
				<path class="st3" d="M0.7,5.7C1.8,2.9,5,1.8,6.3,1.9c0.8,0,1.5,0.9,0.1,3.2C4.9,7.6,5.7,9.8,6.9,11c1.4,1.4,3.5,1.5,3.1,2.5
					c-0.7,1.8-4.3,2.2-6.9,0.6C0.4,12.6-0.4,8.7,0.7,5.7z"/>
				<path class="st4" d="M0.8,5.8C1.8,3,5,1.8,6.2,1.9C7,2,7.6,2.8,6.3,5c-1.6,2.6-0.7,4.7,0.5,6c1.3,1.4,3.5,1.5,3.2,2.5
					c-0.7,1.7-4.2,2-6.8,0.5C0.5,12.5-0.3,8.8,0.8,5.8z"/>
				<path class="st5" d="M0.8,5.9c1-2.8,4.1-4,5.3-3.9C6.9,2,7.3,2.8,6.1,5c-1.6,2.6-0.7,4.7,0.5,6c1.3,1.3,3.5,1.6,3.2,2.5
					c-0.6,1.6-4.1,1.9-6.6,0.4C0.5,12.5-0.2,8.8,0.8,5.9z"/>
				<path class="st6" d="M0.9,6c1-2.8,4.1-4.1,5.2-4c0.7,0.1,1.1,0.9-0.2,3c-1.5,2.6-0.7,4.7,0.5,6c1.3,1.3,3.5,1.7,3.2,2.5
					c-0.6,1.5-4,1.8-6.5,0.4C0.6,12.4-0.1,8.8,0.9,6z"/>
				<path class="st7" d="M0.9,6.1c1-2.9,4-4.2,5.1-4C6.6,2.1,6.9,2.9,5.7,5C4.2,7.6,5,9.7,6.2,11c1.2,1.3,3.5,1.7,3.2,2.5
					c-0.6,1.4-3.9,1.7-6.3,0.3C0.7,12.4,0,8.9,0.9,6.1z"/>
				<path class="st8" d="M1,6.2c0.9-2.9,4-4.2,4.9-4.1c0.6,0.1,0.8,0.8-0.4,2.9C4,7.6,4.8,9.6,6,10.9c1.2,1.3,3.5,1.8,3.2,2.5
					c-0.5,1.3-3.8,1.6-6.2,0.2C0.7,12.3,0.1,8.9,1,6.2z"/>
				<path class="st9" d="M1,6.3C1.9,3.4,4.9,2,5.8,2.1c0.6,0.1,0.7,0.8-0.5,2.8c-1.5,2.6-0.7,4.7,0.5,6c1.2,1.3,3.5,1.8,3.2,2.5
					c-0.5,1.2-3.8,1.5-6,0.1C0.8,12.3,0.2,8.9,1,6.3z"/>
				<path class="st10" d="M1,6.4C1.9,3.4,4.9,2,5.7,2.2c0.5,0.1,0.5,0.7-0.6,2.8c-1.5,2.6-0.7,4.7,0.5,6c1.2,1.3,3.5,1.9,3.2,2.5
					c-0.5,1.1-3.7,1.4-5.9,0C0.9,12.2,0.3,9,1,6.4z"/>
				<path class="st11" d="M1.1,6.4C1.9,3.5,4.9,2,5.6,2.2C6.1,2.3,6,2.9,4.9,4.9c-1.5,2.7-0.6,4.7,0.5,6c1.1,1.3,3.5,1.9,3.2,2.5
					c-0.5,1.1-3.6,1.3-5.7,0C0.9,12.2,0.4,9,1.1,6.4z"/>
				<path class="st12" d="M1.1,6.5C1.9,3.6,4.9,2,5.6,2.2C6,2.4,5.8,2.9,4.7,4.9c-1.5,2.7-0.6,4.7,0.5,6c1.1,1.3,3.5,2,3.3,2.5
					c-0.4,1-3.5,1.1-5.6-0.1C1,12.1,0.5,9,1.1,6.5z"/>
				<path class="st13" d="M1.2,6.6c0.7-3,3.7-4.6,4.3-4.3c0.4,0.1,0.1,0.7-0.9,2.6c-1.4,2.7-0.6,4.6,0.6,6c1.1,1.3,3.5,2,3.3,2.5
					C8,14.3,5,14.5,3,13.2C1.1,12.1,0.6,9.1,1.2,6.6z"/>
				<path class="st14" d="M1.2,6.7c0.7-3,3.7-4.6,4.2-4.4c0.3,0.1,0,0.6-1,2.5c-1.4,2.7-0.6,4.6,0.6,6.1c1,1.3,3.5,2.1,3.3,2.5
					c-0.4,0.8-3.3,0.9-5.3-0.3C1.1,12,0.7,9.1,1.2,6.7z"/>
				<path class="st15" d="M1.3,6.8c0.6-3,3.6-4.7,4-4.4C5.6,2.5,5.2,3,4.2,4.8c-1.4,2.7-0.6,4.6,0.6,6.1c1,1.3,3.5,2.2,3.3,2.5
					c-0.4,0.7-3.3,0.8-5.1-0.3C1.2,12,0.8,9.1,1.3,6.8z"/>
				<path class="st16" d="M1.3,6.9c0.6-3,3.6-4.7,3.9-4.5C5.4,2.6,4.9,3,4,4.8c-1.4,2.7-0.6,4.6,0.6,6.1c1,1.3,3.5,2.2,3.3,2.5
					C7.5,14,4.7,14.1,2.9,13C1.2,11.9,0.9,9.1,1.3,6.9z"/>
				<path class="st17" d="M1.3,7c0.5-3,3.5-4.8,3.8-4.5C5.3,2.6,4.7,3,3.8,4.8c-1.4,2.7-0.6,4.6,0.6,6.1c0.9,1.2,3.5,2.3,3.3,2.5
					c-0.3,0.5-3.1,0.6-4.8-0.5C1.3,11.9,1,9.2,1.3,7z"/>
				<path class="st18" d="M1.4,7.1C1.9,4,4.9,2.2,5,2.5C5.2,2.7,4.5,3,3.6,4.8c-1.4,2.7-0.5,4.6,0.6,6.1c0.9,1.2,3.5,2.3,3.3,2.5
					c-0.3,0.4-3,0.5-4.6-0.6C1.4,11.8,1,9.2,1.4,7.1z"/>
				<path class="st19" d="M1.4,7.2C1.9,4.1,4.8,2.2,5,2.5C5,2.7,4.3,3,3.4,4.7C2.1,7.4,2.9,9.3,4,10.8c0.9,1.2,3.5,2.4,3.3,2.5
					c-0.2,0.3-2.9,0.4-4.5-0.7C1.4,11.8,1.1,9.2,1.4,7.2z"/>
				<path class="st20" d="M1.5,7.2c0.4-3.1,3.3-5,3.4-4.7c0,0.2-0.8,0.5-1.6,2.2c-1.3,2.7-0.5,4.6,0.6,6.1c0.9,1.2,3.5,2.4,3.4,2.5
					c-0.2,0.2-2.8,0.2-4.3-0.7C1.5,11.7,1.2,9.3,1.5,7.2z"/>
				<path class="st21" d="M1.5,7.3c0.3-3.1,3.3-5,3.3-4.7c0,0.2-0.9,0.5-1.7,2.1c-1.3,2.7-0.5,4.5,0.6,6.1C4.5,12,7.1,13.3,7,13.4
					c-0.2,0.1-2.8,0.1-4.2-0.8C1.6,11.7,1.3,9.3,1.5,7.3z"/>
			</g>
		</g>
		<path class="st22" d="M12.4,11.2c-2.3,2.2-6,2.2-8.2,0c-2.3-2.2-2.3-5.8,0-8C5,2.3,6.3,1.9,7.4,1.7C5.6,1.7,3.7,2.2,2.3,3.6
			c-2.7,2.6-2.7,6.9,0,9.5c2.7,2.6,7.1,2.6,9.8,0c1.5-1.5,2.3-3.4,2.1-5.3C14,9,13.4,10.2,12.4,11.2z"/>
		<g>
			
				<linearGradient id="SVGID_1_" gradientUnits="userSpaceOnUse" x1="556.4827" y1="-212.1824" x2="566.2849" y2="-202.3802" gradientTransform="matrix(0.7071 -0.7071 0.7071 0.7071 -243.1033 551.9492)">
				<stop  offset="0" style="stop-color:#FFD45C"/>
				<stop  offset="1" style="stop-color:#FF9D00"/>
			</linearGradient>
			<path class="st23" d="M12.5,11.3c-2.3,2.2-6,2.2-8.2,0s-2.3-5.8,0-8c0.9-0.9,2-1.4,3.2-1.6c-1.8,0-3.6,0.6-5,2
				c-2.7,2.6-2.7,6.9,0,9.5c2.7,2.6,7.1,2.6,9.8,0c1.5-1.5,2.2-3.5,2-5.4C14.1,9,13.5,10.3,12.5,11.3z"/>
		</g>
	</g>
	<g>
		<g>
			<path class="st0" d="M16.7,1.6c-0.1-0.2-0.4-0.6-0.6-0.8c-0.2-0.2-0.4-0.6-1-0.7c-0.4-0.1-1.4,0.3-1.6,1.2
				c-0.2,1.1-0.3,2.5,0.8,2.7c0.3,0.1,1.2-0.3,1.4-0.3c0.2,0,0.6-0.2,0.8-0.3c0.3-0.2,0.2-0.5,0.3-0.8C16.8,2.4,16.7,1.8,16.7,1.6z"
				/>
			<path class="st24" d="M16.6,1.6C16.5,1.4,16.2,1,16,0.9c-0.2-0.2-0.4-0.5-1-0.7c-0.4-0.1-1.4,0.3-1.6,1.2
				c-0.2,1.1-0.3,2.4,0.8,2.6c0.3,0.1,1.2-0.3,1.4-0.3c0.2,0,0.6-0.2,0.8-0.3c0.3-0.2,0.2-0.5,0.3-0.8C16.8,2.3,16.7,1.8,16.6,1.6z"
				/>
			<path class="st25" d="M16.5,1.6c-0.1-0.2-0.4-0.6-0.6-0.7c-0.2-0.2-0.4-0.5-1-0.7c-0.4-0.1-1.3,0.3-1.5,1.2
				c-0.2,1-0.3,2.3,0.7,2.5c0.3,0.1,1.1-0.3,1.4-0.3c0.2,0,0.5-0.1,0.8-0.3c0.3-0.2,0.2-0.5,0.3-0.8C16.7,2.3,16.6,1.8,16.5,1.6z"/>
			<path class="st26" d="M16.5,1.6c-0.1-0.2-0.4-0.5-0.6-0.7c-0.2-0.2-0.4-0.5-1-0.7c-0.4-0.1-1.3,0.3-1.5,1.2
				c-0.2,1-0.2,2.2,0.7,2.4c0.3,0.1,1.1-0.3,1.3-0.3c0.2,0,0.5-0.1,0.8-0.3c0.3-0.2,0.2-0.5,0.3-0.7C16.6,2.3,16.5,1.8,16.5,1.6z"/>
			<path class="st27" d="M16.4,1.6c-0.1-0.2-0.4-0.5-0.6-0.7c-0.2-0.2-0.4-0.5-0.9-0.6c-0.4-0.1-1.2,0.3-1.4,1.2
				c-0.2,1-0.2,2.2,0.7,2.3c0.3,0.1,1.1-0.3,1.3-0.3c0.2,0,0.5-0.1,0.8-0.2c0.2-0.2,0.2-0.4,0.3-0.7C16.5,2.3,16.5,1.8,16.4,1.6z"/>
			<path class="st28" d="M16.4,1.6c-0.1-0.2-0.4-0.5-0.6-0.7c-0.2-0.2-0.4-0.5-0.9-0.6c-0.3-0.1-1.2,0.3-1.4,1.2
				c-0.2,0.9-0.2,2.1,0.6,2.3c0.3,0.1,1.1-0.3,1.3-0.2c0.2,0,0.5-0.1,0.7-0.2c0.2-0.2,0.2-0.4,0.3-0.7C16.5,2.2,16.4,1.8,16.4,1.6z"
				/>
			<path class="st29" d="M16.3,1.6c-0.1-0.2-0.4-0.5-0.6-0.7c-0.2-0.2-0.4-0.5-0.9-0.6c-0.3-0.1-1.1,0.4-1.3,1.1
				c-0.2,0.9-0.2,2,0.6,2.2c0.3,0.1,1.1-0.3,1.3-0.2c0.2,0,0.5,0,0.7-0.2c0.2-0.2,0.2-0.4,0.2-0.7C16.4,2.2,16.4,1.8,16.3,1.6z"/>
			<path class="st30" d="M16.3,1.6c-0.1-0.2-0.4-0.4-0.6-0.6c-0.2-0.2-0.4-0.5-0.9-0.6c-0.3-0.1-1.1,0.4-1.3,1.1
				c-0.2,0.9-0.2,1.9,0.5,2.1c0.3,0.1,1-0.3,1.2-0.2c0.2,0,0.5,0,0.7-0.2c0.2-0.1,0.2-0.4,0.2-0.7C16.3,2.2,16.3,1.8,16.3,1.6z"/>
			<path class="st31" d="M16.2,1.6c0-0.2-0.4-0.4-0.6-0.6c-0.2-0.2-0.4-0.5-0.9-0.6c-0.3-0.1-1,0.4-1.2,1.1c-0.2,0.9-0.2,1.8,0.5,2
				c0.3,0.1,1-0.3,1.2-0.2c0.2,0,0.5,0,0.7-0.1c0.2-0.1,0.1-0.4,0.2-0.7C16.2,2.2,16.3,1.8,16.2,1.6z"/>
			<path class="st32" d="M16.2,1.6c0-0.2-0.4-0.4-0.6-0.6c-0.2-0.2-0.4-0.5-0.8-0.6c-0.3,0-1,0.4-1.2,1.1c-0.2,0.8-0.2,1.7,0.5,1.9
				c0.3,0.1,1-0.3,1.2-0.2c0.2,0,0.5,0,0.7-0.1c0.2-0.1,0.1-0.4,0.2-0.7C16.2,2.1,16.2,1.8,16.2,1.6z"/>
			<path class="st33" d="M16.1,1.6c0-0.2-0.4-0.4-0.6-0.6c-0.2-0.2-0.4-0.5-0.8-0.6c-0.3,0-1,0.4-1.1,1.1c-0.2,0.8-0.1,1.6,0.4,1.8
				c0.3,0.1,1-0.3,1.1-0.2c0.1,0,0.5,0,0.6-0.1C16,2.9,15.9,2.6,16,2.4C16.1,2.1,16.1,1.7,16.1,1.6z"/>
			<path class="st34" d="M16.1,1.6c0-0.2-0.4-0.4-0.6-0.5c-0.2-0.2-0.4-0.5-0.8-0.6c-0.2,0-0.9,0.4-1.1,1.1
				c-0.2,0.8-0.1,1.5,0.4,1.7c0.2,0.1,1-0.3,1.1-0.2c0.1,0,0.5,0.1,0.6-0.1c0.2-0.1,0.1-0.4,0.2-0.6C16,2.1,16.1,1.7,16.1,1.6z"/>
			<path class="st35" d="M16,1.6c0-0.1-0.4-0.3-0.6-0.5c-0.2-0.2-0.4-0.5-0.8-0.6c-0.2,0-0.9,0.4-1,1.1c-0.2,0.7-0.1,1.5,0.4,1.6
				C14.2,3.3,14.9,3,15.1,3c0.1,0,0.4,0.1,0.6,0c0.2-0.1,0.1-0.4,0.2-0.6C15.9,2.1,16,1.7,16,1.6z"/>
			<path class="st36" d="M15.9,1.6c0-0.1-0.4-0.3-0.6-0.5c-0.2-0.2-0.4-0.5-0.7-0.6c-0.2,0-0.8,0.5-1,1.1C13.5,2.3,13.5,3,14,3.2
				c0.2,0.1,0.9-0.3,1.1-0.2c0.1,0,0.4,0.1,0.6,0c0.2-0.1,0.1-0.4,0.1-0.6C15.9,2,16,1.7,15.9,1.6z"/>
			<path class="st37" d="M15.9,1.6c0-0.1-0.4-0.3-0.6-0.5c-0.2-0.2-0.4-0.5-0.7-0.6c-0.2,0-0.8,0.5-0.9,1.1
				c-0.2,0.7-0.1,1.3,0.3,1.5c0.2,0.1,0.9-0.3,1-0.2c0.1,0.1,0.4,0.1,0.6,0c0.1-0.1,0.1-0.4,0.1-0.6C15.8,2,15.9,1.7,15.9,1.6z"/>
			<path class="st38" d="M15.8,1.6c0-0.1-0.5-0.3-0.6-0.5c-0.2-0.2-0.4-0.5-0.7-0.6c-0.2,0-0.7,0.5-0.9,1.1C13.5,2.3,13.6,2.9,14,3
				c0.2,0.1,0.9-0.3,1-0.2c0.1,0.1,0.4,0.1,0.5,0c0.1-0.1,0-0.4,0.1-0.6C15.7,2,15.9,1.7,15.8,1.6z"/>
			<path class="st39" d="M15.8,1.6c0-0.1-0.5-0.3-0.6-0.4c-0.2-0.2-0.4-0.5-0.7-0.6c-0.2,0-0.7,0.5-0.8,1.1
				c-0.2,0.6-0.1,1.1,0.2,1.3c0.2,0.1,0.9-0.3,1-0.2c0.1,0.1,0.4,0.2,0.5,0.1c0.1-0.1,0-0.3,0.1-0.6C15.6,2,15.8,1.7,15.8,1.6z"/>
			<path class="st40" d="M15.7,1.6c0-0.1-0.5-0.2-0.6-0.4c-0.2-0.2-0.4-0.5-0.7-0.5c-0.2,0-0.6,0.5-0.8,1.1
				c-0.2,0.6-0.1,1.1,0.2,1.2c0.2,0.1,0.9-0.3,0.9-0.2c0.1,0.1,0.4,0.2,0.5,0.1c0.1-0.1,0-0.3,0.1-0.6C15.5,2,15.8,1.7,15.7,1.6z"/>
			<path class="st41" d="M15.7,1.6c0-0.1-0.5-0.2-0.6-0.4C15,1,14.7,0.7,14.5,0.7c-0.1,0-0.6,0.5-0.7,1.1c-0.2,0.5,0,1,0.2,1.1
				c0.2,0.1,0.8-0.2,0.9-0.2c0.1,0.1,0.4,0.2,0.5,0.1c0.1-0.1,0-0.3,0.1-0.6C15.5,1.9,15.7,1.7,15.7,1.6z"/>
			<path class="st42" d="M15.6,1.6c0-0.1-0.5-0.2-0.6-0.4c-0.1-0.2-0.4-0.5-0.6-0.5c-0.1,0-0.5,0.5-0.7,1.1c-0.2,0.5,0,0.9,0.1,1
				c0.2,0.1,0.8-0.2,0.9-0.2c0.1,0.1,0.4,0.2,0.5,0.1c0.1-0.1,0-0.3,0.1-0.5C15.4,1.9,15.6,1.7,15.6,1.6z"/>
			<path class="st43" d="M15.6,1.6c0-0.1-0.5-0.2-0.6-0.3c-0.1-0.2-0.4-0.5-0.6-0.5c-0.1,0-0.5,0.5-0.6,1.1c-0.2,0.5,0,0.8,0.1,0.9
				c0.2,0.1,0.8-0.2,0.9-0.2c0.1,0.1,0.4,0.2,0.5,0.2c0.1-0.1,0-0.3,0-0.5C15.3,1.9,15.6,1.7,15.6,1.6z"/>
			<path class="st44" d="M15.5,1.6c0-0.1-0.5-0.2-0.6-0.3c-0.1-0.2-0.4-0.5-0.6-0.5c-0.1,0-0.4,0.6-0.6,1c-0.2,0.4,0,0.8,0.1,0.8
				c0.2,0.1,0.8-0.2,0.8-0.2c0.1,0.1,0.3,0.3,0.4,0.2c0.1-0.1,0-0.3,0-0.5C15.2,1.9,15.5,1.7,15.5,1.6z"/>
		</g>
		<path class="st22" d="M14.3,0.6l0.3,0.6l0.7,0.1c0.1,0,0.1,0.1,0.1,0.2l-0.5,0.5l0.1,0.7c0,0.1,0,0.1-0.1,0.1l-0.6-0.3l-0.6,0.3
			c-0.1,0-0.2,0-0.1-0.1l0.1-0.7L13,1.4C13,1.4,13,1.3,13.1,1.3l0.7-0.1l0.3-0.6C14.1,0.5,14.2,0.5,14.3,0.6z"/>
		
			<linearGradient id="SVGID_00000008861587568928136310000000448427677343887012_" gradientUnits="userSpaceOnUse" x1="611.1215" y1="261.7887" x2="612.7594" y2="263.4265" gradientTransform="matrix(1 -1.400000e-03 1.400000e-03 1 -598.0867 -259.9441)">
			<stop  offset="0" style="stop-color:#FFCA36"/>
			<stop  offset="1" style="stop-color:#FF9D00"/>
		</linearGradient>
		<path style="fill:url(#SVGID_00000008861587568928136310000000448427677343887012_);" d="M14.3,0.6l0.3,0.6l0.7,0.1
			c0.1,0,0.1,0.1,0.1,0.2l-0.5,0.5L15,2.6c0,0.1,0,0.1-0.1,0.1l-0.6-0.3l-0.6,0.3c-0.1,0-0.2,0-0.1-0.1l0.1-0.7l-0.5-0.5
			C13,1.4,13,1.3,13.1,1.3l0.7-0.1l0.3-0.6C14.2,0.5,14.3,0.5,14.3,0.6z"/>
	</g>
	<g>
		<g>
			<path class="st0" d="M13.7,6c-0.1-0.3-0.5-0.7-0.7-0.9c-0.2-0.2-0.5-0.6-1.2-0.8c-0.5-0.1-1.7,0.3-1.9,1.4
				c-0.3,1.3-0.3,3,0.9,3.2c0.4,0.1,1.4-0.4,1.7-0.3c0.3,0,0.7-0.2,1-0.4c0.3-0.2,0.3-0.6,0.4-0.9C13.9,6.9,13.8,6.3,13.7,6z"/>
			<path class="st24" d="M13.6,6c-0.1-0.3-0.5-0.7-0.7-0.9c-0.2-0.2-0.5-0.6-1.2-0.8c-0.5-0.1-1.6,0.3-1.9,1.4
				C9.6,7,9.6,8.6,10.8,8.8c0.4,0.1,1.4-0.4,1.6-0.3c0.2,0,0.7-0.2,1-0.4c0.3-0.2,0.3-0.6,0.4-0.9C13.8,6.9,13.7,6.3,13.6,6z"/>
			<path class="st25" d="M13.6,6c-0.1-0.3-0.5-0.7-0.7-0.9c-0.2-0.2-0.5-0.6-1.2-0.8c-0.5-0.1-1.6,0.4-1.8,1.4
				c-0.3,1.2-0.3,2.7,0.9,3c0.4,0.1,1.3-0.3,1.6-0.3c0.2,0,0.6-0.2,0.9-0.3c0.3-0.2,0.3-0.5,0.4-0.9C13.7,6.8,13.6,6.3,13.6,6z"/>
			<path class="st26" d="M13.5,6c-0.1-0.2-0.5-0.6-0.7-0.8c-0.2-0.2-0.5-0.6-1.1-0.8c-0.4-0.1-1.5,0.4-1.7,1.4
				C9.7,7,9.6,8.4,10.7,8.6c0.4,0.1,1.3-0.3,1.6-0.3c0.2,0,0.6-0.1,0.9-0.3c0.3-0.2,0.2-0.5,0.3-0.9C13.7,6.8,13.6,6.2,13.5,6z"/>
			<path class="st27" d="M13.4,6c-0.1-0.2-0.5-0.6-0.7-0.8c-0.2-0.2-0.5-0.6-1.1-0.8c-0.4-0.1-1.5,0.4-1.7,1.4
				C9.7,7,9.7,8.3,10.7,8.6c0.3,0.1,1.3-0.3,1.5-0.3c0.2,0,0.6-0.1,0.9-0.3c0.3-0.2,0.2-0.5,0.3-0.9C13.6,6.8,13.5,6.2,13.4,6z"/>
			<path class="st28" d="M13.4,6c-0.1-0.2-0.5-0.6-0.7-0.8c-0.2-0.2-0.5-0.6-1.1-0.8c-0.4-0.1-1.4,0.4-1.6,1.4
				c-0.2,1.1-0.3,2.4,0.7,2.7C11,8.6,12,8.1,12.2,8.2c0.2,0,0.6-0.1,0.9-0.3c0.3-0.2,0.2-0.5,0.3-0.8C13.5,6.8,13.4,6.2,13.4,6z"/>
			<path class="st29" d="M13.3,6c-0.1-0.2-0.5-0.6-0.7-0.8c-0.2-0.2-0.5-0.6-1.1-0.7c-0.4-0.1-1.4,0.4-1.6,1.4
				c-0.2,1.1-0.2,2.3,0.7,2.5c0.3,0.1,1.2-0.3,1.5-0.3c0.2,0,0.6-0.1,0.8-0.2c0.3-0.2,0.2-0.5,0.3-0.8C13.4,6.7,13.4,6.2,13.3,6z"/>
			<path class="st30" d="M13.2,6c-0.1-0.2-0.5-0.5-0.7-0.7c-0.2-0.2-0.5-0.6-1-0.7C11.1,4.5,10.2,5,10,5.9c-0.2,1-0.2,2.2,0.6,2.4
				C11,8.4,11.9,8,12.1,8c0.2,0,0.6,0,0.8-0.2c0.3-0.2,0.2-0.5,0.3-0.8C13.3,6.7,13.3,6.2,13.2,6z"/>
			<path class="st31" d="M13.2,6c-0.1-0.2-0.5-0.5-0.7-0.7c-0.2-0.2-0.5-0.6-1-0.7C11.1,4.5,10.2,5,10,5.9c-0.2,1-0.2,2.1,0.6,2.3
				C11,8.3,11.8,7.9,12,8c0.2,0,0.6,0,0.8-0.2C13.1,7.6,13,7.3,13.1,7C13.2,6.7,13.2,6.2,13.2,6z"/>
			<path class="st32" d="M13.1,6c-0.1-0.2-0.5-0.5-0.7-0.7c-0.2-0.2-0.5-0.6-1-0.7c-0.3-0.1-1.2,0.5-1.4,1.3c-0.2,1-0.2,2,0.6,2.2
				c0.3,0.1,1.2-0.3,1.4-0.3c0.2,0,0.6,0,0.8-0.1C13,7.6,12.9,7.3,13,7C13.1,6.6,13.2,6.2,13.1,6z"/>
			<path class="st33" d="M13,6c-0.1-0.2-0.5-0.5-0.7-0.7c-0.2-0.3-0.5-0.6-1-0.7c-0.3-0.1-1.1,0.5-1.3,1.3c-0.2,0.9-0.2,1.9,0.5,2.1
				c0.3,0.1,1.2-0.3,1.3-0.3c0.2,0.1,0.5,0,0.8-0.1c0.2-0.2,0.1-0.5,0.2-0.8C13,6.6,13.1,6.2,13,6z"/>
			<path class="st34" d="M13,6c0-0.2-0.5-0.4-0.7-0.6c-0.2-0.3-0.5-0.6-0.9-0.7c-0.3,0-1.1,0.5-1.3,1.3c-0.2,0.9-0.2,1.8,0.5,2
				c0.3,0.1,1.1-0.3,1.3-0.3c0.2,0.1,0.5,0.1,0.7-0.1c0.2-0.2,0.1-0.5,0.2-0.8C12.9,6.6,13,6.2,13,6z"/>
			<path class="st35" d="M12.9,6c0-0.2-0.5-0.4-0.7-0.6c-0.2-0.3-0.5-0.6-0.9-0.7c-0.3,0-1,0.5-1.2,1.3C9.9,6.9,10,7.7,10.6,7.9
				c0.3,0.1,1.1-0.3,1.3-0.3c0.2,0.1,0.5,0.1,0.7-0.1c0.2-0.1,0.1-0.4,0.2-0.7C12.8,6.6,13,6.2,12.9,6z"/>
			<path class="st36" d="M12.9,6c0-0.2-0.5-0.4-0.7-0.6c-0.2-0.3-0.5-0.6-0.9-0.7c-0.3,0-0.9,0.5-1.1,1.3C9.9,6.8,10,7.7,10.5,7.8
				c0.3,0.1,1.1-0.3,1.2-0.3c0.1,0.1,0.5,0.1,0.7,0c0.2-0.1,0.1-0.4,0.2-0.7C12.8,6.5,12.9,6.1,12.9,6z"/>
			<path class="st37" d="M12.8,6c0-0.2-0.5-0.4-0.7-0.6c-0.2-0.3-0.5-0.6-0.9-0.7c-0.2,0-0.9,0.5-1.1,1.3c-0.2,0.8-0.1,1.5,0.4,1.7
				c0.3,0.1,1.1-0.3,1.2-0.2c0.1,0.1,0.5,0.1,0.7,0c0.2-0.1,0.1-0.4,0.2-0.7C12.7,6.5,12.8,6.1,12.8,6z"/>
			<path class="st38" d="M12.7,6c0-0.1-0.5-0.3-0.7-0.5c-0.2-0.3-0.5-0.6-0.8-0.7c-0.2,0-0.8,0.6-1,1.3c-0.2,0.7-0.1,1.4,0.3,1.6
				c0.3,0.1,1.1-0.3,1.2-0.2c0.1,0.1,0.5,0.2,0.6,0c0.2-0.1,0-0.4,0.1-0.7C12.6,6.5,12.8,6.1,12.7,6z"/>
			<path class="st39" d="M12.7,6c0-0.1-0.5-0.3-0.7-0.5c-0.2-0.3-0.5-0.6-0.8-0.6c-0.2,0-0.8,0.6-1,1.3c-0.2,0.7-0.1,1.3,0.3,1.5
				c0.3,0.1,1-0.3,1.1-0.2c0.1,0.1,0.5,0.2,0.6,0.1c0.2-0.1,0-0.4,0.1-0.7C12.5,6.4,12.7,6.1,12.7,6z"/>
			<path class="st40" d="M12.6,6c0-0.1-0.5-0.3-0.7-0.5c-0.2-0.3-0.4-0.6-0.8-0.6c-0.2,0-0.7,0.6-0.9,1.3c-0.2,0.7-0.1,1.3,0.2,1.4
				c0.2,0.1,1-0.3,1.1-0.2c0.1,0.1,0.5,0.2,0.6,0.1c0.1-0.1,0-0.4,0.1-0.7C12.4,6.4,12.6,6.1,12.6,6z"/>
			<path class="st41" d="M12.5,6c0-0.1-0.5-0.3-0.7-0.5c-0.2-0.3-0.4-0.6-0.8-0.6c-0.2,0-0.7,0.6-0.9,1.3c-0.2,0.6-0.1,1.2,0.2,1.3
				c0.2,0.1,1-0.3,1.1-0.2c0.1,0.1,0.4,0.2,0.6,0.1c0.1-0.1,0-0.4,0.1-0.7C12.3,6.4,12.6,6.1,12.5,6z"/>
			<path class="st42" d="M12.5,6c0-0.1-0.5-0.2-0.7-0.4c-0.2-0.3-0.4-0.6-0.7-0.6c-0.1,0-0.6,0.6-0.8,1.2c-0.2,0.6,0,1.1,0.1,1.2
				c0.2,0.1,1-0.3,1-0.2c0.1,0.1,0.4,0.3,0.6,0.2c0.1-0.1,0-0.4,0.1-0.6C12.2,6.4,12.5,6.1,12.5,6z"/>
			<path class="st43" d="M12.4,6c0-0.1-0.6-0.2-0.7-0.4C11.6,5.3,11.3,5,11,5c-0.1,0-0.5,0.6-0.7,1.2c-0.2,0.6,0,1,0.1,1.1
				c0.2,0.1,0.9-0.3,1-0.2c0.1,0.1,0.4,0.3,0.5,0.2c0.1-0.1,0-0.4,0.1-0.6C12.1,6.3,12.4,6.1,12.4,6z"/>
			<path class="st44" d="M12.3,6c0-0.1-0.6-0.2-0.7-0.4C11.5,5.3,11.2,5,11,5c-0.1,0-0.5,0.7-0.7,1.2c-0.2,0.5,0,0.9,0.1,1
				c0.2,0.2,0.9-0.3,1-0.2c0.1,0.1,0.4,0.3,0.5,0.2c0.1-0.1,0-0.4,0-0.6C12,6.3,12.4,6.1,12.3,6z"/>
		</g>
		<path class="st22" d="M10.9,4.8l0.4,0.7l0.8,0.1c0.1,0,0.2,0.1,0.1,0.2l-0.6,0.6l0.1,0.8c0,0.1-0.1,0.2-0.2,0.1l-0.7-0.4L10,7.3
			c-0.1,0.1-0.2,0-0.2-0.1L10,6.4L9.4,5.8C9.3,5.7,9.4,5.6,9.5,5.6l0.8-0.1l0.4-0.7C10.7,4.7,10.8,4.7,10.9,4.8z"/>
		
			<linearGradient id="SVGID_00000102524583932041187830000017407286381154474884_" gradientUnits="userSpaceOnUse" x1="607.5749" y1="266.0735" x2="609.5045" y2="268.0031" gradientTransform="matrix(1 -1.400000e-03 1.400000e-03 1 -598.0867 -259.9441)">
			<stop  offset="0" style="stop-color:#FFCA36"/>
			<stop  offset="1" style="stop-color:#FF9D00"/>
		</linearGradient>
		<path style="fill:url(#SVGID_00000102524583932041187830000017407286381154474884_);" d="M10.9,4.8l0.4,0.7l0.8,0.1
			c0.1,0,0.2,0.1,0.1,0.2l-0.6,0.6l0.1,0.8c0,0.1-0.1,0.2-0.2,0.1l-0.7-0.4l-0.7,0.4c-0.1,0.1-0.2,0-0.2-0.1l0.1-0.8L9.5,5.8
			C9.4,5.8,9.4,5.7,9.5,5.7l0.8-0.1l0.4-0.7C10.8,4.7,10.9,4.7,10.9,4.8z"/>
	</g>
	<g>
		<g>
			<path class="st0" d="M20.1,7.4c0-0.2-0.3-0.4-0.4-0.6c-0.1-0.1-0.3-0.4-0.7-0.5c-0.3-0.1-1,0.2-1.2,0.9C17.6,8,17.6,9,18.3,9.1
				c0.2,0,0.8-0.2,1-0.2c0.2,0,0.4-0.1,0.6-0.2c0.2-0.1,0.2-0.3,0.2-0.6C20.2,7.9,20.1,7.6,20.1,7.4z"/>
			<path class="st24" d="M20,7.4c0-0.2-0.3-0.4-0.4-0.5c-0.1-0.1-0.3-0.4-0.7-0.5c-0.3-0.1-1,0.2-1.1,0.8C17.6,8,17.6,9,18.3,9.1
				c0.2,0,0.8-0.2,1-0.2c0.1,0,0.4-0.1,0.6-0.2c0.2-0.1,0.2-0.3,0.2-0.6C20.2,7.9,20.1,7.6,20,7.4z"/>
			<path class="st25" d="M20,7.4c0-0.2-0.3-0.4-0.4-0.5c-0.1-0.1-0.3-0.4-0.7-0.5c-0.3-0.1-1,0.2-1.1,0.8C17.6,8,17.6,8.9,18.3,9
				c0.2,0,0.8-0.2,1-0.2c0.1,0,0.4-0.1,0.6-0.2C20,8.5,20,8.3,20.1,8.1C20.1,7.9,20.1,7.5,20,7.4z"/>
			<path class="st26" d="M20,7.4c0-0.1-0.3-0.4-0.4-0.5c-0.1-0.1-0.3-0.4-0.7-0.5c-0.3-0.1-0.9,0.2-1.1,0.8C17.6,8,17.6,8.9,18.3,9
				c0.2,0,0.8-0.2,1-0.2c0.1,0,0.4-0.1,0.6-0.2C20,8.5,19.9,8.3,20,8.1C20.1,7.9,20,7.5,20,7.4z"/>
			<path class="st27" d="M19.9,7.4c0-0.1-0.3-0.4-0.4-0.5c-0.1-0.1-0.3-0.4-0.7-0.5c-0.3-0.1-0.9,0.2-1,0.8
				c-0.2,0.7-0.2,1.5,0.5,1.7c0.2,0,0.8-0.2,0.9-0.2c0.1,0,0.4-0.1,0.5-0.2c0.2-0.1,0.1-0.3,0.2-0.5C20,7.9,20,7.5,19.9,7.4z"/>
			<path class="st28" d="M19.9,7.4c0-0.1-0.3-0.4-0.4-0.5c-0.1-0.1-0.3-0.4-0.7-0.5c-0.2,0-0.9,0.2-1,0.8c-0.1,0.7-0.2,1.5,0.4,1.6
				c0.2,0,0.8-0.2,0.9-0.2c0.1,0,0.4,0,0.5-0.2c0.2-0.1,0.1-0.3,0.2-0.5C20,7.8,19.9,7.5,19.9,7.4z"/>
			<path class="st29" d="M19.9,7.4c0-0.1-0.3-0.3-0.4-0.5c-0.1-0.1-0.3-0.4-0.6-0.5c-0.2,0-0.8,0.3-0.9,0.8
				c-0.1,0.7-0.1,1.4,0.4,1.5c0.2,0,0.8-0.2,0.9-0.2c0.1,0,0.4,0,0.5-0.1c0.2-0.1,0.1-0.3,0.2-0.5C19.9,7.8,19.9,7.5,19.9,7.4z"/>
			<path class="st30" d="M19.8,7.4c0-0.1-0.3-0.3-0.4-0.5c-0.1-0.1-0.3-0.4-0.6-0.4c-0.2,0-0.8,0.3-0.9,0.8
				c-0.1,0.6-0.1,1.4,0.4,1.5c0.2,0,0.7-0.2,0.9-0.2c0.1,0,0.4,0,0.5-0.1c0.2-0.1,0.1-0.3,0.2-0.5C19.8,7.8,19.8,7.5,19.8,7.4z"/>
			<path class="st31" d="M19.8,7.4c0-0.1-0.3-0.3-0.4-0.4c-0.1-0.2-0.3-0.4-0.6-0.4c-0.2,0-0.8,0.3-0.9,0.8
				c-0.1,0.6-0.1,1.3,0.4,1.4c0.2,0,0.7-0.2,0.9-0.2c0.1,0,0.3,0,0.5-0.1c0.1-0.1,0.1-0.3,0.2-0.5C19.8,7.8,19.8,7.5,19.8,7.4z"/>
			<path class="st32" d="M19.7,7.4c0-0.1-0.3-0.3-0.4-0.4c-0.1-0.2-0.3-0.4-0.6-0.4c-0.2,0-0.7,0.3-0.8,0.8
				c-0.1,0.6-0.1,1.2,0.3,1.4c0.2,0.1,0.7-0.2,0.8-0.2c0.1,0,0.3,0,0.5-0.1c0.1-0.1,0.1-0.3,0.1-0.5C19.7,7.8,19.8,7.5,19.7,7.4z"/>
			<path class="st33" d="M19.7,7.4c0-0.1-0.3-0.3-0.4-0.4c-0.1-0.2-0.3-0.4-0.6-0.4c-0.2,0-0.7,0.3-0.8,0.8
				c-0.1,0.6-0.1,1.2,0.3,1.3c0.2,0.1,0.7-0.2,0.8-0.2c0.1,0,0.3,0,0.5-0.1c0.1-0.1,0.1-0.3,0.1-0.5C19.7,7.8,19.7,7.5,19.7,7.4z"/>
			<path class="st34" d="M19.7,7.4c0-0.1-0.3-0.3-0.4-0.4c-0.1-0.2-0.3-0.4-0.6-0.4c-0.2,0-0.6,0.3-0.8,0.8
				c-0.1,0.5-0.1,1.1,0.3,1.2c0.2,0.1,0.7-0.2,0.8-0.2c0.1,0,0.3,0,0.4-0.1c0.1-0.1,0.1-0.3,0.1-0.5C19.6,7.7,19.7,7.5,19.7,7.4z"/>
			<path class="st35" d="M19.6,7.4c0-0.1-0.3-0.2-0.4-0.4c-0.1-0.2-0.3-0.4-0.6-0.4c-0.2,0-0.6,0.3-0.7,0.8c-0.1,0.5-0.1,1,0.3,1.2
				c0.2,0.1,0.7-0.2,0.8-0.2c0.1,0,0.3,0.1,0.4,0c0.1-0.1,0.1-0.3,0.1-0.5C19.6,7.7,19.6,7.5,19.6,7.4z"/>
			<path class="st36" d="M19.6,7.4c0-0.1-0.3-0.2-0.4-0.4c-0.1-0.2-0.3-0.4-0.5-0.4c-0.2,0-0.6,0.3-0.7,0.8c-0.1,0.5-0.1,1,0.2,1.1
				c0.2,0.1,0.7-0.2,0.8-0.2c0.1,0,0.3,0.1,0.4,0c0.1-0.1,0-0.3,0.1-0.4C19.5,7.7,19.6,7.5,19.6,7.4z"/>
			<path class="st37" d="M19.5,7.4c0-0.1-0.3-0.2-0.4-0.3c-0.1-0.2-0.3-0.4-0.5-0.4c-0.1,0-0.5,0.3-0.7,0.8c-0.1,0.5-0.1,0.9,0.2,1
				c0.2,0.1,0.7-0.2,0.7-0.1c0.1,0,0.3,0.1,0.4,0c0.1-0.1,0-0.3,0.1-0.4C19.5,7.7,19.6,7.5,19.5,7.4z"/>
			<path class="st38" d="M19.5,7.4c0-0.1-0.3-0.2-0.4-0.3c-0.1-0.2-0.3-0.4-0.5-0.4c-0.1,0-0.5,0.3-0.6,0.8c-0.1,0.5-0.1,0.9,0.2,1
				c0.2,0.1,0.6-0.2,0.7-0.1c0.1,0,0.3,0.1,0.4,0c0.1-0.1,0-0.3,0.1-0.4C19.4,7.7,19.5,7.5,19.5,7.4z"/>
			<path class="st39" d="M19.5,7.4c0-0.1-0.3-0.2-0.4-0.3c-0.1-0.2-0.3-0.4-0.5-0.4c-0.1,0-0.5,0.4-0.6,0.8
				c-0.1,0.4-0.1,0.8,0.2,0.9c0.2,0.1,0.6-0.2,0.7-0.1c0.1,0,0.3,0.1,0.4,0c0.1-0.1,0-0.2,0.1-0.4C19.4,7.7,19.5,7.5,19.5,7.4z"/>
			<path class="st40" d="M19.4,7.4c0-0.1-0.3-0.2-0.4-0.3c-0.1-0.2-0.3-0.4-0.5-0.4c-0.1,0-0.4,0.4-0.6,0.8c-0.1,0.4,0,0.8,0.1,0.8
				c0.1,0.1,0.6-0.2,0.7-0.1c0.1,0,0.3,0.1,0.4,0.1c0.1-0.1,0-0.2,0.1-0.4C19.3,7.6,19.4,7.5,19.4,7.4z"/>
			<path class="st41" d="M19.4,7.4c0-0.1-0.3-0.2-0.4-0.3c-0.1-0.2-0.3-0.4-0.5-0.4c-0.1,0-0.4,0.4-0.5,0.8c-0.1,0.4,0,0.7,0.1,0.8
				c0.1,0.1,0.6-0.2,0.7-0.1c0.1,0,0.3,0.1,0.4,0.1c0.1-0.1,0-0.2,0.1-0.4C19.2,7.6,19.4,7.4,19.4,7.4z"/>
			<path class="st42" d="M19.3,7.4c0-0.1-0.3-0.1-0.4-0.3c-0.1-0.2-0.3-0.4-0.4-0.4c-0.1,0-0.4,0.4-0.5,0.8c-0.1,0.4,0,0.7,0.1,0.7
				c0.1,0.1,0.6-0.2,0.6-0.1c0.1,0,0.3,0.2,0.3,0.1c0.1-0.1,0-0.2,0-0.4C19.2,7.6,19.4,7.4,19.3,7.4z"/>
			<path class="st43" d="M19.3,7.4c0-0.1-0.3-0.1-0.4-0.2c-0.1-0.2-0.3-0.4-0.4-0.4c-0.1,0-0.3,0.4-0.4,0.8c-0.1,0.3,0,0.6,0.1,0.7
				C18.2,8.3,18.7,8,18.7,8c0.1,0,0.3,0.2,0.3,0.1c0.1-0.1,0-0.2,0-0.4C19.1,7.6,19.3,7.4,19.3,7.4z"/>
			<path class="st44" d="M19.3,7.4c0-0.1-0.3-0.1-0.4-0.2c-0.1-0.2-0.3-0.4-0.4-0.4c-0.1,0-0.3,0.4-0.4,0.7c-0.1,0.3,0,0.5,0,0.6
				c0.1,0.1,0.6-0.2,0.6-0.1c0,0,0.2,0.2,0.3,0.1c0.1-0.1,0-0.2,0-0.4C19.1,7.6,19.3,7.4,19.3,7.4z"/>
		</g>
		<path class="st22" d="M18.4,6.6l0.2,0.4l0.5,0.1c0.1,0,0.1,0.1,0,0.1l-0.4,0.3l0.1,0.5c0,0.1,0,0.1-0.1,0.1l-0.4-0.2l-0.4,0.2
			c-0.1,0-0.1,0-0.1-0.1l0.1-0.5l-0.4-0.3c-0.1-0.1,0-0.1,0-0.1L18,7.1l0.2-0.4C18.3,6.6,18.3,6.6,18.4,6.6z"/>
		
			<linearGradient id="SVGID_00000144320590224490012490000002359983168977480093_" gradientUnits="userSpaceOnUse" x1="615.4716" y1="267.7578" x2="616.6445" y2="268.9307" gradientTransform="matrix(1 -1.400000e-03 1.400000e-03 1 -598.0867 -259.9441)">
			<stop  offset="0" style="stop-color:#FFCA36"/>
			<stop  offset="1" style="stop-color:#FF9D00"/>
		</linearGradient>
		<path style="fill:url(#SVGID_00000144320590224490012490000002359983168977480093_);" d="M18.4,6.7l0.2,0.4l0.5,0.1
			c0.1,0,0.1,0.1,0,0.1l-0.4,0.3l0.1,0.5c0,0.1,0,0.1-0.1,0.1L18.3,8l-0.4,0.2c-0.1,0-0.1,0-0.1-0.1l0.1-0.5l-0.4-0.3
			c-0.1-0.1,0-0.1,0-0.1l0.5-0.1l0.2-0.4C18.3,6.6,18.4,6.6,18.4,6.7z"/>
	</g>
</g>
</svg>
