<?xml version="1.0" encoding="utf-8"?>
<!-- Generator: Adobe Illustrator 27.0.1, SVG Export Plug-In . SVG Version: 6.00 Build 0)  -->
<svg version="1.1" id="Ebene_1" xmlns="http://www.w3.org/2000/svg" xmlns:xlink="http://www.w3.org/1999/xlink" x="0px" y="0px"
	 viewBox="0 0 27 22.5" style="enable-background:new 0 0 27 22.5;" xml:space="preserve">
<style type="text/css">
	.st0{display:none;}
	.st1{display:inline;fill:#FFFFFF;fill-opacity:0;}
	.st2{display:inline;opacity:5.000000e-02;fill:#F9FBFB;enable-background:new    ;}
	.st3{display:inline;opacity:0.1;fill:#F4F6F8;enable-background:new    ;}
	.st4{display:inline;opacity:0.14;fill:#EEF2F4;enable-background:new    ;}
	.st5{display:inline;opacity:0.19;fill:#E9EDF1;enable-background:new    ;}
	.st6{display:inline;opacity:0.24;fill:#E3E9ED;enable-background:new    ;}
	.st7{display:inline;opacity:0.29;fill:#DEE5EA;enable-background:new    ;}
	.st8{display:inline;opacity:0.33;fill:#D8E0E6;enable-background:new    ;}
	.st9{display:inline;opacity:0.38;fill:#D3DCE3;enable-background:new    ;}
	.st10{display:inline;opacity:0.43;fill:#CDD8DF;enable-background:new    ;}
	.st11{display:inline;opacity:0.48;fill:#C8D3DC;enable-background:new    ;}
	.st12{display:inline;opacity:0.52;fill:#C2CFD8;enable-background:new    ;}
	.st13{display:inline;opacity:0.57;fill:#BDCAD5;enable-background:new    ;}
	.st14{display:inline;opacity:0.62;fill:#B7C6D1;enable-background:new    ;}
	.st15{display:inline;opacity:0.67;fill:#B2C2CE;enable-background:new    ;}
	.st16{display:inline;opacity:0.71;fill:#ACBDCA;enable-background:new    ;}
	.st17{display:inline;opacity:0.76;fill:#A7B9C7;enable-background:new    ;}
	.st18{display:inline;opacity:0.81;fill:#A1B5C3;enable-background:new    ;}
	.st19{display:inline;opacity:0.86;fill:#9CB0C0;enable-background:new    ;}
	.st20{display:inline;opacity:0.9;fill:#96ACBC;enable-background:new    ;}
	.st21{display:inline;opacity:0.95;fill:#91A7B9;enable-background:new    ;}
	.st22{display:inline;fill:#8BA3B5;}
	.st23{display:inline;fill:#FFFFFF;}
	.st24{display:inline;fill:#E9F2F5;}
	.st25{display:inline;}
	.st26{fill:#FFFFFF;fill-opacity:0;}
	.st27{opacity:5.000000e-02;fill:#F9FBFB;enable-background:new    ;}
	.st28{opacity:0.1;fill:#F3F6F7;enable-background:new    ;}
	.st29{opacity:0.14;fill:#EEF2F4;enable-background:new    ;}
	.st30{opacity:0.19;fill:#E8EDF0;enable-background:new    ;}
	.st31{opacity:0.24;fill:#E2E9EC;enable-background:new    ;}
	.st32{opacity:0.29;fill:#DCE4E8;enable-background:new    ;}
	.st33{opacity:0.33;fill:#D7E0E5;enable-background:new    ;}
	.st34{opacity:0.38;fill:#D1DCE1;enable-background:new    ;}
	.st35{opacity:0.43;fill:#CBD7DD;enable-background:new    ;}
	.st36{opacity:0.48;fill:#C5D3D9;enable-background:new    ;}
	.st37{opacity:0.52;fill:#C0CED6;enable-background:new    ;}
	.st38{opacity:0.57;fill:#BACAD2;enable-background:new    ;}
	.st39{opacity:0.62;fill:#B4C5CE;enable-background:new    ;}
	.st40{opacity:0.67;fill:#AEC1CA;enable-background:new    ;}
	.st41{opacity:0.71;fill:#A9BDC7;enable-background:new    ;}
	.st42{opacity:0.76;fill:#A3B8C3;enable-background:new    ;}
	.st43{opacity:0.81;fill:#9DB4BF;enable-background:new    ;}
	.st44{opacity:0.86;fill:#97AFBB;enable-background:new    ;}
	.st45{opacity:0.9;fill:#92ABB8;enable-background:new    ;}
	.st46{opacity:0.95;fill:#8CA6B4;enable-background:new    ;}
	.st47{fill:#86A2B0;}
	.st48{fill:#FFE3AB;}
	.st49{fill:url(#SVGID_1_);}
	.st50{opacity:0.1;fill:#F4F6F8;enable-background:new    ;}
	.st51{opacity:0.19;fill:#E9EDF1;enable-background:new    ;}
	.st52{opacity:0.24;fill:#E3E9ED;enable-background:new    ;}
	.st53{opacity:0.29;fill:#DEE5EA;enable-background:new    ;}
	.st54{opacity:0.33;fill:#D8E0E6;enable-background:new    ;}
	.st55{opacity:0.38;fill:#D3DCE3;enable-background:new    ;}
	.st56{opacity:0.43;fill:#CDD8DF;enable-background:new    ;}
	.st57{opacity:0.48;fill:#C8D3DC;enable-background:new    ;}
	.st58{opacity:0.52;fill:#C2CFD8;enable-background:new    ;}
	.st59{opacity:0.57;fill:#BDCAD5;enable-background:new    ;}
	.st60{opacity:0.62;fill:#B7C6D1;enable-background:new    ;}
	.st61{opacity:0.67;fill:#B2C2CE;enable-background:new    ;}
	.st62{opacity:0.71;fill:#ACBDCA;enable-background:new    ;}
	.st63{opacity:0.76;fill:#A7B9C7;enable-background:new    ;}
	.st64{opacity:0.81;fill:#A1B5C3;enable-background:new    ;}
	.st65{opacity:0.86;fill:#9CB0C0;enable-background:new    ;}
	.st66{opacity:0.9;fill:#96ACBC;enable-background:new    ;}
	.st67{opacity:0.95;fill:#91A7B9;enable-background:new    ;}
	.st68{fill:#8BA3B5;}
	.st69{opacity:0;fill:#FFFFFF;}
	.st70{opacity:4.761905e-02;fill:#F9FBFB;}
	.st71{opacity:9.523810e-02;fill:#F4F6F8;}
	.st72{opacity:0.1429;fill:#EEF2F4;}
	.st73{opacity:0.1905;fill:#E9EDF1;}
	.st74{opacity:0.2381;fill:#E3E9ED;}
	.st75{opacity:0.2857;fill:#DEE5EA;}
	.st76{opacity:0.3333;fill:#D8E0E6;}
	.st77{opacity:0.381;fill:#D3DCE3;}
	.st78{opacity:0.4286;fill:#CDD8DF;}
	.st79{opacity:0.4762;fill:#C8D3DC;}
	.st80{opacity:0.5238;fill:#C2CFD8;}
	.st81{opacity:0.5714;fill:#BDCAD5;}
	.st82{opacity:0.619;fill:#B7C6D1;}
	.st83{opacity:0.6667;fill:#B2C2CE;}
	.st84{opacity:0.7143;fill:#ACBDCA;}
	.st85{opacity:0.7619;fill:#A7B9C7;}
	.st86{opacity:0.8095;fill:#A1B5C3;}
	.st87{opacity:0.8571;fill:#9CB0C0;}
	.st88{opacity:0.9048;fill:#96ACBC;}
	.st89{opacity:0.9524;fill:#91A7B9;}
	.st90{fill:#FFFFFF;}
	.st91{fill:#E9F2F5;}
</style>
<g>
	<g id="Ebene_2_00000011752779541315801350000007145026585744635013_">
		<g id="Paper-Icons">
			<g>
				<g class="st0">
					<g>
						<path class="st1" d="M25.6,19.3c1.8-1.6,1.5-6.4,0.6-7.7c-1.2-1.7-2.5-2.7-3.7-3.3c-1.1-0.6-4.3-1.1-5.8-1.1
							c-2,0-4,0.5-5.6,0.9c-1.8,0.5-5.2,1.7-6.9,3.5c-1.9,2.2-0.2,6.4,0.3,7c0.9,1.1,2,2.3,3.4,3c1.3,0.6,2.5,0.6,3.5,0.7
							c0.8,0,4.1,0.4,6.1,0c1.4-0.3,3.8-0.7,4.4-1.1C22.6,20.9,24.1,20.5,25.6,19.3L25.6,19.3z"/>
						<path class="st2" d="M25.3,19.1c1.8-1.5,1.5-6.2,0.6-7.5c-1.2-1.7-2.5-2.7-3.6-3.2s-4.1-1-5.6-1.1c-2,0-3.9,0.5-5.6,0.9
							C9.4,8.7,5.9,10,4.3,11.7c-1.9,2-0.3,6.1,0.2,6.8c0.9,1.1,1.9,2.2,3.3,2.9C9.1,22,10.3,22,11.2,22c0.8,0.1,4,0.5,6,0.1
							c1.4-0.3,3.7-0.8,4.3-1.1C22.3,20.7,23.8,20.3,25.3,19.1L25.3,19.1z"/>
						<path class="st3" d="M25,19c1.8-1.5,1.5-6,0.6-7.3C24.4,10,23.1,9,22,8.5s-4-1-5.4-1.1c-1.9,0-3.9,0.4-5.5,0.9
							C9.4,8.8,6,10,4.5,11.7c-1.8,1.9-0.3,5.9,0.2,6.6c0.9,1.1,1.8,2.2,3.3,2.8c1.3,0.6,2.4,0.5,3.4,0.6c0.7,0.1,3.9,0.5,5.8,0.1
							c1.4-0.3,3.6-0.8,4.2-1.1C22,20.5,23.6,20.1,25,19L25,19z"/>
						<path class="st4" d="M24.7,18.8c1.8-1.4,1.5-5.8,0.6-7.1c-1.2-1.7-2.5-2.6-3.5-3.1c-1.1-0.5-3.8-1-5.2-1
							c-1.9-0.1-3.8,0.4-5.4,0.8c-1.7,0.5-5.1,1.7-6.6,3.4c-1.7,1.9-0.3,5.7,0.2,6.5c0.8,1,1.8,2.1,3.2,2.8c1.3,0.6,2.4,0.5,3.3,0.6
							c0.7,0.1,3.7,0.6,5.7,0.2c1.4-0.3,3.5-0.8,4.1-1.1C21.8,20.2,23.3,19.9,24.7,18.8z"/>
						<path class="st5" d="M24.4,18.6c1.7-1.4,1.5-5.6,0.6-6.9c-1.1-1.7-2.4-2.5-3.5-3.1c-1-0.5-3.6-1-5-1c-1.8-0.1-3.8,0.4-5.4,0.8
							c-1.7,0.5-5,1.8-6.4,3.3C3,13.5,4.3,17.2,4.9,18c0.8,1,1.7,2.1,3.1,2.7c1.3,0.5,2.4,0.4,3.3,0.5c0.7,0.1,3.6,0.6,5.6,0.2
							c1.4-0.3,3.5-0.9,4.1-1.2S23,19.8,24.4,18.6L24.4,18.6z"/>
						<path class="st6" d="M24.1,18.5c1.7-1.3,1.5-5.4,0.6-6.7c-1.1-1.7-2.4-2.5-3.5-3c-1-0.5-3.5-1-4.9-1c-1.8-0.1-3.7,0.3-5.3,0.8
							c-1.7,0.5-5,1.8-6.3,3.2c-1.4,1.6-0.3,5.2,0.3,6c0.8,1,1.6,2,3,2.6c1.3,0.5,2.3,0.4,3.2,0.5c0.7,0.1,3.5,0.7,5.5,0.3
							c1.4-0.3,3.4-0.9,4-1.2C21.2,19.8,22.7,19.6,24.1,18.5L24.1,18.5z"/>
						<path class="st7" d="M23.8,18.3c1.7-1.3,1.5-5.1,0.6-6.5C23.3,10.1,22,9.4,21,8.9s-3.3-1-4.7-1c-1.7-0.1-3.7,0.3-5.2,0.7
							C9.5,9,6.3,10.3,5,11.7c-1.5,1.6-0.5,5.2,0.2,6c0.8,0.9,1.5,2,2.9,2.6c1.2,0.5,2.3,0.4,3.1,0.5c0.7,0.1,3.4,0.7,5.3,0.4
							c1.5-0.3,3.3-0.9,3.9-1.2C21,19.5,22.4,19.4,23.8,18.3L23.8,18.3z"/>
						<path class="st8" d="M23.5,18.1c1.7-1.2,1.5-4.9,0.6-6.3c-1.1-1.7-2.3-2.4-3.4-2.9c-1-0.5-3.2-1-4.5-1
							c-1.7-0.1-3.6,0.3-5.1,0.7C9.4,9.1,6.2,10.4,5,11.7c-1.5,1.6-0.5,5,0.2,5.8s1.4,2,2.8,2.5c1.2,0.5,2.3,0.3,3.1,0.4
							c0.7,0.1,3.2,0.8,5.2,0.4c1.5-0.3,3.2-1,3.8-1.2C20.7,19.3,22.1,19.2,23.5,18.1L23.5,18.1z"/>
						<path class="st9" d="M23.2,18c1.6-1.2,1.5-4.7,0.7-6.1c-1-1.7-2.3-2.3-3.3-2.8c-0.9-0.4-3-0.9-4.3-1.1
							c-1.6-0.1-3.5,0.2-5.1,0.6c-1.7,0.5-4.8,1.8-6,3c-1.4,1.5-0.6,4.8,0.2,5.7s1.3,1.9,2.7,2.5c1.2,0.5,2.2,0.3,3,0.4
							c0.7,0.1,3.1,0.8,5.1,0.5c1.5-0.3,3.1-1,3.7-1.3C20.4,19,21.8,19,23.2,18L23.2,18z"/>
						<path class="st10" d="M22.9,17.8c1.6-1.1,1.5-4.5,0.7-5.9c-1-1.7-2.3-2.2-3.3-2.7c-0.9-0.4-2.8-0.9-4.1-1.1
							c-1.6-0.1-3.5,0.2-5,0.6c-1.7,0.5-4.8,1.8-5.9,2.9C4,13,4.7,16.2,5.5,17.1C6.1,18,6.7,19,8.1,19.6c1.2,0.5,2.2,0.2,2.9,0.4
							c0.7,0.1,3,0.9,4.9,0.5c1.5-0.3,3.1-1,3.6-1.3C20.1,18.8,21.5,18.8,22.9,17.8L22.9,17.8z"/>
						<path class="st11" d="M22.6,17.7c1.6-1.1,1.5-4.3,0.7-5.7c-1-1.7-2.2-2.2-3.2-2.7c-0.9-0.4-2.7-0.9-4-1.1
							c-1.5-0.1-3.4,0.2-4.9,0.6c-1.6,0.5-4.7,1.8-5.8,2.9C4.2,13,4.8,16.1,5.6,17c0.6,0.8,1.1,1.8,2.6,2.3c1.2,0.4,2.2,0.2,2.9,0.3
							c0.7,0.1,2.8,0.9,4.8,0.6c1.5-0.3,3-1.1,3.5-1.3C19.9,18.6,21.3,18.6,22.6,17.7L22.6,17.7z"/>
						<path class="st12" d="M22.3,17.5c1.5-1,1.5-4.1,0.7-5.5c-1-1.8-2.2-2.1-3.2-2.6C19,9,17.3,8.5,16.1,8.3
							c-1.5-0.2-3.4,0.1-4.8,0.6c-1.6,0.5-4.7,1.8-5.7,2.8c-1.2,1.2-0.7,4.2,0.1,5.2c0.6,0.8,1,1.8,2.5,2.3c1.2,0.4,2.1,0.1,2.8,0.3
							s2.7,1,4.7,0.6c1.5-0.3,2.9-1.1,3.4-1.4C19.6,18.4,21,18.4,22.3,17.5L22.3,17.5z"/>
						<path class="st13" d="M22,17.4c1.5-1,1.5-3.9,0.7-5.4c-1-1.8-2.2-2.1-3.2-2.6c-0.8-0.4-2.3-0.9-3.6-1.1
							c-1.4-0.2-3.3,0.1-4.8,0.5c-1.6,0.5-4.6,1.8-5.6,2.8c-1.1,1.2-0.7,4,0.1,5c0.6,0.7,1,1.7,2.4,2.2c1.2,0.4,2.1,0.1,2.8,0.2
							s2.6,1,4.6,0.7c1.5-0.3,2.8-1.1,3.3-1.4C19.3,18.2,20.7,18.2,22,17.4L22,17.4z"/>
						<path class="st14" d="M21.8,17.2c1.5-0.9,1.5-3.7,0.7-5.2c-1-1.8-2.1-2-3.1-2.5c-0.8-0.4-2.2-0.9-3.4-1.1
							c-1.4-0.2-3.2,0.1-4.7,0.5c-1.6,0.5-4.6,1.8-5.5,2.7c-1.1,1.1-0.8,3.8,0.1,4.9c0.6,0.7,0.9,1.7,2.3,2.1
							c1.1,0.4,2.1,0.1,2.7,0.2s2.5,1.1,4.4,0.7c1.5-0.3,2.7-1.2,3.2-1.4C19.1,17.9,20.4,18,21.8,17.2L21.8,17.2z"/>
						<path class="st15" d="M21.5,17c1.5-0.9,1.5-3.5,0.7-5c-0.9-1.8-2.1-2-3.1-2.4c-0.8-0.4-2-0.9-3.2-1c-1.3-0.2-3.2,0-4.6,0.4
							C9.7,9.5,6.8,10.8,6,11.6c-1,1-0.8,3.6,0.1,4.7C6.6,17,6.8,18,8.3,18.5c1.1,0.4,2.1,0,2.6,0.2c0.6,0.2,2.4,1.1,4.3,0.8
							c1.5-0.3,2.7-1.2,3.1-1.4C18.8,17.7,20.1,17.8,21.5,17L21.5,17z"/>
						<path class="st16" d="M21.1,16.9c1.4-0.8,1.5-3.3,0.7-4.8c-0.9-1.8-2.1-1.9-3-2.4c-0.8-0.4-1.8-0.8-3-1s-3.1,0-4.5,0.4
							C9.7,9.6,6.8,10.9,6,11.7c-0.9,0.9-0.8,3.4,0.1,4.6c0.5,0.6,0.7,1.6,2.1,2c1.1,0.3,2,0,2.6,0.1c0.6,0.2,2.2,1.2,4.2,0.9
							c1.5-0.2,2.6-1.2,3-1.5C18.6,17.4,19.8,17.6,21.1,16.9L21.1,16.9z"/>
						<path class="st17" d="M20.9,16.7c1.4-0.8,1.5-3.1,0.8-4.6c-0.9-1.8-2-1.9-3-2.3c-0.8-0.3-1.7-0.8-2.9-1s-3.1,0-4.5,0.4
							C9.7,9.7,6.9,11,6.2,11.7c-0.8,0.9-0.9,3.2,0.1,4.4c0.5,0.6,0.6,1.5,2.1,2c1.1,0.3,2-0.1,2.5,0.1c0.6,0.2,2.1,1.2,4.1,0.9
							c1.5-0.2,2.5-1.3,2.9-1.5C18.3,17.2,19.5,17.5,20.9,16.7L20.9,16.7z"/>
						<path class="st18" d="M20.6,16.6c1.4-0.7,1.5-2.8,0.8-4.4c-0.9-1.8-2-1.8-3-2.2c-0.7-0.3-1.5-0.8-2.7-1s-3-0.1-4.4,0.3
							c-1.6,0.5-4.4,1.8-5,2.4c-0.8,0.8-0.9,3.1,0.1,4.2c0.4,0.5,0.5,1.5,2,1.9c1.1,0.3,1.9-0.1,2.4,0c0.6,0.2,2,1.3,3.9,1
							c1.5-0.2,2.4-1.3,2.8-1.5C18,17,19.2,17.3,20.6,16.6L20.6,16.6z"/>
						<path class="st19" d="M20.3,16.4c1.4-0.7,1.5-2.6,0.8-4.2c-0.8-1.8-2-1.8-2.9-2.2c-0.7-0.3-1.4-0.8-2.5-1s-3-0.1-4.3,0.3
							c-1.6,0.5-4.4,1.8-5,2.4c-0.7,0.7-1,2.9,0,4.1c0.4,0.5,0.4,1.4,1.9,1.8c1.1,0.3,1.9-0.1,2.4,0c0.6,0.2,1.8,1.3,3.8,1
							c1.6-0.2,2.4-1.4,2.7-1.5C17.7,16.8,19,17.1,20.3,16.4z"/>
						<path class="st20" d="M20,16.2c1.3-0.6,1.5-2.4,0.8-4c-0.8-1.8-1.9-1.7-2.9-2.1c-0.7-0.3-1.2-0.8-2.3-1S12.7,9,11.4,9.4
							c-1.5,0.5-4.3,1.8-4.8,2.3c-0.7,0.6-1,2.7,0,3.9C7,16.1,6.9,17,8.4,17.4c1.1,0.3,1.9-0.2,2.3,0c0.6,0.2,1.7,1.4,3.7,1.1
							c1.6-0.2,2.3-1.4,2.6-1.6C17.5,16.5,18.7,16.9,20,16.2L20,16.2z"/>
						<path class="st21" d="M19.7,16.1c1.3-0.6,1.5-2.2,0.8-3.8c-0.8-1.8-1.9-1.7-2.8-2.1c-0.6-0.3-1-0.8-2.1-1
							c-1-0.3-2.8-0.2-4.2,0.2c-1.5,0.5-4.2,1.8-4.7,2.2c-0.6,0.6-1.1,2.5,0,3.8c0.4,0.4,0.2,1.4,1.7,1.7c1,0.2,1.9-0.2,2.2-0.1
							c0.6,0.2,1.6,1.4,3.6,1.1c1.6-0.2,2.2-1.4,2.5-1.6C17.2,16.3,18.4,16.7,19.7,16.1L19.7,16.1z"/>
						<path class="st22" d="M19.4,15.9c1.3-0.6,1.5-2,0.8-3.6c-0.8-1.8-1.9-1.6-2.8-2c-0.6-0.3-0.9-0.7-2-1c-1-0.3-2.8-0.2-4.1,0.2
							c-1.5,0.5-4.2,1.8-4.6,2.2c-0.5,0.5-1.1,2.3,0,3.6c0.3,0.4,0.2,1.3,1.6,1.6c1,0.2,1.8-0.3,2.2-0.1C11.1,17,12,18.3,14,18
							c1.6-0.2,2.1-1.5,2.4-1.6C16.9,16.1,18.1,16.5,19.4,15.9z"/>
					</g>
					<path class="st23" d="M17.7,9.9c-0.1,0-0.1,0-0.2,0c-0.4-1-1.4-1.8-2.5-1.8c-0.4,0-0.7,0.1-1,0.2c-0.4-1-1.3-1.7-2.4-1.7
						s-2,0.7-2.4,1.6c-0.1,0-0.3,0-0.4,0c-1.2,0-2.2,0.9-2.3,2.1c-0.2,0-0.3-0.1-0.5-0.1c-1.4,0-2.6,1.2-2.6,2.6s1.2,2.6,2.6,2.6
						c0,0,0,0,0.1,0c0.2,1,1.2,1.8,2.3,1.8c0.9,0,1.6-0.5,2-1.2c0.6,1,1.6,1.6,2.8,1.6c1.3,0,2.5-0.8,3-1.9c0.5,0.3,1,0.4,1.5,0.4
						c1.7,0,3.1-1.4,3.1-3.1S19.4,9.9,17.7,9.9z"/>
					<path class="st24" d="M17.8,10c-0.1,0-0.1,0-0.2,0c-0.4-1-1.4-1.8-2.5-1.8c-0.4,0-0.7,0.1-1,0.2c-0.4-1-1.3-1.7-2.4-1.7
						s-2,0.7-2.4,1.6c-0.1,0-0.3,0-0.4,0c-1.2,0-2.2,0.9-2.3,2.1c-0.2,0-0.3-0.1-0.5-0.1c-1.4,0-2.6,1.2-2.6,2.6s1.2,2.6,2.6,2.6
						c0,0,0,0,0.1,0c0.2,1,1.2,1.8,2.3,1.8c0.9,0,1.6-0.5,2-1.2c0.6,1,1.6,1.6,2.8,1.6c1.3,0,2.5-0.8,3-1.9c0.5,0.3,1,0.4,1.5,0.4
						c1.7,0,3.1-1.4,3.1-3.1S19.5,10,17.8,10z"/>
				</g>
				<g>
					<g class="st0">
						<g class="st25">
							<path class="st26" d="M18.1,16.6c-3,0.2-7.5-1.4-8.5-3.6c-1-2.1-0.2-3.7,1.4-4.2c1-0.3,3.5,1.5,5.7,1.5
								c3-0.1,3.6-1.1,4.6-2.5c0.8-1.2,4.8-0.3,4.4,2.7C25.2,14.3,21.9,16.3,18.1,16.6L18.1,16.6z"/>
							<path class="st27" d="M18.1,16.4c-2.9,0.2-7.3-1.4-8.3-3.5S9.5,9.3,11,8.8c1-0.3,3.4,1.5,5.7,1.4c3-0.1,3.6-1.1,4.6-2.5
								c0.8-1.2,4.5-0.3,4.1,2.7C25,14.2,21.8,16.1,18.1,16.4z"/>
							<path class="st28" d="M18.1,16.2c-2.8,0.3-7-1.3-8.1-3.3s-0.4-3.5,1.1-4c0.9-0.3,3.4,1.5,5.7,1.4c2.9-0.1,3.6-1.2,4.6-2.6
								c0.8-1.1,4.3-0.2,3.9,2.6C24.8,14,21.7,15.9,18.1,16.2L18.1,16.2z"/>
							<path class="st29" d="M18.2,16.1c-2.7,0.3-6.8-1.3-7.9-3.2S9.8,9.5,11.2,9c0.9-0.3,3.3,1.5,5.7,1.4c2.9-0.2,3.6-1.2,4.6-2.6
								c0.8-1.1,4.1-0.2,3.6,2.6C24.5,13.9,21.6,15.8,18.2,16.1L18.2,16.1z"/>
							<path class="st30" d="M18.2,15.9c-2.6,0.3-6.6-1.2-7.7-3s-0.6-3.2,0.7-3.7c0.9-0.3,3.3,1.5,5.7,1.4c2.8-0.2,3.7-1.3,4.6-2.6
								c0.7-1.1,3.8-0.1,3.4,2.5C24.3,13.8,21.5,15.6,18.2,15.9L18.2,15.9z"/>
							<path class="st31" d="M18.2,15.8c-2.6,0.3-6.3-1.1-7.5-2.9C9.5,11,10,9.8,11.3,9.3c0.8-0.3,3.2,1.5,5.7,1.3
								c2.8-0.2,3.7-1.3,4.5-2.6c0.7-1,3.6,0,3.1,2.5C24,13.7,21.4,15.4,18.2,15.8L18.2,15.8z"/>
							<path class="st32" d="M18.2,15.6c-2.5,0.3-6.1-1.1-7.2-2.7c-1.2-1.8-0.9-3,0.4-3.5c0.8-0.3,3.1,1.5,5.6,1.3
								c2.7-0.2,3.7-1.4,4.5-2.6c0.7-1,3.4,0,2.9,2.5C23.8,13.5,21.3,15.2,18.2,15.6L18.2,15.6z"/>
							<path class="st33" d="M18.2,15.4c-2.4,0.3-5.9-1-7-2.6c-1.3-1.7-1-2.9,0.2-3.4c0.8-0.3,3.1,1.5,5.6,1.3s3.7-1.4,4.5-2.7
								c0.7-1,3.2,0.1,2.6,2.4C23.6,13.4,21.2,15,18.2,15.4L18.2,15.4z"/>
							<path class="st34" d="M18.2,15.3c-2.3,0.3-5.7-0.9-6.8-2.4c-1.3-1.7-1.1-2.8,0.1-3.2c0.7-0.3,3,1.6,5.6,1.3s3.7-1.5,4.5-2.7
								c0.6-0.9,2.9,0.1,2.4,2.4C23.4,13.3,21.1,14.9,18.2,15.3L18.2,15.3z"/>
							<path class="st35" d="M18.2,15.1c-2.3,0.4-5.4-0.9-6.6-2.3c-1.4-1.6-1.2-2.7-0.1-3.1c0.7-0.3,3,1.6,5.6,1.2s3.7-1.6,4.5-2.7
								c0.6-0.9,2.7,0.2,2.2,2.3C23.1,13.2,21,14.7,18.2,15.1L18.2,15.1z"/>
							<path class="st36" d="M18.2,15c-2.2,0.4-5.2-0.8-6.4-2.1c-1.4-1.6-1.3-2.6-0.3-3c0.7-0.3,2.9,1.6,5.6,1.2
								c2.5-0.3,3.7-1.6,4.5-2.7c0.6-0.9,2.5,0.2,1.9,2.3C22.9,13.1,20.9,14.5,18.2,15L18.2,15z"/>
							<path class="st37" d="M18.2,14.8c-2.1,0.4-5-0.8-6.2-2c-1.5-1.5-1.4-2.4-0.5-2.9c0.6-0.3,2.9,1.6,5.6,1.2
								c2.4-0.3,3.8-1.6,4.5-2.7c0.6-0.8,2.2,0.3,1.7,2.2C22.6,12.9,20.8,14.4,18.2,14.8z"/>
							<path class="st38" d="M18.3,14.6c-2,0.4-4.8-0.7-6-1.8c-1.5-1.5-1.5-2.3-0.6-2.7c0.6-0.3,2.8,1.6,5.6,1.2
								c2.4-0.4,3.8-1.7,4.5-2.7c0.6-0.8,2,0.3,1.4,2.2C22.4,12.8,20.7,14.2,18.3,14.6L18.3,14.6z"/>
							<path class="st39" d="M18.3,14.5c-1.9,0.4-4.6-0.6-5.8-1.7c-1.6-1.4-1.6-2.2-0.8-2.6c0.6-0.3,2.7,1.6,5.5,1.1
								c2.3-0.4,3.8-1.8,4.5-2.8c0.5-0.8,1.8,0.4,1.2,2.2C22.2,12.7,20.6,14,18.3,14.5z"/>
							<path class="st40" d="M18.3,14.3c-1.9,0.4-4.4-0.6-5.6-1.5c-1.7-1.3-1.7-2.1-1-2.5c0.5-0.3,2.7,1.6,5.5,1.1
								c2.3-0.4,3.8-1.8,4.4-2.8c0.5-0.8,1.6,0.4,0.9,2.1S20.5,13.8,18.3,14.3L18.3,14.3z"/>
							<path class="st41" d="M18.3,14.2c-1.8,0.4-4.2-0.5-5.3-1.4c-1.7-1.3-1.8-2-1.1-2.4c0.5-0.3,2.6,1.6,5.5,1.1
								c2.2-0.4,3.8-1.9,4.4-2.8c0.5-0.7,1.4,0.5,0.7,2.1S20.4,13.7,18.3,14.2L18.3,14.2z"/>
							<path class="st42" d="M18.3,14c-1.7,0.4-3.9-0.4-5.1-1.2c-1.8-1.2-1.9-1.9-1.3-2.2c0.5-0.3,2.6,1.6,5.5,1.1
								c2.2-0.4,3.8-1.9,4.4-2.8c0.5-0.7,1.1,0.5,0.4,2S20.3,13.5,18.3,14L18.3,14z"/>
							<path class="st43" d="M18.3,13.9c-1.6,0.5-3.7-0.3-4.9-1.1c-1.9-1.1-2.1-1.8-1.5-2.1c0.4-0.2,2.5,1.6,5.5,1.1
								c2.1-0.4,3.8-2,4.4-2.8c0.5-0.7,0.9,0.6,0.2,2C21.3,12.2,20.2,13.3,18.3,13.9L18.3,13.9z"/>
							<path class="st44" d="M18.3,13.7c-1.5,0.5-3.5-0.2-4.7-0.9c-1.9-1.1-2.2-1.6-1.6-2c0.4-0.2,2.5,1.6,5.5,1
								c2.1-0.4,3.8-2,4.4-2.8c0.5-0.6,0.7,0.7-0.1,1.9C21.1,12.1,20.1,13.1,18.3,13.7L18.3,13.7z"/>
							<path class="st45" d="M18.3,13.5c-1.5,0.5-3.3-0.2-4.5-0.7c-2-1-2.3-1.5-1.8-1.9c0.4-0.2,2.4,1.7,5.4,1
								c2-0.4,3.9-2.1,4.4-2.9c0.4-0.6,0.5,0.7-0.3,1.9C20.9,11.9,20,13,18.3,13.5L18.3,13.5z"/>
							<path class="st46" d="M18.3,13.4c-1.4,0.5-3.1-0.1-4.3-0.6c-2.1-0.9-2.4-1.4-2-1.7c0.3-0.2,2.3,1.7,5.4,1
								c2-0.4,3.9-2.1,4.4-2.9c0.4-0.6,0.3,0.8-0.6,1.8C20.7,11.8,19.9,12.8,18.3,13.4L18.3,13.4z"/>
							<path class="st47" d="M18.4,13.2c-1.3,0.5-2.9,0-4.1-0.4c-2.1-0.8-2.5-1.3-2.1-1.6c0.3-0.2,2.3,1.7,5.4,1
								c1.9-0.5,3.9-2.2,4.4-2.9c0.4-0.6,0.1,0.9-0.8,1.8C20.4,11.7,19.8,12.6,18.4,13.2L18.4,13.2z"/>
						</g>
						<g class="st25">
							<path class="st26" d="M9,3.9C10.2,1,13.4,0,15,0c1,0,1.9,1,0.4,3.4c-1.6,2.7-0.8,4.9,0.5,6.1c1.5,1.4,3.5,1.4,3.1,2.6
								c-0.8,2.1-4.5,2.6-7.4,0.9C8.6,11.4,7.6,7.1,9,3.9z"/>
							<path class="st27" d="M9,4c1.1-2.9,4.3-3.9,5.9-3.9c0.9,0,1.7,1,0.3,3.4c-1.6,2.7-0.8,4.9,0.5,6.1c1.4,1.4,3.5,1.4,3.1,2.6
								c-0.7,2.1-4.4,2.5-7.3,0.8C8.7,11.3,7.7,7.2,9,4L9,4z"/>
							<path class="st28" d="M9.1,4.1c1.1-2.9,4.3-4,5.7-3.9c0.9,0,1.6,1,0.2,3.3c-1.6,2.7-0.8,4.9,0.5,6.2c1.4,1.4,3.5,1.5,3.1,2.6
								c-0.7,1.9-4.3,2.4-7.1,0.7S7.9,7.2,9.1,4.1L9.1,4.1z"/>
							<path class="st29" d="M9.1,4.2c1.1-2.9,4.2-4.1,5.6-4c0.8,0,1.4,1,0.1,3.3c-1.6,2.7-0.7,4.9,0.5,6.2c1.4,1.4,3.5,1.6,3.1,2.6
								c-0.7,1.9-4.2,2.2-6.9,0.6C8.8,11.2,8,7.3,9.1,4.2z"/>
							<path class="st30" d="M9.2,4.2c1.1-2.9,4.2-4.1,5.5-4c0.8,0,1.3,0.9,0,3.2c-1.6,2.7-0.7,4.9,0.5,6.2c1.3,1.4,3.5,1.6,3.2,2.6
								c-0.6,1.8-4.2,2.1-6.8,0.5C8.9,11.2,8.1,7.3,9.2,4.2L9.2,4.2z"/>
							<path class="st31" d="M9.2,4.3c1-2.9,4.1-4.2,5.3-4.1c0.8,0.1,1.2,0.9-0.1,3.2c-1.6,2.7-0.7,4.9,0.5,6.2
								c1.3,1.4,3.5,1.7,3.2,2.6c-0.6,1.7-4.1,2-6.6,0.5C8.9,11.1,8.2,7.3,9.2,4.3L9.2,4.3z"/>
							<path class="st32" d="M9.3,4.4c1-2.9,4.1-4.2,5.2-4.1c0.7,0.1,1.1,0.9-0.2,3.1c-1.5,2.7-0.7,4.9,0.5,6.2
								c1.3,1.4,3.5,1.7,3.2,2.6c-0.6,1.6-4,1.9-6.5,0.4S8.3,7.4,9.3,4.4L9.3,4.4z"/>
							<path class="st33" d="M9.3,4.5c0.9-3,4-4.3,5.1-4.2c0.6,0.1,0.9,0.9-0.3,3c-1.5,2.7-0.7,4.9,0.5,6.2s3.5,1.8,3.2,2.6
								c-0.6,1.5-3.9,1.8-6.3,0.3C9.1,11,8.4,7.4,9.3,4.5L9.3,4.5z"/>
							<path class="st34" d="M9.3,4.6c0.9-3,4-4.4,4.9-4.2c0.6,0.1,0.8,0.8-0.4,3c-1.5,2.7-0.7,4.9,0.5,6.2s3.5,1.8,3.2,2.6
								c-0.5,1.4-3.8,1.6-6.2,0.2C9.1,11,8.5,7.4,9.3,4.6L9.3,4.6z"/>
							<path class="st35" d="M9.4,4.7c0.9-3,3.9-4.4,4.8-4.3c0.6,0.1,0.6,0.8-0.5,2.9C12.2,6,13,8.1,14.2,9.5s3.5,1.9,3.2,2.6
								c-0.5,1.3-3.8,1.5-6,0.1C9.2,10.9,8.6,7.5,9.4,4.7z"/>
							<path class="st36" d="M9.4,4.8c0.8-3,3.9-4.5,4.7-4.3c0.5,0.1,0.5,0.8-0.6,2.8C12,6,12.9,8.1,14,9.5s3.5,1.9,3.2,2.6
								c-0.5,1.2-3.7,1.4-5.9,0.1C9.2,10.9,8.7,7.5,9.4,4.8L9.4,4.8z"/>
							<path class="st37" d="M9.5,4.9c0.8-3,3.8-4.6,4.6-4.4c0.5,0.1,0.4,0.8-0.7,2.8c-1.5,2.7-0.6,4.8,0.5,6.2s3.5,2,3.2,2.6
								c-0.5,1.1-3.6,1.3-5.7,0S8.8,7.5,9.5,4.9z"/>
							<path class="st38" d="M9.5,5c0.8-3.1,3.8-4.7,4.4-4.5c0.4,0.1,0.2,0.7-0.8,2.7C11.6,6,12.5,8,13.7,9.4
								c1.1,1.3,3.5,2.1,3.3,2.6c-0.4,1-3.5,1.2-5.6-0.1C9.4,10.8,8.9,7.6,9.5,5L9.5,5z"/>
							<path class="st39" d="M9.6,5.1c0.7-3.1,3.7-4.7,4.3-4.5C14.3,0.7,14,1.3,13,3.3c-1.4,2.8-0.6,4.8,0.6,6.3
								c1.1,1.3,3.5,2.1,3.3,2.6c-0.4,0.9-3.4,1.1-5.4-0.2C9.4,10.7,8.9,7.6,9.6,5.1L9.6,5.1z"/>
							<path class="st40" d="M9.6,5.2c0.7-3.1,3.7-4.8,4.2-4.6c0.3,0.1,0,0.7-1,2.6C11.3,6,12.1,8,13.3,9.5c1,1.3,3.5,2.2,3.3,2.6
								c-0.4,0.8-3.3,0.9-5.3-0.3C9.5,10.7,9.1,7.6,9.6,5.2z"/>
							<path class="st41" d="M9.6,5.3c0.6-3.1,3.6-4.9,4-4.6c0.3,0.2-0.1,0.6-1.1,2.5C11.1,6,12,8,13.1,9.5c1,1.3,3.5,2.2,3.3,2.6
								c-0.4,0.7-3.3,0.8-5.1-0.4C9.6,10.6,9.1,7.7,9.6,5.3z"/>
							<path class="st42" d="M9.7,5.3c0.6-3.1,3.6-4.9,3.9-4.7c0.2,0.2-0.3,0.6-1.2,2.5C11,6,11.8,8,12.9,9.5c1,1.3,3.5,2.3,3.3,2.6
								c-0.3,0.6-3.2,0.7-4.9-0.4S9.2,7.7,9.7,5.3z"/>
							<path class="st43" d="M9.7,5.4c0.6-3.2,3.5-5,3.8-4.7c0.2,0.2-0.4,0.6-1.3,2.4c-1.4,2.8-0.6,4.8,0.6,6.3
								c0.9,1.3,3.5,2.3,3.3,2.6c-0.3,0.5-3.1,0.6-4.8-0.5C9.7,10.5,9.3,7.7,9.7,5.4z"/>
							<path class="st44" d="M9.8,5.5c0.5-3.2,3.5-5,3.6-4.8C13.6,1,12.9,1.3,12,3.1c-1.4,2.8-0.5,4.8,0.6,6.3
								c0.9,1.3,3.5,2.4,3.3,2.6c-0.3,0.4-3,0.5-4.6-0.6C9.8,10.4,9.4,7.7,9.8,5.5L9.8,5.5z"/>
							<path class="st45" d="M9.8,5.6c0.4-3.2,3.4-5.1,3.5-4.8c0.1,0.2-0.7,0.5-1.5,2.3c-1.4,2.8-0.5,4.7,0.6,6.3
								c0.9,1.3,3.5,2.4,3.3,2.6c-0.2,0.3-2.9,0.4-4.5-0.7C9.8,10.4,9.5,7.8,9.8,5.6L9.8,5.6z"/>
							<path class="st46" d="M9.9,5.7c0.4-3.2,3.3-5.2,3.4-4.9c0,0.2-0.8,0.5-1.6,2.2c-1.3,2.8-0.5,4.7,0.6,6.3
								c0.9,1.2,3.5,2.5,3.4,2.6c-0.2,0.2-2.8,0.2-4.3-0.8C9.9,10.4,9.6,7.8,9.9,5.7z"/>
							<path class="st47" d="M9.9,5.8c0.3-3.2,3.3-5.2,3.3-4.9c0,0.2-0.9,0.5-1.7,2.2c-1.3,2.8-0.5,4.7,0.6,6.3
								c0.8,1.2,3.5,2.6,3.4,2.6c-0.2,0.1-2.8,0.1-4.2-0.9C9.9,10.3,9.7,7.8,9.9,5.8L9.9,5.8z"/>
						</g>
					</g>
					<path class="st48" d="M20.8,9.8c-2.3,2.3-6,2.3-8.2,0s-2.3-6,0-8.2c0.9-0.9,2.1-1.3,3.3-1.5C14-0.1,12,0.5,10.6,1.9
						c-2.7,2.7-2.7,7.1,0,9.8s7.1,2.7,9.8,0c1.5-1.5,2.3-3.5,2.1-5.5C22.4,7.6,21.8,8.7,20.8,9.8L20.8,9.8z"/>
					
						<linearGradient id="SVGID_1_" gradientUnits="userSpaceOnUse" x1="517.0203" y1="-145.5286" x2="526.8149" y2="-135.7242" gradientTransform="matrix(0.7071 -0.7071 0.7071 0.7071 -253.9567 475.4972)">
						<stop  offset="0" style="stop-color:#FFD45C"/>
						<stop  offset="1" style="stop-color:#FF9D00"/>
					</linearGradient>
					<path class="st49" d="M20.9,9.9c-2.3,2.3-6,2.3-8.2,0s-2.3-6,0-8.2c0.9-0.9,2-1.4,3.2-1.6c-1.8,0-3.7,0.6-5,2
						c-2.7,2.7-2.7,7.1,0,9.8s7.1,2.7,9.8,0c1.5-1.5,2.2-3.6,2-5.6C22.4,7.6,21.9,8.9,20.9,9.9L20.9,9.9z"/>
				</g>
				<g class="st0">
					<g class="st25">
						<path class="st26" d="M16.8,16c1-1.5,0.5-4.4-0.2-5.4c-0.9-1.3-2.4-1.5-3.3-1.9C12.4,8.2,10.7,7,9.6,7C8.1,7,7.3,7.6,6,7.9
							c-1.4,0.4-3.7,2.5-4.9,3.9c-1.5,1.6-1.1,4.1-0.7,4.6C1,17.3,1.9,18.1,3,18.7c1,0.5,1.9,0.5,2.7,0.5c0.6,0,1.3,0.3,2.8,0
							c1.1-0.2,1.6-0.3,2.2-0.5C11.8,18.3,15.5,17.8,16.8,16L16.8,16z"/>
						<path class="st27" d="M16.6,15.9c1-1.5,0.6-4.3-0.1-5.3c-0.9-1.3-2.4-1.5-3.3-1.9c-0.9-0.4-2.5-1.6-3.6-1.6
							C8.1,7.1,7.2,7.7,6,8c-1.3,0.4-3.6,2.5-4.8,3.8c-1.4,1.6-1.1,4-0.7,4.5C1.1,17.1,1.9,18,3,18.5C4,19,4.9,18.9,5.7,19
							c0.6,0,1.3,0.4,2.8,0c1.1-0.2,1.6-0.3,2.1-0.5C11.7,18.2,15.3,17.7,16.6,15.9L16.6,15.9z"/>
						<path class="st50" d="M16.4,15.9c1-1.4,0.6-4.2-0.1-5.1c-0.9-1.3-2.4-1.4-3.2-1.9c-0.8-0.4-2.4-1.6-3.5-1.6
							C8.1,7.2,7.2,7.7,6,8.1c-1.3,0.4-3.6,2.4-4.7,3.7c-1.4,1.5-1.2,3.8-0.8,4.4C1.1,17,1.9,17.8,3,18.3c1,0.5,1.9,0.4,2.6,0.4
							c0.6,0,1.3,0.4,2.8,0.1c1.1-0.2,1.6-0.4,2.1-0.5C11.7,18,15.1,17.6,16.4,15.9L16.4,15.9z"/>
						<path class="st29" d="M16.2,15.8c1-1.4,0.6-4.1-0.1-5c-0.9-1.3-2.4-1.4-3.2-1.8c-0.8-0.4-2.3-1.6-3.4-1.6
							C8,7.3,7.2,7.8,5.9,8.1c-1.3,0.4-3.5,2.4-4.6,3.7C0,13.2,0.1,15.5,0.5,16C1.2,16.8,2,17.7,3,18.1s1.9,0.3,2.6,0.4
							c0.6,0.1,1.3,0.4,2.8,0.1c1.1-0.2,1.6-0.4,2.1-0.5C11.6,17.8,15,17.5,16.2,15.8L16.2,15.8z"/>
						<path class="st51" d="M16,15.7c1-1.3,0.6-3.9,0-4.9c-0.9-1.3-2.4-1.4-3.2-1.8C12,8.7,10.5,7.4,9.4,7.4C8,7.3,7.1,7.8,5.9,8.1
							c-1.3,0.4-3.4,2.4-4.5,3.6c-1.3,1.4-1.3,3.6-0.8,4.2c0.6,0.8,1.4,1.6,2.5,2s1.9,0.3,2.5,0.3c0.6,0.1,1.3,0.4,2.8,0.1
							c1.1-0.2,1.6-0.4,2.1-0.5C11.6,17.7,14.8,17.3,16,15.7z"/>
						<path class="st52" d="M15.8,15.7c1-1.3,0.7-3.8,0-4.8c-0.9-1.3-2.3-1.4-3.1-1.8c-0.8-0.4-2.2-1.6-3.2-1.7
							C8,7.4,7.1,7.9,5.9,8.2c-1.3,0.4-3.4,2.4-4.4,3.5c-1.2,1.3-1.3,3.5-0.8,4.1c0.6,0.7,1.3,1.6,2.4,2S5,18,5.6,18.1
							c0.5,0.1,1.3,0.4,2.8,0.1c1.1-0.2,1.7-0.4,2.1-0.5C11.5,17.5,14.6,17.2,15.8,15.7L15.8,15.7z"/>
						<path class="st53" d="M15.6,15.6c1-1.2,0.7-3.7,0.1-4.7c-0.9-1.3-2.3-1.4-3.1-1.7c-0.8-0.4-2.1-1.6-3.1-1.7
							C8,7.5,7.1,7.9,5.9,8.2c-1.3,0.4-3.3,2.4-4.3,3.4c-1.2,1.3-1.3,3.4-0.8,4c0.6,0.7,1.3,1.5,2.4,1.9s1.8,0.2,2.5,0.2
							c0.5,0.1,1.3,0.5,2.8,0.2c1.1-0.2,1.7-0.4,2.1-0.5C11.5,17.3,14.4,17.1,15.6,15.6L15.6,15.6z"/>
						<path class="st54" d="M15.4,15.6c1-1.2,0.7-3.6,0.1-4.5c-0.9-1.3-2.3-1.3-3.1-1.7c-0.7-0.4-2-1.6-3.1-1.7C8,7.5,7,8,5.8,8.3
							c-1.3,0.4-3.3,2.3-4.2,3.4c-1.1,1.2-1.4,3.2-0.8,3.9C1.3,16.2,2,17,3.1,17.4s1.8,0.1,2.4,0.2c0.5,0.1,1.3,0.5,2.8,0.2
							c1.1-0.2,1.7-0.4,2.1-0.5C11.4,17.1,14.2,17,15.4,15.6L15.4,15.6z"/>
						<path class="st55" d="M15.2,15.5c1-1.1,0.7-3.5,0.1-4.4c-0.9-1.3-2.2-1.3-3.1-1.7c-0.7-0.4-2-1.6-3-1.7C8,7.6,7,8,5.8,8.3
							c-1.3,0.4-3.2,2.3-4.1,3.3c-1.1,1.1-1.4,3.1-0.9,3.8s1.2,1.4,2.3,1.8s1.8,0.1,2.4,0.1c0.5,0.1,1.3,0.5,2.8,0.2
							C9.4,17.3,10,17,10.4,17C11.3,17,14,16.8,15.2,15.5L15.2,15.5z"/>
						<path class="st56" d="M15,15.5c1-1.1,0.8-3.4,0.2-4.3c-0.9-1.3-2.2-1.3-3-1.6C11.5,9.3,10.3,8,9.3,7.9C8,7.7,6.9,8.1,5.8,8.4
							c-1.3,0.4-3.2,2.3-4,3.2c-1,1.1-1.5,3-0.9,3.7C1.4,16,2,16.7,3.1,17s1.8,0,2.4,0.1c0.5,0.1,1.3,0.5,2.8,0.3
							c1.1-0.2,1.7-0.5,2.1-0.5C11.3,16.8,13.8,16.7,15,15.5L15,15.5z"/>
						<path class="st57" d="M14.8,15.4c1-1,0.8-3.3,0.2-4.1c-0.9-1.3-2.2-1.2-3-1.6C11.3,9.3,10.1,8,9.2,7.9C8,7.8,6.9,8.1,5.8,8.5
							c-1.3,0.4-3.1,2.3-3.9,3.1c-1,1-1.5,2.9-0.9,3.6c0.5,0.6,1.1,1.3,2.2,1.6s1.8,0,2.3,0.1C6,17,6.8,17.5,8.3,17.2
							c1.1-0.2,1.7-0.5,2.1-0.5C11.2,16.6,13.6,16.6,14.8,15.4L14.8,15.4z"/>
						<path class="st58" d="M14.6,15.4c1-1,0.8-3.1,0.2-4c-0.9-1.3-2.2-1.2-2.9-1.6C11.2,9.4,10.1,8.1,9.1,8C8,7.9,6.9,8.2,5.7,8.5
							c-1.3,0.4-3,2.2-3.8,3.1c-0.9,1-1.5,2.8-0.9,3.5c0.5,0.6,1.1,1.3,2.2,1.6s1.8-0.1,2.3,0s1.3,0.6,2.8,0.3
							c1.1-0.2,1.7-0.5,2.1-0.5C11.2,16.5,13.4,16.5,14.6,15.4L14.6,15.4z"/>
						<path class="st59" d="M14.4,15.3c1-0.9,0.9-3,0.3-3.9c-0.9-1.3-2.1-1.2-2.9-1.6C11.1,9.6,10,8.2,9.1,8.1
							C8,7.9,6.8,8.2,5.7,8.6c-1.2,0.4-3,2.2-3.7,3c-0.9,0.9-1.6,2.6-0.9,3.4c0.5,0.6,1,1.3,2.1,1.5s1.8-0.1,2.2,0s1.3,0.6,2.8,0.3
							c1.2-0.2,1.7-0.5,2.1-0.5C11.1,16.3,13.2,16.3,14.4,15.3L14.4,15.3z"/>
						<path class="st60" d="M14.2,15.3c1-0.9,0.9-2.9,0.3-3.8c-0.8-1.3-2.1-1.2-2.9-1.5C11,9.7,10,8.3,9,8.2C8,8,6.8,8.3,5.7,8.6
							C4.4,9,2.8,10.8,2.1,11.5c-0.8,0.9-1.6,2.5-0.9,3.3c0.4,0.5,1,1.2,2.1,1.4s1.8-0.2,2.2-0.1s1.3,0.6,2.8,0.4
							c1.2-0.2,1.8-0.5,2.1-0.5C11.1,16.1,13.1,16.2,14.2,15.3L14.2,15.3z"/>
						<path class="st61" d="M14,15.2c1-0.8,0.9-2.8,0.4-3.7c-0.8-1.3-2.1-1.1-2.9-1.5C10.9,9.8,9.9,8.4,9,8.3c-1-0.2-2.3,0-3.3,0.4
							C4.4,9,2.8,10.8,2.1,11.5c-0.8,0.8-1.6,2.4-1,3.2c0.4,0.5,0.9,1.2,2,1.4S5,15.9,5.4,16c0.5,0.1,1.3,0.6,2.8,0.4
							c1.2-0.2,1.8-0.6,2.1-0.5C11,15.9,12.9,16.1,14,15.2L14,15.2z"/>
						<path class="st62" d="M13.8,15.1c1-0.8,0.9-2.7,0.4-3.5c-0.8-1.3-2.1-1.1-2.8-1.5C10.8,9.8,9.9,8.4,9,8.3S6.7,8.4,5.6,8.7
							c-1.2,0.4-2.8,2.2-3.4,2.8c-0.7,0.7-1.7,2.3-1,3.2c0.4,0.5,0.9,1.1,2,1.3c1.1,0.2,1.7-0.3,2.1-0.2c0.5,0.1,1.3,0.7,2.8,0.4
							c1.2-0.2,1.8-0.6,2.1-0.5C10.9,15.7,12.7,16,13.8,15.1L13.8,15.1z"/>
						<path class="st63" d="M13.6,15.1c1-0.7,0.9-2.6,0.4-3.4c-0.8-1.3-2.1-1.1-2.8-1.4C10.6,10,9.8,8.6,8.9,8.4s-2.2,0-3.3,0.3
							c-1.2,0.4-2.7,2.1-3.3,2.7c-0.7,0.7-1.7,2.2-1,3.1c0.4,0.4,0.8,1.1,2,1.2s1.7-0.3,2.1-0.2c0.5,0.1,1.3,0.7,2.8,0.4
							c1.2-0.2,1.8-0.6,2.1-0.5C10.9,15.6,12.5,15.9,13.6,15.1z"/>
						<path class="st64" d="M13.4,15.1c1-0.7,1-2.5,0.5-3.3c-0.8-1.3-2-1.1-2.8-1.4c-0.6-0.2-1.4-1.7-2.2-1.8s-2.2,0-3.2,0.3
							C4.5,9.3,3,11,2.5,11.5c-0.6,0.6-1.8,2.1-1,3c0.3,0.4,0.8,1.1,1.9,1.2s1.7-0.4,2.1-0.3c0.4,0.1,1.3,0.7,2.8,0.5
							c1.2-0.2,1.8-0.6,2.1-0.5C10.8,15.4,12.3,15.7,13.4,15.1L13.4,15.1z"/>
						<path class="st65" d="M13.1,15c1-0.6,1-2.4,0.5-3.1c-0.8-1.3-2-1.1-2.7-1.4c-0.5-0.2-1.3-1.7-2.2-1.9s-2.1,0-3.1,0.3
							C4.4,9.2,2.9,11,2.5,11.4c-0.5,0.6-1.8,1.9-1,2.9c0.3,0.4,0.7,1,1.9,1.1s1.7-0.4,2-0.3c0.4,0.1,1.3,0.7,2.8,0.5
							c1.2-0.2,1.8-0.6,2.1-0.5C10.8,15.2,12.1,15.6,13.1,15L13.1,15z"/>
						<path class="st66" d="M12.9,14.9c1-0.6,1-2.2,0.6-3c-0.8-1.3-2-1-2.7-1.4c-0.5-0.2-1.2-1.7-2.1-1.9c-0.8-0.1-2.2,0-3.2,0.3
							C4.3,9.3,3,11,2.5,11.4c-0.5,0.5-1.8,1.8-1,2.8c0.3,0.4,0.7,1,1.8,1c1.2,0.1,1.7-0.5,2-0.4c0.4,0.2,1.3,0.8,2.8,0.5
							c1.2-0.2,1.8-0.6,2.1-0.5C10.7,15.1,11.9,15.5,12.9,14.9L12.9,14.9z"/>
						<path class="st67" d="M12.8,14.9c1-0.5,1.1-2.1,0.6-2.9c-0.8-1.3-1.9-1-2.6-1.3c-0.5-0.2-1.1-1.7-2-1.9C7.9,8.6,6.5,8.7,5.5,9
							C4.3,9.3,3,11,2.6,11.4c-0.5,0.4-1.9,1.7-1,2.7c0.3,0.3,0.6,0.9,1.8,1s1.6-0.5,2-0.4c0.4,0.2,1.3,0.8,2.8,0.6
							c1.2-0.2,1.9-0.7,2.1-0.6C10.7,14.9,11.8,15.4,12.8,14.9L12.8,14.9z"/>
						<path class="st68" d="M12.6,14.8c1-0.4,1.1-2,0.6-2.8c-0.8-1.3-1.9-1-2.6-1.3C10.1,10.5,9.5,9,8.7,8.8C7.9,8.7,6.5,8.7,5.5,9
							C4.3,9.4,3,11,2.7,11.3C2.3,11.7,0.8,13,1.6,14c0.2,0.3,0.6,0.9,1.8,0.9s1.6-0.6,1.9-0.5c0.4,0.2,1.3,0.8,2.8,0.6
							c1.2-0.2,1.9-0.7,2.1-0.6C10.6,14.7,11.6,15.3,12.6,14.8z"/>
					</g>
					<path class="st23" d="M11.6,10.4c-0.3,0-0.5,0-0.8,0.1c-0.3-1.6-1.7-2.9-3.5-3c-1.7-0.1-3.2,1-3.7,2.5l0,0
						C2.2,9.9,1,11,0.9,12.4s1,2.7,2.5,2.7c0.7,0,1.4-0.2,1.9-0.7c0.5,0.3,1.1,0.5,1.7,0.5c1.1,0.1,2.1-0.4,2.8-1.1
						c0.4,0.5,0.9,0.8,1.6,0.8c1.2,0.1,2.2-0.9,2.3-2S12.8,10.4,11.6,10.4z"/>
				</g>
			</g>
		</g>
	</g>
</g>
<g>
	<g>
		<g>
			<path class="st69" d="M26,19.5c1.8-1.6,1.5-6.4,0.6-7.7c-1.2-1.7-2.5-2.7-3.7-3.3c-1.1-0.6-4.3-1.1-5.8-1.1c-2,0-4,0.5-5.6,0.9
				C9.7,8.9,6.2,10.2,4.6,12c-1.9,2.1-0.2,6.3,0.3,6.9c0.9,1.2,2,2.3,3.4,3c1.3,0.6,2.5,0.6,3.5,0.7c0.8,0.1,4.1,0.4,6.1,0
				c1.4-0.3,3.8-0.7,4.4-1.1C22.9,21.2,24.5,20.8,26,19.5z"/>
			<path class="st70" d="M25.7,19.4c1.8-1.5,1.5-6.2,0.6-7.5c-1.2-1.7-2.5-2.7-3.6-3.2c-1.1-0.6-4.1-1-5.6-1.1c-2,0-3.9,0.5-5.6,0.9
				C9.7,9,6.3,10.2,4.7,12c-1.9,2-0.3,6.1,0.3,6.8c0.9,1.1,1.9,2.2,3.3,2.9c1.3,0.6,2.5,0.6,3.4,0.6c0.7,0.1,4,0.5,6,0.1
				c1.4-0.3,3.7-0.8,4.3-1.1C22.7,20.9,24.2,20.6,25.7,19.4z"/>
			<path class="st71" d="M25.4,19.2c1.8-1.5,1.5-6,0.6-7.3c-1.2-1.7-2.5-2.6-3.6-3.2c-1.1-0.5-4-1-5.4-1.1c-1.9,0-3.9,0.4-5.5,0.9
				C9.7,9,6.4,10.3,4.8,12c-1.8,2-0.3,5.9,0.2,6.6c0.9,1.1,1.9,2.2,3.3,2.8c1.3,0.6,2.4,0.5,3.4,0.6c0.7,0.1,3.9,0.5,5.8,0.1
				c1.4-0.3,3.6-0.8,4.2-1.1C22.4,20.7,23.9,20.4,25.4,19.2z"/>
			<path class="st72" d="M25.1,19.1c1.8-1.4,1.5-5.8,0.6-7.1c-1.2-1.7-2.5-2.6-3.5-3.1c-1.1-0.5-3.8-1-5.2-1.1
				c-1.9,0-3.8,0.4-5.4,0.8C9.8,9.1,6.4,10.4,4.9,12c-1.7,1.9-0.4,5.7,0.2,6.4c0.8,1,1.8,2.1,3.2,2.8c1.3,0.6,2.4,0.5,3.3,0.6
				c0.7,0.1,3.7,0.6,5.7,0.2c1.4-0.3,3.5-0.8,4.1-1.1C22.1,20.5,23.6,20.2,25.1,19.1z"/>
			<path class="st73" d="M24.8,18.9c1.7-1.4,1.5-5.6,0.6-6.9c-1.1-1.7-2.4-2.5-3.5-3c-1-0.5-3.7-1-5-1.1c-1.8-0.1-3.8,0.4-5.3,0.8
				c-1.7,0.5-5,1.7-6.4,3.3c-1.7,1.8-0.4,5.5,0.2,6.3c0.8,1,1.7,2.1,3.1,2.7c1.3,0.6,2.4,0.4,3.2,0.5c0.7,0.1,3.6,0.6,5.6,0.2
				c1.4-0.3,3.5-0.9,4-1.2C21.9,20.3,23.4,20,24.8,18.9z"/>
			<path class="st74" d="M24.5,18.7c1.7-1.3,1.5-5.3,0.6-6.7c-1.1-1.7-2.4-2.5-3.5-3c-1-0.5-3.5-1-4.9-1.1c-1.8-0.1-3.7,0.3-5.3,0.8
				c-1.7,0.5-5,1.7-6.3,3.2c-1.6,1.7-0.4,5.3,0.2,6.1c0.8,1,1.6,2.1,3,2.6c1.3,0.5,2.3,0.4,3.2,0.5c0.7,0.1,3.5,0.7,5.5,0.3
				c1.4-0.3,3.4-0.9,4-1.2C21.6,20,23.1,19.8,24.5,18.7z"/>
			<path class="st75" d="M24.2,18.6c1.7-1.3,1.5-5.1,0.6-6.5c-1.1-1.7-2.4-2.4-3.4-2.9c-1-0.5-3.3-1-4.7-1.1C15,8,13.1,8.4,11.5,8.8
				C9.8,9.3,6.6,10.6,5.3,12c-1.5,1.6-0.5,5.2,0.2,6c0.8,0.9,1.5,2,2.9,2.6c1.2,0.5,2.3,0.3,3.1,0.5c0.7,0.1,3.4,0.7,5.3,0.4
				c1.5-0.3,3.3-0.9,3.9-1.2C21.3,19.8,22.8,19.6,24.2,18.6z"/>
			<path class="st76" d="M23.9,18.4c1.7-1.2,1.5-4.9,0.6-6.3c-1.1-1.7-2.3-2.4-3.4-2.9c-1-0.5-3.2-1-4.5-1.1
				c-1.7-0.1-3.6,0.3-5.1,0.7C9.9,9.3,6.7,10.6,5.4,12c-1.5,1.6-0.5,5,0.2,5.8c0.7,0.9,1.4,2,2.8,2.5c1.2,0.5,2.3,0.3,3.1,0.4
				c0.7,0.1,3.2,0.8,5.2,0.4c1.5-0.3,3.2-1,3.8-1.2C21.1,19.6,22.5,19.4,23.9,18.4z"/>
			<path class="st77" d="M23.6,18.3c1.6-1.2,1.5-4.7,0.7-6.1c-1.1-1.7-2.3-2.3-3.3-2.8c-0.9-0.5-3-0.9-4.3-1
				c-1.6-0.1-3.5,0.2-5.1,0.7c-1.7,0.5-4.8,1.7-6,3c-1.4,1.5-0.6,4.8,0.2,5.7c0.7,0.9,1.3,1.9,2.7,2.5c1.2,0.5,2.2,0.3,3,0.4
				c0.7,0.1,3.1,0.8,5.1,0.5c1.5-0.3,3.1-1,3.7-1.3C20.8,19.3,22.2,19.3,23.6,18.3z"/>
			<path class="st78" d="M23.3,18.1c1.6-1.1,1.5-4.5,0.7-5.9c-1-1.7-2.3-2.2-3.3-2.7c-0.9-0.4-2.8-0.9-4.1-1c-1.6-0.1-3.5,0.2-5,0.6
				c-1.7,0.5-4.8,1.8-5.9,3c-1.3,1.4-0.6,4.6,0.2,5.5c0.7,0.8,1.2,1.9,2.7,2.4c1.2,0.5,2.2,0.2,2.9,0.3c0.7,0.1,3,0.9,5,0.5
				c1.5-0.3,3.1-1,3.6-1.3C20.5,19.1,21.9,19.1,23.3,18.1z"/>
			<path class="st79" d="M23,17.9c1.6-1.1,1.5-4.3,0.7-5.7c-1-1.7-2.2-2.2-3.2-2.7c-0.9-0.4-2.7-0.9-3.9-1c-1.5-0.2-3.4,0.2-4.9,0.6
				C9.9,9.5,6.9,10.8,5.8,12c-1.3,1.3-0.6,4.4,0.1,5.3c0.6,0.8,1.1,1.8,2.6,2.3c1.2,0.4,2.2,0.2,2.9,0.3c0.7,0.1,2.9,0.9,4.8,0.6
				c1.5-0.3,3-1.1,3.5-1.3C20.2,18.9,21.6,18.9,23,17.9z"/>
			<path class="st80" d="M22.7,17.8c1.6-1,1.5-4.1,0.7-5.5c-1-1.7-2.2-2.1-3.2-2.6c-0.9-0.4-2.5-0.9-3.8-1c-1.5-0.2-3.4,0.1-4.8,0.5
				C10,9.6,6.9,10.9,5.9,12c-1.2,1.3-0.7,4.2,0.1,5.2c0.6,0.7,1.1,1.8,2.5,2.3c1.2,0.4,2.1,0.1,2.8,0.3c0.6,0.1,2.7,1,4.7,0.6
				c1.5-0.3,2.9-1.1,3.4-1.4C20,18.6,21.3,18.7,22.7,17.8z"/>
			<path class="st81" d="M22.4,17.6c1.5-1,1.5-3.9,0.7-5.3c-1-1.8-2.2-2.1-3.2-2.6c-0.8-0.4-2.3-0.9-3.6-1c-1.4-0.2-3.3,0.1-4.8,0.5
				C10,9.7,7,10.9,6,12c-1.1,1.2-0.7,4,0.1,5c0.6,0.7,1,1.7,2.4,2.2c1.2,0.4,2.1,0.1,2.7,0.2c0.6,0.1,2.6,1,4.6,0.7
				c1.5-0.3,2.8-1.1,3.3-1.4C19.7,18.4,21,18.5,22.4,17.6z"/>
			<path class="st82" d="M22.1,17.5c1.5-0.9,1.5-3.7,0.7-5.2c-0.9-1.8-2.1-2-3.1-2.5c-0.8-0.4-2.2-0.9-3.4-1
				c-1.4-0.2-3.2,0.1-4.7,0.5C10,9.7,7,11,6.1,11.9c-1.1,1.1-0.8,3.8,0.1,4.9c0.6,0.7,0.9,1.7,2.3,2.1c1.1,0.4,2.1,0.1,2.7,0.2
				c0.6,0.1,2.5,1.1,4.4,0.7c1.5-0.3,2.7-1.2,3.2-1.4C19.4,18.2,20.8,18.3,22.1,17.5z"/>
			<path class="st83" d="M21.8,17.3c1.5-0.9,1.5-3.5,0.7-5c-0.9-1.8-2.1-2-3.1-2.4c-0.8-0.4-2-0.9-3.2-1c-1.3-0.2-3.2,0-4.6,0.4
				c-1.6,0.5-4.5,1.8-5.4,2.6c-1,1-0.8,3.6,0.1,4.7c0.5,0.6,0.8,1.6,2.2,2.1c1.1,0.4,2,0,2.6,0.2c0.6,0.2,2.3,1.1,4.3,0.8
				c1.5-0.3,2.7-1.2,3.1-1.4C19.2,17.9,20.5,18.1,21.8,17.3z"/>
			<path class="st84" d="M21.5,17.2c1.4-0.8,1.5-3.3,0.7-4.8c-0.9-1.8-2.1-1.9-3-2.4c-0.8-0.4-1.8-0.8-3-1c-1.3-0.2-3.1,0-4.5,0.4
				c-1.6,0.5-4.5,1.8-5.2,2.6c-0.9,0.9-0.9,3.4,0.1,4.6c0.5,0.6,0.7,1.6,2.1,2c1.1,0.3,2,0,2.6,0.1c0.6,0.2,2.2,1.2,4.2,0.9
				c1.5-0.3,2.6-1.2,3-1.5C18.9,17.7,20.2,17.9,21.5,17.2z"/>
			<path class="st85" d="M21.2,17c1.4-0.8,1.5-3,0.7-4.6c-0.9-1.8-2-1.9-3-2.3c-0.7-0.3-1.7-0.8-2.9-1c-1.2-0.2-3.1,0-4.5,0.4
				c-1.6,0.5-4.4,1.8-5.1,2.5c-0.8,0.9-0.9,3.2,0.1,4.4c0.5,0.6,0.6,1.5,2.1,1.9c1.1,0.3,2-0.1,2.5,0.1c0.6,0.2,2.1,1.2,4.1,0.9
				c1.5-0.3,2.5-1.3,2.9-1.5C18.6,17.5,19.9,17.7,21.2,17z"/>
			<path class="st86" d="M20.9,16.8c1.4-0.7,1.5-2.8,0.8-4.4c-0.9-1.8-2-1.8-2.9-2.2c-0.7-0.3-1.5-0.8-2.7-1c-1.2-0.2-3-0.1-4.4,0.3
				c-1.6,0.5-4.4,1.8-5,2.4c-0.8,0.8-0.9,3.1,0.1,4.2c0.4,0.5,0.5,1.5,2,1.9c1.1,0.3,2-0.1,2.4,0.1c0.6,0.2,2,1.3,3.9,1
				c1.5-0.2,2.4-1.3,2.8-1.5C18.4,17.3,19.6,17.5,20.9,16.8z"/>
			<path class="st87" d="M20.6,16.7c1.4-0.7,1.5-2.6,0.8-4.2c-0.8-1.8-2-1.8-2.9-2.2c-0.7-0.3-1.3-0.8-2.5-1c-1.1-0.2-3-0.1-4.3,0.3
				c-1.5,0.5-4.3,1.8-4.9,2.4c-0.7,0.7-1,2.9,0,4.1c0.4,0.5,0.4,1.4,1.9,1.8c1.1,0.3,1.9-0.1,2.4,0c0.6,0.2,1.8,1.3,3.8,1
				c1.6-0.2,2.3-1.4,2.7-1.5C18.1,17,19.3,17.3,20.6,16.7z"/>
			<path class="st88" d="M20.3,16.5c1.3-0.7,1.5-2.4,0.8-4c-0.8-1.8-1.9-1.7-2.9-2.1c-0.7-0.3-1.2-0.8-2.3-1
				c-1.1-0.3-2.9-0.1-4.2,0.3c-1.5,0.5-4.3,1.8-4.8,2.3c-0.6,0.6-1,2.7,0,3.9c0.4,0.5,0.3,1.4,1.8,1.8c1,0.3,1.9-0.2,2.3,0
				c0.6,0.2,1.7,1.4,3.7,1.1c1.6-0.2,2.3-1.4,2.6-1.6C17.8,16.8,19,17.2,20.3,16.5z"/>
			<path class="st89" d="M20,16.4c1.3-0.6,1.5-2.2,0.8-3.8c-0.8-1.8-1.9-1.7-2.8-2.1c-0.6-0.3-1-0.7-2.1-1c-1-0.3-2.8-0.2-4.2,0.2
				c-1.5,0.5-4.2,1.8-4.7,2.2c-0.6,0.6-1.1,2.5,0,3.8c0.4,0.4,0.2,1.4,1.7,1.7c1,0.2,1.9-0.2,2.2-0.1c0.5,0.2,1.6,1.4,3.6,1.1
				c1.6-0.2,2.2-1.4,2.5-1.6C17.6,16.6,18.7,17,20,16.4z"/>
			<path class="st68" d="M19.7,16.2c1.3-0.6,1.5-2,0.8-3.6c-0.8-1.8-1.9-1.6-2.8-2c-0.6-0.3-0.9-0.7-2-1c-1-0.3-2.8-0.2-4.1,0.2
				c-1.5,0.5-4.2,1.8-4.6,2.2c-0.5,0.5-1.1,2.3,0,3.6c0.3,0.4,0.2,1.3,1.6,1.6c1,0.2,1.8-0.3,2.2-0.1c0.5,0.2,1.5,1.5,3.4,1.2
				c1.6-0.2,2.1-1.5,2.4-1.6C17.3,16.3,18.5,16.8,19.7,16.2z"/>
		</g>
		<path class="st90" d="M18,10.2c-0.1,0-0.1,0-0.2,0c-0.4-1-1.4-1.8-2.5-1.8c-0.3,0-0.7,0.1-1,0.2c-0.4-1-1.3-1.7-2.4-1.7
			c-1.1,0-2,0.7-2.4,1.6c-0.1,0-0.3,0-0.4,0c-1.2,0-2.2,0.9-2.3,2c-0.2,0-0.3,0-0.5,0c-1.4,0-2.6,1.2-2.6,2.6c0,1.4,1.2,2.6,2.6,2.6
			c0,0,0,0,0.1,0c0.3,1,1.2,1.8,2.3,1.8c0.9,0,1.6-0.5,2-1.2c0.6,1,1.6,1.6,2.8,1.6c1.3,0,2.5-0.8,3-1.9c0.5,0.3,1,0.4,1.5,0.4
			c1.7,0,3.1-1.4,3.1-3.1C21.1,11.6,19.7,10.2,18,10.2z"/>
		<path class="st91" d="M18.1,10.3c-0.1,0-0.1,0-0.2,0c-0.4-1-1.4-1.8-2.5-1.8c-0.3,0-0.7,0.1-1,0.2C14,7.7,13.1,7,12,7
			c-1.1,0-2,0.7-2.4,1.6c-0.1,0-0.3,0-0.4,0c-1.2,0-2.2,0.9-2.3,2c-0.2,0-0.3-0.1-0.5-0.1c-1.4,0-2.6,1.2-2.6,2.6
			c0,1.4,1.2,2.6,2.6,2.6c0,0,0,0,0.1,0c0.3,1,1.2,1.8,2.3,1.8c0.9,0,1.6-0.5,2-1.2c0.6,1,1.6,1.6,2.8,1.6c1.3,0,2.5-0.8,3-1.9
			c0.5,0.3,1,0.4,1.5,0.4c1.7,0,3.1-1.4,3.1-3.1C21.2,11.7,19.8,10.3,18.1,10.3z"/>
	</g>
	<g>
		<g>
			<path class="st69" d="M17.1,14.8c1-1.5,0.5-4.4-0.2-5.4c-1-1.3-2.4-1.5-3.3-1.9c-0.9-0.4-2.5-1.6-3.6-1.6c-1.6,0-2.4,0.6-3.6,0.9
				C5,7.2,2.7,9.3,1.4,10.7c-1.5,1.6-1.1,4.1-0.7,4.5c0.7,0.9,1.6,1.8,2.6,2.3C4.4,18,5.3,18,6,18c0.6,0,1.3,0.3,2.8,0
				c1.1-0.2,1.6-0.3,2.1-0.5C12.1,17.2,15.9,16.7,17.1,14.8z"/>
			<path class="st70" d="M16.9,14.8c1-1.5,0.6-4.3-0.2-5.3c-0.9-1.3-2.4-1.5-3.3-1.9C12.6,7.2,11,6,9.9,6C8.4,6,7.6,6.5,6.3,6.9
				C5,7.2,2.7,9.3,1.5,10.7c-1.4,1.6-1.1,4-0.7,4.5c0.7,0.9,1.5,1.7,2.6,2.2c1,0.5,1.9,0.4,2.7,0.5c0.6,0,1.3,0.4,2.8,0
				c1.1-0.2,1.6-0.3,2.1-0.5C12.1,17,15.7,16.6,16.9,14.8z"/>
			<path class="st71" d="M16.7,14.7c1-1.4,0.6-4.2-0.1-5.1c-0.9-1.3-2.4-1.4-3.2-1.9C12.5,7.3,11,6.1,9.9,6.1C8.4,6,7.6,6.6,6.3,6.9
				C5,7.3,2.8,9.3,1.6,10.6c-1.4,1.5-1.2,3.8-0.8,4.4c0.7,0.8,1.5,1.7,2.6,2.2c1,0.4,1.9,0.4,2.6,0.4c0.6,0.1,1.3,0.4,2.8,0.1
				c1.1-0.2,1.6-0.3,2.1-0.5C12,16.9,15.5,16.4,16.7,14.7z"/>
			<path class="st72" d="M16.5,14.7c1-1.4,0.6-4.1-0.1-5c-0.9-1.3-2.4-1.4-3.2-1.8c-0.8-0.4-2.3-1.6-3.4-1.7C8.4,6.1,7.5,6.6,6.3,7
				C5,7.3,2.8,9.4,1.7,10.6c-1.3,1.4-1.2,3.7-0.8,4.3c0.6,0.8,1.4,1.6,2.5,2.1c1.1,0.4,1.9,0.3,2.6,0.4c0.6,0.1,1.3,0.4,2.8,0.1
				c1.1-0.2,1.6-0.4,2.1-0.5C12,16.7,15.3,16.3,16.5,14.7z"/>
			<path class="st73" d="M16.3,14.6c1-1.3,0.6-3.9,0-4.9c-0.9-1.3-2.3-1.4-3.2-1.8c-0.8-0.4-2.3-1.6-3.3-1.7C8.4,6.2,7.5,6.7,6.3,7
				c-1.3,0.4-3.4,2.4-4.5,3.6c-1.3,1.4-1.3,3.6-0.8,4.2c0.6,0.8,1.4,1.6,2.5,2c1.1,0.4,1.9,0.3,2.5,0.3c0.6,0.1,1.3,0.4,2.8,0.1
				c1.1-0.2,1.6-0.4,2.1-0.5C11.9,16.5,15.1,16.2,16.3,14.6z"/>
			<path class="st74" d="M16.1,14.5c1-1.3,0.7-3.8,0-4.8C15.2,8.5,13.8,8.4,13,8c-0.8-0.4-2.2-1.6-3.2-1.7C8.4,6.3,7.4,6.7,6.2,7.1
				c-1.3,0.4-3.4,2.4-4.4,3.5c-1.2,1.3-1.3,3.5-0.8,4.1c0.6,0.7,1.3,1.6,2.4,2c1.1,0.4,1.9,0.2,2.5,0.3c0.5,0.1,1.3,0.4,2.8,0.1
				c1.1-0.2,1.7-0.4,2.1-0.5C11.9,16.3,14.9,16.1,16.1,14.5z"/>
			<path class="st75" d="M15.9,14.5c1-1.2,0.7-3.7,0-4.6c-0.9-1.3-2.3-1.3-3.1-1.7c-0.8-0.4-2.1-1.6-3.2-1.7
				C8.4,6.3,7.4,6.8,6.2,7.1c-1.3,0.4-3.3,2.4-4.3,3.4c-1.2,1.3-1.3,3.4-0.8,4c0.6,0.7,1.3,1.5,2.4,1.9c1.1,0.4,1.8,0.2,2.5,0.2
				c0.5,0.1,1.3,0.5,2.8,0.2c1.1-0.2,1.7-0.4,2.1-0.5C11.8,16.2,14.7,15.9,15.9,14.5z"/>
			<path class="st76" d="M15.7,14.4c1-1.2,0.7-3.6,0.1-4.5c-0.9-1.3-2.3-1.3-3.1-1.7c-0.7-0.4-2-1.6-3.1-1.7
				C8.4,6.4,7.4,6.8,6.2,7.2C4.9,7.5,2.9,9.5,2,10.5c-1.1,1.2-1.4,3.2-0.8,3.9c0.6,0.7,1.2,1.5,2.3,1.8c1.1,0.3,1.8,0.1,2.4,0.2
				c0.5,0.1,1.3,0.5,2.8,0.2c1.1-0.2,1.7-0.4,2.1-0.5C11.7,16,14.5,15.8,15.7,14.4z"/>
			<path class="st77" d="M15.5,14.4c1-1.1,0.7-3.5,0.1-4.4c-0.9-1.3-2.2-1.3-3.1-1.7c-0.7-0.3-2-1.6-3-1.7C8.4,6.5,7.3,6.9,6.2,7.2
				C4.9,7.6,3,9.5,2,10.5c-1.1,1.1-1.4,3.1-0.9,3.8c0.5,0.7,1.2,1.4,2.3,1.8c1.1,0.3,1.8,0.1,2.4,0.2c0.5,0.1,1.3,0.5,2.8,0.2
				c1.1-0.2,1.7-0.5,2.1-0.5C11.7,15.8,14.4,15.7,15.5,14.4z"/>
			<path class="st78" d="M15.3,14.3c1-1.1,0.8-3.4,0.2-4.3c-0.9-1.3-2.2-1.3-3-1.7c-0.7-0.3-1.9-1.6-2.9-1.7
				C8.4,6.6,7.3,6.9,6.1,7.3c-1.3,0.4-3.1,2.3-4,3.2c-1,1.1-1.4,3-0.9,3.7c0.5,0.6,1.1,1.4,2.3,1.7c1.1,0.3,1.8,0,2.4,0.1
				c0.5,0.1,1.3,0.5,2.8,0.3c1.1-0.2,1.7-0.5,2.1-0.5C11.6,15.6,14.2,15.6,15.3,14.3z"/>
			<path class="st79" d="M15.1,14.3c1-1,0.8-3.3,0.2-4.1c-0.9-1.3-2.2-1.2-3-1.6c-0.7-0.3-1.8-1.6-2.8-1.7C8.3,6.6,7.3,7,6.1,7.3
				C4.8,7.7,3,9.6,2.2,10.5c-1,1-1.5,2.9-0.9,3.6c0.5,0.6,1.1,1.4,2.2,1.6c1.1,0.3,1.8,0,2.3,0.1c0.5,0.1,1.3,0.6,2.8,0.3
				c1.1-0.2,1.7-0.5,2.1-0.5C11.6,15.5,14,15.5,15.1,14.3z"/>
			<path class="st80" d="M14.9,14.2c1-1,0.8-3.1,0.2-4c-0.9-1.3-2.2-1.2-3-1.6C11.5,8.3,10.4,7,9.5,6.9C8.3,6.7,7.2,7,6.1,7.4
				c-1.3,0.4-3,2.2-3.8,3.1c-0.9,1-1.5,2.8-0.9,3.5c0.5,0.6,1.1,1.3,2.2,1.6c1.1,0.3,1.8-0.1,2.3,0c0.5,0.1,1.3,0.6,2.8,0.3
				c1.2-0.2,1.7-0.5,2.1-0.5C11.5,15.3,13.8,15.3,14.9,14.2z"/>
			<path class="st81" d="M14.7,14.2c1-0.9,0.8-3,0.3-3.9c-0.8-1.3-2.1-1.2-2.9-1.6c-0.7-0.3-1.7-1.7-2.7-1.8
				C8.3,6.8,7.2,7.1,6.1,7.4c-1.3,0.4-3,2.2-3.7,3c-0.9,0.9-1.6,2.7-0.9,3.4c0.5,0.5,1,1.3,2.1,1.5c1.1,0.2,1.8-0.1,2.2,0
				c0.5,0.1,1.3,0.6,2.8,0.3c1.2-0.2,1.7-0.5,2.1-0.5C11.5,15.1,13.6,15.2,14.7,14.2z"/>
			<path class="st82" d="M14.5,14.1c1-0.9,0.9-2.9,0.3-3.8C14,9,12.7,9.2,11.9,8.8C11.3,8.5,10.3,7.2,9.4,7C8.3,6.9,7.1,7.2,6,7.5
				c-1.2,0.4-2.9,2.2-3.6,2.9c-0.8,0.8-1.6,2.5-0.9,3.3c0.4,0.5,1,1.2,2.1,1.4c1.1,0.2,1.7-0.2,2.2-0.1c0.5,0.1,1.3,0.6,2.8,0.4
				c1.2-0.2,1.8-0.5,2.1-0.5C11.4,15,13.4,15.1,14.5,14.1z"/>
			<path class="st83" d="M14.3,14.1c1-0.8,0.9-2.8,0.4-3.6c-0.8-1.3-2.1-1.2-2.9-1.5c-0.6-0.3-1.6-1.7-2.5-1.8C8.3,7,7.1,7.2,6,7.5
				c-1.2,0.4-2.9,2.2-3.5,2.9c-0.8,0.8-1.6,2.4-0.9,3.2c0.4,0.5,0.9,1.2,2,1.4c1.1,0.2,1.7-0.2,2.2-0.1C6.3,15,7,15.5,8.6,15.3
				c1.2-0.2,1.8-0.6,2.1-0.5C11.4,14.8,13.2,15,14.3,14.1z"/>
			<path class="st84" d="M14.1,14c1-0.8,0.9-2.7,0.4-3.5c-0.8-1.3-2.1-1.1-2.8-1.5c-0.6-0.3-1.5-1.7-2.4-1.8C8.3,7,7.1,7.3,6,7.6
				c-1.2,0.4-2.8,2.2-3.4,2.8c-0.7,0.7-1.7,2.3-1,3.2c0.4,0.5,0.9,1.1,2,1.3c1.1,0.2,1.7-0.3,2.1-0.2c0.5,0.1,1.3,0.7,2.8,0.4
				c1.2-0.2,1.8-0.6,2.1-0.5C11.3,14.6,13,14.8,14.1,14z"/>
			<path class="st85" d="M13.9,14c1-0.7,1-2.6,0.4-3.4c-0.8-1.3-2.1-1.1-2.8-1.4C11,8.9,10.1,7.5,9.2,7.3C8.3,7.1,7,7.3,6,7.6
				C4.7,8,3.2,9.8,2.7,10.3c-0.7,0.7-1.7,2.2-1,3.1c0.4,0.4,0.8,1.1,2,1.2c1.2,0.1,1.7-0.3,2.1-0.2c0.5,0.1,1.3,0.7,2.8,0.4
				c1.2-0.2,1.8-0.6,2.1-0.5C11.2,14.4,12.9,14.7,13.9,14z"/>
			<path class="st86" d="M13.7,13.9c1-0.7,1-2.5,0.5-3.3c-0.8-1.3-2-1.1-2.8-1.4C10.9,9,10.1,7.6,9.2,7.4C8.3,7.2,7,7.4,5.9,7.7
				C4.7,8,3.3,9.8,2.7,10.3c-0.6,0.6-1.8,2.1-1,3c0.3,0.4,0.8,1.1,1.9,1.2c1.2,0.1,1.7-0.4,2.1-0.3c0.4,0.1,1.3,0.7,2.8,0.5
				c1.2-0.2,1.8-0.6,2.1-0.5C11.2,14.3,12.7,14.6,13.7,13.9z"/>
			<path class="st87" d="M13.5,13.9c1-0.6,1-2.3,0.5-3.2c-0.8-1.3-2-1.1-2.7-1.4C10.8,9.1,10,7.7,9.1,7.5C8.3,7.3,7,7.4,5.9,7.7
				c-1.2,0.4-2.6,2.1-3.1,2.6c-0.6,0.5-1.8,1.9-1,2.9c0.3,0.4,0.7,1,1.9,1.1c1.2,0.1,1.7-0.4,2-0.3c0.4,0.2,1.3,0.7,2.8,0.5
				c1.2-0.2,1.8-0.6,2.1-0.5C11.1,14.1,12.5,14.5,13.5,13.9z"/>
			<path class="st88" d="M13.3,13.8c1-0.5,1-2.2,0.6-3c-0.8-1.3-2-1-2.7-1.3C10.7,9.2,10,7.8,9.1,7.6C8.3,7.4,6.9,7.5,5.9,7.8
				c-1.2,0.4-2.6,2.1-3,2.5c-0.5,0.5-1.8,1.8-1,2.8c0.3,0.4,0.7,1,1.8,1c1.2,0.1,1.7-0.5,2-0.4c0.4,0.2,1.3,0.8,2.8,0.5
				c1.2-0.2,1.8-0.6,2.1-0.5C11.1,13.9,12.3,14.4,13.3,13.8z"/>
			<path class="st89" d="M13.1,13.7c1-0.5,1.1-2.1,0.6-2.9c-0.8-1.3-2-1-2.7-1.3c-0.5-0.2-1.1-1.7-2-1.9C8.3,7.4,6.9,7.5,5.9,7.8
				c-1.2,0.4-2.5,2-2.9,2.4c-0.4,0.4-1.9,1.7-1,2.7c0.3,0.3,0.6,0.9,1.8,1c1.2,0,1.6-0.5,2-0.4c0.4,0.2,1.3,0.8,2.8,0.6
				c1.2-0.2,1.8-0.7,2.1-0.5C11,13.7,12.1,14.2,13.1,13.7z"/>
			<path class="st68" d="M12.9,13.7c1-0.4,1.1-2,0.6-2.8c-0.8-1.3-1.9-1-2.6-1.3C10.4,9.4,9.8,8,9,7.7C8.3,7.5,6.8,7.6,5.8,7.9
				c-1.2,0.4-2.4,2-2.8,2.3c-0.4,0.4-1.9,1.6-1.1,2.6c0.3,0.3,0.6,0.9,1.7,0.9c1.2,0,1.6-0.6,1.9-0.5c0.4,0.2,1.3,0.8,2.8,0.6
				c1.2-0.2,1.9-0.7,2.1-0.6C11,13.6,11.9,14.1,12.9,13.7z"/>
		</g>
		<path class="st90" d="M12,9.2c-0.3,0-0.5,0-0.8,0.1c-0.3-1.6-1.7-2.9-3.5-3C6,6.2,4.5,7.3,4,8.8c0,0,0,0,0,0
			c-1.4-0.1-2.6,1-2.7,2.5c-0.1,1.4,1,2.6,2.5,2.7c0.7,0,1.4-0.2,1.9-0.7c0.5,0.3,1.1,0.5,1.7,0.5c1.1,0.1,2.1-0.4,2.8-1.1
			c0.4,0.5,0.9,0.8,1.6,0.8c1.2,0.1,2.2-0.9,2.3-2C14.1,10.3,13.2,9.3,12,9.2z"/>
	</g>
</g>
</svg>
