<?xml version="1.0" encoding="utf-8"?>
<!-- Generator: Adobe Illustrator 27.0.1, SVG Export Plug-In . SVG Version: 6.00 Build 0)  -->
<svg version="1.1" id="Ebene_1" xmlns="http://www.w3.org/2000/svg" xmlns:xlink="http://www.w3.org/1999/xlink" x="0px" y="0px"
	 viewBox="0 0 47.9 47.9" style="enable-background:new 0 0 47.9 47.9;" xml:space="preserve">
<style type="text/css">
	.st0{display:none;}
	.st1{display:inline;}
	.st2{fill:#FFFFFF;fill-opacity:0;}
	.st3{opacity:5.000000e-02;fill:#F9FBFB;enable-background:new    ;}
	.st4{opacity:0.1;fill:#F4F6F8;enable-background:new    ;}
	.st5{opacity:0.14;fill:#EEF2F4;enable-background:new    ;}
	.st6{opacity:0.19;fill:#E9EDF1;enable-background:new    ;}
	.st7{opacity:0.24;fill:#E3E9ED;enable-background:new    ;}
	.st8{opacity:0.29;fill:#DEE5EA;enable-background:new    ;}
	.st9{opacity:0.33;fill:#D8E0E6;enable-background:new    ;}
	.st10{opacity:0.38;fill:#D3DCE3;enable-background:new    ;}
	.st11{opacity:0.43;fill:#CDD8DF;enable-background:new    ;}
	.st12{opacity:0.48;fill:#C8D3DC;enable-background:new    ;}
	.st13{opacity:0.52;fill:#C2CFD8;enable-background:new    ;}
	.st14{opacity:0.57;fill:#BDCAD5;enable-background:new    ;}
	.st15{opacity:0.62;fill:#B7C6D1;enable-background:new    ;}
	.st16{opacity:0.67;fill:#B2C2CE;enable-background:new    ;}
	.st17{opacity:0.71;fill:#ACBDCA;enable-background:new    ;}
	.st18{opacity:0.76;fill:#A7B9C7;enable-background:new    ;}
	.st19{opacity:0.81;fill:#A1B5C3;enable-background:new    ;}
	.st20{opacity:0.86;fill:#9CB0C0;enable-background:new    ;}
	.st21{opacity:0.9;fill:#96ACBC;enable-background:new    ;}
	.st22{opacity:0.95;fill:#91A7B9;enable-background:new    ;}
	.st23{fill:#8BA3B5;}
	.st24{display:inline;fill:#FFFFFF;}
	.st25{display:inline;fill:#E9F2F5;}
	.st26{opacity:0.1;fill:#F3F6F7;enable-background:new    ;}
	.st27{opacity:0.19;fill:#E8EDF0;enable-background:new    ;}
	.st28{opacity:0.24;fill:#E2E9EC;enable-background:new    ;}
	.st29{opacity:0.29;fill:#DCE4E8;enable-background:new    ;}
	.st30{opacity:0.33;fill:#D7E0E5;enable-background:new    ;}
	.st31{opacity:0.38;fill:#D1DCE1;enable-background:new    ;}
	.st32{opacity:0.43;fill:#CBD7DD;enable-background:new    ;}
	.st33{opacity:0.48;fill:#C5D3D9;enable-background:new    ;}
	.st34{opacity:0.52;fill:#C0CED6;enable-background:new    ;}
	.st35{opacity:0.57;fill:#BACAD2;enable-background:new    ;}
	.st36{opacity:0.62;fill:#B4C5CE;enable-background:new    ;}
	.st37{opacity:0.67;fill:#AEC1CA;enable-background:new    ;}
	.st38{opacity:0.71;fill:#A9BDC7;enable-background:new    ;}
	.st39{opacity:0.76;fill:#A3B8C3;enable-background:new    ;}
	.st40{opacity:0.81;fill:#9DB4BF;enable-background:new    ;}
	.st41{opacity:0.86;fill:#97AFBB;enable-background:new    ;}
	.st42{opacity:0.9;fill:#92ABB8;enable-background:new    ;}
	.st43{opacity:0.95;fill:#8CA6B4;enable-background:new    ;}
	.st44{fill:#86A2B0;}
	.st45{fill:#FFE3AB;}
	.st46{fill:url(#SVGID_1_);}
	.st47{opacity:4.761905e-02;fill:#F9FBFB;enable-background:new    ;}
	.st48{opacity:9.523810e-02;fill:#F4F6F8;enable-background:new    ;}
	.st49{opacity:0.1429;fill:#EEF2F4;enable-background:new    ;}
	.st50{opacity:0.1905;fill:#E9EDF1;enable-background:new    ;}
	.st51{opacity:0.2381;fill:#E3E9ED;enable-background:new    ;}
	.st52{opacity:0.2857;fill:#DEE5EA;enable-background:new    ;}
	.st53{opacity:0.3333;fill:#D8E0E6;enable-background:new    ;}
	.st54{opacity:0.381;fill:#D3DCE3;enable-background:new    ;}
	.st55{opacity:0.4286;fill:#CDD8DF;enable-background:new    ;}
	.st56{opacity:0.4762;fill:#C8D3DC;enable-background:new    ;}
	.st57{opacity:0.5238;fill:#C2CFD8;enable-background:new    ;}
	.st58{opacity:0.5714;fill:#BDCAD5;enable-background:new    ;}
	.st59{opacity:0.619;fill:#B7C6D1;enable-background:new    ;}
	.st60{opacity:0.6667;fill:#B2C2CE;enable-background:new    ;}
	.st61{opacity:0.7143;fill:#ACBDCA;enable-background:new    ;}
	.st62{opacity:0.7619;fill:#A7B9C7;enable-background:new    ;}
	.st63{opacity:0.8095;fill:#A1B5C3;enable-background:new    ;}
	.st64{opacity:0.8571;fill:#9CB0C0;enable-background:new    ;}
	.st65{opacity:0.9048;fill:#96ACBC;enable-background:new    ;}
	.st66{opacity:0.9524;fill:#91A7B9;enable-background:new    ;}
	.st67{fill:#FFFFFF;}
	.st68{fill:#E9F2F5;}
</style>
<g>
	<g id="Ebene_2_00000011752779541315801350000007145026585744635013_">
		<g id="Paper-Icons">
			<g>
				<g class="st0">
					<g class="st1">
						<path class="st2" d="M44,40c3.5-3.1,2.9-12.6,1.2-15.1c-2.3-3.3-4.9-5.3-7.2-6.5c-2.2-1.2-8.4-2.2-11.4-2.2
							c-3.9,0-7.8,1-11,1.8c-3.5,1-10.2,3.3-13.5,6.9c-3.7,4.3-0.4,12.6,0.6,13.8c1.8,2.2,3.9,4.5,6.7,5.9c2.5,1.2,4.9,1.2,6.9,1.4
							c1.6,0,8,0.8,11.9,0c2.7-0.6,7.4-1.4,8.6-2.2C38.1,43.1,41,42.3,44,40L44,40z"/>
						<path class="st3" d="M43.4,39.6c3.5-3,2.9-12.2,1.2-14.8c-2.3-3.3-4.9-5.3-7-6.3c-2.2-1-8-2-11-2.2c-3.9,0-7.6,1-11,1.8
							c-3.3,1-10.2,3.5-13.3,6.9c-3.7,3.9-0.6,12,0.4,13.4c1.8,2.2,3.7,4.3,6.5,5.7c2.5,1.2,4.9,1.2,6.7,1.2c1.6,0.2,7.8,1,11.7,0.2
							c2.7-0.6,7.2-1.6,8.4-2.2C37.5,42.7,40.5,41.9,43.4,39.6L43.4,39.6z"/>
						<path class="st4" d="M42.8,39.4c3.5-3,2.9-11.8,1.2-14.4c-2.3-3.3-4.9-5.3-7-6.3s-7.8-2-10.6-2.2c-3.7,0-7.6,0.8-10.8,1.8
							c-3.3,1-10,3.3-12.9,6.7c-3.5,3.7-0.6,11.6,0.4,13c1.8,2.2,3.5,4.3,6.5,5.5c2.5,1.2,4.7,1,6.7,1.2c1.4,0.2,7.6,1,11.4,0.2
							c2.7-0.6,7-1.6,8.2-2.2C36.9,42.3,40.1,41.5,42.8,39.4L42.8,39.4z"/>
						<path class="st5" d="M42.2,39c3.5-2.8,2.9-11.4,1.2-14c-2.3-3.3-4.9-5.1-6.9-6.1c-2.2-1-7.4-2-10.2-2
							c-3.7-0.2-7.4,0.8-10.6,1.6c-3.3,1-10,3.3-12.9,6.7C-0.5,28.9,2.3,36.4,3.3,38c1.6,2,3.5,4.1,6.3,5.5c2.5,1.2,4.7,1,6.5,1.2
							c1.4,0.2,7.2,1.2,11.2,0.4c2.7-0.6,6.9-1.6,8-2.2C36.5,41.7,39.5,41.1,42.2,39z"/>
						<path class="st6" d="M41.6,38.6c3.3-2.8,2.9-11,1.2-13.6c-2.2-3.3-4.7-4.9-6.9-6.1c-2-1-7-2-9.8-2c-3.5-0.2-7.4,0.8-10.6,1.6
							c-3.3,1-9.8,3.5-12.5,6.5c-3.3,3.5-0.8,10.8,0.4,12.4c1.6,2,3.3,4.1,6.1,5.3c2.5,1,4.7,0.8,6.5,1c1.4,0.2,7,1.2,11,0.4
							c2.7-0.6,6.9-1.8,8-2.4C36.2,41.1,38.9,40.9,41.6,38.6L41.6,38.6z"/>
						<path class="st7" d="M41,38.4c3.3-2.6,2.9-10.6,1.2-13.2c-2.2-3.3-4.7-4.9-6.9-5.9c-2-1-6.9-2-9.6-2
							c-3.5-0.2-7.2,0.6-10.4,1.6c-3.3,1-9.8,3.5-12.3,6.3C0.3,28.4,2.5,35.4,3.7,37c1.6,2,3.1,3.9,5.9,5.1c2.5,1,4.5,0.8,6.3,1
							c1.4,0.2,6.9,1.4,10.8,0.6c2.7-0.6,6.7-1.8,7.8-2.4C35.4,40.9,38.3,40.6,41,38.4L41,38.4z"/>
						<path class="st8" d="M40.5,38c3.3-2.6,2.9-10,1.2-12.8c-2.2-3.3-4.7-4.7-6.7-5.7c-2-1-6.5-2-9.2-2c-3.3-0.2-7.2,0.6-10.2,1.4
							c-3.1,0.8-9.4,3.3-11.9,6.1c-2.9,3.1-1,10.2,0.4,11.8c1.6,1.8,2.9,3.9,5.7,5.1c2.3,1,4.5,0.8,6.1,1c1.4,0.2,6.7,1.4,10.4,0.8
							c2.9-0.6,6.5-1.8,7.6-2.4C35,40.4,37.7,40.2,40.5,38L40.5,38z"/>
						<path class="st9" d="M39.9,37.6c3.3-2.4,2.9-9.6,1.2-12.4c-2.2-3.3-4.5-4.7-6.7-5.7c-2-1-6.3-2-8.8-2c-3.3-0.2-7,0.6-10,1.4
							c-3.3,1-9.6,3.5-11.9,6.1c-2.9,3.1-1,9.8,0.4,11.4s2.7,3.9,5.5,4.9c2.3,1,4.5,0.6,6.1,0.8c1.4,0.2,6.3,1.6,10.2,0.8
							c2.9-0.6,6.3-2,7.4-2.4C34.4,40,37.1,39.8,39.9,37.6L39.9,37.6z"/>
						<path class="st10" d="M39.3,37.4c3.1-2.4,2.9-9.2,1.4-12c-2-3.3-4.5-4.5-6.5-5.5c-1.8-0.8-5.9-1.8-8.4-2.2
							c-3.1-0.2-6.9,0.4-10,1.2c-3.3,1-9.4,3.5-11.7,5.9c-2.7,3-1.2,9.4,0.4,11.2s2.5,3.7,5.3,4.9c2.3,1,4.3,0.6,5.9,0.8
							c1.4,0.2,6.1,1.6,10,1c2.9-0.6,6.1-2,7.2-2.6C33.8,39.4,36.5,39.4,39.3,37.4L39.3,37.4z"/>
						<path class="st11" d="M38.7,37c3.1-2.2,2.9-8.9,1.4-11.6c-2-3.3-4.5-4.3-6.5-5.3c-1.8-0.8-5.5-1.8-8-2.2
							c-3.1-0.2-6.9,0.4-9.8,1.2c-3.3,1-9.4,3.5-11.6,5.7c-2.5,2.8-1.2,9,0.4,10.8c1.2,1.8,2.3,3.7,5.1,4.9c2.3,1,4.3,0.4,5.7,0.8
							c1.4,0.2,5.9,1.8,9.6,1c2.9-0.6,6.1-2,7-2.6C33.2,39,36,39,38.7,37L38.7,37z"/>
						<path class="st12" d="M38.1,36.8c3.1-2.2,2.9-8.5,1.4-11.2c-2-3.3-4.3-4.3-6.3-5.3c-1.8-0.8-5.3-1.8-7.8-2.2
							c-2.9-0.2-6.7,0.4-9.6,1.2c-3.1,1-9.2,3.5-11.4,5.7c-2.3,2.6-1.2,8.7,0.4,10.4C6,37,7,39,9.9,40c2.3,0.8,4.3,0.4,5.7,0.6
							c1.4,0.2,5.5,1.8,9.4,1.2c2.9-0.6,5.9-2.2,6.9-2.6C32.8,38.6,35.6,38.6,38.1,36.8L38.1,36.8z"/>
						<path class="st13" d="M37.5,36.4c2.9-2,2.9-8.1,1.4-10.8c-2-3.5-4.3-4.1-6.3-5.1c-1.6-0.8-4.9-1.8-7.2-2.2
							c-2.9-0.4-6.7,0.2-9.4,1.2c-3.1,1-9.2,3.5-11.2,5.5C2.5,27.4,3.5,33.3,5,35.2c1.2,1.6,2,3.5,4.9,4.5c2.3,0.8,4.1,0.2,5.5,0.6
							c1.4,0.4,5.3,2,9.2,1.2c2.9-0.6,5.7-2.2,6.7-2.8C32.2,38.2,35,38.2,37.5,36.4L37.5,36.4z"/>
						<path class="st14" d="M36.9,36.2c2.9-2,2.9-7.7,1.4-10.6c-2-3.5-4.3-4.1-6.3-5.1c-1.6-0.8-4.5-1.8-7-2.2
							c-2.7-0.4-6.5,0.2-9.4,1c-3.1,1-9,3.5-11,5.5c-2.2,2.4-1.4,7.9,0.2,9.8C6,36,6.8,38,9.5,39c2.3,0.8,4.1,0.2,5.5,0.4
							c1.4,0.2,5.1,2,9,1.4c2.9-0.6,5.5-2.2,6.5-2.8C31.7,37.8,34.4,37.8,36.9,36.2L36.9,36.2z"/>
						<path class="st15" d="M36.5,35.8c2.9-1.8,2.9-7.3,1.4-10.2c-2-3.5-4.1-3.9-6.1-4.9c-1.6-0.8-4.3-1.8-6.7-2.2
							c-2.7-0.4-6.3,0.2-9.2,1c-3.1,1-9,3.5-10.8,5.3c-2.2,2.2-1.6,7.5,0.2,9.6c1.2,1.4,1.8,3.3,4.5,4.1c2.2,0.8,4.1,0.2,5.3,0.4
							c1.2,0.2,4.9,2.2,8.6,1.4c2.9-0.6,5.3-2.4,6.3-2.8C31.3,37.2,33.8,37.4,36.5,35.8L36.5,35.8z"/>
						<path class="st16" d="M36,35.4c2.9-1.8,2.9-6.9,1.4-9.8c-1.8-3.5-4.1-3.9-6.1-4.7c-1.6-0.8-3.9-1.8-6.3-2
							c-2.5-0.4-6.3,0-9,0.8c-3.1,1-8.8,3.5-10.4,5.1c-2,2-1.6,7.1,0.2,9.2c1,1.4,1.4,3.3,4.3,4.3c2.2,0.8,4.1,0,5.1,0.4
							c1.2,0.4,4.7,2.2,8.4,1.6c2.9-0.6,5.3-2.4,6.1-2.8C30.7,36.8,33.2,37,36,35.4L36,35.4z"/>
						<path class="st17" d="M35.2,35.2c2.7-1.6,2.9-6.5,1.4-9.4c-1.8-3.5-4.1-3.7-5.9-4.7c-1.6-0.8-3.5-1.6-5.9-2
							c-2.3-0.4-6.1,0-8.8,0.8c-3.1,1-8.8,3.5-10.4,5.1c-1.8,1.8-1.6,6.7,0.2,9c1,1.2,1.4,3.1,4.1,3.9c2.2,0.6,3.9,0,5.1,0.2
							c1.2,0.4,4.3,2.4,8.2,1.8c2.9-0.4,5.1-2.4,5.9-3C30.3,36.2,32.6,36.6,35.2,35.2L35.2,35.2z"/>
						<path class="st18" d="M34.8,34.8c2.7-1.6,2.9-6.1,1.6-9c-1.8-3.5-3.9-3.7-5.9-4.5c-1.6-0.6-3.3-1.6-5.7-2
							c-2.3-0.4-6.1,0-8.8,0.8c-3.1,1-8.6,3.5-10,4.9c-1.6,1.8-1.8,6.3,0.2,8.7c1,1.2,1.2,3,4.1,3.9c2.2,0.6,3.9-0.2,4.9,0.2
							c1.2,0.4,4.1,2.4,8,1.8c2.9-0.4,4.9-2.6,5.7-3C29.7,35.8,32,36.4,34.8,34.8L34.8,34.8z"/>
						<path class="st19" d="M34.2,34.6c2.7-1.4,2.9-5.5,1.6-8.7c-1.8-3.5-3.9-3.5-5.9-4.3c-1.4-0.6-2.9-1.6-5.3-2
							c-2.3-0.4-5.9-0.2-8.6,0.6c-3.1,1-8.6,3.5-9.8,4.7c-1.6,1.6-1.8,6.1,0.2,8.3c0.8,1,1,3,3.9,3.7c2.2,0.6,3.7-0.2,4.7,0
							c1.2,0.4,3.9,2.6,7.6,2c2.9-0.4,4.7-2.6,5.5-3C29.1,35.4,31.5,36,34.2,34.6L34.2,34.6z"/>
						<path class="st20" d="M33.6,34.3c2.7-1.4,2.9-5.1,1.6-8.3c-1.6-3.5-3.9-3.5-5.7-4.3c-1.4-0.6-2.7-1.6-4.9-2
							c-2.2-0.4-5.9-0.2-8.4,0.6c-3.1,1-8.6,3.5-9.8,4.7c-1.4,1.4-2,5.7,0,8.1c0.8,1,0.8,2.8,3.7,3.5c2.2,0.6,3.7-0.2,4.7,0
							c1.2,0.4,3.5,2.6,7.4,2c3.1-0.4,4.7-2.8,5.3-3C28.5,35,31.1,35.6,33.6,34.3z"/>
						<path class="st21" d="M33,33.9c2.5-1.2,2.9-4.7,1.6-7.9c-1.6-3.5-3.7-3.3-5.7-4.1c-1.4-0.6-2.3-1.6-4.5-2s-5.7-0.2-8.2,0.6
							c-2.9,1-8.4,3.5-9.4,4.5c-1.4,1.2-2,5.3,0,7.7c0.8,1,0.6,2.8,3.5,3.5c2.2,0.6,3.7-0.4,4.5,0c1.2,0.4,3.3,2.8,7.2,2.2
							c3.1-0.4,4.5-2.8,5.1-3.1C28.1,34.5,30.5,35.2,33,33.9L33,33.9z"/>
						<path class="st22" d="M32.4,33.7c2.5-1.2,2.9-4.3,1.6-7.5c-1.6-3.5-3.7-3.3-5.5-4.1c-1.2-0.6-2-1.6-4.1-2
							c-2-0.6-5.5-0.4-8.2,0.4C13.2,21.5,8,24,7,24.8c-1.2,1.2-2.2,4.9,0,7.5c0.8,0.8,0.4,2.8,3.3,3.3c2,0.4,3.7-0.4,4.3-0.2
							c1.2,0.4,3.1,2.8,7,2.2c3.1-0.4,4.3-2.8,4.9-3.1C27.5,34.1,29.9,34.8,32.4,33.7L32.4,33.7z"/>
						<path class="st23" d="M31.8,33.3c2.5-1.2,2.9-3.9,1.6-7.1c-1.6-3.5-3.7-3.1-5.5-3.9c-1.2-0.6-1.8-1.4-3.9-2
							c-2-0.6-5.5-0.4-8,0.4c-2.9,1-8.2,3.5-9,4.3c-1,1-2.2,4.5,0,7.1c0.6,0.8,0.4,2.6,3.1,3.1c2,0.4,3.5-0.6,4.3-0.2
							c1.2,0.4,2.9,3,6.9,2.4c3.1-0.4,4.1-3,4.7-3.1C27,33.7,29.3,34.5,31.8,33.3z"/>
					</g>
					<path class="st24" d="M28.5,21.5c-0.2,0-0.2,0-0.4,0c-0.8-2-2.7-3.5-4.9-3.5c-0.8,0-1.4,0.2-2,0.4c-0.8-2-2.5-3.3-4.7-3.3
						s-3.9,1.4-4.7,3.1c-0.2,0-0.6,0-0.8,0c-2.3,0-4.3,1.8-4.5,4.1c-0.4,0-0.6-0.2-1-0.2c-2.7,0-5.1,2.4-5.1,5.1s2.3,5.1,5.1,5.1
						c0,0,0,0,0.2,0c0.4,2,2.3,3.5,4.5,3.5c1.8,0,3.1-1,3.9-2.4c1.2,2,3.1,3.1,5.5,3.1c2.5,0,4.9-1.6,5.9-3.7c1,0.6,2,0.8,2.9,0.8
						c3.3,0,6.1-2.8,6.1-6.1S31.8,21.5,28.5,21.5z"/>
					<path class="st25" d="M28.7,21.7c-0.2,0-0.2,0-0.4,0c-0.8-2-2.7-3.5-4.9-3.5c-0.8,0-1.4,0.2-2,0.4c-0.8-2-2.5-3.3-4.7-3.3
						s-3.9,1.4-4.7,3.1c-0.2,0-0.6,0-0.8,0c-2.3,0-4.3,1.8-4.5,4.1c-0.4,0-0.6-0.2-1-0.2c-2.7,0-5.1,2.4-5.1,5.1s2.3,5.1,5.1,5.1
						c0,0,0,0,0.2,0c0.4,2,2.3,3.5,4.5,3.5c1.8,0,3.1-1,3.9-2.4c1.2,2,3.1,3.1,5.5,3.1c2.5,0,4.9-1.6,5.9-3.7c1,0.6,2,0.8,2.9,0.8
						c3.3,0,6.1-2.8,6.1-6.1S32,21.7,28.7,21.7z"/>
				</g>
				<g>
					<g class="st0">
						<g class="st1">
							<path class="st2" d="M29.3,34.6c-5.9,0.4-14.7-2.8-16.6-7.1c-2-4.1-0.4-7.3,2.7-8.3c2-0.6,6.9,3,11.2,3c5.9-0.2,7-2.2,9-4.9
								c1.6-2.4,9.4-0.6,8.6,5.3C43.2,30.1,36.7,34.1,29.3,34.6L29.3,34.6z"/>
							<path class="st3" d="M29.3,34.3C23.6,34.6,15,31.5,13,27.4s-0.6-7.1,2.3-8.1c2-0.6,6.7,3,11.2,2.8c5.9-0.2,7-2.2,9-4.9
								c1.6-2.4,8.8-0.6,8,5.3C42.8,29.9,36.5,33.7,29.3,34.3z"/>
							<path class="st26" d="M29.3,33.9c-5.5,0.6-13.7-2.6-15.9-6.5s-0.8-6.9,2.2-7.9c1.8-0.6,6.7,3,11.2,2.8c5.7-0.2,7-2.4,9-5.1
								c1.6-2.2,8.4-0.4,7.6,5.1C42.4,29.5,36.3,33.3,29.3,33.9L29.3,33.9z"/>
							<path class="st5" d="M29.5,33.7c-5.3,0.6-13.3-2.6-15.5-6.3s-1-6.7,1.8-7.7c1.8-0.6,6.5,3,11.2,2.8c5.7-0.4,7-2.4,9-5.1
								c1.6-2.2,8-0.4,7,5.1C41.8,29.3,36.2,33.1,29.5,33.7L29.5,33.7z"/>
							<path class="st27" d="M29.5,33.3c-5.1,0.6-12.9-2.4-15.1-5.9s-1.2-6.3,1.4-7.3c1.8-0.6,6.5,3,11.2,2.8c5.5-0.4,7.2-2.6,9-5.1
								c1.4-2.2,7.4-0.2,6.7,4.9C41.4,29.1,36,32.7,29.5,33.3L29.5,33.3z"/>
							<path class="st28" d="M29.5,33.1c-5.1,0.6-12.3-2.2-14.7-5.7c-2.3-3.7-1.4-6.1,1.2-7.1c1.6-0.6,6.3,3,11.2,2.6
								c5.5-0.4,7.2-2.6,8.8-5.1c1.4-2,7,0,6.1,4.9C40.9,28.9,35.8,32.3,29.5,33.1L29.5,33.1z"/>
							<path class="st29" d="M29.5,32.7c-4.9,0.6-11.9-2.2-14.1-5.3c-2.3-3.5-1.8-5.9,0.8-6.9c1.6-0.6,6.1,3,11,2.6
								c5.3-0.4,7.2-2.8,8.8-5.1c1.4-2,6.7,0,5.7,4.9C40.5,28.6,35.6,31.9,29.5,32.7L29.5,32.7z"/>
							<path class="st30" d="M29.5,32.3c-4.7,0.6-11.6-2-13.7-5.1c-2.5-3.3-2-5.7,0.4-6.7c1.6-0.6,6.1,3,11,2.6
								c4.9-0.4,7.2-2.8,8.8-5.3c1.4-2,6.3,0.2,5.1,4.7C40.1,28.4,35.4,31.5,29.5,32.3L29.5,32.3z"/>
							<path class="st31" d="M29.5,32.1c-4.5,0.6-11.2-1.8-13.3-4.7c-2.5-3.3-2.2-5.5,0.2-6.3c1.4-0.6,5.9,3.1,11,2.6
								c5.1-0.6,7.2-3,8.8-5.3c1.2-1.8,5.7,0.2,4.7,4.7C39.7,28.2,35.2,31.3,29.5,32.1L29.5,32.1z"/>
							<path class="st32" d="M29.5,31.7c-4.5,0.8-10.6-1.8-12.9-4.5c-2.7-3.1-2.3-5.3-0.2-6.1c1.4-0.6,5.9,3.1,11,2.4
								c5.1-0.8,7.2-3.1,8.8-5.3c1.2-1.8,5.3,0.4,4.3,4.5C39.1,28,35,30.9,29.5,31.7L29.5,31.7z"/>
							<path class="st33" d="M29.5,31.5c-4.3,0.8-10.2-1.6-12.5-4.1c-2.7-3.1-2.5-5.1-0.6-5.9c1.4-0.6,5.7,3.1,11,2.4
								c4.9-0.6,7.2-3.1,8.8-5.3c1.2-1.8,4.9,0.4,3.7,4.5C38.7,27.8,34.8,30.5,29.5,31.5L29.5,31.5z"/>
							<path class="st34" d="M29.5,31.1c-4.1,0.8-9.8-1.6-12.1-3.9c-2.9-3-2.7-4.7-1-5.7c1.2-0.6,5.7,3.1,11,2.4
								c4.7-0.6,7.4-3.1,8.8-5.3c1.2-1.6,4.3,0.6,3.3,4.3C38.1,27.4,34.6,30.3,29.5,31.1z"/>
							<path class="st35" d="M29.7,30.7c-3.9,0.8-9.4-1.4-11.7-3.5c-2.9-3-2.9-4.5-1.2-5.3c1.2-0.6,5.5,3.1,11,2.4
								c4.7-0.8,7.4-3.3,8.8-5.3c1.2-1.6,3.9,0.6,2.7,4.3C37.7,27.2,34.4,29.9,29.7,30.7L29.7,30.7z"/>
							<path class="st36" d="M29.7,30.5c-3.7,0.8-9-1.2-11.4-3.3c-3.1-2.8-3.1-4.3-1.6-5.1c1.2-0.6,5.3,3.1,10.8,2.2
								c4.5-0.8,7.4-3.5,8.8-5.5c1-1.6,3.5,0.8,2.3,4.3C37.3,27,34.2,29.5,29.7,30.5z"/>
							<path class="st37" d="M29.7,30.1c-3.7,0.8-8.6-1.2-11-3c-3.3-2.6-3.3-4.1-2-4.9c1-0.6,5.3,3.1,10.8,2.2
								c4.5-0.8,7.4-3.5,8.6-5.5c1-1.6,3.1,0.8,1.8,4.1S34,29.1,29.7,30.1L29.7,30.1z"/>
							<path class="st38" d="M29.7,29.9c-3.5,0.8-8.2-1-10.4-2.8c-3.3-2.6-3.5-3.9-2.2-4.7c1-0.6,5.1,3.1,10.8,2.2
								c4.3-0.8,7.4-3.7,8.6-5.5c1-1.4,2.7,1,1.4,4.1S33.8,28.9,29.7,29.9L29.7,29.9z"/>
							<path class="st39" d="M29.7,29.5c-3.3,0.8-7.6-0.8-10-2.4c-3.5-2.4-3.7-3.7-2.5-4.3c1-0.6,5.1,3.1,10.8,2.2
								c4.3-0.8,7.4-3.7,8.6-5.5c1-1.4,2.2,1,0.8,3.9S33.6,28.6,29.7,29.5L29.7,29.5z"/>
							<path class="st40" d="M29.7,29.3c-3.1,1-7.2-0.6-9.6-2.2C16.4,25,16,23.6,17.2,23c0.8-0.4,4.9,3.1,10.8,2.2
								c4.1-0.8,7.4-3.9,8.6-5.5c1-1.4,1.8,1.2,0.4,3.9C35.6,26,33.4,28.2,29.7,29.3L29.7,29.3z"/>
							<path class="st41" d="M29.7,28.9c-2.9,1-6.9-0.4-9.2-1.8c-3.7-2.2-4.3-3.1-3.1-3.9c0.8-0.4,4.9,3.1,10.8,2
								c4.1-0.8,7.4-3.9,8.6-5.5c1-1.2,1.4,1.4-0.2,3.7C35.2,25.8,33.2,27.8,29.7,28.9L29.7,28.9z"/>
							<path class="st42" d="M29.7,28.6c-2.9,1-6.5-0.4-8.8-1.4c-3.9-2-4.5-3-3.5-3.7c0.8-0.4,4.7,3.3,10.6,2
								c3.9-0.8,7.6-4.1,8.6-5.7c0.8-1.2,1,1.4-0.6,3.7C34.8,25.4,33,27.6,29.7,28.6L29.7,28.6z"/>
							<path class="st43" d="M29.7,28.4c-2.7,1-6.1-0.2-8.4-1.2c-4.1-1.8-4.7-2.8-3.9-3.3c0.6-0.4,4.5,3.3,10.6,2
								c3.9-0.8,7.6-4.1,8.6-5.7c0.8-1.2,0.6,1.6-1.2,3.5C34.4,25.2,32.8,27.2,29.7,28.4L29.7,28.4z"/>
							<path class="st44" d="M29.9,28c-2.5,1-5.7,0-8-0.8c-4.1-1.6-4.9-2.6-4.1-3.1c0.6-0.4,4.5,3.3,10.6,2c3.7-1,7.6-4.3,8.6-5.7
								c0.8-1.2,0.2,1.8-1.6,3.5C33.8,25,32.6,26.8,29.9,28L29.9,28z"/>
						</g>
						<g class="st1">
							<path class="st2" d="M11.5,9.7C13.8,4,20.1,2,23.2,2c2,0,3.7,2,0.8,6.7c-3.1,5.3-1.6,9.6,1,12c2.9,2.8,6.9,2.8,6.1,5.1
								c-1.6,4.1-8.8,5.1-14.5,1.8C10.7,24.4,8.7,16,11.5,9.7z"/>
							<path class="st3" d="M11.5,9.9c2.2-5.7,8.4-7.7,11.6-7.7c1.8,0,3.3,2,0.6,6.7c-3.1,5.3-1.6,9.6,1,12c2.7,2.8,6.9,2.8,6.1,5.1
								c-1.4,4.1-8.6,4.9-14.3,1.6C10.9,24.2,8.9,16.2,11.5,9.9L11.5,9.9z"/>
							<path class="st26" d="M11.7,10.1c2.2-5.7,8.4-7.9,11.2-7.7c1.8,0,3.1,2,0.4,6.5c-3.1,5.3-1.6,9.6,1,12.2
								c2.7,2.8,6.9,3,6.1,5.1c-1.4,3.7-8.4,4.7-13.9,1.4S9.3,16.2,11.7,10.1L11.7,10.1z"/>
							<path class="st5" d="M11.7,10.3c2.2-5.7,8.2-8.1,11-7.9c1.6,0,2.7,2,0.2,6.5c-3.1,5.3-1.4,9.6,1,12.2
								c2.7,2.8,6.9,3.1,6.1,5.1c-1.4,3.7-8.2,4.3-13.5,1.2C11.1,24,9.5,16.4,11.7,10.3z"/>
							<path class="st27" d="M11.9,10.3c2.2-5.7,8.2-8.1,10.8-7.9c1.6,0,2.5,1.8,0,6.3c-3.1,5.3-1.4,9.6,1,12.2
								c2.5,2.8,6.9,3.1,6.3,5.1c-1.2,3.5-8.2,4.1-13.3,1C11.3,24,9.7,16.4,11.9,10.3L11.9,10.3z"/>
							<path class="st28" d="M11.9,10.5c2-5.7,8-8.3,10.4-8.1c1.6,0.2,2.3,1.8-0.2,6.3c-3.1,5.3-1.4,9.6,1,12.2
								c2.5,2.8,6.9,3.3,6.3,5.1c-1.2,3.3-8,3.9-12.9,1C11.3,23.8,9.9,16.4,11.9,10.5L11.9,10.5z"/>
							<path class="st29" d="M12.1,10.7c2-5.7,8-8.3,10.2-8.1c1.4,0.2,2.2,1.8-0.4,6.1c-2.9,5.3-1.4,9.6,1,12.2
								c2.5,2.8,6.9,3.3,6.3,5.1c-1.2,3.1-7.8,3.7-12.7,0.8S10.1,16.6,12.1,10.7L12.1,10.7z"/>
							<path class="st30" d="M12.1,10.8c1.8-5.9,7.8-8.5,10-8.3c1.2,0.2,1.8,1.8-0.6,5.9c-2.9,5.3-1.4,9.6,1,12.2s6.9,3.5,6.3,5.1
								c-1.2,3-7.6,3.5-12.3,0.6C11.7,23.6,10.3,16.6,12.1,10.8L12.1,10.8z"/>
							<path class="st31" d="M12.1,11c1.8-5.9,7.8-8.7,9.6-8.3c1.2,0.2,1.6,1.6-0.8,5.9c-2.9,5.3-1.4,9.6,1,12.2s6.9,3.5,6.3,5.1
								c-1,2.8-7.4,3.1-12.1,0.4C11.7,23.6,10.5,16.6,12.1,11L12.1,11z"/>
							<path class="st32" d="M12.3,11.2c1.8-5.9,7.6-8.7,9.4-8.5c1.2,0.2,1.2,1.6-1,5.7c-2.9,5.3-1.4,9.4,1,12.2s6.9,3.7,6.3,5.1
								c-1,2.6-7.4,3-11.7,0.2C11.9,23.4,10.7,16.7,12.3,11.2z"/>
							<path class="st33" d="M12.3,11.4c1.6-5.9,7.6-8.9,9.2-8.5c1,0.2,1,1.6-1.2,5.5c-2.9,5.3-1.2,9.4,1,12.2s6.9,3.7,6.3,5.1
								c-1,2.4-7.2,2.8-11.6,0.2C11.9,23.4,10.9,16.7,12.3,11.4L12.3,11.4z"/>
							<path class="st34" d="M12.5,11.6c1.6-5.9,7.4-9,9-8.7c1,0.2,0.8,1.6-1.4,5.5c-2.9,5.3-1.2,9.4,1,12.2s6.9,3.9,6.3,5.1
								c-1,2.2-7,2.6-11.2,0S11.1,16.7,12.5,11.6z"/>
							<path class="st35" d="M12.5,11.8C14,5.7,19.9,2.6,21.1,3c0.8,0.2,0.4,1.4-1.6,5.3c-2.9,5.5-1.2,9.4,1.2,12.2
								c2.2,2.6,6.9,4.1,6.5,5.1c-0.8,2-6.9,2.4-11-0.2C12.3,23.2,11.3,16.9,12.5,11.8L12.5,11.8z"/>
							<path class="st36" d="M12.7,12c1.4-6.1,7.2-9.2,8.4-8.9c0.8,0.2,0.2,1.4-1.8,5.3c-2.7,5.5-1.2,9.4,1.2,12.4
								c2.2,2.6,6.9,4.1,6.5,5.1c-0.8,1.8-6.7,2.2-10.6-0.4C12.3,23,11.3,16.9,12.7,12L12.7,12z"/>
							<path class="st37" d="M12.7,12.2c1.4-6.1,7.2-9.4,8.2-9c0.6,0.2,0,1.4-2,5.1c-2.9,5.5-1.4,9.4,1,12.4c2,2.6,6.9,4.3,6.5,5.1
								c-0.8,1.6-6.5,1.8-10.4-0.6C12.5,23,11.7,16.9,12.7,12.2z"/>
							<path class="st38" d="M12.7,12.4c1.2-6.1,7-9.6,7.8-9c0.6,0.4-0.2,1.2-2.2,4.9c-2.7,5.5-1,9.4,1.2,12.4
								c2,2.6,6.9,4.3,6.5,5.1c-0.8,1.4-6.5,1.6-10-0.8C12.7,22.8,11.7,17.1,12.7,12.4z"/>
							<path class="st39" d="M12.9,12.4c1.2-6.1,7-9.6,7.6-9.2c0.4,0.4-0.6,1.2-2.3,4.9c-2.7,5.7-1.2,9.6,1,12.6
								c2,2.6,6.9,4.5,6.5,5.1C25,27,19.3,27.2,16,25S11.9,17.1,12.9,12.4z"/>
							<path class="st40" d="M12.9,12.6c1.2-6.3,6.9-9.8,7.4-9.2c0.4,0.4-0.8,1.2-2.5,4.7c-2.7,5.5-1.2,9.4,1.2,12.4
								c1.8,2.6,6.9,4.5,6.5,5.1c-0.6,1-6.1,1.2-9.4-1C12.9,22.7,12.1,17.1,12.9,12.6z"/>
							<path class="st41" d="M13,12.8c1-6.3,6.9-9.8,7-9.4c0.4,0.6-1,1.2-2.7,4.7c-2.7,5.5-1,9.4,1.2,12.4c1.8,2.6,6.9,4.7,6.5,5.1
								c-0.6,0.8-5.9,1-9-1.2C13,22.5,12.3,17.1,13,12.8L13,12.8z"/>
							<path class="st42" d="M13,13c0.8-6.3,6.7-10,6.9-9.4c0.2,0.4-1.4,1-2.9,4.5c-2.7,5.5-1,9.2,1.2,12.4c1.8,2.6,6.9,4.7,6.5,5.1
								c-0.4,0.6-5.7,0.8-8.8-1.4C13,22.5,12.5,17.3,13,13L13,13z"/>
							<path class="st43" d="M13.2,13.2C14,6.9,19.7,3,19.9,3.6c0,0.4-1.6,1-3.1,4.3c-2.5,5.5-1,9.2,1.2,12.4
								c1.8,2.4,6.9,4.9,6.7,5.1c-0.4,0.4-5.5,0.4-8.4-1.6C13.2,22.5,12.7,17.3,13.2,13.2z"/>
							<path class="st44" d="M13.2,13.4c0.6-6.3,6.5-10.2,6.5-9.6c0,0.4-1.8,1-3.3,4.3c-2.5,5.5-1,9.2,1.2,12.4
								c1.6,2.4,6.9,5.1,6.7,5.1c-0.4,0.2-5.5,0.2-8.2-1.8C13.2,22.3,12.9,17.3,13.2,13.4L13.2,13.4z"/>
						</g>
					</g>
					<path class="st45" d="M34.6,21.3c-4.5,4.5-11.7,4.5-16.1,0S14,9.5,18.5,5.1c1.8-1.8,4.1-2.6,6.5-3C21.3,1.8,17.4,3,14.6,5.7
						c-5.3,5.3-5.3,14,0,19.3s13.9,5.3,19.2,0c2.9-3,4.5-6.9,4.1-10.8C37.7,16.9,36.5,19.1,34.6,21.3L34.6,21.3z"/>
					
						<linearGradient id="SVGID_1_" gradientUnits="userSpaceOnUse" x1="508.722" y1="185.6028" x2="527.8992" y2="166.4063" gradientTransform="matrix(0.7071 -0.7071 -0.7071 -0.7071 -217.5325 506.7407)">
						<stop  offset="0" style="stop-color:#FFD45C"/>
						<stop  offset="1" style="stop-color:#FF9D00"/>
					</linearGradient>
					<path class="st46" d="M34.8,21.5C30.3,26,23,26,18.7,21.5s-4.5-11.8,0-16.1c1.8-1.8,3.9-2.8,6.3-3.1c-3.5,0-7.2,1.2-9.8,3.9
						c-5.3,5.3-5.3,14,0,19.3s13.9,5.3,19.2,0c2.9-3,4.3-7.1,3.9-11C37.7,16.9,36.7,19.5,34.8,21.5L34.8,21.5z"/>
				</g>
				<g class="st0">
					<g class="st1">
						<path class="st2" d="M26.8,33.5c2-3,1-8.7-0.4-10.6c-1.8-2.6-4.7-3-6.5-3.7c-1.8-1-5.1-3.3-7.2-3.3c-2.9,0-4.5,1.2-7,1.8
							c-2.7,0.8-7.2,4.9-9.6,7.7c-2.9,3.1-2.2,8.1-1.4,9c1.2,1.8,2.9,3.3,5.1,4.5c2,1,3.7,1,5.3,1c1.2,0,2.5,0.6,5.5,0
							c2.2-0.4,3.1-0.6,4.3-1C17,38,24.2,37,26.8,33.5L26.8,33.5z"/>
						<path class="st3" d="M26.4,33.3c2-3,1.2-8.5-0.2-10.4c-1.8-2.6-4.7-3-6.5-3.7c-1.8-0.8-4.9-3.1-7-3.1c-2.9,0-4.7,1.2-7,1.8
							c-2.5,0.8-7,4.9-9.4,7.5c-2.7,3.1-2.2,7.9-1.4,8.9c1.2,1.6,2.7,3.3,4.9,4.3c2,1,3.7,0.8,5.3,1c1.2,0,2.5,0.8,5.5,0
							c2.2-0.4,3.1-0.6,4.1-1C16.8,37.8,23.8,36.8,26.4,33.3L26.4,33.3z"/>
						<path class="st4" d="M26,33.3c2-2.8,1.2-8.3-0.2-10c-1.8-2.6-4.7-2.8-6.3-3.7c-1.6-0.8-4.7-3.1-6.9-3.1
							c-2.9-0.2-4.7,0.8-7,1.6c-2.5,0.8-7,4.7-9.2,7.3c-2.7,3-2.3,7.5-1.6,8.7C-4,35.4-2.4,37-0.3,38c2,1,3.7,0.8,5.1,0.8
							c1.2,0,2.5,0.8,5.5,0.2c2.2-0.4,3.1-0.8,4.1-1C16.8,37.4,23.4,36.6,26,33.3L26,33.3z"/>
						<path class="st5" d="M25.6,33.1c2-2.8,1.2-8.1-0.2-9.8c-1.8-2.6-4.7-2.8-6.3-3.5c-1.6-0.8-4.5-3.1-6.7-3.1
							c-2.9-0.2-4.5,0.8-7,1.4c-2.5,0.8-6.9,4.7-9,7.3c-2.5,2.8-2.3,7.3-1.6,8.3c1.4,1.6,2.9,3.3,4.9,4.1c2,0.8,3.7,0.6,5.1,0.8
							c1.2,0.2,2.5,0.8,5.5,0.2c2.2-0.4,3.1-0.8,4.1-1C16.6,37,23.2,36.4,25.6,33.1L25.6,33.1z"/>
						<path class="st6" d="M25.2,32.9c2-2.6,1.2-7.7,0-9.6c-1.8-2.6-4.7-2.8-6.3-3.5c-1.6-0.6-4.5-3.1-6.7-3.1
							c-2.7-0.2-4.5,0.8-6.9,1.4c-2.5,0.8-6.7,4.7-8.8,7.1c-2.5,2.8-2.5,7.1-1.6,8.3c1.2,1.6,2.7,3.1,4.9,3.9
							c2.2,0.8,3.7,0.6,4.9,0.6C6,38,7.4,38.6,10.3,38c2.2-0.4,3.1-0.8,4.1-1C16.6,36.8,22.8,36,25.2,32.9z"/>
						<path class="st7" d="M24.8,32.9c2-2.6,1.4-7.5,0-9.4c-1.8-2.6-4.5-2.8-6.1-3.5c-1.6-0.8-4.3-3.1-6.3-3.3c-2.9,0-4.7,1-7,1.6
							c-2.5,0.8-6.7,4.7-8.6,6.9c-2.3,2.6-2.5,6.9-1.6,8.1c1.2,1.4,2.5,3.1,4.7,3.9c2.2,0.8,3.7,0.4,4.9,0.6c1,0.2,2.5,0.8,5.5,0.2
							c2.2-0.4,3.3-0.8,4.1-1C16.4,36.4,22.4,35.8,24.8,32.9L24.8,32.9z"/>
						<path class="st8" d="M24.4,32.7c2-2.4,1.4-7.3,0.2-9.2c-1.8-2.6-4.5-2.8-6.1-3.3c-1.6-0.8-4.1-3.1-6.1-3.3
							c-2.9,0-4.7,0.8-7,1.4C2.9,18.9-1,22.8-3,24.8c-2.3,2.6-2.5,6.7-1.6,7.9c1.2,1.4,2.5,3,4.7,3.7s3.5,0.4,4.9,0.4
							c1,0.2,2.5,1,5.5,0.4c2.2-0.4,3.3-0.8,4.1-1C16.4,36,22.1,35.6,24.4,32.7L24.4,32.7z"/>
						<path class="st9" d="M24,32.7c2-2.4,1.4-7.1,0.2-8.9c-1.8-2.6-4.5-2.6-6.1-3.3c-1.4-0.8-3.9-3.1-6.1-3.3
							c-2.5-0.4-4.5,0.6-6.9,1.2C2.7,19.1-1.2,22.8-3,25c-2.2,2.4-2.7,6.3-1.6,7.7c1,1.2,2.3,2.8,4.5,3.5c2.2,0.8,3.5,0.2,4.7,0.4
							c1,0.2,2.5,1,5.5,0.4c2.2-0.4,3.3-0.8,4.1-1C16.2,35.6,21.7,35.4,24,32.7L24,32.7z"/>
						<path class="st10" d="M23.6,32.5c2-2.2,1.4-6.9,0.2-8.7c-1.8-2.6-4.3-2.6-6.1-3.3c-1.4-0.8-3.9-3.1-5.9-3.3
							c-2.3-0.2-4.3,0.6-6.7,1.2c-2.5,0.8-6.3,4.5-8,6.5C-5,27-5.6,30.9-4.6,32.3c1,1.4,2.3,2.8,4.5,3.5C2.1,36.6,3.5,36,4.6,36
							c1,0.2,2.5,1,5.5,0.4c2.2-0.4,3.3-1,4.1-1C16,35.4,21.3,35,23.6,32.5L23.6,32.5z"/>
						<path class="st11" d="M23.2,32.5c2-2.2,1.6-6.7,0.4-8.5c-1.8-2.6-4.3-2.6-5.9-3.1c-1.4-0.6-3.7-3.1-5.7-3.3
							c-2.5-0.4-4.7,0.4-6.9,1C2.7,19.3-1,23-2.6,24.8c-2,2.2-2.9,5.9-1.8,7.3c1,1.4,2.2,2.8,4.3,3.3s3.5,0,4.7,0.2
							c1,0.2,2.5,1,5.5,0.6c2.2-0.4,3.3-1,4.1-1C16,35,20.9,34.8,23.2,32.5L23.2,32.5z"/>
						<path class="st12" d="M22.8,32.3c2-2,1.6-6.5,0.4-8.1c-1.8-2.6-4.3-2.4-5.9-3.1c-1.4-0.8-3.7-3.3-5.5-3.5
							c-2.3-0.2-4.5,0.4-6.7,1.2c-2.5,0.8-6.1,4.5-7.6,6.1c-2,2-2.9,5.7-1.8,7.1c1,1.2,2.2,2.6,4.3,3.1s3.5,0,4.5,0.2
							s2.5,1.2,5.5,0.6c2.2-0.4,3.3-1,4.1-1C15.8,34.6,20.5,34.6,22.8,32.3L22.8,32.3z"/>
						<path class="st13" d="M22.4,32.3c2-2,1.6-6.1,0.4-7.9c-1.8-2.6-4.3-2.4-5.7-3.1c-1.4-0.8-3.5-3.3-5.5-3.5
							c-2.2-0.2-4.3,0.4-6.7,1c-2.5,0.8-5.9,4.3-7.4,6.1c-1.8,2-2.9,5.5-1.8,6.9c1,1.2,2.2,2.6,4.3,3.1c2.2,0.6,3.5-0.2,4.5,0
							c1,0.2,2.5,1.2,5.5,0.6c2.2-0.4,3.3-1,4.1-1C15.8,34.5,20.1,34.5,22.4,32.3L22.4,32.3z"/>
						<path class="st14" d="M22.1,32.1c2-1.8,1.8-5.9,0.6-7.7c-1.8-2.6-4.1-2.4-5.7-3.1c-1.4-0.4-3.5-3.1-5.3-3.3
							c-2.2-0.4-4.5,0.2-6.7,1c-2.3,0.8-5.9,4.3-7.2,5.9C-4,26.6-5.4,29.9-4,31.5c1,1.2,2,2.6,4.1,3s3.5-0.2,4.3,0
							C5.2,34.6,7,35.6,9.9,35c2.3-0.4,3.3-1,4.1-1C15.6,34.1,19.7,34.1,22.1,32.1L22.1,32.1z"/>
						<path class="st15" d="M21.7,32.1c2-1.8,1.8-5.7,0.6-7.5c-1.6-2.6-4.1-2.4-5.7-3c-1.2-0.6-3.1-3.3-5.1-3.5
							c-2-0.4-4.3,0.2-6.5,0.8c-2.5,0.8-5.7,4.3-7,5.7c-1.6,1.8-3.1,4.9-1.8,6.5c0.8,1,2,2.4,4.1,2.8c2.2,0.4,3.5-0.4,4.3-0.2
							s2.5,1.2,5.5,0.8c2.3-0.4,3.5-1,4.1-1C15.6,33.7,19.5,33.9,21.7,32.1L21.7,32.1z"/>
						<path class="st16" d="M21.3,31.9c2-1.6,1.8-5.5,0.8-7.3c-1.6-2.6-4.1-2.2-5.7-3c-1.2-0.4-3.1-3.1-4.9-3.3
							c-2-0.4-4.5,0-6.5,0.8c-2.5,0.6-5.7,4.1-7,5.5c-1.6,1.6-3.1,4.7-2,6.3c0.8,1,1.8,2.4,3.9,2.8s3.7-0.4,4.5-0.2
							c1,0.2,2.5,1.2,5.5,0.8c2.3-0.4,3.5-1.2,4.1-1C15.4,33.3,19.1,33.7,21.3,31.9L21.3,31.9z"/>
						<path class="st17" d="M20.9,31.7c2-1.6,1.8-5.3,0.8-6.9c-1.6-2.6-4.1-2.2-5.5-3c-1.2-0.6-2.9-3.3-4.7-3.5S7,18.5,4.8,19.1
							c-2.3,0.8-5.5,4.3-6.7,5.5c-1.4,1.4-3.3,4.5-2,6.3c0.8,1,1.8,2.2,3.9,2.6c2.2,0.4,3.3-0.6,4.1-0.4c1,0.2,2.5,1.4,5.5,0.8
							c2.3-0.4,3.5-1.2,4.1-1C15.2,32.9,18.7,33.5,20.9,31.7L20.9,31.7z"/>
						<path class="st18" d="M20.5,31.7c2-1.4,1.8-5.1,0.8-6.7c-1.6-2.6-4.1-2.2-5.5-2.8c-1.2-0.6-2.7-3.3-4.5-3.7
							c-1.8-0.4-4.3,0-6.5,0.6c-2.3,0.8-5.3,4.1-6.5,5.3c-1.4,1.4-3.3,4.3-2,6.1c0.8,0.8,1.6,2.2,3.9,2.4s3.3-0.6,4.1-0.4
							c1,0.2,2.5,1.4,5.5,0.8c2.3-0.4,3.5-1.2,4.1-1C15.2,32.7,18.3,33.3,20.5,31.7z"/>
						<path class="st19" d="M20.1,31.7c2-1.4,2-4.9,1-6.5c-1.6-2.6-3.9-2.2-5.5-2.8c-1.2-0.4-2.7-3.3-4.3-3.5S7,18.9,5,19.5
							c-2.3,0.8-5.3,4.1-6.3,5.1c-1.2,1.2-3.5,4.1-2,5.9c0.6,0.8,1.6,2.2,3.7,2.4s3.3-0.8,4.1-0.6c0.8,0.2,2.5,1.4,5.5,1
							c2.3-0.4,3.5-1.2,4.1-1C15,32.3,17.9,32.9,20.1,31.7L20.1,31.7z"/>
						<path class="st20" d="M19.5,31.5c2-1.2,2-4.7,1-6.1c-1.6-2.6-3.9-2.2-5.3-2.8c-1-0.4-2.5-3.3-4.3-3.7s-4.1,0-6.1,0.6
							c-2.3,0.6-5.3,4.1-6.1,4.9c-1,1.2-3.5,3.7-2,5.7c0.6,0.8,1.4,2,3.7,2.2c2.3,0.2,3.3-0.8,3.9-0.6c0.8,0.2,2.5,1.4,5.5,1
							c2.3-0.4,3.5-1.2,4.1-1C15,31.9,17.6,32.7,19.5,31.5L19.5,31.5z"/>
						<path class="st21" d="M19.1,31.3c2-1.2,2-4.3,1.2-5.9c-1.6-2.6-3.9-2-5.3-2.8c-1-0.4-2.3-3.3-4.1-3.7c-1.6-0.2-4.3,0-6.3,0.6
							c-2.3,0.8-4.9,4.1-5.9,4.9c-1,1-3.5,3.5-2,5.5c0.6,0.8,1.4,2,3.5,2c2.3,0.2,3.3-1,3.9-0.8c0.8,0.4,2.5,1.6,5.5,1
							c2.3-0.4,3.5-1.2,4.1-1C14.8,31.7,17.2,32.5,19.1,31.3L19.1,31.3z"/>
						<path class="st22" d="M18.9,31.3c2-1,2.2-4.1,1.2-5.7c-1.6-2.6-3.7-2-5.1-2.6c-1-0.4-2.2-3.3-3.9-3.7
							c-1.8-0.4-4.5-0.2-6.5,0.4c-2.3,0.6-4.9,3.9-5.7,4.7c-1,0.8-3.7,3.3-2,5.3c0.6,0.6,1.2,1.8,3.5,2s3.1-1,3.9-0.8
							c0.8,0.4,2.5,1.6,5.5,1.2c2.3-0.4,3.7-1.4,4.1-1.2C14.8,31.3,17,32.3,18.9,31.3L18.9,31.3z"/>
						<path class="st23" d="M18.5,31.1c2-0.8,2.2-3.9,1.2-5.5c-1.6-2.6-3.7-2-5.1-2.6c-1-0.4-2.2-3.3-3.7-3.7
							c-1.6-0.2-4.3-0.2-6.3,0.4c-2.3,0.8-4.9,3.9-5.5,4.5C-1.6,25-4.6,27.6-3,29.5c0.4,0.6,1.2,1.8,3.5,1.8s3.1-1.2,3.7-1
							c0.8,0.4,2.5,1.6,5.5,1.2c2.3-0.4,3.7-1.4,4.1-1.2C14.6,30.9,16.6,32.1,18.5,31.1z"/>
					</g>
					<path class="st24" d="M16.6,22.5c-0.6,0-1,0-1.6,0.2c-0.6-3.1-3.3-5.7-6.9-5.9c-3.3-0.2-6.3,2-7.2,4.9l0,0
						c-2.7-0.2-5.1,2-5.3,4.7s2,5.3,4.9,5.3c1.4,0,2.7-0.4,3.7-1.4c1,0.6,2.2,1,3.3,1c2.2,0.2,4.1-0.8,5.5-2.2
						c0.8,1,1.8,1.6,3.1,1.6c2.3,0.2,4.3-1.8,4.5-3.9S18.9,22.5,16.6,22.5z"/>
				</g>
			</g>
		</g>
	</g>
</g>
<g>
	<g>
		<g>
			<path class="st2" d="M45,40.7c3.1-3,2.6-11.9,1-14.3c-2.1-3.2-4.3-5-6.4-6.1c-1.9-1.1-7.4-2-10-2c-3.5,0-6.9,0.9-9.7,1.7
				c-3.1,1.1-9.2,3.5-12,6.9c-3.3,3.9-0.3,11.7,0.5,12.8c1.6,2.2,3.5,4.3,5.9,5.6c2.3,1.1,4.3,1.1,6.1,1.3c1.4,0.2,7.1,0.7,10.6,0
				c2.4-0.6,6.6-1.3,7.6-2C39.6,43.8,42.4,43.1,45,40.7z"/>
			<path class="st47" d="M44.5,40.5c3.1-2.8,2.6-11.5,1-14c-2.1-3.2-4.3-5-6.2-6c-1.9-1.1-7.1-1.9-9.7-2c-3.5,0-6.8,0.9-9.7,1.7
				c-3.1,0.9-9,3.2-11.8,6.5c-3.3,3.7-0.5,11.4,0.5,12.7c1.6,2,3.3,4.1,5.7,5.4c2.3,1.1,4.3,1.1,5.9,1.1c1.2,0.2,6.9,0.9,10.4,0.2
				c2.4-0.6,6.4-1.5,7.4-2C39.3,43.3,41.9,42.7,44.5,40.5z"/>
			<path class="st48" d="M43.9,40.1c3.1-2.8,2.6-11.2,1-13.6c-2.1-3.2-4.3-4.8-6.2-6c-1.9-0.9-6.9-1.9-9.4-2c-3.3,0-6.8,0.7-9.5,1.7
				c-3.1,0.9-8.8,3.3-11.6,6.5c-3.1,3.7-0.5,11,0.3,12.3c1.6,2,3.3,4.1,5.7,5.2c2.3,1.1,4.2,0.9,5.9,1.1c1.2,0.2,6.8,0.9,10,0.2
				c2.4-0.6,6.2-1.5,7.3-2C38.7,42.9,41.3,42.3,43.9,40.1z"/>
			<path class="st49" d="M43.4,39.9c3.1-2.6,2.6-10.8,1-13.2c-2.1-3.2-4.3-4.8-6.1-5.8c-1.9-0.9-6.6-1.9-9-2c-3.3,0-6.6,0.7-9.4,1.5
				c-3.1,0.9-9,3.3-11.6,6.3c-2.9,3.5-0.7,10.6,0.3,11.9c1.4,1.9,3.1,3.9,5.5,5.2c2.3,1.1,4.2,0.9,5.7,1.1c1.2,0.2,6.4,1.1,9.9,0.4
				c2.4-0.6,6.1-1.5,7.1-2C38.2,42.5,40.8,42,43.4,39.9z"/>
			<path class="st50" d="M42.9,39.6c2.9-2.6,2.6-10.4,1-12.8c-1.9-3.2-4.2-4.7-6.1-5.6c-1.7-0.9-6.4-1.9-8.7-2
				c-3.1-0.2-6.6,0.7-9.2,1.5c-2.9,0.9-8.7,3.2-11.1,6.1C6,30.1,8.2,36.9,9.3,38.4c1.4,1.9,2.9,3.9,5.4,5c2.3,1.1,4.2,0.7,5.5,0.9
				c1.2,0.2,6.2,1.1,9.7,0.4c2.4-0.6,6.1-1.7,6.9-2.2C37.9,42.2,40.5,41.6,42.9,39.6z"/>
			<path class="st51" d="M42.4,39.2c2.9-2.4,2.6-9.9,1-12.5c-1.9-3.2-4.2-4.7-6.1-5.6c-1.7-0.9-6.1-1.9-8.5-2
				c-3.1-0.2-6.4,0.6-9.2,1.5c-2.9,0.9-8.7,3.2-10.9,6C6,29.7,8.1,36.4,9.1,37.9c1.4,1.9,2.8,3.9,5.2,4.8c2.3,0.9,4,0.7,5.5,0.9
				c1.2,0.2,6.1,1.3,9.5,0.6c2.4-0.6,5.9-1.7,6.9-2.2C37.4,41.6,40,41.2,42.4,39.2z"/>
			<path class="st52" d="M41.9,39c2.9-2.4,2.6-9.5,1-12.1c-1.9-3.2-4.2-4.5-5.9-5.4s-5.7-1.9-8.1-2c-2.9-0.2-6.2,0.6-9,1.3
				c-2.9,0.9-8.5,3.3-10.7,6c-2.6,3-0.9,9.7,0.3,11.2c1.4,1.7,2.6,3.7,5,4.8c2.1,0.9,4,0.6,5.4,0.9c1.2,0.2,5.9,1.3,9.2,0.7
				c2.6-0.6,5.7-1.7,6.8-2.2C36.8,41.2,39.4,40.9,41.9,39z"/>
			<path class="st53" d="M41.3,38.6c2.9-2.2,2.6-9.1,1-11.7c-1.9-3.2-4-4.5-5.9-5.4c-1.7-0.9-5.5-1.9-7.8-2
				c-2.9-0.2-6.2,0.6-8.8,1.3c-2.8,0.9-8.3,3.3-10.6,6c-2.6,3-0.9,9.3,0.3,10.8c1.2,1.7,2.4,3.7,4.9,4.7c2.1,0.9,4,0.6,5.4,0.7
				c1.2,0.2,5.5,1.5,9,0.7c2.6-0.6,5.5-1.9,6.6-2.2C36.5,40.9,38.9,40.5,41.3,38.6z"/>
			<path class="st54" d="M40.8,38.4c2.8-2.2,2.6-8.7,1.2-11.4c-1.9-3.2-4-4.3-5.7-5.2c-1.6-0.9-5.2-1.7-7.4-1.9
				c-2.8-0.2-6.1,0.4-8.8,1.3c-2.9,0.9-8.3,3.2-10.4,5.6c-2.4,2.8-1,8.9,0.3,10.6c1.2,1.7,2.3,3.5,4.7,4.7c2.1,0.9,3.8,0.6,5.2,0.7
				c1.2,0.2,5.4,1.5,8.8,0.9c2.6-0.6,5.4-1.9,6.4-2.4C36,40.3,38.4,40.3,40.8,38.4z"/>
			<path class="st55" d="M40.3,38.1c2.8-2,2.6-8.4,1.2-11c-1.7-3.2-4-4.1-5.7-5c-1.6-0.7-4.9-1.7-7.1-1.9c-2.8-0.2-6.1,0.4-8.7,1.1
				c-2.9,0.9-8.3,3.3-10.2,5.6c-2.3,2.6-1,8.6,0.3,10.2c1.2,1.5,2.1,3.5,4.7,4.5c2.1,0.9,3.8,0.4,5,0.6c1.2,0.2,5.2,1.7,8.7,0.9
				c2.6-0.6,5.4-1.9,6.2-2.4C35.4,39.9,37.9,39.9,40.3,38.1z"/>
			<path class="st56" d="M39.8,37.7c2.8-2,2.6-8,1.2-10.6c-1.7-3.2-3.8-4.1-5.5-5c-1.6-0.7-4.7-1.7-6.8-1.9
				c-2.6-0.4-5.9,0.4-8.5,1.1c-3.1,0.7-8.3,3.2-10.2,5.4c-2.3,2.4-1,8.2,0.2,9.9c1,1.5,1.9,3.3,4.5,4.3c2.1,0.7,3.8,0.4,5,0.6
				c1.2,0.2,5,1.7,8.3,1.1c2.6-0.6,5.2-2,6.1-2.4C34.9,39.6,37.4,39.6,39.8,37.7z"/>
			<path class="st57" d="M39.3,37.5c2.8-1.9,2.6-7.6,1.2-10.2c-1.7-3.2-3.8-3.9-5.5-4.8c-1.6-0.7-4.3-1.7-6.6-1.9
				c-2.6-0.4-5.9,0.2-8.3,0.9c-2.8,0.7-8.1,3.2-9.9,5.2c-2.1,2.4-1.2,7.8,0.2,9.7c1,1.3,1.9,3.3,4.3,4.3c2.1,0.7,3.6,0.2,4.9,0.6
				c1,0.2,4.7,1.9,8.1,1.1c2.6-0.6,5-2,5.9-2.6C34.6,39,36.8,39.2,39.3,37.5z"/>
			<path class="st58" d="M38.7,37.1c2.6-1.9,2.6-7.3,1.2-9.9c-1.7-3.3-3.8-3.9-5.5-4.8c-1.4-0.7-4-1.7-6.2-1.9
				c-2.4-0.4-5.7,0.2-8.3,0.9c-2.6,0.9-7.8,3.2-9.5,5.2c-1.9,2.2-1.2,7.4,0.2,9.3c1,1.3,1.7,3.2,4.2,4.1c2.1,0.7,3.6,0.2,4.7,0.4
				c1,0.2,4.5,1.9,8,1.3c2.6-0.6,4.9-2,5.7-2.6C34.1,38.6,36.3,38.8,38.7,37.1z"/>
			<path class="st59" d="M38.2,36.9c2.6-1.7,2.6-6.9,1.2-9.7c-1.6-3.3-3.6-3.7-5.4-4.7c-1.4-0.7-3.8-1.7-5.9-1.9
				c-2.4-0.4-5.5,0.2-8.1,0.9c-2.8,0.7-8,3.2-9.5,4.8c-1.9,2-1.4,7.1,0.2,9.1c1,1.3,1.6,3.2,4,3.9c1.9,0.7,3.6,0.2,4.7,0.4
				c1,0.2,4.3,2,7.6,1.3c2.6-0.6,4.7-2.2,5.5-2.6C33.5,38.3,36,38.4,38.2,36.9z"/>
			<path class="st60" d="M37.7,36.6c2.6-1.7,2.6-6.5,1.2-9.3c-1.6-3.3-3.6-3.7-5.4-4.5c-1.4-0.7-3.5-1.7-5.5-1.9
				c-2.3-0.4-5.5,0-8,0.7c-2.8,0.9-7.8,3.3-9.4,4.8c-1.7,1.9-1.4,6.7,0.2,8.7c0.9,1.1,1.4,3,3.8,3.9c1.9,0.7,3.5,0,4.5,0.4
				s4,2,7.4,1.5c2.6-0.6,4.7-2.2,5.4-2.6C33.2,37.7,35.4,38.1,37.7,36.6z"/>
			<path class="st61" d="M37.2,36.4c2.4-1.5,2.6-6.1,1.2-8.9c-1.6-3.3-3.6-3.5-5.2-4.5c-1.4-0.7-3.1-1.5-5.2-1.9
				c-2.3-0.4-5.4,0-7.8,0.7c-2.8,0.9-7.8,3.3-9,4.8c-1.6,1.7-1.6,6.3,0.2,8.6c0.9,1.1,1.2,3,3.6,3.7c1.9,0.6,3.5,0,4.5,0.2
				c1,0.4,3.8,2.2,7.3,1.7c2.6-0.6,4.5-2.2,5.2-2.8C32.7,37.3,34.9,37.7,37.2,36.4z"/>
			<path class="st62" d="M36.7,36c2.4-1.5,2.6-5.6,1.2-8.6c-1.6-3.3-3.5-3.5-5.2-4.3c-1.2-0.6-2.9-1.5-5-1.9c-2.1-0.4-5.4,0-7.8,0.7
				c-2.8,0.9-7.6,3.3-8.8,4.7c-1.4,1.7-1.6,6,0.2,8.2c0.9,1.1,1,2.8,3.6,3.5c1.9,0.6,3.5-0.2,4.3,0.2c1,0.4,3.6,2.2,7.1,1.7
				c2.6-0.6,4.3-2.4,5-2.8C32.2,36.9,34.4,37.3,36.7,36z"/>
			<path class="st63" d="M36.1,35.6c2.4-1.3,2.6-5.2,1.4-8.2c-1.6-3.3-3.5-3.3-5-4.1c-1.2-0.6-2.6-1.5-4.7-1.9s-5.2-0.2-7.6,0.6
				c-2.8,0.9-7.6,3.3-8.7,4.5c-1.4,1.5-1.6,5.8,0.2,7.8c0.7,0.9,0.9,2.8,3.5,3.5c1.9,0.6,3.5-0.2,4.2,0.2c1,0.4,3.5,2.4,6.8,1.9
				c2.6-0.4,4.2-2.4,4.9-2.8C31.8,36.6,33.9,36.9,36.1,35.6z"/>
			<path class="st64" d="M35.6,35.5c2.4-1.3,2.6-4.8,1.4-7.8c-1.4-3.3-3.5-3.3-5-4.1c-1.2-0.6-2.3-1.5-4.3-1.9
				c-1.9-0.4-5.2-0.2-7.4,0.6c-2.6,0.9-7.4,3.3-8.5,4.5c-1.2,1.3-1.7,5.4,0,7.6c0.7,0.9,0.7,2.6,3.3,3.3c1.9,0.6,3.3-0.2,4.2,0
				c1,0.4,3.1,2.4,6.6,1.9c2.8-0.4,4-2.6,4.7-2.8C31.3,36,33.4,36.6,35.6,35.5z"/>
			<path class="st65" d="M35.1,35.1c2.3-1.3,2.6-4.5,1.4-7.4c-1.4-3.3-3.3-3.2-5-3.9c-1.2-0.6-2.1-1.5-4-1.9c-1.9-0.6-5-0.2-7.3,0.6
				c-2.6,0.9-7.4,3.3-8.3,4.3c-1,1.1-1.7,5,0,7.3c0.7,0.9,0.5,2.6,3.1,3.3c1.7,0.6,3.3-0.4,4,0c1,0.4,2.9,2.6,6.4,2
				c2.8-0.4,4-2.6,4.5-3C30.8,35.6,32.8,36.4,35.1,35.1z"/>
			<path class="st66" d="M34.6,34.9c2.3-1.1,2.6-4.1,1.4-7.1c-1.4-3.3-3.3-3.2-4.9-3.9c-1-0.6-1.7-1.3-3.6-1.9
				c-1.7-0.6-4.9-0.4-7.3,0.4c-2.6,0.9-7.3,3.3-8.1,4.1c-1,1.1-1.9,4.7,0,7.1c0.7,0.7,0.3,2.6,2.9,3.2c1.7,0.4,3.3-0.4,3.8-0.2
				c0.9,0.4,2.8,2.6,6.2,2c2.8-0.4,3.8-2.6,4.3-3C30.4,35.3,32.3,36,34.6,34.9z"/>
			<path class="st23" d="M34.1,34.5c2.3-1.1,2.6-3.7,1.4-6.7c-1.4-3.3-3.3-3-4.9-3.7c-1-0.6-1.6-1.3-3.5-1.9
				c-1.7-0.6-4.9-0.4-7.1,0.4c-2.6,0.9-7.3,3.3-8,4.1c-0.9,0.9-1.9,4.3,0,6.7c0.5,0.7,0.3,2.4,2.8,3c1.7,0.4,3.1-0.6,3.8-0.2
				c0.9,0.4,2.6,2.8,5.9,2.2c2.8-0.4,3.6-2.8,4.2-3C29.9,34.7,32,35.6,34.1,34.5z"/>
		</g>
		<path class="st67" d="M31.1,23.4c-0.2,0-0.2,0-0.3,0c-0.7-1.9-2.4-3.3-4.3-3.3c-0.5,0-1.2,0.2-1.7,0.4c-0.7-1.9-2.3-3.2-4.2-3.2
			s-3.5,1.3-4.2,3c-0.2,0-0.5,0-0.7,0c-2.1,0-3.8,1.7-4,3.7c-0.3,0-0.5,0-0.9,0c-2.4,0-4.5,2.2-4.5,4.8s2.1,4.8,4.5,4.8
			c0,0,0,0,0.2,0c0.5,1.9,2.1,3.3,4,3.3c1.6,0,2.8-0.9,3.5-2.2c1,1.9,2.8,3,4.9,3c2.3,0,4.3-1.5,5.2-3.5c0.9,0.6,1.7,0.7,2.6,0.7
			c2.9,0,5.4-2.6,5.4-5.8C36.5,26,34.1,23.4,31.1,23.4z"/>
		<path class="st68" d="M31.3,23.6c-0.2,0-0.2,0-0.3,0c-0.7-1.9-2.4-3.3-4.3-3.3c-0.5,0-1.2,0.2-1.7,0.4c-0.7-1.9-2.3-3.2-4.2-3.2
			c-1.9,0-3.5,1.3-4.2,3c-0.2,0-0.5,0-0.7,0c-2.1,0-3.8,1.7-4,3.7c-0.3,0-0.5-0.2-0.9-0.2c-2.4,0-4.5,2.2-4.5,4.8s2.1,4.8,4.5,4.8
			c0,0,0,0,0.2,0c0.5,1.9,2.1,3.3,4,3.3c1.6,0,2.8-0.9,3.5-2.2c1,1.9,2.8,3,4.9,3c2.3,0,4.3-1.5,5.2-3.5c0.9,0.6,1.7,0.7,2.6,0.7
			c2.9,0,5.4-2.6,5.4-5.8C36.7,26.2,34.2,23.6,31.3,23.6z"/>
	</g>
	<g>
		<g>
			<path class="st2" d="M29.6,31.9c1.7-2.8,0.9-8.2-0.3-10c-1.7-2.4-4.2-2.8-5.7-3.5s-4.3-3-6.2-3c-2.8,0-4.2,1.1-6.2,1.7
				c-2.4,0.7-6.4,4.7-8.7,7.3c-2.6,3-1.9,7.6-1.2,8.4c1.2,1.7,2.8,3.3,4.5,4.3c1.9,0.9,3.5,0.9,4.7,0.9c1,0,2.3,0.6,4.9,0
				c1.9-0.4,2.8-0.6,3.6-0.9C20.9,36.4,27.5,35.5,29.6,31.9z"/>
			<path class="st47" d="M29.2,31.9c1.7-2.8,1-8-0.3-9.9c-1.6-2.4-4.2-2.8-5.7-3.5c-1.4-0.7-4.2-3-6.1-3c-2.6,0-4,0.9-6.2,1.7
				c-2.3,0.6-6.2,4.5-8.3,7.1c-2.4,3-1.9,7.4-1.2,8.4c1.2,1.7,2.6,3.2,4.5,4.1c1.7,0.9,3.3,0.7,4.7,0.9c1,0,2.3,0.7,4.9,0
				c1.9-0.4,2.8-0.6,3.6-0.9C20.9,36,27.1,35.3,29.2,31.9z"/>
			<path class="st48" d="M28.9,31.7c1.7-2.6,1-7.8-0.2-9.5c-1.6-2.4-4.2-2.6-5.5-3.5c-1.6-0.7-4.2-3-6.1-3c-2.6-0.2-4,0.9-6.2,1.5
				c-2.3,0.7-6.1,4.5-8.1,6.9c-2.4,2.8-2.1,7.1-1.4,8.2c1.2,1.5,2.6,3.2,4.5,4.1c1.7,0.7,3.3,0.7,4.5,0.7c1,0.2,2.3,0.7,4.9,0.2
				c1.9-0.4,2.8-0.6,3.6-0.9C20.7,35.8,26.8,34.9,28.9,31.7z"/>
			<path class="st49" d="M28.5,31.7c1.7-2.6,1-7.6-0.2-9.3c-1.6-2.4-4.2-2.6-5.5-3.3c-1.4-0.7-4-3-5.9-3.2c-2.4-0.2-4,0.7-6.1,1.5
				c-2.3,0.6-6.1,4.5-8,6.7c-2.3,2.6-2.1,6.9-1.4,8c1,1.5,2.4,3,4.3,3.9c1.9,0.7,3.3,0.6,4.5,0.7c1,0.2,2.3,0.7,4.9,0.2
				c1.9-0.4,2.8-0.7,3.6-0.9C20.7,35.5,26.4,34.7,28.5,31.7z"/>
			<path class="st50" d="M28.2,31.6c1.7-2.4,1-7.3,0-9.1c-1.6-2.4-4-2.6-5.5-3.3c-1.4-0.7-4-3-5.7-3.2c-2.4,0-4,0.9-6.1,1.5
				C8.6,18.2,5,21.9,3,24.1c-2.3,2.6-2.3,6.7-1.4,7.8c1,1.5,2.4,3,4.3,3.7c1.9,0.7,3.3,0.6,4.3,0.6c1,0.2,2.3,0.7,4.9,0.2
				c1.9-0.4,2.8-0.7,3.6-0.9C20.5,35.1,26.1,34.5,28.2,31.6z"/>
			<path class="st51" d="M27.8,31.4c1.7-2.4,1.2-7.1,0-8.9c-1.6-2.2-4-2.4-5.4-3.2c-1.4-0.7-3.8-3-5.5-3.2c-2.4,0-4.2,0.7-6.2,1.5
				c-2.3,0.7-5.9,4.5-7.6,6.5c-2.1,2.4-2.3,6.5-1.4,7.6c1,1.3,2.3,3,4.2,3.7s3.3,0.4,4.3,0.6c0.9,0.2,2.3,0.7,4.9,0.2
				c1.9-0.4,2.9-0.7,3.6-0.9C20.5,34.7,25.7,34.3,27.8,31.4z"/>
			<path class="st52" d="M27.5,31.4c1.7-2.2,1.2-6.9,0-8.6c-1.6-2.4-4-2.4-5.4-3.2c-1.4-0.7-3.6-3-5.5-3.2c-2.1-0.4-3.8,0.6-5.9,1.1
				c-2.3,0.7-5.7,4.5-7.4,6.3c-2.1,2.4-2.3,6.3-1.4,7.4c1,1.3,2.3,2.8,4.2,3.5c1.9,0.7,3.1,0.4,4.3,0.4c0.9,0.2,2.3,0.9,4.9,0.4
				c1.9-0.4,2.9-0.7,3.6-0.9C20.4,34.5,25.4,34,27.5,31.4z"/>
			<path class="st53" d="M27.1,31.2c1.7-2.2,1.2-6.7,0.2-8.4c-1.6-2.4-4-2.4-5.4-3.2c-1.2-0.7-3.5-3-5.4-3.2
				c-2.1-0.2-3.8,0.6-5.9,1.3c-2.3,0.6-5.7,4.3-7.3,6.1c-1.9,2.2-2.4,6-1.4,7.3c1,1.3,2.1,2.8,4,3.3s3.1,0.2,4.2,0.4
				c0.9,0.2,2.3,0.9,4.9,0.4c1.9-0.4,2.9-0.7,3.6-0.9C20.2,34.2,25.1,33.8,27.1,31.2z"/>
			<path class="st54" d="M26.8,31.2c1.7-2,1.2-6.5,0.2-8.2c-1.6-2.4-3.8-2.4-5.4-3.2c-1.2-0.6-3.5-3-5.2-3.2
				c-1.9-0.2-3.8,0.6-5.7,1.1c-2.3,0.7-5.5,4.3-7.3,6.1C1.5,26,1,29.7,1.8,31c0.9,1.3,2.1,2.6,4,3.3c1.9,0.6,3.1,0.2,4.2,0.4
				c0.9,0.2,2.3,0.9,4.9,0.4c1.9-0.4,2.9-0.9,3.6-0.9C20.2,33.8,24.9,33.6,26.8,31.2z"/>
			<path class="st55" d="M26.4,31c1.7-2,1.4-6.3,0.3-8c-1.6-2.4-3.8-2.4-5.2-3.2c-1.2-0.6-3.3-3-5-3.2c-2.1,0-4,0.6-6.1,1.3
				c-2.3,0.7-5.4,4.3-6.9,6c-1.7,2-2.4,5.6-1.6,6.9c0.9,1.1,1.9,2.6,4,3.2c1.9,0.6,3.1,0,4.2,0.2c0.9,0.2,2.3,0.9,4.9,0.6
				c1.9-0.4,2.9-0.9,3.6-0.9C20,33.4,24.5,33.4,26.4,31z"/>
			<path class="st56" d="M26.1,31c1.7-1.9,1.4-6.1,0.3-7.6c-1.6-2.4-3.8-2.2-5.2-3c-1.2-0.6-3.1-3-4.9-3.2c-2.1-0.6-3.8,0.2-5.9,0.7
				c-2.3,0.7-5.4,4.3-6.8,6c-1.7,1.9-2.6,5.4-1.6,6.7c0.9,1.1,1.9,2.6,3.8,3c1.9,0.6,3.1,0,4,0.2c0.9,0.2,2.3,1.1,4.9,0.6
				c1.9-0.4,2.9-0.9,3.6-0.9C20,33.2,24.2,33.2,26.1,31z"/>
			<path class="st57" d="M25.7,30.8c1.7-1.9,1.4-5.8,0.3-7.4c-1.6-2.4-3.8-2.2-5.2-3c-1-0.6-2.9-3-4.5-3.2c-2.1-0.4-4,0.2-5.9,0.9
				c-2.3,0.7-5.2,4.1-6.6,5.8c-1.6,1.9-2.6,5.2-1.6,6.5c0.9,1.1,1.9,2.4,3.8,3s3.1-0.2,4,0c0.9,0.2,2.3,1.1,4.9,0.6
				c2.1-0.4,2.9-0.9,3.6-0.9C19.9,32.9,23.8,32.9,25.7,30.8z"/>
			<path class="st58" d="M25.4,30.8c1.7-1.7,1.4-5.6,0.5-7.3c-1.4-2.4-3.6-2.2-5-3c-1.2-0.6-2.9-3.2-4.7-3.3
				c-1.9-0.2-3.8,0.4-5.7,0.9c-2.3,0.7-5.2,4.1-6.4,5.6c-1.6,1.7-2.8,5-1.6,6.3c0.9,0.9,1.7,2.4,3.6,2.8s3.1-0.2,3.8,0
				c0.9,0.2,2.3,1.1,4.9,0.6c2.1-0.4,2.9-0.9,3.6-0.9C19.9,32.5,23.5,32.7,25.4,30.8z"/>
			<path class="st59" d="M25.1,30.6c1.7-1.7,1.6-5.4,0.5-7.1c-1.4-2.4-3.6-2-5-2.8c-1-0.6-2.8-3-4.3-3.3c-1.9-0.2-4,0.4-5.9,0.9
				c-2.1,0.7-5,4.1-6.2,5.4c-1.4,1.5-2.8,4.7-1.6,6.1c0.7,0.9,1.7,2.2,3.6,2.6c1.9,0.4,2.9-0.4,3.8-0.2c0.9,0.2,2.3,1.1,4.9,0.7
				c2.1-0.4,3.1-0.9,3.6-0.9C19.7,32.3,23.1,32.5,25.1,30.6z"/>
			<path class="st60" d="M24.7,30.6c1.7-1.5,1.6-5.2,0.7-6.7c-1.4-2.4-3.6-2.2-5-2.8c-1-0.6-2.8-3.2-4.3-3.3c-1.7-0.4-3.8,0-5.7,0.6
				c-2.1,0.7-5,4.1-6.1,5.4c-1.4,1.5-2.8,4.5-1.6,6c0.7,0.9,1.6,2.2,3.5,2.6c1.9,0.4,2.9-0.4,3.8-0.2c0.9,0.2,2.1,1.1,4.9,0.7
				c2.1-0.4,3.1-1.1,3.6-0.9C19.7,31.9,22.8,32.3,24.7,30.6z"/>
			<path class="st61" d="M24.4,30.4c1.7-1.5,1.6-5,0.7-6.5c-1.4-2.4-3.6-2-4.9-2.8c-1-0.6-2.6-3.2-4.2-3.3c-1.7-0.4-3.8,0.2-5.7,0.7
				c-2.1,0.7-4.9,4.1-5.9,5.2c-1.2,1.3-2.9,4.3-1.7,6c0.7,0.9,1.6,2,3.5,2.4c1.9,0.4,2.9-0.6,3.6-0.4c0.9,0.2,2.3,1.3,4.9,0.7
				c2.1-0.4,3.1-1.1,3.6-0.9C19.5,31.6,22.5,31.9,24.4,30.4z"/>
			<path class="st62" d="M24,30.4c1.7-1.3,1.7-4.8,0.7-6.3c-1.4-2.4-3.6-2-4.9-2.6c-0.9-0.6-2.4-3.2-4-3.5s-3.8,0-5.5,0.6
				c-2.3,0.7-4.9,4.1-5.7,5c-1.2,1.3-2.9,4.1-1.7,5.8c0.7,0.7,1.4,2,3.5,2.2c2.1,0.2,2.9-0.6,3.6-0.4c0.9,0.2,2.3,1.3,4.9,0.7
				c2.1-0.4,3.1-1.1,3.6-0.9C19.3,31.2,22.3,31.7,24,30.4z"/>
			<path class="st63" d="M23.7,30.2c1.7-1.3,1.7-4.7,0.9-6.1c-1.4-2.4-3.5-2-4.9-2.6c-0.9-0.4-2.3-3-3.8-3.3s-3.8,0-5.7,0.6
				c-2.1,0.6-4.5,3.9-5.5,4.8c-1,1.1-3.1,3.9-1.7,5.6c0.5,0.7,1.4,2,3.3,2.2c2.1,0.2,2.9-0.7,3.6-0.6c0.7,0.2,2.3,1.3,4.9,0.9
				c2.1-0.4,3.1-1.1,3.6-0.9C19.3,31,21.9,31.6,23.7,30.2z"/>
			<path class="st64" d="M23.3,30.2c1.7-1.1,1.7-4.3,0.9-6c-1.4-2.4-3.5-2-4.7-2.6c-0.9-0.4-2.3-3-3.8-3.3c-1.4-0.4-3.6-0.2-5.5,0.4
				c-2.1,0.7-4.5,3.9-5.4,4.8c-1,0.9-3.1,3.5-1.7,5.4c0.5,0.7,1.2,1.9,3.3,2c2.1,0.2,2.9-0.7,3.5-0.6c0.7,0.4,2.3,1.3,4.9,0.9
				c2.1-0.4,3.1-1.1,3.6-0.9C19.2,30.6,21.6,31.4,23.3,30.2z"/>
			<path class="st65" d="M23,30.1c1.7-0.9,1.7-4.1,1-5.6c-1.4-2.4-3.5-1.9-4.7-2.4c-0.9-0.6-2.1-3.2-3.6-3.5
				c-1.4-0.4-3.8-0.2-5.5,0.4c-2.1,0.7-4.5,3.9-5.2,4.7c-0.9,0.9-3.1,3.3-1.7,5.2c0.5,0.7,1.2,1.9,3.1,1.9c2.1,0.2,2.9-0.9,3.5-0.7
				c0.7,0.4,2.3,1.5,4.9,0.9c2.1-0.4,3.1-1.1,3.6-0.9C19.2,30.2,21.2,31.2,23,30.1z"/>
			<path class="st66" d="M22.6,29.9c1.7-0.9,1.9-3.9,1-5.4c-1.4-2.4-3.5-1.9-4.7-2.4c-0.9-0.4-1.9-3.2-3.5-3.5
				c-1.2-0.4-3.6-0.2-5.4,0.4c-2.1,0.7-4.3,3.7-5,4.5c-0.7,0.7-3.3,3.2-1.7,5c0.5,0.6,1,1.7,3.1,1.9c2.1,0,2.8-0.9,3.5-0.7
				c0.7,0.4,2.3,1.5,4.9,1.1c2.1-0.4,3.1-1.3,3.6-0.9C19,29.9,20.9,30.8,22.6,29.9z"/>
			<path class="st23" d="M22.3,29.9c1.7-0.7,1.9-3.7,1-5.2c-1.4-2.4-3.3-1.9-4.5-2.4c-0.9-0.4-1.9-3-3.3-3.5
				c-1.2-0.4-3.8-0.2-5.5,0.4c-2.1,0.7-4.2,3.7-4.9,4.3c-0.7,0.7-3.3,3-1.9,4.8c0.5,0.6,1,1.7,2.9,1.7c2.1,0,2.8-1.1,3.3-0.9
				c0.7,0.4,2.3,1.5,4.9,1.1c2.1-0.4,3.3-1.3,3.6-1.1C19,29.7,20.5,30.6,22.3,29.9z"/>
		</g>
		<path class="st67" d="M20.7,21.5c-0.5,0-0.9,0-1.4,0.2c-0.5-3-2.9-5.4-6.1-5.6c-2.9-0.2-5.5,1.9-6.4,4.7l0,0
			c-2.4-0.2-4.5,1.9-4.7,4.7c-0.2,2.6,1.7,4.8,4.3,5c1.2,0,2.4-0.4,3.3-1.3c0.9,0.6,1.9,0.9,2.9,0.9c1.9,0.2,3.6-0.7,4.9-2
			c0.7,0.9,1.6,1.5,2.8,1.5c2.1,0.2,3.8-1.7,4-3.7C24.4,23.6,22.8,21.7,20.7,21.5z"/>
	</g>
</g>
</svg>
