<?xml version="1.0" encoding="utf-8"?>
<!-- Generator: Adobe Illustrator 27.0.1, SVG Export Plug-In . SVG Version: 6.00 Build 0)  -->
<svg version="1.1" id="Ebene_1" xmlns="http://www.w3.org/2000/svg" xmlns:xlink="http://www.w3.org/1999/xlink" x="0px" y="0px"
	 viewBox="0 0 26.9 16.9" style="enable-background:new 0 0 26.9 16.9;" xml:space="preserve">
<style type="text/css">
	.st0{opacity:0;fill:#FFFFFF;}
	.st1{opacity:4.761905e-02;fill:#F9FBFB;}
	.st2{opacity:9.523810e-02;fill:#F4F6F8;}
	.st3{opacity:0.1429;fill:#EEF2F4;}
	.st4{opacity:0.1905;fill:#E9EDF1;}
	.st5{opacity:0.2381;fill:#E3E9ED;}
	.st6{opacity:0.2857;fill:#DEE5EA;}
	.st7{opacity:0.3333;fill:#D8E0E6;}
	.st8{opacity:0.381;fill:#D3DCE3;}
	.st9{opacity:0.4286;fill:#CDD8DF;}
	.st10{opacity:0.4762;fill:#C8D3DC;}
	.st11{opacity:0.5238;fill:#C2CFD8;}
	.st12{opacity:0.5714;fill:#BDCAD5;}
	.st13{opacity:0.619;fill:#B7C6D1;}
	.st14{opacity:0.6667;fill:#B2C2CE;}
	.st15{opacity:0.7143;fill:#ACBDCA;}
	.st16{opacity:0.7619;fill:#A7B9C7;}
	.st17{opacity:0.8095;fill:#A1B5C3;}
	.st18{opacity:0.8571;fill:#9CB0C0;}
	.st19{opacity:0.9048;fill:#96ACBC;}
	.st20{opacity:0.9524;fill:#91A7B9;}
	.st21{fill:#8BA3B5;}
	.st22{fill:#FFFFFF;}
	.st23{fill:#E9F2F5;}
</style>
<g>
	<g>
		<g>
			<path class="st0" d="M25.6,13.6c1.8-1.6,1.5-6.5,0.6-7.8c-1.2-1.7-2.5-2.8-3.7-3.3c-1.1-0.6-4.3-1.1-5.7-1.1c-2,0-4,0.5-5.6,0.9
				C9.3,2.8,5.9,4.1,4.2,6C2.3,8.1,4,12.4,4.5,13c0.9,1.2,2,2.3,3.4,3c1.3,0.7,2.5,0.6,3.5,0.7c0.8,0.1,4.1,0.4,6.1,0
				c1.4-0.3,3.8-0.7,4.4-1.1C22.5,15.3,24.1,14.9,25.6,13.6z"/>
			<path class="st1" d="M25.3,13.5c1.8-1.5,1.5-6.3,0.6-7.6c-1.2-1.7-2.5-2.7-3.6-3.3c-1.1-0.6-4.1-1.1-5.6-1.1
				c-2,0-3.9,0.5-5.6,0.9C9.4,2.9,5.9,4.2,4.3,6C2.5,8,4.1,12.2,4.6,12.8c0.9,1.1,1.9,2.3,3.3,2.9c1.3,0.6,2.5,0.6,3.4,0.7
				c0.7,0.1,4,0.5,6,0.1c1.4-0.3,3.7-0.8,4.3-1.1C22.3,15.1,23.8,14.7,25.3,13.5z"/>
			<path class="st2" d="M25,13.3c1.8-1.5,1.5-6.1,0.6-7.4c-1.2-1.7-2.5-2.7-3.6-3.2c-1.1-0.5-4-1-5.4-1.1c-1.9,0-3.9,0.4-5.5,0.9
				C9.4,3,6,4.3,4.5,6c-1.8,2-0.3,6,0.2,6.7c0.9,1.1,1.9,2.2,3.3,2.9c1.3,0.6,2.4,0.5,3.4,0.6c0.7,0.1,3.9,0.5,5.8,0.1
				c1.4-0.3,3.6-0.8,4.2-1.1C22,14.8,23.5,14.5,25,13.3z"/>
			<path class="st3" d="M24.7,13.2c1.8-1.4,1.5-5.9,0.6-7.2c-1.2-1.7-2.4-2.6-3.5-3.2c-1.1-0.5-3.8-1-5.2-1.1
				c-1.9-0.1-3.8,0.4-5.4,0.8C9.4,3,6.1,4.3,4.6,6c-1.7,1.9-0.4,5.8,0.2,6.5c0.8,1.1,1.8,2.2,3.2,2.8c1.3,0.6,2.4,0.5,3.3,0.6
				C12,16,15,16.5,17,16.1c1.4-0.3,3.5-0.8,4.1-1.2C21.7,14.6,23.2,14.3,24.7,13.2z"/>
			<path class="st4" d="M24.4,13c1.7-1.4,1.5-5.6,0.6-7c-1.1-1.7-2.4-2.6-3.5-3.1c-1-0.5-3.6-1-5-1.1c-1.8-0.1-3.8,0.4-5.3,0.8
				C9.4,3.1,6.1,4.4,4.7,6c-1.7,1.8-0.4,5.6,0.2,6.4c0.8,1,1.7,2.1,3.1,2.8c1.3,0.6,2.4,0.4,3.2,0.5c0.7,0.1,3.6,0.6,5.6,0.2
				c1.4-0.3,3.4-0.9,4-1.2C21.5,14.4,23,14.1,24.4,13z"/>
			<path class="st5" d="M24.1,12.8c1.7-1.3,1.5-5.4,0.6-6.8c-1.1-1.7-2.4-2.5-3.5-3c-1-0.5-3.5-1-4.8-1.1c-1.8-0.1-3.7,0.3-5.3,0.8
				C9.4,3.2,6.2,4.5,4.8,6C3.2,7.7,4.4,11.4,5,12.2c0.8,1,1.6,2.1,3,2.7c1.3,0.5,2.3,0.4,3.2,0.5c0.7,0.1,3.5,0.7,5.5,0.3
				c1.4-0.3,3.4-0.9,3.9-1.2C21.2,14.1,22.7,13.9,24.1,12.8z"/>
			<path class="st6" d="M23.8,12.7c1.7-1.3,1.5-5.2,0.6-6.6c-1.1-1.8-2.4-2.4-3.4-3c-1-0.5-3.3-1-4.7-1.1c-1.7-0.1-3.7,0.3-5.2,0.7
				C9.5,3.2,6.2,4.5,4.9,6C3.4,7.6,4.5,11.2,5.1,12c0.8,0.9,1.5,2,2.9,2.6c1.2,0.5,2.3,0.4,3.1,0.5c0.7,0.1,3.4,0.7,5.3,0.4
				c1.4-0.3,3.3-0.9,3.8-1.2C20.9,13.9,22.4,13.7,23.8,12.7z"/>
			<path class="st7" d="M23.5,12.5c1.7-1.2,1.5-5,0.6-6.4c-1.1-1.8-2.3-2.4-3.4-2.9c-1-0.5-3.2-1-4.5-1.1c-1.7-0.1-3.6,0.3-5.1,0.7
				C9.5,3.3,6.3,4.6,5.1,6c-1.5,1.6-0.5,5,0.2,5.9c0.7,0.9,1.4,2,2.8,2.6c1.2,0.5,2.3,0.3,3.1,0.4c0.7,0.1,3.2,0.8,5.2,0.4
				c1.5-0.3,3.2-1,3.8-1.3C20.7,13.7,22.1,13.6,23.5,12.5z"/>
			<path class="st8" d="M23.2,12.4c1.6-1.2,1.5-4.8,0.7-6.2c-1.1-1.8-2.3-2.3-3.3-2.8c-0.9-0.5-3-1-4.3-1.1c-1.6-0.1-3.5,0.2-5,0.7
				C9.5,3.4,6.4,4.7,5.2,6c-1.4,1.5-0.6,4.8,0.2,5.7c0.7,0.9,1.3,1.9,2.7,2.5c1.2,0.5,2.2,0.3,3,0.4c0.7,0.1,3.1,0.8,5.1,0.5
				c1.5-0.3,3.1-1,3.7-1.3C20.4,13.4,21.8,13.4,23.2,12.4z"/>
			<path class="st9" d="M22.9,12.2c1.6-1.1,1.5-4.6,0.7-6c-1-1.8-2.3-2.3-3.3-2.8c-0.9-0.4-2.8-0.9-4.1-1.1c-1.6-0.1-3.5,0.2-5,0.6
				c-1.7,0.5-4.8,1.8-5.9,3C4,7.4,4.7,10.6,5.5,11.5c0.7,0.8,1.2,1.9,2.7,2.4c1.2,0.5,2.2,0.2,2.9,0.4c0.7,0.1,3,0.9,4.9,0.5
				c1.5-0.3,3.1-1.1,3.6-1.3C20.1,13.2,21.5,13.2,22.9,12.2z"/>
			<path class="st10" d="M22.6,12c1.6-1.1,1.5-4.4,0.7-5.8c-1-1.8-2.2-2.2-3.2-2.7c-0.9-0.4-2.7-0.9-3.9-1.1
				c-1.5-0.2-3.4,0.2-4.9,0.6C9.6,3.5,6.5,4.8,5.4,5.9c-1.3,1.4-0.6,4.5,0.1,5.4c0.6,0.8,1.1,1.8,2.6,2.4c1.2,0.4,2.2,0.2,2.9,0.3
				c0.7,0.1,2.8,0.9,4.8,0.6c1.5-0.3,3-1.1,3.5-1.3C19.9,13,21.2,13,22.6,12z"/>
			<path class="st11" d="M22.3,11.9c1.6-1,1.5-4.2,0.7-5.6c-1-1.8-2.2-2.2-3.2-2.7c-0.9-0.4-2.5-0.9-3.8-1.1
				c-1.5-0.2-3.4,0.1-4.8,0.6C9.6,3.6,6.6,4.9,5.5,5.9c-1.2,1.3-0.7,4.3,0.1,5.3C6.3,12,6.7,13,8.1,13.5c1.2,0.4,2.1,0.1,2.8,0.3
				c0.6,0.1,2.7,1,4.7,0.6c1.5-0.3,2.9-1.1,3.4-1.4C19.6,12.7,20.9,12.8,22.3,11.9z"/>
			<path class="st12" d="M22,11.7c1.5-1,1.5-3.9,0.7-5.4c-1-1.8-2.2-2.1-3.2-2.6c-0.8-0.4-2.3-0.9-3.6-1.1c-1.4-0.2-3.3,0.1-4.7,0.5
				C9.6,3.6,6.6,4.9,5.7,5.9C4.5,7.1,4.9,10,5.8,11c0.6,0.7,1,1.7,2.4,2.2c1.2,0.4,2.1,0.1,2.7,0.2c0.6,0.1,2.6,1,4.6,0.7
				c1.5-0.3,2.8-1.2,3.3-1.4C19.3,12.5,20.7,12.6,22,11.7z"/>
			<path class="st13" d="M21.7,11.5c1.5-0.9,1.5-3.7,0.7-5.2c-0.9-1.8-2.1-2.1-3.1-2.5c-0.8-0.4-2.2-0.9-3.4-1.1
				c-1.4-0.2-3.2,0.1-4.7,0.5C9.6,3.7,6.7,5,5.8,5.9c-1,1.1-0.8,3.9,0.1,4.9c0.6,0.7,0.9,1.7,2.3,2.2c1.1,0.4,2.1,0.1,2.7,0.2
				c0.6,0.1,2.5,1.1,4.4,0.8c1.5-0.3,2.7-1.2,3.2-1.4C19.1,12.3,20.4,12.4,21.7,11.5z"/>
			<path class="st14" d="M21.4,11.4c1.5-0.9,1.5-3.5,0.7-5c-0.9-1.8-2.1-2-3.1-2.5c-0.8-0.4-2-0.9-3.2-1.1c-1.3-0.2-3.2,0-4.6,0.4
				C9.7,3.7,6.7,5.1,5.9,5.9c-1,1-0.8,3.7,0.1,4.8c0.5,0.6,0.8,1.7,2.2,2.1c1.1,0.4,2,0,2.6,0.2c0.6,0.2,2.3,1.2,4.3,0.8
				c1.5-0.3,2.7-1.2,3.1-1.5C18.8,12,20.1,12.2,21.4,11.4z"/>
			<path class="st15" d="M21.1,11.2c1.4-0.8,1.5-3.3,0.7-4.8c-0.9-1.8-2.1-2-3-2.4c-0.8-0.4-1.8-0.9-3-1.1c-1.3-0.2-3.1,0-4.5,0.4
				C9.7,3.8,6.8,5.1,6,5.9c-0.9,1-0.9,3.5,0.1,4.6c0.5,0.6,0.7,1.6,2.1,2c1.1,0.3,2,0,2.6,0.1c0.6,0.2,2.2,1.2,4.2,0.9
				c1.5-0.3,2.6-1.3,3-1.5C18.5,11.8,19.8,12,21.1,11.2z"/>
			<path class="st16" d="M20.8,11.1c1.4-0.8,1.5-3.1,0.7-4.6c-0.9-1.8-2-1.9-3-2.3c-0.7-0.3-1.7-0.8-2.9-1.1c-1.2-0.2-3.1,0-4.5,0.4
				C9.7,3.9,6.9,5.2,6.1,5.9c-0.8,0.9-0.9,3.3,0.1,4.5c0.5,0.6,0.6,1.6,2.1,2c1.1,0.3,2-0.1,2.5,0.1c0.6,0.2,2.1,1.3,4.1,0.9
				c1.5-0.3,2.5-1.3,2.9-1.5C18.2,11.6,19.5,11.8,20.8,11.1z"/>
			<path class="st17" d="M20.5,10.9c1.4-0.8,1.5-2.9,0.8-4.4c-0.9-1.8-2-1.8-2.9-2.3c-0.7-0.3-1.5-0.8-2.7-1.1
				c-1.2-0.2-3-0.1-4.4,0.3c-1.6,0.5-4.4,1.8-5,2.5C5.5,6.7,5.3,9,6.3,10.2c0.4,0.5,0.5,1.5,2,1.9c1.1,0.3,1.9-0.1,2.4,0.1
				c0.6,0.2,2,1.3,3.9,1c1.5-0.3,2.4-1.3,2.8-1.5C18,11.3,19.2,11.6,20.5,10.9z"/>
			<path class="st18" d="M20.2,10.7c1.4-0.7,1.5-2.7,0.8-4.2c-0.8-1.8-2-1.8-2.9-2.2c-0.7-0.3-1.3-0.8-2.5-1.1
				c-1.1-0.2-3-0.1-4.3,0.3C9.7,4,7,5.3,6.4,5.9c-0.7,0.7-1,2.9,0,4.1c0.4,0.5,0.4,1.5,1.9,1.8c1.1,0.3,1.9-0.1,2.4,0
				c0.6,0.2,1.8,1.4,3.8,1c1.6-0.3,2.3-1.4,2.7-1.6C17.7,11.1,18.9,11.4,20.2,10.7z"/>
			<path class="st19" d="M19.9,10.6c1.3-0.7,1.5-2.5,0.8-4.1c-0.8-1.8-1.9-1.7-2.9-2.2c-0.7-0.3-1.2-0.8-2.3-1.1
				c-1.1-0.3-2.9-0.1-4.2,0.3C9.8,4.1,7.1,5.4,6.5,5.9c-0.6,0.6-1,2.7,0,4c0.4,0.5,0.3,1.4,1.8,1.8c1,0.3,1.9-0.2,2.3,0
				c0.6,0.2,1.7,1.4,3.7,1.1c1.6-0.2,2.3-1.4,2.6-1.6C17.4,10.9,18.6,11.2,19.9,10.6z"/>
			<path class="st20" d="M19.6,10.4c1.3-0.6,1.5-2.2,0.8-3.9c-0.8-1.8-1.9-1.7-2.8-2.1c-0.6-0.3-1-0.8-2.1-1.1
				c-1-0.3-2.8-0.2-4.2,0.2C9.8,4.1,7.1,5.4,6.6,5.9C6,6.5,5.5,8.5,6.6,9.8c0.4,0.4,0.2,1.4,1.7,1.7c1,0.2,1.8-0.2,2.2-0.1
				c0.5,0.2,1.6,1.5,3.6,1.1c1.6-0.2,2.2-1.4,2.5-1.6C17.2,10.6,18.4,11,19.6,10.4z"/>
			<path class="st21" d="M19.3,10.3c1.3-0.6,1.5-2,0.8-3.7c-0.8-1.8-1.9-1.6-2.8-2c-0.6-0.3-0.9-0.7-2-1.1c-1-0.3-2.8-0.2-4.1,0.2
				C9.8,4.2,7.2,5.5,6.7,5.9c-0.5,0.5-1.1,2.3,0,3.7c0.3,0.4,0.2,1.3,1.6,1.7c1,0.2,1.8-0.3,2.2-0.1c0.5,0.2,1.5,1.5,3.4,1.2
				c1.6-0.2,2.1-1.5,2.4-1.7C16.9,10.4,18.1,10.8,19.3,10.3z"/>
		</g>
		<path class="st22" d="M17.6,4.2c-0.1,0-0.1,0-0.2,0c-0.4-1.1-1.4-1.8-2.5-1.8c-0.3,0-0.7,0.1-1,0.2c-0.4-1-1.3-1.7-2.4-1.7
			c-1.1,0-2,0.7-2.4,1.7c-0.1,0-0.3,0-0.4,0c-1.2,0-2.2,0.9-2.3,2.1c-0.2,0-0.3-0.1-0.5-0.1c-1.4,0-2.6,1.2-2.6,2.6
			c0,1.4,1.2,2.6,2.6,2.6c0,0,0,0,0.1,0c0.3,1.1,1.2,1.8,2.3,1.8c0.9,0,1.6-0.5,2-1.2c0.6,1,1.6,1.6,2.8,1.6c1.3,0,2.5-0.8,3-2
			c0.5,0.3,1,0.4,1.5,0.4c1.7,0,3.1-1.4,3.1-3.1C20.7,5.6,19.3,4.2,17.6,4.2z"/>
		<path class="st23" d="M17.7,4.3c-0.1,0-0.1,0-0.2,0c-0.4-1.1-1.4-1.8-2.5-1.8c-0.3,0-0.7,0.1-1,0.2c-0.4-1-1.3-1.7-2.4-1.7
			c-1.1,0-2,0.7-2.4,1.7c-0.1,0-0.3,0-0.4,0c-1.2,0-2.2,0.9-2.3,2.1C6.3,4.6,6.2,4.6,6,4.6c-1.4,0-2.6,1.2-2.6,2.6
			c0,1.4,1.2,2.6,2.6,2.6c0,0,0,0,0.1,0c0.3,1.1,1.2,1.8,2.3,1.8c0.9,0,1.6-0.5,2-1.2c0.6,1,1.6,1.6,2.8,1.6c1.3,0,2.5-0.8,3-2
			c0.5,0.3,1,0.4,1.5,0.4c1.7,0,3.1-1.4,3.1-3.1C20.8,5.7,19.4,4.3,17.7,4.3z"/>
	</g>
	<g>
		<g>
			<path class="st0" d="M16.7,8.9c1-1.6,0.5-4.5-0.2-5.5c-1-1.3-2.4-1.5-3.3-2C12.4,1,10.7-0.2,9.6-0.2C8.1-0.2,7.3,0.4,6,0.7
				C4.6,1.1,2.3,3.2,1.1,4.7C-0.4,6.3,0,8.8,0.3,9.3C1,10.2,1.9,11.1,3,11.6c1,0.5,1.9,0.5,2.7,0.5c0.6,0,1.3,0.3,2.8,0
				c1.1-0.2,1.6-0.3,2.1-0.5C11.8,11.3,15.5,10.8,16.7,8.9z"/>
			<path class="st1" d="M16.5,8.8c1-1.5,0.6-4.3-0.1-5.4C15.5,2.1,14,2,13.1,1.5c-0.9-0.4-2.5-1.6-3.6-1.7C8-0.1,7.2,0.4,6,0.8
				C4.6,1.1,2.4,3.3,1.1,4.6c-1.4,1.6-1.1,4-0.7,4.5C1.1,10,1.9,10.9,3,11.4c1,0.5,1.9,0.4,2.7,0.5c0.6,0,1.3,0.4,2.8,0
				c1.1-0.2,1.6-0.3,2.1-0.5C11.7,11.1,15.3,10.6,16.5,8.8z"/>
			<path class="st2" d="M16.3,8.7c1-1.5,0.6-4.2-0.1-5.2c-0.9-1.3-2.4-1.5-3.2-1.9C12.2,1.2,10.6,0,9.5,0C8-0.1,7.2,0.5,6,0.8
				C4.6,1.2,2.4,3.3,1.2,4.6C-0.2,6.1,0,8.5,0.5,9c0.7,0.8,1.5,1.7,2.6,2.2c1,0.5,1.9,0.4,2.6,0.4c0.6,0.1,1.3,0.4,2.8,0.1
				c1.1-0.2,1.6-0.4,2.1-0.5C11.7,10.9,15.1,10.5,16.3,8.7z"/>
			<path class="st3" d="M16.1,8.7c1-1.4,0.6-4.1-0.1-5.1c-0.9-1.3-2.4-1.4-3.2-1.9C12,1.3,10.5,0.1,9.5,0.1C8,0,7.1,0.5,5.9,0.9
				C4.6,1.2,2.4,3.3,1.3,4.6C0,6.1,0.1,8.4,0.5,8.9C1.2,9.7,1.9,10.6,3,11c1.1,0.4,1.9,0.3,2.6,0.4c0.6,0.1,1.3,0.4,2.8,0.1
				c1.1-0.2,1.6-0.4,2.1-0.5C11.6,10.8,14.9,10.4,16.1,8.7z"/>
			<path class="st4" d="M15.9,8.6c1-1.4,0.6-4,0-5c-0.9-1.3-2.3-1.4-3.2-1.8c-0.8-0.4-2.2-1.7-3.3-1.7C8,0.1,7.1,0.6,5.9,0.9
				C4.6,1.3,2.5,3.4,1.4,4.6C0.1,6,0.1,8.2,0.6,8.8c0.6,0.8,1.4,1.6,2.5,2.1c1.1,0.4,1.9,0.3,2.5,0.3c0.6,0.1,1.3,0.4,2.8,0.1
				c1.1-0.2,1.6-0.4,2.1-0.5C11.5,10.6,14.7,10.3,15.9,8.6z"/>
			<path class="st5" d="M15.7,8.6c1-1.3,0.7-3.9,0-4.8c-0.9-1.3-2.3-1.4-3.1-1.8c-0.8-0.4-2.2-1.7-3.2-1.7C8,0.2,7.1,0.6,5.9,1
				C4.6,1.3,2.5,3.4,1.5,4.5C0.2,5.9,0.2,8.1,0.6,8.7c0.6,0.8,1.3,1.6,2.4,2c1.1,0.4,1.9,0.2,2.5,0.3c0.5,0.1,1.3,0.5,2.8,0.1
				c1.1-0.2,1.7-0.4,2.1-0.5C11.5,10.4,14.5,10.1,15.7,8.6z"/>
			<path class="st6" d="M15.5,8.5c1-1.3,0.7-3.8,0-4.7c-0.9-1.3-2.3-1.4-3.1-1.8c-0.8-0.4-2.1-1.7-3.1-1.7C8,0.2,7,0.7,5.8,1
				C4.5,1.4,2.5,3.4,1.5,4.5C0.4,5.8,0.2,7.9,0.7,8.6c0.6,0.7,1.3,1.5,2.4,1.9c1.1,0.4,1.8,0.2,2.5,0.2c0.5,0.1,1.3,0.5,2.8,0.2
				c1.1-0.2,1.7-0.4,2.1-0.5C11.4,10.2,14.4,10,15.5,8.5z"/>
			<path class="st7" d="M15.3,8.5c1-1.2,0.7-3.7,0.1-4.6c-0.9-1.3-2.3-1.3-3.1-1.7c-0.7-0.4-2-1.7-3.1-1.7C8,0.3,7,0.7,5.8,1.1
				C4.5,1.5,2.6,3.5,1.6,4.5c-1.1,1.2-1.4,3.3-0.8,4C1.3,9.2,2,10,3.1,10.3c1.1,0.3,1.8,0.1,2.4,0.2c0.5,0.1,1.3,0.5,2.8,0.2
				c1.1-0.2,1.7-0.4,2.1-0.5C11.4,10,14.2,9.9,15.3,8.5z"/>
			<path class="st8" d="M15.1,8.4c1-1.1,0.7-3.5,0.1-4.5c-0.9-1.3-2.2-1.3-3-1.7c-0.7-0.4-2-1.7-3-1.7C8,0.4,7,0.8,5.8,1.1
				C4.5,1.5,2.6,3.5,1.7,4.5C0.6,5.6,0.3,7.7,0.8,8.3C1.4,9,2,9.8,3.1,10.1c1.1,0.3,1.8,0.1,2.4,0.2c0.5,0.1,1.3,0.5,2.8,0.2
				c1.1-0.2,1.7-0.5,2.1-0.5C11.3,9.9,14,9.7,15.1,8.4z"/>
			<path class="st9" d="M14.9,8.4c1-1.1,0.8-3.4,0.2-4.3c-0.9-1.3-2.2-1.3-3-1.7C11.4,2,10.2,0.7,9.2,0.6C8,0.5,6.9,0.9,5.8,1.2
				c-1.3,0.4-3.1,2.3-4,3.3c-1,1.1-1.4,3.1-0.9,3.8C1.4,8.9,2,9.6,3.1,10c1.1,0.3,1.8,0,2.4,0.1c0.5,0.1,1.3,0.5,2.8,0.3
				c1.1-0.2,1.7-0.5,2.1-0.5C11.3,9.7,13.8,9.6,14.9,8.4z"/>
			<path class="st10" d="M14.7,8.3c1-1,0.8-3.3,0.2-4.2c-0.9-1.3-2.2-1.3-3-1.6c-0.7-0.3-1.8-1.7-2.8-1.8C8,0.6,6.9,0.9,5.7,1.2
				C4.5,1.6,2.7,3.5,1.8,4.4c-1,1-1.5,2.9-0.9,3.7c0.5,0.6,1.1,1.4,2.2,1.7C4.3,10,5,9.7,5.5,9.8c0.5,0.1,1.3,0.6,2.8,0.3
				c1.1-0.2,1.7-0.5,2.1-0.5C11.2,9.5,13.6,9.5,14.7,8.3z"/>
			<path class="st11" d="M14.5,8.3c1-1,0.8-3.2,0.2-4.1c-0.9-1.3-2.2-1.2-2.9-1.6c-0.7-0.3-1.8-1.7-2.7-1.8C8,0.6,6.8,1,5.7,1.3
				c-1.3,0.4-3,2.3-3.8,3.1C1,5.4,0.4,7.2,1,8c0.5,0.6,1.1,1.3,2.2,1.6c1.1,0.3,1.8-0.1,2.3,0C6,9.7,6.7,10.2,8.3,9.9
				c1.2-0.2,1.7-0.5,2.1-0.5C11.1,9.3,13.4,9.4,14.5,8.3z"/>
			<path class="st12" d="M14.3,8.2c1-0.9,0.8-3.1,0.3-4c-0.8-1.3-2.1-1.2-2.9-1.6C11.1,2.4,10,1,9,0.9C8,0.7,6.8,1,5.7,1.3
				c-1.2,0.4-3,2.3-3.7,3C1.1,5.3,0.4,7.1,1.1,7.9c0.5,0.6,1,1.3,2.1,1.5c1.1,0.2,1.8-0.1,2.2,0C5.9,9.5,6.7,10,8.2,9.7
				c1.2-0.2,1.7-0.5,2.1-0.5C11.1,9.2,13.2,9.3,14.3,8.2z"/>
			<path class="st13" d="M14.1,8.1c1-0.9,0.9-3,0.3-3.8c-0.8-1.3-2.1-1.2-2.9-1.6C10.9,2.5,9.9,1.1,9,0.9C8,0.8,6.8,1.1,5.7,1.4
				c-1.2,0.4-2.9,2.2-3.6,3C1.3,5.2,0.5,6.9,1.1,7.8c0.4,0.5,1,1.2,2.1,1.5C4.4,9.4,5,9,5.4,9.1c0.5,0.1,1.3,0.6,2.8,0.4
				C9.4,9.3,10,9,10.3,9C11,9,13,9.1,14.1,8.1z"/>
			<path class="st14" d="M13.9,8.1c1-0.8,0.9-2.8,0.4-3.7c-0.8-1.3-2.1-1.2-2.8-1.5C10.8,2.6,9.9,1.2,8.9,1c-1-0.2-2.2,0.1-3.3,0.4
				C4.4,1.8,2.8,3.7,2.1,4.3C1.4,5.1,0.5,6.8,1.2,7.6c0.4,0.5,0.9,1.2,2,1.4C4.4,9.2,5,8.8,5.4,8.9C5.9,9,6.7,9.6,8.2,9.3
				c1.2-0.2,1.8-0.6,2.1-0.5C11,8.8,12.8,9,13.9,8.1z"/>
			<path class="st15" d="M13.7,8c1-0.8,0.9-2.7,0.4-3.6c-0.8-1.3-2.1-1.1-2.8-1.5c-0.6-0.3-1.5-1.7-2.4-1.8C7.9,1,6.7,1.2,5.6,1.5
				C4.4,1.9,2.8,3.7,2.2,4.3c-0.7,0.7-1.7,2.3-1,3.2c0.4,0.5,0.9,1.2,2,1.3C4.4,9,5,8.6,5.4,8.7c0.5,0.1,1.3,0.7,2.8,0.4
				c1.2-0.2,1.8-0.6,2.1-0.5C10.9,8.6,12.7,8.9,13.7,8z"/>
			<path class="st16" d="M13.5,8c1-0.7,1-2.6,0.4-3.5c-0.8-1.3-2-1.1-2.8-1.5c-0.6-0.3-1.4-1.7-2.3-1.9C7.9,1,6.7,1.2,5.6,1.6
				C4.4,1.9,2.9,3.7,2.3,4.3C1.6,5,0.6,6.5,1.3,7.4c0.4,0.4,0.8,1.1,2,1.3C4.4,8.8,5,8.3,5.4,8.4c0.5,0.1,1.3,0.7,2.8,0.5
				c1.2-0.2,1.8-0.6,2.1-0.5C10.9,8.5,12.5,8.8,13.5,8z"/>
			<path class="st17" d="M13.3,7.9c1-0.7,1-2.5,0.5-3.3c-0.8-1.3-2-1.1-2.7-1.4c-0.6-0.3-1.3-1.7-2.2-1.9c-0.9-0.2-2.2,0-3.2,0.3
				C4.4,2,2.9,3.8,2.4,4.3c-0.6,0.6-1.8,2.1-1,3c0.3,0.4,0.8,1.1,1.9,1.2C4.5,8.6,5,8.1,5.4,8.2c0.4,0.1,1.3,0.7,2.8,0.5
				c1.2-0.2,1.8-0.6,2.1-0.5C10.8,8.3,12.3,8.6,13.3,7.9z"/>
			<path class="st18" d="M13.1,7.9c1-0.6,1-2.4,0.5-3.2c-0.8-1.3-2-1.1-2.7-1.4C10.4,3,9.7,1.6,8.8,1.4C7.9,1.2,6.6,1.3,5.5,1.7
				C4.4,2,2.9,3.8,2.5,4.3c-0.6,0.6-1.8,2-1,2.9c0.3,0.4,0.7,1,1.9,1.1C4.5,8.4,5,7.9,5.3,8c0.4,0.2,1.3,0.8,2.8,0.5
				c1.2-0.2,1.8-0.6,2.1-0.5C10.8,8.1,12.1,8.5,13.1,7.9z"/>
			<path class="st19" d="M12.9,7.8c1-0.6,1-2.3,0.6-3.1c-0.8-1.3-2-1.1-2.7-1.4c-0.5-0.2-1.2-1.7-2.1-1.9C7.9,1.3,6.6,1.4,5.5,1.7
				C4.3,2.1,3,3.8,2.5,4.2C2,4.7,0.7,6.1,1.5,7.1c0.3,0.4,0.7,1,1.8,1.1c1.2,0.1,1.7-0.5,2-0.4c0.4,0.2,1.3,0.8,2.8,0.5
				c1.2-0.2,1.8-0.7,2.1-0.6C10.7,7.9,11.9,8.4,12.9,7.8z"/>
			<path class="st20" d="M12.7,7.8c1-0.5,1.1-2.2,0.6-2.9c-0.8-1.3-1.9-1-2.6-1.3c-0.5-0.2-1.1-1.7-2-1.9C7.9,1.4,6.5,1.4,5.5,1.8
				C4.3,2.1,3,3.8,2.6,4.2c-0.4,0.4-1.9,1.7-1,2.7c0.3,0.3,0.6,0.9,1.8,1C4.5,8,5,7.4,5.3,7.5c0.4,0.2,1.3,0.8,2.8,0.6
				c1.2-0.2,1.8-0.7,2.1-0.6C10.6,7.8,11.7,8.3,12.7,7.8z"/>
			<path class="st21" d="M12.5,7.7c1-0.4,1.1-2,0.6-2.8c-0.8-1.3-1.9-1-2.6-1.3c-0.5-0.2-1.1-1.7-1.9-1.9C7.9,1.4,6.5,1.5,5.5,1.8
				C4.3,2.2,3,3.9,2.7,4.2C2.3,4.6,0.8,5.8,1.6,6.8c0.3,0.3,0.6,0.9,1.7,0.9c1.2,0,1.6-0.6,1.9-0.5c0.4,0.2,1.3,0.8,2.8,0.6
				c1.2-0.2,1.9-0.7,2.1-0.6C10.6,7.6,11.5,8.2,12.5,7.7z"/>
		</g>
		<path class="st22" d="M11.6,3.2c-0.3,0-0.5,0-0.8,0.1c-0.3-1.7-1.7-3-3.5-3c-1.7-0.1-3.2,1-3.7,2.5c0,0,0,0,0,0
			C2.2,2.7,1,3.8,0.9,5.2C0.8,6.7,1.9,7.9,3.4,8c0.7,0,1.4-0.2,1.9-0.7C5.8,7.6,6.3,7.8,7,7.8c1.1,0.1,2.1-0.4,2.8-1.1
			c0.4,0.5,0.9,0.8,1.6,0.8c1.2,0.1,2.2-0.9,2.3-2.1C13.7,4.3,12.8,3.2,11.6,3.2z"/>
	</g>
</g>
</svg>
