<?xml version="1.0" encoding="utf-8"?>
<!-- Generator: Adobe Illustrator 27.0.1, SVG Export Plug-In . SVG Version: 6.00 Build 0)  -->
<svg version="1.1" id="Ebene_1" xmlns="http://www.w3.org/2000/svg" xmlns:xlink="http://www.w3.org/1999/xlink" x="0px" y="0px"
	 viewBox="0 0 26.9 16.9" style="enable-background:new 0 0 26.9 16.9;" xml:space="preserve">
<style type="text/css">
	.st0{fill:#FFFFFF;fill-opacity:0;}
	.st1{opacity:5.000000e-02;fill:#F9FBFB;enable-background:new    ;}
	.st2{opacity:0.1;fill:#F4F6F8;enable-background:new    ;}
	.st3{opacity:0.14;fill:#EEF2F4;enable-background:new    ;}
	.st4{opacity:0.19;fill:#E9EDF1;enable-background:new    ;}
	.st5{opacity:0.24;fill:#E3E9ED;enable-background:new    ;}
	.st6{opacity:0.29;fill:#DEE5EA;enable-background:new    ;}
	.st7{opacity:0.33;fill:#D8E0E6;enable-background:new    ;}
	.st8{opacity:0.38;fill:#D3DCE3;enable-background:new    ;}
	.st9{opacity:0.43;fill:#CDD8DF;enable-background:new    ;}
	.st10{opacity:0.48;fill:#C8D3DC;enable-background:new    ;}
	.st11{opacity:0.52;fill:#C2CFD8;enable-background:new    ;}
	.st12{opacity:0.57;fill:#BDCAD5;enable-background:new    ;}
	.st13{opacity:0.62;fill:#B7C6D1;enable-background:new    ;}
	.st14{opacity:0.67;fill:#B2C2CE;enable-background:new    ;}
	.st15{opacity:0.71;fill:#ACBDCA;enable-background:new    ;}
	.st16{opacity:0.76;fill:#A7B9C7;enable-background:new    ;}
	.st17{opacity:0.81;fill:#A1B5C3;enable-background:new    ;}
	.st18{opacity:0.86;fill:#9CB0C0;enable-background:new    ;}
	.st19{opacity:0.9;fill:#96ACBC;enable-background:new    ;}
	.st20{opacity:0.95;fill:#91A7B9;enable-background:new    ;}
	.st21{fill:#848C91;}
	.st22{fill:#A5B1B5;}
	.st23{fill:#A3A9AA;}
	.st24{fill:#909293;}
</style>
<g>
	<g id="Ebene_2_00000181059813863181175910000011691227195843776413_">
		<g id="Paper-Icons">
			<g>
				<g>
					<g>
						<path class="st0" d="M25.6,13.6c1.8-1.6,1.5-6.4,0.6-7.7c-1.2-1.7-2.5-2.7-3.7-3.3c-1.1-0.6-4.3-1.1-5.8-1.1
							c-2,0-4,0.5-5.6,0.9C9.3,3,5.9,4.3,4.2,6.1C2.3,8.2,4,12.4,4.5,13c0.9,1.1,2,2.3,3.4,3c1.3,0.6,2.5,0.6,3.5,0.7
							c0.8,0,4.1,0.4,6.1,0c1.4-0.3,3.8-0.7,4.4-1.1C22.6,15.3,24.1,14.9,25.6,13.6L25.6,13.6z"/>
						<path class="st1" d="M25.3,13.5c1.8-1.5,1.5-6.2,0.6-7.5c-1.2-1.7-2.5-2.7-3.6-3.2c-1.1-0.5-4.1-1-5.6-1.1
							c-2,0-3.9,0.5-5.6,0.9C9.4,3.1,5.9,4.3,4.3,6.1c-1.9,2-0.3,6.1,0.2,6.8c0.9,1.1,1.9,2.2,3.3,2.9c1.3,0.6,2.5,0.6,3.4,0.6
							c0.8,0.1,4,0.5,6,0.1c1.4-0.3,3.7-0.8,4.3-1.1C22.3,15.1,23.8,14.7,25.3,13.5L25.3,13.5z"/>
						<path class="st2" d="M25,13.3c1.8-1.5,1.5-6,0.6-7.3c-1.2-1.7-2.5-2.6-3.6-3.2c-1.1-0.5-4-1-5.4-1.1c-1.9,0-3.9,0.4-5.5,0.9
							C9.4,3.1,6,4.4,4.5,6.1C2.7,8,4.2,12,4.7,12.7c0.9,1.1,1.8,2.2,3.3,2.8c1.3,0.6,2.4,0.5,3.4,0.6c0.7,0.1,3.9,0.5,5.8,0.1
							c1.4-0.3,3.6-0.8,4.2-1.1S23.6,14.5,25,13.3L25,13.3z"/>
						<path class="st3" d="M24.7,13.2c1.8-1.4,1.5-5.8,0.6-7.1c-1.2-1.7-2.5-2.6-3.5-3.1c-1.1-0.5-3.8-1-5.2-1
							c-1.9,0-3.8,0.4-5.4,0.8C9.4,3.2,6.1,4.5,4.6,6.1C2.9,8,4.2,11.8,4.8,12.5c0.8,1,1.8,2.2,3.2,2.8c1.3,0.6,2.4,0.5,3.3,0.6
							C12,15.9,15,16.4,17,16c1.4-0.3,3.5-0.8,4.1-1.1S23.3,14.3,24.7,13.2z"/>
						<path class="st4" d="M24.4,13c1.7-1.4,1.5-5.6,0.6-6.9c-1.1-1.7-2.4-2.5-3.5-3c-1-0.5-3.6-1-5-1c-1.8-0.1-3.8,0.4-5.4,0.8
							c-1.7,0.5-5,1.7-6.4,3.3C3,7.9,4.3,11.6,4.9,12.4c0.8,1,1.7,2.1,3.1,2.7c1.3,0.6,2.4,0.4,3.3,0.5c0.7,0.1,3.6,0.6,5.6,0.2
							c1.4-0.3,3.5-0.9,4.1-1.2S23,14.1,24.4,13L24.4,13z"/>
						<path class="st5" d="M24.1,12.8c1.7-1.3,1.5-5.4,0.6-6.7c-1.1-1.7-2.4-2.5-3.5-3c-1-0.5-3.5-1-4.9-1c-1.8-0.1-3.7,0.3-5.3,0.8
							c-1.7,0.5-5,1.7-6.3,3.2C3.3,7.8,4.4,11.4,5,12.2c0.8,1,1.6,2.1,3,2.6c1.3,0.5,2.3,0.4,3.2,0.5c0.7,0.1,3.5,0.7,5.5,0.3
							c1.4-0.3,3.4-0.9,4-1.2C21.2,14.1,22.7,13.9,24.1,12.8L24.1,12.8z"/>
						<path class="st6" d="M23.8,12.7c1.7-1.3,1.5-5.1,0.6-6.5c-1.1-1.7-2.4-2.4-3.4-2.9c-1-0.5-3.3-1-4.7-1
							c-1.7-0.1-3.7,0.3-5.2,0.7C9.5,3.4,6.3,4.7,5,6.1c-1.5,1.6-0.5,5.2,0.2,6c0.8,0.9,1.5,2,2.9,2.6c1.2,0.5,2.3,0.4,3.1,0.5
							c0.7,0.1,3.4,0.7,5.3,0.4c1.5-0.3,3.3-0.9,3.9-1.2C21,13.9,22.4,13.7,23.8,12.7L23.8,12.7z"/>
						<path class="st7" d="M23.5,12.5c1.7-1.2,1.5-4.9,0.6-6.3c-1.1-1.7-2.3-2.3-3.4-2.9c-1-0.5-3.2-1-4.5-1
							c-1.7-0.1-3.6,0.3-5.1,0.7C9.5,3.4,6.3,4.7,5.1,6.1c-1.5,1.6-0.5,5,0.2,5.8c0.7,0.9,1.4,2,2.8,2.5c1.2,0.5,2.3,0.3,3.1,0.4
							c0.7,0.1,3.2,0.8,5.2,0.4c1.5-0.3,3.2-1,3.8-1.2C20.7,13.7,22.1,13.6,23.5,12.5L23.5,12.5z"/>
						<path class="st8" d="M23.2,12.4c1.6-1.2,1.5-4.7,0.7-6.1c-1-1.7-2.3-2.3-3.3-2.8c-0.9-0.5-3-1-4.3-1c-1.6-0.1-3.5,0.2-5.1,0.7
							c-1.7,0.5-4.8,1.7-6,3c-1.4,1.5-0.6,4.8,0.2,5.7s1.3,1.9,2.7,2.4c1.2,0.5,2.2,0.3,3,0.4c0.7,0.1,3.1,0.8,5.1,0.5
							c1.5-0.3,3.1-1,3.7-1.3C20.4,13.4,21.8,13.4,23.2,12.4L23.2,12.4z"/>
						<path class="st9" d="M22.9,12.2c1.6-1.1,1.5-4.5,0.7-5.9c-1-1.7-2.3-2.2-3.3-2.7c-0.9-0.4-2.8-0.9-4.1-1
							c-1.6-0.1-3.5,0.2-5,0.6c-1.7,0.5-4.8,1.7-5.9,3C4,7.5,4.7,10.6,5.5,11.6c0.7,0.8,1.2,1.9,2.7,2.4c1.2,0.4,2.2,0.2,2.9,0.4
							c0.7,0.1,3,0.9,4.9,0.5c1.5-0.3,3.1-1,3.6-1.3C20.1,13.2,21.5,13.2,22.9,12.2L22.9,12.2z"/>
						<path class="st10" d="M22.6,12.1c1.6-1.1,1.5-4.3,0.7-5.7c-1-1.7-2.2-2.2-3.2-2.7c-0.9-0.4-2.7-0.9-4-1
							c-1.5-0.2-3.4,0.2-4.9,0.6C9.6,3.6,6.5,4.9,5.4,6.1c-1.2,1.3-0.6,4.4,0.1,5.3c0.6,0.8,1.1,1.8,2.6,2.3
							c1.2,0.4,2.2,0.2,2.9,0.3c0.7,0.1,2.8,0.9,4.8,0.6c1.5-0.3,3-1.1,3.5-1.3C19.9,13,21.3,13,22.6,12.1L22.6,12.1z"/>
						<path class="st11" d="M22.3,11.9c1.5-1,1.5-4.1,0.7-5.5c-1-1.8-2.2-2.1-3.2-2.6c-0.9-0.4-2.5-0.9-3.8-1
							c-1.5-0.2-3.4,0.1-4.8,0.5C9.6,3.7,6.6,5,5.5,6.1c-1.2,1.2-0.7,4.2,0.1,5.2c0.6,0.8,1,1.8,2.5,2.3c1.2,0.4,2.1,0.1,2.8,0.3
							s2.7,1,4.7,0.6c1.5-0.3,2.9-1.1,3.4-1.4C19.6,12.8,21,12.8,22.3,11.9L22.3,11.9z"/>
						<path class="st12" d="M22,11.7c1.5-1,1.5-3.9,0.7-5.4c-1-1.8-2.2-2.1-3.2-2.5c-0.8-0.4-2.3-0.9-3.6-1
							c-1.4-0.2-3.3,0.1-4.8,0.5C9.6,3.8,6.6,5,5.7,6.1c-1.1,1.2-0.7,4,0.1,5c0.6,0.7,1,1.7,2.4,2.2c1.2,0.4,2.1,0.1,2.8,0.2
							s2.6,1,4.6,0.7c1.5-0.3,2.8-1.1,3.3-1.4C19.3,12.5,20.7,12.6,22,11.7L22,11.7z"/>
						<path class="st13" d="M21.8,11.6c1.5-0.9,1.5-3.7,0.7-5.2c-1-1.8-2.1-2-3.1-2.5c-0.8-0.4-2.2-0.9-3.4-1
							c-1.4-0.2-3.2,0.1-4.7,0.5C9.7,3.8,6.7,5.1,5.8,6.1C4.8,7.2,5,9.9,5.9,10.9c0.6,0.7,0.9,1.7,2.3,2.1c1.1,0.4,2.1,0.1,2.7,0.2
							s2.5,1.1,4.4,0.7c1.5-0.3,2.7-1.2,3.2-1.4C19.1,12.3,20.4,12.4,21.8,11.6L21.8,11.6z"/>
						<path class="st14" d="M21.5,11.4c1.5-0.9,1.5-3.5,0.7-5c-0.9-1.8-2.1-2-3.1-2.4c-0.8-0.4-2-0.9-3.2-1c-1.3-0.2-3.2,0-4.6,0.4
							C9.7,3.9,6.8,5.2,5.9,6.1c-1,1-0.8,3.6,0.1,4.7c0.5,0.6,0.8,1.6,2.2,2.1c1.1,0.4,2.1,0,2.6,0.2c0.6,0.2,2.4,1.1,4.3,0.8
							c1.5-0.3,2.7-1.2,3.1-1.4C18.8,12,20.1,12.2,21.5,11.4L21.5,11.4z"/>
						<path class="st15" d="M21.1,11.3c1.4-0.8,1.5-3.3,0.7-4.8c-0.9-1.8-2.1-1.9-3-2.4c-0.8-0.3-1.8-0.8-3-1s-3.1,0-4.5,0.4
							C9.7,4,6.8,5.3,6,6.1C5.1,7,5.2,9.5,6.1,10.6c0.5,0.6,0.7,1.6,2.1,2c1.1,0.3,2,0,2.6,0.1c0.6,0.2,2.2,1.2,4.2,0.9
							c1.5-0.2,2.6-1.2,3-1.5C18.6,11.8,19.8,12,21.1,11.3L21.1,11.3z"/>
						<path class="st16" d="M20.9,11.1c1.4-0.8,1.5-3.1,0.8-4.6c-0.9-1.8-2-1.9-3-2.3c-0.8-0.3-1.7-0.8-2.9-1s-3.1,0-4.5,0.4
							C9.7,4,6.9,5.3,6.2,6.1c-0.8,0.9-0.9,3.3,0.1,4.4C6.7,11,6.8,12,8.3,12.4c1.1,0.3,2-0.1,2.5,0.1c0.6,0.2,2.1,1.2,4.1,0.9
							c1.5-0.2,2.5-1.3,2.9-1.5C18.3,11.6,19.5,11.9,20.9,11.1L20.9,11.1z"/>
						<path class="st17" d="M20.6,10.9c1.4-0.7,1.5-2.8,0.8-4.4c-0.9-1.8-2-1.8-3-2.2c-0.7-0.3-1.5-0.8-2.7-1s-3-0.1-4.4,0.3
							c-1.6,0.5-4.4,1.8-5,2.4c-0.8,0.8-0.9,3.1,0.1,4.2c0.4,0.5,0.5,1.5,2,1.9c1.1,0.3,1.9-0.1,2.4,0.1c0.6,0.2,2,1.3,3.9,1
							c1.5-0.2,2.4-1.3,2.8-1.5C18,11.4,19.2,11.6,20.6,10.9L20.6,10.9z"/>
						<path class="st18" d="M20.3,10.8c1.4-0.7,1.5-2.6,0.8-4.2c-0.8-1.8-2-1.8-2.9-2.2c-0.7-0.3-1.4-0.8-2.5-1s-3-0.1-4.3,0.3
							C9.8,4.2,7,5.4,6.4,6c-0.7,0.7-1,2.9,0,4.1c0.4,0.5,0.4,1.4,1.9,1.8c1.1,0.3,1.9-0.1,2.4,0c0.6,0.2,1.8,1.3,3.8,1
							c1.6-0.2,2.4-1.4,2.7-1.5C17.7,11.1,19,11.4,20.3,10.8L20.3,10.8z"/>
						<path class="st19" d="M20,10.6c1.3-0.6,1.5-2.4,0.8-4c-0.8-1.8-1.9-1.7-2.9-2.1c-0.7-0.3-1.2-0.8-2.3-1
							c-1.1-0.2-2.9-0.1-4.2,0.3C9.8,4.2,7.1,5.5,6.5,6c-0.7,0.6-1,2.7,0,3.9c0.4,0.5,0.3,1.4,1.8,1.8c1.1,0.3,1.9-0.2,2.3,0
							c0.6,0.2,1.7,1.4,3.7,1.1c1.6-0.2,2.3-1.4,2.6-1.6C17.5,10.9,18.7,11.3,20,10.6L20,10.6z"/>
						<path class="st20" d="M19.7,10.5c1.3-0.6,1.5-2.2,0.8-3.8c-0.8-1.8-1.9-1.7-2.8-2.1c-0.6-0.3-1-0.7-2.1-1
							c-1-0.3-2.8-0.2-4.2,0.2C9.8,4.3,7.1,5.6,6.6,6C6,6.6,5.6,8.5,6.6,9.8c0.4,0.4,0.2,1.4,1.7,1.7c1,0.2,1.9-0.2,2.2-0.1
							c0.6,0.2,1.6,1.4,3.6,1.1c1.6-0.2,2.2-1.4,2.5-1.6C17.2,10.7,18.4,11.1,19.7,10.5L19.7,10.5z"/>
						<path class="st21" d="M19.4,10.3c1.3-0.6,1.5-2,0.8-3.6c-0.8-1.8-1.9-1.6-2.8-2c-0.6-0.3-0.9-0.7-2-1c-1-0.3-2.8-0.2-4.1,0.2
							C9.8,4.3,7.2,5.6,6.8,6c-0.5,0.5-1.1,2.3,0,3.6C7.1,10,6.9,11,8.4,11.3c1,0.2,1.8-0.3,2.2-0.1c0.5,0.2,1.5,1.5,3.4,1.2
							c1.6-0.2,2.1-1.5,2.4-1.6C16.9,10.4,18.1,10.9,19.4,10.3z"/>
					</g>
					<path class="st22" d="M17.7,4.3c-0.1,0-0.1,0-0.2,0c-0.4-1-1.4-1.8-2.5-1.8c-0.4,0-0.7,0.1-1,0.2c-0.4-1-1.3-1.7-2.4-1.7
						s-2,0.7-2.4,1.6c-0.1,0-0.3,0-0.4,0c-1.2,0-2.2,0.9-2.3,2c-0.2,0-0.3-0.1-0.5-0.1c-1.4,0-2.6,1.2-2.6,2.6s1.2,2.6,2.6,2.6
						c0,0,0,0,0.1,0c0.2,1,1.2,1.8,2.3,1.8c0.9,0,1.6-0.5,2-1.2c0.6,1,1.6,1.6,2.8,1.6c1.3,0,2.5-0.8,3-1.9c0.5,0.3,1,0.4,1.5,0.4
						c1.7,0,3.1-1.4,3.1-3.1S19.4,4.3,17.7,4.3L17.7,4.3z"/>
					<path class="st23" d="M17.8,4.4c-0.1,0-0.1,0-0.2,0c-0.4-1-1.4-1.8-2.5-1.8c-0.4,0-0.7,0.1-1,0.2c-0.4-1-1.3-1.7-2.4-1.7
						s-2,0.7-2.4,1.6c-0.1,0-0.3,0-0.4,0c-1.2,0-2.2,0.9-2.3,2C6.3,4.7,6.2,4.7,6,4.7c-1.4,0-2.6,1.2-2.6,2.6S4.6,9.9,6,9.9
						c0,0,0,0,0.1,0c0.2,1,1.2,1.8,2.3,1.8c0.9,0,1.6-0.5,2-1.2c0.6,1,1.6,1.6,2.8,1.6c1.3,0,2.5-0.8,3-1.9c0.5,0.3,1,0.4,1.5,0.4
						c1.7,0,3.1-1.4,3.1-3.1S19.5,4.4,17.8,4.4L17.8,4.4z"/>
				</g>
				<g>
					<g>
						<path class="st0" d="M16.8,8.9c1-1.5,0.5-4.4-0.2-5.4c-0.9-1.3-2.4-1.5-3.3-1.9C12.4,1.2,10.7,0,9.6,0C8.1,0,7.3,0.6,6,0.9
							C4.7,1.3,2.3,3.4,1.1,4.8C-0.4,6.4,0,8.9,0.3,9.3C1,10.2,1.9,11.1,3,11.6c1,0.5,1.9,0.5,2.7,0.5c0.6,0,1.3,0.3,2.8,0
							c1.1-0.2,1.6-0.3,2.2-0.5C11.8,11.3,15.5,10.8,16.8,8.9L16.8,8.9z"/>
						<path class="st1" d="M16.6,8.9c1-1.5,0.6-4.3-0.1-5.3c-0.9-1.3-2.4-1.5-3.3-1.9c-0.9-0.4-2.5-1.6-3.6-1.6C8.1,0.1,7.2,0.6,6,1
							C4.6,1.3,2.4,3.4,1.1,4.8C-0.3,6.3,0,8.7,0.4,9.2C1.1,10.1,1.9,11,3,11.4c1,0.5,1.9,0.4,2.7,0.5c0.6,0.1,1.3,0.4,2.8,0
							c1.1-0.2,1.6-0.3,2.1-0.5C11.7,11.1,15.3,10.7,16.6,8.9z"/>
						<path class="st2" d="M16.4,8.8c1-1.4,0.6-4.2-0.1-5.1c-0.9-1.3-2.4-1.4-3.2-1.9c-0.8-0.4-2.4-1.6-3.5-1.6C8.1,0.1,7.2,0.7,6,1
							C4.6,1.4,2.4,3.5,1.2,4.7C-0.2,6.3,0,8.6,0.5,9.1c0.7,0.8,1.5,1.7,2.6,2.2c1,0.4,1.9,0.4,2.6,0.4c0.6,0.1,1.3,0.4,2.8,0.1
							c1.1-0.2,1.6-0.4,2.1-0.5C11.7,11,15.1,10.6,16.4,8.8L16.4,8.8z"/>
						<path class="st3" d="M16.2,8.8c1-1.4,0.6-4.1-0.1-5c-0.9-1.3-2.4-1.4-3.2-1.8c-0.8-0.4-2.3-1.6-3.4-1.6C8,0.2,7.2,0.7,5.9,1.1
							C4.6,1.4,2.4,3.5,1.3,4.7C0,6.2,0.1,8.4,0.5,9C1.2,9.8,2,10.6,3,11.1s1.9,0.3,2.6,0.4c0.6,0.1,1.3,0.4,2.8,0.1
							c1.1-0.2,1.6-0.4,2.1-0.5C11.6,10.8,15,10.4,16.2,8.8L16.2,8.8z"/>
						<path class="st4" d="M16,8.7c1-1.3,0.6-3.9,0-4.9C15,2.5,13.6,2.4,12.8,2C12,1.6,10.5,0.4,9.4,0.4C8,0.3,7.1,0.8,5.9,1.1
							C4.6,1.5,2.5,3.5,1.4,4.7C0.1,6.1,0.1,8.3,0.6,8.9c0.6,0.8,1.4,1.6,2.5,2s1.9,0.3,2.5,0.3c0.6,0.1,1.3,0.4,2.8,0.1
							c1.1-0.2,1.6-0.4,2.1-0.5C11.6,10.6,14.8,10.3,16,8.7z"/>
						<path class="st5" d="M15.8,8.7c1-1.3,0.7-3.8,0-4.8c-0.9-1.3-2.3-1.4-3.1-1.8c-0.8-0.4-2.2-1.6-3.2-1.7C8,0.4,7.1,0.8,5.9,1.2
							C4.6,1.5,2.5,3.5,1.5,4.7C0.2,6,0.2,8.2,0.6,8.8c0.6,0.7,1.3,1.6,2.4,2s1.9,0.2,2.5,0.3c0.6,0.1,1.3,0.4,2.8,0.1
							c1.1-0.2,1.7-0.4,2.1-0.5C11.5,10.5,14.6,10.2,15.8,8.7L15.8,8.7z"/>
						<path class="st7" d="M15.4,8.5c1-1.2,0.7-3.6,0.1-4.5c-0.9-1.3-2.3-1.3-3.1-1.7c-0.7-0.4-2-1.6-3.1-1.7C8,0.5,7,0.9,5.8,1.3
							C4.5,1.6,2.6,3.6,1.6,4.6C0.5,5.8,0.2,7.9,0.8,8.5C1.3,9.2,2,10,3.1,10.4s1.8,0.1,2.4,0.2c0.5,0.1,1.3,0.5,2.8,0.2
							c1.1-0.2,1.7-0.4,2.1-0.5C11.4,10.1,14.2,9.9,15.4,8.5L15.4,8.5z"/>
						<path class="st8" d="M15.3,4.1c-0.9-1.3-2.2-1.3-3.1-1.7c-0.7-0.3-2-1.6-3-1.7C8,0.6,7,1,5.8,1.3C4.5,1.7,2.6,3.6,1.7,4.6
							C0.6,5.8,0.3,7.7,0.8,8.4S2,9.9,3.1,10.2s1.8,0.1,2.4,0.1c0.5,0.1,1.3,0.5,2.8,0.2c1.1-0.2,1.7-0.4,2.1-0.5
							c0.9-0.1,3.6-0.2,4.7-1.6v0"/>
						<path class="st9" d="M15,8.4c1-1.1,0.8-3.4,0.2-4.3c-0.9-1.3-2.2-1.3-3-1.6c-0.7-0.3-1.9-1.6-2.9-1.7C8,0.7,6.9,1.1,5.8,1.4
							c-1.3,0.4-3.2,2.3-4,3.2c-1,1.1-1.5,3-0.9,3.7C1.4,8.9,2,9.7,3.1,10s1.8,0,2.4,0.1c0.5,0.1,1.3,0.5,2.8,0.3
							c1.1-0.2,1.7-0.5,2.1-0.5C11.3,9.8,13.8,9.7,15,8.4L15,8.4z"/>
						<path class="st10" d="M14.8,8.4c1-1,0.8-3.3,0.2-4.2c-0.9-1.3-2.2-1.2-3-1.6C11.3,2.3,10.1,1,9.2,0.9C8,0.7,6.9,1.1,5.8,1.4
							C4.5,1.8,2.7,3.7,1.8,4.6c-1,1-1.5,2.9-0.9,3.6c0.5,0.6,1.1,1.4,2.2,1.6s1.8,0,2.3,0.1C6,10,6.8,10.4,8.3,10.2
							c1.1-0.2,1.7-0.5,2.1-0.5C11.2,9.6,13.6,9.5,14.8,8.4L14.8,8.4z"/>
						<path class="st11" d="M14.6,8.3c1-1,0.8-3.1,0.2-4c-0.9-1.3-2.2-1.2-2.9-1.6C11.2,2.4,10.1,1.1,9.1,1C8,0.8,6.9,1.2,5.7,1.5
							c-1.3,0.4-3,2.2-3.8,3.1C1,5.5,0.4,7.3,1,8.1c0.5,0.6,1.1,1.3,2.2,1.6s1.8-0.1,2.3,0s1.3,0.6,2.8,0.3c1.1-0.2,1.7-0.5,2.1-0.5
							C11.2,9.4,13.4,9.5,14.6,8.3L14.6,8.3z"/>
						<path class="st12" d="M14.4,8.3c1-0.9,0.9-3,0.3-3.9c-0.9-1.3-2.1-1.2-2.9-1.6C11.1,2.5,10,1.2,9.1,1.1C8,0.9,6.8,1.2,5.7,1.5
							c-1.2,0.4-3,2.2-3.7,3C1.1,5.4,0.4,7.2,1.1,8c0.5,0.6,1,1.3,2.1,1.5s1.8-0.1,2.2,0S6.7,10,8.2,9.8c1.2-0.2,1.8-0.5,2.1-0.5
							C11.1,9.2,13.2,9.3,14.4,8.3L14.4,8.3z"/>
						<path class="st13" d="M14.2,8.2c1-0.9,0.9-2.9,0.3-3.8c-0.8-1.3-2.1-1.2-2.9-1.5C11,2.6,10,1.3,9,1.1C8,1,6.8,1.3,5.7,1.6
							C4.4,1.9,2.8,3.8,2.1,4.5C1.3,5.4,0.5,7,1.1,7.8c0.4,0.5,1,1.2,2.1,1.4S5,9.1,5.4,9.2s1.3,0.6,2.8,0.4C9.4,9.4,10,9,10.3,9
							C11.1,9.1,13.1,9.2,14.2,8.2L14.2,8.2z"/>
						<path class="st14" d="M14,8.2c1-0.8,0.9-2.8,0.4-3.7c-0.8-1.3-2.1-1.1-2.9-1.5C10.9,2.7,9.9,1.4,9,1.2C8,1.1,6.7,1.3,5.7,1.6
							C4.4,2,2.8,3.8,2.1,4.5c-0.8,0.8-1.6,2.4-1,3.2c0.4,0.5,0.9,1.2,2,1.4S5,8.9,5.4,9c0.5,0.1,1.3,0.6,2.8,0.4
							c1.2-0.2,1.8-0.6,2.1-0.5C11,8.9,12.9,9.1,14,8.2L14,8.2z"/>
						<path class="st16" d="M13.6,8.1c1-0.7,0.9-2.6,0.4-3.4c-0.8-1.3-2.1-1.1-2.8-1.4C10.6,3,9.8,1.6,8.9,1.4s-2.2,0-3.3,0.3
							C4.4,2.1,2.9,3.9,2.3,4.4c-0.7,0.7-1.7,2.2-1,3.1c0.4,0.4,0.8,1.1,2,1.2S5,8.4,5.4,8.5C5.8,8.7,6.7,9.2,8.2,9
							c1.2-0.2,1.8-0.6,2.1-0.5C10.9,8.5,12.5,8.8,13.6,8.1z"/>
						<path class="st17" d="M13.4,8c1-0.7,1-2.5,0.5-3.3c-0.8-1.3-2-1.1-2.8-1.4c-0.6-0.2-1.4-1.7-2.2-1.8s-2.2,0-3.2,0.3
							C4.4,2.1,2.9,3.9,2.4,4.4c-0.6,0.6-1.8,2.1-1,3c0.3,0.4,0.8,1.1,1.9,1.2S5,8.2,5.4,8.3C5.8,8.4,6.6,9,8.2,8.8
							c1.2-0.2,1.8-0.6,2.1-0.5C10.8,8.4,12.3,8.7,13.4,8L13.4,8z"/>
						<path class="st18" d="M13.1,8c1-0.6,1-2.3,0.5-3.2c-0.8-1.3-2-1.1-2.7-1.4c-0.5-0.2-1.3-1.7-2.2-1.9s-2.2,0-3.2,0.3
							C4.4,2.2,2.9,3.9,2.5,4.4c-0.5,0.6-1.8,1.9-1,2.9c0.3,0.4,0.7,1,1.9,1.1c1.2,0.1,1.7-0.4,2-0.3c0.4,0.1,1.3,0.7,2.8,0.5
							C9.3,8.4,10,7.9,10.2,8C10.8,8.2,12.1,8.6,13.1,8L13.1,8z"/>
						<path class="st19" d="M12.9,7.9c1-0.6,1-2.2,0.6-3c-0.8-1.3-2-1-2.7-1.3c-0.5-0.2-1.2-1.7-2.1-1.9C7.9,1.5,6.5,1.6,5.5,1.9
							C4.3,2.2,3,4,2.5,4.4C2,4.9,0.7,6.2,1.5,7.2c0.3,0.3,0.7,1,1.8,1c1.2,0.1,1.7-0.5,2-0.4C5.7,8,6.6,8.6,8.1,8.4
							c1.2-0.2,1.8-0.6,2.1-0.5C10.7,8,11.9,8.5,12.9,7.9L12.9,7.9z"/>
						<path class="st20" d="M12.8,7.9c1-0.5,1.1-2.1,0.6-2.9c-0.8-1.3-1.9-1-2.6-1.3c-0.5-0.2-1.1-1.7-2-1.9C7.9,1.6,6.5,1.6,5.5,2
							C4.3,2.3,3,4,2.6,4.4c-0.5,0.4-1.9,1.7-1,2.7C1.8,7.4,2.2,8,3.4,8c1.2,0.1,1.6-0.5,2-0.4c0.4,0.2,1.3,0.8,2.8,0.6
							C9.3,8,10,7.5,10.2,7.6C10.7,7.9,11.8,8.4,12.8,7.9L12.8,7.9z"/>
					</g>
					<path class="st24" d="M11.6,3.3c-0.3,0-0.5,0-0.8,0.1c-0.3-1.6-1.7-2.9-3.5-3c-1.7-0.1-3.2,1-3.7,2.5l0,0
						C2.2,2.8,1,3.9,0.9,5.4s1,2.7,2.5,2.7c0.7,0,1.4-0.2,1.9-0.7C5.8,7.7,6.3,7.8,7,7.9c1.1,0.1,2.1-0.4,2.8-1.1
						c0.4,0.5,0.9,0.8,1.6,0.8c1.2,0.1,2.2-0.8,2.3-2S12.8,3.4,11.6,3.3L11.6,3.3z"/>
				</g>
			</g>
		</g>
	</g>
</g>
</svg>
