<?xml version="1.0" encoding="utf-8"?>
<!-- Generator: Adobe Illustrator 27.0.1, SVG Export Plug-In . SVG Version: 6.00 Build 0)  -->
<svg version="1.1" xmlns="http://www.w3.org/2000/svg" xmlns:xlink="http://www.w3.org/1999/xlink" x="0px" y="0px"
	 viewBox="0 0 72.5 44.2" style="enable-background:new 0 0 72.5 44.2;" xml:space="preserve">
<style type="text/css">
	.st0{fill:#FFFFFF;fill-opacity:0;}
	.st1{opacity:4.761905e-02;fill:#F9FBFB;enable-background:new    ;}
	.st2{opacity:9.523810e-02;fill:#F4F6F8;enable-background:new    ;}
	.st3{opacity:0.1429;fill:#EEF2F4;enable-background:new    ;}
	.st4{opacity:0.1905;fill:#E9EDF1;enable-background:new    ;}
	.st5{opacity:0.2381;fill:#E3E9ED;enable-background:new    ;}
	.st6{opacity:0.2857;fill:#DEE5EA;enable-background:new    ;}
	.st7{opacity:0.3333;fill:#D8E0E6;enable-background:new    ;}
	.st8{opacity:0.381;fill:#D3DCE3;enable-background:new    ;}
	.st9{opacity:0.4286;fill:#CDD8DF;enable-background:new    ;}
	.st10{opacity:0.4762;fill:#C8D3DC;enable-background:new    ;}
	.st11{opacity:0.5238;fill:#C2CFD8;enable-background:new    ;}
	.st12{opacity:0.5714;fill:#BDCAD5;enable-background:new    ;}
	.st13{opacity:0.619;fill:#B7C6D1;enable-background:new    ;}
	.st14{opacity:0.6667;fill:#B2C2CE;enable-background:new    ;}
	.st15{opacity:0.7143;fill:#ACBDCA;enable-background:new    ;}
	.st16{opacity:0.7619;fill:#A7B9C7;enable-background:new    ;}
	.st17{opacity:0.8095;fill:#A1B5C3;enable-background:new    ;}
	.st18{opacity:0.8571;fill:#9CB0C0;enable-background:new    ;}
	.st19{opacity:0.9048;fill:#96ACBC;enable-background:new    ;}
	.st20{opacity:0.9524;fill:#91A7B9;enable-background:new    ;}
	.st21{fill:#8BA3B5;}
	.st22{fill:#E4F1F5;}
	.st23{fill:#C5DCE6;}
	.st24{fill:#FFFFFF;}
	.st25{fill:#EEF7FA;}
	.st26{opacity:0.54;}
	.st27{opacity:5.000000e-02;fill:#F9FBFB;enable-background:new    ;}
	.st28{opacity:0.1;fill:#F4F6F8;enable-background:new    ;}
	.st29{opacity:0.14;fill:#EEF2F4;enable-background:new    ;}
	.st30{opacity:0.19;fill:#E9EDF1;enable-background:new    ;}
	.st31{opacity:0.24;fill:#E3E9ED;enable-background:new    ;}
	.st32{opacity:0.29;fill:#DEE5EA;enable-background:new    ;}
	.st33{opacity:0.33;fill:#D8E0E6;enable-background:new    ;}
	.st34{opacity:0.38;fill:#D3DCE3;enable-background:new    ;}
	.st35{opacity:0.43;fill:#CDD8DF;enable-background:new    ;}
	.st36{opacity:0.48;fill:#C8D3DC;enable-background:new    ;}
	.st37{opacity:0.52;fill:#C2CFD8;enable-background:new    ;}
	.st38{opacity:0.57;fill:#BDCAD5;enable-background:new    ;}
	.st39{opacity:0.62;fill:#B7C6D1;enable-background:new    ;}
	.st40{opacity:0.67;fill:#B2C2CE;enable-background:new    ;}
	.st41{opacity:0.71;fill:#ACBDCA;enable-background:new    ;}
	.st42{opacity:0.76;fill:#A7B9C7;enable-background:new    ;}
	.st43{opacity:0.81;fill:#A1B5C3;enable-background:new    ;}
	.st44{opacity:0.86;fill:#9CB0C0;enable-background:new    ;}
	.st45{opacity:0.9;fill:#96ACBC;enable-background:new    ;}
	.st46{opacity:0.95;fill:#91A7B9;enable-background:new    ;}
	.st47{fill:#E9F2F5;}
</style>
<g id="Ebene_1">
	<g>
		<g>
			<g>
				<path class="st0" d="M20.6,14.4c-2.5-4.8-7.8-6-10.6-5.3c-3.4,0.9-6.1,3.6-5.7,6.7c0.5,4.1,4,6.6,7.1,7.9
					C16.1,25.6,22.9,18.8,20.6,14.4z"/>
				<path class="st1" d="M20.3,14.5C17.9,9.8,12.7,8.6,10,9.3c-3.3,0.9-5.9,3.4-5.5,6.5c0.5,4,3.8,6.5,6.9,7.7
					C15.9,25.3,22.5,18.9,20.3,14.5z"/>
				<path class="st2" d="M20,14.6C17.8,10,12.6,8.8,9.9,9.5c-3.2,0.9-5.7,3.3-5.4,6.3c0.4,4,3.7,6.3,6.7,7.5
					C15.6,25,22.1,18.9,20,14.6z"/>
				<path class="st3" d="M19.8,14.7c-2.1-4.5-7.3-5.8-9.9-5.1c-3.1,0.8-5.5,3.2-5.2,6.1c0.4,4,3.6,6.3,6.4,7.4
					C15.4,24.7,21.7,18.9,19.8,14.7z"/>
				<path class="st4" d="M19.5,14.9c-2-4.3-7.1-5.7-9.6-5c-2.9,0.8-5.3,3.1-5,6c0.3,3.8,3.5,6.1,6.2,7.1
					C15.1,24.5,21.3,18.9,19.5,14.9z"/>
				<path class="st5" d="M19.2,15c-1.9-4.2-6.9-5.6-9.4-4.9C7,10.9,4.7,13,5,15.9c0.3,3.8,3.4,5.9,6,6.9C14.9,24.2,21,19,19.2,15z"
					/>
				<path class="st6" d="M18.9,15.1c-1.8-4.1-6.8-5.5-9.2-4.9C7,10.9,4.8,13,5,15.8c0.3,3.8,3.3,5.9,5.9,6.8
					C14.7,23.9,20.6,19,18.9,15.1z"/>
				<path class="st7" d="M18.6,15.2c-1.6-4-6.6-5.5-8.9-4.8c-2.6,0.7-4.7,2.7-4.5,5.5c0.2,3.6,3.1,5.7,5.6,6.5
					C14.4,23.6,20.2,19,18.6,15.2z"/>
				<path class="st8" d="M18.4,15.3c-1.5-3.9-6.4-5.4-8.7-4.7c-2.4,0.7-4.4,2.6-4.3,5.3c0.2,3.6,3,5.5,5.4,6.3
					C14.2,23.3,19.8,19.1,18.4,15.3z"/>
				<path class="st9" d="M18.1,15.5c-1.4-3.8-6.2-5.3-8.5-4.7c-2.3,0.7-4.2,2.5-4.1,5.1c0.1,3.5,2.9,5.4,5.2,6.1
					C14,23,19.4,19.1,18.1,15.5z"/>
				<path class="st10" d="M17.8,15.6c-1.3-3.6-6.1-5.2-8.2-4.6c-2.2,0.6-4,2.3-4,4.9c0.1,3.4,2.8,5.3,4.9,5.9
					C13.7,22.8,19.1,19.1,17.8,15.6z"/>
				<path class="st11" d="M17.5,15.7c-1.2-3.5-5.9-5.2-8-4.5c-2,0.6-3.8,2.2-3.8,4.8c0,3.4,2.7,5.2,4.7,5.7
					C13.5,22.5,18.7,19.1,17.5,15.7z"/>
				<path class="st12" d="M17.2,15.8c-1.1-3.4-5.7-5.1-7.8-4.5c-1.9,0.6-3.6,2.1-3.6,4.6c0,3.3,2.6,5,4.5,5.5
					C13.2,22.2,18.3,19.2,17.2,15.8z"/>
				<path class="st13" d="M17,16c-1-3.3-5.5-5-7.5-4.4c-1.8,0.5-3.4,2-3.4,4.4c-0.1,3.2,2.4,4.9,4.3,5.3C13,21.9,17.9,19.2,17,16z"
					/>
				<path class="st14" d="M16.7,16.1c-0.8-3.2-5.4-4.9-7.3-4.3c-1.7,0.5-3.2,1.9-3.3,4.3c-0.1,3.2,2.3,4.8,4.1,5.1
					C12.8,21.6,17.5,19.2,16.7,16.1z"/>
				<path class="st15" d="M16.4,16.2c-0.7-3-5.2-4.8-7-4.3c-1.5,0.5-3,1.7-3.1,4.1c-0.2,3.1,2.2,4.6,3.9,4.9
					C12.5,21.3,17.1,19.3,16.4,16.2z"/>
				<path class="st16" d="M16.1,16.3c-0.6-2.9-5-4.8-6.8-4.2c-1.4,0.4-2.8,1.6-2.9,3.9c-0.2,3,2.1,4.5,3.7,4.7
					C12.3,21.1,16.8,19.3,16.1,16.3z"/>
				<path class="st17" d="M15.9,16.4c-0.6-2.8-4.9-4.6-6.6-4.1C8,12.7,6.7,13.8,6.6,16c-0.2,3,2,4.4,3.4,4.5
					C12,20.8,16.4,19.3,15.9,16.4z"/>
				<path class="st18" d="M15.6,16.6c-0.4-2.7-4.7-4.6-6.3-4.1c-1.2,0.4-2.4,1.4-2.6,3.6c-0.3,2.9,1.9,4.2,3.2,4.3
					C11.8,20.5,16,19.3,15.6,16.6z"/>
				<path class="st19" d="M15.3,16.7c-0.3-2.6-4.5-4.5-6.1-4C8.2,13,7,14,6.8,16.1c-0.3,2.8,1.7,4.1,3,4.1
					C11.6,20.2,15.6,19.4,15.3,16.7z"/>
				<path class="st20" d="M15,16.8c-0.2-2.4-4.3-4.5-5.9-3.9c-0.9,0.3-1.9,1.1-2.2,3.2c-0.4,2.8,1.6,4,2.8,3.9
					C11.3,20,15.2,19.4,15,16.8z"/>
				<path class="st21" d="M14.7,16.9c-0.1-2.3-4.1-4.4-5.6-3.9c-0.8,0.3-1.7,1-2,3.1c-0.4,2.7,1.5,3.9,2.6,3.7
					C11.1,19.7,14.8,19.4,14.7,16.9z"/>
			</g>
			<g>
				<path class="st0" d="M69.2,27.9c3.4-5.9,2.7-9.4-0.7-12.4c-3.2-2.8-5.3-4.3-8.3-6.7c-2.5-2-5.3-8.5-14.1-8.5
					c-8.9,0-13.2,7.9-17.9,9.1c-5,1.3-10.8,2.1-17.2,4.6c-3.3,1.3-8.7,0.5-9.8,4.3c-0.3,1.3-1.9,5.1-1.2,8.4
					c0.3,1.5,2.6,4.7,5.3,6.6c3.6,2.5,8.5,3.2,10.6,3.8c2.5,0.8,4.8,1.1,6.5,1.3c3.6,0.4,3-0.8,5.9-0.5c3.7,0.4,5,0.7,6.7,0.6
					c1.6,0,6.8-0.3,8.3-0.6c4-0.8,4.6-0.5,6.6-1.2C54.2,35.5,66.4,32.9,69.2,27.9z"/>
				<path class="st1" d="M68.5,27.7c3.3-5.7,2.7-9.2-0.6-12.1c-3.1-2.8-5.2-4.2-8.2-6.6c-2.4-2-5.2-8.4-13.8-8.5
					c-8.7,0-13.2,7.8-17.7,9c-5,1.3-10.8,2-17,4.5c-3.2,1.3-8.8,0.4-9.7,4.2c-0.3,1.3-1.8,5-1,8.2C0.9,27.9,3,31,5.7,32.9
					c3.5,2.4,8.2,3.1,10.3,3.7c2.5,0.7,4.7,1.1,6.4,1.2c3.6,0.4,3.1-0.7,6-0.4c3.7,0.4,5,0.6,6.7,0.6c1.6,0,6.6-0.2,8.2-0.6
					c3.9-0.9,4.5-0.6,6.5-1.3C54,34.9,65.7,32.5,68.5,27.7z"/>
				<path class="st2" d="M67.8,27.5c3.3-5.5,2.6-8.9-0.5-11.8c-3-2.8-5.2-4.2-8.1-6.5c-2.4-2-5-8.2-13.4-8.3
					c-8.5-0.1-13.1,7.7-17.6,9c-4.9,1.3-10.7,1.9-16.8,4.4c-3.1,1.3-8.8,0.4-9.7,4.1c-0.3,1.4-1.6,4.9-0.8,8
					c0.4,1.5,2.4,4.5,5.1,6.4c3.4,2.4,8,3,10,3.5c2.5,0.6,4.6,1,6.4,1.2c3.5,0.3,3.2-0.6,6-0.3c3.7,0.4,5,0.5,6.8,0.5
					c1.6,0.1,6.5-0.1,8.1-0.5c3.8-0.9,4.3-0.7,6.3-1.4C53.8,34.3,65,32.1,67.8,27.5z"/>
				<path class="st3" d="M67.1,27.3c3.2-5.2,2.6-8.7-0.4-11.5c-3-2.9-5.2-4.1-8-6.4c-2.3-1.9-4.8-8.1-13-8.2
					c-8.3-0.2-13,7.7-17.5,8.9c-4.9,1.3-10.6,1.9-16.6,4.3c-3.1,1.2-8.9,0.3-9.7,4.1c-0.3,1.4-1.5,4.8-0.6,7.8
					c0.4,1.5,2.3,4.5,4.9,6.3c3.3,2.3,7.8,2.9,9.8,3.3c2.5,0.5,4.5,0.9,6.3,1.1c3.5,0.3,3.3-0.5,6.1-0.2c3.7,0.3,5.1,0.4,6.8,0.5
					s6.3,0,8-0.5c3.8-0.9,4.2-0.8,6.2-1.5C53.6,33.7,64.4,31.7,67.1,27.3z"/>
				<path class="st4" d="M66.4,27.1c3.1-5,2.6-8.4-0.3-11.2c-2.9-2.9-5.1-4-7.8-6.3c-2.3-1.9-4.6-8-12.6-8.1
					c-8.1-0.3-13,7.5-17.4,8.7c-4.9,1.3-10.6,1.8-16.4,4.2c-3,1.2-8.9,0.3-9.6,4C2,19.9,0.9,23.2,1.9,26c0.5,1.4,2.2,4.4,4.8,6.1
					c3.2,2.2,7.6,2.8,9.5,3.2c2.5,0.4,4.4,0.9,6.3,1.1c3.4,0.3,3.3-0.4,6.2-0.2c3.7,0.3,5.1,0.3,6.9,0.5c1.7,0.2,6.1,0,7.9-0.4
					c3.7-1,4.1-0.9,6.1-1.6C53.4,33.2,63.7,31.3,66.4,27.1z"/>
				<path class="st5" d="M65.7,26.8c3-4.8,2.5-8.1-0.2-10.9c-2.8-2.9-5.1-4-7.7-6.2c-2.2-1.9-4.5-7.8-12.2-8
					c-7.9-0.3-12.9,7.5-17.3,8.7c-4.8,1.3-10.5,1.8-16.2,4.1c-2.9,1.2-8.9,0.3-9.6,3.9c-0.3,1.5-1.2,4.7-0.2,7.4
					c0.5,1.4,2.1,4.3,4.6,6c3.1,2.2,7.3,2.7,9.2,3c2.5,0.3,4.4,0.8,6.3,1c3.4,0.3,3.4-0.3,6.2-0.1c3.7,0.3,5.1,0.2,6.9,0.4
					c1.7,0.2,5.9,0.1,7.8-0.4c3.7-1,4-0.9,6-1.7C53.3,32.6,63.1,31,65.7,26.8z"/>
				<path class="st6" d="M65,26.6c3-4.6,2.5-7.9-0.1-10.6c-2.7-2.9-5.1-3.9-7.6-6.1C55.2,8.1,53.1,2.2,45.5,2
					c-7.7-0.3-12.8,7.4-17.2,8.6c-4.8,1.3-10.4,1.7-16,3.9c-2.9,1.2-9,0.2-9.6,3.8c-0.3,1.6-1.1,4.6,0,7.2c0.5,1.4,2,4.2,4.5,5.9
					c3.1,2.1,7.1,2.6,9,2.8c2.5,0.3,4.3,0.8,6.2,0.9c3.4,0.3,3.5-0.2,6.3,0c3.6,0.3,5.1,0.1,7,0.4c1.7,0.3,5.8,0.2,7.7-0.3
					c3.6-1,3.9-1,5.8-1.8C53.1,32,62.4,30.6,65,26.6z"/>
				<path class="st7" d="M64.3,26.4c2.9-4.3,2.5-7.6,0-10.3c-2.6-2.9-5-3.9-7.5-6c-2.1-1.8-4.1-7.5-11.4-7.9
					c-7.6-0.3-12.8,7.4-17.1,8.6c-4.8,1.3-10.4,1.6-15.8,3.8c-2.8,1.1-9,0.2-9.6,3.8c-0.3,1.7-0.9,4.5,0.2,7
					c0.6,1.4,1.9,4.1,4.4,5.8c3,2,6.9,2.6,8.7,2.7c2.5,0.2,4.2,0.7,6.2,0.9c3.3,0.3,3.6-0.1,6.4,0.1c3.6,0.3,5.2,0,7,0.4
					c1.8,0.3,5.6,0.3,7.6-0.3c3.6-1,3.8-1.1,5.7-1.9C52.9,31.4,61.8,30.2,64.3,26.4z"/>
				<path class="st8" d="M63.6,26.2c2.8-4.1,2.4-7.4,0.1-10.1c-2.5-3-5-3.8-7.4-5.9c-2.1-1.8-3.9-7.4-11-7.8
					c-7.4-0.4-12.7,7.3-17,8.5c-4.7,1.3-10.3,1.6-15.6,3.7c-2.7,1.1-9,0.2-9.5,3.7c-0.3,1.8-0.8,4.5,0.4,6.8c0.6,1.3,1.8,4,4.2,5.6
					c2.9,1.9,6.7,2.6,8.5,2.5c2.5-0.1,4.1,0.7,6.2,0.8c3.3,0.3,3.7,0,6.4,0.2c3.6,0.2,5.2-0.1,7.1,0.3c1.8,0.4,5.4,0.4,7.5-0.2
					c3.5-1,3.6-1.2,5.6-2C52.7,30.9,61.1,29.8,63.6,26.2z"/>
				<path class="st9" d="M62.9,26c2.8-3.9,2.4-7.1,0.3-9.8c-2.5-3-4.9-3.8-7.2-5.7c-2-1.7-3.8-7.2-10.6-7.7
					c-7.2-0.4-12.7,7.2-16.9,8.4c-4.7,1.3-10.2,1.5-15.4,3.6c-2.7,1.1-9,0.1-9.5,3.6C3.4,20.2,3,22.8,4.2,25
					c0.7,1.3,1.7,3.9,4.1,5.5c2.8,1.9,6.4,2.5,8.2,2.4c2.4-0.2,4,0.6,6.1,0.8c3.3,0.2,3.7,0.1,6.5,0.2c3.6,0.2,5.2-0.2,7.1,0.3
					c1.8,0.4,5.2,0.5,7.4-0.2c3.5-1.1,3.5-1.3,5.5-2.2C52.5,30.3,60.4,29.4,62.9,26z"/>
				<path class="st10" d="M62.2,25.8c2.7-3.7,2.4-6.9,0.4-9.5c-2.4-3-4.9-3.7-7.1-5.6c-2-1.7-3.6-7.1-10.2-7.6
					c-7-0.5-12.6,7.2-16.8,8.3c-4.7,1.4-10.2,1.5-15.2,3.5c-2.6,1-9,0.1-9.5,3.6c-0.2,1.9-0.4,4.3,0.8,6.4c0.7,1.3,1.6,3.8,4,5.4
					c2.7,1.8,6.2,2.4,7.9,2.2c2.4-0.3,3.9,0.6,6.1,0.7c3.2,0.2,3.8,0.2,6.5,0.3c3.6,0.2,5.2-0.3,7.2,0.2c1.9,0.5,5.1,0.6,7.3-0.1
					c3.4-1.1,3.4-1.4,5.3-2.3C52.3,29.7,59.8,29.1,62.2,25.8z"/>
				<path class="st11" d="M61.5,25.5c2.6-3.5,2.4-6.6,0.5-9.2c-2.3-3.1-4.9-3.7-7-5.5c-1.9-1.7-3.4-7-9.8-7.5
					c-6.8-0.5-12.5,7.1-16.7,8.3c-4.6,1.3-10.1,1.4-15,3.4c-2.5,1-9.1,0.1-9.4,3.5c-0.2,1.9-0.3,4.2,0.9,6.2C5.8,26,6.5,28.5,8.8,30
					c2.7,1.7,6,2.2,7.7,2c2.5-0.2,3.8,0.5,6,0.6c3.2,0.2,3.9,0.3,6.6,0.4c3.6,0.2,5.3-0.3,7.2,0.2c1.9,0.5,4.9,0.6,7.2-0.1
					c3.4-1.1,3.3-1.4,5.2-2.4C52.2,29.1,59.1,28.7,61.5,25.5z"/>
				<path class="st12" d="M60.8,25.3c2.6-3.2,2.3-6.4,0.6-8.9c-2.2-3.1-4.8-3.6-6.9-5.4c-1.8-1.6-3.2-6.8-9.5-7.4
					c-6.6-0.6-12.5,7-16.6,8.2c-4.6,1.3-10,1.3-14.7,3.2c-2.5,1-9.1,0-9.4,3.4c-0.2,2-0.1,4.2,1.1,6c0.8,1.2,1.4,3.7,3.7,5.1
					c2.6,1.7,5.8,2.1,7.4,1.9c2.5-0.3,3.7,0.4,6,0.6c3.1,0.2,4,0.3,6.7,0.5c3.6,0.2,5.3-0.4,7.3,0.2c1.9,0.6,4.7,0.7,7.1,0
					c3.3-1.1,3.2-1.5,5.1-2.5C52,28.6,58.5,28.3,60.8,25.3z"/>
				<path class="st13" d="M60.1,25.1c2.5-3,2.3-6.1,0.7-8.6c-2.1-3.1-4.8-3.5-6.7-5.3C52.3,9.6,51,4.5,45,3.9
					c-6.4-0.6-12.4,6.9-16.5,8.1c-4.5,1.3-9.9,1.3-14.5,3.1c-2.4,1-9.1,0-9.4,3.3c-0.2,2.1,0.1,4.1,1.3,5.8c0.9,1.2,1.3,3.6,3.6,5
					c2.5,1.6,5.6,2,7.2,1.7c2.5-0.4,3.6,0.4,6,0.5c3.1,0.2,4,0.4,6.7,0.6c3.5,0.2,5.3-0.5,7.3,0.1s4.5,0.8,7,0
					c3.3-1.1,3.1-1.6,4.9-2.6C51.8,28,57.8,27.9,60.1,25.1z"/>
				<path class="st14" d="M59.4,24.9c2.4-2.8,2.3-5.9,0.8-8.3c-2-3.2-4.8-3.5-6.6-5.2c-1.7-1.6-2.9-6.5-8.7-7.2
					c-6.3-0.7-12.3,6.9-16.3,8c-4.5,1.3-9.9,1.2-14.3,3c-2.3,0.9-9.1,0-9.4,3.3c-0.2,2.1,0.3,4,1.5,5.6c0.9,1.2,1.2,3.5,3.4,4.9
					c2.4,1.5,5.3,1.9,6.9,1.5c2.5-0.5,3.5,0.3,5.9,0.5c3.1,0.2,4.1,0.5,6.8,0.6c3.5,0.1,5.3-0.6,7.4,0.1c2,0.7,4.4,0.9,6.9,0
					c3.2-1.1,3-1.7,4.8-2.7C51.6,27.4,57.1,27.5,59.4,24.9z"/>
				<path class="st15" d="M58.7,24.7c2.3-2.6,2.3-5.6,0.9-8c-1.9-3.2-4.7-3.4-6.5-5.1c-1.7-1.6-2.7-6.4-8.3-7.1
					c-6.1-0.8-12.3,6.8-16.2,8c-4.5,1.3-9.8,1.2-14.1,2.9c-2.3,0.9-9.1-0.1-9.3,3.2c-0.1,2.2,0.4,3.9,1.7,5.4c1,1.1,1.1,3.4,3.3,4.8
					c2.3,1.5,5.1,1.7,6.6,1.4c2.5-0.6,3.4,0.3,5.9,0.4c3,0.2,4.2,0.6,6.9,0.7c3.5,0.1,5.4-0.7,7.4,0.1s4.2,1,6.8,0.1
					c3.2-1.1,2.9-1.7,4.7-2.8C51.4,26.9,56.5,27.1,58.7,24.7z"/>
				<path class="st16" d="M58,24.5c2.3-2.3,2.2-5.4,1-7.7c-1.8-3.2-4.7-3.4-6.4-5c-1.6-1.5-2.5-6.3-7.9-7
					c-5.9-0.8-12.2,6.7-16.1,7.9c-4.4,1.3-9.7,1.1-13.9,2.8c-2.2,0.9-9.1-0.1-9.3,3.1c-0.1,2.3,0.6,3.8,1.9,5.2c1,1.1,1,3.3,3.1,4.6
					c2.2,1.4,4.9,1.6,6.4,1.2c2.5-0.7,3.3,0.2,5.9,0.4c3,0.1,4.3,0.7,6.9,0.8c3.5,0.1,5.4-0.8,7.4,0c2.1,0.8,4,1.1,6.7,0.1
					c3.1-1.1,2.7-1.8,4.6-2.9C51.3,26.3,55.8,26.7,58,24.5z"/>
				<path class="st17" d="M57.3,24.2c2.2-2.1,2.2-5.2,1.1-7.4c-1.7-3.3-4.6-3.3-6.3-4.9c-1.6-1.5-2.3-6.1-7.5-6.9
					c-5.7-0.9-12.1,6.6-16,7.8c-4.4,1.3-9.7,1-13.7,2.7c-2.1,0.8-9.1-0.1-9.3,3.1c-0.1,2.3,0.8,3.8,2.1,5c1.1,1.1,0.9,3.2,3,4.5
					c2.2,1.3,4.7,1.5,6.1,1c2.5-0.8,3.3,0.2,5.8,0.3c2.9,0.1,4.4,0.8,7,0.9c3.5,0.1,5.4-0.9,7.5,0s3.9,1.2,6.6,0.2
					c3.1-1.1,2.6-1.9,4.4-3C51.1,25.7,55.1,26.4,57.3,24.2z"/>
				<path class="st18" d="M56.6,24c2.1-1.9,2.2-4.9,1.2-7.1c-1.6-3.3-4.6-3.3-6.1-4.7c-1.5-1.5-2.2-6-7.1-6.8
					c-5.5-0.9-12.1,6.6-15.9,7.7c-4.4,1.3-9.6,1-13.5,2.5c-2,0.8-9.1-0.1-9.2,3c-0.1,2.4,1,3.7,2.3,4.8c1.1,1,0.8,3.2,2.9,4.4
					c2.1,1.3,4.4,1.4,5.8,0.9c2.5-1,3.2,0.1,5.8,0.2c2.9,0.1,4.4,0.9,7.1,1c3.5,0.1,5.4-1,7.5-0.1c2.1,0.9,3.7,1.3,6.5,0.2
					c3-1.2,2.5-2,4.3-3.1C50.9,25.2,54.5,26,56.6,24z"/>
				<path class="st19" d="M55.9,23.8c2-1.7,2.2-4.7,1.3-6.8c-1.5-3.4-4.6-3.2-6-4.6c-1.5-1.4-2-5.9-6.7-6.7c-5.3-1-12,6.5-15.8,7.6
					c-4.3,1.3-9.5,0.9-13.3,2.4c-2,0.8-9.1-0.2-9.2,2.9c-0.1,2.5,1.2,3.6,2.5,4.6c1.2,1,0.7,3.1,2.7,4.3s4.2,1.3,5.6,0.7
					c2.4-1.1,3.1,0.1,5.7,0.2c2.9,0.1,4.5,1,7.1,1c3.4,0,5.5-1.1,7.6-0.1s3.5,1.4,6.4,0.3c3-1.2,2.4-2.1,4.2-3.3
					C50.7,24.6,53.8,25.6,55.9,23.8z"/>
				<path class="st20" d="M55.2,23.6c1.9-1.5,2.2-4.4,1.4-6.5c-1.3-3.4-4.5-3.2-5.9-4.5c-1.4-1.4-1.8-5.8-6.3-6.6
					c-5.2-1-12,6.4-15.7,7.6c-4.3,1.3-9.5,0.9-13.1,2.3c-1.9,0.8-9.1-0.2-9.2,2.9c0,2.5,1.3,3.5,2.7,4.4c1.3,0.9,0.6,3,2.6,4.1
					c1.9,1.1,4,1.2,5.3,0.5c2.4-1.2,3,0,5.7,0.1c2.8,0.1,4.6,1.1,7.2,1.1c3.4,0,5.5-1.2,7.6-0.1c2.2,1,3.4,1.5,6.3,0.3
					c2.9-1.2,2.3-2.1,4-3.4C50.6,24,53.1,25.2,55.2,23.6z"/>
				<path class="st21" d="M54.5,23.4c1.9-1.3,2.2-4.2,1.5-6.2c-1.2-3.4-4.5-3.1-5.8-4.4c-1.3-1.4-1.6-5.6-5.9-6.5
					c-5-1.1-11.9,6.3-15.6,7.5c-4.3,1.3-9.4,0.8-12.9,2.2c-1.8,0.7-9.2-0.2-9.2,2.8c0,2.6,1.5,3.4,2.9,4.3c1.3,0.9,0.5,2.9,2.5,4
					c1.8,1.1,3.7,1.1,5.1,0.4c2.4-1.3,2.9,0,5.7,0.1s4.7,1.2,7.3,1.2c3.4,0,5.5-1.2,7.7-0.2C40,29.7,41,30.2,44,29
					c2.9-1.2,2.2-2.2,3.9-3.5C50.4,23.5,52.5,24.8,54.5,23.4z"/>
			</g>
			<path class="st22" d="M50.1,12.6c-0.2,0-0.3,0-0.5,0c-0.3-5.8-5.1-10.5-11-10.5c-5.2,0-9.6,3.6-10.7,8.5c-1-0.5-2.1-0.8-3.3-0.8
				c-2.5,0-4.7,1.3-6,3.3c-0.7-0.5-1.6-0.8-2.6-0.8c-1.1,0-2.1,0.4-2.9,1.1c-1.1-1.3-2.7-2.1-4.5-2.1c-3.2,0-5.8,2.6-5.8,5.8
				s2.6,5.8,5.8,5.8l0,0c0.3,2.9,2.8,5.1,5.7,5.1c1.9,0,3.6-0.9,4.6-2.3c0.8,1.1,2.1,1.8,3.6,1.8c1.2,0,2.3-0.5,3.1-1.2
				c1,1.5,2.8,2.4,4.7,2.4c1.7,0,3.3-0.8,4.4-2c1.3,1.8,3.4,2.9,5.8,2.9c3.5,0,6.4-2.5,7.1-5.9c0.8,0.4,1.6,0.6,2.5,0.6
				c3.2,0,5.8-2.6,5.8-5.8S53.3,12.6,50.1,12.6z"/>
			<path class="st23" d="M50.2,12.8c-0.2,0-0.3,0-0.5,0C49.4,7,44.6,2.3,38.7,2.3c-5.2,0-9.6,3.6-10.7,8.5c-1-0.5-2.1-0.8-3.3-0.8
				c-2.5,0-4.7,1.3-6,3.3c-0.7-0.5-1.6-0.8-2.6-0.8c-1.1,0-2.1,0.4-2.9,1.1c-1.1-1.3-2.7-2.1-4.5-2.1c-3.2,0-5.8,2.6-5.8,5.8
				s2.6,5.8,5.8,5.8l0,0c0.3,2.9,2.8,5.1,5.7,5.1c1.9,0,3.6-0.9,4.6-2.3c0.8,1.1,2.1,1.8,3.6,1.8c1.2,0,2.3-0.5,3.1-1.2
				c1,1.5,2.8,2.4,4.7,2.4c1.7,0,3.3-0.8,4.4-2c1.3,1.8,3.4,2.9,5.8,2.9c3.5,0,6.4-2.5,7.1-5.9c0.8,0.4,1.6,0.6,2.5,0.6
				c3.2,0,5.8-2.6,5.8-5.8S53.4,12.8,50.2,12.8z"/>
		</g>
		<g>
			<g>
				<path class="st0" d="M53.9,26.6c6.1-1.2,7-6.6,5-10.3c-1.1-2.1-2.9-5-5.3-6.8c-1.8-1.3-3.7-3.7-6.8-4.2
					C38.9,4,36.6,10.4,31.2,13c-4.8,2.4-9.4-0.8-13.8,1c-2.3,0.9-6.5,1.2-7.9,3.5c-1.6,2.8-0.6,5.2,1.8,8.2c1.5,1.8,2.7,2.8,4.8,3.9
					c1.7,0.9,3.1,0.9,4.6,1.3c1.7,0.5,3.2,1,4.3,1.1c2.5,0.3,3.6,0.6,5.6,0.9c2.6,0.3,3.6-1.1,4.8-1c2.1,0.1,4.2,0.4,5.8-0.1
					c2.7-0.8,3.7-1.1,5.1-1.6C49.2,29.3,50,27.3,53.9,26.6z"/>
				<path class="st1" d="M53.6,26.3c5.9-1.1,6.8-6.3,4.9-9.9c-1.1-2.1-2.9-4.9-5.3-6.7c-1.7-1.3-3.6-3.6-6.7-4.2
					c-7.7-1.3-10.3,5-15.5,7.6c-4.7,2.3-9.2-0.7-13.6,1.1c-2.2,0.9-6.7,1.1-8,3.5c-1.5,2.7-0.5,5.1,1.9,7.9c1.5,1.7,2.8,2.6,4.8,3.7
					c1.7,1,3.2,0.9,4.6,1.4c1.7,0.5,3.1,0.9,4.3,1.1c2.5,0.4,3.5,0.7,5.5,0.9c2.6,0.3,3.6-1.1,4.8-1c2.1,0,4.1,0.3,5.7-0.2
					c2.6-0.8,3.6-1.2,5-1.6C49.1,29,49.8,27,53.6,26.3z"/>
				<path class="st2" d="M53.4,26c5.7-1,6.6-6,4.8-9.5c-1.1-2-2.9-4.8-5.2-6.6c-1.7-1.3-3.5-3.6-6.5-4.1C39,4.4,36.1,10.7,31,13.2
					c-4.6,2.3-9.1-0.6-13.4,1.1c-2.2,0.9-6.8,1.1-8,3.5c-1.4,2.7-0.4,5.1,1.9,7.6c1.4,1.6,2.8,2.5,4.8,3.6c1.7,1,3.2,1,4.6,1.4
					c1.8,0.5,3,0.8,4.2,1c2.4,0.4,3.4,0.7,5.4,0.9c2.7,0.3,3.6-1,4.8-1.1c2.1-0.1,4,0.3,5.7-0.2c2.6-0.8,3.5-1.2,4.9-1.6
					C48.9,28.7,49.7,26.7,53.4,26z"/>
				<path class="st3" d="M53.1,25.7c5.5-1,6.4-5.7,4.7-9.1c-1-2-2.9-4.7-5.2-6.6c-1.6-1.3-3.3-3.5-6.3-4.1
					c-7.2-1.4-10.5,4.9-15.4,7.3c-4.5,2.2-9-0.6-13.1,1.1c-2.1,0.9-6.9,1.1-8.1,3.4c-1.3,2.7-0.2,5,2,7.4c1.4,1.5,2.9,2.4,4.8,3.5
					c1.7,1.1,3.2,1.1,4.7,1.5c1.8,0.5,3,0.8,4.1,1c2.3,0.5,3.3,0.7,5.3,0.9c2.7,0.2,3.7-1,4.9-1.1c2.1-0.1,3.9,0.3,5.6-0.3
					c2.6-0.8,3.4-1.3,4.8-1.6C48.8,28.4,49.5,26.3,53.1,25.7z"/>
				<path class="st4" d="M52.9,25.4c5.3-0.9,6.2-5.4,4.6-8.7c-1-2-2.9-4.7-5.1-6.5c-1.6-1.3-3.3-3.5-6.2-4.1
					c-7-1.5-10.6,4.8-15.4,7.1c-4.5,2.1-8.8-0.5-12.9,1.1c-2.1,0.8-7.1,1.1-8.2,3.4c-1.2,2.6-0.1,4.9,2.1,7.1c1.4,1.4,3,2.2,4.8,3.4
					c1.7,1.1,3.3,1.2,4.7,1.6c1.8,0.5,2.9,0.7,4.1,1c2.2,0.6,3.2,0.7,5.2,0.9c2.7,0.2,3.7-1,4.9-1.1c2-0.2,3.8,0.2,5.5-0.3
					c2.5-0.8,3.3-1.3,4.7-1.6C48.7,28,49.4,26,52.9,25.4z"/>
				<path class="st5" d="M52.6,25.1c5.1-0.8,6-5.1,4.5-8.3c-0.9-2-2.9-4.6-5.1-6.4c-1.5-1.3-3.1-3.5-6-4.1c-6.7-1.5-10.6,4.7-15.2,7
					c-4.4,2.1-8.7-0.4-12.7,1.2c-2,0.8-7.2,1.1-8.2,3.4c-1.2,2.6,0,4.8,2.2,6.8c1.4,1.3,3,2.1,4.8,3.2c1.7,1.2,3.3,1.3,4.7,1.6
					c1.8,0.4,2.8,0.6,4,0.9c2.2,0.7,3.1,0.8,5.1,0.9c2.7,0.2,3.7-1,4.9-1.1c2-0.3,3.7,0.2,5.4-0.4c2.5-0.8,3.2-1.4,4.7-1.6
					C48.6,27.7,49.3,25.7,52.6,25.1z"/>
				<path class="st6" d="M52.4,24.9c4.9-0.8,5.8-4.8,4.4-7.9c-0.9-2-2.9-4.5-5-6.4c-1.5-1.3-3-3.4-5.8-4.1
					c-6.5-1.5-10.7,4.7-15.3,6.8c-4.3,2-8.6-0.4-12.4,1.2c-2,0.8-7.3,1-8.3,3.3c-1.1,2.5,0.1,4.7,2.3,6.6c1.3,1.2,3.1,1.9,4.8,3.1
					s3.4,1.4,4.7,1.7c1.8,0.4,2.8,0.5,4,0.9c2.1,0.7,3,0.8,5,0.9c2.8,0.2,3.7-0.9,4.9-1.2c2-0.4,3.6,0.2,5.4-0.4
					c2.5-0.8,3.1-1.4,4.6-1.6C48.5,27.4,49.1,25.4,52.4,24.9z"/>
				<path class="st7" d="M52.1,24.6c4.7-0.7,5.6-4.5,4.3-7.5c-0.8-2-2.9-4.4-5-6.3c-1.4-1.3-2.9-3.4-5.7-4.1
					c-6.3-1.6-10.8,4.6-15.2,6.6c-4.2,1.9-8.4-0.3-12.2,1.2c-2,0.8-7.4,1-8.4,3.3c-1,2.5,0.3,4.6,2.3,6.3c1.3,1.1,3.1,1.8,4.8,3
					c1.7,1.3,3.4,1.4,4.8,1.7c1.8,0.4,2.7,0.4,3.9,0.9c2,0.8,3,0.8,4.9,0.9c2.8,0.2,3.7-0.9,5-1.2c2-0.5,3.5,0.1,5.3-0.5
					c2.5-0.8,3-1.4,4.5-1.6C48.4,27.1,49,25,52.1,24.6z"/>
				<path class="st8" d="M51.9,24.3c4.4-0.6,5.4-4.2,4.2-7.1c-0.8-2-2.9-4.3-4.9-6.2c-1.4-1.3-2.8-3.3-5.5-4
					c-6-1.6-10.9,4.5-15.2,6.5c-4.1,1.9-8.3-0.3-12,1.2c-1.9,0.8-7.6,1-8.4,3.3c-0.9,2.4,0.4,4.5,2.4,6c1.3,1,3.2,1.7,4.8,2.9
					c1.7,1.3,3.5,1.5,4.8,1.8c1.8,0.4,2.6,0.3,3.9,0.8c2,0.8,2.9,0.8,4.8,0.9c2.8,0.2,3.7-0.9,5-1.2c1.9-0.5,3.4,0.1,5.2-0.5
					c2.4-0.8,2.9-1.5,4.4-1.6C48.2,26.7,48.8,24.7,51.9,24.3z"/>
				<path class="st9" d="M51.7,24c4.2-0.6,5.2-3.9,4.1-6.7c-0.7-1.9-2.8-4.2-4.9-6.2c-1.3-1.3-2.7-3.3-5.3-4
					c-5.8-1.6-11,4.5-15.1,6.3c-4,1.8-8.2-0.2-11.8,1.3c-1.9,0.7-7.7,1-8.5,3.2c-0.9,2.4,0.5,4.4,2.5,5.8c1.3,0.9,3.3,1.5,4.8,2.7
					c1.7,1.4,3.5,1.6,4.8,1.8c1.9,0.4,2.5,0.2,3.8,0.8c1.9,0.9,2.8,0.8,4.7,1c2.8,0.2,3.8-0.8,5-1.2c1.9-0.6,3.3,0.1,5.1-0.6
					c2.4-0.8,2.8-1.5,4.3-1.6C48.1,26.4,48.7,24.4,51.7,24z"/>
				<path class="st10" d="M51.4,23.7c4-0.5,5-3.6,4-6.3c-0.7-1.9-2.8-4.2-4.8-6.1c-1.3-1.3-2.6-3.2-5.2-4
					c-5.6-1.7-11.1,4.4-15.1,6.2c-3.9,1.7-8-0.1-11.5,1.3c-1.8,0.7-7.8,1-8.6,3.2c-0.8,2.3,0.6,4.3,2.6,5.5c1.2,0.8,3.3,1.4,4.8,2.6
					c1.7,1.4,3.6,1.7,4.9,1.9c1.9,0.3,2.5,0.1,3.8,0.8c1.8,0.9,2.7,0.9,4.6,1c2.9,0.2,3.8-0.8,5-1.2c1.9-0.7,3.2,0,5.1-0.6
					c2.4-0.8,2.7-1.6,4.2-1.6C48,26.1,48.5,24.1,51.4,23.7z"/>
				<path class="st11" d="M51.2,23.4c3.8-0.4,4.8-3.3,3.9-5.9c-0.6-1.9-2.8-4.1-4.8-6c-1.2-1.2-2.4-3.2-5-4c-5.3-1.7-11.1,4.3-15,6
					c-3.8,1.6-7.9-0.1-11.3,1.3c-1.8,0.7-8,0.9-8.7,3.2s0.8,4.2,2.6,5.2c1.2,0.6,3.4,1.3,4.8,2.5c1.7,1.5,3.6,1.7,4.9,2
					c1.9,0.3,2.4,0,3.7,0.7c1.8,1,2.6,0.9,4.5,1c2.9,0.1,3.8-0.8,5.1-1.3c1.9-0.8,3.1,0,5-0.7c2.3-0.8,2.6-1.6,4.1-1.6
					C47.9,25.8,48.4,23.7,51.2,23.4z"/>
				<path class="st12" d="M50.9,23.1c3.6-0.4,4.6-3,3.9-5.5c-0.6-1.9-2.8-4-4.7-6c-1.2-1.2-2.3-3.1-4.8-4c-5.1-1.7-11.2,4.3-15,5.8
					c-3.8,1.6-7.8,0-11.1,1.3c-1.7,0.7-8.1,0.9-8.7,3.1s0.9,4.1,2.7,5c1.2,0.5,3.4,1.1,4.8,2.4c1.7,1.6,3.7,1.8,4.9,2
					c1.9,0.3,2.3-0.1,3.6,0.7c1.7,1,2.5,0.9,4.4,1c2.9,0.1,3.8-0.7,5.1-1.3c1.9-0.8,3,0,4.9-0.7c2.3-0.8,2.6-1.7,4-1.6
					C47.8,25.4,48.2,23.4,50.9,23.1z"/>
				<path class="st13" d="M50.7,22.9c3.4-0.3,4.4-2.7,3.8-5.1c-0.5-1.9-2.8-3.9-4.7-5.9c-1.1-1.2-2.2-3.1-4.7-4
					c-4.9-1.7-11.3,4.2-15,5.7s-7.6,0.1-10.8,1.4c-1.7,0.7-8.2,0.9-8.8,3.1c-0.6,2.2,1,4,2.8,4.7c1.2,0.4,3.5,1,4.8,2.2
					c1.7,1.6,3.7,1.9,5,2.1c1.9,0.3,2.3-0.2,3.6,0.7c1.7,1.1,2.4,0.9,4.3,1c2.9,0.1,3.9-0.7,5.1-1.3c1.8-0.9,2.9-0.1,4.8-0.8
					c2.3-0.8,2.5-1.7,3.9-1.7C47.7,25.1,48.1,23.1,50.7,22.9z"/>
				<path class="st14" d="M50.4,22.6c3.2-0.2,4.2-2.4,3.7-4.7c-0.4-1.9-2.8-3.8-4.6-5.9c-1.1-1.2-2.1-3-4.5-3.9
					c-4.6-1.7-11.4,4.1-14.9,5.5c-3.6,1.4-7.5,0.1-10.6,1.4c-1.6,0.7-8.4,0.9-8.9,3.1c-0.5,2.1,1.1,3.9,2.9,4.4
					c1.1,0.3,3.5,0.9,4.8,2.1c1.7,1.7,3.8,2,5,2.1c1.9,0.3,2.2-0.3,3.5,0.6c1.6,1.1,2.3,0.9,4.2,1c3,0.1,3.9-0.7,5.1-1.3
					c1.8-1,2.8-0.1,4.8-0.8c2.2-0.8,2.4-1.8,3.8-1.7C47.5,24.8,48,22.8,50.4,22.6z"/>
				<path class="st15" d="M50.2,22.3c2.9-0.2,4-2.1,3.6-4.3c-0.4-1.9-2.8-3.7-4.5-5.8c-1-1.2-2-3-4.3-3.9c-4.4-1.8-11.5,4-14.9,5.4
					c-3.5,1.4-7.4,0.2-10.4,1.4c-1.6,0.6-8.5,0.8-8.9,3c-0.4,2.1,1.3,3.8,3,4.2c1.1,0.2,3.6,0.8,4.8,2c1.7,1.8,3.8,2,5,2.2
					c2,0.2,2.1-0.4,3.5,0.6c1.5,1.1,2.2,1,4.1,1c3,0.1,3.9-0.6,5.2-1.4c1.8-1,2.7-0.1,4.7-0.9c2.2-0.8,2.3-1.8,3.7-1.7
					C47.4,24.5,47.8,22.4,50.2,22.3z"/>
				<path class="st16" d="M49.9,22c2.7-0.1,3.8-1.8,3.5-3.9c-0.3-1.9-2.8-3.6-4.5-5.7c-1-1.2-1.9-2.9-4.2-3.9
					c-4.2-1.8-11.6,4-14.8,5.2c-3.4,1.3-7.2,0.2-10.1,1.4c-1.5,0.6-8.6,0.8-9,3c-0.3,2,1.4,3.7,3,3.9c1.1,0.1,3.6,0.6,4.8,1.9
					c1.7,1.8,3.9,2.1,5,2.2c2,0.2,2.1-0.5,3.4,0.6c1.5,1.2,2.1,1,4,1c3,0.1,3.9-0.6,5.2-1.4c1.8-1.1,2.6-0.2,4.6-0.9
					c2.2-0.8,2.2-1.9,3.6-1.7C47.3,24.1,47.7,22.1,49.9,22z"/>
				<path class="st17" d="M49.7,21.7c2.5-0.1,3.6-1.5,3.4-3.5c-0.3-1.9-2.8-3.6-4.4-5.7c-0.9-1.2-1.7-2.9-4-3.9
					c-3.9-1.8-11.6,3.9-14.8,5c-3.3,1.2-7.1,0.3-9.9,1.4c-1.5,0.6-8.8,0.8-9.1,3c-0.3,2,1.5,3.7,3.1,3.6c1.1-0.1,3.7,0.5,4.8,1.7
					c1.7,1.9,3.9,2.2,5.1,2.3c2,0.2,2-0.6,3.4,0.5c1.4,1.2,2,1,3.9,1c3,0.1,3.9-0.5,5.2-1.4c1.8-1.2,2.5-0.2,4.5-1
					c2.1-0.8,2.1-1.9,3.5-1.7C47.2,23.8,47.5,21.8,49.7,21.7z"/>
				<path class="st18" d="M49.4,21.4c2.3-0.1,3.5-1.2,3.3-3.1s-2.8-3.5-4.4-5.6c-0.9-1.2-1.6-2.8-3.8-3.9
					c-3.7-1.8-11.7,3.8-14.7,4.9c-3.2,1.1-7,0.4-9.7,1.5c-1.4,0.6-8.9,0.8-9.1,2.9c-0.2,2,1.7,3.5,3.2,3.4c1.1-0.1,3.7,0.4,4.8,1.6
					c1.7,2,4,2.3,5.1,2.4c2,0.2,2-0.7,3.3,0.5c1.4,1.2,2,1,3.8,1c3.1,0,4-0.5,5.2-1.4c1.8-1.2,2.4-0.2,4.5-1s2-2,3.4-1.7
					C47.1,23.5,47.4,21.5,49.4,21.4z"/>
				<path class="st19" d="M49.2,21.1c2.1,0,3.3-1,3.2-2.7c-0.1-1.9-2.8-3.4-4.3-5.5c-0.8-1.2-1.5-2.7-3.7-3.9
					c-3.5-1.8-11.8,3.8-14.7,4.7c-3.2,1.1-6.8,0.4-9.5,1.5c-1.4,0.6-9.1,0.7-9.2,2.9c-0.1,1.9,1.8,3.4,3.3,3.1
					c1-0.2,3.8,0.3,4.8,1.5c1.6,2,4,2.3,5.1,2.4c2,0.1,1.9-0.8,3.3,0.5c1.3,1.3,1.9,1,3.7,1.1c3.1,0,4-0.5,5.3-1.4
					c1.7-1.3,2.3-0.2,4.4-1.1c2.1-0.8,1.9-2,3.3-1.7C47,23.1,47.2,21.1,49.2,21.1z"/>
				<path class="st20" d="M48.9,20.9c1.9,0.1,3.1-0.7,3.1-2.2c0-1.8-2.8-3.3-4.3-5.5c-0.8-1.1-1.4-2.7-3.5-3.8
					C41,7.5,32.3,13,29.6,13.9c-3.1,1-6.7,0.5-9.2,1.5c-1.3,0.5-9.2,0.7-9.3,2.9c-0.1,1.9,1.9,3.3,3.4,2.8c1-0.4,3.8,0.1,4.8,1.4
					c1.6,2.1,4.1,2.4,5.2,2.5c2,0.1,1.9-0.9,3.2,0.4c1.3,1.3,1.8,1.1,3.6,1.1c3.1,0,4-0.4,5.3-1.5c1.7-1.4,2.2-0.3,4.3-1.1
					c2.1-0.8,1.8-2.1,3.2-1.7C46.8,22.8,47.1,20.8,48.9,20.9z"/>
				<path class="st21" d="M48.7,20.6c1.6,0.1,2.9-0.4,3-1.8c0.1-1.8-2.8-3.2-4.2-5.4c-0.7-1.1-1.3-2.6-3.3-3.8
					c-3.1-1.8-12,3.6-14.6,4.4c-3,0.9-6.6,0.6-9,1.5c-1.3,0.5-9.4,0.7-9.4,2.8c0,1.8,2,3.2,3.4,2.6c1-0.5,3.9,0,4.8,1.2
					c1.6,2.2,4.2,2.5,5.2,2.5c2,0.1,1.8-1,3.1,0.4c1.2,1.3,1.7,1.1,3.5,1.1c3.1,0,4-0.4,5.3-1.5c1.7-1.4,2.1-0.3,4.2-1.2
					c2-0.8,1.7-2.1,3.1-1.7C46.7,22.5,46.9,20.4,48.7,20.6z"/>
			</g>
			<g>
				<path class="st0" d="M36.7,9.7c-2.5-4.8-7.8-6-10.6-5.3C22.7,5.3,20,8,20.4,11.1c0.5,4.1,4,6.6,7.1,7.9
					C32.2,21,39,14.2,36.7,9.7z"/>
				<path class="st1" d="M36.5,9.8c-2.4-4.7-7.6-5.9-10.3-5.2c-3.3,0.9-5.9,3.4-5.5,6.5c0.5,4,3.8,6.5,6.9,7.7
					C32,20.6,38.7,14.2,36.5,9.8z"/>
				<path class="st2" d="M36.2,9.9C34,5.3,28.8,4,26.1,4.7C22.9,5.6,20.4,8,20.7,11c0.4,4,3.7,6.3,6.7,7.5
					C31.8,20.3,38.3,14.1,36.2,9.9z"/>
				<path class="st3" d="M36,9.9c-2.1-4.5-7.3-5.8-9.9-5.1C23,5.6,20.6,8,20.9,10.9c0.4,3.9,3.6,6.2,6.4,7.3
					C31.6,19.9,38,14.1,36,9.9z"/>
				<path class="st4" d="M35.7,10c-2-4.3-7.1-5.7-9.6-5c-2.9,0.8-5.3,3.1-5,6c0.3,3.8,3.5,6.1,6.2,7.1C31.4,19.6,37.6,14.1,35.7,10z
					"/>
				<path class="st5" d="M35.5,10.1c-1.9-4.2-6.9-5.6-9.4-4.9C23.3,6,21,8.1,21.3,11c0.3,3.8,3.4,5.9,6,6.9
					C31.2,19.3,37.3,14.1,35.5,10.1z"/>
				<path class="st6" d="M35.2,10.1C33.4,6,28.4,4.6,26,5.2c-2.7,0.7-4.9,2.8-4.7,5.6c0.3,3.7,3.3,5.8,5.8,6.7
					C31,18.9,36.9,14,35.2,10.1z"/>
				<path class="st7" d="M35,10.2c-1.6-4-6.6-5.5-8.9-4.8c-2.6,0.7-4.7,2.7-4.5,5.5c0.2,3.6,3.1,5.7,5.6,6.5
					C30.8,18.6,36.6,14,35,10.2z"/>
				<path class="st8" d="M34.7,10.3c-1.5-3.9-6.4-5.4-8.7-4.7c-2.4,0.7-4.4,2.6-4.3,5.3c0.2,3.6,3,5.6,5.4,6.3
					C30.6,18.2,36.2,14,34.7,10.3z"/>
				<path class="st9" d="M34.5,10.3C33.1,6.6,28.3,5,26,5.7s-4.2,2.5-4.1,5.1c0.1,3.5,2.9,5.4,5.2,6.1
					C30.4,17.9,35.9,13.9,34.5,10.3z"/>
				<path class="st10" d="M34.2,10.4c-1.3-3.6-6.1-5.2-8.2-4.6c-2.2,0.6-4,2.3-4,4.9c0.1,3.4,2.8,5.3,4.9,5.9
					C30.2,17.6,35.5,13.9,34.2,10.4z"/>
				<path class="st11" d="M34,10.5C32.8,7,28.1,5.3,26,6c-2,0.6-3.8,2.2-3.8,4.8c0,3.4,2.7,5.2,4.7,5.7C29.9,17.2,35.2,13.9,34,10.5
					z"/>
				<path class="st12" d="M33.7,10.5C32.6,7.1,28,5.4,25.9,6c-1.9,0.6-3.6,2.1-3.6,4.6c0,3.3,2.6,5,4.5,5.5
					C29.7,16.9,34.8,13.9,33.7,10.5z"/>
				<path class="st13" d="M33.5,10.6c-1-3.3-5.5-5-7.5-4.4c-1.8,0.5-3.4,2-3.4,4.4c-0.1,3.2,2.4,4.9,4.3,5.3
					C29.5,16.6,34.4,13.8,33.5,10.6z"/>
				<path class="st14" d="M33.3,10.7c-0.8-3.2-5.4-4.9-7.3-4.3c-1.7,0.5-3.2,1.9-3.3,4.3c-0.1,3.2,2.3,4.8,4.1,5.1
					C29.3,16.2,34.1,13.8,33.3,10.7z"/>
				<path class="st15" d="M33,10.7c-0.7-3-5.2-4.8-7-4.3c-1.5,0.5-3,1.7-3.1,4.1c-0.2,3.1,2.2,4.6,3.9,4.9
					C29.1,15.9,33.7,13.8,33,10.7z"/>
				<path class="st16" d="M32.8,10.8c-0.6-2.9-5-4.8-6.8-4.2c-1.4,0.4-2.8,1.6-2.9,3.9c-0.2,3,2.1,4.5,3.7,4.7
					C28.9,15.5,33.4,13.8,32.8,10.8z"/>
				<path class="st17" d="M32.5,10.9c-0.5-2.8-4.8-4.7-6.6-4.1c-1.3,0.4-2.6,1.5-2.7,3.7c-0.2,3,2,4.4,3.4,4.5
					C28.7,15.2,33,13.7,32.5,10.9z"/>
				<path class="st18" d="M32.3,10.9c-0.4-2.7-4.7-4.6-6.3-4.1c-1.2,0.4-2.4,1.4-2.6,3.6c-0.3,2.9,1.9,4.2,3.2,4.3
					C28.5,14.9,32.7,13.7,32.3,10.9z"/>
				<path class="st19" d="M32,11c-0.3-2.6-4.5-4.5-6.1-4c-1,0.3-2.2,1.3-2.4,3.4c-0.3,2.8,1.7,4.1,3,4.1C28.3,14.5,32.3,13.7,32,11z
					"/>
				<path class="st20" d="M31.8,11.1c-0.2-2.4-4.3-4.5-5.9-3.9C25,7.5,24,8.3,23.7,10.4c-0.4,2.8,1.6,4,2.8,3.9
					C28.1,14.2,32,13.7,31.8,11.1z"/>
				<path class="st21" d="M31.5,11.1c-0.1-2.3-4.1-4.4-5.6-3.9c-0.8,0.3-1.7,1-2,3.1c-0.4,2.7,1.5,3.9,2.6,3.7
					C27.9,13.9,31.6,13.6,31.5,11.1z"/>
			</g>
			<path class="st24" d="M49.1,15.8c-0.1,0-0.2,0-0.3,0c-0.3-0.9-1-1.7-1.8-2.1c0-0.1,0-0.1,0-0.2C47,9.9,44.1,7,40.5,7
				c-2.6,0-4.9,1.5-5.9,3.7c-0.7-0.4-1.4-0.6-2.3-0.6c-0.6,0-1.2,0.1-1.7,0.3c-0.8-2.9-3.5-5-6.7-5c-3.8,0-7,3.1-7,7
				c0,0.3,0,0.6,0.1,0.9c-1.3,0.1-2.4,0.7-3,1.8c-0.4-0.1-0.8-0.2-1.2-0.2c-1.7,0-3.1,1.4-3.1,3.1c0,1.7,1.4,3.1,3.1,3.1
				c0.9,0,1.6-0.3,2.2-0.9c0.6,0.4,1.3,0.7,2.1,0.7c0.7,0,1.3-0.2,1.8-0.5c0.6,2.1,2.6,3.7,4.9,3.7c1,0,1.9-0.3,2.6-0.7
				c1.1,1.6,2.8,2.6,4.9,2.6c2.5,0,4.6-1.6,5.5-3.8c0.6,0.6,1.4,1,2.3,1c1.6,0,3-1.3,3.1-2.9c0.7,0.6,1.7,1,2.7,1
				c1.2,0,2.3-0.5,3.1-1.4c0.3,0.2,0.6,0.2,1,0.2c1.2,0,2.2-1,2.2-2.2C51.3,16.8,50.3,15.8,49.1,15.8z"/>
			<path class="st22" d="M49.3,16c-0.1,0-0.2,0-0.3,0c-0.3-0.9-1-1.7-1.8-2.1c0-0.1,0-0.1,0-0.2c0-3.6-2.9-6.5-6.5-6.5
				c-2.6,0-4.9,1.5-5.9,3.7c-0.7-0.4-1.4-0.6-2.3-0.6c-0.6,0-1.2,0.1-1.7,0.3c-0.8-2.9-3.5-5-6.7-5c-3.8,0-7,3.1-7,7
				c0,0.3,0,0.6,0.1,0.9c-1.3,0.1-2.4,0.7-3,1.8c-0.4-0.1-0.8-0.2-1.2-0.2c-1.7,0-3.1,1.4-3.1,3.1c0,1.7,1.4,3.1,3.1,3.1
				c0.9,0,1.6-0.3,2.2-0.9c0.6,0.4,1.3,0.7,2.1,0.7c0.7,0,1.3-0.2,1.8-0.5c0.6,2.1,2.6,3.7,4.9,3.7c1,0,1.9-0.3,2.6-0.7
				c1.1,1.6,2.8,2.6,4.9,2.6c2.5,0,4.6-1.6,5.5-3.8c0.6,0.6,1.4,1,2.3,1c1.6,0,3-1.3,3.1-2.9c0.7,0.6,1.7,1,2.7,1
				c1.2,0,2.3-0.5,3.1-1.4c0.3,0.2,0.6,0.2,1,0.2c1.2,0,2.2-1,2.2-2.2C51.4,16.9,50.4,16,49.3,16z"/>
		</g>
		<g>
			<g>
				<path class="st0" d="M60.7,31c4.8-0.9,5.3-5.1,5.2-8.4c-0.1-2.1-2.2-3.7-4.1-5.1c-1.4-1-5.7-1.9-7.9-2.9
					c-3.2-1.6-4.3-5.4-8.8-5.9c-2.8-0.3-5-0.1-8.5,1.3c-1.8,0.7-12,11.7-13,13.6c-1.2,2.2-1,4,0.8,6.3c1.2,1.4,1.8,2.5,3,3.8
					s2.1,2.2,3.2,2.6c1.4,0.4,2.7,2.1,5,2.1c3.3,0,4.8,0,6.8-0.4s3.3-3,5.1-3.3c1.6-0.3,3.6,0.3,6.1-0.7
					C55.6,33.1,57.7,31.6,60.7,31z"/>
				<path class="st1" d="M44.9,8.8c-2.7-0.4-5-0.1-8.4,1.3c-1.9,0.8-11.8,11.6-12.8,13.4c-1.2,2.1-1,3.9,0.8,6.1
					c1.1,1.4,1.7,2.4,2.9,3.7c0.9,1,1.7,1.7,2.4,2.2c0.2,0.2,0.5,0.3,0.8,0.4c1.3,0.5,2.6,2.2,4.9,2.2c3.3,0,4.8,0,6.7-0.5
					c1.9-0.4,3.2-2.7,4.9-3.1c0.1,0,0.1,0,0.2,0c1.4-0.2,2.9,0.1,4.9-0.3c0.4-0.1,0.8-0.2,1.2-0.3c2-0.8,4.1-2.2,7.1-2.8
					c4.6-0.9,5.1-5,5-8.2c0-1.4-0.9-2.5-2.1-3.6c-0.6-0.5-1.3-1-2-1.5C60.7,17,59,16.5,57.3,16c-1.3-0.4-2.7-0.8-3.6-1.3
					c-1-0.5-1.7-1.2-2.5-1.9C49.5,11.2,48.1,9.2,44.9,8.8z"/>
				<path class="st2" d="M44.7,9c-2.7-0.4-4.9-0.1-8.2,1.4c-2,0.9-11.7,11.4-12.6,13.2c-1.1,2.1-0.9,3.7,0.8,5.9
					c1.1,1.3,1.7,2.3,2.9,3.5c0.9,0.9,1.7,1.7,2.5,2.2c0.2,0.2,0.5,0.3,0.7,0.4c1.3,0.5,2.6,2.2,4.9,2.2c3.4,0,4.8-0.1,6.7-0.6
					s3.1-2.6,4.8-3c0.1,0,0.1,0,0.2,0c1.4-0.2,2.9,0.1,4.8-0.3c0.4-0.1,0.8-0.2,1.2-0.3c2-0.7,4.1-2.2,7-2.8c4.5-0.9,5-4.8,4.9-7.9
					c0-1.4-0.9-2.5-2.1-3.5c-0.6-0.5-1.3-1-2-1.4c-0.8-0.6-2.6-1-4.2-1.5c-1.4-0.4-2.7-0.8-3.6-1.2c-1-0.5-1.7-1.2-2.5-1.9
					C49.3,11.5,48,9.4,44.7,9z"/>
				<path class="st3" d="M44.6,9.2c-2.6-0.4-4.8-0.1-8.1,1.4c-2.2,1-11.5,11.2-12.4,13c-1,2-0.8,3.6,0.9,5.6
					c1.1,1.3,1.6,2.2,2.8,3.4c0.9,0.9,1.7,1.6,2.5,2.1c0.2,0.2,0.5,0.3,0.7,0.4c1.3,0.6,2.6,2.2,4.9,2.2c3.4,0,4.8-0.1,6.7-0.6
					c1.8-0.5,3.1-2.5,4.8-3c0.1,0,0.1,0,0.2,0c1.4-0.2,2.9,0.1,4.8-0.3c0.4-0.1,0.7-0.2,1.1-0.3c2-0.7,4.1-2.1,7-2.7
					c4.3-0.9,4.9-4.7,4.8-7.7c0-1.4-0.8-2.5-2.1-3.5c-0.6-0.5-1.3-1-2-1.4c-0.9-0.5-2.6-1-4.2-1.4c-1.4-0.4-2.7-0.8-3.6-1.2
					c-1-0.5-1.7-1.1-2.5-1.9C49.1,11.7,47.8,9.7,44.6,9.2z"/>
				<path class="st4" d="M44.4,9.4c-2.5-0.4-4.8-0.1-8,1.4C34.1,11.9,25,21.9,24.2,23.6c-1,1.9-0.8,3.5,0.9,5.4
					c1,1.2,1.6,2.1,2.7,3.2c1,0.9,1.7,1.6,2.5,2.1c0.2,0.2,0.5,0.3,0.7,0.4c1.3,0.6,2.5,2.3,4.8,2.3c3.4,0,4.9-0.2,6.6-0.7
					c1.8-0.6,3.1-2.4,4.7-2.9c0.1,0,0.1,0,0.2,0c1.4-0.2,2.9,0.1,4.7-0.3c0.4-0.1,0.7-0.1,1.1-0.3c2-0.6,4-2,6.9-2.6
					c4.1-0.9,4.7-4.5,4.7-7.4c0-1.4-0.8-2.5-2-3.5c-0.6-0.5-1.3-0.9-2-1.4c-0.9-0.5-2.6-1-4.2-1.4c-1.4-0.3-2.7-0.7-3.6-1.2
					c-0.9-0.5-1.7-1.1-2.5-1.9C48.9,12,47.7,9.9,44.4,9.4z"/>
				<path class="st5" d="M44.2,9.6c-2.5-0.4-4.7-0.1-7.8,1.5C34,12.3,25.2,22,24.4,23.7c-0.9,1.9-0.7,3.4,0.9,5.2
					c1,1.2,1.5,2.1,2.6,3.1c1,0.9,1.7,1.5,2.5,2.1c0.2,0.2,0.5,0.3,0.7,0.4c1.3,0.7,2.5,2.3,4.8,2.3c3.5,0,4.9-0.2,6.6-0.8
					c1.8-0.6,3.1-2.4,4.7-2.8c0.1,0,0.1,0,0.2,0c1.4-0.2,2.9,0,4.7-0.2c0.4-0.1,0.7-0.1,1.1-0.2c2-0.6,4-1.9,6.8-2.6
					c3.9-0.9,4.6-4.4,4.6-7.2c0-1.4-0.8-2.4-2-3.5c-0.6-0.5-1.3-0.9-2-1.3c-0.9-0.5-2.6-0.9-4.2-1.3c-1.4-0.3-2.7-0.7-3.6-1.2
					c-0.9-0.5-1.7-1.1-2.4-1.9C48.7,12.3,47.6,10.2,44.2,9.6z"/>
				<path class="st6" d="M44.1,9.8c-2.4-0.4-4.6-0.1-7.7,1.5c-2.5,1.3-11,10.8-11.8,12.4c-0.9,1.8-0.6,3.2,0.9,5
					c1,1.1,1.5,2,2.6,2.9c1,0.9,1.7,1.4,2.5,2.1c0.2,0.2,0.5,0.3,0.7,0.5c1.3,0.7,2.5,2.3,4.7,2.3c3.5,0,4.9-0.3,6.6-0.9
					c1.8-0.7,3-2.3,4.7-2.7c0.1,0,0.1,0,0.2,0c1.4-0.2,2.9,0,4.6-0.2c0.4,0,0.7-0.1,1.1-0.2c2-0.5,4-1.8,6.7-2.5
					c3.7-0.9,4.5-4.2,4.4-7c0-1.4-0.7-2.4-2-3.5c-0.6-0.5-1.3-0.9-2-1.3c-1-0.5-2.6-0.9-4.2-1.3c-1.4-0.3-2.7-0.7-3.6-1.1
					c-0.9-0.5-1.7-1.1-2.4-1.8C48.5,12.6,47.4,10.4,44.1,9.8z"/>
				<path class="st7" d="M43.9,10c-2.3-0.4-4.5,0-7.5,1.5c-2.7,1.4-10.9,10.6-11.6,12.2c-0.8,1.7-0.5,3.1,0.9,4.8
					c0.9,1.1,1.4,1.9,2.5,2.8c1,0.9,1.8,1.4,2.5,2c0.2,0.2,0.4,0.3,0.7,0.5c1.3,0.8,2.5,2.4,4.7,2.4c3.6,0,4.9-0.3,6.5-1
					c1.7-0.7,3-2.2,4.6-2.6c0.1,0,0.1,0,0.2,0c1.5-0.2,2.8,0,4.6-0.2c0.4,0,0.7-0.1,1.1-0.2c2-0.5,4-1.8,6.6-2.4
					c3.6-0.9,4.3-4.1,4.3-6.7c0-1.4-0.7-2.4-2-3.5c-0.5-0.4-1.3-0.9-2-1.2c-1-0.5-2.7-0.9-4.2-1.2c-1.4-0.3-2.7-0.6-3.6-1.1
					c-0.9-0.5-1.7-1.1-2.4-1.8C48.3,12.8,47.3,10.6,43.9,10z"/>
				<path class="st8" d="M43.8,10.2c-2.3-0.4-4.5,0-7.4,1.5c-2.8,1.5-10.7,10.5-11.4,12c-0.7,1.7-0.5,3,0.9,4.6
					c0.9,1,1.4,1.8,2.4,2.6c1,0.8,1.8,1.3,2.5,2c0.2,0.2,0.4,0.3,0.7,0.5c1.3,0.8,2.4,2.4,4.6,2.4c3.6,0,4.9-0.4,6.5-1
					c1.7-0.7,3-2.1,4.6-2.5c0.1,0,0.1,0,0.2,0c1.5-0.2,2.8-0.1,4.5-0.2c0.3,0,0.7-0.1,1.1-0.2c2-0.4,3.9-1.7,6.6-2.4
					c3.4-0.9,4.2-4,4.2-6.5c0-1.4-0.6-2.4-1.9-3.4c-0.5-0.4-1.3-0.8-2-1.2c-1-0.4-2.7-0.8-4.2-1.1c-1.4-0.3-2.7-0.6-3.6-1.1
					c-0.9-0.5-1.6-1.1-2.4-1.8C48,13.1,47.1,10.9,43.8,10.2z"/>
				<path class="st9" d="M43.6,10.5c-2.2-0.4-4.4,0-7.2,1.6C33.5,13.7,25.8,22.4,25.2,24c-0.7,1.6-0.4,2.9,0.9,4.4
					c0.8,0.9,1.4,1.7,2.3,2.5c1,0.8,1.8,1.3,2.6,2c0.2,0.2,0.4,0.3,0.7,0.5c1.2,0.9,2.4,2.5,4.6,2.5c3.6,0,4.9-0.4,6.5-1.1
					c1.7-0.8,3-2,4.5-2.4c0.1,0,0.1,0,0.2,0c1.5-0.2,2.8-0.1,4.4-0.2c0.3,0,0.7-0.1,1.1-0.1c2-0.4,3.9-1.6,6.5-2.3
					c3.2-0.9,4.1-3.8,4.1-6.2c0-1.4-0.6-2.4-1.9-3.4c-0.5-0.4-1.3-0.8-2-1.1c-1-0.4-2.7-0.8-4.2-1.1c-1.4-0.3-2.6-0.6-3.5-1.1
					s-1.6-1.1-2.4-1.8C47.8,13.4,47,11.1,43.6,10.5z"/>
				<path class="st10" d="M43.4,10.7c-2.1-0.4-4.3,0-7.1,1.6c-3,1.7-10.4,10.1-11,11.6S25,26.7,26.2,28c0.8,0.9,1.3,1.6,2.2,2.3
					c1,0.8,1.8,1.2,2.6,1.9c0.2,0.2,0.4,0.4,0.6,0.5c1.2,0.9,2.4,2.5,4.5,2.5c3.7,0,5-0.4,6.4-1.2c1.7-0.8,2.9-2,4.5-2.3
					c0.1,0,0.1,0,0.2,0c1.5-0.2,2.8-0.1,4.4-0.2c0.3,0,0.7-0.1,1-0.1c2-0.3,3.9-1.5,6.4-2.3c3-0.9,4-3.7,3.9-6
					c0-1.4-0.5-2.4-1.9-3.4c-0.5-0.4-1.2-0.8-2.1-1.1c-1.1-0.4-2.7-0.8-4.2-1s-2.6-0.6-3.5-1c-0.9-0.5-1.6-1.1-2.4-1.8
					C47.6,13.7,46.8,11.4,43.4,10.7z"/>
				<path class="st11" d="M43.3,10.9c-2-0.4-4.2,0.1-6.9,1.6c-3.1,1.8-10.3,10-10.8,11.5s-0.3,2.6,0.9,3.9c0.8,0.8,1.3,1.5,2.2,2.2
					c1,0.8,1.8,1.2,2.6,1.9c0.2,0.2,0.4,0.4,0.6,0.5c1.2,1,2.3,2.5,4.5,2.5c3.7,0,5-0.5,6.4-1.3c1.6-0.9,2.9-1.9,4.5-2.2
					c0.1,0,0.1,0,0.2,0c1.5-0.2,2.8-0.1,4.3-0.2c0.3,0,0.7,0,1-0.1c1.9-0.3,3.9-1.4,6.3-2.2c2.8-0.9,3.8-3.5,3.8-5.7
					c0-1.4-0.5-2.3-1.9-3.4c-0.5-0.4-1.2-0.7-2.1-1c-1.1-0.4-2.8-0.7-4.2-0.9c-1.5-0.2-2.6-0.5-3.5-1s-1.6-1.1-2.4-1.8
					C47.4,13.9,46.7,11.6,43.3,10.9z"/>
				<path class="st12" d="M43.1,11.1c-2-0.5-4.2,0.1-6.8,1.7c-3.3,1.9-10.1,9.8-10.6,11.3c-0.5,1.4-0.2,2.5,1,3.7
					c0.7,0.8,1.2,1.4,2.1,2c1,0.8,1.9,1.1,2.6,1.9c0.2,0.2,0.4,0.4,0.6,0.6c1.2,1,2.3,2.6,4.5,2.6c3.7,0,5-0.5,6.4-1.3
					c1.6-0.9,2.9-1.8,4.4-2.1c0.1,0,0.1,0,0.2,0c1.5-0.2,2.8-0.2,4.3-0.2c0.3,0,0.7,0,1-0.1c1.9-0.3,3.9-1.4,6.2-2.1
					c2.7-0.9,3.7-3.4,3.7-5.5c0-1.4-0.4-2.3-1.8-3.4c-0.5-0.4-1.2-0.7-2.1-1c-1.1-0.4-2.8-0.7-4.2-0.9c-1.5-0.2-2.6-0.5-3.5-1
					s-1.6-1.1-2.4-1.8C47.2,14.2,46.6,11.9,43.1,11.1z"/>
				<path class="st13" d="M42.9,11.3c-1.9-0.5-4.1,0.1-6.7,1.7c-3.4,2-10,9.7-10.4,11.1s-0.1,2.4,1,3.5c0.7,0.7,1.2,1.3,2,1.9
					c1.1,0.7,1.9,1.1,2.6,1.8c0.2,0.2,0.4,0.4,0.6,0.6c1.2,1.1,2.3,2.6,4.4,2.6c3.8,0,5-0.6,6.3-1.4c1.6-1,2.9-1.7,4.4-2
					c0.1,0,0.1,0,0.2,0c1.5-0.2,2.8-0.2,4.2-0.1c0.3,0,0.7,0,1,0c1.9-0.2,3.8-1.3,6.2-2.1c2.5-0.8,3.6-3.2,3.6-5.2
					c0-1.4-0.4-2.3-1.8-3.4c-0.5-0.4-1.2-0.7-2.1-0.9c-1.1-0.4-2.8-0.6-4.2-0.8c-1.5-0.2-2.6-0.5-3.5-0.9c-0.9-0.5-1.6-1.1-2.4-1.8
					C47,14.5,46.4,12.1,42.9,11.3z"/>
				<path class="st14" d="M42.8,11.5c-1.8-0.5-4,0.2-6.5,1.7c-3.5,2.1-9.8,9.5-10.2,10.9c-0.4,1.3,0,2.3,1,3.3
					c0.7,0.7,1.2,1.2,1.9,1.7c1.1,0.7,1.9,1,2.6,1.8c0.2,0.2,0.4,0.4,0.6,0.6c1.2,1.1,2.3,2.7,4.4,2.7c3.8,0,5-0.6,6.3-1.5
					c1.5-1,2.8-1.6,4.4-1.9c0.1,0,0.1,0,0.2,0c1.5-0.2,2.7-0.2,4.1-0.1c0.3,0,0.7,0,1,0c1.9-0.2,3.8-1.2,6.1-2s3.4-3.1,3.5-5
					c0-1.4-0.3-2.3-1.8-3.4c-0.5-0.3-1.2-0.6-2.1-0.9c-1.2-0.3-2.9-0.6-4.2-0.7c-1.5-0.2-2.6-0.5-3.5-0.9c-0.9-0.5-1.5-1.1-2.3-1.8
					C46.8,14.8,46.3,12.4,42.8,11.5z"/>
				<path class="st15" d="M42.6,11.7c-1.8-0.5-3.9,0.2-6.4,1.8c-3.6,2.3-9.7,9.4-10,10.7c-0.3,1.2,0,2.1,1,3.1
					c0.6,0.6,1.1,1.1,1.9,1.6c1.1,0.7,1.9,1,2.6,1.8c0.2,0.2,0.4,0.4,0.6,0.6c1.2,1.2,2.2,2.7,4.3,2.7c3.9,0,5-0.7,6.3-1.6
					c1.5-1.1,2.8-1.6,4.3-1.8c0.1,0,0.1,0,0.2,0c1.6-0.2,2.7-0.2,4.1-0.1c0.3,0,0.6,0,1,0c1.9-0.1,3.8-1.1,6-1.9
					c2.1-0.8,3.3-2.9,3.3-4.7c0-1.4-0.3-2.3-1.8-3.3c-0.4-0.3-1.2-0.6-2.1-0.8c-1.2-0.3-2.9-0.5-4.2-0.7c-1.4-0.4-2.5-0.7-3.4-1.1
					c-0.9-0.5-1.5-1.1-2.3-1.8C46.6,15,46.1,12.6,42.6,11.7z"/>
				<path class="st16" d="M42.4,11.9c-1.7-0.5-3.8,0.3-6.2,1.8c-3.7,2.4-9.5,9.2-9.8,10.5c-0.3,1.2,0.1,2,1,2.9
					c0.6,0.6,1.1,1,1.8,1.4c1.1,0.7,1.9,0.9,2.7,1.7c0.2,0.2,0.4,0.4,0.6,0.6c1.1,1.2,2.2,2.7,4.3,2.7c3.9,0,5.1-0.8,6.3-1.7
					c1.5-1.1,2.8-1.5,4.3-1.8c0.1,0,0.1,0,0.2,0c1.6-0.2,2.7-0.2,4-0.1c0.3,0,0.6,0.1,1,0c1.9-0.1,3.8-1,5.9-1.9
					c2-0.8,3.2-2.8,3.2-4.5c0-1.4-0.2-2.3-1.7-3.3c-0.4-0.3-1.2-0.6-2.1-0.8c-1.2-0.3-2.9-0.5-4.1-0.6c-1.5-0.1-2.6-0.4-3.5-0.9
					s-1.5-1.1-2.3-1.8C46.4,15.3,46,12.9,42.4,11.9z"/>
				<path class="st17" d="M42.3,12.2c-1.6-0.5-3.7,0.3-6.1,1.8c-3.8,2.5-9.4,9.1-9.6,10.3c-0.2,1.1,0.2,1.9,1,2.7
					c0.6,0.5,1.1,0.9,1.7,1.3c1.1,0.6,1.9,0.8,2.7,1.7c0.2,0.2,0.4,0.4,0.6,0.6c1.1,1.3,2.2,2.8,4.2,2.8c3.9,0,5.1-0.8,6.2-1.7
					c1.5-1.2,2.8-1.4,4.2-1.7c0.1,0,0.1,0,0.2,0c1.6-0.2,2.7-0.3,4-0.1c0.3,0,0.6,0.1,1,0.1c1.9,0,3.7-0.9,5.8-1.8
					c1.8-0.8,3.1-2.6,3.1-4.2c0-1.4-0.2-2.2-1.7-3.3c-0.4-0.3-1.2-0.6-2.1-0.8c-1.3-0.3-2.9-0.5-4.1-0.5c-1.5-0.1-2.6-0.4-3.5-0.8
					c-0.8-0.5-1.5-1.1-2.3-1.8C46.2,15.6,45.8,13.2,42.3,12.2z"/>
				<path class="st18" d="M42.1,12.4c-1.6-0.5-3.7,0.3-5.9,1.8c-3.9,2.6-9.2,8.9-9.4,10.1c-0.2,1,0.2,1.8,1,2.4
					c0.5,0.5,1,0.8,1.6,1.1c1.1,0.6,2,0.8,2.7,1.7c0.2,0.2,0.4,0.4,0.5,0.7c1.1,1.3,2.1,2.8,4.2,2.8c4,0,5.1-0.9,6.2-1.8
					c1.4-1.2,2.7-1.3,4.2-1.6c0.1,0,0.1,0,0.2,0c1.6-0.2,2.7-0.3,3.9-0.1c0.3,0.1,0.6,0.1,0.9,0.1c1.9,0.1,3.7-0.8,5.8-1.7
					c1.6-0.7,2.9-2.5,3-4c0-1.4-0.1-2.2-1.7-3.3c-0.4-0.3-1.2-0.5-2.1-0.7c-1.3-0.3-3-0.4-4.1-0.5c-1.6-0.1-2.6-0.3-3.4-0.8
					c-0.8-0.5-1.5-1.1-2.3-1.7C46,15.9,45.7,13.4,42.1,12.4z"/>
				<path class="st19" d="M41.9,12.6c-1.5-0.5-3.6,0.4-5.8,1.9c-4,2.8-9.1,8.7-9.2,9.9c-0.1,1,0.3,1.6,1,2.2c0.5,0.4,1,0.7,1.6,1
					c1.2,0.6,2,0.7,2.7,1.6c0.2,0.2,0.4,0.4,0.5,0.7c1.1,1.4,2.1,2.9,4.2,2.9c4,0,5.1-0.9,6.2-1.9c1.4-1.3,2.7-1.2,4.2-1.5
					c0.1,0,0.1,0,0.2,0c1.6-0.2,2.7-0.3,3.8-0.1c0.3,0.1,0.6,0.1,0.9,0.1c1.9,0.1,3.7-0.7,5.7-1.7c1.5-0.7,2.8-2.3,2.8-3.7
					c0-1.4-0.1-2.2-1.7-3.3c-0.4-0.3-1.2-0.5-2.1-0.7c-1.3-0.2-3-0.4-4.1-0.4c-1.6,0-2.6-0.3-3.4-0.8c-0.8-0.5-1.5-1.1-2.3-1.7
					C45.7,16.1,45.5,13.7,41.9,12.6z"/>
				<path class="st20" d="M41.8,12.8c-1.4-0.5-3.5,0.4-5.6,1.9c-4.2,2.9-8.9,8.6-9,9.7c0,0.9,0.4,1.5,1.1,2c0.5,0.3,1,0.6,1.5,0.8
					c1.2,0.5,2,0.7,2.7,1.6c0.2,0.2,0.3,0.5,0.5,0.7c1.1,1.4,2.1,2.9,4.1,2.9c4.1,0,5.1-1,6.1-2c1.4-1.3,2.7-1.2,4.1-1.4
					c0.1,0,0.1,0,0.2,0c1.6-0.2,2.6-0.3,3.8-0.1c0.3,0.1,0.6,0.1,0.9,0.1c1.9,0.2,3.7-0.6,5.6-1.6c1.3-0.7,2.7-2.2,2.7-3.5
					c0-1.4,0-2.2-1.6-3.3c-0.4-0.3-1.2-0.5-2.2-0.6c-1.3-0.2-3-0.3-4.1-0.3c-1.6,0-2.6-0.3-3.4-0.7c-0.8-0.5-1.5-1.1-2.3-1.7
					C45.5,16.4,45.4,13.9,41.8,12.8z"/>
				<path class="st21" d="M57.6,27.4c1.1-0.6,2.6-2.1,2.6-3.2c0.1-1.4,0-2.2-1.6-3.3c-0.9-0.6-4.4-0.9-6.3-0.8
					c-3.2,0.1-4-1.1-5.7-2.4c-1.3-1-1.3-3.4-5-4.7c-4.2-1.4-14.3,9.8-14.3,11.5c0,1.4,1.3,2.1,2.5,2.5c1.2,0.5,2,0.6,2.7,1.6
					c1.3,1.7,2.2,3.6,4.6,3.6c4.1,0,5.1-1,6.1-2c1.3-1.4,2.7-1.1,4.1-1.3c1.7-0.3,2.8-0.4,3.9-0.1C53.3,29.4,55.5,28.6,57.6,27.4z"
					/>
			</g>
			<path class="st24" d="M59.6,23.2c0-1.6-1.3-3-3-3c-0.5,0-1,0.1-1.4,0.4c-0.7-0.4-1.5-0.7-2.3-0.7c-1,0-1.9,0.3-2.6,0.8
				c-0.9-1.8-2.7-3-4.8-3l0,0C45.2,14,42,11,38.2,11c-3.4,0-6.3,2.4-7.1,5.6c-0.2,0-0.4,0-0.7,0c-2.8,0-5.1,2.3-5.1,5.1
				s2.3,5.1,5.1,5.1c0.5,0,1-0.1,1.4-0.2c0.6,2.8,3.2,5,6.2,5c2.4,0,4.5-1.4,5.6-3.4c0.6,0.2,1.2,0.3,1.9,0.3c1.6,0,3-0.7,4-1.7
				c0.8,1,2.1,1.7,3.5,1.7c1.7,0,3.2-1,3.9-2.5C58.4,26.1,59.6,24.8,59.6,23.2z"/>
			<path class="st25" d="M59.8,23.3c0-1.6-1.3-3-3-3c-0.5,0-1,0.1-1.4,0.4c-0.7-0.4-1.5-0.7-2.3-0.7c-1,0-1.9,0.3-2.6,0.8
				c-0.9-1.8-2.7-3-4.8-3l0,0c-0.3-3.7-3.5-6.7-7.3-6.7c-3.4,0-6.3,2.4-7.1,5.6c-0.2,0-0.4,0-0.7,0c-2.8,0-5.1,2.3-5.1,5.1
				s2.3,5.1,5.1,5.1c0.5,0,1-0.1,1.4-0.2c0.6,2.8,3.2,5,6.2,5c2.4,0,4.5-1.4,5.6-3.4c0.6,0.2,1.2,0.3,1.9,0.3c1.6,0,3-0.7,4-1.7
				c0.8,1,2.1,1.7,3.5,1.7c1.7,0,3.2-1,3.9-2.5C58.5,26.2,59.8,24.9,59.8,23.3z"/>
		</g>
		<g>
			<g>
				<path class="st0" d="M47.1,24.1c1.6-1.5,2.1-3.7,2-6c0-1.4-0.4-2.6-1.6-4.4c-1.1-1.6-3-1.4-4.9-3.6c-1.6-1.9-3-1.8-7.6-2.8
					c-3.3-0.7-6,1.9-7.6,5.5c-0.5,1.2-6.9,3.8-7.6,5.1c-0.8,1.5-2,3.1-0.7,4.7c0.8,1,1.2,1.7,2.1,2.6c0.8,0.9,1.4,1.5,2.2,1.8
					c0.9,0.3,2,0.8,3.4,1.5c1.8,0.8,3.6,1.2,5,1.2c2.2,0,4.4-0.3,5.2-0.4c1.1-0.2,3.7-1.8,5.5-2.5C43.8,26.2,45.5,25.6,47.1,24.1z"
					/>
				<path class="st1" d="M35,7.5c-3.2-0.7-5.9,1.9-7.6,5.4c-0.6,1.3-6.9,3.8-7.6,5.1c-0.8,1.5-1.9,3-0.6,4.6c0.8,0.9,1.2,1.7,2,2.5
					c0.8,0.9,1.4,1.5,2.2,1.7c0.2,0.1,0.4,0.1,0.5,0.2c0.8,0.3,1.7,0.8,2.8,1.3c0.5,0.2,0.9,0.4,1.4,0.5c1.3,0.4,2.5,0.6,3.6,0.6
					c1.9,0.1,3.7-0.1,4.7-0.3c0.2,0,0.3,0,0.4-0.1c0.8-0.1,2.3-1,3.7-1.7c0.6-0.3,1.2-0.6,1.7-0.9c0.7-0.3,1.5-0.6,2.4-1
					c0.8-0.4,1.6-0.9,2.3-1.6c1.6-1.5,2.1-3.6,2-5.8c0-0.6-0.2-1.2-0.4-1.8c-0.3-0.8-0.8-1.6-1.5-2.6c-1-1.5-2.9-1.4-4.7-3.5
					C40.7,8.4,39.4,8.5,35,7.5z"/>
				<path class="st2" d="M35,7.6c-3.1-0.7-5.8,1.9-7.7,5.4c-0.8,1.4-6.8,3.9-7.5,5.1C19,19.5,18,21,19.2,22.5c0.7,0.9,1.1,1.6,2,2.4
					c0.8,0.8,1.4,1.4,2.2,1.7c0.2,0.1,0.4,0.1,0.5,0.2c0.8,0.3,1.6,0.8,2.8,1.3c0.5,0.2,0.9,0.4,1.4,0.5c1.3,0.4,2.5,0.6,3.5,0.6
					c1.8,0.1,3.6,0,4.7-0.2c0.2,0,0.3,0,0.4-0.1c0.8-0.1,2.3-0.9,3.7-1.7c0.6-0.3,1.1-0.7,1.7-0.9c0.7-0.3,1.5-0.6,2.3-1
					s1.5-0.9,2.3-1.5c1.6-1.4,2.1-3.5,1.9-5.7c0-0.6-0.2-1.2-0.5-1.8c-0.4-0.8-0.9-1.6-1.6-2.6c-1-1.5-2.8-1.4-4.5-3.4
					C40.5,8.5,39.2,8.5,35,7.6z"/>
				<path class="st3" d="M35,7.7C32,7,29.3,9.6,27.3,13c-0.9,1.4-6.8,4-7.4,5.2c-0.7,1.4-1.7,2.8-0.5,4.2c0.7,0.9,1.1,1.5,1.9,2.3
					s1.4,1.3,2.2,1.6c0.2,0.1,0.4,0.1,0.5,0.2c0.8,0.4,1.6,0.8,2.7,1.3c0.5,0.2,0.9,0.4,1.4,0.5c1.3,0.4,2.4,0.5,3.5,0.6
					c1.8,0.1,3.5,0,4.6-0.1c0.2,0,0.3,0,0.4-0.1c0.8-0.1,2.3-0.9,3.6-1.7c0.6-0.3,1.1-0.7,1.6-0.9c0.7-0.3,1.4-0.7,2.3-1
					c0.8-0.4,1.5-0.9,2.3-1.5c1.6-1.4,2.1-3.4,1.9-5.5c-0.1-0.6-0.3-1.2-0.6-1.9c-0.4-0.9-1-1.6-1.7-2.7c-0.9-1.4-2.6-1.4-4.3-3.3
					C40.3,8.6,39,8.6,35,7.7z"/>
				<path class="st4" d="M35,7.7c-2.9-0.7-5.6,2-7.7,5.2c-1,1.5-6.7,4-7.3,5.2c-0.7,1.3-1.6,2.7-0.4,4.1c0.7,0.8,1.1,1.5,1.9,2.2
					c0.8,0.8,1.5,1.3,2.2,1.5c0.2,0.1,0.4,0.1,0.5,0.2c0.8,0.4,1.6,0.8,2.7,1.3c0.4,0.2,0.9,0.3,1.4,0.5c1.3,0.4,2.4,0.5,3.4,0.6
					c1.8,0.1,3.4,0.1,4.6,0c0.2,0,0.3,0,0.4-0.1c0.8-0.1,2.3-0.9,3.6-1.7c0.5-0.3,1.1-0.7,1.5-1c0.6-0.3,1.4-0.7,2.3-1
					c0.8-0.3,1.5-0.8,2.3-1.4c1.6-1.3,2.1-3.4,1.9-5.4c-0.1-0.6-0.4-1.2-0.7-1.9c-0.5-0.9-1.1-1.6-1.8-2.7c-0.9-1.4-2.5-1.3-4.1-3.2
					C40.1,8.6,38.9,8.7,35,7.7z"/>
				<path class="st5" d="M35,7.8c-2.9-0.7-5.5,2-7.7,5.2c-1.1,1.6-6.7,4.1-7.3,5.2c-0.6,1.3-1.4,2.6-0.4,3.9
					c0.7,0.8,1.1,1.4,1.8,2.1c0.8,0.7,1.5,1.2,2.2,1.5c0.2,0.1,0.3,0.1,0.5,0.2c0.8,0.4,1.6,0.9,2.7,1.3c0.4,0.2,0.9,0.3,1.4,0.5
					c1.3,0.4,2.3,0.4,3.4,0.5c1.7,0.2,3.3,0.2,4.5,0.1c0.2,0,0.3,0,0.4-0.1c0.9-0.1,2.3-0.9,3.5-1.7c0.5-0.4,1-0.7,1.5-1
					c0.6-0.4,1.4-0.7,2.2-1.1c0.8-0.3,1.5-0.8,2.3-1.4c1.6-1.2,2.1-3.3,1.8-5.2c-0.1-0.6-0.4-1.2-0.8-1.9c-0.6-0.9-1.2-1.7-1.9-2.7
					c-0.8-1.3-2.4-1.3-3.9-3C39.9,8.7,38.7,8.7,35,7.8z"/>
				<path class="st6" d="M35,7.9c-2.7-0.6-5.5,2-7.7,5.1c-1.2,1.6-6.7,4.2-7.2,5.3c-0.6,1.2-1.3,2.5-0.3,3.7c0.7,0.8,1,1.3,1.7,2
					c0.8,0.7,1.5,1.1,2.2,1.4c0.2,0.1,0.3,0.1,0.5,0.2c0.7,0.4,1.5,0.9,2.6,1.3c0.4,0.2,0.9,0.3,1.3,0.5c1.2,0.4,2.3,0.4,3.4,0.5
					c1.7,0.2,3.2,0.3,4.5,0.2c0.1,0,0.3,0,0.4-0.1c0.9-0.1,2.3-0.9,3.5-1.7c0.5-0.4,1-0.7,1.4-1c0.6-0.4,1.3-0.7,2.2-1.1
					c0.8-0.3,1.5-0.8,2.3-1.3c1.6-1.2,2.1-3.2,1.8-5c-0.1-0.6-0.5-1.2-0.9-1.9c-0.6-1-1.3-1.7-2-2.8c-0.8-1.3-2.3-1.3-3.7-2.9
					C39.7,8.8,38.6,8.8,35,7.9z"/>
				<path class="st7" d="M35,8c-2.7-0.7-5.4,1.9-7.8,5c-1.3,1.7-6.6,4.2-7.1,5.3c-0.6,1.2-1.2,2.4-0.2,3.6c0.6,0.7,1,1.3,1.7,1.9
					c0.8,0.7,1.5,1.1,2.2,1.3c0.2,0.1,0.3,0.1,0.5,0.2c0.7,0.5,1.5,0.9,2.6,1.3c0.4,0.2,0.9,0.3,1.3,0.4c1.2,0.3,2.2,0.4,3.3,0.5
					c1.7,0.2,3.2,0.4,4.4,0.2c0.1,0,0.3,0,0.4,0c0.9-0.1,2.3-0.8,3.4-1.7c0.5-0.4,0.9-0.8,1.4-1c0.6-0.4,1.3-0.7,2.2-1.1
					c0.8-0.3,1.5-0.8,2.3-1.3c1.6-1.1,2.1-3.1,1.8-4.9c-0.1-0.6-0.6-1.2-1-1.9c-0.7-1-1.4-1.7-2.1-2.8c-0.7-1.2-2.1-1.3-3.5-2.8
					C39.5,8.9,38.4,8.9,35,8z"/>
				<path class="st8" d="M35.1,8.1c-2.6-0.7-5.4,1.9-7.8,4.9c-1.4,1.8-6.6,4.3-7,5.3c-0.5,1.2-1.1,2.3-0.1,3.4
					c0.6,0.7,1,1.2,1.6,1.8c0.7,0.7,1.5,1,2.2,1.3c0.2,0.1,0.3,0.1,0.5,0.2c0.7,0.5,1.5,0.9,2.5,1.3c0.4,0.2,0.9,0.3,1.3,0.4
					c1.2,0.3,2.2,0.3,3.3,0.5c1.6,0.2,3.1,0.4,4.3,0.3c0.1,0,0.3,0,0.4,0c0.9-0.1,2.3-0.8,3.4-1.7c0.5-0.4,0.9-0.8,1.3-1.1
					c0.6-0.4,1.2-0.8,2.2-1.1c0.8-0.3,1.5-0.8,2.3-1.3c1.6-1.1,2.1-3,1.7-4.7c-0.1-0.6-0.6-1.2-1.1-1.9c-0.8-1-1.5-1.7-2.2-2.8
					c-0.7-1.2-2-1.2-3.4-2.7C39.3,9,38.2,8.9,35.1,8.1z"/>
				<path class="st9" d="M35.1,8.2c-2.5-0.6-5.4,1.9-7.8,4.9c-1.6,1.8-6.5,4.4-6.9,5.4c-0.5,1.1-1,2.2-0.1,3.2
					c0.6,0.6,0.9,1.1,1.6,1.7s1.5,0.9,2.2,1.2c0.2,0.1,0.3,0.1,0.5,0.2c0.7,0.5,1.5,0.9,2.5,1.3c0.4,0.2,0.8,0.3,1.3,0.4
					c1.2,0.3,2.1,0.3,3.3,0.5c1.6,0.3,3,0.5,4.3,0.4c0.1,0,0.3,0,0.4,0c0.9-0.1,2.3-0.8,3.4-1.7c0.5-0.4,0.9-0.8,1.3-1.1
					c0.5-0.4,1.2-0.8,2.1-1.1c0.8-0.3,1.5-0.7,2.3-1.2c1.6-1,2.1-2.9,1.7-4.6c-0.2-0.6-0.7-1.2-1.2-1.9c-0.8-1.1-1.6-1.7-2.3-2.9
					c-0.6-1.1-1.9-1.2-3.2-2.6C39.1,9.1,38.1,9,35.1,8.2z"/>
				<path class="st10" d="M35.1,8.3c-2.4-0.6-5.3,1.9-7.9,4.8c-1.7,1.9-6.5,4.4-6.9,5.4c-0.4,1.1-0.9,2.1,0,3.1
					c0.6,0.6,0.9,1.1,1.5,1.6c0.7,0.6,1.5,0.9,2.2,1.1c0.2,0.1,0.3,0.1,0.5,0.2c0.7,0.5,1.4,1,2.4,1.3c0.4,0.2,0.8,0.3,1.3,0.4
					c1.2,0.3,2.1,0.2,3.2,0.4c1.6,0.3,2.9,0.6,4.2,0.5c0.1,0,0.3,0,0.4,0c0.9-0.1,2.3-0.8,3.3-1.7c0.4-0.4,0.8-0.8,1.2-1.1
					c0.5-0.4,1.2-0.8,2.1-1.1c0.8-0.3,1.5-0.7,2.3-1.2c1.6-0.9,2.1-2.8,1.7-4.4c-0.2-0.6-0.8-1.2-1.3-1.9c-0.9-1.1-1.8-1.7-2.4-2.9
					c-0.6-1.1-1.8-1.2-3-2.5C38.9,9.1,37.9,9,35.1,8.3z"/>
				<path class="st11" d="M35.1,8.4c-2.3-0.6-5.3,1.9-7.9,4.7c-1.8,2-6.4,4.5-6.8,5.4c-0.4,1-0.8,2,0.1,2.9c0.5,0.6,0.9,1,1.5,1.5
					c0.7,0.6,1.5,0.8,2.2,1.1c0.2,0.1,0.3,0.1,0.5,0.2c0.7,0.6,1.4,1,2.4,1.3c0.4,0.1,0.8,0.3,1.3,0.4c1.2,0.3,2.1,0.2,3.2,0.4
					c1.5,0.3,2.8,0.7,4.2,0.6c0.1,0,0.3,0,0.4,0c1-0.1,2.3-0.8,3.3-1.7c0.4-0.4,0.8-0.8,1.2-1.2c0.5-0.4,1.1-0.8,2.1-1.1
					c0.8-0.2,1.5-0.7,2.3-1.1c1.6-0.9,2.1-2.7,1.6-4.2c-0.2-0.6-0.8-1.2-1.5-1.9c-1-1.1-1.9-1.8-2.5-2.9c-0.6-1-1.7-1.2-2.8-2.4
					C38.7,9.2,37.7,9.1,35.1,8.4z"/>
				<path class="st12" d="M35.1,8.5c-2.2-0.6-5.2,1.9-7.9,4.7c-1.9,2-6.4,4.6-6.7,5.5c-0.4,1-0.7,1.9,0.1,2.8
					c0.5,0.5,0.9,0.9,1.4,1.4c0.7,0.6,1.5,0.7,2.2,1c0.2,0.1,0.3,0.1,0.5,0.3c0.7,0.6,1.4,1,2.3,1.3c0.4,0.1,0.8,0.3,1.3,0.4
					c1.2,0.3,2,0.1,3.2,0.4c1.5,0.3,2.7,0.8,4.1,0.7c0.1,0,0.3,0,0.4,0c1-0.1,2.3-0.7,3.2-1.7c0.4-0.4,0.7-0.9,1.1-1.2
					c0.5-0.5,1.1-0.8,2-1.1c0.8-0.2,1.5-0.7,2.3-1.1c1.6-0.8,2.1-2.6,1.6-4.1c-0.2-0.6-0.9-1.2-1.6-1.9c-1-1.1-2-1.8-2.6-3
					c-0.5-1-1.5-1.2-2.6-2.3C38.5,9.3,37.6,9.2,35.1,8.5z"/>
				<path class="st13" d="M35.1,8.6c-2.1-0.6-5.2,1.8-8,4.6c-2.1,2.1-6.4,4.6-6.6,5.5c-0.3,0.9-0.6,1.8,0.2,2.6
					c0.5,0.5,0.8,0.9,1.4,1.3c0.7,0.5,1.5,0.7,2.2,0.9c0.2,0.1,0.3,0.1,0.4,0.3c0.7,0.6,1.4,1,2.3,1.4c0.4,0.1,0.8,0.2,1.3,0.3
					c1.2,0.3,2,0.1,3.1,0.4c1.5,0.3,2.6,0.8,4.1,0.7c0.1,0,0.3,0,0.4,0c1-0.1,2.3-0.7,3.2-1.7c0.4-0.4,0.7-0.9,1.1-1.2
					c0.4-0.5,1-0.9,2-1.1c0.8-0.2,1.5-0.7,2.3-1c1.6-0.8,2.1-2.6,1.6-3.9c-0.2-0.6-1-1.2-1.7-1.9c-1.1-1.2-2.1-1.8-2.7-3
					c-0.5-0.9-1.4-1.1-2.4-2.2C38.3,9.4,37.4,9.2,35.1,8.6z"/>
				<path class="st14" d="M35.1,8.7c-2-0.6-5.2,1.8-8,4.5c-2.2,2.1-6.3,4.7-6.6,5.5c-0.3,0.9-0.4,1.7,0.3,2.4
					c0.5,0.5,0.8,0.8,1.3,1.2c0.7,0.5,1.6,0.6,2.2,0.9c0.2,0.1,0.3,0.1,0.4,0.3c0.7,0.6,1.3,1,2.3,1.4c0.4,0.1,0.8,0.2,1.3,0.3
					c1.2,0.3,1.9,0,3.1,0.3c1.4,0.4,2.5,0.9,4,0.8c0.1,0,0.2,0,0.4,0c1-0.1,2.2-0.7,3.1-1.7c0.4-0.4,0.7-0.9,1-1.3
					c0.4-0.5,1-0.9,2-1.1c0.8-0.2,1.5-0.7,2.3-1c1.6-0.7,2.1-2.5,1.5-3.8c-0.3-0.6-1-1.2-1.8-1.9c-1.2-1.2-2.2-1.8-2.8-3
					c-0.4-0.9-1.3-1.1-2.2-2.1C38.1,9.5,37.2,9.3,35.1,8.7z"/>
				<path class="st15" d="M35.2,8.8c-2-0.6-5.1,1.8-8,4.5c-2.3,2.2-6.3,4.8-6.5,5.6c-0.2,0.9-0.3,1.6,0.4,2.3
					c0.4,0.4,0.8,0.7,1.2,1.1c0.7,0.5,1.6,0.5,2.2,0.8c0.2,0.1,0.3,0.2,0.4,0.3c0.7,0.7,1.3,1.1,2.2,1.4c0.4,0.1,0.8,0.2,1.2,0.3
					c1.1,0.2,1.9,0,3.1,0.3c1.4,0.4,2.4,1,4,0.9c0.1,0,0.2,0,0.4,0c1-0.1,2.2-0.7,3.1-1.7c0.4-0.4,0.6-0.9,0.9-1.3
					c0.4-0.5,1-0.9,1.9-1.1s1.5-0.6,2.3-0.9c1.6-0.6,2.1-2.4,1.5-3.6c-0.3-0.6-1.1-1.2-1.9-1.9c-1.3-1.2-2.3-1.8-2.9-3.1
					c-0.4-0.8-1.2-1.1-2-2C37.9,9.5,37.1,9.3,35.2,8.8z"/>
				<path class="st16" d="M35.2,8.8c-1.9-0.6-5.1,1.8-8,4.4c-2.5,2.2-6.2,4.8-6.4,5.6c-0.2,0.8-0.2,1.5,0.4,2.1
					c0.4,0.4,0.7,0.7,1.2,1c0.7,0.4,1.6,0.5,2.2,0.8c0.2,0.1,0.3,0.2,0.4,0.3c0.7,0.7,1.3,1.1,2.2,1.4c0.4,0.1,0.8,0.2,1.2,0.3
					c1.1,0.2,1.8-0.1,3,0.3c1.4,0.4,2.3,1.1,3.9,1c0.1,0,0.2,0,0.4,0c1-0.1,2.2-0.7,3.1-1.7c0.3-0.4,0.6-0.9,0.9-1.3
					c0.4-0.5,0.9-0.9,1.9-1.1c0.9-0.2,1.5-0.6,2.3-0.9c1.6-0.6,2-2.3,1.5-3.4c-0.3-0.6-1.2-1.2-2-2c-1.3-1.3-2.4-1.8-3-3.1
					c-0.3-0.8-1-1.1-1.8-1.9C37.7,9.6,36.9,9.4,35.2,8.8z"/>
				<path class="st17" d="M35.2,8.9c-1.8-0.6-5.1,1.7-8.1,4.3c-2.6,2.3-6.2,4.9-6.3,5.6c-0.2,0.8-0.1,1.4,0.5,1.9
					c0.4,0.3,0.7,0.6,1.1,0.9c0.7,0.4,1.6,0.4,2.2,0.7c0.2,0.1,0.3,0.2,0.4,0.3c0.7,0.7,1.3,1.1,2.1,1.4c0.4,0.1,0.8,0.2,1.2,0.3
					c1.1,0.2,1.8-0.1,3,0.3c1.4,0.4,2.2,1.1,3.9,1.1c0.1,0,0.2,0,0.3,0c1-0.1,2.2-0.6,3-1.7c0.3-0.5,0.5-0.9,0.8-1.4
					c0.4-0.5,0.9-0.9,1.9-1.1c0.9-0.2,1.5-0.6,2.3-0.8c1.6-0.5,2-2.2,1.4-3.3c-0.3-0.6-1.2-1.2-2.1-2c-1.4-1.3-2.6-1.8-3.1-3.1
					c-0.3-0.7-0.9-1-1.7-1.8C37.5,9.7,36.7,9.5,35.2,8.9z"/>
				<path class="st18" d="M35.2,9c-1.7-0.6-5,1.7-8.1,4.2c-2.8,2.3-6.2,5-6.3,5.7c-0.1,0.7,0,1.3,0.6,1.8c0.4,0.3,0.7,0.5,1.1,0.8
					c0.7,0.4,1.6,0.4,2.2,0.6c0.2,0.1,0.3,0.2,0.4,0.3c0.6,0.7,1.2,1.1,2.1,1.4c0.4,0.1,0.8,0.2,1.2,0.3c1.1,0.2,1.7-0.2,3,0.2
					c1.3,0.4,2.2,1.2,3.8,1.2c0.1,0,0.2,0,0.3,0c1.1-0.1,2.2-0.6,3-1.7c0.3-0.5,0.5-1,0.8-1.4c0.3-0.5,0.9-1,1.9-1.1
					c0.9-0.1,1.5-0.6,2.3-0.8c1.6-0.5,2-2.1,1.4-3.1c-0.4-0.6-1.3-1.2-2.2-2c-1.5-1.3-2.7-1.9-3.2-3.2c-0.3-0.7-0.8-1-1.5-1.7
					C37.3,9.8,36.6,9.5,35.2,9z"/>
				<path class="st19" d="M35.2,9.1c-1.6-0.6-5,1.6-8.1,4.2c-2.9,2.4-6.1,5-6.2,5.7c-0.1,0.7,0.1,1.2,0.6,1.6c0.3,0.3,0.7,0.5,1,0.6
					c0.7,0.3,1.6,0.3,2.2,0.6c0.2,0.1,0.3,0.2,0.4,0.3c0.6,0.8,1.2,1.1,2,1.4c0.3,0.1,0.7,0.2,1.2,0.3c1.1,0.2,1.7-0.2,2.9,0.2
					c1.3,0.4,2.1,1.3,3.8,1.3c0.1,0,0.2,0,0.3,0c1.1-0.1,2.2-0.6,2.9-1.7c0.3-0.5,0.5-1,0.7-1.4c0.3-0.5,0.8-1,1.8-1.1
					c0.9-0.1,1.5-0.6,2.3-0.8c1.6-0.4,2-2,1.4-3c-0.4-0.6-1.4-1.2-2.3-2c-1.5-1.3-2.8-1.9-3.3-3.2c-0.2-0.6-0.7-1-1.3-1.6
					C37.1,9.9,36.4,9.6,35.2,9.1z"/>
				<path class="st20" d="M35.2,9.2c-1.5-0.6-5,1.6-8.1,4.1c-3,2.4-6.1,5.1-6.1,5.7s0.2,1.1,0.7,1.4c0.3,0.2,0.6,0.4,1,0.5
					c0.7,0.3,1.6,0.2,2.2,0.5c0.2,0.1,0.3,0.2,0.4,0.3c0.6,0.8,1.2,1.2,2,1.4c0.3,0.1,0.7,0.2,1.2,0.2c1.1,0.2,1.6-0.3,2.9,0.2
					s2,1.4,3.7,1.3c0.1,0,0.2,0,0.3,0c1.1-0.1,2.2-0.6,2.9-1.7c0.3-0.5,0.4-1,0.7-1.5c0.3-0.6,0.8-1,1.8-1.1
					c0.9-0.1,1.5-0.5,2.3-0.7c1.6-0.3,2-1.9,1.3-2.8C44,16.4,43,15.8,42,15c-1.6-1.4-2.9-1.9-3.4-3.2c-0.2-0.6-0.6-1-1.1-1.5
					C36.9,10,36.3,9.6,35.2,9.2z"/>
				<path class="st21" d="M40.6,20.4c0.9-0.1,1.5-0.5,2.3-0.7c1.6-0.3,1.9-1.8,1.3-2.6c-0.4-0.6-1.5-1.2-2.5-2
					c-1.7-1.4-3.1-1.9-3.5-3.3c-0.3-1-1.1-1.8-2.9-2.5c-2.8-1.2-14.2,8.6-14.2,9.8c0,1,0.9,1.4,1.7,1.7c0.8,0.3,2.1,0.1,2.6,0.7
					c0.9,1.2,1.6,1.4,3.1,1.6c1.1,0.2,1.6-0.3,2.9,0.2c1.2,0.5,1.9,1.4,3.7,1.4c1.2,0,2.5-0.5,3.2-1.7C38.7,22,38.7,20.6,40.6,20.4z
					"/>
			</g>
			<path class="st24" d="M42.4,16.6c-0.4-1.7-2-2.7-3.7-2.4c-0.1,0-0.2,0-0.2,0.1c0-0.5,0-1-0.1-1.5c-0.7-3.3-3.9-5.4-7.2-4.6
				c-2.7,0.6-4.5,2.8-4.8,5.4c-0.6,0.3-1.1,0.7-1.6,1.2c-0.6-0.3-1.3-0.4-2-0.2c-1.7,0.4-2.7,2-2.4,3.7c0.4,1.7,2,2.7,3.7,2.4
				c0.1,0,0.2,0,0.3-0.1c1,1.6,3,2.5,5,2.1c0.5-0.1,0.9-0.3,1.3-0.5c0.7,1.9,2.7,3,4.7,2.6c2.1-0.4,3.4-2.4,3.2-4.4
				c0.5,0.1,0.9,0.1,1.4,0c0.8-0.2,1.4-0.6,1.8-1.2c0.3,0.2,0.7,0.3,1.1,0.2c0.7-0.2,1.2-0.9,1.1-1.6C43.9,16.9,43.2,16.5,42.4,16.6
				z"/>
		</g>
	</g>
</g>
<g id="Ebene_2">
	<g class="st26">
		<g id="Ebene_2_00000078022075396992531930000007206352953557687453_">
			<g id="__4">
				<g>
					<g>
						<g>
							<path class="st0" d="M64.4,34.7c4.4-4.4,4.2-7.9,2.7-11.9c-1-2.9-1.7-4.8-3.5-7.5c-1.7-2.3-5.2-5.4-10.4-6.2
								c-5.2-0.8-17.3,7.7-21.4,8.7c-4.4,1.5-10,4.6-15.8,7.1c-2.9,1.2-7.3,5-7.5,6.9c-0.2,3.3,1,4.6,2.3,5.8
								c1.2,1.2,4.4,3.5,6.2,4.4c1.7,0.8,6,2.1,7.5,2.1c3.3,0.4,4.4-0.6,7.1-0.4c3.3,0.4,4.6,0.6,6,0.6s2.5-0.4,3.3-0.4
								c1,0,2.9,0,4.2-0.2c3.5-0.8,4.2-0.4,6-1C55.3,41.8,60.7,38.5,64.4,34.7L64.4,34.7z"/>
							<path class="st27" d="M63.8,34.7c4.4-4.2,4.2-7.7,2.7-11.4c-1-2.7-1.7-4.6-3.5-7.3c-1.7-2.3-5-5.4-10.2-6.2
								c-5-0.8-16.9,7.5-21,8.5c-4.4,1.2-9.8,4.4-15.4,6.7c-2.9,1-7.5,4.8-7.5,6.9c0,3.1,1,4.4,2.5,5.6s4.4,3.5,6.2,4.4
								s5.8,1.9,7.5,2.1c3.1,0.4,4.4-0.4,6.9-0.2c3.3,0.4,4.4,0.6,6,0.4c1.5,0,2.5-0.2,3.3-0.2c1.2,0,2.9,0,4.2-0.2
								c3.5-0.6,4-0.4,5.8-1C55.1,41.2,60.3,38,63.8,34.7z"/>
							<path class="st28" d="M63.4,34.5c4.2-4,4-7.5,2.5-11c-1-2.7-1.7-4.6-3.5-7.1c-1.7-2.3-4.8-5.2-10-6.2s-16.4,7.3-20.6,8.3
								c-4.4,1.2-9.6,4.4-15,6.7c-2.9,1.2-7.7,4.6-7.9,6.7c0,3.1,1,4.2,2.5,5.4s4.4,3.5,6,4.2c1.7,0.6,5.8,1.7,7.3,1.9
								c3.1,0.2,4.4-0.4,6.9-0.2c3.3,0.4,4.4,0.4,5.8,0.4c1.2,0,2.5-0.2,3.3-0.2c1.2,0,2.9,0,4.2-0.2c3.3-0.6,4-0.4,5.8-1
								C54.9,40.7,59.9,37.8,63.4,34.5L63.4,34.5z"/>
							<path class="st29" d="M62.8,34.3c4.2-4,4-7.3,2.5-10.8c-1-2.7-1.9-4.4-3.5-6.9c-1.7-2.3-4.6-5.2-9.8-6.2s-16,7.1-20.2,8.1
								c-4.4,1.5-9.2,4.6-14.6,6.9c-2.7,1-8.1,4.4-7.9,6.5c0,2.9,1.2,4,2.7,5.2s4.2,3.5,6,4.2c1.9,0.8,5.6,1.5,7.1,1.7
								c3.1,0.2,4.4-0.2,6.9,0c3.3,0.2,4.4,0.4,5.8,0.4c1.2,0,2.3-0.2,3.3-0.2c1.2,0,2.9,0,4.2-0.4c3.3-0.6,3.7-0.4,5.8-1
								C54.7,40.3,59.4,37.4,62.8,34.3L62.8,34.3z"/>
							<path class="st30" d="M62.4,34.1c4-3.7,3.7-7.1,2.3-10.4c-1-2.7-1.9-4.2-3.5-6.7c-1.7-2.1-4.4-5-9.4-6.2
								c-4.8-1-15.6,6.9-19.8,7.9c-4.4,1.5-9.2,4.6-14.4,6.7c-2.7,1-8.3,4.2-8.1,6.2c0,2.9,1,4,2.5,5s4.2,3.3,5.8,4
								c1.9,0.6,5.4,1.2,7.1,1.5c3.1,0.2,4.4,0,6.9,0.2c3.3,0.2,4.2,0.4,5.6,0.2c1.2,0,2.3-0.2,3.3-0.2c1.5,0,2.9-0.2,4.2-0.4
								c3.1-0.6,3.7-0.2,5.8-1C54.4,39.9,59,37.2,62.4,34.1L62.4,34.1z"/>
							<path class="st31" d="M61.7,33.9c3.7-3.5,3.7-6.9,2.3-10c-1-2.5-1.9-4.2-3.7-6.5c-1.7-2.1-4.2-5-9.2-6.2
								c-4.8-1.2-15.4,6.7-19.4,7.7c-4.2,1.5-8.7,4.6-13.9,6.7c-2.7,1-8.5,4-8.3,6c0.2,2.7,1.2,3.7,2.7,4.8s4.2,3.3,5.8,4
								c1.9,0.6,5.2,1,6.9,1.2c3.1,0.2,4.2,0,6.9,0.2c3.3,0.2,4.2,0.2,5.6,0.2c1.2,0,2.3,0,3.3,0c1.5,0,2.9-0.2,4.4-0.4
								c3.1-0.6,3.7-0.2,5.6-0.8C54.2,39.5,58.6,36.8,61.7,33.9L61.7,33.9z"/>
							<path class="st32" d="M61.3,33.7c3.7-3.3,3.5-6.5,2.1-9.6c-1.2-2.5-2.1-4-3.7-6.2c-1.5-2.1-4-5-9-6.2
								c-4.8-1.2-15,6.5-18.9,7.7c-4.4,1.2-8.7,4.4-13.7,6.2c-2.3,1-8.5,3.7-8.3,6c0.2,2.5,1.5,3.5,2.9,4.6s4.2,3.3,5.8,3.7
								c2.1,0.6,5.2,0.8,6.9,1c3.1,0.2,4.2,0.2,6.7,0.4c3.3,0.2,4,0.2,5.6,0.2c1.2,0,2.3,0,3.3,0c1.5,0,3.1-0.2,4.4-0.4
								c3.1-0.6,3.5-0.2,5.6-0.8C54,39.1,58.2,36.6,61.3,33.7L61.3,33.7z"/>
							<path class="st33" d="M60.9,33.7c3.5-3.1,3.5-6.2,2.1-9.4c-1.2-2.5-2.1-4-3.7-6c-1.5-2.1-3.7-4.8-8.7-6.2
								c-4.6-1.2-14.6,6.2-18.5,7.5c-4.4,1.2-8.3,4.4-13.3,6.2c-2.5,1-9,3.3-8.7,5.8c0.2,2.5,1.5,3.3,2.9,4.4s4,3.3,5.6,3.7
								c2.1,0.6,5,0.6,6.7,0.8c2.9,0.2,4.2,0.4,6.7,0.4c3.3,0.2,4,0.2,5.4,0.2c1.2,0,2.1,0,3.3,0c1.7,0,3.1-0.4,4.4-0.6
								c2.9-0.6,3.5-0.2,5.6-0.8C53.8,38.5,57.8,36.2,60.9,33.7L60.9,33.7z"/>
							<path class="st34" d="M60.3,33.5c3.5-2.9,3.3-6,1.9-9c-1.2-2.3-2.1-3.7-3.7-5.8c-1.5-1.9-3.5-4.8-8.5-6.2
								c-4.6-1.5-14.2,6.2-18.1,7.3c-4.2,1.2-8.1,4.4-12.9,6.2c-2.5,1-9.2,3.1-9,5.6c0.2,2.5,1.7,3.1,3.1,4.2c1.5,1.2,4,3.1,5.6,3.5
								c2.1,0.6,4.8,0.4,6.5,0.6c2.9,0.2,4.2,0.4,6.7,0.6c3.3,0.2,4,0,5.4,0c1.2,0,2.1,0,3.3,0c1.7,0,3.1-0.4,4.4-0.6
								c2.9-0.4,3.3,0,5.4-0.8C53.6,38,57.2,36,60.3,33.5L60.3,33.5z"/>
							<path class="st35" d="M59.9,33.2c3.3-2.7,3.3-5.8,1.9-8.5c-1.2-2.3-2.3-3.5-3.7-5.6c-1.5-1.9-3.3-4.6-8.3-6.2
								c-4.6-1.5-13.7,6-17.7,7.1c-4.2,1-7.9,4.2-12.5,6c-2.3,1-9.6,2.9-9.2,5.4c0.2,2.3,1.7,2.9,3.1,4c1.5,1.2,4,3.1,5.6,3.5
								c2.3,0.4,4.6,0.4,6.5,0.4c2.9,0.2,4.2,0.6,6.7,0.8c3.3,0.2,3.7,0,5.2,0c1,0,2.1,0.2,3.3,0.2c1.7,0,3.1-0.4,4.4-0.6
								c2.7-0.4,3.3,0,5.4-0.8C53.6,37.6,56.9,35.7,59.9,33.2L59.9,33.2z"/>
							<path class="st36" d="M59.2,33c3.1-2.5,3.1-5.6,1.7-8.1c-1.2-2.3-2.3-3.5-3.7-5.4c-1.5-1.9-3.1-4.6-7.9-6.2
								c-4.6-1.7-13.5,5.8-17.3,6.9c-4.2,1.2-7.7,4.2-12.3,6c-2.3,0.8-9.8,2.7-9.4,5.2c0.2,2.1,1.7,2.7,3.1,3.7c1.7,1,4,3.1,5.4,3.3
								c2.3,0.4,4.6,0.2,6.2,0.2c2.9,0.2,4.2,0.8,6.5,0.8c3.3,0.2,3.7,0,5.2,0c1,0,1.9,0.2,3.3,0.2c1.9,0,3.1-0.6,4.4-0.8
								c2.7-0.4,3.1,0,5.4-0.8C53.4,37.2,56.3,35.3,59.2,33z"/>
							<path class="st37" d="M58.8,32.8c3.1-2.3,3.1-5.4,1.7-7.9c-1.2-2.3-2.3-3.3-3.7-5.2s-2.9-4.4-7.7-6.2
								c-4.4-1.7-13.1,5.6-16.9,6.7c-4.2,1.2-7.5,4.2-11.9,6c-2.3,0.8-10,2.5-9.6,5c0.2,2.1,1.9,2.5,3.3,3.5c1.7,1,3.7,2.9,5.4,3.3
								c2.3,0.4,4.4,0,6,0.2c2.9,0.2,4,0.8,6.5,1c3.3,0.2,3.7-0.2,5.2,0c1,0,1.9,0.2,3.3,0.2c1.9,0,3.1-0.6,4.4-0.8
								c2.5-0.4,3.1,0,5.2-0.8C53.2,36.8,55.9,34.9,58.8,32.8L58.8,32.8z"/>
							<path class="st38" d="M58.2,32.8c2.9-2.1,2.9-5,1.5-7.5c-1.2-2.1-2.5-3.3-4-5c-1.5-1.7-2.7-4.4-7.5-6.2
								c-4.4-1.7-12.7,5.4-16.4,6.5c-4.2,1.2-7.3,4.2-11.7,6c-2.3,0.8-10.2,2.3-9.8,4.8c0.2,1.9,1.9,2.3,3.3,3.3
								c1.7,1,3.7,2.9,5.2,3.3c2.3,0.4,4.2-0.2,6,0c2.9,0.2,4,1,6.5,1c3.1,0.2,3.5-0.2,5-0.2c1,0,1.9,0.2,3.3,0.2
								c1.9,0,3.1-0.6,4.4-0.8c2.5-0.4,2.9,0,5.2-0.8C53,36.4,55.5,34.7,58.2,32.8L58.2,32.8z"/>
							<path class="st39" d="M57.8,32.6c2.9-1.9,2.9-4.8,1.5-7.1c-1.2-2.1-2.5-3.1-4-4.8c-1.5-1.7-2.5-4.2-7.3-6.2
								c-4.4-1.9-12.3,5.2-16,6.2c-4.2,1.2-7.1,4.2-11.2,5.8c-2.1,0.8-10.6,2.1-10,4.8c0.4,1.9,1.9,2.3,3.5,3.1
								c1.7,1,3.7,2.9,5.2,3.1c2.5,0.4,4-0.4,5.8-0.2c2.7,0.2,4,1.2,6.5,1.2c3.1,0.2,3.5-0.2,5-0.2c1,0,1.9,0.4,3.3,0.4
								c2.1,0,3.3-0.8,4.4-0.8c2.3-0.4,2.9,0.2,5.2-0.6C52.8,35.7,55.1,34.3,57.8,32.6z"/>
							<path class="st40" d="M57.4,32.4c2.7-1.7,2.7-4.6,1.2-6.9c-1.2-1.9-2.5-2.9-4-4.6s-2.3-4.2-7.1-6.2c-4.4-1.9-11.9,5-15.6,6
								c-4.2,1.2-6.9,4.2-10.8,5.8c-2.1,0.8-10.8,1.9-10.2,4.6c0.4,1.7,2.1,2.1,3.5,2.9c1.7,1,3.5,2.9,5.2,2.9
								c2.5,0.4,3.7-0.4,5.8-0.4c2.7,0.2,4,1.2,6.5,1.5c3.1,0.2,3.3-0.4,4.8-0.2c1,0,1.7,0.4,3.3,0.4c2.1,0,3.3-0.8,4.4-1
								c2.3-0.4,2.7,0.2,5.2-0.6C52.6,35.3,54.7,34.1,57.4,32.4L57.4,32.4z"/>
							<path class="st41" d="M56.7,32.2c2.5-1.5,2.5-4.4,1.2-6.5c-1.2-1.9-2.7-2.9-4-4.4c-1.2-1.5-2.1-4-6.7-6.2
								c-4.2-2.1-11.7,4.8-15.2,5.8c-4,1.2-6.7,4.2-10.4,5.8c-2.1,0.8-11,1.7-10.4,4.4c0.4,1.7,2.1,1.9,3.5,2.7c1.5,1,3.5,2.7,5,2.9
								c2.5,0.2,3.7-0.8,5.6-0.6c2.7,0.2,4,1.5,6.2,1.5c3.1,0.2,3.3-0.4,4.8-0.4c0.8,0,1.7,0.4,3.3,0.4c2.1,0,3.3-0.8,4.4-1
								c2.1-0.4,2.7,0.2,5-0.6C52.4,34.9,54.2,33.7,56.7,32.2L56.7,32.2z"/>
							<path class="st42" d="M56.3,32c2.5-1.2,2.5-4.2,1-6c-1.2-1.9-2.7-2.7-4-4.2c-1.2-1.5-1.9-4-6.5-6.5
								c-4.2-2.1-11.2,4.6-14.8,5.8c-4,1.2-6.5,4.2-10.2,5.6C20.1,27.6,10.7,28,11.4,31c0.4,1.5,2.3,1.7,3.7,2.5
								c1.7,1,3.5,2.7,5,2.9c2.5,0.2,3.5-0.8,5.4-0.8c2.7,0.2,4,1.7,6.2,1.7c3.1,0,3.3-0.4,4.8-0.4c0.8,0,1.7,0.4,3.3,0.4
								c2.3,0,3.3-0.8,4.4-1c2.1-0.2,2.5,0.2,5-0.6C52.2,34.5,53.8,33.5,56.3,32L56.3,32z"/>
							<path class="st43" d="M55.7,32c2.3-1.2,2.3-4,1-5.8c-1.2-1.9-2.7-2.7-4-4.2s-1.7-4-6.2-6.2c-4.2-2.1-10.8,4.6-14.4,5.6
								c-4,1.2-6,4.2-9.8,5.6c-1.9,0.8-11.7,1-10.8,4c0.4,1.5,2.3,1.5,3.7,2.3c1.7,1,3.5,2.7,5,2.7c2.7,0.2,3.3-1,5.4-1
								c2.7,0.2,3.7,1.7,6.2,1.9c3.1,0,3.1-0.6,4.6-0.4c0.8,0,1.7,0.4,3.3,0.6c2.3,0,3.3-1,4.4-1.2c2.1-0.2,2.5,0.2,5-0.6
								C52,34.1,53.2,33,55.7,32L55.7,32z"/>
							<path class="st44" d="M55.3,31.8c2.3-1,2.3-3.7,0.8-5.4c-1.5-1.7-2.9-2.5-4.2-4c-1.2-1.5-1.2-3.7-6-6.2
								c-4.2-2.3-10.4,4.4-13.9,5.4c-4,1.2-5.8,4.2-9.4,5.6C20.7,28,10.7,28,11.6,31c0.4,1.2,2.3,1.2,3.7,2.1c1.7,1,3.3,2.5,4.8,2.7
								c2.7,0.2,3.1-1.2,5.2-1.2c2.7,0.2,3.7,1.9,6,1.9c3.1,0,3.1-0.6,4.6-0.4c0.8,0,1.5,0.6,3.3,0.6c2.3,0,3.3-1,4.4-1.2
								c1.9-0.2,2.3,0.4,5-0.6C51.7,33.7,52.8,32.8,55.3,31.8z"/>
							<path class="st45" d="M54.7,31.6c2.1-0.8,2.1-3.3,0.8-5c-1.2-1.7-2.9-2.3-4.2-3.7c-1.2-1.2-1-3.7-5.8-6.2
								c-4-2.3-10,4.2-13.5,5.2c-4,1.2-5.6,4.2-9.2,5.6C20.9,28,10.7,28,11.6,31.2c0.4,1.2,2.5,1,4,1.9c1.7,0.8,3.3,2.5,4.8,2.5
								c2.7,0,2.9-1.5,5-1.5c2.5,0.2,3.7,2.1,6,2.1c3.1,0,3.1-0.6,4.4-0.6c0.8,0,1.5,0.6,3.3,0.6c2.5,0,3.5-1,4.4-1.2
								c1.9-0.2,2.3,0.4,4.8-0.6C51.7,33,52.4,32.4,54.7,31.6z"/>
							<path class="st46" d="M54.2,31.4c1.9-0.6,2.1-3.1,0.8-4.6s-2.9-2.3-4.2-3.5c-1.2-1.2-1-3.5-5.6-6.2c-4-2.3-9.6,4-13.1,5
								c-4,1.2-5.4,4.2-8.7,5.4C21.8,28,10.9,27.8,12,31c0.4,1,2.5,0.8,4,1.7c1.7,0.8,3.3,2.5,4.6,2.5c2.7,0,2.9-1.7,5-1.7
								c2.5,0.2,3.7,2.1,6,2.1c3.1,0,2.9-0.8,4.4-0.6c0.8,0,1.5,0.6,3.3,0.6c2.5,0,3.5-1.2,4.4-1.2c1.7-0.2,2.3,0.4,4.8-0.4
								C51.5,32.6,52,32.2,54.2,31.4z"/>
							<path class="st21" d="M53.8,31.2c1.9-0.4,1.9-2.9,0.6-4.4c-1.5-1.5-3.1-2.1-4.2-3.3c-1.2-1.2-0.8-3.5-5.2-6.2
								c-4-2.5-9.4,3.7-12.7,4.8c-4,1.2-5.2,4.2-8.3,5.4c-1.7,0.6-12.9,0.2-11.7,3.3c0.4,1,2.7,0.6,4.2,1.5c1.7,0.8,3.3,2.3,4.6,2.3
								c2.9-0.2,2.7-1.9,4.8-1.9c2.5,0,3.7,2.3,6,2.3c3.1,0,2.9-0.8,4.4-0.6c0.8,0,1.2,0.8,3.3,0.8c2.5,0,3.5-1.2,4.6-1.2
								c1.7-0.2,2.1,0.4,4.8-0.4C51.3,32.2,51.5,31.8,53.8,31.2L53.8,31.2z"/>
						</g>
						<path class="st25" d="M52.6,25.1c-0.4-1.5-1.2-2.5-2.3-3.5c0.2-0.8,0.4-1.7,0.4-2.5c0.2-4.4-3.1-8.1-7.5-8.3
							c-3.3-0.2-6.2,1.9-7.5,4.6c-0.2,0-0.4,0-0.6,0c-2.7-0.2-5.2,1.2-6.9,3.1c-0.6,0.2-1,0-1.7,0c-2.3-0.2-4.4,1.7-4.6,4.2
							c0,0.4,0,0.8,0.2,1.2c-0.8,0.2-1.7,0.6-2.1,1.5c-0.6-1.2-1.7-1.9-3.1-1.9c-1.7,0-3.3,1-4,2.7h-0.2c-1.7,0-3.1,1.2-3.1,2.9
							s1.2,3.1,2.9,3.1c0.8,0,1.7-0.2,2.1-0.8c0.6,0.4,1.2,0.6,1.9,0.6c0.6,1.5,2.1,2.5,3.7,2.5c1.7,0,3.3-0.8,4-2.3
							c0.6,0,1.2,0.2,1.7,0.2c0.2,0,0.4,0,0.6,0c1,1.2,2.5,2.3,4.4,2.3c1.9,0,3.3-0.6,4.6-1.9c0.6,1.2,2.1,2.3,3.7,2.3
							s3.1-0.8,4-2.3c0.8,0.4,1.9,0.6,2.7,0.8c2.1,0,4.2-0.8,5.4-2.5c0.2,0.2,0.6,0.2,1,0.2c1.7,0,3.1-1.2,3.3-2.9
							C55.7,26.6,54.2,25.1,52.6,25.1L52.6,25.1z"/>
						<path class="st22" d="M52.8,25.1c-0.4-1.5-1.2-2.5-2.3-3.5c0.2-0.8,0.4-1.7,0.4-2.5c0.2-4.4-3.1-8.1-7.5-8.3
							c-3.3-0.2-6.2,1.9-7.5,4.6c-0.2,0-0.4,0-0.6,0c-3.1,0.2-5.6,1.5-7.1,3.5c-0.4-0.2-1-0.2-1.5-0.2c-2.3-0.2-4.4,1.7-4.6,4.2
							c0,0.4,0,0.8,0.2,1.2c-0.8,0-1.7,0.4-2.1,1.2c-0.6-1-1.9-1.7-3.1-1.7c-1.9,0-3.3,1-4,2.5H13c-1.7,0-3.1,1.2-3.1,2.9
							s1.2,3.1,2.9,3.1c0.8,0,1.7-0.2,2.1-0.8c0.6,0.4,1.2,0.6,1.9,0.6c0.6,1.5,2.1,2.5,3.7,2.5s3.3-0.8,4-2.3c0.6,0,1,0.2,1.7,0.2
							c0.2,0,0.4,0,0.6,0c1,1.2,2.5,2.3,4.4,2.3c1.9,0,3.3-0.6,4.6-1.9c0.6,1.2,2.1,2.3,3.7,2.3s3.1-0.8,4-2.3
							c0.8,0.4,1.9,0.6,2.7,0.8c2.1,0,4.2-0.8,5.4-2.5c0.2,0.2,0.6,0.2,1,0.2c1.7,0,3.1-1.2,3.3-2.9C55.7,26.8,54.4,25.3,52.8,25.1
							L52.8,25.1z"/>
					</g>
					<g>
						<g>
							<path class="st0" d="M47.8,29.5c2.1-3.5,0-8.3-1-11c-0.8-1.9-3.1-4.6-5.2-5.4c-1.9-1-2.7-2.1-5.2-2.3
								c-3.3-0.4-7.9,2.3-10.8,3.1s-8.1,3.3-11,6.2c-3.3,3.5-3.3,6.5-2.5,8.5c0.8,2.3,2.5,3.5,3.5,4.4s2.1,1.7,3.1,2.3
								c2.3,1,4.2,1,5.8,1.2c1.2,0,4.6,0.4,7.9-0.4c2.3-0.4,4.6-0.8,5.8-1.2C41.1,33.9,45.9,32.4,47.8,29.5z"/>
							<path class="st27" d="M47.4,29.3c2.1-3.5,0-8.1-0.8-10.6c-0.8-1.9-3.1-4.4-5-5.2c-1.9-1-2.5-2.1-5.2-2.5
								c-3.3-0.4-7.9,2.3-10.6,3.1c-2.9,0.8-8.1,3.1-10.8,6.2c-3.1,3.5-3.3,6.2-2.5,8.3c0.8,2.1,2.5,3.3,3.5,4.2
								c1,0.8,2.1,1.7,3.3,2.1c2.3,1,4.2,0.8,5.8,1c1.2,0.2,4.6,0.4,7.9-0.2c2.3-0.4,4.4-0.8,5.6-1.2C40.9,33.7,45.7,32.2,47.4,29.3
								L47.4,29.3z"/>
							<path class="st28" d="M47,29.1c2.1-3.3,0.2-7.9-0.8-10.2c-0.8-1.9-2.9-4.2-4.8-5.2c-1.9-0.8-2.3-2.3-5-2.7
								c-3.3-0.4-7.9,2.3-10.6,3.1c-3.1,0.8-8.1,3.3-10.6,6c-3.1,3.3-3.5,6.2-2.5,8.3s2.5,3.1,3.5,4c1,0.8,2.1,1.5,3.3,2.1
								c2.3,1,4.2,0.8,5.8,0.8c1.2,0.2,4.4,0.4,7.7-0.2c2.5-0.4,4.4-0.8,5.4-1.2C40.7,33.2,45.3,32,47,29.1L47,29.1z"/>
							<path class="st29" d="M46.5,29.1c2.1-3.3,0.2-7.5-0.6-10c-0.8-1.9-2.9-4-4.8-5c-1.9-0.8-2.3-2.5-5-2.9
								c-3.1-0.6-7.7,2.5-10.4,3.1c-2.9,0.8-7.9,3.1-10.4,5.8c-3.1,3.1-3.5,6-2.7,8.1c0.8,2.1,2.5,2.9,3.5,3.7
								c1,0.8,2.1,1.5,3.3,1.9c2.3,1,4.2,0.6,5.6,0.8c1.2,0.2,4.4,0.6,7.7-0.2c2.5-0.4,4.4-0.8,5.4-1.2
								C40.5,32.8,44.9,31.6,46.5,29.1L46.5,29.1z"/>
							<path class="st30" d="M46.3,28.9c2.1-3.1,0.4-7.3-0.6-9.6c-0.8-1.9-2.9-4-4.8-4.8c-1.7-0.8-2.1-2.7-4.8-3.3
								c-3.1-0.6-7.7,2.5-10.4,3.3c-2.9,0.8-7.9,3.1-10.4,5.6c-2.7,3.1-3.5,5.8-2.5,8.1c1,2.1,2.5,2.9,3.5,3.7
								c1,0.6,2.1,1.2,3.3,1.9c2.3,0.8,4.2,0.4,5.6,0.6c1.2,0.2,4.2,0.6,7.5,0c2.5-0.4,4.2-0.8,5.2-1.2
								C40.5,32.4,44.7,31.4,46.3,28.9L46.3,28.9z"/>
							<path class="st31" d="M45.9,28.7c2.1-2.9,0.4-7.1-0.4-9.2c-0.8-1.7-2.9-3.7-4.6-4.6S39,12,36.3,11.4
								c-3.1-0.6-7.9,2.5-10.4,3.3c-3.1,0.8-7.9,2.9-10.4,5.4C12.8,23,11.8,26,12.8,28c1,1.9,2.5,2.7,3.7,3.5c1,0.6,2.1,1.2,3.3,1.7
								c2.3,0.8,4,0.4,5.4,0.4c1.2,0.2,4.2,0.6,7.5,0c2.5-0.4,4.2-0.8,5.2-1.2C40.3,32.2,44.3,31.2,45.9,28.7z"/>
							<path class="st32" d="M45.5,28.5c2.1-2.9,0.6-6.9-0.4-8.7c-0.8-1.7-2.7-3.5-4.4-4.4c-1.7-0.8-1.9-3.1-4.6-3.7
								c-3.1-0.8-7.9,2.7-10.4,3.3c-2.9,0.8-7.7,2.9-10,5.2c-2.5,2.7-3.7,5.6-2.7,7.7c1,1.9,2.5,2.5,3.7,3.3c1,0.8,2.3,1.2,3.3,1.7
								c2.3,0.8,4,0.2,5.4,0.4c1.2,0.2,4,0.8,7.5,0c2.5-0.4,4-1,5-1.2C40.1,31.8,43.8,30.8,45.5,28.5L45.5,28.5z"/>
							<path class="st33" d="M45.1,28.3c2.1-2.7,0.6-6.5-0.2-8.5c-0.8-1.7-2.5-3.3-4.4-4.2c-1.7-0.8-1.7-3.1-4.4-4
								c-3.1-0.8-7.9,2.7-10.4,3.3c-2.7,0.8-7.5,2.9-9.8,5.2c-2.5,2.7-3.7,5.4-2.7,7.7c1,1.9,2.5,2.5,3.7,3.1c1,0.6,2.3,1,3.3,1.5
								c2.3,0.8,4,0,5.2,0.2s4,0.8,7.3,0.2c2.5-0.4,4-1,4.8-1C39.9,31.4,43.6,30.5,45.1,28.3L45.1,28.3z"/>
							<path class="st34" d="M44.7,28.3c2.1-2.7,0.8-6.2-0.2-8.1c-0.8-1.7-2.5-3.1-4.2-4s-1.5-3.3-4.4-4.2
								c-3.1-0.8-7.7,2.7-10.4,3.5c-2.5,0.4-7.3,2.5-9.4,4.6c-2.3,2.5-3.7,5.2-2.7,7.5c1,1.9,2.5,2.3,3.7,2.9c1,0.6,2.3,1,3.3,1.5
								c2.5,0.8,4,0,5.2,0.2c1.2,0.2,4,0.8,7.3,0.2c2.5-0.4,3.7-1,4.8-1C39.9,31,43.2,30.3,44.7,28.3L44.7,28.3z"/>
							<path class="st35" d="M44.5,28c2.1-2.5,0.8-6,0-7.7c-0.8-1.5-2.3-3.1-4.2-4c-1.7-0.8-1.2-3.5-4.2-4.4
								c-3.1-1-7.7,2.7-10.2,3.5c-2.9,0.6-7.7,2.5-9.6,4.6c-2.3,2.5-4,5.2-2.7,7.5c0.8,1.7,2.5,2.1,3.7,2.7c1,0.6,2.3,1,3.3,1.2
								c2.5,0.6,3.7-0.2,5,0c1,0.2,3.7,0.8,7.1,0.2c2.5-0.4,3.7-1,4.6-1C39.7,30.5,42.8,30.1,44.5,28L44.5,28z"/>
							<path class="st36" d="M44,27.8c2.1-2.5,1-5.6,0-7.5c-0.8-1.5-2.3-2.9-4-3.7c-1.5-0.6-1.2-3.7-4-4.8c-2.9-1-7.7,2.9-10.2,3.5
								c-2.9,1-7.5,2.9-9.4,4.8c-2.1,2.3-4,5-2.7,7.3c0.8,1.7,2.5,2.1,3.7,2.5c1,0.4,2.3,0.8,3.5,1.2c2.5,0.6,3.7-0.4,5-0.2
								c1,0.2,3.7,1,7.1,0.4c2.5-0.4,3.7-1,4.6-1C39.5,30.3,42.6,29.7,44,27.8L44,27.8z"/>
							<path class="st37" d="M43.6,27.6c2.1-2.3,1-5.4,0.2-7.1c-0.8-1.5-2.1-2.7-3.7-3.5c-1.5-0.6-1-4-4-5c-2.9-1-7.7,2.9-10.2,3.7
								c-2.9,0.8-7.5,2.5-9.2,4.4c-2.1,2.1-4,4.8-2.7,7.1c0.8,1.7,2.5,1.9,3.7,2.5c1,0.4,2.3,0.8,3.5,1c2.5,0.6,3.7-0.4,4.8-0.2
								c1,0.2,3.5,1,6.9,0.4c2.5-0.4,3.5-1,4.4-1C39.3,29.9,42.2,29.5,43.6,27.6L43.6,27.6z"/>
							<path class="st38" d="M43.2,27.6c2.1-2.3,1.2-5.2,0.2-6.7c-0.8-1.5-2.1-2.5-3.7-3.3c-1.5-0.6-0.8-4-3.7-5.2
								c-2.9-1.2-7.5,2.7-10,3.5c-2.7,0.6-7.3,2.5-9,4.2c-1.9,2.1-4.2,4.8-2.7,7.1c0.8,1.7,2.5,1.7,4,2.3c1,0.4,2.5,0.6,3.5,1
								c2.5,0.6,3.7-0.6,4.8-0.4s3.5,1,6.9,0.4c2.5-0.4,3.5-1,4.4-1C39,29.5,41.8,29.1,43.2,27.6L43.2,27.6z"/>
							<path class="st39" d="M43,27.4c2.1-2.1,1.2-4.8,0.4-6.5c-0.8-1.5-1.9-2.5-3.5-3.1c-1.5-0.6-0.8-4.2-3.7-5.4
								s-7.7,2.9-10.2,3.7c-2.7,0.8-7.3,2.5-8.7,4.2c-1.9,1.9-4.2,4.6-2.7,6.9c0.8,1.5,2.5,1.7,4,2.1c1,0.4,2.5,0.6,3.5,0.8
								c2.5,0.4,3.7-0.8,4.8-0.4s3.3,1.2,6.7,0.6c2.5-0.4,3.3-1,4.2-1C39,29.1,41.5,28.9,43,27.4L43,27.4z"/>
							<path class="st40" d="M42.6,27.2c2.1-2.1,1.5-4.6,0.6-6c-0.8-1.2-1.9-2.3-3.5-2.9c-1.2-0.6-0.6-4.4-3.5-5.6
								c-2.9-1.2-7.7,2.9-10.2,3.5c-2.7,0.8-7.1,2.5-8.5,4c-1.7,1.9-4.2,4.6-2.9,6.9c0.8,1.5,2.5,1.5,4,1.9c1.2,0.4,2.5,0.6,3.5,0.8
								c2.5,0.4,3.5-0.8,4.6-0.6c1,0.2,3.3,1.2,6.7,0.6c2.5-0.4,3.3-1,4-1C38.8,28.7,41.1,28.7,42.6,27.2L42.6,27.2z"/>
							<path class="st41" d="M42.2,27c2.1-1.9,1.5-4.4,0.6-5.6c-0.8-1.2-1.7-2.1-3.3-2.7c-1.2-0.6-0.4-4.6-3.3-5.8
								c-2.9-1.5-7.7,2.9-10.2,3.5c-2.7,0.8-7.1,2.5-8.3,3.7c-1.7,1.7-4.4,4.4-2.9,6.7c0.8,1.5,2.5,1.5,4,1.9
								c1.2,0.4,2.5,0.4,3.5,0.6c2.5,0.4,3.5-1,4.6-0.8s3.1,1.2,6.7,0.6c2.5-0.4,3.1-1,4-1C38.6,28.3,40.7,28.5,42.2,27L42.2,27z"/>
							<path class="st42" d="M41.8,27c2.1-1.9,1.7-4,0.6-5.4c-0.8-1.2-1.7-1.9-3.3-2.7c-1.2-0.6-0.4-4.6-3.3-6.2
								c-2.7-1.5-7.7,3.1-10,4c-2.3,0.8-6.7,2.3-7.9,3.7c-1.5,1.5-4.4,4.2-2.9,6.5c0.8,1.2,2.5,1,4,1.5c1.2,0.2,2.5,0.4,3.5,0.6
								c2.5,0.4,3.5-1,4.4-0.8c1,0.2,3.1,1.2,6.5,0.8c2.7-0.4,3.1-1,3.7-1C38.4,28,40.3,28.3,41.8,27L41.8,27z"/>
							<path class="st43" d="M41.5,26.8c2.1-1.7,1.7-3.7,0.8-5c-1-1.2-1.7-1.9-3.1-2.5c-1.2-0.6-0.2-4.8-3.1-6.5
								c-2.9-1.5-7.7,3.3-10,4c-2.7,0.8-7.1,2.3-8.1,3.3c-1.2,1.2-4.4,4.2-2.9,6.5c0.8,1.2,2.5,1,4.2,1.5c1,0.2,2.3,0.2,3.5,0.4
								c2.5,0.2,3.5-1.2,4.4-1c1,0.2,2.9,1.5,6.5,0.8c2.7-0.4,2.9-1.2,3.7-1C38.4,27.6,40.1,27.8,41.5,26.8L41.5,26.8z"/>
							<path class="st44" d="M41.1,26.6c2.1-1.7,1.9-3.5,1-4.6c-0.8-1.2-1.5-1.7-2.9-2.3c-1.2-0.4,0-5-3.1-6.7
								c-2.9-1.5-7.7,3.1-10,4c-2.7,0.6-6.9,2.1-7.9,3.1c-1.2,1.2-4.6,4-2.9,6.5c0.8,1.2,2.5,0.8,4.2,1.2C20.7,28,22,28,23,28.3
								c2.5,0.2,3.3-1.5,4.2-1c1,0.4,2.9,1.5,6.2,0.8c2.7-0.4,2.9-1.2,3.5-1C38.2,27.2,39.7,27.6,41.1,26.6L41.1,26.6z"/>
							<path class="st45" d="M40.7,26.4c2.1-1.5,1.9-3.3,1-4.4s-1.2-1.5-2.9-2.1c-1.2-0.4,0-5.2-2.9-6.9c-2.7-1.5-7.5,3.3-9.8,4.2
								c-2.7,0.6-6.9,2.1-7.7,2.9c-1,1-4.6,3.7-2.9,6.2c0.8,1.2,2.5,0.8,4.2,1c1.2,0.2,2.5,0.2,3.7,0.2c2.7,0.2,3.3-1.5,4.2-1.2
								c1,0.4,2.9,1.5,6.2,1c2.7-0.4,2.9-1.2,3.3-1C38,26.8,39.5,27.4,40.7,26.4L40.7,26.4z"/>
							<path class="st46" d="M40.3,26.2c2.1-1.2,2.1-2.9,1.2-4c-0.8-1-1.2-1.2-2.7-1.9c-1-0.4,0.2-5.2-2.9-7.1
								c-2.7-1.7-7.5,3.3-9.8,4c-2.5,0.8-6.7,2.1-7.5,2.9c-1,0.8-4.6,3.7-2.9,6c0.8,1,2.5,0.6,4.2,0.8c1.2,0.2,2.7,0,3.7,0.2
								c2.5,0.2,3.1-1.7,3.7-1.2c0.8,0.4,2.7,1.7,6,1c2.7-0.4,2.7-1.2,3.3-0.8C37.8,26.6,39,27.2,40.3,26.2L40.3,26.2z"/>
							<path class="st21" d="M39.9,26.2c2.1-1.2,2.1-2.7,1.2-3.5c-0.8-1-1-1-2.7-1.7c-1-0.4,0.4-5.4-2.7-7.3
								c-2.5-1.7-7.5,3.3-9.8,4.2c-2.5,0.8-6.7,2.1-7.5,2.7c-0.6,0.4-4.4,3.3-2.7,5.6c0.8,1,2.5,0.4,4.2,0.6c1.2,0.2,2.7,0,3.7,0
								c2.7,0,3.3-1.9,4-1.5c0.8,0.4,2.7,1.7,6,1c2.7-0.4,2.7-1.2,3.1-0.8C37.8,26.2,38.6,26.8,39.9,26.2L39.9,26.2z"/>
						</g>
						<path class="st24" d="M40.1,20.8c0.2-0.6,0.2-1.5,0.2-2.3c0-4.8-3.7-8.5-8.5-8.5c-4,0-7.3,2.7-8.3,6.5h-0.2
							c-1.9,0-3.5,1-4.4,2.5c-0.6-0.4-1-0.4-1.7-0.4c-2.3,0-4.2,1.9-4.2,4.2s1.9,4.2,4.2,4.2c1,0,1.9-0.4,2.7-1
							c0.8,0.8,2.1,1.2,3.3,1.2c1.5,0,2.7-0.6,3.7-1.5c1.5,1,3.1,1.5,4.8,1.5c1.7,0,3.1-0.4,4.4-1.2c0.6,0.8,1.5,1.2,2.5,1.2
							c1.9,0,3.3-1.5,3.3-3.3C42,22.4,41.1,21.2,40.1,20.8L40.1,20.8z"/>
						<path class="st22" d="M40.3,20.8c0.2-0.6,0.2-1.5,0.2-2.3c0-4.8-3.7-8.5-8.5-8.5c-4,0-7.3,2.7-8.3,6.5h-0.2
							c-1.9,0-3.5,1-4.6,2.5c-0.4-0.2-1-0.4-1.5-0.4c-2.3,0-4.2,1.9-4.2,4.2s1.9,4.2,4.2,4.2c1,0,1.9-0.4,2.7-1
							c0.8,0.8,2.1,1.2,3.3,1.2c1.5,0,2.7-0.6,3.7-1.5c1.5,1,3.1,1.5,4.8,1.5c1.7,0,3.1-0.4,4.6-1.2C37.2,26.6,38,27,39,27
							c1.9,0,3.3-1.5,3.3-3.3C42.2,22.4,41.3,21.4,40.3,20.8L40.3,20.8z"/>
					</g>
					<g>
						<g>
							<path class="st0" d="M63.6,32c2.5-2.1,2.1-8.7,0.8-10.4c-1.7-2.3-3.5-3.7-5-4.6c-1.5-0.8-5.8-1.5-7.9-1.5
								c-2.7,0-5.4,0.6-7.7,1.2c-2.5,0.6-7.1,2.3-9.4,4.8c-2.7,2.9-0.2,8.5,0.4,9.4c1.2,1.7,2.7,3.1,4.6,4c1.9,0.8,3.3,0.8,4.8,0.8
								c1,0,5.6,0.6,8.3,0c1.9-0.4,5.2-1,6-1.5C59.4,34.3,61.5,33.7,63.6,32L63.6,32z"/>
							<path class="st27" d="M63.2,31.8c2.5-2.1,2.1-8.5,0.8-10.2c-1.7-2.3-3.3-3.7-5-4.4c-1.7-0.8-5.8-1.5-7.7-1.5
								c-2.7,0-5.4,0.6-7.5,1.2c-2.5,0.6-7.1,2.3-9.2,4.8c-2.5,2.7-0.4,8.3,0.4,9.2c1.2,1.5,2.7,3.1,4.6,4s3.3,0.8,4.8,0.8
								c1,0,5.4,0.6,8.1,0.2c1.9-0.4,5-1,6-1.5C59,33.9,61.1,33.5,63.2,31.8z"/>
							<path class="st28" d="M62.8,31.6c2.5-2.1,2.1-8.1,0.8-10c-1.7-2.3-3.3-3.5-5-4.4c-1.5-0.6-5.4-1.5-7.3-1.5
								c-2.7,0-5.2,0.6-7.5,1.2s-7.1,2.3-9.2,4.6c-2.5,2.7-0.4,8.1,0.4,9c1.2,1.5,2.5,2.9,4.4,4c1.9,0.8,3.3,0.6,4.6,0.8
								c1,0,5.2,0.8,7.9,0.2c1.9-0.4,5-1,5.8-1.5C58.6,33.7,60.7,33.2,62.8,31.6z"/>
							<path class="st29" d="M62.4,31.4c2.5-1.9,2.1-7.9,0.8-9.6c-1.7-2.3-3.3-3.5-4.8-4.2s-5.2-1.5-7.1-1.5c-2.5,0-5.2,0.6-7.3,1
								c-2.3,0.6-6.9,2.3-9,4.6c-2.3,2.5-0.4,7.9,0.2,8.7c1.2,1.5,2.5,2.9,4.4,3.7s3.3,0.6,4.6,0.8c1,0.2,5.2,0.8,7.9,0.2
								c1.9-0.4,4.8-1,5.6-1.7C58.4,33.2,60.3,32.8,62.4,31.4L62.4,31.4z"/>
							<path class="st30" d="M61.9,31.2c2.3-1.9,2.1-7.5,0.8-9.4c-1.7-2.3-3.3-3.5-4.8-4.2c-1.5-0.6-5-1.5-6.9-1.5
								c-2.5,0-5.2,0.4-7.3,1c-2.3,0.6-6.9,2.3-8.7,4.6c-2.3,2.3-0.6,7.5,0.2,8.5c1,1.5,2.3,2.9,4.2,3.7c1.7,0.8,3.1,0.6,4.4,0.8
								c1,0.2,5,0.8,7.7,0.4c1.9-0.4,4.8-1.2,5.6-1.7S59.9,32.6,61.9,31.2L61.9,31.2z"/>
							<path class="st31" d="M61.5,31c2.3-1.9,2.1-7.3,0.8-9.2c-1.5-2.3-3.3-3.3-4.8-4.2c-1.5-0.6-4.8-1.5-6.7-1.5
								c-2.5-0.2-5,0.4-7.3,1s-6.9,2.3-8.7,4.4c-2.1,2.3-0.6,7.3,0.2,8.3c1,1.2,2.1,2.7,4.2,3.5c1.7,0.8,3.1,0.6,4.4,0.6
								c1,0.2,4.8,0.8,7.5,0.4c2.1-0.4,4.6-1.2,5.4-1.7C57.6,32.6,59.7,32.4,61.5,31L61.5,31z"/>
							<path class="st32" d="M61.1,30.8c2.3-1.7,2.1-7.1,0.8-9c-1.5-2.3-3.1-3.3-4.6-4c-1.2-0.6-4.6-1.2-6.5-1.5
								c-2.3-0.2-5,0.4-7.1,1c-2.3,0.6-6.7,2.5-8.5,4.4c-2.1,2.3-0.6,7.1,0.2,8.1c1,1.2,2.1,2.7,4,3.5c1.7,0.6,3.1,0.4,4.4,0.6
								c1,0.2,4.6,1,7.3,0.4c2.1-0.4,4.6-1.2,5.2-1.7C57.2,32.4,59.2,32.2,61.1,30.8L61.1,30.8z"/>
							<path class="st33" d="M60.7,30.5c2.3-1.7,2.1-6.7,0.8-8.5c-1.5-2.3-3.1-3.1-4.6-4c-1.2-0.6-4.4-1.2-6-1.5
								c-2.3-0.2-5,0.4-7.1,0.8c-2.3,0.6-6.7,2.5-8.3,4.2c-1.9,2.1-0.6,6.9,0.2,7.9c0.8,1,1.9,2.7,4,3.3c1.7,0.6,3.1,0.4,4.2,0.6
								s4.4,1,7.1,0.6c2.1-0.4,4.4-1.2,5.2-1.7C56.7,32,58.8,31.8,60.7,30.5L60.7,30.5z"/>
							<path class="st34" d="M60.3,30.3c2.3-1.7,2.1-6.5,0.8-8.3c-1.5-2.3-3.1-3.1-4.6-3.7c-1.2-0.6-4.2-1.2-5.8-1.5
								c-2.3-0.2-4.8,0.4-6.9,0.8c-2.3,0.6-6.7,2.5-8.1,4.2c-1.9,2.1-0.8,6.5,0.2,7.7s1.9,2.5,3.7,3.3c1.7,0.6,3.1,0.4,4.2,0.4
								c0.8,0.2,4.2,1.2,6.9,0.6c2.1-0.4,4.4-1.5,5-1.7C56.5,31.8,58.4,31.6,60.3,30.3L60.3,30.3z"/>
							<path class="st35" d="M59.9,30.1c2.1-1.5,2.1-6.2,0.8-8.1c-1.5-2.3-3.1-3.1-4.6-3.7c-1.2-0.6-4-1.2-5.6-1.5
								c-2.1-0.2-4.8,0.2-6.9,0.8c-2.3,0.6-6.5,2.5-8.1,4c-1.9,1.9-0.8,6.2,0.2,7.5c0.8,1,1.7,2.5,3.5,3.3c1.7,0.6,2.9,0.2,4,0.4
								c0.8,0.2,4.2,1.2,6.7,0.6C52,33,54,32,54.7,31.6C56.1,31.4,58,31.4,59.9,30.1L59.9,30.1z"/>
							<path class="st36" d="M59.4,29.9c2.1-1.5,2.1-5.8,1-7.9c-1.5-2.3-3.1-2.9-4.4-3.5s-3.7-1.2-5.4-1.5c-2.1-0.2-4.6,0.2-6.7,0.8
								c-2.3,0.6-6.5,2.5-7.9,4c-1.7,1.9-0.8,6,0.2,7.3c0.8,1,1.7,2.5,3.5,3.1c1.7,0.6,2.9,0.2,4,0.4c0.8,0.2,4,1.2,6.7,0.8
								c2.1-0.4,4.2-1.5,4.8-1.9C55.7,31.2,57.6,31.2,59.4,29.9L59.4,29.9z"/>
							<path class="st37" d="M59,29.7c2.1-1.5,2.1-5.6,1-7.5c-1.2-2.3-2.9-2.9-4.4-3.5c-1.2-0.6-3.3-1.2-5.2-1.5
								c-2.1-0.2-4.6,0.2-6.7,0.8c-2.3,0.6-6.5,2.5-7.7,3.7c-1.7,1.7-0.8,5.8,0.2,7.1c0.8,1,1.5,2.5,3.3,3.1
								c1.7,0.6,2.9,0.2,3.7,0.4c0.8,0.2,3.7,1.2,6.5,0.8c2.1-0.4,4-1.5,4.6-1.9C55.3,30.8,57.2,30.8,59,29.7L59,29.7z"/>
							<path class="st38" d="M58.6,29.5c2.1-1.2,2.1-5.4,1-7.3c-1.2-2.3-2.9-2.9-4.4-3.5c-1-0.6-3.1-1.2-5-1.5s-4.6,0.2-6.5,0.6
								c-2.3,0.6-6.2,2.5-7.7,3.7c-1.5,1.7-1,5.4,0.2,6.9c0.8,1,1.2,2.3,3.3,2.9c1.7,0.6,2.9,0.2,3.7,0.2c0.8,0.2,3.5,1.5,6.2,0.8
								c2.1-0.4,4-1.7,4.4-1.9C55.1,30.5,56.7,30.5,58.6,29.5L58.6,29.5z"/>
							<path class="st39" d="M58.2,29.1c2.1-1.2,2.1-5,1-7.1c-1.2-2.3-2.9-2.7-4.2-3.3c-1-0.4-2.9-1.2-4.6-1.5
								c-1.9-0.2-4.4,0-6.5,0.6c-2.3,0.6-6.2,2.5-7.5,3.7c-1.5,1.5-1,5.2,0.2,6.7c0.8,0.8,1.2,2.3,3.1,2.9c1.7,0.4,2.9,0,3.7,0.2
								c0.8,0.2,3.3,1.5,6,1c2.1-0.4,3.7-1.7,4.4-1.9C54.7,30.1,56.5,30.3,58.2,29.1L58.2,29.1z"/>
							<path class="st40" d="M57.8,29.1c2.1-1.2,2.1-4.8,1-6.7c-1.2-2.3-2.9-2.7-4.2-3.3c-1-0.4-2.7-1.2-4.4-1.5
								c-1.9-0.2-4.4,0-6.2,0.6c-2.3,0.6-6.2,2.5-7.3,3.5c-1.2,1.5-1,5,0.2,6.5c0.8,0.8,1,2.3,3.1,2.9c1.5,0.4,2.7,0,3.5,0.2
								c0.8,0.2,3.1,1.5,5.8,1c2.1-0.4,3.7-1.7,4.2-1.9C54.2,29.9,56.1,30.1,57.8,29.1L57.8,29.1z"/>
							<path class="st41" d="M57.4,28.7c2.1-1.2,2.1-4.4,1-6.5c-1.2-2.5-2.9-2.7-4.2-3.1c-1-0.4-2.5-1.2-4.2-1.5
								c-1.7-0.2-4.2,0-6.2,0.6s-6,2.5-7.1,3.5C35.5,23,35.5,26.4,37,28c0.6,0.8,1,2.1,2.9,2.7c1.5,0.4,2.7,0,3.5,0.2
								c0.8,0.2,3.1,1.7,5.8,1.2c2.1-0.4,3.5-1.7,4.2-2.1C53.8,29.5,55.7,29.9,57.4,28.7L57.4,28.7z"/>
							<path class="st42" d="M56.9,28.5c1.9-1,2.1-4.2,1-6.2c-1.2-2.5-2.7-2.5-4.2-3.1c-1-0.4-2.3-1-4-1.5c-1.7-0.4-4.2,0-6,0.4
								c-2.1,0.6-6,2.5-7.1,3.3c-1.2,1.2-1.2,4.4,0,6c0.6,0.8,0.8,2.1,2.9,2.7c1.5,0.4,2.7,0,3.3,0.2c0.8,0.2,2.9,1.7,5.6,1.2
								c2.1-0.4,3.3-1.7,4-2.1C53.6,29.3,55.3,29.5,56.9,28.5L56.9,28.5z"/>
							<path class="st43" d="M56.5,28.3c1.9-1,2.1-4,1-6c-1-2.3-2.7-2.3-4-2.9c-1-0.4-2.1-1-3.7-1.5c-1.7-0.4-4.2-0.2-6,0.4
								c-2.1,0.6-6,2.5-6.9,3.3c-1,1-1.2,4.2,0,5.8c0.6,0.8,0.6,2.1,2.7,2.5c1.5,0.4,2.7-0.2,3.3,0c0.8,0.2,2.7,1.7,5.4,1.2
								c2.1-0.4,3.3-1.9,3.7-2.1C53.2,28.9,54.9,29.3,56.5,28.3L56.5,28.3z"/>
							<path class="st44" d="M56.3,28c1.9-1,2.1-3.5,1-5.6c-1.2-2.5-2.7-2.5-4-2.9c-1-0.4-1.9-1-3.3-1.5c-1.5-0.4-4.2-0.2-6,0.4
								c-2.1,0.6-5.8,2.5-6.7,3.3c-1,1-1.2,4,0,5.6c0.6,0.6,0.6,1.9,2.5,2.5c1.5,0.4,2.7-0.2,3.3,0c0.8,0.2,2.5,1.9,5.2,1.5
								c2.1-0.4,3.1-1.9,3.7-2.1C52.8,28.7,54.4,29.1,56.3,28z"/>
							<path class="st45" d="M55.9,27.8c1.9-0.8,2.1-3.3,1-5.4c-1-2.5-2.7-2.3-4-2.9c-0.8-0.4-1.7-1-3.1-1.5c-1.5-0.4-4-0.2-5.8,0.4
								c-2.1,0.6-5.8,2.5-6.7,3.1c-0.8,0.8-1.5,3.7,0,5.4c0.4,0.6,0.4,1.9,2.5,2.3c1.5,0.4,2.5-0.2,3.1,0c0.8,0.2,2.3,1.9,5,1.5
								c2.1-0.4,3.1-1.9,3.5-2.1C52.4,28.3,54,28.7,55.9,27.8L55.9,27.8z"/>
							<path class="st46" d="M55.5,27.6c1.9-0.8,2.1-2.9,1-5.2c-1-2.5-2.5-2.3-4-2.7c-0.8-0.4-1.5-1-2.9-1.5s-4-0.2-5.6,0.4
								c-2.1,0.6-5.8,2.5-6.5,3.1c-0.8,0.8-1.5,3.3,0,5.2c0.4,0.6,0.4,1.9,2.3,2.3c1.5,0.4,2.5-0.2,3.1,0c0.8,0.2,2.1,1.9,4.8,1.5
								c2.1-0.4,2.9-1.9,3.3-2.3C52,27.8,53.6,28.5,55.5,27.6L55.5,27.6z"/>
							<path class="st21" d="M55.1,27.4c1.7-0.8,2.1-2.7,1-5c-1-2.5-2.5-2.1-3.7-2.7c-0.8-0.4-1.2-1-2.7-1.5
								c-1.2-0.4-3.7-0.2-5.6,0.2c-2.1,0.6-5.6,2.5-6.2,2.9c-0.6,0.6-1.5,3.1,0,5c0.4,0.4,0.2,1.9,2.3,2.3c1.5,0.2,2.5-0.4,2.9-0.2
								c0.8,0.2,2.1,2.1,4.6,1.7c2.1-0.4,2.9-2.1,3.3-2.3C51.7,27.6,53.2,28.3,55.1,27.4z"/>
						</g>
						<path class="st24" d="M52.6,19.3h-0.2c-0.4-1.5-1.9-2.5-3.3-2.5c-0.4,0-1,0-1.2,0.2c-0.4-1.5-1.9-2.3-3.3-2.3
							c-1.5,0-2.7,0.8-3.3,2.3c-0.2,0-0.4,0-0.6,0c-1.7,0-2.9,1.2-3.1,2.7c-0.2,0-0.4,0-0.6,0c-1.9,0-3.5,1.7-3.5,3.5
							c0,1.9,1.7,3.5,3.5,3.5l0,0c0.4,1.5,1.7,2.5,3.1,2.5c1.2,0,2.3-0.6,2.7-1.7c0.8,1.2,2.3,2.3,4,2.3c1.9,0,3.3-1,4.2-2.7
							c0.6,0.4,1.2,0.6,2.1,0.6c2.3,0,4.2-1.9,4.2-4.2S55.1,19.3,52.6,19.3L52.6,19.3z"/>
						<path class="st47" d="M52.8,19.5h-0.2C52.2,18.1,50.7,17,49,17c-0.4,0-1,0.2-1.2,0.2c-0.4-1.5-1.9-2.3-3.3-2.3
							c-1.5,0-2.9,0.8-3.3,2.1c-0.2,0-0.4,0-0.6,0c-1.7,0-2.9,1.2-3.1,2.7c-0.2,0-0.4,0-0.6,0c-1.9,0-3.5,1.7-3.5,3.5
							c0,1.9,1.7,3.5,3.5,3.5l0,0c0.4,1.5,1.7,2.5,3.1,2.5c1.2,0,2.3-0.6,2.7-1.7c0.8,1.2,2.3,2.3,4,2.3c1.9,0,3.3-1,4.2-2.7
							c0.6,0.4,1.2,0.6,2.1,0.6c2.3,0,4.2-1.9,4.2-4.2S55.1,19.3,52.8,19.5L52.8,19.5z"/>
					</g>
					<g>
						<g>
							<path class="st0" d="M60.7,24.5c2.9-3.1,2.7-9.4,1-11.7c-2.1-2.9-4.8-4.2-6.9-5c-2.1-1-4.8-1.9-7.3-2.3
								c-3.1-0.4-6.5,0.8-9.4,1.7c-3.1,0.8-12.7,4.2-15.6,7.3c-1.7,1.7-2.1,4-1.7,6c0.2,2.3,1.2,4.4,1.7,5c1.7,2.1,7.5,4,10,5.2
								c2.3,1,4.4,1,6,1.2c1.2,0.2,5,0,8.5-0.8c2.5-0.4,5-2.5,6-2.9C54.7,27.6,58.4,26.8,60.7,24.5L60.7,24.5z"/>
							<path class="st27" d="M60.3,24.3c2.9-2.9,2.9-9.2,1.2-11.4c-2.1-2.9-4.8-4-6.7-5c-1.9-1-4.8-1.9-7.3-2.3
								c-3.1-0.4-6.5,0.8-9.2,1.7c-3.1,0.8-12.7,4.2-15.6,7.1c-1.7,1.7-2.1,4-1.7,6c0.4,2.3,1.5,4.4,1.9,4.8c1.7,1.9,7.3,4,9.8,5
								c2.3,1,4.4,0.8,6,1c1.2,0.2,5,0.2,8.5-0.6c2.5-0.4,4.8-2.5,6-3.1C54.2,27.2,58,26.6,60.3,24.3L60.3,24.3z"/>
							<path class="st28" d="M59.9,24.1c2.9-2.9,2.9-9,1.2-11c-2.1-2.9-4.6-4-6.5-4.8S50.1,6.4,47.6,6c-2.9-0.4-6.2,0.8-9.2,1.5
								c-3.1,0.8-12.7,4-15.4,6.9c-1.7,1.7-2.1,4-1.7,6c0.4,2.3,1.5,4.2,2.1,4.8c1.7,1.7,7.1,4,9.4,5S37,31,38.6,31
								c1.2,0.2,4.8,0.4,8.3-0.4c2.5-0.4,4.8-2.5,5.8-3.1C54,26.8,57.6,26.4,59.9,24.1L59.9,24.1z"/>
							<path class="st29" d="M59.4,23.9c2.9-2.7,2.9-8.5,1.2-10.8c-2.1-2.9-4.6-3.7-6.5-4.8c-1.9-0.8-4.4-1.9-6.9-2.3
								c-2.9-0.4-6,0.6-9,1.5c-2.9,1-12.7,4.2-15.4,6.9c-1.5,1.7-1.9,4-1.5,5.8c0.4,2.3,1.7,4,2.3,4.6c1.7,1.7,6.7,3.7,9.2,4.8
								c2.3,1,4.2,0.6,5.8,0.8c1.2,0.2,4.6,0.4,8.3-0.2c2.5-0.6,4.6-2.5,5.6-3.1S57.2,26,59.4,23.9L59.4,23.9z"/>
							<path class="st30" d="M59,23.7c2.9-2.7,2.9-8.3,1.2-10.6c-2.1-2.9-4.4-3.7-6.2-4.6c-1.9-0.8-4.2-1.9-6.7-2.3
								c-2.9-0.4-5.8,0.6-8.7,1.5c-2.9,0.8-12.7,4-15.4,6.7c-1.5,1.7-1.9,3.7-1.7,5.8c0.4,2.1,1.9,3.7,2.5,4.4
								c1.7,1.5,6.5,3.7,9,4.8c2.3,1,4.2,0.4,5.6,0.6c1.2,0.2,4.4,0.6,8.1-0.2c2.5-0.6,4.6-2.5,5.6-3.1C53.4,26,56.7,25.8,59,23.7
								L59,23.7z"/>
							<path class="st31" d="M58.6,23.5c2.9-2.5,2.9-7.9,1.2-10.2c-1.9-2.7-4.4-3.5-6.2-4.6c-1.9-0.8-4-1.7-6.5-2.1
								C44.5,6,41.3,7,38.6,7.9c-2.9,0.8-12.9,4-15.4,6.5c-1.5,1.7-1.9,3.7-1.5,5.6c0.4,2.1,1.9,3.7,2.5,4.4
								c1.7,1.5,6.2,3.5,8.7,4.6c2.3,0.8,4,0.2,5.6,0.4c1.2,0.2,4.2,0.8,8.1,0c2.5-0.6,4.4-2.7,5.4-3.1
								C53.2,25.8,56.3,25.5,58.6,23.5L58.6,23.5z"/>
							<path class="st32" d="M58,23.3c2.7-2.5,2.9-7.7,1.2-10c-1.9-2.7-4.2-3.5-6-4.4c-1.7-0.8-3.7-1.7-6.2-2.1
								c-2.7-0.6-5.6,0.4-8.3,1.2c-2.9,0.8-12.9,4-15.2,6.2c-1.5,1.5-1.9,3.7-1.5,5.6c0.4,2.1,1.9,3.5,2.7,4.2
								c1.7,1.2,5.8,3.5,8.3,4.6c2.3,0.8,4,0,5.4,0.2c1.2,0.2,4.2,1,7.9,0.2c2.5-0.6,4.4-2.7,5.2-3.1C52.8,25.1,55.9,25.1,58,23.3
								L58,23.3z"/>
							<path class="st33" d="M57.6,23c2.7-2.3,2.9-7.5,1.5-9.6c-1.9-2.7-4.2-3.3-6-4.4c-1.7-0.8-3.5-1.7-6-2.1
								c-2.5-0.4-5.4,0.4-8.1,1.2c-2.9,0.8-12.9,4-15.2,6.2c-1.7,1.2-1.9,3.5-1.5,5.4c0.4,2.1,2.1,3.3,2.9,4
								c1.7,1.2,5.6,3.3,8.1,4.4c2.1,0.8,4,0,5.2,0.2s4,1.2,7.9,0.2c2.5-0.6,4.2-2.7,5.2-3.3C52.6,24.9,55.5,24.9,57.6,23L57.6,23z"
								/>
							<path class="st34" d="M57.2,22.8c2.7-2.3,2.9-7.1,1.5-9.4c-1.9-2.7-4-3.3-5.8-4.2c-1.7-0.8-3.3-1.7-5.8-2.1s-5.4,0.2-8.1,1
								c-2.9,0.8-12.9,4-15.2,6c-1.5,1.5-1.9,3.5-1.5,5.4c0.6,2.1,2.1,3.3,2.9,3.7c1.5,1,5.4,3.3,7.9,4.4c2.1,0.8,3.7-0.2,5.2,0
								c1.2,0.2,3.7,1.5,7.7,0.4c2.5-0.6,4.2-2.7,5-3.3C52.2,24.5,54.9,24.7,57.2,22.8L57.2,22.8z"/>
							<path class="st35" d="M56.7,22.4c2.7-2.1,2.9-6.9,1.5-9c-1.7-2.7-4-3.1-5.6-4c-1.7-0.8-3.1-1.7-5.6-2.1
								c-2.5-0.4-5.2,0.2-7.9,1c-2.9,0.8-12.9,4-15.2,5.8c-1.5,1.5-1.9,3.5-1.5,5.2c0.6,1.9,2.1,3.3,3.1,3.7
								c1.2,1.2,5.2,3.1,7.7,4.2c2.1,0.8,3.7-0.4,5-0.2s3.7,1.5,7.7,0.6c2.5-0.6,4-2.9,5-3.3S54.4,24.3,56.7,22.4L56.7,22.4z"/>
							<path class="st36" d="M56.3,22.2c2.7-2.1,2.9-6.7,1.5-8.7c-1.7-2.5-3.7-3.1-5.6-4c-1.7-0.6-3.1-1.5-5.4-2.1
								c-2.3-0.6-5,0.2-7.7,1c-2.9,1-12.9,4-15,5.8c-1.7,1.2-2.1,3.5-1.5,5.2c0.6,1.9,2.3,3.1,3.3,3.5c1.2,1,4.8,3.1,7.3,4
								c2.1,0.8,3.7-0.6,5-0.4c1.2,0.2,3.5,1.7,7.5,0.8c2.5-0.6,4-2.9,4.8-3.3C51.5,23.7,54,24.1,56.3,22.2z"/>
							<path class="st37" d="M55.9,22c2.5-1.9,2.9-6.2,1.5-8.3c-1.7-2.5-3.7-3.1-5.4-3.7c-1.5-0.6-2.9-1.5-5.4-2.1
								c-2.3-0.6-4.8,0-7.5,1c-2.7,0.6-12.9,3.7-15,5.4c-1.5,1.2-1.9,3.5-1.2,5.2c0.6,1.9,2.3,2.9,3.3,3.3c1.2,1,4.6,2.9,7.1,4
								c2.1,0.6,3.5-0.8,4.8-0.4s3.3,1.9,7.5,0.8c2.5-0.6,3.7-2.9,4.6-3.3C51.3,23.3,53.6,23.7,55.9,22L55.9,22z"/>
							<path class="st38" d="M55.5,21.8c2.5-1.9,2.7-6,1.5-8.1c-1.7-2.5-3.5-2.9-5.4-3.7c-1.5-0.6-2.7-1.5-5.2-2.1
								c-2.3-0.6-4.6,0-7.3,0.8c-2.7,1-12.9,4.2-14.8,5.6c-1.7,1.2-2.1,3.3-1.2,5c0.6,1.9,2.5,2.9,3.5,3.3c1.2,0.8,4.4,2.9,6.9,3.7
								c2.1,0.6,3.5-0.8,4.6-0.6s3.1,2.1,7.5,1c2.5-0.6,3.7-2.9,4.6-3.3C50.9,22.8,53.2,23.5,55.5,21.8L55.5,21.8z"/>
							<path class="st39" d="M54.9,21.6c2.5-1.7,2.9-5.6,1.7-7.7c-1.5-2.5-3.5-2.9-5.2-3.5c-1.5-0.6-2.5-1.5-5-2.1
								c-2.1-0.6-4.4,0-7.1,0.8c-2.7,0.8-13.1,3.7-15,5.2c-1.5,1.2-1.9,3.3-1.2,5c0.8,1.7,2.5,2.7,3.7,3.1c1.2,0.8,4.2,2.9,6.7,3.7
								c1.9,0.6,3.5-1,4.6-0.8c1,0.2,2.9,2.3,7.3,1.2c2.5-0.6,3.7-2.9,4.4-3.3C50.7,22.4,52.8,23,54.9,21.6L54.9,21.6z"/>
							<path class="st40" d="M54.4,21.4c2.5-1.7,2.9-5.4,1.7-7.5c-1.5-2.5-3.3-2.7-5-3.5c-1.5-0.6-2.3-1.2-4.8-2.1
								c-2.1-0.6-4.4,0-6.9,0.8c-2.9,0.8-13.3,4-15,5.2s-1.9,3.3-1.2,4.8c0.8,1.9,2.7,2.5,4,3.1c1.2,0.6,3.7,2.7,6.2,3.5
								c1.9,0.6,3.3-1.2,4.4-1s2.9,2.3,7.3,1.2c2.5-0.6,3.5-3.1,4.2-3.3C50.3,22,52.4,22.8,54.4,21.4L54.4,21.4z"/>
							<path class="st41" d="M54,21.2c2.5-1.5,2.9-5.2,1.7-7.3c-1.5-2.3-3.3-2.7-5-3.3c-1.2-0.6-2.1-1.2-4.6-2.1
								C44,7.9,42,8.3,39.5,9.1c-2.7,1-13.3,4-14.8,5.2c-1.5,1.2-2.1,3.1-1.2,4.8c0.8,1.7,2.7,2.3,4,2.9c1.2,0.4,3.5,2.7,6,3.3
								c1.9,0.6,3.3-1.5,4.4-1c1,0.2,2.7,2.5,7.1,1.5c2.5-0.6,3.3-3.1,4.2-3.5C50.1,21.6,51.7,22.6,54,21.2L54,21.2z"/>
							<path class="st42" d="M53.6,21c2.3-1.5,2.9-4.8,1.7-6.9c-1.5-2.5-3.1-2.5-4.8-3.3c-1.2-0.6-1.9-1.2-4.4-1.9
								c-1.9-0.6-4-0.2-6.7,0.6s-13.3,3.7-14.8,4.8c-1.7,1-1.9,3.1-1,4.6c0.8,1.7,2.9,2.3,4.2,2.7c1,0.4,3.3,2.5,5.8,3.3
								c1.9,0.6,3.3-1.5,4.2-1.2c1,0.2,2.5,2.7,7.1,1.7c2.7-0.6,3.3-3.1,4-3.5C49.7,21.4,51.3,22.2,53.6,21L53.6,21z"/>
							<path class="st43" d="M53.2,20.8c2.3-1.5,2.9-4.6,1.7-6.7c-1.2-2.3-3.1-2.5-4.8-3.1c-1.2-0.6-1.9-1.2-4.2-1.9
								c-1.9-0.6-3.7-0.2-6.5,0.6c-2.5,0.8-13.3,3.7-14.6,4.6c-1.7,1-1.9,3.1-1,4.6c0.8,1.7,2.9,2.1,4.4,2.5c1,0.4,2.9,2.5,5.4,3.1
								c1.9,0.4,3.1-1.7,4-1.5c1,0.2,2.3,2.9,6.9,1.9c2.7-0.6,3.3-3.1,4-3.5C49.5,21,50.9,22,53.2,20.8z"/>
							<path class="st44" d="M52.8,20.6c2.3-1.2,2.9-4.4,1.9-6.2c-1.2-2.3-2.9-2.3-4.6-3.1c-1.2-0.6-1.7-1.2-4-1.9
								c-1.9-0.6-3.7-0.4-6.2,0.4c-2.7,0.8-13.3,3.7-14.8,4.6c-1.7,0.8-2.1,3.1-1.2,4.6c0.8,1.7,2.9,2.1,4.6,2.5
								c1,0.2,2.7,2.3,5.2,3.1c1.9,0.4,3.1-1.9,4-1.7c1,0.4,2.3,3.1,6.9,1.9c2.7-0.6,3.1-3.1,3.7-3.5C49,20.6,50.5,21.6,52.8,20.6
								L52.8,20.6z"/>
							<path class="st45" d="M52.2,20.3c2.3-1.2,2.9-4,1.9-6c-1.2-2.3-2.9-2.3-4.4-2.9c-1.2-0.4-1.5-1-4-1.9c-1.7-0.6-3.5-0.4-6,0.4
								c-2.7,0.8-13.5,3.7-14.6,4.4c-1.7,0.8-1.9,2.9-1,4.4c1,1.5,3.1,1.9,4.6,2.3c1,0.2,2.5,2.3,5,2.9c1.9,0.4,3.1-2.1,3.7-1.7
								c1,0.4,2.1,3.3,6.7,2.1c2.7-0.6,3.1-3.3,3.5-3.5C48.8,20.1,50.1,21.4,52.2,20.3L52.2,20.3z"/>
							<path class="st46" d="M51.7,19.9c2.3-1,2.9-3.7,1.9-5.6c-1.2-2.1-2.7-2.1-4.4-2.9c-1-0.4-1.2-1-3.7-1.9
								c-1.7-0.6-3.3-0.4-5.8,0.4c-2.5,0.8-13.5,3.7-14.6,4.2c-1.5,1-1.7,3.1-0.8,4.6c1,1.5,3.1,1.9,4.8,2.1
								c0.8,0.2,2.3,2.3,4.8,2.7c1.9,0.4,2.9-2.1,3.7-1.9c0.8,0.4,1.9,3.3,6.7,2.3c2.7-0.6,2.9-3.3,3.5-3.5
								C48.4,19.7,49.7,21.2,51.7,19.9L51.7,19.9z"/>
							<path class="st21" d="M51.3,19.7c2.3-1,2.9-3.3,1.9-5.4s-2.7-2.1-4.2-2.7c-1-0.4-1-1-3.5-1.9c-1.7-0.6-3.1-0.6-5.6,0.4
								s-13.5,3.7-14.6,4.2c-1.7,0.6-1.9,2.9-0.8,4.2c1,1.5,3.1,1.9,5,2.1c0.8,0.2,1.9,2.1,4.4,2.7c1.7,0.4,2.9-2.3,3.5-2.1
								c0.8,0.4,1.9,3.5,6.5,2.3c2.7-0.6,2.9-3.3,3.3-3.5C48.2,19.3,49.2,20.8,51.3,19.7L51.3,19.7z"/>
						</g>
						<path class="st24" d="M49.5,11c-0.2,0-0.4,0-0.6,0c-0.6-2.1-2.7-3.5-5-3.5c-1,0-2.1,0.2-2.9,0.8c-0.6-1.7-2.1-2.7-4-2.7
							c-2.1,0-3.7,1.5-4,3.3c-0.6-0.4-1.2-0.6-2.1-0.6c-1.5,0-2.9,1.2-3.1,3.1l0,0c-2.7,0-4.8,2.1-4.8,5s2.1,4.8,4.8,4.8
							c0.8,0,1.7-0.2,2.3-0.6c0.2,1.7,1.7,2.9,3.5,2.9c1.5,0,2.5-0.8,3.1-2.1c1,1.7,2.9,2.7,5,2.7c2.7,0,5-1.7,5.6-4.2
							c0.6,0.4,1.5,0.4,2.1,0.4c2.5,0,4.8-2.1,4.8-4.8S52.2,11.2,49.5,11L49.5,11z"/>
						<path class="st25" d="M49.7,11.2c-0.2,0-0.4,0-0.6,0c-0.6-2.1-2.7-3.5-5-3.5c-1,0-2.1,0.4-2.9,0.8c-0.6-1.7-2.1-2.7-4-2.7
							c-2.1,0-3.7,1.5-4,3.3c-0.6-0.4-1.2-0.6-2.1-0.6c-1.7,0-3.1,1.2-3.3,2.9l0,0c-2.7,0-4.8,2.1-4.8,5s2.1,4.8,4.8,4.8
							c0.8,0,1.7-0.2,2.3-0.6c0.2,1.7,1.7,2.9,3.5,2.9c1.5,0,2.5-0.8,3.1-2.1c1,1.7,2.9,2.7,5,2.7c2.7,0,5-1.7,5.6-4.2
							c0.6,0.4,1.5,0.4,2.1,0.4c2.5,0,4.8-2.1,4.8-4.8S52.4,11.2,49.7,11.2L49.7,11.2z"/>
					</g>
					<g>
						<g>
							<path class="st0" d="M41.8,30.8c1.5-2.3,0.8-6.5-0.2-7.9c-1.5-1.9-3.3-2.7-4.6-3.5s-4.2-1.9-5.8-1.9c-2.3,0-3.5,0.8-5.4,1.5
								c-2.1,0.6-5.4,3.7-7.3,5.8c-2.3,2.5-1.7,6-1,6.7c1,1.2,2.3,2.7,4,3.3c1.5,0.8,2.9,0.6,4,0.8c0.8,0,1.9,0.4,4.2,0
								c1.7-0.4,2.3-0.4,3.1-0.8C34.5,34.3,39.9,33.5,41.8,30.8L41.8,30.8z"/>
							<path class="st27" d="M41.5,30.8c1.5-2.3,0.8-6.2-0.2-7.9c-1.5-1.9-3.3-2.7-4.6-3.3s-4-1.9-5.6-1.9c-2.3,0-3.5,0.8-5.4,1.2
								c-2.1,0.6-5.4,3.7-7.1,5.6c-2.1,2.3-1.7,5.8-1,6.7c0.8,1.2,2.1,2.5,3.7,3.3c1.5,0.6,2.9,0.6,4,0.6c0.8,0,1.9,0.4,4.2,0
								c1.7-0.4,2.3-0.4,3.1-0.6C34.3,34.1,39.7,33.2,41.5,30.8z"/>
							<path class="st28" d="M41.1,30.5c1.5-2.1,1-6,0-7.7c-1.5-1.9-3.3-2.7-4.6-3.3c-1.2-0.4-4-1.7-5.6-1.7c-2.3,0-3.5,0.8-5.2,1.2
								c-2.1,0.6-5.2,3.5-7.1,5.6c-2.1,2.3-1.7,5.6-1,6.5c1,1.2,2.1,2.5,3.7,3.1c1.7,0.6,2.7,0.6,4,0.6c0.8,0,1.9,0.4,4.2,0
								c1.7-0.4,2.5-0.4,3.1-0.6C34.3,33.7,39.3,33.2,41.1,30.5L41.1,30.5z"/>
							<path class="st29" d="M40.7,30.5c1.5-2.1,1-5.8,0-7.5c-1.2-1.9-3.3-2.7-4.6-3.3s-3.7-1.9-5.4-1.9c-2.1,0-3.5,0.6-5.2,1.2
								c-1.9,0.6-5,3.5-6.7,5.4c-1.9,2.1-1.9,5.4-1,6.2c1,1.2,2.1,2.5,3.7,3.1c1.5,0.6,2.7,0.6,3.7,0.6c0.8,0,1.9,0.4,4.2,0
								c1.7-0.4,2.5-0.4,3.1-0.6C34.1,33.5,39,32.8,40.7,30.5L40.7,30.5z"/>
							<path class="st30" d="M40.5,30.3c1.5-1.9,1.2-5.6,0.2-7.1c-1.2-1.9-3.3-2.7-4.4-3.1c-1.2-0.6-3.7-1.9-5.2-1.9
								c-2.1,0-3.3,0.6-5.2,1.2c-2.3,0.2-5.4,3.3-7.1,5c-1.9,2.1-1.9,5.4-1.2,6.2c0.8,1.2,2.1,2.3,3.7,2.9c1.7,0.6,2.7,0.4,3.7,0.4
								c0.8,0,1.9,0.4,4.2,0c1.7-0.2,2.5-0.4,3.1-0.6C34.1,33.2,38.6,32.8,40.5,30.3L40.5,30.3z"/>
							<path class="st31" d="M40.1,30.3c1.5-1.9,1.2-5.4,0.2-7.1c-1.2-1.9-3.1-2.5-4.4-3.1c-1.2-0.6-3.5-1.9-5.2-1.9
								c-2.1,0-3.3,0.6-5.2,1c-1.9,0.4-5,3.5-6.5,5.2c-1.9,1.9-1.9,5.2-1.2,6c0.8,1,1.9,2.3,3.5,2.9c1.7,0.6,2.7,0.2,3.7,0.4
								c0.8,0.2,1.9,0.4,4.2,0c1.7-0.2,2.5-0.6,3.1-0.6C33.8,32.8,38.4,32.4,40.1,30.3L40.1,30.3z"/>
							<path class="st32" d="M39.9,30.1c1.5-1.9,1.2-5.2,0.4-6.9c-1.2-1.9-3.1-2.5-4.4-3.1c-1-0.6-3.5-1.9-5-1.9
								c-2.1,0-3.5,0.6-5.4,1c-1.9,0.6-4.8,3.5-6.2,5.2c-1.7,1.9-1.9,5-1.2,5.8c0.8,1,1.9,2.3,3.5,2.9c1.7,0.6,2.7,0.2,3.7,0.4
								c0.8,0.2,1.9,0.4,4.2,0c1.7-0.2,2.5-0.6,3.1-0.6C33.8,32.6,38,32.2,39.9,30.1L39.9,30.1z"/>
							<path class="st33" d="M39.5,30.1c1.5-1.7,1.5-5,0.4-6.7c-1.2-1.9-3.1-2.5-4.4-3.1c-1-0.4-3.3-1.9-4.8-1.9
								c-1.9-0.2-3.5,0.4-5.2,1c-1.9,0.4-4.8,3.3-6.2,5c-1.7,1.9-2.1,4.8-1.2,5.8s1.9,2.1,3.5,2.5c1.7,0.4,2.7,0.2,3.5,0.2
								c0.8,0.2,1.9,0.4,4.2,0c1.7-0.2,2.5-0.6,3.1-0.6C33.8,32.4,37.8,32.2,39.5,30.1z"/>
							<path class="st34" d="M39.3,29.9c1.5-1.7,1.5-4.8,0.4-6.2c-1-2.1-3.1-2.5-4.4-3.1c-1-0.4-3.3-1.9-4.8-2.1c-1.9,0-3.3,0.6-5,1
								c-1.9,0.6-4.8,3.3-6.2,4.8c-1.7,1.7-2.1,4.6-1.2,5.6s1.7,2.1,3.3,2.7c1.7,0.6,2.7,0,3.5,0.2s1.9,0.4,4.2,0
								c1.7-0.2,2.5-0.6,3.1-0.6C33.6,32,37.4,32,39.3,29.9L39.3,29.9z"/>
							<path class="st35" d="M38.8,29.9c1.5-1.7,1.7-4.6,0.6-6.2c-1.2-2.1-3.1-2.3-4.4-2.9c-1-0.4-3.1-1.9-4.6-2.1
								c-1.9-0.2-3.3,0.4-5,0.8c-1.9,0.6-4.8,3.5-6,4.8c-1.5,1.7-2.1,4.4-1.2,5.4c0.8,0.8,1.7,2.1,3.3,2.5c1.7,0.4,2.7,0,3.5,0.2
								c0.8,0.2,1.9,0.4,4,0c1.7-0.2,2.5-0.6,3.1-0.6C33.6,31.8,37.2,31.6,38.8,29.9L38.8,29.9z"/>
							<path class="st36" d="M38.6,29.7c1.5-1.5,1.7-4.4,0.8-6c-1.2-2.1-3.1-2.3-4.4-2.9c-1-0.4-3.1-1.9-4.6-2.1c-1.7,0-3.3,0.4-5,1
								c-1.9,0.4-4.6,3.3-5.8,4.6c-1.5,1.5-2.3,4.4-1.2,5.4c0.6,0.8,1.7,2.1,3.3,2.5c1.7,0.4,2.7,0,3.5,0c0.8,0.2,1.9,0.4,4,0
								c1.7-0.2,2.5-0.6,3.1-0.6C33.4,31.6,37,31.6,38.6,29.7L38.6,29.7z"/>
							<path class="st37" d="M38.2,29.7c1.5-1.5,1.9-4.2,0.8-5.8c-1-2.1-3.1-2.3-4.4-2.9c-1-0.4-2.9-1.9-4.4-2.1
								c-1.7,0-3.3,0.4-5,0.8c-1.9,0.6-4.4,3.3-5.6,4.6c-1.5,1.5-2.3,4.2-1.2,5.2c0.6,0.8,1.5,1.9,3.1,2.3c1.7,0.4,2.7-0.2,3.3,0
								c0.6,0.2,1.9,0.4,4,0.2c1.7-0.2,2.7-0.6,3.1-0.6C33.4,31.2,36.5,31.4,38.2,29.7L38.2,29.7z"/>
							<path class="st38" d="M38,29.5c1.5-1.5,1.9-4,1-5.6c-1-2.1-3.1-2.3-4.4-2.7c-1-0.4-2.9-1.9-4.4-2.1c-1.7-0.2-3.3,0.2-5,0.6
								c-1.9,0.6-4.4,3.3-5.4,4.6c-1.2,1.2-2.3,4-1.5,5c0.6,0.8,1.5,1.9,3.1,2.3s2.5-0.2,3.3,0c0.8,0.2,1.7,0.4,4,0.2
								c1.7-0.2,2.7-0.6,3.1-0.6C33.2,31,36.3,31.2,38,29.5z"/>
							<path class="st39" d="M37.6,29.5c1.5-1.2,2.1-3.7,1-5.4c-1-2.1-3.1-2.3-4.2-2.7c-0.8-0.4-2.7-1.9-4.2-2.1
								c-1.7-0.2-3.3,0.2-5,0.6c-1.9,0.4-4.4,3.3-5.4,4.4c-1.2,1.2-2.3,3.7-1.5,5c0.6,0.8,1.5,1.9,3.1,2.1c1.7,0.2,2.5-0.2,3.3-0.2
								s1.9,0.4,4,0.2c1.7-0.2,2.7-0.6,3.1-0.6C33.2,30.8,35.9,31,37.6,29.5z"/>
							<path class="st40" d="M37.4,29.3c1.5-1.2,2.1-3.5,1.2-5.2c-1-2.1-3.1-2.1-4.2-2.7c-0.8-0.4-2.7-1.9-4.2-2.3
								c-1.7,0-3.3,0.4-5,0.8c-1.9,0.6-4.2,3.1-5.2,4.2c-1,1.2-2.5,3.5-1.5,4.8c0.6,0.8,1.5,1.7,3.1,2.1c1.7,0.4,2.5-0.4,3.1-0.2
								c0.6,0.2,1.9,0.4,4,0.2c1.7-0.2,2.7-0.6,3.1-0.6C33,30.3,35.7,30.8,37.4,29.3L37.4,29.3z"/>
							<path class="st41" d="M37,29.3c1.5-1.2,2.3-3.3,1.2-5c-1-2.1-3.1-2.1-4.2-2.7c-0.8-0.4-2.5-1.9-4-2.3
								c-1.5-0.4-3.3,0.2-4.8,0.6c-1.9,0.6-4.2,3.1-5,4.2c-1,1-2.5,3.3-1.5,4.6c0.6,0.6,1.2,1.7,2.9,1.9c1.7,0.2,2.5-0.4,3.1-0.2
								c0.6,0.2,1.7,0.4,4,0.2c1.7-0.2,2.7-0.6,3.1-0.6C33,30.1,35.3,30.5,37,29.3z"/>
							<path class="st42" d="M36.8,29.1c1.5-1,2.3-2.9,1.5-4.8c-1-2.1-3.1-2.1-4.2-2.5c-1-0.4-2.7-1.9-4-2.3c-1.2-0.4-3.3,0-4.8,0.4
								c-1.9,0.6-4.2,3.3-5,4.2c-1,1-2.5,3.3-1.5,4.6c0.6,0.6,1.2,1.7,2.9,1.9c1.7,0.2,2.5-0.4,3.1-0.4c0.6,0.2,1.7,0.6,4,0.2
								c1.9-0.2,2.7-0.6,3.1-0.6C33,29.9,35.1,30.3,36.8,29.1L36.8,29.1z"/>
							<path class="st43" d="M36.3,29.1c1.5-1,2.3-2.7,1.5-4.6c-1-2.1-3.1-2.1-4.2-2.5c-0.8-0.4-2.3-1.9-3.7-2.3
								c-1.5-0.4-3.3,0-4.8,0.4c-1.7,0.6-4,3.1-4.6,4c-1,0.8-2.7,3.1-1.7,4.4c0.4,0.6,1.2,1.7,2.9,1.7s2.5-0.6,3.1-0.4
								c0.6,0.2,1.7,0.4,4,0.2c1.9-0.2,2.7-0.6,3.1-0.6C32.8,29.7,34.9,30.1,36.3,29.1L36.3,29.1z"/>
							<path class="st44" d="M35.9,28.9c1.5-0.8,2.5-2.5,1.7-4.4c-1-2.1-3.1-1.9-4.2-2.5c-0.8-0.4-2.3-2.1-3.5-2.3s-3.3,0-4.8,0.4
								c-1.7,0.6-4,3.1-4.6,4c-0.8,0.8-2.7,2.9-1.5,4.2c0.4,0.6,1,1.5,2.7,1.7c1.7,0.2,2.5-0.6,2.9-0.4c0.6,0.2,1.7,0.4,4,0.2
								c1.9-0.2,2.7-0.8,3.1-0.6C32.8,29.3,34.5,29.9,35.9,28.9L35.9,28.9z"/>
							<path class="st45" d="M35.7,28.9c1.5-0.8,2.5-2.3,1.7-4.2c-0.8-2.1-3.1-1.9-4.2-2.3c-0.6-0.4-2.1-2.1-3.3-2.5
								c-1.2-0.2-3.3,0-4.8,0.4c-1.7,0.6-3.7,3.1-4.4,3.7c-0.8,0.8-2.7,2.7-1.5,4.2c0.4,0.4,1,1.5,2.7,1.5c1.7,0.2,2.5-0.8,2.9-0.6
								c0.6,0.2,1.7,0.4,4,0.2c1.9-0.2,2.7-0.8,3.1-0.6C32.8,29.1,34.3,29.7,35.7,28.9L35.7,28.9z"/>
							<path class="st46" d="M35.3,28.7c1.5-0.8,2.7-2.1,1.9-4c-0.8-2.1-3.1-1.9-4.2-2.3c-0.8-0.4-2.1-2.1-3.3-2.3
								c-1-0.2-3.1-0.2-4.6,0.2c-1.9,0.6-3.7,3.1-4.4,3.7c-0.6,0.6-2.7,2.5-1.5,4c0.4,0.4,0.8,1.5,2.7,1.5c1.7,0,2.5-0.8,2.9-0.6
								c0.6,0.2,1.7,0.4,4,0.2c1.9-0.2,2.9-0.8,3.1-0.6C32.6,28.9,33.8,29.5,35.3,28.7L35.3,28.7z"/>
							<path class="st21" d="M35.1,28.7c1.5-0.6,2.7-1.9,1.9-3.7c-0.8-2.1-2.9-1.9-4-2.3c-0.6-0.2-2.1-2.1-3.3-2.3
								c-1-0.4-3.1-0.4-4.6,0.2c-1.7,0.6-3.5,2.9-4.2,3.5c-0.6,0.6-2.9,2.3-1.7,4c0.4,0.2,0.8,1,2.7,1c1.7,0,2.5-0.8,2.9-0.6
								c0.6,0.2,1.7,0.4,4,0.2c1.9-0.2,2.9-0.8,3.1-0.6C32.6,28.5,33.6,29.3,35.1,28.7L35.1,28.7z"/>
						</g>
						<path class="st24" d="M34.1,22.4c-0.4,0-0.8,0-1.2,0.2c-0.4-2.5-2.5-4.4-5-4.4c-2.5-0.2-4.8,1.5-5.4,3.5l0,0
							c-2.1-0.2-4,1.5-4,3.7s1.5,4,3.7,4c1,0,2.1-0.4,2.9-1c0.8,0.4,1.7,0.6,2.5,0.8c1.7,0,3.1-0.6,4.2-1.7c0.6,0.6,1.5,1.2,2.3,1.2
							c1.9,0,3.3-1.2,3.3-2.9C37.2,24.1,35.9,22.6,34.1,22.4L34.1,22.4z"/>
					</g>
				</g>
			</g>
		</g>
	</g>
</g>
</svg>
