<?xml version="1.0" encoding="utf-8"?>
<!-- Generator: Adobe Illustrator 27.0.1, SVG Export Plug-In . SVG Version: 6.00 Build 0)  -->
<svg version="1.1" id="Ebene_1" xmlns="http://www.w3.org/2000/svg" xmlns:xlink="http://www.w3.org/1999/xlink" x="0px" y="0px"
	 viewBox="0 0 47.9 47.9" style="enable-background:new 0 0 47.9 47.9;" xml:space="preserve">
<style type="text/css">
	.st0{fill:#FFFFFF;fill-opacity:0;}
	.st1{opacity:4.761905e-02;fill:#F9FBFB;enable-background:new    ;}
	.st2{opacity:9.523810e-02;fill:#F4F6F8;enable-background:new    ;}
	.st3{opacity:0.1429;fill:#EEF2F4;enable-background:new    ;}
	.st4{opacity:0.1905;fill:#E9EDF1;enable-background:new    ;}
	.st5{opacity:0.2381;fill:#E3E9ED;enable-background:new    ;}
	.st6{opacity:0.2857;fill:#DEE5EA;enable-background:new    ;}
	.st7{opacity:0.3333;fill:#D8E0E6;enable-background:new    ;}
	.st8{opacity:0.381;fill:#D3DCE3;enable-background:new    ;}
	.st9{opacity:0.4286;fill:#CDD8DF;enable-background:new    ;}
	.st10{opacity:0.4762;fill:#C8D3DC;enable-background:new    ;}
	.st11{opacity:0.5238;fill:#C2CFD8;enable-background:new    ;}
	.st12{opacity:0.5714;fill:#BDCAD5;enable-background:new    ;}
	.st13{opacity:0.619;fill:#B7C6D1;enable-background:new    ;}
	.st14{opacity:0.6667;fill:#B2C2CE;enable-background:new    ;}
	.st15{opacity:0.7143;fill:#ACBDCA;enable-background:new    ;}
	.st16{opacity:0.7619;fill:#A7B9C7;enable-background:new    ;}
	.st17{opacity:0.8095;fill:#A1B5C3;enable-background:new    ;}
	.st18{opacity:0.8571;fill:#9CB0C0;enable-background:new    ;}
	.st19{opacity:0.9048;fill:#96ACBC;enable-background:new    ;}
	.st20{opacity:0.9524;fill:#91A7B9;enable-background:new    ;}
	.st21{fill:#8BA3B5;}
	.st22{fill:#E4F1F5;}
	.st23{fill:#C5DCE6;}
	.st24{fill:#FFFFFF;}
	.st25{fill:#EEF7FA;}
	.st26{opacity:0.54;}
	.st27{opacity:5.000000e-02;fill:#F9FBFB;enable-background:new    ;}
	.st28{opacity:0.1;fill:#F4F6F8;enable-background:new    ;}
	.st29{opacity:0.14;fill:#EEF2F4;enable-background:new    ;}
	.st30{opacity:0.19;fill:#E9EDF1;enable-background:new    ;}
	.st31{opacity:0.24;fill:#E3E9ED;enable-background:new    ;}
	.st32{opacity:0.29;fill:#DEE5EA;enable-background:new    ;}
	.st33{opacity:0.33;fill:#D8E0E6;enable-background:new    ;}
	.st34{opacity:0.38;fill:#D3DCE3;enable-background:new    ;}
	.st35{opacity:0.43;fill:#CDD8DF;enable-background:new    ;}
	.st36{opacity:0.48;fill:#C8D3DC;enable-background:new    ;}
	.st37{opacity:0.52;fill:#C2CFD8;enable-background:new    ;}
	.st38{opacity:0.57;fill:#BDCAD5;enable-background:new    ;}
	.st39{opacity:0.62;fill:#B7C6D1;enable-background:new    ;}
	.st40{opacity:0.67;fill:#B2C2CE;enable-background:new    ;}
	.st41{opacity:0.71;fill:#ACBDCA;enable-background:new    ;}
	.st42{opacity:0.76;fill:#A7B9C7;enable-background:new    ;}
	.st43{opacity:0.81;fill:#A1B5C3;enable-background:new    ;}
	.st44{opacity:0.86;fill:#9CB0C0;enable-background:new    ;}
	.st45{opacity:0.9;fill:#96ACBC;enable-background:new    ;}
	.st46{opacity:0.95;fill:#91A7B9;enable-background:new    ;}
	.st47{fill:#E9F2F5;}
</style>
<g id="Ebene_1_00000129188877999292084010000000248967745668180153_">
	<g>
		<g>
			<g>
				<path class="st0" d="M14.5,14.9C13,11,9.7,10.1,7.9,10.6c-2.1,0.7-3.8,2.9-3.5,5.4c0.3,3.3,2.5,5.3,4.4,6.4
					C11.7,24,15.9,18.5,14.5,14.9z"/>
				<path class="st1" d="M14.3,15c-1.5-3.8-4.7-4.8-6.4-4.2c-2,0.7-3.7,2.8-3.4,5.3c0.3,3.2,2.4,5.3,4.3,6.2
					C11.6,23.7,15.7,18.6,14.3,15z"/>
				<path class="st2" d="M14.1,15.1c-1.4-3.7-4.6-4.7-6.3-4.1c-2,0.7-3.5,2.7-3.4,5.1c0.2,3.2,2.3,5.1,4.2,6.1
					C11.4,23.5,15.4,18.6,14.1,15.1z"/>
				<path class="st3" d="M14,15.2c-1.3-3.6-4.5-4.7-6.1-4.1c-1.9,0.6-3.4,2.6-3.2,4.9c0.2,3.2,2.2,5.1,4,6
					C11.3,23.2,15.2,18.6,14,15.2z"/>
				<path class="st4" d="M13.8,15.3c-1.2-3.5-4.4-4.6-6-4c-1.8,0.6-3.3,2.5-3.1,4.9c0.2,3.1,2.2,4.9,3.8,5.7
					C11.1,23.1,14.9,18.6,13.8,15.3z"/>
				<path class="st5" d="M13.6,15.4c-1.2-3.4-4.3-4.5-5.8-4c-1.7,0.6-3.2,2.3-3,4.7c0.2,3.1,2.1,4.8,3.7,5.6
					C11,22.8,14.8,18.6,13.6,15.4z"/>
				<path class="st6" d="M13.5,15.5c-1.1-3.3-4.2-4.5-5.7-4c-1.7,0.6-3,2.3-2.9,4.5c0.2,3.1,2,4.8,3.7,5.5
					C10.8,22.6,14.5,18.6,13.5,15.5z"/>
				<path class="st7" d="M13.3,15.6c-1-3.2-4.1-4.5-5.5-3.9c-1.6,0.6-2.9,2.2-2.8,4.5c0.1,2.9,1.9,4.6,3.5,5.3
					C10.7,22.4,14.3,18.6,13.3,15.6z"/>
				<path class="st8" d="M13.1,15.6c-0.9-3.2-4-4.4-5.4-3.8c-1.5,0.6-2.7,2.1-2.7,4.3c0.1,2.9,1.9,4.5,3.4,5.1
					C10.5,22.1,14,18.7,13.1,15.6z"/>
				<path class="st9" d="M13,15.8c-0.9-3.1-3.8-4.3-5.3-3.8c-1.4,0.6-2.6,2-2.5,4.1c0.1,2.8,1.8,4.4,3.2,4.9
					C10.4,21.9,13.8,18.7,13,15.8z"/>
				<path class="st10" d="M12.8,15.9C12,13,9,11.7,7.7,12.2c-1.4,0.5-2.5,1.9-2.5,4c0.1,2.8,1.7,4.3,3,4.8
					C10.2,21.7,13.6,18.7,12.8,15.9z"/>
				<path class="st11" d="M12.6,16c-0.7-2.8-3.7-4.2-5-3.6c-1.2,0.5-2.4,1.8-2.4,3.9c0,2.8,1.7,4.2,2.9,4.6
					C10.1,21.5,13.3,18.7,12.6,16z"/>
				<path class="st12" d="M12.4,16c-0.7-2.8-3.5-4.1-4.8-3.6c-1.2,0.5-2.2,1.7-2.2,3.7c0,2.7,1.6,4,2.8,4.5
					C9.9,21.2,13.1,18.8,12.4,16z"/>
				<path class="st13" d="M12.3,16.2c-0.6-2.7-3.4-4-4.7-3.6c-1.1,0.4-2.1,1.6-2.1,3.6c-0.1,2.6,1.5,4,2.7,4.3
					C9.8,21,12.8,18.8,12.3,16.2z"/>
				<path class="st14" d="M12.1,16.3c-0.5-2.6-3.4-4-4.5-3.5c-1.1,0.4-2,1.5-2,3.5c-0.1,2.6,1.4,3.9,2.5,4.1
					C9.7,20.7,12.6,18.8,12.1,16.3z"/>
				<path class="st15" d="M11.9,16.4c-0.4-2.4-3.2-3.9-4.3-3.5c-0.9,0.4-1.9,1.4-1.9,3.3c-0.1,2.5,1.4,3.7,2.4,4
					C9.5,20.5,12.3,18.9,11.9,16.4z"/>
				<path class="st16" d="M11.7,16.4c-0.4-2.3-3.1-3.9-4.2-3.4c-0.9,0.3-1.7,1.3-1.8,3.2C5.6,18.6,7,19.8,8,20
					C9.4,20.3,12.2,18.9,11.7,16.4z"/>
				<path class="st17" d="M11.6,16.5c-0.4-2.3-3-3.7-4.1-3.3c-0.8,0.3-1.6,1.2-1.7,3c-0.1,2.4,1.2,3.6,2.1,3.6
					C9.2,20.1,11.9,18.9,11.6,16.5z"/>
				<path class="st18" d="M11.4,16.7c-0.2-2.2-2.9-3.7-3.9-3.3c-0.7,0.3-1.5,1.1-1.6,2.9c-0.2,2.3,1.2,3.4,2,3.5
					C9,19.8,11.7,18.9,11.4,16.7z"/>
				<path class="st19" d="M11.2,16.8c-0.2-2.1-2.8-3.6-3.8-3.2c-0.6,0.2-1.4,1.1-1.5,2.8c-0.2,2.3,1.1,3.3,1.9,3.3
					C8.9,19.6,11.4,19,11.2,16.8z"/>
				<path class="st20" d="M11,16.9c-0.1-1.9-2.7-3.6-3.7-3.2c-0.6,0.2-1.2,0.9-1.4,2.6c-0.2,2.3,1,3.2,1.7,3.2
					C8.7,19.4,11.2,19,11,16.9z"/>
				<path class="st21" d="M10.8,16.9c-0.1-1.9-2.5-3.6-3.5-3.2c-0.5,0.2-1.1,0.8-1.2,2.5c-0.2,2.2,0.9,3.2,1.6,3
					C8.6,19.2,10.9,19,10.8,16.9z"/>
			</g>
			<g>
				<path class="st0" d="M44.7,25.8c2.1-4.8,1.7-7.6-0.4-10c-2-2.3-3.3-3.5-5.2-5.4c-1.6-1.6-3.3-6.9-8.8-6.9
					c-5.5,0-8.2,6.4-11.1,7.4c-3.1,1.1-6.7,1.7-10.7,3.7c-2,1.1-5.4,0.4-6.1,3.5c-0.2,1.1-1.2,4.1-0.7,6.8c0.2,1.2,1.6,3.8,3.3,5.3
					c2.2,2,5.3,2.6,6.6,3.1c1.6,0.6,3,0.9,4,1.1c2.2,0.3,1.9-0.6,3.7-0.4c2.3,0.3,3.1,0.6,4.2,0.5c1,0,4.2-0.2,5.2-0.5
					c2.5-0.6,2.9-0.4,4.1-1C35.4,32,42.9,29.9,44.7,25.8z"/>
				<path class="st1" d="M44.3,25.7c2-4.6,1.7-7.4-0.4-9.8c-1.9-2.3-3.2-3.4-5.1-5.3c-1.5-1.6-3.2-6.8-8.6-6.9
					c-5.4,0-8.2,6.3-11,7.3c-3.1,1.1-6.7,1.6-10.6,3.6c-2,1.1-5.5,0.3-6,3.4C2.5,19,1.5,22,2,24.6c0.2,1.2,1.6,3.7,3.2,5.3
					c2.2,1.9,5.1,2.5,6.4,3c1.6,0.6,2.9,0.9,4,1c2.2,0.3,1.9-0.6,3.7-0.3c2.3,0.3,3.1,0.5,4.2,0.5c1,0,4.1-0.2,5.1-0.5
					c2.4-0.7,2.8-0.5,4-1.1C35.2,31.5,42.5,29.6,44.3,25.7z"/>
				<path class="st2" d="M43.8,25.5c2-4.5,1.6-7.2-0.3-9.6c-1.9-2.3-3.2-3.4-5-5.3C37,9.1,35.4,4.1,30.2,4
					c-5.3-0.1-8.1,6.2-10.9,7.3c-3,1.1-6.6,1.5-10.4,3.6c-1.9,1.1-5.5,0.3-6,3.3c-0.2,1.1-1,4-0.5,6.5c0.2,1.2,1.5,3.6,3.2,5.2
					c2.1,1.9,5,2.4,6.2,2.8c1.6,0.5,2.9,0.8,4,1c2.2,0.2,2-0.5,3.7-0.2c2.3,0.3,3.1,0.4,4.2,0.4c1,0.1,4-0.1,5-0.4
					c2.4-0.7,2.7-0.6,3.9-1.1C35.1,31,42.1,29.2,43.8,25.5z"/>
				<path class="st3" d="M43.4,25.4c2-4.2,1.6-7-0.2-9.3c-1.9-2.3-3.2-3.3-5-5.2c-1.4-1.5-3-6.6-8.1-6.6c-5.2-0.2-8.1,6.2-10.9,7.2
					c-3,1.1-6.6,1.5-10.3,3.5c-1.9,1-5.5,0.2-6,3.3c-0.2,1.1-0.9,3.9-0.4,6.3c0.2,1.2,1.4,3.6,3,5.1c2,1.9,4.8,2.3,6.1,2.7
					c1.6,0.4,2.8,0.7,3.9,0.9c2.2,0.2,2-0.4,3.8-0.2c2.3,0.2,3.2,0.3,4.2,0.4s3.9,0,5-0.4c2.4-0.7,2.6-0.6,3.8-1.2
					C35,30.5,41.7,28.9,43.4,25.4z"/>
				<path class="st4" d="M42.9,25.2c1.9-4,1.6-6.8-0.2-9.1c-1.8-2.3-3.2-3.2-4.8-5.1c-1.4-1.5-2.9-6.5-7.8-6.6
					c-5-0.2-8.1,6.1-10.8,7c-3,1.1-6.6,1.5-10.2,3.4c-1.9,1-5.5,0.2-6,3.2C3,19.4,2.3,22,2.9,24.3c0.3,1.1,1.4,3.6,3,4.9
					c2,1.8,4.7,2.3,5.9,2.6c1.6,0.3,2.7,0.7,3.9,0.9c2.1,0.2,2-0.3,3.8-0.2c2.3,0.2,3.2,0.2,4.3,0.4c1.1,0.2,3.8,0,4.9-0.3
					c2.3-0.8,2.5-0.7,3.8-1.3C34.9,30.1,41.3,28.6,42.9,25.2z"/>
				<path class="st5" d="M42.5,24.9c1.9-3.9,1.6-6.6-0.1-8.8c-1.7-2.3-3.2-3.2-4.8-5c-1.4-1.5-2.8-6.3-7.6-6.5
					c-4.9-0.2-8,6.1-10.7,7c-3,1.1-6.5,1.5-10.1,3.3c-1.8,1-5.5,0.2-6,3.2c-0.2,1.2-0.7,3.8-0.1,6C3.5,25.3,4.5,27.6,6,29
					c1.9,1.8,4.5,2.2,5.7,2.4c1.6,0.2,2.7,0.6,3.9,0.8c2.1,0.2,2.1-0.2,3.8-0.1c2.3,0.2,3.2,0.2,4.3,0.3c1.1,0.2,3.7,0.1,4.8-0.3
					c2.3-0.8,2.5-0.7,3.7-1.4C34.8,29.6,40.9,28.3,42.5,24.9z"/>
				<path class="st6" d="M42.1,24.8c1.9-3.7,1.6-6.4-0.1-8.6c-1.7-2.3-3.2-3.2-4.7-4.9C36,9.8,34.7,5,30,4.9c-4.8-0.2-7.9,6-10.7,7
					c-3,1.1-6.5,1.4-9.9,3.2c-1.8,1-5.6,0.2-6,3.1c-0.2,1.3-0.7,3.7,0,5.8c0.3,1.1,1.2,3.4,2.8,4.8c1.9,1.7,4.4,2.1,5.6,2.3
					c1.6,0.2,2.7,0.6,3.8,0.7c2.1,0.2,2.2-0.2,3.9,0c2.2,0.2,3.2,0.1,4.3,0.3c1.1,0.2,3.6,0.2,4.8-0.2c2.2-0.8,2.4-0.8,3.6-1.5
					C34.7,29.2,40.5,28,42.1,24.8z"/>
				<path class="st7" d="M41.6,24.6c1.8-3.5,1.6-6.2,0-8.3c-1.6-2.3-3.1-3.2-4.7-4.9C35.7,10,34.4,5.4,29.9,5c-4.7-0.2-7.9,6-10.6,7
					c-3,1.1-6.5,1.3-9.8,3.1c-1.7,0.9-5.6,0.2-6,3.1c-0.2,1.4-0.6,3.6,0.1,5.7c0.4,1.1,1.2,3.3,2.7,4.7c1.9,1.6,4.3,2.1,5.4,2.2
					c1.6,0.2,2.6,0.6,3.8,0.7c2,0.2,2.2-0.1,4,0.1c2.2,0.2,3.2,0,4.3,0.3c1.1,0.2,3.5,0.2,4.7-0.2c2.2-0.8,2.4-0.9,3.5-1.5
					C34.6,28.7,40.1,27.7,41.6,24.6z"/>
				<path class="st8" d="M41.2,24.5c1.7-3.3,1.5-6,0.1-8.2c-1.6-2.4-3.1-3.1-4.6-4.8c-1.3-1.5-2.4-6-6.8-6.3
					c-4.6-0.3-7.9,5.9-10.6,6.9c-2.9,1.1-6.4,1.3-9.7,3c-1.7,0.9-5.6,0.2-5.9,3c-0.2,1.5-0.5,3.6,0.2,5.5c0.4,1.1,1.1,3.2,2.6,4.5
					c1.8,1.5,4.2,2.1,5.3,2c1.6-0.1,2.5,0.6,3.8,0.6c2,0.2,2.3,0,4,0.2c2.2,0.2,3.2-0.1,4.4,0.2c1.1,0.3,3.4,0.3,4.7-0.2
					c2.2-0.8,2.2-1,3.5-1.6C34.4,28.3,39.7,27.4,41.2,24.5z"/>
				<path class="st9" d="M40.8,24.3c1.7-3.2,1.5-5.7,0.2-7.9c-1.6-2.4-3-3.1-4.5-4.6c-1.2-1.4-2.4-5.8-6.6-6.2
					c-4.5-0.3-7.9,5.8-10.5,6.8c-2.9,1.1-6.3,1.2-9.6,2.9c-1.7,0.9-5.6,0.1-5.9,2.9c-0.1,1.5-0.4,3.6,0.4,5.3
					c0.4,1.1,1.1,3.2,2.5,4.5c1.7,1.5,4,2,5.1,1.9c1.5-0.2,2.5,0.5,3.8,0.6c2,0.2,2.3,0.1,4,0.2c2.2,0.2,3.2-0.2,4.4,0.2
					c1.1,0.3,3.2,0.4,4.6-0.2c2.2-0.9,2.2-1.1,3.4-1.8C34.3,27.8,39.2,27.1,40.8,24.3z"/>
				<path class="st10" d="M40.3,24.1c1.7-3,1.5-5.6,0.2-7.7c-1.5-2.4-3-3-4.4-4.5c-1.2-1.4-2.2-5.7-6.3-6.2
					c-4.3-0.4-7.8,5.8-10.4,6.7c-2.9,1.1-6.3,1.2-9.4,2.8c-1.6,0.8-5.6,0.1-5.9,2.9c-0.1,1.5-0.2,3.5,0.5,5.2c0.4,1.1,1,3.1,2.5,4.4
					c1.7,1.5,3.8,1.9,4.9,1.8c1.5-0.2,2.4,0.5,3.8,0.6c2,0.2,2.4,0.2,4,0.2c2.2,0.2,3.2-0.2,4.5,0.2c1.2,0.4,3.2,0.5,4.5-0.1
					c2.1-0.9,2.1-1.1,3.3-1.9C34.2,27.3,38.9,26.8,40.3,24.1z"/>
				<path class="st11" d="M39.9,23.9c1.6-2.8,1.5-5.3,0.3-7.4c-1.4-2.5-3-3-4.3-4.5c-1.2-1.4-2.1-5.7-6.1-6.1
					c-4.2-0.4-7.8,5.7-10.4,6.7c-2.9,1.1-6.3,1.1-9.3,2.8c-1.6,0.8-5.7,0.1-5.8,2.8c-0.1,1.5-0.2,3.4,0.6,5c0.5,1.1,0.9,3.1,2.4,4.3
					c1.7,1.4,3.7,1.8,4.8,1.6c1.6-0.2,2.4,0.4,3.7,0.5c2,0.2,2.4,0.2,4.1,0.3c2.2,0.2,3.3-0.2,4.5,0.2c1.2,0.4,3,0.5,4.5-0.1
					c2.1-0.9,2-1.1,3.2-1.9C34.1,26.8,38.4,26.5,39.9,23.9z"/>
				<path class="st12" d="M39.5,23.7c1.6-2.6,1.4-5.2,0.4-7.2c-1.4-2.5-3-2.9-4.3-4.4c-1.1-1.3-2-5.5-5.9-6
					c-4.1-0.5-7.8,5.7-10.3,6.6c-2.9,1.1-6.2,1.1-9.1,2.6c-1.6,0.8-5.7,0-5.8,2.8c-0.1,1.6-0.1,3.4,0.7,4.9c0.5,1,0.9,3,2.3,4.1
					C9,28.5,11,28.8,12,28.7c1.6-0.2,2.3,0.3,3.7,0.5c1.9,0.2,2.5,0.2,4.2,0.4c2.2,0.2,3.3-0.3,4.5,0.2c1.2,0.5,2.9,0.6,4.4,0
					c2-0.9,2-1.2,3.2-2C34,26.4,38,26.2,39.5,23.7z"/>
				<path class="st13" d="M39,23.6c1.6-2.4,1.4-4.9,0.4-7c-1.3-2.5-3-2.8-4.2-4.3c-1.1-1.3-1.9-5.4-5.7-5.9C25.7,5.9,22,12,19.4,13
					c-2.8,1.1-6.1,1.1-9,2.5c-1.5,0.8-5.7,0-5.8,2.7c-0.1,1.7,0.1,3.3,0.8,4.7c0.6,1,0.8,2.9,2.2,4c1.6,1.3,3.5,1.6,4.5,1.4
					c1.6-0.3,2.2,0.3,3.7,0.4c1.9,0.2,2.5,0.3,4.2,0.5c2.2,0.2,3.3-0.4,4.5,0.1c1.2,0.5,2.8,0.6,4.3,0c2-0.9,1.9-1.3,3-2.1
					C33.9,25.9,37.6,25.8,39,23.6z"/>
				<path class="st14" d="M38.6,23.4c1.5-2.3,1.4-4.8,0.5-6.7c-1.2-2.6-3-2.8-4.1-4.2c-1.1-1.3-1.8-5.3-5.4-5.8
					c-3.9-0.6-7.6,5.6-10.1,6.5c-2.8,1.1-6.1,1-8.9,2.4c-1.4,0.7-5.7,0-5.8,2.7c-0.1,1.7,0.2,3.2,0.9,4.5c0.6,1,0.7,2.8,2.1,4
					c1.5,1.2,3.3,1.5,4.3,1.2c1.6-0.4,2.2,0.2,3.7,0.4c1.9,0.2,2.5,0.4,4.2,0.5c2.2,0.1,3.3-0.5,4.6,0.1c1.2,0.6,2.7,0.7,4.3,0
					c2-0.9,1.9-1.4,3-2.2C33.8,25.4,37.2,25.5,38.6,23.4z"/>
				<path class="st15" d="M38.2,23.2c1.4-2.1,1.4-4.5,0.6-6.5c-1.2-2.6-2.9-2.8-4-4.1c-1.1-1.3-1.7-5.2-5.2-5.7
					c-3.8-0.6-7.6,5.5-10.1,6.5c-2.8,1.1-6.1,1-8.8,2.3c-1.4,0.7-5.7-0.1-5.8,2.6c-0.1,1.8,0.2,3.2,1.1,4.4c0.6,0.9,0.7,2.8,2,3.9
					c1.4,1.2,3.2,1.4,4.1,1.1c1.6-0.5,2.1,0.2,3.7,0.3c1.9,0.2,2.6,0.5,4.3,0.6c2.2,0.1,3.4-0.6,4.6,0.1c1.2,0.6,2.6,0.8,4.2,0.1
					c2-0.9,1.8-1.4,2.9-2.3C33.6,25,36.8,25.2,38.2,23.2z"/>
				<path class="st16" d="M37.7,23.1c1.4-1.9,1.4-4.4,0.6-6.2c-1.1-2.6-2.9-2.8-4-4c-1-1.2-1.6-5.1-4.9-5.7c-3.7-0.6-7.6,5.4-10,6.4
					c-2.7,1.1-6,0.9-8.6,2.3c-1.4,0.7-5.7-0.1-5.8,2.5c-0.1,1.9,0.4,3.1,1.2,4.2c0.6,0.9,0.6,2.7,1.9,3.7c1.4,1.1,3,1.3,4,1
					c1.6-0.6,2,0.2,3.7,0.3c1.9,0.1,2.7,0.6,4.3,0.6c2.2,0.1,3.4-0.6,4.6,0c1.3,0.6,2.5,0.9,4.2,0.1c1.9-0.9,1.7-1.5,2.9-2.3
					C33.6,24.5,36.4,24.9,37.7,23.1z"/>
				<path class="st17" d="M37.3,22.8c1.4-1.7,1.4-4.2,0.7-6c-1.1-2.7-2.9-2.7-3.9-4c-1-1.2-1.4-4.9-4.7-5.6
					c-3.5-0.7-7.5,5.3-9.9,6.3c-2.7,1.1-6,0.8-8.5,2.2c-1.3,0.6-5.7-0.1-5.8,2.5c-0.1,1.9,0.5,3.1,1.3,4c0.7,0.9,0.6,2.6,1.9,3.6
					c1.4,1.1,2.9,1.2,3.8,0.8c1.6-0.6,2,0.2,3.6,0.2c1.8,0.1,2.7,0.6,4.3,0.7c2.2,0.1,3.4-0.7,4.7,0c1.3,0.7,2.4,1,4.1,0.2
					c1.9-0.9,1.6-1.5,2.7-2.4C33.4,24.1,35.9,24.6,37.3,22.8z"/>
				<path class="st18" d="M36.9,22.7c1.3-1.5,1.4-4,0.7-5.7c-1-2.7-2.9-2.7-3.8-3.8c-0.9-1.2-1.4-4.9-4.4-5.5
					c-3.4-0.7-7.5,5.3-9.9,6.2c-2.7,1.1-6,0.8-8.4,2c-1.2,0.6-5.7-0.1-5.7,2.4c-0.1,1.9,0.6,3,1.4,3.9c0.7,0.8,0.5,2.6,1.8,3.6
					c1.3,1.1,2.7,1.1,3.6,0.7c1.6-0.8,2,0.1,3.6,0.2c1.8,0.1,2.7,0.7,4.4,0.8c2.2,0.1,3.4-0.8,4.7-0.1s2.3,1.1,4,0.2
					c1.9-1,1.6-1.6,2.7-2.5C33.3,23.7,35.6,24.3,36.9,22.7z"/>
				<path class="st19" d="M36.4,22.5c1.2-1.4,1.4-3.8,0.8-5.5c-0.9-2.8-2.9-2.6-3.7-3.7c-0.9-1.1-1.2-4.8-4.2-5.4
					c-3.3-0.8-7.5,5.3-9.8,6.2c-2.7,1.1-5.9,0.7-8.3,1.9c-1.2,0.6-5.7-0.2-5.7,2.3c-0.1,2,0.7,2.9,1.6,3.7c0.7,0.8,0.4,2.5,1.7,3.5
					c1.2,1,2.6,1.1,3.5,0.6c1.5-0.9,1.9,0.1,3.5,0.2c1.8,0.1,2.8,0.8,4.4,0.8c2.1,0,3.4-0.9,4.7-0.1s2.2,1.1,4,0.2
					c1.9-1,1.5-1.7,2.6-2.7C33.2,23.2,35.1,24,36.4,22.5z"/>
				<path class="st20" d="M36,22.4c1.2-1.2,1.4-3.6,0.9-5.3c-0.8-2.8-2.8-2.6-3.7-3.6c-0.9-1.1-1.1-4.7-3.9-5.3
					c-3.2-0.8-7.5,5.2-9.7,6.2c-2.7,1.1-5.9,0.7-8.1,1.9c-1.2,0.6-5.7-0.2-5.7,2.3c0,2,0.8,2.8,1.7,3.6c0.8,0.7,0.4,2.4,1.6,3.3
					c1.2,0.9,2.5,1,3.3,0.4c1.5-1,1.9,0,3.5,0.1c1.7,0.1,2.9,0.9,4.5,0.9c2.1,0,3.4-1,4.7-0.1c1.4,0.8,2.1,1.2,3.9,0.2
					s1.4-1.7,2.5-2.8C33.1,22.7,34.7,23.7,36,22.4z"/>
				<path class="st21" d="M35.6,22.2c1.2-1.1,1.4-3.4,0.9-5c-0.7-2.8-2.8-2.5-3.6-3.6c-0.8-1.1-1-4.5-3.7-5.3
					c-3.1-0.9-7.4,5.1-9.7,6.1c-2.7,1.1-5.8,0.6-8,1.8c-1.1,0.6-5.7-0.2-5.7,2.3c0,2.1,0.9,2.8,1.8,3.5c0.8,0.7,0.3,2.3,1.6,3.2
					c1.1,0.9,2.3,0.9,3.2,0.3c1.5-1.1,1.8,0,3.5,0.1s2.9,1,4.5,1c2.1,0,3.4-1,4.8-0.2c1.4,0.9,2,1.3,3.8,0.3c1.8-1,1.4-1.8,2.4-2.8
					C33,22.3,34.3,23.3,35.6,22.2z"/>
			</g>
			<path class="st22" d="M32.8,13.5c-0.1,0-0.2,0-0.3,0C32.3,8.8,29.4,5,25.7,5c-3.2,0-6,2.9-6.6,6.9c-0.6-0.4-1.3-0.6-2-0.6
				c-1.6,0-2.9,1.1-3.7,2.7c-0.4-0.4-1-0.6-1.6-0.6c-0.7,0-1.3,0.3-1.8,0.9c-0.7-1.1-1.7-1.7-2.8-1.7c-2,0-3.6,2.1-3.6,4.7
				s1.6,4.7,3.6,4.7l0,0c0.2,2.3,1.7,4.1,3.5,4.1c1.2,0,2.2-0.7,2.9-1.9c0.5,0.9,1.3,1.5,2.2,1.5c0.7,0,1.4-0.4,1.9-1
				c0.6,1.2,1.7,1.9,2.9,1.9c1.1,0,2-0.6,2.7-1.6c0.8,1.5,2.1,2.3,3.6,2.3c2.2,0,4-2,4.4-4.8c0.5,0.3,1,0.5,1.6,0.5
				c2,0,3.6-2.1,3.6-4.7S34.8,13.5,32.8,13.5z"/>
			<path class="st23" d="M32.9,13.6c-0.1,0-0.2,0-0.3,0c-0.2-4.7-3.2-8.5-6.8-8.5c-3.2,0-6,2.9-6.6,6.9c-0.6-0.4-1.3-0.6-2-0.6
				c-1.6,0-2.9,1.1-3.7,2.7c-0.4-0.4-1-0.6-1.6-0.6c-0.7,0-1.3,0.3-1.8,0.9c-0.7-1.1-1.7-1.7-2.8-1.7c-2,0-3.6,2.1-3.6,4.7
				S5.1,22,7.1,22l0,0c0.2,2.3,1.7,4.1,3.5,4.1c1.2,0,2.2-0.7,2.9-1.9c0.5,0.9,1.3,1.5,2.2,1.5c0.7,0,1.4-0.4,1.9-1
				c0.6,1.2,1.7,1.9,2.9,1.9c1.1,0,2-0.6,2.7-1.6c0.8,1.5,2.1,2.3,3.6,2.3c2.2,0,4-2,4.4-4.8c0.5,0.3,1,0.5,1.6,0.5
				c2,0,3.6-2.1,3.6-4.7C36.5,15.8,34.9,13.6,32.9,13.6z"/>
		</g>
		<g>
			<g>
				<path class="st0" d="M35.2,24.8c3.8-1,4.3-5.3,3.1-8.3c-0.7-1.7-1.8-4-3.3-5.5c-1.1-1.1-2.3-3-4.2-3.4c-4.9-1.1-6.3,4.1-9.7,6.2
					c-3,1.9-5.8-0.6-8.6,0.8c-1.4,0.7-4,1-4.9,2.8c-1,2.3-0.4,4.2,1.1,6.6c0.9,1.5,1.7,2.3,3,3.2c1.1,0.7,1.9,0.7,2.9,1.1
					c1.1,0.4,2,0.8,2.7,0.9c1.6,0.2,2.2,0.5,3.5,0.7c1.6,0.2,2.2-0.9,3-0.8c1.3,0.1,2.6,0.3,3.6-0.1c1.7-0.6,2.3-0.9,3.2-1.3
					C32.3,27,32.8,25.4,35.2,24.8z"/>
				<path class="st1" d="M35,24.5c3.7-0.9,4.2-5.1,3-8c-0.7-1.7-1.8-4-3.3-5.4c-1.1-1.1-2.2-2.9-4.2-3.4c-4.8-1.1-6.4,4-9.6,6.2
					c-2.9,1.9-5.7-0.6-8.4,0.9c-1.4,0.7-4.2,0.9-5,2.8c-0.9,2.2-0.3,4.1,1.2,6.4c0.9,1.4,1.7,2.1,3,3c1.1,0.8,2,0.7,2.9,1.1
					c1.1,0.4,1.9,0.7,2.7,0.9c1.6,0.3,2.2,0.6,3.4,0.7c1.6,0.2,2.2-0.9,3-0.8c1.3,0,2.5,0.2,3.5-0.2c1.6-0.6,2.2-1,3.1-1.3
					C32.2,26.7,32.6,25.1,35,24.5z"/>
				<path class="st2" d="M34.9,24.3c3.5-0.8,4.1-4.9,3-7.7c-0.7-1.6-1.8-3.9-3.2-5.3c-1.1-1.1-2.2-2.9-4-3.3c-4.7-1.1-6.5,4-9.6,6
					c-2.9,1.9-5.7-0.5-8.3,0.9c-1.4,0.7-4.2,0.9-5,2.8c-0.9,2.2-0.2,4.1,1.2,6.2c0.9,1.3,1.7,2,3,2.9c1.1,0.8,2,0.8,2.9,1.1
					c1.1,0.4,1.9,0.6,2.6,0.8c1.5,0.3,2.1,0.6,3.4,0.7c1.7,0.2,2.2-0.8,3-0.9c1.3-0.1,2.5,0.2,3.5-0.2c1.6-0.6,2.2-1,3-1.3
					C32.1,26.5,32.6,24.9,34.9,24.3z"/>
				<path class="st3" d="M34.7,24.1c3.4-0.8,4-4.6,2.9-7.4c-0.6-1.6-1.8-3.8-3.2-5.3c-1-1.1-2-2.8-3.9-3.3c-4.5-1.1-6.5,4-9.6,5.9
					c-2.8,1.8-5.6-0.5-8.1,0.9c-1.3,0.7-4.3,0.9-5,2.8c-0.8,2.2-0.1,4,1.2,6c0.9,1.2,1.8,1.9,3,2.8c1.1,0.9,2,0.9,2.9,1.2
					c1.1,0.4,1.9,0.6,2.5,0.8c1.4,0.4,2,0.6,3.3,0.7c1.7,0.2,2.3-0.8,3-0.9c1.3-0.1,2.4,0.2,3.5-0.2c1.6-0.6,2.1-1.1,3-1.3
					C32,26.2,32.5,24.5,34.7,24.1z"/>
				<path class="st4" d="M34.6,23.8c3.3-0.7,3.8-4.4,2.9-7c-0.6-1.6-1.8-3.8-3.2-5.3c-1-1.1-2-2.8-3.8-3.3c-4.3-1.2-6.6,3.9-9.6,5.7
					c-2.8,1.7-5.5-0.4-8,0.9c-1.3,0.6-4.4,0.9-5.1,2.8c-0.7,2.1-0.1,4,1.3,5.7c0.9,1.1,1.9,1.8,3,2.8c1.1,0.9,2,1,2.9,1.3
					c1.1,0.4,1.8,0.6,2.5,0.8c1.4,0.5,2,0.6,3.2,0.7c1.7,0.2,2.3-0.8,3-0.9c1.2-0.2,2.4,0.2,3.4-0.2c1.6-0.6,2-1.1,2.9-1.3
					C32,25.9,32.4,24.3,34.6,23.8z"/>
				<path class="st5" d="M34.4,23.6c3.2-0.6,3.7-4.1,2.8-6.7c-0.6-1.6-1.8-3.7-3.2-5.2c-0.9-1.1-1.9-2.8-3.7-3.3
					c-4.2-1.2-6.6,3.8-9.4,5.7c-2.7,1.7-5.4-0.3-7.9,1c-1.2,0.6-4.5,0.9-5.1,2.8c-0.7,2.1,0,3.9,1.4,5.5c0.9,1.1,1.9,1.7,3,2.6
					c1.1,1,2,1.1,2.9,1.3c1.1,0.3,1.7,0.5,2.5,0.7c1.4,0.6,1.9,0.6,3.2,0.7c1.7,0.2,2.3-0.8,3-0.9c1.2-0.2,2.3,0.2,3.4-0.3
					c1.6-0.6,2-1.1,2.9-1.3C31.9,25.7,32.3,24.1,34.4,23.6z"/>
				<path class="st6" d="M34.3,23.4c3-0.6,3.6-3.9,2.7-6.4c-0.6-1.6-1.8-3.6-3.1-5.2C33,10.8,32,9.1,30.3,8.5
					c-4-1.2-6.6,3.8-9.5,5.5c-2.7,1.6-5.3-0.3-7.7,1c-1.2,0.6-4.5,0.8-5.2,2.7c-0.7,2,0.1,3.8,1.4,5.3c0.8,1,1.9,1.5,3,2.5
					s2.1,1.1,2.9,1.4c1.1,0.3,1.7,0.4,2.5,0.7c1.3,0.6,1.9,0.6,3.1,0.7c1.7,0.2,2.3-0.7,3-1c1.2-0.3,2.2,0.2,3.4-0.3
					c1.6-0.6,1.9-1.1,2.9-1.3C31.8,25.4,32.2,23.8,34.3,23.4z"/>
				<path class="st7" d="M34.1,23.2c2.9-0.6,3.5-3.6,2.7-6.1c-0.5-1.6-1.8-3.6-3.1-5.1c-0.9-1.1-1.8-2.8-3.5-3.3
					c-3.9-1.3-6.7,3.7-9.4,5.3c-2.6,1.5-5.2-0.2-7.6,1c-1.2,0.6-4.6,0.8-5.2,2.7c-0.6,2,0.2,3.7,1.4,5.1c0.8,0.9,1.9,1.5,3,2.4
					c1.1,1.1,2.1,1.1,3,1.4c1.1,0.3,1.7,0.3,2.4,0.7c1.2,0.6,1.9,0.6,3,0.7c1.7,0.2,2.3-0.7,3.1-1c1.2-0.4,2.2,0.1,3.3-0.4
					c1.6-0.6,1.9-1.1,2.8-1.3C31.8,25.2,32.1,23.5,34.1,23.2z"/>
				<path class="st8" d="M33.9,22.9c2.7-0.5,3.4-3.4,2.6-5.7c-0.5-1.6-1.8-3.5-3-5c-0.9-1.1-1.7-2.7-3.4-3.2
					c-3.7-1.3-6.8,3.6-9.4,5.3c-2.5,1.5-5.2-0.2-7.5,1C12,15.8,8.5,16,8,17.8c-0.6,1.9,0.2,3.6,1.5,4.9c0.8,0.8,2,1.4,3,2.3
					c1.1,1.1,2.2,1.2,3,1.5c1.1,0.3,1.6,0.2,2.4,0.6c1.2,0.6,1.8,0.6,3,0.7c1.7,0.2,2.3-0.7,3.1-1c1.2-0.4,2.1,0.1,3.2-0.4
					c1.5-0.6,1.8-1.2,2.7-1.3C31.6,24.9,32,23.2,33.9,22.9z"/>
				<path class="st9" d="M33.8,22.7c2.6-0.5,3.2-3.2,2.5-5.4c-0.4-1.5-1.7-3.4-3-5C32.5,11.2,31.6,9.6,30,9
					c-3.6-1.3-6.8,3.6-9.4,5.1c-2.5,1.5-5.1-0.2-7.3,1.1c-1.2,0.6-4.8,0.8-5.3,2.6c-0.6,1.9,0.3,3.6,1.6,4.7c0.8,0.7,2,1.2,3,2.2
					c1.1,1.1,2.2,1.3,3,1.5c1.2,0.3,1.6,0.2,2.4,0.6c1.2,0.7,1.7,0.6,2.9,0.8c1.7,0.2,2.4-0.6,3.1-1c1.2-0.5,2,0.1,3.2-0.5
					c1.5-0.6,1.7-1.2,2.7-1.3C31.6,24.6,32,23,33.8,22.7z"/>
				<path class="st10" d="M33.6,22.4c2.5-0.4,3.1-2.9,2.5-5.1c-0.4-1.5-1.7-3.4-3-4.9c-0.8-1.1-1.6-2.6-3.2-3.2
					c-3.5-1.4-6.9,3.6-9.4,5c-2.4,1.4-5-0.1-7.1,1.1c-1.1,0.6-4.8,0.8-5.3,2.6c-0.5,1.9,0.4,3.5,1.6,4.5c0.7,0.6,2,1.1,3,2.1
					c1.1,1.1,2.2,1.4,3,1.5c1.2,0.2,1.6,0.1,2.4,0.6c1.1,0.7,1.7,0.7,2.9,0.8c1.8,0.2,2.4-0.6,3.1-1c1.2-0.6,2,0,3.2-0.5
					c1.5-0.6,1.7-1.3,2.6-1.3C31.5,24.4,31.8,22.8,33.6,22.4z"/>
				<path class="st11" d="M33.5,22.2c2.4-0.3,3-2.7,2.4-4.8c-0.4-1.5-1.7-3.3-3-4.9c-0.7-1-1.5-2.6-3.1-3.2
					c-3.3-1.4-6.9,3.5-9.3,4.9c-2.4,1.3-4.9-0.1-7,1.1c-1.1,0.6-5,0.7-5.4,2.6s0.5,3.4,1.6,4.2c0.7,0.5,2.1,1.1,3,2
					c1.1,1.2,2.2,1.4,3,1.6c1.2,0.2,1.5,0,2.3,0.6c1.1,0.8,1.6,0.7,2.8,0.8c1.8,0.1,2.4-0.6,3.2-1.1c1.2-0.6,1.9,0,3.1-0.6
					c1.4-0.6,1.6-1.3,2.5-1.3C31.5,24.1,31.8,22.4,33.5,22.2z"/>
				<path class="st12" d="M33.3,22c2.2-0.3,2.9-2.4,2.4-4.5c-0.4-1.5-1.7-3.2-2.9-4.9c-0.7-1-1.4-2.5-3-3.2c-3.2-1.4-7,3.5-9.3,4.7
					c-2.4,1.3-4.8,0-6.9,1.1c-1.1,0.6-5,0.7-5.4,2.5c-0.4,1.8,0.6,3.3,1.7,4c0.7,0.4,2.1,0.9,3,1.9c1.1,1.3,2.3,1.5,3,1.6
					c1.2,0.2,1.4-0.1,2.2,0.6c1.1,0.8,1.6,0.7,2.7,0.8c1.8,0.1,2.4-0.6,3.2-1.1c1.2-0.6,1.9,0,3-0.6c1.4-0.6,1.6-1.4,2.5-1.3
					C31.4,23.8,31.6,22.2,33.3,22z"/>
				<path class="st13" d="M33.2,21.8c2.1-0.2,2.7-2.2,2.4-4.1c-0.3-1.5-1.7-3.2-2.9-4.8c-0.7-1-1.4-2.5-2.9-3.2
					c-3-1.4-7,3.4-9.3,4.6s-4.7,0.1-6.7,1.1c-1.1,0.6-5.1,0.7-5.5,2.5c-0.4,1.8,0.6,3.2,1.7,3.8c0.7,0.3,2.2,0.8,3,1.8
					c1.1,1.3,2.3,1.5,3.1,1.7c1.2,0.2,1.4-0.2,2.2,0.6c1.1,0.9,1.5,0.7,2.7,0.8c1.8,0.1,2.4-0.6,3.2-1.1c1.1-0.7,1.8-0.1,3-0.6
					c1.4-0.6,1.6-1.4,2.4-1.4C31.3,23.6,31.6,22,33.2,21.8z"/>
				<path class="st14" d="M33,21.5c2-0.2,2.6-1.9,2.3-3.8c-0.2-1.5-1.7-3.1-2.9-4.8c-0.7-1-1.3-2.4-2.8-3.2
					c-2.9-1.4-7.1,3.3-9.3,4.5c-2.2,1.1-4.7,0.1-6.6,1.1c-1,0.6-5.2,0.7-5.5,2.5C8,19.6,9,21.1,10.1,21.5c0.7,0.2,2.2,0.7,3,1.7
					c1.1,1.4,2.4,1.6,3.1,1.7c1.2,0.2,1.4-0.2,2.2,0.5c1,0.9,1.4,0.7,2.6,0.8c1.9,0.1,2.4-0.6,3.2-1.1c1.1-0.8,1.7-0.1,3-0.6
					c1.4-0.6,1.5-1.5,2.4-1.4C31.2,23.3,31.5,21.7,33,21.5z"/>
				<path class="st15" d="M32.9,21.3c1.8-0.2,2.5-1.7,2.2-3.5c-0.2-1.5-1.7-3-2.8-4.7c-0.6-1-1.2-2.4-2.7-3.2
					c-2.7-1.5-7.1,3.2-9.3,4.4c-2.2,1.1-4.6,0.2-6.5,1.1c-1,0.5-5.3,0.6-5.5,2.4c-0.2,1.7,0.8,3.1,1.9,3.4c0.7,0.2,2.2,0.6,3,1.6
					c1.1,1.5,2.4,1.6,3.1,1.8c1.2,0.2,1.3-0.3,2.2,0.5c0.9,0.9,1.4,0.8,2.5,0.8c1.9,0.1,2.4-0.5,3.2-1.1c1.1-0.8,1.7-0.1,2.9-0.7
					c1.4-0.6,1.4-1.5,2.3-1.4C31.2,23.1,31.4,21.4,32.9,21.3z"/>
				<path class="st16" d="M32.7,21.1c1.7-0.1,2.4-1.5,2.2-3.2c-0.2-1.5-1.7-2.9-2.8-4.6c-0.6-1-1.2-2.3-2.6-3.2
					c-2.6-1.5-7.2,3.2-9.2,4.2c-2.1,1.1-4.5,0.2-6.3,1.1c-0.9,0.5-5.3,0.6-5.6,2.4c-0.2,1.6,0.9,3,1.9,3.2c0.7,0.1,2.2,0.5,3,1.5
					c1.1,1.5,2.4,1.7,3.1,1.8c1.2,0.2,1.3-0.4,2.1,0.5c0.9,1,1.3,0.8,2.5,0.8c1.9,0.1,2.4-0.5,3.2-1.1c1.1-0.9,1.6-0.2,2.9-0.7
					c1.4-0.6,1.4-1.5,2.2-1.4C31.1,22.8,31.3,21.1,32.7,21.1z"/>
				<path class="st17" d="M32.6,20.8c1.6-0.1,2.2-1.2,2.1-2.8c-0.2-1.5-1.7-2.9-2.7-4.6c-0.6-1-1.1-2.3-2.5-3.2
					c-2.4-1.5-7.2,3.2-9.2,4c-2,1-4.4,0.2-6.1,1.1c-0.9,0.5-5.5,0.6-5.7,2.4c-0.2,1.6,0.9,3,1.9,2.9c0.7-0.1,2.3,0.4,3,1.4
					c1.1,1.5,2.4,1.8,3.2,1.9c1.2,0.2,1.2-0.5,2.1,0.4c0.9,1,1.2,0.8,2.4,0.8c1.9,0.1,2.4-0.4,3.2-1.1c1.1-1,1.6-0.2,2.8-0.8
					c1.3-0.6,1.3-1.5,2.2-1.4C31,22.5,31.2,20.9,32.6,20.8z"/>
				<path class="st18" d="M32.4,20.6c1.4-0.1,2.2-1,2-2.5c-0.1-1.5-1.7-2.8-2.7-4.5c-0.6-1-1-2.3-2.4-3.2c-2.3-1.5-7.3,3.1-9.1,4
					c-2,0.9-4.3,0.3-6,1.2c-0.9,0.5-5.5,0.6-5.7,2.3c-0.1,1.6,1.1,2.8,2,2.8c0.7-0.1,2.3,0.3,3,1.3c1.1,1.6,2.5,1.9,3.2,1.9
					c1.2,0.2,1.2-0.6,2,0.4c0.9,1,1.2,0.8,2.4,0.8c1.9,0,2.5-0.4,3.2-1.1c1.1-1,1.5-0.2,2.8-0.8c1.3-0.6,1.2-1.6,2.1-1.4
					C31,22.3,31.2,20.7,32.4,20.6z"/>
				<path class="st19" d="M32.3,20.3c1.3,0,2-0.8,2-2.2c-0.1-1.5-1.7-2.8-2.7-4.5c-0.5-1-0.9-2.2-2.3-3.2c-2.2-1.5-7.3,3.1-9.1,3.8
					c-2,0.9-4.2,0.3-5.9,1.2c-0.9,0.5-5.7,0.6-5.7,2.3c-0.1,1.5,1.1,2.8,2,2.5c0.6-0.2,2.4,0.2,3,1.2c1,1.6,2.5,1.9,3.2,1.9
					c1.2,0.1,1.2-0.6,2,0.4c0.8,1.1,1.2,0.8,2.3,0.9c1.9,0,2.5-0.4,3.3-1.1c1.1-1.1,1.4-0.2,2.7-0.9c1.3-0.6,1.2-1.6,2-1.4
					C30.9,22,31,20.3,32.3,20.3z"/>
				<path class="st20" d="M32.1,20.2c1.2,0.1,1.9-0.6,1.9-1.8c0-1.5-1.7-2.7-2.7-4.5c-0.5-0.9-0.9-2.2-2.2-3.1
					c-2-1.5-7.4,2.9-9.1,3.6c-1.9,0.8-4.2,0.4-5.7,1.2c-0.8,0.4-5.7,0.6-5.8,2.3c-0.1,1.5,1.2,2.7,2.1,2.3c0.6-0.3,2.4,0.1,3,1.1
					c1,1.7,2.5,1.9,3.2,2c1.2,0.1,1.2-0.7,2,0.3c0.8,1.1,1.1,0.9,2.2,0.9c1.9,0,2.5-0.3,3.3-1.2c1.1-1.1,1.4-0.2,2.7-0.9
					c1.3-0.6,1.1-1.7,2-1.4C30.8,21.7,31,20.1,32.1,20.2z"/>
				<path class="st21" d="M32,19.9c1,0.1,1.8-0.3,1.9-1.5c0.1-1.5-1.7-2.6-2.6-4.4c-0.4-0.9-0.8-2.1-2-3.1c-1.9-1.5-7.5,2.9-9.1,3.6
					c-1.9,0.7-4.1,0.5-5.6,1.2c-0.8,0.4-5.8,0.6-5.8,2.3c0,1.5,1.2,2.6,2.1,2.1c0.6-0.4,2.4,0,3,1c1,1.8,2.6,2,3.2,2
					c1.2,0.1,1.1-0.8,1.9,0.3c0.7,1.1,1.1,0.9,2.2,0.9c1.9,0,2.5-0.3,3.3-1.2c1.1-1.1,1.3-0.2,2.6-1c1.2-0.6,1.1-1.7,1.9-1.4
					C30.7,21.5,30.8,19.8,32,19.9z"/>
			</g>
			<g>
				<path class="st0" d="M24.5,11.1c-1.6-3.9-4.8-4.9-6.6-4.3c-2.1,0.7-3.8,2.9-3.5,5.4c0.3,3.3,2.5,5.3,4.4,6.4
					C21.7,20.3,25.9,14.7,24.5,11.1z"/>
				<path class="st1" d="M24.4,11.2C22.9,7.4,19.7,6.4,18,7c-2,0.7-3.7,2.8-3.4,5.3c0.3,3.2,2.4,5.3,4.3,6.2
					C21.6,19.9,25.7,14.7,24.4,11.2z"/>
				<path class="st2" d="M24.2,11.3c-1.4-3.7-4.6-4.8-6.3-4.2c-2,0.7-3.5,2.7-3.4,5.1c0.2,3.2,2.3,5.1,4.2,6.1
					C21.5,19.7,25.5,14.7,24.2,11.3z"/>
				<path class="st3" d="M24.1,11.3c-1.3-3.6-4.5-4.7-6.1-4.1c-1.9,0.6-3.4,2.6-3.2,4.9c0.2,3.2,2.2,5,4,5.9
					C21.3,19.4,25.3,14.7,24.1,11.3z"/>
				<path class="st4" d="M23.9,11.3c-1.2-3.5-4.4-4.6-6-4c-1.8,0.6-3.3,2.5-3.1,4.9c0.2,3.1,2.2,4.9,3.8,5.7
					C21.2,19.1,25.1,14.7,23.9,11.3z"/>
				<path class="st5" d="M23.8,11.4c-1.2-3.4-4.3-4.5-5.8-4c-1.7,0.6-3.2,2.3-3,4.7c0.2,3.1,2.1,4.8,3.7,5.6
					C21.1,18.9,24.9,14.7,23.8,11.4z"/>
				<path class="st6" d="M23.6,11.4c-1.1-3.3-4.2-4.5-5.7-4c-1.7,0.6-3,2.3-2.9,4.5c0.2,3,2,4.7,3.6,5.4
					C21,18.6,24.6,14.6,23.6,11.4z"/>
				<path class="st7" d="M23.5,11.5c-1-3.2-4.1-4.5-5.5-3.9c-1.6,0.6-2.9,2.2-2.8,4.5c0.1,2.9,1.9,4.6,3.5,5.3
					C20.8,18.3,24.4,14.6,23.5,11.5z"/>
				<path class="st8" d="M23.3,11.6c-0.9-3.2-4-4.4-5.4-3.8c-1.5,0.6-2.7,2.1-2.7,4.3c0.1,2.9,1.9,4.5,3.4,5.1
					C20.7,18,24.2,14.6,23.3,11.6z"/>
				<path class="st9" d="M23.1,11.6c-0.9-3-3.8-4.3-5.3-3.7s-2.6,2-2.5,4.1c0.1,2.8,1.8,4.4,3.2,4.9C20.6,17.7,24,14.5,23.1,11.6z"
					/>
				<path class="st10" d="M23,11.7c-0.8-2.9-3.8-4.2-5.1-3.7c-1.4,0.5-2.5,1.9-2.5,4c0.1,2.8,1.7,4.3,3,4.8
					C20.5,17.5,23.8,14.5,23,11.7z"/>
				<path class="st11" d="M22.8,11.8c-0.7-2.8-3.7-4.2-5-3.6c-1.2,0.5-2.4,1.8-2.4,3.9c0,2.8,1.7,4.2,2.9,4.6
					C20.3,17.2,23.6,14.5,22.8,11.8z"/>
				<path class="st12" d="M22.6,11.8C22,9,19.1,7.6,17.8,8.1c-1.2,0.5-2.2,1.7-2.2,3.7c0,2.7,1.6,4,2.8,4.5
					C20.2,16.9,23.3,14.5,22.6,11.8z"/>
				<path class="st13" d="M22.5,11.8c-0.6-2.7-3.4-4-4.7-3.6c-1.1,0.4-2.1,1.6-2.1,3.6c-0.1,2.6,1.5,4,2.7,4.3
					C20,16.7,23.1,14.4,22.5,11.8z"/>
				<path class="st14" d="M22.4,11.9c-0.5-2.6-3.4-4-4.5-3.5c-1.1,0.4-2,1.5-2,3.5c-0.1,2.6,1.4,3.9,2.5,4.1
					C19.9,16.4,22.9,14.4,22.4,11.9z"/>
				<path class="st15" d="M22.2,11.9C21.8,9.5,19,8,17.9,8.4c-0.9,0.4-1.9,1.4-1.9,3.3c-0.1,2.5,1.4,3.7,2.4,4
					C19.8,16.1,22.6,14.4,22.2,11.9z"/>
				<path class="st16" d="M22.1,12c-0.4-2.3-3.1-3.9-4.2-3.4c-0.9,0.3-1.7,1.3-1.8,3.2c-0.1,2.4,1.3,3.6,2.3,3.8
					C19.7,15.8,22.5,14.4,22.1,12z"/>
				<path class="st17" d="M21.9,12.1c-0.3-2.3-3-3.8-4.1-3.3c-0.8,0.3-1.6,1.2-1.7,3c-0.1,2.4,1.2,3.6,2.1,3.6
					C19.5,15.6,22.2,14.3,21.9,12.1z"/>
				<path class="st18" d="M21.8,12.1c-0.2-2.2-2.9-3.7-3.9-3.3c-0.7,0.3-1.5,1.1-1.6,2.9c-0.2,2.3,1.2,3.4,2,3.5
					C19.4,15.3,22,14.3,21.8,12.1z"/>
				<path class="st19" d="M21.6,12.2c-0.2-2.1-2.8-3.6-3.8-3.2c-0.6,0.2-1.4,1.1-1.5,2.8c-0.2,2.3,1.1,3.3,1.9,3.3
					C19.3,15,21.8,14.3,21.6,12.2z"/>
				<path class="st20" d="M21.5,12.2c-0.1-1.9-2.7-3.6-3.7-3.2c-0.6,0.2-1.2,0.9-1.4,2.6c-0.2,2.3,1,3.2,1.7,3.2
					C19.2,14.7,21.6,14.3,21.5,12.2z"/>
				<path class="st21" d="M21.3,12.2c-0.1-1.9-2.5-3.6-3.5-3.2c-0.5,0.2-1.1,0.8-1.2,2.5c-0.2,2.2,0.9,3.2,1.6,3
					C19,14.5,21.3,14.3,21.3,12.2z"/>
			</g>
			<path class="st24" d="M32.2,16c-0.1,0-0.1,0-0.2,0c-0.2-0.7-0.6-1.4-1.1-1.7c0-0.1,0-0.1,0-0.2c0-2.9-1.8-5.3-4-5.3
				c-1.6,0-3,1.2-3.7,3c-0.4-0.3-0.9-0.5-1.4-0.5c-0.4,0-0.7,0.1-1.1,0.2c-0.5-2.3-2.2-4-4.2-4c-2.4,0-4.3,2.5-4.3,5.7
				c0,0.2,0,0.5,0.1,0.7c-0.8,0.1-1.5,0.6-1.9,1.5c-0.2-0.1-0.5-0.2-0.7-0.2c-1.1,0-1.9,1.1-1.9,2.5c0,1.4,0.9,2.5,1.9,2.5
				c0.6,0,1-0.2,1.4-0.7c0.4,0.3,0.8,0.6,1.3,0.6c0.4,0,0.8-0.2,1.1-0.4c0.4,1.7,1.6,3,3,3c0.6,0,1.2-0.2,1.6-0.6
				c0.7,1.3,1.7,2.1,3,2.1c1.6,0,2.9-1.3,3.4-3.1c0.4,0.5,0.9,0.8,1.4,0.8c1,0,1.9-1.1,1.9-2.3c0.4,0.5,1.1,0.8,1.7,0.8
				c0.7,0,1.4-0.4,1.9-1.1c0.2,0.2,0.4,0.2,0.6,0.2c0.7,0,1.4-0.8,1.4-1.8C33.6,16.9,33,16,32.2,16z"/>
			<path class="st22" d="M32.3,16.2c-0.1,0-0.1,0-0.2,0c-0.2-0.7-0.6-1.4-1.1-1.7c0-0.1,0-0.1,0-0.2c0-2.9-1.8-5.3-4-5.3
				c-1.6,0-3,1.2-3.7,3c-0.4-0.3-0.9-0.5-1.4-0.5c-0.4,0-0.7,0.1-1.1,0.2c-0.5-2.3-2.2-4-4.2-4c-2.4,0-4.3,2.5-4.3,5.7
				c0,0.2,0,0.5,0.1,0.7c-0.8,0.1-1.5,0.6-1.9,1.5c-0.2-0.1-0.5-0.2-0.7-0.2c-1.1,0-1.9,1.1-1.9,2.5s0.9,2.5,1.9,2.5
				c0.6,0,1-0.2,1.4-0.7c0.4,0.3,0.8,0.6,1.3,0.6c0.4,0,0.8-0.2,1.1-0.4c0.4,1.7,1.6,3,3,3c0.6,0,1.2-0.2,1.6-0.6
				c0.7,1.3,1.7,2.1,3,2.1c1.6,0,2.9-1.3,3.4-3.1c0.4,0.5,0.9,0.8,1.4,0.8c1,0,1.9-1.1,1.9-2.3c0.4,0.5,1.1,0.8,1.7,0.8
				c0.7,0,1.4-0.4,1.9-1.1c0.2,0.2,0.4,0.2,0.6,0.2c0.7,0,1.4-0.8,1.4-1.8C33.6,16.9,33,16.2,32.3,16.2z"/>
		</g>
		<g>
			<g>
				<path class="st0" d="M39.4,28.3c3-0.7,3.3-4.1,3.2-6.8c-0.1-1.7-1.4-3-2.5-4.1c-0.9-0.8-3.5-1.5-4.9-2.3c-2-1.3-2.7-4.4-5.5-4.8
					c-1.7-0.2-3.1-0.1-5.3,1.1c-1.1,0.6-7.5,9.5-8.1,11c-0.7,1.8-0.6,3.2,0.5,5.1c0.7,1.1,1.1,2,1.9,3.1s1.3,1.8,2,2.1
					c0.9,0.3,1.7,1.7,3.1,1.7c2,0,3,0,4.2-0.3c1.2-0.3,2-2.4,3.2-2.7c1-0.2,2.2,0.2,3.8-0.6C36.2,30.1,37.5,28.8,39.4,28.3z"/>
				<path class="st1" d="M29.6,10.4c-1.7-0.3-3.1-0.1-5.2,1.1c-1.2,0.6-7.3,9.4-7.9,10.8c-0.7,1.7-0.6,3.2,0.5,4.9
					c0.7,1.1,1.1,1.9,1.8,3c0.6,0.8,1.1,1.4,1.5,1.8c0.1,0.2,0.3,0.2,0.5,0.3c0.8,0.4,1.6,1.8,3,1.8c2,0,3,0,4.2-0.4
					c1.2-0.3,2-2.2,3-2.5c0.1,0,0.1,0,0.1,0c0.9-0.2,1.8,0.1,3-0.2c0.2-0.1,0.5-0.2,0.7-0.2c1.2-0.6,2.5-1.8,4.4-2.3
					c2.9-0.7,3.2-4,3.1-6.6c0-1.1-0.6-2-1.3-2.9c-0.4-0.4-0.8-0.8-1.2-1.2c-0.4-0.6-1.5-1.1-2.5-1.5c-0.8-0.3-1.7-0.6-2.2-1.1
					c-0.6-0.4-1.1-1-1.6-1.5C32.5,12.3,31.6,10.7,29.6,10.4z"/>
				<path class="st2" d="M29.5,10.5c-1.7-0.3-3-0.1-5.1,1.1c-1.2,0.7-7.3,9.2-7.8,10.7c-0.7,1.7-0.6,3,0.5,4.8
					c0.7,1.1,1.1,1.9,1.8,2.8c0.6,0.7,1.1,1.4,1.6,1.8c0.1,0.2,0.3,0.2,0.4,0.3c0.8,0.4,1.6,1.8,3,1.8c2.1,0,3-0.1,4.2-0.5
					c1.2-0.4,1.9-2.1,3-2.4c0.1,0,0.1,0,0.1,0c0.9-0.2,1.8,0.1,3-0.2c0.2-0.1,0.5-0.2,0.7-0.2c1.2-0.6,2.5-1.8,4.3-2.3
					c2.8-0.7,3.1-3.9,3-6.4c0-1.1-0.6-2-1.3-2.8c-0.4-0.4-0.8-0.8-1.2-1.1c-0.5-0.5-1.6-0.8-2.6-1.2c-0.9-0.3-1.7-0.6-2.2-1
					c-0.6-0.4-1.1-1-1.6-1.5C32.3,12.6,31.5,10.9,29.5,10.5z"/>
				<path class="st3" d="M29.4,10.7c-1.6-0.3-3-0.1-5,1.1c-1.4,0.8-7.1,9.1-7.7,10.5c-0.6,1.6-0.5,2.9,0.6,4.5
					c0.7,1.1,1,1.8,1.7,2.8c0.6,0.7,1.1,1.3,1.6,1.7c0.1,0.2,0.3,0.2,0.4,0.3c0.8,0.5,1.6,1.8,3,1.8c2.1,0,3-0.1,4.2-0.5
					c1.1-0.4,1.9-2,3-2.4c0.1,0,0.1,0,0.1,0c0.9-0.2,1.8,0.1,3-0.2c0.2-0.1,0.4-0.2,0.7-0.2c1.2-0.6,2.5-1.7,4.3-2.2
					c2.7-0.7,3-3.8,3-6.2c0-1.1-0.5-2-1.3-2.8c-0.4-0.4-0.8-0.8-1.2-1.1c-0.6-0.4-1.6-0.8-2.6-1.1c-0.9-0.3-1.7-0.6-2.2-1
					c-0.6-0.4-1.1-0.9-1.6-1.5C32.2,12.7,31.4,11.1,29.4,10.7z"/>
				<path class="st4" d="M29.3,10.9c-1.6-0.3-3-0.1-5,1.1c-1.4,0.9-7.1,9-7.6,10.4c-0.6,1.5-0.5,2.8,0.6,4.4c0.6,1,1,1.7,1.7,2.6
					c0.6,0.7,1.1,1.3,1.6,1.7c0.1,0.2,0.3,0.2,0.4,0.3c0.8,0.5,1.6,1.9,3,1.9c2.1,0,3-0.2,4.1-0.6c1.1-0.5,1.9-1.9,2.9-2.3
					c0.1,0,0.1,0,0.1,0c0.9-0.2,1.8,0.1,2.9-0.2c0.2-0.1,0.4-0.1,0.7-0.2c1.2-0.5,2.5-1.6,4.3-2.1c2.5-0.7,2.9-3.6,2.9-6
					c0-1.1-0.5-2-1.2-2.8c-0.4-0.4-0.8-0.7-1.2-1.1c-0.6-0.4-1.6-0.8-2.6-1.1c-0.9-0.2-1.7-0.6-2.2-1c-0.6-0.4-1.1-0.9-1.6-1.5
					C32.1,13,31.3,11.3,29.3,10.9z"/>
				<path class="st5" d="M29.2,11c-1.6-0.3-2.9-0.1-4.8,1.2c-1.5,1-7,8.8-7.5,10.2c-0.6,1.5-0.4,2.8,0.6,4.2c0.6,1,0.9,1.7,1.6,2.5
					c0.6,0.7,1.1,1.2,1.6,1.7c0.1,0.2,0.3,0.2,0.4,0.3c0.8,0.6,1.6,1.9,3,1.9c2.2,0,3-0.2,4.1-0.6c1.1-0.5,1.9-1.9,2.9-2.3
					c0.1,0,0.1,0,0.1,0c0.9-0.2,1.8,0,2.9-0.2c0.2-0.1,0.4-0.1,0.7-0.2c1.2-0.5,2.5-1.5,4.2-2.1c2.4-0.7,2.9-3.6,2.9-5.8
					c0-1.1-0.5-1.9-1.2-2.8c-0.4-0.4-0.8-0.7-1.2-1.1c-0.6-0.4-1.6-0.7-2.6-1.1c-0.9-0.2-1.7-0.6-2.2-1c-0.6-0.4-1.1-0.9-1.5-1.5
					C32,13.2,31.3,11.5,29.2,11z"/>
				<path class="st6" d="M29.1,11.2c-1.5-0.3-2.9-0.1-4.8,1.2c-1.6,1.1-6.8,8.7-7.3,10c-0.6,1.5-0.4,2.6,0.6,4
					c0.6,0.9,0.9,1.6,1.6,2.3c0.6,0.7,1.1,1.1,1.6,1.7c0.1,0.2,0.3,0.2,0.4,0.4c0.8,0.6,1.6,1.9,2.9,1.9c2.2,0,3-0.2,4.1-0.7
					c1.1-0.6,1.9-1.9,2.9-2.2c0.1,0,0.1,0,0.1,0c0.9-0.2,1.8,0,2.9-0.2c0.2,0,0.4-0.1,0.7-0.2c1.2-0.4,2.5-1.5,4.2-2
					c2.3-0.7,2.8-3.4,2.7-5.7c0-1.1-0.4-1.9-1.2-2.8c-0.4-0.4-0.8-0.7-1.2-1.1c-0.6-0.4-1.6-0.7-2.6-1.1c-0.9-0.2-1.7-0.6-2.2-0.9
					c-0.6-0.4-1.1-0.9-1.5-1.5C31.8,13.5,31.2,11.7,29.1,11.2z"/>
				<path class="st7" d="M29,11.3c-1.4-0.3-2.8,0-4.7,1.2c-1.7,1.1-6.8,8.6-7.2,9.9c-0.5,1.4-0.3,2.5,0.6,3.9
					c0.6,0.9,0.9,1.5,1.6,2.3c0.6,0.7,1.1,1.1,1.6,1.6c0.1,0.2,0.2,0.2,0.4,0.4c0.8,0.6,1.6,1.9,2.9,1.9c2.2,0,3-0.2,4-0.8
					c1.1-0.6,1.9-1.8,2.9-2.1c0.1,0,0.1,0,0.1,0c0.9-0.2,1.7,0,2.9-0.2c0.2,0,0.4-0.1,0.7-0.2c1.2-0.4,2.5-1.5,4.1-1.9
					c2.2-0.7,2.7-3.3,2.7-5.4c0-1.1-0.4-1.9-1.2-2.8c-0.3-0.3-0.8-0.7-1.2-1c-0.6-0.4-1.7-0.7-2.6-1c-0.9-0.2-1.7-0.5-2.2-0.9
					c-0.6-0.4-1.1-0.9-1.5-1.5C31.7,13.6,31.1,11.8,29,11.3z"/>
				<path class="st8" d="M28.9,11.5c-1.4-0.3-2.8,0-4.6,1.2c-1.7,1.2-6.6,8.5-7.1,9.7c-0.4,1.4-0.3,2.4,0.6,3.7
					c0.6,0.8,0.9,1.5,1.5,2.1s1.1,1.1,1.6,1.6c0.1,0.2,0.2,0.2,0.4,0.4c0.8,0.6,1.5,1.9,2.9,1.9c2.2,0,3-0.3,4-0.8
					c1.1-0.6,1.9-1.7,2.9-2c0.1,0,0.1,0,0.1,0c0.9-0.2,1.7-0.1,2.8-0.2c0.2,0,0.4-0.1,0.7-0.2c1.2-0.3,2.4-1.4,4.1-1.9
					c2.1-0.7,2.6-3.2,2.6-5.3c0-1.1-0.4-1.9-1.2-2.8c-0.3-0.3-0.8-0.6-1.2-1c-0.6-0.3-1.7-0.6-2.6-0.9c-0.9-0.2-1.7-0.5-2.2-0.9
					c-0.6-0.4-1-0.9-1.5-1.5C31.5,13.9,31,12.1,28.9,11.5z"/>
				<path class="st9" d="M28.8,11.8c-1.4-0.3-2.7,0-4.5,1.3c-1.8,1.3-6.6,8.3-7,9.6c-0.4,1.3-0.2,2.3,0.6,3.6c0.5,0.7,0.9,1.4,1.4,2
					c0.6,0.6,1.1,1.1,1.6,1.6c0.1,0.2,0.2,0.2,0.4,0.4c0.7,0.7,1.5,2,2.9,2c2.2,0,3-0.3,4-0.9c1.1-0.6,1.9-1.6,2.8-1.9
					c0.1,0,0.1,0,0.1,0c0.9-0.2,1.7-0.1,2.7-0.2c0.2,0,0.4-0.1,0.7-0.1c1.2-0.3,2.4-1.3,4-1.9c2-0.7,2.5-3.1,2.5-5
					c0-1.1-0.4-1.9-1.2-2.8c-0.3-0.3-0.8-0.6-1.2-0.9c-0.6-0.3-1.7-0.6-2.6-0.9c-0.9-0.2-1.6-0.5-2.2-0.9c-0.6-0.4-1-0.9-1.5-1.5
					C31.4,14.1,30.9,12.2,28.8,11.8z"/>
				<path class="st10" d="M28.7,11.9c-1.3-0.3-2.7,0-4.4,1.3c-1.9,1.4-6.5,8.2-6.8,9.4c-0.4,1.2-0.2,2.3,0.6,3.3
					c0.5,0.7,0.8,1.3,1.4,1.9c0.6,0.6,1.1,1,1.6,1.5c0.1,0.2,0.2,0.3,0.4,0.4c0.7,0.7,1.5,2,2.8,2c2.3,0,3.1-0.3,4-1
					c1.1-0.6,1.8-1.6,2.8-1.9c0.1,0,0.1,0,0.1,0c0.9-0.2,1.7-0.1,2.7-0.2c0.2,0,0.4-0.1,0.6-0.1c1.2-0.2,2.4-1.2,4-1.9
					c1.9-0.7,2.5-3,2.4-4.9c0-1.1-0.3-1.9-1.2-2.8c-0.3-0.3-0.7-0.6-1.3-0.9c-0.7-0.3-1.7-0.6-2.6-0.8c-0.9-0.2-1.6-0.5-2.2-0.8
					c-0.6-0.4-1-0.9-1.5-1.5C31.3,14.3,30.8,12.5,28.7,11.9z"/>
				<path class="st11" d="M28.6,12.1c-1.2-0.3-2.6,0.1-4.3,1.3c-1.9,1.5-6.4,8.1-6.7,9.3c-0.3,1.2-0.2,2.1,0.6,3.2
					c0.5,0.6,0.8,1.2,1.4,1.8c0.6,0.6,1.1,1,1.6,1.5c0.1,0.2,0.2,0.3,0.4,0.4c0.7,0.8,1.4,2,2.8,2c2.3,0,3.1-0.4,4-1.1
					c1-0.7,1.8-1.5,2.8-1.8c0.1,0,0.1,0,0.1,0c0.9-0.2,1.7-0.1,2.7-0.2c0.2,0,0.4,0,0.6-0.1c1.2-0.2,2.4-1.1,3.9-1.8
					c1.7-0.7,2.4-2.8,2.4-4.6c0-1.1-0.3-1.9-1.2-2.8c-0.3-0.3-0.7-0.6-1.3-0.8c-0.7-0.3-1.7-0.6-2.6-0.7c-0.9-0.2-1.6-0.4-2.2-0.8
					c-0.6-0.4-1-0.9-1.5-1.5C31.2,14.5,30.7,12.6,28.6,12.1z"/>
				<path class="st12" d="M28.5,12.2c-1.2-0.4-2.6,0.1-4.2,1.4c-2,1.5-6.3,7.9-6.6,9.1c-0.3,1.1-0.1,2,0.6,3
					c0.4,0.6,0.7,1.1,1.3,1.6c0.6,0.6,1.2,0.9,1.6,1.5c0.1,0.2,0.2,0.3,0.4,0.5c0.7,0.8,1.4,2.1,2.8,2.1c2.3,0,3.1-0.4,4-1.1
					c1-0.7,1.8-1.5,2.7-1.7c0.1,0,0.1,0,0.1,0c0.9-0.2,1.7-0.2,2.7-0.2c0.2,0,0.4,0,0.6-0.1c1.2-0.2,2.4-1.1,3.8-1.7
					c1.7-0.7,2.3-2.8,2.3-4.5c0-1.1-0.2-1.9-1.1-2.8c-0.3-0.3-0.7-0.6-1.3-0.8c-0.7-0.3-1.7-0.6-2.6-0.7c-0.9-0.2-1.6-0.4-2.2-0.8
					c-0.6-0.4-1-0.9-1.5-1.5C31,14.7,30.7,12.9,28.5,12.2z"/>
				<path class="st13" d="M28.4,12.4c-1.2-0.4-2.5,0.1-4.2,1.4c-2.1,1.6-6.2,7.9-6.5,9c-0.2,1.1-0.1,1.9,0.6,2.8
					c0.4,0.6,0.7,1.1,1.2,1.5c0.7,0.6,1.2,0.9,1.6,1.5c0.1,0.2,0.2,0.3,0.4,0.5c0.7,0.9,1.4,2.1,2.7,2.1c2.4,0,3.1-0.5,3.9-1.1
					c1-0.8,1.8-1.4,2.7-1.6c0.1,0,0.1,0,0.1,0c0.9-0.2,1.7-0.2,2.6-0.1c0.2,0,0.4,0,0.6,0c1.2-0.2,2.4-1.1,3.8-1.7
					c1.6-0.6,2.2-2.6,2.2-4.2c0-1.1-0.2-1.9-1.1-2.8C39,19.4,38.5,19.1,38,19c-0.7-0.3-1.7-0.5-2.6-0.6c-0.9-0.2-1.6-0.4-2.2-0.7
					c-0.6-0.4-1-0.9-1.5-1.5C30.9,15,30.5,13,28.4,12.4z"/>
				<path class="st14" d="M28.3,12.6c-1.1-0.4-2.5,0.2-4,1.4c-2.2,1.7-6.1,7.7-6.3,8.8c-0.2,1.1,0,1.9,0.6,2.7
					c0.4,0.6,0.7,1,1.2,1.4c0.7,0.6,1.2,0.8,1.6,1.5c0.1,0.2,0.2,0.3,0.4,0.5c0.7,0.9,1.4,2.2,2.7,2.2c2.4,0,3.1-0.5,3.9-1.2
					c0.9-0.8,1.7-1.3,2.7-1.5c0.1,0,0.1,0,0.1,0c0.9-0.2,1.7-0.2,2.5-0.1c0.2,0,0.4,0,0.6,0c1.2-0.2,2.4-1,3.8-1.6
					c1.4-0.6,2.1-2.5,2.2-4c0-1.1-0.2-1.9-1.1-2.8c-0.3-0.2-0.7-0.5-1.3-0.7c-0.7-0.2-1.8-0.5-2.6-0.6c-0.9-0.2-1.6-0.4-2.2-0.7
					c-0.6-0.4-0.9-0.9-1.4-1.5C30.8,15.2,30.5,13.3,28.3,12.6z"/>
				<path class="st15" d="M28.2,12.7c-1.1-0.4-2.4,0.2-4,1.5c-2.2,1.9-6,7.6-6.2,8.7c-0.2,1,0,1.7,0.6,2.5c0.4,0.5,0.7,0.9,1.2,1.3
					c0.7,0.6,1.2,0.8,1.6,1.5c0.1,0.2,0.2,0.3,0.4,0.5c0.7,1,1.4,2.2,2.7,2.2c2.4,0,3.1-0.6,3.9-1.3c0.9-0.9,1.7-1.3,2.7-1.5
					c0.1,0,0.1,0,0.1,0c1-0.2,1.7-0.2,2.5-0.1c0.2,0,0.4,0,0.6,0c1.2-0.1,2.4-0.9,3.7-1.5c1.3-0.6,2-2.3,2-3.8
					c0-1.1-0.2-1.9-1.1-2.7c-0.2-0.2-0.7-0.5-1.3-0.6c-0.7-0.2-1.8-0.4-2.6-0.6c-0.9-0.3-1.6-0.6-2.1-0.9c-0.6-0.4-0.9-0.9-1.4-1.5
					C30.7,15.4,30.3,13.5,28.2,12.7z"/>
				<path class="st16" d="M28,12.9c-1.1-0.4-2.4,0.2-3.8,1.5c-2.3,1.9-5.9,7.4-6.1,8.5c-0.2,1,0.1,1.6,0.6,2.3
					c0.4,0.5,0.7,0.8,1.1,1.1c0.7,0.6,1.2,0.7,1.7,1.4c0.1,0.2,0.2,0.3,0.4,0.5c0.7,1,1.4,2.2,2.7,2.2c2.4,0,3.2-0.6,3.9-1.4
					c0.9-0.9,1.7-1.2,2.7-1.5c0.1,0,0.1,0,0.1,0c1-0.2,1.7-0.2,2.5-0.1c0.2,0,0.4,0.1,0.6,0c1.2-0.1,2.4-0.8,3.7-1.5
					c1.2-0.6,2-2.3,2-3.6c0-1.1-0.1-1.9-1.1-2.7c-0.2-0.2-0.7-0.5-1.3-0.6c-0.7-0.2-1.8-0.4-2.5-0.5c-0.9-0.1-1.6-0.3-2.2-0.7
					c-0.6-0.4-0.9-0.9-1.4-1.5C30.5,15.6,30.3,13.7,28,12.9z"/>
				<path class="st17" d="M28,13.1c-1-0.4-2.3,0.2-3.8,1.5c-2.4,2-5.8,7.4-6,8.3c-0.1,0.9,0.1,1.5,0.6,2.2c0.4,0.4,0.7,0.7,1.1,1.1
					c0.7,0.5,1.2,0.6,1.7,1.4c0.1,0.2,0.2,0.3,0.4,0.5c0.7,1.1,1.4,2.3,2.6,2.3c2.4,0,3.2-0.6,3.8-1.4c0.9-1,1.7-1.1,2.6-1.4
					c0.1,0,0.1,0,0.1,0c1-0.2,1.7-0.2,2.5-0.1c0.2,0,0.4,0.1,0.6,0.1c1.2,0,2.3-0.7,3.6-1.5c1.1-0.6,1.9-2.1,1.9-3.4
					c0-1.1-0.1-1.8-1.1-2.7c-0.2-0.2-0.7-0.5-1.3-0.6c-0.8-0.2-1.8-0.4-2.5-0.4c-0.9-0.1-1.6-0.3-2.2-0.6c-0.5-0.4-0.9-0.9-1.4-1.5
					C30.4,15.9,30.2,13.9,28,13.1z"/>
				<path class="st18" d="M27.9,13.3c-1-0.4-2.3,0.2-3.7,1.5c-2.4,2.1-5.7,7.2-5.8,8.2c-0.1,0.8,0.1,1.5,0.6,1.9
					c0.3,0.4,0.6,0.6,1,0.9c0.7,0.5,1.2,0.6,1.7,1.4c0.1,0.2,0.2,0.3,0.3,0.6c0.7,1.1,1.3,2.3,2.6,2.3c2.5,0,3.2-0.7,3.8-1.5
					c0.9-1,1.7-1.1,2.6-1.3c0.1,0,0.1,0,0.1,0c1-0.2,1.7-0.2,2.4-0.1c0.2,0.1,0.4,0.1,0.6,0.1c1.2,0.1,2.3-0.6,3.6-1.4
					c1-0.6,1.8-2,1.9-3.2c0-1.1-0.1-1.8-1.1-2.7c-0.2-0.2-0.7-0.4-1.3-0.6c-0.8-0.2-1.9-0.3-2.5-0.4c-1-0.1-1.6-0.2-2.1-0.6
					c-0.5-0.4-0.9-0.9-1.4-1.4C30.3,16.1,30.1,14.1,27.9,13.3z"/>
				<path class="st19" d="M27.7,13.5c-0.9-0.4-2.2,0.3-3.6,1.5c-2.5,2.3-5.7,7-5.7,8c-0.1,0.8,0.2,1.3,0.6,1.8
					c0.3,0.3,0.6,0.6,1,0.8c0.7,0.5,1.2,0.6,1.7,1.3c0.1,0.2,0.2,0.3,0.3,0.6c0.7,1.1,1.3,2.3,2.6,2.3c2.5,0,3.2-0.7,3.8-1.5
					c0.9-1.1,1.7-1,2.6-1.2c0.1,0,0.1,0,0.1,0c1-0.2,1.7-0.2,2.4-0.1c0.2,0.1,0.4,0.1,0.6,0.1c1.2,0.1,2.3-0.6,3.5-1.4
					c0.9-0.6,1.7-1.9,1.7-3c0-1.1-0.1-1.8-1.1-2.7c-0.2-0.2-0.7-0.4-1.3-0.6c-0.8-0.2-1.9-0.3-2.5-0.3c-1,0-1.6-0.2-2.1-0.6
					c-0.5-0.4-0.9-0.9-1.4-1.4C30.1,16.3,30,14.3,27.7,13.5z"/>
				<path class="st20" d="M27.7,13.6c-0.9-0.4-2.2,0.3-3.5,1.5c-2.6,2.3-5.5,7-5.6,7.9c0,0.7,0.2,1.2,0.7,1.6
					c0.3,0.2,0.6,0.5,0.9,0.6c0.7,0.4,1.2,0.6,1.7,1.3c0.1,0.2,0.2,0.4,0.3,0.6c0.7,1.1,1.3,2.3,2.5,2.3c2.5,0,3.2-0.8,3.8-1.6
					c0.9-1.1,1.7-1,2.5-1.1c0.1,0,0.1,0,0.1,0c1-0.2,1.6-0.2,2.4-0.1c0.2,0.1,0.4,0.1,0.6,0.1c1.2,0.2,2.3-0.5,3.5-1.3
					c0.8-0.6,1.7-1.8,1.7-2.8c0-1.1,0-1.8-1-2.7c-0.2-0.2-0.7-0.4-1.4-0.5c-0.8-0.2-1.9-0.2-2.5-0.2c-1,0-1.6-0.2-2.1-0.6
					c-0.5-0.4-0.9-0.9-1.4-1.4C30,16.5,29.9,14.5,27.7,13.6z"/>
				<path class="st21" d="M37.5,25.4c0.7-0.5,1.6-1.7,1.6-2.6c0.1-1.1,0-1.8-1-2.7c-0.6-0.5-2.7-0.7-3.9-0.6c-2,0.1-2.5-0.9-3.5-1.9
					c-0.8-0.8-0.8-2.8-3.1-3.8c-2.6-1.1-8.9,7.9-8.9,9.3c0,1.1,0.8,1.7,1.6,2c0.7,0.4,1.2,0.5,1.7,1.3c0.8,1.4,1.4,2.9,2.9,2.9
					c2.5,0,3.2-0.8,3.8-1.6c0.8-1.1,1.7-0.9,2.5-1.1c1.1-0.2,1.7-0.3,2.4-0.1C34.8,27.1,36.2,26.4,37.5,25.4z"/>
			</g>
			<path class="st24" d="M38.7,22c0-1.3-0.8-2.4-1.9-2.4c-0.3,0-0.6,0.1-0.9,0.3c-0.4-0.3-0.9-0.6-1.4-0.6c-0.6,0-1.2,0.2-1.6,0.6
				c-0.6-1.5-1.7-2.4-3-2.4l0,0c-0.2-3-2.2-5.4-4.5-5.4c-2.1,0-3.9,1.9-4.4,4.5c-0.1,0-0.2,0-0.4,0c-1.7,0-3.2,1.9-3.2,4.1
				s1.4,4.1,3.2,4.1c0.3,0,0.6-0.1,0.9-0.2c0.4,2.3,2,4,3.8,4c1.5,0,2.8-1.1,3.5-2.8c0.4,0.2,0.7,0.2,1.2,0.2c1,0,1.9-0.6,2.5-1.4
				c0.5,0.8,1.3,1.4,2.2,1.4c1.1,0,2-0.8,2.4-2C38,24.4,38.7,23.3,38.7,22z"/>
			<path class="st25" d="M38.9,22.1c0-1.3-0.8-2.4-1.9-2.4c-0.3,0-0.6,0.1-0.9,0.3c-0.4-0.3-0.9-0.6-1.4-0.6c-0.6,0-1.2,0.2-1.6,0.6
				c-0.6-1.5-1.7-2.4-3-2.4l0,0c-0.2-3-2.2-5.4-4.5-5.4c-2.1,0-3.9,1.9-4.4,4.5c-0.1,0-0.2,0-0.4,0c-1.7,0-3.2,1.9-3.2,4.1
				S19,25,20.7,25c0.3,0,0.6-0.1,0.9-0.2c0.4,2.3,2,4,3.8,4c1.5,0,2.8-1.1,3.5-2.8c0.4,0.2,0.7,0.2,1.2,0.2c1,0,1.9-0.6,2.5-1.4
				c0.5,0.8,1.3,1.4,2.2,1.4c1.1,0,2-0.8,2.4-2C38,24.5,38.9,23.4,38.9,22.1z"/>
		</g>
		<g>
			<g>
				<path class="st0" d="M31,22.8c1-1.2,1.3-3,1.2-4.9c0-1.1-0.2-2.1-1-3.6c-0.7-1.3-1.9-1.1-3-2.9c-1-1.5-1.9-1.5-4.7-2.3
					c-2-0.6-3.7,1.5-4.7,4.5c-0.3,1-4.3,3.1-4.7,4.1c-0.5,1.2-1.2,2.5-0.4,3.8c0.5,0.8,0.7,1.4,1.3,2.1c0.5,0.7,0.9,1.2,1.4,1.5
					c0.6,0.2,1.2,0.6,2.1,1.2c1.1,0.6,2.2,1,3.1,1c1.4,0,2.7-0.2,3.2-0.3c0.7-0.2,2.3-1.5,3.4-2C28.9,24.5,30,24,31,22.8z"/>
				<path class="st1" d="M23.5,9.3c-2-0.6-3.7,1.5-4.7,4.4c-0.4,1.1-4.3,3.1-4.7,4.1c-0.5,1.2-1.2,2.4-0.4,3.7
					c0.5,0.7,0.7,1.4,1.2,2c0.5,0.7,0.9,1.2,1.4,1.4c0.1,0.1,0.2,0.1,0.3,0.2c0.5,0.2,1.1,0.6,1.7,1.1c0.3,0.2,0.6,0.3,0.9,0.4
					c0.8,0.3,1.6,0.5,2.2,0.5c1.2,0.1,2.3-0.1,2.9-0.2c0.1,0,0.2,0,0.2-0.1c0.5-0.1,1.4-0.8,2.3-1.4c0.4-0.2,0.7-0.5,1.1-0.7
					c0.4-0.2,0.9-0.5,1.5-0.8c0.5-0.3,1-0.7,1.4-1.3c1-1.2,1.3-2.9,1.2-4.7c0-0.5-0.1-1-0.2-1.5c-0.2-0.6-0.5-1.3-0.9-2.1
					c-0.6-1.2-1.8-1.1-2.9-2.8C27,10.1,26.2,10.1,23.5,9.3z"/>
				<path class="st2" d="M23.5,9.4c-1.9-0.6-3.6,1.5-4.8,4.4c-0.5,1.1-4.2,3.2-4.7,4.1c-0.5,1.1-1.1,2.3-0.4,3.6
					c0.4,0.7,0.7,1.3,1.2,1.9c0.5,0.6,0.9,1.1,1.4,1.4c0.1,0.1,0.2,0.1,0.3,0.2c0.5,0.2,1,0.6,1.7,1.1c0.3,0.2,0.6,0.3,0.9,0.4
					c0.8,0.3,1.6,0.5,2.2,0.5c1.1,0.1,2.2,0,2.9-0.2c0.1,0,0.2,0,0.2-0.1c0.5-0.1,1.4-0.7,2.3-1.4c0.4-0.2,0.7-0.6,1.1-0.7
					c0.4-0.2,0.9-0.5,1.4-0.8c0.5-0.3,0.9-0.7,1.4-1.2c1-1.1,1.3-2.8,1.2-4.6c0-0.5-0.1-1-0.3-1.5c-0.2-0.6-0.6-1.3-1-2.1
					c-0.6-1.2-1.7-1.1-2.8-2.8C26.9,10.1,26.1,10.1,23.5,9.4z"/>
				<path class="st3" d="M23.5,9.5c-1.9-0.6-3.5,1.5-4.8,4.3c-0.6,1.1-4.2,3.2-4.6,4.2c-0.4,1.1-1.1,2.3-0.3,3.4
					c0.4,0.7,0.7,1.2,1.2,1.9s0.9,1.1,1.4,1.3c0.1,0.1,0.2,0.1,0.3,0.2c0.5,0.3,1,0.6,1.7,1.1c0.3,0.2,0.6,0.3,0.9,0.4
					c0.8,0.3,1.5,0.4,2.2,0.5c1.1,0.1,2.2,0,2.9-0.1c0.1,0,0.2,0,0.2-0.1c0.5-0.1,1.4-0.7,2.2-1.4c0.4-0.2,0.7-0.6,1-0.7
					c0.4-0.2,0.9-0.6,1.4-0.8c0.5-0.3,0.9-0.7,1.4-1.2c1-1.1,1.3-2.8,1.2-4.5c-0.1-0.5-0.2-1-0.4-1.5c-0.2-0.7-0.6-1.3-1.1-2.2
					c-0.6-1.1-1.6-1.1-2.7-2.7C26.7,10.2,25.9,10.2,23.5,9.5z"/>
				<path class="st4" d="M23.5,9.5c-1.8-0.6-3.5,1.6-4.8,4.2c-0.6,1.2-4.2,3.2-4.5,4.2c-0.4,1.1-1,2.2-0.2,3.3
					c0.4,0.6,0.7,1.2,1.2,1.8c0.5,0.6,0.9,1.1,1.4,1.2c0.1,0.1,0.2,0.1,0.3,0.2c0.5,0.3,1,0.6,1.7,1.1c0.2,0.2,0.6,0.2,0.9,0.4
					c0.8,0.3,1.5,0.4,2.1,0.5c1.1,0.1,2.1,0.1,2.9,0c0.1,0,0.2,0,0.2-0.1c0.5-0.1,1.4-0.7,2.2-1.4c0.3-0.2,0.7-0.6,0.9-0.8
					c0.4-0.2,0.9-0.6,1.4-0.8c0.5-0.2,0.9-0.6,1.4-1.1c1-1.1,1.3-2.8,1.2-4.4c-0.1-0.5-0.2-1-0.4-1.5c-0.3-0.7-0.7-1.3-1.1-2.2
					c-0.6-1.1-1.6-1.1-2.5-2.6C26.6,10.2,25.9,10.3,23.5,9.5z"/>
				<path class="st5" d="M23.5,9.6c-1.8-0.6-3.4,1.6-4.8,4.2c-0.7,1.3-4.2,3.3-4.5,4.2c-0.4,1.1-0.9,2.1-0.2,3.2
					c0.4,0.6,0.7,1.1,1.1,1.7c0.5,0.6,0.9,1,1.4,1.2c0.1,0.1,0.2,0.1,0.3,0.2c0.5,0.3,1,0.7,1.7,1.1c0.2,0.2,0.6,0.2,0.9,0.4
					c0.8,0.3,1.4,0.3,2.1,0.4c1.1,0.2,2,0.2,2.8,0.1c0.1,0,0.2,0,0.2-0.1c0.6-0.1,1.4-0.7,2.2-1.4c0.3-0.3,0.6-0.6,0.9-0.8
					c0.4-0.3,0.9-0.6,1.4-0.9c0.5-0.2,0.9-0.6,1.4-1.1c1-1,1.3-2.7,1.1-4.2c-0.1-0.5-0.2-1-0.5-1.5c-0.4-0.7-0.7-1.4-1.2-2.2
					c-0.5-1.1-1.5-1.1-2.4-2.4C26.5,10.3,25.7,10.3,23.5,9.6z"/>
				<path class="st6" d="M23.5,9.6c-1.7-0.5-3.4,1.6-4.8,4.1c-0.7,1.3-4.2,3.4-4.5,4.3c-0.4,1-0.8,2-0.2,3c0.4,0.6,0.6,1.1,1.1,1.6
					c0.5,0.6,0.9,0.9,1.4,1.1c0.1,0.1,0.2,0.1,0.3,0.2c0.4,0.3,0.9,0.7,1.6,1.1c0.2,0.2,0.6,0.2,0.8,0.4c0.7,0.3,1.4,0.3,2.1,0.4
					c1.1,0.2,2,0.2,2.8,0.2c0.1,0,0.2,0,0.2-0.1c0.6-0.1,1.4-0.7,2.2-1.4c0.3-0.3,0.6-0.6,0.9-0.8c0.4-0.3,0.8-0.6,1.4-0.9
					c0.5-0.2,0.9-0.6,1.4-1.1c1-1,1.3-2.6,1.1-4c-0.1-0.5-0.3-1-0.6-1.5c-0.4-0.8-0.8-1.4-1.2-2.3c-0.5-1.1-1.4-1.1-2.3-2.3
					C26.4,10.4,25.7,10.4,23.5,9.6z"/>
				<path class="st7" d="M23.5,9.7c-1.7-0.6-3.4,1.5-4.8,4c-0.8,1.4-4.1,3.4-4.4,4.3c-0.4,1-0.7,1.9-0.1,2.9
					c0.4,0.6,0.6,1.1,1.1,1.5c0.5,0.6,0.9,0.9,1.4,1.1c0.1,0.1,0.2,0.1,0.3,0.2c0.4,0.4,0.9,0.7,1.6,1.1c0.2,0.2,0.6,0.2,0.8,0.3
					c0.7,0.2,1.4,0.3,2,0.4c1.1,0.2,2,0.3,2.7,0.2c0.1,0,0.2,0,0.2,0c0.6-0.1,1.4-0.6,2.1-1.4c0.3-0.3,0.6-0.6,0.9-0.8
					c0.4-0.3,0.8-0.6,1.4-0.9c0.5-0.2,0.9-0.6,1.4-1.1c1-0.9,1.3-2.5,1.1-4c-0.1-0.5-0.4-1-0.6-1.5c-0.4-0.8-0.9-1.4-1.3-2.3
					c-0.4-1-1.3-1.1-2.2-2.3C26.2,10.5,25.6,10.5,23.5,9.7z"/>
				<path class="st8" d="M23.5,9.8c-1.6-0.6-3.4,1.5-4.8,4c-0.9,1.5-4.1,3.5-4.3,4.3c-0.3,1-0.7,1.9-0.1,2.8c0.4,0.6,0.6,1,1,1.5
					c0.4,0.6,0.9,0.8,1.4,1.1c0.1,0.1,0.2,0.1,0.3,0.2c0.4,0.4,0.9,0.7,1.6,1.1c0.2,0.2,0.6,0.2,0.8,0.3c0.7,0.2,1.4,0.2,2,0.4
					c1,0.2,1.9,0.3,2.7,0.2c0.1,0,0.2,0,0.2,0c0.6-0.1,1.4-0.6,2.1-1.4c0.3-0.3,0.6-0.6,0.8-0.9c0.4-0.3,0.7-0.6,1.4-0.9
					c0.5-0.2,0.9-0.6,1.4-1.1c1-0.9,1.3-2.4,1.1-3.8c-0.1-0.5-0.4-1-0.7-1.5c-0.5-0.8-0.9-1.4-1.4-2.3c-0.4-1-1.2-1-2.1-2.2
					C26.1,10.5,25.4,10.5,23.5,9.8z"/>
				<path class="st9" d="M23.5,9.9c-1.6-0.5-3.4,1.5-4.8,4c-1,1.5-4,3.6-4.3,4.4c-0.3,0.9-0.6,1.8-0.1,2.6c0.4,0.5,0.6,0.9,1,1.4
					c0.4,0.5,0.9,0.7,1.4,1c0.1,0.1,0.2,0.1,0.3,0.2c0.4,0.4,0.9,0.7,1.6,1.1c0.2,0.2,0.5,0.2,0.8,0.3c0.7,0.2,1.3,0.2,2,0.4
					c1,0.2,1.9,0.4,2.7,0.3c0.1,0,0.2,0,0.2,0c0.6-0.1,1.4-0.6,2.1-1.4c0.3-0.3,0.6-0.6,0.8-0.9c0.3-0.3,0.7-0.6,1.3-0.9
					c0.5-0.2,0.9-0.6,1.4-1c1-0.8,1.3-2.3,1.1-3.7c-0.1-0.5-0.4-1-0.7-1.5c-0.5-0.9-1-1.4-1.4-2.3c-0.4-0.9-1.2-1-2-2.1
					C26,10.6,25.4,10.5,23.5,9.9z"/>
				<path class="st10" d="M23.5,10c-1.5-0.5-3.3,1.5-4.9,3.9c-1.1,1.5-4,3.6-4.3,4.4c-0.2,0.9-0.6,1.7,0,2.5
					c0.4,0.5,0.6,0.9,0.9,1.3c0.4,0.5,0.9,0.7,1.4,0.9c0.1,0.1,0.2,0.1,0.3,0.2c0.4,0.4,0.9,0.8,1.5,1.1c0.2,0.2,0.5,0.2,0.8,0.3
					c0.7,0.2,1.3,0.2,2,0.3c1,0.2,1.8,0.5,2.6,0.4c0.1,0,0.2,0,0.2,0c0.6-0.1,1.4-0.6,2-1.4c0.2-0.3,0.5-0.6,0.7-0.9
					c0.3-0.3,0.7-0.6,1.3-0.9c0.5-0.2,0.9-0.6,1.4-1c1-0.7,1.3-2.3,1.1-3.6c-0.1-0.5-0.5-1-0.8-1.5c-0.6-0.9-1.1-1.4-1.5-2.3
					c-0.4-0.9-1.1-1-1.9-2C25.9,10.6,25.3,10.5,23.5,10z"/>
				<path class="st11" d="M23.5,10.1c-1.4-0.5-3.3,1.5-4.9,3.8c-1.1,1.6-4,3.6-4.2,4.4c-0.2,0.8-0.5,1.6,0.1,2.3
					c0.3,0.5,0.6,0.8,0.9,1.2c0.4,0.5,0.9,0.6,1.4,0.9c0.1,0.1,0.2,0.1,0.3,0.2c0.4,0.5,0.9,0.8,1.5,1.1c0.2,0.1,0.5,0.2,0.8,0.3
					c0.7,0.2,1.3,0.2,2,0.3c0.9,0.2,1.7,0.6,2.6,0.5c0.1,0,0.2,0,0.2,0c0.6-0.1,1.4-0.6,2-1.4c0.2-0.3,0.5-0.6,0.7-1
					c0.3-0.3,0.7-0.6,1.3-0.9c0.5-0.2,0.9-0.6,1.4-0.9c1-0.7,1.3-2.2,1-3.4c-0.1-0.5-0.5-1-0.9-1.5c-0.6-0.9-1.2-1.5-1.6-2.3
					c-0.4-0.8-1.1-1-1.7-1.9C25.7,10.7,25.1,10.6,23.5,10.1z"/>
				<path class="st12" d="M23.5,10.1c-1.4-0.5-3.2,1.5-4.9,3.8c-1.2,1.6-4,3.7-4.2,4.5c-0.2,0.8-0.4,1.5,0.1,2.3
					c0.3,0.4,0.6,0.7,0.9,1.1c0.4,0.5,0.9,0.6,1.4,0.8c0.1,0.1,0.2,0.1,0.3,0.2c0.4,0.5,0.9,0.8,1.4,1.1c0.2,0.1,0.5,0.2,0.8,0.3
					c0.7,0.2,1.2,0.1,2,0.3c0.9,0.2,1.7,0.6,2.5,0.6c0.1,0,0.2,0,0.2,0c0.6-0.1,1.4-0.6,2-1.4c0.2-0.3,0.4-0.7,0.7-1
					c0.3-0.4,0.7-0.6,1.2-0.9c0.5-0.2,0.9-0.6,1.4-0.9c1-0.6,1.3-2.1,1-3.3c-0.1-0.5-0.6-1-1-1.5c-0.6-0.9-1.2-1.5-1.6-2.4
					c-0.3-0.8-0.9-1-1.6-1.9C25.6,10.8,25.1,10.7,23.5,10.1z"/>
				<path class="st13" d="M23.5,10.2c-1.3-0.5-3.2,1.5-5,3.7c-1.3,1.7-4,3.7-4.1,4.5c-0.2,0.7-0.4,1.5,0.1,2.1
					c0.3,0.4,0.5,0.7,0.9,1.1c0.4,0.4,0.9,0.6,1.4,0.7c0.1,0.1,0.2,0.1,0.2,0.2c0.4,0.5,0.9,0.8,1.4,1.1c0.2,0.1,0.5,0.2,0.8,0.2
					c0.7,0.2,1.2,0.1,1.9,0.3c0.9,0.2,1.6,0.6,2.5,0.6c0.1,0,0.2,0,0.2,0c0.6-0.1,1.4-0.6,2-1.4c0.2-0.3,0.4-0.7,0.7-1
					c0.2-0.4,0.6-0.7,1.2-0.9c0.5-0.2,0.9-0.6,1.4-0.8c1-0.6,1.3-2.1,1-3.2c-0.1-0.5-0.6-1-1.1-1.5c-0.7-1-1.3-1.5-1.7-2.4
					c-0.3-0.7-0.9-0.9-1.5-1.8C25.5,10.9,24.9,10.7,23.5,10.2z"/>
				<path class="st14" d="M23.5,10.3c-1.2-0.5-3.2,1.5-5,3.6c-1.4,1.7-3.9,3.8-4.1,4.5c-0.2,0.7-0.2,1.4,0.2,1.9
					c0.3,0.4,0.5,0.6,0.8,1c0.4,0.4,1,0.5,1.4,0.7c0.1,0.1,0.2,0.1,0.2,0.2c0.4,0.5,0.8,0.8,1.4,1.1c0.2,0.1,0.5,0.2,0.8,0.2
					c0.7,0.2,1.2,0,1.9,0.2c0.9,0.3,1.6,0.7,2.5,0.6c0.1,0,0.1,0,0.2,0c0.6-0.1,1.4-0.6,1.9-1.4c0.2-0.3,0.4-0.7,0.6-1.1
					c0.2-0.4,0.6-0.7,1.2-0.9c0.5-0.2,0.9-0.6,1.4-0.8c1-0.6,1.3-2,0.9-3.1c-0.2-0.5-0.6-1-1.1-1.5c-0.7-1-1.4-1.5-1.7-2.4
					c-0.2-0.7-0.8-0.9-1.4-1.7C25.4,10.9,24.8,10.8,23.5,10.3z"/>
				<path class="st15" d="M23.6,10.4c-1.2-0.5-3.2,1.5-5,3.6c-1.4,1.8-3.9,3.9-4,4.5c-0.1,0.7-0.2,1.3,0.2,1.9
					c0.2,0.3,0.5,0.6,0.7,0.9c0.4,0.4,1,0.4,1.4,0.6c0.1,0.1,0.2,0.2,0.2,0.2c0.4,0.6,0.8,0.9,1.4,1.1c0.2,0.1,0.5,0.2,0.7,0.2
					c0.7,0.2,1.2,0,1.9,0.2c0.9,0.3,1.5,0.8,2.5,0.7c0.1,0,0.1,0,0.2,0c0.6-0.1,1.4-0.6,1.9-1.4c0.2-0.3,0.4-0.7,0.6-1.1
					c0.2-0.4,0.6-0.7,1.2-0.9c0.6-0.2,0.9-0.5,1.4-0.7c1-0.5,1.3-1.9,0.9-2.9c-0.2-0.5-0.7-1-1.2-1.5c-0.8-1-1.4-1.5-1.8-2.5
					c-0.2-0.6-0.7-0.9-1.2-1.6C25.3,10.9,24.8,10.8,23.6,10.4z"/>
				<path class="st16" d="M23.6,10.4c-1.2-0.5-3.2,1.5-5,3.6c-1.6,1.8-3.8,3.9-4,4.5c-0.1,0.6-0.1,1.2,0.2,1.7
					c0.2,0.3,0.4,0.6,0.7,0.8c0.4,0.3,1,0.4,1.4,0.6c0.1,0.1,0.2,0.2,0.2,0.2c0.4,0.6,0.8,0.9,1.4,1.1c0.2,0.1,0.5,0.2,0.7,0.2
					c0.7,0.2,1.1-0.1,1.9,0.2c0.9,0.3,1.4,0.9,2.4,0.8c0.1,0,0.1,0,0.2,0c0.6-0.1,1.4-0.6,1.9-1.4c0.2-0.3,0.4-0.7,0.6-1.1
					c0.2-0.4,0.6-0.7,1.2-0.9c0.6-0.2,0.9-0.5,1.4-0.7c1-0.5,1.2-1.9,0.9-2.8c-0.2-0.5-0.7-1-1.2-1.6c-0.8-1.1-1.5-1.5-1.9-2.5
					c-0.2-0.6-0.6-0.9-1.1-1.5C25.1,11,24.6,10.9,23.6,10.4z"/>
				<path class="st17" d="M23.6,10.5c-1.1-0.5-3.2,1.4-5,3.5c-1.6,1.9-3.8,4-3.9,4.5c-0.1,0.6-0.1,1.1,0.3,1.5
					c0.2,0.2,0.4,0.5,0.7,0.7c0.4,0.3,1,0.3,1.4,0.6c0.1,0.1,0.2,0.2,0.2,0.2c0.4,0.6,0.8,0.9,1.3,1.1c0.2,0.1,0.5,0.2,0.7,0.2
					c0.7,0.2,1.1-0.1,1.9,0.2c0.9,0.3,1.4,0.9,2.4,0.9c0.1,0,0.1,0,0.2,0c0.6-0.1,1.4-0.5,1.9-1.4c0.2-0.4,0.3-0.7,0.5-1.1
					c0.2-0.4,0.6-0.7,1.2-0.9c0.6-0.2,0.9-0.5,1.4-0.6c1-0.4,1.2-1.8,0.9-2.7c-0.2-0.5-0.7-1-1.3-1.6c-0.9-1.1-1.6-1.5-1.9-2.5
					c-0.2-0.6-0.6-0.8-1.1-1.5C25,11.1,24.5,10.9,23.6,10.5z"/>
				<path class="st18" d="M23.6,10.5c-1.1-0.5-3.1,1.4-5,3.4c-1.7,1.9-3.8,4-3.9,4.6c-0.1,0.6,0,1.1,0.4,1.5
					c0.2,0.2,0.4,0.4,0.7,0.6c0.4,0.3,1,0.3,1.4,0.5c0.1,0.1,0.2,0.2,0.2,0.2c0.4,0.6,0.7,0.9,1.3,1.1c0.2,0.1,0.5,0.2,0.7,0.2
					c0.7,0.2,1.1-0.2,1.9,0.2c0.8,0.3,1.4,1,2.4,1c0.1,0,0.1,0,0.2,0c0.7-0.1,1.4-0.5,1.9-1.4c0.2-0.4,0.3-0.8,0.5-1.1
					c0.2-0.4,0.6-0.8,1.2-0.9c0.6-0.1,0.9-0.5,1.4-0.6c1-0.4,1.2-1.7,0.9-2.5c-0.2-0.5-0.8-1-1.4-1.6c-0.9-1.1-1.7-1.5-2-2.6
					c-0.2-0.6-0.5-0.8-0.9-1.4C24.9,11.2,24.4,10.9,23.6,10.5z"/>
				<path class="st19" d="M23.6,10.6c-1-0.5-3.1,1.3-5,3.4c-1.8,1.9-3.8,4-3.8,4.6c-0.1,0.6,0.1,1,0.4,1.3c0.2,0.2,0.4,0.4,0.6,0.5
					c0.4,0.2,1,0.2,1.4,0.5c0.1,0.1,0.2,0.2,0.2,0.2c0.4,0.6,0.7,0.9,1.2,1.1c0.2,0.1,0.4,0.2,0.7,0.2c0.7,0.2,1.1-0.2,1.8,0.2
					c0.8,0.3,1.3,1.1,2.4,1.1c0.1,0,0.1,0,0.2,0c0.7-0.1,1.4-0.5,1.8-1.4c0.2-0.4,0.3-0.8,0.4-1.1c0.2-0.4,0.5-0.8,1.1-0.9
					c0.6-0.1,0.9-0.5,1.4-0.6c1-0.3,1.2-1.6,0.9-2.4c-0.2-0.5-0.9-1-1.4-1.6c-0.9-1.1-1.7-1.5-2-2.6c-0.1-0.5-0.4-0.8-0.8-1.3
					C24.8,11.3,24.3,11,23.6,10.6z"/>
				<path class="st20" d="M23.6,10.7c-0.9-0.5-3.1,1.3-5,3.3c-1.9,1.9-3.8,4.1-3.8,4.6c0,0.5,0.1,0.9,0.4,1.1
					c0.2,0.2,0.4,0.3,0.6,0.4c0.4,0.2,1,0.2,1.4,0.4c0.1,0.1,0.2,0.2,0.2,0.2c0.4,0.6,0.7,1,1.2,1.1c0.2,0.1,0.4,0.2,0.7,0.2
					c0.7,0.2,1-0.2,1.8,0.2c0.8,0.4,1.2,1.1,2.3,1.1c0.1,0,0.1,0,0.2,0c0.7-0.1,1.4-0.5,1.8-1.4c0.2-0.4,0.2-0.8,0.4-1.2
					c0.2-0.5,0.5-0.8,1.1-0.9c0.6-0.1,0.9-0.4,1.4-0.6c1-0.2,1.2-1.5,0.8-2.3c-0.2-0.5-0.9-1-1.5-1.6c-1-1.1-1.8-1.5-2.1-2.6
					c-0.1-0.5-0.4-0.8-0.7-1.2C24.6,11.3,24.3,11,23.6,10.7z"/>
				<path class="st21" d="M26.9,19.8c0.6-0.1,0.9-0.4,1.4-0.6c1-0.2,1.2-1.5,0.8-2.1c-0.2-0.5-0.9-1-1.6-1.6
					c-1.1-1.1-1.9-1.5-2.2-2.7c-0.2-0.8-0.7-1.5-1.8-2c-1.7-1-8.8,7-8.8,7.9c0,0.8,0.6,1.1,1.1,1.4c0.5,0.2,1.3,0.1,1.6,0.6
					c0.6,1,1,1.1,1.9,1.3c0.7,0.2,1-0.2,1.8,0.2c0.7,0.4,1.2,1.1,2.3,1.1c0.7,0,1.6-0.4,2-1.4C25.7,21.1,25.7,19.9,26.9,19.8z"/>
			</g>
			<path class="st24" d="M28,16.7c-0.2-1.4-1.2-2.2-2.3-1.9c-0.1,0-0.1,0-0.1,0.1c0-0.4,0-0.8-0.1-1.2c-0.4-2.7-2.4-4.4-4.5-3.7
				c-1.7,0.5-2.8,2.3-3,4.4c-0.4,0.2-0.7,0.6-1,1c-0.4-0.2-0.8-0.3-1.2-0.2c-1.1,0.3-1.7,1.6-1.5,3c0.2,1.4,1.2,2.2,2.3,1.9
				c0.1,0,0.1,0,0.2-0.1c0.6,1.3,1.9,2,3.1,1.7c0.3-0.1,0.6-0.2,0.8-0.4c0.4,1.5,1.7,2.4,2.9,2.1c1.3-0.3,2.1-1.9,2-3.6
				c0.3,0.1,0.6,0.1,0.9,0c0.5-0.2,0.9-0.5,1.1-1c0.2,0.2,0.4,0.2,0.7,0.2c0.4-0.2,0.7-0.7,0.7-1.3C29,16.9,28.5,16.6,28,16.7z"/>
		</g>
	</g>
</g>
<g id="Ebene_2_00000028297265713932681540000009440157879337233566_">
	<g class="st26">
		<g id="Ebene_2_00000078022075396992531930000007206352953557687453_">
			<g id="__4">
				<g>
					<g>
						<g>
							<path class="st0" d="M41.6,33.6c2.7-3.6,2.6-6.4,1.7-9.6c-0.6-2.3-1.1-3.9-2.2-6.1c-1.1-1.9-3.2-4.4-6.5-5
								c-3.2-0.6-10.7,6.2-13.3,7c-2.7,1.2-6.2,3.7-9.8,5.7c-1.8,1-4.5,4-4.7,5.6C6.8,33.9,7.6,35,8.4,36c0.7,1,2.7,2.8,3.8,3.6
								c1.1,0.6,3.7,1.7,4.7,1.7c2,0.3,2.7-0.5,4.4-0.3c2,0.3,2.9,0.5,3.7,0.5c0.9,0,1.6-0.3,2-0.3c0.6,0,1.8,0,2.6-0.2
								c2.2-0.6,2.6-0.3,3.7-0.8C36,39.4,39.3,36.7,41.6,33.6L41.6,33.6z"/>
							<path class="st27" d="M41.3,33.6c2.7-3.4,2.6-6.2,1.7-9.2c-0.6-2.2-1.1-3.7-2.2-5.9c-1.1-1.9-3.1-4.4-6.3-5
								c-3.1-0.6-10.5,6.1-13,6.9c-2.7,1-6.1,3.6-9.6,5.4c-1.8,0.8-4.7,3.9-4.7,5.6c0,2.5,0.6,3.6,1.6,4.5c0.9,1,2.7,2.8,3.8,3.6
								c1.1,0.7,3.6,1.5,4.7,1.7c1.9,0.3,2.7-0.3,4.3-0.2c2,0.3,2.7,0.5,3.7,0.3c0.9,0,1.6-0.2,2-0.2c0.7,0,1.8,0,2.6-0.2
								c2.2-0.5,2.5-0.3,3.6-0.8C35.9,38.9,39.1,36.3,41.3,33.6z"/>
							<path class="st28" d="M41,33.5c2.6-3.2,2.5-6.1,1.6-8.9c-0.6-2.2-1.1-3.7-2.2-5.7c-1.1-1.9-3-4.2-6.2-5S24,19.7,21.4,20.5
								c-2.7,1-6,3.6-9.3,5.4c-1.8,1-4.8,3.7-4.9,5.4c0,2.5,0.6,3.4,1.6,4.4c0.9,1,2.7,2.8,3.7,3.4c1.1,0.5,3.6,1.4,4.5,1.5
								c1.9,0.2,2.7-0.3,4.3-0.2c2,0.3,2.7,0.3,3.6,0.3c0.7,0,1.6-0.2,2-0.2c0.7,0,1.8,0,2.6-0.2c2-0.5,2.5-0.3,3.6-0.8
								C35.7,38.5,38.9,36.1,41,33.5L41,33.5z"/>
							<path class="st29" d="M40.7,33.3c2.6-3.2,2.5-5.9,1.6-8.7C41.6,22.4,41,21,40,19c-1.1-1.9-2.9-4.2-6.1-5
								c-3.2-0.8-9.9,5.7-12.5,6.6c-2.7,1.2-5.7,3.7-9.1,5.6c-1.7,0.8-5,3.6-4.9,5.3c0,2.3,0.7,3.2,1.7,4.2c0.9,1,2.6,2.8,3.7,3.4
								c1.2,0.6,3.5,1.2,4.4,1.4c1.9,0.2,2.7-0.2,4.3,0c2,0.2,2.7,0.3,3.6,0.3c0.7,0,1.4-0.2,2-0.2c0.7,0,1.8,0,2.6-0.3
								c2-0.5,2.3-0.3,3.6-0.8C35.6,38.1,38.5,35.8,40.7,33.3L40.7,33.3z"/>
							<path class="st30" d="M40.4,33.1c2.5-3,2.3-5.7,1.4-8.4c-0.6-2.2-1.2-3.4-2.2-5.4c-1.1-1.7-2.7-4-5.8-5
								c-3-0.8-9.7,5.6-12.3,6.4c-2.7,1.2-5.7,3.7-8.9,5.4c-1.7,0.8-5.2,3.4-5,5c0,2.3,0.6,3.2,1.6,4c0.9,0.8,2.6,2.7,3.6,3.2
								c1.2,0.5,3.4,1,4.4,1.2c1.9,0.2,2.7,0,4.3,0.2c2,0.2,2.6,0.3,3.5,0.2c0.7,0,1.4-0.2,2-0.2c0.9,0,1.8-0.2,2.6-0.3
								c1.9-0.5,2.3-0.2,3.6-0.8C35.4,37.8,38.3,35.6,40.4,33.1L40.4,33.1z"/>
							<path class="st31" d="M40,33c2.3-2.8,2.3-5.6,1.4-8.1c-0.6-2-1.2-3.4-2.3-5.3c-1.1-1.7-2.6-4-5.7-5c-3-1-9.6,5.4-12,6.2
								c-2.6,1.2-5.4,3.7-8.6,5.4c-1.7,0.8-5.3,3.2-5.2,4.9c0.1,2.2,0.7,3,1.7,3.9c0.9,0.9,2.6,2.7,3.6,3.2c1.2,0.5,3.2,0.8,4.3,1
								c1.9,0.2,2.6,0,4.3,0.2c2,0.2,2.6,0.2,3.5,0.2c0.7,0,1.4,0,2,0c0.9,0,1.8-0.2,2.7-0.3c1.9-0.5,2.3-0.2,3.5-0.6
								C35.3,37.5,38,35.3,40,33L40,33z"/>
							<path class="st32" d="M39.7,32.8c2.3-2.7,2.2-5.3,1.3-7.8c-0.7-2-1.3-3.2-2.3-5c-0.9-1.7-2.5-4-5.6-5c-3-1-9.3,5.3-11.7,6.2
								c-2.7,1-5.4,3.6-8.5,5c-1.4,0.8-5.3,3-5.2,4.9c0.1,2,0.9,2.8,1.8,3.7c0.9,0.9,2.6,2.7,3.6,3c1.3,0.5,3.2,0.6,4.3,0.8
								c1.9,0.2,2.6,0.2,4.2,0.3c2,0.2,2.5,0.2,3.5,0.2c0.7,0,1.4,0,2,0c0.9,0,1.9-0.2,2.7-0.3c1.9-0.5,2.2-0.2,3.5-0.6
								C35.2,37.2,37.8,35.2,39.7,32.8L39.7,32.8z"/>
							<path class="st33" d="M39.5,32.8c2.2-2.5,2.2-5,1.3-7.6c-0.7-2-1.3-3.2-2.3-4.9c-0.9-1.7-2.3-3.9-5.4-5
								c-2.9-1-9.1,5-11.5,6.1c-2.7,1-5.2,3.6-8.3,5c-1.6,0.8-5.6,2.7-5.4,4.7c0.1,2,0.9,2.7,1.8,3.6c0.9,0.9,2.5,2.7,3.5,3
								c1.3,0.5,3.1,0.5,4.2,0.6c1.8,0.2,2.6,0.3,4.2,0.3c2,0.2,2.5,0.2,3.4,0.2c0.7,0,1.3,0,2,0c1.1,0,1.9-0.3,2.7-0.5
								c1.8-0.5,2.2-0.2,3.5-0.6C35.1,36.7,37.5,34.8,39.5,32.8L39.5,32.8z"/>
							<path class="st34" d="M39.1,32.6c2.2-2.3,2-4.9,1.2-7.3c-0.7-1.9-1.3-3-2.3-4.7c-0.9-1.5-2.2-3.9-5.3-5
								c-2.9-1.2-8.8,5-11.2,5.9c-2.6,1-5,3.6-8,5c-1.6,0.8-5.7,2.5-5.6,4.5c0.1,2,1.1,2.5,1.9,3.4c0.9,1,2.5,2.5,3.5,2.8
								c1.3,0.5,3,0.3,4,0.5c1.8,0.2,2.6,0.3,4.2,0.5c2,0.2,2.5,0,3.4,0c0.7,0,1.3,0,2,0c1.1,0,1.9-0.3,2.7-0.5c1.8-0.3,2,0,3.4-0.6
								C34.9,36.3,37.2,34.7,39.1,32.6L39.1,32.6z"/>
							<path class="st35" d="M38.9,32.4c2-2.2,2-4.7,1.2-6.9c-0.7-1.9-1.4-2.8-2.3-4.5c-0.9-1.5-2-3.7-5.2-5
								c-2.9-1.2-8.5,4.9-11,5.7c-2.6,0.8-4.9,3.4-7.8,4.9c-1.4,0.8-6,2.3-5.7,4.4c0.1,1.9,1.1,2.3,1.9,3.2c0.9,1,2.5,2.5,3.5,2.8
								c1.4,0.3,2.9,0.3,4,0.3c1.8,0.2,2.6,0.5,4.2,0.6c2,0.2,2.3,0,3.2,0c0.6,0,1.3,0.2,2,0.2c1.1,0,1.9-0.3,2.7-0.5
								c1.7-0.3,2,0,3.4-0.6C34.9,36,37,34.4,38.9,32.4L38.9,32.4z"/>
							<path class="st36" d="M38.4,32.2c1.9-2,1.9-4.5,1.1-6.6c-0.7-1.9-1.4-2.8-2.3-4.4c-0.9-1.5-1.9-3.7-4.9-5
								c-2.9-1.4-8.4,4.7-10.7,5.6c-2.6,1-4.8,3.4-7.6,4.9c-1.4,0.6-6.1,2.2-5.8,4.2c0.1,1.7,1.1,2.2,1.9,3c1.1,0.8,2.5,2.5,3.4,2.7
								c1.4,0.3,2.9,0.2,3.8,0.2c1.8,0.2,2.6,0.6,4,0.6c2,0.2,2.3,0,3.2,0c0.6,0,1.2,0.2,2,0.2c1.2,0,1.9-0.5,2.7-0.6
								c1.7-0.3,1.9,0,3.4-0.6C34.8,35.6,36.6,34.1,38.4,32.2z"/>
							<path class="st37" d="M38.2,32.1c1.9-1.9,1.9-4.4,1.1-6.4c-0.7-1.9-1.4-2.7-2.3-4.2c-0.9-1.5-1.8-3.6-4.8-5
								c-2.7-1.4-8.1,4.5-10.5,5.4c-2.6,1-4.7,3.4-7.4,4.9c-1.4,0.6-6.2,2-6,4c0.1,1.7,1.2,2,2,2.8c1.1,0.8,2.3,2.3,3.4,2.7
								c1.4,0.3,2.7,0,3.7,0.2c1.8,0.2,2.5,0.6,4,0.8c2,0.2,2.3-0.2,3.2,0c0.6,0,1.2,0.2,2,0.2c1.2,0,1.9-0.5,2.7-0.6
								c1.6-0.3,1.9,0,3.2-0.6C34.7,35.3,36.4,33.8,38.2,32.1L38.2,32.1z"/>
							<path class="st38" d="M37.8,32.1c1.8-1.7,1.8-4,0.9-6.1c-0.7-1.7-1.6-2.7-2.5-4c-0.9-1.4-1.7-3.6-4.7-5
								c-2.7-1.4-7.9,4.4-10.2,5.3c-2.6,1-4.5,3.4-7.3,4.9c-1.4,0.6-6.3,1.9-6.1,3.9c0.1,1.5,1.2,1.9,2,2.7c1.1,0.8,2.3,2.3,3.2,2.7
								c1.4,0.3,2.6-0.2,3.7,0c1.8,0.2,2.5,0.8,4,0.8c1.9,0.2,2.2-0.2,3.1-0.2c0.6,0,1.2,0.2,2,0.2c1.2,0,1.9-0.5,2.7-0.6
								c1.6-0.3,1.8,0,3.2-0.6C34.6,35,36.1,33.6,37.8,32.1L37.8,32.1z"/>
							<path class="st39" d="M37.5,31.9c1.8-1.5,1.8-3.9,0.9-5.7c-0.7-1.7-1.6-2.5-2.5-3.9c-0.9-1.4-1.6-3.4-4.5-5
								c-2.7-1.5-7.6,4.2-9.9,5c-2.6,1-4.4,3.4-7,4.7c-1.3,0.6-6.6,1.7-6.2,3.9c0.2,1.5,1.2,1.9,2.2,2.5c1.1,0.8,2.3,2.3,3.2,2.5
								c1.6,0.3,2.5-0.3,3.6-0.2c1.7,0.2,2.5,1,4,1c1.9,0.2,2.2-0.2,3.1-0.2c0.6,0,1.2,0.3,2,0.3c1.3,0,2-0.6,2.7-0.6
								c1.4-0.3,1.8,0.2,3.2-0.5C34.4,34.4,35.9,33.3,37.5,31.9z"/>
							<path class="st40" d="M37.3,31.8C39,30.4,39,28,38,26.2c-0.7-1.5-1.6-2.3-2.5-3.7c-0.9-1.4-1.4-3.4-4.4-5
								c-2.7-1.5-7.4,4-9.7,4.9c-2.6,1-4.3,3.4-6.7,4.7c-1.3,0.6-6.7,1.5-6.3,3.7c0.2,1.4,1.3,1.7,2.2,2.3c1.1,0.8,2.2,2.3,3.2,2.3
								c1.6,0.3,2.3-0.3,3.6-0.3c1.7,0.2,2.5,1,4,1.2c1.9,0.2,2-0.3,3-0.2c0.6,0,1.1,0.3,2,0.3c1.3,0,2-0.6,2.7-0.8
								c1.4-0.3,1.7,0.2,3.2-0.5C34.3,34.1,35.6,33.1,37.3,31.8L37.3,31.8z"/>
							<path class="st41" d="M36.9,31.6c1.6-1.2,1.6-3.6,0.7-5.3c-0.7-1.5-1.7-2.3-2.5-3.6c-0.7-1.2-1.3-3.2-4.2-5
								c-2.6-1.7-7.3,3.9-9.4,4.7c-2.5,1-4.2,3.4-6.5,4.7c-1.3,0.6-6.8,1.4-6.5,3.6c0.2,1.4,1.3,1.5,2.2,2.2
								c0.9,0.8,2.2,2.2,3.1,2.3c1.6,0.2,2.3-0.6,3.5-0.5c1.7,0.2,2.5,1.2,3.8,1.2c1.9,0.2,2-0.3,3-0.3c0.5,0,1.1,0.3,2,0.3
								c1.3,0,2-0.6,2.7-0.8c1.3-0.3,1.7,0.2,3.1-0.5C34.2,33.8,35.3,32.8,36.9,31.6L36.9,31.6z"/>
							<path class="st42" d="M36.6,31.4c1.6-1,1.6-3.4,0.6-4.9c-0.7-1.5-1.7-2.2-2.5-3.4c-0.7-1.2-1.2-3.2-4-5.3
								c-2.6-1.7-7,3.7-9.2,4.7c-2.5,1-4,3.4-6.3,4.5c-1.1,0.7-6.9,1.1-6.5,3.5c0.2,1.2,1.4,1.4,2.3,2c1.1,0.8,2.2,2.2,3.1,2.3
								c1.6,0.2,2.2-0.6,3.4-0.6c1.7,0.2,2.5,1.4,3.8,1.4c1.9,0,2-0.3,3-0.3c0.5,0,1.1,0.3,2,0.3c1.4,0,2-0.6,2.7-0.8
								c1.3-0.2,1.6,0.2,3.1-0.5C34.1,33.5,35.1,32.6,36.6,31.4L36.6,31.4z"/>
							<path class="st43" d="M36.2,31.4c1.4-1,1.4-3.2,0.6-4.7c-0.7-1.5-1.7-2.2-2.5-3.4c-0.8-1.2-1.1-3.2-3.8-5
								c-2.6-1.7-6.7,3.7-8.9,4.5c-2.5,1-3.7,3.4-6.1,4.5c-1.2,0.6-7.3,0.8-6.7,3.2c0.2,1.2,1.4,1.2,2.3,1.9
								c1.1,0.8,2.2,2.2,3.1,2.2c1.7,0.2,2-0.8,3.4-0.8c1.7,0.2,2.3,1.4,3.8,1.5c1.9,0,1.9-0.5,2.9-0.3c0.5,0,1.1,0.3,2,0.5
								c1.4,0,2-0.8,2.7-1c1.3-0.2,1.6,0.2,3.1-0.5C33.9,33.1,34.7,32.2,36.2,31.4L36.2,31.4z"/>
							<path class="st44" d="M36,31.3c1.4-0.8,1.4-3,0.5-4.4c-0.9-1.4-1.8-2-2.6-3.2c-0.7-1.2-0.7-3-3.7-5c-2.6-1.9-6.5,3.6-8.6,4.4
								c-2.5,1-3.6,3.4-5.8,4.5c-1.2,0.6-7.4,0.6-6.8,3.1c0.2,1,1.4,1,2.3,1.7c1.1,0.8,2,2,3,2.2c1.7,0.2,1.9-1,3.2-1
								c1.7,0.2,2.3,1.5,3.7,1.5c1.9,0,1.9-0.5,2.9-0.3c0.5,0,0.9,0.5,2,0.5c1.4,0,2-0.8,2.7-1c1.2-0.2,1.4,0.3,3.1-0.5
								C33.8,32.8,34.4,32.1,36,31.3z"/>
							<path class="st45" d="M35.6,31.1c1.3-0.6,1.3-2.7,0.5-4c-0.7-1.4-1.8-1.9-2.6-3c-0.7-1-0.6-3-3.6-5c-2.5-1.9-6.2,3.4-8.4,4.2
								c-2.5,1-3.5,3.4-5.7,4.5c-1.2,0.4-7.5,0.4-7,3c0.2,1,1.6,0.8,2.5,1.5c1.1,0.6,2,2,3,2c1.7,0,1.8-1.2,3.1-1.2
								c1.6,0.2,2.3,1.7,3.7,1.7c1.9,0,1.9-0.5,2.7-0.5c0.5,0,0.9,0.5,2,0.5c1.6,0,2.2-0.8,2.7-1c1.2-0.2,1.4,0.3,3-0.5
								C33.8,32.2,34.2,31.8,35.6,31.1z"/>
							<path class="st46" d="M35.3,30.9c1.2-0.5,1.3-2.5,0.5-3.7C35,26,34,25.4,33.2,24.4c-0.7-1-0.6-2.8-3.5-5
								c-2.5-1.9-6,3.2-8.1,4c-2.5,1-3.4,3.4-5.4,4.4c-1,0.4-7.8,0.2-7.1,2.8c0.2,0.8,1.6,0.6,2.5,1.4c1.1,0.6,2,2,2.9,2
								c1.7,0,1.8-1.4,3.1-1.4c1.6,0.2,2.3,1.7,3.7,1.7c1.9,0,1.8-0.6,2.7-0.5c0.5,0,0.9,0.5,2,0.5c1.6,0,2.2-1,2.7-1
								c1.1-0.2,1.4,0.3,3-0.3C33.6,31.9,33.9,31.6,35.3,30.9z"/>
							<path class="st21" d="M35.1,30.8c1.2-0.3,1.2-2.3,0.4-3.6c-0.9-1.2-1.9-1.7-2.6-2.7c-0.7-1-0.5-2.8-3.2-5
								c-2.5-2-5.8,3-7.9,3.9c-2.5,1-3.2,3.4-5.2,4.4c-1.1,0.5-8,0.2-7.3,2.7c0.2,0.8,1.7,0.5,2.6,1.2c1.1,0.6,2,1.9,2.9,1.9
								c1.8-0.2,1.7-1.5,3-1.5c1.6,0,2.3,1.9,3.7,1.9c1.9,0,1.8-0.6,2.7-0.5c0.5,0,0.7,0.6,2,0.6c1.6,0,2.2-1,2.9-1
								c1.1-0.2,1.3,0.3,3-0.3C33.5,31.6,33.6,31.3,35.1,30.8L35.1,30.8z"/>
						</g>
						<path class="st25" d="M34.3,25.8c-0.2-1.2-0.7-2-1.4-2.8c0.1-0.6,0.2-1.4,0.2-2c0.1-3.6-1.9-6.6-4.7-6.7
							c-2-0.2-3.8,1.5-4.7,3.7c-0.1,0-0.2,0-0.4,0c-1.7-0.2-3.2,1-4.3,2.5c-0.4,0.2-0.6,0-1.1,0c-1.4-0.2-2.7,1.4-2.9,3.4
							c0,0.3,0,0.6,0.1,1c-0.5,0.2-1.1,0.5-1.3,1.2c-0.4-1-1.1-1.5-1.9-1.5c-1.1,0-2,0.8-2.5,2.2H9.5c-1.1,0-1.9,1-1.9,2.3
							c0,1.4,0.7,2.5,1.8,2.5c0.5,0,1.1-0.2,1.3-0.6c0.4,0.3,0.7,0.5,1.2,0.5c0.4,1.2,1.3,2,2.3,2c1.1,0,2-0.6,2.5-1.9
							c0.4,0,0.7,0.2,1.1,0.2c0.1,0,0.2,0,0.4,0c0.6,1,1.6,1.9,2.7,1.9s2-0.5,2.9-1.5c0.4,1,1.3,1.9,2.3,1.9c1,0,1.9-0.6,2.5-1.9
							c0.5,0.3,1.2,0.5,1.7,0.6c1.3,0,2.6-0.6,3.4-2c0.1,0.2,0.4,0.2,0.6,0.2c1.1,0,1.9-1,2-2.3C36.2,27.1,35.3,25.8,34.3,25.8
							L34.3,25.8z"/>
						<path class="st22" d="M34.4,25.8c-0.2-1.2-0.7-2-1.4-2.8c0.1-0.6,0.2-1.4,0.2-2c0.1-3.6-1.9-6.6-4.7-6.7
							c-2-0.2-3.8,1.5-4.7,3.7c-0.1,0-0.2,0-0.4,0c-1.9,0.2-3.5,1.2-4.4,2.8c-0.2-0.2-0.6-0.2-0.9-0.2c-1.4-0.2-2.7,1.4-2.9,3.4
							c0,0.3,0,0.6,0.1,1c-0.5,0-1.1,0.3-1.3,1c-0.4-0.8-1.2-1.4-1.9-1.4c-1.2,0-2,0.8-2.5,2H9.7c-1.1,0-1.9,1-1.9,2.3
							s0.7,2.5,1.8,2.5c0.5,0,1.1-0.2,1.3-0.6c0.4,0.3,0.7,0.5,1.2,0.5c0.4,1.2,1.3,2,2.3,2s2-0.6,2.5-1.9c0.4,0,0.6,0.2,1.1,0.2
							c0.1,0,0.2,0,0.4,0c0.6,1,1.6,1.9,2.7,1.9s2-0.5,2.9-1.5c0.4,1,1.3,1.9,2.3,1.9s1.9-0.6,2.5-1.9c0.5,0.3,1.2,0.5,1.7,0.6
							c1.3,0,2.6-0.6,3.4-2c0.1,0.2,0.4,0.2,0.6,0.2c1.1,0,1.9-1,2-2.3C36.2,27.2,35.4,26,34.4,25.8L34.4,25.8z"/>
					</g>
					<g>
						<g>
							<path class="st0" d="M31.3,29.4c1.3-2.8,0-6.7-0.6-8.9c-0.5-1.5-1.9-3.7-3.2-4.4c-1.2-0.8-1.7-1.7-3.2-1.9
								c-2-0.3-4.9,1.9-6.7,2.5c-1.8,0.6-5,2.7-6.8,5c-2,2.8-2,5.3-1.6,6.9c0.5,1.9,1.6,2.8,2.2,3.6c0.6,0.7,1.3,1.4,1.9,1.9
								c1.4,0.8,2.6,0.8,3.6,1c0.7,0,2.9,0.3,4.9-0.3c1.4-0.3,2.9-0.6,3.6-1C27.2,33,30.2,31.8,31.3,29.4z"/>
							<path class="st27" d="M31.1,29.2c1.3-2.8,0-6.6-0.5-8.6c-0.5-1.5-1.9-3.6-3.1-4.2c-1.2-0.8-1.6-1.7-3.2-2
								c-2-0.3-4.9,1.9-6.6,2.5c-1.8,0.6-5,2.5-6.7,5c-1.9,2.8-2,5-1.6,6.7c0.5,1.7,1.6,2.7,2.2,3.4c0.6,0.6,1.3,1.4,2,1.7
								c1.4,0.8,2.6,0.6,3.6,0.8c0.7,0.2,2.9,0.3,4.9-0.2c1.4-0.3,2.7-0.6,3.5-1C27.1,32.8,30,31.6,31.1,29.2L31.1,29.2z"/>
							<path class="st28" d="M30.8,29.1c1.3-2.7,0.1-6.4-0.5-8.3c-0.5-1.5-1.8-3.4-3-4.2c-1.2-0.6-1.4-1.9-3.1-2.2
								c-2-0.3-4.9,1.9-6.6,2.5c-1.9,0.6-5,2.7-6.6,4.9c-1.9,2.7-2.2,5-1.6,6.7c0.6,1.7,1.6,2.5,2.2,3.2c0.6,0.6,1.3,1.2,2,1.7
								c1.4,0.8,2.6,0.6,3.6,0.6c0.7,0.2,2.7,0.3,4.8-0.2c1.6-0.3,2.7-0.6,3.4-1C26.9,32.4,29.8,31.4,30.8,29.1L30.8,29.1z"/>
							<path class="st29" d="M30.5,29.1c1.3-2.7,0.1-6.1-0.4-8.1c-0.5-1.5-1.8-3.2-3-4c-1.2-0.6-1.4-2-3.1-2.3
								c-1.9-0.5-4.8,2-6.5,2.5c-1.8,0.6-4.9,2.5-6.5,4.7c-1.9,2.5-2.2,4.9-1.7,6.6c0.5,1.7,1.6,2.3,2.2,3s1.3,1.2,2,1.5
								c1.4,0.8,2.6,0.5,3.5,0.6c0.7,0.2,2.7,0.5,4.8-0.2c1.6-0.3,2.7-0.6,3.4-1C26.8,32.1,29.5,31.1,30.5,29.1L30.5,29.1z"/>
							<path class="st30" d="M30.4,28.9c1.3-2.5,0.2-5.9-0.4-7.8c-0.5-1.5-1.8-3.2-3-3.9c-1.1-0.6-1.3-2.2-3-2.7
								c-1.9-0.5-4.8,2-6.5,2.7c-1.8,0.6-4.9,2.5-6.5,4.5c-1.7,2.5-2.2,4.7-1.6,6.6c0.6,1.7,1.6,2.3,2.2,3c0.6,0.5,1.3,1,2,1.5
								c1.4,0.6,2.6,0.3,3.5,0.5c0.7,0.2,2.6,0.5,4.7,0c1.6-0.3,2.6-0.6,3.2-1C26.8,31.8,29.4,30.9,30.4,28.9L30.4,28.9z"/>
							<path class="st31" d="M30.2,28.8c1.3-2.3,0.2-5.7-0.2-7.4c-0.5-1.4-1.8-3-2.9-3.7c-1.1-0.7-1.2-2.3-2.9-2.8
								c-1.9-0.5-4.9,2-6.5,2.7c-1.9,0.6-4.9,2.3-6.5,4.4c-1.7,2.3-2.3,4.8-1.7,6.4c0.6,1.5,1.6,2.2,2.3,2.8c0.6,0.5,1.3,1,2,1.4
								c1.4,0.6,2.5,0.3,3.4,0.3c0.7,0.2,2.6,0.5,4.7,0c1.6-0.3,2.6-0.6,3.2-1C26.7,31.6,29.2,30.8,30.2,28.8z"/>
							<path class="st32" d="M29.9,28.6c1.3-2.3,0.4-5.6-0.2-7c-0.5-1.4-1.7-2.8-2.7-3.6c-1.1-0.6-1.2-2.5-2.9-3
								c-1.9-0.6-4.9,2.2-6.5,2.7c-1.8,0.6-4.8,2.3-6.2,4.2c-1.6,2.2-2.3,4.5-1.7,6.2c0.6,1.5,1.6,2,2.3,2.7c0.6,0.6,1.4,1,2,1.4
								c1.4,0.6,2.5,0.2,3.4,0.3c0.7,0.2,2.5,0.6,4.7,0c1.6-0.3,2.5-0.8,3.1-1C26.6,31.3,28.9,30.5,29.9,28.6L29.9,28.6z"/>
							<path class="st33" d="M29.7,28.4c1.3-2.2,0.4-5.3-0.1-6.9c-0.5-1.4-1.6-2.7-2.7-3.4c-1.1-0.6-1.1-2.5-2.7-3.2
								c-1.9-0.6-4.9,2.2-6.5,2.7c-1.7,0.6-4.7,2.3-6.1,4.2C10,24,9.2,26.2,9.9,28c0.6,1.5,1.6,2,2.3,2.5c0.6,0.5,1.4,0.8,2,1.2
								c1.4,0.6,2.5,0,3.2,0.2c0.7,0.2,2.5,0.6,4.5,0.2c1.6-0.3,2.5-0.8,3-0.8C26.4,30.9,28.7,30.2,29.7,28.4L29.7,28.4z"/>
							<path class="st34" d="M29.4,28.4c1.3-2.2,0.5-5-0.1-6.6c-0.5-1.4-1.6-2.5-2.6-3.2s-0.9-2.7-2.7-3.4c-1.9-0.6-4.8,2.2-6.5,2.8
								c-1.6,0.3-4.5,2-5.8,3.7c-1.4,2-2.3,4.2-1.7,6.1c0.6,1.5,1.6,1.9,2.3,2.3c0.6,0.5,1.4,0.8,2,1.2c1.6,0.6,2.5,0,3.2,0.2
								c0.7,0.2,2.5,0.6,4.5,0.2c1.6-0.3,2.3-0.8,3-0.8C26.4,30.6,28.5,30.1,29.4,28.4L29.4,28.4z"/>
							<path class="st35" d="M29.3,28.2c1.3-2,0.5-4.9,0-6.2c-0.5-1.2-1.4-2.5-2.6-3.2c-1.1-0.6-0.7-2.8-2.6-3.6
								c-1.9-0.8-4.8,2.2-6.3,2.8c-1.8,0.5-4.8,2-6,3.7c-1.4,2-2.5,4.2-1.7,6.1c0.5,1.4,1.6,1.7,2.3,2.2c0.6,0.5,1.4,0.8,2,1
								c1.6,0.5,2.3-0.2,3.1,0c0.6,0.2,2.3,0.6,4.4,0.2c1.6-0.3,2.3-0.8,2.9-0.8C26.3,30.2,28.2,29.9,29.3,28.2L29.3,28.2z"/>
							<path class="st36" d="M29,28c1.3-2,0.6-4.5,0-6.1c-0.5-1.2-1.4-2.3-2.5-3c-0.9-0.5-0.7-3-2.5-3.9c-1.8-0.8-4.8,2.3-6.3,2.8
								c-1.8,0.8-4.7,2.3-5.8,3.9c-1.3,1.9-2.5,4-1.7,5.9c0.5,1.4,1.6,1.7,2.3,2c0.6,0.3,1.4,0.6,2.2,1c1.6,0.5,2.3-0.3,3.1-0.2
								c0.6,0.2,2.3,0.8,4.4,0.3c1.6-0.3,2.3-0.8,2.9-0.8C26.2,30.1,28.1,29.6,29,28L29,28z"/>
							<path class="st37" d="M28.7,27.9c1.3-1.9,0.6-4.4,0.1-5.7c-0.5-1.2-1.3-2.2-2.3-2.8c-0.9-0.5-0.6-3.2-2.5-4
								c-1.8-0.8-4.8,2.3-6.3,3c-1.8,0.6-4.7,2-5.7,3.6c-1.3,1.7-2.5,3.9-1.7,5.7c0.5,1.4,1.6,1.5,2.3,2c0.6,0.3,1.4,0.6,2.2,0.8
								c1.6,0.5,2.3-0.3,3-0.2c0.6,0.2,2.2,0.8,4.3,0.3c1.6-0.3,2.2-0.8,2.7-0.8C26.1,29.7,27.9,29.4,28.7,27.9L28.7,27.9z"/>
							<path class="st38" d="M28.5,27.9c1.3-1.9,0.7-4.2,0.1-5.4c-0.5-1.2-1.3-2-2.3-2.7c-0.9-0.5-0.5-3.2-2.3-4.2
								c-1.8-1-4.7,2.2-6.2,2.8c-1.7,0.5-4.5,2-5.6,3.4c-1.2,1.7-2.6,3.9-1.7,5.7c0.5,1.4,1.6,1.4,2.5,1.9c0.6,0.3,1.6,0.5,2.2,0.8
								c1.6,0.5,2.3-0.5,3-0.3c0.7,0.2,2.2,0.8,4.3,0.3c1.6-0.3,2.2-0.8,2.7-0.8C25.9,29.4,27.6,29.1,28.5,27.9L28.5,27.9z"/>
							<path class="st39" d="M28.4,27.7c1.3-1.7,0.7-3.9,0.2-5.3c-0.5-1.2-1.2-2-2.2-2.5c-0.9-0.5-0.5-3.4-2.3-4.4s-4.8,2.3-6.3,3
								c-1.7,0.6-4.5,2-5.4,3.4c-1.2,1.5-2.6,3.7-1.7,5.6c0.5,1.2,1.6,1.4,2.5,1.7c0.6,0.3,1.6,0.5,2.2,0.6c1.6,0.3,2.3-0.6,3-0.3
								c0.7,0.3,2,1,4.2,0.5c1.6-0.3,2-0.8,2.6-0.8C25.9,29.1,27.4,28.9,28.4,27.7L28.4,27.7z"/>
							<path class="st40" d="M28.1,27.5c1.3-1.7,0.9-3.7,0.4-4.9c-0.5-1-1.2-1.9-2.2-2.3c-0.7-0.5-0.4-3.6-2.2-4.5
								c-1.8-1-4.8,2.3-6.3,2.8c-1.7,0.6-4.4,2-5.3,3.2c-1.1,1.5-2.6,3.7-1.8,5.6c0.5,1.2,1.6,1.2,2.5,1.5c0.7,0.3,1.6,0.5,2.2,0.6
								c1.6,0.3,2.2-0.6,2.9-0.5c0.6,0.2,2,1,4.2,0.5c1.6-0.3,2-0.8,2.5-0.8C25.7,28.8,27.2,28.8,28.1,27.5L28.1,27.5z"/>
							<path class="st41" d="M27.9,27.4c1.3-1.5,0.9-3.6,0.4-4.5c-0.5-1-1.1-1.7-2-2.2c-0.7-0.5-0.2-3.7-2-4.7
								c-1.8-1.2-4.8,2.3-6.3,2.8c-1.7,0.6-4.4,2-5.2,3c-1.1,1.4-2.7,3.6-1.8,5.4c0.5,1.2,1.6,1.2,2.5,1.5c0.7,0.3,1.6,0.3,2.2,0.5
								c1.6,0.3,2.2-0.8,2.9-0.6c0.7,0.2,1.9,1,4.2,0.5c1.6-0.3,1.9-0.8,2.5-0.8C25.6,28.4,26.9,28.6,27.9,27.4L27.9,27.4z"/>
							<path class="st42" d="M27.6,27.4c1.3-1.5,1.1-3.2,0.4-4.4c-0.5-1-1.1-1.5-2-2.2c-0.7-0.5-0.2-3.7-2-5
								c-1.7-1.2-4.8,2.5-6.2,3.2c-1.4,0.6-4.2,1.9-4.9,3c-0.9,1.2-2.7,3.4-1.8,5.3c0.5,1,1.6,0.8,2.5,1.2c0.7,0.2,1.6,0.3,2.2,0.5
								c1.6,0.3,2.2-0.8,2.7-0.6c0.6,0.2,1.9,1,4,0.6c1.7-0.3,1.9-0.8,2.3-0.8C25.5,28.2,26.7,28.4,27.6,27.4L27.6,27.4z"/>
							<path class="st43" d="M27.4,27.2c1.3-1.4,1.1-3,0.5-4c-0.6-1-1.1-1.5-1.9-2c-0.7-0.5-0.1-3.9-1.9-5.3
								c-1.8-1.2-4.8,2.7-6.2,3.2c-1.7,0.6-4.4,1.9-5,2.7c-0.7,1-2.7,3.4-1.8,5.3c0.5,1,1.6,0.8,2.6,1.2c0.6,0.2,1.4,0.2,2.2,0.3
								c1.6,0.2,2.2-1,2.7-0.8c0.6,0.2,1.8,1.2,4,0.6c1.7-0.3,1.8-1,2.3-0.8C25.5,27.9,26.6,28,27.4,27.2L27.4,27.2z"/>
							<path class="st44" d="M27.2,27.1c1.3-1.4,1.2-2.8,0.6-3.7c-0.5-1-0.9-1.4-1.8-1.9c-0.7-0.3,0-4-1.9-5.4
								c-1.8-1.2-4.8,2.5-6.2,3.2c-1.7,0.5-4.3,1.7-4.9,2.5c-0.7,1-2.9,3.2-1.8,5.3c0.5,1,1.6,0.6,2.6,1c0.7,0.2,1.6,0.2,2.2,0.4
								c1.6,0.2,2-1.2,2.6-0.8c0.6,0.3,1.8,1.2,3.8,0.6c1.7-0.3,1.8-1,2.2-0.8C25.4,27.5,26.3,27.9,27.2,27.1L27.2,27.1z"/>
							<path class="st45" d="M26.9,26.9c1.3-1.2,1.2-2.7,0.6-3.6c-0.6-0.9-0.7-1.2-1.8-1.7c-0.7-0.3,0-4.2-1.8-5.6
								c-1.7-1.2-4.7,2.7-6.1,3.4c-1.7,0.5-4.3,1.7-4.8,2.3c-0.6,0.8-2.9,3-1.8,5c0.5,1,1.6,0.6,2.6,0.8c0.7,0.2,1.6,0.2,2.3,0.2
								c1.7,0.2,2-1.2,2.6-1c0.6,0.3,1.8,1.2,3.8,0.8c1.7-0.3,1.8-1,2-0.8C25.3,27.2,26.2,27.7,26.9,26.9L26.9,26.9z"/>
							<path class="st46" d="M26.7,26.7c1.3-1,1.3-2.3,0.7-3.2c-0.5-0.8-0.7-1-1.7-1.5c-0.6-0.3,0.1-4.2-1.8-5.7
								c-1.7-1.4-4.7,2.7-6.1,3.2c-1.6,0.6-4.2,1.7-4.7,2.3c-0.6,0.6-2.9,3-1.8,4.9c0.5,0.8,1.6,0.5,2.6,0.6c0.7,0.2,1.7,0,2.3,0.2
								c1.6,0.2,1.9-1.4,2.3-1c0.5,0.3,1.7,1.4,3.7,0.8c1.7-0.3,1.7-1,2-0.6C25.1,27.1,25.9,27.5,26.7,26.7L26.7,26.7z"/>
							<path class="st21" d="M26.4,26.7c1.3-1,1.3-2.2,0.7-2.8c-0.5-0.8-0.6-0.8-1.7-1.4c-0.6-0.3,0.2-4.4-1.7-5.9
								c-1.6-1.4-4.7,2.7-6.1,3.4c-1.6,0.6-4.2,1.7-4.7,2.2c-0.4,0.3-2.7,2.7-1.7,4.5c0.5,0.8,1.6,0.3,2.6,0.5c0.7,0.2,1.7,0,2.3,0
								c1.7,0,2-1.5,2.5-1.2c0.5,0.3,1.7,1.4,3.7,0.8c1.7-0.3,1.7-1,1.9-0.6C25.1,26.7,25.6,27.2,26.4,26.7L26.4,26.7z"/>
						</g>
						<path class="st24" d="M26.6,22.4c0.1-0.5,0.1-1.2,0.1-1.9c0-3.9-2.3-6.9-5.3-6.9c-2.5,0-4.5,2.2-5.2,5.3h-0.1
							c-1.2,0-2.2,0.8-2.7,2c-0.4-0.3-0.6-0.3-1.1-0.3c-1.4,0-2.6,1.5-2.6,3.4s1.2,3.4,2.6,3.4c0.6,0,1.2-0.3,1.7-0.8
							c0.5,0.6,1.3,1,2,1c0.9,0,1.7-0.5,2.3-1.2c0.9,0.8,1.9,1.2,3,1.2s1.9-0.3,2.7-1c0.4,0.6,0.9,1,1.6,1c1.2,0,2-1.2,2-2.7
							C27.7,23.7,27.2,22.7,26.6,22.4L26.6,22.4z"/>
						<path class="st22" d="M26.7,22.4c0.1-0.5,0.1-1.2,0.1-1.9c0-3.9-2.3-6.9-5.3-6.9c-2.5,0-4.5,2.2-5.2,5.3h-0.1
							c-1.2,0-2.2,0.8-2.9,2c-0.2-0.2-0.6-0.3-0.9-0.3c-1.4,0-2.6,1.5-2.6,3.4s1.2,3.4,2.6,3.4c0.6,0,1.2-0.3,1.7-0.8
							c0.5,0.6,1.3,1,2,1c0.9,0,1.7-0.5,2.3-1.2c0.9,0.8,1.9,1.2,3,1.2s1.9-0.3,2.9-1c0.4,0.5,0.9,0.8,1.6,0.8c1.2,0,2-1.2,2-2.7
							C27.9,23.7,27.3,22.8,26.7,22.4L26.7,22.4z"/>
					</g>
					<g>
						<g>
							<path class="st0" d="M41.1,31.4c1.6-1.7,1.3-7,0.5-8.4c-1.1-1.9-2.2-3-3.1-3.7c-0.9-0.6-3.6-1.2-4.9-1.2
								c-1.7,0-3.4,0.5-4.8,1c-1.6,0.5-4.4,1.9-5.8,3.9c-1.7,2.3-0.1,6.9,0.2,7.6c0.7,1.4,1.7,2.5,2.9,3.2c1.2,0.6,2,0.6,3,0.6
								c0.6,0,3.5,0.5,5.2,0c1.2-0.3,3.2-0.8,3.7-1.2C38.5,33.3,39.8,32.8,41.1,31.4L41.1,31.4z"/>
							<path class="st27" d="M40.9,31.3c1.6-1.7,1.3-6.9,0.5-8.3c-1.1-1.9-2-3-3.1-3.6c-1.1-0.6-3.6-1.2-4.8-1.2
								c-1.7,0-3.4,0.5-4.7,1c-1.6,0.5-4.4,1.9-5.7,3.9c-1.6,2.2-0.2,6.7,0.2,7.4c0.7,1.2,1.7,2.5,2.9,3.2c1.2,0.7,2,0.6,3,0.6
								c0.6,0,3.4,0.5,5,0.2c1.2-0.3,3.1-0.8,3.7-1.2C38.3,33,39.6,32.6,40.9,31.3z"/>
							<path class="st28" d="M40.7,31.1c1.6-1.7,1.3-6.6,0.5-8.1c-1.1-1.9-2-2.8-3.1-3.6c-0.9-0.5-3.4-1.2-4.5-1.2
								c-1.7,0-3.2,0.5-4.7,1c-1.4,0.5-4.4,1.9-5.7,3.7c-1.6,2.2-0.2,6.6,0.2,7.3c0.7,1.2,1.6,2.3,2.7,3.2c1.2,0.6,2,0.5,2.9,0.6
								c0.6,0,3.2,0.6,4.9,0.2c1.2-0.3,3.1-0.8,3.6-1.2C38,32.8,39.3,32.4,40.7,31.1z"/>
							<path class="st29" d="M40.4,30.9c1.6-1.5,1.3-6.4,0.5-7.8c-1.1-1.9-2-2.8-3-3.4c-0.9-0.6-3.2-1.2-4.4-1.2
								c-1.6,0-3.2,0.5-4.5,0.8c-1.4,0.5-4.3,1.9-5.6,3.7c-1.4,2-0.2,6.4,0.1,7c0.7,1.2,1.6,2.3,2.7,3c1.2,0.6,2,0.5,2.9,0.6
								c0.6,0.2,3.2,0.6,4.9,0.2c1.2-0.3,3-0.8,3.5-1.4C37.9,32.4,39.1,32.1,40.4,30.9L40.4,30.9z"/>
							<path class="st30" d="M40.1,30.8c1.4-1.5,1.3-6.1,0.5-7.6c-1.1-1.9-2-2.8-3-3.4c-0.9-0.5-3.1-1.2-4.3-1.2
								c-1.6,0-3.2,0.3-4.5,0.8c-1.4,0.5-4.3,1.9-5.4,3.7C22,24.9,23,29.2,23.5,30c0.6,1.2,1.4,2.3,2.6,3c1.1,0.6,1.9,0.5,2.7,0.6
								c0.6,0.2,3.1,0.6,4.8,0.3c1.2-0.3,3-1,3.5-1.4S38.9,31.9,40.1,30.8L40.1,30.8z"/>
							<path class="st31" d="M39.8,30.6c1.4-1.5,1.3-5.9,0.5-7.4c-0.9-1.9-2-2.7-3-3.4c-0.9-0.5-3-1.2-4.2-1.2
								c-1.6-0.2-3.1,0.3-4.5,0.8c-1.4,0.5-4.3,1.9-5.4,3.6c-1.3,1.9-0.4,5.9,0.1,6.7c0.6,1,1.3,2.2,2.6,2.8
								c1.1,0.6,1.9,0.5,2.7,0.5c0.6,0.2,3,0.6,4.7,0.3c1.3-0.3,2.9-1,3.4-1.4C37.4,31.9,38.7,31.8,39.8,30.6L39.8,30.6z"/>
							<path class="st32" d="M39.6,30.5c1.4-1.4,1.3-5.7,0.5-7.3c-0.9-1.9-1.9-2.7-2.9-3.2c-0.7-0.5-2.9-1-4-1.2
								c-1.4-0.2-3.1,0.3-4.4,0.8c-1.4,0.5-4.2,2-5.3,3.6c-1.3,1.9-0.4,5.7,0.1,6.6c0.6,1,1.3,2.2,2.5,2.8c1.1,0.5,1.9,0.3,2.7,0.5
								c0.6,0.2,2.9,0.8,4.5,0.3c1.3-0.3,2.9-1,3.2-1.4C37.2,31.8,38.4,31.6,39.6,30.5L39.6,30.5z"/>
							<path class="st33" d="M39.3,30.2c1.4-1.4,1.3-5.4,0.5-6.9c-0.9-1.9-1.9-2.5-2.9-3.2c-0.7-0.5-2.7-1-3.7-1.2
								c-1.4-0.2-3.1,0.3-4.4,0.6c-1.4,0.5-4.2,2-5.2,3.4c-1.2,1.7-0.4,5.6,0.1,6.4c0.5,0.8,1.2,2.2,2.5,2.7
								c1.1,0.5,1.9,0.3,2.6,0.5s2.7,0.8,4.4,0.5c1.3-0.3,2.7-1,3.2-1.4C36.9,31.4,38.2,31.3,39.3,30.2L39.3,30.2z"/>
							<path class="st34" d="M39.1,30.1c1.4-1.4,1.3-5.3,0.5-6.7c-0.9-1.9-1.9-2.5-2.9-3c-0.7-0.5-2.6-1-3.6-1.2
								c-1.4-0.2-3,0.3-4.3,0.6c-1.4,0.5-4.2,2-5,3.4c-1.2,1.7-0.5,5.3,0.1,6.2s1.2,2,2.3,2.7c1.1,0.5,1.9,0.3,2.6,0.3
								c0.5,0.2,2.6,1,4.3,0.5c1.3-0.3,2.7-1.2,3.1-1.4C36.7,31.3,37.9,31.1,39.1,30.1L39.1,30.1z"/>
							<path class="st35" d="M38.9,29.9c1.3-1.2,1.3-5,0.5-6.6c-0.9-1.9-1.9-2.5-2.9-3c-0.7-0.5-2.5-1-3.5-1.2
								c-1.3-0.2-3,0.2-4.3,0.6c-1.4,0.5-4,2-5,3.2c-1.2,1.5-0.5,5,0.1,6.1c0.5,0.8,1.1,2,2.2,2.7c1.1,0.5,1.8,0.2,2.5,0.3
								c0.5,0.2,2.6,1,4.2,0.5c1.3-0.3,2.5-1.1,3-1.5C36.5,30.9,37.7,30.9,38.9,29.9L38.9,29.9z"/>
							<path class="st36" d="M38.5,29.7c1.3-1.2,1.3-4.7,0.6-6.4c-0.9-1.9-1.9-2.3-2.7-2.8c-0.8-0.5-2.3-1-3.4-1.2
								c-1.3-0.2-2.9,0.2-4.2,0.6c-1.4,0.5-4,2-4.9,3.2c-1.1,1.5-0.5,4.9,0.1,5.9c0.5,0.8,1.1,2,2.2,2.5c1.1,0.5,1.8,0.2,2.5,0.3
								c0.5,0.2,2.5,1,4.2,0.6c1.3-0.3,2.6-1.2,3-1.5C36.2,30.8,37.4,30.8,38.5,29.7L38.5,29.7z"/>
							<path class="st37" d="M38.3,29.6c1.3-1.2,1.3-4.5,0.6-6.1c-0.7-1.9-1.8-2.3-2.7-2.8c-0.7-0.5-2-1-3.2-1.2
								c-1.3-0.2-2.9,0.2-4.2,0.6c-1.4,0.5-4,2-4.8,3c-1.1,1.4-0.5,4.7,0.1,5.7c0.5,0.8,0.9,2,2,2.5c1.1,0.5,1.8,0.2,2.3,0.3
								c0.5,0.2,2.3,1,4,0.6c1.3-0.3,2.5-1.2,2.9-1.5C36,30.5,37.2,30.5,38.3,29.6L38.3,29.6z"/>
							<path class="st38" d="M38,29.4c1.3-1,1.3-4.4,0.6-5.9c-0.7-1.9-1.8-2.3-2.7-2.8c-0.6-0.5-1.9-1-3.1-1.2
								c-1.2-0.2-2.9,0.2-4,0.5c-1.4,0.5-3.8,2-4.8,3c-0.9,1.4-0.6,4.4,0.1,5.6c0.5,0.8,0.7,1.9,2,2.3c1.1,0.5,1.8,0.2,2.3,0.2
								c0.5,0.2,2.2,1.2,3.8,0.6c1.3-0.3,2.5-1.4,2.7-1.5C35.9,30.2,36.9,30.2,38,29.4L38,29.4z"/>
							<path class="st39" d="M37.8,29.1c1.3-1,1.3-4,0.6-5.7c-0.7-1.9-1.8-2.2-2.6-2.7c-0.6-0.3-1.8-1-2.9-1.2c-1.2-0.2-2.7,0-4,0.5
								c-1.4,0.5-3.8,2-4.7,3c-0.9,1.2-0.6,4.2,0.1,5.4c0.5,0.6,0.7,1.9,1.9,2.3c1.1,0.3,1.8,0,2.3,0.2c0.5,0.2,2,1.2,3.7,0.8
								c1.3-0.3,2.3-1.4,2.7-1.5C35.6,29.9,36.7,30.1,37.8,29.1L37.8,29.1z"/>
							<path class="st40" d="M37.5,29.1c1.3-1,1.3-3.9,0.6-5.4c-0.7-1.9-1.8-2.2-2.6-2.7c-0.6-0.3-1.7-1-2.7-1.2
								c-1.2-0.2-2.7,0-3.8,0.5c-1.4,0.5-3.8,2-4.5,2.8c-0.7,1.2-0.6,4,0.1,5.3c0.5,0.6,0.6,1.9,1.9,2.3c0.9,0.3,1.7,0,2.2,0.2
								c0.5,0.2,1.9,1.2,3.6,0.8c1.3-0.3,2.3-1.4,2.6-1.5C35.3,29.7,36.5,29.9,37.5,29.1L37.5,29.1z"/>
							<path class="st41" d="M37.3,28.8c1.3-1,1.3-3.6,0.6-5.3c-0.7-2-1.8-2.2-2.6-2.5c-0.6-0.3-1.6-1-2.6-1.2
								c-1.1-0.2-2.6,0-3.8,0.5c-1.2,0.5-3.7,2-4.4,2.8c-0.7,1.1-0.7,3.8,0.2,5.1c0.4,0.6,0.6,1.7,1.8,2.2c0.9,0.3,1.7,0,2.2,0.2
								c0.5,0.2,1.9,1.4,3.6,1c1.3-0.3,2.2-1.4,2.6-1.7C35.1,29.4,36.2,29.7,37.3,28.8L37.3,28.8z"/>
							<path class="st42" d="M37,28.6c1.2-0.8,1.3-3.4,0.6-5c-0.7-2-1.7-2-2.6-2.5c-0.6-0.3-1.4-0.8-2.5-1.2c-1.1-0.3-2.6,0-3.7,0.3
								c-1.3,0.5-3.7,2-4.4,2.7c-0.7,1-0.7,3.6,0,4.9c0.4,0.6,0.5,1.7,1.8,2.2c0.9,0.3,1.7,0,2,0.2c0.5,0.2,1.8,1.4,3.5,1
								c1.3-0.3,2-1.4,2.5-1.7C34.9,29.2,36,29.4,37,28.6L37,28.6z"/>
							<path class="st43" d="M36.7,28.4c1.2-0.8,1.3-3.2,0.6-4.9c-0.6-1.9-1.7-1.9-2.5-2.3c-0.6-0.3-1.3-0.8-2.3-1.2
								c-1.1-0.3-2.6-0.2-3.7,0.3c-1.3,0.5-3.7,2-4.3,2.7c-0.6,0.8-0.7,3.4,0,4.7c0.4,0.6,0.4,1.7,1.7,2c0.9,0.3,1.7-0.2,2,0
								c0.5,0.2,1.7,1.4,3.4,1c1.3-0.3,2-1.5,2.3-1.7C34.7,28.9,35.7,29.2,36.7,28.4L36.7,28.4z"/>
							<path class="st44" d="M36.6,28.2c1.2-0.8,1.3-2.8,0.6-4.5c-0.7-2-1.7-2-2.5-2.3c-0.6-0.3-1.2-0.8-2-1.2
								c-0.9-0.3-2.6-0.2-3.7,0.3c-1.3,0.5-3.6,2-4.2,2.7c-0.6,0.8-0.7,3.2,0,4.5c0.4,0.5,0.4,1.5,1.6,2c0.9,0.3,1.7-0.2,2,0
								c0.5,0.2,1.6,1.5,3.2,1.2c1.3-0.3,1.9-1.5,2.3-1.7C34.4,28.8,35.4,29.1,36.6,28.2z"/>
							<path class="st45" d="M36.4,28c1.2-0.6,1.3-2.7,0.6-4.4c-0.6-2-1.7-1.9-2.5-2.3c-0.5-0.3-1.1-0.8-1.9-1.2
								c-0.9-0.3-2.5-0.2-3.6,0.3c-1.3,0.5-3.6,2-4.2,2.5c-0.5,0.6-0.9,3,0,4.4c0.2,0.5,0.2,1.5,1.6,1.9c0.9,0.3,1.6-0.2,1.9,0
								c0.5,0.2,1.4,1.5,3.1,1.2c1.3-0.3,1.9-1.5,2.2-1.7C34.2,28.4,35.2,28.8,36.4,28L36.4,28z"/>
							<path class="st46" d="M36.1,27.9c1.2-0.6,1.3-2.3,0.6-4.2c-0.6-2-1.6-1.9-2.5-2.2c-0.5-0.3-0.9-0.8-1.8-1.2
								c-0.9-0.4-2.5-0.2-3.5,0.3c-1.3,0.5-3.6,2-4,2.5c-0.5,0.6-0.9,2.7,0,4.2c0.2,0.5,0.2,1.5,1.4,1.9c0.9,0.3,1.6-0.2,1.9,0
								c0.5,0.2,1.3,1.5,3,1.2c1.3-0.3,1.8-1.5,2-1.9C33.9,28,34.9,28.6,36.1,27.9L36.1,27.9z"/>
							<path class="st21" d="M35.9,27.7c1.1-0.6,1.3-2.2,0.6-4c-0.6-2-1.6-1.7-2.3-2.2c-0.5-0.3-0.7-0.8-1.7-1.2
								c-0.7-0.3-2.3-0.2-3.5,0.2c-1.3,0.5-3.5,2-3.8,2.3c-0.4,0.5-0.9,2.5,0,4c0.2,0.3,0.1,1.5,1.4,1.9c0.9,0.2,1.6-0.3,1.8-0.2
								c0.5,0.2,1.3,1.7,2.9,1.4c1.3-0.3,1.8-1.7,2-1.9C33.8,27.9,34.7,28.4,35.9,27.7z"/>
						</g>
						<path class="st24" d="M34.3,21.1h-0.1c-0.2-1.2-1.2-2-2-2c-0.2,0-0.6,0-0.7,0.2c-0.2-1.2-1.2-1.9-2-1.9c-0.9,0-1.7,0.6-2,1.9
							c-0.1,0-0.2,0-0.4,0c-1.1,0-1.8,1-1.9,2.2c-0.1,0-0.2,0-0.4,0c-1.2,0-2.2,1.4-2.2,2.8c0,1.5,1.1,2.8,2.2,2.8l0,0
							c0.2,1.2,1.1,2,1.9,2c0.7,0,1.4-0.5,1.7-1.4c0.5,1,1.4,1.9,2.5,1.9c1.2,0,2-0.8,2.6-2.2c0.4,0.3,0.7,0.5,1.3,0.5
							c1.4,0,2.6-1.5,2.6-3.4C37.2,22.7,35.9,21.1,34.3,21.1L34.3,21.1z"/>
						<path class="st47" d="M34.4,21.3h-0.1c-0.2-1.1-1.2-2-2.2-2c-0.2,0-0.6,0.2-0.7,0.2c-0.2-1.2-1.2-1.9-2-1.9
							c-0.9,0-1.8,0.6-2,1.7c-0.1,0-0.2,0-0.4,0c-1.1,0-1.8,1-1.9,2.2c-0.1,0-0.2,0-0.4,0c-1.2,0-2.2,1.4-2.2,2.8
							c0,1.5,1.1,2.8,2.2,2.8l0,0c0.2,1.2,1.1,2,1.9,2c0.7,0,1.4-0.5,1.7-1.4c0.5,1,1.4,1.9,2.5,1.9c1.2,0,2-0.8,2.6-2.2
							c0.4,0.3,0.7,0.5,1.3,0.5c1.4,0,2.6-1.5,2.6-3.4C37.2,22.7,35.9,21.1,34.4,21.3L34.4,21.3z"/>
					</g>
					<g>
						<g>
							<path class="st0" d="M39.3,25.4c1.8-2.5,1.7-7.6,0.6-9.5c-1.3-2.3-3-3.4-4.3-4c-1.3-0.8-3-1.5-4.5-1.9
								c-1.9-0.3-4,0.6-5.8,1.4c-1.9,0.6-7.9,3.4-9.7,5.9c-1.1,1.4-1.3,3.2-1.1,4.9c0.1,1.9,0.7,3.6,1.1,4c1.1,1.7,4.7,3.2,6.2,4.2
								c1.4,0.8,2.7,0.8,3.7,1c0.7,0.2,3.1,0,5.3-0.6c1.6-0.3,3.1-2,3.7-2.3C35.6,27.9,37.9,27.2,39.3,25.4L39.3,25.4z"/>
							<path class="st27" d="M39.1,25.2c1.8-2.3,1.8-7.4,0.7-9.2c-1.3-2.3-3-3.2-4.2-4s-3-1.5-4.5-1.9c-1.9-0.3-4,0.6-5.7,1.4
								c-1.9,0.6-7.9,3.4-9.7,5.7c-1.1,1.4-1.3,3.2-1.1,4.9c0.2,1.9,0.9,3.6,1.2,3.9c1.1,1.5,4.5,3.2,6.1,4c1.4,0.8,2.7,0.6,3.7,0.8
								c0.7,0.2,3.1,0.2,5.3-0.5c1.6-0.3,3-2,3.7-2.5C35.3,27.5,37.7,27.1,39.1,25.2L39.1,25.2z"/>
							<path class="st28" d="M38.9,25c1.8-2.3,1.8-7.3,0.7-8.9c-1.3-2.3-2.9-3.2-4-3.9c-1.2-0.6-2.8-1.5-4.3-1.9
								c-1.8-0.3-3.8,0.6-5.7,1.2c-1.9,0.6-7.9,3.2-9.6,5.6c-1.1,1.4-1.3,3.2-1.1,4.9c0.2,1.9,0.9,3.4,1.3,3.9
								c1.1,1.4,4.4,3.2,5.8,4c1.4,0.8,2.6,0.6,3.6,0.6c0.7,0.2,3,0.3,5.2-0.3c1.6-0.3,3-2,3.6-2.5C35.2,27.2,37.4,26.9,38.9,25
								L38.9,25z"/>
							<path class="st29" d="M38.5,24.9c1.8-2.2,1.8-6.9,0.7-8.7c-1.3-2.3-2.9-3-4-3.9c-1.2-0.6-2.7-1.5-4.3-1.9
								c-1.8-0.3-3.7,0.5-5.6,1.2c-1.8,0.8-7.9,3.4-9.6,5.6c-0.9,1.4-1.2,3.2-0.9,4.7c0.2,1.9,1.1,3.2,1.4,3.7
								c1.1,1.4,4.2,3,5.7,3.9c1.4,0.8,2.6,0.5,3.6,0.6c0.7,0.2,2.9,0.3,5.2-0.2c1.6-0.5,2.9-2,3.5-2.5C34.9,27,37.2,26.6,38.5,24.9
								L38.5,24.9z"/>
							<path class="st30" d="M38.3,24.7c1.8-2.2,1.8-6.7,0.7-8.6c-1.3-2.3-2.7-3-3.8-3.7c-1.2-0.6-2.6-1.5-4.2-1.9
								c-1.8-0.3-3.6,0.5-5.4,1.2c-1.8,0.6-7.9,3.2-9.6,5.4c-0.9,1.4-1.2,3-1.1,4.7c0.2,1.7,1.2,3,1.6,3.6c1.1,1.2,4,3,5.6,3.9
								c1.4,0.8,2.6,0.3,3.5,0.5c0.7,0.2,2.7,0.5,5-0.2c1.6-0.5,2.9-2,3.5-2.5C34.8,26.6,36.9,26.4,38.3,24.7L38.3,24.7z"/>
							<path class="st31" d="M38,24.5c1.8-2,1.8-6.4,0.7-8.3c-1.2-2.2-2.7-2.8-3.8-3.7c-1.2-0.6-2.5-1.4-4-1.7
								c-1.6-0.5-3.6,0.3-5.3,1.1c-1.8,0.6-8,3.2-9.6,5.3c-0.9,1.4-1.2,3-0.9,4.5c0.2,1.7,1.2,3,1.6,3.6c1.1,1.2,3.8,2.8,5.4,3.7
								c1.4,0.6,2.5,0.2,3.5,0.3c0.7,0.2,2.6,0.6,5,0c1.6-0.5,2.7-2.2,3.4-2.5C34.7,26.4,36.6,26.2,38,24.5L38,24.5z"/>
							<path class="st32" d="M37.7,24.4c1.7-2,1.8-6.2,0.7-8.1c-1.2-2.2-2.6-2.8-3.7-3.6c-1.1-0.6-2.3-1.4-3.8-1.7
								c-1.7-0.5-3.5,0.3-5.2,1c-1.8,0.6-8,3.2-9.4,5c-0.9,1.2-1.2,3-0.9,4.5c0.2,1.7,1.2,2.8,1.7,3.4c1.1,1,3.6,2.8,5.2,3.7
								c1.4,0.6,2.5,0,3.4,0.2c0.7,0.2,2.6,0.8,4.9,0.2c1.6-0.5,2.7-2.2,3.2-2.5C34.4,25.8,36.4,25.8,37.7,24.4L37.7,24.4z"/>
							<path class="st33" d="M37.4,24.1c1.7-1.9,1.8-6.1,0.9-7.8c-1.2-2.2-2.6-2.7-3.7-3.6c-1.1-0.6-2.2-1.4-3.7-1.7
								c-1.6-0.3-3.4,0.3-5,1c-1.8,0.6-8,3.2-9.4,5c-1.1,1-1.2,2.8-0.9,4.4c0.2,1.7,1.3,2.7,1.8,3.2c1.1,1,3.5,2.7,5,3.6
								c1.3,0.6,2.5,0,3.2,0.2s2.5,1,4.9,0.2c1.6-0.5,2.6-2.2,3.2-2.7C34.3,25.7,36.1,25.7,37.4,24.1L37.4,24.1z"/>
							<path class="st34" d="M37.2,24c1.7-1.9,1.8-5.7,0.9-7.6c-1.2-2.2-2.5-2.7-3.6-3.4c-1.1-0.6-2-1.4-3.6-1.7s-3.4,0.2-5,0.8
								c-1.8,0.6-8,3.2-9.4,4.9c-0.9,1.2-1.2,2.8-0.9,4.4c0.4,1.7,1.3,2.7,1.8,3c0.9,0.8,3.4,2.7,4.9,3.6c1.3,0.6,2.3-0.2,3.2,0
								c0.7,0.2,2.3,1.2,4.8,0.3c1.6-0.5,2.6-2.2,3.1-2.7C34.1,25.4,35.7,25.5,37.2,24L37.2,24z"/>
							<path class="st35" d="M36.9,23.7c1.7-1.7,1.8-5.6,0.9-7.3c-1.1-2.2-2.5-2.5-3.5-3.2c-1.1-0.6-1.9-1.4-3.5-1.7
								c-1.6-0.3-3.2,0.2-4.9,0.8c-1.8,0.6-8,3.2-9.4,4.7c-0.9,1.2-1.2,2.8-0.9,4.2c0.4,1.5,1.3,2.7,1.9,3c0.7,1,3.2,2.5,4.8,3.4
								c1.3,0.6,2.3-0.3,3.1-0.2c0.8,0.2,2.3,1.2,4.8,0.5c1.6-0.5,2.5-2.3,3.1-2.7C33.9,24.9,35.4,25.2,36.9,23.7L36.9,23.7z"/>
							<path class="st36" d="M36.6,23.5c1.7-1.7,1.8-5.4,0.9-7c-1.1-2-2.3-2.5-3.5-3.2c-1.1-0.5-1.9-1.2-3.4-1.7
								c-1.4-0.5-3.1,0.2-4.8,0.8c-1.8,0.8-8,3.2-9.3,4.7c-1.1,1-1.3,2.8-0.9,4.2c0.4,1.5,1.4,2.5,2,2.8c0.7,0.8,3,2.5,4.5,3.2
								c1.3,0.6,2.3-0.5,3.1-0.3c0.7,0.2,2.2,1.4,4.7,0.6c1.6-0.5,2.5-2.3,3-2.7C33.6,24.7,35.2,25,36.6,23.5z"/>
							<path class="st37" d="M36.4,23.3c1.6-1.5,1.8-5,0.9-6.7c-1.1-2-2.3-2.5-3.4-3c-0.9-0.5-1.8-1.2-3.4-1.7c-1.4-0.5-3,0-4.7,0.8
								c-1.7,0.5-8,3-9.3,4.4c-0.9,1-1.2,2.8-0.7,4.2c0.4,1.5,1.4,2.3,2,2.7c0.7,0.8,2.9,2.3,4.4,3.2c1.3,0.5,2.2-0.6,3-0.3
								s2,1.5,4.7,0.6c1.6-0.5,2.3-2.3,2.9-2.7C33.5,24.4,34.9,24.7,36.4,23.3L36.4,23.3z"/>
							<path class="st38" d="M36.1,23.2c1.6-1.5,1.7-4.9,0.9-6.6c-1.1-2-2.2-2.3-3.4-3c-0.9-0.5-1.7-1.2-3.2-1.7
								c-1.4-0.5-2.9,0-4.5,0.6c-1.7,0.8-8,3.4-9.2,4.5c-1.1,1-1.3,2.7-0.7,4c0.4,1.5,1.6,2.3,2.2,2.7c0.7,0.6,2.7,2.3,4.3,3
								c1.3,0.5,2.2-0.6,2.9-0.5s1.9,1.7,4.7,0.8c1.6-0.5,2.3-2.3,2.9-2.7C33.3,24,34.7,24.5,36.1,23.2L36.1,23.2z"/>
							<path class="st39" d="M35.7,23c1.6-1.4,1.8-4.5,1.1-6.2c-0.9-2-2.2-2.3-3.2-2.8c-0.9-0.5-1.6-1.2-3.1-1.7
								c-1.3-0.5-2.7,0-4.4,0.6c-1.7,0.6-8.1,3-9.3,4.2c-0.9,1-1.2,2.7-0.7,4c0.5,1.4,1.6,2.2,2.3,2.5c0.7,0.6,2.6,2.3,4.2,3
								c1.2,0.5,2.2-0.8,2.9-0.6c0.6,0.2,1.8,1.9,4.5,1c1.6-0.5,2.3-2.3,2.7-2.7C33.1,23.7,34.4,24.1,35.7,23L35.7,23z"/>
							<path class="st40" d="M35.4,22.8c1.6-1.4,1.8-4.4,1.1-6.1c-0.9-2-2-2.2-3.1-2.8c-0.9-0.5-1.4-1-3-1.7c-1.3-0.5-2.7,0-4.3,0.6
								c-1.8,0.6-8.3,3.2-9.3,4.2c-1.1,1-1.2,2.7-0.7,3.9c0.5,1.5,1.7,2,2.5,2.5c0.7,0.5,2.3,2.2,3.8,2.8c1.2,0.5,2-1,2.7-0.8
								c0.7,0.2,1.8,1.9,4.5,1c1.6-0.5,2.2-2.5,2.6-2.7C32.9,23.3,34.2,24,35.4,22.8L35.4,22.8z"/>
							<path class="st41" d="M35.2,22.7c1.6-1.2,1.8-4.2,1.1-5.9c-0.9-1.9-2-2.2-3.1-2.7c-0.7-0.5-1.3-1-2.9-1.7
								c-1.3-0.5-2.5-0.2-4.1,0.5c-1.7,0.8-8.3,3.2-9.2,4.2c-0.9,1-1.3,2.5-0.7,3.9c0.5,1.4,1.7,1.9,2.5,2.3
								c0.7,0.3,2.2,2.2,3.7,2.7c1.2,0.5,2-1.2,2.7-0.8c0.6,0.2,1.7,2,4.4,1.2c1.6-0.5,2-2.5,2.6-2.8C32.8,23,33.8,23.8,35.2,22.7
								L35.2,22.7z"/>
							<path class="st42" d="M34.9,22.5c1.4-1.2,1.8-3.9,1.1-5.6c-0.9-2-1.9-2-3-2.7c-0.7-0.5-1.2-1-2.7-1.5
								c-1.2-0.5-2.5-0.2-4.2,0.5c-1.7,0.6-8.3,3-9.2,3.9c-1.1,0.8-1.2,2.5-0.6,3.7c0.5,1.4,1.8,1.9,2.6,2.2c0.6,0.3,2,2,3.6,2.7
								c1.2,0.5,2-1.2,2.6-1c0.6,0.2,1.6,2.2,4.4,1.4c1.7-0.5,2-2.5,2.5-2.8C32.5,22.8,33.5,23.5,34.9,22.5L34.9,22.5z"/>
							<path class="st43" d="M34.7,22.4c1.4-1.2,1.8-3.7,1.1-5.4c-0.7-1.9-1.9-2-3-2.5c-0.7-0.5-1.2-1-2.6-1.5
								c-1.2-0.5-2.3-0.2-4,0.5c-1.6,0.6-8.3,3-9.1,3.7c-1.1,0.8-1.2,2.5-0.6,3.7c0.5,1.4,1.8,1.7,2.7,2c0.6,0.3,1.8,2,3.4,2.5
								c1.2,0.3,1.9-1.4,2.5-1.2c0.6,0.2,1.4,2.3,4.3,1.5c1.7-0.5,2-2.5,2.5-2.8C32.4,22.5,33.3,23.3,34.7,22.4z"/>
							<path class="st44" d="M34.4,22.2c1.4-1,1.8-3.6,1.2-5c-0.7-1.9-1.8-1.9-2.9-2.5c-0.7-0.5-1.1-1-2.5-1.5
								c-1.2-0.5-2.3-0.3-3.8,0.3c-1.7,0.6-8.3,3-9.2,3.7c-1.1,0.6-1.3,2.5-0.7,3.7c0.5,1.4,1.8,1.7,2.9,2c0.6,0.2,1.7,1.9,3.2,2.5
								c1.2,0.3,1.9-1.5,2.5-1.4c0.6,0.3,1.4,2.5,4.3,1.5c1.7-0.5,1.9-2.5,2.3-2.8C32.1,22.2,33,23,34.4,22.2L34.4,22.2z"/>
							<path class="st45" d="M34.1,22c1.4-1,1.8-3.2,1.2-4.9c-0.7-1.9-1.8-1.9-2.7-2.3c-0.7-0.3-0.9-0.8-2.5-1.5
								c-1.1-0.5-2.2-0.3-3.7,0.3c-1.7,0.6-8.4,3-9.1,3.6c-1.1,0.6-1.2,2.3-0.6,3.6c0.6,1.2,1.9,1.5,2.9,1.9
								c0.6,0.2,1.6,1.9,3.1,2.3c1.2,0.3,1.9-1.7,2.3-1.4c0.6,0.3,1.3,2.7,4.2,1.7c1.7-0.5,1.9-2.7,2.2-2.8
								C32,21.8,32.8,22.8,34.1,22L34.1,22z"/>
							<path class="st46" d="M33.8,21.6c1.4-0.8,1.8-3,1.2-4.5c-0.7-1.7-1.7-1.7-2.7-2.3c-0.6-0.3-0.7-0.8-2.3-1.5
								c-1.1-0.5-2-0.3-3.6,0.3c-1.6,0.6-8.4,3-9.1,3.4c-0.9,0.8-1.1,2.5-0.5,3.7c0.6,1.2,1.9,1.5,3,1.7c0.5,0.2,1.4,1.9,3,2.2
								c1.2,0.3,1.8-1.7,2.3-1.5c0.5,0.3,1.2,2.7,4.2,1.9c1.7-0.5,1.8-2.7,2.2-2.8C31.7,21.5,32.5,22.7,33.8,21.6L33.8,21.6z"/>
							<path class="st21" d="M33.5,21.5c1.4-0.8,1.8-2.7,1.2-4.4s-1.7-1.7-2.6-2.2c-0.6-0.3-0.6-0.8-2.2-1.5
								c-1.1-0.5-1.9-0.5-3.5,0.3c-1.6,0.8-8.4,3-9.1,3.4c-1.1,0.5-1.2,2.3-0.5,3.4c0.6,1.2,1.9,1.5,3.1,1.7
								c0.5,0.2,1.2,1.7,2.7,2.2c1.1,0.3,1.8-1.9,2.2-1.7c0.5,0.3,1.2,2.8,4,1.9c1.7-0.5,1.8-2.7,2-2.8
								C31.6,21.1,32.2,22.4,33.5,21.5L33.5,21.5z"/>
						</g>
						<path class="st24" d="M32.4,14.4c-0.1,0-0.2,0-0.4,0c-0.4-1.7-1.7-2.8-3.1-2.8c-0.6,0-1.3,0.2-1.8,0.6
							c-0.4-1.4-1.3-2.2-2.5-2.2c-1.3,0-2.3,1.2-2.5,2.7c-0.4-0.3-0.7-0.5-1.3-0.5c-0.9,0-1.8,1-1.9,2.5l0,0c-1.7,0-3,1.7-3,4
							s1.3,3.9,3,3.9c0.5,0,1.1-0.2,1.4-0.5c0.1,1.4,1.1,2.3,2.2,2.3c0.9,0,1.6-0.6,1.9-1.7c0.6,1.4,1.8,2.2,3.1,2.2
							c1.7,0,3.1-1.4,3.5-3.4C31.4,22,32,22,32.3,22c1.6,0,3-1.7,3-3.9S34.1,14.6,32.4,14.4L32.4,14.4z"/>
						<path class="st25" d="M32.5,14.6c-0.1,0-0.2,0-0.4,0c-0.4-1.7-1.7-2.8-3.1-2.8c-0.6,0-1.3,0.3-1.8,0.6
							c-0.4-1.4-1.3-2.2-2.5-2.2c-1.3,0-2.3,1.2-2.5,2.7c-0.4-0.3-0.7-0.5-1.3-0.5c-1.1,0-1.9,1-2,2.3l0,0c-1.7,0-3,1.7-3,4
							s1.3,3.9,3,3.9c0.5,0,1.1-0.2,1.4-0.5c0.1,1.4,1.1,2.3,2.2,2.3c0.9,0,1.6-0.6,1.9-1.7c0.6,1.4,1.8,2.2,3.1,2.2
							c1.7,0,3.1-1.4,3.5-3.4C31.4,22,32,22,32.3,22c1.6,0,3-1.7,3-3.9S34.2,14.6,32.5,14.6L32.5,14.6z"/>
					</g>
					<g>
						<g>
							<path class="st0" d="M27.6,30.5c0.9-1.9,0.5-5.3-0.1-6.4c-0.9-1.5-2-2.2-2.9-2.8c-0.8-0.6-2.6-1.5-3.6-1.5
								c-1.4,0-2.2,0.6-3.4,1.2c-1.3,0.5-3.4,3-4.5,4.7c-1.4,2-1.1,4.9-0.6,5.4c0.6,1,1.4,2.2,2.5,2.7c0.9,0.6,1.8,0.5,2.5,0.6
								c0.5,0,1.2,0.3,2.6,0c1.1-0.3,1.4-0.3,1.9-0.6C23.1,33.3,26.4,32.6,27.6,30.5L27.6,30.5z"/>
							<path class="st27" d="M27.4,30.5c0.9-1.9,0.5-5-0.1-6.4c-0.9-1.5-2-2.2-2.9-2.7c-0.8-0.5-2.5-1.5-3.5-1.5
								c-1.4,0-2.2,0.6-3.4,1c-1.3,0.5-3.4,3-4.4,4.5c-1.3,1.9-1.1,4.7-0.6,5.4c0.5,1,1.3,2,2.3,2.7c0.9,0.5,1.8,0.5,2.5,0.5
								c0.5,0,1.2,0.3,2.6,0c1.1-0.3,1.4-0.3,1.9-0.5C23,33.1,26.3,32.4,27.4,30.5z"/>
							<path class="st28" d="M27.2,30.2c0.9-1.7,0.6-4.9,0-6.2c-0.9-1.5-2-2.2-2.9-2.7c-0.7-0.3-2.5-1.4-3.5-1.4
								c-1.4,0-2.2,0.6-3.2,1c-1.3,0.5-3.2,2.8-4.4,4.5c-1.3,1.9-1.1,4.5-0.6,5.3c0.6,1,1.3,2,2.3,2.5c1.1,0.5,1.7,0.5,2.5,0.5
								c0.5,0,1.2,0.3,2.6,0c1.1-0.3,1.6-0.3,1.9-0.5C23,32.8,26.1,32.4,27.2,30.2L27.2,30.2z"/>
							<path class="st29" d="M26.9,30.2c0.9-1.7,0.6-4.7,0-6.1c-0.7-1.5-2-2.2-2.9-2.7c-0.8-0.5-2.3-1.5-3.4-1.5
								c-1.3,0-2.2,0.5-3.2,1c-1.2,0.5-3.1,2.8-4.2,4.4c-1.2,1.7-1.2,4.4-0.6,5c0.6,1,1.3,2,2.3,2.5c0.9,0.5,1.7,0.5,2.3,0.5
								c0.5,0,1.2,0.3,2.6,0c1.1-0.3,1.6-0.3,1.9-0.5C22.8,32.6,25.9,32.1,26.9,30.2L26.9,30.2z"/>
							<path class="st30" d="M26.8,30.1c0.9-1.5,0.7-4.5,0.1-5.7c-0.7-1.5-2-2.2-2.7-2.5c-0.7-0.5-2.3-1.5-3.2-1.5
								c-1.3,0-2,0.5-3.2,1c-1.4,0.2-3.4,2.7-4.4,4c-1.2,1.7-1.2,4.4-0.7,5c0.5,1,1.3,1.9,2.3,2.3c1.1,0.5,1.7,0.3,2.3,0.3
								c0.5,0,1.2,0.3,2.6,0c1.1-0.2,1.6-0.3,1.9-0.5C22.8,32.4,25.6,32.1,26.8,30.1L26.8,30.1z"/>
							<path class="st31" d="M26.6,30.1c0.9-1.5,0.7-4.4,0.1-5.7c-0.7-1.5-1.9-2-2.7-2.5c-0.7-0.5-2.2-1.5-3.2-1.5
								c-1.3,0-2,0.5-3.2,0.8c-1.2,0.3-3.1,2.8-4,4.2c-1.2,1.5-1.2,4.2-0.7,4.9c0.5,0.8,1.2,1.9,2.2,2.3c1.1,0.5,1.7,0.2,2.3,0.3
								c0.5,0.2,1.2,0.3,2.6,0c1.1-0.2,1.6-0.5,1.9-0.5C22.6,32.1,25.5,31.8,26.6,30.1L26.6,30.1z"/>
							<path class="st32" d="M26.4,29.9c0.9-1.5,0.7-4.2,0.2-5.6c-0.7-1.5-1.9-2-2.7-2.5c-0.6-0.5-2.2-1.5-3.1-1.5
								c-1.3,0-2.2,0.5-3.4,0.8c-1.2,0.5-3,2.8-3.8,4.2c-1.1,1.5-1.2,4-0.7,4.7c0.5,0.8,1.2,1.9,2.2,2.3c1.1,0.5,1.7,0.2,2.3,0.3
								c0.5,0.2,1.2,0.3,2.6,0c1.1-0.2,1.6-0.5,1.9-0.5C22.6,31.9,25.3,31.6,26.4,29.9L26.4,29.9z"/>
							<path class="st33" d="M26.2,29.9c0.9-1.4,0.9-4,0.2-5.4c-0.7-1.5-1.9-2-2.7-2.5c-0.6-0.3-2-1.5-3-1.5
								c-1.2-0.2-2.2,0.3-3.2,0.8c-1.2,0.3-3,2.7-3.8,4c-1.1,1.5-1.3,3.9-0.7,4.7c0.6,0.8,1.2,1.7,2.2,2c1.1,0.3,1.7,0.2,2.2,0.2
								c0.5,0.2,1.2,0.3,2.6,0c1.1-0.2,1.6-0.5,1.9-0.5C22.6,31.8,25.1,31.6,26.2,29.9z"/>
							<path class="st34" d="M26.1,29.7c0.9-1.4,0.9-3.9,0.2-5c-0.6-1.7-1.9-2-2.7-2.5c-0.6-0.3-2-1.5-3-1.7c-1.2,0-2,0.5-3.1,0.8
								c-1.2,0.5-3,2.7-3.8,3.9c-1.1,1.4-1.3,3.7-0.7,4.5c0.6,0.8,1.1,1.7,2,2.2c1.1,0.5,1.7,0,2.2,0.2c0.5,0.2,1.2,0.3,2.6,0
								c1.1-0.2,1.6-0.5,1.9-0.5C22.5,31.4,24.9,31.4,26.1,29.7L26.1,29.7z"/>
							<path class="st35" d="M25.7,29.7c0.9-1.4,1.1-3.7,0.4-5c-0.7-1.7-1.9-1.9-2.7-2.3c-0.6-0.3-1.9-1.5-2.9-1.7
								c-1.2-0.2-2,0.3-3.1,0.6c-1.2,0.5-3,2.8-3.7,3.9c-0.9,1.4-1.3,3.6-0.7,4.4c0.5,0.6,1.1,1.7,2,2c1.1,0.3,1.7,0,2.2,0.2
								c0.5,0.2,1.2,0.3,2.5,0c1.1-0.2,1.6-0.5,1.9-0.5C22.5,31.3,24.8,31.1,25.7,29.7L25.7,29.7z"/>
							<path class="st36" d="M25.6,29.6c0.9-1.2,1.1-3.6,0.5-4.9c-0.7-1.7-1.9-1.9-2.7-2.3c-0.6-0.3-1.9-1.5-2.9-1.7
								c-1.1,0-2,0.3-3.1,0.8c-1.2,0.3-2.9,2.7-3.6,3.7c-0.9,1.2-1.4,3.6-0.7,4.4c0.4,0.6,1.1,1.7,2,2c1.1,0.3,1.7,0,2.2,0
								c0.5,0.2,1.2,0.3,2.5,0c1.1-0.2,1.6-0.5,1.9-0.5C22.4,31.1,24.6,31.1,25.6,29.6L25.6,29.6z"/>
							<path class="st37" d="M25.4,29.6c0.9-1.2,1.2-3.4,0.5-4.7c-0.6-1.7-1.9-1.9-2.7-2.3c-0.6-0.3-1.8-1.5-2.7-1.7
								c-1.1,0-2,0.3-3.1,0.6c-1.2,0.5-2.7,2.7-3.5,3.7c-0.9,1.2-1.4,3.4-0.7,4.2c0.4,0.6,0.9,1.5,1.9,1.9c1.1,0.3,1.7-0.2,2,0
								c0.4,0.2,1.2,0.3,2.5,0.2c1.1-0.2,1.7-0.5,1.9-0.5C22.4,30.8,24.3,30.9,25.4,29.6L25.4,29.6z"/>
							<path class="st38" d="M25.3,29.4c0.9-1.2,1.2-3.2,0.6-4.5c-0.6-1.7-1.9-1.9-2.7-2.2c-0.6-0.3-1.8-1.5-2.7-1.7
								c-1.1-0.2-2,0.2-3.1,0.5c-1.2,0.5-2.7,2.7-3.4,3.7c-0.7,1-1.4,3.2-0.9,4c0.4,0.6,0.9,1.5,1.9,1.9c1,0.3,1.6-0.2,2,0
								c0.5,0.2,1.1,0.3,2.5,0.2c1.1-0.2,1.7-0.5,1.9-0.5C22.3,30.6,24.2,30.8,25.3,29.4z"/>
							<path class="st39" d="M25,29.4c0.9-1,1.3-3,0.6-4.4c-0.6-1.7-1.9-1.9-2.6-2.2c-0.5-0.3-1.7-1.5-2.6-1.7
								c-1.1-0.2-2,0.2-3.1,0.5c-1.2,0.3-2.7,2.7-3.4,3.6c-0.7,1-1.4,3-0.9,4c0.4,0.6,0.9,1.5,1.9,1.7c1.1,0.2,1.6-0.2,2-0.2
								s1.2,0.3,2.5,0.2c1.1-0.2,1.7-0.5,1.9-0.5C22.3,30.5,23.9,30.6,25,29.4z"/>
							<path class="st40" d="M24.9,29.2c0.9-1,1.3-2.8,0.7-4.2c-0.6-1.7-1.9-1.7-2.6-2.2c-0.5-0.3-1.7-1.5-2.6-1.9
								c-1.1,0-2,0.3-3.1,0.6c-1.2,0.5-2.6,2.5-3.2,3.4c-0.6,1-1.6,2.8-0.9,3.9c0.4,0.6,0.9,1.4,1.9,1.7c1.1,0.3,1.6-0.3,1.9-0.2
								c0.4,0.2,1.2,0.3,2.5,0.2c1.1-0.2,1.7-0.5,1.9-0.5C22.1,30.1,23.8,30.5,24.9,29.2L24.9,29.2z"/>
							<path class="st41" d="M24.6,29.2c0.9-1,1.4-2.7,0.7-4c-0.6-1.7-1.9-1.7-2.6-2.2c-0.5-0.3-1.6-1.5-2.5-1.9
								c-0.9-0.3-2,0.2-3,0.5c-1.2,0.5-2.6,2.5-3.1,3.4c-0.6,0.8-1.6,2.7-0.9,3.7c0.4,0.5,0.7,1.4,1.8,1.5s1.6-0.3,1.9-0.2
								c0.4,0.2,1.1,0.3,2.5,0.2c1.1-0.2,1.7-0.5,1.9-0.5C22.1,29.9,23.6,30.2,24.6,29.2z"/>
							<path class="st42" d="M24.5,29.1c0.9-0.8,1.4-2.3,0.9-3.9c-0.6-1.7-1.9-1.7-2.6-2c-0.6-0.3-1.7-1.5-2.5-1.9
								c-0.7-0.3-2,0-3,0.3c-1.2,0.5-2.6,2.7-3.1,3.4c-0.6,0.8-1.6,2.7-0.9,3.7c0.4,0.5,0.7,1.4,1.8,1.5c1.1,0.2,1.6-0.3,1.9-0.3
								c0.4,0.2,1.1,0.5,2.5,0.2c1.2-0.2,1.7-0.5,1.9-0.5C22.1,29.7,23.5,30.1,24.5,29.1L24.5,29.1z"/>
							<path class="st43" d="M24.2,29.1c0.9-0.8,1.4-2.2,0.9-3.7c-0.6-1.7-1.9-1.7-2.6-2c-0.5-0.3-1.4-1.5-2.3-1.9
								c-0.9-0.3-2,0-3,0.3c-1.1,0.5-2.5,2.5-2.9,3.2c-0.6,0.6-1.7,2.5-1.1,3.6c0.2,0.5,0.7,1.4,1.8,1.4s1.6-0.5,1.9-0.3
								c0.4,0.2,1.1,0.3,2.5,0.2c1.2-0.2,1.7-0.5,1.9-0.5C22,29.6,23.3,29.9,24.2,29.1L24.2,29.1z"/>
							<path class="st44" d="M23.9,28.9c0.9-0.6,1.6-2,1.1-3.6c-0.6-1.7-1.9-1.5-2.6-2c-0.5-0.3-1.4-1.7-2.2-1.9c-0.7-0.2-2,0-3,0.3
								c-1.1,0.5-2.5,2.5-2.9,3.2c-0.5,0.6-1.7,2.3-0.9,3.4c0.2,0.5,0.6,1.2,1.7,1.4s1.6-0.5,1.8-0.3c0.4,0.2,1.1,0.3,2.5,0.2
								c1.2-0.2,1.7-0.6,1.9-0.5C22,29.2,23.1,29.7,23.9,28.9L23.9,28.9z"/>
							<path class="st45" d="M23.8,28.9c0.9-0.6,1.6-1.9,1.1-3.4c-0.5-1.7-1.9-1.5-2.6-1.9c-0.4-0.3-1.3-1.7-2-2c-0.7-0.2-2,0-3,0.3
								c-1.1,0.5-2.3,2.5-2.7,3c-0.5,0.6-1.7,2.2-0.9,3.4c0.2,0.3,0.6,1.2,1.7,1.2c1.1,0.2,1.6-0.6,1.8-0.5c0.4,0.2,1.1,0.3,2.5,0.2
								c1.2-0.2,1.7-0.6,1.9-0.5C22,29.1,23,29.6,23.8,28.9L23.8,28.9z"/>
							<path class="st46" d="M23.6,28.8c0.9-0.6,1.7-1.7,1.2-3.2c-0.5-1.7-1.9-1.5-2.6-1.9c-0.5-0.3-1.3-1.7-2-1.9
								c-0.6-0.2-1.9-0.2-2.9,0.2c-1.2,0.5-2.3,2.5-2.7,3c-0.4,0.5-1.7,2-0.9,3.2c0.2,0.3,0.5,1.2,1.7,1.2c1.1,0,1.6-0.6,1.8-0.5
								c0.4,0.2,1.1,0.3,2.5,0.2c1.2-0.2,1.8-0.6,1.9-0.5C21.9,28.9,22.6,29.4,23.6,28.8L23.6,28.8z"/>
							<path class="st21" d="M23.5,28.8c0.9-0.5,1.7-1.5,1.2-3c-0.5-1.7-1.8-1.5-2.5-1.9c-0.4-0.2-1.3-1.7-2-1.9
								c-0.6-0.3-1.9-0.3-2.9,0.2c-1.1,0.5-2.2,2.3-2.6,2.8c-0.4,0.5-1.8,1.9-1.1,3.2c0.2,0.2,0.5,0.8,1.7,0.8
								c1.1,0,1.6-0.6,1.8-0.5c0.4,0.2,1.1,0.3,2.5,0.2c1.2-0.2,1.8-0.6,1.9-0.5C21.9,28.6,22.5,29.2,23.5,28.8L23.5,28.8z"/>
						</g>
						<path class="st24" d="M22.8,23.7c-0.2,0-0.5,0-0.7,0.2c-0.2-2-1.6-3.6-3.1-3.6c-1.6-0.2-3,1.2-3.4,2.8l0,0
							c-1.3-0.2-2.5,1.2-2.5,3s0.9,3.2,2.3,3.2c0.6,0,1.3-0.3,1.8-0.8c0.5,0.3,1.1,0.5,1.6,0.6c1.1,0,1.9-0.5,2.6-1.4
							c0.4,0.5,0.9,1,1.4,1c1.2,0,2-1,2-2.3C24.8,25,23.9,23.8,22.8,23.7L22.8,23.7z"/>
					</g>
				</g>
			</g>
		</g>
	</g>
</g>
</svg>
