<?xml version="1.0" encoding="utf-8"?>
<!-- Generator: Adobe Illustrator 27.0.1, SVG Export Plug-In . SVG Version: 6.00 Build 0)  -->
<!DOCTYPE svg PUBLIC "-//W3C//DTD SVG 1.1//EN" "http://www.w3.org/Graphics/SVG/1.1/DTD/svg11.dtd" [
	<!ENTITY ns_extend "http://ns.adobe.com/Extensibility/1.0/">
	<!ENTITY ns_ai "http://ns.adobe.com/AdobeIllustrator/10.0/">
	<!ENTITY ns_graphs "http://ns.adobe.com/Graphs/1.0/">
	<!ENTITY ns_vars "http://ns.adobe.com/Variables/1.0/">
	<!ENTITY ns_imrep "http://ns.adobe.com/ImageReplacement/1.0/">
	<!ENTITY ns_sfw "http://ns.adobe.com/SaveForWeb/1.0/">
	<!ENTITY ns_custom "http://ns.adobe.com/GenericCustomNamespace/1.0/">
	<!ENTITY ns_adobe_xpath "http://ns.adobe.com/XPath/1.0/">
]>
<svg version="1.1" id="Ebene_1" xmlns:x="&ns_extend;" xmlns:i="&ns_ai;" xmlns:graph="&ns_graphs;"
	 xmlns="http://www.w3.org/2000/svg" xmlns:xlink="http://www.w3.org/1999/xlink" x="0px" y="0px" viewBox="0 0 56.1 18.8"
	 style="enable-background:new 0 0 56.1 18.8;" xml:space="preserve">
<style type="text/css">
	.st0{fill:#EEF7FA;}
	.st1{fill:#E4F1F5;}
	.st2{fill:#FFFFFF;}
	.st3{fill:#E9F2F5;}
</style>
<metadata>
	<sfw  xmlns="&ns_sfw;">
		<slices></slices>
		<sliceSourceBounds  bottomLeftOrigin="true" height="25" width="59.4" x="-8.5" y="1.5"></sliceSourceBounds>
	</sfw>
</metadata>
<g id="Ebene_2_00000037678242430396988310000005266266339214037164_">
	<g id="Paper-Icons">
		<g>
			<g>
				<path class="st0" d="M48.7,9.5c-0.2-0.7-0.6-1.2-1.1-1.7c0.1-0.4,0.2-0.8,0.2-1.2c0.1-2.1-1.5-3.9-3.6-4c-1.6-0.1-3,0.9-3.6,2.2
					c-0.1,0-0.2,0-0.3,0c-1.3-0.1-2.5,0.6-3.3,1.5c-0.2-0.1-0.4-0.1-0.7-0.1c-1.1-0.1-2.1,0.8-2.2,2c0,0.2,0,0.4,0,0.6
					c-0.4,0.1-0.8,0.3-1,0.7c-0.3-0.5-0.9-0.8-1.5-0.8c-0.9,0-1.6,0.5-1.9,1.2c0,0-0.1,0-0.1,0c-0.8,0-1.5,0.6-1.5,1.4
					c0,0.8,0.6,1.5,1.4,1.5c0.4,0,0.8-0.1,1-0.4c0.3,0.2,0.6,0.3,0.9,0.3c0.3,0.7,1,1.2,1.8,1.2c0.8,0,1.6-0.4,1.9-1.1
					c0.2,0.1,0.5,0.2,0.8,0.2c0.1,0,0.2,0,0.3,0c0.5,0.6,1.2,1.1,2.1,1.1c0.8,0,1.6-0.3,2.2-0.9c0.3,0.6,1,1.1,1.8,1.1
					c0.8,0,1.5-0.4,1.9-1.1c0.4,0.2,0.8,0.3,1.3,0.4c1,0,2-0.4,2.6-1.2c0.1,0.1,0.3,0.1,0.5,0.1c0.8,0,1.5-0.6,1.6-1.4
					C50.2,10.2,49.5,9.5,48.7,9.5L48.7,9.5z"/>
				<path class="st1" d="M48.8,9.5c-0.2-0.7-0.6-1.2-1.1-1.7c0.1-0.4,0.2-0.8,0.2-1.2c0.1-2.1-1.5-3.9-3.6-4c-1.6-0.1-3,0.9-3.6,2.2
					c-0.1,0-0.2,0-0.3,0c-1.3-0.1-2.5,0.6-3.3,1.5c-0.2-0.1-0.4-0.1-0.7-0.1c-1.1-0.1-2.1,0.8-2.2,2c0,0.2,0,0.4,0,0.6
					c-0.4,0.1-0.8,0.3-1,0.7c-0.3-0.5-0.9-0.8-1.5-0.8c-0.9,0-1.6,0.5-1.9,1.2c0,0-0.1,0-0.1,0c-0.8,0-1.5,0.6-1.5,1.4
					c0,0.8,0.6,1.5,1.4,1.5c0.4,0,0.8-0.1,1-0.4c0.3,0.2,0.6,0.3,0.9,0.3c0.3,0.7,1,1.2,1.8,1.2c0.8,0,1.6-0.4,1.9-1.1
					c0.2,0.1,0.5,0.2,0.8,0.2c0.1,0,0.2,0,0.3,0c0.5,0.6,1.2,1.1,2.1,1.1c0.8,0,1.6-0.3,2.2-0.9c0.3,0.6,1,1.1,1.8,1.1
					c0.8,0,1.5-0.4,1.9-1.1c0.4,0.2,0.8,0.3,1.3,0.4c1,0,2-0.4,2.6-1.2c0.1,0.1,0.3,0.1,0.5,0.1c0.8,0,1.5-0.6,1.6-1.4
					C50.2,10.3,49.6,9.6,48.8,9.5L48.8,9.5z"/>
			</g>
			<g>
				<path class="st2" d="M42.7,7.4c0.1-0.3,0.2-0.7,0.2-1.1c0-2.3-1.8-4.1-4.1-4.1c-1.9,0-3.5,1.3-4,3.1c0,0-0.1,0-0.1,0
					c-0.9,0-1.7,0.5-2.1,1.2c-0.2-0.1-0.5-0.2-0.8-0.2c-1.1,0-2,0.9-2,2s0.9,2,2,2c0.5,0,0.9-0.2,1.3-0.5c0.4,0.4,1,0.6,1.6,0.6
					c0.7,0,1.3-0.3,1.8-0.7c0.7,0.5,1.5,0.7,2.3,0.7c0.8,0,1.5-0.2,2.2-0.6c0.3,0.4,0.7,0.6,1.2,0.6c0.9,0,1.5-0.7,1.5-1.6
					C43.6,8.1,43.2,7.6,42.7,7.4L42.7,7.4z"/>
				<path class="st1" d="M42.8,7.4c0.1-0.3,0.2-0.7,0.2-1.1c0-2.3-1.8-4.1-4.1-4.1c-1.9,0-3.5,1.3-4,3.1c0,0-0.1,0-0.1,0
					c-0.9,0-1.7,0.5-2.2,1.2c-0.2-0.1-0.5-0.2-0.8-0.2c-1.1,0-2,0.9-2,2s0.9,2,2,2c0.5,0,0.9-0.2,1.3-0.5c0.4,0.4,1,0.6,1.6,0.6
					c0.7,0,1.3-0.3,1.8-0.7c0.7,0.5,1.5,0.7,2.3,0.7c0.8,0,1.5-0.2,2.2-0.6c0.3,0.4,0.7,0.6,1.2,0.6c0.9,0,1.5-0.7,1.5-1.6
					C43.7,8.2,43.3,7.7,42.8,7.4L42.8,7.4z"/>
			</g>
			<g>
				<path class="st2" d="M48.8,6.7c0,0-0.1,0-0.1,0C48.4,6,47.7,5.5,47,5.5c-0.2,0-0.5,0-0.7,0.1c-0.2-0.7-0.9-1.1-1.6-1.1
					S43.4,5,43.1,5.6c-0.1,0-0.2,0-0.3,0c-0.8,0-1.4,0.6-1.5,1.3c-0.1,0-0.2,0-0.3,0c-0.9,0-1.7,0.8-1.7,1.7s0.8,1.7,1.7,1.7
					c0,0,0,0,0,0c0.2,0.7,0.8,1.2,1.5,1.2c0.6,0,1.1-0.3,1.3-0.8c0.4,0.6,1.1,1.1,1.8,1.1c0.9,0,1.6-0.5,2-1.3
					c0.3,0.2,0.6,0.3,1,0.3c1.1,0,2-0.9,2-2S49.9,6.7,48.8,6.7L48.8,6.7z"/>
				<path class="st3" d="M48.8,6.8c0,0-0.1,0-0.1,0c-0.2-0.7-0.9-1.2-1.7-1.2c-0.2,0-0.5,0-0.7,0.1c-0.2-0.7-0.9-1.1-1.6-1.1
					S43.4,5,43.2,5.6c-0.1,0-0.2,0-0.3,0c-0.8,0-1.4,0.6-1.5,1.3c-0.1,0-0.2,0-0.3,0c-0.9,0-1.7,0.8-1.7,1.7s0.8,1.7,1.7,1.7
					c0,0,0,0,0,0c0.2,0.7,0.8,1.2,1.5,1.2c0.6,0,1.1-0.3,1.3-0.8c0.4,0.6,1.1,1.1,1.8,1.1c0.9,0,1.6-0.5,2-1.3
					c0.3,0.2,0.6,0.3,1,0.3c1.1,0,2-0.9,2-2S49.9,6.7,48.8,6.8L48.8,6.8z"/>
			</g>
			<g>
				<path class="st2" d="M47.2,2.7c-0.1,0-0.2,0-0.3,0c-0.3-1-1.3-1.7-2.4-1.7c-0.5,0-1,0.1-1.4,0.4c-0.3-0.8-1-1.3-1.8-1.3
					c-1,0-1.8,0.7-1.9,1.6c-0.3-0.2-0.6-0.3-1-0.3c-0.8,0-1.5,0.6-1.6,1.4c0,0,0,0,0,0c-1.3,0-2.3,1-2.3,2.3s1,2.3,2.3,2.3
					c0.4,0,0.8-0.1,1.1-0.3c0.1,0.8,0.8,1.4,1.7,1.4c0.7,0,1.2-0.4,1.5-1C41.6,8.5,42.5,9,43.5,9c1.3,0,2.4-0.8,2.7-2
					c0.3,0.2,0.7,0.2,1,0.2c1.2,0,2.3-1,2.3-2.3S48.5,2.8,47.2,2.7L47.2,2.7z"/>
				<path class="st0" d="M47.3,2.8c-0.1,0-0.2,0-0.3,0c-0.3-1-1.3-1.7-2.4-1.7c-0.5,0-1,0.2-1.4,0.4c-0.3-0.8-1-1.3-1.8-1.3
					c-1,0-1.8,0.7-1.9,1.6c-0.3-0.2-0.6-0.3-1-0.3c-0.8,0-1.5,0.6-1.6,1.4h0c-1.3,0-2.3,1-2.3,2.3s1,2.3,2.3,2.3
					c0.4,0,0.8-0.1,1.1-0.3c0.1,0.8,0.8,1.4,1.7,1.4c0.7,0,1.2-0.4,1.5-1c0.5,0.8,1.4,1.3,2.4,1.3c1.3,0,2.4-0.8,2.7-2
					c0.3,0.2,0.7,0.2,1,0.2c1.2,0,2.3-1,2.3-2.3S48.6,2.8,47.3,2.8L47.3,2.8z"/>
			</g>
			<g>
				<path class="st2" d="M39.8,8.2c-0.2,0-0.4,0-0.6,0.1C39,7.1,38,6.2,36.8,6.2c-1.2-0.1-2.3,0.7-2.6,1.8l0,0
					c-1-0.1-1.9,0.7-1.9,1.8s0.7,1.9,1.8,1.9c0.5,0,1-0.2,1.4-0.5c0.3,0.2,0.8,0.3,1.2,0.4c0.8,0,1.5-0.3,2-0.8
					c0.3,0.3,0.7,0.6,1.1,0.6c0.8,0,1.6-0.6,1.6-1.4C41.3,9,40.7,8.3,39.8,8.2L39.8,8.2z"/>
			</g>
		</g>
		<g>
			<g>
				<path class="st2" d="M17.7,4.7c-0.1,0-0.1,0-0.2,0c-0.4-1-1.4-1.8-2.5-1.8c-0.4,0-0.7,0.1-1,0.2c-0.4-1-1.3-1.7-2.4-1.7
					s-2,0.7-2.4,1.6C8.9,3,8.8,3,8.7,3c-1.2,0-2.2,0.9-2.3,2C6.2,5,6.1,5,5.9,5C4.5,5,3.3,6.2,3.3,7.6s1.2,2.6,2.6,2.6
					c0,0,0,0,0.1,0c0.2,1,1.2,1.8,2.3,1.8c0.9,0,1.6-0.5,2-1.2c0.6,1,1.6,1.6,2.8,1.6c1.3,0,2.5-0.8,3-1.9c0.5,0.3,1,0.4,1.5,0.4
					c1.7,0,3.1-1.4,3.1-3.1S19.4,4.7,17.7,4.7L17.7,4.7z"/>
				<path class="st3" d="M17.8,4.8c-0.1,0-0.1,0-0.2,0C17.2,3.8,16.2,3,15,3c-0.4,0-0.7,0.1-1,0.2c-0.4-1-1.3-1.7-2.4-1.7
					s-2,0.7-2.4,1.6c-0.1,0-0.3,0-0.4,0c-1.2,0-2.2,0.9-2.3,2C6.3,5.1,6.2,5.1,6,5.1c-1.4,0-2.6,1.2-2.6,2.6s1.2,2.6,2.6,2.6
					c0,0,0,0,0.1,0c0.2,1,1.2,1.8,2.3,1.8c0.9,0,1.6-0.5,2-1.2c0.6,1,1.6,1.6,2.8,1.6c1.3,0,2.5-0.8,3-1.9c0.5,0.3,1,0.4,1.5,0.4
					c1.7,0,3.1-1.4,3.1-3.1S19.5,4.8,17.8,4.8L17.8,4.8z"/>
			</g>
			<g>
				
					<image style="overflow:visible;opacity:0.54;" width="31" height="25" xlink:href="328CF5EB53680235.png"  transform="matrix(1 0 0 1 -8.5039 -7.6939)">
				</image>
				<g>
					<g>
						<path class="st2" d="M11.6,3.8c-0.3,0-0.5,0-0.8,0.1c-0.3-1.6-1.7-2.9-3.5-3c-1.7-0.1-3.2,1-3.7,2.5l0,0
							C2.2,3.3,1,4.4,0.9,5.8s1,2.7,2.5,2.7c0.7,0,1.4-0.2,1.9-0.7C5.8,8.1,6.3,8.3,7,8.3c1.1,0.1,2.1-0.4,2.8-1.1
							c0.4,0.5,0.9,0.8,1.6,0.8c1.2,0.1,2.2-0.9,2.3-2S12.8,3.8,11.6,3.8L11.6,3.8z"/>
					</g>
				</g>
			</g>
		</g>
	</g>
</g>
</svg>
