<?xml version="1.0" encoding="utf-8"?>
<!-- Generator: Adobe Illustrator 27.0.1, SVG Export Plug-In . SVG Version: 6.00 Build 0)  -->
<svg version="1.1" id="Ebene_1" xmlns="http://www.w3.org/2000/svg" xmlns:xlink="http://www.w3.org/1999/xlink" x="0px" y="0px"
	 viewBox="0 0 28 18.8" style="enable-background:new 0 0 28 18.8;" xml:space="preserve">
<style type="text/css">
	.st0{fill:#FFFFFF;fill-opacity:0;}
	.st1{opacity:5.000000e-02;fill:#F9FBFB;enable-background:new    ;}
	.st2{opacity:0.1;fill:#F4F6F8;enable-background:new    ;}
	.st3{opacity:0.14;fill:#EEF2F4;enable-background:new    ;}
	.st4{opacity:0.19;fill:#E9EDF1;enable-background:new    ;}
	.st5{opacity:0.24;fill:#E3E9ED;enable-background:new    ;}
	.st6{opacity:0.29;fill:#DEE5EA;enable-background:new    ;}
	.st7{opacity:0.33;fill:#D8E0E6;enable-background:new    ;}
	.st8{opacity:0.38;fill:#D3DCE3;enable-background:new    ;}
	.st9{opacity:0.43;fill:#CDD8DF;enable-background:new    ;}
	.st10{opacity:0.48;fill:#C8D3DC;enable-background:new    ;}
	.st11{opacity:0.52;fill:#C2CFD8;enable-background:new    ;}
	.st12{opacity:0.57;fill:#BDCAD5;enable-background:new    ;}
	.st13{opacity:0.62;fill:#B7C6D1;enable-background:new    ;}
	.st14{opacity:0.67;fill:#B2C2CE;enable-background:new    ;}
	.st15{opacity:0.71;fill:#ACBDCA;enable-background:new    ;}
	.st16{opacity:0.76;fill:#A7B9C7;enable-background:new    ;}
	.st17{opacity:0.81;fill:#A1B5C3;enable-background:new    ;}
	.st18{opacity:0.86;fill:#9CB0C0;enable-background:new    ;}
	.st19{opacity:0.9;fill:#96ACBC;enable-background:new    ;}
	.st20{opacity:0.95;fill:#91A7B9;enable-background:new    ;}
	.st21{fill:#8BA3B5;}
	.st22{fill:#EEF7FA;}
	.st23{fill:#E4F1F5;}
	.st24{fill:#FFFFFF;}
	.st25{fill:#E9F2F5;}
</style>
<g>
	<g id="Ebene_2_00000078022075396992531930000007206352953557687453_">
		<g id="_ŽÓť_4">
			<g>
				<g>
					<g>
						<path class="st0" d="M26.4,14.1c2.1-2.1,2-3.8,1.3-5.7c-0.5-1.4-0.8-2.3-1.7-3.6c-0.8-1.1-2.5-2.6-5-3
							c-2.5-0.4-8.3,3.7-10.3,4.2C8.6,6.7,5.9,8.2,3.1,9.4c-1.4,0.6-3.5,2.4-3.6,3.3c-0.1,1.6,0.5,2.2,1.1,2.8s2.1,1.7,3,2.1
							c0.8,0.4,2.9,1,3.6,1c1.6,0.2,2.1-0.3,3.4-0.2c1.6,0.2,2.2,0.3,2.9,0.3c0.7,0,1.2-0.2,1.6-0.2c0.5,0,1.4,0,2-0.1
							c1.7-0.4,2-0.2,2.9-0.5C22,17.5,24.6,15.9,26.4,14.1L26.4,14.1z"/>
						<path class="st1" d="M26.1,14.1c2.1-2,2-3.7,1.3-5.5c-0.5-1.3-0.8-2.2-1.7-3.5c-0.8-1.1-2.4-2.6-4.9-3
							c-2.4-0.4-8.1,3.6-10.1,4.1C8.6,6.8,6,8.3,3.3,9.4c-1.4,0.5-3.6,2.3-3.6,3.3c0,1.5,0.5,2.1,1.2,2.7c0.7,0.6,2.1,1.7,3,2.1
							s2.8,0.9,3.6,1c1.5,0.2,2.1-0.2,3.3-0.1c1.6,0.2,2.1,0.3,2.9,0.2c0.7,0,1.2-0.1,1.6-0.1c0.6,0,1.4,0,2-0.1
							c1.7-0.3,1.9-0.2,2.8-0.5C21.9,17.2,24.4,15.7,26.1,14.1z"/>
						<path class="st2" d="M25.9,14c2-1.9,1.9-3.6,1.2-5.3c-0.5-1.3-0.8-2.2-1.7-3.4c-0.8-1.1-2.3-2.5-4.8-3s-7.9,3.5-9.9,4
							C8.6,6.9,6.1,8.4,3.5,9.5c-1.4,0.6-3.7,2.2-3.8,3.2c0,1.5,0.5,2,1.2,2.6c0.7,0.6,2.1,1.7,2.9,2s2.8,0.8,3.5,0.9
							c1.5,0.1,2.1-0.2,3.3-0.1c1.6,0.2,2.1,0.2,2.8,0.2c0.6,0,1.2-0.1,1.6-0.1c0.6,0,1.4,0,2-0.1c1.6-0.3,1.9-0.2,2.8-0.5
							C21.8,17,24.2,15.6,25.9,14L25.9,14z"/>
						<path class="st3" d="M25.6,13.9c2-1.9,1.9-3.5,1.2-5.2c-0.5-1.3-0.9-2.1-1.7-3.3c-0.8-1.1-2.2-2.5-4.7-3s-7.7,3.4-9.7,3.9
							C8.6,7,6.3,8.5,3.7,9.6c-1.3,0.5-3.9,2.1-3.8,3.1c0,1.4,0.6,1.9,1.3,2.5s2,1.7,2.9,2c0.9,0.4,2.7,0.7,3.4,0.8
							c1.5,0.1,2.1-0.1,3.3,0c1.6,0.1,2.1,0.2,2.8,0.2c0.6,0,1.1-0.1,1.6-0.1c0.6,0,1.4,0,2-0.2c1.6-0.3,1.8-0.2,2.8-0.5
							C21.7,16.8,24,15.4,25.6,13.9L25.6,13.9z"/>
						<path class="st4" d="M25.4,13.8c1.9-1.8,1.8-3.4,1.1-5c-0.5-1.3-0.9-2-1.7-3.2c-0.8-1-2.1-2.4-4.5-3c-2.3-0.5-7.5,3.3-9.5,3.8
							C8.7,7.1,6.4,8.6,3.9,9.6c-1.3,0.5-4,2-3.9,3C0,14,0.5,14.5,1.2,15s2,1.6,2.8,1.9c0.9,0.3,2.6,0.6,3.4,0.7
							c1.5,0.1,2.1,0,3.3,0.1c1.6,0.1,2,0.2,2.7,0.1c0.6,0,1.1-0.1,1.6-0.1c0.7,0,1.4-0.1,2-0.2c1.5-0.3,1.8-0.1,2.8-0.5
							C21.6,16.6,23.8,15.3,25.4,13.8L25.4,13.8z"/>
						<path class="st5" d="M25.1,13.7c1.8-1.7,1.8-3.3,1.1-4.8c-0.5-1.2-0.9-2-1.8-3.1c-0.8-1-2-2.4-4.4-3c-2.3-0.6-7.4,3.2-9.3,3.7
							C8.7,7.2,6.5,8.7,4,9.7c-1.3,0.5-4.1,1.9-4,2.9c0.1,1.3,0.6,1.8,1.3,2.3s2,1.6,2.8,1.9c0.9,0.3,2.5,0.5,3.3,0.6
							c1.5,0.1,2,0,3.3,0.1c1.6,0.1,2,0.1,2.7,0.1c0.6,0,1.1,0,1.6,0c0.7,0,1.4-0.1,2.1-0.2c1.5-0.3,1.8-0.1,2.7-0.4
							C21.5,16.4,23.6,15.1,25.1,13.7L25.1,13.7z"/>
						<path class="st6" d="M24.9,13.6c1.8-1.6,1.7-3.1,1-4.6c-0.6-1.2-1-1.9-1.8-3c-0.7-1-1.9-2.4-4.3-3c-2.3-0.6-7.2,3.1-9.1,3.7
							c-2.1,0.6-4.2,2.1-6.6,3C3,10.2,0,11.5,0.1,12.6c0.1,1.2,0.7,1.7,1.4,2.2s2,1.6,2.8,1.8c1,0.3,2.5,0.4,3.3,0.5
							c1.5,0.1,2,0.1,3.2,0.2c1.6,0.1,1.9,0.1,2.7,0.1c0.6,0,1.1,0,1.6,0c0.7,0,1.5-0.1,2.1-0.2c1.5-0.3,1.7-0.1,2.7-0.4
							C21.4,16.2,23.4,15,24.9,13.6L24.9,13.6z"/>
						<path class="st7" d="M24.7,13.6c1.7-1.5,1.7-3,1-4.5c-0.6-1.2-1-1.9-1.8-2.9c-0.7-1-1.8-2.3-4.2-3c-2.2-0.6-7,3-8.9,3.6
							c-2.1,0.6-4,2.1-6.4,3c-1.2,0.5-4.3,1.6-4.2,2.8c0.1,1.2,0.7,1.6,1.4,2.1s1.9,1.6,2.7,1.8c1,0.3,2.4,0.3,3.2,0.4
							c1.4,0.1,2,0.2,3.2,0.2c1.6,0.1,1.9,0.1,2.6,0.1c0.6,0,1,0,1.6,0c0.8,0,1.5-0.2,2.1-0.3c1.4-0.3,1.7-0.1,2.7-0.4
							C21.3,15.9,23.2,14.8,24.7,13.6L24.7,13.6z"/>
						<path class="st8" d="M24.4,13.5c1.7-1.4,1.6-2.9,0.9-4.3c-0.6-1.1-1-1.8-1.8-2.8c-0.7-0.9-1.7-2.3-4.1-3
							c-2.2-0.7-6.8,3-8.7,3.5c-2,0.6-3.9,2.1-6.2,3c-1.2,0.5-4.4,1.5-4.3,2.7s0.8,1.5,1.5,2c0.7,0.6,1.9,1.5,2.7,1.7
							c1,0.3,2.3,0.2,3.1,0.3c1.4,0.1,2,0.2,3.2,0.3c1.6,0.1,1.9,0,2.6,0c0.6,0,1,0,1.6,0c0.8,0,1.5-0.2,2.1-0.3
							c1.4-0.2,1.6,0,2.6-0.4C21.2,15.7,22.9,14.7,24.4,13.5L24.4,13.5z"/>
						<path class="st9" d="M24.2,13.4c1.6-1.3,1.6-2.8,0.9-4.1c-0.6-1.1-1.1-1.7-1.8-2.7c-0.7-0.9-1.6-2.2-4-3
							c-2.2-0.7-6.6,2.9-8.5,3.4C8.8,7.5,7,9,4.8,9.9c-1.1,0.5-4.6,1.4-4.4,2.6c0.1,1.1,0.8,1.4,1.5,1.9c0.7,0.6,1.9,1.5,2.7,1.7
							c1.1,0.2,2.2,0.2,3.1,0.2c1.4,0.1,2,0.3,3.2,0.4c1.6,0.1,1.8,0,2.5,0c0.5,0,1,0.1,1.6,0.1c0.8,0,1.5-0.2,2.1-0.3
							c1.3-0.2,1.6,0,2.6-0.4C21.2,15.5,22.8,14.6,24.2,13.4L24.2,13.4z"/>
						<path class="st10" d="M23.9,13.3c1.5-1.2,1.5-2.7,0.8-3.9c-0.6-1.1-1.1-1.7-1.8-2.6s-1.5-2.2-3.8-3c-2.2-0.8-6.5,2.8-8.3,3.3
							c-2,0.6-3.7,2-5.9,2.9c-1.1,0.4-4.7,1.3-4.5,2.5c0.1,1,0.8,1.3,1.5,1.8c0.8,0.5,1.9,1.5,2.6,1.6c1.1,0.2,2.2,0.1,3,0.1
							c1.4,0.1,2,0.4,3.1,0.4c1.6,0.1,1.8,0,2.5,0c0.5,0,0.9,0.1,1.6,0.1c0.9,0,1.5-0.3,2.1-0.4c1.3-0.2,1.5,0,2.6-0.4
							C21.1,15.3,22.5,14.4,23.9,13.3z"/>
						<path class="st11" d="M23.7,13.2c1.5-1.1,1.5-2.6,0.8-3.8c-0.6-1.1-1.1-1.6-1.8-2.5s-1.4-2.1-3.7-3c-2.1-0.8-6.3,2.7-8.1,3.2
							c-2,0.6-3.6,2-5.7,2.9c-1.1,0.4-4.8,1.2-4.6,2.4c0.1,1,0.9,1.2,1.6,1.7c0.8,0.5,1.8,1.4,2.6,1.6c1.1,0.2,2.1,0,2.9,0.1
							c1.4,0.1,1.9,0.4,3.1,0.5c1.6,0.1,1.8-0.1,2.5,0c0.5,0,0.9,0.1,1.6,0.1c0.9,0,1.5-0.3,2.1-0.4c1.2-0.2,1.5,0,2.5-0.4
							C21,15.1,22.3,14.2,23.7,13.2L23.7,13.2z"/>
						<path class="st12" d="M23.4,13.2c1.4-1,1.4-2.4,0.7-3.6c-0.6-1-1.2-1.6-1.9-2.4s-1.3-2.1-3.6-3c-2.1-0.8-6.1,2.6-7.9,3.1
							c-2,0.6-3.5,2-5.6,2.9c-1.1,0.4-4.9,1.1-4.7,2.3c0.1,0.9,0.9,1.1,1.6,1.6c0.8,0.5,1.8,1.4,2.5,1.6c1.1,0.2,2-0.1,2.9,0
							c1.4,0.1,1.9,0.5,3.1,0.5c1.5,0.1,1.7-0.1,2.4-0.1c0.5,0,0.9,0.1,1.6,0.1c0.9,0,1.5-0.3,2.1-0.4c1.2-0.2,1.4,0,2.5-0.4
							C20.9,14.9,22.1,14.1,23.4,13.2L23.4,13.2z"/>
						<path class="st13" d="M23.2,13.1c1.4-0.9,1.4-2.3,0.7-3.4c-0.6-1-1.2-1.5-1.9-2.3s-1.2-2-3.5-3c-2.1-0.9-5.9,2.5-7.7,3
							c-2,0.6-3.4,2-5.4,2.8c-1,0.4-5.1,1-4.8,2.3c0.2,0.9,0.9,1.1,1.7,1.5c0.8,0.5,1.8,1.4,2.5,1.5c1.2,0.2,1.9-0.2,2.8-0.1
							c1.3,0.1,1.9,0.6,3.1,0.6c1.5,0.1,1.7-0.1,2.4-0.1c0.5,0,0.9,0.2,1.6,0.2c1,0,1.6-0.4,2.1-0.4c1.1-0.2,1.4,0.1,2.5-0.3
							C20.8,14.6,21.9,13.9,23.2,13.1z"/>
						<path class="st14" d="M23,13c1.3-0.8,1.3-2.2,0.6-3.3c-0.6-0.9-1.2-1.4-1.9-2.2s-1.1-2-3.4-3c-2.1-0.9-5.7,2.4-7.5,2.9
							c-2,0.6-3.3,2-5.2,2.8c-1,0.4-5.2,0.9-4.9,2.2c0.2,0.8,1,1,1.7,1.4c0.8,0.5,1.7,1.4,2.5,1.4C6.1,15.4,6.7,15,7.7,15
							c1.3,0.1,1.9,0.6,3.1,0.7c1.5,0.1,1.6-0.2,2.3-0.1c0.5,0,0.8,0.2,1.6,0.2c1,0,1.6-0.4,2.1-0.5c1.1-0.2,1.3,0.1,2.5-0.3
							C20.7,14.4,21.7,13.8,23,13L23,13z"/>
						<path class="st15" d="M22.7,12.9c1.2-0.7,1.2-2.1,0.6-3.1c-0.6-0.9-1.3-1.4-1.9-2.1s-1-1.9-3.2-3c-2-1-5.6,2.3-7.3,2.8
							c-1.9,0.6-3.2,2-5,2.8c-1,0.4-5.3,0.8-5,2.1c0.2,0.8,1,0.9,1.7,1.3C3.3,14.2,4.3,15,5,15.1c1.2,0.1,1.8-0.4,2.7-0.3
							c1.3,0.1,1.9,0.7,3,0.7c1.5,0.1,1.6-0.2,2.3-0.2c0.4,0,0.8,0.2,1.6,0.2c1,0,1.6-0.4,2.1-0.5c1-0.2,1.3,0.1,2.4-0.3
							C20.6,14.2,21.5,13.6,22.7,12.9L22.7,12.9z"/>
						<path class="st16" d="M22.5,12.8c1.2-0.6,1.2-2,0.5-2.9c-0.6-0.9-1.3-1.3-1.9-2S20.2,6,18,4.8c-2-1-5.4,2.2-7.1,2.8
							C9,8.2,7.8,9.6,6,10.3c-0.9,0.4-5.4,0.6-5.1,2c0.2,0.7,1.1,0.8,1.8,1.2c0.8,0.5,1.7,1.3,2.4,1.4c1.2,0.1,1.7-0.4,2.6-0.4
							c1.3,0.1,1.9,0.8,3,0.8c1.5,0,1.6-0.2,2.3-0.2c0.4,0,0.8,0.2,1.6,0.2c1.1,0,1.6-0.4,2.1-0.5c1-0.1,1.2,0.1,2.4-0.3
							C20.5,14,21.3,13.5,22.5,12.8L22.5,12.8z"/>
						<path class="st17" d="M22.2,12.8c1.1-0.6,1.1-1.9,0.5-2.8s-1.3-1.3-1.9-2s-0.8-1.9-3-3c-2-1-5.2,2.2-6.9,2.7
							c-1.9,0.6-2.9,2-4.7,2.7c-0.9,0.4-5.6,0.5-5.2,1.9C1.2,13,2.1,13,2.8,13.4c0.8,0.5,1.7,1.3,2.4,1.3c1.3,0.1,1.6-0.5,2.6-0.5
							c1.3,0.1,1.8,0.8,3,0.9c1.5,0,1.5-0.3,2.2-0.2c0.4,0,0.8,0.2,1.6,0.3c1.1,0,1.6-0.5,2.1-0.6c1-0.1,1.2,0.1,2.4-0.3
							C20.4,13.8,21,13.3,22.2,12.8L22.2,12.8z"/>
						<path class="st18" d="M22,12.7c1.1-0.5,1.1-1.8,0.4-2.6s-1.4-1.2-2-1.9s-0.6-1.8-2.9-3c-2-1.1-5,2.1-6.7,2.6
							c-1.9,0.6-2.8,2-4.5,2.7c-0.9,0.4-5.7,0.4-5.3,1.8c0.2,0.6,1.1,0.6,1.8,1c0.8,0.5,1.6,1.2,2.3,1.3c1.3,0.1,1.5-0.6,2.5-0.6
							c1.3,0.1,1.8,0.9,2.9,0.9c1.5,0,1.5-0.3,2.2-0.2c0.4,0,0.7,0.3,1.6,0.3c1.1,0,1.6-0.5,2.1-0.6c0.9-0.1,1.1,0.2,2.4-0.3
							C20.3,13.6,20.8,13.2,22,12.7z"/>
						<path class="st19" d="M21.7,12.6c1-0.4,1-1.6,0.4-2.4s-1.4-1.1-2-1.8c-0.6-0.6-0.5-1.8-2.8-3c-1.9-1.1-4.8,2-6.5,2.5
							c-1.9,0.6-2.7,2-4.4,2.7c-0.9,0.3-5.8,0.3-5.4,1.8c0.2,0.6,1.2,0.5,1.9,0.9c0.8,0.4,1.6,1.2,2.3,1.2c1.3,0,1.4-0.7,2.4-0.7
							c1.2,0.1,1.8,1,2.9,1c1.5,0,1.5-0.3,2.1-0.3c0.4,0,0.7,0.3,1.6,0.3c1.2,0,1.7-0.5,2.1-0.6c0.9-0.1,1.1,0.2,2.3-0.3
							C20.3,13.3,20.6,13,21.7,12.6z"/>
						<path class="st20" d="M21.5,12.5c0.9-0.3,1-1.5,0.4-2.2s-1.4-1.1-2-1.7c-0.6-0.6-0.5-1.7-2.7-3c-1.9-1.1-4.6,1.9-6.3,2.4
							c-1.9,0.6-2.6,2-4.2,2.6c-0.8,0.3-6,0.2-5.5,1.7c0.2,0.5,1.2,0.4,1.9,0.8c0.8,0.4,1.6,1.2,2.2,1.2c1.3,0,1.4-0.8,2.4-0.8
							c1.2,0.1,1.8,1,2.9,1c1.5,0,1.4-0.4,2.1-0.3c0.4,0,0.7,0.3,1.6,0.3c1.2,0,1.7-0.6,2.1-0.6c0.8-0.1,1.1,0.2,2.3-0.2
							C20.2,13.1,20.4,12.9,21.5,12.5z"/>
						<path class="st21" d="M21.3,12.4c0.9-0.2,0.9-1.4,0.3-2.1c-0.7-0.7-1.5-1-2-1.6c-0.6-0.6-0.4-1.7-2.5-3
							c-1.9-1.2-4.5,1.8-6.1,2.3c-1.9,0.6-2.5,2-4,2.6c-0.8,0.3-6.2,0.1-5.6,1.6c0.2,0.5,1.3,0.3,2,0.7c0.8,0.4,1.6,1.1,2.2,1.1
							c1.4-0.1,1.3-0.9,2.3-0.9c1.2,0,1.8,1.1,2.9,1.1c1.5,0,1.4-0.4,2.1-0.3c0.4,0,0.6,0.4,1.6,0.4c1.2,0,1.7-0.6,2.2-0.6
							c0.8-0.1,1,0.2,2.3-0.2C20.1,12.9,20.2,12.7,21.3,12.4L21.3,12.4z"/>
					</g>
					<path class="st22" d="M20.7,9.5c-0.2-0.7-0.6-1.2-1.1-1.7c0.1-0.4,0.2-0.8,0.2-1.2c0.1-2.1-1.5-3.9-3.6-4
						c-1.6-0.1-3,0.9-3.6,2.2c-0.1,0-0.2,0-0.3,0c-1.3-0.1-2.5,0.6-3.3,1.5C8.7,6.4,8.5,6.3,8.2,6.3c-1.1-0.1-2.1,0.8-2.2,2
						c0,0.2,0,0.4,0.1,0.6c-0.4,0.1-0.8,0.3-1,0.7C4.8,9,4.3,8.7,3.6,8.7C2.8,8.7,2,9.2,1.7,10c0,0-0.1,0-0.1,0
						c-0.8,0-1.5,0.6-1.5,1.4s0.6,1.5,1.4,1.5c0.4,0,0.8-0.1,1-0.4c0.3,0.2,0.6,0.3,0.9,0.3c0.3,0.7,1,1.2,1.8,1.2
						c0.8,0,1.6-0.4,1.9-1.1C7.4,12.9,7.7,13,7.9,13c0.1,0,0.2,0,0.3,0c0.5,0.6,1.2,1.1,2.1,1.1c0.9,0,1.6-0.3,2.2-0.9
						c0.3,0.6,1,1.1,1.8,1.1c0.8,0,1.5-0.4,1.9-1.1c0.4,0.2,0.9,0.3,1.3,0.4c1,0,2-0.4,2.6-1.2c0.1,0.1,0.3,0.1,0.5,0.1
						c0.8,0,1.5-0.6,1.6-1.4C22.2,10.2,21.5,9.5,20.7,9.5L20.7,9.5z"/>
					<path class="st23" d="M20.8,9.5c-0.2-0.7-0.6-1.2-1.1-1.7c0.1-0.4,0.2-0.8,0.2-1.2c0.1-2.1-1.5-3.9-3.6-4
						c-1.6-0.1-3,0.9-3.6,2.2c-0.1,0-0.2,0-0.3,0C10.9,4.9,9.7,5.5,9,6.5C8.8,6.4,8.5,6.4,8.3,6.4c-1.1-0.1-2.1,0.8-2.2,2
						c0,0.2,0,0.4,0.1,0.6C5.8,9,5.4,9.2,5.2,9.6C4.9,9.1,4.3,8.8,3.7,8.8c-0.9,0-1.6,0.5-1.9,1.2c0,0-0.1,0-0.1,0
						c-0.8,0-1.5,0.6-1.5,1.4s0.6,1.5,1.4,1.5c0.4,0,0.8-0.1,1-0.4c0.3,0.2,0.6,0.3,0.9,0.3c0.3,0.7,1,1.2,1.8,1.2
						c0.8,0,1.6-0.4,1.9-1.1C7.5,12.9,7.7,13,8,13c0.1,0,0.2,0,0.3,0c0.5,0.6,1.2,1.1,2.1,1.1c0.9,0,1.6-0.3,2.2-0.9
						c0.3,0.6,1,1.1,1.8,1.1c0.8,0,1.5-0.4,1.9-1.1c0.4,0.2,0.9,0.3,1.3,0.4c1,0,2-0.4,2.6-1.2c0.1,0.1,0.3,0.1,0.5,0.1
						c0.8,0,1.5-0.6,1.6-1.4C22.2,10.3,21.6,9.6,20.8,9.5L20.8,9.5z"/>
				</g>
				<g>
					<g>
						<path class="st0" d="M18.4,11.6c1-1.7,0-4-0.5-5.3c-0.4-0.9-1.5-2.2-2.5-2.6c-0.9-0.5-1.3-1-2.5-1.1c-1.6-0.2-3.8,1.1-5.2,1.5
							c-1.4,0.4-3.9,1.6-5.3,3c-1.6,1.7-1.6,3.1-1.2,4.1c0.4,1.1,1.2,1.7,1.7,2.1c0.5,0.4,1,0.8,1.5,1.1c1.1,0.5,2,0.5,2.8,0.6
							c0.6,0,2.2,0.2,3.8-0.2c1.1-0.2,2.2-0.4,2.8-0.6C15.2,13.7,17.5,13,18.4,11.6z"/>
						<path class="st1" d="M18.2,11.5c1-1.7,0-3.9-0.4-5.1c-0.4-0.9-1.5-2.1-2.4-2.5c-0.9-0.5-1.2-1-2.5-1.2
							c-1.6-0.2-3.8,1.1-5.1,1.5c-1.4,0.4-3.9,1.5-5.2,3c-1.5,1.7-1.6,3-1.2,4s1.2,1.6,1.7,2s1,0.8,1.6,1c1.1,0.5,2,0.4,2.8,0.5
							c0.6,0.1,2.2,0.2,3.8-0.1c1.1-0.2,2.1-0.4,2.7-0.6C15.1,13.6,17.4,12.9,18.2,11.5L18.2,11.5z"/>
						<path class="st2" d="M18,11.4c1-1.6,0.1-3.8-0.4-4.9c-0.4-0.9-1.4-2-2.3-2.5c-0.9-0.4-1.1-1.1-2.4-1.3
							c-1.6-0.2-3.8,1.1-5.1,1.5C6.3,4.6,3.9,5.8,2.7,7.1c-1.5,1.6-1.7,3-1.2,4s1.2,1.5,1.7,1.9s1,0.7,1.6,1c1.1,0.5,2,0.4,2.8,0.4
							c0.6,0.1,2.1,0.2,3.7-0.1c1.2-0.2,2.1-0.4,2.6-0.6C15,13.4,17.2,12.8,18,11.4L18,11.4z"/>
						<path class="st3" d="M17.8,11.4c1-1.6,0.1-3.6-0.3-4.8c-0.4-0.9-1.4-1.9-2.3-2.4c-0.9-0.4-1.1-1.2-2.4-1.4
							C11.3,2.5,9.1,4,7.8,4.3c-1.4,0.4-3.8,1.5-5,2.8C1.3,8.6,1.1,10,1.5,11s1.2,1.4,1.7,1.8c0.5,0.4,1,0.7,1.6,0.9
							c1.1,0.5,2,0.3,2.7,0.4c0.6,0.1,2.1,0.3,3.7-0.1c1.2-0.2,2.1-0.4,2.6-0.6C14.9,13.2,17,12.6,17.8,11.4L17.8,11.4z"/>
						<path class="st4" d="M17.7,11.3c1-1.5,0.2-3.5-0.3-4.6C17,5.8,16,4.8,15.1,4.4c-0.8-0.4-1-1.3-2.3-1.6C11.3,2.5,9.1,4,7.8,4.4
							C6.4,4.8,4,5.9,2.8,7.1C1.5,8.6,1.1,9.9,1.6,11c0.5,1,1.2,1.4,1.7,1.8c0.5,0.3,1,0.6,1.6,0.9c1.1,0.4,2,0.2,2.7,0.3
							c0.6,0.1,2,0.3,3.6,0c1.2-0.2,2-0.4,2.5-0.6C14.9,13,16.9,12.5,17.7,11.3L17.7,11.3z"/>
						<path class="st5" d="M17.5,11.2c1-1.4,0.2-3.4-0.2-4.4C16.9,6,15.9,5,15.1,4.6c-0.8-0.4-0.9-1.4-2.2-1.7
							c-1.5-0.3-3.8,1.2-5,1.6C6.4,4.9,4.1,5.9,2.9,7.1c-1.3,1.4-1.8,2.8-1.3,3.8c0.5,0.9,1.2,1.3,1.8,1.7c0.5,0.3,1,0.6,1.6,0.8
							c1.1,0.4,1.9,0.2,2.6,0.2c0.6,0.1,2,0.3,3.6,0c1.2-0.2,2-0.4,2.5-0.6C14.8,12.9,16.7,12.4,17.5,11.2z"/>
						<path class="st6" d="M17.3,11.1c1-1.4,0.3-3.3-0.2-4.2c-0.4-0.8-1.3-1.7-2.1-2.1c-0.8-0.4-0.9-1.5-2.2-1.8
							c-1.5-0.4-3.8,1.3-5,1.6C6.4,5,4.1,6,3,7.1c-1.2,1.3-1.8,2.7-1.3,3.7c0.5,0.9,1.2,1.2,1.8,1.6C4,12.8,4.6,13,5.1,13.2
							c1.1,0.4,1.9,0.1,2.6,0.2c0.6,0.1,1.9,0.4,3.6,0c1.2-0.2,1.9-0.5,2.4-0.6C14.7,12.7,16.5,12.2,17.3,11.1L17.3,11.1z"/>
						<path class="st7" d="M17.1,11c1-1.3,0.3-3.1-0.1-4.1c-0.4-0.8-1.2-1.6-2.1-2c-0.8-0.4-0.8-1.5-2.1-1.9c-1.5-0.4-3.8,1.3-5,1.6
							C6.5,5,4.2,6,3.1,7.1c-1.2,1.3-1.8,2.6-1.3,3.7c0.5,0.9,1.2,1.2,1.8,1.5c0.5,0.3,1.1,0.5,1.6,0.7c1.1,0.4,1.9,0,2.5,0.1
							c0.6,0.1,1.9,0.4,3.5,0.1c1.2-0.2,1.9-0.5,2.3-0.5C14.6,12.5,16.4,12.1,17.1,11L17.1,11z"/>
						<path class="st8" d="M16.9,11c1-1.3,0.4-3-0.1-3.9c-0.4-0.8-1.2-1.5-2-1.9c-0.8-0.4-0.7-1.6-2.1-2c-1.5-0.4-3.7,1.3-5,1.7
							C6.5,5.1,4.2,6.1,3.2,7.1c-1.1,1.2-1.8,2.5-1.3,3.6c0.5,0.9,1.2,1.1,1.8,1.4c0.5,0.3,1.1,0.5,1.6,0.7c1.2,0.4,1.9,0,2.5,0.1
							c0.6,0.1,1.9,0.4,3.5,0.1c1.2-0.2,1.8-0.5,2.3-0.5C14.6,12.3,16.2,12,16.9,11L16.9,11z"/>
						<path class="st9" d="M16.8,10.9c1-1.2,0.4-2.9,0-3.7c-0.4-0.7-1.1-1.5-2-1.9c-0.8-0.4-0.6-1.7-2-2.1c-1.5-0.5-3.7,1.3-4.9,1.7
							C6.5,5.2,4.2,6.1,3.3,7.1C2.2,8.3,1.4,9.6,2,10.7c0.4,0.8,1.2,1,1.8,1.3c0.5,0.3,1.1,0.5,1.6,0.6c1.2,0.3,1.8-0.1,2.4,0
							c0.5,0.1,1.8,0.4,3.4,0.1c1.2-0.2,1.8-0.5,2.2-0.5C14.5,12.1,16,11.9,16.8,10.9L16.8,10.9z"/>
						<path class="st10" d="M16.6,10.8c1-1.2,0.5-2.7,0-3.6c-0.4-0.7-1.1-1.4-1.9-1.8c-0.7-0.3-0.6-1.8-1.9-2.3
							c-1.4-0.5-3.7,1.4-4.9,1.7C6.5,5.3,4.3,6.2,3.4,7.1c-1,1.1-1.9,2.4-1.3,3.5c0.4,0.8,1.2,1,1.8,1.2c0.5,0.2,1.1,0.4,1.7,0.6
							c1.2,0.3,1.8-0.2,2.4-0.1c0.5,0.1,1.8,0.5,3.4,0.2c1.2-0.2,1.8-0.5,2.2-0.5C14.4,12,15.9,11.7,16.6,10.8L16.6,10.8z"/>
						<path class="st11" d="M16.4,10.7c1-1.1,0.5-2.6,0.1-3.4c-0.4-0.7-1-1.3-1.8-1.7c-0.7-0.3-0.5-1.9-1.9-2.4S9.1,4.6,7.9,5
							C6.5,5.4,4.3,6.2,3.5,7.1c-1,1-1.9,2.3-1.3,3.4c0.4,0.8,1.2,0.9,1.8,1.2c0.5,0.2,1.1,0.4,1.7,0.5c1.2,0.3,1.8-0.2,2.3-0.1
							s1.7,0.5,3.3,0.2c1.2-0.2,1.7-0.5,2.1-0.5C14.3,11.8,15.7,11.6,16.4,10.7L16.4,10.7z"/>
						<path class="st12" d="M16.2,10.7c1-1.1,0.6-2.5,0.1-3.2c-0.4-0.7-1-1.2-1.8-1.6c-0.7-0.3-0.4-1.9-1.8-2.5S9.1,4.7,7.9,5.1
							C6.6,5.4,4.4,6.3,3.6,7.1c-0.9,1-2,2.3-1.3,3.4c0.4,0.8,1.2,0.8,1.9,1.1c0.5,0.2,1.2,0.3,1.7,0.5c1.2,0.3,1.8-0.3,2.3-0.2
							s1.7,0.5,3.3,0.2c1.2-0.2,1.7-0.5,2.1-0.5C14.2,11.6,15.5,11.4,16.2,10.7L16.2,10.7z"/>
						<path class="st13" d="M16.1,10.6c1-1,0.6-2.3,0.2-3.1c-0.4-0.7-0.9-1.2-1.7-1.5c-0.7-0.3-0.4-2-1.8-2.6S9.1,4.8,7.9,5.2
							c-1.3,0.4-3.5,1.2-4.2,2c-0.9,0.9-2,2.2-1.3,3.3c0.4,0.7,1.2,0.8,1.9,1c0.5,0.2,1.2,0.3,1.7,0.4c1.2,0.2,1.8-0.4,2.3-0.2
							s1.6,0.6,3.2,0.3c1.2-0.2,1.6-0.5,2-0.5C14.2,11.4,15.4,11.3,16.1,10.6L16.1,10.6z"/>
						<path class="st14" d="M15.9,10.5c1-1,0.7-2.2,0.3-2.9c-0.4-0.6-0.9-1.1-1.7-1.4c-0.6-0.3-0.3-2.1-1.7-2.7S9.1,4.9,7.9,5.2
							C6.6,5.6,4.5,6.4,3.8,7.1C3,8,1.8,9.3,2.4,10.4c0.4,0.7,1.2,0.7,1.9,0.9c0.6,0.2,1.2,0.3,1.7,0.4c1.2,0.2,1.7-0.4,2.2-0.3
							c0.5,0.1,1.6,0.6,3.2,0.3c1.2-0.2,1.6-0.5,1.9-0.5C14.1,11.2,15.2,11.2,15.9,10.5L15.9,10.5z"/>
						<path class="st15" d="M15.7,10.4c1-0.9,0.7-2.1,0.3-2.7c-0.4-0.6-0.8-1-1.6-1.3c-0.6-0.3-0.2-2.2-1.6-2.8
							C11.4,2.9,9.1,5,7.9,5.3c-1.3,0.4-3.4,1.2-4,1.8c-0.8,0.8-2.1,2.1-1.4,3.2C2.9,11,3.7,11,4.4,11.2c0.6,0.2,1.2,0.2,1.7,0.3
							c1.2,0.2,1.7-0.5,2.2-0.4c0.5,0.1,1.5,0.6,3.2,0.3c1.2-0.2,1.5-0.5,1.9-0.5C14,11,15,11.1,15.7,10.4L15.7,10.4z"/>
						<path class="st16" d="M15.5,10.4c1-0.9,0.8-1.9,0.3-2.6c-0.4-0.6-0.8-0.9-1.6-1.3c-0.6-0.3-0.2-2.2-1.6-3
							c-1.3-0.7-3.7,1.5-4.8,1.9C6.7,5.8,4.6,6.5,4,7.2c-0.7,0.7-2.1,2-1.4,3.1C3,10.9,3.8,10.8,4.5,11c0.6,0.1,1.2,0.2,1.7,0.3
							c1.2,0.2,1.7-0.5,2.1-0.4c0.5,0.1,1.5,0.6,3.1,0.4c1.3-0.2,1.5-0.5,1.8-0.5C13.9,10.9,14.8,11,15.5,10.4L15.5,10.4z"/>
						<path class="st17" d="M15.4,10.3c1-0.8,0.8-1.8,0.4-2.4C15.3,7.3,15,7,14.3,6.7c-0.6-0.3-0.1-2.3-1.5-3.1
							C11.4,2.9,9.1,5.2,8,5.5C6.7,5.9,4.6,6.6,4.1,7.1c-0.6,0.6-2.1,2-1.4,3.1c0.4,0.6,1.2,0.5,2,0.7C5.2,11,5.8,11,6.4,11.1
							c1.2,0.1,1.7-0.6,2.1-0.5c0.5,0.1,1.4,0.7,3.1,0.4c1.3-0.2,1.4-0.6,1.8-0.5C13.9,10.7,14.7,10.8,15.4,10.3L15.4,10.3z"/>
						<path class="st18" d="M15.2,10.2c1-0.8,0.9-1.7,0.5-2.2c-0.4-0.6-0.7-0.8-1.4-1.1c-0.6-0.2,0-2.4-1.5-3.2
							C11.4,3,9.1,5.2,8,5.6C6.7,5.9,4.7,6.6,4.2,7.1C3.6,7.7,2,9,2.8,10.2c0.4,0.6,1.2,0.4,2,0.6c0.6,0.1,1.2,0.1,1.7,0.2
							c1.2,0.1,1.6-0.7,2-0.5c0.5,0.2,1.4,0.7,3,0.4c1.3-0.2,1.4-0.6,1.7-0.5C13.8,10.5,14.5,10.7,15.2,10.2L15.2,10.2z"/>
						<path class="st19" d="M15,10.1c1-0.7,0.9-1.6,0.5-2.1s-0.6-0.7-1.4-1c-0.6-0.2,0-2.5-1.4-3.3C11.4,3,9.1,5.3,8,5.7
							C6.7,6,4.7,6.7,4.3,7.1c-0.5,0.5-2.2,1.8-1.4,3c0.4,0.6,1.2,0.4,2,0.5c0.6,0.1,1.2,0.1,1.8,0.1c1.3,0.1,1.6-0.7,2-0.6
							c0.5,0.2,1.4,0.7,3,0.5c1.3-0.2,1.4-0.6,1.6-0.5C13.7,10.3,14.4,10.6,15,10.1L15,10.1z"/>
						<path class="st20" d="M14.8,10c1-0.6,1-1.4,0.6-1.9s-0.6-0.6-1.3-0.9c-0.5-0.2,0.1-2.5-1.4-3.4C11.4,3,9.1,5.4,8,5.7
							c-1.2,0.4-3.2,1-3.6,1.4c-0.5,0.4-2.2,1.8-1.4,2.9c0.4,0.5,1.2,0.3,2,0.4c0.6,0.1,1.3,0,1.8,0.1C8,10.6,8.3,9.7,8.6,9.9
							c0.4,0.2,1.3,0.8,2.9,0.5c1.3-0.2,1.3-0.6,1.6-0.4C13.6,10.2,14.2,10.5,14.8,10L14.8,10z"/>
						<path class="st21" d="M14.6,10c1-0.6,1-1.3,0.6-1.7c-0.4-0.5-0.5-0.5-1.3-0.8c-0.5-0.2,0.2-2.6-1.3-3.5
							c-1.2-0.8-3.6,1.6-4.7,2c-1.2,0.4-3.2,1-3.6,1.3C4,7.5,2.2,8.9,3,10c0.4,0.5,1.2,0.2,2,0.3c0.6,0.1,1.3,0,1.8,0
							c1.3,0,1.6-0.9,1.9-0.7c0.4,0.2,1.3,0.8,2.9,0.5c1.3-0.2,1.3-0.6,1.5-0.4C13.6,10,14,10.3,14.6,10L14.6,10z"/>
					</g>
					<path class="st24" d="M14.7,7.4c0.1-0.3,0.1-0.7,0.1-1.1c0-2.3-1.8-4.1-4.1-4.1c-1.9,0-3.5,1.3-4,3.1c0,0-0.1,0-0.1,0
						c-0.9,0-1.7,0.5-2.1,1.2C4.2,6.3,4,6.3,3.7,6.3c-1.1,0-2,0.9-2,2s0.9,2,2,2c0.5,0,0.9-0.2,1.3-0.5c0.4,0.4,1,0.6,1.6,0.6
						c0.7,0,1.3-0.3,1.8-0.7c0.7,0.5,1.5,0.7,2.3,0.7c0.8,0,1.5-0.2,2.1-0.6c0.3,0.4,0.7,0.6,1.2,0.6c0.9,0,1.6-0.7,1.6-1.6
						C15.6,8.2,15.2,7.6,14.7,7.4L14.7,7.4z"/>
					<path class="st23" d="M14.8,7.4c0.1-0.3,0.1-0.7,0.1-1.1c0-2.3-1.8-4.1-4.1-4.1c-1.9,0-3.5,1.3-4,3.1c0,0-0.1,0-0.1,0
						C5.8,5.3,5,5.8,4.5,6.5C4.3,6.4,4,6.3,3.8,6.3c-1.1,0-2,0.9-2,2s0.9,2,2,2c0.5,0,0.9-0.2,1.3-0.5c0.4,0.4,1,0.6,1.6,0.6
						c0.7,0,1.3-0.3,1.8-0.7c0.7,0.5,1.5,0.7,2.3,0.7c0.8,0,1.5-0.2,2.2-0.6c0.3,0.4,0.7,0.6,1.2,0.6c0.9,0,1.6-0.7,1.6-1.6
						C15.7,8.2,15.3,7.7,14.8,7.4L14.8,7.4z"/>
				</g>
				<g>
					<g>
						<path class="st0" d="M26,12.8c1.2-1,1-4.2,0.4-5c-0.8-1.1-1.7-1.8-2.4-2.2s-2.8-0.7-3.8-0.7c-1.3,0-2.6,0.3-3.7,0.6
							c-1.2,0.3-3.4,1.1-4.5,2.3c-1.3,1.4-0.1,4.1,0.2,4.5c0.6,0.8,1.3,1.5,2.2,1.9c0.9,0.4,1.6,0.4,2.3,0.4c0.5,0,2.7,0.3,4,0
							c0.9-0.2,2.5-0.5,2.9-0.7C24,13.9,25,13.6,26,12.8L26,12.8z"/>
						<path class="st1" d="M25.8,12.7c1.2-1,1-4.1,0.4-4.9c-0.8-1.1-1.6-1.8-2.4-2.1C23,5.3,21,5,20.1,5c-1.3,0-2.6,0.3-3.6,0.6
							c-1.2,0.3-3.4,1.1-4.4,2.3c-1.2,1.3-0.2,4,0.2,4.4c0.6,0.7,1.3,1.5,2.2,1.9c0.9,0.4,1.6,0.4,2.3,0.4c0.5,0,2.6,0.3,3.9,0.1
							c0.9-0.2,2.4-0.5,2.9-0.7C23.8,13.7,24.8,13.5,25.8,12.7z"/>
						<path class="st2" d="M25.6,12.6c1.2-1,1-3.9,0.4-4.8c-0.8-1.1-1.6-1.7-2.4-2.1c-0.7-0.3-2.6-0.7-3.5-0.7
							c-1.3,0-2.5,0.3-3.6,0.6c-1.1,0.3-3.4,1.1-4.4,2.2c-1.2,1.3-0.2,3.9,0.2,4.3c0.6,0.7,1.2,1.4,2.1,1.9c0.9,0.4,1.6,0.3,2.2,0.4
							c0.5,0,2.5,0.4,3.8,0.1c0.9-0.2,2.4-0.5,2.8-0.7C23.6,13.6,24.6,13.4,25.6,12.6z"/>
						<path class="st3" d="M25.4,12.5c1.2-0.9,1-3.8,0.4-4.6c-0.8-1.1-1.6-1.7-2.3-2c-0.7-0.3-2.5-0.7-3.4-0.7
							c-1.2,0-2.5,0.3-3.5,0.5c-1.1,0.3-3.3,1.1-4.3,2.2c-1.1,1.2-0.2,3.8,0.1,4.2c0.6,0.7,1.2,1.4,2.1,1.8c0.9,0.4,1.6,0.3,2.2,0.4
							c0.5,0.1,2.5,0.4,3.8,0.1c0.9-0.2,2.3-0.5,2.7-0.8C23.5,13.4,24.4,13.2,25.4,12.5L25.4,12.5z"/>
						<path class="st4" d="M25.2,12.4c1.1-0.9,1-3.6,0.4-4.5c-0.8-1.1-1.6-1.7-2.3-2c-0.7-0.3-2.4-0.7-3.3-0.7
							c-1.2,0-2.5,0.2-3.5,0.5c-1.1,0.3-3.3,1.1-4.2,2.2C11.2,9,12,11.5,12.4,12c0.5,0.7,1.1,1.4,2,1.8c0.8,0.4,1.5,0.3,2.1,0.4
							c0.5,0.1,2.4,0.4,3.7,0.2c0.9-0.2,2.3-0.6,2.7-0.8S24.2,13.1,25.2,12.4L25.2,12.4z"/>
						<path class="st5" d="M25,12.3c1.1-0.9,1-3.5,0.4-4.4c-0.7-1.1-1.6-1.6-2.3-2c-0.7-0.3-2.3-0.7-3.2-0.7
							c-1.2-0.1-2.4,0.2-3.5,0.5c-1.1,0.3-3.3,1.1-4.2,2.1c-1,1.1-0.3,3.5,0.1,4c0.5,0.6,1,1.3,2,1.7c0.8,0.4,1.5,0.3,2.1,0.3
							c0.5,0.1,2.3,0.4,3.6,0.2c1-0.2,2.2-0.6,2.6-0.8C23.1,13.1,24.1,13,25,12.3L25,12.3z"/>
						<path class="st6" d="M24.8,12.2c1.1-0.8,1-3.4,0.4-4.3C24.5,6.8,23.7,6.3,23,6c-0.6-0.3-2.2-0.6-3.1-0.7
							c-1.1-0.1-2.4,0.2-3.4,0.5c-1.1,0.3-3.2,1.2-4.1,2.1c-1,1.1-0.3,3.4,0.1,3.9c0.5,0.6,1,1.3,1.9,1.7c0.8,0.3,1.5,0.2,2.1,0.3
							c0.5,0.1,2.2,0.5,3.5,0.2c1-0.2,2.2-0.6,2.5-0.8C22.9,13,23.9,12.9,24.8,12.2L24.8,12.2z"/>
						<path class="st7" d="M24.6,12.1c1.1-0.8,1-3.2,0.4-4.1c-0.7-1.1-1.5-1.5-2.2-1.9c-0.6-0.3-2.1-0.6-2.9-0.7
							c-1.1-0.1-2.4,0.2-3.4,0.4c-1.1,0.3-3.2,1.2-4,2c-0.9,1-0.3,3.3,0.1,3.8s0.9,1.3,1.9,1.6c0.8,0.3,1.5,0.2,2,0.3
							c0.5,0.1,2.1,0.5,3.4,0.3c1-0.2,2.1-0.6,2.5-0.8C22.7,12.8,23.7,12.7,24.6,12.1L24.6,12.1z"/>
						<path class="st8" d="M24.4,12c1.1-0.8,1-3.1,0.4-4c-0.7-1.1-1.5-1.5-2.2-1.8c-0.6-0.3-2-0.6-2.8-0.7c-1.1-0.1-2.3,0.2-3.3,0.4
							c-1.1,0.3-3.2,1.2-3.9,2c-0.9,1-0.4,3.1,0.1,3.7s0.9,1.2,1.8,1.6c0.8,0.3,1.5,0.2,2,0.2c0.4,0.1,2,0.6,3.3,0.3
							c1-0.2,2.1-0.7,2.4-0.8C22.6,12.7,23.5,12.6,24.4,12L24.4,12z"/>
						<path class="st9" d="M24.2,11.9c1-0.7,1-3,0.4-3.9c-0.7-1.1-1.5-1.5-2.2-1.8c-0.6-0.3-1.9-0.6-2.7-0.7c-1-0.1-2.3,0.1-3.3,0.4
							c-1.1,0.3-3.1,1.2-3.9,1.9c-0.9,0.9-0.4,3,0.1,3.6c0.4,0.5,0.8,1.2,1.7,1.6c0.8,0.3,1.4,0.1,1.9,0.2c0.4,0.1,2,0.6,3.2,0.3
							c1-0.2,2-0.7,2.3-0.9C22.4,12.5,23.3,12.5,24.2,11.9L24.2,11.9z"/>
						<path class="st10" d="M24,11.8c1-0.7,1-2.8,0.5-3.8c-0.7-1.1-1.5-1.4-2.1-1.7c-0.6-0.3-1.8-0.6-2.6-0.7
							c-1-0.1-2.2,0.1-3.2,0.4c-1.1,0.3-3.1,1.2-3.8,1.9c-0.8,0.9-0.4,2.9,0.1,3.5c0.4,0.5,0.8,1.2,1.7,1.5c0.8,0.3,1.4,0.1,1.9,0.2
							c0.4,0.1,1.9,0.6,3.2,0.4c1-0.2,2-0.7,2.3-0.9C22.2,12.4,23.1,12.4,24,11.8L24,11.8z"/>
						<path class="st11" d="M23.8,11.7c1-0.7,1-2.7,0.5-3.6c-0.6-1.1-1.4-1.4-2.1-1.7c-0.6-0.3-1.6-0.6-2.5-0.7
							c-1-0.1-2.2,0.1-3.2,0.4c-1.1,0.3-3.1,1.2-3.7,1.8c-0.8,0.8-0.4,2.8,0.1,3.4c0.4,0.5,0.7,1.2,1.6,1.5c0.8,0.3,1.4,0.1,1.8,0.2
							c0.4,0.1,1.8,0.6,3.1,0.4c1-0.2,1.9-0.7,2.2-0.9C22,12.2,22.9,12.2,23.8,11.7L23.8,11.7z"/>
						<path class="st12" d="M23.6,11.6c1-0.6,1-2.6,0.5-3.5c-0.6-1.1-1.4-1.4-2.1-1.7c-0.5-0.3-1.5-0.6-2.4-0.7
							c-0.9-0.1-2.2,0.1-3.1,0.3c-1.1,0.3-3,1.2-3.7,1.8c-0.7,0.8-0.5,2.6,0.1,3.3c0.4,0.5,0.6,1.1,1.6,1.4c0.8,0.3,1.4,0.1,1.8,0.1
							c0.4,0.1,1.7,0.7,3,0.4c1-0.2,1.9-0.8,2.1-0.9C21.9,12.1,22.7,12.1,23.6,11.6L23.6,11.6z"/>
						<path class="st13" d="M23.4,11.4c1-0.6,1-2.4,0.5-3.4c-0.6-1.1-1.4-1.3-2-1.6c-0.5-0.2-1.4-0.6-2.2-0.7
							c-0.9-0.1-2.1,0-3.1,0.3c-1.1,0.3-3,1.2-3.6,1.8c-0.7,0.7-0.5,2.5,0.1,3.2c0.4,0.4,0.6,1.1,1.5,1.4c0.8,0.2,1.4,0,1.8,0.1
							c0.4,0.1,1.6,0.7,2.9,0.5c1-0.2,1.8-0.8,2.1-0.9C21.7,11.9,22.6,12,23.4,11.4L23.4,11.4z"/>
						<path class="st14" d="M23.2,11.4c1-0.6,1-2.3,0.5-3.2c-0.6-1.1-1.4-1.3-2-1.6c-0.5-0.2-1.3-0.6-2.1-0.7c-0.9-0.1-2.1,0-3,0.3
							c-1.1,0.3-3,1.2-3.5,1.7c-0.6,0.7-0.5,2.4,0.1,3.1c0.4,0.4,0.5,1.1,1.5,1.4c0.7,0.2,1.3,0,1.7,0.1c0.4,0.1,1.5,0.7,2.8,0.5
							c1-0.2,1.8-0.8,2-0.9C21.5,11.8,22.4,11.9,23.2,11.4L23.2,11.4z"/>
						<path class="st15" d="M23,11.2c1-0.6,1-2.1,0.5-3.1c-0.6-1.2-1.4-1.3-2-1.5c-0.5-0.2-1.2-0.6-2-0.7s-2,0-3,0.3
							c-1,0.3-2.9,1.2-3.4,1.7c-0.6,0.6-0.6,2.2,0.1,3c0.3,0.4,0.5,1,1.4,1.3c0.7,0.2,1.3,0,1.7,0.1c0.4,0.1,1.5,0.8,2.8,0.6
							c1-0.2,1.7-0.8,2-1C21.3,11.6,22.2,11.8,23,11.2L23,11.2z"/>
						<path class="st16" d="M22.8,11.1c0.9-0.5,1-2,0.5-3c-0.6-1.2-1.3-1.2-2-1.5c-0.5-0.2-1.1-0.5-1.9-0.7s-2,0-2.9,0.2
							c-1,0.3-2.9,1.2-3.4,1.6c-0.6,0.6-0.6,2.1,0,2.9c0.3,0.4,0.4,1,1.4,1.3c0.7,0.2,1.3,0,1.6,0.1c0.4,0.1,1.4,0.8,2.7,0.6
							c1-0.2,1.6-0.8,1.9-1C21.2,11.5,22,11.6,22.8,11.1L22.8,11.1z"/>
						<path class="st17" d="M22.6,11c0.9-0.5,1-1.9,0.5-2.9C22.6,7,21.8,7,21.2,6.7c-0.5-0.2-1-0.5-1.8-0.7s-2-0.1-2.9,0.2
							c-1,0.3-2.9,1.2-3.3,1.6c-0.5,0.5-0.6,2,0,2.8c0.3,0.4,0.3,1,1.3,1.2c0.7,0.2,1.3-0.1,1.6,0c0.4,0.1,1.3,0.8,2.6,0.6
							c1-0.2,1.6-0.9,1.8-1C21,11.3,21.8,11.5,22.6,11L22.6,11z"/>
						<path class="st18" d="M22.5,10.9c0.9-0.5,1-1.7,0.5-2.7C22.4,7,21.7,7,21.1,6.8c-0.5-0.2-0.9-0.5-1.6-0.7S17.5,6,16.6,6.3
							c-1,0.3-2.8,1.2-3.2,1.6c-0.5,0.5-0.6,1.9,0,2.7c0.3,0.3,0.3,0.9,1.2,1.2c0.7,0.2,1.3-0.1,1.6,0c0.4,0.1,1.2,0.9,2.5,0.7
							c1-0.2,1.5-0.9,1.8-1C20.8,11.2,21.6,11.4,22.5,10.9z"/>
						<path class="st19" d="M22.3,10.8c0.9-0.4,1-1.6,0.5-2.6c-0.5-1.2-1.3-1.1-1.9-1.4c-0.4-0.2-0.8-0.5-1.5-0.7
							c-0.7-0.2-1.9-0.1-2.8,0.2c-1,0.3-2.8,1.2-3.2,1.5c-0.4,0.4-0.7,1.8,0,2.6c0.2,0.3,0.2,0.9,1.2,1.1c0.7,0.2,1.2-0.1,1.5,0
							c0.4,0.1,1.1,0.9,2.4,0.7c1-0.2,1.5-0.9,1.7-1C20.6,11,21.4,11.2,22.3,10.8L22.3,10.8z"/>
						<path class="st20" d="M22.1,10.7c0.9-0.4,1-1.4,0.5-2.5c-0.5-1.2-1.2-1.1-1.9-1.3c-0.4-0.2-0.7-0.5-1.4-0.7
							c-0.7-0.2-1.9-0.1-2.7,0.2c-1,0.3-2.8,1.2-3.1,1.5c-0.4,0.4-0.7,1.6,0,2.5c0.2,0.3,0.2,0.9,1.1,1.1c0.7,0.2,1.2-0.1,1.5,0
							c0.4,0.1,1,0.9,2.3,0.7c1-0.2,1.4-0.9,1.6-1.1C20.4,10.8,21.2,11.1,22.1,10.7L22.1,10.7z"/>
						<path class="st21" d="M21.9,10.6c0.8-0.4,1-1.3,0.5-2.4c-0.5-1.2-1.2-1-1.8-1.3c-0.4-0.2-0.6-0.5-1.3-0.7
							c-0.6-0.2-1.8-0.1-2.7,0.1c-1,0.3-2.7,1.2-3,1.4c-0.3,0.3-0.7,1.5,0,2.4c0.2,0.2,0.1,0.9,1.1,1.1c0.7,0.1,1.2-0.2,1.4-0.1
							c0.4,0.1,1,1,2.2,0.8c1-0.2,1.4-1,1.6-1.1C20.3,10.7,21,11,21.9,10.6z"/>
					</g>
					<path class="st24" d="M20.7,6.7c0,0-0.1,0-0.1,0C20.4,6,19.7,5.5,19,5.5c-0.2,0-0.5,0-0.6,0.1c-0.2-0.7-0.9-1.1-1.6-1.1
						c-0.7,0-1.3,0.4-1.6,1.1c-0.1,0-0.2,0-0.3,0c-0.8,0-1.4,0.6-1.5,1.3c-0.1,0-0.2,0-0.3,0c-0.9,0-1.7,0.8-1.7,1.7
						s0.8,1.7,1.7,1.7c0,0,0,0,0,0c0.2,0.7,0.8,1.2,1.5,1.2c0.6,0,1.1-0.3,1.3-0.8c0.4,0.6,1.1,1.1,1.9,1.1c0.9,0,1.6-0.5,2-1.3
						c0.3,0.2,0.6,0.3,1,0.3c1.1,0,2-0.9,2-2S21.9,6.7,20.7,6.7L20.7,6.7z"/>
					<path class="st25" d="M20.8,6.8c0,0-0.1,0-0.1,0c-0.2-0.7-0.9-1.2-1.7-1.2c-0.2,0-0.5,0.1-0.6,0.1c-0.2-0.7-0.9-1.1-1.6-1.1
						S15.4,5,15.2,5.6c-0.1,0-0.2,0-0.3,0c-0.8,0-1.4,0.6-1.5,1.3c-0.1,0-0.2,0-0.3,0c-0.9,0-1.7,0.8-1.7,1.7s0.8,1.7,1.7,1.7
						c0,0,0,0,0,0c0.2,0.7,0.8,1.2,1.5,1.2c0.6,0,1.1-0.3,1.3-0.8c0.4,0.6,1.1,1.1,1.9,1.1c0.9,0,1.6-0.5,2-1.3
						c0.3,0.2,0.6,0.3,1,0.3c1.1,0,2-0.9,2-2S21.9,6.7,20.8,6.8L20.8,6.8z"/>
				</g>
				<g>
					<g>
						<path class="st0" d="M24.6,9.2c1.4-1.5,1.3-4.5,0.5-5.6c-1-1.4-2.3-2-3.3-2.4c-1-0.5-2.3-0.9-3.5-1.1
							c-1.5-0.2-3.1,0.4-4.5,0.8c-1.5,0.4-6.1,2-7.5,3.5c-0.8,0.8-1,1.9-0.8,2.9c0.1,1.1,0.6,2.1,0.8,2.4c0.8,1,3.6,1.9,4.8,2.5
							c1.1,0.5,2.1,0.5,2.9,0.6c0.6,0.1,2.4,0,4.1-0.4c1.2-0.2,2.4-1.2,2.9-1.4C21.7,10.7,23.5,10.3,24.6,9.2L24.6,9.2z"/>
						<path class="st1" d="M24.4,9.1c1.4-1.4,1.4-4.4,0.6-5.5c-1-1.4-2.3-1.9-3.2-2.4c-0.9-0.5-2.3-0.9-3.5-1.1
							c-1.5-0.2-3.1,0.4-4.4,0.8c-1.5,0.4-6.1,2-7.5,3.4c-0.8,0.8-1,1.9-0.8,2.9c0.2,1.1,0.7,2.1,0.9,2.3c0.8,0.9,3.5,1.9,4.7,2.4
							c1.1,0.5,2.1,0.4,2.9,0.5c0.6,0.1,2.4,0.1,4.1-0.3c1.2-0.2,2.3-1.2,2.9-1.5C21.5,10.5,23.3,10.2,24.4,9.1L24.4,9.1z"/>
						<path class="st2" d="M24.2,9c1.4-1.4,1.4-4.3,0.6-5.3c-1-1.4-2.2-1.9-3.1-2.3c-0.9-0.4-2.2-0.9-3.4-1.1
							c-1.4-0.2-3,0.4-4.4,0.7c-1.5,0.4-6.1,1.9-7.4,3.3c-0.8,0.8-1,1.9-0.8,2.9c0.2,1.1,0.7,2,1,2.3c0.8,0.8,3.4,1.9,4.5,2.4
							c1.1,0.5,2,0.4,2.8,0.4c0.6,0.1,2.3,0.2,4-0.2c1.2-0.2,2.3-1.2,2.8-1.5C21.4,10.3,23.1,10.1,24.2,9L24.2,9z"/>
						<path class="st3" d="M24,8.9c1.4-1.3,1.4-4.1,0.6-5.2c-1-1.4-2.2-1.8-3.1-2.3c-0.9-0.4-2.1-0.9-3.3-1.1
							c-1.4-0.2-2.9,0.3-4.3,0.7C12.5,1.5,7.8,3,6.5,4.3C5.8,5.1,5.6,6.2,5.8,7.1c0.2,1.1,0.8,1.9,1.1,2.2c0.8,0.8,3.2,1.8,4.4,2.3
							c1.1,0.5,2,0.3,2.8,0.4c0.6,0.1,2.2,0.2,4-0.1c1.2-0.3,2.2-1.2,2.7-1.5S22.9,9.9,24,8.9L24,8.9z"/>
						<path class="st4" d="M23.8,8.8c1.4-1.3,1.4-4,0.6-5.1c-1-1.4-2.1-1.8-3-2.2c-0.9-0.4-2-0.9-3.2-1.1c-1.4-0.2-2.8,0.3-4.2,0.7
							c-1.4,0.4-6.1,1.9-7.4,3.2C5.9,5.1,5.7,6.1,5.8,7.1C6,8.1,6.7,8.9,7,9.2c0.8,0.7,3.1,1.8,4.3,2.3c1.1,0.5,2,0.2,2.7,0.3
							c0.6,0.1,2.1,0.3,3.9-0.1c1.2-0.3,2.2-1.2,2.7-1.5C21.1,9.9,22.7,9.8,23.8,8.8L23.8,8.8z"/>
						<path class="st5" d="M23.6,8.7c1.4-1.2,1.4-3.8,0.6-4.9c-0.9-1.3-2.1-1.7-3-2.2c-0.9-0.4-1.9-0.8-3.1-1
							c-1.3-0.3-2.8,0.2-4.1,0.6c-1.4,0.4-6.2,1.9-7.4,3.1C5.9,5.1,5.7,6.1,5.9,7c0.2,1,0.9,1.8,1.2,2.1c0.8,0.7,3,1.7,4.2,2.2
							c1.1,0.4,1.9,0.1,2.7,0.2c0.6,0.1,2,0.4,3.9,0c1.2-0.3,2.1-1.3,2.6-1.5S22.5,9.7,23.6,8.7L23.6,8.7z"/>
						<path class="st6" d="M23.3,8.6c1.3-1.2,1.4-3.7,0.6-4.8c-0.9-1.3-2-1.7-2.9-2.1c-0.8-0.4-1.8-0.8-3-1c-1.3-0.3-2.7,0.2-4,0.6
							c-1.4,0.4-6.2,1.9-7.3,3C6,5,5.8,6.1,6,7c0.2,1,0.9,1.7,1.3,2c0.8,0.6,2.8,1.7,4,2.2c1.1,0.4,1.9,0,2.6,0.1
							c0.6,0.1,2,0.5,3.8,0.1c1.2-0.3,2.1-1.3,2.5-1.5C20.8,9.5,22.3,9.5,23.3,8.6L23.3,8.6z"/>
						<path class="st7" d="M23.1,8.5c1.3-1.1,1.4-3.6,0.7-4.6c-0.9-1.3-2-1.6-2.9-2.1c-0.8-0.4-1.7-0.8-2.9-1s-2.6,0.2-3.9,0.6
							c-1.4,0.4-6.2,1.9-7.3,3C6,5,5.9,6.1,6.1,7c0.2,1,1,1.6,1.4,1.9c0.8,0.6,2.7,1.6,3.9,2.1c1,0.4,1.9,0,2.5,0.1
							c0.6,0.1,1.9,0.6,3.8,0.1c1.2-0.3,2-1.3,2.5-1.6C20.7,9.4,22.1,9.4,23.1,8.5L23.1,8.5z"/>
						<path class="st8" d="M22.9,8.4c1.3-1.1,1.4-3.4,0.7-4.5c-0.9-1.3-1.9-1.6-2.8-2c-0.8-0.4-1.6-0.8-2.8-1S15.4,1,14.1,1.4
							c-1.4,0.4-6.2,1.9-7.3,2.9C6.1,5,5.9,6,6.1,6.9c0.3,1,1,1.6,1.4,1.8c0.7,0.5,2.6,1.6,3.8,2.1c1,0.4,1.8-0.1,2.5,0
							c0.6,0.1,1.8,0.7,3.7,0.2c1.2-0.3,2-1.3,2.4-1.6C20.5,9.2,21.8,9.3,22.9,8.4L22.9,8.4z"/>
						<path class="st9" d="M22.7,8.2c1.3-1,1.4-3.3,0.7-4.3c-0.8-1.3-1.9-1.5-2.7-1.9c-0.8-0.4-1.5-0.8-2.7-1s-2.5,0.1-3.8,0.5
							c-1.4,0.4-6.2,1.9-7.3,2.8C6.2,5,6,6,6.2,6.8c0.3,0.9,1,1.6,1.5,1.8c0.6,0.6,2.5,1.5,3.7,2c1,0.4,1.8-0.2,2.4-0.1
							c0.6,0.1,1.8,0.7,3.7,0.3c1.2-0.3,1.9-1.4,2.4-1.6C20.4,9,21.6,9.1,22.7,8.2L22.7,8.2z"/>
						<path class="st10" d="M22.5,8.1c1.3-1,1.4-3.2,0.7-4.2c-0.8-1.2-1.8-1.5-2.7-1.9c-0.8-0.3-1.5-0.7-2.6-1s-2.4,0.1-3.7,0.5
							C12.8,2,8,3.4,7,4.3C6.2,4.9,6,6,6.3,6.8c0.3,0.9,1.1,1.5,1.6,1.7c0.6,0.5,2.3,1.5,3.5,1.9c1,0.4,1.8-0.3,2.4-0.2
							c0.6,0.1,1.7,0.8,3.6,0.4c1.2-0.3,1.9-1.4,2.3-1.6C20.2,8.8,21.4,9,22.5,8.1z"/>
						<path class="st11" d="M22.3,8c1.2-0.9,1.4-3,0.7-4c-0.8-1.2-1.8-1.5-2.6-1.8c-0.7-0.3-1.4-0.7-2.6-1c-1.1-0.3-2.3,0-3.6,0.5
							C12.9,2,8,3.5,7,4.3C6.3,4.9,6.1,6,6.4,6.8C6.7,7.7,7.5,8.2,8,8.4c0.6,0.5,2.2,1.4,3.4,1.9c1,0.3,1.7-0.4,2.3-0.2
							s1.6,0.9,3.6,0.4c1.2-0.3,1.8-1.4,2.2-1.6C20.1,8.6,21.2,8.8,22.3,8L22.3,8z"/>
						<path class="st12" d="M22.1,7.9C23.3,7,23.4,5,22.8,4c-0.8-1.2-1.7-1.4-2.6-1.8c-0.7-0.3-1.3-0.7-2.5-1
							c-1.1-0.3-2.2,0-3.5,0.4C12.9,2.1,8,3.6,7.1,4.3C6.3,4.9,6.1,5.9,6.5,6.7c0.3,0.9,1.2,1.4,1.7,1.6c0.6,0.4,2.1,1.4,3.3,1.8
							c1,0.3,1.7-0.4,2.2-0.3s1.5,1,3.6,0.5c1.2-0.3,1.8-1.4,2.2-1.6C19.9,8.4,21,8.7,22.1,7.9L22.1,7.9z"/>
						<path class="st13" d="M21.8,7.8C23,7,23.2,5.1,22.6,4.1c-0.7-1.2-1.7-1.4-2.5-1.7c-0.7-0.3-1.2-0.7-2.4-1
							c-1-0.3-2.1,0-3.4,0.4C13,2.2,8,3.6,7.1,4.3C6.4,4.9,6.2,5.9,6.5,6.7C6.9,7.5,7.7,8,8.3,8.2c0.6,0.4,2,1.4,3.2,1.8
							c0.9,0.3,1.7-0.5,2.2-0.4s1.4,1.1,3.5,0.6c1.2-0.3,1.8-1.4,2.1-1.6C19.8,8.2,20.8,8.5,21.8,7.8L21.8,7.8z"/>
						<path class="st14" d="M21.6,7.7c1.2-0.8,1.4-2.6,0.8-3.6c-0.7-1.2-1.6-1.3-2.4-1.7c-0.7-0.3-1.1-0.6-2.3-1
							c-1-0.3-2.1,0-3.3,0.4C13,2.2,8,3.7,7.2,4.3S6.3,5.9,6.6,6.6C7,7.5,7.9,7.8,8.5,8.1c0.6,0.3,1.8,1.3,3,1.7
							c0.9,0.3,1.6-0.6,2.1-0.5c0.5,0.1,1.4,1.1,3.5,0.6c1.2-0.3,1.7-1.5,2-1.6C19.6,8,20.6,8.4,21.6,7.7L21.6,7.7z"/>
						<path class="st15" d="M21.4,7.6c1.2-0.7,1.4-2.5,0.8-3.5c-0.7-1.1-1.6-1.3-2.4-1.6c-0.6-0.3-1-0.6-2.2-1c-1-0.3-2-0.1-3.2,0.3
							C13.1,2.3,8,3.7,7.3,4.3S6.3,5.8,6.7,6.6C7.1,7.4,8,7.7,8.6,8c0.6,0.2,1.7,1.3,2.9,1.6c0.9,0.3,1.6-0.7,2.1-0.5
							c0.5,0.1,1.3,1.2,3.4,0.7c1.2-0.3,1.6-1.5,2-1.7C19.5,7.8,20.3,8.3,21.4,7.6L21.4,7.6z"/>
						<path class="st16" d="M21.2,7.5c1.1-0.7,1.4-2.3,0.8-3.3C21.3,3,20.5,3,19.7,2.6c-0.6-0.3-0.9-0.6-2.1-0.9
							c-0.9-0.3-1.9-0.1-3.2,0.3C13.1,2.4,8,3.8,7.3,4.3C6.5,4.8,6.4,5.8,6.8,6.5c0.4,0.8,1.4,1.1,2,1.3c0.5,0.2,1.6,1.2,2.8,1.6
							c0.9,0.3,1.6-0.7,2-0.6c0.5,0.1,1.2,1.3,3.4,0.8c1.3-0.3,1.6-1.5,1.9-1.7C19.3,7.7,20.1,8.1,21.2,7.5L21.2,7.5z"/>
						<path class="st17" d="M21,7.4c1.1-0.7,1.4-2.2,0.8-3.2c-0.6-1.1-1.5-1.2-2.3-1.5c-0.6-0.3-0.9-0.6-2-0.9
							c-0.9-0.3-1.8-0.1-3.1,0.3C13.2,2.5,8,3.9,7.4,4.3C6.6,4.8,6.5,5.8,6.9,6.5c0.4,0.8,1.4,1,2.1,1.2c0.5,0.2,1.4,1.2,2.6,1.5
							c0.9,0.2,1.5-0.8,1.9-0.7c0.5,0.1,1.1,1.4,3.3,0.9c1.3-0.3,1.6-1.5,1.9-1.7C19.2,7.5,19.9,8,21,7.4z"/>
						<path class="st18" d="M20.8,7.3c1.1-0.6,1.4-2.1,0.9-3c-0.6-1.1-1.4-1.1-2.2-1.5c-0.6-0.3-0.8-0.6-1.9-0.9
							c-0.9-0.3-1.8-0.2-3,0.2c-1.3,0.4-6.4,1.8-7.1,2.2C6.7,4.7,6.5,5.8,6.9,6.5c0.4,0.8,1.4,1,2.2,1.2c0.5,0.1,1.3,1.1,2.5,1.5
							c0.9,0.2,1.5-0.9,1.9-0.8c0.5,0.2,1.1,1.5,3.3,0.9c1.3-0.3,1.5-1.5,1.8-1.7C19,7.3,19.7,7.8,20.8,7.3L20.8,7.3z"/>
						<path class="st19" d="M20.5,7.2c1.1-0.6,1.4-1.9,0.9-2.9c-0.6-1.1-1.4-1.1-2.1-1.4c-0.6-0.2-0.7-0.5-1.9-0.9
							c-0.8-0.3-1.7-0.2-2.9,0.2c-1.3,0.4-6.5,1.8-7,2.1C6.7,4.7,6.6,5.7,7,6.4c0.5,0.7,1.5,0.9,2.2,1.1c0.5,0.1,1.2,1.1,2.4,1.4
							c0.9,0.2,1.5-1,1.8-0.8c0.5,0.2,1,1.6,3.2,1c1.3-0.3,1.5-1.6,1.7-1.7C18.9,7.1,19.5,7.7,20.5,7.2L20.5,7.2z"/>
						<path class="st20" d="M20.3,7c1.1-0.5,1.4-1.8,0.9-2.7c-0.6-1-1.3-1-2.1-1.4c-0.5-0.2-0.6-0.5-1.8-0.9
							c-0.8-0.3-1.6-0.2-2.8,0.2c-1.2,0.4-6.5,1.8-7,2C6.8,4.7,6.7,5.7,7.1,6.4c0.5,0.7,1.5,0.9,2.3,1c0.4,0.1,1.1,1.1,2.3,1.3
							c0.9,0.2,1.4-1,1.8-0.9c0.4,0.2,0.9,1.6,3.2,1.1c1.3-0.3,1.4-1.6,1.7-1.7C18.7,6.9,19.3,7.6,20.3,7L20.3,7z"/>
						<path class="st21" d="M20.1,6.9c1.1-0.5,1.4-1.6,0.9-2.6c-0.5-1-1.3-1-2-1.3c-0.5-0.2-0.5-0.5-1.7-0.9
							c-0.8-0.3-1.5-0.3-2.7,0.2c-1.2,0.5-6.5,1.8-7,2C6.8,4.6,6.7,5.7,7.2,6.3C7.7,7,8.7,7.2,9.6,7.3c0.4,0.1,0.9,1,2.1,1.3
							c0.8,0.2,1.4-1.1,1.7-1c0.4,0.2,0.9,1.7,3.1,1.1c1.3-0.3,1.4-1.6,1.6-1.7C18.6,6.7,19.1,7.4,20.1,6.9L20.1,6.9z"/>
					</g>
					<path class="st24" d="M19.2,2.7c-0.1,0-0.2,0-0.3,0c-0.3-1-1.3-1.7-2.4-1.7c-0.5,0-1,0.1-1.4,0.4c-0.3-0.8-1-1.3-1.9-1.3
						c-1,0-1.8,0.7-1.9,1.6c-0.3-0.2-0.6-0.3-1-0.3C9.6,1.4,8.9,2,8.8,2.9c0,0,0,0,0,0c-1.3,0-2.3,1-2.3,2.4s1,2.3,2.3,2.3
						c0.4,0,0.8-0.1,1.1-0.3c0.1,0.8,0.8,1.4,1.7,1.4c0.7,0,1.2-0.4,1.5-1C13.6,8.5,14.5,9,15.5,9c1.3,0,2.4-0.8,2.7-2
						c0.3,0.2,0.7,0.2,1,0.2c1.2,0,2.3-1,2.3-2.3S20.5,2.8,19.2,2.7L19.2,2.7z"/>
					<path class="st22" d="M19.3,2.8c-0.1,0-0.2,0-0.3,0c-0.3-1-1.3-1.7-2.4-1.7c-0.5,0-1,0.2-1.4,0.4c-0.3-0.8-1-1.3-1.9-1.3
						c-1,0-1.8,0.7-1.9,1.6c-0.3-0.2-0.6-0.3-1-0.3c-0.8,0-1.5,0.6-1.6,1.4h0c-1.3,0-2.3,1-2.3,2.4s1,2.3,2.3,2.3
						c0.4,0,0.8-0.1,1.1-0.3c0.1,0.8,0.8,1.4,1.7,1.4c0.7,0,1.2-0.4,1.5-1c0.5,0.8,1.4,1.3,2.4,1.3c1.3,0,2.4-0.8,2.7-2
						c0.3,0.2,0.7,0.2,1,0.2c1.2,0,2.3-1,2.3-2.3S20.6,2.8,19.3,2.8L19.3,2.8z"/>
				</g>
				<g>
					<g>
						<path class="st0" d="M15.5,12.2c0.7-1.1,0.4-3.1-0.1-3.8c-0.7-0.9-1.6-1.3-2.2-1.7s-2-0.9-2.8-0.9c-1.1,0-1.7,0.4-2.6,0.7
							c-1,0.3-2.6,1.8-3.5,2.8c-1.1,1.2-0.8,2.9-0.5,3.2c0.5,0.6,1.1,1.3,1.9,1.6c0.7,0.4,1.4,0.3,1.9,0.4c0.4,0,0.9,0.2,2,0
							c0.8-0.2,1.1-0.2,1.5-0.4C12,13.9,14.6,13.5,15.5,12.2L15.5,12.2z"/>
						<path class="st1" d="M15.4,12.2c0.7-1.1,0.4-3-0.1-3.8c-0.7-0.9-1.6-1.3-2.2-1.6c-0.6-0.3-1.9-0.9-2.7-0.9
							c-1.1,0-1.7,0.4-2.6,0.6c-1,0.3-2.6,1.8-3.4,2.7c-1,1.1-0.8,2.8-0.5,3.2C4.3,13,4.9,13.6,5.7,14c0.7,0.3,1.4,0.3,1.9,0.3
							c0.4,0,0.9,0.2,2,0c0.8-0.2,1.1-0.2,1.5-0.3C11.9,13.8,14.5,13.4,15.4,12.2z"/>
						<path class="st2" d="M15.2,12.1c0.7-1,0.5-2.9,0-3.7c-0.7-0.9-1.6-1.3-2.2-1.6C12.4,6.6,11.1,6,10.3,6c-1.1,0-1.7,0.4-2.5,0.6
							c-1,0.3-2.5,1.7-3.4,2.7c-1,1.1-0.8,2.7-0.5,3.1c0.5,0.6,1,1.2,1.8,1.5c0.8,0.3,1.3,0.3,1.9,0.3c0.4,0,0.9,0.2,2,0
							c0.8-0.2,1.2-0.2,1.5-0.3C11.9,13.6,14.3,13.4,15.2,12.1L15.2,12.1z"/>
						<path class="st3" d="M15,12.1c0.7-1,0.5-2.8,0-3.6c-0.6-0.9-1.6-1.3-2.2-1.6c-0.6-0.3-1.8-0.9-2.6-0.9c-1,0-1.7,0.3-2.5,0.6
							C6.8,6.9,5.3,8.3,4.5,9.2c-0.9,1-0.9,2.6-0.5,3c0.5,0.6,1,1.2,1.8,1.5C6.5,14,7.1,14,7.6,14c0.4,0,0.9,0.2,2,0
							c0.8-0.2,1.2-0.2,1.5-0.3C11.8,13.5,14.2,13.2,15,12.1L15,12.1z"/>
						<path class="st4" d="M14.9,12c0.7-0.9,0.6-2.7,0.1-3.4c-0.6-0.9-1.6-1.3-2.1-1.5c-0.6-0.3-1.8-0.9-2.5-0.9
							c-1,0-1.6,0.3-2.5,0.6C6.8,6.9,5.3,8.4,4.5,9.2c-0.9,1-0.9,2.6-0.6,3c0.4,0.6,1,1.1,1.8,1.4s1.3,0.2,1.8,0.2
							c0.4,0,0.9,0.2,2,0c0.8-0.1,1.2-0.2,1.5-0.3C11.8,13.4,14,13.2,14.9,12L14.9,12z"/>
						<path class="st5" d="M14.7,12c0.7-0.9,0.6-2.6,0.1-3.4c-0.6-0.9-1.5-1.2-2.1-1.5c-0.6-0.3-1.7-0.9-2.5-0.9
							c-1,0-1.6,0.3-2.5,0.5C6.8,6.9,5.3,8.4,4.6,9.2c-0.9,0.9-0.9,2.5-0.6,2.9c0.4,0.5,0.9,1.1,1.7,1.4s1.3,0.1,1.8,0.2
							c0.4,0.1,0.9,0.2,2,0c0.8-0.1,1.2-0.3,1.5-0.3C11.7,13.2,13.9,13,14.7,12L14.7,12z"/>
						<path class="st6" d="M14.6,11.9c0.7-0.9,0.6-2.5,0.2-3.3c-0.6-0.9-1.5-1.2-2.1-1.5c-0.5-0.3-1.7-0.9-2.4-0.9
							C9.3,6.2,8.6,6.5,7.7,6.7C6.8,7,5.4,8.4,4.7,9.2c-0.8,0.9-0.9,2.4-0.6,2.8c0.4,0.5,0.9,1.1,1.7,1.4s1.3,0.1,1.8,0.2
							c0.4,0.1,0.9,0.2,2,0c0.8-0.1,1.2-0.3,1.5-0.3C11.7,13.1,13.7,12.9,14.6,11.9L14.6,11.9z"/>
						<path class="st7" d="M14.4,11.9c0.7-0.8,0.7-2.4,0.2-3.2c-0.6-0.9-1.5-1.2-2.1-1.5C12,7,10.9,6.3,10.2,6.3
							C9.3,6.2,8.5,6.5,7.7,6.8C6.8,7,5.4,8.4,4.7,9.2c-0.8,0.9-1,2.3-0.6,2.8S5,13,5.8,13.2s1.3,0.1,1.7,0.1c0.4,0.1,0.9,0.2,2,0
							c0.8-0.1,1.2-0.3,1.5-0.3C11.7,13,13.6,12.9,14.4,11.9z"/>
						<path class="st8" d="M14.3,11.8C15,11,15,9.5,14.5,8.8C14,7.8,13,7.6,12.4,7.3c-0.5-0.2-1.6-0.9-2.3-1
							C9.2,6.3,8.5,6.6,7.7,6.8C6.8,7.1,5.4,8.4,4.7,9.1c-0.8,0.8-1,2.2-0.6,2.7s0.8,1,1.6,1.3s1.3,0,1.7,0.1c0.4,0.1,0.9,0.2,2,0
							c0.8-0.1,1.2-0.3,1.5-0.3C11.6,12.8,13.4,12.8,14.3,11.8L14.3,11.8z"/>
						<path class="st9" d="M14.1,11.8c0.7-0.8,0.8-2.2,0.3-3c-0.6-1-1.5-1.1-2.1-1.4c-0.5-0.2-1.5-0.9-2.2-1
							C9.2,6.3,8.5,6.6,7.7,6.8C6.8,7.1,5.4,8.5,4.8,9.1c-0.7,0.8-1,2.1-0.6,2.6c0.4,0.4,0.8,1,1.6,1.2s1.3,0,1.7,0.1
							c0.4,0.1,0.9,0.2,1.9,0c0.8-0.1,1.2-0.3,1.5-0.3C11.6,12.7,13.3,12.6,14.1,11.8L14.1,11.8z"/>
						<path class="st10" d="M14,11.7c0.7-0.7,0.8-2.1,0.4-2.9c-0.6-1-1.5-1.1-2.1-1.4c-0.5-0.2-1.5-0.9-2.2-1
							C9.3,6.4,8.5,6.6,7.7,6.9C6.8,7.1,5.5,8.5,4.9,9.1c-0.7,0.7-1.1,2.1-0.6,2.6c0.3,0.4,0.8,1,1.6,1.2s1.3,0,1.7,0
							c0.4,0.1,0.9,0.2,1.9,0c0.8-0.1,1.2-0.3,1.5-0.3C11.5,12.6,13.2,12.6,14,11.7L14,11.7z"/>
						<path class="st11" d="M13.8,11.7c0.7-0.7,0.9-2,0.4-2.8c-0.5-1-1.5-1.1-2.1-1.4c-0.5-0.2-1.4-0.9-2.1-1
							C9.2,6.5,8.4,6.7,7.6,6.9C6.7,7.2,5.5,8.5,4.9,9.1c-0.7,0.7-1.1,2-0.6,2.5C4.6,12,5,12.5,5.8,12.7s1.3-0.1,1.6,0
							s0.9,0.2,1.9,0.1c0.8-0.1,1.3-0.3,1.5-0.3C11.5,12.4,13,12.5,13.8,11.7L13.8,11.7z"/>
						<path class="st12" d="M13.7,11.6c0.7-0.7,0.9-1.9,0.5-2.7c-0.5-1-1.5-1.1-2.1-1.3c-0.5-0.2-1.4-0.9-2.1-1
							C9.2,6.5,8.4,6.7,7.6,6.9C6.7,7.2,5.5,8.5,5,9.1C4.4,9.7,3.9,11,4.3,11.5c0.3,0.4,0.7,0.9,1.5,1.1s1.2-0.1,1.6,0
							s0.8,0.2,1.9,0.1c0.8-0.1,1.3-0.3,1.5-0.3C11.4,12.3,12.9,12.4,13.7,11.6z"/>
						<path class="st13" d="M13.5,11.6c0.7-0.6,1-1.8,0.5-2.6c-0.5-1-1.5-1.1-2-1.3c-0.4-0.2-1.3-0.9-2-1C9.2,6.6,8.4,6.8,7.6,7
							C6.7,7.2,5.5,8.6,5,9.1c-0.6,0.6-1.1,1.8-0.7,2.4c0.3,0.4,0.7,0.9,1.5,1s1.2-0.1,1.6-0.1s0.9,0.2,1.9,0.1
							c0.8-0.1,1.3-0.3,1.5-0.3C11.4,12.2,12.7,12.3,13.5,11.6z"/>
						<path class="st14" d="M13.4,11.5c0.7-0.6,1-1.7,0.6-2.5c-0.5-1-1.5-1-2-1.3c-0.4-0.2-1.3-0.9-2-1.1C9.2,6.6,8.4,6.8,7.6,7
							c-0.9,0.3-2,1.5-2.5,2c-0.5,0.6-1.2,1.7-0.7,2.3c0.3,0.4,0.7,0.8,1.5,1s1.2-0.2,1.5-0.1c0.3,0.1,0.9,0.2,1.9,0.1
							c0.8-0.1,1.3-0.3,1.5-0.3C11.3,12,12.6,12.2,13.4,11.5L13.4,11.5z"/>
						<path class="st15" d="M13.2,11.5c0.7-0.6,1.1-1.6,0.6-2.4c-0.5-1-1.5-1-2-1.3c-0.4-0.2-1.2-0.9-1.9-1.1S8.3,6.8,7.6,7
							c-0.9,0.3-2,1.5-2.4,2c-0.5,0.5-1.2,1.6-0.7,2.2c0.3,0.3,0.6,0.8,1.4,0.9s1.2-0.2,1.5-0.1c0.3,0.1,0.8,0.2,1.9,0.1
							c0.8-0.1,1.3-0.3,1.5-0.3C11.3,11.9,12.4,12.1,13.2,11.5z"/>
						<path class="st16" d="M13.1,11.4c0.7-0.5,1.1-1.4,0.7-2.3c-0.5-1-1.5-1-2-1.2C11.3,7.7,10.5,7,9.9,6.8s-1.6,0-2.3,0.2
							C6.7,7.3,5.6,8.6,5.2,9C4.7,9.5,4,10.6,4.5,11.2c0.3,0.3,0.6,0.8,1.4,0.9s1.2-0.2,1.5-0.2C7.7,12,8.2,12.2,9.3,12
							c0.9-0.1,1.3-0.3,1.5-0.3C11.3,11.8,12.3,12,13.1,11.4L13.1,11.4z"/>
						<path class="st17" d="M12.9,11.4c0.7-0.5,1.1-1.3,0.7-2.2c-0.5-1-1.5-1-2-1.2c-0.4-0.2-1.1-0.9-1.8-1.1s-1.6,0-2.3,0.2
							C6.7,7.4,5.6,8.6,5.3,9C4.8,9.4,4,10.5,4.5,11.1c0.2,0.3,0.6,0.8,1.4,0.8s1.2-0.3,1.5-0.2c0.3,0.1,0.8,0.2,1.9,0.1
							c0.9-0.1,1.3-0.3,1.5-0.3C11.2,11.7,12.2,11.9,12.9,11.4L12.9,11.4z"/>
						<path class="st18" d="M12.7,11.3c0.7-0.4,1.2-1.2,0.8-2.1c-0.5-1-1.5-0.9-2-1.2c-0.4-0.2-1.1-1-1.7-1.1s-1.6,0-2.3,0.2
							C6.7,7.4,5.6,8.6,5.3,9C4.9,9.4,4,10.4,4.6,11c0.2,0.3,0.5,0.7,1.3,0.8s1.2-0.3,1.4-0.2c0.3,0.1,0.8,0.2,1.9,0.1
							c0.9-0.1,1.3-0.4,1.5-0.3C11.2,11.5,12,11.8,12.7,11.3L12.7,11.3z"/>
						<path class="st19" d="M12.6,11.3c0.7-0.4,1.2-1.1,0.8-2c-0.4-1-1.5-0.9-2-1.1C11.1,8,10.4,7.2,9.8,7C9.2,6.9,8.2,7,7.5,7.2
							C6.7,7.5,5.7,8.7,5.4,9c-0.4,0.4-1.3,1.3-0.7,2c0.2,0.2,0.5,0.7,1.3,0.7c0.8,0.1,1.2-0.4,1.4-0.3c0.3,0.1,0.8,0.2,1.9,0.1
							c0.9-0.1,1.3-0.4,1.5-0.3C11.2,11.4,11.9,11.7,12.6,11.3L12.6,11.3z"/>
						<path class="st20" d="M12.4,11.2c0.7-0.4,1.3-1,0.9-1.9c-0.4-1-1.5-0.9-2-1.1c-0.4-0.2-1-1-1.6-1.1C9.2,7,8.2,7,7.5,7.2
							C6.6,7.5,5.7,8.7,5.4,9c-0.3,0.3-1.3,1.2-0.7,1.9c0.2,0.2,0.4,0.7,1.3,0.7c0.8,0,1.2-0.4,1.4-0.3c0.3,0.1,0.8,0.2,1.9,0.1
							c0.9-0.1,1.4-0.4,1.5-0.3C11.1,11.3,11.7,11.6,12.4,11.2L12.4,11.2z"/>
						<path class="st21" d="M12.3,11.2c0.7-0.3,1.3-0.9,0.9-1.8c-0.4-1-1.4-0.9-1.9-1.1c-0.3-0.1-1-1-1.6-1.1C9.2,7,8.2,7,7.5,7.3
							c-0.8,0.3-1.7,1.4-2,1.7c-0.3,0.3-1.4,1.1-0.8,1.9C4.9,11,5.1,11.4,6,11.4c0.8,0,1.2-0.4,1.4-0.3c0.3,0.1,0.8,0.2,1.9,0.1
							c0.9-0.1,1.4-0.4,1.5-0.3C11.1,11.1,11.6,11.5,12.3,11.2L12.3,11.2z"/>
					</g>
					<path class="st24" d="M11.8,8.2c-0.2,0-0.4,0-0.6,0.1C11,7.1,10,6.2,8.8,6.2C7.6,6.1,6.5,6.9,6.2,7.9l0,0
						c-1-0.1-1.9,0.7-1.9,1.8s0.7,1.9,1.8,1.9c0.5,0,1-0.2,1.4-0.5c0.4,0.2,0.8,0.3,1.2,0.4c0.8,0,1.5-0.3,2-0.8
						c0.3,0.3,0.7,0.6,1.1,0.6c0.9,0,1.6-0.6,1.6-1.4C13.3,9,12.7,8.3,11.8,8.2L11.8,8.2z"/>
				</g>
			</g>
		</g>
	</g>
</g>
</svg>
