<?xml version="1.0" encoding="utf-8"?>
<!-- Generator: Adobe Illustrator 27.0.1, SVG Export Plug-In . SVG Version: 6.00 Build 0)  -->
<svg version="1.1" id="Ebene_1" xmlns="http://www.w3.org/2000/svg" xmlns:xlink="http://www.w3.org/1999/xlink" x="0px" y="0px"
	 viewBox="0 0 28.5 18.8" style="enable-background:new 0 0 28.5 18.8;" xml:space="preserve">
<style type="text/css">
	.st0{fill:#FFFFFF;fill-opacity:0;}
	.st1{opacity:5.000000e-02;fill:#F9FBFB;enable-background:new    ;}
	.st2{opacity:0.1;fill:#F4F6F8;enable-background:new    ;}
	.st3{opacity:0.14;fill:#EEF2F4;enable-background:new    ;}
	.st4{opacity:0.19;fill:#E9EDF1;enable-background:new    ;}
	.st5{opacity:0.24;fill:#E3E9ED;enable-background:new    ;}
	.st6{opacity:0.29;fill:#DEE5EA;enable-background:new    ;}
	.st7{opacity:0.33;fill:#D8E0E6;enable-background:new    ;}
	.st8{opacity:0.38;fill:#D3DCE3;enable-background:new    ;}
	.st9{opacity:0.43;fill:#CDD8DF;enable-background:new    ;}
	.st10{opacity:0.48;fill:#C8D3DC;enable-background:new    ;}
	.st11{opacity:0.52;fill:#C2CFD8;enable-background:new    ;}
	.st12{opacity:0.57;fill:#BDCAD5;enable-background:new    ;}
	.st13{opacity:0.62;fill:#B7C6D1;enable-background:new    ;}
	.st14{opacity:0.67;fill:#B2C2CE;enable-background:new    ;}
	.st15{opacity:0.71;fill:#ACBDCA;enable-background:new    ;}
	.st16{opacity:0.76;fill:#A7B9C7;enable-background:new    ;}
	.st17{opacity:0.81;fill:#A1B5C3;enable-background:new    ;}
	.st18{opacity:0.86;fill:#9CB0C0;enable-background:new    ;}
	.st19{opacity:0.9;fill:#96ACBC;enable-background:new    ;}
	.st20{opacity:0.95;fill:#91A7B9;enable-background:new    ;}
	.st21{fill:#8BA3B5;}
	.st22{fill:#EEF7FA;}
	.st23{fill:#535A5B;}
	.st24{fill:#C5D8DD;}
	.st25{fill:#86979B;}
	.st26{fill:#FFFFFF;}
	.st27{fill:#5D6C70;}
	.st28{fill:#C8CBCC;}
	.st29{fill:#B3C2C4;}
	.st30{fill:#8A999E;}
</style>
<g>
	<g id="Ebene_2_00000183231604600024969890000007355797982215625121_">
		<g id="Paper-Icons">
			<g>
				<g>
					<g>
						<path class="st0" d="M25.8,13.7c2-2,1.9-3.6,1.2-5.3c-0.5-1.3-0.7-2.1-1.6-3.3c-0.7-1.1-2.3-2.4-4.7-2.7
							c-2.3-0.3-7.7,3.4-9.5,3.9c-2,0.5-4.5,1.9-7,3C2.9,9.8,1,11.5,0.9,12.4c-0.1,1.5,0.4,2.1,1.1,2.6s2,1.6,2.8,2
							c0.8,0.4,2.7,0.9,3.4,1c1.4,0.2,2-0.3,3.1-0.2c1.5,0.2,2,0.3,2.7,0.3c0.6,0,1.1-0.1,1.5-0.2c0.5,0,1.3,0,1.9-0.1
							c1.6-0.3,1.8-0.2,2.7-0.5C21.7,16.8,24.2,15.4,25.8,13.7L25.8,13.7z"/>
						<path class="st1" d="M25.6,13.7c1.9-1.9,1.8-3.5,1.2-5.1c-0.5-1.3-0.8-2.1-1.6-3.2c-0.7-1-2.2-2.4-4.6-2.7
							c-2.2-0.4-7.5,3.3-9.4,3.8c-2,0.5-4.4,1.9-6.9,3c-1.3,0.5-3.4,2.1-3.4,3c0,1.4,0.5,2,1.1,2.5c0.6,0.6,1.9,1.6,2.7,1.9
							s2.6,0.8,3.3,0.9c1.4,0.1,2-0.2,3.1-0.1c1.5,0.2,2,0.2,2.7,0.2c0.6,0,1.1-0.1,1.5-0.1c0.5,0,1.3,0,1.9-0.1
							c1.6-0.3,1.8-0.2,2.6-0.5C21.7,16.6,24,15.2,25.6,13.7z"/>
						<path class="st2" d="M25.4,13.6c1.9-1.8,1.8-3.3,1.1-4.9c-0.5-1.2-0.8-2-1.6-3.1c-0.7-1-2.1-2.3-4.4-2.8S13.1,6,11.3,6.5
							C9.3,7,7,8.4,4.6,9.4c-1.3,0.5-3.5,2-3.5,3c0,1.4,0.5,1.9,1.1,2.4c0.7,0.6,1.9,1.6,2.7,1.9c0.8,0.3,2.6,0.7,3.3,0.8
							c1.4,0.1,1.9-0.2,3.1-0.1c1.5,0.1,1.9,0.2,2.6,0.2c0.6,0,1.1-0.1,1.5-0.1c0.6,0,1.3,0,1.9-0.1c1.5-0.3,1.8-0.2,2.6-0.4
							C21.6,16.4,23.8,15.1,25.4,13.6L25.4,13.6z"/>
						<path class="st3" d="M25.1,13.5c1.8-1.7,1.7-3.2,1.1-4.8c-0.5-1.2-0.8-2-1.6-3c-0.7-1-2-2.3-4.3-2.8s-7.2,3.1-9,3.6
							c-2,0.5-4.2,1.9-6.6,2.9c-1.2,0.5-3.6,1.9-3.6,2.9c0,1.3,0.5,1.8,1.2,2.3C3,15.3,4.3,16.2,5,16.5c0.8,0.3,2.5,0.6,3.2,0.7
							c1.4,0.1,1.9-0.1,3.1,0c1.5,0.1,1.9,0.2,2.6,0.2c0.6,0,1.1-0.1,1.5-0.1c0.6,0,1.3,0,1.9-0.2c1.5-0.3,1.7-0.1,2.6-0.4
							C21.5,16.2,23.6,14.9,25.1,13.5L25.1,13.5z"/>
						<path class="st4" d="M24.9,13.4c1.8-1.6,1.7-3.1,1-4.6c-0.5-1.2-0.8-1.9-1.6-3c-0.7-1-1.9-2.3-4.2-2.8c-2.2-0.5-7,3.1-8.8,3.6
							C9.4,7.2,7.3,8.6,4.9,9.5c-1.2,0.5-3.7,1.8-3.7,2.8c0,1.3,0.6,1.7,1.2,2.3c0.6,0.5,1.9,1.5,2.6,1.8C6,16.7,7.6,16.9,8.3,17
							c1.4,0.1,1.9,0,3,0.1c1.5,0.1,1.9,0.1,2.5,0.1c0.6,0,1-0.1,1.5-0.1c0.6,0,1.3-0.1,1.9-0.2c1.4-0.3,1.7-0.1,2.6-0.4
							C21.4,16,23.4,14.8,24.9,13.4L24.9,13.4z"/>
						<path class="st5" d="M24.7,13.4c1.7-1.5,1.6-3,1-4.5C25.2,7.8,24.8,7,24.1,6c-0.7-0.9-1.8-2.2-4.1-2.8c-2.1-0.5-6.8,3-8.6,3.5
							c-1.9,0.5-4,1.9-6.2,2.9c-1.2,0.5-3.8,1.7-3.8,2.7c0.1,1.2,0.6,1.6,1.2,2.2s1.8,1.5,2.6,1.8c0.9,0.3,2.4,0.5,3.1,0.5
							c1.4,0.1,1.9,0,3,0.1c1.5,0.1,1.8,0.1,2.5,0.1c0.6,0,1,0,1.5,0c0.6,0,1.3-0.1,1.9-0.2c1.4-0.3,1.6-0.1,2.5-0.4
							C21.3,15.8,23.2,14.7,24.7,13.4L24.7,13.4z"/>
						<path class="st6" d="M24.5,13.3c1.7-1.4,1.6-2.9,0.9-4.3c-0.5-1.1-0.9-1.8-1.6-2.8c-0.7-0.9-1.7-2.2-4-2.8
							c-2.1-0.6-6.7,2.9-8.4,3.4C9.4,7.4,7.5,8.7,5.3,9.6c-1.2,0.5-3.9,1.6-3.8,2.6c0.1,1.2,0.6,1.6,1.3,2.1s1.8,1.5,2.6,1.7
							c0.9,0.3,2.3,0.4,3,0.5c1.4,0.1,1.9,0.1,3,0.2c1.5,0.1,1.8,0.1,2.5,0.1c0.5,0,1,0,1.5,0c0.7,0,1.3-0.1,1.9-0.2
							c1.3-0.3,1.6-0.1,2.5-0.4C21.2,15.6,23,14.5,24.5,13.3L24.5,13.3z"/>
						<path class="st7" d="M24.2,13.2c1.6-1.4,1.6-2.8,0.9-4.2c-0.5-1.1-0.9-1.7-1.7-2.7c-0.7-0.9-1.6-2.1-3.9-2.8
							c-2.1-0.6-6.5,2.8-8.2,3.3C9.4,7.4,7.6,8.8,5.4,9.7c-1.1,0.5-4,1.5-3.9,2.6c0.1,1.1,0.7,1.5,1.3,2s1.8,1.4,2.5,1.7
							c0.9,0.3,2.2,0.3,3,0.4c1.3,0.1,1.9,0.1,3,0.2c1.5,0.1,1.8,0.1,2.4,0.1c0.5,0,1,0,1.5,0c0.7,0,1.4-0.2,1.9-0.3
							c1.3-0.2,1.5-0.1,2.5-0.4C21.2,15.4,22.9,14.4,24.2,13.2L24.2,13.2z"/>
						<path class="st8" d="M24,13.1c1.6-1.3,1.5-2.7,0.9-4c-0.5-1.1-1-1.7-1.7-2.6c-0.7-0.9-1.6-2.1-3.8-2.8
							c-2.1-0.6-6.3,2.7-8.1,3.2C9.5,7.5,7.7,8.9,5.6,9.8c-1.1,0.4-4.1,1.4-4,2.5s0.7,1.4,1.4,1.9c0.7,0.5,1.8,1.4,2.5,1.6
							C6.4,16,7.6,16,8.3,16c1.3,0.1,1.8,0.2,3,0.3c1.5,0.1,1.7,0,2.4,0c0.5,0,0.9,0,1.5,0c0.7,0,1.4-0.2,1.9-0.3
							c1.3-0.2,1.5,0,2.4-0.4C21.1,15.2,22.7,14.3,24,13.1L24,13.1z"/>
						<path class="st9" d="M23.8,13.1c1.5-1.2,1.4-2.6,0.8-3.8c-0.5-1-1-1.6-1.7-2.5c-0.6-0.8-1.5-2.1-3.7-2.8
							c-2-0.7-6.2,2.7-7.9,3.1C9.5,7.6,7.8,9,5.8,9.8c-1.1,0.4-4.2,1.3-4.1,2.4c0.1,1,0.7,1.3,1.4,1.8c0.7,0.5,1.7,1.4,2.5,1.6
							c1,0.2,2.1,0.2,2.9,0.2c1.3,0.1,1.8,0.3,2.9,0.3c1.4,0.1,1.7,0,2.4,0c0.5,0,0.9,0.1,1.5,0.1c0.8,0,1.4-0.2,1.9-0.3
							c1.2-0.2,1.4,0,2.4-0.4C21,15,22.5,14.1,23.8,13.1L23.8,13.1z"/>
						<path class="st10" d="M23.6,13c1.4-1.1,1.4-2.5,0.8-3.7c-0.5-1-1-1.6-1.7-2.4c-0.7-0.9-1.4-2-3.6-2.8c-2-0.7-6,2.6-7.7,3.1
							C9.5,7.7,8,9.1,5.9,9.9c-1,0.4-4.3,1.2-4.2,2.3c0.1,1,0.8,1.2,1.4,1.7c0.7,0.5,1.7,1.4,2.4,1.5c1,0.2,2,0.1,2.8,0.1
							c1.3,0.1,1.8,0.3,2.9,0.4c1.4,0.1,1.7,0,2.3,0c0.5,0,0.9,0.1,1.5,0.1c0.8,0,1.4-0.2,1.9-0.3c1.2-0.2,1.4,0,2.4-0.4
							C20.9,14.8,22.3,14,23.6,13z"/>
						<path class="st11" d="M23.3,12.9c1.4-1,1.4-2.4,0.7-3.5c-0.5-1-1-1.5-1.7-2.3c-0.7-0.8-1.3-2-3.5-2.8c-2-0.7-5.8,2.5-7.5,3
							C9.5,7.8,8.1,9.1,6.1,9.9c-1,0.4-4.5,1.1-4.3,2.3c0.1,0.9,0.8,1.1,1.5,1.6c0.7,0.5,1.7,1.3,2.4,1.5c1,0.2,1.9,0,2.7,0
							c1.3,0.1,1.8,0.4,2.9,0.5c1.4,0.1,1.6-0.1,2.3,0c0.5,0,0.9,0.1,1.5,0.1c0.8,0,1.4-0.3,1.9-0.4c1.1-0.2,1.4,0,2.4-0.3
							C20.8,14.6,22.1,13.8,23.3,12.9L23.3,12.9z"/>
						<path class="st12" d="M23.1,12.8c1.3-0.9,1.3-2.3,0.7-3.4c-0.5-0.9-1.1-1.4-1.7-2.3c-0.6-0.8-1.2-1.9-3.4-2.8
							c-2-0.8-5.7,2.4-7.3,2.9C9.6,7.9,8.2,9.2,6.3,10c-1,0.4-4.6,1-4.4,2.2C2,13,2.7,13.2,3.4,13.6C4.1,14.1,5,15,5.7,15.1
							c1,0.2,1.8-0.1,2.7,0c1.3,0.1,1.8,0.5,2.9,0.5c1.4,0.1,1.6-0.1,2.2-0.1c0.5,0,0.8,0.1,1.5,0.1c0.9,0,1.4-0.3,1.9-0.4
							c1.1-0.2,1.3,0,2.3-0.3C20.7,14.4,21.9,13.7,23.1,12.8L23.1,12.8z"/>
						<path class="st13" d="M22.9,12.8c1.3-0.8,1.3-2.2,0.6-3.2c-0.6-0.9-1.1-1.4-1.7-2.2c-0.6-0.8-1.1-1.9-3.2-2.8
							c-1.9-0.8-5.5,2.3-7.1,2.8c-1.8,0.5-3.1,1.9-5,2.6c-1,0.4-4.7,0.9-4.5,2.1c0.1,0.8,0.9,1,1.5,1.4c0.7,0.5,1.7,1.3,2.3,1.4
							c1.1,0.2,1.8-0.2,2.6-0.1c1.2,0.1,1.8,0.5,2.9,0.6c1.4,0.1,1.6-0.1,2.2-0.1c0.4,0,0.8,0.1,1.5,0.1c0.9,0,1.4-0.3,1.9-0.4
							c1.1-0.2,1.3,0.1,2.3-0.3C20.7,14.2,21.7,13.6,22.9,12.8z"/>
						<path class="st14" d="M22.7,12.7c1.2-0.8,1.2-2.1,0.6-3c-0.6-0.9-1.1-1.3-1.8-2.1s-1-1.8-3.1-2.8C16.5,3.9,13,7,11.4,7.5
							c-1.8,0.5-3,1.9-4.8,2.6c-0.9,0.4-4.8,0.8-4.6,2C2.2,12.9,3,13,3.6,13.4c0.7,0.5,1.6,1.3,2.3,1.3c1.1,0.1,1.7-0.3,2.6-0.2
							c1.2,0.1,1.8,0.6,2.8,0.6c1.4,0.1,1.5-0.1,2.2-0.1c0.4,0,0.8,0.2,1.5,0.2c0.9,0,1.5-0.4,1.9-0.4c1-0.2,1.2,0.1,2.3-0.3
							C20.6,14,21.5,13.4,22.7,12.7L22.7,12.7z"/>
						<path class="st15" d="M22.4,12.6c1.2-0.7,1.2-1.9,0.5-2.9c-0.6-0.9-1.2-1.3-1.8-2s-0.9-1.8-3-2.8c-1.9-0.9-5.2,2.2-6.8,2.6
							c-1.8,0.5-2.9,1.9-4.7,2.6c-0.9,0.4-4.9,0.7-4.7,1.9c0.2,0.7,0.9,0.8,1.6,1.2c0.7,0.5,1.6,1.2,2.3,1.3
							c1.1,0.1,1.6-0.3,2.5-0.3c1.2,0.1,1.7,0.6,2.8,0.7c1.4,0,1.5-0.2,2.1-0.1c0.4,0,0.7,0.2,1.5,0.2c1,0,1.5-0.4,2-0.5
							c1-0.1,1.2,0.1,2.3-0.3C20.5,13.8,21.3,13.3,22.4,12.6L22.4,12.6z"/>
						<path class="st16" d="M22.2,12.5c1.1-0.6,1.1-1.8,0.5-2.7c-0.6-0.8-1.2-1.2-1.8-1.9c-0.6-0.7-0.8-1.8-2.9-2.8
							c-1.9-0.9-5,2.1-6.6,2.6c-1.8,0.5-2.8,1.9-4.5,2.5c-0.9,0.4-5,0.6-4.7,1.9c0.2,0.7,1,0.7,1.6,1.1c0.7,0.4,1.6,1.2,2.2,1.3
							c1.2,0.1,1.6-0.4,2.4-0.4c1.2,0.1,1.7,0.7,2.8,0.7c1.4,0,1.5-0.2,2.1-0.2c0.4,0,0.7,0.2,1.5,0.2c1,0,1.5-0.4,2-0.5
							c0.9-0.1,1.2,0.1,2.2-0.3C20.4,13.6,21.1,13.2,22.2,12.5L22.2,12.5z"/>
						<path class="st17" d="M22,12.5c1-0.5,1.1-1.7,0.5-2.6c-0.6-0.8-1.2-1.2-1.8-1.8s-0.7-1.7-2.8-2.8c-1.8-0.9-4.8,2-6.4,2.5
							c-1.8,0.5-2.7,1.9-4.4,2.5c-0.9,0.3-5.2,0.5-4.8,1.8c0.2,0.6,1,0.6,1.7,1c0.7,0.4,1.6,1.2,2.2,1.2c1.2,0.1,1.5-0.5,2.4-0.5
							c1.2,0.1,1.7,0.8,2.8,0.8c1.4,0,1.4-0.2,2.1-0.2c0.4,0,0.7,0.2,1.5,0.3c1,0,1.5-0.4,2-0.5c0.9-0.1,1.1,0.1,2.2-0.3
							C20.3,13.4,20.9,13,22,12.5L22,12.5z"/>
						<path class="st18" d="M21.8,12.4c1-0.4,1-1.6,0.4-2.4c-0.6-0.8-1.3-1.1-1.8-1.7c-0.6-0.6-0.6-1.7-2.7-2.8
							c-1.8-1-4.6,1.9-6.2,2.4c-1.8,0.5-2.6,1.9-4.2,2.5C6.4,10.6,2,10.7,2.3,12c0.2,0.6,1.1,0.6,1.7,0.9c0.7,0.4,1.5,1.1,2.2,1.2
							c1.2,0,1.4-0.6,2.3-0.5c1.2,0.1,1.7,0.8,2.7,0.9c1.4,0,1.4-0.3,2-0.2c0.4,0,0.7,0.3,1.5,0.3c1,0,1.5-0.5,2-0.5
							c0.9-0.1,1.1,0.2,2.2-0.3C20.2,13.2,20.7,12.8,21.8,12.4z"/>
						<path class="st19" d="M21.5,12.3c0.9-0.4,1-1.5,0.4-2.2c-0.6-0.7-1.3-1.1-1.8-1.6c-0.6-0.6-0.5-1.6-2.6-2.8
							c-1.8-1-4.5,1.8-6,2.3c-1.7,0.5-2.5,1.8-4,2.5c-0.8,0.3-5.4,0.3-5,1.6c0.2,0.5,1.1,0.5,1.7,0.8C4.9,13.3,5.7,14,6.3,14
							c1.2,0,1.3-0.7,2.3-0.6c1.2,0,1.7,0.9,2.7,0.9c1.4,0,1.4-0.3,2-0.3c0.4,0,0.6,0.3,1.5,0.3c1.1,0,1.5-0.5,2-0.6
							c0.8-0.1,1,0.2,2.2-0.3C20.2,13,20.5,12.7,21.5,12.3z"/>
						<path class="st20" d="M21.3,12.2c0.9-0.3,0.9-1.4,0.3-2.1s-1.3-1-1.8-1.6C19.2,8,19.4,7,17.3,5.8c-1.8-1-4.3,1.8-5.8,2.2
							c-1.7,0.5-2.4,1.8-3.9,2.4C6.8,10.7,2,10.6,2.5,12c0.2,0.5,1.1,0.4,1.8,0.8c0.8,0.4,1.5,1.1,2.1,1.1c1.3,0,1.3-0.7,2.2-0.7
							c1.1,0,1.7,1,2.7,1c1.4,0,1.3-0.3,1.9-0.3c0.3,0,0.6,0.3,1.5,0.3c1.1,0,1.6-0.5,2-0.6c0.8-0.1,1,0.2,2.1-0.2
							C20.1,12.8,20.3,12.6,21.3,12.2z"/>
						<path class="st21" d="M21.1,12.2c0.8-0.2,0.9-1.3,0.3-1.9c-0.6-0.7-1.3-0.9-1.9-1.5c-0.5-0.5-0.3-1.6-2.4-2.8
							c-1.7-1.1-4.1,1.7-5.6,2.1c-1.7,0.5-2.3,1.8-3.7,2.4c-0.7,0.3-5.7,0.1-5.2,1.5c0.2,0.4,1.2,0.3,1.8,0.7c0.8,0.4,1.4,1.1,2.1,1
							c1.3,0,1.2-0.8,2.2-0.8c1.1,0,1.6,1,2.7,1c1.4,0,1.3-0.4,1.9-0.3c0.3,0,0.6,0.3,1.5,0.3c1.1,0,1.6-0.6,2-0.6
							c0.7-0.1,0.9,0.2,2.1-0.2C20,12.6,20.1,12.4,21.1,12.2z"/>
					</g>
					<path class="st22" d="M20.6,9.4c-0.2-0.6-0.5-1.2-1.1-1.5c0.1-0.3,0.2-0.7,0.2-1.1c0.1-1.9-1.4-3.6-3.4-3.7
						C14.9,3,13.5,3.9,13,5.2c-0.1,0-0.2,0-0.3,0c-1.2-0.1-2.3,0.5-3,1.4C9.4,6.5,9.2,6.5,9,6.5c-1.1,0-2,0.8-2,1.8
						c0,0.2,0,0.3,0,0.5C6.7,8.9,6.3,9.1,6.1,9.4C5.8,9,5.3,8.7,4.7,8.7c-0.8,0-1.5,0.4-1.8,1.2c0,0-0.1,0-0.1,0
						c-0.7,0-1.4,0.5-1.4,1.3c0,0.7,0.5,1.4,1.3,1.4c0.4,0,0.7-0.1,1-0.4c0.3,0.2,0.6,0.3,0.9,0.3c0.3,0.6,0.9,1.1,1.7,1.1
						c0.8,0,1.5-0.4,1.8-1c0.2,0.1,0.5,0.2,0.7,0.2c0.1,0,0.2,0,0.2,0c0.4,0.6,1.2,1,2,1c0.8,0,1.5-0.3,2-0.8c0.3,0.6,0.9,1,1.6,1
						c0.8,0,1.4-0.4,1.8-1c0.4,0.2,0.8,0.3,1.2,0.3c1,0,1.9-0.4,2.4-1.1c0.1,0,0.3,0.1,0.4,0.1c0.8,0,1.4-0.6,1.4-1.3
						C21.9,10.1,21.3,9.5,20.6,9.4L20.6,9.4z"/>
					<path class="st23" d="M20.6,9.5c-0.2-0.6-0.5-1.2-1.1-1.5c0.1-0.3,0.2-0.7,0.2-1.1c0.1-1.9-1.4-3.6-3.4-3.7
						C14.9,3.1,13.6,4,13,5.2c-0.1,0-0.2,0-0.3,0c-1.2-0.1-2.3,0.5-3,1.4C9.5,6.6,9.3,6.5,9.1,6.5c-1.1,0-2,0.8-2,1.8
						c0,0.2,0,0.3,0,0.5C6.7,8.9,6.4,9.2,6.2,9.5C5.9,9.1,5.4,8.8,4.8,8.8C4,8.7,3.3,9.2,3,9.9c0,0-0.1,0-0.1,0
						c-0.7,0-1.4,0.5-1.4,1.3c0,0.7,0.5,1.4,1.3,1.4c0.4,0,0.7-0.1,1-0.4c0.3,0.2,0.6,0.3,0.9,0.3c0.3,0.6,0.9,1.1,1.7,1.1
						c0.8,0,1.5-0.4,1.8-1c0.2,0.1,0.5,0.2,0.7,0.2c0.1,0,0.2,0,0.2,0c0.4,0.6,1.2,1,2,1c0.8,0,1.5-0.3,2-0.8c0.3,0.6,0.9,1,1.6,1
						c0.8,0,1.4-0.4,1.8-1c0.4,0.2,0.8,0.3,1.2,0.3c1,0,1.9-0.4,2.4-1.1c0.1,0,0.3,0.1,0.4,0.1c0.8,0,1.4-0.6,1.4-1.3
						C22,10.2,21.4,9.5,20.6,9.5L20.6,9.5z"/>
				</g>
				<g>
					<g>
						<path class="st0" d="M18.4,11.4c0.9-1.6,0-3.8-0.5-4.9c-0.3-0.9-1.4-2-2.3-2.4c-0.9-0.4-1.2-0.9-2.3-1c-1.5-0.1-3.5,1-4.8,1.3
							C7.2,4.7,4.9,5.8,3.6,7.2C2.2,8.8,2.1,10.1,2.5,11c0.4,1,1.1,1.5,1.6,1.9c0.4,0.4,0.9,0.7,1.4,1c1,0.5,1.9,0.5,2.6,0.5
							c0.6,0,2.1,0.2,3.5-0.1c1.1-0.2,2-0.4,2.6-0.5C15.4,13.4,17.6,12.7,18.4,11.4z"/>
						<path class="st1" d="M18.2,11.3c0.9-1.5,0-3.6-0.4-4.7c-0.3-0.8-1.4-1.9-2.2-2.4c-0.8-0.4-1.1-1-2.3-1.1
							c-1.5-0.2-3.5,1-4.8,1.4C7.2,4.8,4.9,5.9,3.7,7.2C2.3,8.8,2.2,10,2.6,11c0.4,0.9,1.1,1.5,1.6,1.8c0.4,0.4,0.9,0.7,1.4,0.9
							c1,0.5,1.9,0.4,2.6,0.5c0.6,0,2,0.2,3.5-0.1c1.1-0.2,2-0.4,2.5-0.5C15.4,13.2,17.5,12.6,18.2,11.3L18.2,11.3z"/>
						<path class="st2" d="M18.1,11.2c0.9-1.5,0.1-3.5-0.4-4.6c-0.3-0.8-1.3-1.9-2.2-2.3c-0.8-0.4-1-1-2.2-1.2
							c-1.5-0.2-3.5,1.1-4.7,1.4C7.2,4.9,5,5.9,3.8,7.2C2.5,8.7,2.3,10,2.7,10.9c0.4,0.9,1.1,1.4,1.6,1.8c0.5,0.4,0.9,0.7,1.5,0.9
							c1,0.4,1.9,0.3,2.6,0.4c0.6,0,2,0.2,3.5-0.1c1.1-0.2,1.9-0.4,2.5-0.5C15.3,13.1,17.3,12.5,18.1,11.2L18.1,11.2z"/>
						<path class="st3" d="M17.9,11.1c0.9-1.4,0.1-3.4-0.3-4.4c-0.3-0.8-1.3-1.8-2.1-2.2c-0.8-0.4-1-1.1-2.2-1.3
							c-1.5-0.3-3.5,1.1-4.7,1.4C7.2,5,5,6,3.9,7.2c-1.3,1.4-1.6,2.7-1.1,3.6s1.1,1.3,1.6,1.7c0.5,0.3,0.9,0.6,1.5,0.8
							c1,0.4,1.8,0.3,2.5,0.3c0.5,0.1,1.9,0.2,3.4-0.1c1.1-0.2,1.9-0.4,2.4-0.5C15.2,12.9,17.2,12.3,17.9,11.1L17.9,11.1z"/>
						<path class="st4" d="M17.7,11.1c0.9-1.4,0.2-3.3-0.3-4.3c-0.3-0.8-1.2-1.7-2.1-2.1c-0.8-0.4-0.9-1.2-2.1-1.4
							C11.8,3,9.8,4.4,8.6,4.7C7.3,5,5.1,6,4,7.2c-1.3,1.4-1.6,2.6-1.1,3.6c0.4,0.9,1.1,1.3,1.6,1.6c0.5,0.3,1,0.6,1.5,0.8
							c1,0.4,1.8,0.2,2.5,0.3c0.5,0.1,1.9,0.3,3.4,0c1.1-0.2,1.9-0.4,2.3-0.5C15.1,12.7,17,12.2,17.7,11.1L17.7,11.1z"/>
						<path class="st5" d="M17.6,11c0.9-1.3,0.2-3.1-0.2-4.1c-0.3-0.8-1.2-1.7-2-2c-0.8-0.4-0.9-1.3-2.1-1.5C11.8,3,9.8,4.5,8.6,4.8
							C7.3,5.1,5.1,6.1,4.1,7.2c-1.2,1.3-1.6,2.6-1.2,3.5C3.3,11.6,4,12,4.5,12.3C5,12.6,5.5,12.9,6,13c1,0.4,1.8,0.1,2.4,0.2
							c0.5,0.1,1.8,0.3,3.3,0c1.1-0.2,1.8-0.4,2.3-0.5C15.1,12.5,16.8,12.1,17.6,11z"/>
						<path class="st6" d="M17.4,10.9c0.9-1.3,0.3-3-0.2-3.9c-0.3-0.7-1.2-1.6-2-2c-0.8-0.4-0.8-1.4-2-1.7C11.8,3,9.8,4.5,8.6,4.9
							C7.3,5.2,5.1,6.2,4.2,7.2C3,8.5,2.5,9.7,3,10.7c0.4,0.8,1.1,1.1,1.6,1.5c0.5,0.3,1,0.5,1.5,0.7C7.2,13.2,7.9,13,8.5,13
							c0.5,0.1,1.8,0.3,3.3,0c1.1-0.2,1.8-0.4,2.2-0.5C15,12.4,16.7,12,17.4,10.9L17.4,10.9z"/>
						<path class="st7" d="M17.2,10.9c0.9-1.2,0.3-2.9-0.1-3.8c-0.4-0.7-1.1-1.5-1.9-1.9c-0.7-0.4-0.7-1.4-2-1.8
							c-1.4-0.4-3.5,1.2-4.6,1.5C7.3,5.3,5.2,6.2,4.3,7.2c-1.1,1.2-1.7,2.4-1.2,3.4c0.4,0.8,1.1,1.1,1.7,1.4c0.5,0.3,1,0.5,1.5,0.7
							c1.1,0.3,1.8,0,2.3,0.1c0.5,0.1,1.8,0.3,3.3,0.1c1.1-0.2,1.7-0.4,2.2-0.5C14.9,12.2,16.5,11.9,17.2,10.9L17.2,10.9z"/>
						<path class="st8" d="M17.1,10.8C18,9.6,17.4,8,17,7.1c-0.4-0.7-1.1-1.4-1.9-1.8c-0.7-0.3-0.7-1.5-1.9-1.9
							C11.9,3.1,9.8,4.7,8.6,5C7.4,5.3,5.2,6.2,4.3,7.2c-1,1.1-1.7,2.4-1.2,3.4c0.4,0.8,1.1,1,1.7,1.3c0.5,0.3,1,0.5,1.5,0.6
							c1.1,0.3,1.7,0,2.3,0.1c0.5,0.1,1.7,0.4,3.2,0.1c1.1-0.2,1.7-0.4,2.1-0.5C14.9,12,16.4,11.7,17.1,10.8L17.1,10.8z"/>
						<path class="st9" d="M16.9,10.7c0.9-1.2,0.4-2.7,0-3.5c-0.4-0.7-1-1.4-1.8-1.7c-0.7-0.3-0.6-1.6-1.9-2
							c-1.4-0.4-3.5,1.2-4.6,1.6C7.4,5.4,5.3,6.3,4.4,7.2c-1,1.1-1.7,2.3-1.2,3.3c0.4,0.8,1.1,1,1.7,1.2c0.5,0.2,1,0.4,1.5,0.6
							c1.1,0.3,1.7-0.1,2.3,0c0.5,0.1,1.7,0.4,3.2,0.1c1.1-0.2,1.7-0.4,2.1-0.5C14.8,11.9,16.2,11.6,16.9,10.7L16.9,10.7z"/>
						<path class="st10" d="M16.8,10.6c0.9-1.1,0.5-2.5,0-3.3c-0.4-0.7-1-1.3-1.8-1.7c-0.7-0.3-0.5-1.7-1.8-2.1
							c-1.3-0.5-3.5,1.3-4.6,1.6C7.4,5.5,5.3,6.4,4.5,7.2c-0.9,1-1.8,2.2-1.2,3.2c0.4,0.7,1.1,0.9,1.7,1.2c0.5,0.2,1,0.4,1.5,0.5
							c1.1,0.3,1.7-0.1,2.2,0c0.5,0.1,1.6,0.4,3.1,0.2c1.1-0.2,1.6-0.5,2-0.5C14.7,11.7,16.1,11.5,16.8,10.6L16.8,10.6z"/>
						<path class="st11" d="M16.6,10.6c0.9-1.1,0.5-2.4,0.1-3.2c-0.4-0.6-0.9-1.2-1.7-1.6c-0.7-0.3-0.5-1.7-1.8-2.2S9.8,4.9,8.7,5.2
							c-1.2,0.4-3.3,1.2-4,2c-0.9,0.9-1.8,2.2-1.2,3.2c0.4,0.7,1.1,0.8,1.7,1.1c0.5,0.2,1,0.4,1.6,0.5c1.1,0.3,1.7-0.2,2.2-0.1
							c0.5,0.1,1.6,0.5,3.1,0.2c1.1-0.2,1.6-0.5,1.9-0.5C14.7,11.5,15.9,11.4,16.6,10.6L16.6,10.6z"/>
						<path class="st12" d="M16.4,10.5c0.9-1,0.5-2.3,0.1-3c-0.4-0.6-0.9-1.1-1.7-1.5c-0.6-0.3-0.4-1.8-1.7-2.3S9.8,5,8.7,5.3
							c-1.2,0.4-3.2,1.2-4,1.9c-0.8,0.9-1.8,2.1-1.2,3.1c0.4,0.7,1.1,0.8,1.7,1c0.5,0.2,1.1,0.3,1.6,0.4c1.1,0.2,1.7-0.3,2.1-0.2
							c0.5,0.1,1.6,0.5,3,0.2c1.1-0.2,1.5-0.5,1.9-0.5C14.6,11.4,15.7,11.2,16.4,10.5L16.4,10.5z"/>
						<path class="st13" d="M16.3,10.4c0.9-1,0.6-2.2,0.2-2.9c-0.4-0.6-0.9-1.1-1.6-1.4c-0.6-0.3-0.3-1.9-1.6-2.4S9.8,5.1,8.7,5.4
							C7.5,5.7,5.5,6.5,4.8,7.2C4,8.1,2.9,9.3,3.5,10.3C3.9,11,4.6,11,5.3,11.2c0.5,0.2,1.1,0.3,1.6,0.4C8,11.8,8.5,11.3,9,11.4
							c0.5,0.1,1.5,0.5,3,0.3c1.2-0.2,1.5-0.5,1.8-0.5C14.5,11.2,15.6,11.1,16.3,10.4L16.3,10.4z"/>
						<path class="st14" d="M16.1,10.4c0.9-0.9,0.6-2.1,0.2-2.7c-0.4-0.6-0.8-1-1.6-1.3c-0.6-0.3-0.3-1.9-1.6-2.5S9.8,5.2,8.7,5.5
							C7.5,5.8,5.5,6.6,4.9,7.2c-0.7,0.8-1.9,2-1.3,3c0.4,0.6,1.1,0.6,1.8,0.9c0.5,0.2,1.1,0.3,1.6,0.3c1.1,0.2,1.6-0.4,2.1-0.3
							c0.5,0.1,1.5,0.5,3,0.3c1.2-0.2,1.5-0.5,1.8-0.5C14.4,11,15.4,11,16.1,10.4L16.1,10.4z"/>
						<path class="st15" d="M15.9,10.3c0.9-0.9,0.7-1.9,0.3-2.5c-0.4-0.6-0.8-0.9-1.5-1.3c-0.6-0.3-0.2-2-1.5-2.6
							c-1.2-0.6-3.4,1.4-4.5,1.7C7.5,5.9,5.6,6.6,5,7.2c-0.7,0.7-1.9,1.9-1.3,3c0.4,0.6,1.1,0.6,1.8,0.8c0.5,0.1,1.1,0.2,1.6,0.3
							c1.1,0.2,1.6-0.4,2-0.3c0.5,0.1,1.4,0.6,2.9,0.3c1.2-0.2,1.4-0.5,1.7-0.5C14.4,10.9,15.3,10.9,15.9,10.3L15.9,10.3z"/>
						<path class="st16" d="M15.8,10.2c0.9-0.8,0.7-1.8,0.3-2.4c-0.4-0.5-0.7-0.8-1.4-1.2c-0.6-0.3-0.2-2.1-1.5-2.7
							c-1.2-0.6-3.4,1.4-4.4,1.7C7.5,6,5.6,6.7,5,7.2c-0.6,0.7-1.9,1.9-1.3,2.9c0.4,0.6,1.1,0.5,1.8,0.7C6.1,11,6.7,11,7.1,11.1
							c1.1,0.1,1.6-0.5,2-0.4c0.4,0.1,1.4,0.6,2.9,0.3c1.2-0.2,1.4-0.5,1.7-0.4C14.3,10.7,15.1,10.8,15.8,10.2L15.8,10.2z"/>
						<path class="st17" d="M15.6,10.1c0.9-0.8,0.8-1.7,0.4-2.2s-0.7-0.8-1.4-1.1C14,6.6,14.5,4.7,13.2,4c-1.2-0.6-3.4,1.4-4.4,1.7
							c-1.2,0.4-3.1,1-3.6,1.5c-0.6,0.6-2,1.8-1.3,2.9c0.4,0.6,1.1,0.5,1.8,0.6c0.5,0.1,1.1,0.1,1.6,0.2c1.1,0.1,1.6-0.6,1.9-0.4
							c0.4,0.1,1.3,0.6,2.8,0.4c1.2-0.2,1.3-0.5,1.6-0.4C14.2,10.6,15,10.7,15.6,10.1L15.6,10.1z"/>
						<path class="st18" d="M15.4,10.1c0.9-0.7,0.8-1.6,0.4-2.1c-0.4-0.5-0.6-0.7-1.3-1c-0.5-0.2,0-2.2-1.4-3
							C12,3.3,9.8,5.5,8.7,5.8c-1.2,0.4-3.1,1-3.5,1.5C4.7,7.8,3.2,9,3.9,10c0.4,0.5,1.1,0.4,1.8,0.5c0.5,0.1,1.1,0.1,1.6,0.1
							c1.2,0.1,1.5-0.6,1.9-0.5c0.4,0.1,1.3,0.6,2.8,0.4c1.2-0.2,1.3-0.5,1.6-0.4C14.1,10.4,14.8,10.5,15.4,10.1L15.4,10.1z"/>
						<path class="st19" d="M15.3,10c0.9-0.6,0.9-1.4,0.5-1.9c-0.4-0.5-0.6-0.6-1.3-0.9c-0.5-0.2,0-2.3-1.3-3.1
							C12,3.4,9.8,5.5,8.8,5.9c-1.2,0.4-3,1-3.4,1.4C4.8,7.7,3.3,8.9,4,10c0.4,0.5,1.1,0.3,1.8,0.5c0.5,0.1,1.2,0.1,1.6,0.1
							C8.6,10.6,9,9.9,9.3,10c0.4,0.2,1.3,0.7,2.8,0.4c1.2-0.2,1.3-0.5,1.5-0.4C14.1,10.2,14.7,10.4,15.3,10L15.3,10z"/>
						<path class="st20" d="M15.1,9.9C16,9.3,16,8.6,15.6,8.2c-0.4-0.4-0.5-0.6-1.2-0.9c-0.5-0.2,0.1-2.4-1.3-3.2
							C12,3.4,9.8,5.6,8.8,5.9c-1.2,0.4-3,1-3.4,1.3C5,7.7,3.3,8.9,4.1,9.9c0.4,0.5,1.1,0.3,1.9,0.4c0.5,0.1,1.2,0,1.6,0.1
							c1.2,0,1.5-0.7,1.8-0.6c0.4,0.2,1.2,0.7,2.7,0.5c1.2-0.2,1.2-0.5,1.5-0.4C14,10.1,14.5,10.3,15.1,9.9L15.1,9.9z"/>
						<path class="st21" d="M14.9,9.9c0.9-0.5,1-1.2,0.6-1.6c-0.4-0.4-0.5-0.5-1.2-0.8c-0.5-0.2,0.1-2.4-1.2-3.3
							C12,3.5,9.8,5.7,8.8,6c-1.1,0.4-3,0.9-3.3,1.2C5.1,7.6,3.4,8.8,4.1,9.9c0.4,0.5,1.1,0.2,1.9,0.3c0.5,0.1,1.2,0,1.7,0
							c1.2,0,1.5-0.8,1.8-0.7c0.4,0.2,1.2,0.7,2.7,0.5c1.2-0.2,1.2-0.5,1.4-0.4C13.9,9.9,14.4,10.2,14.9,9.9L14.9,9.9z"/>
					</g>
					<path class="st24" d="M15,7.4c0.1-0.3,0.1-0.7,0.1-1c0-2.1-1.7-3.8-3.8-3.8C9.5,2.6,8,3.8,7.6,5.5c0,0-0.1,0-0.1,0
						c-0.8,0-1.6,0.4-2,1.1C5.3,6.5,5,6.4,4.8,6.4c-1,0-1.8,0.8-1.8,1.8s0.8,1.8,1.8,1.8c0.4,0,0.9-0.2,1.2-0.4
						c0.4,0.3,0.9,0.5,1.5,0.5c0.6,0,1.2-0.3,1.7-0.7c0.6,0.4,1.4,0.7,2.2,0.7c0.7,0,1.4-0.2,2-0.6c0.3,0.3,0.7,0.5,1.1,0.5
						c0.8,0,1.4-0.6,1.4-1.4C15.9,8.2,15.5,7.7,15,7.4L15,7.4z"/>
					<path class="st25" d="M15,7.5c0.1-0.3,0.1-0.7,0.1-1c0-2.1-1.7-3.8-3.8-3.8c-1.8,0-3.3,1.2-3.7,2.9c0,0-0.1,0-0.1,0
						C6.7,5.5,6,6,5.5,6.6C5.3,6.5,5.1,6.5,4.8,6.5C3.8,6.5,3,7.3,3,8.3s0.8,1.8,1.8,1.8c0.4,0,0.9-0.2,1.2-0.4
						c0.4,0.3,0.9,0.5,1.5,0.5c0.6,0,1.2-0.3,1.7-0.7c0.6,0.4,1.4,0.7,2.2,0.7c0.7,0,1.4-0.2,2-0.6c0.3,0.3,0.7,0.5,1.1,0.5
						c0.8,0,1.4-0.6,1.4-1.4C15.9,8.2,15.5,7.7,15,7.5L15,7.5z"/>
				</g>
				<g>
					<g>
						<path class="st0" d="M25.5,12.5c1.1-0.9,0.9-3.9,0.3-4.7c-0.8-1-1.6-1.7-2.2-2s-2.6-0.6-3.5-0.6c-1.2,0-2.4,0.3-3.4,0.6
							c-1.1,0.3-3.2,1.1-4.2,2.2c-1.2,1.3-0.1,3.8,0.2,4.2c0.6,0.7,1.2,1.4,2.1,1.8c0.8,0.4,1.5,0.4,2.1,0.4c0.5,0,2.5,0.3,3.7,0
							c0.9-0.2,2.3-0.4,2.7-0.6C23.6,13.5,24.5,13.3,25.5,12.5L25.5,12.5z"/>
						<path class="st1" d="M25.3,12.4c1.1-0.9,0.9-3.8,0.4-4.6c-0.7-1-1.5-1.6-2.2-2c-0.7-0.3-2.5-0.6-3.4-0.6
							c-1.2,0-2.4,0.3-3.4,0.5c-1.1,0.3-3.2,1.1-4.1,2.1c-1.1,1.2-0.2,3.7,0.2,4.1c0.5,0.7,1.2,1.4,2,1.8c0.8,0.4,1.5,0.3,2.1,0.4
							c0.5,0,2.4,0.3,3.6,0c0.9-0.2,2.2-0.5,2.6-0.7C23.4,13.4,24.4,13.1,25.3,12.4z"/>
						<path class="st2" d="M25.1,12.3c1.1-0.9,0.9-3.6,0.4-4.4c-0.7-1-1.5-1.6-2.2-1.9c-0.7-0.3-2.4-0.6-3.3-0.6
							c-1.2,0-2.4,0.3-3.3,0.5c-1.1,0.3-3.1,1.1-4.1,2.1c-1.1,1.2-0.2,3.6,0.1,4c0.5,0.6,1.1,1.3,2,1.7c0.8,0.4,1.5,0.3,2.1,0.4
							c0.4,0,2.4,0.3,3.6,0.1c0.9-0.2,2.2-0.5,2.6-0.7C23.3,13.2,24.2,13,25.1,12.3z"/>
						<path class="st3" d="M24.9,12.2c1.1-0.9,0.9-3.5,0.4-4.3c-0.7-1-1.5-1.6-2.2-1.9c-0.6-0.3-2.3-0.6-3.2-0.6
							c-1.1,0-2.3,0.2-3.3,0.5c-1,0.3-3.1,1.1-4,2c-1,1.1-0.2,3.5,0.1,3.9c0.5,0.6,1.1,1.3,1.9,1.7c0.8,0.4,1.5,0.3,2,0.3
							c0.4,0,2.3,0.4,3.5,0.1c0.9-0.2,2.1-0.5,2.5-0.7C23.1,13.1,24,12.9,24.9,12.2L24.9,12.2z"/>
						<path class="st4" d="M24.7,12.1c1.1-0.8,0.9-3.4,0.4-4.2c-0.7-1-1.5-1.5-2.1-1.9c-0.6-0.3-2.2-0.6-3.1-0.6
							c-1.1,0-2.3,0.2-3.3,0.5c-1,0.3-3.1,1.1-3.9,2c-1,1.1-0.2,3.4,0.1,3.8c0.5,0.6,1,1.3,1.9,1.7c0.8,0.3,1.4,0.3,2,0.3
							c0.4,0,2.2,0.4,3.4,0.1c0.9-0.2,2.1-0.5,2.5-0.7S23.9,12.8,24.7,12.1L24.7,12.1z"/>
						<path class="st5" d="M24.5,12c1-0.8,0.9-3.3,0.4-4.1c-0.7-1-1.5-1.5-2.1-1.8c-0.6-0.3-2.1-0.6-3-0.6c-1.1,0-2.3,0.2-3.2,0.5
							c-1,0.3-3,1.1-3.9,2c-1,1-0.3,3.3,0.1,3.7c0.5,0.6,1,1.2,1.8,1.6c0.8,0.3,1.4,0.2,1.9,0.3c0.4,0.1,2.1,0.4,3.3,0.2
							c0.9-0.2,2.1-0.5,2.4-0.7C22.8,12.8,23.7,12.7,24.5,12L24.5,12z"/>
						<path class="st6" d="M24.4,11.9c1-0.8,0.9-3.1,0.4-4c-0.7-1-1.4-1.5-2.1-1.8c-0.6-0.3-2-0.6-2.8-0.6c-1-0.1-2.2,0.2-3.2,0.4
							c-1,0.3-3,1.1-3.8,1.9c-0.9,1-0.3,3.1,0.1,3.6c0.5,0.6,0.9,1.2,1.8,1.6c0.8,0.3,1.4,0.2,1.9,0.3c0.4,0.1,2,0.4,3.2,0.2
							c0.9-0.2,2-0.6,2.3-0.7C22.6,12.7,23.5,12.6,24.4,11.9L24.4,11.9z"/>
						<path class="st7" d="M24.2,11.8c1-0.7,0.9-3,0.4-3.9c-0.7-1-1.4-1.4-2.1-1.7c-0.6-0.3-1.9-0.6-2.7-0.6c-1-0.1-2.2,0.2-3.1,0.4
							c-1,0.3-3,1.1-3.7,1.9c-0.9,1-0.3,3,0.1,3.5c0.4,0.5,0.9,1.2,1.7,1.5c0.8,0.3,1.4,0.2,1.9,0.3c0.4,0.1,2,0.5,3.2,0.3
							c0.9-0.2,2-0.6,2.3-0.8C22.5,12.5,23.3,12.4,24.2,11.8L24.2,11.8z"/>
						<path class="st8" d="M24,11.7c1-0.7,0.9-2.9,0.4-3.7c-0.6-1.1-1.4-1.4-2-1.7c-0.6-0.3-1.8-0.6-2.6-0.6c-1-0.1-2.2,0.1-3.1,0.4
							c-1,0.3-2.9,1.1-3.7,1.8c-0.8,0.9-0.3,2.9,0.1,3.4c0.4,0.5,0.8,1.2,1.7,1.5c0.7,0.3,1.4,0.2,1.8,0.2c0.4,0.1,1.9,0.5,3.1,0.3
							c0.9-0.2,1.9-0.6,2.2-0.8C22.3,12.4,23.2,12.3,24,11.7L24,11.7z"/>
						<path class="st9" d="M23.8,11.6c1-0.7,0.9-2.7,0.4-3.6c-0.6-1.1-1.4-1.4-2-1.7c-0.6-0.3-1.7-0.6-2.5-0.6c-1-0.1-2.1,0.1-3,0.4
							c-1,0.3-2.9,1.1-3.6,1.8c-0.8,0.9-0.4,2.8,0.1,3.4c0.4,0.5,0.8,1.1,1.6,1.5c0.7,0.3,1.3,0.1,1.8,0.2c0.4,0.1,1.8,0.5,3,0.3
							c0.9-0.2,1.9-0.6,2.2-0.8C22.1,12.3,23,12.2,23.8,11.6L23.8,11.6z"/>
						<path class="st10" d="M23.6,11.5c1-0.6,0.9-2.6,0.4-3.5c-0.6-1.1-1.4-1.3-2-1.6c-0.5-0.3-1.6-0.6-2.4-0.6
							c-0.9-0.1-2.1,0.1-3,0.4c-1,0.3-2.9,1.1-3.5,1.8c-0.8,0.8-0.4,2.7,0.1,3.2c0.4,0.5,0.7,1.1,1.6,1.4c0.7,0.3,1.3,0.1,1.7,0.2
							c0.4,0.1,1.7,0.6,2.9,0.4c0.9-0.2,1.8-0.6,2.1-0.8C22,12.1,22.8,12.1,23.6,11.5L23.6,11.5z"/>
						<path class="st11" d="M23.5,11.4c0.9-0.6,0.9-2.5,0.4-3.4c-0.6-1.1-1.3-1.3-1.9-1.6c-0.5-0.3-1.5-0.5-2.3-0.6
							c-0.9-0.1-2.1,0.1-2.9,0.3c-1,0.3-2.8,1.1-3.5,1.7c-0.7,0.8-0.4,2.6,0.1,3.2c0.4,0.5,0.6,1.1,1.5,1.4c0.7,0.3,1.3,0.1,1.7,0.2
							s1.7,0.6,2.9,0.4c0.9-0.2,1.8-0.7,2.1-0.8C21.8,11.9,22.6,12,23.5,11.4L23.5,11.4z"/>
						<path class="st12" d="M23.3,11.3c0.9-0.6,0.9-2.4,0.4-3.3c-0.6-1.1-1.3-1.3-1.9-1.6c-0.5-0.2-1.4-0.5-2.2-0.6
							c-0.9-0.1-2,0.1-2.9,0.3c-1,0.3-2.8,1.1-3.4,1.7c-0.7,0.7-0.4,2.4,0.1,3.1c0.4,0.4,0.6,1,1.5,1.3c0.7,0.2,1.3,0.1,1.7,0.1
							c0.4,0.1,1.6,0.6,2.8,0.4c0.9-0.2,1.7-0.7,2-0.8C21.6,11.8,22.5,11.9,23.3,11.3L23.3,11.3z"/>
						<path class="st13" d="M23.1,11.2C24,10.7,24,9,23.5,8.1C23,7,22.2,6.9,21.6,6.6c-0.5-0.2-1.3-0.5-2.1-0.6
							c-0.8-0.1-2,0-2.9,0.3c-1,0.3-2.8,1.1-3.3,1.6c-0.6,0.7-0.5,2.3,0.1,3c0.3,0.4,0.5,1,1.4,1.3c0.7,0.2,1.3,0,1.6,0.1
							c0.4,0.1,1.5,0.7,2.7,0.5c0.9-0.2,1.7-0.7,1.9-0.9C21.5,11.7,22.3,11.8,23.1,11.2L23.1,11.2z"/>
						<path class="st14" d="M22.9,11.1c0.9-0.5,0.9-2.1,0.4-3c-0.6-1.1-1.3-1.2-1.9-1.5c-0.5-0.2-1.2-0.5-2-0.6
							c-0.8-0.1-1.9,0-2.8,0.3c-1,0.3-2.7,1.1-3.3,1.6c-0.6,0.6-0.5,2.2,0.1,2.9c0.3,0.4,0.5,1,1.4,1.3c0.7,0.2,1.2,0,1.6,0.1
							c0.4,0.1,1.4,0.7,2.6,0.5c0.9-0.2,1.6-0.7,1.9-0.9C21.3,11.5,22.1,11.6,22.9,11.1L22.9,11.1z"/>
						<path class="st15" d="M22.7,11.1c0.9-0.5,0.9-2,0.4-2.9c-0.5-1.1-1.3-1.2-1.8-1.4c-0.5-0.2-1.1-0.5-1.9-0.6s-1.9,0-2.8,0.3
							c-1,0.3-2.7,1.1-3.2,1.6c-0.6,0.6-0.5,2.1,0,2.8c0.3,0.4,0.4,1,1.3,1.2c0.7,0.2,1.2,0,1.6,0.1c0.4,0.1,1.4,0.7,2.6,0.5
							c0.9-0.2,1.6-0.8,1.8-0.9C21.1,11.4,21.9,11.5,22.7,11.1L22.7,11.1z"/>
						<path class="st16" d="M22.6,11c0.9-0.5,0.9-1.9,0.5-2.8c-0.5-1.1-1.2-1.1-1.8-1.4c-0.5-0.2-1-0.5-1.7-0.6
							c-0.7-0.1-1.9,0-2.7,0.2c-1,0.3-2.7,1.1-3.1,1.5c-0.5,0.5-0.5,2,0,2.7c0.3,0.3,0.4,0.9,1.3,1.2c0.7,0.2,1.2,0,1.5,0.1
							c0.4,0.1,1.3,0.8,2.5,0.6c0.9-0.2,1.5-0.8,1.8-0.9C21,11.3,21.8,11.4,22.6,11L22.6,11z"/>
						<path class="st17" d="M22.4,10.9c0.8-0.5,0.9-1.7,0.5-2.7c-0.5-1.1-1.2-1.1-1.8-1.4c-0.4-0.2-0.9-0.5-1.6-0.6
							c-0.7-0.1-1.8,0-2.7,0.2c-0.9,0.3-2.7,1.1-3.1,1.5c-0.5,0.5-0.6,1.9,0,2.6c0.3,0.3,0.3,0.9,1.2,1.1c0.7,0.2,1.2-0.1,1.5,0
							c0.4,0.1,1.2,0.8,2.4,0.6c0.9-0.1,1.5-0.8,1.7-0.9C20.8,11.1,21.6,11.3,22.4,10.9L22.4,10.9z"/>
						<path class="st18" d="M22.2,10.8c0.8-0.4,0.9-1.6,0.5-2.5c-0.5-1.1-1.2-1.1-1.8-1.3c-0.4-0.2-0.8-0.5-1.5-0.6
							c-0.7-0.1-1.8-0.1-2.6,0.2c-0.9,0.3-2.6,1.1-3,1.4c-0.4,0.4-0.6,1.7,0,2.5c0.3,0.3,0.3,0.9,1.1,1.1c0.6,0.2,1.2-0.1,1.4,0
							c0.3,0.1,1.1,0.8,2.3,0.6c0.9-0.1,1.4-0.8,1.6-0.9C20.7,11,21.4,11.2,22.2,10.8z"/>
						<path class="st19" d="M22,10.7c0.8-0.4,0.9-1.5,0.5-2.4c-0.5-1.1-1.2-1-1.7-1.3c-0.4-0.2-0.7-0.5-1.4-0.6
							c-0.6-0.2-1.8-0.1-2.6,0.2c-0.9,0.3-2.6,1.1-2.9,1.4c-0.4,0.4-0.6,1.6,0,2.4c0.2,0.3,0.2,0.9,1.1,1.1c0.6,0.2,1.1-0.1,1.4,0
							c0.3,0.1,1,0.8,2.2,0.7c1-0.1,1.4-0.8,1.6-1C20.5,10.8,21.2,11.1,22,10.7L22,10.7z"/>
						<path class="st20" d="M21.8,10.6c0.8-0.4,0.9-1.3,0.5-2.3c-0.5-1.1-1.2-1-1.7-1.3c-0.4-0.2-0.6-0.5-1.3-0.6
							c-0.6-0.2-1.7-0.1-2.5,0.1c-0.9,0.3-2.6,1.1-2.9,1.4c-0.4,0.3-0.6,1.5,0,2.3c0.2,0.3,0.1,0.8,1,1c0.6,0.1,1.1-0.1,1.4,0
							c0.3,0.1,1,0.9,2.2,0.7c1-0.1,1.3-0.9,1.5-1C20.3,10.7,21,10.9,21.8,10.6L21.8,10.6z"/>
						<path class="st21" d="M21.6,10.5c0.8-0.3,0.9-1.2,0.5-2.2c-0.5-1.1-1.1-1-1.7-1.2c-0.4-0.2-0.5-0.4-1.2-0.6
							c-0.6-0.2-1.7-0.1-2.5,0.1c-0.9,0.3-2.5,1.1-2.8,1.3c-0.3,0.3-0.7,1.4,0,2.2c0.2,0.2,0.1,0.8,1,1c0.6,0.1,1.1-0.2,1.3-0.1
							c0.3,0.1,0.9,0.9,2.1,0.7c1-0.1,1.3-0.9,1.5-1C20.2,10.6,20.9,10.8,21.6,10.5z"/>
					</g>
					<path class="st26" d="M20.6,6.8c0,0-0.1,0-0.1,0c-0.2-0.6-0.8-1.1-1.5-1.1c-0.2,0-0.4,0-0.6,0.1c-0.2-0.6-0.8-1-1.5-1
						c-0.7,0-1.2,0.4-1.5,1c-0.1,0-0.2,0-0.2,0c-0.7,0-1.3,0.5-1.4,1.2c-0.1,0-0.2,0-0.3,0c-0.9,0-1.6,0.7-1.6,1.6s0.7,1.6,1.6,1.6
						c0,0,0,0,0,0c0.2,0.6,0.7,1.1,1.4,1.1c0.5,0,1-0.3,1.2-0.7c0.3,0.6,1,1,1.7,1c0.8,0,1.5-0.5,1.8-1.2c0.3,0.2,0.6,0.3,0.9,0.3
						c1,0,1.9-0.8,1.9-1.9S21.7,6.8,20.6,6.8L20.6,6.8z"/>
					<path class="st27" d="M20.7,6.9c0,0-0.1,0-0.1,0c-0.2-0.6-0.8-1.1-1.5-1.1c-0.2,0-0.4,0-0.6,0.1c-0.2-0.6-0.8-1-1.5-1
						c-0.7,0-1.2,0.4-1.5,1c-0.1,0-0.2,0-0.2,0c-0.7,0-1.3,0.5-1.4,1.2c-0.1,0-0.2,0-0.3,0c-0.9,0-1.6,0.7-1.6,1.6s0.7,1.6,1.6,1.6
						c0,0,0,0,0,0c0.2,0.6,0.7,1.1,1.4,1.1c0.5,0,1-0.3,1.2-0.7c0.3,0.6,1,1,1.7,1c0.8,0,1.5-0.5,1.8-1.2c0.3,0.2,0.6,0.3,0.9,0.3
						c1,0,1.9-0.8,1.9-1.9S21.7,6.9,20.7,6.9L20.7,6.9z"/>
				</g>
				<g>
					<g>
						<path class="st0" d="M24.2,9.2c1.3-1.4,1.2-4.2,0.5-5.2c-1-1.3-2.1-1.8-3-2.3c-0.9-0.4-2.2-0.9-3.3-1C17,0.5,15.5,1,14.2,1.4
							c-1.4,0.4-5.7,1.8-6.9,3.2C6.5,5.4,6.4,6.4,6.5,7.3c0.1,1,0.6,2,0.8,2.2c0.7,0.9,3.4,1.8,4.4,2.3c1,0.5,2,0.5,2.7,0.5
							c0.6,0,2.3,0,3.8-0.3c1.1-0.2,2.2-1.1,2.7-1.3C21.5,10.5,23.2,10.2,24.2,9.2L24.2,9.2z"/>
						<path class="st1" d="M24,9.1C25.3,7.7,25.3,5,24.5,4c-0.9-1.3-2.1-1.8-3-2.2c-0.9-0.4-2.1-0.8-3.2-1c-1.4-0.2-2.8,0.4-4.1,0.7
							c-1.4,0.4-5.7,1.8-6.9,3.2C6.6,5.4,6.4,6.4,6.5,7.3c0.1,1,0.6,1.9,0.9,2.2c0.7,0.8,3.2,1.8,4.3,2.3c1,0.5,1.9,0.4,2.7,0.5
							c0.6,0,2.2,0.1,3.8-0.3c1.1-0.2,2.1-1.1,2.7-1.4C21.3,10.4,23,10.1,24,9.1L24,9.1z"/>
						<path class="st2" d="M23.8,9c1.3-1.3,1.3-4,0.5-5c-0.9-1.3-2.1-1.7-2.9-2.2c-0.8-0.4-2-0.8-3.1-1c-1.3-0.2-2.8,0.3-4,0.7
							c-1.4,0.4-5.7,1.8-6.9,3.1C6.7,5.4,6.5,6.4,6.6,7.3c0.1,1,0.7,1.9,0.9,2.1c0.7,0.8,3.1,1.7,4.2,2.2c1,0.5,1.9,0.3,2.6,0.4
							c0.6,0.1,2.1,0.1,3.7-0.2c1.1-0.2,2.1-1.1,2.6-1.4C21.2,10.2,22.8,10,23.8,9L23.8,9z"/>
						<path class="st3" d="M23.6,8.9C24.9,7.6,24.9,5,24.2,4c-0.9-1.3-2-1.7-2.9-2.1c-0.8-0.4-1.9-0.8-3-1c-1.3-0.2-2.7,0.3-4,0.6
							C13,2,8.6,3.4,7.4,4.6C6.7,5.3,6.5,6.3,6.7,7.2c0.2,1,0.7,1.8,1,2c0.7,0.7,3,1.7,4.1,2.2c1,0.5,1.9,0.3,2.6,0.3
							c0.6,0.1,2,0.2,3.7-0.1c1.1-0.2,2.1-1.1,2.5-1.4C21,10,22.6,9.8,23.6,8.9L23.6,8.9z"/>
						<path class="st4" d="M23.4,8.8c1.3-1.2,1.3-3.7,0.6-4.7c-0.9-1.3-2-1.7-2.8-2.1c-0.8-0.4-1.8-0.8-3-1
							c-1.3-0.2-2.6,0.3-3.9,0.6C13,2,8.6,3.5,7.5,4.6C6.8,5.3,6.6,6.3,6.8,7.2c0.2,1,0.8,1.7,1.1,2c0.7,0.7,2.9,1.6,4,2.1
							c1,0.4,1.8,0.2,2.5,0.3c0.6,0.1,2,0.3,3.6-0.1c1.1-0.2,2-1.2,2.5-1.4C20.9,9.8,22.4,9.7,23.4,8.8L23.4,8.8z"/>
						<path class="st5" d="M23.2,8.7c1.3-1.2,1.3-3.6,0.6-4.6c-0.9-1.2-1.9-1.6-2.8-2c-0.8-0.4-1.8-0.8-2.9-1
							c-1.2-0.2-2.6,0.2-3.8,0.6C13,2.1,8.6,3.5,7.5,4.6C6.8,5.3,6.7,6.3,6.8,7.1C7,8.1,7.7,8.8,8,9.1c0.7,0.6,2.8,1.6,3.9,2.1
							c1,0.4,1.8,0.1,2.5,0.2c0.5,0.1,1.9,0.4,3.6,0c1.1-0.3,2-1.2,2.4-1.4C20.8,9.7,22.2,9.6,23.2,8.7L23.2,8.7z"/>
						<path class="st6" d="M23,8.6c1.2-1.1,1.3-3.5,0.6-4.4c-0.8-1.2-1.9-1.6-2.7-2c-0.8-0.4-1.7-0.8-2.8-1
							c-1.2-0.2-2.5,0.2-3.7,0.6c-1.3,0.4-5.7,1.8-6.8,2.8C6.9,5.3,6.7,6.3,6.9,7.1C7.1,8,7.8,8.7,8.1,8.9c0.7,0.6,2.6,1.6,3.8,2
							c1,0.4,1.8,0,2.4,0.1c0.5,0.1,1.8,0.5,3.5,0.1c1.1-0.3,1.9-1.2,2.4-1.4C20.7,9.5,22,9.4,23,8.6L23,8.6z"/>
						<path class="st7" d="M22.8,8.5c1.2-1.1,1.3-3.3,0.6-4.3c-0.8-1.2-1.8-1.5-2.6-1.9c-0.8-0.4-1.6-0.7-2.7-1s-2.4,0.2-3.6,0.5
							c-1.3,0.4-5.8,1.8-6.8,2.8C6.9,5.3,6.8,6.2,7,7.1C7.2,8,7.9,8.6,8.3,8.8c0.7,0.5,2.5,1.5,3.6,1.9c1,0.4,1.7,0,2.4,0
							c0.5,0.1,1.8,0.5,3.5,0.1c1.1-0.3,1.9-1.2,2.3-1.4C20.5,9.3,21.8,9.3,22.8,8.5L22.8,8.5z"/>
						<path class="st8" d="M22.6,8.4c1.2-1,1.3-3.2,0.6-4.2c-0.8-1.2-1.8-1.5-2.6-1.9c-0.7-0.4-1.5-0.7-2.6-1s-2.3,0.1-3.6,0.5
							c-1.3,0.4-5.8,1.8-6.8,2.7C7,5.2,6.8,6.2,7.1,7c0.3,0.9,1,1.5,1.3,1.7c0.7,0.5,2.4,1.5,3.5,1.9c0.9,0.4,1.7-0.1,2.3,0
							c0.5,0.1,1.7,0.6,3.5,0.2c1.1-0.3,1.8-1.2,2.2-1.4C20.4,9.1,21.6,9.2,22.6,8.4L22.6,8.4z"/>
						<path class="st9" d="M22.4,8.3c1.2-1,1.3-3.1,0.6-4c-0.8-1.2-1.7-1.4-2.5-1.8c-0.7-0.3-1.4-0.7-2.5-0.9
							c-1.1-0.3-2.3,0.1-3.5,0.5c-1.3,0.4-5.8,1.8-6.7,2.6C7.1,5.2,6.9,6.2,7.1,7c0.3,0.9,1,1.5,1.4,1.7c0.6,0.5,2.3,1.4,3.4,1.8
							c0.9,0.4,1.7-0.2,2.2-0.1c0.5,0.1,1.6,0.7,3.4,0.3c1.1-0.3,1.8-1.3,2.2-1.5C20.2,8.9,21.4,9.1,22.4,8.3L22.4,8.3z"/>
						<path class="st10" d="M22.2,8.2c1.2-0.9,1.3-2.9,0.7-3.9c-0.8-1.2-1.7-1.4-2.5-1.8c-0.7-0.3-1.4-0.7-2.5-0.9S15.8,1.6,14.5,2
							c-1.3,0.4-5.8,1.8-6.7,2.6C7.1,5.2,6.9,6.2,7.2,6.9c0.3,0.9,1,1.4,1.5,1.6c0.6,0.5,2.2,1.4,3.3,1.8c0.9,0.3,1.6-0.3,2.2-0.2
							c0.5,0.1,1.6,0.8,3.4,0.3c1.1-0.3,1.8-1.3,2.1-1.5C20.1,8.8,21.2,8.9,22.2,8.2z"/>
						<path class="st11" d="M22,8.1c1.2-0.9,1.3-2.8,0.7-3.8C22,3.2,21.1,3,20.3,2.6c-0.7-0.3-1.3-0.7-2.4-0.9c-1-0.3-2.1,0-3.3,0.4
							c-1.3,0.4-5.8,1.8-6.7,2.5C7.2,5.2,7,6.1,7.3,6.9c0.3,0.8,1,1.4,1.5,1.5c0.5,0.5,2.1,1.3,3.2,1.7c0.9,0.3,1.6-0.3,2.1-0.2
							s1.5,0.8,3.3,0.4c1.1-0.3,1.7-1.3,2.1-1.5C20,8.6,21,8.8,22,8.1L22,8.1z"/>
						<path class="st12" d="M21.8,8c1.1-0.8,1.3-2.7,0.7-3.6c-0.7-1.1-1.6-1.3-2.4-1.7c-0.6-0.3-1.2-0.6-2.3-0.9
							c-1-0.3-2.1,0-3.2,0.4c-1.2,0.4-5.8,1.8-6.7,2.4C7.2,5.2,7.1,6.1,7.3,6.8c0.3,0.8,1.1,1.3,1.6,1.5c0.5,0.4,1.9,1.3,3,1.7
							c0.9,0.3,1.6-0.4,2.1-0.3c0.5,0.1,1.4,0.9,3.3,0.5c1.2-0.3,1.7-1.3,2-1.5C19.8,8.4,20.8,8.7,21.8,8L21.8,8z"/>
						<path class="st13" d="M21.6,7.9c1.1-0.8,1.3-2.6,0.7-3.5c-0.7-1.1-1.6-1.3-2.3-1.6c-0.6-0.3-1.1-0.6-2.2-0.9
							c-1-0.3-2,0-3.2,0.4C13.4,2.6,8.8,4,8,4.6C7.3,5.1,7.1,6.1,7.4,6.8c0.3,0.8,1.1,1.3,1.7,1.4c0.5,0.4,1.8,1.3,2.9,1.6
							c0.9,0.3,1.6-0.5,2-0.4s1.3,1,3.2,0.5c1.2-0.3,1.6-1.3,2-1.5C19.7,8.2,20.6,8.5,21.6,7.9L21.6,7.9z"/>
						<path class="st14" d="M21.4,7.8c1.1-0.7,1.3-2.4,0.7-3.4c-0.7-1.1-1.5-1.2-2.3-1.6c-0.6-0.3-1-0.6-2.1-0.9
							c-0.9-0.3-1.9,0-3.1,0.3C13.4,2.7,8.8,4,8,4.6C7.3,5.1,7.2,6.1,7.5,6.8c0.4,0.8,1.2,1.1,1.7,1.3c0.5,0.2,1.7,1.2,2.8,1.6
							c0.9,0.3,1.5-0.5,2-0.4c0.5,0.1,1.3,1.1,3.2,0.6c1.2-0.3,1.6-1.4,1.9-1.5C19.6,8.1,20.4,8.4,21.4,7.8L21.4,7.8z"/>
						<path class="st15" d="M21.2,7.7C22.3,7,22.5,5.4,22,4.4c-0.6-1.1-1.5-1.2-2.2-1.5c-0.6-0.3-0.9-0.6-2.1-0.9
							c-0.9-0.3-1.8-0.1-3,0.3c-1.2,0.4-5.9,1.7-6.6,2.2S7.2,6,7.6,6.7c0.4,0.8,1.2,1,1.8,1.3c0.5,0.2,1.6,1.2,2.7,1.5
							C12.9,9.8,13.5,8.9,14,9c0.5,0.1,1.2,1.2,3.2,0.7c1.2-0.3,1.5-1.4,1.8-1.6C19.4,7.9,20.2,8.3,21.2,7.7L21.2,7.7z"/>
						<path class="st16" d="M21,7.6c1.1-0.6,1.3-2.2,0.8-3.1c-0.6-1-1.4-1.1-2.2-1.5c-0.6-0.3-0.9-0.6-2-0.9
							c-0.9-0.3-1.8-0.1-2.9,0.3c-1.2,0.4-5.9,1.7-6.6,2.2C7.4,5.1,7.3,6,7.6,6.7c0.4,0.7,1.3,1,1.9,1.2C10,8.1,11,9,12.1,9.4
							c0.8,0.2,1.5-0.7,1.9-0.6c0.5,0.1,1.1,1.2,3.1,0.7c1.2-0.3,1.5-1.4,1.8-1.6C19.3,7.7,20,8.1,21,7.6L21,7.6z"/>
						<path class="st17" d="M20.8,7.5c1-0.6,1.3-2,0.8-2.9c-0.6-1-1.4-1.1-2.1-1.4c-0.6-0.3-0.8-0.5-1.9-0.9
							c-0.8-0.3-1.7-0.1-2.9,0.3c-1.2,0.4-6,1.7-6.6,2.1C7.5,5,7.3,6,7.7,6.7C8.1,7.4,9,7.6,9.7,7.8c0.5,0.1,1.3,1.1,2.5,1.4
							c0.8,0.2,1.4-0.8,1.8-0.6C14.4,8.7,15,9.9,17,9.4c1.2-0.3,1.4-1.4,1.7-1.6C19.2,7.5,19.8,8,20.8,7.5z"/>
						<path class="st18" d="M20.6,7.4c1-0.6,1.3-1.9,0.8-2.8c-0.6-1-1.3-1-2-1.4c-0.5-0.2-0.7-0.5-1.8-0.9c-0.8-0.3-1.6-0.2-2.8,0.2
							c-1.2,0.4-6,1.7-6.5,2C7.5,5,7.4,5.9,7.8,6.6c0.4,0.7,1.3,0.9,2,1.1C10.2,7.8,11,8.7,12.1,9c0.8,0.2,1.4-0.8,1.7-0.7
							c0.4,0.1,1,1.4,3,0.9c1.2-0.3,1.4-1.4,1.7-1.6C19,7.4,19.7,7.9,20.6,7.4L20.6,7.4z"/>
						<path class="st19" d="M20.4,7.2c1-0.5,1.3-1.8,0.8-2.7c-0.6-1-1.3-1-2-1.3c-0.5-0.2-0.6-0.5-1.7-0.9c-0.8-0.3-1.6-0.2-2.7,0.2
							c-1.2,0.4-6,1.7-6.5,1.9C7.6,5,7.5,5.9,7.9,6.6c0.4,0.7,1.4,0.9,2.1,1c0.4,0.1,1.1,1,2.2,1.3C13,9.1,13.5,8,13.8,8.1
							c0.4,0.2,0.9,1.5,3,0.9c1.2-0.3,1.4-1.5,1.6-1.6C18.9,7.2,19.4,7.7,20.4,7.2L20.4,7.2z"/>
						<path class="st20" d="M20.2,7.1c1-0.5,1.3-1.6,0.8-2.5c-0.5-1-1.2-1-1.9-1.3c-0.5-0.2-0.5-0.5-1.6-0.8
							c-0.7-0.3-1.5-0.2-2.6,0.2c-1.2,0.4-6,1.6-6.5,1.9c-0.8,0.4-0.9,1.3-0.4,2c0.4,0.7,1.4,0.8,2.1,0.9c0.4,0.1,1,1,2.1,1.3
							c0.8,0.2,1.3-1,1.6-0.8c0.4,0.2,0.9,1.5,3,1c1.2-0.3,1.3-1.5,1.6-1.6C18.7,7,19.2,7.6,20.2,7.1L20.2,7.1z"/>
						<path class="st21" d="M20,7.1c1-0.4,1.3-1.5,0.8-2.4c-0.5-0.9-1.2-0.9-1.9-1.2c-0.5-0.2-0.5-0.5-1.6-0.8
							c-0.7-0.3-1.4-0.3-2.5,0.1c-1.1,0.4-6.1,1.6-6.5,1.8C7.7,4.9,7.6,5.9,8,6.5c0.5,0.6,1.5,0.8,2.2,0.9c0.4,0,0.9,1,2,1.2
							c0.8,0.2,1.3-1,1.6-0.9c0.4,0.2,0.8,1.6,2.9,1.1c1.2-0.3,1.3-1.5,1.5-1.6C18.6,6.8,19.1,7.5,20,7.1L20,7.1z"/>
					</g>
					<path class="st28" d="M19.2,3.1c-0.1,0-0.2,0-0.3,0c-0.3-0.9-1.2-1.6-2.2-1.6c-0.5,0-0.9,0.1-1.3,0.4c-0.3-0.7-0.9-1.2-1.7-1.2
						c-0.9,0-1.6,0.6-1.8,1.5C11.6,2,11.3,1.9,11,1.9c-0.8,0-1.4,0.6-1.5,1.3c0,0,0,0,0,0c-1.2,0-2.2,1-2.2,2.2s1,2.2,2.2,2.2
						c0.4,0,0.7-0.1,1.1-0.3c0.1,0.8,0.8,1.3,1.6,1.3c0.6,0,1.2-0.4,1.4-0.9C14,8.5,14.8,9,15.7,9c1.2,0,2.2-0.8,2.5-1.8
						c0.3,0.1,0.6,0.2,1,0.2c1.2,0,2.1-0.9,2.1-2.1S20.4,3.2,19.2,3.1L19.2,3.1z"/>
					<path class="st29" d="M19.3,3.2c-0.1,0-0.2,0-0.3,0c-0.3-0.9-1.2-1.6-2.2-1.6c-0.5,0-0.9,0.1-1.3,0.4c-0.3-0.7-0.9-1.2-1.7-1.2
						c-0.9,0-1.6,0.6-1.8,1.5C11.7,2.1,11.4,2,11.1,2c-0.8,0-1.4,0.6-1.5,1.3h0c-1.2,0-2.2,1-2.2,2.2s1,2.2,2.2,2.2
						c0.4,0,0.7-0.1,1.1-0.3c0.1,0.8,0.8,1.3,1.6,1.3c0.6,0,1.2-0.4,1.4-0.9C14.1,8.6,14.9,9,15.8,9C17,9,18,8.3,18.3,7.2
						c0.3,0.1,0.6,0.2,1,0.2c1.2,0,2.1-0.9,2.1-2.1S20.4,3.2,19.3,3.2L19.3,3.2z"/>
				</g>
				<g>
					<g>
						<path class="st0" d="M15.7,11.9c0.7-1,0.4-2.9-0.1-3.6c-0.6-0.9-1.5-1.3-2-1.5S11.7,6,11,6c-1,0-1.6,0.4-2.4,0.6
							C7.7,6.9,6.2,8.3,5.4,9.2c-1,1.1-0.7,2.7-0.5,3c0.5,0.6,1,1.2,1.7,1.5c0.7,0.3,1.3,0.3,1.8,0.3c0.4,0,0.8,0.2,1.8,0
							c0.7-0.1,1.1-0.2,1.4-0.3C12.4,13.5,14.9,13.2,15.7,11.9L15.7,11.9z"/>
						<path class="st1" d="M15.6,11.9c0.7-1,0.4-2.8-0.1-3.5c-0.6-0.9-1.4-1.2-2-1.5c-0.6-0.3-1.8-0.8-2.5-0.8c-1,0-1.6,0.4-2.4,0.6
							C7.7,6.9,6.2,8.3,5.4,9.2c-0.9,1-0.8,2.6-0.5,3c0.5,0.6,1,1.1,1.7,1.5c0.7,0.3,1.3,0.3,1.8,0.3c0.4,0,0.8,0.2,1.8,0
							c0.7-0.1,1.1-0.2,1.4-0.3C12.4,13.4,14.8,13.1,15.6,11.9z"/>
						<path class="st2" d="M15.5,11.9c0.7-1,0.4-2.7,0-3.4c-0.6-0.9-1.4-1.2-2-1.5c-0.6-0.3-1.7-0.8-2.5-0.8c-1,0-1.5,0.3-2.4,0.6
							C7.7,7,6.2,8.3,5.5,9.2c-0.9,1-0.8,2.5-0.5,2.9c0.4,0.5,1,1.1,1.7,1.4c0.7,0.3,1.3,0.2,1.7,0.3c0.4,0,0.8,0.2,1.8,0
							c0.7-0.1,1.1-0.2,1.4-0.3C12.4,13.3,14.6,13,15.5,11.9L15.5,11.9z"/>
						<path class="st3" d="M15.3,11.8c0.7-0.9,0.5-2.6,0-3.3c-0.6-0.9-1.4-1.2-2-1.5c-0.5-0.3-1.7-0.8-2.4-0.8c-1,0-1.5,0.3-2.3,0.5
							C7.7,7,6.3,8.4,5.5,9.2c-0.9,1-0.8,2.5-0.5,2.8c0.4,0.5,0.9,1.1,1.7,1.4c0.7,0.3,1.2,0.2,1.7,0.3c0.4,0,0.8,0.2,1.8,0
							c0.7-0.1,1.1-0.2,1.4-0.3C12.3,13.1,14.5,12.9,15.3,11.8L15.3,11.8z"/>
						<path class="st4" d="M15.2,11.8c0.7-0.9,0.5-2.5,0.1-3.2c-0.6-0.9-1.4-1.2-2-1.4c-0.5-0.3-1.7-0.8-2.4-0.9
							c-0.9,0-1.5,0.3-2.3,0.5C7.7,7,6.3,8.4,5.6,9.2c-0.8,0.9-0.8,2.4-0.5,2.8C5.5,12.4,6,13,6.7,13.3s1.2,0.2,1.7,0.2
							c0.4,0,0.8,0.2,1.8,0c0.7-0.1,1.1-0.2,1.4-0.3C12.3,13,14.4,12.8,15.2,11.8L15.2,11.8z"/>
						<path class="st5" d="M15,11.7c0.7-0.9,0.6-2.4,0.1-3.1c-0.6-0.9-1.4-1.2-2-1.4c-0.5-0.3-1.6-0.8-2.3-0.9
							c-0.9,0-1.5,0.3-2.3,0.5C7.7,7.1,6.3,8.4,5.6,9.1c-0.8,0.9-0.9,2.3-0.5,2.7c0.4,0.5,0.9,1,1.6,1.3c0.7,0.3,1.2,0.1,1.7,0.2
							c0.4,0,0.8,0.2,1.8,0c0.7-0.1,1.1-0.2,1.4-0.3C12.3,12.9,14.2,12.7,15,11.7L15,11.7z"/>
						<path class="st6" d="M14.9,11.7c0.7-0.8,0.6-2.3,0.2-3c-0.6-0.9-1.4-1.1-2-1.4c-0.5-0.2-1.6-0.8-2.2-0.9
							c-0.9,0-1.5,0.2-2.3,0.5C7.7,7.1,6.3,8.4,5.7,9.1c-0.8,0.8-0.9,2.2-0.5,2.6c0.4,0.5,0.9,1,1.6,1.3c0.7,0.3,1.2,0.1,1.6,0.2
							c0.4,0,0.8,0.2,1.8,0c0.7-0.1,1.1-0.2,1.4-0.3C12.2,12.8,14.1,12.6,14.9,11.7L14.9,11.7z"/>
						<path class="st7" d="M14.7,11.6c0.7-0.8,0.6-2.2,0.2-2.9c-0.5-0.9-1.4-1.1-2-1.4c-0.5-0.2-1.5-0.8-2.2-0.9
							C9.9,6.4,9.3,6.7,8.5,6.9C7.6,7.1,6.3,8.4,5.7,9.1C5,9.9,4.8,11.3,5.1,11.7c0.4,0.4,0.8,1,1.6,1.2S7.9,13,8.3,13
							c0.4,0.1,0.8,0.2,1.8,0c0.7-0.1,1.1-0.3,1.4-0.3C12.2,12.7,14,12.6,14.7,11.6z"/>
						<path class="st8" d="M14.6,11.6c0.7-0.8,0.7-2.1,0.3-2.9c-0.5-0.9-1.4-1.1-1.9-1.3c-0.5-0.2-1.5-0.8-2.1-0.9
							C9.9,6.4,9.3,6.7,8.5,6.9C7.6,7.2,6.4,8.4,5.8,9.1C5,9.9,4.8,11.2,5.2,11.6c0.4,0.4,0.8,0.9,1.5,1.2c0.7,0.2,1.2,0,1.6,0.1
							c0.3,0.1,0.8,0.2,1.8,0c0.8-0.1,1.1-0.3,1.4-0.3C12.1,12.5,13.8,12.5,14.6,11.6L14.6,11.6z"/>
						<path class="st9" d="M14.5,11.5c0.7-0.7,0.7-2,0.3-2.8c-0.5-0.9-1.4-1.1-1.9-1.3c-0.5-0.2-1.4-0.9-2.1-0.9
							C9.9,6.5,9.2,6.7,8.5,7C7.6,7.2,6.4,8.5,5.8,9.1c-0.7,0.7-1,2-0.6,2.5C5.6,12,6,12.5,6.7,12.7c0.7,0.2,1.2,0,1.6,0.1
							c0.3,0.1,0.8,0.2,1.8,0c0.8-0.1,1.1-0.3,1.4-0.3C12.1,12.4,13.7,12.4,14.5,11.5L14.5,11.5z"/>
						<path class="st10" d="M14.3,11.5c0.7-0.7,0.8-1.9,0.3-2.7c-0.5-0.9-1.4-1-1.9-1.3c-0.5-0.2-1.4-0.9-2-0.9
							C9.9,6.6,9.2,6.8,8.5,7c-0.8,0.2-2,1.5-2.6,2.1c-0.6,0.7-1,1.9-0.6,2.4c0.3,0.4,0.7,0.9,1.5,1.1c0.7,0.2,1.2,0,1.5,0
							c0.3,0.1,0.8,0.2,1.8,0c0.8-0.1,1.2-0.3,1.4-0.3C12.1,12.3,13.6,12.3,14.3,11.5L14.3,11.5z"/>
						<path class="st11" d="M14.2,11.5c0.7-0.6,0.8-1.8,0.4-2.6c-0.5-0.9-1.4-1-1.9-1.3c-0.4-0.2-1.3-0.9-2-0.9
							C9.9,6.6,9.2,6.8,8.4,7c-0.8,0.2-2,1.5-2.5,2c-0.6,0.6-1,1.8-0.6,2.3c0.3,0.4,0.7,0.9,1.4,1c0.7,0.2,1.2-0.1,1.5,0
							c0.3,0.1,0.8,0.2,1.8,0c0.8-0.1,1.2-0.3,1.4-0.3C12,12.2,13.4,12.2,14.2,11.5L14.2,11.5z"/>
						<path class="st12" d="M14,11.4c0.7-0.6,0.9-1.7,0.4-2.5c-0.5-0.9-1.4-1-1.9-1.2c-0.4-0.2-1.3-0.9-1.9-0.9
							C9.9,6.6,9.2,6.8,8.4,7C7.6,7.3,6.4,8.5,6,9c-0.6,0.6-1,1.8-0.6,2.3c0.3,0.4,0.7,0.8,1.4,1s1.2-0.1,1.5,0
							c0.3,0.1,0.8,0.2,1.8,0c0.8-0.1,1.2-0.3,1.4-0.3C12,12,13.3,12.1,14,11.4z"/>
						<path class="st13" d="M13.9,11.4c0.7-0.6,0.9-1.6,0.5-2.4c-0.5-0.9-1.4-1-1.9-1.2c-0.4-0.2-1.2-0.9-1.9-1
							C9.9,6.7,9.1,6.9,8.4,7.1C7.6,7.3,6.5,8.5,6,9C5.5,9.6,5,10.7,5.4,11.2C5.7,11.6,6,12,6.8,12.2c0.8,0.1,1.2-0.1,1.5-0.1
							c0.3,0.1,0.8,0.2,1.8,0c0.8-0.1,1.2-0.3,1.4-0.3C11.9,11.9,13.2,12,13.9,11.4z"/>
						<path class="st14" d="M13.7,11.3c0.7-0.5,0.9-1.5,0.5-2.3c-0.5-0.9-1.4-1-1.9-1.2c-0.4-0.2-1.2-0.9-1.8-1
							C9.9,6.7,9.1,6.9,8.4,7.1C7.6,7.4,6.5,8.6,6.1,9C5.6,9.5,5,10.6,5.4,11.2c0.3,0.3,0.6,0.8,1.4,0.9s1.1-0.2,1.4-0.1
							C8.5,12.1,9,12.2,10,12c0.8-0.1,1.2-0.3,1.4-0.3C11.9,11.8,13,11.9,13.7,11.3L13.7,11.3z"/>
						<path class="st15" d="M13.6,11.3c0.6-0.5,1-1.4,0.6-2.2c-0.5-0.9-1.4-0.9-1.9-1.2c-0.4-0.2-1.2-0.9-1.8-1
							C9.9,6.8,9.1,7,8.4,7.2C7.6,7.4,6.5,8.6,6.1,9C5.7,9.5,5,10.5,5.5,11.1c0.3,0.3,0.6,0.8,1.3,0.9s1.1-0.2,1.4-0.1
							C8.5,11.9,9,12,10,11.9c0.8-0.1,1.2-0.3,1.4-0.3C11.9,11.7,12.9,11.8,13.6,11.3z"/>
						<path class="st16" d="M13.5,11.2c0.6-0.5,1-1.3,0.6-2.1c-0.4-0.9-1.4-0.9-1.9-1.1c-0.4-0.2-1.1-0.9-1.7-1
							C9.9,6.9,9.1,7,8.4,7.2C7.6,7.4,6.5,8.6,6.2,9C5.7,9.4,5,10.4,5.5,11c0.2,0.3,0.5,0.7,1.3,0.8s1.1-0.2,1.4-0.1
							c0.3,0.1,0.8,0.2,1.8,0.1c0.8-0.1,1.2-0.3,1.4-0.3C11.8,11.5,12.8,11.7,13.5,11.2L13.5,11.2z"/>
						<path class="st17" d="M13.3,11.2c0.6-0.4,1.1-1.2,0.7-2c-0.4-0.9-1.4-0.9-1.8-1.1c-0.4-0.2-1.1-0.9-1.7-1C9.9,6.9,9,7,8.3,7.2
							C7.5,7.5,6.6,8.6,6.2,9c-0.4,0.4-1.2,1.4-0.7,2c0.2,0.3,0.5,0.7,1.3,0.8c0.8,0.1,1.1-0.3,1.4-0.2c0.3,0.1,0.8,0.2,1.8,0.1
							c0.8-0.1,1.2-0.3,1.4-0.3C11.8,11.4,12.6,11.7,13.3,11.2L13.3,11.2z"/>
						<path class="st18" d="M13.2,11.1c0.6-0.4,1.1-1.2,0.7-1.9c-0.4-0.9-1.4-0.9-1.8-1.1c-0.4-0.2-1-0.9-1.6-1C9.9,7,9,7,8.3,7.3
							C7.5,7.5,6.6,8.6,6.3,8.9c-0.4,0.4-1.2,1.3-0.7,1.9c0.2,0.3,0.5,0.7,1.2,0.7s1.1-0.3,1.3-0.2c0.3,0.1,0.8,0.2,1.8,0.1
							c0.8-0.1,1.2-0.3,1.4-0.3C11.7,11.3,12.5,11.5,13.2,11.1L13.2,11.1z"/>
						<path class="st19" d="M13,11.1c0.6-0.4,1.1-1,0.8-1.9c-0.4-0.9-1.4-0.9-1.8-1.1c-0.3-0.1-1-0.9-1.6-1C9.9,7,9,7.1,8.3,7.3
							c-0.8,0.2-1.7,1.4-2,1.6C6,9.3,5.1,10.1,5.6,10.8c0.2,0.2,0.5,0.6,1.2,0.7c0.8,0,1.1-0.3,1.3-0.2c0.3,0.1,0.8,0.2,1.8,0.1
							c0.8-0.1,1.2-0.3,1.4-0.3C11.7,11.2,12.4,11.5,13,11.1L13,11.1z"/>
						<path class="st20" d="M12.9,11c0.6-0.3,1.2-1,0.8-1.8c-0.4-0.9-1.4-0.8-1.8-1c-0.3-0.1-0.9-0.9-1.5-1C9.9,7.1,9,7.1,8.3,7.3
							C7.5,7.6,6.6,8.7,6.4,8.9c-0.3,0.3-1.2,1.1-0.7,1.8c0.2,0.2,0.4,0.6,1.2,0.6c0.8,0,1.1-0.4,1.3-0.3c0.3,0.1,0.8,0.2,1.8,0.1
							c0.8-0.1,1.3-0.3,1.4-0.3C11.6,11.1,12.2,11.4,12.9,11L12.9,11z"/>
						<path class="st21" d="M12.8,11c0.6-0.3,1.2-0.9,0.9-1.7c-0.4-0.9-1.3-0.8-1.8-1c-0.3-0.1-0.9-0.9-1.4-1.1
							C9.9,7.1,8.9,7.2,8.3,7.4C7.5,7.6,6.7,8.7,6.4,8.9c-0.3,0.2-1.3,1-0.7,1.7c0.2,0.2,0.4,0.6,1.2,0.6c0.8,0,1.1-0.4,1.3-0.3
							C8.4,11,8.9,11.2,9.9,11c0.8-0.1,1.3-0.3,1.4-0.3C11.6,10.9,12.1,11.3,12.8,11L12.8,11z"/>
					</g>
					<path class="st30" d="M12.3,8.2c-0.2,0-0.4,0-0.5,0.1c-0.2-1.1-1.1-1.9-2.3-2C8.4,6.3,7.4,7,7.1,8l0,0c-0.9,0-1.8,0.7-1.8,1.6
						c0,0.9,0.7,1.8,1.6,1.8c0.5,0,0.9-0.2,1.3-0.5c0.3,0.2,0.7,0.3,1.1,0.3c0.7,0,1.4-0.2,1.9-0.7c0.2,0.3,0.6,0.5,1,0.5
						c0.8,0,1.5-0.6,1.5-1.3C13.7,9,13.1,8.3,12.3,8.2L12.3,8.2z"/>
				</g>
			</g>
		</g>
	</g>
</g>
</svg>
