<?xml version="1.0" encoding="utf-8"?>
<!-- Generator: Adobe Illustrator 27.0.1, SVG Export Plug-In . SVG Version: 6.00 Build 0)  -->
<svg version="1.1" id="Ebene_1" xmlns="http://www.w3.org/2000/svg" xmlns:xlink="http://www.w3.org/1999/xlink" x="0px" y="0px"
	 viewBox="0 0 47.9 47.9" style="enable-background:new 0 0 47.9 47.9;" xml:space="preserve">
<style type="text/css">
	.st0{fill:#FFFFFF;fill-opacity:0;}
	.st1{opacity:5.000000e-02;fill:#F9FBFB;enable-background:new    ;}
	.st2{opacity:0.1;fill:#F4F6F8;enable-background:new    ;}
	.st3{opacity:0.14;fill:#EEF2F4;enable-background:new    ;}
	.st4{opacity:0.19;fill:#E9EDF1;enable-background:new    ;}
	.st5{opacity:0.24;fill:#E3E9ED;enable-background:new    ;}
	.st6{opacity:0.29;fill:#DEE5EA;enable-background:new    ;}
	.st7{opacity:0.33;fill:#D8E0E6;enable-background:new    ;}
	.st8{opacity:0.38;fill:#D3DCE3;enable-background:new    ;}
	.st9{opacity:0.43;fill:#CDD8DF;enable-background:new    ;}
	.st10{opacity:0.48;fill:#C8D3DC;enable-background:new    ;}
	.st11{opacity:0.52;fill:#C2CFD8;enable-background:new    ;}
	.st12{opacity:0.57;fill:#BDCAD5;enable-background:new    ;}
	.st13{opacity:0.62;fill:#B7C6D1;enable-background:new    ;}
	.st14{opacity:0.67;fill:#B2C2CE;enable-background:new    ;}
	.st15{opacity:0.71;fill:#ACBDCA;enable-background:new    ;}
	.st16{opacity:0.76;fill:#A7B9C7;enable-background:new    ;}
	.st17{opacity:0.81;fill:#A1B5C3;enable-background:new    ;}
	.st18{opacity:0.86;fill:#9CB0C0;enable-background:new    ;}
	.st19{opacity:0.9;fill:#96ACBC;enable-background:new    ;}
	.st20{opacity:0.95;fill:#91A7B9;enable-background:new    ;}
	.st21{fill:#8BA3B5;}
	.st22{fill:#008DD4;}
	.st23{fill:url(#SVGID_1_);}
	.st24{fill:#4FC5FF;}
	.st25{fill:url(#SVGID_00000147933371769427292570000016246730705549330823_);}
	.st26{fill:url(#SVGID_00000052066005765312928720000011214491583919988101_);}
	.st27{fill:#63CCFF;}
	.st28{fill:#007FC9;}
	.st29{fill:#6ED8FF;}
	.st30{fill:#008CDE;}
	.st31{opacity:3.000000e-02;fill:#FBFCFC;enable-background:new    ;}
	.st32{opacity:6.000000e-02;fill:#F7F9FA;enable-background:new    ;}
	.st33{opacity:0.1;fill:#F3F6F7;enable-background:new    ;}
	.st34{opacity:0.13;fill:#EFF3F5;enable-background:new    ;}
	.st35{opacity:0.16;fill:#EBF0F2;enable-background:new    ;}
	.st36{opacity:0.19;fill:#E8EDF0;enable-background:new    ;}
	.st37{opacity:0.23;fill:#E4EAED;enable-background:new    ;}
	.st38{opacity:0.26;fill:#E0E7EB;enable-background:new    ;}
	.st39{opacity:0.29;fill:#DCE4E8;enable-background:new    ;}
	.st40{opacity:0.32;fill:#D8E1E6;enable-background:new    ;}
	.st41{opacity:0.35;fill:#D4DEE3;enable-background:new    ;}
	.st42{opacity:0.39;fill:#D0DBE0;enable-background:new    ;}
	.st43{opacity:0.42;fill:#CCD8DE;enable-background:new    ;}
	.st44{opacity:0.45;fill:#C8D5DB;enable-background:new    ;}
	.st45{opacity:0.48;fill:#C4D2D9;enable-background:new    ;}
	.st46{opacity:0.52;fill:#C1CFD6;enable-background:new    ;}
	.st47{opacity:0.55;fill:#BDCCD4;enable-background:new    ;}
	.st48{opacity:0.58;fill:#B9C9D1;enable-background:new    ;}
	.st49{opacity:0.61;fill:#B5C6CF;enable-background:new    ;}
	.st50{opacity:0.65;fill:#B1C3CC;enable-background:new    ;}
	.st51{opacity:0.68;fill:#ADC0C9;enable-background:new    ;}
	.st52{opacity:0.71;fill:#A9BDC7;enable-background:new    ;}
	.st53{opacity:0.74;fill:#A5BAC4;enable-background:new    ;}
	.st54{opacity:0.77;fill:#A1B7C2;enable-background:new    ;}
	.st55{opacity:0.81;fill:#9DB4BF;enable-background:new    ;}
	.st56{opacity:0.84;fill:#9AB1BD;enable-background:new    ;}
	.st57{opacity:0.87;fill:#96AEBA;enable-background:new    ;}
	.st58{opacity:0.9;fill:#92ABB8;enable-background:new    ;}
	.st59{opacity:0.94;fill:#8EA8B5;enable-background:new    ;}
	.st60{opacity:0.97;fill:#8AA5B3;enable-background:new    ;}
	.st61{fill:#86A2B0;}
	.st62{fill:#B3EDFF;}
	.st63{fill:#61D7FF;}
</style>
<g>
	<g id="Ebene_2_00000031923932954383668510000006032945382986892719_">
		<g id="Paper-Icons">
			<g>
				<g>
					<g>
						<path class="st0" d="M44.9,30.9c3.6-3.6,3.4-6.5,2.2-9.5c-0.9-2.3-1.3-3.9-2.8-6c-1.3-1.9-4.2-4.4-8.4-5
							c-4.1-0.6-13.9,6.2-17.2,7c-3.6,1-8.1,3.5-12.7,5.4c-2.4,1-5.9,4-6,5.7c-0.1,2.6,0.8,3.7,1.9,4.8s3.6,2.9,5,3.6
							c1.4,0.7,4.9,1.6,6.1,1.8c2.6,0.3,3.6-0.5,5.7-0.3c2.7,0.3,3.6,0.5,4.9,0.5c1.1,0,2.1-0.3,2.7-0.3c0.9,0,3.4,0.6,4.5,0.4
							c2.9-0.6,2.2-0.9,3.7-1.4C37.6,36.6,42,33.9,44.9,30.9L44.9,30.9z"/>
						<path class="st1" d="M44.5,30.8c3.5-3.4,3.3-6.3,2.1-9.3c-0.9-2.3-1.4-3.8-2.8-5.8c-1.3-1.9-4-4.3-8.2-5
							c-4.1-0.7-13.6,6-16.9,6.9c-3.6,1-7.9,3.5-12.4,5.4c-2.3,0.9-6.1,3.8-6.1,5.5c-0.1,2.5,0.8,3.6,2,4.6c1.2,1,3.5,2.9,4.9,3.5
							s4.8,1.5,6,1.6c2.6,0.3,3.5-0.4,5.6-0.2c2.7,0.3,3.6,0.4,4.8,0.4c1.1,0,2-0.2,2.7-0.3c1,0,3.4,0.5,4.4,0.3
							c2.8-0.6,2.2-0.8,3.7-1.3C37.4,36.2,41.7,33.6,44.5,30.8L44.5,30.8z"/>
						<path class="st2" d="M44.1,30.7c3.4-3.3,3.2-6.1,2-9c-0.9-2.2-1.4-3.7-2.9-5.7c-1.3-1.8-3.8-4.2-8-5
							c-4.2-0.8-13.3,5.8-16.6,6.8c-3.6,1-7.7,3.5-12.1,5.3c-2.3,0.9-6.3,3.7-6.3,5.4c0,2.5,0.9,3.4,2.1,4.4c1.2,1,3.5,2.8,4.9,3.4
							c1.4,0.6,4.6,1.3,5.9,1.4c2.6,0.3,3.5-0.3,5.6-0.1c2.7,0.3,3.5,0.4,4.7,0.4c1.1,0,2-0.2,2.7-0.2c1,0,3.3,0.5,4.4,0.2
							c2.7-0.6,2.1-0.8,3.7-1.3C37.2,35.8,41.3,33.3,44.1,30.7L44.1,30.7z"/>
						<path class="st3" d="M43.7,30.5c3.3-3.1,3.1-5.9,2-8.7c-0.9-2.2-1.5-3.6-2.9-5.5c-1.3-1.8-3.7-4.2-7.8-5
							C30.8,10.5,22,17,18.7,17.9c-3.6,1-7.5,3.5-11.9,5.3c-2.2,0.9-6.5,3.5-6.4,5.2c0,2.4,1,3.3,2.1,4.3c1.2,1,3.4,2.8,4.8,3.3
							c1.5,0.6,4.5,1.2,5.8,1.3c2.5,0.2,3.5-0.2,5.5,0c2.7,0.3,3.4,0.3,4.7,0.3c1.1,0,1.9-0.2,2.7-0.2c1.1,0,3.3,0.4,4.4,0.2
							c2.7-0.5,2.1-0.7,3.7-1.2C37.1,35.4,41,33.1,43.7,30.5L43.7,30.5z"/>
						<path class="st4" d="M43.3,30.4c3.2-2.9,3.1-5.7,1.9-8.4c-0.9-2.1-1.5-3.5-2.9-5.4c-1.3-1.8-3.5-4.1-7.6-5
							c-3.9-0.9-12.6,5.6-15.9,6.5c-3.5,1-7.3,3.5-11.6,5.2c-2.2,0.9-6.7,3.3-6.6,5.1c0.1,2.3,1,3.1,2.2,4.1c1.2,1,3.4,2.7,4.8,3.3
							c1.5,0.6,4.4,1,5.7,1.1c2.5,0.2,3.5-0.1,5.5,0.1c2.7,0.2,3.4,0.3,4.6,0.3c1,0,1.9-0.1,2.7-0.1c1.1,0,3.3,0.3,4.3,0.1
							c2.6-0.5,2.1-0.7,3.7-1.2C37,35.1,40.6,32.9,43.3,30.4L43.3,30.4z"/>
						<path class="st5" d="M42.9,30.2c3.1-2.8,3-5.5,1.8-8.1c-0.9-2.1-1.6-3.4-2.9-5.2c-1.3-1.7-3.3-4-7.4-5
							C30.5,11,22,17.3,18.8,18.2c-3.5,1-7.1,3.5-11.3,5.2c-2.1,0.9-6.9,3.1-6.8,4.9c0.1,2.2,1.1,3,2.2,3.9s3.3,2.7,4.7,3.2
							c1.6,0.5,4.3,0.9,5.6,1c2.5,0.2,3.4,0,5.5,0.2c2.7,0.2,3.3,0.2,4.5,0.2c1,0,1.8-0.1,2.7-0.1c1.2,0,3.3,0.2,4.3,0
							c2.5-0.5,2.1-0.6,3.7-1.1C36.8,34.7,40.3,32.6,42.9,30.2L42.9,30.2z"/>
						<path class="st6" d="M42.5,30.1c3-2.6,2.9-5.3,1.7-7.8c-0.9-2-1.6-3.3-3-5c-1.2-1.7-3.2-3.9-7.2-5c-3.8-1-12,5.3-15.2,6.2
							c-3.5,1-7,3.5-11,5.1c-2.1,0.8-7.1,2.9-6.9,4.8C1,30.4,2,31.1,3.2,32.1c1.2,0.9,3.3,2.7,4.6,3.1c1.6,0.5,4.1,0.7,5.5,0.8
							c2.4,0.2,3.4,0.2,5.4,0.3c2.7,0.2,3.3,0.2,4.5,0.2c1,0,1.8,0,2.7,0c1.2,0,3.2,0.1,4.2-0.1c2.4-0.5,2.1-0.5,3.7-1.1
							C36.7,34.4,39.9,32.4,42.5,30.1L42.5,30.1z"/>
						<path class="st7" d="M42.1,30c2.9-2.5,2.8-5.1,1.6-7.5c-0.9-2-1.7-3.2-3-4.9c-1.2-1.6-3-3.9-7-5c-3.8-1.1-11.7,5.1-14.9,6
							c-3.5,1-6.8,3.5-10.7,5.1c-2,0.8-7.2,2.7-7.1,4.7c0.2,2,1.2,2.7,2.4,3.6s3.2,2.6,4.6,3c1.7,0.5,4,0.6,5.4,0.7
							c2.4,0.2,3.4,0.3,5.4,0.4c2.6,0.2,3.2,0.1,4.4,0.1c1,0,1.7,0,2.7,0c1.3,0,3.2,0.1,4.2-0.1c2.3-0.4,2-0.5,3.7-1
							C36.5,34,39.6,32.1,42.1,30L42.1,30z"/>
						<path class="st8" d="M41.7,29.8c2.8-2.3,2.7-4.9,1.5-7.2c-1-1.9-1.7-3-3-4.7c-1.2-1.6-2.8-3.8-6.8-5c-3.7-1.1-11.4,5-14.5,5.8
							c-3.4,1-6.6,3.5-10.4,5c-2,0.8-7.4,2.6-7.3,4.5s1.3,2.5,2.4,3.4c1.2,0.9,3.2,2.6,4.5,2.9c1.7,0.5,3.9,0.4,5.3,0.5
							c2.4,0.2,3.3,0.4,5.4,0.5c2.6,0.2,3.1,0.1,4.3,0.1c0.9,0,1.7,0.1,2.7,0.1c1.3,0,3.2,0,4.2-0.2c2.3-0.4,2-0.4,3.7-1
							C36.4,33.7,39.2,31.9,41.7,29.8L41.7,29.8z"/>
						<path class="st9" d="M41.3,29.7c2.7-2.2,2.6-4.7,1.5-6.9c-1-1.9-1.8-2.9-3-4.6c-1.2-1.5-2.6-3.7-6.6-5.1
							c-3.7-1.2-11.1,4.8-14.2,5.7c-3.4,1-6.4,3.5-10.1,5c-1.9,0.8-7.6,2.4-7.4,4.4c0.2,1.8,1.3,2.4,2.5,3.3C5,32.4,7,34,8.2,34.3
							c1.8,0.4,3.7,0.3,5.1,0.4c2.4,0.2,3.3,0.5,5.3,0.6c2.6,0.2,3.1,0,4.3,0c0.9,0,1.6,0.1,2.7,0.1c1.4,0,3.2-0.1,4.1-0.3
							c2.2-0.4,2-0.4,3.7-1C36.2,33.2,38.9,31.6,41.3,29.7z"/>
						<path class="st10" d="M40.9,29.6c2.6-2,2.5-4.5,1.4-6.7c-1-1.8-1.8-2.8-3.1-4.4c-1.2-1.6-2.4-3.7-6.4-5.1
							c-3.6-1.3-10.8,4.7-13.9,5.5c-3.4,1-6.2,3.5-9.9,4.9c-1.9,0.8-7.8,2.2-7.6,4.2c0.2,1.7,1.4,2.2,2.6,3.1
							c1.3,0.9,3.1,2.5,4.4,2.8c1.8,0.4,3.6,0.1,5,0.2c2.3,0.2,3.3,0.6,5.3,0.7c2.6,0.2,3-0.1,4.2,0c0.9,0,1.6,0.1,2.7,0.1
							c1.5,0,3.1-0.2,4.1-0.3c2.1-0.4,2-0.3,3.7-0.9C36.1,32.9,38.5,31.4,40.9,29.6L40.9,29.6z"/>
						<path class="st11" d="M40.4,29.4c2.5-1.9,2.4-4.3,1.3-6.4c-1-1.8-1.9-2.7-3.1-4.2c-1.2-1.5-2.3-3.6-6.2-5.1
							c-3.6-1.3-10.5,4.5-13.5,5.4c-3.4,1-6.1,3.4-9.6,4.9c-1.8,0.7-8.1,2-7.7,4.1C1.8,29.8,3,30.2,4.2,31c1.3,0.9,3.1,2.4,4.3,2.7
							c1.8,0.4,3.5,0,4.9,0.1c2.3,0.2,3.3,0.7,5.2,0.8c2.6,0.1,3-0.1,4.1-0.1c0.9,0,1.5,0.2,2.7,0.2c1.5,0,3.1-0.2,4-0.4
							c2.1-0.4,1.9-0.2,3.7-0.9C35.9,32.5,38.2,31.1,40.4,29.4L40.4,29.4z"/>
						<path class="st12" d="M40,29.3c2.4-1.7,2.4-4.1,1.2-6.1c-1-1.7-1.9-2.6-3.1-4.1C37,17.6,36,15.6,32.1,14
							c-3.5-1.4-10.2,4.4-13.2,5.2c-3.3,1-5.9,3.4-9.3,4.8c-1.8,0.7-8.3,1.8-7.9,3.9c0.3,1.6,1.5,1.9,2.7,2.7c1.3,0.9,3,2.4,4.3,2.6
							c1.9,0.3,3.3-0.2,4.8-0.1c2.3,0.2,3.2,0.8,5.2,0.9c2.6,0.1,2.9-0.2,4.1-0.1c0.8,0,1.5,0.2,2.7,0.2c1.6,0,3.1-0.3,4-0.5
							c2-0.3,1.9-0.2,3.7-0.8C35.7,32.2,37.8,30.9,40,29.3L40,29.3z"/>
						<path class="st13" d="M39.6,29.2c2.3-1.5,2.3-3.9,1.1-5.8c-1-1.7-2-2.5-3.1-3.9c-1.1-1.4-1.9-3.4-5.9-5.1
							c-3.5-1.5-9.9,4.2-12.9,5.1c-3.3,1-5.7,3.4-9,4.8c-1.7,0.7-8.5,1.6-8.1,3.8c0.3,1.5,1.6,1.8,2.8,2.6c1.3,0.9,3,2.3,4.2,2.5
							c1.9,0.3,3.2-0.3,4.7-0.2c2.2,0.1,3.2,0.9,5.1,1c2.6,0.1,2.8-0.2,4-0.2c0.8,0,1.4,0.3,2.7,0.3c1.6,0,3-0.4,3.9-0.5
							c1.9-0.3,1.9-0.1,3.7-0.8C35.6,31.8,37.5,30.6,39.6,29.2L39.6,29.2z"/>
						<path class="st14" d="M39.2,29c2.2-1.4,2.2-3.7,1.1-5.5c-1-1.6-2-2.4-3.2-3.8s-1.8-3.4-5.7-5.1c-3.5-1.5-9.6,4.1-12.5,4.9
							c-3.3,1-5.5,3.4-8.7,4.7C8.5,25,1.5,25.7,2,28c0.3,1.4,1.7,1.6,2.8,2.4c1.3,0.8,2.9,2.3,4.1,2.4c2,0.3,3.1-0.5,4.6-0.4
							c2.2,0.1,3.2,1.1,5.1,1.1c2.6,0.1,2.8-0.3,3.9-0.2c0.8,0,1.4,0.3,2.7,0.3c1.7,0,3-0.5,3.9-0.6c1.8-0.3,1.9,0,3.8-0.7
							C35.5,31.4,37.1,30.3,39.2,29L39.2,29z"/>
						<path class="st15" d="M38.8,28.9c2.1-1.2,2.1-3.5,1-5.2c-1-1.6-2.1-2.3-3.2-3.6c-1.1-1.3-1.6-3.3-5.5-5.1
							c-3.4-1.6-9.3,3.9-12.2,4.8c-3.3,1-5.3,3.4-8.5,4.7c-1.6,0.7-8.9,1.3-8.4,3.5c0.3,1.3,1.7,1.5,2.9,2.2
							c1.3,0.8,2.9,2.2,4.1,2.4c2,0.2,3-0.6,4.5-0.5c2.2,0.1,3.1,1.2,5.1,1.2c2.5,0.1,2.7-0.3,3.9-0.3c0.7,0,1.3,0.4,2.7,0.4
							c1.7,0,3-0.5,3.9-0.7c1.8-0.3,1.8,0,3.8-0.7C35.3,31.1,36.8,30.1,38.8,28.9z"/>
						<path class="st16" d="M38.4,28.7c2-1.1,2-3.4,0.9-4.9c-1-1.5-2.2-2.2-3.2-3.5c-1.1-1.2-1.4-3.2-5.2-5.1
							c-3.4-1.7-9,3.8-11.9,4.6c-3.2,1-5.1,3.4-8.2,4.6c-1.6,0.6-9.1,1.1-8.6,3.4c0.3,1.2,1.8,1.3,3,2.1c1.3,0.8,2.9,2.2,4,2.3
							c2.1,0.2,2.8-0.8,4.4-0.7c2.2,0.1,3.1,1.3,5,1.3c2.5,0.1,2.6-0.4,3.8-0.3c0.7,0.1,1.3,0.4,2.7,0.4c1.8,0,3-0.6,3.8-0.8
							c1.7-0.3,1.8,0.1,3.8-0.6C35.1,30.7,36.4,29.8,38.4,28.7L38.4,28.7z"/>
						<path class="st17" d="M38,28.6c1.9-0.9,1.9-3.2,0.8-4.7c-1.1-1.5-2.2-2.1-3.3-3.3c-1-1.2-1.3-3.1-5.1-5.1
							c-3.3-1.7-8.7,3.6-11.5,4.5c-3.2,1-4.9,3.4-7.9,4.6c-1.5,0.6-9.3,0.9-8.7,3.2c0.3,1.1,1.8,1.2,3,1.9c1.3,0.8,2.8,2.1,4,2.2
							c2.1,0.1,2.7-0.9,4.3-0.8c2.1,0.1,3.1,1.4,5,1.4c2.5,0.1,2.6-0.4,3.7-0.4c0.7,0.1,1.3,0.4,2.7,0.5c1.8,0,2.9-0.7,3.8-0.8
							c1.6-0.2,1.8,0.2,3.8-0.6C35,30.3,36,29.6,38,28.6z"/>
						<path class="st18" d="M37.6,28.5c1.8-0.8,1.8-2.9,0.7-4.4c-1.1-1.4-2.3-2-3.3-3.1c-1-1.1-1.1-3-4.9-5.1
							c-3.3-1.8-8.4,3.5-11.2,4.3c-3.2,1-4.8,3.4-7.6,4.5c-1.5,0.6-9.6,0.7-8.9,3.1c0.3,1,1.9,1,3.1,1.7c1.3,0.8,2.8,2.1,3.9,2.1
							c2.2,0.1,2.5-1,4.2-1c2.1,0.1,3.1,1.5,4.9,1.6c2.5,0,2.5-0.5,3.7-0.4c0.7,0.1,1.2,0.5,2.7,0.5c1.9,0,2.9-0.8,3.7-0.9
							c1.5-0.2,1.8,0.2,3.8-0.5C34.8,30,35.7,29.4,37.6,28.5L37.6,28.5z"/>
						<path class="st19" d="M37.2,28.3c1.7-0.6,1.7-2.7,0.7-4.1c-1.1-1.3-2.3-1.9-3.3-3c-1-1.1-0.9-3-4.7-5.1
							c-3.2-1.9-8.1,3.4-10.9,4.2c-3.2,1-4.6,3.4-7.3,4.5c-1.4,0.6-9.8,0.6-9.1,3c0.3,0.9,2,0.9,3.2,1.5c1.3,0.8,2.7,2.1,3.8,2
							c2.2-0.1,2.4-1.2,4.1-1.1c2.1,0.1,3,1.6,4.9,1.7c2.5,0,2.4-0.6,3.6-0.5c0.6,0.1,1.2,0.5,2.7,0.5c1.9,0,2.9-0.9,3.7-1
							c1.5-0.2,1.7,0.3,3.8-0.5C34.7,29.6,35.3,29.1,37.2,28.3L37.2,28.3z"/>
						<path class="st20" d="M36.8,28.2c1.6-0.5,1.6-2.5,0.6-3.8c-1-1.2-2.4-1.8-3.3-2.8c-1-1-0.8-2.9-4.5-5.1
							c-3.2-1.9-7.8,3.2-10.5,4c-3.1,1-4.4,3.4-7,4.4c-1.4,0.6-10.1,0.4-9.2,2.8c0.3,0.8,2,0.7,3.2,1.4c1.4,0.7,2.7,2,3.8,2
							c2.3,0,2.3-1.3,4-1.3c2.1,0.1,3,1.7,4.9,1.8c2.5,0,2.4-0.6,3.5-0.5c0.6,0.1,1.1,0.6,2.7,0.6c2,0,2.9-0.9,3.7-1
							c1.4-0.2,1.7,0.4,3.8-0.5C34.6,29.3,35,28.8,36.8,28.2L36.8,28.2z"/>
						<path class="st21" d="M36.4,28.1c1.5-0.4,1.5-2.3,0.5-3.5c-1.1-1.2-2.4-1.7-3.4-2.7c-1-1-0.6-2.8-4.3-5.1
							c-3.1-2-7.5,3-10.2,3.9c-3.1,1-4.2,3.3-6.8,4.4C11,25.6,2,25.3,2.9,27.7c0.3,0.8,2.1,0.6,3.3,1.2c1.4,0.7,2.6,1.9,3.7,1.9
							c2.3-0.1,2.2-1.5,3.9-1.4c2,0.1,3,1.9,4.8,1.9c2.5,0,2.3-0.7,3.5-0.6c0.6,0.1,1.1,0.6,2.7,0.6c2.1,0,2.8-1,3.6-1.1
							c1.3-0.2,1.7,0.4,3.8-0.4C34.4,28.9,34.6,28.5,36.4,28.1L36.4,28.1z"/>
					</g>
					<path class="st22" d="M35.4,23.1c-0.3-1.1-1-2.1-1.9-2.8c0.2-0.6,0.4-1.3,0.4-2c0.2-3.5-2.6-6.5-6.1-6.7
						c-2.7-0.1-5.1,1.5-6.1,3.8c-0.2,0-0.4-0.1-0.6-0.1c-2.2-0.1-4.2,0.9-5.5,2.6c-0.4-0.1-0.7-0.2-1.1-0.2
						c-1.9-0.1-3.5,1.4-3.6,3.3c0,0.3,0,0.6,0.1,0.9c-0.7,0.1-1.3,0.5-1.7,1.1c-0.6-0.8-1.5-1.3-2.5-1.3c-1.5-0.1-2.7,0.8-3.2,2.1
						c-0.1,0-0.1,0-0.2,0c-1.3-0.1-2.4,1-2.5,2.3c-0.1,1.3,1,2.5,2.3,2.5c0.7,0,1.3-0.2,1.8-0.7c0.5,0.3,1,0.5,1.6,0.5
						c0.5,1.2,1.7,2,3,2.1c1.4,0.1,2.7-0.7,3.2-1.9c0.4,0.2,0.8,0.3,1.3,0.3c0.2,0,0.3,0,0.4,0c0.8,1.1,2.1,1.8,3.6,1.9
						c1.4,0.1,2.7-0.5,3.6-1.5c0.6,1.1,1.6,1.8,2.9,1.9c1.4,0.1,2.6-0.7,3.2-1.8c0.7,0.4,1.4,0.6,2.2,0.6c1.8,0.1,3.4-0.7,4.4-2
						c0.2,0.1,0.5,0.2,0.8,0.2c1.4,0.1,2.6-1,2.6-2.4C37.9,24.4,36.8,23.2,35.4,23.1L35.4,23.1z"/>
					
						<linearGradient id="SVGID_1_" gradientUnits="userSpaceOnUse" x1="11.2007" y1="33.0899" x2="30.3888" y2="13.9018" gradientTransform="matrix(1 0 0 -1 0 48.2384)">
						<stop  offset="0" style="stop-color:#1062A1"/>
						<stop  offset="1" style="stop-color:#0A4D80"/>
					</linearGradient>
					<path class="st23" d="M35.5,23.2c-0.3-1.1-1-2.1-1.9-2.8c0.2-0.6,0.4-1.3,0.4-2c0.2-3.5-2.6-6.5-6.1-6.7
						c-2.7-0.1-5.1,1.5-6.1,3.8c-0.2,0-0.4-0.1-0.6-0.1c-2.2-0.1-4.2,0.9-5.5,2.6c-0.4-0.1-0.7-0.2-1.1-0.2
						c-1.9-0.1-3.5,1.4-3.6,3.3c0,0.3,0,0.6,0.1,0.9c-0.7,0.1-1.3,0.5-1.7,1.1c-0.6-0.8-1.5-1.3-2.5-1.3c-1.5-0.1-2.7,0.8-3.2,2.1
						c-0.1,0-0.1,0-0.2,0C2.1,23.9,1,25,1,26.3c-0.1,1.3,1,2.5,2.3,2.5c0.7,0,1.3-0.2,1.8-0.7c0.5,0.3,1,0.5,1.6,0.5
						c0.5,1.2,1.7,2,3,2.1c1.4,0.1,2.7-0.7,3.2-1.9c0.4,0.2,0.8,0.3,1.3,0.3c0.2,0,0.3,0,0.4,0c0.8,1.1,2.1,1.8,3.6,1.9
						c1.4,0.1,2.7-0.5,3.6-1.5c0.6,1.1,1.6,1.8,2.9,1.9c1.4,0.1,2.6-0.7,3.2-1.8c0.7,0.4,1.4,0.6,2.2,0.6c1.8,0.1,3.4-0.7,4.4-2
						c0.2,0.1,0.5,0.2,0.8,0.2c1.4,0.1,2.6-1,2.6-2.4C38,24.5,36.9,23.3,35.5,23.2L35.5,23.2z"/>
				</g>
				<g>
					<g>
						<path class="st0" d="M31.5,26.6c1.6-2.9,0-6.8-0.8-8.9c-0.6-1.6-2.6-3.7-4.1-4.4c-1.5-0.8-2.1-1.6-4.2-1.8
							c-2.8-0.3-6.4,1.8-8.7,2.4c-2.4,0.7-6.6,2.6-8.8,5.1c-2.6,2.9-2.7,5.2-2,6.9c0.8,1.8,2,2.8,2.8,3.5c0.8,0.7,1.6,1.3,2.6,1.8
							c1.8,0.9,3.4,0.8,4.8,0.9c1,0.1,3.7,0.3,6.4-0.3c1.9-0.4,3.6-0.7,4.6-1C26.2,30.3,30.1,29,31.5,26.6z"/>
						<path class="st1" d="M31.2,26.5c1.6-2.8,0.1-6.6-0.7-8.6c-0.6-1.5-2.5-3.5-4-4.3c-1.5-0.8-2-1.8-4.1-2
							c-2.7-0.3-6.4,1.9-8.6,2.5c-2.4,0.7-6.5,2.6-8.7,5c-2.5,2.8-2.8,5.1-2,6.8s2,2.7,2.8,3.4s1.7,1.3,2.6,1.7
							c1.8,0.8,3.4,0.7,4.7,0.8c1,0.1,3.6,0.3,6.3-0.2c1.9-0.4,3.6-0.7,4.5-1C26.1,30,29.9,28.8,31.2,26.5L31.2,26.5z"/>
						<path class="st2" d="M30.9,26.4c1.6-2.7,0.1-6.4-0.6-8.3c-0.6-1.5-2.4-3.4-3.9-4.1c-1.5-0.7-1.9-1.9-4.1-2.2
							c-2.7-0.4-6.4,1.9-8.6,2.5c-2.4,0.7-6.4,2.5-8.5,4.9c-2.4,2.7-2.8,5-2,6.7c0.8,1.7,2,2.6,2.9,3.2c0.8,0.7,1.7,1.2,2.6,1.6
							c1.9,0.8,3.4,0.6,4.6,0.7c1,0.1,3.6,0.4,6.3-0.2c1.9-0.4,3.5-0.7,4.4-1C25.9,29.7,29.6,28.6,30.9,26.4L30.9,26.4z"/>
						<path class="st3" d="M30.6,26.2c1.6-2.6,0.2-6.2-0.6-8c-0.6-1.4-2.3-3.3-3.8-4c-1.4-0.7-1.8-2-4-2.4c-2.7-0.5-6.4,2-8.5,2.6
							c-2.4,0.7-6.4,2.5-8.4,4.7c-2.4,2.6-2.8,4.9-2,6.6c0.8,1.7,2,2.4,2.9,3.1c0.8,0.6,1.7,1.1,2.7,1.5c1.9,0.8,3.3,0.5,4.6,0.6
							c1,0.1,3.5,0.4,6.2-0.1c1.9-0.4,3.4-0.7,4.3-1C25.8,29.4,29.3,28.4,30.6,26.2L30.6,26.2z"/>
						<path class="st4" d="M30.3,26.1c1.6-2.5,0.3-5.9-0.5-7.7c-0.6-1.4-2.2-3.1-3.7-3.9c-1.4-0.7-1.7-2.2-3.9-2.6
							c-2.6-0.5-6.3,2-8.5,2.6c-2.3,0.7-6.3,2.5-8.3,4.6c-2.3,2.5-2.9,4.8-2.1,6.5c0.8,1.6,2,2.3,2.9,2.9C7.2,29.1,8.1,29.6,9,30
							c1.9,0.7,3.3,0.4,4.5,0.5c1,0.1,3.4,0.5,6.1-0.1c2-0.4,3.4-0.7,4.2-0.9C25.7,29.1,29,28.2,30.3,26.1L30.3,26.1z"/>
						<path class="st5" d="M30,26c1.6-2.4,0.4-5.7-0.4-7.4c-0.6-1.4-2.2-3-3.6-3.7c-1.4-0.7-1.6-2.3-3.8-2.8
							c-2.6-0.6-6.3,2.1-8.5,2.6c-2.3,0.6-6.3,2.4-8.1,4.4c-2.2,2.4-2.9,4.7-2.1,6.4c0.8,1.6,2,2.2,2.9,2.8c0.8,0.6,1.8,1,2.7,1.4
							c1.9,0.7,3.2,0.3,4.4,0.4c1,0.1,3.3,0.5,6,0c2-0.4,3.3-0.8,4.1-0.9C25.5,28.8,28.7,28,30,26z"/>
						<path class="st6" d="M29.7,25.9c1.6-2.4,0.5-5.5-0.3-7.2c-0.6-1.3-2.1-2.9-3.6-3.6c-1.4-0.7-1.4-2.5-3.7-3
							c-2.5-0.6-6.3,2.1-8.4,2.7c-2.3,0.6-6.2,2.4-8,4.3c-2.1,2.3-3,4.5-2.1,6.3c0.8,1.5,2,2.1,3,2.7c0.9,0.5,1.8,1,2.7,1.3
							c1.9,0.7,3.2,0.2,4.3,0.3c1,0.1,3.3,0.6,6,0.1c2-0.4,3.2-0.8,4-0.9C25.4,28.5,28.4,27.8,29.7,25.9L29.7,25.9z"/>
						<path class="st7" d="M29.4,25.7c1.6-2.3,0.6-5.3-0.2-6.9c-0.6-1.3-2-2.7-3.5-3.4c-1.3-0.6-1.3-2.6-3.6-3.2
							c-2.5-0.7-6.3,2.1-8.4,2.7c-2.3,0.6-6.2,2.3-7.9,4.2c-2,2.2-3,4.4-2.1,6.2c0.8,1.5,2,2,3,2.5c0.9,0.5,1.8,0.9,2.7,1.2
							c1.9,0.6,3.2,0.1,4.2,0.2c0.9,0.1,3.2,0.6,5.9,0.1c2-0.4,3.2-0.8,3.9-0.9C25.3,28.2,28.2,27.5,29.4,25.7L29.4,25.7z"/>
						<path class="st8" d="M29.1,25.6c1.6-2.2,0.7-5.1-0.1-6.6c-0.6-1.3-1.9-2.6-3.4-3.3c-1.3-0.6-1.2-2.7-3.5-3.4
							c-2.5-0.7-6.3,2.2-8.3,2.8c-2.3,0.6-6.1,2.3-7.7,4c-1.9,2-3.1,4.3-2.2,6.1c0.8,1.4,2,1.8,3,2.4c0.9,0.5,1.8,0.8,2.7,1.1
							c1.9,0.6,3.1-0.1,4.2,0.1c0.9,0.2,3.1,0.7,5.8,0.2c2-0.4,3.1-0.8,3.8-0.9C25.1,27.9,27.9,27.3,29.1,25.6L29.1,25.6z"/>
						<path class="st9" d="M28.8,25.5c1.6-2.1,0.7-4.8,0-6.3c-0.6-1.2-1.9-2.5-3.3-3.1c-1.3-0.6-1.1-2.9-3.4-3.6
							c-2.4-0.8-6.3,2.2-8.3,2.8c-2.3,0.6-6,2.2-7.6,3.9c-1.8,1.9-3.1,4.2-2.2,6c0.7,1.4,2,1.7,3,2.2c0.9,0.4,1.8,0.8,2.8,1
							c1.9,0.6,3.1-0.2,4.1,0c0.9,0.2,3,0.7,5.7,0.2c2-0.4,3-0.8,3.7-0.9C24.9,27.6,27.5,27.1,28.8,25.5L28.8,25.5z"/>
						<path class="st10" d="M28.6,25.3c1.6-2,0.8-4.6,0.1-6c-0.7-1.2-1.8-2.3-3.2-3c-1.2-0.6-1-3-3.3-3.8c-2.4-0.8-6.2,2.3-8.3,2.9
							c-2.2,0.6-6,2.2-7.4,3.8C4.8,21,3.3,23.2,4.3,25c0.7,1.3,2,1.6,3.1,2.1c0.9,0.4,1.9,0.7,2.8,0.9c2,0.5,3.1-0.3,4-0.1
							c0.9,0.2,3,0.8,5.7,0.3c2-0.4,2.9-0.8,3.6-0.9C24.9,27.3,27.3,26.9,28.6,25.3L28.6,25.3z"/>
						<path class="st11" d="M28.3,25.2c1.6-1.9,0.9-4.4,0.2-5.7c-0.7-1.2-1.7-2.2-3.1-2.8c-1.2-0.6-0.9-3.1-3.2-4s-6.2,2.3-8.2,2.9
							c-2.2,0.6-5.9,2.1-7.3,3.6c-1.6,1.7-3.3,4-2.2,5.8c0.7,1.3,2,1.5,3.1,2c0.9,0.4,1.9,0.6,2.8,0.9c2,0.5,3-0.4,3.9-0.2
							c0.9,0.2,2.9,0.8,5.6,0.3c2-0.4,2.9-0.8,3.5-0.9C24.8,26.9,27,26.6,28.3,25.2L28.3,25.2z"/>
						<path class="st12" d="M28,25.1c1.6-1.8,1-4.2,0.2-5.5c-0.7-1.1-1.6-2.1-3-2.7c-1.2-0.5-0.7-3.3-3.1-4.2s-6.2,2.4-8.2,2.9
							c-2.2,0.6-5.9,2.1-7.2,3.5c-1.5,1.6-3.3,3.9-2.2,5.7c0.7,1.3,2,1.4,3.1,1.8c0.9,0.4,1.9,0.6,2.8,0.8c2,0.4,3-0.5,3.9-0.3
							s2.8,0.9,5.5,0.4c2.1-0.4,2.8-0.9,3.4-0.9C24.6,26.6,26.7,26.4,28,25.1L28,25.1z"/>
						<path class="st13" d="M27.6,24.9c1.6-1.7,1.1-3.9,0.3-5.2c-0.7-1.1-1.5-1.9-2.9-2.6c-1.1-0.5-0.6-3.4-3-4.4s-6.2,2.4-8.2,3
							c-2.2,0.6-5.8,2.1-7,3.3c-1.4,1.5-3.4,3.7-2.3,5.6c0.7,1.2,2,1.3,3.2,1.7c0.9,0.3,1.9,0.5,2.8,0.7c2,0.4,3-0.6,3.8-0.4
							c0.8,0.2,2.7,0.9,5.4,0.5c2.1-0.4,2.7-0.9,3.3-0.8C24.5,26.4,26.5,26.2,27.6,24.9L27.6,24.9z"/>
						<path class="st14" d="M27.4,24.8c1.6-1.7,1.2-3.7,0.4-4.9c-0.7-1.1-1.5-1.8-2.8-2.4c-1.1-0.5-0.5-3.5-2.9-4.6s-6.2,2.5-8.1,3
							c-2.2,0.6-5.8,2-6.9,3.2c-1.3,1.4-3.4,3.6-2.3,5.5c0.7,1.2,2,1.1,3.2,1.6c0.9,0.3,2,0.5,2.9,0.6c2,0.4,2.9-0.7,3.7-0.5
							c0.8,0.2,2.7,1,5.4,0.5c2.1-0.4,2.7-0.9,3.2-0.8C24.4,26.1,26.2,26,27.4,24.8L27.4,24.8z"/>
						<path class="st15" d="M27.1,24.7c1.6-1.6,1.2-3.5,0.5-4.6c-0.7-1-1.4-1.7-2.7-2.3c-1.1-0.5-0.4-3.7-2.8-4.8
							c-2.2-1.1-6.2,2.5-8.1,3.1c-2.2,0.6-5.7,2-6.8,3.1C6,20.4,3.8,22.7,5,24.5c0.7,1.1,2,1,3.2,1.4c0.9,0.3,2,0.4,2.9,0.5
							c2,0.3,2.9-0.8,3.6-0.6c0.8,0.2,2.6,1,5.3,0.6c2.1-0.4,2.6-0.9,3.1-0.8C24.2,25.7,25.9,25.8,27.1,24.7L27.1,24.7z"/>
						<path class="st16" d="M26.8,24.6c1.6-1.5,1.3-3.3,0.6-4.3c-0.7-1-1.3-1.6-2.6-2.1c-1-0.5-0.3-3.8-2.7-5
							c-2.2-1.1-6.1,2.5-8,3.1c-2.1,0.6-5.6,1.9-6.6,2.9c-1.2,1.2-3.5,3.4-2.3,5.3c0.7,1.1,2,0.9,3.2,1.3c0.9,0.3,2,0.3,2.9,0.4
							c2,0.3,2.9-0.9,3.6-0.7c0.8,0.2,2.5,1.1,5.2,0.6c2.1-0.4,2.5-0.9,3-0.8C24.1,25.5,25.6,25.6,26.8,24.6L26.8,24.6z"/>
						<path class="st17" d="M26.5,24.4c1.6-1.4,1.4-3,0.7-4.1c-0.7-1-1.2-1.4-2.5-2c-1-0.4-0.2-3.9-2.6-5.2c-2.2-1.1-6.1,2.6-8,3.2
							c-2.1,0.6-5.6,1.9-6.5,2.8c-1.1,1.1-3.6,3.3-2.3,5.2c0.7,1,2,0.8,3.3,1.1c0.9,0.2,2,0.3,2.9,0.4c2.1,0.2,2.8-1,3.5-0.8
							c0.8,0.3,2.4,1.1,5.1,0.7c2.1-0.3,2.4-0.9,2.9-0.8C24,25.2,25.4,25.4,26.5,24.4L26.5,24.4z"/>
						<path class="st18" d="M26.2,24.3c1.6-1.3,1.5-2.8,0.8-3.8c-0.7-0.9-1.1-1.3-2.4-1.9c-1-0.4-0.1-4-2.5-5.4
							c-2.2-1.2-6.1,2.6-8,3.2c-2.1,0.6-5.5,1.8-6.4,2.7c-1,1-3.6,3.2-2.4,5.1c0.7,1,2,0.7,3.3,1c1,0.2,2.1,0.2,2.9,0.3
							c2.1,0.2,2.8-1.1,3.4-0.9c0.8,0.3,2.3,1.2,5,0.7c2.1-0.3,2.4-0.9,2.8-0.8C23.8,24.8,25,25.1,26.2,24.3L26.2,24.3z"/>
						<path class="st19" d="M25.9,24.2c1.6-1.2,1.6-2.6,0.9-3.5c-0.7-0.9-1.1-1.1-2.3-1.7c-0.9-0.4,0.1-4.2-2.4-5.6
							c-2.1-1.2-6.1,2.7-7.9,3.2c-2.1,0.6-5.5,1.8-6.2,2.5c-0.9,0.9-3.7,3.1-2.4,5c0.7,1,1.9,0.6,3.3,0.8c1,0.2,2.1,0.1,2.9,0.2
							c2.1,0.1,2.7-1.2,3.3-1c0.8,0.3,2.3,1.2,5,0.8c2.1-0.3,2.3-0.9,2.7-0.8C23.7,24.5,24.8,24.9,25.9,24.2L25.9,24.2z"/>
						<path class="st20" d="M25.6,24c1.6-1.1,1.6-2.4,1-3.2c-0.7-0.8-1-1-2.2-1.6c-0.9-0.4,0.2-4.3-2.3-5.8
							c-2.1-1.3-6.1,2.7-7.9,3.3c-2.1,0.6-5.4,1.7-6.1,2.4c-0.8,0.8-3.8,3-2.4,4.9C6.3,25,7.6,24.5,9,24.8c1,0.2,2.1,0.1,3,0.1
							c2.1,0.1,2.7-1.3,3.2-1.1c0.8,0.3,2.2,1.3,4.9,0.8c2.2-0.3,2.2-1,2.6-0.8C23.6,24.3,24.5,24.8,25.6,24L25.6,24z"/>
						<path class="st21" d="M25.3,23.9c1.6-1,1.7-2.2,1-2.9c-0.7-0.8-0.9-0.9-2.1-1.4c-0.9-0.4,0.3-4.4-2.2-6
							c-2.1-1.3-6.1,2.8-7.8,3.3c-2.1,0.6-5.4,1.7-6,2.2c-0.7,0.7-3.8,2.9-2.4,4.8c0.7,0.9,1.9,0.4,3.4,0.6c1,0.1,2.1,0,3,0
							c2.1,0.1,2.7-1.4,3.2-1.2c0.7,0.3,2.1,1.3,4.8,0.9c2.2-0.3,2.1-1,2.5-0.7C23.5,23.9,24.3,24.5,25.3,23.9L25.3,23.9z"/>
					</g>
					<path class="st24" d="M25.4,19.5c0.2-0.6,0.3-1.2,0.3-1.9c0-3.8-3.1-6.9-6.9-6.9c-3.2,0-5.9,2.2-6.7,5.2c-0.1,0-0.1,0-0.2,0
						c-1.5,0-2.8,0.8-3.6,2c-0.4-0.2-0.8-0.3-1.3-0.3c-1.8,0-3.3,1.5-3.3,3.4s1.5,3.4,3.3,3.4c0.8,0,1.6-0.3,2.1-0.8
						c0.7,0.6,1.7,1,2.7,1c1.2,0,2.2-0.5,3-1.2c1.1,0.8,2.4,1.2,3.9,1.2c1.3,0,2.6-0.4,3.6-1c0.5,0.6,1.2,1,2,1
						c1.4,0,2.6-1.2,2.6-2.6C26.9,20.8,26.3,19.9,25.4,19.5L25.4,19.5z"/>
					
						<linearGradient id="SVGID_00000009591170411529403910000003059478241335749820_" gradientUnits="userSpaceOnUse" x1="3.7147" y1="30.4755" x2="27.0455" y2="30.4755" gradientTransform="matrix(1 0 0 -1 0 48.2384)">
						<stop  offset="0" style="stop-color:#076BBA"/>
						<stop  offset="1" style="stop-color:#0060AB"/>
					</linearGradient>
					<path style="fill:url(#SVGID_00000009591170411529403910000003059478241335749820_);" d="M25.5,19.6c0.2-0.6,0.3-1.2,0.3-1.9
						c0-3.8-3.1-6.9-6.9-6.9c-3.2,0-5.9,2.2-6.7,5.2c-0.1,0-0.1,0-0.2,0c-1.5,0-2.8,0.8-3.6,2c-0.4-0.2-0.8-0.3-1.3-0.3
						c-1.8,0-3.3,1.5-3.3,3.4s1.5,3.4,3.3,3.4c0.8,0,1.6-0.3,2.1-0.8c0.7,0.6,1.7,1,2.7,1c1.2,0,2.2-0.5,3-1.2
						c1.1,0.8,2.4,1.2,3.9,1.2c1.3,0,2.6-0.4,3.6-1c0.5,0.6,1.2,1,2,1c1.4,0,2.6-1.2,2.6-2.6C27,20.9,26.4,20,25.5,19.6L25.5,19.6z"
						/>
				</g>
				<g>
					<g>
						<path class="st0" d="M44.3,28.7c2-1.7,1.7-7.1,0.6-8.5c-1.4-1.9-2.8-3-4-3.6c-1.2-0.6-4.7-1.2-6.3-1.2c-2.2,0-4.4,0.5-6.2,1
							c-1.9,0.5-5.8,1.9-7.6,3.9c-2.1,2.3-0.3,7,0.3,7.6c1,1.3,2.2,2.5,3.8,3.3c1.5,0.7,2.8,0.7,3.8,0.8c0.8,0.1,4.5,0.5,6.7,0
							c1.5-0.3,4.1-0.8,4.9-1.2C40.9,30.5,42.6,30.1,44.3,28.7L44.3,28.7z"/>
						<path class="st1" d="M43.9,28.5c2-1.7,1.7-6.8,0.6-8.3c-1.3-1.9-2.8-3-4-3.6c-1.2-0.6-4.6-1.1-6.1-1.2c-2.2,0-4.3,0.5-6.1,1
							c-1.9,0.5-5.7,1.9-7.4,3.8c-2,2.2-0.3,6.8,0.3,7.5c1,1.2,2.1,2.5,3.7,3.2c1.5,0.7,2.7,0.6,3.8,0.7c0.8,0.1,4.4,0.5,6.6,0.1
							c1.5-0.3,4.1-0.8,4.8-1.2C40.6,30.3,42.3,29.9,43.9,28.5L43.9,28.5z"/>
						<path class="st2" d="M43.6,28.3c2-1.6,1.7-6.6,0.7-8.1c-1.3-1.9-2.7-2.9-4-3.5c-1.2-0.6-4.4-1.1-5.9-1.2c-2.1,0-4.3,0.5-6,0.9
							c-1.9,0.5-5.6,1.9-7.3,3.8c-2,2.2-0.3,6.5,0.3,7.3c1,1.2,2,2.4,3.6,3.1c1.4,0.7,2.7,0.6,3.7,0.7c0.8,0.1,4.3,0.6,6.4,0.1
							c1.6-0.3,4-0.9,4.7-1.2C40.3,30,42,29.6,43.6,28.3z"/>
						<path class="st3" d="M43.3,28.2c1.9-1.6,1.7-6.4,0.7-7.8c-1.3-1.9-2.7-2.8-3.9-3.4c-1.2-0.6-4.2-1.1-5.7-1.2
							c-2.1-0.1-4.2,0.4-6,0.9c-1.9,0.5-5.6,1.9-7.2,3.7c-1.9,2.1-0.4,6.3,0.3,7.1c0.9,1.1,1.9,2.4,3.5,3.1c1.4,0.6,2.6,0.5,3.6,0.6
							c0.8,0.1,4.1,0.6,6.3,0.2c1.6-0.3,3.9-0.9,4.6-1.3C40.1,29.8,41.7,29.5,43.3,28.2L43.3,28.2z"/>
						<path class="st4" d="M43,28c1.9-1.5,1.7-6.1,0.7-7.6c-1.3-1.9-2.7-2.8-3.9-3.4c-1.1-0.6-4-1.1-5.5-1.2c-2-0.1-4.1,0.4-5.9,0.9
							c-1.9,0.5-5.5,1.9-7.1,3.6c-1.8,2-0.4,6.1,0.2,6.9c0.9,1.1,1.8,2.3,3.4,3c1.4,0.6,2.6,0.5,3.6,0.6c0.8,0.1,4,0.7,6.1,0.3
							c1.6-0.3,3.8-1,4.5-1.3S41.4,29.2,43,28L43,28z"/>
						<path class="st5" d="M42.6,27.8c1.9-1.4,1.7-5.9,0.7-7.4c-1.2-1.9-2.6-2.7-3.8-3.3c-1.1-0.5-3.8-1.1-5.3-1.2
							c-1.9-0.1-4.1,0.4-5.8,0.8c-1.9,0.5-5.5,1.9-7,3.6c-1.7,1.9-0.5,5.9,0.2,6.8c0.9,1.1,1.7,2.3,3.3,2.9c1.4,0.6,2.6,0.4,3.5,0.5
							c0.8,0.1,3.8,0.8,6,0.3c1.6-0.3,3.7-1,4.3-1.3C39.5,29.2,41.1,29,42.6,27.8L42.6,27.8z"/>
						<path class="st6" d="M42.3,27.6c1.9-1.4,1.7-5.7,0.7-7.2c-1.2-1.9-2.6-2.7-3.8-3.2c-1.1-0.5-3.7-1.1-5.1-1.2
							c-1.9-0.1-4,0.3-5.7,0.8c-1.9,0.5-5.4,1.9-6.8,3.5c-1.7,1.8-0.5,5.7,0.2,6.6c0.8,1,1.6,2.2,3.2,2.8c1.4,0.6,2.5,0.4,3.4,0.5
							c0.8,0.1,3.7,0.8,5.9,0.4c1.6-0.3,3.6-1,4.2-1.3C39.2,29,40.8,28.8,42.3,27.6L42.3,27.6z"/>
						<path class="st7" d="M42,27.5c1.8-1.3,1.7-5.4,0.7-7c-1.2-1.9-2.5-2.6-3.7-3.2c-1.1-0.5-3.5-1.1-4.9-1.2
							c-1.8-0.1-4,0.3-5.6,0.8c-1.8,0.5-5.4,1.9-6.7,3.4c-1.6,1.7-0.6,5.5,0.2,6.4c0.8,1,1.6,2.2,3.1,2.8c1.4,0.5,2.5,0.3,3.4,0.5
							c0.8,0.1,3.6,0.9,5.7,0.5c1.6-0.3,3.5-1.1,4.1-1.4C38.9,28.7,40.4,28.6,42,27.5L42,27.5z"/>
						<path class="st8" d="M41.7,27.3c1.8-1.3,1.7-5.2,0.7-6.8c-1.2-1.9-2.5-2.5-3.7-3.1c-1-0.5-3.3-1-4.7-1.2
							c-1.8-0.1-3.9,0.3-5.6,0.7c-1.8,0.5-5.3,1.9-6.6,3.3c-1.5,1.7-0.6,5.3,0.2,6.3s1.5,2.1,3,2.7c1.3,0.5,2.5,0.3,3.3,0.4
							c0.7,0.1,3.4,0.9,5.6,0.5c1.6-0.3,3.5-1.1,4-1.4C38.6,28.5,40.1,28.4,41.7,27.3L41.7,27.3z"/>
						<path class="st9" d="M41.3,27.1c1.8-1.2,1.7-5,0.7-6.6c-1.1-1.9-2.5-2.5-3.6-3c-1-0.5-3.1-1-4.5-1.2c-1.7-0.2-3.8,0.2-5.5,0.7
							c-1.8,0.5-5.2,1.9-6.5,3.3c-1.5,1.6-0.7,5.1,0.2,6.1c0.7,0.9,1.4,2.1,2.9,2.6c1.3,0.5,2.4,0.2,3.2,0.4c0.7,0.1,3.3,1,5.5,0.6
							c1.6-0.3,3.4-1.1,3.9-1.4C38.3,28.2,39.8,28.2,41.3,27.1z"/>
						<path class="st10" d="M41,26.9c1.7-1.2,1.7-4.8,0.8-6.3c-1.1-1.9-2.4-2.4-3.6-2.9c-1-0.5-2.9-1-4.3-1.2
							c-1.7-0.2-3.8,0.2-5.4,0.6c-1.8,0.5-5.2,1.9-6.4,3.2c-1.4,1.5-0.7,4.9,0.2,5.9c0.7,0.9,1.3,2,2.8,2.6c1.3,0.5,2.4,0.2,3.2,0.3
							c0.7,0.1,3.1,1,5.3,0.6c1.6-0.3,3.3-1.2,3.8-1.5C37.9,28,39.5,28,41,26.9L41,26.9z"/>
						<path class="st11" d="M40.7,26.8c1.7-1.1,1.7-4.5,0.8-6.1c-1.1-1.9-2.4-2.4-3.5-2.9c-1-0.5-2.8-1-4.1-1.2
							c-1.6-0.2-3.7,0.1-5.3,0.6c-1.8,0.5-5.1,1.9-6.2,3.1c-1.3,1.4-0.8,4.6,0.1,5.7c0.7,0.8,1.2,2,2.7,2.5c1.3,0.5,2.4,0.2,3.1,0.3
							c0.7,0.2,3,1.1,5.2,0.7c1.6-0.3,3.2-1.2,3.7-1.5C37.7,27.7,39.2,27.7,40.7,26.8L40.7,26.8z"/>
						<path class="st12" d="M40.3,26.6c1.7-1.1,1.7-4.3,0.8-5.9c-1.1-1.9-2.4-2.3-3.5-2.8c-0.9-0.4-2.6-1-3.9-1.2
							c-1.5-0.2-3.6,0.1-5.2,0.6c-1.8,0.5-5.1,1.9-6.1,3c-1.2,1.3-0.8,4.4,0.1,5.6c0.6,0.8,1.1,1.9,2.6,2.4c1.3,0.4,2.3,0.1,3,0.3
							c0.7,0.2,2.9,1.1,5,0.8c1.7-0.3,3.1-1.3,3.6-1.5C37.4,27.5,38.9,27.5,40.3,26.6L40.3,26.6z"/>
						<path class="st13" d="M40,26.4c1.6-1,1.7-4.1,0.8-5.7c-1-1.9-2.3-2.2-3.4-2.7c-0.9-0.4-2.4-1-3.7-1.2
							c-1.5-0.2-3.6,0.1-5.1,0.5c-1.8,0.5-5,1.9-6,3c-1.2,1.2-0.8,4.2,0.1,5.4c0.6,0.7,1,1.9,2.5,2.4c1.3,0.4,2.3,0.1,3,0.2
							c0.7,0.2,2.7,1.2,4.9,0.8c1.7-0.3,3-1.3,3.5-1.6C37.1,27.2,38.6,27.4,40,26.4L40,26.4z"/>
						<path class="st14" d="M39.7,26.2c1.6-1,1.7-3.8,0.8-5.5c-1-1.9-2.3-2.2-3.4-2.7c-0.9-0.4-2.2-0.9-3.5-1.1
							c-1.4-0.2-3.5,0-5.1,0.5c-1.8,0.5-5,1.9-5.9,2.9c-1.1,1.1-0.9,4,0.1,5.2c0.6,0.7,0.9,1.8,2.4,2.3c1.2,0.4,2.2,0,2.9,0.2
							c0.7,0.2,2.6,1.2,4.7,0.9c1.7-0.3,2.9-1.3,3.4-1.6C36.8,27,38.2,27.1,39.7,26.2L39.7,26.2z"/>
						<path class="st15" d="M39.4,26.1c1.6-0.9,1.7-3.6,0.8-5.3c-1-2-2.3-2.1-3.3-2.6c-0.9-0.4-2-0.9-3.4-1.1c-1.3-0.2-3.4,0-5,0.5
							c-1.7,0.5-4.9,1.9-5.8,2.8c-1,1-0.9,3.8,0.1,5c0.6,0.7,0.8,1.8,2.3,2.2c1.2,0.4,2.2,0,2.8,0.1c0.7,0.2,2.4,1.3,4.6,0.9
							c1.7-0.3,2.8-1.4,3.3-1.6C36.5,26.7,37.9,26.9,39.4,26.1L39.4,26.1z"/>
						<path class="st16" d="M39,25.9c1.6-0.9,1.7-3.4,0.8-5.1c-1-2-2.2-2.1-3.3-2.5c-0.8-0.4-1.8-0.9-3.2-1.1s-3.4-0.1-4.9,0.4
							c-1.7,0.5-4.8,1.9-5.7,2.8c-0.9,1-1,3.6,0.1,4.9c0.5,0.6,0.7,1.7,2.3,2.2c1.2,0.4,2.2-0.1,2.8,0.1c0.7,0.2,2.3,1.4,4.5,1
							c1.7-0.3,2.8-1.4,3.2-1.7C36.2,26.4,37.6,26.7,39,25.9L39,25.9z"/>
						<path class="st17" d="M38.7,25.7c1.5-0.8,1.7-3.1,0.8-4.8c-0.9-2-2.2-2-3.2-2.5c-0.8-0.4-1.7-0.9-3-1.1s-3.3-0.1-4.8,0.4
							c-1.7,0.5-4.8,1.9-5.5,2.7c-0.9,0.9-1,3.4,0.1,4.7c0.5,0.6,0.6,1.7,2.2,2.1c1.2,0.3,2.1-0.1,2.7,0.1c0.6,0.2,2.2,1.4,4.3,1.1
							c1.7-0.3,2.7-1.5,3.1-1.7C35.9,26.2,37.2,26.5,38.7,25.7L38.7,25.7z"/>
						<path class="st18" d="M38.4,25.5c1.5-0.8,1.7-2.9,0.9-4.6c-0.9-2-2.2-2-3.2-2.4c-0.8-0.3-1.5-0.9-2.8-1.1
							c-1.3-0.3-3.3-0.1-4.7,0.3c-1.7,0.5-4.7,1.9-5.4,2.6c-0.8,0.8-1.1,3.2,0,4.5c0.5,0.5,0.5,1.6,2.1,2c1.2,0.3,2.1-0.2,2.6,0
							c0.6,0.2,2,1.5,4.2,1.1c1.7-0.3,2.6-1.5,3-1.7C35.6,25.9,37,26.3,38.4,25.5z"/>
						<path class="st19" d="M38,25.4c1.5-0.7,1.7-2.7,0.9-4.4c-0.9-2-2.1-1.9-3.1-2.3c-0.7-0.3-1.3-0.8-2.5-1.1
							c-1.2-0.3-3.2-0.2-4.7,0.3c-1.7,0.5-4.7,1.9-5.3,2.5c-0.7,0.7-1.1,3,0,4.3c0.4,0.5,0.4,1.6,2,1.9c1.2,0.3,2.1-0.2,2.5,0
							c0.6,0.2,1.9,1.5,4.1,1.2c1.7-0.3,2.5-1.5,2.9-1.7C35.3,25.7,36.7,26.1,38,25.4L38,25.4z"/>
						<path class="st20" d="M37.7,25.2c1.4-0.7,1.7-2.4,0.9-4.2c-0.9-2-2.1-1.8-3.1-2.3c-0.7-0.3-1.1-0.8-2.3-1.1
							c-1.1-0.3-3.1-0.2-4.6,0.3c-1.7,0.5-4.6,1.9-5.2,2.5c-0.6,0.6-1.2,2.7,0,4.2c0.4,0.5,0.3,1.5,1.9,1.9c1.1,0.3,2-0.2,2.5-0.1
							c0.6,0.3,1.7,1.6,3.9,1.2c1.7-0.3,2.4-1.6,2.7-1.8C35,25.4,36.3,25.8,37.7,25.2L37.7,25.2z"/>
						<path class="st21" d="M37.4,25c1.4-0.6,1.7-2.2,0.9-4c-0.9-2-2.1-1.8-3.1-2.2c-0.7-0.3-0.9-0.8-2.1-1.1
							c-1.1-0.3-3.1-0.2-4.5,0.2c-1.7,0.5-4.6,1.9-5,2.4c-0.6,0.5-1.2,2.5,0,4c0.4,0.4,0.2,1.4,1.8,1.8c1.1,0.2,2-0.3,2.4-0.1
							c0.6,0.3,1.6,1.6,3.8,1.3c1.7-0.3,2.3-1.6,2.6-1.8C34.7,25.2,36,25.6,37.4,25z"/>
					</g>
					<path class="st24" d="M35.5,18.4c0,0-0.2,0-0.2,0c-0.4-1.1-1.5-2-2.8-2c-0.4,0-0.8,0.1-1.1,0.2c-0.4-1.1-1.5-1.9-2.7-1.9
						s-2.2,0.8-2.7,1.8c-0.1,0-0.3,0-0.4,0c-1.3,0-2.4,1-2.5,2.3c-0.2,0-0.4-0.1-0.6-0.1c-1.6,0-2.8,1.3-2.8,2.8s1.3,2.8,2.8,2.8
						c0,0,0.1,0,0.1,0c0.3,1.1,1.3,2,2.5,2c1,0,1.8-0.5,2.2-1.3c0.6,1.1,1.8,1.8,3.1,1.8c1.5,0,2.7-0.9,3.3-2.1
						c0.5,0.3,1.1,0.5,1.7,0.5c1.9,0,3.4-1.5,3.4-3.4C39,19.9,37.4,18.4,35.5,18.4L35.5,18.4z"/>
					
						<linearGradient id="SVGID_00000116222086321207049760000009000377470442954884_" gradientUnits="userSpaceOnUse" x1="19.85" y1="27.333" x2="39.0379" y2="27.333" gradientTransform="matrix(1 0 0 -1 0 48.2384)">
						<stop  offset="0" style="stop-color:#076BBA"/>
						<stop  offset="1" style="stop-color:#0060AB"/>
					</linearGradient>
					<path style="fill:url(#SVGID_00000116222086321207049760000009000377470442954884_);" d="M35.6,18.5c0,0-0.2,0-0.2,0
						c-0.4-1.2-1.5-2-2.8-2c-0.4,0-0.8,0.1-1.1,0.2c-0.4-1.1-1.5-1.9-2.7-1.9c-1.2,0-2.2,0.7-2.7,1.8c-0.1,0-0.3,0-0.4,0
						c-1.3,0-2.4,1-2.5,2.3c-0.2,0-0.4-0.1-0.6-0.1c-1.6,0-2.8,1.3-2.8,2.8s1.3,2.8,2.8,2.8c0,0,0.1,0,0.1,0c0.3,1.1,1.3,2,2.5,2
						c1,0,1.8-0.5,2.2-1.3c0.6,1.1,1.8,1.8,3.1,1.8c1.5,0,2.7-0.9,3.3-2.1c0.5,0.3,1.1,0.5,1.7,0.5c1.9,0,3.4-1.5,3.4-3.4
						S37.5,18.5,35.6,18.5L35.6,18.5z"/>
				</g>
				<g>
					<g>
						<path class="st0" d="M41.8,22.4c2.4-2.5,2.2-7.7,0.9-9.5c-1.7-2.4-3.9-3.3-5.5-4.1c-1.6-0.8-3.9-1.6-6-1.9
							c-2.5-0.4-5.3,0.7-7.6,1.3c-2.5,0.7-10.2,3.3-12.5,5.8c-1.3,1.4-1.6,3.3-1.4,5c0.2,1.9,1.1,3.6,1.4,4.1c1.3,1.6,6.1,3.3,8,4.2
							c1.9,0.9,3.5,0.9,4.9,1c1.1,0.1,4.1,0,6.9-0.6c2-0.4,3.9-2,4.9-2.4C36.8,24.9,40,24.3,41.8,22.4L41.8,22.4z"/>
						<path class="st1" d="M41.4,22.3c2.4-2.4,2.3-7.5,0.9-9.3c-1.7-2.4-3.8-3.2-5.4-4c-1.6-0.8-3.8-1.5-5.8-1.8
							c-2.4-0.4-5.1,0.7-7.4,1.3c-2.5,0.7-10.2,3.3-12.5,5.7C10,15.5,9.7,17.3,9.9,19c0.3,1.9,1.1,3.5,1.5,3.9
							c1.3,1.5,5.8,3.2,7.8,4.1c1.9,0.9,3.5,0.8,4.8,0.9c1.1,0.1,3.9,0.1,6.8-0.5c2-0.4,3.9-2,4.8-2.4
							C36.6,24.6,39.6,24.1,41.4,22.3L41.4,22.3z"/>
						<path class="st2" d="M41.1,22.1c2.4-2.3,2.3-7.3,1-9.1c-1.7-2.3-3.7-3.2-5.3-3.9c-1.5-0.8-3.6-1.5-5.7-1.8
							c-2.4-0.4-5,0.6-7.3,1.2c-2.5,0.7-10.3,3.3-12.5,5.6c-1.3,1.4-1.6,3.2-1.4,4.8c0.3,1.8,1.2,3.4,1.7,3.8c1.3,1.4,5.6,3.1,7.6,4
							c1.8,0.8,3.4,0.7,4.7,0.8c1,0.1,3.8,0.2,6.7-0.4c2-0.4,3.8-2,4.7-2.4C36.3,24.4,39.3,23.9,41.1,22.1L41.1,22.1z"/>
						<path class="st3" d="M40.7,22c2.3-2.3,2.3-7.1,1-8.9c-1.6-2.3-3.6-3.1-5.2-3.8C35,8.5,33.1,7.8,31,7.5C28.7,7,26.2,8,23.9,8.6
							c-2.4,0.7-10.3,3.3-12.4,5.5c-1.3,1.3-1.6,3.1-1.3,4.8c0.3,1.8,1.3,3.3,1.8,3.7c1.3,1.3,5.4,3,7.4,3.9
							c1.8,0.8,3.4,0.7,4.6,0.8c1,0.1,3.7,0.3,6.6-0.3c2-0.4,3.8-2,4.6-2.5C36.1,24.1,38.9,23.7,40.7,22z"/>
						<path class="st4" d="M40.4,21.8c2.3-2.2,2.3-6.9,1-8.7c-1.6-2.3-3.5-3-5.1-3.7C34.9,8.7,33,8,31,7.6c-2.3-0.4-4.7,0.5-7,1.1
							c-2.4,0.7-10.3,3.3-12.4,5.4c-1.3,1.3-1.6,3.1-1.3,4.7c0.3,1.8,1.4,3.1,1.9,3.6c1.3,1.2,5.2,3,7.2,3.8
							c1.8,0.8,3.3,0.6,4.6,0.7c1,0.1,3.6,0.4,6.6-0.3c2-0.4,3.7-2,4.6-2.5C36,23.8,38.6,23.5,40.4,21.8L40.4,21.8z"/>
						<path class="st5" d="M40,21.7c2.3-2.1,2.3-6.7,1.1-8.5c-1.6-2.3-3.5-2.9-5-3.7c-1.4-0.7-3.2-1.4-5.2-1.8
							c-2.2-0.4-4.6,0.4-6.9,1.1c-2.4,0.7-10.3,3.3-12.3,5.2c-1.3,1.3-1.6,3-1.3,4.6c0.4,1.7,1.5,3,2,3.5c1.3,1.1,5,2.9,7,3.7
							c1.8,0.8,3.3,0.5,4.5,0.7c1,0.1,3.4,0.5,6.5-0.2c2-0.5,3.6-2.1,4.5-2.5C35.6,23.5,38.2,23.3,40,21.7L40,21.7z"/>
						<path class="st6" d="M39.6,21.5c2.2-2,2.3-6.5,1.1-8.2c-1.5-2.2-3.4-2.8-4.9-3.6c-1.4-0.7-3.1-1.4-5-1.8
							c-2.1-0.4-4.5,0.4-6.7,1c-2.4,0.7-10.4,3.3-12.3,5.1c-1.3,1.2-1.6,3-1.2,4.5c0.4,1.7,1.6,2.9,2.1,3.4c1.3,1,4.8,2.8,6.8,3.6
							c1.8,0.7,3.2,0.5,4.4,0.6c1,0.1,3.3,0.6,6.4-0.1c2-0.5,3.6-2.1,4.4-2.5C35.5,23.3,37.8,23.1,39.6,21.5L39.6,21.5z"/>
						<path class="st7" d="M39.3,21.4c2.2-1.9,2.3-6.3,1.1-8c-1.5-2.2-3.3-2.7-4.8-3.5c-1.4-0.7-2.9-1.3-4.9-1.8s-4.4,0.3-6.6,1
							c-2.3,0.7-10.4,3.2-12.3,5c-1.3,1.2-1.6,3-1.2,4.5c0.4,1.7,1.6,2.8,2.3,3.2c1.3,0.9,4.6,2.7,6.6,3.5c1.7,0.7,3.1,0.4,4.3,0.6
							c1,0.1,3.2,0.7,6.3,0c2-0.5,3.5-2.1,4.3-2.5C35.3,23,37.5,22.9,39.3,21.4L39.3,21.4z"/>
						<path class="st8" d="M38.9,21.2c2.2-1.8,2.3-6.1,1.1-7.8c-1.4-2.2-3.2-2.7-4.7-3.4c-1.3-0.6-2.8-1.3-4.7-1.7s-4.2,0.3-6.4,0.9
							c-2.3,0.7-10.4,3.2-12.2,4.9c-1.3,1.2-1.6,2.9-1.2,4.4c0.5,1.6,1.7,2.7,2.4,3.1c1.2,0.8,4.4,2.7,6.3,3.5
							c1.7,0.7,3.1,0.3,4.2,0.5c1,0.2,3.1,0.8,6.3,0.1c2-0.5,3.5-2.1,4.2-2.5C35,22.8,37.1,22.8,38.9,21.2L38.9,21.2z"/>
						<path class="st9" d="M38.6,21.1c2.2-1.8,2.3-5.9,1.2-7.6c-1.4-2.1-3.1-2.6-4.6-3.3c-1.3-0.6-2.6-1.3-4.6-1.7
							c-2-0.5-4.1,0.2-6.3,0.9c-2.3,0.7-10.4,3.2-12.2,4.8c-1.3,1.1-1.6,2.9-1.1,4.3c0.5,1.6,1.7,2.7,2.5,3c1,1,4.1,2.6,6.1,3.4
							c1.7,0.6,3,0.3,4.1,0.5c0.9,0.2,2.9,0.9,6.2,0.2c2-0.5,3.4-2.1,4.1-2.5C34.8,22.5,36.8,22.5,38.6,21.1L38.6,21.1z"/>
						<path class="st10" d="M38.2,20.9c2.1-1.7,2.3-5.7,1.2-7.4c-1.4-2.1-3.1-2.5-4.5-3.2c-1.3-0.6-2.4-1.2-4.4-1.7s-4,0.1-6.2,0.8
							c-2.3,0.7-10.5,3.2-12.1,4.6c-1.3,1.1-1.6,2.8-1.1,4.3c0.5,1.6,1.8,2.6,2.6,2.9c1,0.9,3.9,2.5,5.9,3.3c1.7,0.6,3,0.2,4,0.4
							c0.9,0.2,2.8,1,6.1,0.3c2.1-0.5,3.4-2.2,4-2.5C34.6,22.2,36.4,22.3,38.2,20.9z"/>
						<path class="st11" d="M37.8,20.8c2.1-1.6,2.3-5.5,1.2-7.2c-1.3-2.1-3-2.4-4.4-3.1c-1.2-0.6-2.3-1.2-4.3-1.7
							c-1.9-0.5-3.9,0.1-6,0.8c-2.3,0.7-10.5,3.2-12.1,4.5c-1.3,1.1-1.6,2.8-1.1,4.2c0.5,1.5,1.9,2.5,2.8,2.8c1,0.8,3.7,2.4,5.7,3.2
							c1.6,0.6,2.9,0.2,3.9,0.3c0.9,0.2,2.7,1.1,6,0.4c2.1-0.5,3.3-2.2,3.9-2.5C34.3,21.9,36.1,22.1,37.8,20.8L37.8,20.8z"/>
						<path class="st12" d="M37.5,20.6c2.1-1.5,2.3-5.3,1.3-7c-1.3-2-2.9-2.4-4.3-3c-1.2-0.6-2.2-1.2-4.2-1.7
							c-1.8-0.5-3.7,0-5.9,0.7c-2.2,0.7-10.6,3.2-12.1,4.4c-1.3,1-1.6,2.8-1,4.1c0.6,1.5,2,2.4,2.9,2.7c1,0.7,3.5,2.4,5.5,3
							c1.6,0.6,2.9,0.1,3.8,0.3c0.9,0.2,2.6,1.3,6,0.4c2.1-0.5,3.2-2.2,3.9-2.5C34.1,21.6,35.7,21.9,37.5,20.6L37.5,20.6z"/>
						<path class="st13" d="M37.1,20.5c2-1.4,2.3-5.1,1.3-6.8c-1.2-2-2.8-2.3-4.2-2.9c-1.1-0.5-2-1.1-4-1.7c-1.7-0.5-3.6,0-5.7,0.7
							c-2.2,0.7-10.6,3.2-12,4.3c-1.3,1-1.6,2.7-1,4c0.6,1.4,2,2.3,3,2.5c0.9,0.7,3.3,2.3,5.3,3c1.6,0.5,2.8,0,3.7,0.2
							c0.9,0.2,2.4,1.4,5.9,0.5c2.1-0.5,3.2-2.2,3.8-2.5C33.9,21.4,35.3,21.7,37.1,20.5L37.1,20.5z"/>
						<path class="st14" d="M36.8,20.3c2-1.3,2.3-4.9,1.3-6.6c-1.2-2-2.7-2.2-4.1-2.8c-1.1-0.5-1.9-1.1-3.9-1.6
							c-1.7-0.5-3.5-0.1-5.6,0.6c-2.2,0.7-10.6,3.2-12,4.1c-1.3,1-1.6,2.7-1,4c0.6,1.4,2.2,2,3.1,2.4s3.1,2.2,5.1,2.9
							c1.6,0.5,2.8,0,3.6,0.2c0.9,0.2,2.3,1.5,5.8,0.6c2.1-0.5,3.1-2.2,3.7-2.6C33.7,21.1,35,21.5,36.8,20.3L36.8,20.3z"/>
						<path class="st15" d="M36.4,20.2c2-1.2,2.3-4.7,1.3-6.3c-1.2-1.9-2.7-2.1-4-2.7C32.7,10.6,32,10,30,9.5
							C28.4,9,26.7,9.4,24.6,10c-2.2,0.7-10.7,3.1-11.9,4s-1.6,2.6-1,3.9c0.7,1.4,2.2,1.9,3.3,2.3c0.9,0.4,2.9,2.2,4.9,2.8
							c1.6,0.5,2.7-0.1,3.5,0.1c0.8,0.2,2.2,1.6,5.7,0.7c2.1-0.5,3.1-2.3,3.6-2.6C33.4,20.8,34.6,21.3,36.4,20.2L36.4,20.2z"/>
						<path class="st16" d="M36,20c1.9-1.2,2.4-4.5,1.4-6.1c-1.1-1.9-2.6-2-3.9-2.6c-1-0.5-1.6-1-3.6-1.6c-1.6-0.5-3.2-0.2-5.3,0.5
							c-2.2,0.7-10.7,3.1-11.9,3.9c-1.3,0.9-1.5,2.6-0.9,3.8c0.7,1.3,2.3,1.8,3.4,2.2c0.9,0.3,2.6,2.1,4.7,2.7
							c1.5,0.4,2.6-0.2,3.4,0.1c0.8,0.3,2.1,1.7,5.7,0.8c2.1-0.5,3-2.3,3.5-2.6C33.2,20.6,34.3,21.1,36,20z"/>
						<path class="st17" d="M35.7,19.9c1.9-1.1,2.4-4.3,1.4-5.9c-1.1-1.9-2.5-2-3.8-2.5c-1-0.5-1.4-1-3.4-1.6
							c-1.5-0.5-3.1-0.3-5.1,0.5C22.6,11,14,13.4,12.9,14.1c-1.3,0.9-1.5,2.6-0.9,3.8c0.7,1.3,2.4,1.7,3.5,2.1
							c0.9,0.3,2.4,2,4.4,2.6c1.5,0.4,2.6-0.2,3.3,0c0.8,0.3,1.9,1.8,5.6,0.9c2.1-0.5,2.9-2.3,3.4-2.6C33,20.3,33.9,20.9,35.7,19.9
							L35.7,19.9z"/>
						<path class="st18" d="M35.3,19.7c1.9-1,2.4-4.1,1.4-5.7c-1-1.8-2.4-1.9-3.7-2.5c-1-0.4-1.3-0.9-3.3-1.6c-1.4-0.5-3-0.3-5,0.4
							c-2.1,0.7-10.8,3-11.8,3.7c-1.3,0.8-1.5,2.5-0.9,3.7c0.8,1.3,2.4,1.6,3.6,2c0.8,0.2,2.2,1.9,4.2,2.5c1.5,0.4,2.5-0.3,3.2-0.1
							c0.8,0.3,1.8,1.9,5.5,0.9c2.1-0.5,2.9-2.3,3.3-2.6C32.7,20,33.6,20.7,35.3,19.7L35.3,19.7z"/>
						<path class="st19" d="M34.9,19.6c1.8-0.9,2.4-3.9,1.5-5.5c-1-1.8-2.3-1.8-3.6-2.4c-0.9-0.4-1.1-0.9-3.1-1.6
							c-1.4-0.5-2.8-0.4-4.9,0.4c-2.1,0.7-10.9,3-11.8,3.5c-1.4,0.8-1.5,2.5-0.8,3.6c0.8,1.2,2.5,1.6,3.7,1.8c0.8,0.2,2,1.9,4,2.4
							c1.5,0.4,2.5-0.3,3.1-0.1c0.8,0.3,1.7,2,5.4,1c2.1-0.6,2.8-2.4,3.3-2.6C32.5,19.8,33.2,20.5,34.9,19.6L34.9,19.6z"/>
						<path class="st20" d="M34.6,19.4c1.8-0.9,2.4-3.7,1.5-5.3c-1-1.8-2.2-1.7-3.5-2.3c-0.9-0.4-1-0.9-3-1.5
							c-1.3-0.5-2.7-0.4-4.7,0.3c-2.1,0.8-10.9,3-11.7,3.4c-1.4,0.7-1.5,2.4-0.8,3.6c0.8,1.2,2.6,1.5,3.9,1.7
							c0.7,0.1,1.8,1.8,3.8,2.3c1.4,0.3,2.4-0.4,3-0.2c0.8,0.3,1.6,2.1,5.3,1.1c2.1-0.6,2.8-2.4,3.2-2.6
							C32.3,19.5,32.8,20.3,34.6,19.4L34.6,19.4z"/>
						<path class="st21" d="M34.2,19.3c1.8-0.8,2.4-3.5,1.5-5.1c-0.9-1.7-2.1-1.7-3.4-2.2c-0.9-0.4-0.8-0.8-2.8-1.5
							C28.3,10,27,10,25,10.7C22.9,11.5,14,13.7,13.3,14c-1.4,0.6-1.5,2.4-0.8,3.5c0.8,1.2,2.6,1.4,4,1.6c0.7,0.1,1.6,1.7,3.6,2.2
							c1.4,0.3,2.3-0.5,2.9-0.2c0.7,0.3,1.4,2.2,5.3,1.2c2.1-0.6,2.7-2.4,3.1-2.6C32.1,19.2,32.5,20.1,34.2,19.3L34.2,19.3z"/>
					</g>
					<path class="st27" d="M32.7,11.5c-0.2,0-0.3,0-0.5,0c-0.6-1.7-2.2-2.9-4-2.9c-0.9,0-1.7,0.3-2.3,0.7c-0.5-1.3-1.7-2.2-3.1-2.2
						c-1.6,0-3,1.2-3.2,2.7c-0.5-0.3-1-0.5-1.6-0.5c-1.4,0-2.5,1-2.7,2.4c0,0,0,0,0,0c-2.2,0-3.9,1.8-3.9,4s1.8,4,3.9,4
						c0.7,0,1.3-0.2,1.9-0.5c0.2,1.4,1.4,2.4,2.8,2.4c1.1,0,2.1-0.7,2.5-1.6c0.9,1.3,2.3,2.1,4,2.1c2.1,0,4-1.4,4.6-3.3
						c0.5,0.3,1.1,0.4,1.7,0.4c2.1,0,3.8-1.7,3.8-3.8S34.9,11.5,32.7,11.5L32.7,11.5z"/>
					<path class="st28" d="M32.8,11.6c-0.2,0-0.3,0-0.5,0c-0.6-1.7-2.2-2.9-4-2.9c-0.9,0-1.7,0.3-2.3,0.7c-0.5-1.3-1.7-2.2-3.1-2.2
						c-1.6,0-3,1.2-3.2,2.7c-0.5-0.3-1-0.5-1.6-0.5c-1.4,0-2.5,1.1-2.7,2.4h0c-2.2,0-3.9,1.8-3.9,4s1.8,4,3.9,4
						c0.7,0,1.3-0.2,1.9-0.5c0.2,1.4,1.4,2.4,2.8,2.4c1.1,0,2.1-0.7,2.5-1.6c0.9,1.3,2.3,2.1,4,2.1c2.1,0,4-1.4,4.6-3.3
						c0.5,0.3,1.1,0.4,1.7,0.4c2.1,0,3.8-1.7,3.8-3.8S35,11.6,32.8,11.6L32.8,11.6z"/>
				</g>
				<g>
					<g>
						<path class="st0" d="M26.7,27.7c1.2-1.9,0.6-5.3-0.2-6.5c-1.1-1.6-2.6-2.3-3.7-2.8c-1-0.5-3.3-1.4-4.6-1.4
							c-1.9,0-2.8,0.7-4.3,1.1c-1.6,0.4-4.4,3-5.9,4.7c-1.8,2-1.3,4.9-0.9,5.5c0.9,1.1,1.9,2.1,3.2,2.7c1.2,0.6,2.3,0.6,3.2,0.6
							c0.7,0.1,1.5,0.4,3.3,0c1.3-0.3,1.9-0.4,2.6-0.6C20.8,30.5,25.2,29.9,26.7,27.7L26.7,27.7z"/>
						<path class="st1" d="M26.5,27.6c1.2-1.8,0.7-5.1-0.1-6.3c-1.1-1.6-2.6-2.2-3.7-2.7c-1-0.5-3.2-1.5-4.5-1.5
							c-1.8,0-2.8,0.7-4.3,1.1c-1.6,0.4-4.3,3-5.8,4.6c-1.7,1.9-1.4,4.8-0.9,5.4c0.8,1,1.8,2.1,3.1,2.7c1.2,0.6,2.3,0.5,3.2,0.6
							c0.7,0.1,1.5,0.4,3.3,0c1.3-0.3,1.9-0.4,2.6-0.6C20.7,30.3,25,29.8,26.5,27.6z"/>
						<path class="st2" d="M26.2,27.5c1.2-1.7,0.8-4.9-0.1-6.2c-1.1-1.6-2.6-2.2-3.6-2.7c-1-0.5-3.2-1.5-4.4-1.5
							c-1.8,0-2.8,0.6-4.3,1c-1.6,0.4-4.2,2.9-5.7,4.5c-1.6,1.8-1.4,4.6-0.9,5.2c0.8,1,1.8,2,3.1,2.6c1.3,0.5,2.3,0.4,3.1,0.5
							c0.7,0.1,1.5,0.4,3.3,0c1.3-0.3,1.9-0.4,2.6-0.6C20.6,30.1,24.7,29.6,26.2,27.5L26.2,27.5z"/>
						<path class="st3" d="M26,27.5c1.2-1.7,0.9-4.8,0-6c-1.1-1.6-2.6-2.2-3.6-2.7c-1-0.5-3.1-1.5-4.4-1.5c-1.7-0.1-2.8,0.6-4.2,1
							c-1.6,0.4-4.2,2.9-5.5,4.4c-1.6,1.7-1.5,4.5-0.9,5.1c0.8,1,1.7,2,3,2.5c1.3,0.5,2.2,0.4,3.1,0.5c0.7,0.1,1.5,0.4,3.3,0
							c1.3-0.3,2-0.4,2.6-0.6C20.6,29.9,24.5,29.4,26,27.5L26,27.5z"/>
						<path class="st4" d="M25.7,27.4c1.2-1.6,0.9-4.6,0.1-5.8c-1.1-1.6-2.6-2.1-3.6-2.6c-1-0.5-3-1.5-4.3-1.6
							c-1.7-0.1-2.8,0.5-4.2,0.9c-1.6,0.4-4.1,2.9-5.4,4.3c-1.5,1.7-1.5,4.3-0.9,5c0.8,0.9,1.6,1.9,3,2.4s2.2,0.3,3.1,0.4
							c0.7,0.1,1.5,0.4,3.3,0c1.3-0.3,2-0.4,2.6-0.6C20.5,29.7,24.3,29.3,25.7,27.4L25.7,27.4z"/>
						<path class="st5" d="M25.4,27.3c1.2-1.6,1-4.4,0.2-5.7c-1-1.6-2.6-2.1-3.6-2.6c-0.9-0.5-2.9-1.5-4.2-1.6
							c-1.6-0.1-2.8,0.5-4.2,0.9c-1.6,0.4-4,2.9-5.3,4.2c-1.5,1.6-1.5,4.2-1,4.9c0.7,0.9,1.6,1.9,2.9,2.4c1.3,0.5,2.2,0.3,3,0.4
							c0.7,0.1,1.5,0.4,3.3,0.1c1.3-0.3,2-0.4,2.6-0.6C20.4,29.4,24,29.1,25.4,27.3z"/>
						<path class="st6" d="M25.2,27.2c1.2-1.5,1.1-4.2,0.3-5.5c-1-1.6-2.6-2-3.6-2.5c-0.9-0.4-2.8-1.5-4.1-1.6
							c-1.6-0.1-2.7,0.4-4.2,0.8c-1.6,0.4-4,2.8-5.2,4.1c-1.4,1.5-1.6,4-1,4.8c0.7,0.9,1.5,1.8,2.9,2.3c1.3,0.5,2.2,0.2,3,0.3
							c0.6,0.1,1.5,0.4,3.3,0.1c1.3-0.3,2-0.4,2.6-0.6C20.4,29.2,23.8,28.9,25.2,27.2L25.2,27.2z"/>
						<path class="st7" d="M24.9,27.1c1.2-1.4,1.2-4,0.4-5.3c-1-1.6-2.6-2-3.5-2.5c-0.9-0.4-2.7-1.5-4-1.6c-1.5-0.1-2.7,0.4-4.1,0.8
							c-1.5,0.4-3.9,2.8-5,4c-1.3,1.4-1.6,3.9-1,4.7s1.5,1.8,2.8,2.2s2.2,0.1,2.9,0.2c0.6,0.1,1.5,0.4,3.3,0.1
							c1.3-0.3,2-0.5,2.6-0.5C20.3,29,23.5,28.8,24.9,27.1z"/>
						<path class="st8" d="M24.7,27c1.2-1.4,1.2-3.9,0.5-5.2c-1-1.6-2.5-2-3.5-2.4c-0.9-0.4-2.7-1.5-3.9-1.6
							c-1.5-0.1-2.7,0.4-4.1,0.8c-1.5,0.4-3.8,2.8-4.9,4c-1.3,1.4-1.7,3.8-1,4.6c0.7,0.8,1.4,1.7,2.8,2.1c1.3,0.4,2.2,0.1,2.9,0.2
							c0.6,0.1,1.5,0.4,3.3,0.1c1.4-0.3,2-0.5,2.6-0.5C20.2,28.8,23.3,28.6,24.7,27L24.7,27z"/>
						<path class="st9" d="M24.4,27c1.2-1.3,1.3-3.7,0.5-5c-1-1.6-2.5-1.9-3.5-2.4c-0.8-0.4-2.6-1.6-3.8-1.7
							c-1.4-0.1-2.7,0.3-4.1,0.7c-1.5,0.4-3.8,2.7-4.8,3.9c-1.2,1.3-1.7,3.6-1,4.5c0.6,0.8,1.4,1.7,2.7,2c1.3,0.4,2.1,0,2.8,0.1
							c0.6,0.1,1.5,0.4,3.3,0.1c1.4-0.3,2.1-0.5,2.6-0.5C20.1,28.5,23,28.4,24.4,27L24.4,27z"/>
						<path class="st10" d="M24.2,26.9c1.2-1.2,1.4-3.5,0.6-4.8c-0.9-1.6-2.5-1.9-3.5-2.3c-0.8-0.4-2.5-1.6-3.7-1.7
							c-1.4-0.1-2.7,0.3-4.1,0.7c-1.5,0.4-3.7,2.7-4.7,3.8c-1.2,1.2-1.8,3.5-1.1,4.3c0.6,0.7,1.3,1.6,2.7,2c1.3,0.3,2.1-0.1,2.8,0.1
							c0.6,0.1,1.4,0.4,3.3,0.1c1.4-0.3,2.1-0.5,2.5-0.5C20.1,28.3,22.8,28.3,24.2,26.9L24.2,26.9z"/>
						<path class="st11" d="M23.9,26.8c1.2-1.2,1.5-3.3,0.7-4.7c-0.9-1.6-2.5-1.9-3.5-2.3c-0.8-0.4-2.4-1.6-3.6-1.7
							c-1.3-0.2-2.7,0.2-4,0.6c-1.5,0.4-3.6,2.7-4.6,3.7c-1.1,1.2-1.8,3.3-1.1,4.2c0.6,0.7,1.3,1.6,2.6,1.9s2.1-0.1,2.7,0
							c0.6,0.1,1.4,0.4,3.3,0.1c1.4-0.3,2.1-0.5,2.5-0.5C20,28.1,22.5,28.1,23.9,26.8L23.9,26.8z"/>
						<path class="st12" d="M23.6,26.7c1.2-1.1,1.5-3.2,0.8-4.5c-0.9-1.6-2.5-1.8-3.4-2.3c-0.8-0.4-2.3-1.6-3.5-1.7
							c-1.3-0.2-2.7,0.2-4,0.6c-1.5,0.4-3.6,2.7-4.4,3.6c-1,1.1-1.9,3.2-1.1,4.1c0.5,0.7,1.2,1.5,2.5,1.8s2.1-0.2,2.7-0.1
							c0.6,0.1,1.4,0.4,3.3,0.1c1.4-0.2,2.1-0.5,2.5-0.5C19.9,27.9,22.3,27.9,23.6,26.7z"/>
						<path class="st13" d="M23.4,26.6c1.2-1,1.6-3,0.9-4.3c-0.9-1.6-2.5-1.8-3.4-2.2c-0.8-0.4-2.2-1.6-3.4-1.7
							c-1.3-0.2-2.7,0.2-4,0.5c-1.5,0.4-3.5,2.6-4.3,3.5c-1,1-1.9,3-1.1,4c0.5,0.6,1.1,1.5,2.5,1.7c1.4,0.3,2.1-0.2,2.7-0.1
							c0.6,0.1,1.4,0.4,3.3,0.1c1.4-0.2,2.1-0.5,2.5-0.5C19.9,27.6,22.1,27.8,23.4,26.6L23.4,26.6z"/>
						<path class="st14" d="M23.1,26.6c1.2-1,1.7-2.8,1-4.2c-0.9-1.6-2.5-1.8-3.4-2.2c-0.7-0.3-2.2-1.6-3.3-1.8
							c-1.2-0.2-2.7,0.1-4,0.5c-1.5,0.4-3.4,2.6-4.2,3.4c-0.9,0.9-2,2.9-1.1,3.9c0.5,0.6,1.1,1.4,2.4,1.7c1.4,0.2,2.1-0.3,2.6-0.2
							c0.6,0.2,1.4,0.4,3.2,0.1c1.4-0.2,2.2-0.5,2.5-0.5C19.7,27.4,21.8,27.7,23.1,26.6L23.1,26.6z"/>
						<path class="st15" d="M22.9,26.5c1.2-0.9,1.8-2.6,1.1-4c-0.8-1.6-2.5-1.7-3.4-2.1c-0.7-0.3-2.1-1.6-3.2-1.8
							c-1.1-0.2-2.6,0.1-3.9,0.4c-1.5,0.4-3.3,2.6-4.1,3.3c-0.8,0.9-2,2.8-1.2,3.8c0.5,0.6,1,1.4,2.4,1.6s2-0.4,2.5-0.2
							c0.6,0.2,1.4,0.4,3.2,0.1c1.4-0.2,2.2-0.5,2.5-0.5C19.7,27.2,21.6,27.5,22.9,26.5z"/>
						<path class="st16" d="M22.6,26.4c1.2-0.9,1.8-2.4,1.1-3.9c-0.8-1.6-2.5-1.7-3.4-2.1c-0.7-0.3-2-1.6-3.1-1.8s-2.6,0-3.9,0.4
							c-1.4,0.4-3.3,2.6-3.9,3.3c-0.8,0.8-2.1,2.6-1.2,3.7c0.4,0.5,1,1.3,2.3,1.5s2-0.4,2.5-0.3c0.6,0.2,1.4,0.4,3.2,0.1
							c1.4-0.2,2.2-0.6,2.5-0.5C19.6,26.9,21.4,27.3,22.6,26.4L22.6,26.4z"/>
						<path class="st17" d="M22.3,26.3c1.2-0.8,1.9-2.3,1.2-3.7c-0.8-1.6-2.5-1.6-3.3-2c-0.7-0.3-1.9-1.6-3-1.8s-2.6,0-3.9,0.4
							c-1.4,0.4-3.2,2.5-3.8,3.2c-0.7,0.7-2.1,2.5-1.2,3.6c0.4,0.5,0.9,1.3,2.3,1.4s2-0.5,2.5-0.3c0.5,0.2,1.4,0.4,3.2,0.1
							c1.4-0.2,2.2-0.6,2.5-0.5C19.6,26.8,21.1,27.2,22.3,26.3L22.3,26.3z"/>
						<path class="st18" d="M22.1,26.2c1.2-0.7,2-2.1,1.3-3.5c-0.8-1.6-2.5-1.6-3.3-2c-0.6-0.3-1.8-1.6-2.9-1.9s-2.6-0.1-3.9,0.3
							c-1.4,0.4-3.1,2.5-3.7,3.1c-0.7,0.7-2.1,2.3-1.2,3.5c0.4,0.5,0.9,1.2,2.2,1.3c1.4,0.1,2-0.5,2.4-0.4c0.5,0.2,1.4,0.4,3.2,0.1
							c1.4-0.2,2.2-0.6,2.5-0.5C19.5,26.5,20.9,27,22.1,26.2L22.1,26.2z"/>
						<path class="st19" d="M21.8,26.1c1.2-0.7,2-1.9,1.4-3.4c-0.8-1.7-2.4-1.6-3.3-1.9c-0.6-0.3-1.8-1.6-2.8-1.9
							c-1-0.2-2.6-0.1-3.8,0.3c-1.4,0.4-3.1,2.5-3.6,3c-0.6,0.6-2.2,2.2-1.2,3.3c0.4,0.4,0.8,1.2,2.2,1.2c1.4,0.1,2-0.6,2.4-0.4
							c0.5,0.2,1.4,0.4,3.2,0.1c1.4-0.2,2.2-0.6,2.5-0.5C19.4,26.3,20.7,26.8,21.8,26.1L21.8,26.1z"/>
						<path class="st20" d="M21.6,26.1c1.2-0.6,2.1-1.7,1.5-3.2c-0.7-1.7-2.4-1.5-3.3-1.9c-0.6-0.3-1.7-1.6-2.7-1.9
							c-0.9-0.2-2.6-0.2-3.8,0.2c-1.4,0.4-3,2.5-3.5,2.9c-0.5,0.5-2.2,2.1-1.2,3.2c0.3,0.4,0.8,1.1,2.1,1.2c1.4,0.1,2-0.6,2.3-0.5
							c0.5,0.2,1.4,0.4,3.2,0.1c1.5-0.2,2.3-0.6,2.5-0.5C19.3,26.1,20.4,26.7,21.6,26.1L21.6,26.1z"/>
						<path class="st21" d="M21.3,26c1.2-0.5,2.2-1.6,1.6-3c-0.7-1.7-2.4-1.5-3.3-1.9C19,20.8,18,19.5,17,19.2
							c-0.9-0.3-2.6-0.2-3.8,0.2c-1.4,0.4-2.9,2.4-3.3,2.8c-0.5,0.4-2.3,1.9-1.3,3.1c0.3,0.4,0.7,1.1,2.1,1.1c1.4,0,1.9-0.7,2.3-0.6
							c0.5,0.2,1.4,0.4,3.2,0.1c1.5-0.2,2.3-0.6,2.5-0.5C19.3,25.8,20.1,26.5,21.3,26L21.3,26z"/>
					</g>
					<path class="st29" d="M20.4,20.9c-0.3,0-0.6,0-0.9,0.1c-0.4-2-2.1-3.5-4.1-3.6c-2-0.1-3.8,1.2-4.4,3l0,0
						c-1.7-0.1-3.2,1.2-3.3,2.9s1.2,3.2,2.9,3.3c0.9,0.1,1.7-0.3,2.3-0.8c0.6,0.4,1.3,0.6,2,0.6c1.3,0.1,2.5-0.4,3.4-1.3
						c0.4,0.6,1.1,1,1.9,1c1.4,0.1,2.6-1,2.7-2.4C22.9,22.3,21.8,21,20.4,20.9L20.4,20.9z"/>
					<path class="st30" d="M20.6,21c-0.3,0-0.6,0-0.9,0.1c-0.4-2-2.1-3.5-4.1-3.6c-2-0.1-3.8,1.2-4.4,3l0,0
						c-1.7-0.1-3.2,1.2-3.3,2.9c-0.1,1.7,1.2,3.2,2.9,3.3c0.9,0.1,1.7-0.3,2.3-0.8c0.6,0.4,1.3,0.6,2,0.6c1.3,0.1,2.5-0.4,3.4-1.3
						c0.4,0.6,1.1,1,1.9,1c1.4,0.1,2.6-1,2.7-2.4C23.1,22.3,22,21.1,20.6,21L20.6,21z"/>
				</g>
				<g>
					<g>
						<g>
							<path class="st0" d="M19.6,37.9c-0.1-1.5,1.8-4.8,3.2-4.9c1.5-0.1,4.5,3.2,4.2,5.3c-0.3,2.6-3.5,3.2-5,2.6
								C20.3,40.5,19.6,38.8,19.6,37.9z"/>
							<path class="st31" d="M22.7,33.1c1.4-0.1,4.4,3.1,4.1,5.3c-0.3,2.6-3.4,3.1-4.9,2.6c-1.6-0.5-2.3-2.1-2.3-3
								C19.6,36.4,21.4,33.2,22.7,33.1L22.7,33.1z"/>
							<path class="st32" d="M22.7,33.1c1.4-0.1,4.3,3,4,5.2c-0.3,2.5-3.3,3-4.8,2.5c-1.6-0.5-2.2-2.1-2.2-2.9
								C19.6,36.4,21.4,33.2,22.7,33.1z"/>
							<path class="st33" d="M22.7,33.2c1.4-0.1,4.2,3,3.9,5.1c-0.3,2.5-3.2,2.9-4.7,2.5c-1.5-0.5-2.2-2.1-2.2-2.9
								C19.7,36.4,21.4,33.3,22.7,33.2z"/>
							<path class="st34" d="M22.7,33.2c1.3-0.1,4.1,2.9,3.8,5c-0.3,2.4-3.1,2.9-4.5,2.4c-1.5-0.5-2.1-2-2.2-2.8
								C19.7,36.4,21.4,33.3,22.7,33.2L22.7,33.2z"/>
							<path class="st35" d="M22.6,33.3c1.3-0.1,4,2.9,3.7,4.9c-0.3,2.3-3,2.8-4.4,2.4c-1.5-0.4-2.1-2-2.1-2.8
								C19.7,36.5,21.4,33.4,22.6,33.3L22.6,33.3z"/>
							<path class="st36" d="M22.6,33.4c1.3-0.1,3.9,2.8,3.6,4.8c-0.3,2.3-2.9,2.8-4.3,2.4c-1.5-0.4-2.1-1.9-2.1-2.7
								C19.8,36.5,21.4,33.5,22.6,33.4L22.6,33.4z"/>
							<path class="st37" d="M22.6,33.4c1.2-0.1,3.7,2.8,3.5,4.7c-0.3,2.2-2.8,2.7-4.2,2.3c-1.5-0.4-2-1.9-2-2.6
								C19.8,36.5,21.4,33.5,22.6,33.4L22.6,33.4z"/>
							<path class="st38" d="M22.5,33.5c1.2-0.1,3.6,2.7,3.4,4.6c-0.3,2.1-2.7,2.6-4,2.3c-1.4-0.4-2-1.8-2-2.6
								C19.8,36.5,21.4,33.6,22.5,33.5L22.5,33.5z"/>
							<path class="st39" d="M22.5,33.5c1.1-0.1,3.5,2.7,3.3,4.5c-0.2,2.1-2.6,2.6-3.9,2.2c-1.4-0.4-1.9-1.8-2-2.5
								C19.9,36.5,21.4,33.6,22.5,33.5z"/>
							<path class="st40" d="M22.5,33.6c1.1-0.1,3.4,2.6,3.2,4.4c-0.2,2-2.5,2.5-3.8,2.2c-1.4-0.4-1.9-1.8-1.9-2.5
								C20,36.5,21.4,33.7,22.5,33.6L22.5,33.6z"/>
							<path class="st41" d="M22.4,33.7c1.1-0.1,3.3,2.6,3.1,4.3c-0.2,1.9-2.4,2.4-3.7,2.1c-1.4-0.4-1.9-1.7-1.9-2.4
								C20,36.5,21.4,33.7,22.4,33.7L22.4,33.7z"/>
							<path class="st42" d="M22.4,33.7c1-0.1,3.2,2.5,3,4.2c-0.2,1.9-2.3,2.4-3.5,2.1c-1.3-0.3-1.8-1.7-1.8-2.3
								C20.1,36.5,21.5,33.8,22.4,33.7z"/>
							<path class="st43" d="M22.4,33.8c1-0.1,3.1,2.5,2.9,4.1c-0.2,1.8-2.2,2.3-3.4,2c-1.3-0.3-1.8-1.6-1.8-2.3
								C20.1,36.5,21.5,33.8,22.4,33.8z"/>
							<path class="st44" d="M22.4,33.8c1-0.1,3,2.4,2.8,4c-0.2,1.7-2.1,2.2-3.3,2c-1.3-0.3-1.7-1.6-1.8-2.2
								C20.1,36.5,21.5,33.9,22.4,33.8L22.4,33.8z"/>
							<path class="st45" d="M22.3,33.9c0.9-0.1,2.9,2.4,2.7,3.9c-0.2,1.7-2,2.2-3.2,1.9c-1.3-0.3-1.7-1.5-1.7-2.1
								C20.2,36.6,21.5,33.9,22.3,33.9z"/>
							<path class="st46" d="M22.3,33.9c0.9-0.1,2.8,2.3,2.6,3.8c-0.2,1.6-1.9,2.1-3,1.9c-1.2-0.3-1.7-1.5-1.7-2.1
								C20.2,36.6,21.5,34,22.3,33.9z"/>
							<path class="st47" d="M22.3,34c0.9-0.1,2.7,2.3,2.5,3.8c-0.2,1.6-1.8,2-2.9,1.8c-1.2-0.3-1.6-1.4-1.6-2
								C20.2,36.6,21.5,34,22.3,34L22.3,34z"/>
							<path class="st48" d="M22.3,34.1c0.8-0.1,2.6,2.2,2.4,3.7c-0.2,1.4-1.7,2-2.8,1.8c-1.2-0.2-1.6-1.4-1.6-2
								C20.3,36.6,21.5,34.1,22.3,34.1z"/>
							<path class="st49" d="M22.2,34.1c0.8,0,2.5,2.2,2.3,3.6c-0.1,1.4-1.6,1.9-2.6,1.7c-1.2-0.2-1.5-1.3-1.6-1.9
								C20.4,36.6,21.5,34.1,22.2,34.1L22.2,34.1z"/>
							<path class="st50" d="M22.2,34.2c0.7,0,2.4,2.1,2.2,3.5c-0.1,1.4-1.5,1.9-2.5,1.7c-1.2-0.2-1.5-1.3-1.5-1.8
								C20.4,36.6,21.5,34.2,22.2,34.2z"/>
							<path class="st51" d="M22.2,34.2c0.7,0,2.3,2.1,2.1,3.4c-0.1,1.3-1.4,1.8-2.4,1.6c-1.1-0.2-1.5-1.3-1.5-1.8
								C20.4,36.6,21.5,34.2,22.2,34.2L22.2,34.2z"/>
							<path class="st52" d="M22.1,34.3c0.7,0,2.1,2,2,3.3s-1.3,1.7-2.3,1.6c-1.1-0.2-1.4-1.2-1.4-1.7
								C20.5,36.6,21.5,34.3,22.1,34.3z"/>
							<path class="st53" d="M22.1,34.3c0.6,0,2,1.9,1.9,3.2c-0.1,1.2-1.2,1.7-2.1,1.6c-1.1-0.2-1.4-1.2-1.4-1.7
								C20.5,36.6,21.5,34.4,22.1,34.3z"/>
							<path class="st54" d="M22.1,34.4c0.6,0,1.9,1.9,1.8,3.1c-0.1,1.1-1.2,1.6-2,1.5c-1.1-0.1-1.4-1.1-1.4-1.6
								C20.6,36.6,21.5,34.4,22.1,34.4L22.1,34.4z"/>
							<path class="st55" d="M22.1,34.5c0.6,0,1.8,1.8,1.7,3c-0.1,1-1.1,1.5-1.9,1.4c-1-0.1-1.3-1.1-1.3-1.5
								C20.6,36.7,21.5,34.5,22.1,34.5z"/>
							<path class="st56" d="M22,34.5c0.5,0,1.7,1.8,1.6,2.9c-0.1,1-1,1.5-1.7,1.4c-1-0.1-1.3-1-1.3-1.5
								C20.6,36.6,21.5,34.5,22,34.5L22,34.5z"/>
							<path class="st57" d="M22,34.6c0.5,0,1.6,1.7,1.5,2.8c-0.1,0.9-0.9,1.4-1.6,1.3c-1-0.1-1.2-1-1.2-1.4
								C20.7,36.7,21.5,34.6,22,34.6z"/>
							<path class="st58" d="M22,34.6c0.4,0,1.5,1.7,1.4,2.7c-0.1,0.8-0.8,1.3-1.5,1.3c-1-0.1-1.2-0.9-1.2-1.3
								C20.7,36.7,21.5,34.6,22,34.6z"/>
							<path class="st59" d="M21.9,34.7c0.4,0,1.4,1.6,1.3,2.6c-0.1,0.8-0.7,1.3-1.4,1.3c-0.9,0-1.2-0.9-1.2-1.3
								C20.7,36.7,21.5,34.7,21.9,34.7z"/>
							<path class="st60" d="M21.9,34.7c0.4,0,1.3,1.6,1.2,2.5c-0.1,0.7-0.6,1.2-1.2,1.2c-0.9,0-1.1-0.9-1.1-1.2
								C20.8,36.7,21.6,34.7,21.9,34.7z"/>
							<path class="st61" d="M21.9,34.8c0.3,0,1.2,1.5,1.1,2.4c-0.1,0.6-0.5,1.2-1.1,1.2c-0.9,0-1.1-0.8-1.1-1.1
								C20.8,36.7,21.6,34.8,21.9,34.8z"/>
						</g>
						<path class="st62" d="M23,36.8c0,1-0.8,1.8-1.8,1.8s-1.9-0.8-1.9-1.8c0-1.7,1.9-4,1.9-4l0.1-0.1c0,0,0,0.1,0,0.1
							C21.7,33.4,23,35.5,23,36.8L23,36.8z"/>
						<path class="st63" d="M23.2,36.9c0,1-0.8,1.8-1.8,1.8s-1.8-0.8-1.8-1.8c0-1.5,1.8-4.1,1.8-4.1S23.2,35.4,23.2,36.9z"/>
					</g>
					<g>
						<g>
							<path class="st0" d="M15.4,32.4c-0.1-1.1,1.3-3.6,2.3-3.6c1.1-0.1,3.3,2.3,3.1,4c-0.2,2-2.6,2.3-3.7,2
								C16,34.3,15.5,33,15.4,32.4L15.4,32.4z"/>
							<path class="st31" d="M17.8,28.8c1.1-0.1,3.2,2.3,3.1,3.9c-0.2,1.9-2.5,2.3-3.6,1.9c-1.2-0.4-1.7-1.6-1.7-2.2
								C15.4,31.3,16.8,28.9,17.8,28.8z"/>
							<path class="st32" d="M17.7,28.9c1-0.1,3.2,2.2,3,3.8c-0.2,1.9-2.4,2.2-3.5,1.9c-1.2-0.4-1.6-1.6-1.7-2.2
								C15.5,31.3,16.8,28.9,17.7,28.9L17.7,28.9z"/>
							<path class="st33" d="M17.7,28.9c1-0.1,3.1,2.2,2.9,3.7c-0.2,1.8-2.4,2.2-3.5,1.9c-1.1-0.4-1.6-1.5-1.6-2.1
								C15.5,31.3,16.7,29,17.7,28.9L17.7,28.9z"/>
							<path class="st34" d="M17.7,28.9c1-0.1,3,2.2,2.8,3.7c-0.2,1.8-2.3,2.1-3.4,1.8c-1.1-0.3-1.6-1.5-1.6-2.1
								C15.5,31.3,16.8,29,17.7,28.9z"/>
							<path class="st35" d="M17.7,29c1-0.1,2.9,2.1,2.8,3.6c-0.2,1.7-2.2,2.1-3.3,1.8c-1.1-0.3-1.6-1.4-1.6-2
								C15.5,31.3,16.8,29,17.7,29L17.7,29z"/>
							<path class="st36" d="M17.7,29c0.9-0.1,2.9,2.1,2.7,3.5c-0.2,1.7-2.1,2-3.2,1.7c-1.1-0.3-1.5-1.4-1.5-2
								C15.6,31.3,16.8,29.1,17.7,29z"/>
							<path class="st37" d="M17.6,29.1c0.9-0.1,2.8,2.1,2.6,3.5c-0.2,1.6-2.1,2-3.1,1.7c-1.1-0.3-1.5-1.4-1.5-2
								C15.6,31.3,16.8,29.1,17.6,29.1L17.6,29.1z"/>
							<path class="st38" d="M17.6,29.1c0.9-0.1,2.7,2,2.5,3.4c-0.2,1.6-2,1.9-3,1.7c-1.1-0.3-1.5-1.4-1.5-1.9
								C15.6,31.3,16.8,29.2,17.6,29.1L17.6,29.1z"/>
							<path class="st39" d="M17.6,29.1c0.8-0.1,2.6,2,2.5,3.3c-0.2,1.5-1.9,1.9-2.9,1.6c-1-0.3-1.4-1.3-1.5-1.9
								C15.7,31.3,16.8,29.2,17.6,29.1z"/>
							<path class="st40" d="M17.6,29.2c0.8-0.1,2.5,1.9,2.4,3.3c-0.2,1.5-1.9,1.9-2.8,1.6c-1-0.3-1.4-1.3-1.4-1.8
								C15.7,31.3,16.8,29.2,17.6,29.2L17.6,29.2z"/>
							<path class="st41" d="M17.5,29.2c0.8-0.1,2.4,1.9,2.3,3.2c-0.2,1.4-1.8,1.8-2.7,1.6c-1-0.3-1.4-1.3-1.4-1.8
								C15.7,31.3,16.8,29.3,17.5,29.2z"/>
							<path class="st42" d="M17.5,29.3c0.8-0.1,2.4,1.9,2.2,3.1c-0.2,1.4-1.7,1.8-2.6,1.5c-1-0.3-1.3-1.2-1.4-1.7
								C15.7,31.4,16.8,29.3,17.5,29.3z"/>
							<path class="st43" d="M17.5,29.3c0.7-0.1,2.3,1.8,2.2,3c-0.2,1.3-1.6,1.7-2.5,1.5c-1-0.2-1.3-1.2-1.3-1.7
								C15.8,31.4,16.8,29.4,17.5,29.3L17.5,29.3z"/>
							<path class="st44" d="M17.5,29.4c0.7-0.1,2.2,1.8,2.1,3c-0.1,1.3-1.6,1.7-2.4,1.5c-1-0.2-1.3-1.2-1.3-1.6
								C15.8,31.4,16.8,29.4,17.5,29.4L17.5,29.4z"/>
							<path class="st45" d="M17.5,29.4c0.7,0,2.1,1.8,2,2.9c-0.1,1.2-1.5,1.6-2.3,1.4c-0.9-0.2-1.3-1.1-1.3-1.6
								C15.9,31.4,16.8,29.4,17.5,29.4z"/>
							<path class="st46" d="M17.4,29.4c0.7,0,2.1,1.7,1.9,2.8c-0.1,1.2-1.4,1.6-2.2,1.4c-0.9-0.2-1.2-1.1-1.2-1.5
								C15.9,31.4,16.8,29.5,17.4,29.4L17.4,29.4z"/>
							<path class="st47" d="M17.4,29.5c0.6,0,2,1.7,1.9,2.8c-0.1,1.1-1.4,1.5-2.1,1.3c-0.9-0.2-1.2-1.1-1.2-1.5
								C15.9,31.4,16.8,29.5,17.4,29.5L17.4,29.5z"/>
							<path class="st48" d="M17.4,29.5c0.6,0,1.9,1.6,1.8,2.7c-0.1,1.1-1.3,1.5-2,1.3c-0.9-0.2-1.2-1-1.2-1.4
								C15.9,31.4,16.8,29.5,17.4,29.5L17.4,29.5z"/>
							<path class="st49" d="M17.4,29.6c0.6,0,1.8,1.6,1.7,2.6c-0.1,1-1.2,1.4-1.9,1.3c-0.9-0.2-1.1-1-1.2-1.4
								C16,31.4,16.8,29.6,17.4,29.6z"/>
							<path class="st50" d="M17.4,29.6c0.5,0,1.7,1.6,1.6,2.6c-0.1,1-1.1,1.4-1.9,1.2c-0.9-0.2-1.1-1-1.1-1.3
								C16,31.4,16.8,29.6,17.4,29.6z"/>
							<path class="st51" d="M17.3,29.7c0.5,0,1.7,1.5,1.6,2.5c-0.1,1-1.1,1.3-1.8,1.2c-0.8-0.1-1.1-0.9-1.1-1.3
								C16.1,31.4,16.8,29.7,17.3,29.7L17.3,29.7z"/>
							<path class="st52" d="M17.3,29.7c0.5,0,1.6,1.5,1.5,2.4s-1,1.3-1.7,1.2c-0.8-0.1-1.1-0.9-1.1-1.3
								C16.1,31.4,16.8,29.7,17.3,29.7L17.3,29.7z"/>
							<path class="st53" d="M17.3,29.7c0.5,0,1.5,1.4,1.4,2.4c-0.1,0.9-0.9,1.2-1.6,1.1c-0.8-0.1-1-0.9-1-1.2
								C16.1,31.4,16.8,29.8,17.3,29.7L17.3,29.7z"/>
							<path class="st54" d="M17.3,29.8c0.4,0,1.4,1.4,1.3,2.3c-0.1,0.8-0.9,1.2-1.5,1.1c-0.8-0.1-1-0.8-1-1.2
								C16.1,31.4,16.8,29.8,17.3,29.8L17.3,29.8z"/>
							<path class="st55" d="M17.3,29.8c0.4,0,1.4,1.4,1.3,2.2c-0.1,0.8-0.8,1.1-1.4,1.1c-0.8-0.1-1-0.8-1-1.1
								C16.2,31.4,16.8,29.8,17.3,29.8L17.3,29.8z"/>
							<path class="st56" d="M17.2,29.9c0.4,0,1.3,1.3,1.2,2.1c-0.1,0.7-0.7,1.1-1.3,1c-0.8-0.1-0.9-0.8-0.9-1.1
								C16.2,31.4,16.9,29.9,17.2,29.9L17.2,29.9z"/>
							<path class="st57" d="M17.2,29.9c0.4,0,1.2,1.3,1.1,2.1c-0.1,0.7-0.6,1-1.2,1c-0.7-0.1-0.9-0.7-0.9-1
								C16.2,31.4,16.8,29.9,17.2,29.9L17.2,29.9z"/>
							<path class="st58" d="M17.2,29.9c0.3,0,1.1,1.2,1.1,2c-0.1,0.6-0.6,1-1.1,1c-0.7-0.1-0.9-0.7-0.9-1
								C16.2,31.4,16.9,30,17.2,29.9z"/>
							<path class="st59" d="M17.2,30c0.3,0,1,1.2,1,1.9c-0.1,0.6-0.5,0.9-1,0.9c-0.7,0-0.9-0.7-0.9-0.9C16.3,31.5,16.9,30,17.2,30z
								"/>
							<path class="st60" d="M17.1,30c0.3,0,1,1.2,0.9,1.9c-0.1,0.5-0.4,0.9-0.9,0.9c-0.7,0-0.8-0.6-0.8-0.9
								C16.3,31.5,16.9,30,17.1,30z"/>
							<path class="st61" d="M17.1,30.1c0.3,0,0.9,1.1,0.8,1.8c0,0.5-0.4,0.9-0.8,0.9c-0.7,0-0.8-0.6-0.8-0.8
								C16.3,31.5,16.9,30.1,17.1,30.1L17.1,30.1z"/>
						</g>
						<path class="st62" d="M18,31.6c0,0.7-0.6,1.3-1.3,1.3s-1.4-0.6-1.4-1.3c0-1.3,1.4-3,1.4-3l0.1-0.1c0,0,0,0.1,0,0.1
							C17,29.1,18,30.6,18,31.6L18,31.6z"/>
						<path class="st63" d="M18.1,31.6c0,0.7-0.6,1.3-1.3,1.3c-0.7,0-1.3-0.6-1.3-1.3c0-1.1,1.3-3.1,1.3-3.1S18.1,30.5,18.1,31.6z"
							/>
					</g>
					<g>
						<g>
							<path class="st0" d="M5.5,30.5c0-0.9,1.1-2.8,1.9-2.9c0.9-0.1,2.7,1.9,2.5,3.2c-0.2,1.6-2.1,1.9-3,1.6C6,32,5.6,31,5.5,30.5
								L5.5,30.5z"/>
							<path class="st31" d="M7.4,27.6c0.9-0.1,2.6,1.8,2.4,3.1c-0.2,1.5-2,1.8-2.9,1.5C6,32,5.6,31,5.6,30.5
								C5.5,29.6,6.6,27.7,7.4,27.6L7.4,27.6z"/>
							<path class="st32" d="M7.4,27.7c0.8-0.1,2.5,1.8,2.4,3c-0.2,1.5-1.9,1.8-2.8,1.5C6,32,5.6,31,5.6,30.5
								C5.6,29.6,6.6,27.8,7.4,27.7L7.4,27.7z"/>
							<path class="st33" d="M7.4,27.7c0.8-0.1,2.5,1.8,2.3,3c-0.2,1.4-1.9,1.7-2.8,1.5C6,31.9,5.6,31,5.6,30.5
								C5.6,29.6,6.6,27.8,7.4,27.7L7.4,27.7z"/>
							<path class="st34" d="M7.3,27.8c0.8-0.1,2.4,1.7,2.3,2.9c-0.2,1.4-1.8,1.7-2.7,1.4C6,31.9,5.7,31,5.6,30.5
								C5.6,29.6,6.6,27.8,7.3,27.8z"/>
							<path class="st35" d="M7.3,27.8c0.8-0.1,2.3,1.7,2.2,2.9c-0.2,1.4-1.8,1.7-2.6,1.4c-0.9-0.3-1.2-1.2-1.3-1.6
								C5.6,29.6,6.6,27.8,7.3,27.8z"/>
							<path class="st36" d="M7.3,27.8c0.7-0.1,2.3,1.7,2.1,2.8C9.3,32,7.7,32.3,6.9,32c-0.9-0.3-1.2-1.1-1.2-1.6
								C5.6,29.6,6.6,27.9,7.3,27.8z"/>
							<path class="st37" d="M7.3,27.9c0.7-0.1,2.2,1.6,2.1,2.8c-0.2,1.3-1.7,1.6-2.4,1.4c-0.9-0.3-1.2-1.1-1.2-1.6
								C5.7,29.7,6.6,27.9,7.3,27.9z"/>
							<path class="st38" d="M7.3,27.9c0.7-0.1,2.1,1.6,2,2.7c-0.2,1.3-1.6,1.6-2.4,1.3c-0.8-0.2-1.2-1.1-1.2-1.5
								C5.7,29.7,6.6,27.9,7.3,27.9z"/>
							<path class="st39" d="M7.3,27.9c0.7-0.1,2.1,1.6,2,2.7c-0.1,1.2-1.5,1.5-2.3,1.3c-0.8-0.2-1.1-1.1-1.2-1.5
								C5.7,29.7,6.6,28,7.3,27.9L7.3,27.9z"/>
							<path class="st40" d="M7.2,28c0.7,0,2,1.6,1.9,2.6C9,31.7,7.6,32,6.9,31.8c-0.8-0.2-1.1-1-1.1-1.4C5.7,29.7,6.6,28,7.2,28
								L7.2,28z"/>
							<path class="st41" d="M7.2,28c0.6,0,2,1.5,1.8,2.5c-0.1,1.1-1.4,1.4-2.1,1.2c-0.8-0.2-1.1-1-1.1-1.4C5.8,29.7,6.6,28,7.2,28
								L7.2,28z"/>
							<path class="st42" d="M7.2,28c0.6,0,1.9,1.5,1.8,2.5c-0.1,1.1-1.4,1.4-2.1,1.2c-0.8-0.2-1.1-1-1.1-1.4
								C5.8,29.7,6.6,28.1,7.2,28z"/>
							<path class="st43" d="M7.2,28.1c0.6,0,1.8,1.4,1.7,2.4c-0.1,1.1-1.3,1.4-2,1.2c-0.8-0.2-1.1-0.9-1.1-1.3
								C5.8,29.7,6.6,28.1,7.2,28.1L7.2,28.1z"/>
							<path class="st44" d="M7.2,28.1c0.6,0,1.8,1.4,1.7,2.4c-0.1,1-1.3,1.3-1.9,1.2c-0.8-0.2-1-0.9-1-1.3
								C5.8,29.7,6.6,28.1,7.2,28.1z"/>
							<path class="st45" d="M7.2,28.1c0.5,0,1.7,1.4,1.6,2.3c-0.1,1-1.2,1.3-1.9,1.1c-0.8-0.2-1-0.9-1-1.3
								C5.9,29.7,6.6,28.2,7.2,28.1z"/>
							<path class="st46" d="M7.1,28.2c0.5,0,1.6,1.4,1.5,2.3c-0.1,0.9-1.1,1.2-1.8,1.1c-0.7-0.2-1-0.9-1-1.2
								C5.9,29.7,6.6,28.2,7.1,28.2z"/>
							<path class="st47" d="M7.1,28.2c0.5,0,1.6,1.3,1.5,2.2c-0.1,0.9-1.1,1.2-1.7,1.1c-0.7-0.2-1-0.8-1-1.2
								C5.9,29.7,6.6,28.2,7.1,28.2L7.1,28.2z"/>
							<path class="st48" d="M7.1,28.2c0.5,0,1.5,1.3,1.4,2.2c-0.1,0.9-1,1.2-1.6,1C6.2,31.3,6,30.6,6,30.3
								C6,29.7,6.6,28.3,7.1,28.2z"/>
							<path class="st49" d="M7.1,28.3c0.5,0,1.5,1.3,1.4,2.1s-1,1.1-1.6,1C6.2,31.3,6,30.6,6,30.3C6,29.7,6.6,28.3,7.1,28.3
								L7.1,28.3z"/>
							<path class="st50" d="M7.1,28.3c0.4,0,1.4,1.2,1.3,2c-0.1,0.8-0.9,1.1-1.5,1C6.2,31.2,6,30.6,6,30.2
								C6,29.7,6.6,28.3,7.1,28.3z"/>
							<path class="st51" d="M7.1,28.3c0.4,0,1.3,1.2,1.3,2c-0.1,0.8-0.9,1.1-1.4,1c-0.7-0.1-0.9-0.7-0.9-1
								C6,29.7,6.7,28.3,7.1,28.3L7.1,28.3z"/>
							<path class="st52" d="M7,28.4c0.4,0,1.3,1.2,1.2,1.9c-0.1,0.8-0.8,1-1.3,0.9c-0.7-0.1-0.8-0.7-0.9-1C6,29.7,6.7,28.4,7,28.4z
								"/>
							<path class="st53" d="M7,28.4c0.4,0,1.2,1.1,1.1,1.9c-0.1,0.7-0.7,1-1.3,0.9c-0.6-0.1-0.8-0.7-0.8-1
								C6.1,29.7,6.7,28.4,7,28.4L7,28.4z"/>
							<path class="st54" d="M7,28.4c0.4,0,1.1,1.1,1.1,1.8c-0.1,0.6-0.7,0.9-1.2,0.9c-0.6-0.1-0.8-0.7-0.8-0.9
								C6.1,29.7,6.7,28.4,7,28.4z"/>
							<path class="st55" d="M7,28.5c0.3,0,1.1,1.1,1,1.8c-0.1,0.6-0.6,0.9-1.1,0.9c-0.6-0.1-0.8-0.6-0.8-0.9
								C6.1,29.8,6.7,28.5,7,28.5L7,28.5z"/>
							<path class="st56" d="M7,28.5c0.3,0,1,1.1,1,1.7c-0.1,0.6-0.6,0.9-1,0.8c-0.6-0.1-0.8-0.6-0.8-0.9C6.1,29.8,6.7,28.5,7,28.5z
								"/>
							<path class="st57" d="M7,28.5c0.3,0,1,1,0.9,1.7c-0.1,0.5-0.5,0.8-1,0.8c-0.6-0.1-0.7-0.6-0.7-0.8C6.2,29.7,6.7,28.5,7,28.5
								L7,28.5z"/>
							<path class="st58" d="M6.9,28.6c0.3,0,0.9,1,0.8,1.6c-0.1,0.5-0.5,0.8-0.9,0.8c-0.6,0-0.7-0.6-0.7-0.8
								C6.2,29.8,6.7,28.6,6.9,28.6z"/>
							<path class="st59" d="M6.9,28.6c0.2,0,0.8,1,0.8,1.6c0,0.5-0.4,0.8-0.8,0.7c-0.6,0-0.7-0.5-0.7-0.7
								C6.2,29.8,6.7,28.6,6.9,28.6L6.9,28.6z"/>
							<path class="st60" d="M6.9,28.6c0.2,0,0.8,0.9,0.7,1.5c0,0.4-0.3,0.7-0.7,0.7c-0.5,0-0.7-0.5-0.7-0.7
								C6.2,29.8,6.7,28.6,6.9,28.6z"/>
							<path class="st61" d="M6.9,28.7c0.2,0,0.7,0.9,0.7,1.4c0,0.4-0.3,0.7-0.7,0.7c-0.5,0-0.6-0.5-0.6-0.7
								C6.2,29.8,6.7,28.7,6.9,28.7z"/>
						</g>
						<path class="st62" d="M7.6,29.9c0,0.6-0.5,1.1-1.1,1.1s-1.1-0.5-1.1-1.1c0-1,1.1-2.4,1.1-2.4l0.1,0c0,0,0,0.1,0,0.1
							C6.8,27.9,7.5,29.1,7.6,29.9L7.6,29.9z"/>
						<path class="st63" d="M7.7,29.9c0,0.6-0.5,1.1-1.1,1.1s-1.1-0.5-1.1-1.1c0-0.9,1.1-2.4,1.1-2.4S7.7,29,7.7,29.9z"/>
					</g>
					<g>
						<g>
							<path class="st0" d="M34.9,26.3c0-0.8,1-2.7,1.7-2.7c0.8-0.1,2.5,1.7,2.3,2.9c-0.2,1.5-1.9,1.7-2.8,1.5
								C35.3,27.7,34.9,26.8,34.9,26.3z"/>
							<path class="st31" d="M36.6,23.6c0.8-0.1,2.4,1.7,2.3,2.9c-0.2,1.4-1.9,1.7-2.7,1.4c-0.9-0.3-1.2-1.2-1.3-1.7
								C34.9,25.4,35.9,23.6,36.6,23.6L36.6,23.6z"/>
							<path class="st32" d="M36.6,23.6c0.8-0.1,2.4,1.7,2.2,2.8c-0.2,1.4-1.8,1.7-2.7,1.4c-0.9-0.3-1.2-1.2-1.2-1.6
								C34.9,25.4,35.9,23.7,36.6,23.6L36.6,23.6z"/>
							<path class="st33" d="M36.6,23.7c0.8-0.1,2.3,1.7,2.2,2.8c-0.2,1.4-1.8,1.6-2.6,1.4c-0.9-0.3-1.2-1.1-1.2-1.6
								C34.9,25.4,35.9,23.7,36.6,23.7L36.6,23.7z"/>
							<path class="st34" d="M36.6,23.7c0.7-0.1,2.2,1.6,2.1,2.7c-0.2,1.3-1.7,1.6-2.5,1.3c-0.8-0.3-1.2-1.1-1.2-1.6
								C35,25.4,35.9,23.7,36.6,23.7L36.6,23.7z"/>
							<path class="st35" d="M36.6,23.7c0.7-0.1,2.2,1.6,2.1,2.7c-0.2,1.3-1.7,1.6-2.4,1.3c-0.8-0.3-1.2-1.1-1.2-1.5
								C35,25.5,35.9,23.8,36.6,23.7z"/>
							<path class="st36" d="M36.6,23.8c0.7-0.1,2.1,1.6,2,2.6c-0.2,1.2-1.6,1.5-2.4,1.3c-0.8-0.2-1.1-1.1-1.2-1.5
								C35,25.5,35.9,23.8,36.6,23.8L36.6,23.8z"/>
							<path class="st37" d="M36.6,23.8c0.7-0.1,2.1,1.5,1.9,2.6c-0.1,1.2-1.6,1.5-2.3,1.3c-0.8-0.2-1.1-1-1.1-1.5
								C35,25.5,35.9,23.8,36.6,23.8L36.6,23.8z"/>
							<path class="st38" d="M36.5,23.8c0.7-0.1,2,1.5,1.9,2.5c-0.1,1.2-1.5,1.4-2.2,1.2c-0.8-0.2-1.1-1-1.1-1.4
								C35.1,25.5,35.9,23.9,36.5,23.8L36.5,23.8z"/>
							<path class="st39" d="M36.5,23.8c0.6,0,1.9,1.5,1.8,2.5c-0.1,1.1-1.4,1.4-2.2,1.2c-0.8-0.2-1.1-1-1.1-1.4
								C35.1,25.5,35.9,23.9,36.5,23.8L36.5,23.8z"/>
							<path class="st40" d="M36.5,23.9c0.6,0,1.9,1.4,1.8,2.4c-0.1,1.1-1.4,1.4-2.1,1.2c-0.8-0.2-1.1-1-1.1-1.3
								C35.1,25.5,35.9,23.9,36.5,23.9L36.5,23.9z"/>
							<path class="st41" d="M36.5,23.9c0.6,0,1.8,1.4,1.7,2.4c-0.1,1.1-1.3,1.3-2,1.2c-0.8-0.2-1-0.9-1-1.3
								C35.1,25.5,36,23.9,36.5,23.9L36.5,23.9z"/>
							<path class="st42" d="M36.5,23.9c0.6,0,1.8,1.4,1.7,2.3c-0.1,1-1.3,1.3-1.9,1.1c-0.7-0.2-1-0.9-1-1.3
								C35.2,25.5,35.9,24,36.5,23.9z"/>
							<path class="st43" d="M36.5,24c0.6,0,1.7,1.4,1.6,2.3c-0.1,1-1.2,1.3-1.9,1.1c-0.7-0.2-1-0.9-1-1.2
								C35.2,25.5,35.9,24,36.5,24L36.5,24z"/>
							<path class="st44" d="M36.4,24c0.5,0,1.7,1.3,1.6,2.2c-0.1,1-1.2,1.2-1.8,1.1c-0.7-0.2-1-0.9-1-1.2
								C35.2,25.5,35.9,24,36.4,24z"/>
							<path class="st45" d="M36.4,24c0.5,0,1.6,1.3,1.5,2.2c-0.1,0.9-1.1,1.2-1.7,1.1c-0.7-0.2-0.9-0.8-1-1.2
								C35.2,25.5,36,24.1,36.4,24z"/>
							<path class="st46" d="M36.4,24.1c0.5,0,1.5,1.3,1.5,2.1c-0.1,0.9-1.1,1.2-1.7,1c-0.7-0.2-0.9-0.8-0.9-1.1
								C35.3,25.5,36,24.1,36.4,24.1L36.4,24.1z"/>
							<path class="st47" d="M36.4,24.1c0.5,0,1.5,1.2,1.4,2.1c-0.1,0.8-1,1.1-1.6,1c-0.7-0.1-0.9-0.8-0.9-1.1
								C35.3,25.5,36,24.1,36.4,24.1z"/>
							<path class="st48" d="M36.4,24.1c0.5,0,1.4,1.2,1.3,2s-1,1.1-1.5,1c-0.7-0.1-0.9-0.8-0.9-1.1C35.3,25.5,36,24.1,36.4,24.1z"
								/>
							<path class="st49" d="M36.4,24.2c0.4,0,1.4,1.2,1.3,2c-0.1,0.8-0.9,1.1-1.5,1c-0.7-0.1-0.9-0.7-0.9-1
								C35.3,25.5,36,24.2,36.4,24.2z"/>
							<path class="st50" d="M36.4,24.2c0.4,0,1.3,1.2,1.2,1.9c-0.1,0.8-0.9,1-1.4,0.9c-0.6-0.1-0.8-0.7-0.8-1
								C35.3,25.5,36,24.2,36.4,24.2z"/>
							<path class="st51" d="M36.3,24.2c0.4,0,1.2,1.1,1.2,1.9c-0.1,0.7-0.8,1-1.3,0.9c-0.6-0.1-0.8-0.7-0.8-1
								C35.4,25.5,36,24.3,36.3,24.2L36.3,24.2z"/>
							<path class="st52" d="M36.3,24.3c0.4,0,1.2,1.1,1.1,1.8s-0.7,1-1.2,0.9c-0.6-0.1-0.8-0.7-0.8-0.9
								C35.4,25.5,36,24.3,36.3,24.3z"/>
							<path class="st53" d="M36.3,24.3c0.4,0,1.1,1.1,1.1,1.8c-0.1,0.6-0.7,0.9-1.2,0.9c-0.6-0.1-0.8-0.6-0.8-0.9
								C35.4,25.5,36,24.3,36.3,24.3z"/>
							<path class="st54" d="M36.3,24.3c0.3,0,1.1,1,1,1.7c-0.1,0.6-0.6,0.9-1.1,0.8c-0.6-0.1-0.8-0.6-0.8-0.9
								C35.4,25.5,36,24.3,36.3,24.3L36.3,24.3z"/>
							<path class="st55" d="M36.3,24.4c0.3,0,1,1,1,1.7c-0.1,0.6-0.6,0.8-1,0.8c-0.6-0.1-0.7-0.6-0.7-0.8
								C35.4,25.5,36,24.4,36.3,24.4L36.3,24.4z"/>
							<path class="st56" d="M36.3,24.4c0.3,0,1,1,0.9,1.6c-0.1,0.5-0.5,0.8-1,0.8c-0.6-0.1-0.7-0.6-0.7-0.8
								C35.5,25.5,36,24.4,36.3,24.4L36.3,24.4z"/>
							<path class="st57" d="M36.2,24.4c0.3,0,0.9,1,0.8,1.6c-0.1,0.5-0.5,0.8-0.9,0.7c-0.6-0.1-0.7-0.6-0.7-0.8
								C35.5,25.5,36,24.4,36.2,24.4L36.2,24.4z"/>
							<path class="st58" d="M36.2,24.5c0.3,0,0.8,0.9,0.8,1.5c0,0.5-0.4,0.7-0.8,0.7c-0.5,0-0.7-0.5-0.7-0.7
								C35.5,25.6,36,24.5,36.2,24.5z"/>
							<path class="st59" d="M36.2,24.5c0.2,0,0.8,0.9,0.7,1.4c0,0.4-0.4,0.7-0.8,0.7c-0.5,0-0.6-0.5-0.6-0.7
								C35.6,25.6,36,24.5,36.2,24.5L36.2,24.5z"/>
							<path class="st60" d="M36.2,24.5c0.2,0,0.7,0.9,0.7,1.4c0,0.4-0.3,0.7-0.7,0.7c-0.5,0-0.6-0.5-0.6-0.7
								C35.6,25.6,36,24.5,36.2,24.5z"/>
							<path class="st61" d="M36.2,24.6c0.2,0,0.7,0.8,0.6,1.3c0,0.4-0.3,0.6-0.6,0.6c-0.5,0-0.6-0.5-0.6-0.6
								C35.6,25.6,36,24.6,36.2,24.6L36.2,24.6z"/>
						</g>
						<path class="st62" d="M36.8,25.7c0,0.6-0.5,1-1,1s-1-0.5-1-1c0-0.9,1.1-2.2,1.1-2.2l0.1,0c0,0,0,0.1,0,0.1
							C36.1,23.8,36.8,24.9,36.8,25.7L36.8,25.7z"/>
						<path class="st63" d="M36.9,25.7c0,0.6-0.5,1-1,1c-0.6,0-1-0.5-1-1c0-0.8,1-2.3,1-2.3S36.9,24.9,36.9,25.7z"/>
					</g>
					<g>
						<g>
							<path class="st0" d="M32.7,35.5c0-0.8,1-2.7,1.7-2.7c0.8-0.1,2.5,1.7,2.3,2.9c-0.2,1.5-1.9,1.7-2.8,1.5
								C33.1,37,32.7,36,32.7,35.5z"/>
							<path class="st31" d="M34.4,32.9c0.8-0.1,2.4,1.7,2.3,2.9c-0.2,1.4-1.9,1.7-2.7,1.4c-0.9-0.3-1.2-1.2-1.3-1.7
								C32.7,34.7,33.7,32.9,34.4,32.9L34.4,32.9z"/>
							<path class="st32" d="M34.4,32.9c0.8-0.1,2.4,1.7,2.2,2.8c-0.2,1.4-1.8,1.7-2.7,1.4c-0.9-0.3-1.2-1.2-1.2-1.6
								C32.7,34.7,33.7,32.9,34.4,32.9z"/>
							<path class="st33" d="M34.4,32.9c0.8-0.1,2.3,1.7,2.2,2.8c-0.2,1.4-1.8,1.6-2.6,1.4c-0.9-0.3-1.2-1.1-1.2-1.6
								C32.7,34.7,33.7,33,34.4,32.9L34.4,32.9z"/>
							<path class="st34" d="M34.4,32.9c0.7-0.1,2.2,1.6,2.1,2.7C36.4,37,34.8,37.3,34,37c-0.8-0.3-1.2-1.1-1.2-1.6
								C32.7,34.7,33.7,33,34.4,32.9L34.4,32.9z"/>
							<path class="st35" d="M34.4,33c0.7-0.1,2.2,1.6,2.1,2.7C36.3,37,34.8,37.2,34,37c-0.8-0.3-1.2-1.1-1.2-1.5
								C32.8,34.7,33.7,33,34.4,33z"/>
							<path class="st36" d="M34.4,33c0.7-0.1,2.1,1.6,2,2.6c-0.2,1.2-1.6,1.5-2.4,1.3c-0.8-0.2-1.1-1.1-1.2-1.5
								C32.8,34.7,33.7,33,34.4,33L34.4,33z"/>
							<path class="st37" d="M34.4,33c0.7-0.1,2.1,1.5,1.9,2.6c-0.1,1.2-1.6,1.5-2.3,1.3c-0.8-0.2-1.1-1-1.1-1.5
								C32.8,34.7,33.7,33.1,34.4,33L34.4,33z"/>
							<path class="st38" d="M34.3,33.1c0.7,0,2,1.5,1.9,2.5c-0.1,1.2-1.5,1.4-2.2,1.2c-0.8-0.2-1.1-1-1.1-1.4
								C32.9,34.7,33.7,33.1,34.3,33.1L34.3,33.1z"/>
							<path class="st39" d="M34.3,33.1c0.6,0,1.9,1.5,1.8,2.5C36,36.8,34.7,37,34,36.8c-0.8-0.2-1.1-1-1.1-1.4
								C32.9,34.8,33.7,33.2,34.3,33.1L34.3,33.1z"/>
							<path class="st40" d="M34.3,33.1c0.6,0,1.9,1.4,1.8,2.4C36,36.7,34.7,37,34,36.8c-0.8-0.2-1.1-1-1.1-1.3
								C32.9,34.8,33.7,33.2,34.3,33.1L34.3,33.1z"/>
							<path class="st41" d="M34.3,33.2c0.6,0,1.8,1.4,1.7,2.4c-0.1,1.1-1.3,1.3-2,1.2c-0.8-0.2-1-0.9-1-1.3
								C32.9,34.8,33.8,33.2,34.3,33.2L34.3,33.2z"/>
							<path class="st42" d="M34.3,33.2c0.6,0,1.8,1.4,1.7,2.3c-0.1,1-1.3,1.3-1.9,1.1c-0.7-0.2-1-0.9-1-1.3
								C33,34.7,33.7,33.2,34.3,33.2z"/>
							<path class="st43" d="M34.3,33.2c0.6,0,1.7,1.4,1.6,2.3c-0.1,1-1.2,1.3-1.9,1.1c-0.7-0.2-1-0.9-1-1.2
								C33,34.7,33.7,33.3,34.3,33.2L34.3,33.2z"/>
							<path class="st44" d="M34.2,33.3c0.5,0,1.7,1.3,1.6,2.2c-0.1,1-1.2,1.2-1.8,1.1c-0.7-0.2-1-0.9-1-1.2
								C33,34.8,33.7,33.3,34.2,33.3z"/>
							<path class="st45" d="M34.2,33.3c0.5,0,1.6,1.3,1.5,2.2c-0.1,0.9-1.1,1.2-1.7,1.1c-0.7-0.2-0.9-0.8-1-1.2
								C33,34.8,33.7,33.3,34.2,33.3z"/>
							<path class="st46" d="M34.2,33.3c0.5,0,1.5,1.3,1.5,2.1c-0.1,0.9-1.1,1.2-1.7,1c-0.7-0.2-0.9-0.8-0.9-1.1
								C33.1,34.8,33.7,33.4,34.2,33.3L34.2,33.3z"/>
							<path class="st47" d="M34.2,33.4c0.5,0,1.5,1.2,1.4,2.1s-1,1.1-1.6,1c-0.7-0.1-0.9-0.8-0.9-1.1
								C33.1,34.8,33.8,33.4,34.2,33.4z"/>
							<path class="st48" d="M34.2,33.4c0.5,0,1.4,1.2,1.3,2c-0.1,0.8-1,1.1-1.5,1c-0.7-0.1-0.9-0.8-0.9-1.1
								C33.1,34.8,33.8,33.4,34.2,33.4z"/>
							<path class="st49" d="M34.2,33.4c0.4,0,1.4,1.2,1.3,2s-0.9,1.1-1.5,1c-0.7-0.1-0.9-0.7-0.9-1C33.1,34.8,33.8,33.5,34.2,33.4z
								"/>
							<path class="st50" d="M34.2,33.5c0.4,0,1.3,1.2,1.2,1.9c-0.1,0.8-0.9,1-1.4,0.9c-0.6-0.1-0.8-0.7-0.8-1
								C33.2,34.8,33.8,33.5,34.2,33.5z"/>
							<path class="st51" d="M34.1,33.5c0.4,0,1.2,1.1,1.2,1.9c-0.1,0.7-0.8,1-1.3,0.9c-0.6-0.1-0.8-0.7-0.8-1
								C33.2,34.8,33.8,33.5,34.1,33.5L34.1,33.5z"/>
							<path class="st52" d="M34.1,33.5c0.4,0,1.2,1.1,1.1,1.8s-0.7,1-1.2,0.9c-0.6-0.1-0.8-0.7-0.8-0.9
								C33.2,34.8,33.8,33.5,34.1,33.5z"/>
							<path class="st53" d="M34.1,33.6c0.4,0,1.1,1.1,1.1,1.8c-0.1,0.6-0.7,0.9-1.2,0.9c-0.6-0.1-0.8-0.6-0.8-0.9
								C33.2,34.8,33.8,33.6,34.1,33.6L34.1,33.6z"/>
							<path class="st54" d="M34.1,33.6c0.3,0,1.1,1,1,1.7c-0.1,0.6-0.6,0.9-1.1,0.8c-0.6-0.1-0.8-0.6-0.8-0.9
								C33.2,34.8,33.8,33.6,34.1,33.6L34.1,33.6z"/>
							<path class="st55" d="M34.1,33.6c0.3,0,1,1,1,1.7c-0.1,0.6-0.6,0.8-1,0.8c-0.6-0.1-0.7-0.6-0.7-0.8
								C33.3,34.8,33.8,33.6,34.1,33.6L34.1,33.6z"/>
							<path class="st56" d="M34.1,33.7c0.3,0,1,1,0.9,1.6c-0.1,0.5-0.5,0.8-1,0.8c-0.6-0.1-0.7-0.6-0.7-0.8
								C33.3,34.8,33.8,33.7,34.1,33.7L34.1,33.7z"/>
							<path class="st57" d="M34,33.7c0.3,0,0.9,1,0.8,1.6C34.8,35.7,34.4,36,34,36c-0.6,0-0.7-0.6-0.7-0.8
								C33.3,34.8,33.8,33.7,34,33.7L34,33.7z"/>
							<path class="st58" d="M34,33.7c0.3,0,0.8,0.9,0.8,1.5c0,0.5-0.4,0.7-0.8,0.7c-0.5,0-0.7-0.5-0.7-0.7
								C33.3,34.8,33.8,33.7,34,33.7z"/>
							<path class="st59" d="M34,33.7c0.2,0,0.8,0.9,0.7,1.4c0,0.4-0.4,0.7-0.8,0.7c-0.5,0-0.6-0.5-0.6-0.7
								C33.4,34.8,33.8,33.7,34,33.7L34,33.7z"/>
							<path class="st60" d="M34,33.8c0.2,0,0.7,0.9,0.7,1.4c0,0.4-0.3,0.7-0.7,0.7c-0.5,0-0.6-0.5-0.6-0.7
								C33.4,34.8,33.8,33.8,34,33.8z"/>
							<path class="st61" d="M34,33.8c0.2,0,0.7,0.8,0.6,1.3c0,0.4-0.3,0.6-0.6,0.6c-0.5,0-0.6-0.5-0.6-0.6
								C33.4,34.8,33.8,33.8,34,33.8L34,33.8z"/>
						</g>
						<path class="st62" d="M34.6,34.9c0,0.6-0.5,1-1,1s-1-0.5-1-1c0-0.9,1.1-2.2,1.1-2.2l0.1,0c0,0,0,0.1,0,0.1
							C33.9,33,34.6,34.2,34.6,34.9L34.6,34.9z"/>
						<path class="st63" d="M34.7,35c0,0.6-0.5,1-1,1c-0.6,0-1-0.5-1-1c0-0.8,1-2.3,1-2.3S34.7,34.1,34.7,35z"/>
					</g>
					<g>
						<g>
							<path class="st0" d="M28.1,32.7c-0.1-1.3,1.6-4.3,2.8-4.3c1.3-0.1,4,2.8,3.7,4.7c-0.3,2.3-3.1,2.8-4.5,2.3
								C28.8,35,28.2,33.5,28.1,32.7L28.1,32.7z"/>
							<path class="st31" d="M30.9,28.4c1.3-0.1,3.9,2.7,3.7,4.7c-0.3,2.3-3,2.7-4.4,2.3c-1.4-0.5-2-1.9-2-2.7
								C28.1,31.4,29.7,28.5,30.9,28.4z"/>
							<path class="st32" d="M30.9,28.5c1.2-0.1,3.8,2.7,3.6,4.6c-0.3,2.2-2.9,2.7-4.2,2.3c-1.4-0.4-2-1.9-2-2.6
								C28.2,31.4,29.7,28.5,30.9,28.5L30.9,28.5z"/>
							<path class="st33" d="M30.9,28.5c1.2-0.1,3.7,2.6,3.5,4.5c-0.3,2.2-2.8,2.6-4.1,2.2c-1.4-0.4-1.9-1.8-2-2.5
								C28.2,31.4,29.7,28.6,30.9,28.5L30.9,28.5z"/>
							<path class="st34" d="M30.8,28.6c1.2-0.1,3.6,2.6,3.4,4.4c-0.3,2.1-2.8,2.5-4,2.2c-1.3-0.4-1.9-1.8-1.9-2.5
								C28.2,31.4,29.7,28.6,30.8,28.6L30.8,28.6z"/>
							<path class="st35" d="M30.8,28.6c1.1-0.1,3.5,2.5,3.3,4.3c-0.2,2.1-2.7,2.5-3.9,2.1c-1.3-0.4-1.9-1.7-1.9-2.4
								C28.3,31.4,29.7,28.7,30.8,28.6L30.8,28.6z"/>
							<path class="st36" d="M30.8,28.7c1.1-0.1,3.4,2.5,3.2,4.2c-0.2,2-2.6,2.4-3.8,2.1c-1.3-0.4-1.8-1.7-1.8-2.4
								C28.3,31.4,29.7,28.7,30.8,28.7z"/>
							<path class="st37" d="M30.8,28.7c1.1-0.1,3.3,2.5,3.1,4.1c-0.2,1.9-2.5,2.4-3.7,2c-1.3-0.4-1.8-1.7-1.8-2.3
								C28.3,31.4,29.8,28.8,30.8,28.7L30.8,28.7z"/>
							<path class="st38" d="M30.7,28.8c1-0.1,3.2,2.4,3,4.1c-0.2,1.9-2.4,2.3-3.6,2c-1.3-0.4-1.8-1.6-1.8-2.3
								C28.4,31.4,29.8,28.8,30.7,28.8z"/>
							<path class="st39" d="M30.7,28.8c1-0.1,3.1,2.4,2.9,4c-0.2,1.8-2.3,2.3-3.5,2c-1.2-0.3-1.7-1.6-1.7-2.2
								C28.4,31.4,29.7,28.9,30.7,28.8L30.7,28.8z"/>
							<path class="st40" d="M30.7,28.9c1-0.1,3,2.3,2.9,3.9c-0.2,1.8-2.2,2.2-3.3,1.9c-1.2-0.3-1.7-1.6-1.7-2.2
								C28.5,31.4,29.8,28.9,30.7,28.9z"/>
							<path class="st41" d="M30.7,28.9c0.9-0.1,2.9,2.3,2.8,3.8c-0.2,1.7-2.1,2.2-3.2,1.9c-1.2-0.3-1.6-1.5-1.7-2.1
								C28.5,31.4,29.7,29,30.7,28.9L30.7,28.9z"/>
							<path class="st42" d="M30.6,29c0.9-0.1,2.8,2.2,2.7,3.7c-0.2,1.7-2,2.1-3.1,1.8c-1.2-0.3-1.6-1.5-1.6-2.1
								C28.5,31.4,29.8,29,30.6,29L30.6,29z"/>
							<path class="st43" d="M30.6,29c0.9-0.1,2.8,2.2,2.6,3.7c-0.2,1.6-2,2-3,1.8c-1.2-0.3-1.6-1.4-1.6-2
								C28.6,31.5,29.8,29.1,30.6,29z"/>
							<path class="st44" d="M30.6,29.1c0.9-0.1,2.7,2.1,2.5,3.6c-0.2,1.5-1.9,2-2.9,1.7c-1.1-0.3-1.5-1.4-1.6-2
								C28.6,31.5,29.8,29.1,30.6,29.1z"/>
							<path class="st45" d="M30.6,29.1c0.8-0.1,2.6,2.1,2.4,3.5c-0.2,1.5-1.8,1.9-2.8,1.7c-1.1-0.3-1.5-1.3-1.5-1.9
								C28.6,31.5,29.8,29.2,30.6,29.1L30.6,29.1z"/>
							<path class="st46" d="M30.5,29.2c0.8-0.1,2.5,2,2.3,3.4c-0.2,1.4-1.7,1.9-2.7,1.7c-1.1-0.2-1.5-1.3-1.5-1.8
								C28.7,31.5,29.8,29.2,30.5,29.2z"/>
							<path class="st47" d="M30.5,29.2c0.8,0,2.4,2,2.2,3.3s-1.6,1.8-2.6,1.6c-1.1-0.2-1.4-1.3-1.5-1.8
								C28.7,31.5,29.8,29.3,30.5,29.2L30.5,29.2z"/>
							<path class="st48" d="M30.5,29.3c0.7,0,2.3,2,2.1,3.2c-0.1,1.3-1.5,1.8-2.4,1.6c-1.1-0.2-1.4-1.2-1.4-1.7
								C28.7,31.5,29.8,29.3,30.5,29.3L30.5,29.3z"/>
							<path class="st49" d="M30.5,29.3c0.7,0,2.2,1.9,2.1,3.2c-0.1,1.2-1.4,1.7-2.3,1.5c-1-0.2-1.4-1.2-1.4-1.7
								C28.8,31.5,29.8,29.4,30.5,29.3L30.5,29.3z"/>
							<path class="st50" d="M30.4,29.4c0.7,0,2.1,1.9,2,3.1c-0.1,1.2-1.4,1.6-2.2,1.5c-1-0.2-1.3-1.1-1.3-1.6
								C28.8,31.5,29.8,29.4,30.4,29.4L30.4,29.4z"/>
							<path class="st51" d="M30.4,29.4c0.6,0,2,1.8,1.9,3c-0.1,1.2-1.3,1.6-2.1,1.4c-1-0.2-1.3-1.1-1.3-1.6
								C28.9,31.5,29.8,29.5,30.4,29.4z"/>
							<path class="st52" d="M30.4,29.5c0.6,0,1.9,1.8,1.8,2.9c-0.1,1.1-1.2,1.5-2,1.4c-1-0.2-1.3-1.1-1.3-1.5
								C28.9,31.5,29.8,29.5,30.4,29.5L30.4,29.5z"/>
							<path class="st53" d="M30.4,29.5c0.6,0,1.8,1.7,1.7,2.8c-0.1,1-1.1,1.5-1.9,1.4c-1-0.1-1.2-1-1.2-1.4
								C28.9,31.6,29.8,29.6,30.4,29.5z"/>
							<path class="st54" d="M30.3,29.6c0.5,0,1.7,1.7,1.6,2.7c-0.1,1-1,1.4-1.8,1.3c-0.9-0.1-1.2-1-1.2-1.4
								C29,31.5,29.8,29.6,30.3,29.6L30.3,29.6z"/>
							<path class="st55" d="M30.3,29.6c0.5,0,1.6,1.6,1.5,2.6c-0.1,0.9-0.9,1.4-1.7,1.3c-0.9-0.1-1.2-1-1.2-1.3
								C29,31.6,29.8,29.6,30.3,29.6L30.3,29.6z"/>
							<path class="st56" d="M30.3,29.7c0.5,0,1.5,1.6,1.4,2.6c-0.1,0.8-0.8,1.3-1.5,1.2c-0.9-0.1-1.1-0.9-1.1-1.3
								C29,31.6,29.8,29.7,30.3,29.7z"/>
							<path class="st57" d="M30.3,29.7c0.4,0,1.4,1.5,1.3,2.5c-0.1,0.8-0.8,1.2-1.4,1.2c-0.9-0.1-1.1-0.9-1.1-1.2
								C29.1,31.6,29.8,29.8,30.3,29.7z"/>
							<path class="st58" d="M30.2,29.8c0.4,0,1.3,1.5,1.3,2.4c-0.1,0.7-0.7,1.2-1.3,1.1c-0.9-0.1-1.1-0.8-1.1-1.2
								C29.1,31.6,29.8,29.8,30.2,29.8z"/>
							<path class="st59" d="M30.2,29.8c0.4,0,1.2,1.4,1.2,2.3c-0.1,0.7-0.6,1.1-1.2,1.1c-0.8,0-1-0.8-1-1.1
								C29.2,31.6,29.9,29.9,30.2,29.8L30.2,29.8z"/>
							<path class="st60" d="M30.2,29.9c0.3,0,1.2,1.4,1.1,2.2c-0.1,0.6-0.5,1.1-1.1,1.1c-0.8,0-1-0.8-1-1.1
								C29.2,31.6,29.8,29.9,30.2,29.9L30.2,29.9z"/>
							<path class="st61" d="M30.2,29.9c0.3,0,1.1,1.3,1,2.2c-0.1,0.6-0.4,1-1,1c-0.8,0-1-0.7-1-1C29.2,31.6,29.9,30,30.2,29.9
								L30.2,29.9z"/>
						</g>
						<path class="st62" d="M31.2,31.7c0,0.9-0.7,1.6-1.6,1.6c-0.9,0-1.7-0.7-1.7-1.6c0-1.5,1.7-3.6,1.7-3.6l0.1-0.1
							c0,0,0,0.1,0,0.1C30,28.7,31.2,30.6,31.2,31.7L31.2,31.7z"/>
						<path class="st63" d="M31.3,31.8c0,0.9-0.7,1.6-1.6,1.6c-0.9,0-1.6-0.7-1.6-1.6c0-1.3,1.6-3.7,1.6-3.7S31.3,30.5,31.3,31.8z"
							/>
					</g>
				</g>
			</g>
		</g>
	</g>
</g>
</svg>
