<?xml version="1.0" encoding="utf-8"?>
<!-- Generator: Adobe Illustrator 27.0.1, SVG Export Plug-In . SVG Version: 6.00 Build 0)  -->
<svg version="1.1" id="Ebene_1" xmlns="http://www.w3.org/2000/svg" xmlns:xlink="http://www.w3.org/1999/xlink" x="0px" y="0px"
	 viewBox="0 0 47.9 47.9" style="enable-background:new 0 0 47.9 47.9;" xml:space="preserve">
<style type="text/css">
	.st0{fill:#FFFFFF;fill-opacity:0;}
	.st1{opacity:5.000000e-02;fill:#F9FBFB;enable-background:new    ;}
	.st2{opacity:0.1;fill:#F4F6F8;enable-background:new    ;}
	.st3{opacity:0.14;fill:#EEF2F4;enable-background:new    ;}
	.st4{opacity:0.19;fill:#E9EDF1;enable-background:new    ;}
	.st5{opacity:0.24;fill:#E3E9ED;enable-background:new    ;}
	.st6{opacity:0.29;fill:#DEE5EA;enable-background:new    ;}
	.st7{opacity:0.33;fill:#D8E0E6;enable-background:new    ;}
	.st8{opacity:0.38;fill:#D3DCE3;enable-background:new    ;}
	.st9{opacity:0.43;fill:#CDD8DF;enable-background:new    ;}
	.st10{opacity:0.48;fill:#C8D3DC;enable-background:new    ;}
	.st11{opacity:0.52;fill:#C2CFD8;enable-background:new    ;}
	.st12{opacity:0.57;fill:#BDCAD5;enable-background:new    ;}
	.st13{opacity:0.62;fill:#B7C6D1;enable-background:new    ;}
	.st14{opacity:0.67;fill:#B2C2CE;enable-background:new    ;}
	.st15{opacity:0.71;fill:#ACBDCA;enable-background:new    ;}
	.st16{opacity:0.76;fill:#A7B9C7;enable-background:new    ;}
	.st17{opacity:0.81;fill:#A1B5C3;enable-background:new    ;}
	.st18{opacity:0.86;fill:#9CB0C0;enable-background:new    ;}
	.st19{opacity:0.9;fill:#96ACBC;enable-background:new    ;}
	.st20{opacity:0.95;fill:#91A7B9;enable-background:new    ;}
	.st21{fill:#8BA3B5;}
	.st22{fill:#008DD4;}
	.st23{fill:url(#SVGID_1_);}
	.st24{fill:#4FC5FF;}
	.st25{fill:url(#SVGID_00000070085719560341297630000006721913977051033249_);}
	.st26{fill:url(#SVGID_00000178186003416569856800000014994921818641112726_);}
	.st27{fill:#63CCFF;}
	.st28{fill:#007FC9;}
	.st29{fill:#6ED8FF;}
	.st30{fill:#008CDE;}
	.st31{opacity:3.000000e-02;fill:#FBFCFC;enable-background:new    ;}
	.st32{opacity:6.000000e-02;fill:#F7F9FA;enable-background:new    ;}
	.st33{opacity:0.1;fill:#F3F6F7;enable-background:new    ;}
	.st34{opacity:0.13;fill:#EFF3F5;enable-background:new    ;}
	.st35{opacity:0.16;fill:#EBF0F2;enable-background:new    ;}
	.st36{opacity:0.19;fill:#E8EDF0;enable-background:new    ;}
	.st37{opacity:0.23;fill:#E4EAED;enable-background:new    ;}
	.st38{opacity:0.26;fill:#E0E7EB;enable-background:new    ;}
	.st39{opacity:0.29;fill:#DCE4E8;enable-background:new    ;}
	.st40{opacity:0.32;fill:#D8E1E6;enable-background:new    ;}
	.st41{opacity:0.35;fill:#D4DEE3;enable-background:new    ;}
	.st42{opacity:0.39;fill:#D0DBE0;enable-background:new    ;}
	.st43{opacity:0.42;fill:#CCD8DE;enable-background:new    ;}
	.st44{opacity:0.45;fill:#C8D5DB;enable-background:new    ;}
	.st45{opacity:0.48;fill:#C4D2D9;enable-background:new    ;}
	.st46{opacity:0.52;fill:#C1CFD6;enable-background:new    ;}
	.st47{opacity:0.55;fill:#BDCCD4;enable-background:new    ;}
	.st48{opacity:0.58;fill:#B9C9D1;enable-background:new    ;}
	.st49{opacity:0.61;fill:#B5C6CF;enable-background:new    ;}
	.st50{opacity:0.65;fill:#B1C3CC;enable-background:new    ;}
	.st51{opacity:0.68;fill:#ADC0C9;enable-background:new    ;}
	.st52{opacity:0.71;fill:#A9BDC7;enable-background:new    ;}
	.st53{opacity:0.74;fill:#A5BAC4;enable-background:new    ;}
	.st54{opacity:0.77;fill:#A1B7C2;enable-background:new    ;}
	.st55{opacity:0.81;fill:#9DB4BF;enable-background:new    ;}
	.st56{opacity:0.84;fill:#9AB1BD;enable-background:new    ;}
	.st57{opacity:0.87;fill:#96AEBA;enable-background:new    ;}
	.st58{opacity:0.9;fill:#92ABB8;enable-background:new    ;}
	.st59{opacity:0.94;fill:#8EA8B5;enable-background:new    ;}
	.st60{opacity:0.97;fill:#8AA5B3;enable-background:new    ;}
	.st61{fill:#86A2B0;}
	.st62{fill:#B3EDFF;}
	.st63{fill:#61D7FF;}
</style>
<g>
	<g id="Ebene_2_00000023974700165334601320000013935575217680763578_">
		<g id="Paper-Icons">
			<g>
				<g>
					<g>
						<path class="st0" d="M44.9,29.3c3.6-3.3,3.4-6,2.2-8.9c-0.9-2.2-1.3-3.6-2.8-5.6c-1.3-1.8-4.2-4.1-8.4-4.6
							C31.8,9.7,22,16,18.7,16.8c-3.6,0.9-8.1,3.3-12.7,5.1c-2.4,0.9-5.9,3.8-6,5.3c-0.1,2.5,0.8,3.5,1.9,4.5c1.2,1,3.6,2.7,5,3.3
							c1.4,0.6,4.9,1.5,6.1,1.6c2.6,0.3,3.6-0.5,5.7-0.3c2.7,0.3,3.6,0.5,4.9,0.4c1.1,0,2.1-0.3,2.7-0.3c0.9,0,3.4,0.6,4.5,0.3
							c2.9-0.6,2.2-0.8,3.7-1.3C37.6,34.6,42,32.1,44.9,29.3L44.9,29.3z"/>
						<path class="st1" d="M44.5,29.2c3.5-3.2,3.3-5.8,2.1-8.6c-0.9-2.1-1.4-3.5-2.8-5.4c-1.3-1.7-4-4-8.2-4.6
							C31.5,9.9,22,16.1,18.7,17c-3.6,0.9-7.9,3.3-12.4,5c-2.3,0.9-6.1,3.6-6.1,5.1c-0.1,2.4,0.8,3.3,2,4.3c1.2,1,3.5,2.7,4.9,3.3
							s4.8,1.4,6,1.5c2.6,0.3,3.5-0.4,5.6-0.2c2.7,0.3,3.6,0.4,4.8,0.4c1.1,0,2-0.2,2.7-0.2c1,0,3.4,0.5,4.4,0.3
							c2.8-0.5,2.2-0.8,3.7-1.2C37.4,34.2,41.7,31.9,44.5,29.2L44.5,29.2z"/>
						<path class="st2" d="M44.1,29.1c3.4-3,3.2-5.6,2-8.3c-0.9-2.1-1.4-3.4-2.9-5.3c-1.3-1.7-3.8-3.9-8-4.7
							c-4.2-0.7-13.3,5.4-16.6,6.3C15.1,18,11,20.4,6.6,22c-2.3,0.9-6.3,3.4-6.3,5c0,2.3,0.9,3.2,2.1,4.1c1.2,1,3.5,2.6,4.9,3.2
							s4.6,1.2,5.9,1.3c2.6,0.2,3.5-0.3,5.6-0.1c2.7,0.3,3.5,0.3,4.7,0.3c1.1,0,2-0.2,2.7-0.2c1,0,3.3,0.4,4.4,0.2
							c2.7-0.5,2.1-0.7,3.7-1.2C37.2,33.8,41.3,31.6,44.1,29.1L44.1,29.1z"/>
						<path class="st3" d="M43.7,29c3.3-2.9,3.1-5.5,2-8.1c-0.9-2-1.5-3.3-2.9-5.1c-1.3-1.7-3.7-3.9-7.8-4.7S22,16.4,18.7,17.2
							c-3.6,0.9-7.5,3.3-11.9,4.9C4.7,23,0.4,25.4,0.4,27c0,2.2,1,3,2.1,4c1.2,0.9,3.4,2.6,4.8,3.1c1.5,0.5,4.5,1.1,5.8,1.2
							c2.5,0.2,3.5-0.2,5.5,0c2.7,0.2,3.4,0.3,4.7,0.3c1.1,0,1.9-0.1,2.7-0.2c1.1,0,3.3,0.3,4.4,0.1c2.7-0.5,2.1-0.7,3.7-1.1
							C37.1,33.5,41,31.4,43.7,29L43.7,29z"/>
						<path class="st4" d="M43.3,28.8c3.2-2.7,3.1-5.3,1.9-7.8c-0.9-2-1.5-3.2-2.9-5c-1.3-1.6-3.5-3.8-7.6-4.7
							c-3.9-0.8-12.6,5.2-15.9,6c-3.5,0.9-7.3,3.3-11.6,4.9C5,23.1,0.5,25.3,0.6,27c0.1,2.1,1,2.9,2.2,3.8s3.4,2.6,4.8,3
							c1.5,0.5,4.4,1,5.7,1.1c2.5,0.2,3.5-0.1,5.5,0.1c2.7,0.2,3.4,0.3,4.6,0.2c1,0,1.9-0.1,2.7-0.1c1.1,0,3.3,0.3,4.3,0.1
							c2.6-0.5,2.1-0.6,3.7-1.1C37,33.2,40.6,31.1,43.3,28.8L43.3,28.8z"/>
						<path class="st5" d="M42.9,28.7c3.1-2.6,3-5.1,1.8-7.5c-0.9-1.9-1.6-3.1-2.9-4.8c-1.3-1.6-3.3-3.7-7.4-4.7
							c-3.9-0.9-12.3,5-15.5,5.9c-3.5,0.9-7.1,3.2-11.3,4.8c-2.1,0.8-6.9,2.9-6.8,4.6c0.1,2,1.1,2.8,2.2,3.7c1.2,0.9,3.3,2.5,4.7,3
							c1.6,0.5,4.3,0.8,5.6,0.9c2.5,0.2,3.4,0,5.5,0.2c2.7,0.2,3.3,0.2,4.5,0.2c1,0,1.8-0.1,2.7-0.1c1.2,0,3.3,0.2,4.3,0
							c2.5-0.5,2.1-0.5,3.7-1.1C36.8,32.8,40.3,30.9,42.9,28.7L42.9,28.7z"/>
						<path class="st6" d="M42.5,28.6c3-2.4,2.9-4.9,1.7-7.3c-0.9-1.9-1.6-3-3-4.7c-1.2-1.5-3.2-3.7-7.2-4.7
							c-3.8-0.9-12,4.9-15.2,5.7c-3.5,0.9-7,3.2-11,4.8c-2.1,0.8-7.1,2.7-6.9,4.5c0.1,2,1.1,2.6,2.3,3.5c1.2,0.9,3.3,2.5,4.6,2.9
							c1.6,0.5,4.1,0.7,5.5,0.8c2.4,0.2,3.4,0.1,5.4,0.3c2.7,0.2,3.3,0.2,4.5,0.2c1,0,1.8,0,2.7,0c1.2,0,3.2,0.1,4.2,0
							c2.4-0.4,2.1-0.5,3.7-1C36.7,32.5,39.9,30.7,42.5,28.6L42.5,28.6z"/>
						<path class="st7" d="M42.1,28.5c2.9-2.3,2.8-4.8,1.6-7c-0.9-1.8-1.7-2.9-3-4.5c-1.2-1.5-3-3.6-7-4.7c-3.8-1-11.7,4.8-14.9,5.6
							C15.3,18.7,12,21,8.1,22.5c-2,0.8-7.2,2.6-7.1,4.3c0.2,1.9,1.2,2.5,2.4,3.3C4.5,31,6.6,32.6,7.9,33c1.7,0.5,4,0.5,5.4,0.6
							c2.4,0.2,3.4,0.3,5.4,0.4c2.6,0.2,3.2,0.1,4.4,0.1c1,0,1.7,0,2.7,0c1.3,0,3.2,0.1,4.2-0.1c2.3-0.4,2-0.4,3.7-1
							C36.5,32.2,39.6,30.4,42.1,28.5L42.1,28.5z"/>
						<path class="st8" d="M41.7,28.3c2.8-2.2,2.7-4.6,1.5-6.7c-1-1.8-1.7-2.8-3-4.4c-1.2-1.5-2.8-3.5-6.8-4.7
							c-3.7-1.1-11.4,4.6-14.5,5.4c-3.4,0.9-6.6,3.2-10.4,4.7c-2,0.8-7.4,2.4-7.3,4.2s1.3,2.4,2.4,3.2c1.2,0.9,3.2,2.4,4.5,2.7
							c1.7,0.4,3.9,0.4,5.3,0.5c2.4,0.2,3.3,0.4,5.4,0.5c2.6,0.2,3.1,0,4.3,0.1c0.9,0,1.7,0,2.7,0c1.3,0,3.2,0,4.2-0.2
							c2.3-0.4,2-0.4,3.7-0.9C36.4,31.9,39.2,30.3,41.7,28.3L41.7,28.3z"/>
						<path class="st9" d="M41.3,28.2c2.7-2,2.6-4.4,1.5-6.5c-1-1.7-1.8-2.7-3-4.2c-1.2-1.4-2.6-3.5-6.6-4.7
							c-3.7-1.1-11.1,4.5-14.2,5.3c-3.4,0.9-6.4,3.2-10.1,4.6c-1.9,0.7-7.6,2.2-7.4,4.1c0.2,1.7,1.3,2.2,2.5,3
							C5,30.7,7,32.2,8.2,32.5c1.8,0.4,3.7,0.3,5.1,0.4c2.4,0.2,3.3,0.5,5.3,0.6c2.6,0.2,3.1,0,4.3,0c0.9,0,1.6,0.1,2.7,0.1
							c1.4,0,3.2-0.1,4.1-0.3c2.2-0.4,2-0.3,3.7-0.9C36.2,31.5,38.9,30,41.3,28.2z"/>
						<path class="st10" d="M40.9,28.1c2.6-1.9,2.5-4.2,1.4-6.2c-1-1.7-1.8-2.6-3.1-4.1c-1.2-1.4-2.4-3.4-6.4-4.7
							c-3.6-1.2-10.8,4.3-13.9,5.2c-3.4,0.9-6.2,3.2-9.9,4.6c-1.9,0.7-7.8,2-7.6,3.9c0.2,1.6,1.4,2.1,2.6,2.9
							c1.3,0.8,3.1,2.3,4.4,2.6c1.8,0.4,3.6,0.1,5,0.2c2.3,0.2,3.3,0.6,5.3,0.7c2.6,0.1,3,0,4.2,0c0.9,0,1.6,0.1,2.7,0.1
							c1.5,0,3.1-0.2,4.1-0.3c2.1-0.4,2-0.3,3.7-0.8C36.1,31.1,38.5,29.7,40.9,28.1L40.9,28.1z"/>
						<path class="st11" d="M40.4,27.9c2.5-1.7,2.4-4,1.3-5.9c-1-1.6-1.9-2.5-3.1-4c-1.2-1.4-2.3-3.3-6.2-4.7
							c-3.6-1.2-10.5,4.2-13.5,5c-3.4,0.9-6.1,3.2-9.6,4.5c-1.8,0.7-8.1,1.9-7.7,3.8c0.2,1.5,1.5,1.9,2.6,2.7
							c1.3,0.8,3.1,2.3,4.3,2.5c1.8,0.3,3.5,0,4.9,0.1c2.3,0.1,3.3,0.7,5.2,0.8c2.6,0.1,3-0.1,4.1-0.1c0.9,0,1.5,0.2,2.7,0.2
							c1.5,0,3.1-0.2,4-0.4c2.1-0.3,1.9-0.2,3.7-0.8C35.9,30.8,38.2,29.5,40.4,27.9L40.4,27.9z"/>
						<path class="st12" d="M40,27.8c2.4-1.6,2.4-3.8,1.2-5.7c-1-1.6-1.9-2.4-3.1-3.8C37,17,36,15.1,32.1,13.6
							c-3.5-1.3-10.2,4.1-13.2,4.9c-3.3,0.9-5.9,3.2-9.3,4.5c-1.8,0.7-8.3,1.7-7.9,3.7c0.3,1.4,1.5,1.8,2.7,2.5
							c1.3,0.8,3,2.2,4.3,2.4c1.9,0.3,3.3-0.2,4.8-0.1c2.3,0.1,3.2,0.8,5.2,0.9c2.6,0.1,2.9-0.2,4.1-0.1c0.8,0,1.5,0.2,2.7,0.2
							c1.6,0,3.1-0.3,4-0.4c2-0.3,1.9-0.1,3.7-0.8C35.7,30.5,37.8,29.3,40,27.8L40,27.8z"/>
						<path class="st13" d="M39.6,27.7c2.3-1.4,2.3-3.7,1.1-5.4c-1-1.5-2-2.4-3.1-3.7c-1.1-1.3-1.9-3.2-5.9-4.7
							c-3.5-1.4-9.9,3.9-12.9,4.7c-3.3,0.9-5.7,3.2-9,4.4c-1.7,0.7-8.5,1.5-8.1,3.5C2.1,28,3.4,28.3,4.6,29c1.3,0.8,3,2.2,4.2,2.4
							c1.9,0.3,3.2-0.3,4.7-0.2c2.2,0.1,3.2,0.9,5.1,1c2.6,0.1,2.8-0.2,4-0.2c0.8,0,1.4,0.3,2.7,0.3c1.6,0,3-0.4,3.9-0.5
							c1.9-0.3,1.9-0.1,3.7-0.7C35.6,30.1,37.5,29,39.6,27.7L39.6,27.7z"/>
						<path class="st14" d="M39.2,27.6c2.2-1.3,2.2-3.5,1.1-5.1c-1-1.5-2-2.3-3.2-3.5s-1.8-3.1-5.7-4.7c-3.5-1.4-9.6,3.8-12.5,4.6
							c-3.3,0.9-5.5,3.2-8.7,4.4c-1.7,0.6-8.7,1.3-8.2,3.4c0.3,1.3,1.7,1.5,2.8,2.2c1.3,0.8,2.9,2.1,4.1,2.3c2,0.2,3.1-0.4,4.6-0.3
							c2.2,0.1,3.2,1,5.1,1.1c2.6,0.1,2.8-0.3,3.9-0.2c0.8,0,1.4,0.3,2.7,0.3c1.7,0,3-0.4,3.9-0.6c1.8-0.3,1.9,0,3.8-0.7
							C35.5,29.8,37.1,28.8,39.2,27.6L39.2,27.6z"/>
						<path class="st15" d="M38.8,27.4c2.1-1.1,2.1-3.3,1-4.9c-1-1.4-2.1-2.2-3.2-3.4c-1.1-1.2-1.6-3.1-5.5-4.7
							c-3.4-1.5-9.3,3.7-12.2,4.5c-3.3,0.9-5.3,3.2-8.5,4.3c-1.6,0.6-8.9,1.2-8.4,3.3c0.3,1.2,1.7,1.4,2.9,2.1
							c1.3,0.8,2.9,2.1,4.1,2.2c2,0.2,3-0.6,4.5-0.5c2.2,0.1,3.1,1.1,5.1,1.1c2.5,0.1,2.7-0.3,3.9-0.3c0.7,0,1.3,0.3,2.7,0.3
							c1.7,0,3-0.5,3.9-0.6c1.8-0.3,1.8,0,3.8-0.6C35.3,29.5,36.8,28.6,38.8,27.4z"/>
						<path class="st16" d="M38.4,27.3c2-1,2-3.1,0.9-4.6c-1-1.4-2.2-2.1-3.2-3.2c-1.1-1.1-1.4-3-5.2-4.8c-3.4-1.6-9,3.5-11.9,4.3
							c-3.2,0.9-5.1,3.2-8.2,4.3c-1.6,0.6-9.1,1-8.6,3.2c0.3,1.1,1.8,1.2,3,1.9c1.3,0.8,2.9,2,4,2.1c2.1,0.2,2.8-0.7,4.4-0.6
							c2.2,0.1,3.1,1.2,5,1.3c2.5,0.1,2.6-0.4,3.8-0.3c0.7,0,1.3,0.4,2.7,0.4c1.8,0,3-0.6,3.8-0.7c1.7-0.2,1.8,0.1,3.8-0.6
							C35.1,29.1,36.4,28.3,38.4,27.3L38.4,27.3z"/>
						<path class="st17" d="M38,27.2c1.9-0.9,1.9-2.9,0.8-4.3c-1.1-1.4-2.2-2-3.3-3.1c-1-1.1-1.3-2.9-5.1-4.8
							c-3.3-1.6-8.7,3.4-11.5,4.2c-3.2,0.9-4.9,3.2-7.9,4.2c-1.5,0.6-9.3,0.8-8.7,3c0.3,1,1.8,1.1,3,1.8c1.3,0.7,2.8,2,4,2.1
							c2.1,0.1,2.7-0.8,4.3-0.8c2.1,0.1,3.1,1.3,5,1.3c2.5,0,2.6-0.4,3.7-0.3c0.7,0,1.3,0.4,2.7,0.4c1.8,0,2.9-0.7,3.8-0.8
							c1.6-0.2,1.8,0.1,3.8-0.5C35,28.8,36,28.1,38,27.2z"/>
						<path class="st18" d="M37.6,27.1c1.8-0.7,1.8-2.7,0.7-4.1c-1.1-1.3-2.3-1.9-3.3-2.9c-1-1-1.1-2.8-4.9-4.8
							c-3.3-1.7-8.4,3.2-11.2,4c-3.2,0.9-4.8,3.1-7.6,4.2c-1.5,0.6-9.6,0.7-8.9,2.9c0.3,1,1.9,1,3.1,1.6c1.3,0.7,2.8,1.9,3.9,2
							c2.2,0.1,2.5-1,4.2-0.9c2.1,0.1,3.1,1.4,4.9,1.4c2.5,0,2.5-0.5,3.7-0.4c0.7,0,1.2,0.4,2.7,0.5c1.9,0,2.9-0.7,3.7-0.8
							c1.5-0.2,1.8,0.2,3.8-0.5C34.8,28.5,35.7,27.9,37.6,27.1L37.6,27.1z"/>
						<path class="st19" d="M37.2,26.9c1.7-0.6,1.7-2.6,0.7-3.8c-1.1-1.2-2.3-1.8-3.3-2.8c-1-1-0.9-2.8-4.7-4.8
							c-3.2-1.7-8.1,3.1-10.9,3.9c-3.2,0.9-4.6,3.1-7.3,4.2c-1.4,0.5-9.8,0.5-9.1,2.8c0.3,0.9,2,0.8,3.2,1.4
							c1.3,0.7,2.7,1.9,3.8,1.9c2.2,0,2.4-1.1,4.1-1.1c2.1,0.1,3,1.5,4.9,1.5c2.5,0,2.4-0.5,3.6-0.4c0.6,0,1.2,0.5,2.7,0.5
							c1.9,0,2.9-0.8,3.7-0.9c1.5-0.2,1.7,0.3,3.8-0.5C34.7,28.1,35.3,27.6,37.2,26.9L37.2,26.9z"/>
						<path class="st20" d="M36.8,26.8c1.6-0.5,1.6-2.4,0.6-3.5c-1-1.2-2.4-1.7-3.3-2.6c-1-1-0.8-2.7-4.5-4.8
							c-3.2-1.8-7.8,3-10.5,3.8c-3.1,0.9-4.4,3.1-7,4.1c-1.4,0.5-10.1,0.4-9.2,2.6c0.3,0.8,2,0.7,3.2,1.3c1.4,0.7,2.7,1.8,3.8,1.8
							c2.3,0,2.3-1.2,4-1.2c2.1,0.1,3,1.6,4.9,1.6c2.5,0,2.4-0.6,3.5-0.5c0.6,0,1.1,0.5,2.7,0.5c2,0,2.9-0.9,3.7-1
							c1.4-0.2,1.7,0.3,3.8-0.4C34.6,27.8,35,27.4,36.8,26.8L36.8,26.8z"/>
						<path class="st21" d="M36.4,26.7c1.5-0.3,1.5-2.2,0.5-3.2c-1.1-1.1-2.4-1.6-3.4-2.5c-1-0.9-0.6-2.6-4.3-4.8
							c-3.1-1.8-7.5,2.8-10.2,3.6c-3.1,0.9-4.2,3.1-6.8,4.1C11,24.3,2,24.1,2.9,26.3c0.3,0.7,2.1,0.5,3.3,1.1
							c1.4,0.7,2.6,1.8,3.7,1.7c2.3-0.1,2.2-1.4,3.9-1.3c2,0.1,3,1.7,4.8,1.7c2.5,0,2.3-0.6,3.5-0.5c0.6,0.1,1.1,0.5,2.7,0.6
							c2.1,0,2.8-0.9,3.6-1c1.3-0.1,1.7,0.4,3.8-0.4C34.4,27.4,34.6,27.1,36.4,26.7L36.4,26.7z"/>
					</g>
					<path class="st22" d="M35.4,22.1c-0.3-1.1-1-2-1.9-2.6c0.2-0.6,0.4-1.2,0.4-1.8c0.2-3.3-2.6-6.1-6.1-6.2
						c-2.7-0.1-5.1,1.4-6.1,3.5c-0.2,0-0.4,0-0.6,0c-2.2-0.1-4.2,0.9-5.5,2.4c-0.4-0.1-0.7-0.2-1.1-0.2c-1.9-0.1-3.5,1.3-3.6,3.1
						c0,0.3,0,0.6,0.1,0.9c-0.7,0.1-1.3,0.5-1.7,1.1c-0.6-0.7-1.5-1.2-2.5-1.3c-1.5-0.1-2.7,0.8-3.2,1.9c-0.1,0-0.1,0-0.2,0
						c-1.3,0-2.4,0.9-2.5,2.1c-0.1,1.2,1,2.3,2.3,2.3c0.7,0,1.3-0.2,1.8-0.6c0.5,0.3,1,0.4,1.6,0.5C7,28.2,8.2,29,9.5,29
						c1.4,0.1,2.7-0.7,3.2-1.8c0.4,0.2,0.8,0.3,1.3,0.3c0.2,0,0.3,0,0.4,0c0.8,1,2.1,1.7,3.6,1.8c1.4,0.1,2.7-0.5,3.6-1.4
						c0.6,1,1.6,1.7,2.9,1.7c1.4,0.1,2.6-0.6,3.2-1.7c0.7,0.3,1.4,0.5,2.2,0.5c1.8,0.1,3.4-0.7,4.4-1.8c0.2,0.1,0.5,0.1,0.8,0.1
						c1.4,0.1,2.6-1,2.6-2.3C37.9,23.3,36.8,22.2,35.4,22.1L35.4,22.1z"/>
					
						<linearGradient id="SVGID_1_" gradientUnits="userSpaceOnUse" x1="11.0675" y1="34.1202" x2="30.1577" y2="15.03" gradientTransform="matrix(1 0 0 -1 0 48.2384)">
						<stop  offset="0" style="stop-color:#1062A1"/>
						<stop  offset="1" style="stop-color:#0A4D80"/>
					</linearGradient>
					<path class="st23" d="M35.5,22.1c-0.3-1.1-1-2-1.9-2.6c0.2-0.6,0.4-1.2,0.4-1.8c0.2-3.3-2.6-6.1-6.1-6.2
						c-2.7-0.1-5.1,1.4-6.1,3.5c-0.2,0-0.4,0-0.6,0c-2.2-0.1-4.2,0.9-5.5,2.4c-0.4-0.1-0.7-0.2-1.1-0.2c-1.9-0.1-3.5,1.3-3.6,3.1
						c0,0.3,0,0.6,0.1,0.9c-0.7,0.1-1.3,0.5-1.7,1.1C8.9,21.5,8,21,6.9,20.9c-1.5-0.1-2.7,0.8-3.2,1.9c-0.1,0-0.1,0-0.2,0
						C2.1,22.8,1,23.8,1,25c-0.1,1.2,1,2.3,2.3,2.3c0.7,0,1.3-0.2,1.8-0.6c0.5,0.3,1,0.4,1.6,0.5c0.5,1.1,1.7,1.9,3,1.9
						c1.4,0.1,2.7-0.7,3.2-1.8c0.4,0.2,0.8,0.3,1.3,0.3c0.2,0,0.3,0,0.4,0c0.8,1,2.1,1.7,3.6,1.8c1.4,0.1,2.7-0.5,3.6-1.4
						c0.6,1,1.6,1.7,2.9,1.7c1.4,0,2.6-0.6,3.2-1.7c0.7,0.3,1.4,0.5,2.2,0.5c1.8,0.1,3.4-0.7,4.4-1.8c0.2,0.1,0.5,0.1,0.8,0.1
						c1.4,0.1,2.6-1,2.6-2.3C38,23.3,36.9,22.2,35.5,22.1L35.5,22.1z"/>
				</g>
				<g>
					<g>
						<path class="st0" d="M31.5,25.3c1.6-2.7,0-6.3-0.8-8.2c-0.6-1.4-2.6-3.4-4.1-4.1c-1.5-0.7-2.1-1.5-4.2-1.7
							c-2.8-0.3-6.4,1.7-8.7,2.3c-2.4,0.6-6.6,2.5-8.8,4.8c-2.6,2.7-2.7,4.8-2,6.4c0.8,1.7,2,2.6,2.8,3.3c0.8,0.7,1.6,1.2,2.6,1.7
							c1.8,0.8,3.4,0.8,4.8,0.9c1,0.1,3.7,0.3,6.4-0.3c1.9-0.4,3.6-0.6,4.6-0.9C26.2,28.7,30.1,27.6,31.5,25.3z"/>
						<path class="st1" d="M31.2,25.2c1.6-2.6,0.1-6.1-0.7-8c-0.6-1.4-2.5-3.3-4-4c-1.5-0.7-2-1.6-4.1-1.9c-2.7-0.3-6.4,1.8-8.6,2.3
							c-2.4,0.6-6.5,2.4-8.7,4.6c-2.5,2.6-2.8,4.7-2,6.3s2,2.5,2.8,3.1c0.8,0.6,1.7,1.2,2.6,1.6c1.8,0.8,3.4,0.7,4.7,0.8
							c1,0.1,3.6,0.3,6.3-0.2c1.9-0.4,3.6-0.7,4.5-0.9C26.1,28.5,29.9,27.4,31.2,25.2L31.2,25.2z"/>
						<path class="st2" d="M30.9,25.1c1.6-2.5,0.1-5.9-0.6-7.7c-0.6-1.4-2.4-3.2-3.9-3.9c-1.5-0.7-1.9-1.8-4.1-2.1
							c-2.7-0.4-6.4,1.8-8.6,2.4c-2.4,0.6-6.4,2.4-8.5,4.5c-2.4,2.5-2.8,4.6-2,6.2s2,2.4,2.9,3c0.8,0.6,1.7,1.1,2.6,1.5
							c1.9,0.8,3.4,0.6,4.6,0.7c1,0.1,3.6,0.4,6.3-0.2c1.9-0.4,3.5-0.7,4.4-0.9C25.9,28.2,29.6,27.2,30.9,25.1L30.9,25.1z"/>
						<path class="st3" d="M30.6,25c1.6-2.4,0.2-5.7-0.6-7.5c-0.6-1.3-2.3-3-3.8-3.7c-1.4-0.7-1.8-1.9-4-2.2
							c-2.7-0.4-6.4,1.8-8.5,2.4c-2.4,0.6-6.4,2.3-8.4,4.4c-2.4,2.4-2.8,4.5-2,6.1s2,2.3,2.9,2.9c0.8,0.6,1.7,1.1,2.7,1.4
							c1.9,0.7,3.3,0.5,4.6,0.6c1,0.1,3.5,0.4,6.2-0.1c1.9-0.4,3.4-0.7,4.3-0.9C25.8,27.9,29.3,27,30.6,25L30.6,25z"/>
						<path class="st4" d="M30.3,24.8c1.6-2.4,0.3-5.5-0.5-7.2c-0.6-1.3-2.2-2.9-3.7-3.6c-1.4-0.6-1.7-2-3.9-2.4
							c-2.6-0.5-6.3,1.9-8.5,2.4c-2.3,0.6-6.3,2.3-8.3,4.2c-2.3,2.3-2.9,4.4-2.1,6.1c0.8,1.5,2,2.1,2.9,2.7c0.8,0.5,1.7,1,2.7,1.3
							c1.9,0.7,3.3,0.4,4.5,0.5c1,0.1,3.4,0.5,6.1,0c2-0.4,3.4-0.7,4.2-0.9C25.7,27.6,29,26.8,30.3,24.8L30.3,24.8z"/>
						<path class="st5" d="M30,24.7c1.6-2.3,0.4-5.3-0.4-6.9C29,16.5,27.5,15,26,14.4c-1.4-0.6-1.6-2.1-3.8-2.6
							c-2.6-0.5-6.3,1.9-8.5,2.5c-2.3,0.6-6.3,2.2-8.1,4.1c-2.2,2.2-2.9,4.3-2.1,6c0.8,1.5,2,2,2.9,2.6c0.8,0.5,1.8,1,2.7,1.3
							c1.9,0.7,3.2,0.3,4.4,0.4c1,0.1,3.3,0.5,6,0c2-0.4,3.3-0.7,4.1-0.9C25.5,27.3,28.7,26.6,30,24.7z"/>
						<path class="st6" d="M29.7,24.6c1.6-2.2,0.5-5.1-0.3-6.7c-0.6-1.3-2.1-2.7-3.6-3.3c-1.4-0.6-1.4-2.3-3.7-2.8
							c-2.5-0.6-6.3,2-8.4,2.5c-2.3,0.6-6.2,2.2-8,4c-2.1,2.1-3,4.2-2.1,5.9c0.8,1.4,2,1.9,3,2.5c0.9,0.5,1.8,0.9,2.7,1.2
							c1.9,0.6,3.2,0.2,4.3,0.3c1,0.1,3.3,0.5,6,0.1c2-0.4,3.2-0.7,4-0.9C25.4,27.1,28.4,26.4,29.7,24.6L29.7,24.6z"/>
						<path class="st7" d="M29.4,24.5c1.6-2.1,0.6-4.9-0.2-6.4c-0.6-1.2-2-2.5-3.5-3.2c-1.3-0.6-1.3-2.4-3.6-3
							c-2.5-0.6-6.3,2-8.4,2.5c-2.3,0.6-6.2,2.2-7.9,3.9c-2,2-3,4.1-2.1,5.8c0.8,1.4,2,1.8,3,2.4c0.9,0.5,1.8,0.8,2.7,1.1
							c1.9,0.6,3.2,0,4.2,0.2c0.9,0.1,3.2,0.6,5.9,0.1c2-0.3,3.2-0.7,3.9-0.8C25.3,26.8,28.2,26.2,29.4,24.5L29.4,24.5z"/>
						<path class="st8" d="M29.1,24.4c1.6-2,0.7-4.7-0.1-6.1c-0.6-1.2-1.9-2.4-3.4-3.1c-1.3-0.6-1.2-2.5-3.5-3.2
							c-2.5-0.7-6.3,2-8.3,2.6c-2.3,0.6-6.1,2.1-7.7,3.7c-1.9,1.9-3.1,4-2.2,5.7c0.8,1.3,2,1.7,3,2.2c0.9,0.4,1.8,0.8,2.7,1
							c1.9,0.5,3.1,0,4.2,0.1c0.9,0.1,3.1,0.6,5.8,0.2c2-0.3,3.1-0.7,3.8-0.8C25.1,26.5,27.9,26,29.1,24.4L29.1,24.4z"/>
						<path class="st9" d="M28.8,24.2c1.6-1.9,0.7-4.5,0-5.9c-0.6-1.2-1.9-2.3-3.3-2.9c-1.3-0.6-1.1-2.7-3.4-3.3
							c-2.4-0.7-6.3,2.1-8.3,2.6c-2.3,0.6-6,2.1-7.6,3.6c-1.8,1.8-3.1,3.9-2.2,5.6c0.7,1.3,2,1.6,3,2.1C8,26.4,9,26.7,9.9,27
							c1.9,0.5,3.1-0.2,4.1,0c0.9,0.1,3,0.7,5.7,0.2c2-0.3,3-0.8,3.7-0.8C24.9,26.2,27.5,25.8,28.8,24.2L28.8,24.2z"/>
						<path class="st10" d="M28.6,24.1c1.6-1.9,0.8-4.3,0.1-5.6c-0.7-1.1-1.8-2.2-3.2-2.8c-1.2-0.5-1-2.8-3.3-3.5
							c-2.4-0.8-6.2,2.1-8.3,2.7c-2.2,0.6-6,2-7.4,3.5c-1.7,1.7-3.2,3.8-2.2,5.5c0.7,1.3,2,1.5,3.1,2c0.9,0.4,1.9,0.7,2.8,0.9
							c2,0.5,3.1-0.3,4-0.1c0.9,0.2,3,0.7,5.7,0.3c2-0.3,2.9-0.8,3.6-0.8C24.9,25.9,27.3,25.6,28.6,24.1L28.6,24.1z"/>
						<path class="st11" d="M28.3,24c1.6-1.8,0.9-4.1,0.2-5.3c-0.7-1.1-1.7-2.1-3.1-2.6c-1.2-0.5-0.9-2.9-3.2-3.7s-6.2,2.2-8.2,2.7
							c-2.2,0.6-5.9,2-7.3,3.4C5,19.9,3.4,22,4.4,23.7c0.7,1.2,2,1.4,3.1,1.8c0.9,0.3,1.9,0.6,2.8,0.8c2,0.4,3-0.4,3.9-0.2
							s2.9,0.8,5.6,0.3c2-0.3,2.9-0.8,3.5-0.8C24.8,25.6,27,25.3,28.3,24L28.3,24z"/>
						<path class="st12" d="M28,23.9c1.6-1.7,1-3.9,0.2-5.1c-0.7-1.1-1.6-1.9-3-2.5c-1.2-0.5-0.7-3-3.1-3.9s-6.2,2.2-8.2,2.7
							c-2.2,0.6-5.9,1.9-7.2,3.2c-1.5,1.5-3.3,3.6-2.2,5.3c0.7,1.2,2,1.3,3.1,1.7c0.9,0.3,1.9,0.5,2.8,0.7c2,0.4,3-0.5,3.9-0.3
							s2.8,0.8,5.5,0.4c2.1-0.3,2.8-0.8,3.4-0.8C24.6,25.3,26.7,25.1,28,23.9L28,23.9z"/>
						<path class="st13" d="M27.6,23.8c1.6-1.6,1.1-3.7,0.3-4.8c-0.7-1-1.5-1.8-2.9-2.4c-1.1-0.5-0.6-3.2-3-4.1s-6.2,2.2-8.2,2.8
							c-2.2,0.6-5.8,1.9-7,3.1c-1.4,1.4-3.4,3.5-2.3,5.2c0.7,1.1,2,1.2,3.2,1.6c0.9,0.3,1.9,0.5,2.8,0.6c2,0.4,3-0.5,3.8-0.4
							c0.8,0.2,2.7,0.9,5.4,0.4c2.1-0.3,2.7-0.8,3.3-0.8C24.5,25.1,26.5,25,27.6,23.8L27.6,23.8z"/>
						<path class="st14" d="M27.4,23.6c1.6-1.5,1.2-3.5,0.4-4.6c-0.7-1-1.5-1.7-2.8-2.3c-1.1-0.5-0.5-3.3-2.9-4.3s-6.2,2.3-8.1,2.8
							c-2.2,0.6-5.8,1.9-6.9,3c-1.3,1.3-3.4,3.4-2.3,5.1c0.7,1.1,2,1.1,3.2,1.4c0.9,0.3,2,0.4,2.9,0.6c2,0.3,2.9-0.7,3.7-0.5
							c0.8,0.2,2.7,0.9,5.4,0.5c2.1-0.3,2.7-0.8,3.2-0.8C24.4,24.8,26.2,24.8,27.4,23.6L27.4,23.6z"/>
						<path class="st15" d="M27.1,23.5c1.6-1.4,1.2-3.3,0.5-4.3c-0.7-1-1.4-1.6-2.7-2.1c-1.1-0.5-0.4-3.4-2.8-4.5
							c-2.2-1-6.2,2.3-8.1,2.9c-2.2,0.6-5.7,1.8-6.8,2.9c-1.3,1.2-3.5,3.3-2.3,5c0.7,1.1,2,1,3.2,1.3c0.9,0.3,2,0.4,2.9,0.5
							c2,0.3,2.9-0.8,3.6-0.6c0.8,0.2,2.6,0.9,5.3,0.5c2.1-0.3,2.6-0.8,3.1-0.8C24.2,24.5,25.9,24.5,27.1,23.5L27.1,23.5z"/>
						<path class="st16" d="M26.8,23.4c1.6-1.4,1.3-3.1,0.6-4c-0.7-0.9-1.3-1.4-2.6-2c-1-0.4-0.3-3.5-2.7-4.6c-2.2-1-6.1,2.4-8,2.9
							c-2.1,0.6-5.6,1.8-6.6,2.7c-1.2,1.1-3.5,3.2-2.3,4.9c0.7,1,2,0.9,3.2,1.2c0.9,0.2,2,0.3,2.9,0.4c2,0.3,2.9-0.8,3.6-0.7
							c0.8,0.2,2.5,1,5.2,0.6c2.1-0.3,2.5-0.8,3-0.8C24.1,24.2,25.6,24.4,26.8,23.4L26.8,23.4z"/>
						<path class="st17" d="M26.5,23.3c1.6-1.3,1.4-2.8,0.7-3.8c-0.7-0.9-1.2-1.3-2.5-1.9c-1-0.4-0.2-3.6-2.6-4.8
							c-2.2-1.1-6.1,2.4-8,2.9c-2.1,0.6-5.6,1.7-6.5,2.6c-1.1,1-3.6,3.1-2.3,4.8c0.7,1,2,0.8,3.3,1.1c0.9,0.2,2,0.2,2.9,0.3
							c2.1,0.2,2.8-1,3.5-0.8c0.8,0.2,2.4,1,5.1,0.6c2.1-0.3,2.4-0.9,2.9-0.7C24,24,25.4,24.2,26.5,23.3L26.5,23.3z"/>
						<path class="st18" d="M26.2,23.2c1.6-1.2,1.5-2.6,0.8-3.5s-1.1-1.2-2.4-1.7c-1-0.4-0.1-3.8-2.5-5c-2.2-1.1-6.1,2.4-8,3
							c-2.1,0.6-5.5,1.7-6.4,2.5c-1,0.9-3.6,3-2.4,4.7C6,24,7.3,23.8,8.6,24c1,0.2,2.1,0.2,2.9,0.3c2.1,0.2,2.8-1.1,3.4-0.8
							c0.8,0.3,2.3,1.1,5,0.7c2.1-0.3,2.4-0.9,2.8-0.7C23.8,23.7,25,24,26.2,23.2L26.2,23.2z"/>
						<path class="st19" d="M25.9,23c1.6-1.1,1.6-2.4,0.9-3.2c-0.7-0.8-1.1-1.1-2.3-1.6c-0.9-0.4,0.1-3.9-2.4-5.2
							c-2.1-1.1-6.1,2.5-7.9,3c-2.1,0.6-5.5,1.6-6.2,2.3C7,19.2,4.2,21.3,5.5,23c0.7,0.9,1.9,0.5,3.3,0.8c1,0.2,2.1,0.1,2.9,0.2
							c2.1,0.1,2.7-1.1,3.3-0.9c0.8,0.3,2.3,1.1,5,0.7c2.1-0.3,2.3-0.9,2.7-0.7C23.7,23.4,24.8,23.8,25.9,23L25.9,23z"/>
						<path class="st20" d="M25.6,22.9c1.6-1,1.6-2.2,1-3c-0.7-0.8-1-0.9-2.2-1.5c-0.9-0.4,0.2-4-2.3-5.4c-2.1-1.2-6.1,2.5-7.9,3.1
							c-2.1,0.6-5.4,1.6-6.1,2.2c-0.8,0.7-3.8,2.8-2.4,4.5c0.7,0.8,1.9,0.5,3.4,0.7c1,0.1,2.1,0,3,0.1c2.1,0.1,2.7-1.2,3.2-1
							c0.8,0.3,2.2,1.2,4.9,0.8c2.2-0.3,2.2-0.9,2.6-0.7C23.6,23.1,24.5,23.6,25.6,22.9L25.6,22.9z"/>
						<path class="st21" d="M25.3,22.8c1.6-0.9,1.7-2,1-2.7c-0.7-0.8-0.9-0.8-2.1-1.3c-0.9-0.3,0.3-4.1-2.2-5.6
							c-2.1-1.2-6.1,2.6-7.8,3.1c-2.1,0.6-5.4,1.6-6,2.1C7.5,19,4.4,21,5.8,22.8c0.7,0.8,1.9,0.3,3.4,0.5c1,0.1,2.1,0,3,0
							c2.1,0,2.7-1.3,3.2-1.1c0.7,0.3,2.1,1.2,4.8,0.8c2.2-0.3,2.1-0.9,2.5-0.7C23.5,22.8,24.3,23.4,25.3,22.8L25.3,22.8z"/>
					</g>
					<path class="st24" d="M25.4,18.7c0.2-0.5,0.3-1.1,0.3-1.7c0-3.6-3.1-6.4-6.9-6.4c-3.2,0-5.9,2.1-6.7,4.9c-0.1,0-0.1,0-0.2,0
						c-1.5,0-2.8,0.7-3.6,1.8C7.8,17.1,7.4,17,7,17c-1.8,0-3.3,1.4-3.3,3.1c0,1.7,1.5,3.1,3.3,3.1c0.8,0,1.6-0.3,2.1-0.7
						c0.7,0.6,1.7,0.9,2.7,0.9c1.2,0,2.2-0.4,3-1.1c1.1,0.7,2.4,1.1,3.9,1.1c1.3,0,2.6-0.3,3.6-1c0.5,0.6,1.2,0.9,2,0.9
						c1.4,0,2.6-1.1,2.6-2.4C26.9,20,26.3,19.1,25.4,18.7L25.4,18.7z"/>
					
						<linearGradient id="SVGID_00000034069004194579941790000015139243787245879183_" gradientUnits="userSpaceOnUse" x1="3.7147" y1="31.1561" x2="27.0455" y2="31.1561" gradientTransform="matrix(1 0 0 -1 0 48.2384)">
						<stop  offset="0" style="stop-color:#076BBA"/>
						<stop  offset="1" style="stop-color:#0060AB"/>
					</linearGradient>
					<path style="fill:url(#SVGID_00000034069004194579941790000015139243787245879183_);" d="M25.5,18.8c0.2-0.5,0.3-1.1,0.3-1.7
						c0-3.6-3.1-6.4-6.9-6.4c-3.2,0-5.9,2.1-6.7,4.9c-0.1,0-0.1,0-0.2,0c-1.5,0-2.8,0.7-3.6,1.8c-0.4-0.2-0.8-0.2-1.3-0.2
						c-1.8,0-3.3,1.4-3.3,3.1c0,1.7,1.5,3.1,3.3,3.1c0.8,0,1.6-0.3,2.1-0.7c0.7,0.6,1.7,0.9,2.7,0.9c1.2,0,2.2-0.4,3-1.1
						c1.1,0.7,2.4,1.1,3.9,1.1c1.3,0,2.6-0.3,3.6-1c0.5,0.6,1.2,0.9,2,0.9c1.4,0,2.6-1.1,2.6-2.4C27,20,26.4,19.2,25.5,18.8
						L25.5,18.8z"/>
				</g>
				<g>
					<g>
						<path class="st0" d="M44.3,27.3c2-1.6,1.7-6.6,0.6-7.9c-1.4-1.7-2.8-2.8-4-3.4c-1.2-0.6-4.7-1.1-6.3-1.1c-2.2,0-4.4,0.5-6.2,1
							c-1.9,0.5-5.8,1.8-7.6,3.6c-2.1,2.2-0.3,6.5,0.3,7.1c1,1.2,2.2,2.4,3.8,3c1.5,0.7,2.8,0.6,3.8,0.7c0.8,0,4.5,0.4,6.7,0
							c1.5-0.3,4.1-0.7,4.9-1.1C40.9,29,42.6,28.5,44.3,27.3L44.3,27.3z"/>
						<path class="st1" d="M43.9,27.1c2-1.6,1.7-6.4,0.6-7.7c-1.3-1.8-2.8-2.8-4-3.3C39.4,15.5,36,15,34.4,15
							c-2.2,0-4.3,0.5-6.1,0.9c-1.9,0.5-5.7,1.8-7.4,3.6c-2,2.1-0.3,6.3,0.3,6.9c1,1.1,2.1,2.3,3.7,3c1.5,0.6,2.7,0.6,3.8,0.7
							c0.8,0.1,4.4,0.5,6.6,0.1c1.5-0.3,4.1-0.8,4.8-1.1C40.6,28.7,42.3,28.3,43.9,27.1L43.9,27.1z"/>
						<path class="st2" d="M43.6,26.9c2-1.5,1.7-6.1,0.7-7.5c-1.3-1.8-2.7-2.7-4-3.3c-1.2-0.5-4.4-1.1-5.9-1.1c-2.1,0-4.3,0.4-6,0.9
							c-1.9,0.5-5.6,1.8-7.3,3.5c-2,2-0.3,6.1,0.3,6.8c1,1.1,2,2.3,3.6,2.9c1.4,0.6,2.7,0.5,3.7,0.6c0.8,0.1,4.3,0.5,6.4,0.1
							c1.6-0.3,4-0.8,4.7-1.1C40.3,28.5,42,28.1,43.6,26.9z"/>
						<path class="st3" d="M43.3,26.8c1.9-1.5,1.7-5.9,0.7-7.3c-1.3-1.8-2.7-2.6-3.9-3.2c-1.2-0.5-4.2-1.1-5.7-1.1
							c-2.1,0-4.2,0.4-6,0.8c-1.9,0.5-5.6,1.8-7.2,3.4c-1.9,1.9-0.4,5.9,0.3,6.6c0.9,1.1,1.9,2.2,3.5,2.9c1.4,0.6,2.6,0.5,3.6,0.6
							c0.8,0.1,4.1,0.6,6.3,0.2c1.6-0.3,3.9-0.8,4.6-1.2C40.1,28.3,41.7,28,43.3,26.8L43.3,26.8z"/>
						<path class="st4" d="M43,26.6c1.9-1.4,1.7-5.7,0.7-7.1c-1.3-1.8-2.7-2.6-3.9-3.1c-1.1-0.5-4-1-5.5-1.1c-2-0.1-4.1,0.4-5.9,0.8
							c-1.9,0.5-5.5,1.8-7.1,3.4c-1.8,1.9-0.4,5.7,0.2,6.5c0.9,1,1.8,2.2,3.4,2.8c1.4,0.6,2.6,0.4,3.6,0.5c0.8,0.1,4,0.6,6.1,0.3
							c1.6-0.3,3.8-0.9,4.5-1.2S41.4,27.8,43,26.6L43,26.6z"/>
						<path class="st5" d="M42.6,26.4c1.9-1.3,1.7-5.5,0.7-6.9c-1.2-1.8-2.6-2.5-3.8-3.1c-1.1-0.5-3.8-1-5.3-1.1
							c-1.9-0.1-4.1,0.3-5.8,0.8c-1.9,0.5-5.5,1.8-7,3.3c-1.7,1.8-0.5,5.5,0.2,6.3c0.9,1,1.7,2.1,3.3,2.7c1.4,0.5,2.6,0.4,3.5,0.5
							c0.8,0.1,3.8,0.7,6,0.3c1.6-0.3,3.7-0.9,4.3-1.2C39.5,27.7,41.1,27.5,42.6,26.4L42.6,26.4z"/>
						<path class="st6" d="M42.3,26.3C44.2,25,44,21,43,19.6c-1.2-1.8-2.6-2.5-3.8-3c-1.1-0.5-3.7-1-5.1-1.1c-1.9-0.1-4,0.3-5.7,0.7
							c-1.9,0.5-5.4,1.8-6.8,3.2c-1.7,1.7-0.5,5.3,0.2,6.1c0.8,1,1.6,2.1,3.2,2.6c1.4,0.5,2.5,0.4,3.4,0.5c0.8,0.1,3.7,0.8,5.9,0.4
							c1.6-0.3,3.6-1,4.2-1.3C39.2,27.5,40.8,27.4,42.3,26.3L42.3,26.3z"/>
						<path class="st7" d="M42,26.1c1.8-1.3,1.7-5.1,0.7-6.5c-1.2-1.8-2.5-2.4-3.7-2.9c-1.1-0.5-3.5-1-4.9-1.1
							c-1.8-0.1-4,0.3-5.6,0.7c-1.8,0.5-5.4,1.8-6.7,3.2c-1.6,1.6-0.6,5.1,0.2,6c0.8,0.9,1.6,2,3.1,2.6c1.4,0.5,2.5,0.3,3.4,0.4
							c0.8,0.1,3.6,0.8,5.7,0.4c1.6-0.3,3.5-1,4.1-1.3C38.9,27.3,40.4,27.2,42,26.1L42,26.1z"/>
						<path class="st8" d="M41.7,26c1.8-1.2,1.7-4.9,0.7-6.3c-1.2-1.8-2.5-2.4-3.7-2.9c-1-0.5-3.3-1-4.7-1.1
							c-1.8-0.1-3.9,0.2-5.6,0.7c-1.8,0.5-5.3,1.8-6.6,3.1c-1.5,1.5-0.6,4.9,0.2,5.8s1.5,2,3,2.5c1.3,0.5,2.5,0.3,3.3,0.4
							c0.7,0.1,3.4,0.8,5.6,0.5c1.6-0.3,3.5-1,4-1.3C38.6,27,40.1,27,41.7,26L41.7,26z"/>
						<path class="st9" d="M41.3,25.8c1.8-1.1,1.7-4.6,0.7-6.1c-1.1-1.8-2.5-2.3-3.6-2.8c-1-0.5-3.1-1-4.5-1.1
							c-1.7-0.1-3.8,0.2-5.5,0.6c-1.8,0.5-5.2,1.8-6.5,3c-1.5,1.4-0.7,4.7,0.2,5.7c0.7,0.8,1.4,1.9,2.9,2.5c1.3,0.5,2.4,0.2,3.2,0.4
							c0.7,0.1,3.3,0.9,5.5,0.5c1.6-0.3,3.4-1.1,3.9-1.3C38.3,26.8,39.8,26.8,41.3,25.8z"/>
						<path class="st10" d="M41,25.6c1.7-1.1,1.7-4.4,0.8-5.9c-1.1-1.8-2.4-2.3-3.6-2.7c-1-0.4-2.9-0.9-4.3-1.1
							c-1.7-0.2-3.8,0.2-5.4,0.6c-1.8,0.5-5.2,1.8-6.4,3c-1.4,1.4-0.7,4.5,0.2,5.5c0.7,0.8,1.3,1.9,2.8,2.4c1.3,0.4,2.4,0.2,3.2,0.3
							c0.7,0.1,3.1,1,5.3,0.6c1.6-0.3,3.3-1.1,3.8-1.4C37.9,26.6,39.5,26.6,41,25.6L41,25.6z"/>
						<path class="st11" d="M40.7,25.5c1.7-1.1,1.7-4.2,0.8-5.7c-1.1-1.8-2.4-2.2-3.5-2.7c-1-0.4-2.8-0.9-4.1-1.1
							c-1.6-0.2-3.7,0.1-5.3,0.6c-1.8,0.5-5.1,1.8-6.2,2.9c-1.3,1.3-0.8,4.3,0.1,5.3c0.7,0.8,1.2,1.8,2.7,2.3
							c1.3,0.4,2.4,0.1,3.1,0.3c0.7,0.1,3,1,5.2,0.6c1.6-0.3,3.2-1.1,3.7-1.4C37.7,26.3,39.2,26.4,40.7,25.5L40.7,25.5z"/>
						<path class="st12" d="M40.3,25.3c1.7-1,1.7-4,0.8-5.5c-1.1-1.8-2.4-2.1-3.5-2.6c-0.9-0.4-2.6-0.9-3.9-1.1
							c-1.5-0.2-3.6,0.1-5.2,0.5c-1.8,0.5-5.1,1.8-6.1,2.8c-1.2,1.2-0.8,4.1,0.1,5.2c0.6,0.7,1.1,1.8,2.6,2.3c1.3,0.4,2.3,0.1,3,0.2
							c0.7,0.1,2.9,1.1,5,0.7c1.7-0.3,3.1-1.2,3.6-1.4C37.4,26.1,38.9,26.2,40.3,25.3L40.3,25.3z"/>
						<path class="st13" d="M40,25.1c1.6-1,1.7-3.8,0.8-5.3c-1-1.8-2.3-2.1-3.4-2.6c-0.9-0.4-2.4-0.9-3.7-1.1
							c-1.5-0.2-3.6,0.1-5.1,0.5c-1.8,0.5-5,1.8-6,2.8c-1.2,1.1-0.8,3.9,0.1,5c0.6,0.7,1,1.7,2.5,2.2c1.3,0.4,2.3,0.1,3,0.2
							s2.7,1.1,4.9,0.8c1.7-0.3,3-1.2,3.5-1.4C37.1,25.9,38.6,26,40,25.1L40,25.1z"/>
						<path class="st14" d="M39.7,25c1.6-0.9,1.7-3.6,0.8-5.1c-1-1.8-2.3-2-3.4-2.5c-0.9-0.4-2.2-0.9-3.5-1.1
							c-1.4-0.2-3.5,0-5.1,0.5c-1.8,0.5-5,1.8-5.9,2.7c-1.1,1.1-0.9,3.7,0.1,4.8c0.6,0.7,0.9,1.7,2.4,2.1c1.2,0.4,2.2,0,2.9,0.2
							c0.7,0.2,2.6,1.2,4.7,0.8c1.7-0.3,2.9-1.3,3.4-1.5C36.8,25.6,38.2,25.8,39.7,25L39.7,25z"/>
						<path class="st15" d="M39.4,24.8c1.6-0.9,1.7-3.4,0.8-4.9c-1-1.8-2.3-2-3.3-2.4c-0.9-0.4-2-0.9-3.4-1.1c-1.3-0.2-3.4,0-5,0.4
							c-1.7,0.5-4.9,1.8-5.8,2.6c-1,1-0.9,3.5,0.1,4.7c0.6,0.6,0.8,1.6,2.3,2.1c1.2,0.3,2.2,0,2.8,0.1c0.7,0.2,2.4,1.2,4.6,0.9
							c1.7-0.3,2.8-1.3,3.3-1.5C36.5,25.4,37.9,25.6,39.4,24.8L39.4,24.8z"/>
						<path class="st16" d="M39,24.6c1.6-0.8,1.7-3.1,0.8-4.7c-1-1.8-2.2-1.9-3.3-2.4c-0.8-0.3-1.8-0.8-3.2-1.1s-3.4,0-4.9,0.4
							c-1.7,0.5-4.8,1.8-5.7,2.6c-0.9,0.9-1,3.3,0.1,4.5c0.5,0.6,0.7,1.6,2.3,2c1.2,0.3,2.2-0.1,2.8,0.1c0.7,0.2,2.3,1.3,4.5,0.9
							c1.7-0.3,2.8-1.3,3.2-1.5C36.2,25.2,37.6,25.4,39,24.6L39,24.6z"/>
						<path class="st17" d="M38.7,24.5c1.5-0.8,1.7-2.9,0.8-4.5c-0.9-1.8-2.2-1.9-3.2-2.3c-0.8-0.3-1.7-0.8-3-1.1
							c-1.3-0.2-3.3-0.1-4.8,0.3c-1.7,0.5-4.8,1.8-5.5,2.5c-0.9,0.8-1,3.2,0.1,4.4c0.5,0.5,0.6,1.5,2.2,1.9c1.2,0.3,2.1-0.1,2.7,0
							c0.6,0.2,2.2,1.3,4.3,1c1.7-0.3,2.7-1.4,3.1-1.6C35.9,24.9,37.2,25.2,38.7,24.5L38.7,24.5z"/>
						<path class="st18" d="M38.4,24.3c1.5-0.7,1.7-2.7,0.9-4.3c-0.9-1.8-2.2-1.8-3.2-2.2c-0.8-0.3-1.5-0.8-2.8-1.1S30,16.6,28.6,17
							c-1.7,0.5-4.7,1.8-5.4,2.4c-0.8,0.7-1.1,2.9,0,4.2c0.5,0.5,0.5,1.5,2.1,1.9c1.2,0.3,2.1-0.1,2.6,0c0.6,0.2,2,1.4,4.2,1.1
							c1.7-0.3,2.6-1.4,3-1.6C35.6,24.7,37,25,38.4,24.3z"/>
						<path class="st19" d="M38,24.2c1.5-0.7,1.7-2.5,0.9-4.1c-0.9-1.8-2.1-1.8-3.1-2.2c-0.7-0.3-1.3-0.8-2.5-1.1
							c-1.2-0.3-3.2-0.1-4.7,0.3c-1.7,0.5-4.7,1.8-5.3,2.4c-0.7,0.6-1.1,2.8,0,4c0.4,0.5,0.4,1.4,2,1.8c1.2,0.3,2.1-0.2,2.5,0
							c0.6,0.2,1.9,1.4,4.1,1.1c1.7-0.3,2.5-1.4,2.9-1.6C35.3,24.4,36.7,24.8,38,24.2L38,24.2z"/>
						<path class="st20" d="M37.7,24c1.4-0.6,1.7-2.3,0.9-3.9c-0.9-1.8-2.1-1.7-3.1-2.1c-0.7-0.3-1.1-0.8-2.3-1.1
							c-1.1-0.3-3.1-0.2-4.6,0.2c-1.7,0.5-4.6,1.8-5.2,2.3c-0.6,0.6-1.2,2.6,0,3.9c0.4,0.4,0.3,1.4,1.9,1.7c1.1,0.3,2-0.2,2.5-0.1
							c0.6,0.2,1.7,1.5,3.9,1.2c1.7-0.3,2.4-1.5,2.7-1.6C35,24.2,36.3,24.6,37.7,24L37.7,24z"/>
						<path class="st21" d="M37.4,23.8c1.4-0.6,1.7-2.1,0.9-3.7c-0.9-1.8-2.1-1.6-3.1-2.1c-0.7-0.3-0.9-0.8-2.1-1.1
							c-1.1-0.3-3.1-0.2-4.5,0.2c-1.7,0.5-4.6,1.8-5,2.2c-0.6,0.5-1.2,2.4,0,3.7c0.4,0.4,0.2,1.3,1.8,1.7c1.1,0.2,2-0.3,2.4-0.1
							c0.6,0.2,1.6,1.5,3.8,1.2c1.7-0.3,2.3-1.5,2.6-1.7C34.7,24,36,24.4,37.4,23.8z"/>
					</g>
					<path class="st24" d="M35.5,17.7c0,0-0.2,0-0.2,0c-0.4-1.1-1.5-1.8-2.8-1.8c-0.4,0-0.8,0.1-1.1,0.2c-0.4-1-1.5-1.8-2.7-1.8
						s-2.2,0.7-2.7,1.7c-0.1,0-0.3,0-0.4,0c-1.3,0-2.4,0.9-2.5,2.1c-0.2,0-0.4,0-0.6,0c-1.6,0-2.8,1.2-2.8,2.6s1.3,2.6,2.8,2.6
						c0,0,0.1,0,0.1,0c0.3,1.1,1.3,1.9,2.5,1.9c1,0,1.8-0.5,2.2-1.2c0.6,1,1.8,1.7,3.1,1.7c1.5,0,2.7-0.8,3.3-2
						c0.5,0.3,1.1,0.4,1.7,0.4c1.9,0,3.4-1.4,3.4-3.2C39,19.1,37.4,17.6,35.5,17.7L35.5,17.7z"/>
					
						<linearGradient id="SVGID_00000148641635581960937460000001847950856190082223_" gradientUnits="userSpaceOnUse" x1="19.85" y1="28.2319" x2="39.0379" y2="28.2319" gradientTransform="matrix(1 0 0 -1 0 48.2384)">
						<stop  offset="0" style="stop-color:#076BBA"/>
						<stop  offset="1" style="stop-color:#0060AB"/>
					</linearGradient>
					<path style="fill:url(#SVGID_00000148641635581960937460000001847950856190082223_);" d="M35.6,17.8c0,0-0.2,0-0.2,0
						c-0.4-1.1-1.5-1.9-2.8-1.9c-0.4,0-0.8,0.1-1.1,0.2c-0.4-1-1.5-1.8-2.7-1.8c-1.2,0-2.2,0.7-2.7,1.7c-0.1,0-0.3,0-0.4,0
						c-1.3,0-2.4,0.9-2.5,2.1c-0.2,0-0.4,0-0.6,0c-1.6,0-2.8,1.2-2.8,2.6c0,1.5,1.3,2.6,2.8,2.6c0,0,0.1,0,0.1,0
						c0.3,1.1,1.3,1.9,2.5,1.9c1,0,1.8-0.5,2.2-1.2c0.6,1,1.8,1.7,3.1,1.7c1.5,0,2.7-0.8,3.3-2c0.5,0.3,1.1,0.4,1.7,0.4
						c1.9,0,3.4-1.4,3.4-3.2C39.1,19.2,37.5,17.7,35.6,17.8L35.6,17.8z"/>
				</g>
				<g>
					<g>
						<path class="st0" d="M41.8,21.4c2.4-2.3,2.2-7.1,0.9-8.8c-1.7-2.2-3.9-3.1-5.5-3.8c-1.6-0.8-3.9-1.4-6-1.7
							c-2.5-0.3-5.3,0.7-7.6,1.2c-2.5,0.6-10.2,3.1-12.5,5.4c-1.3,1.3-1.6,3-1.4,4.6c0.2,1.8,1.1,3.4,1.4,3.8c1.3,1.5,6.1,3,8,3.9
							c1.9,0.8,3.5,0.8,4.9,0.9c1.1,0.1,4.1,0,6.9-0.5c2-0.4,3.9-1.8,4.9-2.3C36.8,23.7,40,23.2,41.8,21.4L41.8,21.4z"/>
						<path class="st1" d="M41.4,21.3c2.4-2.3,2.3-6.9,0.9-8.7c-1.7-2.2-3.8-3-5.4-3.7c-1.6-0.7-3.8-1.4-5.8-1.7
							c-2.4-0.4-5.1,0.6-7.4,1.2c-2.5,0.6-10.2,3.1-12.5,5.3c-1.3,1.3-1.6,3-1.4,4.5c0.3,1.7,1.1,3.2,1.5,3.7c1.3,1.4,5.8,3,7.8,3.8
							c1.9,0.8,3.5,0.7,4.8,0.8c1.1,0.1,3.9,0.1,6.8-0.5c2-0.4,3.9-1.8,4.8-2.3C36.6,23.4,39.6,23,41.4,21.3L41.4,21.3z"/>
						<path class="st2" d="M41.1,21.1c2.4-2.2,2.3-6.8,1-8.5c-1.7-2.2-3.7-2.9-5.3-3.7c-1.5-0.7-3.6-1.4-5.7-1.7
							c-2.4-0.4-5,0.5-7.3,1.1c-2.5,0.6-10.3,3.1-12.5,5.2c-1.3,1.3-1.6,3-1.4,4.5c0.3,1.7,1.2,3.1,1.7,3.6c1.3,1.3,5.6,2.9,7.6,3.7
							c1.8,0.8,3.4,0.7,4.7,0.8c1,0.1,3.8,0.2,6.7-0.4c2-0.4,3.8-1.9,4.7-2.3C36.3,23.2,39.3,22.8,41.1,21.1L41.1,21.1z"/>
						<path class="st3" d="M40.7,21c2.3-2.1,2.3-6.6,1-8.3c-1.6-2.1-3.6-2.9-5.2-3.6C35,8.5,33.1,7.8,31,7.5
							c-2.3-0.4-4.9,0.5-7.1,1.1c-2.4,0.6-10.3,3-12.4,5.1c-1.3,1.2-1.6,2.9-1.3,4.4c0.3,1.7,1.3,3,1.8,3.4c1.3,1.2,5.4,2.8,7.4,3.7
							c1.8,0.8,3.4,0.6,4.6,0.7c1,0.1,3.7,0.3,6.6-0.3c2-0.4,3.8-1.9,4.6-2.3C36.1,23,38.9,22.6,40.7,21z"/>
						<path class="st4" d="M40.4,20.9c2.3-2,2.3-6.4,1-8.1c-1.6-2.1-3.5-2.8-5.1-3.5C34.9,8.6,33,8,31,7.7c-2.3-0.4-4.7,0.5-7,1.1
							c-2.4,0.6-10.3,3-12.4,5c-1.3,1.2-1.6,2.9-1.3,4.4c0.3,1.6,1.4,2.9,1.9,3.3c1.3,1.1,5.2,2.8,7.2,3.6c1.8,0.7,3.3,0.6,4.6,0.7
							c1,0.1,3.6,0.4,6.6-0.2c2-0.4,3.7-1.9,4.6-2.3C36,22.7,38.6,22.5,40.4,20.9L40.4,20.9z"/>
						<path class="st5" d="M40,20.7c2.3-1.9,2.3-6.2,1.1-7.9c-1.6-2.1-3.5-2.7-5-3.4c-1.4-0.7-3.2-1.3-5.2-1.6
							c-2.2-0.4-4.6,0.4-6.9,1c-2.4,0.6-10.3,3-12.3,4.9c-1.3,1.2-1.6,2.8-1.3,4.3c0.4,1.6,1.5,2.8,2,3.2c1.3,1,5,2.7,7,3.5
							c1.8,0.7,3.3,0.5,4.5,0.6c1,0.1,3.4,0.5,6.5-0.2c2-0.4,3.6-1.9,4.5-2.3C35.6,22.5,38.2,22.2,40,20.7L40,20.7z"/>
						<path class="st6" d="M39.6,20.6c2.2-1.9,2.3-6,1.1-7.7c-1.5-2.1-3.4-2.6-4.9-3.3c-1.4-0.6-3.1-1.3-5-1.6
							c-2.1-0.4-4.5,0.3-6.7,1c-2.4,0.6-10.4,3-12.3,4.8c-1.3,1.1-1.6,2.8-1.2,4.2c0.4,1.6,1.6,2.7,2.1,3.1c1.3,0.9,4.8,2.6,6.8,3.4
							c1.8,0.7,3.2,0.4,4.4,0.6c1,0.1,3.3,0.6,6.4-0.1c2-0.4,3.6-1.9,4.4-2.3C35.5,22.2,37.8,22.1,39.6,20.6L39.6,20.6z"/>
						<path class="st7" d="M39.3,20.4c2.2-1.8,2.3-5.8,1.1-7.5c-1.5-2-3.3-2.6-4.8-3.2c-1.4-0.6-2.9-1.2-4.9-1.6
							c-2-0.4-4.4,0.3-6.6,0.9c-2.3,0.7-10.4,3-12.3,4.7c-1.3,1.1-1.6,2.8-1.2,4.2c0.4,1.5,1.6,2.6,2.3,3c1.3,0.9,4.6,2.6,6.6,3.3
							c1.7,0.6,3.1,0.4,4.3,0.5c1,0.1,3.2,0.7,6.3,0c2-0.4,3.5-2,4.3-2.3C35.3,21.9,37.5,21.8,39.3,20.4L39.3,20.4z"/>
						<path class="st8" d="M38.9,20.3c2.2-1.7,2.3-5.6,1.1-7.3c-1.4-2-3.2-2.5-4.7-3.1c-1.3-0.6-2.8-1.2-4.7-1.6
							c-2-0.4-4.2,0.2-6.4,0.9c-2.3,0.7-10.4,3-12.2,4.5c-1.3,1.1-1.6,2.7-1.2,4.1c0.5,1.5,1.7,2.5,2.4,2.9c1.2,0.8,4.4,2.5,6.3,3.2
							c1.7,0.6,3.1,0.3,4.2,0.5c1,0.1,3.1,0.8,6.3,0.1c2-0.4,3.5-2,4.2-2.3C35,21.7,37.1,21.7,38.9,20.3L38.9,20.3z"/>
						<path class="st9" d="M38.6,20.2c2.2-1.6,2.3-5.5,1.2-7.1c-1.4-2-3.1-2.4-4.6-3.1c-1.3-0.6-2.6-1.2-4.6-1.6
							c-2-0.4-4.1,0.2-6.3,0.8c-2.3,0.7-10.4,3-12.2,4.4c-1.3,1.1-1.6,2.7-1.1,4c0.5,1.5,1.7,2.5,2.5,2.8c1,0.9,4.1,2.4,6.1,3.1
							c1.7,0.6,3,0.3,4.1,0.4c0.9,0.2,2.9,0.9,6.2,0.2c2-0.4,3.4-2,4.1-2.3C34.8,21.5,36.8,21.5,38.6,20.2L38.6,20.2z"/>
						<path class="st10" d="M38.2,20c2.1-1.6,2.3-5.3,1.2-6.9c-1.4-1.9-3.1-2.3-4.5-3c-1.3-0.5-2.4-1.1-4.4-1.6s-4,0.1-6.2,0.8
							c-2.3,0.7-10.5,3-12.1,4.3c-1.3,1-1.6,2.6-1.1,4c0.5,1.4,1.8,2.4,2.6,2.7c1,0.8,3.9,2.4,5.9,3c1.7,0.6,3,0.2,4,0.4
							c0.9,0.2,2.8,1,6.1,0.3c2.1-0.5,3.4-2,4-2.4C34.6,21.2,36.4,21.3,38.2,20z"/>
						<path class="st11" d="M37.8,19.9c2.1-1.5,2.3-5.1,1.2-6.7c-1.3-1.9-3-2.3-4.4-2.9c-1.2-0.5-2.3-1.1-4.3-1.6
							c-1.9-0.4-3.9,0.1-6,0.7c-2.3,0.7-10.5,3-12.1,4.2c-1.3,1-1.6,2.6-1.1,3.9c0.5,1.4,1.9,2.3,2.8,2.6c1,0.8,3.7,2.3,5.7,2.9
							c1.6,0.5,2.9,0.1,3.9,0.3c0.9,0.2,2.7,1.1,6,0.3c2.1-0.5,3.3-2,3.9-2.4C34.3,21,36.1,21.2,37.8,19.9L37.8,19.9z"/>
						<path class="st12" d="M37.5,19.7c2.1-1.4,2.3-4.9,1.3-6.5c-1.3-1.9-2.9-2.2-4.3-2.8c-1.2-0.5-2.2-1.1-4.2-1.6
							c-1.8-0.4-3.7,0-5.9,0.7c-2.2,0.7-10.6,3-12.1,4.1c-1.3,1-1.6,2.6-1,3.8c0.6,1.4,2,2.2,2.9,2.5c1,0.7,3.5,2.2,5.5,2.8
							c1.6,0.5,2.9,0.1,3.8,0.3c0.9,0.2,2.6,1.2,6,0.4c2.1-0.5,3.2-2.1,3.9-2.4C34.1,20.7,35.7,20.9,37.5,19.7L37.5,19.7z"/>
						<path class="st13" d="M37.1,19.6c2-1.3,2.3-4.7,1.3-6.3c-1.2-1.9-2.8-2.1-4.2-2.7c-1.1-0.5-2-1.1-4-1.5
							c-1.7-0.4-3.6,0-5.7,0.6c-2.2,0.7-10.6,2.9-12,4c-1.3,0.9-1.6,2.5-1,3.8c0.6,1.3,2,2.1,3,2.4c0.9,0.6,3.3,2.1,5.3,2.8
							c1.6,0.5,2.8,0,3.7,0.2c0.9,0.2,2.4,1.3,5.9,0.5c2.1-0.5,3.2-2.1,3.8-2.4C33.9,20.5,35.3,20.8,37.1,19.6L37.1,19.6z"/>
						<path class="st14" d="M36.8,19.5c2-1.2,2.3-4.5,1.3-6.1c-1.2-1.8-2.7-2-4.1-2.6c-1.1-0.5-1.9-1-3.9-1.5
							c-1.7-0.4-3.5-0.1-5.6,0.6c-2.2,0.7-10.6,2.9-12,3.9c-1.3,0.9-1.6,2.5-1,3.7c0.6,1.3,2.2,1.9,3.1,2.3c1,0.4,3.1,2.1,5.1,2.7
							c1.6,0.5,2.8,0,3.6,0.2c0.9,0.2,2.3,1.4,5.8,0.6c2.1-0.5,3.1-2.1,3.7-2.4C33.7,20.2,35,20.6,36.8,19.5L36.8,19.5z"/>
						<path class="st15" d="M36.4,19.3c2-1.2,2.3-4.3,1.3-5.9c-1.2-1.8-2.7-2-4-2.5c-1.1-0.5-1.7-1-3.7-1.5
							c-1.6-0.4-3.3-0.1-5.4,0.5c-2.2,0.7-10.7,2.9-11.9,3.7s-1.6,2.5-1,3.6c0.7,1.3,2.2,1.8,3.3,2.1c0.9,0.3,2.9,2,4.9,2.6
							c1.6,0.4,2.7-0.1,3.5,0.1c0.8,0.2,2.2,1.5,5.7,0.6c2.1-0.5,3.1-2.1,3.6-2.4C33.4,20,34.6,20.4,36.4,19.3L36.4,19.3z"/>
						<path class="st16" d="M36,19.2c1.9-1.1,2.4-4.2,1.4-5.7c-1.1-1.8-2.6-1.9-3.9-2.5c-1-0.4-1.6-1-3.6-1.5
							c-1.6-0.4-3.2-0.2-5.3,0.5c-2.2,0.7-10.7,2.9-11.9,3.6c-1.3,0.8-1.5,2.4-0.9,3.6c0.7,1.3,2.3,1.7,3.4,2
							c0.9,0.3,2.6,1.9,4.7,2.5c1.5,0.4,2.6-0.2,3.4,0c0.8,0.2,2.1,1.6,5.7,0.7c2.1-0.5,3-2.1,3.5-2.4C33.2,19.7,34.3,20.2,36,19.2z
							"/>
						<path class="st17" d="M35.7,19c1.9-1,2.4-4,1.4-5.5c-1.1-1.7-2.5-1.8-3.8-2.4c-1-0.4-1.4-0.9-3.4-1.5
							c-1.5-0.4-3.1-0.2-5.1,0.4C22.6,10.8,14,13,12.9,13.6c-1.3,0.8-1.5,2.4-0.9,3.5c0.7,1.2,2.4,1.6,3.5,1.9
							c0.9,0.3,2.4,1.9,4.4,2.4c1.5,0.4,2.6-0.2,3.3,0c0.8,0.2,1.9,1.7,5.6,0.8c2.1-0.5,2.9-2.1,3.4-2.4C33,19.4,33.9,20,35.7,19
							L35.7,19z"/>
						<path class="st18" d="M35.3,18.9c1.9-0.9,2.4-3.8,1.4-5.3c-1-1.7-2.4-1.8-3.7-2.3c-1-0.4-1.3-0.9-3.3-1.5
							c-1.4-0.4-3-0.3-5,0.4C22.7,10.9,14,13.1,13,13.6c-1.3,0.8-1.5,2.4-0.9,3.4c0.8,1.2,2.4,1.5,3.6,1.8c0.8,0.2,2.2,1.8,4.2,2.3
							c1.5,0.4,2.5-0.3,3.2-0.1c0.8,0.3,1.8,1.8,5.5,0.9c2.1-0.5,2.9-2.2,3.3-2.4C32.7,19.2,33.6,19.8,35.3,18.9L35.3,18.9z"/>
						<path class="st19" d="M34.9,18.8c1.8-0.9,2.4-3.6,1.5-5.1c-1-1.7-2.3-1.7-3.6-2.2c-0.9-0.4-1.1-0.8-3.1-1.4
							c-1.4-0.4-2.8-0.3-4.9,0.3C22.7,11,14,13.1,13.1,13.6c-1.4,0.7-1.5,2.3-0.8,3.4c0.8,1.2,2.5,1.4,3.7,1.7c0.8,0.2,2,1.7,4,2.2
							c1.5,0.3,2.5-0.3,3.1-0.1c0.8,0.3,1.7,1.9,5.4,1c2.1-0.5,2.8-2.2,3.3-2.4C32.5,18.9,33.2,19.6,34.9,18.8L34.9,18.8z"/>
						<path class="st20" d="M34.6,18.6c1.8-0.8,2.4-3.4,1.5-4.9c-1-1.6-2.2-1.6-3.5-2.1c-0.9-0.4-1-0.8-3-1.4
							c-1.3-0.4-2.7-0.4-4.7,0.3c-2.1,0.7-10.9,2.8-11.7,3.2c-1.4,0.6-1.5,2.3-0.8,3.3c0.8,1.1,2.6,1.4,3.9,1.6
							c0.7,0.1,1.8,1.7,3.8,2.1c1.4,0.3,2.4-0.4,3-0.2c0.8,0.3,1.6,2,5.3,1c2.1-0.5,2.8-2.2,3.2-2.4C32.3,18.7,32.8,19.4,34.6,18.6
							L34.6,18.6z"/>
						<path class="st21" d="M34.2,18.5c1.8-0.7,2.4-3.2,1.5-4.7c-0.9-1.6-2.1-1.5-3.4-2c-0.9-0.3-0.8-0.8-2.8-1.4
							C28.3,9.9,27,9.9,25,10.5c-2.1,0.7-10.9,2.7-11.7,3.1c-1.4,0.6-1.5,2.2-0.8,3.2c0.8,1.1,2.6,1.3,4,1.5c0.7,0.1,1.6,1.6,3.6,2
							c1.4,0.3,2.3-0.4,2.9-0.2c0.7,0.3,1.4,2.1,5.3,1.1c2.1-0.5,2.7-2.2,3.1-2.4C32.1,18.4,32.5,19.2,34.2,18.5L34.2,18.5z"/>
					</g>
					<path class="st27" d="M32.7,11.2c-0.2,0-0.3,0-0.5,0c-0.6-1.6-2.2-2.7-4-2.7c-0.9,0-1.7,0.2-2.3,0.7c-0.5-1.2-1.7-2-3.1-2
						c-1.6,0-3,1.1-3.2,2.5c-0.5-0.3-1-0.5-1.6-0.5c-1.4,0-2.5,1-2.7,2.2c0,0,0,0,0,0c-2.2,0-3.9,1.6-3.9,3.7s1.8,3.7,3.9,3.7
						c0.7,0,1.3-0.2,1.9-0.5c0.2,1.3,1.4,2.3,2.8,2.3c1.1,0,2.1-0.6,2.5-1.5c0.9,1.2,2.3,2,4,2c2.1,0,4-1.3,4.6-3.1
						c0.5,0.3,1.1,0.4,1.7,0.4c2.1,0,3.8-1.6,3.8-3.5S34.9,11.3,32.7,11.2L32.7,11.2z"/>
					<path class="st28" d="M32.8,11.3c-0.2,0-0.3,0-0.5,0c-0.6-1.6-2.2-2.7-4-2.7c-0.9,0-1.7,0.2-2.3,0.7c-0.5-1.2-1.7-2-3.1-2
						c-1.6,0-3,1.1-3.2,2.5c-0.5-0.3-1-0.5-1.6-0.5c-1.4,0-2.5,1-2.7,2.2h0c-2.2,0-3.9,1.6-3.9,3.7s1.8,3.7,3.9,3.7
						c0.7,0,1.3-0.2,1.9-0.5c0.2,1.3,1.4,2.3,2.8,2.3c1.1,0,2.1-0.6,2.5-1.5c0.9,1.2,2.3,2,4,2c2.1,0,4-1.3,4.6-3.1
						c0.5,0.3,1.1,0.4,1.7,0.4c2.1,0,3.8-1.6,3.8-3.5S35,11.4,32.8,11.3L32.8,11.3z"/>
				</g>
				<g>
					<g>
						<path class="st0" d="M26.7,26.3c1.2-1.7,0.6-4.9-0.2-6c-1.1-1.5-2.6-2.1-3.7-2.6c-1-0.5-3.3-1.3-4.6-1.3c-1.9,0-2.8,0.6-4.3,1
							c-1.6,0.4-4.4,2.8-5.9,4.3c-1.8,1.8-1.3,4.5-0.9,5.1c0.9,1,1.9,2,3.2,2.6c1.2,0.5,2.3,0.5,3.2,0.6c0.7,0,1.5,0.4,3.3,0
							c1.3-0.3,1.9-0.3,2.6-0.5C20.8,29,25.2,28.4,26.7,26.3L26.7,26.3z"/>
						<path class="st1" d="M26.5,26.2c1.2-1.7,0.7-4.8-0.1-5.9c-1.1-1.5-2.6-2.1-3.7-2.6c-1-0.5-3.2-1.4-4.5-1.4
							c-1.8,0-2.8,0.6-4.3,1c-1.6,0.4-4.3,2.8-5.8,4.2c-1.7,1.8-1.4,4.4-0.9,5c0.8,1,1.8,1.9,3.1,2.5c1.2,0.5,2.3,0.5,3.2,0.5
							c0.7,0,1.5,0.4,3.3,0c1.3-0.3,1.9-0.4,2.6-0.5C20.7,28.8,25,28.2,26.5,26.2z"/>
						<path class="st2" d="M26.2,26.2c1.2-1.6,0.8-4.6-0.1-5.7c-1.1-1.5-2.6-2-3.6-2.5c-1-0.5-3.2-1.4-4.4-1.4
							c-1.8,0-2.8,0.6-4.3,0.9c-1.6,0.4-4.2,2.7-5.7,4.2c-1.6,1.7-1.4,4.3-0.9,4.9C8,27.5,9,28.4,10.3,29c1.3,0.5,2.3,0.4,3.1,0.5
							c0.7,0.1,1.5,0.4,3.3,0c1.3-0.3,1.9-0.4,2.6-0.5C20.6,28.6,24.7,28.1,26.2,26.2L26.2,26.2z"/>
						<path class="st3" d="M26,26.1c1.2-1.6,0.9-4.4,0-5.6c-1.1-1.5-2.6-2-3.6-2.5c-1-0.5-3.1-1.4-4.4-1.4c-1.7,0-2.8,0.5-4.2,0.9
							c-1.6,0.4-4.2,2.7-5.5,4.1c-1.6,1.6-1.5,4.2-0.9,4.8c0.8,0.9,1.7,1.8,3,2.3c1.3,0.5,2.2,0.3,3.1,0.4c0.7,0.1,1.5,0.4,3.3,0
							c1.3-0.3,2-0.4,2.6-0.5C20.6,28.3,24.5,27.9,26,26.1L26,26.1z"/>
						<path class="st4" d="M25.7,26c1.2-1.5,0.9-4.2,0.1-5.4c-1.1-1.5-2.6-2-3.6-2.4c-1-0.4-3-1.4-4.3-1.4c-1.7-0.1-2.8,0.5-4.2,0.9
							c-1.6,0.4-4.1,2.7-5.4,4c-1.5,1.6-1.5,4-0.9,4.7c0.8,0.9,1.6,1.8,3,2.3s2.2,0.3,3.1,0.4c0.7,0.1,1.5,0.4,3.3,0
							c1.3-0.2,2-0.4,2.6-0.5C20.5,28.2,24.3,27.8,25.7,26L25.7,26z"/>
						<path class="st5" d="M25.4,25.9c1.2-1.4,1-4.1,0.2-5.3c-1-1.5-2.6-1.9-3.6-2.4c-0.9-0.4-2.9-1.4-4.2-1.5
							c-1.6-0.1-2.8,0.5-4.2,0.8c-1.6,0.4-4,2.7-5.3,3.9c-1.5,1.5-1.5,3.9-1,4.6c0.7,0.8,1.6,1.7,2.9,2.2s2.2,0.2,3,0.3
							c0.7,0.1,1.5,0.4,3.3,0c1.3-0.2,2-0.4,2.6-0.5C20.4,27.9,24,27.6,25.4,25.9z"/>
						<path class="st6" d="M25.2,25.9c1.2-1.4,1.1-3.9,0.3-5.1c-1-1.5-2.6-1.9-3.6-2.4C21,18,19.1,17,17.9,16.9
							c-1.6-0.1-2.7,0.4-4.2,0.8c-1.6,0.4-4,2.6-5.2,3.8c-1.4,1.4-1.6,3.8-1,4.5c0.7,0.8,1.5,1.7,2.9,2.1c1.3,0.4,2.2,0.2,3,0.3
							c0.6,0.1,1.5,0.4,3.3,0c1.3-0.2,2-0.4,2.6-0.5C20.4,27.7,23.8,27.5,25.2,25.9L25.2,25.9z"/>
						<path class="st7" d="M24.9,25.8c1.2-1.3,1.2-3.8,0.4-5c-1-1.5-2.6-1.9-3.5-2.3c-0.9-0.4-2.7-1.4-4-1.5
							c-1.5-0.1-2.7,0.4-4.1,0.7c-1.5,0.4-3.9,2.6-5,3.8c-1.3,1.3-1.6,3.6-1,4.4s1.5,1.6,2.8,2c1.3,0.4,2.2,0.1,2.9,0.2
							c0.6,0.1,1.5,0.4,3.3,0c1.3-0.2,2-0.4,2.6-0.5C20.3,27.5,23.5,27.3,24.9,25.8z"/>
						<path class="st8" d="M24.7,25.7c1.2-1.3,1.2-3.6,0.5-4.8c-1-1.5-2.5-1.8-3.5-2.3c-0.9-0.4-2.7-1.4-3.9-1.5
							c-1.5-0.1-2.7,0.3-4.1,0.7c-1.5,0.4-3.8,2.6-4.9,3.7c-1.3,1.3-1.7,3.5-1,4.2c0.7,0.8,1.4,1.6,2.8,2s2.2,0.1,2.9,0.2
							c0.6,0.1,1.5,0.4,3.3,0.1c1.4-0.2,2-0.4,2.6-0.5C20.2,27.3,23.3,27.2,24.7,25.7L24.7,25.7z"/>
						<path class="st9" d="M24.4,25.6c1.2-1.2,1.3-3.4,0.5-4.7c-1-1.5-2.5-1.8-3.5-2.2c-0.8-0.4-2.6-1.4-3.8-1.5
							c-1.4-0.1-2.7,0.3-4.1,0.7c-1.5,0.4-3.8,2.6-4.8,3.6c-1.2,1.2-1.7,3.4-1,4.2c0.6,0.7,1.4,1.6,2.7,1.9c1.3,0.3,2.1,0,2.8,0.1
							c0.6,0.1,1.5,0.4,3.3,0.1c1.4-0.2,2.1-0.4,2.6-0.5C20.1,27.1,23,27,24.4,25.6L24.4,25.6z"/>
						<path class="st10" d="M24.2,25.6c1.2-1.1,1.4-3.3,0.6-4.5c-0.9-1.5-2.5-1.8-3.5-2.2c-0.8-0.4-2.5-1.4-3.7-1.6
							c-1.4-0.1-2.7,0.3-4.1,0.6c-1.5,0.4-3.7,2.5-4.7,3.5c-1.2,1.1-1.8,3.2-1.1,4c0.6,0.7,1.3,1.5,2.7,1.8s2.1,0,2.8,0.1
							c0.6,0.1,1.4,0.4,3.3,0.1c1.4-0.2,2.1-0.5,2.5-0.5C20.1,26.9,22.8,26.9,24.2,25.6L24.2,25.6z"/>
						<path class="st11" d="M23.9,25.5c1.2-1.1,1.5-3.1,0.7-4.3c-0.9-1.5-2.5-1.7-3.5-2.1c-0.8-0.3-2.4-1.5-3.6-1.6
							c-1.3-0.1-2.7,0.2-4,0.6c-1.5,0.4-3.6,2.5-4.6,3.4c-1.1,1.1-1.8,3.1-1.1,3.9c0.6,0.6,1.3,1.5,2.6,1.8s2.1-0.1,2.7,0
							c0.6,0.1,1.4,0.4,3.3,0.1c1.4-0.2,2.1-0.5,2.5-0.5C20,26.7,22.5,26.7,23.9,25.5L23.9,25.5z"/>
						<path class="st12" d="M23.6,25.4c1.2-1,1.5-2.9,0.8-4.2c-0.9-1.5-2.5-1.7-3.4-2.1c-0.8-0.3-2.3-1.5-3.5-1.6
							c-1.3-0.2-2.7,0.2-4,0.5c-1.5,0.4-3.6,2.5-4.4,3.4c-1,1-1.9,3-1.1,3.8c0.5,0.6,1.2,1.4,2.5,1.7s2.1-0.2,2.7,0s1.4,0.4,3.3,0.1
							c1.4-0.2,2.1-0.5,2.5-0.5C19.9,26.5,22.3,26.6,23.6,25.4z"/>
						<path class="st13" d="M23.4,25.3c1.2-1,1.6-2.8,0.9-4c-0.9-1.5-2.5-1.7-3.4-2.1c-0.8-0.3-2.2-1.5-3.4-1.6
							c-1.3-0.2-2.7,0.1-4,0.5c-1.5,0.4-3.5,2.5-4.3,3.3c-1,0.9-1.9,2.8-1.1,3.7c0.5,0.6,1.1,1.4,2.5,1.6c1.4,0.2,2.1-0.2,2.7-0.1
							c0.6,0.1,1.4,0.4,3.3,0.1c1.4-0.2,2.1-0.5,2.5-0.5C19.9,26.3,22.1,26.4,23.4,25.3L23.4,25.3z"/>
						<path class="st14" d="M23.1,25.3c1.2-0.9,1.7-2.6,1-3.9c-0.9-1.5-2.5-1.6-3.4-2c-0.7-0.3-2.2-1.5-3.3-1.6
							c-1.2-0.2-2.7,0.1-4,0.5c-1.5,0.4-3.4,2.4-4.2,3.2c-0.9,0.9-2,2.7-1.1,3.6c0.5,0.5,1.1,1.3,2.4,1.5c1.4,0.2,2.1-0.3,2.6-0.1
							c0.6,0.1,1.4,0.4,3.2,0.1c1.4-0.2,2.2-0.5,2.5-0.5C19.7,26.1,21.8,26.3,23.1,25.3L23.1,25.3z"/>
						<path class="st15" d="M22.9,25.2c1.2-0.9,1.8-2.4,1.1-3.7c-0.8-1.5-2.5-1.6-3.4-2c-0.7-0.3-2.1-1.5-3.2-1.7
							c-1.1-0.2-2.6,0.1-3.9,0.4c-1.5,0.4-3.3,2.4-4.1,3.1c-0.8,0.8-2,2.6-1.2,3.5c0.5,0.5,1,1.3,2.4,1.5c1.4,0.2,2-0.3,2.5-0.2
							c0.6,0.1,1.4,0.4,3.2,0.1c1.4-0.2,2.2-0.5,2.5-0.5C19.7,25.8,21.6,26.1,22.9,25.2z"/>
						<path class="st16" d="M22.6,25.1c1.2-0.8,1.8-2.3,1.1-3.6C23,20,21.3,20,20.4,19.6c-0.7-0.3-2-1.5-3.1-1.7s-2.6,0-3.9,0.4
							c-1.4,0.4-3.3,2.4-3.9,3c-0.8,0.8-2.1,2.4-1.2,3.4c0.4,0.5,1,1.2,2.3,1.4c1.4,0.2,2-0.4,2.5-0.3c0.6,0.2,1.4,0.4,3.2,0.1
							c1.4-0.2,2.2-0.5,2.5-0.5C19.6,25.6,21.4,25.9,22.6,25.1L22.6,25.1z"/>
						<path class="st17" d="M22.3,25c1.2-0.7,1.9-2.1,1.2-3.4c-0.8-1.5-2.5-1.5-3.3-1.9c-0.7-0.3-1.9-1.5-3-1.7s-2.6,0-3.9,0.3
							c-1.4,0.4-3.2,2.4-3.8,2.9c-0.7,0.7-2.1,2.3-1.2,3.3c0.4,0.5,0.9,1.2,2.3,1.3s2-0.4,2.5-0.3c0.5,0.2,1.4,0.4,3.2,0.1
							c1.4-0.2,2.2-0.5,2.5-0.5C19.6,25.5,21.1,25.8,22.3,25L22.3,25z"/>
						<path class="st18" d="M22.1,25c1.2-0.7,2-1.9,1.3-3.3c-0.8-1.5-2.5-1.5-3.3-1.9c-0.6-0.3-1.8-1.5-2.9-1.7
							c-1.1-0.2-2.6-0.1-3.9,0.3c-1.4,0.4-3.1,2.3-3.7,2.9c-0.7,0.6-2.1,2.2-1.2,3.2c0.4,0.4,0.9,1.1,2.2,1.2c1.4,0.1,2-0.5,2.4-0.4
							c0.5,0.2,1.4,0.4,3.2,0.1c1.4-0.2,2.2-0.5,2.5-0.4C19.5,25.2,20.9,25.6,22.1,25L22.1,25z"/>
						<path class="st19" d="M21.8,24.9c1.2-0.6,2-1.8,1.4-3.1c-0.8-1.5-2.4-1.5-3.3-1.8c-0.6-0.3-1.8-1.5-2.8-1.7
							c-1-0.2-2.6-0.1-3.8,0.3c-1.4,0.4-3.1,2.3-3.6,2.8c-0.6,0.5-2.2,2-1.2,3.1c0.4,0.4,0.8,1.1,2.2,1.2c1.4,0.1,2-0.5,2.4-0.4
							c0.5,0.2,1.4,0.4,3.2,0.1c1.4-0.2,2.2-0.5,2.5-0.4C19.4,25,20.7,25.5,21.8,24.9L21.8,24.9z"/>
						<path class="st20" d="M21.6,24.8c1.2-0.5,2.1-1.6,1.5-3c-0.7-1.5-2.4-1.4-3.3-1.8c-0.6-0.3-1.7-1.5-2.7-1.8
							c-0.9-0.2-2.6-0.1-3.8,0.2c-1.4,0.4-3,2.3-3.5,2.7c-0.5,0.5-2.2,1.9-1.2,3c0.3,0.4,0.8,1,2.1,1.1c1.4,0,2-0.6,2.3-0.5
							c0.5,0.2,1.4,0.4,3.2,0.1c1.5-0.2,2.3-0.6,2.5-0.4C19.3,24.8,20.4,25.4,21.6,24.8L21.6,24.8z"/>
						<path class="st21" d="M21.3,24.7c1.2-0.5,2.2-1.4,1.6-2.8c-0.7-1.5-2.4-1.4-3.3-1.7C19,20,18,18.7,17,18.4
							c-0.9-0.2-2.6-0.2-3.8,0.2c-1.4,0.4-2.9,2.3-3.3,2.6c-0.5,0.4-2.3,1.8-1.3,2.9c0.3,0.3,0.7,1,2.1,1c1.4,0,1.9-0.6,2.3-0.5
							c0.5,0.2,1.4,0.4,3.2,0.1c1.5-0.2,2.3-0.6,2.5-0.4C19.3,24.6,20.1,25.2,21.3,24.7L21.3,24.7z"/>
					</g>
					<path class="st29" d="M20.4,20c-0.3,0-0.6,0-0.9,0.1c-0.4-1.8-2.1-3.2-4.1-3.4c-2-0.1-3.8,1.1-4.4,2.8l0,0
						c-1.7-0.1-3.2,1.1-3.3,2.7s1.2,3,2.9,3c0.9,0,1.7-0.3,2.3-0.8c0.6,0.3,1.3,0.5,2,0.6c1.3,0.1,2.5-0.4,3.4-1.2
						c0.4,0.5,1.1,0.9,1.9,0.9c1.4,0.1,2.6-1,2.7-2.3C22.9,21.3,21.8,20.1,20.4,20L20.4,20z"/>
					<path class="st30" d="M20.6,20.1c-0.3,0-0.6,0-0.9,0.1c-0.4-1.8-2.1-3.2-4.1-3.4c-2-0.1-3.8,1.1-4.4,2.8l0,0
						c-1.7-0.1-3.2,1.1-3.3,2.7c-0.1,1.6,1.2,3,2.9,3c0.9,0,1.7-0.3,2.3-0.8c0.6,0.3,1.3,0.5,2,0.6c1.3,0.1,2.5-0.4,3.4-1.2
						c0.4,0.5,1.1,0.9,1.9,0.9c1.4,0.1,2.6-1,2.7-2.3C23.1,21.3,22,20.2,20.6,20.1L20.6,20.1z"/>
				</g>
				<g>
					<g>
						<g>
							<path class="st0" d="M19.6,35.9c-0.1-1.4,1.8-4.5,3.2-4.6c1.5-0.1,4.5,2.9,4.2,5c-0.3,2.5-3.5,2.9-5,2.5
								C20.3,38.2,19.6,36.7,19.6,35.9z"/>
							<path class="st31" d="M22.7,31.3c1.4-0.1,4.4,2.9,4.1,4.9c-0.3,2.4-3.4,2.9-4.9,2.4c-1.6-0.5-2.3-2-2.3-2.8
								C19.6,34.5,21.4,31.4,22.7,31.3L22.7,31.3z"/>
							<path class="st32" d="M22.7,31.4c1.4-0.1,4.3,2.8,4,4.8c-0.3,2.4-3.3,2.8-4.8,2.4c-1.6-0.5-2.2-2-2.2-2.7
								C19.6,34.5,21.4,31.5,22.7,31.4z"/>
							<path class="st33" d="M22.7,31.4c1.4-0.1,4.2,2.8,3.9,4.7c-0.3,2.3-3.2,2.7-4.7,2.3c-1.5-0.4-2.2-1.9-2.2-2.7
								C19.7,34.5,21.4,31.5,22.7,31.4z"/>
							<path class="st34" d="M22.7,31.5c1.3-0.1,4.1,2.7,3.8,4.6c-0.3,2.2-3.1,2.7-4.5,2.3c-1.5-0.4-2.1-1.9-2.2-2.6
								C19.7,34.5,21.4,31.6,22.7,31.5L22.7,31.5z"/>
							<path class="st35" d="M22.6,31.6c1.3-0.1,4,2.7,3.7,4.5c-0.3,2.2-3,2.6-4.4,2.2c-1.5-0.4-2.1-1.8-2.1-2.6
								C19.7,34.5,21.4,31.6,22.6,31.6L22.6,31.6z"/>
							<path class="st36" d="M22.6,31.6c1.3-0.1,3.9,2.6,3.6,4.5c-0.3,2.1-2.9,2.6-4.3,2.2c-1.5-0.4-2.1-1.8-2.1-2.5
								C19.8,34.5,21.4,31.7,22.6,31.6L22.6,31.6z"/>
							<path class="st37" d="M22.6,31.6c1.2-0.1,3.7,2.6,3.5,4.4c-0.3,2-2.8,2.5-4.2,2.1c-1.5-0.4-2-1.8-2-2.5
								C19.8,34.5,21.4,31.7,22.6,31.6L22.6,31.6z"/>
							<path class="st38" d="M22.5,31.7c1.2-0.1,3.6,2.5,3.4,4.3c-0.3,2-2.7,2.4-4,2.1c-1.4-0.4-2-1.7-2-2.4
								C19.8,34.5,21.4,31.8,22.5,31.7L22.5,31.7z"/>
							<path class="st39" d="M22.5,31.8c1.1-0.1,3.5,2.5,3.3,4.2c-0.2,1.9-2.6,2.4-3.9,2.1c-1.4-0.4-1.9-1.7-2-2.3
								C19.9,34.5,21.4,31.8,22.5,31.8z"/>
							<path class="st40" d="M22.5,31.8c1.1-0.1,3.4,2.4,3.2,4.1c-0.2,1.9-2.5,2.3-3.8,2c-1.4-0.3-1.9-1.6-1.9-2.3
								C20,34.5,21.4,31.9,22.5,31.8L22.5,31.8z"/>
							<path class="st41" d="M22.4,31.9c1.1-0.1,3.3,2.4,3.1,4c-0.2,1.8-2.4,2.3-3.7,2c-1.4-0.3-1.9-1.6-1.9-2.2
								C20,34.5,21.4,31.9,22.4,31.9L22.4,31.9z"/>
							<path class="st42" d="M22.4,31.9c1-0.1,3.2,2.4,3,3.9c-0.2,1.7-2.3,2.2-3.5,1.9c-1.3-0.3-1.8-1.6-1.8-2.2
								C20.1,34.5,21.5,32,22.4,31.9z"/>
							<path class="st43" d="M22.4,32c1-0.1,3.1,2.3,2.9,3.8c-0.2,1.7-2.2,2.1-3.4,1.9c-1.3-0.3-1.8-1.5-1.8-2.1
								C20.1,34.5,21.5,32,22.4,32z"/>
							<path class="st44" d="M22.4,32c1,0,3,2.2,2.8,3.7c-0.2,1.6-2.1,2.1-3.3,1.8c-1.3-0.3-1.7-1.5-1.8-2.1
								C20.1,34.5,21.5,32.1,22.4,32L22.4,32z"/>
							<path class="st45" d="M22.3,32.1c0.9,0,2.9,2.2,2.7,3.7c-0.2,1.6-2,2-3.2,1.8c-1.3-0.3-1.7-1.4-1.7-2
								C20.2,34.6,21.5,32.1,22.3,32.1z"/>
							<path class="st46" d="M22.3,32.1c0.9,0,2.8,2.1,2.6,3.6c-0.2,1.5-1.9,2-3,1.7c-1.2-0.3-1.7-1.4-1.7-1.9
								C20.2,34.6,21.5,32.2,22.3,32.1z"/>
							<path class="st47" d="M22.3,32.2c0.9,0,2.7,2.1,2.5,3.5c-0.2,1.4-1.8,1.9-2.9,1.7c-1.2-0.2-1.6-1.3-1.6-1.9
								C20.2,34.6,21.5,32.2,22.3,32.2L22.3,32.2z"/>
							<path class="st48" d="M22.3,32.2c0.8,0,2.6,2.1,2.4,3.4c-0.2,1.3-1.7,1.9-2.8,1.7c-1.2-0.2-1.6-1.3-1.6-1.8
								C20.3,34.6,21.5,32.3,22.3,32.2z"/>
							<path class="st49" d="M22.2,32.3c0.8,0,2.5,2,2.3,3.3c-0.1,1.3-1.6,1.8-2.6,1.6c-1.2-0.2-1.5-1.3-1.6-1.8
								C20.4,34.6,21.5,32.3,22.2,32.3L22.2,32.3z"/>
							<path class="st50" d="M22.2,32.4c0.7,0,2.4,2,2.2,3.2c-0.1,1.3-1.5,1.7-2.5,1.6c-1.2-0.2-1.5-1.2-1.5-1.7
								C20.4,34.6,21.5,32.4,22.2,32.4z"/>
							<path class="st51" d="M22.2,32.4c0.7,0,2.3,1.9,2.1,3.1c-0.1,1.2-1.4,1.7-2.4,1.5c-1.1-0.2-1.5-1.2-1.5-1.6
								C20.4,34.6,21.5,32.4,22.2,32.4L22.2,32.4z"/>
							<path class="st52" d="M22.1,32.5c0.7,0,2.1,1.9,2,3.1c-0.1,1.2-1.3,1.6-2.3,1.5c-1.1-0.2-1.4-1.1-1.4-1.6
								C20.5,34.6,21.5,32.5,22.1,32.5z"/>
							<path class="st53" d="M22.1,32.5c0.6,0,2,1.8,1.9,3c-0.1,1.1-1.2,1.6-2.1,1.4c-1.1-0.1-1.4-1.1-1.4-1.5
								C20.5,34.6,21.5,32.5,22.1,32.5z"/>
							<path class="st54" d="M22.1,32.6c0.6,0,1.9,1.8,1.8,2.9c-0.1,1-1.2,1.5-2,1.4c-1.1-0.1-1.4-1.1-1.4-1.5
								C20.6,34.6,21.5,32.6,22.1,32.6L22.1,32.6z"/>
							<path class="st55" d="M22.1,32.6c0.6,0,1.8,1.7,1.7,2.8c-0.1,1-1.1,1.4-1.9,1.3c-1-0.1-1.3-1-1.3-1.4
								C20.6,34.7,21.5,32.7,22.1,32.6z"/>
							<path class="st56" d="M22,32.7c0.5,0,1.7,1.7,1.6,2.7c-0.1,0.9-1,1.4-1.7,1.3c-1-0.1-1.3-1-1.3-1.4
								C20.6,34.6,21.5,32.7,22,32.7L22,32.7z"/>
							<path class="st57" d="M22,32.7c0.5,0,1.6,1.6,1.5,2.6c-0.1,0.8-0.9,1.3-1.6,1.3c-1-0.1-1.2-0.9-1.2-1.3
								C20.7,34.7,21.5,32.7,22,32.7z"/>
							<path class="st58" d="M22,32.8c0.4,0,1.5,1.6,1.4,2.5c-0.1,0.8-0.8,1.3-1.5,1.2c-1,0-1.2-0.9-1.2-1.2
								C20.7,34.7,21.5,32.8,22,32.8z"/>
							<path class="st59" d="M21.9,32.8c0.4,0,1.4,1.5,1.3,2.4c-0.1,0.7-0.7,1.2-1.4,1.2c-0.9,0-1.2-0.8-1.2-1.2
								C20.7,34.7,21.5,32.8,21.9,32.8z"/>
							<path class="st60" d="M21.9,32.9c0.4,0,1.3,1.5,1.2,2.4c-0.1,0.7-0.6,1.1-1.2,1.1c-0.9,0-1.1-0.8-1.1-1.1
								C20.8,34.7,21.6,32.9,21.9,32.9z"/>
							<path class="st61" d="M21.9,32.9c0.3,0,1.2,1.4,1.1,2.3c-0.1,0.6-0.5,1.1-1.1,1.1c-0.9,0-1.1-0.8-1.1-1.1
								C20.8,34.7,21.6,32.9,21.9,32.9z"/>
						</g>
						<path class="st62" d="M23,34.8c0,0.9-0.8,1.7-1.8,1.7s-1.9-0.8-1.9-1.7c0-1.6,1.9-3.7,1.9-3.7l0.1-0.1c0,0,0,0.1,0,0.1
							C21.7,31.7,23,33.6,23,34.8L23,34.8z"/>
						<path class="st63" d="M23.2,34.9c0,0.9-0.8,1.7-1.8,1.7s-1.8-0.8-1.8-1.7c0-1.4,1.8-3.9,1.8-3.9S23.2,33.5,23.2,34.9z"/>
					</g>
					<g>
						<g>
							<path class="st0" d="M15.4,30.7c-0.1-1.1,1.3-3.3,2.3-3.4c1.1-0.1,3.3,2.2,3.1,3.7c-0.2,1.8-2.6,2.2-3.7,1.8
								C16,32.4,15.5,31.3,15.4,30.7L15.4,30.7z"/>
							<path class="st31" d="M17.8,27.4c1.1-0.1,3.2,2.1,3.1,3.6c-0.2,1.8-2.5,2.1-3.6,1.8c-1.2-0.3-1.7-1.5-1.7-2.1
								C15.4,29.7,16.8,27.4,17.8,27.4z"/>
							<path class="st32" d="M17.7,27.4c1-0.1,3.2,2.1,3,3.5c-0.2,1.7-2.4,2.1-3.5,1.8c-1.2-0.3-1.6-1.4-1.7-2
								C15.5,29.7,16.8,27.5,17.7,27.4L17.7,27.4z"/>
							<path class="st33" d="M17.7,27.4c1-0.1,3.1,2.1,2.9,3.5c-0.2,1.7-2.4,2-3.5,1.7c-1.1-0.3-1.6-1.4-1.6-2
								C15.5,29.7,16.7,27.5,17.7,27.4L17.7,27.4z"/>
							<path class="st34" d="M17.7,27.5c1-0.1,3,2,2.8,3.4c-0.2,1.6-2.3,2-3.4,1.7c-1.1-0.3-1.6-1.4-1.6-1.9
								C15.5,29.7,16.8,27.5,17.7,27.5z"/>
							<path class="st35" d="M17.7,27.5c1-0.1,2.9,2,2.8,3.4c-0.2,1.6-2.2,1.9-3.3,1.6c-1.1-0.3-1.6-1.3-1.6-1.9
								C15.5,29.7,16.8,27.6,17.7,27.5L17.7,27.5z"/>
							<path class="st36" d="M17.7,27.6c0.9-0.1,2.9,1.9,2.7,3.3c-0.2,1.6-2.1,1.9-3.2,1.6c-1.1-0.3-1.5-1.3-1.5-1.9
								C15.6,29.7,16.8,27.6,17.7,27.6z"/>
							<path class="st37" d="M17.6,27.6c0.9-0.1,2.8,1.9,2.6,3.2c-0.2,1.5-2.1,1.9-3.1,1.6c-1.1-0.3-1.5-1.3-1.5-1.8
								C15.6,29.7,16.8,27.6,17.6,27.6L17.6,27.6z"/>
							<path class="st38" d="M17.6,27.6c0.9,0,2.7,1.9,2.5,3.2c-0.2,1.5-2,1.8-3,1.6c-1.1-0.3-1.5-1.3-1.5-1.8
								C15.6,29.7,16.8,27.7,17.6,27.6L17.6,27.6z"/>
							<path class="st39" d="M17.6,27.7c0.8,0,2.6,1.8,2.5,3.1c-0.2,1.4-1.9,1.8-2.9,1.5c-1-0.3-1.4-1.2-1.5-1.7
								C15.7,29.7,16.8,27.7,17.6,27.7z"/>
							<path class="st40" d="M17.6,27.7c0.8,0,2.5,1.8,2.4,3c-0.2,1.4-1.9,1.7-2.8,1.5c-1-0.3-1.4-1.2-1.4-1.7
								C15.7,29.7,16.8,27.7,17.6,27.7L17.6,27.7z"/>
							<path class="st41" d="M17.5,27.7c0.8,0,2.4,1.8,2.3,3c-0.2,1.3-1.8,1.7-2.7,1.5c-1-0.2-1.4-1.2-1.4-1.6
								C15.7,29.7,16.8,27.8,17.5,27.7z"/>
							<path class="st42" d="M17.5,27.8c0.8,0,2.4,1.7,2.2,2.9c-0.2,1.3-1.7,1.6-2.6,1.4c-1-0.2-1.3-1.1-1.4-1.6
								C15.7,29.7,16.8,27.8,17.5,27.8z"/>
							<path class="st43" d="M17.5,27.8c0.7,0,2.3,1.7,2.2,2.8c-0.2,1.2-1.6,1.6-2.5,1.4c-1-0.2-1.3-1.1-1.3-1.6
								C15.8,29.7,16.8,27.9,17.5,27.8L17.5,27.8z"/>
							<path class="st44" d="M17.5,27.9c0.7,0,2.2,1.7,2.1,2.8c-0.1,1.2-1.6,1.5-2.4,1.4c-1-0.2-1.3-1.1-1.3-1.5
								C15.8,29.7,16.8,27.9,17.5,27.9L17.5,27.9z"/>
							<path class="st45" d="M17.5,27.9c0.7,0,2.1,1.6,2,2.7c-0.1,1.2-1.5,1.5-2.3,1.3c-0.9-0.2-1.3-1.1-1.3-1.5
								C15.9,29.7,16.8,27.9,17.5,27.9z"/>
							<path class="st46" d="M17.4,27.9c0.7,0,2.1,1.6,1.9,2.6c-0.1,1.1-1.4,1.5-2.2,1.3c-0.9-0.2-1.2-1-1.2-1.4
								C15.9,29.8,16.8,28,17.4,27.9L17.4,27.9z"/>
							<path class="st47" d="M17.4,28c0.6,0,2,1.6,1.9,2.6c-0.1,1-1.4,1.4-2.1,1.3c-0.9-0.2-1.2-1-1.2-1.4
								C15.9,29.7,16.8,28,17.4,28L17.4,28z"/>
							<path class="st48" d="M17.4,28c0.6,0,1.9,1.5,1.8,2.5c-0.1,1-1.3,1.4-2,1.2c-0.9-0.2-1.2-1-1.2-1.3
								C15.9,29.8,16.8,28,17.4,28L17.4,28z"/>
							<path class="st49" d="M17.4,28.1c0.6,0,1.8,1.5,1.7,2.4c-0.1,1-1.2,1.3-1.9,1.2c-0.9-0.1-1.1-0.9-1.2-1.3
								C16,29.8,16.8,28.1,17.4,28.1z"/>
							<path class="st50" d="M17.4,28.1c0.5,0,1.7,1.4,1.6,2.4c-0.1,0.9-1.1,1.3-1.9,1.2c-0.9-0.1-1.1-0.9-1.1-1.3
								C16,29.8,16.8,28.1,17.4,28.1z"/>
							<path class="st51" d="M17.3,28.2c0.5,0,1.7,1.4,1.6,2.3c-0.1,0.9-1.1,1.2-1.8,1.1c-0.8-0.1-1.1-0.9-1.1-1.2
								C16.1,29.8,16.8,28.2,17.3,28.2L17.3,28.2z"/>
							<path class="st52" d="M17.3,28.2c0.5,0,1.6,1.4,1.5,2.3s-1,1.2-1.7,1.1c-0.8-0.1-1.1-0.8-1.1-1.2
								C16.1,29.8,16.8,28.2,17.3,28.2L17.3,28.2z"/>
							<path class="st53" d="M17.3,28.2c0.5,0,1.5,1.3,1.4,2.2c-0.1,0.8-0.9,1.1-1.6,1.1c-0.8-0.1-1-0.8-1-1.1
								C16.1,29.8,16.8,28.3,17.3,28.2L17.3,28.2z"/>
							<path class="st54" d="M17.3,28.3c0.4,0,1.4,1.3,1.3,2.1c-0.1,0.8-0.9,1.1-1.5,1c-0.8-0.1-1-0.8-1-1.1
								C16.1,29.8,16.8,28.3,17.3,28.3L17.3,28.3z"/>
							<path class="st55" d="M17.3,28.3c0.4,0,1.4,1.3,1.3,2.1c-0.1,0.7-0.8,1.1-1.4,1c-0.8-0.1-1-0.8-1-1.1
								C16.2,29.8,16.8,28.3,17.3,28.3L17.3,28.3z"/>
							<path class="st56" d="M17.2,28.3c0.4,0,1.3,1.2,1.2,2c-0.1,0.7-0.7,1-1.3,1c-0.8-0.1-0.9-0.7-0.9-1
								C16.2,29.8,16.9,28.3,17.2,28.3L17.2,28.3z"/>
							<path class="st57" d="M17.2,28.4c0.4,0,1.2,1.2,1.1,1.9c-0.1,0.6-0.6,1-1.2,0.9c-0.7,0-0.9-0.7-0.9-1
								C16.2,29.8,16.8,28.4,17.2,28.4L17.2,28.4z"/>
							<path class="st58" d="M17.2,28.4c0.3,0,1.1,1.2,1.1,1.9c-0.1,0.6-0.6,0.9-1.1,0.9c-0.7,0-0.9-0.7-0.9-0.9
								C16.2,29.8,16.9,28.4,17.2,28.4z"/>
							<path class="st59" d="M17.2,28.5c0.3,0,1,1.1,1,1.8c-0.1,0.5-0.5,0.9-1,0.9c-0.7,0-0.9-0.6-0.9-0.9
								C16.3,29.8,16.9,28.5,17.2,28.5z"/>
							<path class="st60" d="M17.1,28.5c0.3,0,1,1.1,0.9,1.7c-0.1,0.5-0.4,0.8-0.9,0.8c-0.7,0-0.8-0.6-0.8-0.8
								C16.3,29.8,16.9,28.5,17.1,28.5z"/>
							<path class="st61" d="M17.1,28.5c0.3,0,0.9,1.1,0.8,1.7c0,0.4-0.4,0.8-0.8,0.8c-0.7,0-0.8-0.6-0.8-0.8
								C16.3,29.8,16.9,28.6,17.1,28.5L17.1,28.5z"/>
						</g>
						<path class="st62" d="M18,29.9c0,0.7-0.6,1.3-1.3,1.3s-1.4-0.6-1.4-1.3c0-1.2,1.4-2.8,1.4-2.8l0.1,0c0,0,0,0.1,0,0.1
							C17,27.6,18,29,18,29.9L18,29.9z"/>
						<path class="st63" d="M18.1,30c0,0.7-0.6,1.3-1.3,1.3c-0.7,0-1.3-0.6-1.3-1.3c0-1.1,1.3-2.9,1.3-2.9S18.1,28.9,18.1,30z"/>
					</g>
					<g>
						<g>
							<path class="st0" d="M5.5,29c0-0.8,1.1-2.6,1.9-2.7c0.9-0.1,2.7,1.7,2.5,2.9c-0.2,1.5-2.1,1.7-3,1.4C6,30.3,5.6,29.4,5.5,29
								L5.5,29z"/>
							<path class="st31" d="M7.4,26.3c0.9,0,2.6,1.7,2.4,2.9c-0.2,1.4-2,1.7-2.9,1.4c-0.9-0.3-1.3-1.2-1.4-1.6
								C5.5,28.1,6.6,26.3,7.4,26.3L7.4,26.3z"/>
							<path class="st32" d="M7.4,26.3c0.8,0,2.5,1.7,2.4,2.8c-0.2,1.4-1.9,1.7-2.8,1.4c-0.9-0.3-1.3-1.2-1.3-1.6
								C5.6,28.1,6.6,26.4,7.4,26.3L7.4,26.3z"/>
							<path class="st33" d="M7.4,26.3c0.8,0,2.5,1.6,2.3,2.8c-0.2,1.3-1.9,1.6-2.8,1.4c-0.9-0.3-1.3-1.1-1.3-1.6
								C5.6,28.1,6.6,26.4,7.4,26.3L7.4,26.3z"/>
							<path class="st34" d="M7.3,26.4c0.8,0,2.4,1.6,2.3,2.7c-0.2,1.3-1.8,1.6-2.7,1.3c-0.9-0.3-1.3-1.1-1.3-1.6
								C5.6,28.1,6.6,26.4,7.3,26.4z"/>
							<path class="st35" d="M7.3,26.4c0.8,0,2.3,1.6,2.2,2.7c-0.2,1.3-1.8,1.6-2.6,1.3c-0.9-0.3-1.2-1.1-1.3-1.5
								C5.6,28.1,6.6,26.5,7.3,26.4z"/>
							<path class="st36" d="M7.3,26.4c0.7,0,2.3,1.6,2.1,2.6c-0.2,1.2-1.7,1.5-2.5,1.3c-0.9-0.2-1.2-1.1-1.2-1.5
								C5.6,28.1,6.6,26.5,7.3,26.4z"/>
							<path class="st37" d="M7.3,26.5C8,26.4,9.5,28,9.4,29c-0.2,1.2-1.7,1.5-2.4,1.3c-0.9-0.2-1.2-1-1.2-1.4
								C5.7,28.2,6.6,26.5,7.3,26.5z"/>
							<path class="st38" d="M7.3,26.5c0.7,0,2.1,1.5,2,2.5c-0.2,1.2-1.6,1.4-2.4,1.2c-0.8-0.2-1.2-1-1.2-1.4
								C5.7,28.2,6.6,26.6,7.3,26.5z"/>
							<path class="st39" d="M7.3,26.5c0.7,0,2.1,1.5,2,2.5c-0.1,1.1-1.5,1.4-2.3,1.2c-0.8-0.2-1.1-1-1.2-1.4
								C5.7,28.2,6.6,26.6,7.3,26.5L7.3,26.5z"/>
							<path class="st40" d="M7.2,26.6c0.7,0,2,1.4,1.9,2.4c-0.1,1.1-1.5,1.4-2.2,1.2c-0.8-0.2-1.1-1-1.1-1.3
								C5.7,28.2,6.6,26.6,7.2,26.6L7.2,26.6z"/>
							<path class="st41" d="M7.2,26.6c0.6,0,2,1.4,1.8,2.4c-0.1,1.1-1.4,1.3-2.1,1.2c-0.8-0.2-1.1-0.9-1.1-1.3
								C5.8,28.2,6.6,26.6,7.2,26.6L7.2,26.6z"/>
							<path class="st42" d="M7.2,26.6C7.8,26.6,9.1,28,9,29c-0.1,1-1.4,1.3-2.1,1.1c-0.8-0.2-1.1-0.9-1.1-1.3
								C5.8,28.2,6.6,26.7,7.2,26.6z"/>
							<path class="st43" d="M7.2,26.7c0.6,0,1.8,1.3,1.7,2.3c-0.1,1-1.3,1.3-2,1.1c-0.8-0.2-1.1-0.9-1.1-1.2
								C5.8,28.2,6.6,26.7,7.2,26.7L7.2,26.7z"/>
							<path class="st44" d="M7.2,26.7c0.6,0,1.8,1.3,1.7,2.2c-0.1,1-1.3,1.2-1.9,1.1c-0.8-0.2-1-0.9-1-1.2
								C5.8,28.2,6.6,26.7,7.2,26.7z"/>
							<path class="st45" d="M7.2,26.7c0.5,0,1.7,1.3,1.6,2.2c-0.1,0.9-1.2,1.2-1.9,1.1c-0.8-0.2-1-0.8-1-1.2
								C5.9,28.2,6.6,26.8,7.2,26.7z"/>
							<path class="st46" d="M7.1,26.8c0.5,0,1.6,1.3,1.5,2.1c-0.1,0.9-1.1,1.2-1.8,1c-0.7-0.1-1-0.8-1-1.1
								C5.9,28.2,6.6,26.8,7.1,26.8z"/>
							<path class="st47" d="M7.1,26.8c0.5,0,1.6,1.2,1.5,2.1c-0.1,0.8-1.1,1.1-1.7,1c-0.7-0.1-1-0.8-1-1.1
								C5.9,28.2,6.6,26.8,7.1,26.8L7.1,26.8z"/>
							<path class="st48" d="M7.1,26.8c0.5,0,1.5,1.2,1.4,2c-0.1,0.8-1,1.1-1.6,1C6.2,29.7,6,29,6,28.7C6,28.2,6.6,26.9,7.1,26.8z"
								/>
							<path class="st49" d="M7.1,26.9c0.5,0,1.5,1.2,1.4,2c-0.1,0.8-1,1.1-1.6,1C6.2,29.6,6,29,6,28.7C6,28.2,6.6,26.9,7.1,26.9
								L7.1,26.9z"/>
							<path class="st50" d="M7.1,26.9c0.4,0,1.4,1.2,1.3,1.9c-0.1,0.7-0.9,1-1.5,0.9C6.2,29.6,6,29,6,28.7
								C6,28.2,6.6,26.9,7.1,26.9z"/>
							<path class="st51" d="M7.1,26.9c0.4,0,1.3,1.1,1.3,1.9c-0.1,0.7-0.9,1-1.4,0.9C6.2,29.6,6,29,6,28.7
								C6,28.2,6.7,26.9,7.1,26.9L7.1,26.9z"/>
							<path class="st52" d="M7,26.9c0.4,0,1.3,1.1,1.2,1.8c-0.1,0.7-0.8,0.9-1.3,0.9C6.2,29.5,6.1,29,6,28.7C6,28.2,6.7,27,7,26.9z
								"/>
							<path class="st53" d="M7,27c0.4,0,1.2,1.1,1.1,1.7c-0.1,0.6-0.7,0.9-1.3,0.8c-0.6-0.1-0.8-0.6-0.8-0.9C6.1,28.2,6.7,27,7,27
								L7,27z"/>
							<path class="st54" d="M7,27c0.4,0,1.1,1,1.1,1.7c-0.1,0.6-0.7,0.9-1.2,0.8c-0.6-0.1-0.8-0.6-0.8-0.9C6.1,28.2,6.7,27,7,27z"
								/>
							<path class="st55" d="M7,27c0.3,0,1.1,1,1,1.6c-0.1,0.6-0.6,0.8-1.1,0.8c-0.6-0.1-0.8-0.6-0.8-0.8C6.1,28.2,6.7,27.1,7,27
								L7,27z"/>
							<path class="st56" d="M7,27.1c0.3,0,1,1,1,1.6c-0.1,0.5-0.6,0.8-1,0.8c-0.6,0-0.8-0.6-0.8-0.8C6.1,28.2,6.7,27.1,7,27.1z"/>
							<path class="st57" d="M7,27.1c0.3,0,1,1,0.9,1.5c-0.1,0.5-0.5,0.8-1,0.7c-0.6,0-0.7-0.5-0.7-0.8C6.2,28.2,6.7,27.1,7,27.1
								L7,27.1z"/>
							<path class="st58" d="M6.9,27.1c0.3,0,0.9,0.9,0.8,1.5c-0.1,0.5-0.5,0.7-0.9,0.7c-0.6,0-0.7-0.5-0.7-0.7
								C6.2,28.2,6.7,27.1,6.9,27.1z"/>
							<path class="st59" d="M6.9,27.2c0.2,0,0.8,0.9,0.8,1.4c0,0.4-0.4,0.7-0.8,0.7c-0.6,0-0.7-0.5-0.7-0.7
								C6.2,28.3,6.7,27.2,6.9,27.2L6.9,27.2z"/>
							<path class="st60" d="M6.9,27.2c0.2,0,0.8,0.9,0.7,1.4c0,0.4-0.3,0.7-0.7,0.7c-0.5,0-0.7-0.5-0.7-0.7
								C6.2,28.2,6.7,27.2,6.9,27.2z"/>
							<path class="st61" d="M6.9,27.2c0.2,0,0.7,0.8,0.7,1.3c0,0.3-0.3,0.6-0.7,0.6c-0.5,0-0.6-0.5-0.6-0.6
								C6.2,28.3,6.7,27.2,6.9,27.2z"/>
						</g>
						<path class="st62" d="M7.6,28.3c0,0.5-0.5,1-1.1,1s-1.1-0.5-1.1-1c0-0.9,1.1-2.2,1.1-2.2l0.1,0c0,0,0,0,0,0.1
							C6.8,26.5,7.5,27.6,7.6,28.3L7.6,28.3z"/>
						<path class="st63" d="M7.7,28.4c0,0.5-0.5,1-1.1,1s-1.1-0.5-1.1-1c0-0.8,1.1-2.3,1.1-2.3S7.7,27.5,7.7,28.4z"/>
					</g>
					<g>
						<g>
							<path class="st0" d="M34.9,25c0-0.8,1-2.5,1.7-2.5c0.8,0,2.5,1.6,2.3,2.7c-0.2,1.4-1.9,1.6-2.8,1.4
								C35.3,26.3,34.9,25.5,34.9,25z"/>
							<path class="st31" d="M36.6,22.5c0.8,0,2.4,1.6,2.3,2.7c-0.2,1.3-1.9,1.6-2.7,1.3c-0.9-0.3-1.2-1.1-1.3-1.6
								C34.9,24.2,35.9,22.5,36.6,22.5L36.6,22.5z"/>
							<path class="st32" d="M36.6,22.5c0.8,0,2.4,1.6,2.2,2.6c-0.2,1.3-1.8,1.6-2.7,1.3C35.3,26.2,35,25.4,35,25
								C34.9,24.2,35.9,22.6,36.6,22.5L36.6,22.5z"/>
							<path class="st33" d="M36.6,22.6c0.8,0,2.3,1.5,2.2,2.6c-0.2,1.3-1.8,1.5-2.6,1.3C35.3,26.2,35,25.4,35,25
								C34.9,24.2,35.9,22.6,36.6,22.6L36.6,22.6z"/>
							<path class="st34" d="M36.6,22.6c0.7,0,2.2,1.5,2.1,2.6c-0.2,1.2-1.7,1.5-2.5,1.3c-0.8-0.2-1.2-1-1.2-1.5
								C35,24.2,35.9,22.6,36.6,22.6L36.6,22.6z"/>
							<path class="st35" d="M36.6,22.6c0.7,0,2.2,1.5,2.1,2.5c-0.2,1.2-1.7,1.5-2.4,1.2c-0.8-0.2-1.2-1-1.2-1.4
								C35,24.2,35.9,22.7,36.6,22.6z"/>
							<path class="st36" d="M36.6,22.7c0.7,0,2.1,1.5,2,2.5c-0.2,1.2-1.6,1.4-2.4,1.2c-0.8-0.2-1.1-1-1.2-1.4
								C35,24.2,35.9,22.7,36.6,22.7L36.6,22.7z"/>
							<path class="st37" d="M36.6,22.7c0.7,0,2.1,1.4,1.9,2.4c-0.1,1.1-1.6,1.4-2.3,1.2c-0.8-0.2-1.1-1-1.1-1.4
								C35,24.3,35.9,22.7,36.6,22.7L36.6,22.7z"/>
							<path class="st38" d="M36.5,22.7c0.7,0,2,1.4,1.9,2.4c-0.1,1.1-1.5,1.3-2.2,1.2c-0.8-0.2-1.1-0.9-1.1-1.3
								C35.1,24.3,35.9,22.8,36.5,22.7L36.5,22.7z"/>
							<path class="st39" d="M36.5,22.7c0.6,0,1.9,1.4,1.8,2.3c-0.1,1.1-1.4,1.3-2.2,1.1c-0.8-0.2-1.1-0.9-1.1-1.3
								C35.1,24.3,35.9,22.8,36.5,22.7L36.5,22.7z"/>
							<path class="st40" d="M36.5,22.8c0.6,0,1.9,1.3,1.8,2.3c-0.1,1-1.4,1.3-2.1,1.1c-0.8-0.2-1.1-0.9-1.1-1.3
								C35.1,24.3,35.9,22.8,36.5,22.8L36.5,22.8z"/>
							<path class="st41" d="M36.5,22.8c0.6,0,1.8,1.3,1.7,2.2c-0.1,1-1.3,1.3-2,1.1c-0.8-0.2-1-0.9-1-1.2
								C35.1,24.3,36,22.8,36.5,22.8L36.5,22.8z"/>
							<path class="st42" d="M36.5,22.8c0.6,0,1.8,1.3,1.7,2.2c-0.1,1-1.3,1.2-1.9,1.1c-0.7-0.2-1-0.8-1-1.2
								C35.2,24.3,35.9,22.9,36.5,22.8z"/>
							<path class="st43" d="M36.5,22.9c0.6,0,1.7,1.3,1.6,2.1c-0.1,0.9-1.2,1.2-1.9,1c-0.7-0.2-1-0.8-1-1.2
								C35.2,24.3,35.9,22.9,36.5,22.9L36.5,22.9z"/>
							<path class="st44" d="M36.4,22.9c0.5,0,1.7,1.2,1.6,2.1c-0.1,0.9-1.2,1.1-1.8,1c-0.7-0.2-1-0.8-1-1.1
								C35.2,24.3,35.9,22.9,36.4,22.9z"/>
							<path class="st45" d="M36.4,22.9c0.5,0,1.6,1.2,1.5,2c-0.1,0.9-1.1,1.1-1.7,1c-0.7-0.1-0.9-0.8-1-1.1
								C35.2,24.3,36,23,36.4,22.9z"/>
							<path class="st46" d="M36.4,22.9c0.5,0,1.5,1.2,1.5,2c-0.1,0.8-1.1,1.1-1.7,1c-0.7-0.1-0.9-0.8-0.9-1.1
								C35.3,24.3,36,23,36.4,22.9L36.4,22.9z"/>
							<path class="st47" d="M36.4,23c0.5,0,1.5,1.2,1.4,1.9c-0.1,0.8-1,1.1-1.6,0.9c-0.7-0.1-0.9-0.7-0.9-1
								C35.3,24.3,36,23,36.4,23z"/>
							<path class="st48" d="M36.4,23c0.5,0,1.4,1.1,1.3,1.9s-1,1-1.5,0.9c-0.7-0.1-0.9-0.7-0.9-1C35.3,24.3,36,23,36.4,23z"/>
							<path class="st49" d="M36.4,23c0.4,0,1.4,1.1,1.3,1.8c-0.1,0.7-0.9,1-1.5,0.9c-0.7-0.1-0.9-0.7-0.9-1
								C35.3,24.3,36,23.1,36.4,23z"/>
							<path class="st50" d="M36.4,23.1c0.4,0,1.3,1.1,1.2,1.8c-0.1,0.7-0.9,1-1.4,0.9c-0.6-0.1-0.8-0.7-0.8-0.9
								C35.3,24.3,36,23.1,36.4,23.1z"/>
							<path class="st51" d="M36.3,23.1c0.4,0,1.2,1.1,1.2,1.7s-0.8,0.9-1.3,0.8c-0.6-0.1-0.8-0.6-0.8-0.9
								C35.4,24.3,36,23.1,36.3,23.1L36.3,23.1z"/>
							<path class="st52" d="M36.3,23.1c0.4,0,1.2,1,1.1,1.7s-0.7,0.9-1.2,0.8c-0.6-0.1-0.8-0.6-0.8-0.9
								C35.4,24.3,36,23.2,36.3,23.1z"/>
							<path class="st53" d="M36.3,23.2c0.4,0,1.1,1,1.1,1.6c-0.1,0.6-0.7,0.9-1.2,0.8c-0.6-0.1-0.8-0.6-0.8-0.8
								C35.4,24.3,36,23.2,36.3,23.2z"/>
							<path class="st54" d="M36.3,23.2c0.3,0,1.1,1,1,1.6c-0.1,0.6-0.6,0.8-1.1,0.8c-0.6-0.1-0.8-0.6-0.8-0.8
								C35.4,24.3,36,23.2,36.3,23.2L36.3,23.2z"/>
							<path class="st55" d="M36.3,23.2c0.3,0,1,0.9,1,1.5c-0.1,0.5-0.6,0.8-1,0.7c-0.6-0.1-0.7-0.5-0.7-0.8
								C35.4,24.3,36,23.2,36.3,23.2L36.3,23.2z"/>
							<path class="st56" d="M36.3,23.2c0.3,0,1,0.9,0.9,1.5c-0.1,0.5-0.5,0.8-1,0.7c-0.6,0-0.7-0.5-0.7-0.8
								C35.5,24.3,36,23.2,36.3,23.2L36.3,23.2z"/>
							<path class="st57" d="M36.2,23.3c0.3,0,0.9,0.9,0.8,1.4c-0.1,0.5-0.5,0.7-0.9,0.7c-0.6,0-0.7-0.5-0.7-0.7
								C35.5,24.3,36,23.3,36.2,23.3L36.2,23.3z"/>
							<path class="st58" d="M36.2,23.3c0.3,0,0.8,0.9,0.8,1.4c0,0.4-0.4,0.7-0.8,0.7c-0.5,0-0.7-0.5-0.7-0.7
								C35.5,24.4,36,23.3,36.2,23.3z"/>
							<path class="st59" d="M36.2,23.3c0.2,0,0.8,0.8,0.7,1.3c0,0.4-0.4,0.7-0.8,0.6c-0.5,0-0.6-0.5-0.6-0.7
								C35.6,24.4,36,23.3,36.2,23.3L36.2,23.3z"/>
							<path class="st60" d="M36.2,23.4c0.2,0,0.7,0.8,0.7,1.3c0,0.4-0.3,0.6-0.7,0.6c-0.5,0-0.6-0.4-0.6-0.6
								C35.6,24.4,36,23.4,36.2,23.4z"/>
							<path class="st61" d="M36.2,23.4c0.2,0,0.7,0.8,0.6,1.3c0,0.3-0.3,0.6-0.6,0.6c-0.5,0-0.6-0.4-0.6-0.6
								C35.6,24.4,36,23.4,36.2,23.4L36.2,23.4z"/>
						</g>
						<path class="st62" d="M36.8,24.4c0,0.5-0.5,0.9-1,0.9s-1-0.4-1-0.9c0-0.9,1.1-2.1,1.1-2.1l0.1,0c0,0,0,0,0,0.1
							C36.1,22.7,36.8,23.8,36.8,24.4L36.8,24.4z"/>
						<path class="st63" d="M36.9,24.5c0,0.5-0.5,0.9-1,0.9c-0.6,0-1-0.4-1-0.9c0-0.8,1-2.1,1-2.1S36.9,23.7,36.9,24.5z"/>
					</g>
					<g>
						<g>
							<path class="st0" d="M32.7,33.6c0-0.8,1-2.5,1.7-2.5c0.8,0,2.5,1.6,2.3,2.7c-0.2,1.4-1.9,1.6-2.8,1.4
								C33.1,34.9,32.7,34.1,32.7,33.6z"/>
							<path class="st31" d="M34.4,31.1c0.8,0,2.4,1.6,2.3,2.7c-0.2,1.3-1.9,1.6-2.7,1.3c-0.9-0.3-1.2-1.1-1.3-1.6
								C32.7,32.8,33.7,31.2,34.4,31.1L34.4,31.1z"/>
							<path class="st32" d="M34.4,31.2c0.8,0,2.4,1.6,2.2,2.6c-0.2,1.3-1.8,1.6-2.7,1.3c-0.9-0.3-1.2-1.1-1.2-1.5
								C32.7,32.9,33.7,31.2,34.4,31.2z"/>
							<path class="st33" d="M34.4,31.2c0.8,0,2.3,1.5,2.2,2.6c-0.2,1.3-1.8,1.5-2.6,1.3c-0.9-0.3-1.2-1.1-1.2-1.5
								C32.7,32.9,33.7,31.2,34.4,31.2L34.4,31.2z"/>
							<path class="st34" d="M34.4,31.2c0.7,0,2.2,1.5,2.1,2.6C36.4,35,34.8,35.3,34,35c-0.8-0.2-1.2-1-1.2-1.5
								C32.7,32.8,33.7,31.2,34.4,31.2L34.4,31.2z"/>
							<path class="st35" d="M34.4,31.2c0.7,0,2.2,1.5,2.1,2.5c-0.2,1.2-1.7,1.5-2.4,1.2c-0.8-0.2-1.2-1-1.2-1.4
								C32.8,32.9,33.7,31.3,34.4,31.2z"/>
							<path class="st36" d="M34.4,31.3c0.7,0,2.1,1.5,2,2.5c-0.2,1.2-1.6,1.4-2.4,1.2c-0.8-0.2-1.1-1-1.2-1.4
								C32.8,32.9,33.7,31.3,34.4,31.3L34.4,31.3z"/>
							<path class="st37" d="M34.4,31.3c0.7,0,2.1,1.4,1.9,2.4c-0.1,1.1-1.6,1.4-2.3,1.2c-0.8-0.2-1.1-1-1.1-1.4
								C32.8,32.9,33.7,31.3,34.4,31.3L34.4,31.3z"/>
							<path class="st38" d="M34.3,31.3c0.7,0,2,1.4,1.9,2.4c-0.1,1.1-1.5,1.3-2.2,1.2c-0.8-0.2-1.1-0.9-1.1-1.3
								C32.9,32.9,33.7,31.4,34.3,31.3L34.3,31.3z"/>
							<path class="st39" d="M34.3,31.4c0.6,0,1.9,1.4,1.8,2.3C36,34.8,34.7,35,34,34.8c-0.8-0.2-1.1-0.9-1.1-1.3
								C32.9,32.9,33.7,31.4,34.3,31.4L34.3,31.4z"/>
							<path class="st40" d="M34.3,31.4c0.6,0,1.9,1.3,1.8,2.3c-0.1,1-1.4,1.3-2.1,1.1c-0.8-0.2-1.1-0.9-1.1-1.3
								C32.9,32.9,33.7,31.4,34.3,31.4L34.3,31.4z"/>
							<path class="st41" d="M34.3,31.4c0.6,0,1.8,1.3,1.7,2.2c-0.1,1-1.3,1.3-2,1.1c-0.8-0.2-1-0.9-1-1.2
								C32.9,32.9,33.8,31.5,34.3,31.4L34.3,31.4z"/>
							<path class="st42" d="M34.3,31.4c0.6,0,1.8,1.3,1.7,2.2c-0.1,1-1.3,1.2-1.9,1.1c-0.7-0.2-1-0.8-1-1.2
								C33,32.9,33.7,31.5,34.3,31.4z"/>
							<path class="st43" d="M34.3,31.5c0.6,0,1.7,1.3,1.6,2.1c-0.1,0.9-1.2,1.2-1.9,1c-0.7-0.2-1-0.8-1-1.2
								C33,32.9,33.7,31.5,34.3,31.5L34.3,31.5z"/>
							<path class="st44" d="M34.2,31.5c0.5,0,1.7,1.2,1.6,2.1c-0.1,0.9-1.2,1.1-1.8,1c-0.7-0.2-1-0.8-1-1.1
								C33,32.9,33.7,31.5,34.2,31.5z"/>
							<path class="st45" d="M34.2,31.5c0.5,0,1.6,1.2,1.5,2c-0.1,0.9-1.1,1.1-1.7,1c-0.7-0.1-0.9-0.8-1-1.1
								C33,32.9,33.7,31.6,34.2,31.5z"/>
							<path class="st46" d="M34.2,31.6c0.5,0,1.5,1.2,1.5,2c-0.1,0.8-1.1,1.1-1.7,1c-0.7-0.1-0.9-0.8-0.9-1.1
								C33.1,32.9,33.7,31.6,34.2,31.6L34.2,31.6z"/>
							<path class="st47" d="M34.2,31.6c0.5,0,1.5,1.2,1.4,1.9s-1,1.1-1.6,0.9c-0.7-0.1-0.9-0.7-0.9-1
								C33.1,32.9,33.8,31.6,34.2,31.6z"/>
							<path class="st48" d="M34.2,31.6c0.5,0,1.4,1.1,1.3,1.9s-1,1-1.5,0.9c-0.7-0.1-0.9-0.7-0.9-1C33.1,32.9,33.8,31.6,34.2,31.6z
								"/>
							<path class="st49" d="M34.2,31.7c0.4,0,1.4,1.1,1.3,1.8c-0.1,0.7-0.9,1-1.5,0.9c-0.7-0.1-0.9-0.7-0.9-1
								C33.1,32.9,33.8,31.7,34.2,31.7z"/>
							<path class="st50" d="M34.2,31.7c0.4,0,1.3,1.1,1.2,1.8c-0.1,0.7-0.9,1-1.4,0.9c-0.6-0.1-0.8-0.7-0.8-0.9
								C33.2,32.9,33.8,31.7,34.2,31.7z"/>
							<path class="st51" d="M34.1,31.7c0.4,0,1.2,1.1,1.2,1.7s-0.8,0.9-1.3,0.8c-0.6-0.1-0.8-0.6-0.8-0.9
								C33.2,32.9,33.8,31.7,34.1,31.7L34.1,31.7z"/>
							<path class="st52" d="M34.1,31.7c0.4,0,1.2,1,1.1,1.7c-0.1,0.7-0.7,0.9-1.2,0.8c-0.6-0.1-0.8-0.6-0.8-0.9
								C33.2,32.9,33.8,31.8,34.1,31.7z"/>
							<path class="st53" d="M34.1,31.8c0.4,0,1.1,1,1.1,1.6c-0.1,0.6-0.7,0.9-1.2,0.8c-0.6-0.1-0.8-0.6-0.8-0.8
								C33.2,33,33.8,31.8,34.1,31.8L34.1,31.8z"/>
							<path class="st54" d="M34.1,31.8c0.3,0,1.1,1,1,1.6C35,34,34.5,34.2,34,34.2c-0.6-0.1-0.8-0.6-0.8-0.8
								C33.2,32.9,33.8,31.8,34.1,31.8L34.1,31.8z"/>
							<path class="st55" d="M34.1,31.8c0.3,0,1,0.9,1,1.5c-0.1,0.5-0.6,0.8-1,0.7c-0.6-0.1-0.7-0.5-0.7-0.8
								C33.3,32.9,33.8,31.8,34.1,31.8L34.1,31.8z"/>
							<path class="st56" d="M34.1,31.9c0.3,0,1,0.9,0.9,1.5c-0.1,0.5-0.5,0.8-1,0.7c-0.6,0-0.7-0.5-0.7-0.8
								C33.3,33,33.8,31.9,34.1,31.9L34.1,31.9z"/>
							<path class="st57" d="M34,31.9c0.3,0,0.9,0.9,0.8,1.4c-0.1,0.5-0.5,0.7-0.9,0.7c-0.6,0-0.7-0.5-0.7-0.7
								C33.3,33,33.8,31.9,34,31.9L34,31.9z"/>
							<path class="st58" d="M34,31.9c0.3,0,0.8,0.9,0.8,1.4c0,0.4-0.4,0.7-0.8,0.7c-0.5,0-0.7-0.5-0.7-0.7
								C33.3,33,33.8,31.9,34,31.9z"/>
							<path class="st59" d="M34,31.9c0.2,0,0.8,0.8,0.7,1.3c0,0.4-0.4,0.7-0.8,0.6c-0.5,0-0.6-0.5-0.6-0.7
								C33.4,33,33.8,31.9,34,31.9L34,31.9z"/>
							<path class="st60" d="M34,32c0.2,0,0.7,0.8,0.7,1.3c0,0.4-0.3,0.6-0.7,0.6c-0.5,0-0.6-0.4-0.6-0.6C33.4,33,33.8,32,34,32z"/>
							<path class="st61" d="M34,32c0.2,0,0.7,0.8,0.6,1.3c0,0.3-0.3,0.6-0.6,0.6c-0.5,0-0.6-0.4-0.6-0.6C33.4,33,33.8,32,34,32
								L34,32z"/>
						</g>
						<path class="st62" d="M34.6,33.1c0,0.5-0.5,0.9-1,0.9s-1-0.4-1-0.9c0-0.9,1.1-2.1,1.1-2.1l0.1,0c0,0,0,0,0,0.1
							C33.9,31.3,34.6,32.4,34.6,33.1L34.6,33.1z"/>
						<path class="st63" d="M34.7,33.1c0,0.5-0.5,0.9-1,0.9c-0.6,0-1-0.4-1-0.9c0-0.8,1-2.1,1-2.1S34.7,32.3,34.7,33.1z"/>
					</g>
					<g>
						<g>
							<path class="st0" d="M28.1,31c-0.1-1.3,1.6-4,2.8-4c1.3-0.1,4,2.6,3.7,4.4c-0.3,2.2-3.1,2.6-4.5,2.2
								C28.8,33.1,28.2,31.7,28.1,31L28.1,31z"/>
							<path class="st31" d="M30.9,27c1.3-0.1,3.9,2.5,3.7,4.3c-0.3,2.1-3,2.5-4.4,2.1c-1.4-0.4-2-1.8-2-2.5
								C28.1,29.8,29.7,27.1,30.9,27z"/>
							<path class="st32" d="M30.9,27c1.2-0.1,3.8,2.5,3.6,4.2c-0.3,2.1-2.9,2.5-4.2,2.1c-1.4-0.4-2-1.7-2-2.4
								C28.2,29.8,29.7,27.1,30.9,27L30.9,27z"/>
							<path class="st33" d="M30.9,27.1c1.2-0.1,3.7,2.5,3.5,4.2c-0.3,2-2.8,2.4-4.1,2.1c-1.4-0.4-1.9-1.7-2-2.4
								C28.2,29.8,29.7,27.2,30.9,27.1L30.9,27.1z"/>
							<path class="st34" d="M30.8,27.1c1.2-0.1,3.6,2.4,3.4,4.1c-0.3,2-2.8,2.4-4,2c-1.3-0.4-1.9-1.7-1.9-2.3
								C28.2,29.8,29.7,27.2,30.8,27.1L30.8,27.1z"/>
							<path class="st35" d="M30.8,27.2c1.1-0.1,3.5,2.4,3.3,4c-0.2,1.9-2.7,2.3-3.9,2c-1.3-0.4-1.9-1.6-1.9-2.3
								C28.3,29.8,29.7,27.2,30.8,27.2L30.8,27.2z"/>
							<path class="st36" d="M30.8,27.2c1.1-0.1,3.4,2.3,3.2,3.9c-0.2,1.9-2.6,2.3-3.8,1.9c-1.3-0.4-1.8-1.6-1.8-2.2
								C28.3,29.8,29.7,27.3,30.8,27.2z"/>
							<path class="st37" d="M30.8,27.3c1.1-0.1,3.3,2.3,3.1,3.9c-0.2,1.8-2.5,2.2-3.7,1.9c-1.3-0.3-1.8-1.6-1.8-2.2
								C28.3,29.8,29.8,27.3,30.8,27.3L30.8,27.3z"/>
							<path class="st38" d="M30.7,27.3c1-0.1,3.2,2.2,3,3.8c-0.2,1.8-2.4,2.2-3.6,1.9c-1.3-0.3-1.8-1.5-1.8-2.1
								C28.4,29.8,29.8,27.4,30.7,27.3z"/>
							<path class="st39" d="M30.7,27.4c1-0.1,3.1,2.2,2.9,3.7c-0.2,1.7-2.3,2.1-3.5,1.8c-1.2-0.3-1.7-1.5-1.7-2.1
								C28.4,29.8,29.7,27.4,30.7,27.4L30.7,27.4z"/>
							<path class="st40" d="M30.7,27.4c1-0.1,3,2.2,2.9,3.6c-0.2,1.6-2.2,2.1-3.3,1.8c-1.2-0.3-1.7-1.4-1.7-2
								C28.5,29.8,29.8,27.5,30.7,27.4z"/>
							<path class="st41" d="M30.7,27.5c0.9-0.1,2.9,2.1,2.8,3.5c-0.2,1.6-2.1,2-3.2,1.7c-1.2-0.3-1.6-1.4-1.7-2
								C28.5,29.8,29.7,27.5,30.7,27.5L30.7,27.5z"/>
							<path class="st42" d="M30.6,27.5c0.9,0,2.8,2.1,2.7,3.5c-0.2,1.5-2,1.9-3.1,1.7c-1.2-0.3-1.6-1.4-1.6-1.9
								C28.5,29.8,29.8,27.5,30.6,27.5L30.6,27.5z"/>
							<path class="st43" d="M30.6,27.6c0.9,0,2.8,2,2.6,3.4c-0.2,1.5-2,1.9-3,1.7c-1.2-0.3-1.6-1.3-1.6-1.9
								C28.6,29.8,29.8,27.6,30.6,27.6z"/>
							<path class="st44" d="M30.6,27.6c0.9,0,2.7,2,2.5,3.3c-0.2,1.4-1.9,1.8-2.9,1.6c-1.1-0.3-1.5-1.3-1.6-1.8
								C28.6,29.8,29.8,27.6,30.6,27.6z"/>
							<path class="st45" d="M30.6,27.7c0.8,0,2.6,1.9,2.4,3.2c-0.2,1.4-1.8,1.8-2.8,1.6c-1.1-0.2-1.5-1.3-1.5-1.8
								C28.6,29.9,29.8,27.7,30.6,27.7L30.6,27.7z"/>
							<path class="st46" d="M30.5,27.7c0.8,0,2.5,1.9,2.3,3.2c-0.2,1.3-1.7,1.7-2.7,1.5c-1.1-0.2-1.5-1.2-1.5-1.7
								C28.7,29.8,29.8,27.7,30.5,27.7z"/>
							<path class="st47" d="M30.5,27.7c0.8,0,2.4,1.9,2.2,3.1c-0.2,1.2-1.6,1.7-2.6,1.5c-1.1-0.2-1.4-1.2-1.5-1.7
								C28.7,29.9,29.8,27.8,30.5,27.7L30.5,27.7z"/>
							<path class="st48" d="M30.5,27.8c0.7,0,2.3,1.8,2.1,3s-1.5,1.6-2.4,1.5c-1.1-0.2-1.4-1.1-1.4-1.6
								C28.7,29.8,29.8,27.8,30.5,27.8L30.5,27.8z"/>
							<path class="st49" d="M30.5,27.8c0.7,0,2.2,1.8,2.1,2.9c-0.1,1.2-1.4,1.6-2.3,1.4c-1-0.2-1.4-1.1-1.4-1.6
								C28.8,29.9,29.8,27.9,30.5,27.8L30.5,27.8z"/>
							<path class="st50" d="M30.4,27.9c0.7,0,2.1,1.7,2,2.9c-0.1,1.1-1.4,1.5-2.2,1.4c-1-0.2-1.3-1.1-1.3-1.5
								C28.8,29.9,29.8,27.9,30.4,27.9L30.4,27.9z"/>
							<path class="st51" d="M30.4,27.9c0.6,0,2,1.7,1.9,2.8c-0.1,1.1-1.3,1.5-2.1,1.3c-1-0.2-1.3-1-1.3-1.5
								C28.9,29.9,29.8,28,30.4,27.9z"/>
							<path class="st52" d="M30.4,28c0.6,0,1.9,1.6,1.8,2.7c-0.1,1.1-1.2,1.4-2,1.3c-1-0.1-1.3-1-1.3-1.4
								C28.9,29.9,29.8,28,30.4,28L30.4,28z"/>
							<path class="st53" d="M30.4,28c0.6,0,1.8,1.6,1.7,2.6c-0.1,1-1.1,1.4-1.9,1.3c-1-0.1-1.2-1-1.2-1.3
								C28.9,29.9,29.8,28.1,30.4,28z"/>
							<path class="st54" d="M30.3,28.1c0.5,0,1.7,1.6,1.6,2.5c-0.1,0.9-1,1.3-1.8,1.2c-0.9-0.1-1.2-0.9-1.2-1.3
								C29,29.9,29.8,28.1,30.3,28.1L30.3,28.1z"/>
							<path class="st55" d="M30.3,28.1c0.5,0,1.6,1.5,1.5,2.5c-0.1,0.8-0.9,1.3-1.7,1.2c-0.9-0.1-1.2-0.9-1.2-1.3
								C29,29.9,29.8,28.1,30.3,28.1L30.3,28.1z"/>
							<path class="st56" d="M30.3,28.2c0.5,0,1.5,1.5,1.4,2.4c-0.1,0.8-0.8,1.2-1.5,1.1c-0.9-0.1-1.1-0.8-1.1-1.2
								C29,29.9,29.8,28.2,30.3,28.2z"/>
							<path class="st57" d="M30.3,28.2c0.4,0,1.4,1.4,1.3,2.3c-0.1,0.7-0.8,1.2-1.4,1.1c-0.9-0.1-1.1-0.8-1.1-1.1
								C29.1,29.9,29.8,28.2,30.3,28.2z"/>
							<path class="st58" d="M30.2,28.3c0.4,0,1.3,1.4,1.3,2.2c-0.1,0.7-0.7,1.1-1.3,1.1c-0.9,0-1.1-0.8-1.1-1.1
								C29.1,30,29.8,28.3,30.2,28.3z"/>
							<path class="st59" d="M30.2,28.3c0.4,0,1.2,1.3,1.2,2.2c-0.1,0.6-0.6,1.1-1.2,1c-0.8,0-1-0.8-1-1.1
								C29.2,30,29.9,28.3,30.2,28.3L30.2,28.3z"/>
							<path class="st60" d="M30.2,28.4c0.3,0,1.2,1.3,1.1,2.1c-0.1,0.6-0.5,1-1.1,1c-0.8,0-1-0.7-1-1C29.2,30,29.8,28.4,30.2,28.4
								L30.2,28.4z"/>
							<path class="st61" d="M30.2,28.4c0.3,0,1.1,1.3,1,2c-0.1,0.5-0.4,1-1,1c-0.8,0-1-0.7-1-0.9C29.2,30,29.9,28.4,30.2,28.4
								L30.2,28.4z"/>
						</g>
						<path class="st62" d="M31.2,30.1c0,0.8-0.7,1.5-1.6,1.5c-0.9,0-1.7-0.7-1.7-1.5c0-1.4,1.7-3.3,1.7-3.3l0.1-0.1
							c0,0,0,0.1,0,0.1C30,27.3,31.2,29,31.2,30.1L31.2,30.1z"/>
						<path class="st63" d="M31.3,30.1c0,0.8-0.7,1.5-1.6,1.5c-0.9,0-1.6-0.7-1.6-1.5c0-1.3,1.6-3.4,1.6-3.4S31.3,28.9,31.3,30.1z"
							/>
					</g>
				</g>
			</g>
		</g>
	</g>
</g>
</svg>
