<?xml version="1.0" encoding="utf-8"?>
<!-- Generator: Adobe Illustrator 27.0.1, SVG Export Plug-In . SVG Version: 6.00 Build 0)  -->
<svg version="1.1" id="Ebene_1" xmlns="http://www.w3.org/2000/svg" xmlns:xlink="http://www.w3.org/1999/xlink" x="0px" y="0px"
	 viewBox="0 0 47.9 47.9" style="enable-background:new 0 0 47.9 47.9;" xml:space="preserve">
<style type="text/css">
	.st0{fill:#FFFFFF;fill-opacity:0;}
	.st1{opacity:5.000000e-02;fill:#F9FBFB;enable-background:new    ;}
	.st2{opacity:0.1;fill:#F4F6F8;enable-background:new    ;}
	.st3{opacity:0.14;fill:#EEF2F4;enable-background:new    ;}
	.st4{opacity:0.19;fill:#E9EDF1;enable-background:new    ;}
	.st5{opacity:0.24;fill:#E3E9ED;enable-background:new    ;}
	.st6{opacity:0.29;fill:#DEE5EA;enable-background:new    ;}
	.st7{opacity:0.33;fill:#D8E0E6;enable-background:new    ;}
	.st8{opacity:0.38;fill:#D3DCE3;enable-background:new    ;}
	.st9{opacity:0.43;fill:#CDD8DF;enable-background:new    ;}
	.st10{opacity:0.48;fill:#C8D3DC;enable-background:new    ;}
	.st11{opacity:0.52;fill:#C2CFD8;enable-background:new    ;}
	.st12{opacity:0.57;fill:#BDCAD5;enable-background:new    ;}
	.st13{opacity:0.62;fill:#B7C6D1;enable-background:new    ;}
	.st14{opacity:0.67;fill:#B2C2CE;enable-background:new    ;}
	.st15{opacity:0.71;fill:#ACBDCA;enable-background:new    ;}
	.st16{opacity:0.76;fill:#A7B9C7;enable-background:new    ;}
	.st17{opacity:0.81;fill:#A1B5C3;enable-background:new    ;}
	.st18{opacity:0.86;fill:#9CB0C0;enable-background:new    ;}
	.st19{opacity:0.9;fill:#96ACBC;enable-background:new    ;}
	.st20{opacity:0.95;fill:#91A7B9;enable-background:new    ;}
	.st21{fill:#8BA3B5;}
	.st22{fill:#008DD4;}
	.st23{fill:url(#SVGID_1_);}
	.st24{fill:#4FC5FF;}
	.st25{fill:url(#SVGID_00000080187483593431058740000016815777777733971116_);}
	.st26{opacity:3.000000e-02;fill:#F8F9F9;enable-background:new    ;}
	.st27{opacity:5.000000e-02;fill:#F1F2F3;enable-background:new    ;}
	.st28{opacity:8.000000e-02;fill:#EAECED;enable-background:new    ;}
	.st29{opacity:0.1;fill:#E4E5E8;enable-background:new    ;}
	.st30{opacity:0.13;fill:#DDDFE2;enable-background:new    ;}
	.st31{opacity:0.15;fill:#D6D8DC;enable-background:new    ;}
	.st32{opacity:0.18;fill:#CFD2D6;enable-background:new    ;}
	.st33{opacity:0.21;fill:#C8CCD0;enable-background:new    ;}
	.st34{opacity:0.23;fill:#C1C5CA;enable-background:new    ;}
	.st35{opacity:0.26;fill:#BABFC5;enable-background:new    ;}
	.st36{opacity:0.28;fill:#B3B8BF;enable-background:new    ;}
	.st37{opacity:0.31;fill:#ADB2B9;enable-background:new    ;}
	.st38{opacity:0.34;fill:#A6ACB3;enable-background:new    ;}
	.st39{opacity:0.36;fill:#9FA5AD;enable-background:new    ;}
	.st40{opacity:0.39;fill:#989FA7;enable-background:new    ;}
	.st41{opacity:0.41;fill:#9198A2;enable-background:new    ;}
	.st42{opacity:0.44;fill:#8A929C;enable-background:new    ;}
	.st43{opacity:0.46;fill:#838B96;enable-background:new    ;}
	.st44{opacity:0.49;fill:#7C8590;enable-background:new    ;}
	.st45{opacity:0.52;fill:#767F8A;enable-background:new    ;}
	.st46{opacity:0.54;fill:#6F7884;enable-background:new    ;}
	.st47{opacity:0.57;fill:#68727F;enable-background:new    ;}
	.st48{opacity:0.59;fill:#616B79;enable-background:new    ;}
	.st49{opacity:0.62;fill:#5A6573;enable-background:new    ;}
	.st50{opacity:0.65;fill:#535F6D;enable-background:new    ;}
	.st51{opacity:0.67;fill:#4C5867;enable-background:new    ;}
	.st52{opacity:0.7;fill:#455261;enable-background:new    ;}
	.st53{opacity:0.72;fill:#3F4B5C;enable-background:new    ;}
	.st54{opacity:0.75;fill:#384556;enable-background:new    ;}
	.st55{opacity:0.77;fill:#313E50;enable-background:new    ;}
	.st56{opacity:0.8;fill:#2A384A;enable-background:new    ;}
	.st57{fill:#FFE3AB;}
	.st58{fill:url(#SVGID_00000029753083739223877580000018075047303856159628_);}
	.st59{fill:url(#SVGID_00000114791847786200310760000000532013512053716912_);}
	.st60{fill:#63CCFF;}
	.st61{fill:#007FC9;}
	.st62{fill:#6ED8FF;}
	.st63{fill:#008CDE;}
	.st64{opacity:3.000000e-02;fill:#FBFCFC;enable-background:new    ;}
	.st65{opacity:6.000000e-02;fill:#F7F9FA;enable-background:new    ;}
	.st66{opacity:0.1;fill:#F3F6F7;enable-background:new    ;}
	.st67{opacity:0.13;fill:#EFF3F5;enable-background:new    ;}
	.st68{opacity:0.16;fill:#EBF0F2;enable-background:new    ;}
	.st69{opacity:0.19;fill:#E8EDF0;enable-background:new    ;}
	.st70{opacity:0.23;fill:#E4EAED;enable-background:new    ;}
	.st71{opacity:0.26;fill:#E0E7EB;enable-background:new    ;}
	.st72{opacity:0.29;fill:#DCE4E8;enable-background:new    ;}
	.st73{opacity:0.32;fill:#D8E1E6;enable-background:new    ;}
	.st74{opacity:0.35;fill:#D4DEE3;enable-background:new    ;}
	.st75{opacity:0.39;fill:#D0DBE0;enable-background:new    ;}
	.st76{opacity:0.42;fill:#CCD8DE;enable-background:new    ;}
	.st77{opacity:0.45;fill:#C8D5DB;enable-background:new    ;}
	.st78{opacity:0.48;fill:#C4D2D9;enable-background:new    ;}
	.st79{opacity:0.52;fill:#C1CFD6;enable-background:new    ;}
	.st80{opacity:0.55;fill:#BDCCD4;enable-background:new    ;}
	.st81{opacity:0.58;fill:#B9C9D1;enable-background:new    ;}
	.st82{opacity:0.61;fill:#B5C6CF;enable-background:new    ;}
	.st83{opacity:0.65;fill:#B1C3CC;enable-background:new    ;}
	.st84{opacity:0.68;fill:#ADC0C9;enable-background:new    ;}
	.st85{opacity:0.71;fill:#A9BDC7;enable-background:new    ;}
	.st86{opacity:0.74;fill:#A5BAC4;enable-background:new    ;}
	.st87{opacity:0.77;fill:#A1B7C2;enable-background:new    ;}
	.st88{opacity:0.81;fill:#9DB4BF;enable-background:new    ;}
	.st89{opacity:0.84;fill:#9AB1BD;enable-background:new    ;}
	.st90{opacity:0.87;fill:#96AEBA;enable-background:new    ;}
	.st91{opacity:0.9;fill:#92ABB8;enable-background:new    ;}
	.st92{opacity:0.94;fill:#8EA8B5;enable-background:new    ;}
	.st93{opacity:0.97;fill:#8AA5B3;enable-background:new    ;}
	.st94{fill:#86A2B0;}
	.st95{fill:#B3EDFF;}
	.st96{fill:#61D7FF;}
</style>
<g>
	<g id="Ebene_2_00000020385051214835077250000010142191257175540378_">
		<g id="Paper-Icons">
			<g>
				<g>
					<g>
						<path class="st0" d="M44.9,30.1c3.6-3.6,3.4-6.5,2.2-9.7c-0.9-2.4-1.3-3.9-2.8-6.1c-1.3-1.9-4.2-4.4-8.4-5
							c-4.1-0.6-13.9,6.2-17.2,7.1c-3.6,1-8.1,3.6-12.7,5.5c-2.4,1-5.9,4.1-6,5.7c-0.1,2.7,0.8,3.8,1.9,4.8c1.2,1.1,3.6,2.9,5,3.6
							c1.4,0.7,4.9,1.6,6.1,1.8c2.6,0.3,3.6-0.5,5.7-0.3c2.7,0.3,3.6,0.5,4.9,0.5c1.1,0,2.1-0.3,2.7-0.3c0.9,0,3.4,0.6,4.5,0.4
							c2.9-0.6,2.2-0.9,3.7-1.4C37.6,35.8,42,33.1,44.9,30.1L44.9,30.1z"/>
						<path class="st1" d="M44.5,30c3.5-3.5,3.3-6.3,2.1-9.4c-0.9-2.3-1.4-3.8-2.8-5.9c-1.3-1.9-4-4.3-8.2-5
							c-4.1-0.7-13.6,6.1-16.9,7c-3.6,1-7.9,3.6-12.4,5.5c-2.3,0.9-6.1,3.9-6.1,5.6c-0.1,2.6,0.8,3.6,2,4.7c1.2,1.1,3.5,2.9,4.9,3.5
							s4.8,1.5,6,1.6c2.6,0.3,3.5-0.4,5.6-0.2c2.7,0.3,3.6,0.4,4.8,0.4c1.1,0,2-0.2,2.7-0.3c1,0,3.4,0.5,4.4,0.3
							c2.8-0.6,2.2-0.9,3.7-1.3C37.4,35.4,41.7,32.9,44.5,30L44.5,30z"/>
						<path class="st2" d="M44.1,29.8c3.4-3.3,3.2-6.1,2-9.1c-0.9-2.3-1.4-3.7-2.9-5.7c-1.3-1.9-3.8-4.3-8-5.1S22,15.9,18.7,16.8
							c-3.6,1-7.7,3.6-12.1,5.4c-2.3,0.9-6.3,3.7-6.3,5.4c0,2.5,0.9,3.5,2.1,4.5c1.2,1,3.5,2.9,4.9,3.5c1.4,0.6,4.6,1.3,5.9,1.5
							c2.6,0.3,3.5-0.3,5.6-0.1c2.7,0.3,3.5,0.4,4.7,0.4c1.1,0,2-0.2,2.7-0.2c1,0,3.3,0.5,4.4,0.2c2.7-0.6,2.1-0.8,3.7-1.3
							C37.3,35,41.3,32.6,44.1,29.8L44.1,29.8z"/>
						<path class="st3" d="M43.7,29.7c3.3-3.2,3.1-6,2-8.8c-0.9-2.2-1.5-3.6-2.9-5.6c-1.3-1.8-3.7-4.2-7.8-5.1
							C30.8,9.4,22,16.1,18.7,17c-3.6,1-7.5,3.6-11.9,5.3c-2.2,0.9-6.5,3.5-6.4,5.3c0,2.4,1,3.3,2.1,4.3s3.4,2.8,4.8,3.4
							c1.5,0.6,4.5,1.2,5.8,1.3c2.5,0.2,3.5-0.2,5.5,0c2.7,0.3,3.4,0.3,4.7,0.3c1.1,0,1.9-0.2,2.7-0.2c1.1,0,3.3,0.4,4.4,0.2
							c2.7-0.5,2.1-0.7,3.7-1.2C37.1,34.7,41,32.3,43.7,29.7L43.7,29.7z"/>
						<path class="st4" d="M43.3,29.6c3.2-3,3.1-5.7,1.9-8.5c-0.9-2.1-1.5-3.5-2.9-5.4c-1.3-1.8-3.5-4.1-7.6-5.1
							c-3.9-0.9-12.6,5.6-15.9,6.5c-3.5,1-7.3,3.5-11.6,5.3c-2.2,0.9-6.7,3.3-6.6,5.1c0.1,2.3,1,3.2,2.2,4.1s3.4,2.8,4.8,3.3
							c1.5,0.6,4.4,1,5.7,1.2c2.5,0.2,3.5-0.1,5.5,0.1c2.7,0.2,3.4,0.3,4.6,0.3c1,0,1.9-0.1,2.7-0.1c1.1,0,3.3,0.3,4.3,0.1
							c2.6-0.5,2.1-0.7,3.7-1.2C37,34.3,40.6,32.1,43.3,29.6L43.3,29.6z"/>
						<path class="st5" d="M42.9,29.4c3.1-2.8,3-5.6,1.8-8.2c-0.9-2.1-1.6-3.4-2.9-5.3c-1.3-1.7-3.3-4.1-7.4-5.1
							c-3.9-1-12.3,5.5-15.5,6.4c-3.5,1-7.1,3.5-11.3,5.2c-2.1,0.9-6.9,3.2-6.8,5c0.1,2.2,1.1,3,2.2,4s3.3,2.7,4.7,3.2
							c1.6,0.5,4.3,0.9,5.6,1c2.5,0.2,3.4,0,5.5,0.2c2.7,0.2,3.3,0.2,4.5,0.2c1,0,1.8-0.1,2.7-0.1c1.2,0,3.3,0.2,4.3,0
							c2.5-0.5,2.1-0.6,3.7-1.1C36.8,33.9,40.3,31.8,42.9,29.4L42.9,29.4z"/>
						<path class="st6" d="M42.5,29.3c3-2.7,2.9-5.4,1.7-7.9c-0.9-2-1.6-3.3-3-5.1c-1.2-1.7-3.2-4-7.2-5.1c-3.8-1-12,5.3-15.2,6.2
							c-3.5,1-7,3.5-11,5.2c-2.1,0.9-7.1,3-6.9,4.9C1,29.6,2,30.3,3.2,31.3c1.2,0.9,3.3,2.7,4.6,3.1c1.6,0.5,4.1,0.7,5.5,0.9
							c2.4,0.2,3.4,0.2,5.4,0.3c2.7,0.2,3.3,0.2,4.5,0.2c1,0,1.8,0,2.7,0c1.2,0,3.2,0.1,4.2-0.1c2.4-0.5,2.1-0.5,3.7-1.1
							C36.6,33.6,39.9,31.6,42.5,29.3L42.5,29.3z"/>
						<path class="st7" d="M42.1,29.2c2.9-2.5,2.8-5.2,1.6-7.6c-0.9-2-1.7-3.2-3-4.9c-1.2-1.6-3-3.9-7-5.1
							c-3.8-1.1-11.7,5.2-14.9,6.1c-3.5,1-6.8,3.5-10.7,5.1c-2,0.8-7.2,2.8-7.1,4.7c0.2,2,1.2,2.7,2.4,3.6s3.2,2.7,4.6,3.1
							c1.7,0.5,4,0.6,5.4,0.7c2.4,0.2,3.4,0.3,5.4,0.4c2.6,0.2,3.2,0.1,4.4,0.1c1,0,1.7,0,2.7,0c1.3,0,3.2,0.1,4.2-0.1
							c2.3-0.4,2-0.5,3.7-1.1C36.5,33.2,39.6,31.3,42.1,29.2L42.1,29.2z"/>
						<path class="st8" d="M41.7,29c2.8-2.4,2.7-5,1.5-7.3c-1-1.9-1.7-3.1-3-4.8c-1.2-1.6-2.8-3.9-6.8-5.1c-3.7-1.2-11.4,5-14.5,5.9
							c-3.4,1-6.6,3.5-10.4,5.1c-2,0.8-7.4,2.6-7.3,4.6s1.3,2.6,2.4,3.5c1.2,0.9,3.2,2.6,4.5,3c1.7,0.5,3.9,0.4,5.3,0.5
							c2.4,0.2,3.3,0.4,5.4,0.5c2.6,0.2,3.1,0.1,4.3,0.1c0.9,0,1.7,0.1,2.7,0.1c1.3,0,3.2,0,4.2-0.2c2.3-0.4,2-0.4,3.7-1
							C36.4,32.9,39.2,31.1,41.7,29L41.7,29z"/>
						<path class="st9" d="M41.3,28.9c2.7-2.2,2.6-4.8,1.5-7c-1-1.9-1.8-3-3-4.6c-1.2-1.6-2.6-3.8-6.6-5.1
							c-3.7-1.2-11.1,4.9-14.2,5.8c-3.4,1-6.4,3.5-10.1,5c-1.9,0.8-7.6,2.4-7.4,4.4c0.2,1.8,1.3,2.4,2.5,3.3C5,31.6,7,33.2,8.3,33.5
							c1.8,0.4,3.7,0.3,5.1,0.4c2.4,0.2,3.3,0.5,5.3,0.6c2.6,0.2,3.1,0,4.3,0c0.9,0,1.6,0.1,2.7,0.1c1.4,0,3.2-0.1,4.1-0.3
							c2.2-0.4,2-0.4,3.7-1C36.2,32.5,38.9,30.8,41.3,28.9L41.3,28.9z"/>
						<path class="st10" d="M40.9,28.7c2.6-2,2.5-4.6,1.4-6.7c-1-1.8-1.8-2.9-3.1-4.5s-2.4-3.7-6.4-5.1c-3.6-1.3-10.8,4.7-13.9,5.6
							c-3.4,1-6.2,3.5-9.9,5c-1.9,0.8-7.8,2.2-7.6,4.3C1.6,29,2.8,29.5,4,30.4c1.3,0.9,3.1,2.5,4.4,2.8c1.8,0.4,3.6,0.1,5,0.2
							c2.3,0.2,3.3,0.6,5.3,0.7c2.6,0.2,3-0.1,4.2,0c0.9,0,1.6,0.1,2.7,0.1c1.5,0,3.1-0.2,4.1-0.3c2.1-0.4,2-0.3,3.7-0.9
							C36.1,32.1,38.5,30.5,40.9,28.7L40.9,28.7z"/>
						<path class="st11" d="M40.4,28.6c2.5-1.9,2.4-4.4,1.3-6.4c-1-1.8-1.9-2.8-3.1-4.3c-1.2-1.5-2.3-3.6-6.3-5.1
							c-3.6-1.3-10.5,4.6-13.5,5.5c-3.4,1-6,3.5-9.6,4.9c-1.8,0.8-8.1,2-7.7,4.1c0.2,1.7,1.5,2.1,2.6,2.9c1.3,0.9,3.1,2.5,4.3,2.7
							c1.8,0.4,3.5,0,4.9,0.1c2.3,0.2,3.3,0.7,5.2,0.8c2.6,0.1,3-0.1,4.1-0.1c0.9,0,1.5,0.2,2.7,0.2c1.5,0,3.1-0.2,4-0.4
							c2.1-0.4,1.9-0.2,3.7-0.9C35.9,31.7,38.2,30.3,40.4,28.6z"/>
						<path class="st12" d="M40,28.5c2.4-1.7,2.4-4.2,1.2-6.2c-1-1.7-1.9-2.7-3.1-4.1C37,16.7,36,14.6,32.1,13
							c-3.5-1.4-10.2,4.4-13.2,5.3c-3.3,1-5.9,3.5-9.3,4.9c-1.8,0.7-8.3,1.8-7.9,4c0.3,1.6,1.5,2,2.7,2.8c1.3,0.9,3,2.4,4.3,2.6
							c1.9,0.3,3.3-0.2,4.8-0.1c2.3,0.2,3.2,0.8,5.2,0.9c2.6,0.1,2.9-0.2,4.1-0.1c0.8,0,1.5,0.2,2.7,0.2c1.6,0,3.1-0.3,4-0.5
							c2-0.3,1.9-0.2,3.7-0.8C35.7,31.4,37.8,30.1,40,28.5L40,28.5z"/>
						<path class="st13" d="M39.6,28.3c2.3-1.6,2.3-4,1.1-5.9c-1-1.7-2-2.6-3.1-4c-1.1-1.4-1.9-3.5-5.9-5.1
							c-3.5-1.5-9.9,4.3-12.9,5.2c-3.3,1-5.7,3.5-9,4.8C8.2,24,1.4,25,1.8,27.2c0.3,1.5,1.6,1.8,2.8,2.6c1.3,0.9,3,2.4,4.2,2.6
							c1.9,0.3,3.2-0.3,4.7-0.2c2.2,0.1,3.2,1,5.1,1c2.6,0.1,2.8-0.2,4-0.2c0.8,0,1.4,0.3,2.7,0.3c1.6,0,3-0.4,3.9-0.5
							c1.9-0.3,1.9-0.1,3.7-0.8C35.6,31,37.5,29.8,39.6,28.3L39.6,28.3z"/>
						<path class="st14" d="M39.2,28.2c2.2-1.4,2.2-3.8,1.1-5.6c-1-1.6-2-2.5-3.2-3.8c-1.1-1.4-1.8-3.4-5.7-5.2
							c-3.5-1.6-9.6,4.1-12.5,5c-3.3,1-5.5,3.4-8.7,4.8c-1.7,0.7-8.7,1.5-8.2,3.7c0.3,1.4,1.7,1.7,2.8,2.4c1.3,0.9,2.9,2.3,4.1,2.5
							c2,0.3,3.1-0.5,4.6-0.4c2.2,0.1,3.2,1.1,5.1,1.1c2.6,0.1,2.8-0.3,3.9-0.2c0.8,0,1.4,0.3,2.7,0.3c1.7,0,3-0.5,3.9-0.6
							c1.8-0.3,1.9,0,3.8-0.7C35.5,30.6,37.1,29.5,39.2,28.2L39.2,28.2z"/>
						<path class="st15" d="M38.8,28.1c2.1-1.2,2.1-3.6,1-5.3c-1-1.6-2.1-2.4-3.2-3.6c-1.1-1.3-1.6-3.3-5.5-5.2
							c-3.4-1.6-9.3,4-12.2,4.8c-3.3,1-5.3,3.4-8.5,4.7c-1.6,0.7-8.9,1.3-8.4,3.6c0.3,1.3,1.7,1.5,2.9,2.3c1.3,0.8,2.9,2.3,4.1,2.4
							c2,0.2,3-0.6,4.5-0.5c2.2,0.1,3.1,1.2,5.1,1.2c2.5,0.1,2.7-0.3,3.9-0.3c0.7,0,1.3,0.4,2.7,0.4c1.7,0,3-0.6,3.9-0.7
							c1.8-0.3,1.8,0,3.8-0.7C35.3,30.2,36.7,29.3,38.8,28.1L38.8,28.1z"/>
						<path class="st16" d="M38.4,27.9c2-1.1,2-3.4,0.9-5c-1-1.5-2.2-2.3-3.2-3.5c-1.1-1.2-1.4-3.2-5.2-5.2c-3.4-1.7-9,3.8-11.9,4.7
							c-3.2,1-5.1,3.4-8.2,4.7c-1.6,0.6-9.1,1.1-8.6,3.4c0.3,1.2,1.8,1.3,3,2.1c1.3,0.8,2.9,2.2,4,2.3c2.1,0.2,2.8-0.8,4.4-0.7
							c2.2,0.1,3.1,1.3,5,1.4c2.5,0.1,2.6-0.4,3.8-0.3c0.7,0.1,1.3,0.4,2.7,0.4c1.8,0,3-0.6,3.8-0.8c1.7-0.3,1.8,0.1,3.8-0.6
							C35.1,29.9,36.4,29,38.4,27.9L38.4,27.9z"/>
						<path class="st17" d="M38,27.8c1.9-1,1.9-3.2,0.8-4.7c-1.1-1.5-2.2-2.1-3.3-3.3c-1-1.2-1.3-3.2-5.1-5.2
							c-3.3-1.7-8.7,3.7-11.5,4.6c-3.2,1-4.9,3.4-7.9,4.6c-1.5,0.6-9.3,0.9-8.7,3.3c0.3,1.1,1.8,1.2,3,1.9c1.3,0.8,2.8,2.2,4,2.2
							c2.1,0.1,2.7-0.9,4.3-0.8c2.1,0.1,3.1,1.4,5,1.5c2.5,0.1,2.6-0.4,3.7-0.4c0.7,0.1,1.3,0.4,2.7,0.5c1.8,0,2.9-0.7,3.8-0.8
							c1.6-0.2,1.8,0.2,3.8-0.6C35,29.5,36.1,28.8,38,27.8z"/>
						<path class="st18" d="M37.6,27.6c1.8-0.8,1.8-3,0.7-4.4c-1.1-1.4-2.3-2-3.3-3.2c-1-1.1-1.1-3.1-4.9-5.2
							c-3.3-1.8-8.4,3.5-11.2,4.4c-3.2,1-4.8,3.4-7.6,4.6c-1.5,0.6-9.6,0.8-8.9,3.1c0.3,1,1.9,1,3.1,1.7c1.3,0.8,2.8,2.1,3.9,2.1
							c2.2,0.1,2.5-1.1,4.2-1c2.1,0.1,3.1,1.5,4.9,1.6c2.5,0,2.5-0.5,3.7-0.4c0.7,0.1,1.2,0.5,2.7,0.5c1.9,0,2.9-0.8,3.7-0.9
							c1.5-0.2,1.8,0.2,3.8-0.5C34.8,29.2,35.7,28.5,37.6,27.6L37.6,27.6z"/>
						<path class="st19" d="M37.2,27.5c1.7-0.6,1.7-2.8,0.7-4.1c-1.1-1.3-2.3-1.9-3.3-3c-1-1.1-0.9-3-4.7-5.2
							c-3.2-1.9-8.1,3.4-10.9,4.2c-3.2,1-4.6,3.4-7.3,4.5c-1.4,0.6-9.8,0.6-9.1,3c0.3,0.9,2,0.9,3.2,1.6c1.3,0.8,2.7,2.1,3.8,2.1
							c2.2-0.1,2.4-1.2,4.1-1.1c2.1,0.1,3,1.7,4.9,1.7c2.5,0,2.4-0.6,3.6-0.5c0.6,0.1,1.2,0.5,2.7,0.5c1.9,0,2.9-0.9,3.7-1
							c1.5-0.2,1.7,0.3,3.8-0.5C34.7,28.8,35.3,28.2,37.2,27.5L37.2,27.5z"/>
						<path class="st20" d="M36.8,27.4c1.6-0.5,1.6-2.6,0.6-3.8c-1-1.3-2.4-1.8-3.3-2.8c-1-1.1-0.8-2.9-4.5-5.2
							c-3.2-1.9-7.8,3.2-10.5,4.1c-3.1,1-4.4,3.4-7,4.5c-1.4,0.6-10.1,0.4-9.2,2.8c0.3,0.9,2,0.7,3.2,1.4c1.4,0.7,2.7,2,3.8,2
							c2.3,0,2.3-1.3,4-1.3c2.1,0.1,3,1.8,4.9,1.8c2.5,0,2.4-0.6,3.5-0.5c0.6,0.1,1.1,0.6,2.7,0.6c2,0,2.9-1,3.7-1
							c1.4-0.2,1.7,0.4,3.8-0.5C34.6,28.4,35,28,36.8,27.4L36.8,27.4z"/>
						<path class="st21" d="M36.4,27.2c1.5-0.4,1.5-2.4,0.5-3.5c-1.1-1.2-2.4-1.7-3.4-2.7c-1-1-0.6-2.8-4.3-5.2
							c-3.1-2-7.5,3.1-10.2,3.9c-3.1,1-4.2,3.4-6.7,4.4C11,24.7,2,24.4,3,26.8c0.3,0.8,2.1,0.6,3.3,1.2c1.4,0.7,2.6,1.9,3.7,1.9
							c2.3-0.1,2.2-1.5,3.9-1.4c2,0.1,3,1.9,4.8,1.9c2.5,0,2.3-0.7,3.5-0.6c0.6,0.1,1.1,0.6,2.7,0.6c2.1,0,2.8-1,3.6-1.1
							c1.3-0.2,1.7,0.4,3.8-0.4C34.4,28,34.6,27.6,36.4,27.2L36.4,27.2z"/>
					</g>
					<path class="st22" d="M35.4,22.2c-0.3-1.1-1-2.1-1.9-2.8c0.2-0.6,0.4-1.3,0.4-2c0.2-3.6-2.6-6.6-6.1-6.8
						c-2.7-0.1-5.1,1.5-6.1,3.8c-0.2,0-0.4-0.1-0.6-0.1c-2.2-0.1-4.2,1-5.5,2.6c-0.4-0.1-0.7-0.2-1.1-0.2c-1.9-0.1-3.5,1.4-3.6,3.4
						c0,0.3,0,0.6,0.1,0.9c-0.7,0.1-1.3,0.5-1.7,1.1c-0.6-0.8-1.5-1.3-2.5-1.4c-1.5-0.1-2.7,0.8-3.2,2.1c-0.1,0-0.1,0-0.2,0
						C2,23,0.9,24,0.9,25.3c-0.1,1.3,1,2.5,2.3,2.5c0.7,0,1.3-0.2,1.8-0.7c0.5,0.3,1,0.5,1.6,0.5c0.5,1.2,1.7,2,3,2.1
						c1.4,0.1,2.7-0.7,3.2-1.9c0.4,0.2,0.8,0.3,1.3,0.3c0.2,0,0.3,0,0.4,0c0.8,1.1,2.1,1.8,3.6,1.9c1.4,0.1,2.7-0.5,3.6-1.5
						c0.6,1.1,1.6,1.8,2.9,1.9c1.4,0.1,2.6-0.7,3.2-1.8c0.7,0.4,1.4,0.6,2.2,0.6c1.8,0.1,3.4-0.7,4.4-2c0.2,0.1,0.5,0.2,0.8,0.2
						c1.4,0.1,2.6-1,2.6-2.5C37.9,23.5,36.8,22.3,35.4,22.2L35.4,22.2z"/>
					
						<linearGradient id="SVGID_1_" gradientUnits="userSpaceOnUse" x1="11.2274" y1="34.6739" x2="30.4228" y2="15.4786" gradientTransform="matrix(1 0 0 -1 0 48.9284)">
						<stop  offset="0" style="stop-color:#1062A1"/>
						<stop  offset="1" style="stop-color:#0A4D80"/>
					</linearGradient>
					<path class="st23" d="M35.5,22.3c-0.3-1.1-1-2.1-1.9-2.8c0.2-0.6,0.4-1.3,0.4-2c0.2-3.6-2.6-6.6-6.1-6.8
						c-2.7-0.1-5.1,1.5-6.1,3.8c-0.2,0-0.4,0-0.6-0.1c-2.2-0.1-4.2,1-5.5,2.6c-0.4-0.1-0.7-0.2-1.1-0.2c-1.9-0.1-3.5,1.4-3.6,3.4
						c0,0.3,0,0.6,0.1,0.9c-0.7,0.1-1.3,0.5-1.7,1.1C8.9,21.6,8,21,6.9,21c-1.5-0.1-2.7,0.8-3.2,2.1c-0.1,0-0.1,0-0.2,0
						c-1.3-0.1-2.4,1-2.5,2.3c-0.1,1.3,1,2.5,2.3,2.5c0.7,0,1.3-0.2,1.8-0.7c0.5,0.3,1,0.5,1.6,0.5c0.5,1.2,1.7,2,3,2.1
						c1.4,0.1,2.7-0.7,3.2-1.9c0.4,0.2,0.8,0.3,1.3,0.3c0.2,0,0.3,0,0.4,0c0.8,1.1,2.1,1.8,3.6,1.9c1.4,0.1,2.7-0.5,3.6-1.5
						c0.6,1.1,1.6,1.8,2.9,1.9c1.4,0.1,2.6-0.7,3.2-1.8c0.7,0.4,1.4,0.6,2.2,0.6c1.8,0.1,3.4-0.7,4.4-2c0.2,0.1,0.5,0.2,0.8,0.2
						c1.4,0.1,2.6-1,2.6-2.5C38,23.6,36.9,22.4,35.5,22.3L35.5,22.3z"/>
				</g>
				<g>
					<g>
						<path class="st0" d="M31.5,25.8c1.6-2.9,0-6.9-0.8-9c-0.6-1.6-2.6-3.7-4.1-4.5c-1.5-0.8-2.1-1.6-4.2-1.8
							c-2.8-0.3-6.4,1.9-8.7,2.5c-2.4,0.7-6.6,2.7-8.8,5.2c-2.6,2.9-2.7,5.3-2,7c0.8,1.8,2,2.8,2.8,3.5c0.8,0.7,1.6,1.3,2.6,1.8
							c1.8,0.9,3.4,0.9,4.8,0.9c1,0.1,3.7,0.3,6.4-0.3c1.9-0.4,3.6-0.7,4.6-1C26.2,29.4,30.1,28.2,31.5,25.8z"/>
						<path class="st1" d="M31.2,25.6c1.6-2.8,0.1-6.7-0.7-8.7c-0.6-1.5-2.5-3.6-4-4.3c-1.5-0.8-2-1.8-4.1-2
							c-2.7-0.3-6.4,1.9-8.6,2.5c-2.4,0.7-6.5,2.6-8.7,5C2.5,21,2.3,23.3,3,25c0.7,1.7,2,2.7,2.8,3.4c0.8,0.7,1.7,1.3,2.6,1.7
							c1.8,0.9,3.4,0.7,4.7,0.8c1,0.1,3.6,0.3,6.3-0.2c1.9-0.4,3.6-0.7,4.5-1C26.1,29.2,29.9,28,31.2,25.6L31.2,25.6z"/>
						<path class="st2" d="M30.9,25.5c1.6-2.7,0.1-6.4-0.6-8.4c-0.6-1.5-2.4-3.4-3.9-4.2c-1.5-0.8-1.9-1.9-4.1-2.2
							c-2.7-0.4-6.4,1.9-8.6,2.6c-2.4,0.7-6.4,2.6-8.5,4.9c-2.4,2.7-2.8,5-2,6.8c0.8,1.7,2,2.6,2.9,3.3s1.7,1.2,2.6,1.6
							c1.9,0.8,3.4,0.6,4.6,0.7c1,0.1,3.6,0.4,6.3-0.2c1.9-0.4,3.5-0.7,4.4-1C25.9,28.8,29.6,27.7,30.9,25.5L30.9,25.5z"/>
						<path class="st3" d="M30.6,25.4c1.6-2.6,0.2-6.2-0.6-8.1c-0.6-1.5-2.3-3.3-3.8-4c-1.4-0.7-1.8-2.1-4-2.4
							c-2.7-0.5-6.4,2-8.5,2.6c-2.4,0.7-6.4,2.5-8.4,4.8c-2.4,2.6-2.8,4.9-2,6.7s2,2.5,2.9,3.1c0.8,0.6,1.7,1.2,2.7,1.6
							c1.9,0.8,3.3,0.5,4.6,0.6c1,0.1,3.5,0.4,6.2-0.1c1.9-0.4,3.4-0.7,4.3-1C25.8,28.5,29.3,27.5,30.6,25.4L30.6,25.4z"/>
						<path class="st4" d="M30.3,25.2c1.6-2.6,0.3-6-0.5-7.8c-0.6-1.4-2.2-3.2-3.7-3.9c-1.4-0.7-1.7-2.2-3.9-2.6
							c-2.6-0.5-6.3,2-8.5,2.6c-2.3,0.6-6.3,2.5-8.3,4.6c-2.3,2.5-2.9,4.8-2.1,6.6c0.8,1.6,2,2.4,2.9,3c0.8,0.6,1.7,1.1,2.7,1.5
							c1.9,0.8,3.3,0.4,4.5,0.5c1,0.1,3.4,0.5,6.1-0.1c2-0.4,3.4-0.8,4.2-1C25.7,28.2,29,27.3,30.3,25.2L30.3,25.2z"/>
						<path class="st5" d="M30,25.1c1.6-2.5,0.4-5.8-0.4-7.5c-0.6-1.4-2.2-3-3.6-3.8c-1.4-0.7-1.6-2.3-3.8-2.8
							c-2.6-0.6-6.3,2.1-8.5,2.7c-2.3,0.6-6.3,2.4-8.1,4.5c-2.2,2.4-2.9,4.7-2.1,6.5c0.8,1.6,2,2.2,2.9,2.8c0.8,0.6,1.8,1,2.7,1.4
							c1.9,0.7,3.2,0.3,4.4,0.4c1,0.1,3.3,0.5,6,0c2-0.4,3.3-0.8,4.1-1C25.5,27.9,28.7,27.1,30,25.1z"/>
						<path class="st6" d="M29.7,25c1.6-2.4,0.5-5.6-0.3-7.2c-0.6-1.4-2.1-2.9-3.6-3.6c-1.4-0.7-1.4-2.5-3.7-3
							c-2.5-0.6-6.3,2.1-8.4,2.7c-2.3,0.6-6.2,2.4-8,4.3c-2.1,2.3-3,4.6-2.1,6.4c0.8,1.6,2,2.1,3,2.7c0.9,0.5,1.8,1,2.7,1.3
							c1.9,0.7,3.2,0.2,4.3,0.3c1,0.1,3.3,0.6,6,0.1c2-0.4,3.2-0.8,4-0.9C25.4,27.6,28.4,26.9,29.7,25L29.7,25z"/>
						<path class="st7" d="M29.4,24.8c1.6-2.3,0.6-5.3-0.2-7c-0.6-1.3-2-2.8-3.5-3.5c-1.3-0.6-1.3-2.6-3.6-3.2
							c-2.5-0.7-6.3,2.2-8.4,2.8c-2.3,0.6-6.2,2.4-7.9,4.2c-2,2.2-3,4.5-2.1,6.3c0.8,1.5,2,2,3,2.6c0.9,0.5,1.8,0.9,2.7,1.2
							c1.9,0.6,3.2,0.1,4.2,0.2c0.9,0.1,3.2,0.6,5.9,0.1c2-0.4,3.2-0.8,3.9-0.9C25.3,27.3,28.2,26.7,29.4,24.8L29.4,24.8z"/>
						<path class="st8" d="M29.1,24.7c1.6-2.2,0.7-5.1-0.1-6.7c-0.6-1.3-1.9-2.6-3.4-3.3c-1.3-0.6-1.2-2.8-3.5-3.4
							c-2.5-0.7-6.3,2.2-8.3,2.8c-2.3,0.6-6.1,2.3-7.7,4.1c-1.9,2.1-3.1,4.3-2.2,6.2c0.8,1.4,2,1.9,3,2.4c0.9,0.5,1.8,0.8,2.7,1.1
							c1.9,0.6,3.1-0.1,4.2,0.1c0.9,0.2,3.1,0.7,5.8,0.2c2-0.4,3.1-0.8,3.8-0.9C25.1,27,27.9,26.4,29.1,24.7L29.1,24.7z"/>
						<path class="st9" d="M28.8,24.6c1.6-2.1,0.7-4.9,0-6.4c-0.6-1.3-1.9-2.5-3.3-3.2c-1.3-0.6-1.1-2.9-3.4-3.6
							c-2.4-0.8-6.3,2.3-8.3,2.8c-2.3,0.6-6,2.3-7.6,3.9c-1.8,2-3.1,4.2-2.2,6.1c0.7,1.4,2,1.8,3,2.3C8,27,9,27.3,9.9,27.6
							c1.9,0.6,3.1-0.2,4.1,0c0.9,0.2,3,0.7,5.7,0.2c2-0.4,3-0.8,3.7-0.9C25,26.7,27.6,26.2,28.8,24.6L28.8,24.6z"/>
						<path class="st10" d="M28.6,24.5c1.6-2,0.8-4.7,0.1-6.1c-0.7-1.2-1.8-2.4-3.2-3c-1.2-0.6-1-3-3.3-3.8
							c-2.4-0.8-6.2,2.3-8.3,2.9c-2.2,0.6-6,2.2-7.4,3.8c-1.7,1.9-3.2,4.1-2.2,6c0.7,1.4,2,1.6,3.1,2.1c0.9,0.4,1.9,0.7,2.8,1
							c2,0.5,3.1-0.3,4-0.1c0.9,0.2,3,0.8,5.7,0.3c2-0.4,2.9-0.8,3.6-0.9C24.9,26.4,27.3,26,28.6,24.5L28.6,24.5z"/>
						<path class="st11" d="M28.3,24.3c1.6-1.9,0.9-4.4,0.2-5.8c-0.7-1.2-1.7-2.2-3.1-2.9c-1.2-0.6-0.9-3.2-3.2-4s-6.2,2.4-8.2,2.9
							c-2.2,0.6-5.9,2.2-7.3,3.6c-1.6,1.7-3.3,4-2.2,5.9c0.7,1.3,2,1.5,3.1,2c0.9,0.4,1.9,0.6,2.8,0.9c2,0.5,3-0.4,3.9-0.2
							c0.9,0.2,2.9,0.8,5.6,0.3c2-0.4,2.9-0.9,3.5-0.9C24.8,26.1,27,25.8,28.3,24.3L28.3,24.3z"/>
						<path class="st12" d="M28,24.2c1.6-1.8,1-4.2,0.2-5.5c-0.7-1.2-1.6-2.1-3-2.7c-1.2-0.5-0.7-3.3-3.1-4.2s-6.2,2.4-8.2,3
							c-2.2,0.6-5.9,2.1-7.2,3.5c-1.5,1.6-3.3,3.9-2.2,5.8c0.7,1.3,2,1.4,3.1,1.8c0.9,0.4,1.9,0.6,2.8,0.8c2,0.4,3-0.5,3.9-0.3
							c0.9,0.2,2.8,0.9,5.5,0.4c2.1-0.4,2.8-0.9,3.4-0.9C24.6,25.8,26.7,25.6,28,24.2L28,24.2z"/>
						<path class="st13" d="M27.7,24.1c1.6-1.8,1.1-4,0.3-5.3c-0.7-1.1-1.5-2-2.9-2.6c-1.1-0.5-0.6-3.4-3-4.4s-6.2,2.4-8.2,3
							c-2.2,0.6-5.8,2.1-7,3.4c-1.4,1.5-3.4,3.8-2.3,5.7c0.7,1.2,2,1.3,3.2,1.7c0.9,0.3,1.9,0.5,2.8,0.7c2,0.4,3-0.6,3.8-0.4
							c0.8,0.2,2.7,0.9,5.4,0.5c2.1-0.4,2.7-0.9,3.3-0.9C24.5,25.5,26.5,25.4,27.7,24.1L27.7,24.1z"/>
						<path class="st14" d="M27.4,23.9c1.6-1.7,1.2-3.8,0.4-5c-0.7-1.1-1.5-1.8-2.8-2.5c-1.1-0.5-0.5-3.6-2.9-4.6S16,14.4,14,14.9
							c-2.2,0.6-5.8,2-6.9,3.2c-1.3,1.4-3.4,3.7-2.3,5.6c0.7,1.2,2,1.2,3.2,1.6c0.9,0.3,2,0.5,2.9,0.6c2,0.4,2.9-0.7,3.7-0.5
							c0.8,0.2,2.7,1,5.4,0.5c2.1-0.4,2.7-0.9,3.2-0.8C24.4,25.2,26.2,25.2,27.4,23.9L27.4,23.9z"/>
						<path class="st15" d="M27.1,23.8c1.6-1.6,1.2-3.5,0.5-4.7c-0.7-1-1.4-1.7-2.7-2.3c-1.1-0.5-0.4-3.7-2.8-4.8
							c-2.3-1.1-6.2,2.5-8.1,3.1c-2.2,0.6-5.7,2-6.8,3.1C6,19.5,3.8,21.8,5,23.7c0.7,1.1,2,1.1,3.2,1.4c0.9,0.3,2,0.4,2.9,0.5
							c2,0.3,2.9-0.8,3.6-0.6c0.8,0.2,2.6,1,5.3,0.6c2.1-0.4,2.6-0.9,3.1-0.8C24.2,24.9,25.9,24.9,27.1,23.8L27.1,23.8z"/>
						<path class="st16" d="M26.8,23.7c1.6-1.5,1.3-3.3,0.6-4.4c-0.7-1-1.3-1.6-2.6-2.2c-1-0.5-0.3-3.8-2.7-5
							c-2.2-1.1-6.1,2.6-8,3.2c-2.1,0.6-5.6,1.9-6.6,3c-1.2,1.2-3.5,3.5-2.3,5.4c0.7,1.1,2,0.9,3.2,1.3c0.9,0.3,2,0.3,2.9,0.4
							c2,0.3,2.9-0.9,3.6-0.7c0.8,0.2,2.5,1.1,5.2,0.6c2.1-0.4,2.5-0.9,3-0.8C24.1,24.6,25.6,24.7,26.8,23.7L26.8,23.7z"/>
						<path class="st17" d="M26.5,23.5c1.6-1.4,1.4-3.1,0.7-4.1c-0.7-1-1.2-1.4-2.5-2c-1-0.4-0.2-4-2.6-5.2c-2.2-1.2-6.1,2.6-8,3.2
							c-2.1,0.6-5.6,1.9-6.5,2.8c-1.1,1.1-3.6,3.3-2.3,5.3c0.7,1.1,2,0.8,3.3,1.1c0.9,0.2,2,0.3,2.9,0.4c2.1,0.2,2.8-1,3.5-0.8
							c0.8,0.3,2.4,1.1,5.1,0.7c2.1-0.3,2.4-0.9,2.9-0.8C24,24.3,25.4,24.5,26.5,23.5L26.5,23.5z"/>
						<path class="st18" d="M26.2,23.4c1.6-1.3,1.5-2.9,0.8-3.8s-1.1-1.3-2.4-1.9c-1-0.4-0.1-4.1-2.5-5.4c-2.2-1.2-6.1,2.7-8,3.2
							c-2.1,0.6-5.5,1.8-6.4,2.7c-1,1-3.6,3.2-2.4,5.2c0.7,1,2,0.7,3.3,1c1,0.2,2.1,0.2,2.9,0.3c2.1,0.2,2.8-1.1,3.4-0.9
							c0.8,0.3,2.3,1.2,5,0.7c2.1-0.3,2.4-1,2.8-0.8C23.8,24,25,24.3,26.2,23.4L26.2,23.4z"/>
						<path class="st19" d="M25.9,23.3c1.6-1.2,1.6-2.6,0.9-3.5s-1.1-1.2-2.3-1.7c-0.9-0.4,0.1-4.2-2.4-5.6
							c-2.1-1.2-6.1,2.7-7.9,3.3c-2.1,0.6-5.5,1.8-6.2,2.5c-0.9,0.9-3.7,3.1-2.4,5c0.7,1,1.9,0.6,3.3,0.9c1,0.2,2.1,0.1,2.9,0.2
							c2.1,0.1,2.7-1.2,3.3-1c0.8,0.3,2.3,1.2,5,0.8c2.1-0.3,2.3-1,2.7-0.8C23.7,23.7,24.8,24.1,25.9,23.3L25.9,23.3z"/>
						<path class="st20" d="M25.6,23.1c1.6-1.1,1.6-2.4,1-3.2s-1-1-2.2-1.6c-0.9-0.4,0.2-4.3-2.3-5.8c-2.1-1.3-6.1,2.8-7.9,3.3
							c-2.1,0.6-5.4,1.8-6.1,2.4c-0.8,0.8-3.8,3-2.4,4.9c0.7,0.9,1.9,0.5,3.4,0.7c1,0.2,2.1,0.1,3,0.1c2.1,0.1,2.7-1.3,3.2-1.1
							c0.8,0.3,2.2,1.3,4.9,0.9c2.2-0.3,2.2-1,2.6-0.8C23.6,23.4,24.5,23.9,25.6,23.1L25.6,23.1z"/>
						<path class="st21" d="M25.3,23c1.6-1,1.7-2.2,1-3c-0.7-0.8-0.9-0.9-2.1-1.4c-0.9-0.4,0.3-4.5-2.2-6c-2.1-1.3-6.1,2.8-7.8,3.4
							c-2.1,0.6-5.4,1.7-6,2.3c-0.7,0.7-3.8,2.9-2.4,4.8c0.7,0.9,1.9,0.4,3.4,0.6c1,0.1,2.1,0,3,0c2.1,0.1,2.7-1.5,3.2-1.2
							c0.7,0.3,2.1,1.3,4.8,0.9c2.2-0.3,2.1-1,2.5-0.8C23.5,23,24.3,23.6,25.3,23L25.3,23z"/>
					</g>
					<path class="st24" d="M25.4,18.6c0.2-0.6,0.3-1.2,0.3-1.9c0-3.9-3.1-7-6.9-7c-3.2,0-5.9,2.3-6.7,5.3c-0.1,0-0.1,0-0.2,0
						c-1.5,0-2.8,0.8-3.6,2c-0.4-0.2-0.8-0.3-1.3-0.3c-1.8,0-3.3,1.5-3.3,3.4s1.5,3.4,3.3,3.4c0.8,0,1.6-0.3,2.1-0.8
						c0.7,0.6,1.7,1,2.7,1c1.2,0,2.2-0.5,3-1.2c1.1,0.8,2.4,1.2,3.9,1.2c1.3,0,2.6-0.4,3.6-1c0.5,0.6,1.2,1,2,1
						c1.4,0,2.6-1.2,2.6-2.6C26.9,19.9,26.3,19,25.4,18.6L25.4,18.6z"/>
					
						<linearGradient id="SVGID_00000099664072674655085510000008634827214121936795_" gradientUnits="userSpaceOnUse" x1="3.7147" y1="32.1335" x2="27.0455" y2="32.1335" gradientTransform="matrix(1 0 0 -1 0 48.9284)">
						<stop  offset="0" style="stop-color:#076BBA"/>
						<stop  offset="1" style="stop-color:#0060AB"/>
					</linearGradient>
					<path style="fill:url(#SVGID_00000099664072674655085510000008634827214121936795_);" d="M25.5,18.7c0.2-0.6,0.3-1.2,0.3-1.9
						c0-3.9-3.1-7-6.9-7c-3.2,0-5.9,2.3-6.7,5.3c-0.1,0-0.1,0-0.2,0c-1.5,0-2.8,0.8-3.6,2c-0.4-0.2-0.8-0.3-1.3-0.3
						c-1.8,0-3.3,1.5-3.3,3.4c0,1.9,1.5,3.4,3.3,3.4c0.8,0,1.6-0.3,2.1-0.8c0.7,0.6,1.7,1,2.7,1c1.2,0,2.2-0.5,3-1.2
						c1.1,0.8,2.4,1.2,3.9,1.2c1.3,0,2.6-0.4,3.6-1c0.5,0.6,1.2,1,2,1c1.4,0,2.6-1.2,2.6-2.6C27,20,26.4,19.1,25.5,18.7L25.5,18.7z"
						/>
				</g>
				<g>
					<g>
						<path class="st0" d="M33.4,40.9c-0.6-0.9-1.3-1.9-2.5-2.2c-1.4-0.4-3.6-5.7-4.1-7.1c-1.5-4.8-2-6.3-2.3-7.6
							c-0.5-2.8,7.1-4.6,8.6-1.6c1,2,1.2,3.3,1.5,3.9c0.5,0.8,1.2,1.2,3.4,3.1c3,2.4,0.8,13-1.8,13.4C34.5,42.9,34.3,42.4,33.4,40.9
							z"/>
						<path class="st26" d="M33.4,40.6c-0.5-0.9-1.3-1.8-2.5-2.1c-1.4-0.3-3.6-5.5-4-6.9c-1.5-4.7-2-6.3-2.2-7.6
							c-0.5-2.7,6.9-4.5,8.4-1.6c1,2,1.2,3.4,1.5,3.9c0.5,0.8,1.2,1.2,3.4,2.9c2.9,2.3,0.7,12.8-1.7,13.1
							C34.5,42.7,34.3,42.1,33.4,40.6L33.4,40.6z"/>
						<path class="st27" d="M33.3,40.4c-0.5-0.8-1.3-1.8-2.5-2c-1.4-0.3-3.5-5.3-3.9-6.8c-1.5-4.6-2-6.3-2.2-7.5
							c-0.5-2.6,6.8-4.4,8.1-1.5c1,2,1.1,3.4,1.5,4c0.5,0.8,1.3,1.1,3.4,2.8c2.8,2.3,0.7,12.5-1.7,12.9
							C34.5,42.5,34.3,41.8,33.3,40.4L33.3,40.4z"/>
						<path class="st28" d="M33.3,40.1c-0.5-0.8-1.3-1.7-2.5-1.9c-1.4-0.3-3.4-5.1-3.8-6.6c-1.4-4.5-2-6.2-2.2-7.5
							c-0.4-2.6,6.6-4.3,7.9-1.4c0.9,2,1.1,3.5,1.5,4c0.5,0.8,1.4,1,3.4,2.6c2.7,2.2,0.7,12.3-1.6,12.6
							C34.4,42.3,34.2,41.5,33.3,40.1L33.3,40.1z"/>
						<path class="st29" d="M33.3,39.9c-0.5-0.8-1.3-1.6-2.5-1.8c-1.3-0.2-3.3-4.9-3.8-6.4c-1.4-4.4-1.9-6.2-2.1-7.4
							c-0.4-2.5,6.4-4.1,7.7-1.4c0.9,2,1.1,3.5,1.5,4.1c0.5,0.7,1.4,0.9,3.4,2.5c2.6,2.1,0.7,12-1.6,12.3
							C34.4,42.1,34.2,41.2,33.3,39.9L33.3,39.9z"/>
						<path class="st30" d="M33.3,39.6c-0.5-0.8-1.3-1.5-2.4-1.7c-1.3-0.2-3.2-4.7-3.7-6.2c-1.4-4.3-1.9-6.2-2.1-7.4
							c-0.4-2.4,6.2-4,7.5-1.3c0.9,2,1.1,3.6,1.5,4.1c0.5,0.7,1.5,0.8,3.4,2.4c2.5,2.1,0.7,11.7-1.5,12.1
							C34.4,41.8,34.2,40.9,33.3,39.6L33.3,39.6z"/>
						<path class="st31" d="M33.3,39.4c-0.5-0.7-1.3-1.4-2.4-1.6c-1.3-0.2-3.1-4.6-3.6-6.1c-1.4-4.2-1.9-6.2-2-7.3
							c-0.3-2.4,6.1-3.9,7.3-1.2c0.9,2,1.1,3.7,1.4,4.2c0.5,0.7,1.6,0.7,3.4,2.2c2.4,2,0.7,11.5-1.4,11.8
							C34.4,41.6,34.1,40.6,33.3,39.4L33.3,39.4z"/>
						<path class="st32" d="M33.2,39.2c-0.5-0.7-1.3-1.4-2.4-1.5c-1.3-0.2-3-4.4-3.5-5.9c-1.4-4.2-1.9-6.1-2-7.2
							c-0.3-2.3,5.9-3.8,7-1.2c0.9,2,1,3.7,1.4,4.2c0.5,0.7,1.6,0.6,3.4,2.1c2.3,1.9,0.7,11.2-1.4,11.5
							C34.3,41.4,34.1,40.3,33.2,39.2L33.2,39.2z"/>
						<path class="st33" d="M33.2,38.9c-0.5-0.7-1.3-1.3-2.4-1.4c-1.3-0.1-2.9-4.2-3.4-5.7c-1.3-4.1-1.9-6.1-2-7.2
							c-0.3-2.2,5.7-3.7,6.8-1.1c0.8,1.9,1,3.8,1.4,4.3c0.6,0.7,1.7,0.5,3.4,2c2.3,1.9,0.6,11-1.3,11.2C34.3,41.2,34,40.1,33.2,38.9
							L33.2,38.9z"/>
						<path class="st34" d="M33.2,38.7c-0.5-0.7-1.3-1.2-2.4-1.3c-1.2-0.1-2.9-4-3.4-5.5c-1.3-4-1.8-6.1-1.9-7.1
							c-0.2-2.1,5.5-3.5,6.6-1c0.8,1.9,1,3.9,1.4,4.3c0.6,0.7,1.7,0.5,3.4,1.8c2.2,1.8,0.6,10.7-1.3,11C34.2,41,34,39.8,33.2,38.7z"
							/>
						<path class="st35" d="M33.2,38.4c-0.5-0.6-1.3-1.1-2.4-1.2s-2.8-3.8-3.3-5.3c-1.3-3.9-1.8-6.1-1.9-7.1c-0.2-2.1,5.4-3.4,6.4-1
							c0.8,1.9,1,3.9,1.4,4.4c0.6,0.7,1.8,0.4,3.4,1.7c2.1,1.8,0.6,10.5-1.2,10.7C34.2,40.8,33.9,39.5,33.2,38.4L33.2,38.4z"/>
						<path class="st36" d="M33.2,38.2c-0.5-0.6-1.3-1.1-2.4-1.1s-2.7-3.6-3.2-5.2c-1.3-3.8-1.8-6-1.9-7c-0.2-2,5.2-3.3,6.2-0.9
							c0.8,1.9,0.9,4,1.4,4.5c0.6,0.7,1.9,0.3,3.4,1.6c2,1.7,0.6,10.2-1.2,10.4C34.2,40.6,33.9,39.2,33.2,38.2z"/>
						<path class="st37" d="M33.1,37.9c-0.5-0.6-1.3-1-2.4-1s-2.6-3.4-3.1-5c-1.2-3.7-1.8-6-1.8-7c-0.1-1.9,5-3.2,5.9-0.9
							c0.8,1.9,0.9,4,1.3,4.5c0.6,0.7,1.9,0.2,3.4,1.4c1.9,1.6,0.6,9.9-1.1,10.1C34.1,40.3,33.9,38.9,33.1,37.9L33.1,37.9z"/>
						<path class="st38" d="M33.1,37.7c-0.4-0.6-1.3-0.9-2.4-0.9c-1.2,0-2.5-3.3-3-4.8c-1.2-3.6-1.7-6-1.8-6.9
							c-0.1-1.9,4.8-3.1,5.7-0.8c0.7,1.9,0.9,4.1,1.3,4.6c0.6,0.7,2,0.1,3.4,1.3c1.8,1.6,0.6,9.7-1,9.9
							C34.1,40.1,33.8,38.6,33.1,37.7L33.1,37.7z"/>
						<path class="st39" d="M33.1,37.4c-0.4-0.6-1.3-0.8-2.4-0.8c-1.1,0-2.4-3.1-2.9-4.6c-1.2-3.6-1.7-6-1.8-6.9
							c-0.1-1.8,4.6-3,5.5-0.7c0.7,1.9,0.9,4.2,1.3,4.6c0.6,0.6,2.1,0,3.4,1.2c1.7,1.5,0.6,9.4-1,9.6C34,39.9,33.8,38.4,33.1,37.4
							L33.1,37.4z"/>
						<path class="st40" d="M33.1,37.2c-0.4-0.5-1.3-0.8-2.4-0.7c-1.1,0-2.3-2.9-2.9-4.5c-1.2-3.5-1.7-5.9-1.7-6.8
							c0-1.7,4.5-2.8,5.3-0.6c0.7,1.9,0.9,4.2,1.3,4.7c0.6,0.6,2.1-0.1,3.4,1c1.7,1.4,0.5,9.2-0.9,9.3C34,39.7,33.7,38.1,33.1,37.2
							L33.1,37.2z"/>
						<path class="st41" d="M33.1,37c-0.4-0.5-1.3-0.7-2.4-0.6c-1.1,0.1-2.2-2.7-2.8-4.3c-1.1-3.4-1.7-5.9-1.7-6.8
							c0-1.6,4.3-2.7,5.1-0.6c0.7,1.9,0.8,4.3,1.3,4.7c0.7,0.6,2.2-0.2,3.4,0.9c1.6,1.4,0.5,8.9-0.9,9.1C34,39.5,33.7,37.8,33.1,37
							L33.1,37z"/>
						<path class="st42" d="M33,36.7c-0.4-0.5-1.2-0.6-2.4-0.5c-1,0.1-2.1-2.5-2.7-4.1c-1.1-3.3-1.7-5.9-1.6-6.7
							c0-1.6,4.1-2.6,4.8-0.5c0.7,1.9,0.8,4.3,1.2,4.8c0.7,0.6,2.2-0.2,3.4,0.8c1.5,1.3,0.5,8.6-0.8,8.8
							C33.9,39.3,33.6,37.5,33,36.7z"/>
						<path class="st43" d="M33,36.5c-0.4-0.5-1.2-0.5-2.4-0.4c-1,0.1-2.1-2.3-2.6-3.9c-1.1-3.2-1.6-5.9-1.6-6.7
							C26.4,24,30.3,23,31,25c0.6,1.8,0.8,4.4,1.2,4.8c0.7,0.6,2.3-0.3,3.4,0.6c1.4,1.3,0.5,8.4-0.8,8.5C33.9,39,33.6,37.2,33,36.5z
							"/>
						<path class="st44" d="M33,36.2c-0.4-0.5-1.2-0.4-2.4-0.3c-1,0.1-2-2.1-2.5-3.8c-1.1-3.1-1.6-5.8-1.6-6.6
							c0.1-1.4,3.8-2.4,4.4-0.4c0.6,1.8,0.8,4.5,1.2,4.9c0.7,0.6,2.4-0.4,3.4,0.5c1.3,1.2,0.5,8.1-0.7,8.3
							C33.9,38.8,33.6,36.9,33,36.2L33,36.2z"/>
						<path class="st45" d="M33,36c-0.4-0.4-1.2-0.4-2.4-0.2c-1,0.1-1.9-1.9-2.4-3.6c-1.1-3.1-1.6-5.8-1.5-6.6
							c0.1-1.3,3.6-2.2,4.2-0.3c0.6,1.9,0.8,4.5,1.2,4.9c0.7,0.6,2.4-0.5,3.4,0.3c1.2,1.1,0.5,7.9-0.6,8C33.8,38.6,33.5,36.6,33,36
							L33,36z"/>
						<path class="st46" d="M32.9,35.7c-0.4-0.4-1.2-0.3-2.4-0.1c-0.9,0.1-1.8-1.8-2.4-3.4c-1-3-1.6-5.8-1.5-6.5
							c0.2-1.3,3.4-2.1,4-0.3c0.6,1.9,0.7,4.6,1.2,5c0.7,0.6,2.5-0.6,3.4,0.2c1.2,1.1,0.5,7.6-0.6,7.7
							C33.8,38.4,33.4,36.3,32.9,35.7L32.9,35.7z"/>
						<path class="st47" d="M32.9,35.5c-0.4-0.4-1.2-0.2-2.4,0c-0.9,0.2-1.7-1.6-2.3-3.2c-1-2.9-1.6-5.7-1.5-6.5
							c0.2-1.2,3.2-2,3.7-0.2c0.5,1.8,0.7,4.7,1.2,5c0.7,0.6,2.6-0.7,3.4,0.1c1.1,1,0.4,7.3-0.5,7.4C33.7,38.2,33.4,36,32.9,35.5
							L32.9,35.5z"/>
						<path class="st48" d="M32.9,35.3c-0.4-0.4-1.2-0.2-2.4,0.1c-0.9,0.2-1.6-1.4-2.2-3.1c-1-2.8-1.6-5.7-1.4-6.4
							c0.2-1.1,3-1.9,3.5-0.1c0.5,1.7,0.7,4.7,1.1,5.1c0.7,0.6,2.6-0.8,3.4-0.1c1,1,0.4,7.1-0.5,7.2C33.7,38,33.4,35.7,32.9,35.3
							L32.9,35.3z"/>
						<path class="st49" d="M32.9,35c-0.4-0.3-1.2-0.1-2.4,0.2c-0.9,0.2-1.5-1.2-2.1-2.9c-1-2.7-1.5-5.7-1.4-6.4
							c0.2-1,2.9-1.8,3.3-0.1c0.5,1.8,0.7,4.8,1.1,5.1c0.8,0.6,2.7-0.9,3.4-0.2c0.9,0.9,0.4,6.8-0.4,6.9
							C33.7,37.7,33.3,35.4,32.9,35L32.9,35z"/>
						<path class="st50" d="M32.9,34.8c-0.4-0.3-1.2,0-2.4,0.3c-0.8,0.2-1.4-1-2-2.7c-0.9-2.6-1.5-5.7-1.4-6.3c0.3-1,2.7-1.6,3.1,0
							c0.5,1.8,0.7,4.8,1.1,5.2c0.8,0.5,2.8-1,3.4-0.3c0.8,0.8,0.4,6.6-0.4,6.6C33.6,37.5,33.3,35.2,32.9,34.8L32.9,34.8z"/>
						<path class="st51" d="M32.8,34.5c-0.4-0.3-1.2,0-2.4,0.4c-0.8,0.2-1.3-0.8-1.9-2.5c-0.9-2.5-1.5-5.6-1.3-6.3
							c0.3-0.9,2.5-1.5,2.9,0.1c0.4,1.8,0.6,4.9,1.1,5.2c0.8,0.5,2.8-1,3.4-0.5c0.7,0.8,0.4,6.3-0.3,6.3
							C33.6,37.3,33.2,34.9,32.8,34.5z"/>
						<path class="st52" d="M32.8,34.3c-0.4-0.3-1.2,0.1-2.4,0.5c-0.8,0.2-1.3-0.6-1.9-2.4c-0.9-2.5-1.5-5.6-1.3-6.2
							c0.3-0.8,2.3-1.4,2.7,0.1c0.4,1.8,0.6,5,1.1,5.3c0.8,0.5,2.9-1.1,3.3-0.6c0.6,0.7,0.4,6-0.2,6.1
							C33.6,37.1,33.2,34.6,32.8,34.3L32.8,34.3z"/>
						<path class="st53" d="M32.8,34c-0.3-0.3-1.2,0.2-2.4,0.6c-0.8,0.3-1.2-0.5-1.8-2.2c-0.9-2.4-1.5-5.6-1.2-6.2
							c0.3-0.8,2.1-1.3,2.4,0.2c0.4,1.8,0.6,5,1.1,5.3c0.8,0.5,3-1.2,3.3-0.8c0.6,0.6,0.3,5.8-0.2,5.8C33.5,36.9,33.2,34.3,32.8,34
							L32.8,34z"/>
						<path class="st54" d="M32.8,33.8c-0.3-0.2-1.2,0.2-2.4,0.7c-0.8,0.3-1.1-0.3-1.7-2c-0.8-2.3-1.5-5.6-1.2-6.1
							c0.3-0.7,1.9-1.2,2.2,0.3c0.4,1.8,0.6,5.1,1,5.4c0.8,0.5,3-1.3,3.3-0.9c0.5,0.6,0.3,5.5-0.1,5.5C33.5,36.6,33.1,34,32.8,33.8
							L32.8,33.8z"/>
						<path class="st55" d="M32.8,33.6c-0.3-0.2-1.2,0.3-2.4,0.8c-0.7,0.3-1-0.1-1.6-1.8c-0.8-2.2-1.5-5.6-1.2-6.1
							c0.4-0.6,1.7-1,2,0.3c0.3,1.8,0.6,5.2,1,5.4c0.8,0.5,3.1-1.4,3.3-1c0.4,0.5,0.3,5.3-0.1,5.3C33.5,36.4,33.1,33.7,32.8,33.6
							L32.8,33.6z"/>
						<path class="st56" d="M32.7,33.3c-0.3-0.2-1.2,0.4-2.4,0.9c-0.7,0.3-0.9,0.1-1.5-1.6c-0.8-2.1-1.4-5.5-1.1-6
							c0.4-0.5,1.6-0.9,1.8,0.4c0.3,1.7,0.5,5.2,1,5.5c0.9,0.5,3.1-1.5,3.3-1.1c0.3,0.5,0.3,5,0,5C33.4,36.3,33,33.5,32.7,33.3
							L32.7,33.3z"/>
					</g>
					<polygon class="st57" points="29.2,23.4 30.2,32 34.4,29.6 34.2,39.9 31.9,33.5 28.4,36.2 24.3,23.4 					"/>
					
						<linearGradient id="SVGID_00000117657636382137991240000015969994066966593983_" gradientUnits="userSpaceOnUse" x1="-293.0627" y1="579.1959" x2="-299.9146" y2="589.5163" gradientTransform="matrix(0.9741 0.226 0.226 -0.9741 187.4845 666.8491)">
						<stop  offset="0" style="stop-color:#FFD45C"/>
						<stop  offset="1" style="stop-color:#FF9D00"/>
					</linearGradient>
					<polygon style="fill:url(#SVGID_00000117657636382137991240000015969994066966593983_);" points="29.2,23.4 30.6,32.2 
						34.4,29.6 34.2,39.9 32.3,33.5 28.7,36 24.5,23.4 					"/>
				</g>
				<g>
					<g>
						<path class="st0" d="M44.3,27.9c2-1.7,1.7-7.1,0.6-8.6c-1.4-1.9-2.8-3.1-4-3.7c-1.2-0.6-4.7-1.2-6.3-1.2c-2.2,0-4.4,0.5-6.2,1
							c-1.9,0.5-5.8,1.9-7.6,4c-2.1,2.4-0.3,7,0.3,7.7c1,1.3,2.2,2.6,3.8,3.3c1.5,0.7,2.8,0.7,3.8,0.8c0.8,0.1,4.5,0.5,6.7,0
							c1.5-0.3,4.1-0.8,4.9-1.2C40.9,29.7,42.6,29.2,44.3,27.9L44.3,27.9z"/>
						<path class="st1" d="M43.9,27.7c2-1.7,1.7-6.9,0.6-8.4c-1.3-1.9-2.8-3-4-3.6c-1.2-0.6-4.6-1.2-6.1-1.2c-2.2,0-4.3,0.5-6.1,1
							c-1.9,0.5-5.7,1.9-7.4,3.9c-2,2.3-0.3,6.8,0.3,7.6c1,1.2,2.1,2.5,3.7,3.2c1.5,0.7,2.7,0.6,3.8,0.7c0.8,0.1,4.4,0.5,6.6,0.1
							c1.5-0.3,4.1-0.9,4.8-1.2C40.6,29.4,42.3,29,43.9,27.7L43.9,27.7z"/>
						<path class="st2" d="M43.6,27.5c2-1.6,1.7-6.7,0.7-8.2c-1.3-1.9-2.7-2.9-4-3.5c-1.2-0.6-4.4-1.2-5.9-1.2c-2.1,0-4.3,0.5-6,1
							c-1.9,0.5-5.6,1.9-7.3,3.8c-2,2.2-0.3,6.6,0.3,7.4c1,1.2,2,2.5,3.6,3.2c1.4,0.7,2.7,0.6,3.7,0.7c0.8,0.1,4.3,0.6,6.4,0.1
							c1.6-0.3,4-0.9,4.7-1.2C40.3,29.2,42,28.8,43.6,27.5z"/>
						<path class="st3" d="M43.3,27.3c1.9-1.6,1.7-6.4,0.7-7.9c-1.3-1.9-2.7-2.9-3.9-3.5c-1.2-0.6-4.2-1.1-5.7-1.2
							c-2.1-0.1-4.2,0.4-6,0.9c-1.9,0.5-5.6,1.9-7.2,3.8c-1.9,2.1-0.4,6.4,0.3,7.2c0.9,1.2,1.9,2.4,3.5,3.1c1.4,0.6,2.6,0.5,3.6,0.6
							c0.8,0.1,4.1,0.6,6.3,0.2c1.6-0.3,3.9-0.9,4.6-1.3C40.1,28.9,41.7,28.6,43.3,27.3L43.3,27.3z"/>
						<path class="st4" d="M43,27.1c1.9-1.5,1.7-6.2,0.7-7.7c-1.3-1.9-2.7-2.8-3.9-3.4c-1.1-0.6-4-1.1-5.5-1.2
							c-2-0.1-4.1,0.4-5.9,0.9c-1.9,0.5-5.5,1.9-7.1,3.7c-1.8,2-0.4,6.2,0.2,7c0.9,1.1,1.8,2.4,3.4,3c1.4,0.6,2.6,0.5,3.6,0.6
							c0.8,0.1,4,0.7,6.1,0.3c1.6-0.3,3.8-1,4.5-1.3C39.7,28.7,41.4,28.4,43,27.1L43,27.1z"/>
						<path class="st5" d="M42.6,27c1.9-1.5,1.7-6,0.7-7.5c-1.2-1.9-2.6-2.8-3.8-3.3c-1.1-0.5-3.8-1.1-5.3-1.2
							c-1.9-0.1-4.1,0.4-5.8,0.9c-1.9,0.5-5.5,1.9-7,3.6c-1.7,1.9-0.5,6,0.2,6.9c0.9,1.1,1.7,2.3,3.3,3c1.4,0.6,2.6,0.4,3.5,0.5
							c0.8,0.1,3.8,0.8,6,0.3c1.6-0.3,3.7-1,4.3-1.3C39.5,28.4,41.1,28.2,42.6,27L42.6,27z"/>
						<path class="st6" d="M42.3,26.8c1.9-1.4,1.7-5.7,0.7-7.3c-1.2-1.9-2.6-2.7-3.8-3.3c-1.1-0.5-3.7-1.1-5.1-1.2
							c-1.9-0.1-4,0.3-5.7,0.8c-1.9,0.5-5.4,2-6.8,3.5c-1.7,1.8-0.5,5.8,0.2,6.7c0.8,1,1.6,2.2,3.2,2.9c1.4,0.6,2.5,0.4,3.4,0.5
							c0.8,0.1,3.7,0.8,5.9,0.4c1.6-0.3,3.6-1,4.2-1.4C39.2,28.2,40.8,28,42.3,26.8L42.3,26.8z"/>
						<path class="st7" d="M42,26.6c1.8-1.4,1.7-5.5,0.7-7.1c-1.2-1.9-2.5-2.6-3.7-3.2c-1.1-0.5-3.5-1.1-4.9-1.2
							c-1.8-0.1-4,0.3-5.6,0.8c-1.8,0.5-5.4,2-6.7,3.4c-1.6,1.8-0.6,5.6,0.2,6.5c0.8,0.9,1.6,2.2,3.1,2.8c1.4,0.5,2.5,0.3,3.4,0.5
							c0.8,0.1,3.6,0.9,5.7,0.5c1.6-0.3,3.5-1.1,4.1-1.4C38.9,27.9,40.4,27.8,42,26.6L42,26.6z"/>
						<path class="st8" d="M41.7,26.4c1.8-1.3,1.7-5.3,0.7-6.9c-1.2-1.9-2.5-2.6-3.7-3.1c-1-0.5-3.3-1.1-4.7-1.2
							c-1.8-0.1-3.9,0.3-5.6,0.7c-1.8,0.5-5.3,2-6.6,3.4c-1.5,1.7-0.6,5.3,0.2,6.3c0.8,1,1.5,2.1,3,2.7c1.3,0.5,2.5,0.3,3.3,0.4
							c0.7,0.1,3.4,0.9,5.6,0.5c1.6-0.3,3.5-1.1,4-1.4C38.6,27.6,40.1,27.6,41.7,26.4z"/>
						<path class="st9" d="M41.3,26.3c1.8-1.2,1.7-5,0.7-6.6c-1.1-1.9-2.5-2.5-3.6-3.1c-1-0.5-3.1-1-4.5-1.2
							c-1.7-0.2-3.8,0.2-5.5,0.7c-1.8,0.5-5.2,2-6.5,3.3c-1.5,1.6-0.7,5.1,0.2,6.2c0.7,0.9,1.4,2.1,2.9,2.7c1.3,0.5,2.4,0.2,3.2,0.4
							c0.7,0.1,3.3,1,5.5,0.6c1.6-0.3,3.4-1.2,3.9-1.4C38.3,27.4,39.8,27.4,41.3,26.3L41.3,26.3z"/>
						<path class="st10" d="M41,26.1c1.7-1.2,1.7-4.8,0.8-6.4c-1.1-1.9-2.4-2.5-3.6-3c-1-0.5-2.9-1-4.3-1.2
							c-1.7-0.2-3.8,0.2-5.4,0.6c-1.8,0.5-5.2,2-6.4,3.2c-1.4,1.5-0.7,4.9,0.2,6c0.7,0.9,1.3,2,2.8,2.6c1.3,0.5,2.4,0.2,3.2,0.3
							c0.7,0.1,3.1,1,5.3,0.6c1.6-0.3,3.3-1.2,3.8-1.5C37.9,27.1,39.5,27.1,41,26.1L41,26.1z"/>
						<path class="st11" d="M40.7,25.9c1.7-1.1,1.7-4.6,0.8-6.2c-1.1-2-2.4-2.4-3.5-2.9c-1-0.5-2.8-1-4.1-1.2
							c-1.6-0.2-3.7,0.1-5.3,0.6c-1.8,0.5-5.1,2-6.2,3.2c-1.3,1.4-0.8,4.7,0.1,5.8c0.7,0.8,1.2,2,2.7,2.5c1.3,0.5,2.4,0.2,3.1,0.3
							s3,1.1,5.2,0.7c1.6-0.3,3.2-1.2,3.7-1.5C37.7,26.8,39.2,26.9,40.7,25.9L40.7,25.9z"/>
						<path class="st12" d="M40.3,25.7c1.7-1.1,1.7-4.3,0.8-6c-1.1-2-2.4-2.3-3.5-2.8c-0.9-0.4-2.6-1-3.9-1.2
							c-1.5-0.2-3.6,0.1-5.2,0.6c-1.8,0.5-5.1,2-6.1,3.1c-1.2,1.3-0.8,4.5,0.1,5.6c0.6,0.8,1.1,1.9,2.6,2.5c1.3,0.4,2.3,0.1,3,0.3
							c0.7,0.2,2.9,1.2,5,0.8c1.7-0.3,3.1-1.3,3.6-1.6C37.4,26.6,38.9,26.7,40.3,25.7L40.3,25.7z"/>
						<path class="st13" d="M40,25.6c1.6-1,1.7-4.1,0.8-5.8c-1-2-2.3-2.3-3.4-2.8c-0.9-0.4-2.4-1-3.7-1.2c-1.5-0.2-3.6,0.1-5.1,0.5
							c-1.8,0.5-5,2-6,3c-1.2,1.2-0.8,4.3,0.1,5.4c0.6,0.8,1,1.9,2.5,2.4c1.3,0.4,2.3,0.1,3,0.2s2.7,1.2,4.9,0.8
							c1.7-0.3,3-1.3,3.5-1.6C37.1,26.4,38.6,26.5,40,25.6L40,25.6z"/>
						<path class="st14" d="M39.7,25.4c1.6-1,1.7-3.9,0.8-5.5c-1-2-2.3-2.2-3.4-2.7c-0.9-0.4-2.2-1-3.5-1.2c-1.4-0.2-3.5,0-5.1,0.5
							c-1.8,0.5-5,2-5.9,2.9c-1.1,1.1-0.9,4.1,0.1,5.3c0.6,0.7,0.9,1.8,2.4,2.3c1.2,0.4,2.2,0,2.9,0.2c0.7,0.2,2.6,1.3,4.7,0.9
							c1.7-0.3,2.9-1.4,3.4-1.6C36.8,26.1,38.2,26.3,39.7,25.4L39.7,25.4z"/>
						<path class="st15" d="M39.4,25.2c1.6-0.9,1.7-3.6,0.8-5.3c-1-2-2.3-2.1-3.3-2.6c-0.8-0.4-2-0.9-3.4-1.2c-1.3-0.2-3.4,0-5,0.5
							c-1.7,0.5-4.9,2-5.8,2.9c-1,1.1-0.9,3.8,0.1,5.1c0.6,0.7,0.8,1.8,2.3,2.3c1.2,0.4,2.2,0,2.8,0.1c0.7,0.2,2.4,1.3,4.6,1
							c1.7-0.3,2.8-1.4,3.3-1.6C36.5,25.8,37.9,26.1,39.4,25.2L39.4,25.2z"/>
						<path class="st16" d="M39,25c1.6-0.9,1.7-3.4,0.8-5.1c-1-2-2.2-2.1-3.3-2.6c-0.8-0.4-1.8-0.9-3.2-1.2
							c-1.3-0.2-3.4-0.1-4.9,0.4c-1.7,0.5-4.8,2-5.7,2.8c-0.9,1-1,3.6,0.1,4.9c0.5,0.6,0.7,1.7,2.3,2.2c1.2,0.4,2.2-0.1,2.8,0.1
							c0.7,0.2,2.3,1.4,4.5,1c1.7-0.3,2.8-1.4,3.2-1.7C36.2,25.6,37.6,25.9,39,25L39,25z"/>
						<path class="st17" d="M38.7,24.8c1.5-0.8,1.7-3.2,0.8-4.9c-0.9-2-2.2-2-3.2-2.5c-0.8-0.4-1.7-0.9-3-1.2s-3.3-0.1-4.8,0.4
							c-1.7,0.5-4.8,2-5.5,2.7c-0.9,0.9-1,3.4,0.1,4.7c0.5,0.6,0.6,1.7,2.2,2.1c1.2,0.3,2.1-0.1,2.7,0.1c0.6,0.2,2.2,1.4,4.3,1.1
							c1.7-0.3,2.7-1.5,3.1-1.7C35.9,25.3,37.2,25.6,38.7,24.8L38.7,24.8z"/>
						<path class="st18" d="M38.4,24.7c1.5-0.8,1.7-3,0.9-4.7c-0.9-2-2.2-2-3.2-2.4c-0.8-0.3-1.5-0.9-2.8-1.2s-3.3-0.1-4.7,0.3
							c-1.7,0.5-4.7,2-5.4,2.6c-0.8,0.8-1.1,3.2,0,4.6c0.5,0.5,0.5,1.6,2.1,2c1.2,0.3,2.1-0.2,2.6,0c0.6,0.2,2,1.5,4.2,1.1
							c1.7-0.3,2.6-1.5,3-1.7C35.6,25.1,37,25.4,38.4,24.7z"/>
						<path class="st19" d="M38,24.5c1.5-0.7,1.7-2.7,0.9-4.5c-0.9-2-2.1-1.9-3.1-2.4c-0.7-0.3-1.3-0.9-2.5-1.2
							c-1.2-0.3-3.2-0.2-4.7,0.3c-1.7,0.5-4.7,2-5.3,2.6c-0.7,0.7-1.1,3,0,4.4c0.4,0.5,0.4,1.6,2,2c1.2,0.3,2.1-0.2,2.5,0
							c0.6,0.2,1.9,1.6,4.1,1.2c1.7-0.3,2.5-1.6,2.9-1.8C35.3,24.8,36.7,25.2,38,24.5L38,24.5z"/>
						<path class="st20" d="M37.7,24.3c1.4-0.7,1.7-2.5,0.9-4.2c-0.9-2-2.1-1.9-3.1-2.3c-0.7-0.3-1.1-0.8-2.3-1.2
							c-1.1-0.3-3.1-0.2-4.6,0.3c-1.7,0.5-4.6,2-5.2,2.5c-0.6,0.6-1.2,2.8,0,4.2c0.4,0.5,0.3,1.5,1.9,1.9c1.1,0.3,2-0.2,2.5-0.1
							c0.6,0.3,1.7,1.6,3.9,1.3c1.7-0.3,2.4-1.6,2.7-1.8C35,24.5,36.3,25,37.7,24.3L37.7,24.3z"/>
						<path class="st21" d="M37.4,24.1c1.4-0.6,1.6-2.2,0.9-4c-0.9-2-2.1-1.8-3.1-2.2c-0.7-0.3-0.9-0.8-2.1-1.2
							c-1.1-0.3-3.1-0.2-4.5,0.2c-1.7,0.5-4.6,2-5,2.4c-0.6,0.5-1.2,2.6,0,4c0.4,0.4,0.2,1.5,1.8,1.8c1.1,0.3,2-0.3,2.4-0.1
							c0.6,0.3,1.6,1.7,3.8,1.3c1.7-0.3,2.3-1.6,2.6-1.8C34.7,24.3,36,24.8,37.4,24.1z"/>
					</g>
					<path class="st24" d="M35.5,17.4c0,0-0.2,0-0.2,0c-0.4-1.2-1.5-2-2.8-2c-0.4,0-0.8,0.1-1.1,0.2c-0.4-1.1-1.5-1.9-2.7-1.9
						s-2.2,0.8-2.7,1.8c-0.1,0-0.3,0-0.4,0c-1.3,0-2.4,1-2.5,2.3c-0.2,0-0.4-0.1-0.6-0.1c-1.6,0-2.8,1.3-2.8,2.9
						c0,1.6,1.3,2.9,2.8,2.9c0,0,0.1,0,0.1,0c0.3,1.2,1.3,2,2.5,2c1,0,1.8-0.5,2.2-1.3c0.6,1.1,1.8,1.8,3.1,1.8
						c1.5,0,2.7-0.9,3.3-2.2c0.5,0.3,1.1,0.5,1.7,0.5c1.9,0,3.4-1.6,3.4-3.5S37.4,17.4,35.5,17.4L35.5,17.4z"/>
					
						<linearGradient id="SVGID_00000013892656109402712820000001189668819222496689_" gradientUnits="userSpaceOnUse" x1="19.85" y1="28.936" x2="39.0379" y2="28.936" gradientTransform="matrix(1 0 0 -1 0 48.9284)">
						<stop  offset="0" style="stop-color:#076BBA"/>
						<stop  offset="1" style="stop-color:#0060AB"/>
					</linearGradient>
					<path style="fill:url(#SVGID_00000013892656109402712820000001189668819222496689_);" d="M35.6,17.5c0,0-0.2,0-0.2,0
						c-0.4-1.2-1.5-2-2.8-2c-0.4,0-0.8,0.1-1.1,0.2c-0.4-1.1-1.5-1.9-2.7-1.9c-1.2,0-2.2,0.8-2.7,1.8c-0.1,0-0.3,0-0.4,0
						c-1.3,0-2.4,1-2.5,2.3c-0.2,0-0.4-0.1-0.6-0.1c-1.6,0-2.8,1.3-2.8,2.9s1.3,2.9,2.8,2.9c0,0,0.1,0,0.1,0c0.3,1.2,1.3,2,2.5,2
						c1,0,1.8-0.5,2.2-1.3c0.6,1.1,1.8,1.8,3.1,1.8c1.5,0,2.7-0.9,3.3-2.2c0.5,0.3,1.1,0.5,1.7,0.5c1.9,0,3.4-1.6,3.4-3.5
						S37.5,17.5,35.6,17.5L35.6,17.5z"/>
				</g>
				<g>
					<g>
						<path class="st0" d="M41.8,21.5c2.4-2.5,2.2-7.8,0.9-9.6c-1.7-2.4-3.9-3.3-5.5-4.2c-1.6-0.8-3.9-1.6-6-1.9
							c-2.5-0.4-5.3,0.7-7.6,1.3c-2.5,0.7-10.2,3.3-12.5,5.9c-1.3,1.4-1.6,3.3-1.4,5c0.2,1.9,1.1,3.6,1.4,4.1c1.3,1.7,6.1,3.3,8,4.3
							c1.9,0.9,3.5,0.9,4.9,1c1.1,0.1,4.1,0,6.9-0.6c2-0.4,3.9-2,4.9-2.5C36.8,24,40,23.4,41.8,21.5L41.8,21.5z"/>
						<path class="st1" d="M41.4,21.4c2.4-2.5,2.3-7.6,0.9-9.4c-1.7-2.4-3.8-3.3-5.4-4.1c-1.6-0.8-3.8-1.5-5.8-1.9
							c-2.4-0.4-5.1,0.7-7.4,1.3c-2.5,0.7-10.2,3.3-12.5,5.8c-1.3,1.4-1.6,3.3-1.4,4.9c0.3,1.9,1.1,3.5,1.5,4
							c1.3,1.5,5.8,3.2,7.8,4.2c1.9,0.9,3.5,0.8,4.8,0.9c1.1,0.1,3.9,0.1,6.8-0.5c2-0.4,3.9-2,4.8-2.5
							C36.6,23.7,39.6,23.2,41.4,21.4L41.4,21.4z"/>
						<path class="st2" d="M41.1,21.2c2.4-2.4,2.3-7.4,1-9.2c-1.7-2.4-3.7-3.2-5.3-4c-1.5-0.8-3.6-1.5-5.7-1.8
							c-2.4-0.4-5,0.6-7.3,1.2c-2.5,0.7-10.3,3.3-12.5,5.7c-1.3,1.4-1.6,3.2-1.4,4.9c0.3,1.8,1.2,3.4,1.7,3.9
							c1.3,1.4,5.6,3.2,7.6,4.1c1.8,0.9,3.4,0.7,4.7,0.9c1,0.1,3.8,0.2,6.7-0.4c2-0.4,3.8-2,4.7-2.5C36.3,23.5,39.3,23,41.1,21.2
							L41.1,21.2z"/>
						<path class="st3" d="M40.7,21.1c2.3-2.3,2.3-7.1,1-9c-1.6-2.3-3.6-3.1-5.2-3.9C35,7.4,33.1,6.7,31,6.4
							c-2.3-0.4-4.9,0.5-7.1,1.2c-2.4,0.7-10.3,3.3-12.4,5.6c-1.3,1.3-1.6,3.2-1.3,4.8c0.3,1.8,1.3,3.3,1.8,3.8
							c1.3,1.3,5.4,3.1,7.4,4c1.8,0.8,3.4,0.7,4.6,0.8c1,0.1,3.7,0.3,6.6-0.3c2-0.4,3.8-2,4.6-2.5C36.1,23.2,38.9,22.8,40.7,21.1z"
							/>
						<path class="st4" d="M40.4,20.9c2.3-2.2,2.3-6.9,1-8.8c-1.6-2.3-3.5-3-5.1-3.8C34.9,7.6,33,6.9,31,6.5c-2.3-0.4-4.7,0.5-7,1.1
							c-2.4,0.7-10.3,3.3-12.4,5.4c-1.3,1.3-1.6,3.1-1.3,4.7c0.3,1.8,1.4,3.2,1.9,3.6c1.3,1.2,5.2,3,7.2,3.9
							c1.8,0.8,3.3,0.6,4.6,0.8c1,0.1,3.6,0.4,6.6-0.3c2-0.4,3.7-2.1,4.6-2.5S38.6,22.6,40.4,20.9L40.4,20.9z"/>
						<path class="st5" d="M40,20.8c2.3-2.1,2.3-6.8,1.1-8.6c-1.6-2.3-3.5-3-5-3.7c-1.4-0.7-3.2-1.4-5.2-1.8
							c-2.2-0.4-4.6,0.4-6.9,1.1c-2.4,0.7-10.3,3.3-12.3,5.3c-1.3,1.3-1.6,3.1-1.3,4.7c0.4,1.7,1.5,3.1,2,3.5c1.3,1.1,5,2.9,7,3.8
							c1.8,0.8,3.3,0.5,4.5,0.7c1,0.1,3.4,0.5,6.5-0.2c2-0.5,3.6-2.1,4.5-2.5C35.6,22.6,38.2,22.4,40,20.8L40,20.8z"/>
						<path class="st6" d="M39.6,20.6c2.2-2,2.3-6.5,1.1-8.3c-1.5-2.3-3.4-2.9-4.9-3.6c-1.4-0.7-3.1-1.4-5-1.8
							c-2.1-0.4-4.5,0.4-6.7,1c-2.4,0.7-10.4,3.3-12.3,5.2c-1.3,1.2-1.6,3.1-1.2,4.6c0.4,1.7,1.6,2.9,2.1,3.4c1.3,1,4.8,2.8,6.8,3.7
							c1.8,0.7,3.2,0.5,4.4,0.6c1,0.1,3.3,0.6,6.4-0.1c2-0.5,3.6-2.1,4.4-2.5C35.5,22.3,37.8,22.2,39.6,20.6L39.6,20.6z"/>
						<path class="st7" d="M39.3,20.4c2.2-1.9,2.3-6.3,1.1-8.1c-1.5-2.2-3.3-2.8-4.8-3.5c-1.4-0.7-2.9-1.3-4.9-1.8s-4.4,0.3-6.6,1
							c-2.3,0.7-10.4,3.3-12.3,5.1c-1.3,1.2-1.6,3-1.2,4.5c0.4,1.7,1.6,2.8,2.3,3.3c1.3,0.9,4.6,2.8,6.6,3.6
							c1.7,0.7,3.1,0.4,4.3,0.6c1,0.1,3.2,0.7,6.3,0c2-0.5,3.5-2.1,4.3-2.5C35.3,22,37.5,22,39.3,20.4L39.3,20.4z"/>
						<path class="st8" d="M38.9,20.3c2.2-1.9,2.3-6.1,1.1-7.9c-1.4-2.2-3.2-2.7-4.7-3.4c-1.3-0.6-2.8-1.3-4.7-1.8
							c-2-0.4-4.2,0.3-6.4,0.9c-2.3,0.7-10.4,3.3-12.2,4.9c-1.3,1.2-1.6,3-1.2,4.5c0.5,1.6,1.7,2.7,2.4,3.2c1.2,0.9,4.4,2.7,6.3,3.5
							c1.7,0.7,3.1,0.3,4.2,0.5c1,0.2,3.1,0.9,6.3,0.1c2-0.5,3.5-2.1,4.2-2.5C35,21.8,37.1,21.8,38.9,20.3L38.9,20.3z"/>
						<path class="st9" d="M38.6,20.2c2.2-1.8,2.3-5.9,1.2-7.7c-1.4-2.1-3.1-2.6-4.6-3.3c-1.3-0.6-2.6-1.3-4.6-1.7
							c-2-0.5-4.1,0.2-6.3,0.9c-2.3,0.7-10.4,3.3-12.2,4.8c-1.3,1.2-1.6,2.9-1.1,4.4c0.5,1.6,1.7,2.7,2.5,3c1,1,4.1,2.6,6.1,3.4
							c1.7,0.6,3,0.3,4.1,0.5c0.9,0.2,2.9,1,6.2,0.2c2-0.5,3.4-2.2,4.1-2.5C34.8,21.6,36.8,21.6,38.6,20.2L38.6,20.2z"/>
						<path class="st10" d="M38.2,20c2.1-1.7,2.3-5.7,1.2-7.5c-1.4-2.1-3.1-2.5-4.5-3.2c-1.3-0.6-2.4-1.2-4.4-1.7s-4,0.1-6.2,0.8
							c-2.3,0.7-10.5,3.2-12.1,4.7c-1.3,1.1-1.6,2.9-1.1,4.3c0.5,1.6,1.8,2.6,2.6,2.9c1,0.9,3.9,2.6,5.9,3.3c1.7,0.6,3,0.2,4,0.4
							c0.9,0.2,2.8,1.1,6.1,0.3c2.1-0.5,3.4-2.2,4-2.6C34.6,21.3,36.4,21.4,38.2,20z"/>
						<path class="st11" d="M37.8,19.8c2.1-1.6,2.3-5.5,1.2-7.3c-1.3-2.1-3-2.5-4.4-3.1c-1.2-0.6-2.3-1.2-4.3-1.7
							c-1.9-0.5-3.9,0.1-6,0.8c-2.3,0.7-10.5,3.2-12.1,4.6c-1.3,1.1-1.6,2.8-1.1,4.2c0.5,1.5,1.9,2.5,2.8,2.8c1,0.8,3.7,2.5,5.7,3.2
							c1.6,0.6,2.9,0.2,3.9,0.3c0.9,0.2,2.7,1.2,6,0.4c2.1-0.5,3.3-2.2,3.9-2.6C34.3,21,36.1,21.2,37.8,19.8L37.8,19.8z"/>
						<path class="st12" d="M37.5,19.7c2.1-1.5,2.3-5.3,1.3-7.1c-1.3-2-2.9-2.4-4.3-3.1c-1.2-0.6-2.2-1.2-4.2-1.7
							c-1.8-0.5-3.7,0-5.9,0.7c-2.2,0.7-10.6,3.2-12.1,4.5c-1.3,1.1-1.6,2.8-1,4.2c0.6,1.5,2,2.4,2.9,2.7c1,0.8,3.5,2.4,5.5,3.1
							c1.6,0.6,2.9,0.1,3.8,0.3c0.9,0.2,2.6,1.3,6,0.4c2.1-0.5,3.2-2.2,3.9-2.6C34.1,20.7,35.7,21,37.5,19.7L37.5,19.7z"/>
						<path class="st13" d="M37.1,19.5c2-1.4,2.3-5.1,1.3-6.9c-1.2-2-2.8-2.3-4.2-3c-1.1-0.5-2-1.1-4-1.7c-1.7-0.5-3.6,0-5.7,0.7
							c-2.2,0.7-10.6,3.2-12,4.3c-1.3,1-1.6,2.8-1,4.1c0.6,1.5,2,2.3,3,2.6c0.9,0.7,3.3,2.3,5.3,3c1.6,0.5,2.8,0,3.7,0.2
							c0.9,0.2,2.4,1.4,5.9,0.5c2.1-0.5,3.2-2.3,3.8-2.6C33.9,20.4,35.3,20.8,37.1,19.5L37.1,19.5z"/>
						<path class="st14" d="M36.8,19.4c2-1.3,2.3-4.9,1.3-6.6c-1.2-2-2.7-2.2-4.1-2.9c-1.1-0.5-1.9-1.1-3.9-1.7
							c-1.7-0.5-3.5-0.1-5.6,0.6c-2.2,0.7-10.6,3.2-12,4.2s-1.6,2.7-1,4c0.6,1.4,2.2,2,3.1,2.4c1,0.4,3.1,2.3,5.1,2.9
							c1.6,0.5,2.8-0.1,3.6,0.2c0.9,0.2,2.3,1.5,5.8,0.6c2.1-0.5,3.1-2.3,3.7-2.6C33.7,20.2,35,20.6,36.8,19.4L36.8,19.4z"/>
						<path class="st15" d="M36.4,19.2c2-1.3,2.3-4.7,1.3-6.4c-1.2-1.9-2.7-2.1-4-2.8C32.7,9.5,32,9,30,8.4
							c-1.6-0.5-3.3-0.1-5.4,0.6c-2.2,0.7-10.7,3.2-11.9,4.1s-1.6,2.7-1,4c0.7,1.4,2.2,1.9,3.3,2.3c0.9,0.4,2.9,2.2,4.9,2.8
							c1.6,0.5,2.7-0.1,3.5,0.1c0.8,0.2,2.2,1.6,5.7,0.7c2.1-0.5,3.1-2.3,3.6-2.6C33.4,19.9,34.6,20.4,36.4,19.2L36.4,19.2z"/>
						<path class="st16" d="M36,19.1c1.9-1.2,2.4-4.5,1.4-6.2c-1.1-1.9-2.6-2.1-3.9-2.7c-1-0.5-1.6-1-3.6-1.6
							c-1.6-0.5-3.2-0.2-5.3,0.5c-2.2,0.8-10.7,3.1-11.9,4c-1.3,0.9-1.5,2.6-0.9,3.9c0.7,1.4,2.3,1.8,3.4,2.2
							c0.9,0.3,2.6,2.1,4.7,2.7c1.5,0.4,2.6-0.2,3.4,0.1c0.8,0.3,2.1,1.7,5.7,0.8c2.1-0.5,3-2.3,3.5-2.6
							C33.2,19.6,34.3,20.2,36,19.1L36,19.1z"/>
						<path class="st17" d="M35.7,18.9c1.9-1.1,2.4-4.3,1.4-6c-1.1-1.9-2.5-2-3.8-2.6c-1-0.5-1.4-1-3.4-1.6
							c-1.5-0.5-3.1-0.3-5.1,0.5C22.6,10,14,12.3,12.9,13c-1.3,0.9-1.5,2.6-0.9,3.8c0.7,1.3,2.4,1.7,3.5,2.1c0.9,0.3,2.4,2,4.4,2.6
							c1.5,0.4,2.6-0.2,3.3,0c0.8,0.3,1.9,1.8,5.6,0.9c2.1-0.5,2.9-2.3,3.4-2.6C33,19.4,33.9,20,35.7,18.9L35.7,18.9z"/>
						<path class="st18" d="M35.3,18.8c1.9-1,2.4-4.1,1.4-5.8c-1-1.8-2.4-1.9-3.7-2.5c-1-0.4-1.3-1-3.3-1.6c-1.4-0.5-3-0.3-5,0.4
							C22.7,10.1,14,12.4,13,13c-1.3,0.8-1.5,2.6-0.9,3.8c0.8,1.3,2.4,1.7,3.6,2c0.8,0.2,2.2,2,4.2,2.5c1.5,0.4,2.5-0.3,3.2-0.1
							c0.8,0.3,1.8,1.9,5.5,1c2.1-0.5,2.9-2.4,3.3-2.6C32.7,19.1,33.6,19.8,35.3,18.8L35.3,18.8z"/>
						<path class="st19" d="M34.9,18.6c1.8-1,2.4-3.9,1.5-5.6c-1-1.8-2.3-1.8-3.6-2.4c-0.9-0.4-1.1-0.9-3.1-1.6
							c-1.4-0.5-2.8-0.4-4.9,0.4C22.7,10.2,14,12.5,13.1,13c-1.4,0.8-1.5,2.5-0.8,3.7c0.8,1.3,2.5,1.6,3.7,1.9c0.8,0.2,2,1.9,4,2.4
							c1.5,0.4,2.5-0.3,3.1-0.1c0.8,0.3,1.7,2,5.4,1c2.1-0.6,2.8-2.4,3.3-2.6C32.5,18.8,33.2,19.6,34.9,18.6L34.9,18.6z"/>
						<path class="st20" d="M34.6,18.5c1.8-0.9,2.4-3.7,1.5-5.4c-1-1.8-2.2-1.7-3.5-2.3c-0.9-0.4-1-0.9-3-1.6
							c-1.3-0.5-2.7-0.4-4.7,0.3c-2.1,0.8-10.9,3-11.7,3.5c-1.4,0.7-1.5,2.5-0.8,3.6c0.8,1.2,2.6,1.5,3.9,1.7
							c0.7,0.1,1.8,1.8,3.8,2.3c1.4,0.3,2.4-0.4,3-0.2c0.8,0.3,1.6,2.1,5.3,1.1c2.1-0.6,2.8-2.4,3.2-2.6
							C32.3,18.5,32.8,19.3,34.6,18.5L34.6,18.5z"/>
						<path class="st21" d="M34.2,18.3c1.8-0.8,2.4-3.5,1.5-5.2c-0.9-1.7-2.1-1.7-3.4-2.2c-0.9-0.4-0.8-0.8-2.8-1.6
							C28.3,9,27,8.9,25,9.7c-2.1,0.8-10.9,3-11.7,3.3c-1.4,0.6-1.5,2.4-0.8,3.5c0.8,1.2,2.6,1.5,4,1.6c0.7,0.1,1.6,1.8,3.6,2.2
							c1.4,0.3,2.3-0.5,2.9-0.2c0.7,0.3,1.4,2.2,5.3,1.2c2.1-0.6,2.7-2.4,3.1-2.7C32.1,18.2,32.5,19.1,34.2,18.3L34.2,18.3z"/>
					</g>
					<path class="st60" d="M32.7,10.4c-0.2,0-0.3,0-0.5,0c-0.6-1.7-2.2-3-4.1-3c-0.9,0-1.7,0.3-2.3,0.7C25.4,6.9,24.2,6,22.8,6
						c-1.6,0-3,1.2-3.2,2.7c-0.5-0.3-1-0.5-1.6-0.5c-1.4,0-2.5,1.1-2.7,2.4h0c-2.2,0-3.9,1.8-3.9,4s1.8,4,3.9,4
						c0.7,0,1.3-0.2,1.9-0.5c0.2,1.4,1.4,2.5,2.8,2.5c1.1,0,2.1-0.7,2.5-1.6c0.9,1.3,2.3,2.1,4,2.1c2.1,0,4-1.4,4.6-3.4
						c0.5,0.3,1.1,0.4,1.7,0.4c2.1,0,3.8-1.7,3.8-3.9S34.8,10.5,32.7,10.4L32.7,10.4z"/>
					<path class="st61" d="M32.8,10.5c-0.2,0-0.3,0-0.5,0c-0.6-1.7-2.2-3-4-3c-0.9,0-1.7,0.3-2.3,0.7c-0.5-1.3-1.7-2.2-3.1-2.2
						c-1.6,0-3,1.2-3.2,2.7c-0.5-0.3-1-0.5-1.6-0.5c-1.4,0-2.5,1.1-2.7,2.4c0,0,0,0,0,0c-2.2,0-3.9,1.8-3.9,4s1.8,4,3.9,4
						c0.7,0,1.3-0.2,1.9-0.5c0.2,1.4,1.4,2.5,2.8,2.5c1.1,0,2.1-0.7,2.5-1.6c0.9,1.3,2.3,2.1,4,2.1c2.1,0,4-1.4,4.6-3.4
						c0.5,0.3,1.1,0.4,1.7,0.4c2.1,0,3.8-1.7,3.8-3.9S35,10.6,32.8,10.5L32.8,10.5z"/>
				</g>
				<g>
					<g>
						<path class="st0" d="M26.7,26.8c1.2-1.9,0.6-5.3-0.2-6.5c-1.1-1.6-2.6-2.3-3.7-2.8c-1-0.5-3.3-1.5-4.6-1.5
							c-1.9,0-2.8,0.7-4.3,1.1c-1.6,0.4-4.4,3-5.9,4.7c-1.8,2-1.3,4.9-0.9,5.5c0.9,1.1,1.9,2.1,3.2,2.8c1.2,0.6,2.3,0.6,3.2,0.6
							c0.7,0.1,1.5,0.4,3.3,0c1.3-0.3,1.9-0.4,2.6-0.6C20.8,29.7,25.2,29.1,26.7,26.8L26.7,26.8z"/>
						<path class="st1" d="M26.5,26.8c1.2-1.8,0.7-5.2-0.1-6.4c-1.1-1.6-2.6-2.3-3.7-2.8c-1-0.5-3.2-1.5-4.5-1.5
							c-1.8,0-2.8,0.7-4.3,1.1c-1.6,0.4-4.3,3-5.8,4.6c-1.7,1.9-1.4,4.8-0.9,5.4c0.8,1,1.8,2.1,3.1,2.7c1.2,0.6,2.3,0.5,3.2,0.6
							c0.7,0.1,1.5,0.4,3.3,0c1.3-0.3,1.9-0.4,2.6-0.6C20.7,29.5,25,28.9,26.5,26.8z"/>
						<path class="st2" d="M26.2,26.7c1.2-1.8,0.8-5-0.1-6.2c-1.1-1.6-2.6-2.2-3.6-2.7c-1-0.5-3.2-1.5-4.4-1.5c-1.8,0-2.8,0.6-4.3,1
							c-1.6,0.4-4.2,3-5.7,4.5c-1.6,1.8-1.4,4.7-0.9,5.3c0.8,1,1.8,2,3.1,2.6c1.3,0.5,2.3,0.4,3.1,0.5c0.7,0.1,1.5,0.4,3.3,0
							c1.3-0.3,1.9-0.4,2.6-0.6C20.6,29.3,24.7,28.8,26.2,26.7L26.2,26.7z"/>
						<path class="st3" d="M26,26.6c1.2-1.7,0.9-4.8,0-6.1c-1.1-1.6-2.6-2.2-3.6-2.7c-1-0.5-3.1-1.5-4.4-1.5c-1.7-0.1-2.8,0.6-4.2,1
							c-1.6,0.4-4.2,3-5.5,4.5c-1.6,1.8-1.5,4.5-0.9,5.2c0.8,1,1.7,2,3,2.5c1.3,0.5,2.2,0.4,3.1,0.5c0.7,0.1,1.5,0.4,3.3,0
							c1.3-0.3,2-0.4,2.6-0.6C20.6,29,24.5,28.6,26,26.6L26,26.6z"/>
						<path class="st4" d="M25.7,26.5c1.2-1.6,0.9-4.6,0.1-5.9c-1.1-1.6-2.6-2.1-3.6-2.6c-1-0.5-3-1.5-4.3-1.6
							c-1.7-0.1-2.8,0.5-4.2,0.9c-1.6,0.4-4.1,2.9-5.4,4.4c-1.5,1.7-1.5,4.4-0.9,5.1c0.8,0.9,1.6,1.9,3,2.5c1.3,0.5,2.2,0.3,3.1,0.4
							c0.7,0.1,1.5,0.4,3.3,0c1.3-0.3,2-0.4,2.6-0.6C20.5,28.9,24.3,28.5,25.7,26.5L25.7,26.5z"/>
						<path class="st5" d="M25.4,26.4c1.2-1.6,1-4.5,0.2-5.7c-1-1.6-2.6-2.1-3.6-2.6c-0.9-0.5-2.9-1.5-4.2-1.6
							c-1.6-0.1-2.8,0.5-4.2,0.9c-1.6,0.4-4,2.9-5.3,4.3c-1.5,1.6-1.5,4.2-1,5c0.7,0.9,1.6,1.9,2.9,2.4c1.3,0.5,2.2,0.3,3,0.4
							c0.7,0.1,1.5,0.4,3.3,0.1c1.3-0.3,2-0.4,2.6-0.6C20.4,28.6,24,28.3,25.4,26.4L25.4,26.4z"/>
						<path class="st6" d="M25.2,26.3c1.2-1.5,1.1-4.3,0.3-5.6c-1-1.6-2.6-2.1-3.6-2.6c-0.9-0.4-2.8-1.5-4.1-1.6
							c-1.6-0.1-2.7,0.4-4.2,0.9c-1.6,0.4-4,2.9-5.2,4.2c-1.4,1.5-1.6,4.1-1,4.9c0.7,0.9,1.5,1.8,2.9,2.3s2.2,0.2,3,0.3
							c0.6,0.1,1.5,0.4,3.3,0.1c1.3-0.3,2-0.4,2.6-0.6C20.4,28.4,23.8,28.1,25.2,26.3z"/>
						<path class="st7" d="M24.9,26.3c1.2-1.4,1.2-4.1,0.4-5.4c-1-1.6-2.6-2-3.5-2.5c-0.9-0.4-2.7-1.6-4-1.6
							c-1.5-0.1-2.7,0.4-4.1,0.8c-1.5,0.4-3.9,2.8-5,4.1c-1.3,1.5-1.6,3.9-1,4.7c0.6,0.8,1.5,1.8,2.8,2.2c1.3,0.4,2.2,0.1,2.9,0.2
							c0.6,0.1,1.5,0.4,3.3,0.1c1.3-0.3,2-0.5,2.6-0.5C20.3,28.2,23.5,27.9,24.9,26.3z"/>
						<path class="st8" d="M24.7,26.2c1.2-1.4,1.2-3.9,0.5-5.2c-1-1.6-2.5-2-3.5-2.5c-0.9-0.4-2.7-1.6-3.9-1.7
							c-1.5-0.1-2.7,0.4-4.1,0.8c-1.5,0.4-3.8,2.8-4.9,4c-1.3,1.4-1.7,3.8-1,4.6c0.7,0.8,1.4,1.7,2.8,2.1s2.2,0.1,2.9,0.2
							c0.6,0.1,1.5,0.4,3.3,0.1c1.4-0.3,2-0.5,2.6-0.5C20.2,27.9,23.3,27.8,24.7,26.2L24.7,26.2z"/>
						<path class="st9" d="M24.4,26.1c1.2-1.3,1.3-3.7,0.5-5.1c-1-1.6-2.5-2-3.5-2.4c-0.8-0.4-2.6-1.6-3.8-1.7
							c-1.4-0.1-2.7,0.3-4.1,0.7c-1.5,0.4-3.8,2.8-4.8,3.9c-1.2,1.3-1.7,3.6-1,4.5c0.6,0.8,1.4,1.7,2.7,2.1s2.1,0,2.8,0.1
							c0.6,0.1,1.5,0.4,3.3,0.1c1.4-0.3,2.1-0.5,2.6-0.5C20.1,27.7,23,27.6,24.4,26.1z"/>
						<path class="st10" d="M24.2,26c1.2-1.2,1.4-3.5,0.6-4.9c-0.9-1.6-2.5-1.9-3.5-2.4c-0.8-0.4-2.5-1.6-3.7-1.7
							c-1.4-0.1-2.7,0.3-4.1,0.7c-1.5,0.4-3.7,2.8-4.7,3.8c-1.2,1.2-1.8,3.5-1.1,4.4c0.6,0.7,1.3,1.6,2.7,2s2.1-0.1,2.8,0.1
							c0.6,0.1,1.4,0.4,3.3,0.1c1.4-0.3,2.1-0.5,2.5-0.5C20.1,27.5,22.8,27.4,24.2,26L24.2,26z"/>
						<path class="st11" d="M23.9,25.9c1.2-1.2,1.5-3.4,0.7-4.7c-0.9-1.6-2.5-1.9-3.5-2.3c-0.8-0.4-2.4-1.6-3.6-1.7
							c-1.3-0.2-2.7,0.2-4,0.6c-1.5,0.4-3.6,2.7-4.6,3.7c-1.1,1.2-1.8,3.4-1.1,4.3c0.6,0.7,1.3,1.6,2.6,1.9s2.1-0.1,2.7,0
							c0.6,0.1,1.4,0.4,3.3,0.1c1.4-0.2,2.1-0.5,2.5-0.5C20,27.2,22.5,27.3,23.9,25.9L23.9,25.9z"/>
						<path class="st12" d="M23.6,25.9c1.2-1.1,1.5-3.2,0.8-4.6c-0.9-1.6-2.5-1.8-3.4-2.3c-0.8-0.4-2.3-1.6-3.5-1.7
							c-1.3-0.2-2.7,0.2-4,0.6c-1.5,0.4-3.6,2.7-4.4,3.6c-1,1.1-1.9,3.2-1.1,4.2c0.5,0.7,1.2,1.5,2.5,1.8s2.1-0.2,2.7-0.1
							s1.4,0.4,3.3,0.1c1.4-0.2,2.1-0.5,2.5-0.5C19.9,27,22.3,27.1,23.6,25.9z"/>
						<path class="st13" d="M23.4,25.8c1.2-1.1,1.6-3,0.9-4.4c-0.9-1.6-2.5-1.8-3.4-2.2c-0.8-0.4-2.2-1.6-3.4-1.8
							c-1.3-0.2-2.7,0.2-4,0.5c-1.5,0.4-3.5,2.7-4.3,3.6c-1,1-1.9,3.1-1.1,4.1c0.5,0.6,1.1,1.5,2.5,1.7c1.4,0.3,2.1-0.2,2.7-0.1
							c0.6,0.1,1.4,0.4,3.3,0.1c1.4-0.2,2.1-0.5,2.5-0.5C19.9,26.8,22.1,26.9,23.4,25.8L23.4,25.8z"/>
						<path class="st14" d="M23.1,25.7c1.2-1,1.7-2.8,1-4.2c-0.9-1.7-2.5-1.8-3.4-2.2c-0.7-0.3-2.2-1.6-3.3-1.8
							c-1.2-0.2-2.7,0.1-4,0.5c-1.5,0.4-3.4,2.6-4.2,3.5c-0.9,1-2,2.9-1.1,4c0.5,0.6,1.1,1.4,2.4,1.7c1.4,0.2,2.1-0.3,2.6-0.2
							c0.6,0.2,1.4,0.4,3.2,0.1c1.4-0.2,2.2-0.5,2.5-0.5C19.7,26.6,21.8,26.8,23.1,25.7L23.1,25.7z"/>
						<path class="st15" d="M22.9,25.6c1.2-0.9,1.8-2.7,1.1-4.1c-0.8-1.7-2.5-1.7-3.4-2.1c-0.7-0.3-2.1-1.6-3.2-1.8
							c-1.1-0.2-2.6,0.1-3.9,0.4c-1.5,0.4-3.3,2.6-4.1,3.4c-0.8,0.9-2,2.8-1.2,3.8c0.5,0.6,1,1.4,2.4,1.6c1.4,0.2,2-0.4,2.5-0.2
							c0.6,0.2,1.4,0.4,3.2,0.1c1.4-0.2,2.2-0.5,2.5-0.5C19.7,26.3,21.6,26.6,22.9,25.6z"/>
						<path class="st16" d="M22.6,25.5c1.2-0.9,1.8-2.5,1.1-3.9c-0.8-1.7-2.5-1.7-3.4-2.1c-0.7-0.3-2-1.6-3.1-1.8
							c-1.1-0.2-2.6,0-3.9,0.4c-1.4,0.4-3.3,2.6-3.9,3.3c-0.8,0.8-2.1,2.6-1.2,3.7c0.4,0.5,1,1.3,2.3,1.5s2-0.4,2.5-0.3
							c0.6,0.2,1.4,0.4,3.2,0.1c1.4-0.2,2.2-0.6,2.5-0.5C19.6,26.1,21.4,26.4,22.6,25.5L22.6,25.5z"/>
						<path class="st17" d="M22.3,25.4c1.2-0.8,1.9-2.3,1.2-3.7c-0.8-1.7-2.5-1.7-3.3-2c-0.7-0.3-1.9-1.6-3-1.8s-2.6,0-3.9,0.4
							c-1.4,0.4-3.2,2.6-3.8,3.2c-0.7,0.7-2.1,2.5-1.2,3.6c0.4,0.5,0.9,1.3,2.3,1.4s2-0.5,2.5-0.3c0.5,0.2,1.4,0.4,3.2,0.1
							c1.4-0.2,2.2-0.6,2.5-0.5C19.6,25.9,21.1,26.3,22.3,25.4L22.3,25.4z"/>
						<path class="st18" d="M22.1,25.4c1.2-0.7,2-2.1,1.3-3.6c-0.8-1.7-2.5-1.6-3.3-2c-0.6-0.3-1.8-1.6-2.9-1.9s-2.6-0.1-3.9,0.3
							c-1.4,0.4-3.1,2.5-3.7,3.1C9,22,7.5,23.7,8.4,24.8c0.4,0.5,0.9,1.2,2.2,1.3s2-0.5,2.4-0.4c0.5,0.2,1.4,0.4,3.2,0.1
							c1.4-0.2,2.2-0.6,2.5-0.5C19.5,25.6,20.9,26.1,22.1,25.4L22.1,25.4z"/>
						<path class="st19" d="M21.8,25.3c1.2-0.7,2-1.9,1.4-3.4c-0.8-1.7-2.5-1.6-3.3-2c-0.6-0.3-1.8-1.6-2.8-1.9
							c-1-0.2-2.6-0.1-3.8,0.3c-1.4,0.4-3.1,2.5-3.6,3c-0.6,0.6-2.2,2.2-1.2,3.4c0.4,0.4,0.8,1.2,2.2,1.3c1.4,0.1,2-0.6,2.4-0.4
							c0.5,0.2,1.4,0.4,3.2,0.1c1.4-0.2,2.2-0.6,2.5-0.5C19.4,25.4,20.7,25.9,21.8,25.3L21.8,25.3z"/>
						<path class="st20" d="M21.6,25.2c1.2-0.6,2.1-1.8,1.5-3.2c-0.7-1.7-2.4-1.6-3.3-1.9c-0.6-0.3-1.7-1.6-2.7-1.9
							c-0.9-0.2-2.6-0.2-3.8,0.2c-1.4,0.4-3,2.5-3.5,2.9c-0.5,0.5-2.2,2.1-1.2,3.3c0.3,0.4,0.8,1.1,2.1,1.2c1.4,0.1,2-0.6,2.3-0.5
							c0.5,0.2,1.4,0.4,3.2,0.1c1.5-0.2,2.3-0.6,2.5-0.5C19.3,25.2,20.4,25.8,21.6,25.2L21.6,25.2z"/>
						<path class="st21" d="M21.3,25.1c1.2-0.5,2.2-1.6,1.6-3.1c-0.7-1.7-2.4-1.5-3.3-1.9C19,19.9,18,18.5,17,18.2
							c-0.9-0.3-2.6-0.2-3.8,0.2c-1.4,0.4-2.9,2.5-3.3,2.8c-0.5,0.4-2.3,1.9-1.3,3.2c0.3,0.4,0.7,1.1,2.1,1.1c1.4,0,1.9-0.7,2.3-0.6
							c0.5,0.2,1.4,0.4,3.2,0.1c1.5-0.2,2.3-0.6,2.5-0.5C19.3,25,20.1,25.6,21.3,25.1L21.3,25.1z"/>
					</g>
					<path class="st62" d="M20.4,20c-0.3,0-0.6,0-0.9,0.1c-0.4-2-2.1-3.5-4.1-3.6c-2-0.1-3.8,1.2-4.4,3l0,0c-1.7-0.1-3.2,1.2-3.3,3
						c-0.1,1.7,1.2,3.2,2.9,3.3c0.9,0.1,1.7-0.3,2.3-0.9c0.6,0.4,1.3,0.6,2,0.6c1.3,0.1,2.5-0.4,3.4-1.3c0.4,0.6,1.1,1,1.9,1
						c1.4,0.1,2.6-1,2.7-2.5C22.9,21.3,21.8,20.1,20.4,20L20.4,20z"/>
					<path class="st63" d="M20.6,20c-0.3,0-0.6,0-0.9,0.1c-0.4-2-2.1-3.5-4.1-3.6c-2-0.1-3.8,1.2-4.4,3l0,0c-1.7-0.1-3.2,1.2-3.3,3
						s1.2,3.2,2.9,3.3c0.9,0.1,1.7-0.3,2.3-0.9c0.6,0.4,1.3,0.6,2,0.6c1.3,0.1,2.5-0.4,3.4-1.3c0.4,0.6,1.1,1,1.9,1
						c1.4,0.1,2.6-1,2.7-2.5C23.1,21.4,22,20.1,20.6,20L20.6,20z"/>
				</g>
				<g>
					<g>
						<g>
							<path class="st0" d="M9.6,35.9c-0.1-1.1,1.3-3.6,2.3-3.7c1.1-0.1,3.3,2.4,3.1,4c-0.2,2-2.6,2.4-3.7,2
								C10.2,37.8,9.7,36.6,9.6,35.9L9.6,35.9z"/>
							<path class="st64" d="M12,32.3c1.1-0.1,3.2,2.3,3.1,3.9c-0.2,1.9-2.5,2.3-3.6,1.9c-1.2-0.4-1.7-1.6-1.7-2.3
								C9.6,34.8,11,32.3,12,32.3z"/>
							<path class="st65" d="M11.9,32.3c1-0.1,3.2,2.3,3,3.9c-0.2,1.9-2.4,2.3-3.5,1.9c-1.2-0.4-1.6-1.6-1.7-2.2
								C9.7,34.8,11,32.4,11.9,32.3L11.9,32.3z"/>
							<path class="st66" d="M11.9,32.3c1-0.1,3.1,2.2,2.9,3.8c-0.2,1.8-2.4,2.2-3.5,1.9c-1.1-0.4-1.6-1.5-1.6-2.2
								C9.7,34.8,10.9,32.4,11.9,32.3L11.9,32.3z"/>
							<path class="st67" d="M11.9,32.4c1-0.1,3,2.2,2.8,3.7c-0.2,1.8-2.3,2.2-3.4,1.8c-1.1-0.3-1.6-1.5-1.6-2.1
								C9.7,34.8,11,32.5,11.9,32.4z"/>
							<path class="st68" d="M11.9,32.4c1-0.1,2.9,2.2,2.8,3.6c-0.2,1.7-2.2,2.1-3.3,1.8c-1.1-0.3-1.6-1.5-1.6-2.1
								C9.7,34.8,11,32.5,11.9,32.4L11.9,32.4z"/>
							<path class="st69" d="M11.8,32.5c0.9-0.1,2.9,2.1,2.7,3.6c-0.2,1.7-2.1,2.1-3.2,1.8c-1.1-0.3-1.5-1.4-1.5-2
								C9.8,34.8,11,32.6,11.8,32.5z"/>
							<path class="st70" d="M11.8,32.5c0.9-0.1,2.8,2.1,2.6,3.5c-0.2,1.6-2.1,2-3.1,1.7c-1.1-0.3-1.5-1.4-1.5-2
								C9.8,34.8,11,32.6,11.8,32.5L11.8,32.5z"/>
							<path class="st71" d="M11.8,32.6c0.9-0.1,2.7,2,2.5,3.4c-0.2,1.6-2,2-3,1.7c-1.1-0.3-1.5-1.4-1.5-1.9
								C9.8,34.8,11,32.6,11.8,32.6L11.8,32.6z"/>
							<path class="st72" d="M11.8,32.6c0.8-0.1,2.6,2,2.5,3.4c-0.2,1.6-1.9,1.9-2.9,1.7c-1-0.3-1.4-1.3-1.5-1.9
								C9.9,34.8,11,32.7,11.8,32.6z"/>
							<path class="st73" d="M11.8,32.7c0.8-0.1,2.5,2,2.4,3.3c-0.2,1.5-1.9,1.9-2.8,1.6c-1-0.3-1.4-1.3-1.4-1.8
								C9.9,34.8,11,32.7,11.8,32.7L11.8,32.7z"/>
							<path class="st74" d="M11.7,32.7c0.8-0.1,2.4,1.9,2.3,3.2c-0.2,1.4-1.8,1.8-2.7,1.6c-1-0.3-1.4-1.3-1.4-1.8
								C9.9,34.8,11,32.7,11.7,32.7z"/>
							<path class="st75" d="M11.7,32.7c0.8-0.1,2.4,1.9,2.2,3.2c-0.2,1.4-1.7,1.8-2.6,1.6c-1-0.3-1.4-1.2-1.4-1.7
								C10,34.9,11,32.8,11.7,32.7L11.7,32.7z"/>
							<path class="st76" d="M11.7,32.8c0.7-0.1,2.3,1.8,2.2,3.1c-0.2,1.3-1.6,1.7-2.5,1.5c-1-0.2-1.3-1.2-1.3-1.7
								C10,34.9,11,32.8,11.7,32.8L11.7,32.8z"/>
							<path class="st77" d="M11.7,32.8c0.7-0.1,2.2,1.8,2.1,3c-0.2,1.3-1.6,1.7-2.4,1.5c-1-0.2-1.3-1.2-1.3-1.7
								C10,34.9,11,32.9,11.7,32.8L11.7,32.8z"/>
							<path class="st78" d="M11.7,32.9c0.7,0,2.1,1.8,2,3c-0.1,1.3-1.5,1.6-2.3,1.4c-0.9-0.2-1.3-1.1-1.3-1.6
								C10.1,34.9,11,32.9,11.7,32.9z"/>
							<path class="st79" d="M11.6,32.9c0.7,0,2.1,1.7,1.9,2.9c-0.1,1.2-1.4,1.6-2.2,1.4c-0.9-0.2-1.2-1.1-1.2-1.6
								C10.1,34.9,11,32.9,11.6,32.9L11.6,32.9z"/>
							<path class="st80" d="M11.6,32.9c0.6,0,2,1.7,1.9,2.8s-1.4,1.5-2.1,1.4c-0.9-0.2-1.2-1.1-1.2-1.5C10.1,34.9,11,33,11.6,32.9
								L11.6,32.9z"/>
							<path class="st81" d="M11.6,33c0.6,0,1.9,1.7,1.8,2.7c-0.1,1.1-1.3,1.5-2,1.3c-0.9-0.2-1.2-1-1.2-1.5
								C10.1,34.9,11,33,11.6,33L11.6,33z"/>
							<path class="st82" d="M11.6,33c0.6,0,1.8,1.6,1.7,2.7s-1.2,1.4-1.9,1.3c-0.9-0.2-1.1-1-1.2-1.4C10.2,34.9,11,33,11.6,33z"/>
							<path class="st83" d="M11.6,33.1c0.5,0,1.7,1.6,1.6,2.6c-0.1,1-1.1,1.4-1.9,1.3c-0.9-0.2-1.1-1-1.1-1.4
								C10.2,34.9,11,33.1,11.6,33.1z"/>
							<path class="st84" d="M11.5,33.1c0.5,0,1.7,1.5,1.6,2.5c-0.1,1-1.1,1.3-1.8,1.2c-0.8-0.1-1.1-0.9-1.1-1.3
								C10.3,34.9,11,33.1,11.5,33.1L11.5,33.1z"/>
							<path class="st85" d="M11.5,33.2c0.5,0,1.6,1.5,1.5,2.5c-0.1,1-1,1.3-1.7,1.2c-0.8-0.1-1.1-0.9-1.1-1.3
								C10.3,34.9,11,33.2,11.5,33.2L11.5,33.2z"/>
							<path class="st86" d="M11.5,33.2c0.5,0,1.5,1.4,1.4,2.4c-0.1,0.9-0.9,1.2-1.6,1.2c-0.8-0.1-1-0.9-1-1.2
								C10.3,34.9,11,33.2,11.5,33.2L11.5,33.2z"/>
							<path class="st87" d="M11.5,33.3c0.4,0,1.4,1.4,1.3,2.3c-0.1,0.8-0.9,1.2-1.5,1.1c-0.8-0.1-1-0.8-1-1.2
								C10.3,34.9,11.1,33.3,11.5,33.3L11.5,33.3z"/>
							<path class="st88" d="M11.4,33.3c0.4,0,1.4,1.4,1.3,2.2c-0.1,0.8-0.8,1.1-1.4,1.1c-0.8-0.1-1-0.8-1-1.1
								C10.4,34.9,11,33.3,11.4,33.3L11.4,33.3z"/>
							<path class="st89" d="M11.4,33.3c0.4,0,1.3,1.3,1.2,2.2c-0.1,0.7-0.7,1.1-1.3,1c-0.8-0.1-0.9-0.8-0.9-1.1
								C10.4,34.9,11.1,33.3,11.4,33.3L11.4,33.3z"/>
							<path class="st90" d="M11.4,33.4c0.4,0,1.2,1.3,1.1,2.1c-0.1,0.7-0.6,1.1-1.2,1c-0.7-0.1-0.9-0.8-0.9-1
								C10.4,34.9,11,33.4,11.4,33.4L11.4,33.4z"/>
							<path class="st91" d="M11.4,33.4c0.3,0,1.1,1.3,1.1,2c-0.1,0.6-0.6,1-1.1,1c-0.7-0.1-0.9-0.7-0.9-1
								C10.5,34.9,11.1,33.4,11.4,33.4z"/>
							<path class="st92" d="M11.4,33.5c0.3,0,1,1.2,1,2c-0.1,0.6-0.5,1-1,0.9c-0.7,0-0.9-0.7-0.9-1C10.5,35,11.1,33.5,11.4,33.5z"
								/>
							<path class="st93" d="M11.3,33.5c0.3,0,1,1.2,0.9,1.9c-0.1,0.5-0.4,0.9-0.9,0.9c-0.7,0-0.8-0.6-0.8-0.9
								C10.5,35,11.1,33.5,11.3,33.5z"/>
							<path class="st94" d="M11.3,33.6c0.3,0,0.9,1.1,0.8,1.8c0,0.5-0.4,0.9-0.8,0.9c-0.7,0-0.8-0.6-0.8-0.9
								C10.5,35,11.1,33.6,11.3,33.6L11.3,33.6z"/>
						</g>
						<path class="st95" d="M12.2,35.1c0,0.8-0.6,1.4-1.3,1.4s-1.4-0.6-1.4-1.4c0-1.3,1.4-3,1.4-3l0.1-0.1c0,0,0,0.1,0,0.1
							C11.2,32.5,12.2,34.1,12.2,35.1L12.2,35.1z"/>
						<path class="st96" d="M12.3,35.1c0,0.8-0.6,1.4-1.3,1.4s-1.3-0.6-1.3-1.4c0-1.1,1.3-3.1,1.3-3.1S12.3,34,12.3,35.1z"/>
					</g>
					<g>
						<g>
							<path class="st0" d="M5.7,30c0-0.9,1.1-2.9,1.9-2.9c0.9-0.1,2.7,1.9,2.5,3.2c-0.2,1.6-2.1,1.9-3,1.6
								C6.1,31.5,5.7,30.5,5.7,30L5.7,30z"/>
							<path class="st64" d="M7.5,27.1c0.9-0.1,2.6,1.8,2.4,3.1c-0.2,1.6-2,1.8-2.9,1.6c-0.9-0.3-1.3-1.3-1.4-1.8
								C5.7,29.1,6.7,27.1,7.5,27.1L7.5,27.1z"/>
							<path class="st65" d="M7.5,27.1c0.8-0.1,2.5,1.8,2.4,3.1c-0.2,1.5-1.9,1.8-2.8,1.5c-0.9-0.3-1.3-1.3-1.3-1.8
								C5.7,29.1,6.7,27.2,7.5,27.1L7.5,27.1z"/>
							<path class="st66" d="M7.5,27.2c0.8-0.1,2.5,1.8,2.3,3c-0.2,1.5-1.9,1.8-2.8,1.5c-0.9-0.3-1.3-1.2-1.3-1.7
								C5.7,29.1,6.7,27.2,7.5,27.2L7.5,27.2z"/>
							<path class="st67" d="M7.5,27.2c0.8-0.1,2.4,1.8,2.3,3c-0.2,1.4-1.8,1.7-2.7,1.5c-0.9-0.3-1.3-1.2-1.3-1.7
								C5.7,29.1,6.8,27.2,7.5,27.2z"/>
							<path class="st68" d="M7.5,27.2c0.8-0.1,2.3,1.7,2.2,2.9c-0.2,1.4-1.8,1.7-2.6,1.4c-0.9-0.3-1.2-1.2-1.3-1.7
								C5.8,29.1,6.8,27.3,7.5,27.2z"/>
							<path class="st69" d="M7.4,27.3c0.7-0.1,2.3,1.7,2.1,2.8c-0.2,1.3-1.7,1.7-2.5,1.4c-0.9-0.3-1.2-1.1-1.2-1.6
								C5.8,29.1,6.8,27.3,7.4,27.3z"/>
							<path class="st70" d="M7.4,27.3c0.7-0.1,2.2,1.7,2.1,2.8c-0.2,1.3-1.7,1.6-2.4,1.4c-0.9-0.3-1.2-1.1-1.2-1.6
								C5.8,29.1,6.8,27.4,7.4,27.3z"/>
							<path class="st71" d="M7.4,27.3c0.7-0.1,2.1,1.6,2,2.7c-0.2,1.3-1.6,1.6-2.4,1.3c-0.8-0.2-1.2-1.1-1.2-1.5
								C5.8,29.1,6.8,27.4,7.4,27.3z"/>
							<path class="st72" d="M7.4,27.4c0.7-0.1,2.1,1.6,2,2.7c-0.1,1.2-1.5,1.5-2.3,1.3c-0.8-0.2-1.1-1.1-1.2-1.5
								C5.9,29.1,6.8,27.4,7.4,27.4L7.4,27.4z"/>
							<path class="st73" d="M7.4,27.4c0.7,0,2,1.6,1.9,2.6c-0.1,1.2-1.5,1.5-2.2,1.3c-0.8-0.2-1.1-1-1.1-1.5
								C5.9,29.1,6.8,27.4,7.4,27.4L7.4,27.4z"/>
							<path class="st74" d="M7.4,27.4c0.6,0,2,1.5,1.8,2.6c-0.1,1.2-1.4,1.4-2.1,1.3c-0.8-0.2-1.1-1-1.1-1.4
								C5.9,29.1,6.8,27.5,7.4,27.4L7.4,27.4z"/>
							<path class="st75" d="M7.4,27.5C8,27.4,9.2,29,9.1,30c-0.1,1.1-1.4,1.4-2.1,1.2C6.3,31,6,30.2,6,29.8
								C5.9,29.2,6.8,27.5,7.4,27.5z"/>
							<path class="st76" d="M7.3,27.5c0.6,0,1.8,1.5,1.7,2.5c-0.1,1.1-1.3,1.4-2,1.2C6.3,31,6,30.2,6,29.8
								C6,29.2,6.8,27.5,7.3,27.5L7.3,27.5z"/>
							<path class="st77" d="M7.3,27.5c0.6,0,1.8,1.4,1.7,2.4c-0.1,1-1.3,1.3-1.9,1.2c-0.8-0.2-1-0.9-1-1.3
								C6,29.2,6.8,27.6,7.3,27.5z"/>
							<path class="st78" d="M7.3,27.6c0.5,0,1.7,1.4,1.6,2.4c-0.1,1-1.2,1.3-1.9,1.1c-0.8-0.2-1-0.9-1-1.3
								C6,29.2,6.8,27.6,7.3,27.6L7.3,27.6z"/>
							<path class="st79" d="M7.3,27.6c0.5,0,1.6,1.4,1.5,2.3c-0.1,1-1.1,1.3-1.8,1.1c-0.7-0.2-1-0.9-1-1.2
								C6,29.2,6.8,27.6,7.3,27.6z"/>
							<path class="st80" d="M7.3,27.6c0.5,0,1.6,1.3,1.5,2.2c-0.1,0.9-1.1,1.2-1.7,1.1c-0.7-0.2-1-0.9-1-1.2
								C6.1,29.2,6.8,27.7,7.3,27.6L7.3,27.6z"/>
							<path class="st81" d="M7.3,27.7c0.5,0,1.5,1.3,1.4,2.2c-0.1,0.9-1,1.2-1.6,1.1c-0.7-0.1-0.9-0.8-0.9-1.2
								C6.1,29.2,6.8,27.7,7.3,27.7z"/>
							<path class="st82" d="M7.2,27.7c0.5,0,1.5,1.3,1.4,2.1s-1,1.1-1.6,1c-0.7-0.1-0.9-0.8-0.9-1.1C6.1,29.2,6.8,27.7,7.2,27.7
								L7.2,27.7z"/>
							<path class="st83" d="M7.2,27.7c0.4,0,1.4,1.3,1.3,2.1c-0.1,0.8-0.9,1.1-1.5,1c-0.7-0.1-0.9-0.8-0.9-1.1
								C6.1,29.2,6.8,27.8,7.2,27.7z"/>
							<path class="st84" d="M7.2,27.8c0.4,0,1.3,1.2,1.3,2s-0.9,1.1-1.4,1c-0.7-0.1-0.9-0.8-0.9-1.1C6.2,29.2,6.8,27.8,7.2,27.8
								L7.2,27.8z"/>
							<path class="st85" d="M7.2,27.8c0.4,0,1.3,1.2,1.2,2c-0.1,0.8-0.8,1-1.3,1c-0.7-0.1-0.8-0.7-0.9-1
								C6.2,29.2,6.8,27.8,7.2,27.8z"/>
							<path class="st86" d="M7.2,27.8c0.4,0,1.2,1.2,1.1,1.9c-0.1,0.7-0.7,1-1.3,0.9c-0.6-0.1-0.8-0.7-0.8-1
								C6.2,29.2,6.8,27.8,7.2,27.8L7.2,27.8z"/>
							<path class="st87" d="M7.2,27.9c0.4,0,1.1,1.1,1.1,1.8c-0.1,0.6-0.7,1-1.2,0.9c-0.6-0.1-0.8-0.7-0.8-0.9
								C6.2,29.2,6.8,27.9,7.2,27.9z"/>
							<path class="st88" d="M7.1,27.9c0.3,0,1.1,1.1,1,1.8c-0.1,0.6-0.6,0.9-1.1,0.9c-0.6-0.1-0.8-0.6-0.8-0.9
								C6.3,29.2,6.8,27.9,7.1,27.9L7.1,27.9z"/>
							<path class="st89" d="M7.1,27.9c0.3,0,1,1.1,1,1.7c-0.1,0.6-0.6,0.9-1,0.8c-0.6-0.1-0.8-0.6-0.8-0.9
								C6.3,29.2,6.8,28,7.1,27.9z"/>
							<path class="st90" d="M7.1,28c0.3,0,1,1,0.9,1.7c-0.1,0.5-0.5,0.8-1,0.8c-0.6-0.1-0.7-0.6-0.7-0.8C6.3,29.2,6.8,28,7.1,28
								L7.1,28z"/>
							<path class="st91" d="M7.1,28c0.3,0,0.9,1,0.8,1.6c-0.1,0.5-0.5,0.8-0.9,0.8c-0.6,0-0.7-0.6-0.7-0.8C6.3,29.2,6.8,28,7.1,28z
								"/>
							<path class="st92" d="M7.1,28.1c0.2,0,0.8,1,0.8,1.6c0,0.5-0.4,0.8-0.8,0.8c-0.6,0-0.7-0.5-0.7-0.8
								C6.4,29.2,6.8,28.1,7.1,28.1L7.1,28.1z"/>
							<path class="st93" d="M7.1,28.1c0.2,0,0.8,0.9,0.7,1.5c0,0.4-0.3,0.7-0.7,0.7c-0.5,0-0.7-0.5-0.7-0.7
								C6.4,29.2,6.8,28.1,7.1,28.1z"/>
							<path class="st94" d="M7,28.1c0.2,0,0.7,0.9,0.7,1.4c0,0.4-0.3,0.7-0.7,0.7c-0.5,0-0.6-0.5-0.6-0.7C6.4,29.2,6.8,28.1,7,28.1
								z"/>
						</g>
						<path class="st95" d="M7.7,29.3c0,0.6-0.5,1.1-1.1,1.1s-1.1-0.5-1.1-1.1c0-1,1.1-2.4,1.1-2.4l0.1,0c0,0,0,0.1,0,0.1
							C6.9,27.3,7.7,28.6,7.7,29.3L7.7,29.3z"/>
						<path class="st96" d="M7.8,29.4c0,0.6-0.5,1.1-1.1,1.1S5.6,30,5.6,29.4c0-0.9,1.1-2.5,1.1-2.5S7.8,28.5,7.8,29.4z"/>
					</g>
					<g>
						<g>
							<path class="st0" d="M35.1,25.7c0-0.9,1-2.7,1.7-2.7c0.8-0.1,2.5,1.8,2.3,3c-0.2,1.5-1.9,1.8-2.8,1.5
								C35.5,27.1,35.1,26.2,35.1,25.7z"/>
							<path class="st64" d="M36.8,23c0.8-0.1,2.4,1.7,2.3,2.9c-0.2,1.4-1.9,1.7-2.7,1.4c-0.9-0.3-1.2-1.2-1.3-1.7
								C35,24.8,36.1,23,36.8,23L36.8,23z"/>
							<path class="st65" d="M36.8,23c0.8-0.1,2.4,1.7,2.2,2.9c-0.2,1.4-1.8,1.7-2.7,1.4c-0.9-0.3-1.2-1.2-1.2-1.7
								C35.1,24.9,36.1,23.1,36.8,23z"/>
							<path class="st66" d="M36.8,23.1c0.8-0.1,2.3,1.7,2.2,2.8c-0.2,1.4-1.8,1.7-2.6,1.4c-0.9-0.3-1.2-1.2-1.2-1.6
								C35.1,24.9,36,23.1,36.8,23.1L36.8,23.1z"/>
							<path class="st67" d="M36.7,23.1c0.7-0.1,2.2,1.6,2.1,2.8c-0.2,1.3-1.7,1.6-2.5,1.4c-0.8-0.3-1.2-1.1-1.2-1.6
								C35.1,24.9,36,23.1,36.7,23.1L36.7,23.1z"/>
							<path class="st68" d="M36.7,23.1c0.7-0.1,2.2,1.6,2.1,2.7c-0.2,1.3-1.7,1.6-2.4,1.3c-0.8-0.3-1.2-1.1-1.2-1.6
								C35.1,24.9,36.1,23.2,36.7,23.1L36.7,23.1z"/>
							<path class="st69" d="M36.7,23.2c0.7-0.1,2.1,1.6,2,2.7c-0.2,1.3-1.6,1.5-2.4,1.3c-0.8-0.2-1.1-1.1-1.2-1.5
								C35.2,24.9,36.1,23.2,36.7,23.2L36.7,23.2z"/>
							<path class="st70" d="M36.7,23.2c0.7-0.1,2.1,1.6,1.9,2.6c-0.1,1.2-1.6,1.5-2.3,1.3c-0.8-0.2-1.1-1.1-1.1-1.5
								C35.2,24.9,36.1,23.2,36.7,23.2L36.7,23.2z"/>
							<path class="st71" d="M36.7,23.2c0.7-0.1,2,1.5,1.9,2.6c-0.1,1.2-1.5,1.5-2.2,1.3c-0.8-0.2-1.1-1-1.1-1.4
								C35.2,24.9,36.1,23.3,36.7,23.2L36.7,23.2z"/>
							<path class="st72" d="M36.7,23.2c0.6,0,1.9,1.5,1.8,2.5c-0.1,1.2-1.4,1.4-2.2,1.2c-0.8-0.2-1.1-1-1.1-1.4
								C35.2,24.9,36.1,23.3,36.7,23.2L36.7,23.2z"/>
							<path class="st73" d="M36.7,23.3c0.6,0,1.9,1.5,1.8,2.5c-0.1,1.1-1.4,1.4-2.1,1.2c-0.8-0.2-1.1-1-1.1-1.4
								C35.2,24.9,36.1,23.3,36.7,23.3L36.7,23.3z"/>
							<path class="st74" d="M36.6,23.3c0.6,0,1.8,1.4,1.7,2.4c-0.1,1.1-1.3,1.4-2,1.2c-0.8-0.2-1-1-1-1.3
								C35.3,24.9,36.1,23.3,36.6,23.3L36.6,23.3z"/>
							<path class="st75" d="M36.6,23.3c0.6,0,1.8,1.4,1.7,2.4c-0.1,1-1.3,1.3-1.9,1.2c-0.7-0.2-1-0.9-1-1.3
								C35.3,24.9,36.1,23.4,36.6,23.3z"/>
							<path class="st76" d="M36.6,23.4c0.6,0,1.7,1.4,1.6,2.3c-0.1,1-1.2,1.3-1.9,1.1c-0.7-0.2-1-0.9-1-1.3
								C35.3,24.9,36.1,23.4,36.6,23.4L36.6,23.4z"/>
							<path class="st77" d="M36.6,23.4c0.5,0,1.7,1.3,1.6,2.3c-0.1,1-1.2,1.2-1.8,1.1c-0.7-0.2-1-0.9-1-1.2
								C35.3,24.9,36.1,23.4,36.6,23.4z"/>
							<path class="st78" d="M36.6,23.4c0.5,0,1.6,1.3,1.5,2.2c-0.1,0.9-1.1,1.2-1.7,1.1c-0.7-0.2-0.9-0.9-1-1.2
								C35.4,24.9,36.1,23.5,36.6,23.4z"/>
							<path class="st79" d="M36.6,23.5c0.5,0,1.5,1.3,1.5,2.1c-0.1,0.9-1.1,1.2-1.7,1.1c-0.7-0.2-0.9-0.8-0.9-1.2
								C35.4,24.9,36.1,23.5,36.6,23.5L36.6,23.5z"/>
							<path class="st80" d="M36.5,23.5c0.5,0,1.5,1.3,1.4,2.1s-1,1.1-1.6,1c-0.7-0.1-0.9-0.8-0.9-1.1
								C35.4,24.9,36.1,23.5,36.5,23.5z"/>
							<path class="st81" d="M36.5,23.5c0.5,0,1.4,1.2,1.3,2s-1,1.1-1.5,1c-0.7-0.1-0.9-0.8-0.9-1.1C35.4,24.9,36.1,23.5,36.5,23.5z
								"/>
							<path class="st82" d="M36.5,23.6c0.4,0,1.4,1.2,1.3,2s-0.9,1.1-1.5,1c-0.7-0.1-0.9-0.8-0.9-1.1
								C35.5,24.9,36.1,23.6,36.5,23.6z"/>
							<path class="st83" d="M36.5,23.6c0.4,0,1.3,1.2,1.2,1.9c-0.1,0.8-0.9,1-1.4,0.9c-0.6-0.1-0.8-0.7-0.8-1
								C35.5,24.9,36.1,23.6,36.5,23.6z"/>
							<path class="st84" d="M36.5,23.6c0.4,0,1.2,1.1,1.2,1.9c-0.1,0.8-0.8,1-1.3,0.9c-0.6-0.1-0.8-0.7-0.8-1
								C35.5,25,36.1,23.7,36.5,23.6L36.5,23.6z"/>
							<path class="st85" d="M36.5,23.7c0.4,0,1.2,1.1,1.1,1.8s-0.7,1-1.2,0.9c-0.6-0.1-0.8-0.7-0.8-1C35.5,25,36.1,23.7,36.5,23.7z
								"/>
							<path class="st86" d="M36.5,23.7c0.4,0,1.1,1.1,1.1,1.8c-0.1,0.6-0.7,0.9-1.2,0.9c-0.6-0.1-0.8-0.6-0.8-0.9
								C35.6,25,36.1,23.7,36.5,23.7z"/>
							<path class="st87" d="M36.4,23.7c0.3,0,1.1,1.1,1,1.7c-0.1,0.6-0.6,0.9-1.1,0.8c-0.6-0.1-0.8-0.6-0.8-0.9
								C35.6,25,36.1,23.7,36.4,23.7z"/>
							<path class="st88" d="M36.4,23.8c0.3,0,1,1,1,1.7c-0.1,0.6-0.6,0.9-1,0.8c-0.6-0.1-0.7-0.6-0.7-0.9
								C35.6,25,36.1,23.8,36.4,23.8L36.4,23.8z"/>
							<path class="st89" d="M36.4,23.8c0.3,0,1,1,0.9,1.6c-0.1,0.5-0.5,0.8-1,0.8c-0.6-0.1-0.7-0.6-0.7-0.8
								C35.6,25,36.1,23.8,36.4,23.8L36.4,23.8z"/>
							<path class="st90" d="M36.4,23.8c0.3,0,0.9,1,0.8,1.6c-0.1,0.5-0.5,0.8-0.9,0.8c-0.6,0-0.7-0.5-0.7-0.8
								C35.6,25,36.1,23.8,36.4,23.8L36.4,23.8z"/>
							<path class="st91" d="M36.4,23.9c0.3,0,0.8,0.9,0.8,1.5c0,0.5-0.4,0.8-0.8,0.7c-0.5,0-0.7-0.5-0.7-0.8
								C35.7,25,36.1,23.9,36.4,23.9z"/>
							<path class="st92" d="M36.4,23.9c0.2,0,0.8,0.9,0.7,1.5c0,0.4-0.4,0.7-0.8,0.7c-0.5,0-0.6-0.5-0.6-0.7
								C35.7,25,36.1,23.9,36.4,23.9L36.4,23.9z"/>
							<path class="st93" d="M36.3,23.9c0.2,0,0.7,0.9,0.7,1.4c0,0.4-0.3,0.7-0.7,0.7c-0.5,0-0.6-0.5-0.6-0.7
								C35.7,25,36.1,23.9,36.3,23.9z"/>
							<path class="st94" d="M36.3,24c0.2,0,0.7,0.9,0.6,1.4c0,0.4-0.3,0.6-0.6,0.6c-0.5,0-0.6-0.5-0.6-0.6C35.7,25,36.1,24,36.3,24
								L36.3,24z"/>
						</g>
						<path class="st95" d="M37,25.1c0,0.6-0.5,1-1,1c-0.6,0-1-0.5-1-1c0-1,1.1-2.3,1.1-2.3l0.1,0c0,0,0,0.1,0,0.1
							C36.3,23.2,37,24.3,37,25.1L37,25.1z"/>
						<path class="st96" d="M37,25.1c0,0.6-0.5,1-1,1c-0.6,0-1-0.5-1-1c0-0.9,1-2.3,1-2.3S37,24.3,37,25.1z"/>
					</g>
					<g>
						<g>
							<path class="st0" d="M21.8,39.3c0-0.9,1-2.7,1.7-2.7c0.8-0.1,2.5,1.8,2.3,3c-0.2,1.5-1.9,1.8-2.8,1.5
								C22.2,40.7,21.8,39.8,21.8,39.3z"/>
							<path class="st64" d="M23.5,36.6c0.8-0.1,2.4,1.7,2.3,2.9c-0.2,1.4-1.9,1.7-2.7,1.4c-0.9-0.3-1.2-1.2-1.3-1.7
								C21.8,38.4,22.8,36.6,23.5,36.6L23.5,36.6z"/>
							<path class="st65" d="M23.5,36.6c0.8-0.1,2.4,1.7,2.2,2.9c-0.2,1.4-1.8,1.7-2.7,1.4c-0.9-0.3-1.2-1.2-1.2-1.7
								C21.8,38.4,22.8,36.6,23.5,36.6L23.5,36.6z"/>
							<path class="st66" d="M23.5,36.6c0.8-0.1,2.3,1.7,2.2,2.8c-0.2,1.4-1.8,1.7-2.6,1.4c-0.9-0.3-1.2-1.1-1.2-1.6
								C21.8,38.4,22.8,36.7,23.5,36.6L23.5,36.6z"/>
							<path class="st67" d="M23.5,36.6c0.7-0.1,2.2,1.6,2.1,2.8c-0.2,1.3-1.7,1.6-2.5,1.4c-0.8-0.3-1.2-1.1-1.2-1.6
								C21.8,38.4,22.8,36.7,23.5,36.6L23.5,36.6z"/>
							<path class="st68" d="M23.4,36.7c0.7-0.1,2.2,1.6,2.1,2.7c-0.2,1.3-1.7,1.6-2.4,1.3c-0.8-0.3-1.2-1.1-1.2-1.6
								C21.9,38.4,22.8,36.7,23.4,36.7L23.4,36.7z"/>
							<path class="st69" d="M23.4,36.7c0.7-0.1,2.1,1.6,2,2.7c-0.2,1.3-1.6,1.5-2.4,1.3c-0.8-0.2-1.1-1.1-1.2-1.5
								C21.9,38.4,22.8,36.7,23.4,36.7L23.4,36.7z"/>
							<path class="st70" d="M23.4,36.7c0.7-0.1,2.1,1.6,1.9,2.6c-0.1,1.2-1.6,1.5-2.3,1.3c-0.8-0.2-1.1-1.1-1.1-1.5
								C21.9,38.5,22.8,36.8,23.4,36.7L23.4,36.7z"/>
							<path class="st71" d="M23.4,36.8c0.7,0,2,1.5,1.9,2.6c-0.1,1.2-1.5,1.5-2.2,1.3c-0.8-0.2-1.1-1-1.1-1.4
								C21.9,38.5,22.8,36.8,23.4,36.8L23.4,36.8z"/>
							<path class="st72" d="M23.4,36.8c0.6,0,1.9,1.5,1.8,2.5c-0.1,1.2-1.4,1.4-2.2,1.2c-0.8-0.2-1.1-1-1.1-1.4
								C21.9,38.5,22.8,36.9,23.4,36.8L23.4,36.8z"/>
							<path class="st73" d="M23.4,36.9c0.6,0,1.9,1.5,1.8,2.5c-0.1,1.1-1.4,1.4-2.1,1.2c-0.8-0.2-1.1-1-1.1-1.4
								C21.9,38.5,22.8,36.9,23.4,36.9L23.4,36.9z"/>
							<path class="st74" d="M23.3,36.9c0.6,0,1.8,1.4,1.7,2.4c-0.1,1.1-1.3,1.4-2,1.2c-0.8-0.2-1-1-1-1.3
								C22,38.5,22.8,36.9,23.3,36.9L23.3,36.9z"/>
							<path class="st75" d="M23.3,36.9c0.6,0,1.8,1.4,1.7,2.4c-0.1,1-1.3,1.3-1.9,1.2c-0.7-0.2-1-0.9-1-1.3
								C22,38.5,22.8,37,23.3,36.9z"/>
							<path class="st76" d="M23.3,36.9c0.6,0,1.7,1.4,1.6,2.3c-0.1,1-1.2,1.3-1.9,1.1c-0.7-0.2-1-0.9-1-1.3
								C22,38.5,22.8,37,23.3,36.9L23.3,36.9z"/>
							<path class="st77" d="M23.3,37c0.5,0,1.7,1.3,1.6,2.3c-0.1,1-1.2,1.2-1.8,1.1c-0.7-0.2-1-0.9-1-1.2
								C22.1,38.5,22.8,37,23.3,37z"/>
							<path class="st78" d="M23.3,37c0.5,0,1.6,1.3,1.5,2.2c-0.1,0.9-1.1,1.2-1.7,1.1c-0.7-0.2-0.9-0.9-1-1.2
								C22.1,38.5,22.8,37,23.3,37z"/>
							<path class="st79" d="M23.3,37c0.5,0,1.5,1.3,1.5,2.1c-0.1,0.9-1.1,1.2-1.7,1.1c-0.7-0.2-0.9-0.8-0.9-1.2
								C22.1,38.5,22.8,37.1,23.3,37L23.3,37z"/>
							<path class="st80" d="M23.3,37.1c0.5,0,1.5,1.3,1.4,2.1c-0.1,0.8-1,1.1-1.6,1c-0.7-0.1-0.9-0.8-0.9-1.1
								C22.1,38.5,22.8,37.1,23.3,37.1z"/>
							<path class="st81" d="M23.2,37.1c0.5,0,1.4,1.2,1.3,2c-0.1,0.8-1,1.1-1.5,1c-0.7-0.1-0.9-0.8-0.9-1.1
								C22.2,38.5,22.8,37.1,23.2,37.1z"/>
							<path class="st82" d="M23.2,37.1c0.4,0,1.4,1.2,1.3,2s-0.9,1.1-1.5,1c-0.7-0.1-0.9-0.8-0.9-1.1
								C22.2,38.5,22.8,37.2,23.2,37.1z"/>
							<path class="st83" d="M23.2,37.2c0.4,0,1.3,1.2,1.2,1.9s-0.9,1-1.4,0.9c-0.6-0.1-0.8-0.7-0.8-1
								C22.2,38.5,22.8,37.2,23.2,37.2z"/>
							<path class="st84" d="M23.2,37.2c0.4,0,1.2,1.1,1.2,1.9c-0.1,0.8-0.8,1-1.3,0.9c-0.6-0.1-0.8-0.7-0.8-1
								C22.2,38.5,22.8,37.2,23.2,37.2L23.2,37.2z"/>
							<path class="st85" d="M23.2,37.2c0.4,0,1.2,1.1,1.1,1.8c-0.1,0.7-0.7,1-1.2,0.9c-0.6-0.1-0.8-0.7-0.8-1
								C22.2,38.5,22.8,37.2,23.2,37.2z"/>
							<path class="st86" d="M23.2,37.3c0.4,0,1.1,1.1,1.1,1.8c-0.1,0.6-0.7,0.9-1.2,0.9c-0.6-0.1-0.8-0.6-0.8-0.9
								C22.3,38.5,22.8,37.3,23.2,37.3L23.2,37.3z"/>
							<path class="st87" d="M23.1,37.3c0.3,0,1.1,1.1,1,1.7c-0.1,0.6-0.6,0.9-1.1,0.8c-0.6-0.1-0.8-0.6-0.8-0.9
								C22.3,38.5,22.8,37.3,23.1,37.3L23.1,37.3z"/>
							<path class="st88" d="M23.1,37.3c0.3,0,1,1,1,1.7c-0.1,0.6-0.6,0.9-1,0.8c-0.6-0.1-0.7-0.6-0.7-0.9
								C22.3,38.5,22.8,37.3,23.1,37.3L23.1,37.3z"/>
							<path class="st89" d="M23.1,37.4c0.3,0,1,1,0.9,1.6c-0.1,0.5-0.5,0.8-1,0.8c-0.6-0.1-0.7-0.6-0.7-0.8
								C22.3,38.6,22.8,37.4,23.1,37.4L23.1,37.4z"/>
							<path class="st90" d="M23.1,37.4c0.3,0,0.9,1,0.8,1.6c-0.1,0.5-0.5,0.8-0.9,0.8c-0.6,0-0.7-0.6-0.7-0.8
								C22.3,38.6,22.8,37.4,23.1,37.4L23.1,37.4z"/>
							<path class="st91" d="M23.1,37.4c0.3,0,0.8,0.9,0.8,1.5c0,0.5-0.4,0.8-0.8,0.7c-0.5,0-0.7-0.5-0.7-0.8
								C22.4,38.6,22.9,37.4,23.1,37.4z"/>
							<path class="st92" d="M23.1,37.5c0.2,0,0.8,0.9,0.7,1.5c0,0.4-0.4,0.7-0.8,0.7c-0.5,0-0.6-0.5-0.6-0.7
								C22.4,38.6,22.9,37.5,23.1,37.5L23.1,37.5z"/>
							<path class="st93" d="M23.1,37.5c0.2,0,0.7,0.9,0.7,1.4c0,0.4-0.3,0.7-0.7,0.7c-0.5,0-0.6-0.5-0.6-0.7
								C22.4,38.6,22.8,37.5,23.1,37.5z"/>
							<path class="st94" d="M23,37.5c0.2,0,0.7,0.9,0.6,1.4c0,0.4-0.3,0.6-0.6,0.6c-0.5,0-0.6-0.5-0.6-0.6
								C22.4,38.6,22.9,37.5,23,37.5z"/>
						</g>
						<path class="st95" d="M23.7,38.7c0,0.6-0.5,1-1,1c-0.6,0-1-0.5-1-1c0-1,1.1-2.3,1.1-2.3l0.1,0c0,0,0,0.1,0,0.1
							C23,36.7,23.7,37.9,23.7,38.7L23.7,38.7z"/>
						<path class="st96" d="M23.8,38.7c0,0.6-0.5,1-1,1c-0.6,0-1-0.5-1-1c0-0.9,1-2.3,1-2.3S23.8,37.8,23.8,38.7z"/>
					</g>
					<g>
						<g>
							<path class="st0" d="M17.2,34c-0.1-1.4,1.6-4.3,2.8-4.4c1.3-0.1,4,2.8,3.7,4.8c-0.3,2.4-3.1,2.8-4.5,2.4
								C17.8,36.3,17.2,34.8,17.2,34L17.2,34z"/>
							<path class="st64" d="M20,29.6c1.3-0.1,3.9,2.8,3.7,4.7c-0.3,2.3-3,2.8-4.4,2.3c-1.4-0.5-2-1.9-2-2.7
								C17.2,32.6,18.8,29.7,20,29.6z"/>
							<path class="st65" d="M19.9,29.7c1.2-0.1,3.8,2.7,3.6,4.6c-0.3,2.3-2.9,2.7-4.2,2.3c-1.4-0.4-2-1.9-2-2.6
								C17.2,32.7,18.8,29.8,19.9,29.7L19.9,29.7z"/>
							<path class="st66" d="M19.9,29.7c1.2-0.1,3.7,2.7,3.5,4.5c-0.3,2.2-2.8,2.6-4.1,2.2c-1.4-0.4-1.9-1.8-2-2.6
								C17.3,32.7,18.8,29.8,19.9,29.7L19.9,29.7z"/>
							<path class="st67" d="M19.9,29.8c1.2-0.1,3.6,2.6,3.4,4.5c-0.3,2.1-2.8,2.6-4,2.2c-1.3-0.4-1.9-1.8-1.9-2.5
								C17.3,32.7,18.8,29.9,19.9,29.8L19.9,29.8z"/>
							<path class="st68" d="M19.9,29.8c1.1-0.1,3.5,2.6,3.3,4.4c-0.2,2.1-2.7,2.5-3.9,2.1c-1.3-0.4-1.9-1.8-1.9-2.5
								C17.3,32.7,18.8,29.9,19.9,29.8L19.9,29.8z"/>
							<path class="st69" d="M19.8,29.9c1.1-0.1,3.4,2.5,3.2,4.3c-0.2,2-2.6,2.5-3.8,2.1c-1.3-0.4-1.8-1.7-1.8-2.4
								C17.4,32.7,18.8,30,19.8,29.9z"/>
							<path class="st70" d="M19.8,29.9c1.1-0.1,3.3,2.5,3.1,4.2c-0.2,2-2.5,2.4-3.7,2.1c-1.3-0.4-1.8-1.7-1.8-2.4
								C17.4,32.7,18.8,30,19.8,29.9L19.8,29.9z"/>
							<path class="st71" d="M19.8,30c1-0.1,3.2,2.4,3,4.1c-0.2,1.9-2.4,2.4-3.6,2c-1.3-0.4-1.8-1.6-1.8-2.3
								C17.4,32.7,18.8,30.1,19.8,30L19.8,30z"/>
							<path class="st72" d="M19.8,30c1-0.1,3.1,2.4,2.9,4c-0.2,1.8-2.3,2.3-3.5,2c-1.2-0.3-1.7-1.6-1.7-2.3
								C17.5,32.7,18.8,30.1,19.8,30L19.8,30z"/>
							<path class="st73" d="M19.7,30.1c1-0.1,3,2.4,2.9,3.9c-0.2,1.8-2.2,2.2-3.3,1.9c-1.2-0.3-1.7-1.6-1.7-2.2
								C17.5,32.7,18.8,30.1,19.7,30.1L19.7,30.1z"/>
							<path class="st74" d="M19.7,30.1c0.9-0.1,2.9,2.3,2.8,3.9c-0.2,1.7-2.1,2.2-3.2,1.9c-1.2-0.3-1.6-1.5-1.7-2.1
								C17.5,32.7,18.8,30.2,19.7,30.1L19.7,30.1z"/>
							<path class="st75" d="M19.7,30.2c0.9-0.1,2.8,2.3,2.7,3.8c-0.2,1.7-2,2.1-3.1,1.8c-1.2-0.3-1.6-1.5-1.6-2.1
								C17.6,32.7,18.8,30.2,19.7,30.2L19.7,30.2z"/>
							<path class="st76" d="M19.7,30.3c0.9-0.1,2.8,2.2,2.6,3.7c-0.2,1.6-2,2.1-3,1.8c-1.2-0.3-1.6-1.4-1.6-2
								C17.6,32.7,18.8,30.3,19.7,30.3L19.7,30.3z"/>
							<path class="st77" d="M19.6,30.3c0.9-0.1,2.7,2.2,2.5,3.6c-0.2,1.6-1.9,2-2.9,1.8c-1.1-0.3-1.5-1.4-1.6-2
								C17.6,32.7,18.8,30.3,19.6,30.3z"/>
							<path class="st78" d="M19.6,30.4c0.8-0.1,2.6,2.1,2.4,3.5c-0.2,1.5-1.8,1.9-2.8,1.7c-1.1-0.3-1.5-1.4-1.5-1.9
								C17.7,32.8,18.8,30.4,19.6,30.4L19.6,30.4z"/>
							<path class="st79" d="M19.6,30.4c0.8-0.1,2.5,2.1,2.3,3.4c-0.2,1.4-1.7,1.9-2.7,1.7c-1.1-0.2-1.5-1.3-1.5-1.9
								C17.7,32.7,18.8,30.4,19.6,30.4z"/>
							<path class="st80" d="M19.6,30.5c0.8,0,2.4,2,2.2,3.4c-0.2,1.3-1.6,1.8-2.6,1.6c-1.1-0.2-1.4-1.3-1.5-1.8
								C17.8,32.8,18.8,30.5,19.6,30.5L19.6,30.5z"/>
							<path class="st81" d="M19.5,30.5c0.7,0,2.3,2,2.1,3.3c-0.1,1.3-1.5,1.8-2.4,1.6c-1.1-0.2-1.4-1.2-1.4-1.8
								C17.8,32.8,18.8,30.5,19.5,30.5L19.5,30.5z"/>
							<path class="st82" d="M19.5,30.6c0.7,0,2.2,1.9,2.1,3.2c-0.1,1.3-1.4,1.7-2.3,1.6c-1-0.2-1.4-1.2-1.4-1.7
								C17.9,32.8,18.9,30.6,19.5,30.6L19.5,30.6z"/>
							<path class="st83" d="M19.5,30.6c0.7,0,2.1,1.9,2,3.1c-0.1,1.2-1.4,1.7-2.2,1.5c-1-0.2-1.3-1.2-1.3-1.6
								C17.9,32.8,18.9,30.6,19.5,30.6L19.5,30.6z"/>
							<path class="st84" d="M19.5,30.7c0.6,0,2,1.8,1.9,3c-0.1,1.2-1.3,1.6-2.1,1.5c-1-0.2-1.3-1.1-1.3-1.6
								C17.9,32.8,18.9,30.7,19.5,30.7z"/>
							<path class="st85" d="M19.4,30.7c0.6,0,1.9,1.8,1.8,2.9c-0.1,1.1-1.2,1.6-2,1.4c-1-0.2-1.3-1.1-1.3-1.5
								C18,32.8,18.9,30.7,19.4,30.7z"/>
							<path class="st86" d="M19.4,30.8c0.6,0,1.8,1.7,1.7,2.8c-0.1,1-1.1,1.5-1.9,1.4c-1-0.1-1.2-1-1.2-1.5
								C18,32.8,18.9,30.8,19.4,30.8z"/>
							<path class="st87" d="M19.4,30.8c0.5,0,1.7,1.7,1.6,2.8c-0.1,1-1,1.4-1.8,1.3c-0.9-0.1-1.2-1-1.2-1.4
								C18,32.8,18.9,30.8,19.4,30.8L19.4,30.8z"/>
							<path class="st88" d="M19.4,30.9c0.5,0,1.6,1.7,1.5,2.7c-0.1,0.9-0.9,1.4-1.7,1.3c-0.9-0.1-1.2-1-1.2-1.4
								C18.1,32.8,18.9,30.9,19.4,30.9z"/>
							<path class="st89" d="M19.3,30.9c0.5,0,1.5,1.6,1.4,2.6c-0.1,0.9-0.8,1.3-1.5,1.2c-0.9-0.1-1.1-0.9-1.1-1.3
								C18.1,32.8,18.9,30.9,19.3,30.9z"/>
							<path class="st90" d="M19.3,31c0.4,0,1.4,1.6,1.3,2.5c-0.1,0.8-0.8,1.3-1.4,1.2c-0.9-0.1-1.1-0.9-1.1-1.2
								C18.1,32.8,18.9,31,19.3,31z"/>
							<path class="st91" d="M19.3,31c0.4,0,1.3,1.5,1.3,2.4c-0.1,0.8-0.7,1.2-1.3,1.2c-0.9-0.1-1.1-0.9-1.1-1.2
								C18.2,32.8,18.9,31,19.3,31z"/>
							<path class="st92" d="M19.3,31.1c0.4,0,1.2,1.5,1.2,2.4c-0.1,0.7-0.6,1.1-1.2,1.1c-0.8,0-1-0.8-1-1.1
								C18.2,32.8,18.9,31.1,19.3,31.1L19.3,31.1z"/>
							<path class="st93" d="M19.2,31.1c0.3,0,1.2,1.4,1.1,2.3c-0.1,0.6-0.5,1.1-1.1,1.1c-0.8,0-1-0.8-1-1.1
								C18.2,32.9,18.9,31.1,19.2,31.1L19.2,31.1z"/>
							<path class="st94" d="M19.2,31.2c0.3,0,1.1,1.4,1,2.2c-0.1,0.6-0.4,1-1,1c-0.8,0-1-0.7-1-1C18.3,32.9,18.9,31.2,19.2,31.2
								L19.2,31.2z"/>
						</g>
						<path class="st95" d="M20.2,33c0,0.9-0.7,1.6-1.6,1.6c-0.9,0-1.7-0.7-1.7-1.6c0-1.5,1.7-3.6,1.7-3.6l0.1-0.1c0,0,0,0.1,0,0.1
							C19.1,29.9,20.2,31.8,20.2,33z"/>
						<path class="st96" d="M20.4,33c0,0.9-0.7,1.6-1.6,1.6c-0.9,0-1.6-0.7-1.6-1.6c0-1.4,1.6-3.7,1.6-3.7S20.4,31.7,20.4,33z"/>
					</g>
				</g>
			</g>
		</g>
	</g>
</g>
</svg>
