<?xml version="1.0" encoding="utf-8"?>
<!-- Generator: Adobe Illustrator 27.0.1, SVG Export Plug-In . SVG Version: 6.00 Build 0)  -->
<svg version="1.1" id="Ebene_1" xmlns="http://www.w3.org/2000/svg" xmlns:xlink="http://www.w3.org/1999/xlink" x="0px" y="0px"
	 viewBox="0 0 47.9 47.9" style="enable-background:new 0 0 47.9 47.9;" xml:space="preserve">
<style type="text/css">
	.st0{display:none;}
	.st1{fill:#FFFFFF;fill-opacity:0;}
	.st2{opacity:4.761905e-02;fill:#F9FBFB;enable-background:new    ;}
	.st3{opacity:9.523810e-02;fill:#F4F6F8;enable-background:new    ;}
	.st4{opacity:0.1429;fill:#EEF2F4;enable-background:new    ;}
	.st5{opacity:0.1905;fill:#E9EDF1;enable-background:new    ;}
	.st6{opacity:0.2381;fill:#E3E9ED;enable-background:new    ;}
	.st7{opacity:0.2857;fill:#DEE5EA;enable-background:new    ;}
	.st8{opacity:0.3333;fill:#D8E0E6;enable-background:new    ;}
	.st9{opacity:0.381;fill:#D3DCE3;enable-background:new    ;}
	.st10{opacity:0.4286;fill:#CDD8DF;enable-background:new    ;}
	.st11{opacity:0.4762;fill:#C8D3DC;enable-background:new    ;}
	.st12{opacity:0.5238;fill:#C2CFD8;enable-background:new    ;}
	.st13{opacity:0.5714;fill:#BDCAD5;enable-background:new    ;}
	.st14{opacity:0.619;fill:#B7C6D1;enable-background:new    ;}
	.st15{opacity:0.6667;fill:#B2C2CE;enable-background:new    ;}
	.st16{opacity:0.7143;fill:#ACBDCA;enable-background:new    ;}
	.st17{opacity:0.7619;fill:#A7B9C7;enable-background:new    ;}
	.st18{opacity:0.8095;fill:#A1B5C3;enable-background:new    ;}
	.st19{opacity:0.8571;fill:#9CB0C0;enable-background:new    ;}
	.st20{opacity:0.9048;fill:#96ACBC;enable-background:new    ;}
	.st21{opacity:0.9524;fill:#91A7B9;enable-background:new    ;}
	.st22{fill:#8BA3B5;}
	.st23{fill:#EEF7FA;}
	.st24{fill:#91D5EB;}
	.st25{fill:url(#SVGID_1_);}
	.st26{fill:url(#SVGID_00000054230396007017005360000016599175770809711518_);}
	.st27{fill:url(#SVGID_00000109732261555410394970000011808663373274857628_);}
	.st28{fill:#FFFFFF;}
	.st29{fill:#E1F0FA;}
	.st30{fill:url(#SVGID_00000031903018644418588870000014756555599789931140_);}
	.st31{fill:url(#SVGID_00000031198240549445803840000008954365209804484031_);}
	.st32{fill:url(#SVGID_00000021114397733241839740000017466947493071522713_);}
	.st33{fill:#9DDEF2;}
	.st34{fill:#A2DEF2;}
	.st35{fill:#BEE9F7;}
	.st36{fill:#C8EEFA;}
	.st37{opacity:3.225806e-02;fill:#FBFCFC;enable-background:new    ;}
	.st38{opacity:6.451613e-02;fill:#F7F9FA;enable-background:new    ;}
	.st39{opacity:9.677419e-02;fill:#F3F6F7;enable-background:new    ;}
	.st40{opacity:0.129;fill:#EFF3F5;enable-background:new    ;}
	.st41{opacity:0.1613;fill:#EBF0F2;enable-background:new    ;}
	.st42{opacity:0.1935;fill:#E8EDF0;enable-background:new    ;}
	.st43{opacity:0.2258;fill:#E4EAED;enable-background:new    ;}
	.st44{opacity:0.2581;fill:#E0E7EB;enable-background:new    ;}
	.st45{opacity:0.2903;fill:#DCE4E8;enable-background:new    ;}
	.st46{opacity:0.3226;fill:#D8E1E6;enable-background:new    ;}
	.st47{opacity:0.3548;fill:#D4DEE3;enable-background:new    ;}
	.st48{opacity:0.3871;fill:#D0DBE0;enable-background:new    ;}
	.st49{opacity:0.4194;fill:#CCD8DE;enable-background:new    ;}
	.st50{opacity:0.4516;fill:#C8D5DB;enable-background:new    ;}
	.st51{opacity:0.4839;fill:#C4D2D9;enable-background:new    ;}
	.st52{opacity:0.5161;fill:#C1CFD6;enable-background:new    ;}
	.st53{opacity:0.5484;fill:#BDCCD4;enable-background:new    ;}
	.st54{opacity:0.5806;fill:#B9C9D1;enable-background:new    ;}
	.st55{opacity:0.6129;fill:#B5C6CF;enable-background:new    ;}
	.st56{opacity:0.6452;fill:#B1C3CC;enable-background:new    ;}
	.st57{opacity:0.6774;fill:#ADC0C9;enable-background:new    ;}
	.st58{opacity:0.7097;fill:#A9BDC7;enable-background:new    ;}
	.st59{opacity:0.7419;fill:#A5BAC4;enable-background:new    ;}
	.st60{opacity:0.7742;fill:#A1B7C2;enable-background:new    ;}
	.st61{opacity:0.8065;fill:#9DB4BF;enable-background:new    ;}
	.st62{opacity:0.8387;fill:#9AB1BD;enable-background:new    ;}
	.st63{opacity:0.871;fill:#96AEBA;enable-background:new    ;}
	.st64{opacity:0.9032;fill:#92ABB8;enable-background:new    ;}
	.st65{opacity:0.9355;fill:#8EA8B5;enable-background:new    ;}
	.st66{opacity:0.9677;fill:#8AA5B3;enable-background:new    ;}
	.st67{fill:#86A2B0;}
	.st68{fill:#B3EDFF;}
	.st69{fill:#61D7FF;}
</style>
<g id="Ebene_3" class="st0">
</g>
<g>
	<g>
		<g>
			<path class="st1" d="M44.9,28.1c3.5-3.5,3.3-6.3,2.1-9.4c-0.8-2.3-1.3-3.8-2.8-5.9C43,11,40.2,8.5,36,7.9
				c-4.1-0.5-13.7,5.9-16.9,6.9c-3.5,1.2-7.7,3.6-12.3,5.4c-2.3,1-5.8,3.9-5.9,5.6c-0.2,2.6,0.8,3.6,2,4.6c1.2,1,3.5,2.8,4.9,3.5
				c1.3,0.7,4.8,1.6,5.9,1.6c2.6,0.3,3.5-0.5,5.6-0.3c2.6,0.3,3.6,0.5,4.8,0.5c1.2,0,2-0.3,2.6-0.3c0.8,0,2.3,0,3.3-0.2
				c2.8-0.7,3.3-0.3,4.8-0.8C37.7,33.5,42.1,31.1,44.9,28.1z"/>
			<path class="st2" d="M44.6,27.9c3.5-3.3,3.3-6.1,2.1-9c-0.8-2.1-1.3-3.6-2.8-5.8c-1.3-1.8-3.9-4.3-8.1-4.9
				c-3.9-0.7-13.3,5.9-16.6,6.7c-3.6,1.2-7.7,3.6-12.2,5.4c-2.3,1-5.9,3.8-5.9,5.4c0,2.5,0.8,3.5,2,4.4c1.2,1,3.5,2.8,4.9,3.5
				c1.3,0.7,4.8,1.5,5.9,1.5c2.5,0.3,3.5-0.3,5.6-0.2c2.6,0.3,3.5,0.5,4.8,0.3c1.2,0,2-0.2,2.6-0.3c1,0,2.3,0,3.3-0.2
				c2.8-0.5,3.1-0.3,4.6-0.8C37.7,33.2,41.8,30.7,44.6,27.9z"/>
			<path class="st3" d="M44.1,27.8c3.3-3.1,3.1-5.9,2-8.7c-0.8-2.1-1.3-3.6-2.8-5.6c-1.3-1.8-3.8-4.1-7.9-4.9
				c-3.9-0.7-13,5.8-16.3,6.6c-3.3,1.2-7.4,3.6-11.7,5.4c-2.3,0.8-6.1,3.6-6.1,5.3c0,2.5,0.8,3.3,2,4.3c1.2,1,3.5,2.8,4.8,3.3
				c1.5,0.7,4.6,1.3,5.8,1.5c2.5,0.3,3.5-0.3,5.4-0.2c2.6,0.3,3.5,0.3,4.6,0.3c1,0,2-0.2,2.6-0.2c1,0,2.3,0,3.3-0.2
				c2.6-0.5,3.1-0.3,4.6-0.8C37.5,32.9,41.5,30.6,44.1,27.8z"/>
			<path class="st4" d="M43.8,27.8c3.3-3,3.1-5.8,2-8.4c-0.8-2.1-1.5-3.5-2.8-5.4c-1.3-1.8-3.6-4.1-7.7-4.9
				c-3.9-0.8-12.7,5.6-16,6.4c-3.5,1-7.4,3.5-11.7,5.1c-2.1,0.8-6.4,3.5-6.3,5.1c0,2.3,1,3.1,2.1,4.1s3.3,2.8,4.8,3.3
				c1.5,0.5,4.4,1.2,5.8,1.3c2.5,0.2,3.5-0.2,5.4,0c2.6,0.2,3.5,0.3,4.6,0.3c1,0,1.8-0.2,2.6-0.2c1,0,2.3,0,3.3-0.3
				c2.6-0.5,3-0.3,4.6-0.8C37.4,32.5,41.1,30.2,43.8,27.8z"/>
			<path class="st5" d="M43.4,27.6c3.1-3,3-5.6,1.8-8.2c-0.8-2.1-1.5-3.3-2.8-5.3c-1.3-1.6-3.5-3.9-7.6-4.9
				c-3.8-0.8-12.3,5.4-15.6,6.3c-3.5,1.2-7.1,3.6-11.4,5.3c-2.1,0.8-6.6,3.3-6.4,4.9c0,2.3,1,3.1,2.1,3.9c1.2,1,3.3,2.6,4.6,3.1
				c1.5,0.5,4.3,1,5.6,1.2c2.5,0.2,3.5,0,5.4,0.2c2.6,0.2,3.3,0.3,4.4,0.3c1,0,1.8-0.2,2.6-0.2c1.2,0,2.3-0.2,3.3-0.3
				c2.5-0.5,3-0.2,4.4-0.8C37.2,32.2,40.8,30.1,43.4,27.6z"/>
			<path class="st6" d="M43,27.4c3-2.8,3-5.4,1.8-7.9c-1-2-1.5-3.3-2.8-5.1c-1.2-1.6-3.3-3.9-7.2-4.9c-3.8-1-12.2,5.3-15.3,6.1
				c-3.6,1-7.1,3.5-11.2,5.1c-2.1,0.8-6.7,3-6.6,4.8c0,2.3,1,3,2.1,3.9c1.2,1,3.3,2.6,4.6,3.1c1.5,0.5,4.1,0.8,5.4,1
				c2.5,0.2,3.3,0,5.4,0.2c2.6,0.2,3.3,0.2,4.4,0.2c1,0,1.8,0,2.6,0c1.2,0,2.3-0.2,3.3-0.3c2.5-0.5,2.8-0.2,4.4-0.7
				C37,31.9,40.5,29.8,43,27.4z"/>
			<path class="st7" d="M42.6,27.3c3-2.6,2.8-5.1,1.6-7.6c-1-2-1.6-3.1-3-4.9c-1.2-1.6-3.1-3.8-7.1-4.9c-3.8-1-11.8,5.1-15,5.9
				c-3.3,1-6.7,3.5-10.7,5.1c-2,0.8-6.9,2.8-6.7,4.6c0.2,2,1.2,2.8,2.3,3.6c1.2,1,3.3,2.6,4.6,3c1.6,0.5,4.1,0.7,5.4,0.8
				c2.5,0.2,3.3,0.2,5.3,0.3c2.6,0.2,3.1,0.2,4.4,0.2c1,0,1.8,0,2.6,0c1.2,0,2.3-0.2,3.5-0.5c2.3-0.5,2.8-0.2,4.4-0.7
				C36.9,31.4,40,29.6,42.6,27.3z"/>
			<path class="st8" d="M42.1,27.1c2.8-2.5,2.8-4.9,1.6-7.4c-1-2-1.6-3.1-3-4.8c-1.2-1.6-3-3.8-6.9-4.9c-3.8-1-11.5,4.9-14.6,5.9
				c-3.5,1-6.6,3.5-10.5,4.9c-2,0.8-7.1,2.6-6.9,4.6c0.2,2,1.2,2.6,2.3,3.5c1.2,1,3.1,2.6,4.4,3c1.6,0.5,3.9,0.5,5.3,0.7
				c2.3,0.2,3.3,0.3,5.3,0.3c2.6,0.2,3.1,0.2,4.3,0.2c1,0,1.6,0,2.6,0c1.3,0,2.5-0.3,3.5-0.5c2.3-0.5,2.8-0.2,4.4-0.7
				C36.7,31.1,39.7,29.3,42.1,27.1z"/>
			<path class="st9" d="M41.8,27.1c2.8-2.3,2.6-4.8,1.5-7.1c-1-1.8-1.6-3-3-4.6c-1.2-1.5-2.8-3.8-6.7-4.9
				c-3.6-1.2-11.2,4.8-14.3,5.8c-3.3,1-6.4,3.5-10.2,4.9c-2,0.8-7.2,2.5-7.1,4.4c0.2,1.8,1.3,2.5,2.5,3.3c1.2,1,3.1,2.5,4.4,2.8
				c1.6,0.5,3.8,0.5,5.1,0.5c2.3,0.2,3.3,0.3,5.3,0.5c2.6,0.2,3.1,0,4.3,0c1,0,1.6,0,2.6,0c1.3,0,2.5-0.3,3.5-0.5
				c2.3-0.5,2.6-0.2,4.3-0.7C36.5,30.7,39.3,29.1,41.8,27.1z"/>
			<path class="st10" d="M41.3,27c2.6-2.1,2.6-4.6,1.5-6.7c-1-1.8-1.8-2.8-3-4.4c-1.2-1.5-2.6-3.6-6.6-4.9c-3.6-1.2-10.9,4.8-14,5.6
				c-3.3,1-6.3,3.5-10,4.9c-2,0.8-7.6,2.3-7.2,4.3c0.2,1.8,1.3,2.3,2.5,3.1c1.3,0.7,3.3,2.3,4.4,2.6c1.6,0.5,3.6,0.3,5.1,0.3
				c2.3,0.2,3.3,0.5,5.3,0.7c2.6,0.2,3,0,4.1,0c0.8,0,1.6,0.2,2.6,0.2c1.3,0,2.5-0.3,3.5-0.5c2.1-0.3,2.6,0,4.3-0.7
				C36.4,30.4,39,28.8,41.3,27z"/>
			<path class="st11" d="M41,26.8c2.5-2,2.5-4.4,1.3-6.6c-1-1.8-1.8-2.8-3-4.3c-1.2-1.5-2.5-3.6-6.3-4.9c-3.6-1.3-10.7,4.6-13.7,5.4
				c-3.3,1-6.1,3.3-9.7,4.8C7.9,22,2,23.3,2.3,25.3c0.2,1.6,1.3,2.1,2.5,3s3.1,2.5,4.3,2.6c1.8,0.3,3.5,0.2,4.9,0.2
				c2.3,0.2,3.3,0.7,5.1,0.7c2.6,0.2,3,0,4.1,0c0.8,0,1.5,0.2,2.6,0.2c1.5,0,2.5-0.5,3.5-0.7c2.1-0.3,2.5,0,4.3-0.7
				C36.2,30.1,38.7,28.6,41,26.8z"/>
			<path class="st12" d="M40.7,26.6c2.5-1.8,2.5-4.3,1.3-6.3c-1-1.6-1.8-2.6-3-4.1c-1.2-1.5-2.3-3.5-6.1-4.9
				c-3.5-1.3-10.4,4.4-13.3,5.3c-3.3,1-5.9,3.3-9.4,4.8c-1.8,0.7-7.9,2-7.6,3.9c0.2,1.6,1.5,2,2.6,2.8c1.3,0.8,3,2.5,4.3,2.6
				c1.8,0.3,3.5,0,4.8,0c2.3,0.2,3.1,0.7,5.1,0.8c2.5,0.2,3-0.2,4.1,0c0.8,0,1.5,0.2,2.6,0.2c1.5,0,2.5-0.5,3.5-0.7
				c2-0.3,2.5,0,4.1-0.7C36,29.8,38.3,28.3,40.7,26.6z"/>
			<path class="st13" d="M40.2,26.5c2.3-1.6,2.3-4.1,1.2-5.9c-1-1.6-2-2.6-3.1-3.9s-2.1-3.5-5.9-4.9c-3.5-1.3-10,4.3-13,5.1
				c-3.3,1-5.8,3.3-9,4.8c-1.8,0.7-8.1,1.8-7.7,3.8c0.2,1.5,1.5,1.8,2.6,2.6c1.3,0.8,3,2.3,4.1,2.5c1.8,0.3,3.3-0.2,4.8,0
				c2.3,0.2,3.1,0.8,5.1,1c2.5,0.2,2.8-0.2,3.9-0.2c0.8,0,1.5,0.2,2.6,0.2c1.5,0,2.5-0.5,3.5-0.7c2-0.3,2.3,0,4.1-0.7
				C36,29.3,38,28.1,40.2,26.5z"/>
			<path class="st14" d="M39.8,26.5c2.3-1.5,2.3-3.8,1.2-5.6c-1-1.6-2-2.5-3.1-3.8c-1.2-1.3-2-3.3-5.8-4.9
				c-3.5-1.5-9.7,4.1-12.7,4.9c-3.3,1-5.6,3.3-8.9,4.6c-1.6,0.7-8.2,1.6-7.9,3.8C3,27,4.1,27.3,5.3,27.9c1.3,0.8,3,2.3,4.1,2.5
				c2,0.3,3.1-0.3,4.6-0.2c2.1,0.2,3.1,1,5.1,1c2.5,0.2,2.8-0.2,3.9-0.2c0.8,0,1.5,0.3,2.6,0.3c1.6,0,2.6-0.7,3.5-0.7
				c1.8-0.3,2.3,0.2,4.1-0.5C35.9,28.9,37.7,27.8,39.8,26.5z"/>
			<path class="st15" d="M39.3,26.3c2.1-1.3,2.1-3.6,1-5.4c-1-1.6-2-2.3-3.1-3.6c-1.2-1.3-1.8-3.3-5.6-4.9
				c-3.3-1.6-9.2,3.9-12.2,4.8c-3.3,1-5.4,3.3-8.6,4.6c-1.6,0.7-8.6,1.5-8.1,3.6c0.3,1.3,1.6,1.6,2.8,2.3c1.3,0.8,2.8,2.3,4.1,2.5
				c2,0.2,3-0.5,4.6-0.3c2.1,0.2,3.1,1,4.9,1.2c2.5,0.2,2.6-0.3,3.8-0.2c0.8,0,1.3,0.3,2.6,0.3c1.6,0,2.6-0.7,3.5-0.8
				c1.8-0.3,2.1,0.2,4.1-0.5C35.7,28.6,37.4,27.6,39.3,26.3z"/>
			<path class="st16" d="M39,26.1c2-1.2,2-3.5,1-5.1c-1-1.5-2.1-2.3-3.1-3.5c-1-1.3-1.6-3.1-5.4-4.9c-3.3-1.5-9,3.8-12,4.6
				c-3.1,1-5.3,3.3-8.2,4.6c-1.6,0.7-8.7,1.3-8.2,3.5c0.3,1.3,1.6,1.5,2.8,2.1c1.3,0.8,2.8,2.1,3.9,2.3c2,0.2,3-0.7,4.4-0.5
				c2.1,0.2,3.1,1.2,4.9,1.2c2.5,0,2.6-0.3,3.8-0.3c0.7,0,1.3,0.3,2.6,0.3c1.6,0,2.6-0.7,3.5-0.8c1.8-0.3,2.1,0.2,3.9-0.5
				C35.6,28.3,37,27.3,39,26.1z"/>
			<path class="st17" d="M38.5,26c2-1,2-3.3,0.8-4.8c-1-1.5-2.1-2.1-3.1-3.3c-1-1.2-1.5-3.1-5.1-4.9c-3.3-1.6-8.9,3.6-11.7,4.6
				c-3.1,1-5.1,3.3-8.1,4.4c-1.5,0.7-8.9,1-8.4,3.3c0.3,1.2,1.8,1.3,3,2c1.3,0.8,2.8,2.1,3.9,2.3c2,0.2,2.8-0.7,4.3-0.7
				c2.1,0.2,3.1,1.3,4.9,1.3c2.5,0,2.6-0.3,3.8-0.3c0.7,0,1.3,0.3,2.6,0.3c1.8,0,2.6-0.7,3.5-0.8c1.6-0.3,2,0.2,3.9-0.5
				C35.4,27.9,36.5,27.1,38.5,26z"/>
			<path class="st18" d="M38.2,25.8c1.8-1,1.8-3.1,0.8-4.6c-1-1.5-2.1-2.1-3.1-3.3c-1-1.2-1.3-3.1-4.9-4.9
				c-3.3-1.6-8.6,3.6-11.4,4.4c-3.1,1-4.9,3.3-7.7,4.4c-1.5,0.7-9.2,0.8-8.6,3.1c0.3,1.2,1.8,1.2,3,1.8c1.3,0.8,2.8,2.1,3.9,2.1
				c2.1,0.2,2.6-0.8,4.3-0.8c2.1,0.2,3,1.3,4.9,1.5c2.5,0,2.5-0.5,3.6-0.3c0.7,0,1.2,0.5,2.6,0.5c1.8,0,2.6-0.8,3.5-0.8
				c1.6-0.2,2,0.3,3.9-0.5C35.2,27.6,36.2,26.8,38.2,25.8z"/>
			<path class="st19" d="M37.9,25.8c1.8-0.8,1.8-3,0.7-4.3c-1-1.3-2.3-2-3.3-3.1c-1-1.2-1.2-3-4.8-4.9c-3.1-1.8-8.2,3.5-11,4.3
				c-3.1,1-4.6,3.3-7.4,4.4c-1.5,0.7-9.4,0.7-8.7,3c0.3,1,2,1,3.1,1.6c1.3,0.8,2.6,2,3.8,2.1c2.1,0,2.5-1,4.1-1
				c2.1,0.2,3,1.5,4.9,1.5c2.5,0,2.5-0.5,3.6-0.3c0.7,0,1.2,0.5,2.6,0.5c1.8,0,2.6-0.8,3.5-1c1.5-0.2,2,0.3,3.8-0.5
				C35.1,27.1,35.9,26.6,37.9,25.8z"/>
			<path class="st20" d="M37.4,25.6C39,25,39,23,38,21.7c-1-1.3-2.3-1.8-3.3-3c-1-1-0.8-3-4.6-4.9c-3.1-1.8-7.9,3.3-10.7,4.1
				c-3.1,1-4.4,3.3-7.2,4.3c-1.5,0.5-9.7,0.5-8.9,3c0.3,1,2,0.8,3.1,1.5c1.3,0.7,2.6,2,3.8,2c2.1,0,2.3-1.2,3.9-1.2
				c2,0.2,3,1.6,4.8,1.6c2.5,0,2.5-0.5,3.5-0.5c0.7,0,1.2,0.5,2.6,0.5c2,0,2.8-0.8,3.5-1c1.5-0.2,1.8,0.3,3.8-0.5
				C34.9,26.8,35.6,26.3,37.4,25.6z"/>
			<path class="st21" d="M37,25.5c1.5-0.5,1.6-2.5,0.5-3.6c-1.2-1.3-2.3-1.8-3.3-2.8c-1-1.2-0.7-2.8-4.3-5.1
				c-3.1-1.8-7.6,3.1-10.4,3.9c-3.1,1-4.3,3.3-6.9,4.3c-1.3,0.5-9.9,0.3-9,2.8c0.3,0.8,2,0.7,3.1,1.3c1.3,0.7,2.6,2,3.6,2
				c2.3,0,2.3-1.3,3.9-1.3c2,0,3,1.6,4.8,1.6c2.5,0,2.3-0.7,3.5-0.5c0.7,0,1.2,0.5,2.6,0.5c2,0,2.8-1,3.5-1c1.3-0.2,1.8,0.3,3.8-0.5
				C34.7,26.5,35.2,26,37,25.5z"/>
			<path class="st22" d="M36.5,25.3C38,25,38,23,37,21.9c-1.2-1.2-2.3-1.6-3.3-2.6c-1-1-0.5-2.8-4.1-4.9c-3.1-2-7.4,3-10,3.8
				c-3.1,1-4.1,3.3-6.6,4.3c-1.3,0.5-10.2,0.2-9.2,2.6c0.3,0.8,2.1,0.5,3.3,1.2c1.3,0.7,2.6,1.8,3.6,1.8c2.3,0,2.1-1.5,3.8-1.3
				c2,0,3,1.8,4.8,1.8c2.5,0,2.3-0.7,3.5-0.5c0.7,0,1,0.7,2.6,0.7c2,0,2.8-1,3.5-1.2c1.3-0.2,1.6,0.3,3.8-0.3
				C34.6,26.1,34.9,25.8,36.5,25.3z"/>
		</g>
		<path class="st23" d="M35.7,20.5c-0.3-1.2-1-2-1.8-2.8c0.2-0.7,0.3-1.3,0.3-2c0.2-3.5-2.5-6.4-5.9-6.6c-2.6-0.2-4.9,1.5-5.9,3.8
			c-0.2,0-0.3,0-0.5,0c-2.1-0.2-4.1,1-5.4,2.5c-0.5,0-0.8-0.2-1.3-0.2c-1.8,0-3.5,1.3-3.6,3.3c0,0.3,0,0.7,0.2,0.8
			c-0.7,0.2-1.3,0.5-1.6,1.2c-0.5-0.8-1.5-1.3-2.5-1.3c-1.5,0-2.6,0.8-3.1,2H4.3c-1.3,0-2.5,1-2.5,2.3c0,1.3,1,2.5,2.3,2.5
			c0.7,0,1.3-0.2,1.8-0.7c0.5,0.3,1,0.5,1.5,0.5c0.5,1.2,1.6,2,3,2s2.6-0.7,3.1-1.8c0.3,0,0.8,0.2,1.2,0.2c0.2,0,0.3,0,0.5,0
			c0.8,1,2,1.8,3.5,1.8s2.6-0.5,3.6-1.5c0.5,1,1.6,1.8,2.8,1.8c1.3,0,2.5-0.7,3.1-1.8c0.7,0.3,1.5,0.5,2.1,0.7c1.6,0,3.3-0.7,4.3-2
			c0.2,0.2,0.5,0.2,0.8,0.2c1.3,0,2.5-1,2.6-2.3C38,21.7,37,20.5,35.7,20.5z"/>
		<path class="st24" d="M35.7,20.5c-0.3-1-1-2-1.8-2.6c0.2-0.7,0.3-1.3,0.3-2c0.2-3.5-2.5-6.4-5.9-6.6c-2.6-0.2-4.9,1.5-5.9,3.8
			c-0.2,0-0.3,0-0.5,0c-2.3-0.2-4.3,0.8-5.4,2.5c-0.5-0.2-0.8-0.2-1.2-0.3c-1.8,0-3.5,1.3-3.6,3.3c0,0.3,0,0.7,0.2,0.8
			c-0.7,0.2-1.3,0.7-1.6,1.2c-0.7-0.7-1.5-1.2-2.5-1.3c-1.5,0-2.6,0.8-3.1,2H4.5c-1.3,0-2.5,1-2.5,2.3C2,24.8,3,26,4.3,26
			c0.7,0,1.3-0.2,1.8-0.7c0.5,0.3,1,0.5,1.5,0.5c0.5,1.2,1.6,2,3,2s2.6-0.7,3.1-1.8c0.3,0.2,0.8,0.3,1.3,0.3c0.2,0,0.3,0,0.5,0
			c0.8,1,2,1.8,3.5,1.8s2.6-0.5,3.6-1.5c0.5,1,1.6,1.8,2.8,1.8c1.3,0,2.5-0.7,3.1-1.8c0.7,0.3,1.5,0.5,2.1,0.7c1.6,0,3.3-0.7,4.3-2
			c0.2,0.2,0.5,0.2,0.8,0.2c1.3,0,2.5-1,2.6-2.3C38.2,21.9,37.2,20.7,35.7,20.5z"/>
	</g>
	<g>
		
			<radialGradient id="SVGID_1_" cx="-50.128" cy="229.5383" r="4.3197" gradientTransform="matrix(0.9835 0.1812 0.1812 -0.9835 23.9381 265.261)" gradientUnits="userSpaceOnUse">
			<stop  offset="0" style="stop-color:#AED5EB"/>
			<stop  offset="0.186" style="stop-color:#C0DEEF"/>
			<stop  offset="0.694" style="stop-color:#EEF6FB"/>
			<stop  offset="0.95" style="stop-color:#FFFFFF"/>
		</radialGradient>
		<path class="st25" d="M20.4,31.2c-0.5,2.3-2.6,3.9-5.1,3.5c-2.3-0.5-3.9-2.6-3.5-5.1c0.5-2.3,2.6-3.9,5.1-3.5S20.9,28.9,20.4,31.2
			z"/>
		
			<radialGradient id="SVGID_00000048499535483100582360000000105728549080482946_" cx="-48.673" cy="231.7073" r="5.2991" gradientTransform="matrix(0.9835 0.1812 0.1812 -0.9835 23.9381 265.261)" gradientUnits="userSpaceOnUse">
			<stop  offset="0" style="stop-color:#AED5EB"/>
			<stop  offset="0.186" style="stop-color:#C0DEEF"/>
			<stop  offset="0.694" style="stop-color:#EEF6FB"/>
			<stop  offset="0.95" style="stop-color:#FFFFFF"/>
		</radialGradient>
		<path style="fill:url(#SVGID_00000048499535483100582360000000105728549080482946_);" d="M23.2,29.6c-0.5,3-3.3,4.8-6.3,4.3
			s-4.8-3.3-4.3-6.3c0.5-3,3.3-4.8,6.3-4.3C21.9,23.8,23.9,26.6,23.2,29.6z"/>
		
			<radialGradient id="SVGID_00000182510480458185940680000005850573458556879759_" cx="-48.6389" cy="229.8551" r="5.2896" gradientTransform="matrix(0.9835 0.1812 0.1812 -0.9835 23.9381 265.261)" gradientUnits="userSpaceOnUse">
			<stop  offset="0" style="stop-color:#AED5EB"/>
			<stop  offset="0.186" style="stop-color:#C0DEEF"/>
			<stop  offset="0.694" style="stop-color:#EEF6FB"/>
			<stop  offset="0.95" style="stop-color:#FFFFFF"/>
		</radialGradient>
		<path style="fill:url(#SVGID_00000182510480458185940680000005850573458556879759_);" d="M22.9,31.4c-0.5,2.8-3.3,4.8-6.1,4.3
			s-4.8-3.3-4.3-6.1s3.3-4.8,6.1-4.3C21.6,25.6,23.5,28.4,22.9,31.4z"/>
		<g>
			<path class="st28" d="M19.4,27L19.4,27l-7.7,3.6h-0.2c0,0-0.2,0-0.2-0.2s0-0.2,0-0.3l0,0l7.7-3.6c0.2,0,0.2,0,0.3,0.2
				C19.4,26.8,19.4,26.8,19.4,27z"/>
			<path class="st28" d="M18.9,27.8L18.9,27.8c-0.2,0-0.2,0-0.3,0l-0.5-1.2c0-0.2,0-0.2,0-0.3l0,0c0.2,0,0.2,0,0.3,0.2l0.5,1.2
				C19.1,27.6,18.9,27.8,18.9,27.8z"/>
			<path class="st28" d="M12.7,30.7L12.7,30.7c-0.2,0-0.2,0-0.3,0l-0.5-1.3c0-0.2,0-0.2,0-0.3l0,0c0.2,0,0.2,0,0.3,0.2l0.5,1.2
				C12.7,30.6,12.7,30.6,12.7,30.7z"/>
			<path class="st28" d="M17.3,32.5L17.3,32.5h-0.2c0,0-0.2,0-0.2-0.2l-3.5-7.6c0-0.2,0-0.2,0-0.3l0,0h0.2c0,0,0.2,0,0.2,0.2
				l3.6,7.7C17.5,32.4,17.5,32.5,17.3,32.5z"/>
			<path class="st28" d="M17.6,31.6C17.6,31.6,17.5,31.6,17.6,31.6l-1.2,0.5h-0.2c0,0-0.2,0-0.2-0.2s0-0.2,0-0.3l0,0l1.2-0.5h0.2
				c0,0,0.2,0,0.2,0.2C17.6,31.4,17.6,31.6,17.6,31.6z"/>
			<path class="st28" d="M14.7,25.3L14.7,25.3l-1.2,0.5h-0.2c0,0-0.2,0-0.2-0.2s0-0.2,0-0.3l0,0l1.2-0.5h0.2c0,0,0.2,0,0.2,0.2
				C14.8,25.1,14.7,25.1,14.7,25.3z"/>
			<path class="st28" d="M14,32.7L14,32.7h-0.2c0,0-0.2,0-0.2-0.2v-0.2l3-7.9c0,0,0,0,0-0.2h0.2c0,0,0.2,0,0.2,0.2v0.2L14,32.7
				C14.2,32.5,14.2,32.7,14,32.7z"/>
			<path class="st28" d="M15,32.2C15,32.2,14.8,32.2,15,32.2h-0.2l-1.3-0.5c0,0-0.2,0-0.2-0.2v-0.2c0,0,0,0,0-0.2h0.2l1.2,0.5
				c0,0,0.2,0,0.2,0.2C15,31.9,15,32.1,15,32.2C15,32.1,15,32.1,15,32.2z"/>
			<path class="st28" d="M17.3,25.6L17.3,25.6h-0.2L16,25.1c-0.2,0-0.2-0.2-0.2-0.3c0,0,0,0,0-0.2H16l1.2,0.5c0,0,0.2,0,0.2,0.2
				C17.5,25.5,17.5,25.5,17.3,25.6L17.3,25.6z"/>
			<path class="st28" d="M19.4,30.1L19.4,30.1h-0.2l-7.9-3c0,0-0.2,0-0.2-0.2v-0.2c0,0,0,0,0-0.2h0.2l7.9,3c0,0,0.2,0,0.2,0.2
				C19.6,29.9,19.6,29.9,19.4,30.1C19.6,30.1,19.6,30.1,19.4,30.1z"/>
			<path class="st28" d="M12,28.1L12,28.1h-0.2c0,0-0.2,0-0.2-0.2v-0.2l0.5-1.2c0,0,0,0,0-0.2h0.2c0,0,0.2,0,0.2,0.2v0.2L12,28.1
				C12.2,27.9,12,28.1,12,28.1z"/>
			<path class="st28" d="M18.6,30.4L18.6,30.4h-0.2c0,0-0.2,0-0.2-0.2v-0.2l0.5-1.2c0,0,0,0,0-0.2h0.2c0,0,0.2,0,0.2,0.2v0.2
				L18.6,30.4L18.6,30.4z"/>
			<path class="st28" d="M16.5,30.7L16.5,30.7h-0.2l-0.8-0.5l-0.8,0.5h-0.2c0,0-0.2,0-0.2-0.2l-0.3-1l-1-0.2c0,0-0.2,0-0.2-0.2v-0.2
				l0.5-0.8L13,27.8v-0.2c0,0,0,0,0-0.2l0,0l1-0.3l0.2-1V26l0,0h0.2l0.8,0.5c1-0.3,1-0.3,1-0.3h0.2c0,0,0.2,0,0.2,0.2l0.3,1l1,0.2
				c0,0,0.2,0,0.2,0.2v0.2l-0.5,0.8l0.5,0.8l0,0v0.2l0,0l0,0l0,0l-1.2,0.2L16.5,30.7C16.6,30.7,16.5,30.7,16.5,30.7z M15.3,29.9
				C15.3,29.9,15.5,29.9,15.3,29.9h0.2l0.7,0.3l0.2-0.8v-0.2l0,0l0.8-0.2l-0.5-0.7v-0.2l0.3-0.7l-0.8-0.2c0,0-0.2,0-0.2-0.2
				l-0.2-0.8L15.2,27H15l-0.7-0.3l-0.2,0.8v0.2l0,0l-0.7,0.2l0.5,0.7v0.2l-0.5,0.8l0.8,0.2c0,0,0.2,0,0.2,0.2l0.2,0.8L15.3,29.9
				L15.3,29.9z"/>
			<path class="st28" d="M17.8,30.7L17.8,30.7L17.8,30.7l-1.5-0.2l-0.7,1.2l0,0c0,0,0,0-0.2,0h-0.2l-0.8-1l-1.2,0.3h-0.2v-0.2
				l0.2-1.3l-1.2-0.7v-0.2v-0.2l1-0.8l-0.3-1.3v-0.2l0,0c0,0,0,0,0.2,0l1.3,0.2l0.8-1.2l0,0c0,0,0,0,0.2,0h0.2l0.8,1l1.3-0.3h0.2
				v0.2l-0.2,1.3l1.2,0.7v0.2v0.2l-1,0.8l0.3,1.3C17.9,30.6,17.9,30.7,17.8,30.7L17.8,30.7z M16.3,30.2L16.3,30.2l1.3,0.2l-0.2-1.2
				v-0.2l1-0.7l-1.2-0.7c0,0-0.2-0.2,0-0.2l0.2-1.2l-1.2,0.2h-0.2l-0.7-1l-0.7,1l0,0c0,0,0,0-0.2,0l-1.2-0.2l0,1.3v0.2l-1,0.7l1,0.7
				c0,0,0.2,0.2,0,0.2v1.2l1.2-0.2h0.2l0.7,1L16.3,30.2C16.1,30.4,16.1,30.4,16.3,30.2z"/>
		</g>
		<g>
			<path class="st29" d="M19.4,27L19.4,27l-7.7,3.6h-0.2c0,0-0.2,0-0.2-0.2s0-0.2,0-0.3l0,0l7.7-3.6c0.2,0,0.2,0,0.3,0.2
				C19.6,26.8,19.6,26.8,19.4,27z"/>
			<path class="st29" d="M19.1,27.8C19.1,27.8,18.9,27.8,19.1,27.8c-0.2,0-0.2,0-0.3,0l-0.5-1.2c0-0.2,0-0.2,0-0.3l0,0
				c0.2,0,0.2,0,0.3,0.2l0.5,1.2C19.1,27.6,19.1,27.8,19.1,27.8z"/>
			<path class="st29" d="M12.7,30.7L12.7,30.7c-0.2,0-0.2,0-0.3,0l-0.5-1.3c0-0.2,0-0.2,0-0.3l0,0c0.2,0,0.2,0,0.3,0.2l0.5,1.2
				C12.8,30.6,12.8,30.6,12.7,30.7z"/>
			<path class="st29" d="M17.5,32.5L17.5,32.5h-0.2c0,0-0.2,0-0.2-0.2l-3.6-7.6c0-0.2,0-0.2,0-0.3l0,0h0.2c0,0,0.2,0,0.2,0.2
				l3.6,7.7C17.5,32.4,17.5,32.5,17.5,32.5z"/>
			<path class="st29" d="M17.6,31.6L17.6,31.6l-1.2,0.5h-0.2c0,0-0.2,0-0.2-0.2s0-0.2,0-0.3l0,0l1.2-0.5h0.2c0,0,0.2,0,0.2,0.2
				C17.8,31.4,17.8,31.6,17.6,31.6z"/>
			<path class="st29" d="M14.7,25.3L14.7,25.3l-1.2,0.5h-0.2c0,0-0.2,0-0.2-0.2s0-0.2,0-0.3l0,0l1.2-0.5h0.2c0,0,0.2,0,0.2,0.2
				C14.8,25.1,14.8,25.1,14.7,25.3z"/>
			<path class="st29" d="M14.2,32.7L14.2,32.7H14c0,0-0.2,0-0.2-0.2v-0.2l3-7.9c0,0,0,0,0-0.2H17c0,0,0.2,0,0.2,0.2v0.2L14.2,32.7
				C14.2,32.5,14.2,32.7,14.2,32.7z"/>
			<path class="st29" d="M15,32.2L15,32.2h-0.2l-1.2-0.5c0,0-0.2,0-0.2-0.2v-0.2c0,0,0,0,0-0.2h0.2l1.2,0.5c0,0,0.2,0,0.2,0.2
				C15.2,31.9,15.2,32.1,15,32.2C15.2,32.1,15,32.1,15,32.2z"/>
			<path class="st29" d="M17.5,25.6L17.5,25.6h-0.2l-1.2-0.5C16,25.1,16,25,16,24.8c0,0,0,0,0-0.2h0.2l1.2,0.5c0,0,0.2,0,0.2,0.2
				C17.5,25.5,17.5,25.5,17.5,25.6L17.5,25.6z"/>
			<path class="st29" d="M19.6,30.1L19.6,30.1h-0.2l-7.9-3c0,0-0.2,0-0.2-0.2v-0.2c0,0,0,0,0-0.2h0.2l7.9,3c0,0,0.2,0,0.2,0.2
				C19.8,29.9,19.8,29.9,19.6,30.1L19.6,30.1z"/>
			<path class="st29" d="M12.2,28.1L12.2,28.1H12c0,0-0.2,0-0.2-0.2v-0.2l0.5-1.2c0,0,0,0,0-0.2h0.2c0,0,0.2,0,0.2,0.2v0.2
				L12.2,28.1C12.2,27.9,12.2,28.1,12.2,28.1z"/>
			<path class="st29" d="M18.6,30.4L18.6,30.4h-0.2c0,0-0.2,0-0.2-0.2v-0.2l0.5-1.2c0,0,0,0,0-0.2h0.2c0,0,0.2,0,0.2,0.2v0.2
				L18.6,30.4C18.8,30.4,18.8,30.4,18.6,30.4z"/>
			<path class="st29" d="M16.6,30.7L16.6,30.7h-0.2l-0.8-0.5l-0.8,0.5h-0.2c0,0-0.2,0-0.2-0.2l-0.3-1l-1-0.2c0,0-0.2,0-0.2-0.2v-0.2
				l0.5-0.8l-0.3-0.5v-0.2c0,0,0,0,0-0.2l0,0l1-0.3l0.2-1V26l0,0h0.2l0.8,0.5c1-0.3,1-0.3,1-0.3h0.2c0,0,0.2,0,0.2,0.2l0.3,1l1,0.2
				c0,0,0.2,0,0.2,0.2v0.2l-0.5,0.8l0.5,0.8l0,0v0.2l0,0l0,0l0,0l-1.3,0.2L16.6,30.7L16.6,30.7z M15.5,29.9L15.5,29.9h0.2l0.7,0.3
				l0.2-0.8v-0.2l0,0l0.8-0.2l-0.5-0.7v-0.2l0.3-0.7l-0.8-0.2c0,0-0.2,0-0.2-0.2L16,26.5L15.3,27h-0.2l-0.7-0.3l-0.2,0.8v0.2l0,0
				l-0.8,0.2l0.5,0.7v0.2l-0.3,0.8l0.8,0.2c0,0,0.2,0,0.2,0.2l0.2,0.8L15.5,29.9L15.5,29.9z"/>
			<path class="st29" d="M17.9,30.7L17.9,30.7C17.8,30.7,17.8,30.7,17.9,30.7l-1.5-0.2l-0.7,1.2l0,0c0,0,0,0-0.2,0h-0.2l-0.8-1
				l-1.2,0.3h-0.2v-0.2l0.2-1.3l-1.2-0.7v-0.2v-0.2l1-0.8L13,26.5v-0.2l0,0c0,0,0,0,0.2,0l1.3,0.2l0.7-1.2l0,0c0,0,0,0,0.2,0h0.2
				l0.8,1l1.3-0.3h0.2v0.2l-0.2,1.3l1.2,0.7v0.2v0.2l-1,0.8l0.3,1.3C17.9,30.6,17.9,30.7,17.9,30.7L17.9,30.7z M16.3,30.2
				C16.3,30.2,16.5,30.2,16.3,30.2l1.3,0.2l-0.2-1.2v-0.2l1-0.7l-1.2-0.7c0,0-0.2-0.2,0-0.2l0.2-1.2l-1.2,0.2h-0.2l-0.7-1l-0.7,1
				l0,0c0,0,0,0-0.2,0h-1.2l0.2,1.2v0.2l-1,0.7l1,0.7c0,0,0.2,0.2,0,0.2l-0.2,1.2l1.2-0.2h0.2l0.7,1L16.3,30.2
				C16.3,30.4,16.3,30.4,16.3,30.2z"/>
		</g>
	</g>
	<g>
		
			<radialGradient id="SVGID_00000075132670487151615350000016966473719543114401_" cx="-55.7097" cy="222.9522" r="2.7432" gradientTransform="matrix(0.9835 0.1812 0.1812 -0.9835 23.9381 265.261)" gradientUnits="userSpaceOnUse">
			<stop  offset="0" style="stop-color:#AED5EB"/>
			<stop  offset="0.186" style="stop-color:#C0DEEF"/>
			<stop  offset="0.694" style="stop-color:#EEF6FB"/>
			<stop  offset="0.95" style="stop-color:#FFFFFF"/>
		</radialGradient>
		<path style="fill:url(#SVGID_00000075132670487151615350000016966473719543114401_);" d="M12.2,36.3c-0.3,1.5-1.6,2.5-3.1,2.1
			s-2.5-1.6-2.1-3.1s1.6-2.5,3.1-2.1C11.5,33.5,12.5,34.9,12.2,36.3z"/>
		
			<radialGradient id="SVGID_00000172425883645089750390000010573342453472697218_" cx="-54.7858" cy="224.3276" r="3.369" gradientTransform="matrix(0.9835 0.1812 0.1812 -0.9835 23.9381 265.261)" gradientUnits="userSpaceOnUse">
			<stop  offset="0" style="stop-color:#AED5EB"/>
			<stop  offset="0.186" style="stop-color:#C0DEEF"/>
			<stop  offset="0.694" style="stop-color:#EEF6FB"/>
			<stop  offset="0.95" style="stop-color:#FFFFFF"/>
		</radialGradient>
		<path style="fill:url(#SVGID_00000172425883645089750390000010573342453472697218_);" d="M14,35.3c-0.3,1.8-2.1,3-3.9,2.6
			c-1.8-0.3-3-2-2.6-3.9c0.3-1.8,2.1-3,3.9-2.6C13.2,31.7,14.3,33.5,14,35.3z"/>
		
			<radialGradient id="SVGID_00000106115442481628668600000006738677076605008555_" cx="-54.7677" cy="223.1488" r="3.365" gradientTransform="matrix(0.9835 0.1812 0.1812 -0.9835 23.9381 265.261)" gradientUnits="userSpaceOnUse">
			<stop  offset="0" style="stop-color:#AED5EB"/>
			<stop  offset="0.186" style="stop-color:#C0DEEF"/>
			<stop  offset="0.694" style="stop-color:#EEF6FB"/>
			<stop  offset="0.95" style="stop-color:#FFFFFF"/>
		</radialGradient>
		<path style="fill:url(#SVGID_00000106115442481628668600000006738677076605008555_);" d="M13.8,36.5c-0.3,1.8-2.1,3-3.9,2.6
			s-3-2.1-2.6-3.9c0.3-1.8,2.1-3,3.9-2.6C13,32.9,14.2,34.7,13.8,36.5z"/>
		<g>
			<path class="st28" d="M11.5,33.7L11.5,33.7L6.6,36c0,0,0,0-0.2,0l0,0v-0.2l0,0l4.9-2.3C11.5,33.4,11.5,33.4,11.5,33.7
				C11.5,33.5,11.5,33.7,11.5,33.7z"/>
			<path class="st28" d="M11.2,34.2L11.2,34.2H11l-0.3-0.7v-0.2l0,0h0.2L11.2,34.2C11.4,34.2,11.4,34.2,11.2,34.2z"/>
			<path class="st28" d="M7.3,36L7.3,36H7.1l-0.3-0.7v-0.2l0,0h0.2L7.3,36L7.3,36z"/>
			<path class="st28" d="M10.2,37.2C10.2,37.2,10.2,37.3,10.2,37.2C10.2,37.3,10.2,37.3,10.2,37.2c-0.2,0-0.2,0-0.2,0l-2.3-4.9v-0.2
				l0,0c0,0,0,0,0.2,0l0,0L10.2,37.2C10.4,37.2,10.2,37.2,10.2,37.2z"/>
			<path class="st28" d="M10.4,36.7L10.4,36.7L9.7,37c0,0,0,0-0.2,0l0,0v-0.2l0,0l0.7-0.5c0,0,0,0,0.2,0
				C10.4,36.3,10.4,36.5,10.4,36.7C10.4,36.5,10.4,36.7,10.4,36.7z"/>
			<path class="st28" d="M8.6,32.5L8.6,32.5l-0.7,0.3c0,0,0,0-0.2,0l0,0v-0.2l0,0l0.7-0.3c0,0,0,0,0.2,0C8.6,32.4,8.6,32.4,8.6,32.5
				L8.6,32.5z"/>
			<path class="st28" d="M8.2,37.3C8.2,37.3,8.1,37.3,8.2,37.3C8.1,37.3,8.1,37.3,8.2,37.3c-0.2,0-0.2,0-0.2,0s0,0,0-0.2l1.8-5.1
				l0,0c0,0,0,0,0.2,0l0,0c0,0,0,0,0,0.2L8.2,37.3L8.2,37.3z"/>
			<path class="st28" d="M8.7,37L8.7,37C8.7,37,8.6,37,8.7,37l-0.8-0.3l0,0c0,0,0,0,0-0.2l0,0c0,0,0,0,0.2,0l0.8,0.3
				C8.7,36.8,8.7,36.8,8.7,37C8.7,36.8,8.7,36.8,8.7,37L8.7,37z"/>
			<path class="st28" d="M10.2,32.9L10.2,32.9L10.2,32.9l-0.8-0.3c0,0-0.2-0.2,0-0.2l0,0c0,0,0,0,0.2,0l0.7,0.3
				C10.2,32.7,10.2,32.7,10.2,32.9C10.2,32.7,10.2,32.7,10.2,32.9L10.2,32.9z"/>
			<path class="st28" d="M11.7,35.7L11.7,35.7C11.5,35.7,11.5,35.7,11.7,35.7l-5.1-1.8l0,0c0,0,0,0,0-0.2l0,0c0,0,0,0,0.2,0l5.1,1.8
				C11.7,35.5,11.7,35.5,11.7,35.7C11.7,35.5,11.7,35.7,11.7,35.7L11.7,35.7z"/>
			<path class="st28" d="M6.9,34.4L6.9,34.4C6.9,34.4,6.8,34.4,6.9,34.4c-0.2,0-0.2,0-0.2,0s0,0,0-0.2l0.2-0.7l0,0c0,0,0,0,0.2,0
				l0,0c0,0,0,0,0,0.2L6.9,34.4L6.9,34.4z"/>
			<path class="st28" d="M11,35.8C11,35.8,11,36,11,35.8C11,36,10.9,36,11,35.8c-0.2,0-0.2,0-0.2,0s0,0,0-0.2l0.3-0.8l0,0
				c0,0,0,0,0.2,0l0,0c0,0,0,0,0,0.2L11,35.8L11,35.8z"/>
			<path class="st28" d="M9.7,36.2L9.7,36.2C9.7,36.2,9.6,36.2,9.7,36.2l-0.7-0.3l-0.5,0.3c0,0,0,0-0.2,0l0,0l-0.2-0.7l-0.7-0.2l0,0
				c0,0,0,0,0-0.2l0.3-0.5l-0.3-0.5c0,0,0,0,0-0.2l0,0l0,0l0.7-0.2l0.2-0.7l0,0l0,0c0,0,0,0,0.2,0l0.5,0.3c0.5-0.3,0.5-0.3,0.5-0.3
				s0,0,0.2,0l0,0l0.2,0.7l0.7,0.2l0,0c0,0,0,0,0,0.2l-0.3,0.5l0.3,0.5l0,0v0.2l0,0l0,0l0,0l-0.7,0.2L9.7,36.2L9.7,36.2z M9.1,35.7
				L9.1,35.7L9.1,35.7L9.6,36l0.2-0.5l0,0l0,0l0.5-0.3l-0.3-0.5c0,0,0,0,0-0.2l0.3-0.3L9.7,34c0,0,0,0-0.2,0l-0.2-0.5l-0.5,0.3
				c0,0,0,0-0.2,0l-0.5-0.3L8.1,34l0,0l0,0l-0.5,0.2l0.3,0.5c0,0,0,0,0,0.2l-0.3,0.5l0.5,0.2c0,0,0,0,0.2,0l0.3,0.3L9.1,35.7
				L9.1,35.7z"/>
			<path class="st28" d="M10.5,36.2L10.5,36.2L10.5,36.2H9.7l-0.5,0.7l0,0l0,0c0,0,0,0-0.2,0l-0.5-0.7l-0.8,0.2c0,0,0,0-0.2,0
				c0,0,0,0,0-0.2l0.2-0.8l-0.8-0.5c0,0,0,0,0-0.2c0,0,0,0,0-0.2L7.6,34l-0.2-0.8c0,0,0,0,0-0.2l0,0l0,0l0.8,0.2l0.7-0.5l0,0l0,0
				c0,0,0,0,0.2,0l0.5,0.7l0.8-0.2c0,0,0,0,0.2,0c0,0,0,0,0,0.2l-0.2,0.8l0.7,0.5c0,0,0,0,0,0.2c0,0,0,0,0,0.2l-0.7,0.5L10.5,36.2
				C10.5,36,10.5,36,10.5,36.2L10.5,36.2z M9.6,35.8L9.6,35.8h0.8l-0.2-0.7V35l0.7-0.5l-0.7-0.3c0,0,0,0,0-0.2v-0.7l-0.7,0.2H9.4
				l-0.5-0.7l-0.3,0.7l0,0l0,0l-0.7-0.2L8.1,34v0.2l-0.7,0.5L8.1,35c0,0,0,0,0,0.2L7.7,36l0.8-0.2h0.2l0.5,0.7L9.6,35.8L9.6,35.8z"
				/>
		</g>
		<g>
			<path class="st29" d="M11.5,33.7L11.5,33.7L6.6,36c0,0,0,0-0.2,0l0,0v-0.2l0,0l4.9-2.3C11.5,33.4,11.7,33.4,11.5,33.7
				C11.7,33.5,11.7,33.7,11.5,33.7z"/>
			<path class="st29" d="M11.4,34.2L11.4,34.2h-0.2l-0.3-0.7v-0.2l0,0H11L11.4,34.2L11.4,34.2z"/>
			<path class="st29" d="M7.3,36L7.3,36H7.1l-0.3-0.7v-0.2l0,0h0.2L7.3,36C7.4,36,7.4,36,7.3,36z"/>
			<path class="st29" d="M10.2,37.2C10.2,37.2,10.2,37.3,10.2,37.2C10.2,37.3,10.2,37.3,10.2,37.2c-0.2,0-0.2,0-0.2,0l-2.3-4.9v-0.2
				l0,0c0,0,0,0,0.2,0l0,0L10.2,37.2C10.4,37.2,10.4,37.2,10.2,37.2z"/>
			<path class="st29" d="M10.4,36.7L10.4,36.7L9.7,37c0,0,0,0-0.2,0l0,0v-0.2l0,0l0.7-0.3c0,0,0,0,0.2,0
				C10.4,36.3,10.5,36.5,10.4,36.7C10.5,36.5,10.5,36.7,10.4,36.7z"/>
			<path class="st29" d="M8.6,32.5L8.6,32.5l-0.7,0.3c0,0,0,0-0.2,0l0,0v-0.2l0,0l0.7-0.3c0,0,0,0,0.2,0C8.6,32.4,8.6,32.4,8.6,32.5
				C8.7,32.5,8.6,32.5,8.6,32.5z"/>
			<path class="st29" d="M8.2,37.3L8.2,37.3C8.2,37.3,8.1,37.3,8.2,37.3c-0.2,0-0.2,0-0.2,0s0,0,0-0.2l1.8-5.1l0,0c0,0,0,0,0.2,0
				l0,0c0,0,0,0,0,0.2L8.2,37.3L8.2,37.3z"/>
			<path class="st29" d="M8.7,37L8.7,37L8.7,37l-0.8-0.3l0,0c0,0,0,0,0-0.2l0,0c0,0,0,0,0.2,0l0.8,0.3C8.7,36.8,8.7,36.8,8.7,37
				C8.9,36.8,8.9,36.8,8.7,37L8.7,37z"/>
			<path class="st29" d="M10.2,32.9L10.2,32.9L10.2,32.9l-0.8-0.3c0,0-0.2-0.2,0-0.2l0,0c0,0,0,0,0.2,0l0.7,0.3
				C10.2,32.7,10.4,32.7,10.2,32.9C10.4,32.7,10.4,32.7,10.2,32.9C10.4,32.9,10.4,32.9,10.2,32.9z"/>
			<path class="st29" d="M11.7,35.7L11.7,35.7C11.7,35.7,11.5,35.7,11.7,35.7l-5.1-1.8l0,0c0,0,0,0,0-0.2l0,0c0,0,0,0,0.2,0l5.1,1.8
				C11.7,35.5,11.7,35.5,11.7,35.7C11.7,35.5,11.7,35.7,11.7,35.7L11.7,35.7z"/>
			<path class="st29" d="M6.9,34.4L6.9,34.4L6.9,34.4c-0.2,0-0.2,0-0.2,0s0,0,0-0.2l0.3-0.8l0,0c0,0,0,0,0.2,0l0,0c0,0,0,0,0,0.2
				L6.9,34.4L6.9,34.4z"/>
			<path class="st29" d="M11,35.8C11,35.8,11,36,11,35.8C11,36,11,36,11,35.8c-0.2,0-0.2,0-0.2,0s0,0,0-0.2l0.3-0.8l0,0
				c0,0,0,0,0.2,0l0,0c0,0,0,0,0,0.2L11,35.8C11.2,35.8,11,35.8,11,35.8z"/>
			<path class="st29" d="M9.7,36.2L9.7,36.2L9.7,36.2l-0.7-0.3l-0.5,0.3c0,0,0,0-0.2,0l0,0l-0.2-0.7l-0.7-0.2l0,0c0,0,0,0,0-0.2
				l0.3-0.5l-0.3-0.5c0,0,0,0,0-0.2l0,0l0,0l0.7-0.2l0.2-0.7l0,0l0,0c0,0,0,0,0.2,0l0.5,0.3c0.5-0.3,0.5-0.3,0.5-0.3s0,0,0.2,0l0,0
				l0.2,0.7l0.7,0.2l0,0c0,0,0,0,0,0.2l-0.3,0.5l0.3,0.5l0,0v0.2l0,0l0,0l0,0l-0.7,0.2L9.7,36.2C9.9,36.2,9.9,36.2,9.7,36.2z
				 M9.1,35.7L9.1,35.7C9.1,35.7,9.2,35.7,9.1,35.7L9.6,36l0.2-0.5l0,0l0,0l0.5-0.2l-0.3-0.5c0,0,0,0,0-0.2l0.3-0.5L9.7,34
				c0,0,0,0-0.2,0l-0.2-0.5l-0.5,0.3c0,0,0,0-0.2,0l-0.2-0.3L8.4,34l0,0l0,0l-0.5,0.2l0.3,0.5c0,0,0,0,0,0.2l-0.3,0.5l0.5,0.2
				c0,0,0,0,0.2,0v0.3L9.1,35.7L9.1,35.7z"/>
			<path class="st29" d="M10.5,36.2L10.5,36.2L10.5,36.2H9.7l-0.5,0.7l0,0l0,0c0,0,0,0-0.2,0l-0.5-0.7l-0.8,0.2c0,0,0,0-0.2,0
				c0,0,0,0,0-0.2l0.2-0.8l-0.7-0.5c0,0,0,0,0-0.2c0,0,0,0,0-0.2L7.7,34l-0.2-0.8c0,0,0,0,0-0.2l0,0l0,0l0.8,0.2l0.5-0.5l0,0l0,0
				c0,0,0,0,0.2,0l0.5,0.7l0.8-0.2c0,0,0,0,0.2,0c0,0,0,0,0,0.2l-0.2,0.8l0.7,0.5c0,0,0,0,0,0.2c0,0,0,0,0,0.2l-0.7,0.5L10.5,36.2
				C10.7,36,10.7,36,10.5,36.2C10.7,36.2,10.5,36.2,10.5,36.2z M9.6,35.8C9.6,35.8,9.7,35.8,9.6,35.8h0.8l-0.2-0.7V35l0.7-0.5
				l-0.7-0.3c0,0,0,0,0-0.2l0.2-0.7l-0.7,0.2H9.6l-0.5-0.7l-0.5,0.7l0,0l0,0l-0.7-0.2L8.1,34v0.2l-0.7,0.5L8.1,35c0,0,0,0,0,0.2
				L7.9,36l0.7-0.2h0.2l0.5,0.7L9.6,35.8L9.6,35.8z"/>
		</g>
	</g>
	<g>
		<g>
			<path class="st1" d="M31.8,24c1.6-2.8,0-6.6-0.8-8.7c-0.7-1.5-2.5-3.6-4.1-4.3c-1.5-0.8-2.1-1.6-4.1-1.8
				c-2.6-0.3-6.3,1.8-8.4,2.3c-2.3,0.7-6.4,2.6-8.7,4.9c-2.6,2.8-2.6,5.1-2,6.7c0.8,1.8,2,2.8,2.8,3.5s1.6,1.3,2.5,1.8
				c1.8,0.8,3.3,0.8,4.8,1c1,0,3.6,0.3,6.3-0.3c1.8-0.3,3.6-0.7,4.6-1C26.5,27.4,30.5,26.3,31.8,24z"/>
			<path class="st2" d="M31.6,23.8c1.6-2.8,0-6.4-0.7-8.4C30.3,14,28.5,12,27,11.3c-1.5-0.8-2-1.6-4.1-2c-2.8-0.5-6.4,1.8-8.6,2.3
				c-2.3,0.7-6.4,2.5-8.6,4.9c-2.5,2.8-2.6,4.9-2,6.6c0.8,1.6,2,2.6,2.8,3.3s1.6,1.3,2.6,1.6c1.8,0.8,3.3,0.7,4.6,0.8
				c1,0,3.6,0.3,6.3-0.2c1.8-0.3,3.5-0.7,4.4-1C26.5,27.1,30.1,26.1,31.6,23.8z"/>
			<path class="st3" d="M31.3,23.7c1.6-2.6,0.2-6.3-0.7-8.1c-0.7-1.5-2.3-3.3-3.9-4.1c-1.5-0.7-1.8-1.8-3.9-2.1
				c-2.6-0.3-6.3,2-8.4,2.5c-2.3,0.7-6.3,2.5-8.4,4.8c-2.5,2.6-2.8,4.9-2,6.6s2,2.5,2.8,3.1s1.6,1.2,2.6,1.6
				c1.8,0.8,3.3,0.7,4.6,0.7c1,0.2,3.5,0.3,6.1-0.2c2-0.3,3.5-0.7,4.3-1C26.3,27,30,25.8,31.3,23.7z"/>
			<path class="st4" d="M30.9,23.5c1.6-2.6,0.2-6.1-0.5-7.9c-0.7-1.5-2.3-3.1-3.8-3.9c-1.5-0.7-1.8-2-3.9-2.3
				c-2.6-0.3-6.3,2-8.4,2.6c-2.3,0.7-6.3,2.5-8.2,4.6c-2.3,2.5-2.8,4.8-2,6.4s2,2.3,2.8,3c0.8,0.7,1.6,1.2,2.6,1.5
				c1.8,0.8,3.3,0.5,4.4,0.7c1,0.2,3.5,0.5,6.1-0.2c2-0.3,3.3-0.7,4.3-1C26.2,26.6,29.6,25.6,30.9,23.5z"/>
			<path class="st5" d="M30.6,23.5c1.6-2.5,0.3-5.8-0.5-7.6c-0.7-1.3-2.1-3.1-3.6-3.8c-1.3-0.7-1.6-2.1-3.8-2.5
				c-2.6-0.5-6.3,2-8.4,2.5c-2.3,0.7-6.1,2.3-8.1,4.4c-2.1,2.5-2.8,4.6-2,6.3s2,2.3,2.8,2.8s1.6,1,2.6,1.5c1.8,0.7,3.3,0.3,4.4,0.5
				c1,0.2,3.3,0.5,5.9,0c2-0.3,3.3-0.7,4.1-1C26,26.3,29.3,25.5,30.6,23.5z"/>
			<path class="st6" d="M30.3,23.3c1.6-2.3,0.3-5.6-0.3-7.2c-0.7-1.3-2.1-3-3.6-3.6c-1.3-0.8-1.5-2.3-3.6-2.8
				c-2.5-0.5-6.3,2-8.2,2.6c-2.3,0.5-6.3,2.3-8.1,4.3c-2.1,2.3-2.8,4.4-2,6.3c0.8,1.5,2,2.1,2.8,2.8c0.8,0.5,1.6,1,2.6,1.3
				c1.8,0.7,3.1,0.3,4.3,0.5c1,0.2,3.3,0.5,5.9,0c2-0.3,3.3-0.8,4.1-1C26,26,29.1,25.1,30.3,23.3z"/>
			<path class="st7" d="M30.1,23.2c1.6-2.3,0.5-5.4-0.3-7.1c-0.7-1.3-2-2.8-3.5-3.5c-1.3-0.7-1.5-2.3-3.6-3c-2.5-0.7-6.3,2-8.2,2.6
				c-2.3,0.7-6.1,2.3-7.9,4.3c-2,2.1-3,4.4-2.1,6.1c0.8,1.5,2,2,3,2.6c0.8,0.5,1.8,1,2.6,1.3c1.8,0.7,3.1,0.2,4.3,0.3
				c1,0.2,3.1,0.5,5.9,0c2-0.3,3.1-0.8,3.9-0.8C25.8,25.6,28.8,25,30.1,23.2z"/>
			<path class="st8" d="M29.8,23c1.6-2.1,0.5-5.1-0.2-6.7c-0.7-1.3-2-2.6-3.5-3.3c-1.3-0.7-1.3-2.5-3.5-3.1
				c-2.5-0.7-6.3,2.1-8.2,2.6c-2.3,0.7-6.1,2.3-7.7,4.1c-2,2.1-3,4.3-2.1,6.1c0.7,1.5,2,2,3,2.5c0.8,0.5,1.8,0.8,2.6,1.2
				c1.8,0.7,3.1,0,4.1,0.2c1,0.2,3.1,0.7,5.8,0.2c2-0.3,3.1-0.8,3.8-0.8C25.7,25.5,28.5,24.8,29.8,23z"/>
			<path class="st9" d="M29.5,22.8c1.6-2.1,0.7-4.9-0.2-6.4c-0.7-1.3-2-2.5-3.3-3.1c-1.3-0.7-1.2-2.6-3.5-3.3
				c-2.5-0.7-6.1,2.1-8.2,2.6c-2.1,0.7-5.8,2.3-7.4,3.9c-1.8,2-3,4.3-2.1,5.9c0.7,1.5,2,1.8,3,2.3c0.8,0.5,1.8,0.8,2.6,1.2
				c2,0.7,3.1,0,4.1,0.2s3.1,0.7,5.8,0.2c2-0.3,3-0.8,3.8-0.8C25.5,25.1,28.3,24.7,29.5,22.8z"/>
			<path class="st10" d="M29.1,22.8c1.6-2,0.7-4.8,0-6.3c-0.7-1.2-1.8-2.5-3.1-3.1c-1.2-0.7-1-2.8-3.3-3.5c-2.5-0.8-6.1,2.1-8.2,2.8
				c-2.1,0.7-5.9,2.1-7.4,3.8c-1.8,1.8-3.1,4.1-2.1,5.9c0.7,1.3,2,1.6,3,2.1c0.8,0.5,1.8,0.8,2.6,1c2,0.5,3-0.2,3.9,0
				c0.8,0.2,3,0.7,5.6,0.2c2-0.3,3-0.8,3.6-0.8C25.4,24.8,28,24.3,29.1,22.8z"/>
			<path class="st11" d="M29,22.7c1.6-2,0.8-4.4,0-5.9c-0.7-1.2-1.8-2.3-3.1-3c-1.2-0.5-1-3-3.1-3.8c-2.5-0.7-6.3,2.3-8.2,3
				c-2.1,0.7-5.8,2.1-7.2,3.6c-1.6,1.8-3.1,3.9-2.1,5.8c0.7,1.3,2,1.6,3,2c0.8,0.3,1.8,0.7,2.8,1c2,0.5,3-0.3,3.9-0.2
				c0.8,0.2,3,0.8,5.6,0.3c2-0.3,2.8-0.8,3.6-0.8C25.4,24.5,27.7,24.2,29,22.7z"/>
			<path class="st12" d="M28.6,22.5c1.6-1.8,0.8-4.3,0.2-5.6c-0.7-1.2-1.6-2.1-3-2.8c-1.2-0.5-0.8-3.1-3.1-3.9s-6.1,2.3-8.1,2.8
				c-2.3,0.7-5.9,2.1-7.2,3.6c-1.6,1.6-3.1,3.9-2.1,5.6c0.7,1.3,2,1.5,3,2c0.8,0.3,1.8,0.7,2.8,0.8c2,0.5,3-0.3,3.8-0.2
				c0.8,0.2,2.8,0.8,5.4,0.3c2-0.3,2.8-0.8,3.5-0.8C25.2,24.3,27.5,24,28.6,22.5z"/>
			<path class="st13" d="M28.3,22.3c1.6-1.8,1-4.1,0.2-5.3c-0.7-1.2-1.6-2-3-2.6c-1.2-0.5-0.7-3.1-3-4.1s-6.1,2.3-8.1,2.8
				c-2.1,0.7-5.6,2.1-6.9,3.5c-1.5,1.6-3.3,3.8-2.1,5.6c0.7,1.2,2,1.3,3.1,1.8c0.8,0.3,1.8,0.5,2.8,0.8c2,0.5,3-0.5,3.8-0.3
				s2.8,0.8,5.4,0.3c2-0.3,2.8-0.8,3.3-0.8C25,24,27.2,23.7,28.3,22.3z"/>
			<path class="st14" d="M28,22.3c1.6-1.6,1-3.8,0.3-5.1c-0.7-1.2-1.5-1.8-2.8-2.5c-1.2-0.5-0.7-3.3-3-4.3s-6.1,2.3-8.1,3
				c-2.1,0.7-5.8,2-6.9,3.3c-1.5,1.5-3.3,3.6-2.1,5.4c0.7,1.2,2,1.3,3.1,1.6c0.8,0.3,2,0.5,2.8,0.7c2,0.3,3-0.7,3.8-0.3
				c0.8,0.2,2.6,0.8,5.3,0.5c2-0.3,2.6-0.8,3.3-0.8C24.9,23.7,26.8,23.5,28,22.3z"/>
			<path class="st15" d="M27.8,22.2c1.6-1.6,1.2-3.6,0.3-4.8c-0.7-1.2-1.5-1.8-2.8-2.5c-1-0.5-0.5-3.5-2.8-4.4c-2.1-1-6.1,2.5-7.9,3
				c-2.1,0.7-5.6,2-6.7,3.1c-1.3,1.3-3.3,3.6-2.3,5.4c0.7,1.2,2,1.2,3.1,1.5c0.8,0.3,2,0.5,2.8,0.7c2,0.3,2.8-0.8,3.6-0.7
				c0.8,0.2,2.6,1,5.3,0.5c2-0.3,2.6-0.8,3.1-0.8C24.9,23.3,26.7,23.3,27.8,22.2z"/>
			<path class="st16" d="M27.5,22c1.6-1.5,1.2-3.5,0.5-4.4c-0.7-1-1.3-1.6-2.6-2.3c-1-0.5-0.3-3.6-2.8-4.6c-2.1-1-6.1,2.5-7.9,3
				c-2.1,0.7-5.6,2-6.6,3c-1.3,1.3-3.5,3.5-2.3,5.3c0.7,1.2,2,1,3.1,1.3c1,0.3,2,0.3,2.8,0.5c2,0.3,2.8-0.8,3.6-0.7
				c0.8,0.2,2.5,1,5.1,0.5c2.1-0.3,2.5-0.8,3.1-0.8C24.7,23,26.3,23.2,27.5,22z"/>
			<path class="st17" d="M27.2,21.9c1.6-1.5,1.3-3.1,0.7-4.3c-0.7-1-1.3-1.5-2.6-2.1c-1-0.5-0.3-3.6-2.6-4.9
				c-2.1-0.8-6.1,2.6-7.9,3.3c-2.1,0.7-5.6,1.8-6.6,2.8c-1.2,1.2-3.5,3.3-2.3,5.1c0.7,1,2,1,3.1,1.2c1,0.2,2,0.3,2.8,0.5
				c2,0.3,2.8-0.8,3.5-0.7c0.8,0.2,2.5,1,5.1,0.7c2.1-0.3,2.5-0.8,3-0.8C24.5,22.8,26,22.8,27.2,21.9z"/>
			<path class="st18" d="M26.8,21.7c1.6-1.3,1.3-3,0.7-3.9c-0.7-1-1.2-1.3-2.5-2c-1-0.5-0.2-3.8-2.5-5.1c-2.1-1-6.1,2.6-7.9,3.3
				c-2,0.5-5.4,1.8-6.3,2.6c-1,1-3.5,3.3-2.3,5.1c0.7,1,2,0.8,3.1,1.2c1,0.2,2,0.3,2.8,0.3c2,0.2,2.8-1,3.5-0.8
				c0.8,0.3,2.3,1.2,5.1,0.7c2.1-0.3,2.5-0.8,2.8-0.8C24.4,22.5,25.8,22.7,26.8,21.7z"/>
			<path class="st19" d="M26.5,21.7c1.6-1.3,1.5-2.8,0.8-3.6c-0.7-1-1.2-1.3-2.3-2c-1-0.5,0-3.9-2.5-5.3c-2.1-1.2-5.9,2.6-7.9,3.1
				c-2,0.7-5.4,1.8-6.3,2.6c-1,1-3.6,3.1-2.3,4.9c0.7,1,2,0.7,3.3,1c1,0.2,2,0.2,2.8,0.3c2,0.2,2.8-1.2,3.3-0.8
				c0.8,0.3,2.3,1.2,4.9,0.7c2.1-0.3,2.3-1,2.8-0.8C24.2,22.2,25.5,22.5,26.5,21.7z"/>
			<path class="st20" d="M26.3,21.5c1.6-1.2,1.5-2.5,0.8-3.5c-0.7-0.8-1-1.2-2.3-1.6c-0.8-0.3,0-4.1-2.3-5.4
				c-2.1-1.2-5.9,2.6-7.7,3.1c-2.1,0.7-5.4,1.8-6.3,2.5c-0.8,0.8-3.6,3-2.3,4.9c0.7,1,2,0.7,3.3,0.8c1,0.2,2,0.2,3,0.2
				c2,0.2,2.6-1.2,3.3-1c0.8,0.3,2.3,1.2,4.9,0.8c2.1-0.3,2.3-1,2.6-0.8C24.2,21.9,25.2,22.3,26.3,21.5z"/>
			<path class="st21" d="M26,21.4c1.6-1,1.6-2.3,1-3.1s-1-1-2.1-1.5c-0.8-0.3,0.2-4.1-2.3-5.6c-2.1-1.3-5.9,2.6-7.7,3.1
				c-2,0.7-5.3,1.6-5.9,2.3c-0.8,0.8-3.8,3-2.5,4.8c0.7,0.8,2,0.5,3.3,0.7c1,0.2,2.1,0,3,0.2c2.1,0.2,2.6-1.3,3.1-1.2
				c0.7,0.3,2.1,1.2,4.8,0.8c2.1-0.3,2.1-1,2.6-0.8C24,21.5,25,22,26,21.4z"/>
			<path class="st22" d="M25.7,21.2c1.6-1,1.6-2.1,1-2.8c-0.7-0.8-0.8-0.8-2.1-1.3c-0.8-0.3,0.3-4.3-2.1-5.8c-2-1.3-5.9,2.6-7.7,3.3
				c-2,0.7-5.3,1.6-5.9,2.1c-0.7,0.7-3.8,2.8-2.3,4.6c0.7,0.8,2,0.3,3.3,0.5c1,0.2,2.1,0,3,0c2.1,0,2.6-1.5,3.1-1.2
				c0.7,0.3,2.1,1.3,4.8,0.8c2.1-0.3,2.1-1,2.5-0.7C23.9,21.4,24.7,21.9,25.7,21.2z"/>
		</g>
		<path class="st28" d="M25.8,16.9c0.2-0.7,0.3-1.2,0.3-1.8c0-3.8-3-6.7-6.7-6.7c-3.1,0-5.8,2.1-6.6,5.1h-0.2c-1.5,0-2.8,0.8-3.5,2
			c-0.7-0.2-1-0.3-1.5-0.3c-1.8,0-3.3,1.5-3.3,3.3s1.5,3.3,3.3,3.3c0.8,0,1.5-0.3,2.1-0.8c0.7,0.7,1.6,1,2.6,1c1.2,0,2.1-0.5,3-1.2
			c1.2,0.8,2.5,1.2,3.8,1.2c1.3,0,2.5-0.3,3.6-1c0.5,0.7,1.2,1,2,1c1.5,0,2.6-1.2,2.6-2.6C27.3,18.2,26.7,17.4,25.8,16.9z"/>
		<path class="st33" d="M25.8,17.1c0.2-0.5,0.3-1.2,0.3-1.8c0-3.8-3-6.7-6.7-6.7c-3.1,0-5.8,2.1-6.6,5.1h-0.2c-1.5,0-2.8,0.8-3.5,2
			c-0.5-0.2-1-0.3-1.5-0.3c-1.8,0-3.3,1.5-3.3,3.3c0,1.8,1.5,3.3,3.3,3.3c0.8,0,1.5-0.3,2.1-0.8c0.7,0.7,1.6,1,2.6,1
			c1.2,0,2.1-0.5,3-1.2c1.2,0.8,2.5,1.2,3.8,1.2c1.3,0,2.5-0.3,3.6-1c0.5,0.7,1.2,1,2,1c1.5,0,2.6-1.2,2.6-2.6
			C27.5,18.4,26.8,17.4,25.8,17.1z"/>
	</g>
	<g>
		<g>
			<path class="st1" d="M44.3,26c2-1.6,1.6-6.9,0.7-8.2c-1.3-1.8-2.8-3-3.9-3.6c-1.2-0.7-4.6-1.2-6.3-1.2c-2.1,0-4.3,0.5-6.1,1
				c-2,0.5-5.6,1.8-7.4,3.8c-2.1,2.3-0.2,6.7,0.3,7.4c1,1.3,2.1,2.5,3.6,3.1s2.6,0.7,3.8,0.7c0.8,0,4.4,0.5,6.6,0
				c1.5-0.3,4.1-0.8,4.8-1.2C41,27.8,42.8,27.3,44.3,26z"/>
			<path class="st2" d="M43.9,25.8c2-1.6,1.6-6.7,0.7-8.1c-1.3-1.8-2.8-3-3.9-3.5c-1.2-0.7-4.4-1.2-6.1-1.2c-2.1,0-4.3,0.5-6.1,1
				c-1.8,0.5-5.6,1.8-7.2,3.8c-2,2.1-0.3,6.6,0.3,7.2c1,1.2,2.1,2.5,3.6,3.1s2.6,0.7,3.8,0.7c0.8,0,4.3,0.5,6.4,0
				c1.5-0.3,3.9-0.8,4.6-1.2C40.8,27.4,42.5,27.1,43.9,25.8z"/>
			<path class="st3" d="M43.6,25.6c2-1.6,1.6-6.4,0.7-7.9c-1.3-1.8-2.6-2.8-3.9-3.5c-1.2-0.7-4.3-1.2-5.8-1.2c-2.1,0-4.3,0.5-5.9,1
				c-1.8,0.5-5.6,1.8-7.2,3.6c-2,2.1-0.3,6.4,0.3,7.1c1,1.2,2,2.3,3.5,3.1c1.5,0.7,2.6,0.5,3.6,0.7c0.8,0,4.1,0.5,6.3,0.2
				c1.5-0.3,3.9-0.8,4.6-1.2C40.5,27.3,42.1,26.8,43.6,25.6z"/>
			<path class="st4" d="M43.3,25.5c2-1.5,1.6-6.3,0.7-7.7c-1.3-1.8-2.6-2.8-3.8-3.3C39,14,36,13.3,34.6,13.3c-2,0-4.1,0.5-5.9,0.8
				c-1.8,0.5-5.4,1.8-7.1,3.6c-1.8,2-0.3,6.3,0.2,6.9c0.8,1.2,2,2.3,3.5,3c1.3,0.7,2.6,0.5,3.6,0.7c0.8,0,4.1,0.7,6.1,0.2
				c1.5-0.3,3.8-0.8,4.4-1.2C40.2,27,41.8,26.6,43.3,25.5z"/>
			<path class="st5" d="M43.1,25.3c1.8-1.5,1.6-5.9,0.7-7.4c-1.3-1.8-2.6-2.8-3.8-3.3c-1.2-0.5-3.9-1.2-5.4-1.2
				c-2,0-4.1,0.3-5.8,0.8c-2,0.5-5.4,1.8-7.1,3.5c-1.8,2-0.5,5.9,0.2,6.7c0.8,1.2,1.8,2.3,3.3,3c1.3,0.7,2.6,0.5,3.5,0.5
				c0.8,0.2,3.9,0.7,6.1,0.3c1.5-0.3,3.8-1,4.4-1.3C39.8,26.8,41.5,26.5,43.1,25.3z"/>
			<path class="st6" d="M42.8,25.1c1.8-1.5,1.6-5.8,0.7-7.2c-1.2-1.8-2.6-2.6-3.8-3.3c-1.2-0.5-3.8-1-5.3-1.2
				c-2-0.2-3.9,0.3-5.8,0.8c-1.8,0.5-5.3,2-6.7,3.5c-1.6,1.8-0.5,5.8,0.2,6.6c0.8,1,1.6,2.1,3.3,2.8c1.3,0.5,2.5,0.5,3.5,0.5
				c0.8,0.2,3.8,0.7,5.9,0.3c1.5-0.3,3.6-1,4.3-1.3C39.7,26.5,41.1,26.3,42.8,25.1z"/>
			<path class="st7" d="M42.5,25c1.8-1.3,1.6-5.6,0.7-7.1c-1.2-1.8-2.5-2.6-3.6-3.1c-1-0.5-3.6-1-5.1-1.2c-1.8-0.2-3.9,0.3-5.6,0.8
				c-1.8,0.5-5.4,1.8-6.7,3.3c-1.6,1.8-0.5,5.6,0.2,6.4c0.8,1,1.6,2.1,3.1,2.8c1.3,0.5,2.5,0.3,3.3,0.5s3.6,0.8,5.8,0.3
				c1.6-0.3,3.6-1,4.1-1.3C39.3,26.3,40.8,26.1,42.5,25z"/>
			<path class="st8" d="M42.1,24.8c1.8-1.3,1.6-5.3,0.7-6.7c-1.2-1.8-2.5-2.5-3.6-3.1c-1-0.5-3.5-1-4.8-1.2
				c-1.8-0.2-3.9,0.3-5.6,0.7c-1.8,0.5-5.3,1.8-6.6,3.3c-1.6,1.6-0.5,5.4,0.2,6.3c0.8,1,1.5,2.1,3.1,2.8c1.3,0.5,2.5,0.3,3.3,0.5
				c0.7,0.2,3.5,0.8,5.6,0.5c1.6-0.3,3.5-1,4.1-1.3C39,26,40.7,25.8,42.1,24.8z"/>
			<path class="st9" d="M41.8,24.7c1.8-1.3,1.6-5.1,0.7-6.6c-1.2-1.8-2.5-2.5-3.6-3c-1-0.5-3.3-1-4.6-1.2c-1.8-0.2-3.8,0.2-5.4,0.7
				c-1.8,0.5-5.3,1.8-6.4,3.3c-1.5,1.6-0.7,5.1,0.2,6.1c0.8,1,1.5,2.1,3,2.6c1.3,0.5,2.5,0.3,3.3,0.5c0.7,0.2,3.3,0.8,5.4,0.5
				c1.6-0.3,3.5-1.2,3.9-1.3C38.7,25.8,40.3,25.6,41.8,24.7z"/>
			<path class="st10" d="M41.5,24.3c1.8-1.2,1.6-4.9,0.7-6.4c-1.2-1.8-2.5-2.5-3.6-3c-1-0.5-3.1-1-4.4-1.2c-1.6-0.2-3.8,0.2-5.4,0.7
				c-1.8,0.5-5.1,1.8-6.4,3.1c-1.5,1.5-0.7,4.9,0.2,5.9c0.7,0.8,1.3,2,2.8,2.6c1.3,0.5,2.3,0.2,3.1,0.3c0.7,0.2,3.3,1,5.3,0.5
				c1.6-0.3,3.3-1.2,3.8-1.5C38.5,25.5,40,25.5,41.5,24.3z"/>
			<path class="st11" d="M41.1,24.2c1.6-1.2,1.6-4.6,0.7-6.3c-1.2-1.8-2.5-2.3-3.5-3c-1-0.5-2.8-1-4.3-1.2c-1.6-0.2-3.6,0.2-5.3,0.7
				c-1.8,0.5-5.1,1.8-6.3,3.1c-1.3,1.5-0.7,4.8,0.2,5.8c0.7,0.8,1.2,2,2.8,2.5c1.3,0.5,2.3,0.2,3.1,0.3c0.7,0.2,3.1,1,5.3,0.7
				c1.6-0.3,3.3-1.2,3.8-1.5C38.2,25.3,39.7,25.3,41.1,24.2z"/>
			<path class="st12" d="M40.8,24c1.6-1.2,1.6-4.4,0.8-5.9c-1-1.8-2.3-2.3-3.5-2.8c-1-0.5-2.6-1-4.1-1.2c-1.6-0.2-3.6,0.2-5.3,0.7
				c-1.8,0.5-5.1,1.8-6.1,3.1c-1.3,1.3-0.7,4.6,0.2,5.6c0.7,0.8,1.2,2,2.6,2.5c1.3,0.5,2.3,0.2,3,0.3c0.7,0.2,3,1,5.1,0.7
				c1.6-0.3,3.1-1.2,3.6-1.5C37.9,25,39.3,25,40.8,24z"/>
			<path class="st13" d="M40.5,23.8c1.6-1,1.6-4.1,0.8-5.8c-1-1.8-2.3-2.3-3.5-2.8c-1-0.5-2.5-1-3.9-1.2c-1.5-0.2-3.6,0.2-5.1,0.5
				c-1.8,0.5-4.9,1.8-6.1,3c-1.2,1.3-0.8,4.3,0.2,5.4c0.7,0.8,1,1.8,2.6,2.3c1.3,0.5,2.3,0.2,3,0.3s2.8,1.2,4.9,0.7
				c1.6-0.3,3-1.2,3.5-1.5C37.5,24.7,39,24.8,40.5,23.8z"/>
			<path class="st14" d="M40.2,23.7c1.6-1,1.6-3.9,0.8-5.6c-1-2-2.3-2.1-3.3-2.6c-0.8-0.3-2.3-1-3.6-1.2c-1.5-0.2-3.5,0-5.1,0.5
				c-1.8,0.5-4.9,2-5.9,3c-1.2,1.2-0.8,4.1,0.2,5.3c0.7,0.7,1,1.8,2.5,2.3c1.2,0.3,2.3,0,3,0.2c0.7,0.2,2.6,1.2,4.8,0.8
				c1.6-0.3,3-1.3,3.5-1.5C37.4,24.5,38.7,24.7,40.2,23.7z"/>
			<path class="st15" d="M39.8,23.5c1.6-1,1.6-3.8,0.8-5.4c-1-2-2.3-2.1-3.3-2.6c-0.8-0.3-2.1-1-3.5-1.2c-1.5-0.2-3.5,0-4.9,0.5
				c-1.6,0.5-4.9,2-5.8,2.8c-1,1.2-0.8,3.9,0.2,5.1c0.5,0.7,0.8,1.8,2.5,2.3c1.2,0.3,2.1,0,2.8,0.2c0.7,0.2,2.5,1.2,4.6,0.8
				c1.6-0.3,2.8-1.3,3.3-1.5C37,24.2,38.3,24.5,39.8,23.5z"/>
			<path class="st16" d="M39.5,23.3c1.5-0.8,1.6-3.5,0.8-5.1c-1-2-2.3-2.1-3.3-2.6c-0.8-0.3-2-1-3.3-1.2c-1.3-0.2-3.5,0-4.9,0.5
				c-1.6,0.5-4.8,2-5.6,2.8c-1,1-1,3.8,0,4.9c0.5,0.7,0.8,1.6,2.3,2.1c1.2,0.3,2.1,0,2.8,0.2c0.7,0.2,2.5,1.3,4.4,1
				c1.6-0.3,2.8-1.3,3.3-1.6C36.7,24,38,24.2,39.5,23.3z"/>
			<path class="st17" d="M39.2,23.2c1.5-0.8,1.6-3.3,0.8-4.9c-1-2-2.1-2-3.3-2.5c-0.7-0.3-1.8-0.8-3-1.2c-1.3-0.2-3.3,0-4.8,0.3
				c-1.6,0.5-4.8,2-5.6,2.6c-1,1-1,3.5,0,4.8c0.5,0.7,0.7,1.6,2.1,2.1c1.2,0.3,2.1,0,2.6,0.2c0.7,0.2,2.3,1.3,4.4,1
				c1.6-0.3,2.6-1.3,3.1-1.6C36.4,23.7,37.7,24,39.2,23.2z"/>
			<path class="st18" d="M38.8,23c1.5-0.8,1.6-3.1,0.8-4.8c-1-2-2.1-2-3.1-2.5c-0.8-0.3-1.6-0.8-3-1.2c-1.3-0.3-3.3,0-4.8,0.3
				c-1.6,0.5-4.8,2-5.4,2.6c-0.8,0.8-1,3.3,0,4.6c0.5,0.5,0.5,1.6,2.1,2c1.2,0.3,2.1-0.2,2.6,0c0.7,0.2,2.1,1.3,4.3,1
				c1.6-0.3,2.6-1.5,3-1.6C36,23.5,37.5,23.8,38.8,23z"/>
			<path class="st19" d="M38.5,22.8c1.5-0.8,1.6-2.8,0.8-4.4c-1-2-2.1-2-3.1-2.3c-0.8-0.3-1.5-0.8-2.6-1.2c-1.2-0.3-3.1-0.2-4.6,0.3
				c-1.6,0.5-4.6,2-5.3,2.6c-0.8,0.8-1,3.1,0,4.4c0.5,0.5,0.5,1.5,2,2c1.2,0.3,2.1-0.2,2.6,0c0.7,0.2,2,1.5,4.1,1.2
				c1.6-0.3,2.5-1.5,3-1.6C35.9,23.2,37.2,23.5,38.5,22.8z"/>
			<path class="st20" d="M38.2,22.7c1.5-0.7,1.6-2.6,0.8-4.3c-0.8-2-2.1-1.8-3.1-2.3c-0.7-0.3-1.3-0.8-2.5-1.2
				c-1.2-0.3-3.1-0.2-4.6,0.3c-1.6,0.5-4.6,2-5.3,2.5c-0.7,0.7-1.2,3,0,4.3c0.5,0.5,0.3,1.5,2,2c1.2,0.3,2-0.2,2.5,0
				c0.7,0.2,1.8,1.5,3.9,1.2c1.6-0.3,2.5-1.5,2.8-1.6C35.6,23,36.9,23.3,38.2,22.7z"/>
			<path class="st21" d="M37.9,22.5c1.5-0.7,1.6-2.5,0.8-4.1c-0.8-2-2.1-1.8-3-2.1c-0.7-0.3-1.2-0.8-2.3-1.2
				c-1.2-0.3-3.1-0.2-4.4,0.3c-1.6,0.5-4.6,2-5.1,2.5c-0.7,0.7-1.2,2.6,0,4.1c0.3,0.5,0.3,1.5,1.8,1.8c1.2,0.3,2-0.2,2.5,0
				c0.7,0.2,1.6,1.5,3.8,1.2c1.6-0.3,2.3-1.5,2.6-1.6C35.2,22.7,36.5,23.2,37.9,22.5z"/>
			<path class="st22" d="M37.5,22.3c1.3-0.7,1.6-2.1,0.8-3.9c-0.8-2-2-1.8-3-2.1c-0.7-0.3-1-0.8-2.1-1.2c-1-0.3-3-0.2-4.4,0.2
				c-1.6,0.5-4.4,2-4.9,2.3c-0.5,0.5-1.2,2.5,0,3.9c0.3,0.5,0.2,1.5,1.8,1.8c1.2,0.2,2-0.3,2.3-0.2c0.7,0.3,1.6,1.6,3.6,1.3
				c1.6-0.3,2.3-1.6,2.6-1.8C34.9,22.5,36.2,23,37.5,22.3z"/>
		</g>
		<path class="st28" d="M35.7,15.9h-0.2c-0.3-1.2-1.5-2-2.8-2c-0.3,0-0.7,0-1,0.2c-0.3-1.2-1.5-1.8-2.6-1.8S27,13,26.5,14.1
			c-0.2,0-0.3,0-0.5,0c-1.3,0-2.3,1-2.5,2.1c-0.2,0-0.3,0-0.5,0c-1.5,0-2.8,1.3-2.8,2.8s1.3,2.8,2.8,2.8l0,0c0.3,1.2,1.3,2,2.5,2
			c1,0,1.8-0.5,2.1-1.3c0.7,1,1.8,1.8,3,1.8c1.5,0,2.6-0.8,3.3-2.1c0.5,0.3,1,0.5,1.6,0.5c1.8,0,3.3-1.5,3.3-3.3
			C39.2,17.4,37.5,15.9,35.7,15.9z"/>
		<path class="st34" d="M35.9,15.9h-0.2c-0.3-1.2-1.5-2-2.8-2c-0.3,0-0.7,0-1,0.2c-0.3-1.2-1.5-1.8-2.6-1.8s-2.1,0.7-2.6,1.8
			c-0.2,0-0.3,0-0.5,0c-1.3,0-2.3,1-2.5,2.1c-0.2,0-0.3,0-0.5,0c-1.5,0-2.8,1.3-2.8,2.8s1.3,2.8,2.8,2.8l0,0c0.3,1.2,1.3,2,2.5,2
			c1,0,1.8-0.5,2.1-1.3c0.7,1,1.8,1.8,3,1.8c1.5,0,2.6-0.8,3.3-2.1c0.5,0.3,1,0.5,1.6,0.5c1.8,0,3.3-1.5,3.3-3.3
			C39.2,17.4,37.7,15.9,35.9,15.9z"/>
	</g>
	<g>
		<g>
			<path class="st1" d="M42,19.9c2.3-2.5,2.1-7.4,0.8-9.2c-1.6-2.3-3.8-3.3-5.4-3.9c-1.6-0.8-3.8-1.5-5.9-1.8
				C29,4.6,26.3,5.6,24,6.2c-2.3,0.5-9.9,3-12.2,5.4c-1.3,1.5-1.6,3.3-1.5,4.9c0.3,1.8,1.2,3.5,1.5,3.9c1.3,1.6,5.9,3.1,7.9,4.1
				c1.8,0.8,3.5,0.8,4.9,1c1,0,3.9,0,6.7-0.5c2-0.3,3.9-2,4.8-2.3C37,22.2,40.2,21.7,42,19.9z"/>
			<path class="st2" d="M41.5,19.7c2.3-2.3,2.1-7.2,1-9c-1.6-2.3-3.8-3.1-5.3-3.9c-1.5-0.8-3.8-1.5-5.8-1.8
				c-2.5-0.3-5.1,0.7-7.2,1.3c-2.5,0.5-10,3.1-12.2,5.4c-1.3,1.3-1.6,3.1-1.3,4.8c0.2,1.8,1.2,3.5,1.5,3.8c1.3,1.5,5.8,3.1,7.7,4.1
				c1.8,0.8,3.5,0.7,4.8,0.8c1,0,3.9,0.2,6.6-0.5c2-0.5,3.8-2,4.8-2.5C36.7,21.9,39.8,21.5,41.5,19.7z"/>
			<path class="st3" d="M41.1,19.4c2.3-2.3,2.1-7.1,1-8.9c-1.6-2.3-3.6-3.1-5.1-3.8c-1.5-0.8-3.6-1.5-5.6-1.8
				c-2.3-0.3-4.9,0.7-7.1,1.2c-2.5,0.7-10,3.1-12.2,5.4c-1.5,1.5-1.6,3.3-1.5,4.9c0.3,1.8,1.2,3.3,1.6,3.8c1.3,1.3,5.6,3.1,7.4,3.9
				c1.8,0.8,3.3,0.7,4.6,0.7c1,0.2,3.8,0.3,6.6-0.3c2-0.5,3.8-2,4.6-2.5C36.5,21.5,39.3,21.2,41.1,19.4z"/>
			<path class="st4" d="M40.8,19.2c2.3-2.1,2.3-6.7,1-8.6c-1.6-2.3-3.6-3-5.1-3.8c-1.5-0.7-3.5-1.5-5.4-1.8
				c-2.1-0.3-4.8,0.7-6.9,1.3c-2.5,0.7-10,3.1-12.2,5.4c-1.3,1.2-1.6,3-1.3,4.6c0.3,1.6,1.3,3.1,1.6,3.6c1.3,1.3,5.3,3,7.2,3.8
				c1.8,0.8,3.3,0.5,4.6,0.7c1,0.2,3.6,0.3,6.6-0.2c2-0.5,3.6-2,4.4-2.5C36.2,21.4,39,21,40.8,19.2z"/>
			<path class="st5" d="M40.5,19.1c2.3-2.1,2.3-6.6,1-8.4c-1.6-2.3-3.5-3-4.9-3.6s-3.3-1.3-5.3-1.8c-2.3-0.3-4.6,0.7-6.9,1.2
				c-2.3,0.8-10,3.3-12.2,5.3C11,13,10.7,14.8,11,16.3c0.3,1.6,1.3,3.1,1.8,3.5c1.3,1.2,5.1,3,7.1,3.8c1.8,0.8,3.3,0.3,4.4,0.5
				c1,0.2,3.5,0.5,6.4-0.2c2-0.5,3.6-2,4.4-2.5C36,21,38.7,20.7,40.5,19.1z"/>
			<path class="st6" d="M40.2,18.9c2.3-2,2.3-6.4,1-8.1c-1.5-2.1-3.5-2.8-4.9-3.6c-1.5-0.7-3.1-1.3-5.1-1.8c-2.1-0.3-4.6,0.5-6.7,1
				C22.1,7,14.2,9.5,12.2,11.5C11,13,10.7,14.6,11,16.3c0.5,1.6,1.5,3,2.1,3.3c1.3,1.2,4.9,2.8,6.9,3.6c1.8,0.8,3.1,0.2,4.4,0.3
				c1,0.2,3.5,0.7,6.4,0c2-0.5,3.5-2.1,4.3-2.5C35.9,20.7,38.3,20.5,40.2,18.9z"/>
			<path class="st7" d="M39.8,18.7c2.1-2,2.3-6.1,1-7.9C39.3,8.7,37.5,8,36,7.4c-1.3-0.7-3-1.3-4.9-1.6c-2.1-0.5-4.4,0.3-6.6,1
				c-2.3,0.7-10.2,3.1-12,4.9c-1.3,1.3-1.6,3-1.3,4.4c0.3,1.6,1.5,2.8,2.1,3.3c1.3,1,4.6,2.8,6.6,3.6c1.8,0.7,3.1,0,4.3,0.2
				c1,0.2,3.3,0.8,6.3,0.2c2-0.5,3.5-2.1,4.1-2.5C35.6,20.4,38,20.4,39.8,18.7z"/>
			<path class="st8" d="M39.5,18.6c2.1-1.8,2.3-5.9,1.2-7.6c-1.5-2.1-3.3-2.6-4.8-3.5c-1.3-0.7-2.8-1.3-4.8-1.6
				c-2-0.5-4.3,0.3-6.4,1c-2.3,0.7-10.2,3.1-12,4.9c-1.3,1-1.6,2.8-1.3,4.3c0.5,1.6,1.6,2.6,2.3,3.1c1.3,1,4.4,2.6,6.4,3.5
				c1.6,0.7,3.1,0,4.1,0.2c1,0.2,3.1,1,6.3,0.2c2-0.5,3.3-2.1,4.1-2.5C35.4,20,37.7,20,39.5,18.6z"/>
			<path class="st9" d="M39,18.4c2.1-1.8,2.3-5.6,1.2-7.4c-1.5-2.1-3.1-2.6-4.6-3.3c-1.3-0.7-2.6-1.3-4.6-1.6
				c-2-0.5-4.1,0.3-6.3,0.8c-2.3,0.7-10.2,3.1-12,4.8c-1.3,1.2-1.6,3-1.2,4.3c0.5,1.6,1.6,2.6,2.3,3.1c1.2,0.8,4.3,2.6,6.3,3.3
				c1.6,0.7,3-0.2,4.1,0c1,0.2,3,1.2,6.1,0.3c2-0.5,3.3-2.1,3.9-2.6C35.1,19.7,37.4,19.9,39,18.4z"/>
			<path class="st10" d="M38.7,18.2c2.1-1.6,2.3-5.4,1.2-7.1C38.5,9,36.7,8.7,35.4,8c-1.3-0.7-2.6-1.3-4.4-1.6
				c-2-0.5-3.9,0.2-6.3,0.8s-10.2,3.1-12,4.6c-1.2,1-1.5,2.6-1,4.1s1.6,2.6,2.5,3c1,1,4.1,2.5,6.1,3.3c1.6,0.7,3-0.3,3.9-0.2
				c1,0.2,3,1.2,6.1,0.5c2-0.5,3.1-2.3,3.9-2.6C34.9,19.4,37,19.6,38.7,18.2z"/>
			<path class="st11" d="M38.3,18.1c2.1-1.6,2.3-5.3,1.2-6.9c-1.3-2.1-3-2.5-4.3-3.1c-1.2-0.7-2.5-1.2-4.4-1.6
				c-1.8-0.5-3.9,0.2-6.1,0.8c-2.3,0.7-10.4,3.1-11.8,4.6c-1.3,1-1.5,2.6-1.2,3.9c0.5,1.6,1.8,2.6,2.6,3c1,0.8,3.9,2.5,5.8,3.1
				c1.6,0.7,3-0.5,3.9-0.3c0.8,0.2,2.8,1.3,5.9,0.7c2-0.5,3.1-2.3,3.8-2.6C34.6,19.1,36.5,19.4,38.3,18.1z"/>
			<path class="st12" d="M38,17.9c2.1-1.5,2.3-4.9,1.2-6.6c-1.3-2-3-2.3-4.3-3c-1.2-0.5-2.3-1.2-4.3-1.6c-1.8-0.5-3.8,0.2-5.9,0.8
				C22.6,8,14.5,10.3,13,11.7c-1.3,1.2-1.6,2.8-1.2,4.1c0.5,1.5,1.8,2.5,2.6,2.6c1,0.8,3.6,2.5,5.6,3.1c1.6,0.5,2.8-0.7,3.8-0.3
				c0.8,0.2,2.6,1.5,5.9,0.7c2-0.5,3-2.3,3.6-2.6C34.4,18.7,36.2,19.2,38,17.9z"/>
			<path class="st13" d="M37.7,17.7c2-1.5,2.3-4.8,1.2-6.4c-1.3-2-2.8-2.3-4.3-3c-1.2-0.5-2.1-1.2-4.1-1.6c-1.8-0.5-3.6,0-5.8,0.7
				c-2,0.7-10.2,3.1-11.7,4.3c-1.3,1-1.5,2.8-1,4.1c0.5,1.5,2,2.3,2.8,2.6c1,0.7,3.5,2.3,5.4,3c1.6,0.5,2.8-0.7,3.6-0.5
				c0.8,0.2,2.5,1.6,5.8,0.8c2-0.5,3-2.3,3.6-2.6C34.1,18.4,35.9,18.9,37.7,17.7z"/>
			<path class="st14" d="M37.4,17.4c2-1.3,2.3-4.4,1.2-6.1c-1.2-2-2.8-2.3-4.1-2.8c-1.2-0.5-2-1.2-3.9-1.6c-1.6-0.5-3.5,0-5.6,0.7
				S14.5,10.7,13,11.7c-1.2,1-1.5,2.6-0.8,3.9c0.5,1.5,2,2.3,3,2.5c1,0.7,3.3,2.3,5.3,3c1.6,0.5,2.8-0.8,3.6-0.7s2.5,1.8,5.8,1
				c2-0.5,2.8-2.3,3.5-2.6C33.9,18.2,35.6,18.7,37.4,17.4z"/>
			<path class="st15" d="M37,17.2c1.8-1.3,2.3-4.3,1.2-5.9c-1.2-2-2.6-2.1-3.9-2.8c-1.2-0.5-1.8-1.2-3.8-1.6c-1.6-0.5-3.5,0-5.4,0.7
				c-2.1,0.7-10.4,3.1-11.7,4.1c-1.3,1-1.6,2.6-1,3.9c0.5,1.3,2,2,3,2.3c1,0.5,3,2.1,4.9,2.8c1.5,0.5,2.6-1,3.5-0.8s2.3,2,5.8,1
				c2-0.5,2.8-2.5,3.3-2.8C33.7,17.9,35.2,18.4,37,17.2z"/>
			<path class="st16" d="M36.5,17.1c2-1.2,2.3-4.1,1.3-5.8c-1.2-1.8-2.6-2.1-3.9-2.6c-1-0.5-1.6-1-3.6-1.6C28.6,6.6,27,6.9,25,7.5
				c-2.1,0.7-10.5,3.1-11.7,3.9c-1.3,1.2-1.5,2.8-1,3.9c0.7,1.3,2.1,1.8,3.1,2.3c1,0.3,2.8,2.1,4.8,2.6c1.5,0.5,2.6-1.2,3.5-0.8
				c0.8,0.2,2.1,2,5.6,1.2c2.1-0.5,2.8-2.5,3.3-2.8C33.4,17.6,34.9,18.2,36.5,17.1z"/>
			<path class="st17" d="M36.2,16.9c2-1.2,2.3-3.8,1.3-5.4c-1-1.8-2.5-2-3.8-2.6c-1-0.5-1.5-1-3.5-1.6C28.8,6.7,27.2,7,25,7.7
				c-2,0.8-10.4,3.1-11.5,3.9c-1.3,0.8-1.6,2.5-1,3.8c0.7,1.3,2.3,1.8,3.3,2.1c1,0.3,2.6,2,4.6,2.6c1.5,0.5,2.6-1.2,3.3-1
				c0.8,0.2,2,2.1,5.6,1.3c2.1-0.5,2.6-2.5,3.1-2.8C33.2,17.2,34.6,18.1,36.2,16.9z"/>
			<path class="st18" d="M35.9,16.8c1.8-1,2.3-3.6,1.3-5.3c-1-1.8-2.3-1.8-3.6-2.5c-1-0.5-1.3-1-3.3-1.5c-1.5-0.5-3-0.3-5.1,0.5
				c-2.1,0.7-10.5,3-11.7,3.6c-1.3,0.8-1.5,2.5-0.8,3.6c0.7,1.3,2.3,1.6,3.5,2c0.8,0.3,2.3,2,4.4,2.5c1.5,0.3,2.5-1.3,3.1-1.2
				c0.8,0.3,2,2.3,5.4,1.5c2.1-0.5,2.5-2.5,3-2.6C32.9,16.9,34.2,17.7,35.9,16.8z"/>
			<path class="st19" d="M35.6,16.6c1.8-1,2.3-3.5,1.5-4.9c-1-1.8-2.3-1.8-3.6-2.5c-1-0.5-1.3-1-3.1-1.5c-1.5-0.5-3-0.3-4.9,0.3
				c-2.1,0.7-10.5,3-11.5,3.6c-1.5,0.8-1.6,2.5-1,3.6c0.7,1.3,2.3,1.6,3.5,1.8c0.8,0.3,2.1,2,4.3,2.5c1.5,0.3,2.5-1.5,3.1-1.3
				c0.8,0.3,1.8,2.5,5.4,1.5c2.1-0.5,2.5-2.6,3-2.8C32.8,16.6,33.7,17.6,35.6,16.6z"/>
			<path class="st20" d="M35.2,16.4c1.8-1,2.3-3.1,1.5-4.8c-1-1.8-2.3-1.8-3.5-2.3c-1-0.3-1.2-0.8-3-1.5c-1.3-0.5-2.8-0.3-4.8,0.3
				c-2.1,0.7-10.7,3-11.5,3.5c-1.6,0.7-1.8,2.5-1.2,3.5c0.8,1.2,2.5,1.5,3.6,1.8c0.8,0.2,2,1.8,3.9,2.3c1.5,0.3,2.5-1.6,3-1.3
				c0.8,0.3,1.6,2.6,5.3,1.6c2.1-0.5,2.5-2.6,2.8-2.8C32.4,16.3,33.4,17.2,35.2,16.4z"/>
			<path class="st21" d="M34.9,16.3c1.8-0.8,2.3-3,1.5-4.4c-1-1.6-2.1-1.6-3.5-2.3c-1-0.3-1-0.8-3-1.5c-1.3-0.5-2.6-0.5-4.6,0.3
				c-2,0.7-10.7,3-11.5,3.3c-1.3,0.7-1.5,2.3-0.8,3.5c0.8,1.2,2.6,1.5,3.8,1.6c0.7,0.2,1.8,1.8,3.8,2.1c1.5,0.3,2.3-1.6,3-1.5
				c0.8,0.3,1.5,2.6,5.3,1.8c2.1-0.5,2.3-2.6,2.8-2.8C32.3,15.9,33.1,17.1,34.9,16.3z"/>
			<path class="st22" d="M34.4,16.1c1.8-0.8,2.3-2.6,1.5-4.3c-1-1.6-2.1-1.6-3.3-2.1c-0.8-0.3-0.8-0.8-2.8-1.5
				c-1.3-0.5-2.5-0.5-4.4,0.3c-2,0.7-10.7,3-11.5,3.3c-1.3,0.5-1.5,2.1-0.7,3.3c0.8,1.2,2.6,1.3,3.9,1.5c0.7,0,1.5,1.6,3.5,2.1
				c1.3,0.3,2.3-1.8,2.8-1.6c0.7,0.3,1.5,2.8,5.1,1.8c2.1-0.5,2.3-2.6,2.6-3C31.9,15.6,32.8,16.8,34.4,16.1z"/>
		</g>
		<path class="st28" d="M33.1,9.2c-0.2,0-0.3,0-0.5,0c-0.5-1.6-2.1-2.8-3.9-2.8c-0.8,0-1.6,0.3-2.3,0.7c-0.5-1.3-1.6-2.1-3.1-2.1
			c-1.6,0-3,1.2-3.1,2.6c-0.5-0.3-1-0.5-1.6-0.5c-1.3,0-2.5,1-2.6,2.3l0,0c-2.1,0-3.9,1.6-3.9,3.8s1.8,3.8,3.8,3.8
			c0.7,0,1.3-0.2,1.8-0.5c0.2,1.3,1.3,2.3,2.8,2.3c1.2,0,2-0.7,2.5-1.6c0.8,1.3,2.3,2.1,3.9,2.1c2.1,0,3.9-1.3,4.4-3.3
			c0.5,0.3,1.2,0.5,1.6,0.5c2,0,3.8-1.6,3.8-3.8C36.7,10.8,35.1,9.2,33.1,9.2z"/>
		<path class="st35" d="M33.1,9.2c-0.2,0-0.3,0-0.5,0c-0.5-1.6-2.1-2.8-3.9-2.8c-0.8,0-1.6,0.3-2.3,0.7c-0.5-1.3-1.6-2.1-3.1-2.1
			c-1.6,0-3,1.2-3.1,2.6c-0.5-0.3-1-0.5-1.6-0.5c-1.3,0-2.5,1-2.6,2.3l0,0c-2.1,0-3.8,1.8-3.8,3.8c0,2.1,1.8,3.8,3.8,3.8
			c0.7,0,1.3-0.2,1.8-0.5c0.2,1.3,1.3,2.3,2.8,2.3c1.2,0,2-0.7,2.5-1.6c1,1.6,2.5,2.5,4.1,2.5c2.1,0,3.9-1.3,4.4-3.3
			c0.5,0.3,1.2,0.5,1.6,0.5c2,0,3.8-1.6,3.8-3.8S35.2,9.2,33.1,9.2z"/>
	</g>
	<g>
		<g>
			<path class="st1" d="M27.2,25c1.2-1.8,0.7-5.1-0.2-6.3c-1.2-1.5-2.6-2.1-3.6-2.8c-1-0.5-3.3-1.5-4.6-1.5c-1.8,0-2.8,0.7-4.3,1.2
				c-1.6,0.3-4.3,2.8-5.8,4.4c-1.8,2-1.3,4.8-0.8,5.3c0.8,1,1.8,2.1,3.1,2.6c1.2,0.7,2.3,0.5,3.1,0.7c0.7,0,1.5,0.3,3.3,0
				c1.3-0.3,1.8-0.3,2.5-0.5C21.2,27.8,25.7,27.1,27.2,25z"/>
			<path class="st2" d="M26.8,24.8c1.2-1.8,0.7-4.9-0.2-6.1c-1.2-1.5-2.6-2.1-3.6-2.6c-0.8-0.5-3.1-1.5-4.4-1.5
				c-1.8,0-2.8,0.7-4.3,1c-1.5,0.5-4.1,3-5.6,4.4c-1.6,1.8-1.3,4.6-0.8,5.3c0.8,1,1.8,2,3.1,2.6c1.2,0.5,2.3,0.5,3.1,0.5
				c0.7,0,1.5,0.3,3.3,0c1.3-0.3,1.8-0.3,2.5-0.5C21.2,27.6,25.4,27,26.8,24.8z"/>
			<path class="st3" d="M26.7,24.8c1.2-1.6,0.8-4.8,0-5.9c-1.2-1.5-2.6-2.1-3.6-2.6c-1-0.5-3.1-1.5-4.4-1.5c-1.8,0-2.8,0.7-4.1,1
				c-1.6,0.3-4.3,2.8-5.6,4.3c-1.6,1.8-1.3,4.4-0.8,5.1c0.8,1,1.6,2,3,2.5c1.2,0.5,2.3,0.5,3.1,0.5c0.7,0,1.5,0.3,3.3,0
				c1.3-0.3,2-0.3,2.5-0.5C21.1,27.3,25.2,26.8,26.7,24.8z"/>
			<path class="st4" d="M26.3,24.7c1.2-1.6,0.8-4.6,0-5.9c-1-1.5-2.6-2.1-3.6-2.6c-1-0.5-3-1.5-4.3-1.5c-1.6,0-2.8,0.5-4.1,1
				c-1.6,0.5-4.1,2.8-5.4,4.3c-1.5,1.6-1.5,4.3-1,4.9c0.8,1,1.6,2,3,2.5s2.1,0.3,3,0.5c0.7,0,1.5,0.3,3.3,0c1.3-0.3,2-0.3,2.5-0.5
				C21.1,27.1,24.9,26.6,26.3,24.7z"/>
			<path class="st5" d="M26.2,24.7c1.2-1.6,1-4.4,0.2-5.8c-1-1.5-2.5-2.1-3.5-2.6c-1.2-0.3-3.1-1.3-4.4-1.3c-1.6,0-2.6,0.5-4.1,0.8
				c-1.5,0.5-3.9,2.8-5.3,4.3c-1.5,1.6-1.5,4.3-1,4.9c0.7,1,1.6,1.8,3,2.3c1.3,0.5,2.1,0.3,3,0.3c0.7,0,1.5,0.3,3.3,0
				c1.3-0.3,2-0.5,2.5-0.5C21.1,27,24.7,26.5,26.2,24.7z"/>
			<path class="st6" d="M25.8,24.5c1.2-1.5,1-4.3,0.2-5.6c-1-1.5-2.5-2-3.5-2.5c-1-0.5-2.8-1.5-4.1-1.5c-1.6,0-2.6,0.5-4.1,0.8
				c-1.5,0.5-3.9,3-5.1,4.3c-1.5,1.5-1.5,4.1-1,4.8c0.7,0.8,1.5,1.8,2.8,2.3s2.1,0.2,3,0.3c0.7,0,1.5,0.3,3.3,0
				c1.3-0.3,2-0.5,2.5-0.5C20.9,26.6,24.5,26.3,25.8,24.5z"/>
			<path class="st7" d="M25.7,24.5c1.2-1.5,1.2-4.1,0.3-5.4c-1-1.5-2.5-2-3.5-2.5c-1-0.3-3-1.5-4.1-1.5c-1.6-0.2-2.8,0.5-4.1,0.8
				c-1.5,0.5-3.9,2.8-5.1,3.9c-1.3,1.5-1.6,3.9-1,4.6c0.7,0.8,1.5,1.8,2.8,2.1c1.3,0.5,2.1,0.2,3,0.3c0.7,0.2,1.5,0.3,3.3,0
				c1.3-0.3,2-0.5,2.5-0.5C20.9,26.5,24.2,26.1,25.7,24.5z"/>
			<path class="st8" d="M25.4,24.3c1.2-1.3,1.2-3.9,0.3-5.3c-1-1.6-2.5-2-3.5-2.5c-0.8-0.5-2.6-1.5-3.9-1.6c-1.5,0.2-2.6,0.7-3.9,1
				c-1.5,0.5-3.8,2.8-4.9,3.9c-1.3,1.5-1.6,3.8-1,4.6c0.7,0.8,1.5,1.8,2.8,2.1c1.3,0.3,2.1,0.2,2.8,0.2c0.7,0.2,1.5,0.3,3.3,0
				c1.3-0.3,2-0.5,2.5-0.5C20.7,26.3,24,26,25.4,24.3z"/>
			<path class="st9" d="M25,24.3c1.2-1.3,1.2-3.8,0.5-5.1c-1-1.6-2.5-2-3.5-2.3c-0.8-0.3-2.6-1.5-3.8-1.6c-1.5,0-2.6,0.3-3.9,0.8
				c-1.6,0.3-3.8,2.6-4.9,3.8c-1.3,1.3-1.6,3.6-1,4.4c0.7,0.8,1.3,1.6,2.6,2.1c1.3,0.3,2.1,0,2.8,0.2s1.5,0.3,3.3,0
				c1.3-0.2,2-0.5,2.5-0.5C20.7,26,23.7,25.8,25,24.3z"/>
			<path class="st10" d="M24.9,24.3c1.2-1.3,1.3-3.6,0.5-4.9c-1-1.6-2.5-1.8-3.5-2.3c-0.8-0.3-2.5-1.5-3.8-1.6
				c-1.3-0.2-2.5,0.3-3.9,0.7c-1.5,0.5-3.6,2.6-4.6,3.8c-1.2,1.3-1.6,3.5-1,4.3s1.3,1.6,2.6,2c1.3,0.3,2.1,0,2.8,0.2
				c0.7,0.2,1.5,0.3,3.3,0c1.3-0.2,2-0.5,2.5-0.5C20.6,25.8,23.5,25.6,24.9,24.3z"/>
			<path class="st11" d="M24.5,24.2c1.2-1.2,1.3-3.5,0.7-4.8c-1-1.6-2.5-1.8-3.5-2.3c-0.8-0.3-2.5-1.5-3.6-1.6
				c-1.3,0-2.6,0.3-3.9,0.7c-1.5,0.5-3.6,2.8-4.6,3.8c-1.2,1.2-1.6,3.3-1,4.3c0.7,0.7,1.3,1.6,2.6,2c1.3,0.3,2.1,0,2.8,0
				c0.7,0.2,1.5,0.3,3.1,0c1.3-0.2,2-0.5,2.5-0.5C20.6,25.6,23.2,25.5,24.5,24.2z"/>
			<path class="st12" d="M24.4,24.2c1.2-1.2,1.5-3.3,0.7-4.6c-0.8-1.6-2.5-1.8-3.5-2.3c-0.8-0.3-2.3-1.5-3.5-1.6
				c-1.3-0.2-2.6,0.2-3.9,0.7c-1.5,0.3-3.6,2.6-4.4,3.6C8.6,21,7.9,23,8.6,24c0.5,0.7,1.3,1.5,2.5,1.8c1.3,0.3,2.1-0.2,2.6,0
				c0.7,0.2,1.5,0.3,3.1,0c1.3-0.2,2.1-0.5,2.5-0.5C20.6,25.3,23,25.3,24.4,24.2z"/>
			<path class="st13" d="M24,24c1.2-1.2,1.5-3.1,0.8-4.4c-0.8-1.6-2.5-1.8-3.5-2.1c-0.8-0.3-2.3-1.5-3.5-1.6
				c-1.2-0.2-2.5,0.2-3.8,0.5c-1.5,0.5-3.5,2.6-4.4,3.6s-1.8,3-1,3.9c0.5,0.7,1.2,1.5,2.5,1.8c1.3,0.3,2.1-0.2,2.6,0
				s1.5,0.3,3.1,0.2c1.3-0.2,2.1-0.5,2.5-0.5C20.4,25.1,22.7,25.1,24,24z"/>
			<path class="st14" d="M23.9,24c1.2-1,1.6-3,0.8-4.3c-0.8-1.6-2.5-1.8-3.3-2.1c-0.7-0.3-2.1-1.5-3.3-1.6c-1.3-0.3-2.6,0-3.9,0.5
				c-1.5,0.3-3.5,2.5-4.3,3.3c-1,1-1.8,3-1.2,3.9c0.5,0.7,1.2,1.5,2.5,1.6c1.3,0.2,2-0.2,2.6-0.2c0.5,0.2,1.5,0.3,3.1,0.2
				c1.3-0.2,2.1-0.5,2.5-0.5C20.4,25,22.6,25,23.9,24z"/>
			<path class="st15" d="M23.5,23.8c1.2-1,1.6-2.8,1-4.1c-0.8-1.6-2.5-1.6-3.3-2.1c-0.7-0.3-2.1-1.5-3.3-1.6
				c-1.2-0.2-2.6,0.2-3.8,0.5c-1.5,0.5-3.3,2.6-4.1,3.3c-0.8,1-2,2.8-1.2,3.8c0.5,0.7,1.2,1.3,2.5,1.6c1.3,0.2,2-0.3,2.6-0.2
				c0.5,0.2,1.3,0.3,3.1,0.2c1.3-0.2,2.1-0.5,2.5-0.5C20.3,24.7,22.4,24.8,23.5,23.8z"/>
			<path class="st16" d="M23.4,23.8c1.2-0.8,1.6-2.6,1-3.9c-0.8-1.6-2.5-1.6-3.3-2.1c-0.7-0.3-2-1.5-3.1-1.8c-1.2-0.2-2.6,0-3.8,0.5
				c-1.5,0.5-3.3,2.5-3.9,3.3c-0.8,0.8-2,2.6-1.2,3.6c0.5,0.5,1,1.3,2.3,1.5c1.3,0.2,2-0.3,2.5-0.2s1.3,0.3,3.1,0.2
				c1.3-0.2,2.1-0.5,2.5-0.5C20.3,24.5,22.1,24.8,23.4,23.8z"/>
			<path class="st17" d="M23,23.7c1.2-0.8,1.8-2.5,1.2-3.8c-0.8-1.6-2.5-1.6-3.3-2c-0.7-0.3-2-1.5-3-1.8c-1.2-0.2-2.6,0-3.8,0.3
				c-1.5,0.5-3.3,2.6-3.9,3.3c-0.8,0.8-2,2.6-1.2,3.6c0.5,0.5,1,1.3,2.3,1.5c1.3,0.2,2-0.3,2.5-0.3c0.5,0.2,1.3,0.3,3.1,0.2
				c1.3-0.2,2.1-0.5,2.5-0.5C20.1,24.3,21.9,24.7,23,23.7z"/>
			<path class="st18" d="M22.9,23.7c1.2-0.8,1.8-2.1,1.2-3.6c-0.8-1.6-2.5-1.6-3.3-2c-0.7-0.3-1.8-1.6-3-1.8c-1-0.2-2.5,0-3.8,0.3
				c-1.5,0.5-3.1,2.5-3.8,3.1c-0.7,0.7-2.1,2.5-1.2,3.5c0.3,0.5,1,1.3,2.3,1.3c1.3,0.2,2-0.5,2.5-0.3s1.3,0.3,3.1,0.2
				c1.5-0.2,2.1-0.5,2.5-0.5C20.1,24,21.6,24.5,22.9,23.7z"/>
			<path class="st19" d="M22.6,23.5c1.2-0.7,2-2,1.3-3.5c-0.8-1.6-2.5-1.5-3.3-2c-0.7-0.3-1.8-1.6-2.8-1.8c-1-0.2-2.6,0-3.8,0.3
				c-1.5,0.5-3.1,2.5-3.6,3.1C9.7,20.4,8.2,22,9.2,23c0.3,0.5,0.8,1.2,2.1,1.3s2-0.5,2.3-0.3c0.5,0.2,1.3,0.3,3.1,0.2
				c1.5-0.2,2.1-0.5,2.5-0.5C20.1,23.8,21.4,24.3,22.6,23.5z"/>
			<path class="st20" d="M22.4,23.5c1.2-0.7,2-1.8,1.3-3.3c-0.8-1.6-2.5-1.5-3.3-2c-0.7-0.3-1.8-1.6-2.8-1.8c-0.8-0.2-2.5,0-3.6,0.3
				c-1.5,0.3-3.1,2.3-3.6,2.8c-0.7,0.5-2.1,2.1-1.2,3.3c0.3,0.5,0.8,1.2,2.1,1.2c1.3,0.2,2-0.5,2.3-0.5c0.5,0.2,1.3,0.3,3.1,0.2
				c1.5-0.2,2.1-0.7,2.5-0.5C19.9,23.7,21.1,24.2,22.4,23.5z"/>
			<path class="st21" d="M22.1,23.3c1.2-0.7,2.1-1.6,1.5-3.1c-0.7-1.6-2.5-1.5-3.3-1.8c-0.7-0.3-1.6-1.6-2.6-1.8
				c-0.8-0.3-2.5-0.2-3.8,0.2c-1.3,0.5-2.8,2.5-3.3,2.8c-0.5,0.5-2.1,2-1.2,3.1c0.3,0.3,0.8,1.2,2.1,1.2s2-0.7,2.3-0.5
				c0.5,0.2,1.3,0.3,3.1,0.2c1.5-0.2,2.3-0.7,2.5-0.5C19.9,23.3,20.9,24,22.1,23.3z"/>
			<path class="st22" d="M21.9,23.3c1.2-0.5,2.1-1.5,1.5-3c-0.7-1.6-2.5-1.5-3.1-1.8c-0.5-0.2-1.6-1.6-2.6-1.8c-1-0.3-2.6-0.3-3.8,0
				c-1.3,0.5-2.8,2.5-3.3,2.8c-0.3,0.5-2.1,1.8-1.2,3.1c0.3,0.3,0.7,1,2,1c1.5,0,2-0.7,2.3-0.5c0.5,0.2,1.3,0.3,3.1,0.2
				c1.5-0.2,2.3-0.7,2.5-0.5C19.8,23.2,20.7,23.8,21.9,23.3z"/>
		</g>
		<path class="st28" d="M20.9,18.2c-0.3,0-0.7,0-1,0.2c-0.3-2-2-3.5-4.1-3.5c-1.8-0.2-3.6,1.2-4.1,2.8l0,0c-1.8,0-3.1,1.3-3.3,3
			c-0.2,1.6,1.2,3.1,2.8,3.1c0.8,0,1.6-0.3,2.3-0.8c0.7,0.3,1.3,0.5,2,0.7c1.3,0,2.5-0.5,3.3-1.3c0.5,0.5,1.2,1,1.8,1
			c1.3,0,2.6-1,2.6-2.5C23.4,19.6,22.4,18.4,20.9,18.2z"/>
		<path class="st36" d="M21.1,18.4c-0.3,0-0.7,0-1,0.2c-0.3-2-2-3.5-4.1-3.5c-1.8-0.2-3.6,1-4.3,2.8l0,0c-1.6,0-3.1,1.2-3.1,3
			C8.4,22.5,9.7,24,11.4,24c0.8,0,1.6-0.3,2.3-0.8c0.7,0.3,1.3,0.5,2,0.7c1.3,0,2.5-0.5,3.3-1.3c0.5,0.5,1.2,1,1.8,1
			c1.3,0,2.6-1,2.6-2.5C23.5,19.7,22.4,18.4,21.1,18.4z"/>
	</g>
	<g>
		<g>
			<g>
				<path class="st1" d="M31.3,35c0-1.2,1.3-3.5,2.3-3.6c1.2,0,3.3,2.3,3.1,3.8c-0.2,2-2.5,2.3-3.6,2C31.8,36.8,31.3,35.5,31.3,35z"
					/>
				<path class="st37" d="M33.6,31.4c1,0,3.1,2.3,3,3.8c-0.2,1.8-2.5,2.3-3.6,1.8c-1.2-0.3-1.6-1.5-1.6-2.1
					C31.3,33.9,32.6,31.6,33.6,31.4z"/>
				<path class="st38" d="M33.6,31.4c1,0,3.1,2.1,3,3.8c-0.2,1.8-2.5,2.1-3.5,1.8c-1.2-0.3-1.6-1.5-1.6-2.1
					C31.3,33.9,32.6,31.6,33.6,31.4z"/>
				<path class="st39" d="M33.6,31.6c1,0,3,2.1,2.8,3.6c-0.2,1.8-2.3,2.1-3.5,1.8c-1.2-0.3-1.6-1.5-1.6-2.1
					C31.3,33.9,32.6,31.6,33.6,31.6z"/>
				<path class="st40" d="M33.4,31.6c1,0,3,2.1,2.8,3.6c-0.2,1.6-2.3,2.1-3.3,1.8c-1.2-0.3-1.5-1.5-1.6-2
					C31.3,33.9,32.6,31.6,33.4,31.6z"/>
				<path class="st41" d="M33.4,31.6c1,0,2.8,2.1,2.6,3.5c-0.2,1.6-2.1,2-3.1,1.8c-1.2-0.3-1.5-1.5-1.5-2
					C31.4,33.9,32.6,31.7,33.4,31.6z"/>
				<path class="st42" d="M33.4,31.6c1,0,2.8,2,2.6,3.5c-0.2,1.6-2.1,2-3.1,1.6c-1.2-0.3-1.5-1.3-1.5-2
					C31.4,33.9,32.6,31.7,33.4,31.6z"/>
				<path class="st43" d="M33.4,31.7c0.8,0,2.8,2,2.6,3.5c-0.2,1.6-2,2-3,1.6s-1.5-1.3-1.5-2C31.4,33.9,32.6,31.7,33.4,31.7z"/>
				<path class="st44" d="M33.4,31.7c0.8,0,2.6,2,2.5,3.3c-0.2,1.5-2,2-3,1.6c-1-0.3-1.5-1.3-1.5-1.8C31.4,33.9,32.6,31.7,33.4,31.7
					z"/>
				<path class="st45" d="M33.4,31.7c0.8,0,2.6,2,2.5,3.3c-0.2,1.5-2,1.8-2.8,1.6c-1-0.3-1.5-1.3-1.5-1.8
					C31.4,33.9,32.6,31.9,33.4,31.7z"/>
				<path class="st46" d="M33.4,31.7c0.8,0,2.5,2,2.3,3.1c-0.2,1.5-1.8,1.8-2.8,1.5c-1-0.3-1.3-1.3-1.5-1.8
					C31.6,33.9,32.6,31.9,33.4,31.7z"/>
				<path class="st47" d="M33.4,31.9c0.8,0,2.5,1.8,2.3,3.1c-0.2,1.5-1.8,1.8-2.6,1.5c-1-0.3-1.3-1.2-1.3-1.6
					C31.6,33.9,32.6,31.9,33.4,31.9z"/>
				<path class="st48" d="M33.2,31.9c0.8,0,2.3,1.8,2.1,3.1s-1.6,1.6-2.6,1.5c-1-0.2-1.3-1.2-1.3-1.6C31.6,33.9,32.6,31.9,33.2,31.9
					z"/>
				<path class="st49" d="M33.2,31.9c0.7,0,2.3,1.8,2.1,3c-0.2,1.3-1.6,1.6-2.5,1.5c-1-0.2-1.3-1.2-1.3-1.6
					C31.6,33.9,32.6,31.9,33.2,31.9z"/>
				<path class="st50" d="M33.2,31.9c0.7,0,2.1,1.8,2,3c-0.2,1.3-1.5,1.6-2.3,1.5c-1-0.2-1.3-1.2-1.3-1.6
					C31.6,33.9,32.6,32.1,33.2,31.9z"/>
				<path class="st51" d="M33.2,32.1c0.7,0,2.1,1.6,2,2.8c-0.2,1.2-1.5,1.6-2.3,1.3c-1-0.2-1.3-1.2-1.3-1.5
					C31.6,33.9,32.6,32.1,33.2,32.1z"/>
				<path class="st52" d="M33.2,32.1c0.7,0,2,1.6,2,2.8c-0.2,1.2-1.5,1.5-2.1,1.3c-0.8-0.2-1.2-1-1.2-1.5
					C31.8,33.9,32.6,32.1,33.2,32.1z"/>
				<path class="st53" d="M33.2,32.1c0.7,0,2,1.6,1.8,2.6c-0.2,1.2-1.3,1.5-2.1,1.3c-0.8-0.2-1.2-1-1.2-1.5S32.6,32.1,33.2,32.1z"/>
				<path class="st54" d="M33.2,32.1c0.7,0,1.8,1.6,1.8,2.6c-0.2,1.2-1.3,1.5-2,1.3c-0.8-0.2-1.2-1-1.2-1.5
					C31.8,34,32.6,32.2,33.2,32.1z"/>
				<path class="st55" d="M33.2,32.2c0.5,0,1.8,1.5,1.6,2.6c-0.2,1-1.2,1.3-2,1.3c-0.8-0.2-1.2-1-1.2-1.3
					C31.8,34,32.6,32.2,33.2,32.2z"/>
				<path class="st56" d="M33.1,32.2c0.5,0,1.6,1.5,1.6,2.5c-0.2,1-1.2,1.3-1.8,1.2c-0.8-0.2-1.2-1-1.2-1.3
					C31.8,34,32.6,32.2,33.1,32.2z"/>
				<path class="st57" d="M33.1,32.2c0.5,0,1.6,1.5,1.5,2.5c-0.2,1-1,1.3-1.8,1.2c-0.8-0.2-1-1-1.2-1.3C31.9,34,32.6,32.2,33.1,32.2
					z"/>
				<path class="st58" d="M33.1,32.4c0.5,0,1.5,1.5,1.5,2.3c-0.2,0.8-1,1.3-1.6,1.2c-0.8-0.2-1-0.8-1-1.2
					C31.9,34,32.6,32.4,33.1,32.4z"/>
				<path class="st59" d="M33.1,32.4c0.5,0,1.5,1.5,1.3,2.3c-0.2,0.8-1,1.2-1.5,1.2c-0.8-0.2-1-0.8-1-1.2
					C31.9,34,32.6,32.4,33.1,32.4z"/>
				<path class="st60" d="M33.1,32.4c0.5,0,1.5,1.3,1.3,2.3c0,0.8-0.8,1.2-1.5,1.2c-0.8-0.2-1-0.8-1-1.2
					C31.9,34,32.6,32.4,33.1,32.4z"/>
				<path class="st61" d="M33.1,32.4c0.3,0,1.3,1.3,1.3,2.1c0,0.8-0.8,1.2-1.3,1c-0.8,0-1-0.8-1-1.2C31.9,34,32.6,32.4,33.1,32.4z"
					/>
				<path class="st62" d="M33.1,32.5c0.3,0,1.3,1.3,1.2,2.1c0,0.7-0.7,1-1.3,1s-1-0.8-1-1C31.9,34,32.6,32.5,33.1,32.5z"/>
				<path class="st63" d="M33.1,32.5c0.3,0,1.2,1.3,1.2,2s-0.7,1-1.2,1c-0.7,0-0.8-0.7-0.8-1C32.1,34,32.8,32.5,33.1,32.5z"/>
				<path class="st64" d="M32.9,32.5c0.3,0,1.2,1.2,1,2c0,0.7-0.5,1-1.2,1c-0.7,0-0.8-0.7-0.8-1C32.1,34,32.8,32.5,32.9,32.5z"/>
				<path class="st65" d="M32.9,32.5c0.3,0,1,1.2,1,2c0,0.5-0.5,1-1,0.8c-0.7,0-0.8-0.7-0.8-1C32.1,34,32.8,32.5,32.9,32.5z"/>
				<path class="st66" d="M32.9,32.7c0.3,0,1,1.2,0.8,1.8c0,0.5-0.3,0.8-0.8,0.8c-0.7,0-0.8-0.7-0.8-0.8
					C32.1,34,32.8,32.7,32.9,32.7z"/>
				<path class="st67" d="M32.9,32.7c0.2,0,0.8,1.2,0.8,1.8c0,0.5-0.3,0.8-0.8,0.8c-0.7,0-0.8-0.7-0.8-0.8
					C32.1,34,32.8,32.7,32.9,32.7z"/>
			</g>
			<path class="st68" d="M33.7,34.2c0,0.7-0.7,1.3-1.3,1.3c-0.7,0-1.3-0.7-1.3-1.3c0-1.3,1.3-3,1.3-3h0.2c0,0,0,0,0,0.2
				C32.8,31.7,33.7,33.2,33.7,34.2z"/>
			<path class="st69" d="M33.9,34.2c0,0.7-0.7,1.3-1.3,1.3c-0.7,0-1.3-0.7-1.3-1.3c0-1.2,1.3-3,1.3-3S33.9,33,33.9,34.2z"/>
		</g>
		<g>
			<g>
				<path class="st1" d="M36.4,29.9c0-0.8,1-2.6,1.6-2.6c0.8,0,2.5,1.6,2.3,3c-0.2,1.5-2,1.6-2.8,1.5C36.7,31.4,36.4,30.4,36.4,29.9
					z"/>
				<path class="st37" d="M38,27.4c0.8,0,2.3,1.6,2.3,2.8c-0.2,1.3-1.8,1.6-2.6,1.5c-0.8-0.3-1.2-1.2-1.3-1.6
					C36.4,29.1,37.4,27.4,38,27.4z"/>
				<path class="st38" d="M38,27.4c0.8,0,2.3,1.6,2.1,2.8c-0.2,1.3-1.8,1.6-2.6,1.3c-0.8-0.3-1.2-1.2-1.2-1.6
					C36.4,29.3,37.4,27.4,38,27.4z"/>
				<path class="st39" d="M38,27.4c0.7,0,2.3,1.6,2.1,2.8c-0.2,1.3-1.8,1.6-2.5,1.3c-0.8-0.3-1.2-1.2-1.2-1.5
					C36.4,29.3,37.4,27.4,38,27.4z"/>
				<path class="st40" d="M38,27.4c0.7,0,2.1,1.6,2.1,2.6c-0.2,1.3-1.6,1.5-2.5,1.3c-0.8-0.3-1.2-1.2-1.2-1.5
					C36.4,29.3,37.4,27.4,38,27.4z"/>
				<path class="st41" d="M38,27.4c0.7,0,2.1,1.5,2,2.6c-0.2,1.3-1.6,1.5-2.5,1.3s-1.2-1-1.2-1.5C36.4,29.3,37.4,27.6,38,27.4z"/>
				<path class="st42" d="M37.9,27.4c0.7,0,2.1,1.5,2,2.6s-1.6,1.5-2.3,1.3c-0.8-0.2-1.2-1-1.2-1.5C36.4,29.3,37.4,27.6,37.9,27.4z"
					/>
				<path class="st43" d="M37.9,27.6c0.7,0,2,1.5,2,2.5c-0.2,1.2-1.5,1.5-2.3,1.3c-0.8-0.3-1-1.2-1-1.5
					C36.4,29.3,37.4,27.6,37.9,27.6z"/>
				<path class="st44" d="M37.9,27.6c0.7,0,2,1.5,1.8,2.5c-0.2,1.2-1.5,1.5-2.1,1.2c-0.7-0.2-1-1-1-1.3
					C36.4,29.3,37.4,27.6,37.9,27.6z"/>
				<path class="st45" d="M37.9,27.6c0.7,0,2,1.5,1.8,2.5c-0.2,1.2-1.5,1.3-2.1,1.2c-0.7-0.2-1-1-1-1.3
					C36.5,29.3,37.4,27.6,37.9,27.6z"/>
				<path class="st46" d="M37.9,27.6c0.7,0,1.8,1.5,1.8,2.3c-0.2,1.2-1.3,1.3-2,1.2c-0.8,0-1.2-0.8-1.2-1.2
					C36.5,29.3,37.4,27.6,37.9,27.6z"/>
				<path class="st47" d="M37.9,27.6c0.7,0,1.8,1.3,1.6,2.3c0,1.2-1.3,1.5-2,1.2c-0.7-0.2-1-1-1-1.3C36.5,29.3,37.4,27.8,37.9,27.6z
					"/>
				<path class="st48" d="M37.9,27.8c0.5,0,1.8,1.3,1.6,2.3c-0.2,1-1.3,1.2-2,1s-1-0.8-1-1.3S37.4,27.8,37.9,27.8z"/>
				<path class="st49" d="M37.9,27.8c0.5,0,1.6,1.3,1.6,2.3c-0.2,1-1.2,1.3-1.8,1.2c-0.7-0.2-1-0.8-1-1.2
					C36.5,29.3,37.4,27.8,37.9,27.8z"/>
				<path class="st50" d="M37.9,27.8c0.5,0,1.6,1.3,1.5,2.1c-0.2,1-1.2,1.2-1.8,1c-0.7-0.2-1-0.8-1-1.2
					C36.5,29.3,37.4,27.8,37.9,27.8z"/>
				<path class="st51" d="M37.9,27.8c0.5,0,1.6,1.3,1.5,2.1c-0.2,1-1.2,1.2-1.6,1c-0.7-0.2-1-0.8-1-1.2
					C36.5,29.3,37.4,27.8,37.9,27.8z"/>
				<path class="st52" d="M37.9,27.8c0.5,0,1.5,1.3,1.5,2.1c-0.2,0.8-1,1.2-1.6,1c-0.7-0.2-0.8-0.8-1-1.2
					C36.7,29.3,37.4,27.8,37.9,27.8z"/>
				<path class="st53" d="M37.7,27.9c0.5,0,1.5,1.2,1.3,2s-1,1.2-1.6,1c-0.7-0.2-0.8-0.8-0.8-1.2C36.7,29.3,37.4,27.9,37.7,27.9z"/>
				<path class="st54" d="M37.7,27.9c0.5,0,1.3,1.2,1.3,2c-0.2,0.8-1,1-1.5,1c-0.7-0.2-0.8-0.8-0.8-1C36.7,29.3,37.4,27.9,37.7,27.9
					z"/>
				<path class="st55" d="M37.7,27.9c0.5,0,1.3,1.2,1.3,2s-0.8,1-1.5,1c-0.7-0.2-0.8-0.7-0.8-1C36.7,29.3,37.4,27.9,37.7,27.9z"/>
				<path class="st56" d="M37.7,27.9c0.3,0,1.3,1.2,1.2,1.8c0,0.7-0.8,1-1.3,1c-0.7-0.2-0.8-0.7-0.8-1
					C36.7,29.3,37.4,27.9,37.7,27.9z"/>
				<path class="st57" d="M37.7,27.9c0.3,0,1.2,1.2,1.2,1.8c0,0.7-0.8,1-1.3,0.8c-0.7-0.2-0.8-0.7-0.8-1
					C36.7,29.3,37.4,27.9,37.7,27.9z"/>
				<path class="st58" d="M37.7,27.9c0.3,0,1.2,1.2,1.2,1.8c0,0.7-0.7,1-1.2,0.8c-0.7-0.2-0.8-0.7-0.8-1
					C36.7,29.3,37.4,28.1,37.7,27.9z"/>
				<path class="st59" d="M37.7,28.1c0.3,0,1.2,1,1,1.6c0,0.7-0.7,0.8-1.2,0.8c-0.7,0-0.8-0.7-0.8-0.8
					C36.9,29.3,37.4,28.1,37.7,28.1z"/>
				<path class="st60" d="M37.7,28.1c0.3,0,1,1,1,1.6s-0.7,0.8-1.2,0.8c-0.5,0-0.7-0.7-0.7-0.8C36.9,29.3,37.4,28.1,37.7,28.1z"/>
				<path class="st61" d="M37.7,28.1c0.3,0,1,1,1,1.6c0,0.5-0.5,0.8-1,0.8c-0.5,0-0.7-0.7-0.7-0.8C36.9,29.3,37.4,28.1,37.7,28.1z"
					/>
				<path class="st62" d="M37.7,28.1c0.3,0,1,1,0.8,1.6c0,0.5-0.5,0.8-1,0.8c-0.5,0-0.7-0.5-0.7-0.8C36.9,29.3,37.4,28.1,37.7,28.1z
					"/>
				<path class="st63" d="M37.7,28.1c0.3,0,0.8,1,0.8,1.5s-0.5,0.8-0.8,0.7c-0.5,0-0.7-0.5-0.7-0.8C36.9,29.3,37.4,28.1,37.7,28.1z"
					/>
				<path class="st64" d="M37.5,28.3c0.2,0,0.8,1,0.8,1.5c0,0.5-0.5,0.7-0.8,0.7c-0.5,0-0.7-0.5-0.7-0.7
					C36.9,29.3,37.4,28.3,37.5,28.3z"/>
				<path class="st65" d="M37.5,28.3c0.2,0,0.8,0.8,0.7,1.5c0,0.5-0.3,0.7-0.8,0.7s-0.7-0.5-0.7-0.7C36.9,29.3,37.4,28.3,37.5,28.3z
					"/>
				<path class="st66" d="M37.5,28.3c0.2,0,0.7,0.8,0.7,1.3c0,0.3-0.3,0.7-0.7,0.7c-0.5,0-0.7-0.5-0.7-0.7
					C36.9,29.3,37.4,28.3,37.5,28.3z"/>
				<path class="st67" d="M37.5,28.3c0.2,0,0.7,0.8,0.7,1.3c0,0.3-0.3,0.7-0.7,0.7c-0.5,0-0.7-0.5-0.7-0.7
					C37,29.3,37.4,28.3,37.5,28.3z"/>
			</g>
			<path class="st68" d="M38.2,29.4c0,0.5-0.5,1-1,1s-1-0.5-1-1c0-1,1-2.1,1-2.1l0,0l0,0C37.5,27.6,38.2,28.8,38.2,29.4z"/>
			<path class="st69" d="M38.2,29.4c0,0.5-0.5,1-1,1s-1-0.5-1-1c0-0.8,1-2.3,1-2.3S38.2,28.6,38.2,29.4z"/>
		</g>
		<g>
			<g>
				<path class="st1" d="M26.5,32.2c0-0.8,1-2.6,1.6-2.6c0.8,0,2.5,1.6,2.3,3c-0.2,1.5-2,1.6-2.8,1.5C27,33.5,26.5,32.7,26.5,32.2z"
					/>
				<path class="st37" d="M28.1,29.6c0.8,0,2.3,1.6,2.3,2.8c-0.2,1.3-1.8,1.6-2.6,1.5c-0.8-0.3-1.2-1.2-1.3-1.6
					C26.5,31.4,27.5,29.6,28.1,29.6z"/>
				<path class="st38" d="M28.1,29.6c0.8,0,2.3,1.6,2.1,2.8c-0.2,1.3-1.8,1.6-2.6,1.3s-1.2-1.2-1.2-1.6
					C26.5,31.4,27.5,29.6,28.1,29.6z"/>
				<path class="st39" d="M28.1,29.6c0.7,0,2.3,1.6,2.1,2.8c-0.2,1.3-1.8,1.6-2.5,1.3c-0.8-0.3-1.2-1.2-1.2-1.5
					C26.5,31.4,27.5,29.8,28.1,29.6z"/>
				<path class="st40" d="M28.1,29.6c0.7,0,2.1,1.6,2.1,2.6c-0.2,1.3-1.6,1.5-2.5,1.3c-0.8-0.3-1.2-1.2-1.2-1.5
					C26.7,31.4,27.5,29.8,28.1,29.6z"/>
				<path class="st41" d="M28.1,29.8c0.7,0,2.1,1.5,2,2.6c-0.2,1.3-1.6,1.5-2.5,1.3s-1.2-1-1.2-1.5C26.7,31.4,27.5,29.8,28.1,29.8z"
					/>
				<path class="st42" d="M28.1,29.8c0.7,0,2.1,1.5,2,2.6c-0.2,1.2-1.6,1.5-2.3,1.3c-0.8-0.2-1.2-1-1.2-1.5
					C26.7,31.4,27.5,29.8,28.1,29.8z"/>
				<path class="st43" d="M28.1,29.8c0.7,0,2,1.5,2,2.5c-0.2,1.2-1.5,1.5-2.3,1.3s-1.2-1-1.2-1.5C26.7,31.4,27.5,29.8,28.1,29.8z"/>
				<path class="st44" d="M28.1,29.8c0.7,0,2,1.5,1.8,2.5c-0.2,1.2-1.5,1.5-2.1,1.2c-0.8-0.2-1.2-1-1.2-1.3
					C26.7,31.4,27.5,29.8,28.1,29.8z"/>
				<path class="st45" d="M28.1,29.8c0.7,0,2,1.5,1.8,2.5c-0.2,1.2-1.5,1.3-2.1,1.2c-0.8-0.2-1-1-1-1.3
					C26.7,31.4,27.5,29.9,28.1,29.8z"/>
				<path class="st46" d="M28.1,29.9c0.7,0,1.8,1.5,1.8,2.3c-0.2,1.2-1.3,1.3-2,1.2c-0.8-0.2-1-1-1-1.3
					C26.7,31.4,27.5,29.9,28.1,29.9z"/>
				<path class="st47" d="M28.1,29.9c0.7,0,1.8,1.3,1.6,2.3c-0.2,1-1.3,1.3-2,1.2c-0.7-0.2-1-1-1-1.3C26.7,31.4,27.5,29.9,28.1,29.9
					z"/>
				<path class="st48" d="M28,29.9c0.5,0,1.8,1.3,1.6,2.3c-0.2,1-1.3,1.3-2,1.2c-0.7-0.2-1-0.8-1-1.3C26.8,31.4,27.5,29.9,28,29.9z"
					/>
				<path class="st49" d="M28,29.9c0.5,0,1.6,1.3,1.6,2.3c-0.2,1-1.2,1.3-1.8,1.2c-0.7-0.2-1-0.8-1-1.2C26.8,31.4,27.5,29.9,28,29.9
					z"/>
				<path class="st50" d="M28,29.9c0.5,0,1.6,1.3,1.5,2.1c-0.2,1-1.2,1.2-1.8,1c-0.7-0.2-1-0.8-1-1.2C26.8,31.4,27.5,29.9,28,29.9z"
					/>
				<path class="st51" d="M28,29.9c0.5,0,1.6,1.3,1.5,2.1c-0.2,1-1.2,1.2-1.6,1c-0.7-0.2-1-0.8-1-1.2C26.8,31.4,27.5,30.1,28,29.9z"
					/>
				<path class="st52" d="M28,30.1c0.5,0,1.5,1.3,1.5,2.1c-0.2,0.8-1,1.2-1.6,1s-1-0.8-1-1.2C26.8,31.4,27.5,30.1,28,30.1z"/>
				<path class="st53" d="M28,30.1c0.5,0,1.5,1.2,1.3,2c-0.2,0.8-1,1.2-1.6,1c-0.7-0.2-0.8-0.8-0.8-1.2C26.8,31.4,27.5,30.1,28,30.1
					z"/>
				<path class="st54" d="M28,30.1c0.5,0,1.3,1.2,1.3,2c-0.2,0.8-1,1-1.5,1c-0.7-0.2-0.8-0.8-0.8-1C26.8,31.4,27.5,30.1,28,30.1z"/>
				<path class="st55" d="M28,30.1c0.5,0,1.3,1.2,1.3,2c0,0.8-0.8,1-1.5,1c-0.7-0.2-0.8-0.7-0.8-1C27,31.4,27.5,30.1,28,30.1z"/>
				<path class="st56" d="M28,30.1c0.3,0,1.3,1.2,1.2,1.8c0,0.7-0.8,1-1.3,1c-0.7-0.2-0.8-0.7-0.8-1C27,31.4,27.5,30.2,28,30.1z"/>
				<path class="st57" d="M28,30.2c0.3,0,1.2,1.2,1.2,1.8c0,0.7-0.8,1-1.3,0.8c-0.7-0.2-0.8-0.7-0.8-1C27,31.4,27.5,30.2,28,30.2z"
					/>
				<path class="st58" d="M28,30.2c0.3,0,1.2,1.2,1.2,1.8c0,0.7-0.7,1-1.2,0.8c-0.7-0.2-0.8-0.7-0.8-1C27,31.4,27.5,30.2,28,30.2z"
					/>
				<path class="st59" d="M27.8,30.2c0.3,0,1.2,1,1,1.6c0,0.7-0.7,0.8-1.2,0.8c-0.7,0-0.8-0.7-0.8-0.8C27,31.4,27.5,30.2,27.8,30.2z
					"/>
				<path class="st60" d="M27.8,30.2c0.3,0,1,1,1,1.6c0,0.7-0.7,0.8-1.2,0.8c-0.5,0-0.7-0.7-0.7-0.8C27,31.4,27.5,30.2,27.8,30.2z"
					/>
				<path class="st61" d="M27.8,30.2c0.3,0,1,1,1,1.6c0,0.5-0.5,0.8-1,0.8c-0.5,0-0.7-0.7-0.7-0.8C27,31.4,27.5,30.2,27.8,30.2z"/>
				<path class="st62" d="M27.8,30.4c0.3,0,1,1,0.8,1.6c0,0.5-0.5,0.8-1,0.8c-0.5,0-0.7-0.5-0.7-0.8C27.2,31.6,27.7,30.4,27.8,30.4z
					"/>
				<path class="st63" d="M27.8,30.4c0.3,0,0.8,1,0.8,1.5c0,0.5-0.5,0.8-0.8,0.7c-0.5,0-0.7-0.5-0.7-0.8
					C27.2,31.6,27.7,30.4,27.8,30.4z"/>
				<path class="st64" d="M27.8,30.4c0.2,0,0.8,1,0.8,1.5c0,0.5-0.5,0.7-0.8,0.7c-0.5,0-0.7-0.5-0.7-0.7
					C27.2,31.6,27.7,30.4,27.8,30.4z"/>
				<path class="st65" d="M27.8,30.4c0.2,0,0.8,0.8,0.7,1.5c0,0.5-0.3,0.7-0.8,0.7c-0.5,0-0.7-0.5-0.7-0.7
					C27.2,31.6,27.7,30.4,27.8,30.4z"/>
				<path class="st66" d="M27.8,30.4c0.2,0,0.7,0.8,0.7,1.3c0,0.3-0.3,0.7-0.7,0.7c-0.5,0-0.7-0.5-0.7-0.7
					C27.2,31.6,27.7,30.4,27.8,30.4z"/>
				<path class="st67" d="M27.8,30.4c0.2,0,0.7,0.8,0.7,1.3c0,0.3-0.3,0.7-0.7,0.7c-0.5,0-0.7-0.5-0.7-0.7
					C27.2,31.6,27.7,30.4,27.8,30.4z"/>
			</g>
			<path class="st68" d="M28.3,31.6c0,0.5-0.5,1-1,1c-0.5,0-1-0.5-1-1c0-1,1-2.1,1-2.1l0,0l0,0C27.7,29.8,28.3,30.9,28.3,31.6z"/>
			<path class="st69" d="M28.5,31.6c0,0.5-0.5,1-1,1c-0.5,0-1-0.5-1-1c0-0.8,1-2.3,1-2.3S28.5,30.7,28.5,31.6z"/>
		</g>
		<g>
			<g>
				<path class="st1" d="M21.1,36c0-1.3,1.5-4.1,2.8-4.3c1.3-0.2,3.9,2.8,3.6,4.6c-0.3,2.3-3,2.8-4.4,2.3
					C21.7,38.1,21.1,36.8,21.1,36z"/>
				<path class="st37" d="M23.9,31.9c1.3-0.2,3.8,2.6,3.6,4.6c-0.3,2.3-3,2.6-4.3,2.3c-1.3-0.5-2-1.8-2-2.6
					C21.1,34.7,22.7,31.9,23.9,31.9z"/>
				<path class="st38" d="M23.9,31.9c1.2-0.2,3.8,2.6,3.5,4.4c-0.3,2.1-2.8,2.6-4.1,2.1c-1.3-0.5-2-1.8-2-2.5
					C21.1,34.7,22.7,31.9,23.9,31.9z"/>
				<path class="st39" d="M23.7,31.9c1.2,0,3.6,2.6,3.5,4.4c-0.3,2.1-2.8,2.5-4.1,2.1c-1.3-0.3-1.8-1.8-2-2.5
					C21.2,34.7,22.7,32.1,23.7,31.9z"/>
				<path class="st40" d="M23.7,32.1c1.2,0,3.5,2.5,3.3,4.3c-0.2,2.1-2.6,2.5-3.9,2.1c-1.3-0.3-1.8-1.8-1.8-2.5
					C21.2,34.7,22.7,32.1,23.7,32.1z"/>
				<path class="st41" d="M23.7,32.1c1.2,0,3.5,2.5,3.3,4.3c-0.2,2-2.6,2.5-3.8,2.1c-1.3-0.3-1.8-1.6-1.8-2.5
					C21.2,34.7,22.7,32.1,23.7,32.1z"/>
				<path class="st42" d="M23.7,32.1c1.2,0,3.3,2.5,3.1,4.1c-0.2,2-2.5,2.3-3.8,2c-1.3-0.3-1.8-1.6-1.8-2.3
					C21.2,34.7,22.7,32.2,23.7,32.1z"/>
				<path class="st43" d="M23.7,32.1c1,0,3.3,2.5,3.1,4.1c-0.2,2-2.5,2.3-3.6,2c-1.3-0.3-1.8-1.6-1.8-2.3
					C21.2,34.7,22.7,32.2,23.7,32.1z"/>
				<path class="st44" d="M23.7,32.2c1,0,3.1,2.3,3,3.9c-0.2,1.8-2.3,2.3-3.5,2c-1.3-0.3-1.6-1.6-1.8-2.3
					C21.4,34.7,22.7,32.2,23.7,32.2z"/>
				<path class="st45" d="M23.7,32.2c1,0,3.1,2.3,3,3.9c-0.2,1.8-2.3,2.1-3.5,2c-1.2-0.3-1.6-1.5-1.6-2.1
					C21.4,34.9,22.7,32.2,23.7,32.2z"/>
				<path class="st46" d="M23.5,32.2c1,0,3,2.3,2.8,3.8c-0.2,1.8-2.1,2.1-3.3,1.8s-1.6-1.5-1.6-2.1C21.4,34.9,22.7,32.4,23.5,32.2z"
					/>
				<path class="st47" d="M23.5,32.4c1,0,3,2.3,2.6,3.8C26,37.8,24,38.3,23,38c-1.2-0.3-1.6-1.5-1.6-2.1
					C21.4,34.9,22.7,32.4,23.5,32.4z"/>
				<path class="st48" d="M23.5,32.4c0.8,0,2.8,2.1,2.6,3.6c-0.2,1.6-2,2-3.1,1.8c-1.2-0.3-1.6-1.5-1.6-2
					C21.6,34.9,22.7,32.4,23.5,32.4z"/>
				<path class="st49" d="M23.5,32.4c0.8,0,2.6,2.1,2.5,3.6s-2,2-3,1.8c-1.2-0.3-1.5-1.3-1.6-2C21.6,34.9,22.7,32.5,23.5,32.4z"/>
				<path class="st50" d="M23.5,32.5c0.8,0,2.6,2.1,2.5,3.5c-0.2,1.5-1.8,2-2.8,1.6c-1.2-0.3-1.5-1.3-1.5-2
					C21.6,34.9,22.7,32.5,23.5,32.5z"/>
				<path class="st51" d="M23.5,32.5c0.8,0,2.5,2,2.3,3.5c-0.2,1.5-1.8,1.8-2.8,1.6c-1.2-0.2-1.5-1.3-1.5-1.8
					C21.6,34.9,22.7,32.5,23.5,32.5z"/>
				<path class="st52" d="M23.5,32.5c0.8,0,2.5,2,2.3,3.3c-0.2,1.3-1.6,1.8-2.6,1.6c-1.2-0.2-1.5-1.3-1.5-1.8
					C21.6,34.9,22.7,32.5,23.5,32.5z"/>
				<path class="st53" d="M23.4,32.5c0.7,0,2.3,2,2.1,3.3c-0.2,1.3-1.6,1.8-2.5,1.6c-1-0.2-1.5-1.3-1.5-1.8
					C21.7,34.9,22.7,32.7,23.4,32.5z"/>
				<path class="st54" d="M23.4,32.7c0.7,0,2.3,2,2.1,3.1c-0.2,1.3-1.5,1.6-2.5,1.5s-1.3-1.2-1.3-1.6C21.7,34.9,22.7,32.7,23.4,32.7
					z"/>
				<path class="st55" d="M23.4,32.7c0.7,0,2.1,1.8,2,3.1c-0.2,1.2-1.5,1.6-2.3,1.5c-1-0.2-1.3-1.2-1.3-1.6
					C21.7,34.9,22.7,32.7,23.4,32.7z"/>
				<path class="st56" d="M23.4,32.7c0.7,0,2,1.8,2,3c-0.2,1.2-1.3,1.6-2.1,1.5c-1-0.2-1.3-1.2-1.3-1.6
					C21.7,34.9,22.7,32.9,23.4,32.7z"/>
				<path class="st57" d="M23.4,32.9c0.7,0,2,1.8,1.8,3C25,37,23.9,37.3,23,37.3c-1-0.2-1.3-1.2-1.3-1.5
					C21.7,34.9,22.7,32.9,23.4,32.9z"/>
				<path class="st58" d="M23.4,32.9c0.5,0,1.8,1.6,1.8,2.8c-0.2,1-1.2,1.5-2,1.3c-1-0.2-1.3-1-1.3-1.5
					C21.9,34.9,22.7,32.9,23.4,32.9z"/>
				<path class="st59" d="M23.2,32.9c0.5,0,1.8,1.6,1.6,2.8c-0.2,1-1.2,1.5-1.8,1.3c-1-0.2-1.2-1-1.2-1.5
					C21.9,34.9,22.7,32.9,23.2,32.9z"/>
				<path class="st60" d="M23.2,33c0.5,0,1.6,1.6,1.6,2.6c-0.2,1-1,1.3-1.8,1.3c-1-0.2-1.2-1-1.2-1.3C21.9,34.9,22.7,33,23.2,33z"/>
				<path class="st61" d="M23.2,33c0.5,0,1.6,1.6,1.5,2.6c-0.2,0.8-1,1.3-1.6,1.3c-0.8-0.2-1.2-1-1.2-1.3C21.9,34.9,22.7,33,23.2,33
					z"/>
				<path class="st62" d="M23.2,33c0.5,0,1.5,1.5,1.5,2.5c0,0.8-0.8,1.3-1.5,1.2c-0.8,0-1.2-0.8-1.2-1.3C22.1,34.9,22.7,33,23.2,33z
					"/>
				<path class="st63" d="M23.2,33c0.5,0,1.5,1.5,1.3,2.5c0,0.8-0.8,1.2-1.5,1.2c-0.8,0-1.2-0.8-1.2-1.2
					C22.1,34.9,22.7,33.2,23.2,33z"/>
				<path class="st64" d="M23.2,33.2c0.3,0,1.3,1.5,1.2,2.3c0,0.7-0.7,1.2-1.3,1.2c-0.8,0-1-0.8-1-1.2
					C22.1,34.9,22.7,33.2,23.2,33.2z"/>
				<path class="st65" d="M23.2,33.2c0.3,0,1.2,1.5,1.2,2.3c0,0.7-0.7,1.2-1.2,1.2c-0.8,0-1-0.8-1-1.2
					C22.1,34.9,22.7,33.2,23.2,33.2z"/>
				<path class="st66" d="M23,33.2c0.3,0,1.2,1.3,1,2.1c0,0.7-0.5,1-1.2,1c-0.8,0-1-0.8-1-1C22.1,34.9,22.7,33.2,23,33.2z"/>
				<path class="st67" d="M23,33.4c0.3,0,1,1.3,1,2.1c0,0.5-0.3,1-1,1c-0.8,0-1-0.7-1-1C22.2,35,22.9,33.4,23,33.4z"/>
			</g>
			<path class="st68" d="M24,35c0,0.8-0.7,1.6-1.6,1.6S20.7,36,20.7,35c0-1.5,1.6-3.5,1.6-3.5h0.2c0,0,0,0,0,0.2
				C23,32.1,24,33.9,24,35z"/>
			<path class="st69" d="M24.2,35.2c0,0.8-0.7,1.6-1.6,1.6c-0.8,0-1.6-0.7-1.6-1.6c0-1.3,1.6-3.6,1.6-3.6S24.2,33.9,24.2,35.2z"/>
		</g>
	</g>
</g>
</svg>
