<?xml version="1.0" encoding="utf-8"?>
<!-- Generator: Adobe Illustrator 27.0.1, SVG Export Plug-In . SVG Version: 6.00 Build 0)  -->
<svg version="1.1" id="Ebene_1" xmlns="http://www.w3.org/2000/svg" xmlns:xlink="http://www.w3.org/1999/xlink" x="0px" y="0px"
	 viewBox="0 0 28.5 20.9" style="enable-background:new 0 0 28.5 20.9;" xml:space="preserve">
<style type="text/css">
	.st0{display:none;}
	.st1{opacity:0;fill:#FFFFFF;}
	.st2{opacity:4.761905e-02;fill:#F9FBFB;}
	.st3{opacity:9.523810e-02;fill:#F4F6F8;}
	.st4{opacity:0.1429;fill:#EEF2F4;}
	.st5{opacity:0.1905;fill:#E9EDF1;}
	.st6{opacity:0.2381;fill:#E3E9ED;}
	.st7{opacity:0.2857;fill:#DEE5EA;}
	.st8{opacity:0.3333;fill:#D8E0E6;}
	.st9{opacity:0.381;fill:#D3DCE3;}
	.st10{opacity:0.4286;fill:#CDD8DF;}
	.st11{opacity:0.4762;fill:#C8D3DC;}
	.st12{opacity:0.5238;fill:#C2CFD8;}
	.st13{opacity:0.5714;fill:#BDCAD5;}
	.st14{opacity:0.619;fill:#B7C6D1;}
	.st15{opacity:0.6667;fill:#B2C2CE;}
	.st16{opacity:0.7143;fill:#ACBDCA;}
	.st17{opacity:0.7619;fill:#A7B9C7;}
	.st18{opacity:0.8095;fill:#A1B5C3;}
	.st19{opacity:0.8571;fill:#9CB0C0;}
	.st20{opacity:0.9048;fill:#96ACBC;}
	.st21{opacity:0.9524;fill:#91A7B9;}
	.st22{fill:#8BA3B5;}
	.st23{fill:#EEF7FA;}
	.st24{fill:#91D5EB;}
	.st25{fill:url(#SVGID_1_);}
	.st26{fill:url(#SVGID_00000061440499855186275530000014156262570541385906_);}
	.st27{fill:url(#SVGID_00000028312188850545325330000017000984075866054021_);}
	.st28{fill:#FFFFFF;}
	.st29{fill:#E1F0FA;}
	.st30{fill:url(#SVGID_00000170272965751059623890000006382812788371259014_);}
	.st31{fill:url(#SVGID_00000054988655758197030150000003042899483987955641_);}
	.st32{fill:url(#SVGID_00000065789051777677744580000010136994568720357763_);}
	.st33{fill:#9DDEF2;}
	.st34{fill:#A2DEF2;}
	.st35{fill:#BEE9F7;}
	.st36{fill:#C8EEFA;}
	.st37{opacity:3.225806e-02;fill:#FBFCFC;}
	.st38{opacity:6.451613e-02;fill:#F7F9FA;}
	.st39{opacity:9.677419e-02;fill:#F3F6F7;}
	.st40{opacity:0.129;fill:#EFF3F5;}
	.st41{opacity:0.1613;fill:#EBF0F2;}
	.st42{opacity:0.1935;fill:#E8EDF0;}
	.st43{opacity:0.2258;fill:#E4EAED;}
	.st44{opacity:0.2581;fill:#E0E7EB;}
	.st45{opacity:0.2903;fill:#DCE4E8;}
	.st46{opacity:0.3226;fill:#D8E1E6;}
	.st47{opacity:0.3548;fill:#D4DEE3;}
	.st48{opacity:0.3871;fill:#D0DBE0;}
	.st49{opacity:0.4194;fill:#CCD8DE;}
	.st50{opacity:0.4516;fill:#C8D5DB;}
	.st51{opacity:0.4839;fill:#C4D2D9;}
	.st52{opacity:0.5161;fill:#C1CFD6;}
	.st53{opacity:0.5484;fill:#BDCCD4;}
	.st54{opacity:0.5806;fill:#B9C9D1;}
	.st55{opacity:0.6129;fill:#B5C6CF;}
	.st56{opacity:0.6452;fill:#B1C3CC;}
	.st57{opacity:0.6774;fill:#ADC0C9;}
	.st58{opacity:0.7097;fill:#A9BDC7;}
	.st59{opacity:0.7419;fill:#A5BAC4;}
	.st60{opacity:0.7742;fill:#A1B7C2;}
	.st61{opacity:0.8065;fill:#9DB4BF;}
	.st62{opacity:0.8387;fill:#9AB1BD;}
	.st63{opacity:0.871;fill:#96AEBA;}
	.st64{opacity:0.9032;fill:#92ABB8;}
	.st65{opacity:0.9355;fill:#8EA8B5;}
	.st66{opacity:0.9677;fill:#8AA5B3;}
	.st67{fill:#86A2B0;}
	.st68{fill:#B3EDFF;}
	.st69{fill:#61D7FF;}
</style>
<g id="Ebene_3" class="st0">
</g>
<g>
	<g>
		<g>
			<path class="st1" d="M27.1,14.2c2.1-2.1,2-3.8,1.3-5.7c-0.5-1.4-0.8-2.3-1.7-3.6c-0.8-1.1-2.5-2.6-5-3c-2.5-0.3-8.3,3.6-10.3,4.2
				C9.3,6.8,6.7,8.3,3.9,9.4c-1.4,0.6-3.5,2.4-3.6,3.4c-0.1,1.6,0.5,2.2,1.2,2.8c0.7,0.6,2.1,1.7,3,2.1c0.8,0.4,2.9,1,3.6,1
				c1.6,0.2,2.1-0.3,3.4-0.2c1.6,0.2,2.2,0.3,2.9,0.3c0.7,0,1.2-0.2,1.6-0.2c0.5,0,1.4,0,2-0.1c1.7-0.4,2-0.2,2.9-0.5
				C22.7,17.5,25.4,16,27.1,14.2z"/>
			<path class="st2" d="M26.9,14.1c2.1-2,2-3.7,1.3-5.5c-0.5-1.3-0.8-2.2-1.7-3.5c-0.8-1.1-2.4-2.6-4.9-3c-2.4-0.4-8.1,3.6-10.1,4.1
				C9.3,6.9,6.8,8.4,4.1,9.5c-1.4,0.6-3.6,2.3-3.6,3.3c0,1.5,0.5,2.1,1.2,2.7c0.7,0.6,2.1,1.7,3,2.1c0.8,0.4,2.9,0.9,3.6,0.9
				c1.5,0.2,2.1-0.2,3.4-0.1c1.6,0.2,2.1,0.3,2.9,0.2c0.7,0,1.2-0.1,1.6-0.2c0.6,0,1.4,0,2-0.1c1.7-0.3,1.9-0.2,2.8-0.5
				C22.7,17.3,25.2,15.8,26.9,14.1z"/>
			<path class="st3" d="M26.6,14c2-1.9,1.9-3.6,1.2-5.3c-0.5-1.3-0.8-2.2-1.7-3.4c-0.8-1.1-2.3-2.5-4.8-3c-2.4-0.4-7.9,3.5-9.9,4
				C9.4,7,6.9,8.5,4.3,9.6c-1.4,0.5-3.7,2.2-3.7,3.2c0,1.5,0.5,2,1.2,2.6c0.7,0.6,2.1,1.7,2.9,2c0.9,0.4,2.8,0.8,3.5,0.9
				c1.5,0.2,2.1-0.2,3.3-0.1c1.6,0.2,2.1,0.2,2.8,0.2c0.6,0,1.2-0.1,1.6-0.1c0.6,0,1.4,0,2-0.1c1.6-0.3,1.9-0.2,2.8-0.5
				C22.6,17.1,25,15.7,26.6,14z"/>
			<path class="st4" d="M26.4,14c2-1.8,1.9-3.5,1.2-5.1c-0.5-1.3-0.9-2.1-1.7-3.3c-0.8-1.1-2.2-2.5-4.7-3c-2.4-0.5-7.7,3.4-9.7,3.9
				C9.4,7.1,7,8.6,4.4,9.6c-1.3,0.5-3.9,2.1-3.8,3.1c0,1.4,0.6,1.9,1.3,2.5c0.7,0.6,2,1.7,2.9,2c0.9,0.3,2.7,0.7,3.5,0.8
				c1.5,0.1,2.1-0.1,3.3,0c1.6,0.1,2.1,0.2,2.8,0.2c0.6,0,1.1-0.1,1.6-0.1c0.6,0,1.4,0,2-0.2c1.6-0.3,1.8-0.2,2.8-0.5
				C22.5,16.9,24.8,15.5,26.4,14z"/>
			<path class="st5" d="M26.2,13.9c1.9-1.8,1.8-3.4,1.1-5c-0.5-1.3-0.9-2-1.7-3.2c-0.8-1-2.1-2.4-4.6-3c-2.3-0.5-7.5,3.3-9.5,3.8
				C9.4,7.2,7.2,8.7,4.6,9.7c-1.3,0.5-4,2-3.9,3c0,1.4,0.6,1.9,1.3,2.4c0.7,0.6,2,1.6,2.8,1.9c0.9,0.3,2.6,0.6,3.4,0.7
				c1.5,0.1,2.1,0,3.3,0.1c1.6,0.1,2,0.2,2.7,0.2c0.6,0,1.1-0.1,1.6-0.1c0.7,0,1.4-0.1,2-0.2c1.5-0.3,1.8-0.1,2.7-0.5
				C22.4,16.7,24.6,15.4,26.2,13.9z"/>
			<path class="st6" d="M25.9,13.8c1.8-1.7,1.8-3.3,1.1-4.8c-0.6-1.2-0.9-2-1.7-3.1c-0.7-1-2-2.4-4.4-3c-2.3-0.6-7.4,3.2-9.3,3.7
				C9.4,7.2,7.3,8.7,4.8,9.7c-1.3,0.5-4.1,1.8-4,2.9C0.8,14,1.4,14.4,2.1,15c0.7,0.6,2,1.6,2.8,1.9c0.9,0.3,2.5,0.5,3.3,0.6
				c1.5,0.1,2,0,3.3,0.1c1.6,0.1,2,0.1,2.7,0.1c0.6,0,1.1,0,1.6,0c0.7,0,1.4-0.1,2-0.2c1.5-0.3,1.7-0.1,2.7-0.4
				C22.3,16.5,24.4,15.2,25.9,13.8z"/>
			<path class="st7" d="M25.7,13.7c1.8-1.6,1.7-3.1,1-4.6c-0.6-1.2-1-1.9-1.8-3c-0.7-1-1.9-2.3-4.3-3c-2.3-0.6-7.2,3.1-9.1,3.6
				C9.5,7.3,7.4,8.8,5,9.8c-1.2,0.5-4.2,1.7-4.1,2.8c0.1,1.2,0.7,1.7,1.4,2.2c0.7,0.6,2,1.6,2.8,1.8c1,0.3,2.5,0.4,3.3,0.5
				c1.5,0.1,2,0.1,3.2,0.2c1.6,0.1,1.9,0.1,2.7,0.1c0.6,0,1.1,0,1.6,0c0.7,0,1.4-0.1,2.1-0.3c1.4-0.3,1.7-0.1,2.7-0.4
				C22.2,16.2,24.1,15.1,25.7,13.7z"/>
			<path class="st8" d="M25.4,13.6c1.7-1.5,1.7-3,1-4.5c-0.6-1.2-1-1.9-1.8-2.9c-0.7-1-1.8-2.3-4.2-3c-2.3-0.6-7,3-8.9,3.6
				c-2.1,0.6-4,2.1-6.4,3c-1.2,0.5-4.3,1.6-4.2,2.8c0.1,1.2,0.7,1.6,1.4,2.1c0.7,0.6,1.9,1.6,2.7,1.8c1,0.3,2.4,0.3,3.2,0.4
				c1.4,0.1,2,0.2,3.2,0.2c1.6,0.1,1.9,0.1,2.6,0.1c0.6,0,1,0,1.6,0c0.8,0,1.5-0.2,2.1-0.3c1.4-0.3,1.7-0.1,2.7-0.4
				C22.1,16,23.9,14.9,25.4,13.6z"/>
			<path class="st9" d="M25.2,13.6c1.7-1.4,1.6-2.9,0.9-4.3c-0.6-1.1-1-1.8-1.8-2.8c-0.7-0.9-1.7-2.3-4.1-3
				c-2.2-0.7-6.8,2.9-8.7,3.5c-2,0.6-3.9,2.1-6.2,3c-1.2,0.5-4.4,1.5-4.3,2.7c0.1,1.1,0.8,1.5,1.5,2c0.7,0.6,1.9,1.5,2.7,1.7
				c1,0.3,2.3,0.3,3.1,0.3c1.4,0.1,2,0.2,3.2,0.3c1.6,0.1,1.9,0,2.6,0c0.6,0,1,0,1.6,0c0.8,0,1.5-0.2,2.1-0.3
				c1.4-0.3,1.6-0.1,2.6-0.4C22,15.8,23.7,14.8,25.2,13.6z"/>
			<path class="st10" d="M24.9,13.5c1.6-1.3,1.6-2.8,0.9-4.1c-0.6-1.1-1.1-1.7-1.8-2.7c-0.7-0.9-1.6-2.2-4-3
				c-2.2-0.7-6.6,2.9-8.5,3.4c-2,0.6-3.8,2.1-6.1,3c-1.2,0.5-4.6,1.4-4.4,2.6c0.1,1.1,0.8,1.4,1.5,1.9C3.3,15,4.5,16,5.2,16.2
				c1,0.3,2.2,0.2,3.1,0.2c1.4,0.1,2,0.3,3.2,0.4c1.6,0.1,1.8,0,2.5,0c0.5,0,1,0.1,1.6,0.1c0.8,0,1.5-0.2,2.1-0.3
				c1.3-0.2,1.6,0,2.6-0.4C21.9,15.6,23.5,14.6,24.9,13.5z"/>
			<path class="st11" d="M24.7,13.4c1.5-1.2,1.5-2.7,0.8-4c-0.6-1.1-1.1-1.7-1.8-2.6c-0.7-0.9-1.5-2.2-3.8-3
				c-2.2-0.8-6.5,2.8-8.3,3.3c-2,0.6-3.7,2-5.9,2.9c-1.1,0.5-4.7,1.3-4.5,2.5c0.1,1,0.8,1.3,1.5,1.8c0.7,0.5,1.9,1.5,2.6,1.6
				c1.1,0.2,2.1,0.1,3,0.1c1.4,0.1,2,0.4,3.1,0.4c1.6,0.1,1.8,0,2.5,0c0.5,0,0.9,0.1,1.6,0.1c0.9,0,1.5-0.3,2.1-0.4
				c1.3-0.2,1.5,0,2.6-0.4C21.8,15.4,23.3,14.5,24.7,13.4z"/>
			<path class="st12" d="M24.5,13.3c1.5-1.1,1.5-2.6,0.8-3.8c-0.6-1-1.1-1.6-1.8-2.5c-0.7-0.9-1.4-2.1-3.7-3
				c-2.1-0.8-6.3,2.7-8.1,3.2c-2,0.6-3.6,2-5.7,2.9c-1.1,0.4-4.8,1.2-4.6,2.4c0.1,1,0.9,1.2,1.6,1.7c0.8,0.5,1.8,1.5,2.6,1.6
				c1.1,0.2,2.1,0,2.9,0c1.4,0.1,1.9,0.4,3.1,0.5c1.5,0.1,1.8-0.1,2.5,0c0.5,0,0.9,0.1,1.6,0.1c0.9,0,1.5-0.3,2.1-0.4
				c1.2-0.2,1.5,0,2.5-0.4C21.7,15.2,23.1,14.3,24.5,13.3z"/>
			<path class="st13" d="M24.2,13.2c1.4-1,1.4-2.5,0.7-3.6c-0.6-1-1.2-1.6-1.9-2.4c-0.7-0.8-1.3-2.1-3.6-3c-2.1-0.8-6.1,2.6-7.9,3.1
				c-2,0.6-3.5,2-5.5,2.9c-1.1,0.4-4.9,1.1-4.7,2.3c0.1,0.9,0.9,1.1,1.6,1.6c0.8,0.5,1.8,1.4,2.5,1.5c1.1,0.2,2-0.1,2.9,0
				c1.4,0.1,1.9,0.5,3.1,0.6c1.5,0.1,1.7-0.1,2.4-0.1c0.5,0,0.9,0.1,1.6,0.1c0.9,0,1.5-0.3,2.1-0.4c1.2-0.2,1.4,0,2.5-0.4
				C21.7,14.9,22.9,14.2,24.2,13.2z"/>
			<path class="st14" d="M24,13.2c1.4-0.9,1.4-2.3,0.7-3.4c-0.6-1-1.2-1.5-1.9-2.3c-0.7-0.8-1.2-2-3.5-3c-2.1-0.9-5.9,2.5-7.7,3
				c-2,0.6-3.4,2-5.4,2.8c-1,0.4-5,1-4.8,2.3c0.2,0.9,0.9,1.1,1.6,1.5c0.8,0.5,1.8,1.4,2.5,1.5c1.2,0.2,1.9-0.2,2.8-0.1
				c1.3,0.1,1.9,0.6,3.1,0.6c1.5,0.1,1.7-0.1,2.4-0.1c0.5,0,0.9,0.2,1.6,0.2c1,0,1.6-0.4,2.1-0.4c1.1-0.2,1.4,0.1,2.5-0.3
				C21.6,14.7,22.7,14,24,13.2z"/>
			<path class="st15" d="M23.7,13.1c1.3-0.8,1.3-2.2,0.6-3.3c-0.6-1-1.2-1.4-1.9-2.2c-0.7-0.8-1.1-2-3.4-3C17,3.6,13.4,7,11.6,7.5
				c-2,0.6-3.3,2-5.2,2.8c-1,0.4-5.2,0.9-4.9,2.2c0.2,0.8,1,1,1.7,1.4c0.8,0.5,1.7,1.4,2.5,1.5c1.2,0.1,1.8-0.3,2.8-0.2
				c1.3,0.1,1.9,0.6,3,0.7c1.5,0.1,1.6-0.2,2.3-0.1c0.5,0,0.8,0.2,1.6,0.2c1,0,1.6-0.4,2.1-0.5c1.1-0.2,1.3,0.1,2.5-0.3
				C21.5,14.5,22.5,13.9,23.7,13.1z"/>
			<path class="st16" d="M23.5,13c1.2-0.7,1.2-2.1,0.6-3.1c-0.6-0.9-1.3-1.4-1.9-2.1c-0.6-0.8-1-1.9-3.3-3c-2-0.9-5.5,2.3-7.3,2.8
				c-1.9,0.6-3.2,2-5,2.8c-1,0.4-5.3,0.8-5,2.1c0.2,0.8,1,0.9,1.7,1.3c0.8,0.5,1.7,1.3,2.4,1.4c1.2,0.1,1.8-0.4,2.7-0.3
				c1.3,0.1,1.9,0.7,3,0.7c1.5,0,1.6-0.2,2.3-0.2c0.4,0,0.8,0.2,1.6,0.2c1,0,1.6-0.4,2.1-0.5c1.1-0.2,1.3,0.1,2.4-0.3
				C21.4,14.3,22.3,13.7,23.5,13z"/>
			<path class="st17" d="M23.2,12.9c1.2-0.6,1.2-2,0.5-2.9c-0.6-0.9-1.3-1.3-1.9-2c-0.6-0.7-0.9-1.9-3.1-3c-2-1-5.4,2.2-7.1,2.8
				c-1.9,0.6-3.1,2-4.9,2.7c-0.9,0.4-5.4,0.6-5.1,2c0.2,0.7,1.1,0.8,1.8,1.2c0.8,0.5,1.7,1.3,2.4,1.4c1.2,0.1,1.7-0.4,2.6-0.4
				c1.3,0.1,1.9,0.8,3,0.8c1.5,0,1.6-0.2,2.3-0.2c0.4,0,0.8,0.2,1.6,0.2c1.1,0,1.6-0.4,2.1-0.5c1-0.2,1.2,0.1,2.4-0.3
				C21.3,14.1,22,13.6,23.2,12.9z"/>
			<path class="st18" d="M23,12.8c1.1-0.6,1.1-1.9,0.5-2.8c-0.6-0.9-1.3-1.3-1.9-2c-0.6-0.7-0.8-1.9-3-3c-2-1-5.2,2.2-6.9,2.7
				c-1.9,0.6-3,2-4.7,2.7c-0.9,0.4-5.6,0.5-5.2,1.9c0.2,0.7,1.1,0.7,1.8,1.1c0.8,0.5,1.7,1.3,2.4,1.3c1.3,0.1,1.6-0.5,2.6-0.5
				c1.3,0.1,1.8,0.8,3,0.9c1.5,0,1.5-0.3,2.2-0.2c0.4,0,0.7,0.3,1.6,0.3c1.1,0,1.6-0.5,2.1-0.5c1-0.1,1.2,0.2,2.4-0.3
				C21.2,13.9,21.8,13.4,23,12.8z"/>
			<path class="st19" d="M22.8,12.8c1.1-0.5,1.1-1.8,0.4-2.6c-0.6-0.8-1.4-1.2-2-1.9c-0.6-0.7-0.7-1.8-2.9-3c-1.9-1.1-5,2.1-6.7,2.6
				c-1.9,0.6-2.8,2-4.5,2.7c-0.9,0.4-5.7,0.4-5.3,1.8C2,13,3,13,3.7,13.4c0.8,0.5,1.6,1.2,2.3,1.3c1.3,0,1.5-0.6,2.5-0.6
				c1.3,0.1,1.8,0.9,3,0.9c1.5,0,1.5-0.3,2.2-0.2c0.4,0,0.7,0.3,1.6,0.3c1.1,0,1.6-0.5,2.1-0.6c0.9-0.1,1.2,0.2,2.3-0.3
				C21.1,13.6,21.6,13.3,22.8,12.8z"/>
			<path class="st20" d="M22.5,12.7c1-0.4,1-1.6,0.4-2.4c-0.6-0.8-1.4-1.1-2-1.8c-0.6-0.6-0.5-1.8-2.8-3c-1.9-1.1-4.8,2-6.5,2.5
				c-1.9,0.6-2.7,2-4.4,2.6c-0.9,0.3-5.9,0.3-5.4,1.8c0.2,0.6,1.2,0.5,1.9,0.9c0.8,0.4,1.6,1.2,2.3,1.2c1.3,0,1.4-0.7,2.4-0.7
				c1.2,0.1,1.8,1,2.9,1c1.5,0,1.5-0.3,2.1-0.3c0.4,0,0.7,0.3,1.6,0.3c1.2,0,1.7-0.5,2.1-0.6c0.9-0.1,1.1,0.2,2.3-0.3
				C21,13.4,21.4,13.1,22.5,12.7z"/>
			<path class="st21" d="M22.3,12.6c0.9-0.3,1-1.5,0.3-2.2c-0.7-0.8-1.4-1.1-2-1.7C20,8,20.2,7,18,5.6c-1.9-1.1-4.6,1.9-6.3,2.4
				c-1.9,0.6-2.6,2-4.2,2.6c-0.8,0.3-6,0.2-5.5,1.7c0.2,0.5,1.2,0.4,1.9,0.8c0.8,0.4,1.6,1.2,2.2,1.2c1.4,0,1.4-0.8,2.4-0.8
				c1.2,0,1.8,1,2.9,1c1.5,0,1.4-0.4,2.1-0.3c0.4,0,0.7,0.3,1.6,0.3c1.2,0,1.7-0.6,2.1-0.6c0.8-0.1,1.1,0.2,2.3-0.3
				C20.9,13.2,21.2,12.9,22.3,12.6z"/>
			<path class="st22" d="M22,12.5c0.9-0.2,0.9-1.4,0.3-2.1c-0.7-0.7-1.4-1-2-1.6c-0.6-0.6-0.3-1.7-2.5-3c-1.9-1.2-4.5,1.8-6.1,2.3
				c-1.9,0.6-2.5,2-4,2.6c-0.8,0.3-6.2,0.1-5.6,1.6c0.2,0.5,1.3,0.3,2,0.7c0.8,0.4,1.6,1.1,2.2,1.1c1.4,0,1.3-0.9,2.3-0.8
				c1.2,0,1.8,1.1,2.9,1.1c1.5,0,1.4-0.4,2.1-0.3c0.4,0,0.6,0.4,1.6,0.4c1.2,0,1.7-0.6,2.1-0.7c0.8-0.1,1,0.2,2.3-0.2
				C20.8,13,21,12.8,22,12.5z"/>
		</g>
		<path class="st23" d="M21.5,9.6c-0.2-0.7-0.6-1.2-1.1-1.7c0.1-0.4,0.2-0.8,0.2-1.2c0.1-2.1-1.5-3.9-3.6-4c-1.6-0.1-3,0.9-3.6,2.3
			c-0.1,0-0.2,0-0.3,0c-1.3-0.1-2.5,0.6-3.3,1.5C9.5,6.5,9.3,6.4,9,6.4c-1.1,0-2.1,0.8-2.2,2c0,0.2,0,0.4,0.1,0.5
			C6.5,9,6.1,9.2,5.9,9.6C5.6,9.1,5,8.8,4.4,8.8c-0.9,0-1.6,0.5-1.9,1.2c0,0-0.1,0-0.1,0c-0.8,0-1.5,0.6-1.5,1.4
			c0,0.8,0.6,1.5,1.4,1.5c0.4,0,0.8-0.1,1.1-0.4c0.3,0.2,0.6,0.3,0.9,0.3c0.3,0.7,1,1.2,1.8,1.2c0.8,0,1.6-0.4,1.9-1.1
			C8.2,12.9,8.5,13,8.7,13c0.1,0,0.2,0,0.3,0c0.5,0.6,1.2,1.1,2.1,1.1c0.9,0,1.6-0.3,2.2-0.9c0.3,0.6,1,1.1,1.7,1.1
			c0.8,0,1.5-0.4,1.9-1.1c0.4,0.2,0.9,0.3,1.3,0.4c1,0,2-0.4,2.6-1.2c0.1,0.1,0.3,0.1,0.5,0.1c0.8,0,1.5-0.6,1.6-1.4
			C22.9,10.3,22.3,9.6,21.5,9.6z"/>
		<path class="st24" d="M21.5,9.6C21.3,9,20.9,8.4,20.4,8c0.1-0.4,0.2-0.8,0.2-1.2c0.1-2.1-1.5-3.9-3.6-4c-1.6-0.1-3,0.9-3.6,2.3
			c-0.1,0-0.2,0-0.3,0C11.7,5,10.5,5.6,9.8,6.6C9.5,6.5,9.3,6.5,9.1,6.4c-1.1,0-2.1,0.8-2.2,2c0,0.2,0,0.4,0.1,0.5
			C6.6,9,6.2,9.3,6,9.6C5.6,9.2,5.1,8.9,4.5,8.8c-0.9,0-1.6,0.5-1.9,1.2c0,0-0.1,0-0.1,0c-0.8,0-1.5,0.6-1.5,1.4
			c0,0.8,0.6,1.5,1.4,1.5c0.4,0,0.8-0.1,1.1-0.4c0.3,0.2,0.6,0.3,0.9,0.3c0.3,0.7,1,1.2,1.8,1.2c0.8,0,1.6-0.4,1.9-1.1
			c0.2,0.1,0.5,0.2,0.8,0.2c0.1,0,0.2,0,0.3,0c0.5,0.6,1.2,1.1,2.1,1.1c0.9,0,1.6-0.3,2.2-0.9c0.3,0.6,1,1.1,1.7,1.1
			c0.8,0,1.5-0.4,1.9-1.1c0.4,0.2,0.9,0.3,1.3,0.4c1,0,2-0.4,2.6-1.2c0.1,0.1,0.3,0.1,0.5,0.1c0.8,0,1.5-0.6,1.6-1.4
			C23,10.4,22.4,9.7,21.5,9.6z"/>
	</g>
	<g>
		
			<radialGradient id="SVGID_1_" cx="-59.8392" cy="-192.3864" r="2.6238" gradientTransform="matrix(0.9835 0.1812 -0.1812 0.9835 33.6481 215.6617)" gradientUnits="userSpaceOnUse">
			<stop  offset="0" style="stop-color:#AED5EB"/>
			<stop  offset="0.186" style="stop-color:#C0DEEF"/>
			<stop  offset="0.694" style="stop-color:#EEF6FB"/>
			<stop  offset="0.95" style="stop-color:#FFFFFF"/>
		</radialGradient>
		<path class="st25" d="M12.2,16.1c-0.3,1.4-1.6,2.4-3.1,2.1c-1.4-0.3-2.4-1.6-2.1-3.1c0.3-1.4,1.6-2.4,3.1-2.1
			C11.6,13.3,12.5,14.7,12.2,16.1z"/>
		
			<radialGradient id="SVGID_00000083809169505026708480000010246182655667475643_" cx="-58.9548" cy="-193.7012" r="3.2209" gradientTransform="matrix(0.9835 0.1812 -0.1812 0.9835 33.6481 215.6617)" gradientUnits="userSpaceOnUse">
			<stop  offset="0" style="stop-color:#AED5EB"/>
			<stop  offset="0.186" style="stop-color:#C0DEEF"/>
			<stop  offset="0.694" style="stop-color:#EEF6FB"/>
			<stop  offset="0.95" style="stop-color:#FFFFFF"/>
		</radialGradient>
		<path style="fill:url(#SVGID_00000083809169505026708480000010246182655667475643_);" d="M13.9,15.1c-0.3,1.8-2,2.9-3.8,2.6
			c-1.8-0.3-2.9-2-2.6-3.8c0.3-1.8,2-2.9,3.8-2.6C13.1,11.6,14.3,13.3,13.9,15.1z"/>
		
			<radialGradient id="SVGID_00000139264810524675090240000017778211295770188437_" cx="-58.9341" cy="-192.5754" r="3.2151" gradientTransform="matrix(0.9835 0.1812 -0.1812 0.9835 33.6481 215.6617)" gradientUnits="userSpaceOnUse">
			<stop  offset="0" style="stop-color:#AED5EB"/>
			<stop  offset="0.186" style="stop-color:#C0DEEF"/>
			<stop  offset="0.694" style="stop-color:#EEF6FB"/>
			<stop  offset="0.95" style="stop-color:#FFFFFF"/>
		</radialGradient>
		<path style="fill:url(#SVGID_00000139264810524675090240000017778211295770188437_);" d="M13.7,16.2c-0.3,1.7-2,2.9-3.7,2.6
			c-1.7-0.3-2.9-2-2.6-3.7c0.3-1.7,2-2.9,3.7-2.6C12.9,12.7,14.1,14.4,13.7,16.2z"/>
		<g>
			<path class="st28" d="M11.6,13.5C11.6,13.5,11.6,13.5,11.6,13.5l-4.7,2.2c0,0-0.1,0-0.1,0c0,0-0.1,0-0.1-0.1c0-0.1,0-0.1,0-0.2
				c0,0,0,0,0,0l4.7-2.2c0.1,0,0.1,0,0.2,0.1C11.6,13.4,11.6,13.4,11.6,13.5z"/>
			<path class="st28" d="M11.3,14C11.3,14,11.3,14,11.3,14c-0.1,0-0.1,0-0.2,0l-0.3-0.7c0-0.1,0-0.1,0-0.2c0,0,0,0,0,0
				c0.1,0,0.1,0,0.2,0.1l0.3,0.7C11.4,13.9,11.3,14,11.3,14z"/>
			<path class="st28" d="M7.5,15.8C7.5,15.8,7.5,15.8,7.5,15.8c-0.1,0-0.1,0-0.2,0L7,15c0-0.1,0-0.1,0-0.2c0,0,0,0,0,0
				c0.1,0,0.1,0,0.2,0.1l0.3,0.7C7.5,15.7,7.5,15.7,7.5,15.8z"/>
			<path class="st28" d="M10.3,16.9C10.3,16.9,10.3,16.9,10.3,16.9c0,0-0.1,0-0.1,0c0,0-0.1,0-0.1-0.1L8,12.2c0-0.1,0-0.1,0-0.2
				c0,0,0,0,0,0c0,0,0.1,0,0.1,0c0,0,0.1,0,0.1,0.1l2.2,4.7C10.4,16.8,10.4,16.9,10.3,16.9z"/>
			<path class="st28" d="M10.5,16.3C10.5,16.3,10.4,16.3,10.5,16.3l-0.7,0.3c0,0-0.1,0-0.1,0c0,0-0.1,0-0.1-0.1c0-0.1,0-0.1,0-0.2
				c0,0,0,0,0,0l0.7-0.3c0,0,0.1,0,0.1,0c0,0,0.1,0,0.1,0.1C10.5,16.2,10.5,16.3,10.5,16.3z"/>
			<path class="st28" d="M8.7,12.5C8.7,12.5,8.7,12.5,8.7,12.5L8,12.8c0,0-0.1,0-0.1,0c0,0-0.1,0-0.1-0.1c0-0.1,0-0.1,0-0.2
				c0,0,0,0,0,0l0.7-0.3c0,0,0.1,0,0.1,0c0,0,0.1,0,0.1,0.1C8.8,12.4,8.7,12.4,8.7,12.5z"/>
			<path class="st28" d="M8.3,17C8.3,17,8.3,17,8.3,17c0,0-0.1,0-0.1,0c0,0-0.1,0-0.1-0.1c0,0,0-0.1,0-0.1L9.9,12c0,0,0,0,0-0.1
				c0,0,0.1,0,0.1,0c0,0,0.1,0,0.1,0.1c0,0,0,0.1,0,0.1L8.3,17C8.4,16.9,8.4,17,8.3,17z"/>
			<path class="st28" d="M8.9,16.7C8.9,16.7,8.8,16.7,8.9,16.7c0,0-0.1,0-0.1,0L8,16.4c0,0-0.1,0-0.1-0.1c0,0,0-0.1,0-0.1
				c0,0,0,0,0-0.1c0,0,0.1,0,0.1,0l0.7,0.3c0,0,0.1,0,0.1,0.1C8.9,16.5,8.9,16.6,8.9,16.7C8.9,16.6,8.9,16.6,8.9,16.7z"/>
			<path class="st28" d="M10.3,12.7C10.3,12.7,10.3,12.7,10.3,12.7c0,0-0.1,0-0.1,0l-0.7-0.3c-0.1,0-0.1-0.1-0.1-0.2c0,0,0,0,0-0.1
				c0,0,0.1,0,0.1,0l0.7,0.3c0,0,0.1,0,0.1,0.1C10.4,12.6,10.4,12.6,10.3,12.7C10.3,12.7,10.3,12.7,10.3,12.7z"/>
			<path class="st28" d="M11.6,15.4C11.6,15.4,11.6,15.4,11.6,15.4c0,0-0.1,0-0.1,0l-4.8-1.8c0,0-0.1,0-0.1-0.1c0,0,0-0.1,0-0.1
				c0,0,0,0,0-0.1c0,0,0.1,0,0.1,0l4.8,1.8c0,0,0.1,0,0.1,0.1C11.7,15.3,11.7,15.3,11.6,15.4C11.7,15.4,11.7,15.4,11.6,15.4z"/>
			<path class="st28" d="M7.1,14.2C7.1,14.2,7.1,14.2,7.1,14.2c0,0-0.1,0-0.1,0c0,0-0.1,0-0.1-0.1c0,0,0-0.1,0-0.1l0.3-0.7
				c0,0,0,0,0-0.1c0,0,0.1,0,0.1,0c0,0,0.1,0,0.1,0.1c0,0,0,0.1,0,0.1L7.1,14.2C7.2,14.1,7.1,14.2,7.1,14.2z"/>
			<path class="st28" d="M11.1,15.6C11.1,15.6,11.1,15.6,11.1,15.6c0,0-0.1,0-0.1,0c0,0-0.1,0-0.1-0.1c0,0,0-0.1,0-0.1l0.3-0.7
				c0,0,0,0,0-0.1c0,0,0.1,0,0.1,0c0,0,0.1,0,0.1,0.1c0,0,0,0.1,0,0.1L11.1,15.6C11.1,15.6,11.1,15.6,11.1,15.6z"/>
			<path class="st28" d="M9.8,15.8C9.8,15.8,9.8,15.8,9.8,15.8c0,0-0.1,0-0.1,0l-0.5-0.3l-0.5,0.3c0,0-0.1,0-0.1,0
				c0,0-0.1,0-0.1-0.1l-0.2-0.6l-0.6-0.1c0,0-0.1,0-0.1-0.1c0,0,0-0.1,0-0.1l0.3-0.5L7.7,14c0,0,0-0.1,0-0.1c0,0,0,0,0-0.1
				c0,0,0,0,0,0l0.6-0.2l0.1-0.6c0,0,0-0.1,0-0.1c0,0,0,0,0,0c0,0,0.1,0,0.1,0l0.5,0.3C9.6,13,9.6,13,9.6,13c0,0,0.1,0,0.1,0
				c0,0,0.1,0,0.1,0.1l0.2,0.6l0.6,0.1c0,0,0.1,0,0.1,0.1c0,0,0,0.1,0,0.1l-0.3,0.5l0.3,0.5c0,0,0,0,0,0c0,0,0,0.1,0,0.1
				c0,0,0,0,0,0l0,0c0,0,0,0,0,0L10,15.2L9.8,15.8C9.9,15.8,9.8,15.8,9.8,15.8z M9.1,15.3C9.1,15.3,9.2,15.3,9.1,15.3
				c0,0,0.1,0,0.1,0l0.4,0.2l0.1-0.5c0,0,0-0.1,0-0.1c0,0,0,0,0,0l0.5-0.1l-0.3-0.4c0,0,0-0.1,0-0.1l0.2-0.4l-0.5-0.1
				c0,0-0.1,0-0.1-0.1l-0.1-0.5l-0.4,0.3c0,0-0.1,0-0.1,0l-0.4-0.2l-0.1,0.5c0,0,0,0.1,0,0.1c0,0,0,0,0,0L8,14l0.3,0.4
				c0,0,0,0.1,0,0.1L8,15l0.5,0.1c0,0,0.1,0,0.1,0.1l0.1,0.5L9.1,15.3L9.1,15.3z"/>
			<path class="st28" d="M10.6,15.8C10.6,15.8,10.6,15.8,10.6,15.8C10.6,15.8,10.6,15.8,10.6,15.8l-0.9-0.1l-0.4,0.7c0,0,0,0,0,0
				c0,0,0,0-0.1,0c0,0-0.1,0-0.1,0l-0.5-0.6L7.9,16c0,0-0.1,0-0.1,0c0,0,0-0.1,0-0.1l0.1-0.8l-0.7-0.4c0,0,0-0.1,0-0.1
				c0,0,0-0.1,0-0.1L7.8,14l-0.2-0.8c0,0,0-0.1,0-0.1c0,0,0,0,0,0c0,0,0,0,0.1,0l0.8,0.1L9,12.5c0,0,0,0,0,0c0,0,0,0,0.1,0
				c0,0,0.1,0,0.1,0l0.5,0.6l0.8-0.2c0,0,0.1,0,0.1,0c0,0,0,0.1,0,0.1l-0.1,0.8l0.7,0.4c0,0,0,0.1,0,0.1c0,0,0,0.1,0,0.1l-0.6,0.5
				l0.2,0.8C10.7,15.7,10.7,15.8,10.6,15.8C10.6,15.8,10.6,15.8,10.6,15.8z M9.7,15.5C9.7,15.5,9.7,15.5,9.7,15.5l0.8,0.1l-0.1-0.7
				c0,0,0-0.1,0-0.1l0.6-0.4L10.3,14c0,0-0.1-0.1,0-0.1l0.1-0.7l-0.7,0.1c0,0-0.1,0-0.1,0l-0.4-0.6l-0.4,0.6c0,0,0,0,0,0
				c0,0,0,0-0.1,0l-0.7-0.1L8,14c0,0,0,0.1,0,0.1l-0.6,0.4L8,14.9c0,0,0.1,0.1,0,0.1L8,15.7l0.7-0.1c0,0,0.1,0,0.1,0l0.4,0.6
				L9.7,15.5C9.6,15.6,9.6,15.6,9.7,15.5z"/>
		</g>
		<g>
			<path class="st29" d="M11.6,13.5C11.6,13.5,11.6,13.5,11.6,13.5l-4.7,2.2c0,0-0.1,0-0.1,0c0,0-0.1,0-0.1-0.1c0-0.1,0-0.1,0-0.2
				c0,0,0,0,0,0l4.7-2.2c0.1,0,0.1,0,0.2,0.1C11.7,13.4,11.7,13.4,11.6,13.5z"/>
			<path class="st29" d="M11.4,14C11.4,14,11.3,14,11.4,14c-0.1,0-0.1,0-0.2,0l-0.3-0.7c0-0.1,0-0.1,0-0.2c0,0,0,0,0,0
				c0.1,0,0.1,0,0.2,0.1l0.3,0.7C11.4,13.9,11.4,14,11.4,14z"/>
			<path class="st29" d="M7.5,15.8C7.5,15.8,7.5,15.8,7.5,15.8c-0.1,0-0.1,0-0.2,0L7,15c0-0.1,0-0.1,0-0.2c0,0,0,0,0,0
				c0.1,0,0.1,0,0.2,0.1l0.3,0.7C7.6,15.7,7.6,15.7,7.5,15.8z"/>
			<path class="st29" d="M10.4,16.9C10.4,16.9,10.4,16.9,10.4,16.9c0,0-0.1,0-0.1,0c0,0-0.1,0-0.1-0.1L8,12.2c0-0.1,0-0.1,0-0.2
				c0,0,0,0,0,0c0,0,0.1,0,0.1,0c0,0,0.1,0,0.1,0.1l2.2,4.7C10.4,16.8,10.4,16.9,10.4,16.9z"/>
			<path class="st29" d="M10.5,16.3C10.5,16.3,10.5,16.3,10.5,16.3l-0.7,0.3c0,0-0.1,0-0.1,0c0,0-0.1,0-0.1-0.1c0-0.1,0-0.1,0-0.2
				c0,0,0,0,0,0l0.7-0.3c0,0,0.1,0,0.1,0c0,0,0.1,0,0.1,0.1C10.6,16.2,10.6,16.3,10.5,16.3z"/>
			<path class="st29" d="M8.7,12.5C8.7,12.5,8.7,12.5,8.7,12.5L8,12.8c0,0-0.1,0-0.1,0c0,0-0.1,0-0.1-0.1c0-0.1,0-0.1,0-0.2
				c0,0,0,0,0,0l0.7-0.3c0,0,0.1,0,0.1,0c0,0,0.1,0,0.1,0.1C8.8,12.4,8.8,12.4,8.7,12.5z"/>
			<path class="st29" d="M8.4,17C8.4,17,8.4,17,8.4,17c0,0-0.1,0-0.1,0c0,0-0.1,0-0.1-0.1c0,0,0-0.1,0-0.1L10,12c0,0,0,0,0-0.1
				c0,0,0.1,0,0.1,0c0,0,0.1,0,0.1,0.1c0,0,0,0.1,0,0.1L8.4,17C8.4,16.9,8.4,17,8.4,17z"/>
			<path class="st29" d="M8.9,16.7C8.9,16.7,8.9,16.7,8.9,16.7c0,0-0.1,0-0.1,0l-0.7-0.3c0,0-0.1,0-0.1-0.1c0,0,0-0.1,0-0.1
				c0,0,0,0,0-0.1c0,0,0.1,0,0.1,0l0.7,0.3c0,0,0.1,0,0.1,0.1C9,16.5,9,16.6,8.9,16.7C9,16.6,8.9,16.6,8.9,16.7z"/>
			<path class="st29" d="M10.4,12.7C10.4,12.7,10.4,12.7,10.4,12.7c0,0-0.1,0-0.1,0l-0.7-0.3c-0.1,0-0.1-0.1-0.1-0.2c0,0,0,0,0-0.1
				c0,0,0.1,0,0.1,0l0.7,0.3c0,0,0.1,0,0.1,0.1C10.4,12.6,10.4,12.6,10.4,12.7C10.4,12.7,10.4,12.7,10.4,12.7z"/>
			<path class="st29" d="M11.7,15.4C11.7,15.4,11.7,15.4,11.7,15.4c0,0-0.1,0-0.1,0l-4.8-1.8c0,0-0.1,0-0.1-0.1c0,0,0-0.1,0-0.1
				c0,0,0,0,0-0.1c0,0,0.1,0,0.1,0l4.8,1.8c0,0,0.1,0,0.1,0.1C11.8,15.3,11.8,15.3,11.7,15.4C11.7,15.4,11.7,15.4,11.7,15.4z"/>
			<path class="st29" d="M7.2,14.2C7.2,14.2,7.2,14.2,7.2,14.2c0,0-0.1,0-0.1,0c0,0-0.1,0-0.1-0.1c0,0,0-0.1,0-0.1l0.3-0.7
				c0,0,0,0,0-0.1c0,0,0.1,0,0.1,0c0,0,0.1,0,0.1,0.1c0,0,0,0.1,0,0.1L7.2,14.2C7.2,14.1,7.2,14.2,7.2,14.2z"/>
			<path class="st29" d="M11.1,15.6C11.1,15.6,11.1,15.6,11.1,15.6c0,0-0.1,0-0.1,0c0,0-0.1,0-0.1-0.1c0,0,0-0.1,0-0.1l0.3-0.7
				c0,0,0,0,0-0.1c0,0,0.1,0,0.1,0c0,0,0.1,0,0.1,0.1c0,0,0,0.1,0,0.1L11.1,15.6C11.2,15.6,11.2,15.6,11.1,15.6z"/>
			<path class="st29" d="M9.9,15.8C9.9,15.8,9.9,15.8,9.9,15.8c0,0-0.1,0-0.1,0l-0.5-0.3l-0.5,0.3c0,0-0.1,0-0.1,0
				c0,0-0.1,0-0.1-0.1l-0.2-0.6l-0.6-0.1c0,0-0.1,0-0.1-0.1c0,0,0-0.1,0-0.1l0.3-0.5L7.8,14c0,0,0-0.1,0-0.1c0,0,0,0,0-0.1
				c0,0,0,0,0,0l0.6-0.2l0.1-0.6c0,0,0-0.1,0-0.1c0,0,0,0,0,0c0,0,0.1,0,0.1,0l0.5,0.3C9.7,13,9.7,13,9.7,13c0,0,0.1,0,0.1,0
				c0,0,0.1,0,0.1,0.1l0.2,0.6l0.6,0.1c0,0,0.1,0,0.1,0.1c0,0,0,0.1,0,0.1l-0.3,0.5l0.3,0.5c0,0,0,0,0,0c0,0,0,0.1,0,0.1
				c0,0,0,0,0,0l0,0c0,0,0,0,0,0L10,15.2L9.9,15.8C9.9,15.8,9.9,15.8,9.9,15.8z M9.2,15.3C9.2,15.3,9.2,15.3,9.2,15.3
				c0,0,0.1,0,0.1,0l0.4,0.2l0.1-0.5c0,0,0-0.1,0-0.1c0,0,0,0,0,0l0.5-0.1l-0.3-0.4c0,0,0-0.1,0-0.1l0.2-0.4l-0.5-0.1
				c0,0-0.1,0-0.1-0.1l-0.1-0.5l-0.4,0.3c0,0-0.1,0-0.1,0l-0.4-0.2l-0.1,0.5c0,0,0,0.1,0,0.1c0,0,0,0,0,0L8,14l0.3,0.4
				c0,0,0,0.1,0,0.1L8.1,15l0.5,0.1c0,0,0.1,0,0.1,0.1l0.1,0.5L9.2,15.3L9.2,15.3z"/>
			<path class="st29" d="M10.7,15.8C10.7,15.8,10.7,15.8,10.7,15.8C10.6,15.8,10.6,15.8,10.7,15.8l-0.9-0.1l-0.4,0.7c0,0,0,0,0,0
				c0,0,0,0-0.1,0c0,0-0.1,0-0.1,0l-0.5-0.6L8,16c0,0-0.1,0-0.1,0c0,0,0-0.1,0-0.1l0.1-0.8l-0.7-0.4c0,0,0-0.1,0-0.1
				c0,0,0-0.1,0-0.1L7.9,14l-0.2-0.8c0,0,0-0.1,0-0.1c0,0,0,0,0,0c0,0,0,0,0.1,0l0.8,0.1l0.4-0.7c0,0,0,0,0,0c0,0,0,0,0.1,0
				c0,0,0.1,0,0.1,0l0.5,0.6l0.8-0.2c0,0,0.1,0,0.1,0c0,0,0,0.1,0,0.1l-0.1,0.8l0.7,0.4c0,0,0,0.1,0,0.1c0,0,0,0.1,0,0.1l-0.6,0.5
				l0.2,0.8C10.7,15.7,10.7,15.8,10.7,15.8C10.7,15.8,10.7,15.8,10.7,15.8z M9.7,15.5C9.7,15.5,9.8,15.5,9.7,15.5l0.8,0.1l-0.1-0.7
				c0,0,0-0.1,0-0.1l0.6-0.4L10.3,14c0,0-0.1-0.1,0-0.1l0.1-0.7l-0.7,0.1c0,0-0.1,0-0.1,0l-0.4-0.6l-0.4,0.6c0,0,0,0,0,0
				c0,0,0,0-0.1,0L8,13.3L8.1,14c0,0,0,0.1,0,0.1l-0.6,0.4l0.6,0.4c0,0,0.1,0.1,0,0.1l-0.1,0.7l0.7-0.1c0,0,0.1,0,0.1,0l0.4,0.6
				L9.7,15.5C9.7,15.6,9.7,15.6,9.7,15.5z"/>
		</g>
	</g>
	<g>
		
			<radialGradient id="SVGID_00000148624542639095698640000017997582091856073375_" cx="-63.2349" cy="-188.3797" r="1.6689" gradientTransform="matrix(0.9835 0.1812 -0.1812 0.9835 33.6481 215.6617)" gradientUnits="userSpaceOnUse">
			<stop  offset="0" style="stop-color:#AED5EB"/>
			<stop  offset="0.186" style="stop-color:#C0DEEF"/>
			<stop  offset="0.694" style="stop-color:#EEF6FB"/>
			<stop  offset="0.95" style="stop-color:#FFFFFF"/>
		</radialGradient>
		<path style="fill:url(#SVGID_00000148624542639095698640000017997582091856073375_);" d="M7.2,19.2c-0.2,0.9-1,1.5-1.9,1.3
			c-0.9-0.2-1.5-1-1.3-1.9c0.2-0.9,1-1.5,1.9-1.3C6.8,17.5,7.4,18.3,7.2,19.2z"/>
		
			<radialGradient id="SVGID_00000167392295553001127930000010886964359011386004_" cx="-62.6723" cy="-189.2157" r="2.0487" gradientTransform="matrix(0.9835 0.1812 -0.1812 0.9835 33.6481 215.6617)" gradientUnits="userSpaceOnUse">
			<stop  offset="0" style="stop-color:#AED5EB"/>
			<stop  offset="0.186" style="stop-color:#C0DEEF"/>
			<stop  offset="0.694" style="stop-color:#EEF6FB"/>
			<stop  offset="0.95" style="stop-color:#FFFFFF"/>
		</radialGradient>
		<path style="fill:url(#SVGID_00000167392295553001127930000010886964359011386004_);" d="M8.3,18.6c-0.2,1.1-1.3,1.8-2.4,1.6
			C4.8,20,4.1,19,4.3,17.8c0.2-1.1,1.3-1.8,2.4-1.6C7.8,16.4,8.5,17.5,8.3,18.6z"/>
		
			<radialGradient id="SVGID_00000150078277874484259690000015566245979631643043_" cx="-62.6593" cy="-188.4992" r="2.0453" gradientTransform="matrix(0.9835 0.1812 -0.1812 0.9835 33.6481 215.6617)" gradientUnits="userSpaceOnUse">
			<stop  offset="0" style="stop-color:#AED5EB"/>
			<stop  offset="0.186" style="stop-color:#C0DEEF"/>
			<stop  offset="0.694" style="stop-color:#EEF6FB"/>
			<stop  offset="0.95" style="stop-color:#FFFFFF"/>
		</radialGradient>
		<path style="fill:url(#SVGID_00000150078277874484259690000015566245979631643043_);" d="M8.2,19.3c-0.2,1.1-1.3,1.8-2.4,1.6
			c-1.1-0.2-1.8-1.3-1.6-2.4c0.2-1.1,1.3-1.8,2.4-1.6C7.7,17.1,8.4,18.2,8.2,19.3z"/>
		<g>
			<path class="st28" d="M6.8,17.6C6.8,17.6,6.8,17.6,6.8,17.6l-3,1.4c0,0,0,0-0.1,0c0,0,0,0,0,0c0,0,0-0.1,0-0.1c0,0,0,0,0,0l3-1.4
				C6.8,17.4,6.8,17.4,6.8,17.6C6.8,17.5,6.8,17.6,6.8,17.6z"/>
			<path class="st28" d="M6.6,17.9C6.6,17.9,6.6,17.9,6.6,17.9c0,0-0.1,0-0.1,0l-0.2-0.4c0,0,0-0.1,0-0.1c0,0,0,0,0,0
				c0,0,0.1,0,0.1,0L6.6,17.9C6.7,17.9,6.7,17.9,6.6,17.9z"/>
			<path class="st28" d="M4.2,19C4.2,19,4.2,19,4.2,19c0,0-0.1,0-0.1,0l-0.2-0.4c0,0,0-0.1,0-0.1c0,0,0,0,0,0c0,0,0.1,0,0.1,0
				L4.2,19C4.2,19,4.2,19,4.2,19z"/>
			<path class="st28" d="M6,19.7C6,19.7,6,19.8,6,19.7C6,19.8,6,19.8,6,19.7c-0.1,0-0.1,0-0.1,0l-1.4-3c0,0,0-0.1,0-0.1c0,0,0,0,0,0
				c0,0,0,0,0.1,0c0,0,0,0,0,0L6,19.7C6.1,19.7,6,19.7,6,19.7z"/>
			<path class="st28" d="M6.1,19.4C6.1,19.4,6.1,19.4,6.1,19.4l-0.4,0.2c0,0,0,0-0.1,0c0,0,0,0,0,0c0,0,0-0.1,0-0.1c0,0,0,0,0,0
				L6,19.2c0,0,0,0,0.1,0C6.1,19.2,6.1,19.3,6.1,19.4C6.1,19.3,6.1,19.4,6.1,19.4z"/>
			<path class="st28" d="M5,16.9C5,16.9,5,16.9,5,16.9l-0.4,0.2c0,0,0,0-0.1,0c0,0,0,0,0,0c0,0,0-0.1,0-0.1c0,0,0,0,0,0l0.4-0.2
				c0,0,0,0,0.1,0C5,16.8,5,16.8,5,16.9C5,16.9,5,16.9,5,16.9z"/>
			<path class="st28" d="M4.8,19.8C4.8,19.8,4.7,19.8,4.8,19.8C4.7,19.8,4.7,19.8,4.8,19.8c-0.1,0-0.1,0-0.1,0c0,0,0,0,0-0.1
				l1.1-3.1c0,0,0,0,0,0c0,0,0,0,0.1,0c0,0,0,0,0,0c0,0,0,0,0,0.1L4.8,19.8C4.8,19.8,4.8,19.8,4.8,19.8z"/>
			<path class="st28" d="M5.1,19.6C5.1,19.6,5.1,19.6,5.1,19.6C5.1,19.6,5,19.6,5.1,19.6l-0.5-0.2c0,0,0,0,0,0c0,0,0,0,0-0.1
				c0,0,0,0,0,0c0,0,0,0,0.1,0l0.5,0.2C5.1,19.5,5.1,19.5,5.1,19.6C5.1,19.5,5.1,19.5,5.1,19.6C5.1,19.6,5.1,19.6,5.1,19.6z"/>
			<path class="st28" d="M6,17.1C6,17.1,6,17.1,6,17.1C6,17.1,6,17.1,6,17.1l-0.5-0.2c0,0-0.1-0.1,0-0.1c0,0,0,0,0,0c0,0,0,0,0.1,0
				L6,17C6,17,6,17,6,17.1C6,17,6,17,6,17.1C6,17.1,6,17.1,6,17.1z"/>
			<path class="st28" d="M6.9,18.8C6.9,18.8,6.9,18.8,6.9,18.8C6.8,18.8,6.8,18.8,6.9,18.8l-3.1-1.1c0,0,0,0,0,0c0,0,0,0,0-0.1
				c0,0,0,0,0,0c0,0,0,0,0.1,0l3.1,1.1C6.9,18.7,6.9,18.7,6.9,18.8C6.9,18.7,6.9,18.8,6.9,18.8C6.9,18.8,6.9,18.8,6.9,18.8z"/>
			<path class="st28" d="M4,18C4,18,4,18,4,18C4,18,3.9,18,4,18c-0.1,0-0.1,0-0.1,0c0,0,0,0,0-0.1L4,17.5c0,0,0,0,0,0c0,0,0,0,0.1,0
				c0,0,0,0,0,0c0,0,0,0,0,0.1L4,18C4,18,4,18,4,18z"/>
			<path class="st28" d="M6.5,18.9C6.5,18.9,6.5,19,6.5,18.9C6.5,19,6.4,19,6.5,18.9c-0.1,0-0.1,0-0.1,0c0,0,0,0,0-0.1l0.2-0.5
				c0,0,0,0,0,0c0,0,0,0,0.1,0c0,0,0,0,0,0c0,0,0,0,0,0.1L6.5,18.9C6.5,18.9,6.5,18.9,6.5,18.9z"/>
			<path class="st28" d="M5.7,19.1C5.7,19.1,5.7,19.1,5.7,19.1C5.7,19.1,5.6,19.1,5.7,19.1l-0.4-0.2L5,19.1c0,0,0,0-0.1,0
				c0,0,0,0,0,0l-0.1-0.4l-0.4-0.1c0,0,0,0,0,0c0,0,0,0,0-0.1l0.2-0.3l-0.2-0.3c0,0,0,0,0-0.1c0,0,0,0,0,0c0,0,0,0,0,0l0.4-0.1
				l0.1-0.4c0,0,0,0,0,0c0,0,0,0,0,0c0,0,0,0,0.1,0l0.3,0.2c0.3-0.2,0.3-0.2,0.3-0.2c0,0,0,0,0.1,0c0,0,0,0,0,0l0.1,0.4l0.4,0.1
				c0,0,0,0,0,0c0,0,0,0,0,0.1L6,18.2l0.2,0.3c0,0,0,0,0,0c0,0,0,0.1,0,0.1c0,0,0,0,0,0h0c0,0,0,0,0,0l-0.4,0.1L5.7,19.1
				C5.7,19.1,5.7,19.1,5.7,19.1z M5.3,18.8C5.3,18.8,5.3,18.8,5.3,18.8C5.3,18.8,5.3,18.8,5.3,18.8l0.3,0.2l0.1-0.3c0,0,0,0,0,0
				c0,0,0,0,0,0L6,18.5l-0.2-0.3c0,0,0,0,0-0.1L6,17.9l-0.3-0.1c0,0,0,0-0.1,0l-0.1-0.3l-0.3,0.2c0,0,0,0-0.1,0l-0.3-0.2l-0.1,0.3
				c0,0,0,0,0,0c0,0,0,0,0,0l-0.3,0.1l0.2,0.3c0,0,0,0,0,0.1l-0.2,0.3l0.3,0.1c0,0,0,0,0.1,0L5,18.9L5.3,18.8L5.3,18.8z"/>
			<path class="st28" d="M6.2,19.1C6.2,19.1,6.2,19.1,6.2,19.1C6.2,19.1,6.2,19.1,6.2,19.1l-0.5,0l-0.3,0.4c0,0,0,0,0,0c0,0,0,0,0,0
				c0,0,0,0-0.1,0L5,19.1l-0.5,0.1c0,0,0,0-0.1,0c0,0,0,0,0-0.1l0.1-0.5L4,18.3c0,0,0,0,0-0.1c0,0,0,0,0-0.1l0.4-0.3l-0.1-0.5
				c0,0,0,0,0-0.1c0,0,0,0,0,0c0,0,0,0,0,0l0.5,0.1L5.2,17c0,0,0,0,0,0c0,0,0,0,0,0c0,0,0,0,0.1,0l0.3,0.4l0.5-0.1c0,0,0,0,0.1,0
				c0,0,0,0,0,0.1l-0.1,0.5l0.4,0.3c0,0,0,0,0,0.1c0,0,0,0,0,0.1l-0.4,0.3L6.2,19.1C6.2,19,6.2,19,6.2,19.1
				C6.2,19.1,6.2,19.1,6.2,19.1z M5.6,18.9C5.6,18.9,5.6,18.9,5.6,18.9l0.5,0L6,18.5c0,0,0-0.1,0-0.1l0.4-0.3L6,17.9c0,0,0,0,0-0.1
				L6,17.4l-0.4,0.1c0,0-0.1,0-0.1,0l-0.3-0.4L5,17.5c0,0,0,0,0,0c0,0,0,0,0,0l-0.4-0.1l0.1,0.4c0,0,0,0.1,0,0.1l-0.4,0.3l0.4,0.2
				c0,0,0,0,0,0.1L4.5,19L5,18.9c0,0,0.1,0,0.1,0l0.3,0.4L5.6,18.9C5.6,18.9,5.6,18.9,5.6,18.9z"/>
		</g>
		<g>
			<path class="st29" d="M6.8,17.6C6.8,17.6,6.8,17.6,6.8,17.6l-3,1.4c0,0,0,0-0.1,0c0,0,0,0,0,0c0,0,0-0.1,0-0.1c0,0,0,0,0,0l3-1.4
				C6.8,17.4,6.9,17.4,6.8,17.6C6.9,17.5,6.9,17.6,6.8,17.6z"/>
			<path class="st29" d="M6.7,17.9C6.7,17.9,6.7,17.9,6.7,17.9c0,0-0.1,0-0.1,0l-0.2-0.4c0,0,0-0.1,0-0.1c0,0,0,0,0,0
				c0,0,0.1,0,0.1,0L6.7,17.9C6.7,17.9,6.7,17.9,6.7,17.9z"/>
			<path class="st29" d="M4.2,19C4.2,19,4.2,19,4.2,19c0,0-0.1,0-0.1,0l-0.2-0.4c0,0,0-0.1,0-0.1c0,0,0,0,0,0c0,0,0.1,0,0.1,0
				L4.2,19C4.3,19,4.3,19,4.2,19z"/>
			<path class="st29" d="M6,19.7C6,19.7,6,19.8,6,19.7C6,19.8,6,19.8,6,19.7c-0.1,0-0.1,0-0.1,0l-1.4-3c0,0,0-0.1,0-0.1c0,0,0,0,0,0
				c0,0,0,0,0.1,0c0,0,0,0,0,0L6,19.7C6.1,19.7,6.1,19.7,6,19.7z"/>
			<path class="st29" d="M6.1,19.4C6.1,19.4,6.1,19.4,6.1,19.4l-0.4,0.2c0,0,0,0-0.1,0c0,0,0,0,0,0c0,0,0-0.1,0-0.1c0,0,0,0,0,0
				l0.4-0.2c0,0,0,0,0.1,0C6.1,19.2,6.2,19.3,6.1,19.4C6.2,19.3,6.2,19.4,6.1,19.4z"/>
			<path class="st29" d="M5,16.9C5,16.9,5,16.9,5,16.9l-0.4,0.2c0,0,0,0-0.1,0c0,0,0,0,0,0c0,0,0-0.1,0-0.1c0,0,0,0,0,0l0.4-0.2
				c0,0,0,0,0.1,0C5,16.8,5,16.8,5,16.9C5.1,16.9,5,16.9,5,16.9z"/>
			<path class="st29" d="M4.8,19.8C4.8,19.8,4.8,19.8,4.8,19.8C4.8,19.8,4.7,19.8,4.8,19.8c-0.1,0-0.1,0-0.1,0s0,0,0-0.1l1.1-3.1
				c0,0,0,0,0,0c0,0,0,0,0.1,0c0,0,0,0,0,0c0,0,0,0,0,0.1L4.8,19.8C4.8,19.8,4.8,19.8,4.8,19.8z"/>
			<path class="st29" d="M5.1,19.6C5.1,19.6,5.1,19.6,5.1,19.6C5.1,19.6,5.1,19.6,5.1,19.6l-0.5-0.2c0,0,0,0,0,0c0,0,0,0,0-0.1
				c0,0,0,0,0,0c0,0,0,0,0.1,0l0.5,0.2C5.1,19.5,5.1,19.5,5.1,19.6C5.2,19.5,5.2,19.5,5.1,19.6C5.1,19.6,5.1,19.6,5.1,19.6z"/>
			<path class="st29" d="M6,17.1C6,17.1,6,17.1,6,17.1C6,17.1,6,17.1,6,17.1l-0.5-0.2c0,0-0.1-0.1,0-0.1c0,0,0,0,0,0c0,0,0,0,0.1,0
				L6,17C6,17,6.1,17,6,17.1C6.1,17,6.1,17,6,17.1C6.1,17.1,6.1,17.1,6,17.1z"/>
			<path class="st29" d="M6.9,18.8C6.9,18.8,6.9,18.8,6.9,18.8C6.9,18.8,6.8,18.8,6.9,18.8l-3.1-1.1c0,0,0,0,0,0c0,0,0,0,0-0.1
				c0,0,0,0,0,0c0,0,0,0,0.1,0l3.1,1.1C6.9,18.7,6.9,18.7,6.9,18.8C6.9,18.7,6.9,18.8,6.9,18.8C6.9,18.8,6.9,18.8,6.9,18.8z"/>
			<path class="st29" d="M4,18C4,18,4,18,4,18C4,18,4,18,4,18c-0.1,0-0.1,0-0.1,0c0,0,0,0,0-0.1l0.2-0.5c0,0,0,0,0,0c0,0,0,0,0.1,0
				c0,0,0,0,0,0c0,0,0,0,0,0.1L4,18C4,18,4,18,4,18z"/>
			<path class="st29" d="M6.5,18.9C6.5,18.9,6.5,19,6.5,18.9C6.5,19,6.5,19,6.5,18.9c-0.1,0-0.1,0-0.1,0c0,0,0,0,0-0.1l0.2-0.5
				c0,0,0,0,0,0c0,0,0,0,0.1,0c0,0,0,0,0,0c0,0,0,0,0,0.1L6.5,18.9C6.6,18.9,6.5,18.9,6.5,18.9z"/>
			<path class="st29" d="M5.7,19.1C5.7,19.1,5.7,19.1,5.7,19.1C5.7,19.1,5.7,19.1,5.7,19.1l-0.4-0.2L5,19.1c0,0,0,0-0.1,0
				c0,0,0,0,0,0l-0.1-0.4l-0.4-0.1c0,0,0,0,0,0c0,0,0,0,0-0.1l0.2-0.3l-0.2-0.3c0,0,0,0,0-0.1c0,0,0,0,0,0c0,0,0,0,0,0l0.4-0.1
				l0.1-0.4c0,0,0,0,0,0c0,0,0,0,0,0c0,0,0,0,0.1,0l0.3,0.2c0.3-0.2,0.3-0.2,0.3-0.2c0,0,0,0,0.1,0c0,0,0,0,0,0l0.1,0.4l0.4,0.1
				c0,0,0,0,0,0c0,0,0,0,0,0.1L6,18.2l0.2,0.3c0,0,0,0,0,0c0,0,0,0.1,0,0.1c0,0,0,0,0,0h0c0,0,0,0,0,0l-0.4,0.1L5.7,19.1
				C5.8,19.1,5.8,19.1,5.7,19.1z M5.3,18.8C5.3,18.8,5.3,18.8,5.3,18.8C5.3,18.8,5.4,18.8,5.3,18.8l0.3,0.2l0.1-0.3c0,0,0,0,0,0
				c0,0,0,0,0,0l0.3-0.1l-0.2-0.3c0,0,0,0,0-0.1L6,17.9l-0.3-0.1c0,0,0,0-0.1,0l-0.1-0.3l-0.3,0.2c0,0,0,0-0.1,0L5,17.5l-0.1,0.3
				c0,0,0,0,0,0c0,0,0,0,0,0l-0.3,0.1l0.2,0.3c0,0,0,0,0,0.1l-0.2,0.3l0.3,0.1c0,0,0,0,0.1,0L5,18.9L5.3,18.8L5.3,18.8z"/>
			<path class="st29" d="M6.2,19.1C6.2,19.1,6.2,19.1,6.2,19.1C6.2,19.1,6.2,19.1,6.2,19.1l-0.5,0l-0.3,0.4c0,0,0,0,0,0c0,0,0,0,0,0
				c0,0,0,0-0.1,0L5,19.1l-0.5,0.1c0,0,0,0-0.1,0c0,0,0,0,0-0.1l0.1-0.5l-0.4-0.3c0,0,0,0,0-0.1c0,0,0,0,0-0.1l0.4-0.3l-0.1-0.5
				c0,0,0,0,0-0.1c0,0,0,0,0,0c0,0,0,0,0,0l0.5,0.1L5.2,17c0,0,0,0,0,0c0,0,0,0,0,0c0,0,0,0,0.1,0l0.3,0.4l0.5-0.1c0,0,0,0,0.1,0
				c0,0,0,0,0,0.1l-0.1,0.5l0.4,0.3c0,0,0,0,0,0.1c0,0,0,0,0,0.1l-0.4,0.3L6.2,19.1C6.3,19,6.3,19,6.2,19.1
				C6.3,19.1,6.2,19.1,6.2,19.1z M5.6,18.9C5.6,18.9,5.7,18.9,5.6,18.9l0.5,0L6,18.5c0,0,0-0.1,0-0.1l0.4-0.3L6,17.9c0,0,0,0,0-0.1
				l0.1-0.4l-0.4,0.1c0,0-0.1,0-0.1,0l-0.3-0.4L5,17.5c0,0,0,0,0,0c0,0,0,0,0,0l-0.4-0.1l0.1,0.4c0,0,0,0.1,0,0.1l-0.4,0.3l0.4,0.2
				c0,0,0,0,0,0.1L4.6,19L5,18.9c0,0,0.1,0,0.1,0l0.3,0.4L5.6,18.9C5.6,18.9,5.6,18.9,5.6,18.9z"/>
		</g>
	</g>
	<g>
		<g>
			<path class="st1" d="M19.1,11.7c1-1.7,0-4-0.5-5.3c-0.4-0.9-1.5-2.2-2.5-2.6c-0.9-0.5-1.3-1-2.5-1.1C12,2.5,9.8,3.8,8.5,4.1
				c-1.4,0.4-3.9,1.6-5.3,3c-1.6,1.7-1.6,3.1-1.2,4.1c0.5,1.1,1.2,1.7,1.7,2.1c0.5,0.4,1,0.8,1.5,1.1c1.1,0.5,2,0.5,2.9,0.6
				c0.6,0,2.2,0.2,3.8-0.2c1.1-0.2,2.2-0.4,2.8-0.6C15.9,13.8,18.3,13.1,19.1,11.7z"/>
			<path class="st2" d="M19,11.6c1-1.7,0-3.9-0.4-5.1c-0.4-0.9-1.5-2.1-2.4-2.5c-0.9-0.5-1.2-1-2.5-1.2C12,2.5,9.8,3.9,8.5,4.2
				c-1.4,0.4-3.9,1.5-5.2,3c-1.5,1.7-1.6,3-1.2,4c0.5,1,1.2,1.6,1.7,2c0.5,0.4,1,0.8,1.6,1c1.1,0.5,2,0.4,2.8,0.5
				c0.6,0,2.2,0.2,3.8-0.1c1.1-0.2,2.1-0.4,2.7-0.6C15.9,13.6,18.1,13,19,11.6z"/>
			<path class="st3" d="M18.8,11.5c1-1.6,0.1-3.8-0.4-4.9C18,5.7,17,4.6,16,4.1c-0.9-0.4-1.1-1.1-2.4-1.3C12,2.6,9.8,4,8.5,4.3
				C7.1,4.7,4.7,5.8,3.4,7.2c-1.5,1.6-1.7,3-1.2,4c0.5,1,1.2,1.5,1.7,1.9c0.5,0.4,1,0.7,1.6,1c1.1,0.5,2,0.4,2.8,0.4
				c0.6,0.1,2.1,0.2,3.7-0.1c1.2-0.2,2.1-0.4,2.6-0.6C15.8,13.5,18,12.8,18.8,11.5z"/>
			<path class="st4" d="M18.6,11.4c1-1.6,0.1-3.7-0.3-4.8c-0.4-0.9-1.4-1.9-2.3-2.4c-0.9-0.4-1.1-1.2-2.4-1.4C12,2.6,9.8,4,8.5,4.4
				c-1.4,0.4-3.8,1.5-5,2.8c-1.4,1.5-1.7,2.9-1.2,3.9c0.5,1,1.2,1.4,1.7,1.8c0.5,0.4,1,0.7,1.6,0.9c1.1,0.5,2,0.3,2.7,0.4
				c0.6,0.1,2.1,0.3,3.7-0.1c1.2-0.2,2-0.4,2.6-0.6C15.7,13.3,17.8,12.7,18.6,11.4z"/>
			<path class="st5" d="M18.4,11.4c1-1.5,0.2-3.5-0.3-4.6c-0.4-0.8-1.3-1.9-2.2-2.3c-0.8-0.4-1-1.3-2.3-1.5
				c-1.6-0.3-3.8,1.2-5.1,1.5C7.1,4.9,4.8,5.9,3.6,7.2C2.3,8.7,1.9,10,2.4,11c0.5,1,1.2,1.4,1.7,1.7c0.5,0.3,1,0.6,1.6,0.9
				c1.1,0.4,2,0.2,2.7,0.3c0.6,0.1,2,0.3,3.6,0c1.2-0.2,2-0.4,2.5-0.6C15.6,13.1,17.6,12.6,18.4,11.4z"/>
			<path class="st6" d="M18.2,11.3c1-1.4,0.2-3.4-0.2-4.4c-0.4-0.8-1.3-1.8-2.2-2.2C15,4.2,14.9,3.3,13.6,3c-1.5-0.3-3.8,1.2-5,1.6
				C7.2,4.9,4.8,6,3.7,7.2C2.4,8.6,2,9.9,2.5,11c0.5,0.9,1.2,1.3,1.7,1.7c0.5,0.3,1,0.6,1.6,0.8c1.1,0.4,1.9,0.2,2.6,0.3
				c0.6,0.1,2,0.3,3.6,0c1.2-0.2,2-0.5,2.5-0.6C15.6,12.9,17.5,12.4,18.2,11.3z"/>
			<path class="st7" d="M18.1,11.2c1-1.4,0.3-3.3-0.2-4.3c-0.4-0.8-1.2-1.7-2.1-2.1C15,4.4,14.9,3.4,13.6,3c-1.5-0.4-3.8,1.2-5,1.6
				C7.2,5,4.9,6,3.8,7.2C2.6,8.5,2,9.9,2.5,10.9c0.5,0.9,1.2,1.2,1.8,1.6c0.5,0.3,1.1,0.6,1.6,0.8c1.1,0.4,1.9,0.1,2.6,0.2
				c0.6,0.1,1.9,0.3,3.6,0c1.2-0.2,1.9-0.5,2.4-0.5C15.5,12.7,17.3,12.3,18.1,11.2z"/>
			<path class="st8" d="M17.9,11.1c1-1.3,0.3-3.1-0.1-4.1c-0.4-0.8-1.2-1.6-2.1-2c-0.8-0.4-0.8-1.5-2.1-1.9c-1.5-0.4-3.8,1.3-5,1.6
				C7.2,5.1,4.9,6.1,3.9,7.2c-1.2,1.3-1.8,2.6-1.3,3.7c0.4,0.9,1.2,1.2,1.8,1.5c0.5,0.3,1.1,0.5,1.6,0.7c1.1,0.4,1.9,0,2.5,0.1
				c0.6,0.1,1.9,0.4,3.5,0.1c1.2-0.2,1.9-0.5,2.3-0.5C15.4,12.6,17.1,12.2,17.9,11.1z"/>
			<path class="st9" d="M17.7,11c1-1.3,0.4-3-0.1-3.9c-0.4-0.8-1.2-1.5-2-1.9c-0.8-0.4-0.7-1.6-2.1-2c-1.5-0.4-3.7,1.3-5,1.6
				C7.2,5.2,5,6.2,4,7.2c-1.1,1.2-1.8,2.6-1.3,3.6c0.4,0.9,1.2,1.1,1.8,1.4c0.5,0.3,1.1,0.5,1.6,0.7c1.2,0.4,1.9,0,2.5,0.1
				c0.6,0.1,1.9,0.4,3.5,0.1c1.2-0.2,1.8-0.5,2.3-0.5C15.3,12.4,17,12.1,17.7,11z"/>
			<path class="st10" d="M17.5,11c1-1.2,0.4-2.9,0-3.8c-0.4-0.7-1.1-1.5-1.9-1.9c-0.7-0.4-0.6-1.7-2-2.1c-1.5-0.5-3.7,1.3-5,1.7
				C7.3,5.3,5,6.2,4.1,7.2C3,8.3,2.2,9.7,2.8,10.8c0.4,0.8,1.2,1,1.8,1.3c0.5,0.3,1.1,0.5,1.6,0.6c1.2,0.3,1.8-0.1,2.4,0
				c0.5,0.1,1.8,0.4,3.4,0.1c1.2-0.2,1.8-0.5,2.2-0.5C15.2,12.2,16.8,11.9,17.5,11z"/>
			<path class="st11" d="M17.4,10.9c1-1.2,0.5-2.7,0-3.6c-0.4-0.7-1.1-1.4-1.9-1.8c-0.7-0.3-0.6-1.8-1.9-2.3C12.1,2.8,9.8,4.6,8.6,5
				C7.3,5.4,5.1,6.3,4.2,7.2c-1,1.1-1.9,2.4-1.3,3.5c0.4,0.8,1.2,1,1.8,1.2c0.5,0.2,1.1,0.4,1.7,0.6c1.2,0.3,1.8-0.2,2.4-0.1
				c0.5,0.1,1.8,0.5,3.4,0.2c1.2-0.2,1.7-0.5,2.2-0.5C15.2,12,16.6,11.8,17.4,10.9z"/>
			<path class="st12" d="M17.2,10.8c1-1.1,0.5-2.6,0.1-3.4c-0.4-0.7-1-1.3-1.8-1.7c-0.7-0.3-0.5-1.9-1.9-2.4
				c-1.4-0.5-3.7,1.4-4.9,1.7C7.3,5.4,5.1,6.3,4.3,7.2c-1,1-1.9,2.4-1.3,3.4c0.4,0.8,1.2,0.9,1.8,1.2c0.5,0.2,1.1,0.4,1.7,0.5
				c1.2,0.3,1.8-0.2,2.3-0.1c0.5,0.1,1.7,0.5,3.3,0.2c1.2-0.2,1.7-0.5,2.1-0.5C15.1,11.9,16.5,11.7,17.2,10.8z"/>
			<path class="st13" d="M17,10.7c1-1.1,0.6-2.5,0.1-3.2c-0.4-0.7-1-1.2-1.8-1.6c-0.7-0.3-0.4-1.9-1.8-2.5c-1.4-0.6-3.7,1.4-4.9,1.7
				C7.3,5.5,5.2,6.4,4.4,7.2c-0.9,1-2,2.3-1.3,3.4c0.4,0.7,1.2,0.8,1.9,1.1c0.5,0.2,1.1,0.3,1.7,0.5c1.2,0.3,1.8-0.3,2.3-0.2
				c0.5,0.1,1.7,0.5,3.3,0.2c1.2-0.2,1.7-0.5,2-0.5C15,11.7,16.3,11.5,17,10.7z"/>
			<path class="st14" d="M16.8,10.7c1-1,0.6-2.3,0.2-3.1c-0.4-0.7-0.9-1.1-1.7-1.5c-0.7-0.3-0.4-2-1.8-2.6c-1.4-0.6-3.7,1.4-4.9,1.8
				c-1.3,0.4-3.5,1.2-4.2,2c-0.9,0.9-2,2.2-1.3,3.3c0.4,0.7,1.2,0.8,1.9,1c0.5,0.2,1.2,0.3,1.7,0.4c1.2,0.2,1.8-0.4,2.3-0.2
				c0.5,0.1,1.6,0.5,3.2,0.3c1.2-0.2,1.6-0.5,2-0.5C14.9,11.5,16.1,11.4,16.8,10.7z"/>
			<path class="st15" d="M16.7,10.6c1-1,0.7-2.2,0.2-2.9C16.5,7,16,6.6,15.2,6.2c-0.6-0.3-0.3-2.1-1.7-2.7C12.2,2.9,9.8,5,8.7,5.3
				C7.4,5.7,5.3,6.5,4.6,7.2c-0.8,0.8-2,2.2-1.4,3.3c0.4,0.7,1.2,0.7,1.9,0.9c0.5,0.2,1.2,0.3,1.7,0.4C8,12,8.5,11.3,9,11.4
				c0.5,0.1,1.6,0.6,3.2,0.3c1.2-0.2,1.6-0.5,1.9-0.5C14.9,11.3,16,11.3,16.7,10.6z"/>
			<path class="st16" d="M16.5,10.5c1-0.9,0.7-2.1,0.3-2.7c-0.4-0.6-0.8-1-1.6-1.4c-0.6-0.3-0.2-2.2-1.7-2.8
				c-1.3-0.6-3.7,1.5-4.8,1.8c-1.3,0.4-3.4,1.2-4,1.8C3.9,8,2.6,9.3,3.3,10.4c0.4,0.7,1.2,0.6,1.9,0.8c0.6,0.2,1.2,0.2,1.7,0.3
				c1.2,0.2,1.7-0.5,2.2-0.4c0.5,0.1,1.5,0.6,3.1,0.3c1.3-0.2,1.5-0.5,1.9-0.5C14.8,11.1,15.8,11.2,16.5,10.5z"/>
			<path class="st17" d="M16.3,10.4c1-0.9,0.8-1.9,0.4-2.6c-0.4-0.6-0.8-0.9-1.6-1.3c-0.6-0.3-0.2-2.2-1.6-3C12.2,3,9.8,5.1,8.7,5.5
				c-1.3,0.4-3.4,1.1-4,1.7c-0.7,0.7-2.1,2-1.4,3.1c0.4,0.6,1.2,0.6,1.9,0.7c0.6,0.1,1.2,0.2,1.7,0.3c1.2,0.2,1.7-0.5,2.1-0.4
				c0.5,0.1,1.5,0.6,3.1,0.4c1.3-0.2,1.5-0.5,1.8-0.5C14.7,11,15.6,11,16.3,10.4z"/>
			<path class="st18" d="M16.1,10.3c1-0.8,0.8-1.8,0.4-2.4c-0.4-0.6-0.7-0.8-1.5-1.2c-0.6-0.3-0.1-2.3-1.5-3.1
				C12.2,3,9.8,5.2,8.7,5.6C7.5,5.9,5.4,6.7,4.9,7.2c-0.6,0.6-2.1,2-1.4,3.1c0.4,0.6,1.2,0.5,1.9,0.7c0.6,0.1,1.2,0.2,1.7,0.2
				c1.2,0.1,1.7-0.6,2.1-0.5c0.5,0.2,1.4,0.7,3.1,0.4c1.3-0.2,1.5-0.5,1.7-0.5C14.6,10.8,15.5,10.9,16.1,10.3z"/>
			<path class="st19" d="M15.9,10.3c1-0.8,0.9-1.7,0.5-2.2C16,7.5,15.7,7.3,15,6.9c-0.6-0.3,0-2.4-1.5-3.2C12.2,3,9.9,5.3,8.7,5.6
				C7.5,6,5.4,6.7,4.9,7.2c-0.6,0.6-2.2,1.9-1.4,3c0.4,0.6,1.2,0.4,2,0.6c0.6,0.1,1.2,0.1,1.7,0.2c1.2,0.1,1.7-0.7,2-0.5
				c0.5,0.2,1.4,0.7,3,0.4c1.3-0.2,1.4-0.6,1.7-0.5C14.5,10.6,15.3,10.8,15.9,10.3z"/>
			<path class="st20" d="M15.8,10.2c1-0.7,0.9-1.5,0.5-2.1c-0.4-0.5-0.6-0.7-1.4-1c-0.5-0.2,0-2.5-1.4-3.3c-1.3-0.7-3.6,1.6-4.7,1.9
				C7.5,6.1,5.5,6.8,5,7.2c-0.5,0.5-2.2,1.8-1.4,3c0.4,0.6,1.2,0.4,2,0.5c0.6,0.1,1.2,0.1,1.8,0.1c1.2,0.1,1.6-0.7,2-0.6
				c0.5,0.2,1.4,0.7,3,0.5c1.3-0.2,1.4-0.6,1.6-0.5C14.5,10.4,15.1,10.7,15.8,10.2z"/>
			<path class="st21" d="M15.6,10.1c1-0.6,1-1.4,0.6-1.9c-0.4-0.5-0.6-0.6-1.3-0.9c-0.5-0.2,0.1-2.5-1.4-3.4
				c-1.3-0.8-3.6,1.6-4.7,1.9c-1.2,0.4-3.2,1-3.6,1.4C4.7,7.7,2.9,9,3.7,10.1c0.4,0.5,1.2,0.3,2,0.4c0.6,0.1,1.3,0,1.8,0.1
				c1.3,0.1,1.6-0.8,1.9-0.7c0.4,0.2,1.3,0.7,2.9,0.5c1.3-0.2,1.3-0.6,1.6-0.5C14.4,10.2,15,10.5,15.6,10.1z"/>
			<path class="st22" d="M15.4,10c1-0.6,1-1.3,0.6-1.7c-0.4-0.5-0.5-0.5-1.3-0.8c-0.5-0.2,0.2-2.6-1.3-3.5c-1.2-0.8-3.6,1.6-4.7,2
				c-1.2,0.4-3.2,1-3.6,1.3c-0.4,0.4-2.3,1.7-1.4,2.8c0.4,0.5,1.2,0.2,2,0.3c0.6,0.1,1.3,0,1.8,0c1.3,0,1.6-0.9,1.9-0.7
				c0.4,0.2,1.3,0.8,2.9,0.5c1.3-0.2,1.3-0.6,1.5-0.4C14.3,10.1,14.8,10.4,15.4,10z"/>
		</g>
		<path class="st28" d="M15.5,7.4c0.1-0.4,0.2-0.7,0.2-1.1c0-2.3-1.8-4.1-4.1-4.1c-1.9,0-3.5,1.3-4,3.1c0,0-0.1,0-0.1,0
			c-0.9,0-1.7,0.5-2.1,1.2C5,6.4,4.8,6.3,4.5,6.3c-1.1,0-2,0.9-2,2c0,1.1,0.9,2,2,2c0.5,0,0.9-0.2,1.3-0.5c0.4,0.4,1,0.6,1.6,0.6
			c0.7,0,1.3-0.3,1.8-0.7c0.7,0.5,1.5,0.7,2.3,0.7c0.8,0,1.5-0.2,2.2-0.6c0.3,0.4,0.7,0.6,1.2,0.6c0.9,0,1.6-0.7,1.6-1.6
			C16.4,8.2,16,7.7,15.5,7.4z"/>
		<path class="st33" d="M15.5,7.5c0.1-0.3,0.2-0.7,0.2-1.1c0-2.3-1.8-4.1-4.1-4.1c-1.9,0-3.5,1.3-4,3.1c0,0-0.1,0-0.1,0
			c-0.9,0-1.7,0.5-2.1,1.2C5.1,6.5,4.8,6.4,4.5,6.4c-1.1,0-2,0.9-2,2s0.9,2,2,2c0.5,0,0.9-0.2,1.3-0.5c0.4,0.4,1,0.6,1.6,0.6
			c0.7,0,1.3-0.3,1.8-0.7c0.7,0.5,1.5,0.7,2.3,0.7c0.8,0,1.5-0.2,2.2-0.6c0.3,0.4,0.7,0.6,1.2,0.6c0.9,0,1.6-0.7,1.6-1.6
			C16.5,8.3,16.1,7.7,15.5,7.5z"/>
	</g>
	<g>
		<g>
			<path class="st1" d="M26.7,12.9c1.2-1,1-4.2,0.4-5c-0.8-1.1-1.7-1.8-2.4-2.2C24,5.3,21.9,5,20.9,5c-1.3,0-2.6,0.3-3.7,0.6
				c-1.2,0.3-3.4,1.1-4.5,2.3c-1.3,1.4-0.1,4.1,0.2,4.5c0.6,0.8,1.3,1.5,2.2,1.9c0.9,0.4,1.6,0.4,2.3,0.4c0.5,0,2.7,0.3,4,0
				c0.9-0.2,2.5-0.5,2.9-0.7C24.7,14,25.8,13.7,26.7,12.9z"/>
			<path class="st2" d="M26.5,12.8c1.2-1,1-4.1,0.4-4.9c-0.8-1.1-1.7-1.8-2.4-2.1c-0.7-0.4-2.7-0.7-3.7-0.7c-1.3,0-2.6,0.3-3.7,0.6
				c-1.1,0.3-3.4,1.1-4.4,2.3c-1.2,1.3-0.2,4,0.2,4.4c0.6,0.7,1.3,1.5,2.2,1.9c0.9,0.4,1.6,0.4,2.3,0.4c0.5,0,2.6,0.3,3.9,0
				c0.9-0.2,2.4-0.5,2.8-0.7C24.6,13.8,25.6,13.6,26.5,12.8z"/>
			<path class="st3" d="M26.3,12.7c1.2-1,1-3.9,0.4-4.8c-0.8-1.1-1.6-1.7-2.4-2.1c-0.7-0.4-2.6-0.7-3.5-0.7c-1.3,0-2.6,0.3-3.6,0.6
				c-1.1,0.3-3.4,1.1-4.4,2.2c-1.2,1.3-0.2,3.9,0.2,4.3c0.6,0.7,1.2,1.4,2.1,1.9c0.9,0.4,1.6,0.3,2.2,0.4c0.5,0,2.5,0.3,3.8,0.1
				c0.9-0.2,2.4-0.5,2.8-0.7C24.4,13.7,25.4,13.4,26.3,12.7z"/>
			<path class="st4" d="M26.1,12.6c1.2-0.9,1-3.8,0.4-4.7c-0.8-1.1-1.6-1.7-2.3-2c-0.7-0.3-2.5-0.7-3.4-0.7c-1.2,0-2.5,0.3-3.6,0.5
				c-1.1,0.3-3.3,1.1-4.3,2.2c-1.1,1.2-0.2,3.8,0.1,4.2c0.5,0.7,1.2,1.4,2.1,1.8c0.8,0.4,1.6,0.3,2.2,0.4c0.5,0,2.5,0.4,3.7,0.1
				c0.9-0.2,2.3-0.5,2.7-0.7C24.2,13.5,25.2,13.3,26.1,12.6z"/>
			<path class="st5" d="M26,12.5c1.1-0.9,1-3.6,0.4-4.5c-0.8-1.1-1.6-1.7-2.3-2c-0.7-0.3-2.4-0.7-3.3-0.7c-1.2,0-2.5,0.2-3.5,0.5
				C16.1,6.1,14,6.9,13,7.9c-1.1,1.2-0.3,3.6,0.1,4.1c0.5,0.7,1.1,1.4,2,1.8c0.8,0.4,1.6,0.3,2.1,0.3c0.5,0.1,2.4,0.4,3.7,0.2
				c0.9-0.2,2.3-0.6,2.7-0.8C24,13.4,25,13.2,26,12.5z"/>
			<path class="st6" d="M25.8,12.4c1.1-0.9,1-3.5,0.4-4.4c-0.7-1.1-1.6-1.6-2.3-2c-0.7-0.3-2.3-0.6-3.2-0.7
				c-1.2-0.1-2.4,0.2-3.5,0.5C16.1,6.1,14,7,13.1,7.9c-1,1.1-0.3,3.5,0.1,4c0.5,0.6,1,1.3,2,1.7c0.8,0.3,1.5,0.3,2.1,0.3
				c0.5,0.1,2.3,0.4,3.6,0.2c0.9-0.2,2.2-0.6,2.6-0.8C23.9,13.2,24.8,13.1,25.8,12.4z"/>
			<path class="st7" d="M25.6,12.3c1.1-0.8,1-3.4,0.4-4.3c-0.7-1.1-1.5-1.6-2.2-1.9c-0.6-0.3-2.2-0.6-3.1-0.7
				c-1.1-0.1-2.4,0.2-3.4,0.5C16.2,6.2,14,7,13.2,7.9c-1,1.1-0.3,3.4,0.1,3.9c0.5,0.6,1,1.3,1.9,1.7c0.8,0.3,1.5,0.2,2,0.3
				c0.5,0.1,2.2,0.5,3.5,0.2c1-0.2,2.2-0.6,2.5-0.8C23.7,13.1,24.6,13,25.6,12.3z"/>
			<path class="st8" d="M25.4,12.2c1.1-0.8,1-3.2,0.4-4.1c-0.7-1.1-1.5-1.5-2.2-1.9c-0.6-0.3-2.1-0.6-2.9-0.7
				c-1.1-0.1-2.4,0.2-3.4,0.4c-1.1,0.3-3.2,1.1-4,2c-1,1-0.3,3.3,0.1,3.8c0.5,0.6,0.9,1.3,1.9,1.7c0.8,0.3,1.5,0.2,2,0.3
				c0.4,0.1,2.1,0.5,3.4,0.3c1-0.2,2.1-0.6,2.5-0.8C23.5,12.9,24.5,12.8,25.4,12.2z"/>
			<path class="st9" d="M25.2,12.1c1.1-0.8,1-3.1,0.4-4c-0.7-1.1-1.5-1.5-2.2-1.8c-0.6-0.3-2-0.6-2.8-0.7c-1.1-0.1-2.3,0.1-3.3,0.4
				c-1.1,0.3-3.2,1.1-3.9,2c-0.9,1-0.4,3.1,0.1,3.7c0.5,0.6,0.9,1.3,1.8,1.6c0.8,0.3,1.5,0.2,2,0.3c0.4,0.1,2,0.5,3.3,0.3
				c1-0.2,2.1-0.7,2.4-0.8C23.3,12.8,24.3,12.7,25.2,12.1z"/>
			<path class="st10" d="M25,11.9c1.1-0.7,1-3,0.4-3.9c-0.7-1.1-1.5-1.5-2.2-1.8c-0.6-0.3-1.9-0.6-2.7-0.7c-1-0.1-2.3,0.1-3.3,0.4
				c-1.1,0.3-3.1,1.1-3.9,1.9c-0.9,0.9-0.4,3,0.1,3.6c0.4,0.5,0.8,1.2,1.7,1.6c0.8,0.3,1.4,0.1,1.9,0.2c0.4,0.1,2,0.6,3.2,0.3
				c1-0.2,2-0.7,2.3-0.9C23.2,12.6,24.1,12.6,25,11.9z"/>
			<path class="st11" d="M24.8,11.8c1-0.7,1-2.8,0.4-3.8c-0.7-1.1-1.5-1.4-2.1-1.8c-0.6-0.3-1.7-0.6-2.6-0.7c-1-0.1-2.2,0.1-3.2,0.4
				c-1.1,0.3-3.1,1.1-3.8,1.9c-0.8,0.9-0.4,2.9,0.1,3.5c0.4,0.5,0.7,1.2,1.7,1.5c0.8,0.3,1.4,0.1,1.9,0.2c0.4,0.1,1.9,0.6,3.2,0.4
				c1-0.2,2-0.7,2.3-0.9C23,12.5,23.9,12.5,24.8,11.8z"/>
			<path class="st12" d="M24.6,11.7c1-0.7,1-2.7,0.5-3.6c-0.6-1.1-1.4-1.4-2.1-1.7c-0.6-0.3-1.6-0.6-2.5-0.7c-1-0.1-2.2,0.1-3.2,0.4
				c-1.1,0.3-3.1,1.1-3.7,1.9c-0.8,0.8-0.4,2.8,0.1,3.4c0.4,0.5,0.7,1.2,1.6,1.5c0.8,0.3,1.4,0.1,1.8,0.2c0.4,0.1,1.8,0.6,3.1,0.4
				c1-0.2,1.9-0.7,2.2-0.9C22.8,12.3,23.7,12.3,24.6,11.7z"/>
			<path class="st13" d="M24.4,11.6c1-0.6,1-2.5,0.5-3.5c-0.6-1.1-1.4-1.4-2.1-1.7c-0.6-0.3-1.5-0.6-2.4-0.7
				c-0.9-0.1-2.2,0.1-3.1,0.3c-1.1,0.3-3,1.1-3.7,1.8c-0.7,0.8-0.5,2.6,0.1,3.3c0.4,0.5,0.6,1.1,1.6,1.4c0.8,0.3,1.4,0.1,1.8,0.2
				c0.4,0.1,1.7,0.7,3,0.4c1-0.2,1.8-0.7,2.1-0.9C22.6,12.1,23.5,12.2,24.4,11.6z"/>
			<path class="st14" d="M24.2,11.5c1-0.6,1-2.4,0.5-3.4c-0.6-1.2-1.4-1.3-2-1.6c-0.5-0.2-1.4-0.6-2.2-0.7c-0.9-0.1-2.1,0-3.1,0.3
				c-1.1,0.3-3,1.2-3.6,1.8c-0.7,0.7-0.5,2.5,0.1,3.2c0.4,0.4,0.6,1.1,1.5,1.4c0.7,0.2,1.4,0,1.8,0.1c0.4,0.1,1.6,0.7,2.9,0.5
				c1-0.2,1.8-0.8,2.1-0.9C22.5,12,23.3,12.1,24.2,11.5z"/>
			<path class="st15" d="M24,11.4c1-0.6,1-2.3,0.5-3.3c-0.6-1.2-1.4-1.3-2-1.6c-0.5-0.2-1.3-0.6-2.1-0.7c-0.9-0.1-2.1,0-3,0.3
				c-1,0.3-3,1.2-3.5,1.7c-0.6,0.7-0.5,2.4,0.1,3.1c0.3,0.4,0.5,1.1,1.5,1.4c0.7,0.2,1.3,0,1.7,0.1c0.4,0.1,1.5,0.7,2.8,0.5
				c1-0.2,1.7-0.8,2-0.9C22.3,11.8,23.1,12,24,11.4z"/>
			<path class="st16" d="M23.8,11.3c0.9-0.5,1-2.1,0.5-3.1c-0.6-1.2-1.4-1.3-2-1.6c-0.5-0.2-1.2-0.6-2-0.7c-0.8-0.1-2.1,0-3,0.3
				c-1,0.3-2.9,1.2-3.4,1.7c-0.6,0.6-0.6,2.3,0,3c0.3,0.4,0.5,1,1.4,1.3c0.7,0.2,1.3,0,1.7,0.1c0.4,0.1,1.5,0.8,2.7,0.6
				c1-0.2,1.7-0.8,2-1C22.1,11.7,22.9,11.8,23.8,11.3z"/>
			<path class="st17" d="M23.6,11.2c0.9-0.5,1-2,0.5-3c-0.6-1.2-1.3-1.2-2-1.5C21.7,6.5,21,6.2,20.3,6c-0.8-0.1-2,0-2.9,0.2
				c-1,0.3-2.9,1.2-3.4,1.6c-0.6,0.6-0.6,2.1,0,2.9c0.3,0.4,0.4,1,1.3,1.3c0.7,0.2,1.3,0,1.6,0.1c0.4,0.1,1.4,0.8,2.7,0.6
				c1-0.2,1.6-0.8,1.9-1C21.9,11.5,22.7,11.7,23.6,11.2z"/>
			<path class="st18" d="M23.4,11.1c0.9-0.5,1-1.9,0.5-2.9c-0.6-1.2-1.3-1.2-1.9-1.5c-0.5-0.2-1-0.5-1.8-0.7c-0.8-0.2-2,0-2.9,0.2
				c-1,0.3-2.9,1.2-3.3,1.6c-0.5,0.5-0.6,2,0,2.8c0.3,0.3,0.3,1,1.3,1.2c0.7,0.2,1.3-0.1,1.6,0c0.4,0.1,1.3,0.8,2.6,0.6
				c1-0.2,1.6-0.9,1.8-1C21.7,11.4,22.6,11.6,23.4,11.1z"/>
			<path class="st19" d="M23.2,11c0.9-0.5,1-1.7,0.5-2.7c-0.6-1.2-1.3-1.2-1.9-1.4c-0.5-0.2-0.9-0.5-1.6-0.7
				c-0.7-0.2-1.9-0.1-2.8,0.2c-1,0.3-2.8,1.2-3.2,1.6c-0.5,0.5-0.6,1.9,0,2.7c0.3,0.3,0.3,0.9,1.2,1.2c0.7,0.2,1.3-0.1,1.6,0
				c0.4,0.1,1.2,0.9,2.5,0.7c1-0.2,1.5-0.9,1.8-1C21.6,11.2,22.4,11.4,23.2,11z"/>
			<path class="st20" d="M23,10.9c0.9-0.4,1-1.6,0.5-2.6c-0.5-1.2-1.3-1.1-1.9-1.4c-0.4-0.2-0.8-0.5-1.5-0.7
				c-0.7-0.2-1.9-0.1-2.8,0.2c-1,0.3-2.8,1.2-3.2,1.5c-0.4,0.4-0.7,1.8,0,2.6c0.3,0.3,0.2,0.9,1.2,1.2c0.7,0.2,1.2-0.1,1.5,0
				c0.4,0.1,1.1,0.9,2.4,0.7c1-0.2,1.5-0.9,1.7-1C21.4,11.1,22.2,11.3,23,10.9z"/>
			<path class="st21" d="M22.8,10.8c0.9-0.4,1-1.5,0.5-2.5c-0.5-1.2-1.3-1.1-1.8-1.3c-0.4-0.2-0.7-0.5-1.4-0.7
				c-0.7-0.2-1.9-0.1-2.7,0.2c-1,0.3-2.8,1.2-3.1,1.5c-0.4,0.4-0.7,1.6,0,2.5c0.2,0.3,0.2,0.9,1.1,1.1c0.7,0.2,1.2-0.1,1.5,0
				c0.4,0.1,1,0.9,2.3,0.7c1-0.2,1.4-0.9,1.6-1C21.2,10.9,22,11.2,22.8,10.8z"/>
			<path class="st22" d="M22.6,10.7c0.8-0.4,1-1.3,0.5-2.4c-0.5-1.2-1.2-1.1-1.8-1.3c-0.4-0.2-0.6-0.5-1.3-0.7
				c-0.6-0.2-1.8-0.1-2.7,0.1c-1,0.3-2.7,1.2-3,1.4c-0.3,0.3-0.7,1.5,0,2.4c0.2,0.3,0.1,0.9,1.1,1.1c0.7,0.1,1.2-0.2,1.4-0.1
				c0.4,0.2,1,1,2.2,0.8c1-0.2,1.4-1,1.6-1.1C21,10.8,21.8,11.1,22.6,10.7z"/>
		</g>
		<path class="st28" d="M21.5,6.8c0,0-0.1,0-0.1,0c-0.2-0.7-0.9-1.2-1.7-1.2c-0.2,0-0.4,0-0.6,0.1c-0.2-0.7-0.9-1.1-1.6-1.1
			c-0.7,0-1.3,0.4-1.6,1.1c-0.1,0-0.2,0-0.3,0c-0.8,0-1.4,0.6-1.5,1.3c-0.1,0-0.2,0-0.3,0c-0.9,0-1.7,0.8-1.7,1.7
			c0,0.9,0.8,1.7,1.7,1.7c0,0,0,0,0,0c0.2,0.7,0.8,1.2,1.5,1.2c0.6,0,1.1-0.3,1.3-0.8c0.4,0.6,1.1,1.1,1.8,1.1c0.9,0,1.6-0.5,2-1.3
			c0.3,0.2,0.6,0.3,1,0.3c1.1,0,2-0.9,2-2C23.6,7.7,22.6,6.8,21.5,6.8z"/>
		<path class="st34" d="M21.6,6.8c0,0-0.1,0-0.1,0c-0.2-0.7-0.9-1.2-1.7-1.2c-0.2,0-0.4,0-0.6,0.1c-0.2-0.7-0.9-1.1-1.6-1.1
			c-0.7,0-1.3,0.4-1.6,1.1c-0.1,0-0.2,0-0.3,0c-0.8,0-1.4,0.6-1.5,1.3c-0.1,0-0.2,0-0.3,0c-0.9,0-1.7,0.8-1.7,1.7
			c0,0.9,0.8,1.7,1.7,1.7c0,0,0,0,0,0c0.2,0.7,0.8,1.2,1.5,1.2c0.6,0,1.1-0.3,1.3-0.8c0.4,0.6,1.1,1.1,1.8,1.1c0.9,0,1.6-0.5,2-1.3
			c0.3,0.2,0.6,0.3,1,0.3c1.1,0,2-0.9,2-2C23.6,7.7,22.7,6.8,21.6,6.8z"/>
	</g>
	<g>
		<g>
			<path class="st1" d="M25.3,9.2c1.4-1.5,1.3-4.5,0.5-5.6c-1-1.4-2.3-2-3.3-2.4c-1-0.5-2.3-0.9-3.6-1.1c-1.5-0.2-3.1,0.4-4.5,0.8
				C13,1.2,8.4,2.7,7,4.2C6.2,5.1,6,6.2,6.1,7.2C6.3,8.3,6.8,9.3,7,9.6c0.8,1,3.6,1.9,4.8,2.5c1.1,0.5,2.1,0.5,3,0.6
				c0.6,0,2.4,0,4.1-0.3c1.2-0.2,2.4-1.2,2.9-1.4C22.3,10.6,24.2,10.3,25.3,9.2z"/>
			<path class="st2" d="M25,9.1c1.4-1.4,1.3-4.4,0.6-5.5c-1-1.4-2.3-1.9-3.2-2.4c-0.9-0.5-2.3-0.9-3.5-1.1c-1.5-0.2-3.1,0.4-4.4,0.8
				C13,1.2,8.4,2.8,7.1,4.2c-0.8,0.8-1,1.9-0.8,2.9c0.1,1.1,0.7,2.1,0.9,2.3c0.8,0.9,3.5,1.9,4.7,2.5c1.1,0.5,2.1,0.4,2.9,0.5
				c0.6,0,2.4,0.1,4-0.3c1.2-0.3,2.3-1.2,2.9-1.5C22.1,10.4,24,10.2,25,9.1z"/>
			<path class="st3" d="M24.8,8.9c1.4-1.4,1.3-4.3,0.6-5.4c-1-1.4-2.2-1.9-3.1-2.3c-0.9-0.5-2.2-0.9-3.4-1.1c-1.4-0.2-3,0.4-4.3,0.7
				c-1.5,0.4-6.1,1.9-7.4,3.3C6.3,5,6.2,6.1,6.3,7.1c0.2,1.1,0.7,2,1,2.3c0.8,0.8,3.4,1.9,4.5,2.4c1.1,0.5,2,0.4,2.8,0.4
				c0.6,0.1,2.3,0.2,4-0.2c1.2-0.3,2.3-1.2,2.8-1.5C22,10.2,23.7,10,24.8,8.9z"/>
			<path class="st4" d="M24.6,8.8C26,7.5,26,4.7,25.2,3.6c-1-1.4-2.2-1.8-3.1-2.3c-0.9-0.4-2.1-0.9-3.3-1.1C17.5,0,15.9,0.6,14.6,1
				c-1.5,0.4-6.1,1.9-7.4,3.3C6.4,5,6.2,6.1,6.4,7.1C6.6,8.1,7.2,9,7.4,9.3c0.8,0.8,3.2,1.8,4.4,2.3c1.1,0.5,2,0.3,2.8,0.4
				c0.6,0.1,2.2,0.2,4-0.1c1.2-0.3,2.2-1.2,2.7-1.5C21.8,10.1,23.5,9.9,24.6,8.8z"/>
			<path class="st5" d="M24.4,8.7c1.4-1.3,1.4-4,0.6-5.1c-1-1.4-2.1-1.8-3-2.2c-0.9-0.4-2-0.8-3.2-1.1C17.4,0.1,16,0.7,14.6,1
				C13.2,1.5,8.5,3,7.2,4.2C6.5,5,6.3,6.1,6.5,7c0.2,1,0.8,1.9,1.1,2.1c0.8,0.7,3.1,1.8,4.3,2.3c1.1,0.5,2,0.2,2.7,0.3
				c0.6,0.1,2.1,0.3,3.9-0.1c1.2-0.3,2.2-1.2,2.7-1.5C21.7,9.9,23.3,9.7,24.4,8.7z"/>
			<path class="st6" d="M24.2,8.6c1.4-1.2,1.4-3.9,0.6-4.9c-0.9-1.3-2.1-1.7-3-2.2c-0.9-0.4-1.9-0.8-3.1-1.1
				c-1.3-0.2-2.8,0.3-4.1,0.6c-1.4,0.4-6.2,1.9-7.4,3.1C6.5,5,6.3,6,6.5,7C6.8,8,7.4,8.8,7.8,9c0.8,0.7,3,1.7,4.2,2.2
				c1.1,0.5,1.9,0.1,2.7,0.2c0.6,0.1,2.1,0.4,3.9,0c1.2-0.3,2.1-1.3,2.6-1.5C21.6,9.7,23.1,9.6,24.2,8.6z"/>
			<path class="st7" d="M24,8.5c1.3-1.2,1.4-3.7,0.6-4.8c-0.9-1.3-2-1.7-2.9-2.1c-0.8-0.4-1.8-0.8-3-1c-1.3-0.3-2.7,0.2-4,0.6
				c-1.4,0.4-6.2,1.9-7.3,3C6.6,5,6.4,6,6.6,6.9c0.2,1,0.9,1.7,1.3,2c0.8,0.6,2.8,1.7,4,2.2c1.1,0.4,1.9,0,2.6,0.1
				c0.6,0.1,2,0.5,3.8,0.1c1.2-0.3,2.1-1.3,2.5-1.5C21.4,9.5,22.9,9.5,24,8.5z"/>
			<path class="st8" d="M23.8,8.4c1.3-1.1,1.4-3.6,0.7-4.6c-0.9-1.3-2-1.6-2.9-2.1c-0.8-0.4-1.7-0.8-2.9-1c-1.2-0.3-2.6,0.2-3.9,0.6
				c-1.4,0.4-6.2,1.9-7.3,3C6.7,4.9,6.5,6,6.7,6.9c0.3,1,1,1.6,1.4,1.9c0.8,0.6,2.7,1.6,3.9,2.1c1,0.4,1.9,0,2.5,0.1
				c0.6,0.1,1.9,0.6,3.8,0.1c1.2-0.3,2-1.3,2.5-1.5C21.3,9.3,22.7,9.3,23.8,8.4z"/>
			<path class="st9" d="M23.5,8.3c1.3-1.1,1.4-3.4,0.7-4.5c-0.9-1.3-1.9-1.6-2.8-2c-0.8-0.4-1.6-0.8-2.8-1c-1.2-0.3-2.5,0.2-3.8,0.5
				c-1.4,0.4-6.2,1.9-7.3,2.9C6.7,4.9,6.5,6,6.8,6.8c0.3,1,1,1.6,1.4,1.9c0.7,0.5,2.6,1.6,3.8,2c1,0.4,1.8-0.1,2.5,0
				c0.6,0.1,1.8,0.7,3.7,0.2c1.2-0.3,2-1.3,2.4-1.6C21.1,9.1,22.5,9.2,23.5,8.3z"/>
			<path class="st10" d="M23.3,8.2c1.3-1,1.4-3.3,0.7-4.3c-0.8-1.3-1.9-1.5-2.7-1.9c-0.8-0.4-1.6-0.8-2.7-1
				c-1.2-0.3-2.4,0.1-3.8,0.5c-1.4,0.4-6.2,1.9-7.3,2.8C6.8,4.9,6.6,5.9,6.9,6.8c0.3,0.9,1,1.6,1.5,1.8c0.6,0.6,2.5,1.5,3.7,2
				c1,0.4,1.8-0.2,2.4-0.1c0.6,0.1,1.8,0.7,3.7,0.3c1.2-0.3,1.9-1.4,2.4-1.6C21,8.9,22.3,9,23.3,8.2z"/>
			<path class="st11" d="M23.1,8.1c1.3-1,1.4-3.2,0.7-4.2C23,2.6,22,2.4,21.2,2c-0.7-0.4-1.5-0.7-2.7-1c-1.1-0.3-2.4,0.1-3.7,0.5
				c-1.4,0.4-6.3,1.9-7.2,2.8C6.8,4.9,6.7,5.9,6.9,6.7C7.2,7.7,8,8.3,8.5,8.5C9.1,9,10.9,10,12,10.4c1,0.4,1.8-0.3,2.4-0.2
				c0.5,0.1,1.7,0.8,3.6,0.4c1.2-0.3,1.9-1.4,2.3-1.6C20.8,8.7,22,8.9,23.1,8.1z"/>
			<path class="st12" d="M22.9,8c1.3-0.9,1.4-3,0.7-4c-0.8-1.2-1.8-1.4-2.6-1.8c-0.7-0.3-1.4-0.7-2.6-1c-1.1-0.3-2.3,0.1-3.6,0.5
				C13.5,2,8.6,3.4,7.7,4.2C6.9,4.9,6.7,5.9,7,6.7c0.3,0.9,1.1,1.5,1.6,1.6c0.6,0.5,2.2,1.5,3.4,1.9c1,0.3,1.7-0.4,2.3-0.2
				c0.5,0.1,1.6,0.9,3.6,0.4c1.2-0.3,1.8-1.4,2.2-1.6C20.7,8.5,21.8,8.8,22.9,8z"/>
			<path class="st13" d="M22.7,7.9C23.9,7,24.1,5,23.4,4c-0.8-1.2-1.7-1.4-2.6-1.8c-0.7-0.3-1.3-0.7-2.5-1c-1.1-0.3-2.2,0-3.5,0.4
				C13.6,2,8.6,3.5,7.7,4.2C6.9,4.8,6.8,5.9,7.1,6.7c0.3,0.9,1.2,1.4,1.7,1.6c0.6,0.4,2.1,1.4,3.3,1.8c1,0.3,1.7-0.4,2.2-0.3
				c0.5,0.1,1.5,1,3.5,0.5c1.2-0.3,1.8-1.4,2.2-1.6C20.5,8.3,21.6,8.6,22.7,7.9z"/>
			<path class="st14" d="M22.5,7.7C23.7,6.9,23.9,5,23.2,4c-0.7-1.2-1.7-1.4-2.5-1.7c-0.7-0.3-1.2-0.7-2.4-1c-1-0.3-2.1,0-3.4,0.4
				c-1.3,0.4-6.3,1.9-7.2,2.5C7,4.8,6.8,5.8,7.2,6.6C7.5,7.5,8.4,8,9,8.1c0.6,0.4,2,1.4,3.2,1.8c1,0.3,1.7-0.5,2.2-0.4
				c0.5,0.1,1.5,1.1,3.5,0.6c1.2-0.3,1.7-1.4,2.1-1.6C20.4,8.2,21.4,8.5,22.5,7.7z"/>
			<path class="st15" d="M22.3,7.6C23.4,6.8,23.7,5,23,4c-0.7-1.2-1.6-1.3-2.4-1.7c-0.7-0.3-1.1-0.7-2.3-1c-1-0.3-2.1,0-3.3,0.4
				c-1.3,0.4-6.3,1.9-7.1,2.5C7.1,4.8,6.9,5.8,7.3,6.6C7.6,7.4,8.5,7.8,9.1,8c0.6,0.3,1.8,1.3,3,1.7c0.9,0.3,1.6-0.6,2.1-0.5
				c0.5,0.1,1.4,1.2,3.5,0.6c1.2-0.3,1.7-1.5,2-1.7C20.3,8,21.2,8.3,22.3,7.6z"/>
			<path class="st16" d="M22,7.5c1.2-0.7,1.4-2.5,0.8-3.5c-0.7-1.1-1.6-1.3-2.4-1.6c-0.6-0.3-1-0.6-2.2-1c-1-0.3-2-0.1-3.2,0.3
				c-1.3,0.4-6.4,1.9-7.1,2.4C7.1,4.8,7,5.8,7.3,6.5c0.4,0.8,1.3,1.1,1.9,1.4c0.6,0.2,1.7,1.3,2.9,1.6c0.9,0.3,1.6-0.7,2.1-0.5
				c0.5,0.1,1.3,1.2,3.4,0.7c1.3-0.3,1.7-1.5,2-1.7C20.1,7.8,21,8.2,22,7.5z"/>
			<path class="st17" d="M21.8,7.4c1.2-0.7,1.4-2.3,0.8-3.3C22,3,21.1,2.9,20.3,2.5c-0.6-0.3-0.9-0.6-2.1-1
				c-0.9-0.3-1.9-0.1-3.2,0.3C13.8,2.3,8.7,3.7,8,4.2C7.2,4.7,7,5.7,7.4,6.5c0.4,0.8,1.4,1.1,2,1.3C10,8,11,9,12.2,9.4
				c0.9,0.3,1.6-0.7,2-0.6c0.5,0.1,1.2,1.3,3.4,0.8c1.3-0.3,1.6-1.5,1.9-1.7C20,7.6,20.8,8.1,21.8,7.4z"/>
			<path class="st18" d="M21.6,7.3c1.1-0.6,1.4-2.2,0.8-3.2C21.8,3,21,3,20.2,2.6c-0.6-0.3-0.8-0.6-2-0.9c-0.9-0.3-1.8-0.2-3.1,0.3
				C13.8,2.4,8.7,3.8,8,4.2C7.2,4.7,7.1,5.7,7.5,6.4c0.4,0.8,1.4,1,2.1,1.2c0.5,0.2,1.4,1.2,2.7,1.5c0.9,0.2,1.5-0.8,1.9-0.7
				c0.5,0.2,1.2,1.4,3.3,0.9C18.8,9,19,7.8,19.3,7.7C19.8,7.4,20.6,7.9,21.6,7.3z"/>
			<path class="st19" d="M21.4,7.2c1.1-0.6,1.4-2.1,0.9-3c-0.6-1.1-1.4-1.1-2.2-1.5c-0.6-0.3-0.8-0.6-1.9-0.9
				c-0.9-0.3-1.8-0.2-3,0.2c-1.3,0.4-6.4,1.8-7,2.2C7.3,4.7,7.2,5.7,7.6,6.4C8,7.2,9,7.4,9.7,7.5C10.2,7.7,11,8.7,12.3,9
				c0.9,0.2,1.5-0.9,1.9-0.8c0.5,0.2,1.1,1.5,3.3,0.9c1.3-0.3,1.5-1.6,1.8-1.7C19.7,7.2,20.3,7.8,21.4,7.2z"/>
			<path class="st20" d="M21.2,7.1c1.1-0.6,1.4-1.9,0.9-2.9c-0.6-1.1-1.4-1.1-2.1-1.4c-0.6-0.2-0.7-0.5-1.8-0.9
				c-0.8-0.3-1.7-0.2-2.9,0.2c-1.3,0.4-6.5,1.8-7,2.1C7.3,4.6,7.2,5.7,7.6,6.3c0.5,0.7,1.5,0.9,2.2,1.1c0.5,0.1,1.2,1.1,2.4,1.4
				c0.9,0.2,1.5-1,1.8-0.8c0.5,0.2,1,1.6,3.2,1c1.3-0.3,1.5-1.6,1.7-1.7C19.5,7,20.1,7.6,21.2,7.1z"/>
			<path class="st21" d="M21,7c1.1-0.5,1.4-1.8,0.9-2.7c-0.6-1-1.3-1-2.1-1.4C19.2,2.7,19.2,2.4,18,2c-0.8-0.3-1.6-0.3-2.8,0.2
				c-1.2,0.4-6.5,1.8-7,2C7.4,4.6,7.3,5.6,7.7,6.3C8.2,7,9.3,7.2,10,7.3c0.4,0.1,1.1,1.1,2.3,1.3c0.9,0.2,1.4-1,1.8-0.9
				c0.5,0.2,0.9,1.6,3.2,1.1c1.3-0.3,1.4-1.6,1.7-1.7C19.4,6.8,19.9,7.5,21,7z"/>
			<path class="st22" d="M20.7,6.9c1.1-0.5,1.4-1.6,0.9-2.6c-0.6-1-1.3-1-2-1.3c-0.5-0.2-0.5-0.5-1.7-0.9c-0.8-0.3-1.5-0.3-2.7,0.2
				c-1.2,0.4-6.5,1.8-7,2C7.4,4.6,7.3,5.6,7.8,6.3C8.3,7,9.4,7.1,10.2,7.2c0.4,0,0.9,1,2.1,1.3c0.8,0.2,1.4-1.1,1.7-1
				c0.4,0.2,0.9,1.7,3.1,1.1c1.3-0.3,1.4-1.6,1.6-1.8C19.2,6.6,19.7,7.3,20.7,6.9z"/>
		</g>
		<path class="st28" d="M19.9,2.7c-0.1,0-0.2,0-0.3,0c-0.3-1-1.3-1.7-2.4-1.7c-0.5,0-1,0.2-1.4,0.4c-0.3-0.8-1-1.3-1.9-1.3
			c-1,0-1.8,0.7-1.9,1.6c-0.3-0.2-0.6-0.3-1-0.3c-0.8,0-1.5,0.6-1.6,1.4c0,0,0,0,0,0C8.1,2.8,7,3.8,7,5.1c0,1.3,1.1,2.3,2.3,2.3
			c0.4,0,0.8-0.1,1.1-0.3c0.1,0.8,0.8,1.4,1.7,1.4c0.7,0,1.2-0.4,1.5-1c0.5,0.8,1.4,1.3,2.4,1.3c1.3,0,2.4-0.8,2.7-2
			c0.3,0.2,0.7,0.3,1,0.3c1.2,0,2.3-1,2.3-2.3C22.1,3.7,21.1,2.7,19.9,2.7z"/>
		<path class="st35" d="M19.9,2.7c-0.1,0-0.2,0-0.3,0c-0.3-1-1.3-1.7-2.4-1.7c-0.5,0-1,0.2-1.4,0.4c-0.3-0.8-1-1.3-1.9-1.3
			c-1,0-1.8,0.7-1.9,1.6c-0.3-0.2-0.6-0.3-1-0.3c-0.8,0-1.5,0.6-1.6,1.4c0,0,0,0,0,0c-1.3,0-2.3,1.1-2.3,2.3c0,1.3,1.1,2.3,2.3,2.3
			c0.4,0,0.8-0.1,1.1-0.3c0.1,0.8,0.8,1.4,1.7,1.4c0.7,0,1.2-0.4,1.5-1C14.3,8.5,15.2,9,16.2,9c1.3,0,2.4-0.8,2.7-2
			c0.3,0.2,0.7,0.3,1,0.3c1.2,0,2.3-1,2.3-2.3S21.2,2.7,19.9,2.7z"/>
	</g>
	<g>
		<g>
			<path class="st1" d="M16.3,12.3c0.7-1.1,0.4-3.1-0.1-3.8c-0.7-0.9-1.6-1.3-2.2-1.7c-0.6-0.3-2-0.9-2.8-0.9
				c-1.1,0-1.7,0.4-2.6,0.7C7.6,6.8,6,8.3,5.1,9.3c-1.1,1.2-0.8,2.9-0.5,3.2c0.5,0.6,1.1,1.3,1.9,1.6c0.7,0.4,1.4,0.3,1.9,0.4
				c0.4,0,0.9,0.2,2,0c0.8-0.2,1.1-0.2,1.5-0.3C12.7,14,15.4,13.6,16.3,12.3z"/>
			<path class="st2" d="M16.1,12.2c0.7-1.1,0.4-3-0.1-3.7c-0.7-0.9-1.6-1.3-2.2-1.6C13.3,6.6,11.9,6,11.1,6c-1.1,0-1.7,0.4-2.6,0.6
				C7.6,6.9,6,8.4,5.1,9.3c-1,1.1-0.8,2.8-0.5,3.2c0.5,0.6,1.1,1.2,1.9,1.6c0.7,0.3,1.4,0.3,1.9,0.3c0.4,0,0.9,0.2,2,0
				c0.8-0.2,1.1-0.2,1.5-0.3C12.7,13.9,15.2,13.5,16.1,12.2z"/>
			<path class="st3" d="M16,12.2c0.7-1,0.5-2.9,0-3.6c-0.7-0.9-1.6-1.3-2.2-1.6c-0.6-0.3-1.9-0.9-2.7-0.9c-1.1,0-1.7,0.4-2.5,0.6
				C7.6,6.9,6,8.4,5.2,9.3c-1,1.1-0.8,2.7-0.5,3.1c0.5,0.6,1,1.2,1.8,1.5c0.7,0.3,1.4,0.3,1.9,0.3c0.4,0,0.9,0.2,2,0
				c0.8-0.2,1.2-0.2,1.5-0.3C12.6,13.7,15.1,13.4,16,12.2z"/>
			<path class="st4" d="M15.8,12.1c0.7-1,0.5-2.8,0-3.6c-0.6-0.9-1.6-1.3-2.2-1.6c-0.6-0.3-1.8-0.9-2.6-0.9c-1,0-1.7,0.3-2.5,0.6
				c-1,0.3-2.5,1.7-3.3,2.6c-0.9,1-0.9,2.6-0.6,3c0.5,0.6,1,1.2,1.8,1.5c0.8,0.3,1.3,0.2,1.8,0.3c0.4,0,0.9,0.2,2,0
				c0.8-0.2,1.2-0.2,1.5-0.3C12.6,13.6,14.9,13.3,15.8,12.1z"/>
			<path class="st5" d="M15.7,12.1c0.7-1,0.6-2.7,0.1-3.5c-0.6-0.9-1.5-1.3-2.1-1.6C13,6.8,11.8,6.2,11,6.2c-1,0-1.6,0.3-2.5,0.5
				C7.6,7,6.1,8.4,5.3,9.3c-0.9,1-0.9,2.6-0.6,3c0.4,0.6,1,1.1,1.8,1.4c0.8,0.3,1.3,0.2,1.8,0.2c0.4,0,0.9,0.2,2,0
				c0.8-0.2,1.2-0.3,1.5-0.3C12.6,13.5,14.8,13.2,15.7,12.1z"/>
			<path class="st6" d="M15.5,12c0.7-0.9,0.6-2.6,0.1-3.4c-0.6-0.9-1.5-1.2-2.1-1.5c-0.6-0.3-1.7-0.9-2.5-0.9c-1,0-1.6,0.3-2.5,0.5
				C7.6,7,6.1,8.5,5.4,9.3c-0.9,0.9-0.9,2.5-0.6,2.9c0.4,0.5,0.9,1.1,1.7,1.4c0.8,0.3,1.3,0.1,1.8,0.2c0.4,0,0.9,0.2,2,0
				c0.8-0.2,1.2-0.3,1.5-0.3C12.5,13.3,14.7,13.1,15.5,12z"/>
			<path class="st7" d="M15.4,12c0.7-0.9,0.7-2.5,0.2-3.3c-0.6-0.9-1.5-1.2-2.1-1.5C12.9,7,11.7,6.3,11,6.3C10,6.2,9.3,6.6,8.5,6.8
				C7.6,7.1,6.1,8.5,5.4,9.2c-0.8,0.9-1,2.4-0.6,2.8c0.4,0.5,0.9,1.1,1.7,1.3c0.8,0.3,1.3,0.1,1.8,0.2c0.4,0.1,0.9,0.2,2,0
				c0.8-0.2,1.2-0.3,1.5-0.3C12.5,13.2,14.5,13,15.4,12z"/>
			<path class="st8" d="M15.2,11.9c0.7-0.8,0.7-2.4,0.2-3.2c-0.6-1-1.5-1.2-2.1-1.5c-0.5-0.3-1.6-0.9-2.4-1C10,6.3,9.3,6.6,8.5,6.8
				c-0.9,0.3-2.3,1.7-3,2.4c-0.8,0.9-1,2.3-0.6,2.8c0.4,0.5,0.9,1.1,1.7,1.3c0.8,0.2,1.3,0.1,1.7,0.1c0.4,0.1,0.9,0.2,2,0
				c0.8-0.2,1.2-0.3,1.5-0.3C12.4,13.1,14.4,12.9,15.2,11.9z"/>
			<path class="st9" d="M15,11.9c0.7-0.8,0.7-2.3,0.3-3.1c-0.6-1-1.5-1.2-2.1-1.4c-0.5-0.2-1.6-0.9-2.3-1C10,6.4,9.3,6.6,8.5,6.9
				C7.5,7.1,6.2,8.5,5.5,9.2c-0.8,0.8-1,2.2-0.6,2.7c0.4,0.5,0.8,1,1.6,1.3c0.8,0.2,1.3,0,1.7,0.1c0.4,0.1,0.9,0.2,2,0
				c0.8-0.1,1.2-0.3,1.5-0.3C12.4,12.9,14.2,12.8,15,11.9z"/>
			<path class="st10" d="M14.9,11.9c0.7-0.8,0.8-2.2,0.3-3c-0.6-1-1.5-1.1-2.1-1.4c-0.5-0.2-1.5-0.9-2.3-1C10,6.4,9.3,6.7,8.4,6.9
				C7.5,7.2,6.2,8.5,5.6,9.2c-0.7,0.8-1,2.1-0.6,2.6c0.4,0.5,0.8,1,1.6,1.2c0.8,0.2,1.3,0,1.7,0.1c0.4,0.1,0.9,0.2,2,0
				c0.8-0.1,1.2-0.3,1.5-0.3C12.3,12.8,14.1,12.7,14.9,11.9z"/>
			<path class="st11" d="M14.7,11.8c0.7-0.7,0.8-2.1,0.4-2.9c-0.6-1-1.5-1.1-2.1-1.4c-0.5-0.2-1.5-0.9-2.2-1C10,6.5,9.2,6.7,8.4,6.9
				C7.5,7.2,6.2,8.6,5.6,9.2C4.9,9.9,4.6,11.2,5,11.8c0.4,0.4,0.8,1,1.6,1.2c0.8,0.2,1.3,0,1.7,0c0.4,0.1,0.9,0.2,1.9,0
				c0.8-0.1,1.2-0.3,1.5-0.3C12.3,12.7,13.9,12.6,14.7,11.8z"/>
			<path class="st12" d="M14.6,11.8c0.7-0.7,0.9-2,0.4-2.8c-0.5-1-1.5-1.1-2.1-1.4c-0.5-0.2-1.4-0.9-2.1-1C10,6.5,9.2,6.7,8.4,7
				C7.5,7.2,6.2,8.6,5.7,9.2C5,9.9,4.6,11.1,5,11.7c0.3,0.4,0.8,0.9,1.5,1.1c0.8,0.2,1.3-0.1,1.6,0c0.4,0.1,0.9,0.2,1.9,0
				c0.8-0.1,1.3-0.3,1.5-0.3C12.3,12.5,13.8,12.5,14.6,11.8z"/>
			<path class="st13" d="M14.4,11.7c0.7-0.7,0.9-1.9,0.5-2.7c-0.5-1-1.5-1.1-2.1-1.3c-0.5-0.2-1.4-0.9-2.1-1C10,6.6,9.2,6.8,8.4,7
				C7.5,7.3,6.3,8.6,5.7,9.2C5.1,9.8,4.6,11,5.1,11.6c0.3,0.4,0.7,0.9,1.5,1.1c0.8,0.2,1.3-0.1,1.6,0c0.3,0.1,0.9,0.2,1.9,0.1
				c0.8-0.1,1.3-0.3,1.5-0.3C12.2,12.4,13.6,12.4,14.4,11.7z"/>
			<path class="st14" d="M14.3,11.7c0.7-0.6,1-1.8,0.5-2.6c-0.5-1-1.5-1.1-2-1.3c-0.4-0.2-1.3-0.9-2-1C10,6.6,9.2,6.8,8.4,7.1
				C7.5,7.3,6.3,8.6,5.8,9.1c-0.6,0.6-1.1,1.8-0.7,2.4c0.3,0.4,0.7,0.9,1.5,1c0.8,0.1,1.2-0.1,1.6-0.1c0.3,0.1,0.9,0.2,1.9,0.1
				c0.8-0.1,1.3-0.3,1.5-0.3C12.2,12.3,13.5,12.3,14.3,11.7z"/>
			<path class="st15" d="M14.1,11.6c0.7-0.6,1-1.7,0.6-2.5c-0.5-1-1.5-1-2-1.3c-0.4-0.2-1.3-0.9-2-1C10,6.7,9.1,6.9,8.4,7.1
				c-0.9,0.3-2,1.6-2.5,2c-0.5,0.6-1.2,1.7-0.7,2.3c0.3,0.4,0.7,0.8,1.5,1c0.8,0.1,1.2-0.2,1.6-0.1c0.3,0.1,0.8,0.2,1.9,0.1
				c0.8-0.1,1.3-0.3,1.5-0.3C12.1,12.1,13.4,12.2,14.1,11.6z"/>
			<path class="st16" d="M14,11.6c0.7-0.5,1-1.6,0.6-2.4c-0.5-1-1.5-1-2-1.3c-0.4-0.2-1.2-0.9-1.9-1.1c-0.7-0.1-1.6,0-2.3,0.3
				c-0.9,0.3-2,1.5-2.4,2c-0.5,0.5-1.2,1.6-0.7,2.2c0.3,0.3,0.6,0.8,1.4,0.9c0.8,0.1,1.2-0.2,1.5-0.1c0.3,0.1,0.8,0.2,1.9,0.1
				c0.8-0.1,1.3-0.3,1.5-0.3C12.1,12,13.2,12.2,14,11.6z"/>
			<path class="st17" d="M13.8,11.5c0.7-0.5,1.1-1.5,0.7-2.3c-0.5-1-1.5-1-2-1.2c-0.4-0.2-1.2-0.9-1.8-1.1c-0.7-0.1-1.6,0-2.3,0.2
				C7.5,7.4,6.4,8.7,6,9.1c-0.5,0.5-1.2,1.6-0.7,2.2c0.3,0.3,0.6,0.8,1.4,0.9c0.8,0.1,1.2-0.2,1.5-0.2c0.3,0.1,0.8,0.2,1.9,0.1
				c0.8-0.1,1.3-0.3,1.5-0.3C12,11.9,13.1,12.1,13.8,11.5z"/>
			<path class="st18" d="M13.7,11.5c0.7-0.5,1.1-1.3,0.7-2.2c-0.5-1-1.5-1-2-1.2c-0.4-0.2-1.1-1-1.8-1.1C10,6.9,9.1,7,8.3,7.2
				C7.4,7.5,6.4,8.7,6,9.1c-0.4,0.4-1.3,1.5-0.7,2.1c0.2,0.3,0.6,0.8,1.4,0.8c0.8,0.1,1.2-0.3,1.5-0.2c0.3,0.1,0.8,0.2,1.9,0.1
				c0.9-0.1,1.3-0.3,1.5-0.3C12,11.7,12.9,12,13.7,11.5z"/>
			<path class="st19" d="M13.5,11.4c0.7-0.4,1.2-1.2,0.8-2.1c-0.5-1-1.5-0.9-2-1.2c-0.4-0.2-1.1-1-1.7-1.1C10,6.9,9,7,8.3,7.2
				C7.4,7.5,6.4,8.7,6.1,9.1c-0.4,0.4-1.3,1.4-0.7,2c0.2,0.3,0.5,0.7,1.3,0.8c0.8,0.1,1.2-0.3,1.4-0.2c0.3,0.1,0.8,0.2,1.9,0.1
				c0.9-0.1,1.3-0.3,1.5-0.3C12,11.6,12.8,11.9,13.5,11.4z"/>
			<path class="st20" d="M13.4,11.4c0.7-0.4,1.2-1.1,0.8-2c-0.5-1-1.5-0.9-2-1.2c-0.4-0.2-1.1-1-1.7-1.1C10,7,9,7.1,8.3,7.3
				C7.4,7.5,6.4,8.7,6.1,9c-0.4,0.3-1.3,1.3-0.7,2c0.2,0.3,0.5,0.7,1.3,0.7c0.8,0.1,1.2-0.3,1.4-0.3c0.3,0.1,0.8,0.2,1.9,0.1
				c0.9-0.1,1.3-0.4,1.5-0.3C11.9,11.5,12.6,11.8,13.4,11.4z"/>
			<path class="st21" d="M13.2,11.3c0.7-0.4,1.3-1,0.9-1.9c-0.4-1-1.5-0.9-2-1.1c-0.4-0.2-1-1-1.6-1.1C10,7,9,7.1,8.2,7.3
				C7.4,7.6,6.5,8.8,6.2,9c-0.3,0.3-1.3,1.2-0.7,1.9c0.2,0.2,0.5,0.7,1.3,0.7c0.8,0,1.2-0.4,1.4-0.3c0.3,0.1,0.8,0.2,1.9,0.1
				c0.9-0.1,1.4-0.4,1.5-0.3C11.9,11.3,12.5,11.7,13.2,11.3z"/>
			<path class="st22" d="M13.1,11.3c0.7-0.3,1.3-0.9,0.9-1.8c-0.4-1-1.5-0.9-1.9-1.1c-0.3-0.1-1-1-1.6-1.1C9.9,7.1,8.9,7.1,8.2,7.3
				C7.4,7.6,6.5,8.8,6.2,9C6,9.3,4.9,10.1,5.5,10.9c0.2,0.2,0.4,0.6,1.2,0.6c0.9,0,1.2-0.4,1.4-0.3c0.3,0.1,0.8,0.2,1.9,0.1
				c0.9-0.1,1.4-0.4,1.5-0.3C11.8,11.2,12.4,11.6,13.1,11.3z"/>
		</g>
		<path class="st28" d="M12.5,8.2c-0.2,0-0.4,0-0.6,0.1c-0.2-1.2-1.2-2.1-2.5-2.1C8.3,6.1,7.2,6.9,6.9,7.9c0,0,0,0,0,0
			C5.8,7.9,5,8.7,4.9,9.7c-0.1,1,0.7,1.9,1.7,1.9c0.5,0,1-0.2,1.4-0.5c0.4,0.2,0.8,0.3,1.2,0.4c0.8,0,1.5-0.3,2-0.8
			c0.3,0.3,0.7,0.6,1.1,0.6c0.8,0,1.6-0.6,1.6-1.5C14,9,13.4,8.3,12.5,8.2z"/>
		<path class="st36" d="M12.6,8.3c-0.2,0-0.4,0-0.6,0.1c-0.2-1.2-1.2-2.1-2.5-2.1C8.4,6.2,7.3,6.9,6.9,8c0,0,0,0,0,0
			C5.9,8,5,8.7,5,9.8c-0.1,1,0.7,1.9,1.7,1.9c0.5,0,1-0.2,1.4-0.5c0.4,0.2,0.8,0.3,1.2,0.4c0.8,0,1.5-0.3,2-0.8
			c0.3,0.3,0.7,0.6,1.1,0.6c0.8,0,1.6-0.6,1.6-1.5C14.1,9.1,13.4,8.3,12.6,8.3z"/>
	</g>
	<g>
		<g>
			<g>
				<path class="st1" d="M18.8,18.4c0-0.7,0.8-2.1,1.4-2.2c0.7,0,2,1.4,1.9,2.3c-0.1,1.2-1.5,1.4-2.2,1.2
					C19.1,19.5,18.8,18.7,18.8,18.4z"/>
				<path class="st37" d="M20.2,16.2c0.6,0,1.9,1.4,1.8,2.3c-0.1,1.1-1.5,1.4-2.2,1.1c-0.7-0.2-1-0.9-1-1.3
					C18.8,17.7,19.6,16.3,20.2,16.2z"/>
				<path class="st38" d="M20.2,16.2c0.6,0,1.9,1.3,1.8,2.3c-0.1,1.1-1.5,1.3-2.1,1.1c-0.7-0.2-1-0.9-1-1.3
					C18.8,17.7,19.6,16.3,20.2,16.2z"/>
				<path class="st39" d="M20.2,16.3c0.6,0,1.8,1.3,1.7,2.2c-0.1,1.1-1.4,1.3-2.1,1.1c-0.7-0.2-1-0.9-1-1.3
					C18.8,17.7,19.6,16.3,20.2,16.3z"/>
				<path class="st40" d="M20.1,16.3c0.6,0,1.8,1.3,1.7,2.2c-0.1,1-1.4,1.3-2,1.1c-0.7-0.2-0.9-0.9-1-1.2
					C18.8,17.7,19.6,16.3,20.1,16.3z"/>
				<path class="st41" d="M20.1,16.3c0.6,0,1.7,1.3,1.6,2.1c-0.1,1-1.3,1.2-1.9,1.1c-0.7-0.2-0.9-0.9-0.9-1.2
					C18.9,17.7,19.6,16.4,20.1,16.3z"/>
				<path class="st42" d="M20.1,16.3c0.6,0,1.7,1.2,1.6,2.1c-0.1,1-1.3,1.2-1.9,1c-0.7-0.2-0.9-0.8-0.9-1.2
					C18.9,17.7,19.6,16.4,20.1,16.3z"/>
				<path class="st43" d="M20.1,16.4c0.5,0,1.7,1.2,1.6,2.1c-0.1,1-1.2,1.2-1.8,1c-0.6-0.2-0.9-0.8-0.9-1.2
					C18.9,17.7,19.6,16.4,20.1,16.4z"/>
				<path class="st44" d="M20.1,16.4c0.5,0,1.6,1.2,1.5,2c-0.1,0.9-1.2,1.2-1.8,1c-0.6-0.2-0.9-0.8-0.9-1.1
					C18.9,17.7,19.6,16.4,20.1,16.4z"/>
				<path class="st45" d="M20.1,16.4c0.5,0,1.6,1.2,1.5,2c-0.1,0.9-1.2,1.1-1.7,1c-0.6-0.2-0.9-0.8-0.9-1.1
					C18.9,17.7,19.6,16.5,20.1,16.4z"/>
				<path class="st46" d="M20.1,16.4c0.5,0,1.5,1.2,1.4,1.9c-0.1,0.9-1.1,1.1-1.7,0.9c-0.6-0.2-0.8-0.8-0.9-1.1
					C19,17.7,19.6,16.5,20.1,16.4z"/>
				<path class="st47" d="M20.1,16.5c0.5,0,1.5,1.1,1.4,1.9c-0.1,0.9-1.1,1.1-1.6,0.9c-0.6-0.2-0.8-0.7-0.8-1
					C19,17.7,19.6,16.5,20.1,16.5z"/>
				<path class="st48" d="M20,16.5c0.5,0,1.4,1.1,1.3,1.9c-0.1,0.8-1,1-1.6,0.9c-0.6-0.1-0.8-0.7-0.8-1C19,17.7,19.6,16.5,20,16.5z"
					/>
				<path class="st49" d="M20,16.5c0.4,0,1.4,1.1,1.3,1.8c-0.1,0.8-1,1-1.5,0.9c-0.6-0.1-0.8-0.7-0.8-1C19,17.7,19.6,16.5,20,16.5z"
					/>
				<path class="st50" d="M20,16.5c0.4,0,1.3,1.1,1.2,1.8c-0.1,0.8-0.9,1-1.4,0.9c-0.6-0.1-0.8-0.7-0.8-1C19,17.7,19.6,16.6,20,16.5
					z"/>
				<path class="st51" d="M20,16.6c0.4,0,1.3,1,1.2,1.7c-0.1,0.7-0.9,1-1.4,0.8c-0.6-0.1-0.8-0.7-0.8-0.9C19,17.7,19.6,16.6,20,16.6
					z"/>
				<path class="st52" d="M20,16.6c0.4,0,1.2,1,1.2,1.7c-0.1,0.7-0.9,0.9-1.3,0.8c-0.5-0.1-0.7-0.6-0.7-0.9
					C19.1,17.7,19.6,16.6,20,16.6z"/>
				<path class="st53" d="M20,16.6c0.4,0,1.2,1,1.1,1.6c-0.1,0.7-0.8,0.9-1.3,0.8c-0.5-0.1-0.7-0.6-0.7-0.9
					C19.1,17.8,19.6,16.6,20,16.6z"/>
				<path class="st54" d="M20,16.6c0.4,0,1.1,1,1.1,1.6c-0.1,0.7-0.8,0.9-1.2,0.8c-0.5-0.1-0.7-0.6-0.7-0.9
					C19.1,17.8,19.6,16.7,20,16.6z"/>
				<path class="st55" d="M20,16.7c0.3,0,1.1,0.9,1,1.6c-0.1,0.6-0.7,0.8-1.2,0.8c-0.5-0.1-0.7-0.6-0.7-0.8
					C19.1,17.8,19.6,16.7,20,16.7z"/>
				<path class="st56" d="M19.9,16.7c0.3,0,1,0.9,1,1.5c-0.1,0.6-0.7,0.8-1.1,0.7c-0.5-0.1-0.7-0.6-0.7-0.8
					C19.1,17.8,19.6,16.7,19.9,16.7z"/>
				<path class="st57" d="M19.9,16.7c0.3,0,1,0.9,0.9,1.5c-0.1,0.6-0.6,0.8-1.1,0.7c-0.5-0.1-0.6-0.6-0.7-0.8
					C19.2,17.8,19.6,16.7,19.9,16.7z"/>
				<path class="st58" d="M19.9,16.8c0.3,0,0.9,0.9,0.9,1.4c-0.1,0.5-0.6,0.8-1,0.7c-0.5-0.1-0.6-0.5-0.6-0.7
					C19.2,17.8,19.6,16.8,19.9,16.8z"/>
				<path class="st59" d="M19.9,16.8c0.3,0,0.9,0.9,0.8,1.4c-0.1,0.5-0.6,0.7-0.9,0.7c-0.5-0.1-0.6-0.5-0.6-0.7
					C19.2,17.8,19.6,16.8,19.9,16.8z"/>
				<path class="st60" d="M19.9,16.8c0.3,0,0.9,0.8,0.8,1.4c0,0.5-0.5,0.7-0.9,0.7c-0.5-0.1-0.6-0.5-0.6-0.7
					C19.2,17.8,19.6,16.8,19.9,16.8z"/>
				<path class="st61" d="M19.9,16.8c0.2,0,0.8,0.8,0.8,1.3c0,0.5-0.5,0.7-0.8,0.6c-0.5,0-0.6-0.5-0.6-0.7
					C19.2,17.8,19.6,16.8,19.9,16.8z"/>
				<path class="st62" d="M19.9,16.9c0.2,0,0.8,0.8,0.7,1.3c0,0.4-0.4,0.6-0.8,0.6c-0.4,0-0.6-0.5-0.6-0.6
					C19.2,17.8,19.6,16.9,19.9,16.9z"/>
				<path class="st63" d="M19.9,16.9c0.2,0,0.7,0.8,0.7,1.2c0,0.4-0.4,0.6-0.7,0.6c-0.4,0-0.5-0.4-0.5-0.6
					C19.3,17.8,19.7,16.9,19.9,16.9z"/>
				<path class="st64" d="M19.8,16.9c0.2,0,0.7,0.7,0.6,1.2c0,0.4-0.3,0.6-0.7,0.6c-0.4,0-0.5-0.4-0.5-0.6
					C19.3,17.8,19.7,16.9,19.8,16.9z"/>
				<path class="st65" d="M19.8,16.9c0.2,0,0.6,0.7,0.6,1.2c0,0.3-0.3,0.6-0.6,0.5c-0.4,0-0.5-0.4-0.5-0.6
					C19.3,17.8,19.7,16.9,19.8,16.9z"/>
				<path class="st66" d="M19.8,17c0.2,0,0.6,0.7,0.5,1.1c0,0.3-0.2,0.5-0.5,0.5c-0.4,0-0.5-0.4-0.5-0.5C19.3,17.8,19.7,17,19.8,17z
					"/>
				<path class="st67" d="M19.8,17c0.1,0,0.5,0.7,0.5,1.1c0,0.3-0.2,0.5-0.5,0.5c-0.4,0-0.5-0.4-0.5-0.5C19.3,17.8,19.7,17,19.8,17z
					"/>
			</g>
			<path class="st68" d="M20.3,17.9c0,0.4-0.4,0.8-0.8,0.8c-0.4,0-0.8-0.4-0.8-0.8c0-0.8,0.8-1.8,0.8-1.8l0.1,0c0,0,0,0,0,0.1
				C19.7,16.4,20.3,17.3,20.3,17.9z"/>
			<path class="st69" d="M20.4,17.9c0,0.4-0.4,0.8-0.8,0.8c-0.4,0-0.8-0.4-0.8-0.8c0-0.7,0.8-1.8,0.8-1.8S20.4,17.2,20.4,17.9z"/>
		</g>
		<g>
			<g>
				<path class="st1" d="M21.9,15.3c0-0.5,0.6-1.6,1-1.6c0.5,0,1.5,1,1.4,1.8c-0.1,0.9-1.2,1-1.7,0.9C22.1,16.2,21.9,15.6,21.9,15.3
					z"/>
				<path class="st37" d="M22.9,13.8c0.5,0,1.4,1,1.4,1.7c-0.1,0.8-1.1,1-1.6,0.9c-0.5-0.2-0.7-0.7-0.8-1
					C21.9,14.8,22.5,13.8,22.9,13.8z"/>
				<path class="st38" d="M22.9,13.8c0.5,0,1.4,1,1.3,1.7c-0.1,0.8-1.1,1-1.6,0.8c-0.5-0.2-0.7-0.7-0.7-1
					C21.9,14.9,22.5,13.8,22.9,13.8z"/>
				<path class="st39" d="M22.9,13.8c0.4,0,1.4,1,1.3,1.7c-0.1,0.8-1.1,1-1.5,0.8c-0.5-0.2-0.7-0.7-0.7-0.9
					C21.9,14.9,22.5,13.8,22.9,13.8z"/>
				<path class="st40" d="M22.9,13.8c0.4,0,1.3,1,1.3,1.6c-0.1,0.8-1,0.9-1.5,0.8c-0.5-0.2-0.7-0.7-0.7-0.9
					C21.9,14.9,22.5,13.8,22.9,13.8z"/>
				<path class="st41" d="M22.9,13.8c0.4,0,1.3,0.9,1.2,1.6c-0.1,0.8-1,0.9-1.5,0.8c-0.5-0.1-0.7-0.6-0.7-0.9
					C21.9,14.9,22.5,13.9,22.9,13.8z"/>
				<path class="st42" d="M22.8,13.8c0.4,0,1.3,0.9,1.2,1.6c-0.1,0.7-1,0.9-1.4,0.8c-0.5-0.1-0.7-0.6-0.7-0.9
					C21.9,14.9,22.5,13.9,22.8,13.8z"/>
				<path class="st43" d="M22.8,13.9c0.4,0,1.2,0.9,1.2,1.5c-0.1,0.7-0.9,0.9-1.4,0.8C22.1,16,22,15.5,22,15.3
					C21.9,14.9,22.5,13.9,22.8,13.9z"/>
				<path class="st44" d="M22.8,13.9c0.4,0,1.2,0.9,1.1,1.5c-0.1,0.7-0.9,0.9-1.3,0.7C22.2,16,22,15.5,22,15.3
					C21.9,14.9,22.5,13.9,22.8,13.9z"/>
				<path class="st45" d="M22.8,13.9c0.4,0,1.2,0.9,1.1,1.5c-0.1,0.7-0.9,0.8-1.3,0.7C22.2,16,22,15.5,22,15.3
					C22,14.9,22.5,13.9,22.8,13.9z"/>
				<path class="st46" d="M22.8,13.9c0.4,0,1.1,0.9,1.1,1.4c-0.1,0.7-0.8,0.8-1.2,0.7C22.2,16,22,15.5,22,15.3
					C22,14.9,22.5,13.9,22.8,13.9z"/>
				<path class="st47" d="M22.8,13.9c0.4,0,1.1,0.8,1,1.4C23.8,16,23,16.2,22.6,16c-0.4-0.1-0.6-0.6-0.6-0.8
					C22,14.9,22.5,14,22.8,13.9z"/>
				<path class="st48" d="M22.8,14c0.3,0,1.1,0.8,1,1.4C23.7,16,23,16.1,22.6,16c-0.4-0.1-0.6-0.5-0.6-0.8C22,14.9,22.5,14,22.8,14z
					"/>
				<path class="st49" d="M22.8,14c0.3,0,1,0.8,1,1.4c-0.1,0.6-0.7,0.8-1.1,0.7c-0.4-0.1-0.6-0.5-0.6-0.7C22,14.9,22.5,14,22.8,14z"
					/>
				<path class="st50" d="M22.8,14c0.3,0,1,0.8,0.9,1.3c-0.1,0.6-0.7,0.7-1.1,0.6c-0.4-0.1-0.6-0.5-0.6-0.7C22,14.9,22.5,14,22.8,14
					z"/>
				<path class="st51" d="M22.8,14c0.3,0,1,0.8,0.9,1.3c-0.1,0.6-0.7,0.7-1,0.6c-0.4-0.1-0.6-0.5-0.6-0.7C22,14.9,22.5,14,22.8,14z"
					/>
				<path class="st52" d="M22.8,14c0.3,0,0.9,0.8,0.9,1.3c-0.1,0.5-0.6,0.7-1,0.6c-0.4-0.1-0.5-0.5-0.6-0.7
					C22.1,14.9,22.5,14,22.8,14z"/>
				<path class="st53" d="M22.7,14.1c0.3,0,0.9,0.7,0.8,1.2c-0.1,0.5-0.6,0.7-1,0.6c-0.4-0.1-0.5-0.5-0.5-0.7
					C22.1,14.9,22.5,14.1,22.7,14.1z"/>
				<path class="st54" d="M22.7,14.1c0.3,0,0.8,0.7,0.8,1.2c-0.1,0.5-0.6,0.6-0.9,0.6c-0.4-0.1-0.5-0.5-0.5-0.6
					C22.1,14.9,22.5,14.1,22.7,14.1z"/>
				<path class="st55" d="M22.7,14.1c0.3,0,0.8,0.7,0.8,1.2c0,0.5-0.5,0.6-0.9,0.6c-0.4-0.1-0.5-0.4-0.5-0.6
					C22.1,14.9,22.5,14.1,22.7,14.1z"/>
				<path class="st56" d="M22.7,14.1c0.2,0,0.8,0.7,0.7,1.1c0,0.4-0.5,0.6-0.8,0.6c-0.4-0.1-0.5-0.4-0.5-0.6
					C22.1,14.9,22.5,14.1,22.7,14.1z"/>
				<path class="st57" d="M22.7,14.1c0.2,0,0.7,0.7,0.7,1.1c0,0.4-0.5,0.6-0.8,0.5c-0.4-0.1-0.5-0.4-0.5-0.6
					C22.1,14.9,22.5,14.1,22.7,14.1z"/>
				<path class="st58" d="M22.7,14.1c0.2,0,0.7,0.7,0.7,1.1c0,0.4-0.4,0.6-0.7,0.5c-0.4-0.1-0.5-0.4-0.5-0.6
					C22.1,14.9,22.5,14.2,22.7,14.1z"/>
				<path class="st59" d="M22.7,14.2c0.2,0,0.7,0.6,0.6,1c0,0.4-0.4,0.5-0.7,0.5c-0.4,0-0.5-0.4-0.5-0.5
					C22.2,14.9,22.5,14.2,22.7,14.2z"/>
				<path class="st60" d="M22.7,14.2c0.2,0,0.6,0.6,0.6,1c0,0.4-0.4,0.5-0.7,0.5c-0.3,0-0.4-0.4-0.4-0.5
					C22.2,14.9,22.5,14.2,22.7,14.2z"/>
				<path class="st61" d="M22.7,14.2c0.2,0,0.6,0.6,0.6,1c0,0.3-0.3,0.5-0.6,0.5c-0.3,0-0.4-0.4-0.4-0.5
					C22.2,14.9,22.5,14.2,22.7,14.2z"/>
				<path class="st62" d="M22.7,14.2c0.2,0,0.6,0.6,0.5,1c0,0.3-0.3,0.5-0.6,0.5c-0.3,0-0.4-0.3-0.4-0.5
					C22.2,14.9,22.5,14.2,22.7,14.2z"/>
				<path class="st63" d="M22.7,14.2c0.2,0,0.5,0.6,0.5,0.9c0,0.3-0.3,0.5-0.5,0.4c-0.3,0-0.4-0.3-0.4-0.5
					C22.2,14.9,22.5,14.2,22.7,14.2z"/>
				<path class="st64" d="M22.6,14.3c0.1,0,0.5,0.6,0.5,0.9c0,0.3-0.3,0.4-0.5,0.4c-0.3,0-0.4-0.3-0.4-0.4
					C22.2,14.9,22.5,14.3,22.6,14.3z"/>
				<path class="st65" d="M22.6,14.3c0.1,0,0.5,0.5,0.4,0.9c0,0.3-0.2,0.4-0.5,0.4c-0.3,0-0.4-0.3-0.4-0.4
					C22.2,14.9,22.5,14.3,22.6,14.3z"/>
				<path class="st66" d="M22.6,14.3c0.1,0,0.4,0.5,0.4,0.8c0,0.2-0.2,0.4-0.4,0.4c-0.3,0-0.4-0.3-0.4-0.4
					C22.2,14.9,22.5,14.3,22.6,14.3z"/>
				<path class="st67" d="M22.6,14.3c0.1,0,0.4,0.5,0.4,0.8c0,0.2-0.2,0.4-0.4,0.4c-0.3,0-0.4-0.3-0.4-0.4
					C22.3,14.9,22.5,14.3,22.6,14.3z"/>
			</g>
			<path class="st68" d="M23,15c0,0.3-0.3,0.6-0.6,0.6c-0.3,0-0.6-0.3-0.6-0.6c0-0.6,0.6-1.3,0.6-1.3l0,0c0,0,0,0,0,0
				C22.6,13.9,23,14.6,23,15z"/>
			<path class="st69" d="M23,15c0,0.3-0.3,0.6-0.6,0.6c-0.3,0-0.6-0.3-0.6-0.6c0-0.5,0.6-1.4,0.6-1.4S23,14.5,23,15z"/>
		</g>
		<g>
			<g>
				<path class="st1" d="M15.9,16.7c0-0.5,0.6-1.6,1-1.6c0.5,0,1.5,1,1.4,1.8c-0.1,0.9-1.2,1-1.7,0.9C16.2,17.5,15.9,17,15.9,16.7z"
					/>
				<path class="st37" d="M16.9,15.1c0.5,0,1.4,1,1.4,1.7c-0.1,0.8-1.1,1-1.6,0.9c-0.5-0.2-0.7-0.7-0.8-1
					C15.9,16.2,16.5,15.1,16.9,15.1z"/>
				<path class="st38" d="M16.9,15.1c0.5,0,1.4,1,1.3,1.7c-0.1,0.8-1.1,1-1.6,0.8c-0.5-0.2-0.7-0.7-0.7-1
					C15.9,16.2,16.5,15.1,16.9,15.1z"/>
				<path class="st39" d="M16.9,15.1c0.4,0,1.4,1,1.3,1.7c-0.1,0.8-1.1,1-1.5,0.8c-0.5-0.2-0.7-0.7-0.7-0.9
					C15.9,16.2,16.5,15.2,16.9,15.1z"/>
				<path class="st40" d="M16.9,15.1c0.4,0,1.3,1,1.3,1.6c-0.1,0.8-1,0.9-1.5,0.8c-0.5-0.2-0.7-0.7-0.7-0.9
					C16,16.2,16.5,15.2,16.9,15.1z"/>
				<path class="st41" d="M16.9,15.2c0.4,0,1.3,0.9,1.2,1.6c-0.1,0.8-1,0.9-1.5,0.8c-0.5-0.1-0.7-0.6-0.7-0.9
					C16,16.2,16.5,15.2,16.9,15.2z"/>
				<path class="st42" d="M16.9,15.2c0.4,0,1.3,0.9,1.2,1.6c-0.1,0.7-1,0.9-1.4,0.8c-0.5-0.1-0.7-0.6-0.7-0.9
					C16,16.2,16.5,15.2,16.9,15.2z"/>
				<path class="st43" d="M16.9,15.2c0.4,0,1.2,0.9,1.2,1.5c-0.1,0.7-0.9,0.9-1.4,0.8c-0.5-0.1-0.7-0.6-0.7-0.9
					C16,16.2,16.5,15.2,16.9,15.2z"/>
				<path class="st44" d="M16.9,15.2c0.4,0,1.2,0.9,1.1,1.5c-0.1,0.7-0.9,0.9-1.3,0.7c-0.5-0.1-0.7-0.6-0.7-0.8
					C16,16.2,16.5,15.2,16.9,15.2z"/>
				<path class="st45" d="M16.9,15.2c0.4,0,1.2,0.9,1.1,1.5c-0.1,0.7-0.9,0.8-1.3,0.7c-0.5-0.1-0.6-0.6-0.6-0.8
					C16,16.2,16.5,15.3,16.9,15.2z"/>
				<path class="st46" d="M16.9,15.3c0.4,0,1.1,0.9,1.1,1.4c-0.1,0.7-0.8,0.8-1.2,0.7c-0.5-0.1-0.6-0.6-0.6-0.8
					C16,16.2,16.5,15.3,16.9,15.3z"/>
				<path class="st47" d="M16.9,15.3c0.4,0,1.1,0.8,1,1.4c-0.1,0.6-0.8,0.8-1.2,0.7c-0.4-0.1-0.6-0.6-0.6-0.8
					C16,16.2,16.5,15.3,16.9,15.3z"/>
				<path class="st48" d="M16.8,15.3c0.3,0,1.1,0.8,1,1.4c-0.1,0.6-0.8,0.8-1.2,0.7c-0.4-0.1-0.6-0.5-0.6-0.8
					C16.1,16.2,16.5,15.3,16.8,15.3z"/>
				<path class="st49" d="M16.8,15.3c0.3,0,1,0.8,1,1.4c-0.1,0.6-0.7,0.8-1.1,0.7c-0.4-0.1-0.6-0.5-0.6-0.7
					C16.1,16.2,16.5,15.3,16.8,15.3z"/>
				<path class="st50" d="M16.8,15.3c0.3,0,1,0.8,0.9,1.3c-0.1,0.6-0.7,0.7-1.1,0.6c-0.4-0.1-0.6-0.5-0.6-0.7
					C16.1,16.2,16.5,15.3,16.8,15.3z"/>
				<path class="st51" d="M16.8,15.3c0.3,0,1,0.8,0.9,1.3c-0.1,0.6-0.7,0.7-1,0.6c-0.4-0.1-0.6-0.5-0.6-0.7
					C16.1,16.2,16.5,15.4,16.8,15.3z"/>
				<path class="st52" d="M16.8,15.4c0.3,0,0.9,0.8,0.9,1.3c-0.1,0.5-0.6,0.7-1,0.6c-0.4-0.1-0.6-0.5-0.6-0.7
					C16.1,16.2,16.5,15.4,16.8,15.4z"/>
				<path class="st53" d="M16.8,15.4c0.3,0,0.9,0.7,0.8,1.2c-0.1,0.5-0.6,0.7-1,0.6c-0.4-0.1-0.5-0.5-0.5-0.7
					C16.1,16.2,16.5,15.4,16.8,15.4z"/>
				<path class="st54" d="M16.8,15.4c0.3,0,0.8,0.7,0.8,1.2c-0.1,0.5-0.6,0.6-0.9,0.6c-0.4-0.1-0.5-0.5-0.5-0.6
					C16.1,16.2,16.5,15.4,16.8,15.4z"/>
				<path class="st55" d="M16.8,15.4c0.3,0,0.8,0.7,0.8,1.2c0,0.5-0.5,0.6-0.9,0.6c-0.4-0.1-0.5-0.4-0.5-0.6
					C16.2,16.2,16.5,15.4,16.8,15.4z"/>
				<path class="st56" d="M16.8,15.4c0.2,0,0.8,0.7,0.7,1.1c0,0.4-0.5,0.6-0.8,0.6c-0.4-0.1-0.5-0.4-0.5-0.6
					C16.2,16.2,16.5,15.5,16.8,15.4z"/>
				<path class="st57" d="M16.8,15.5c0.2,0,0.7,0.7,0.7,1.1c0,0.4-0.5,0.6-0.8,0.5c-0.4-0.1-0.5-0.4-0.5-0.6
					C16.2,16.2,16.5,15.5,16.8,15.5z"/>
				<path class="st58" d="M16.8,15.5c0.2,0,0.7,0.7,0.7,1.1c0,0.4-0.4,0.6-0.7,0.5c-0.4-0.1-0.5-0.4-0.5-0.6
					C16.2,16.2,16.5,15.5,16.8,15.5z"/>
				<path class="st59" d="M16.7,15.5c0.2,0,0.7,0.6,0.6,1c0,0.4-0.4,0.5-0.7,0.5c-0.4,0-0.5-0.4-0.5-0.5
					C16.2,16.2,16.5,15.5,16.7,15.5z"/>
				<path class="st60" d="M16.7,15.5c0.2,0,0.6,0.6,0.6,1c0,0.4-0.4,0.5-0.7,0.5c-0.3,0-0.4-0.4-0.4-0.5
					C16.2,16.2,16.5,15.5,16.7,15.5z"/>
				<path class="st61" d="M16.7,15.5c0.2,0,0.6,0.6,0.6,1c0,0.3-0.3,0.5-0.6,0.5c-0.3,0-0.4-0.4-0.4-0.5
					C16.2,16.2,16.5,15.5,16.7,15.5z"/>
				<path class="st62" d="M16.7,15.6c0.2,0,0.6,0.6,0.5,1c0,0.3-0.3,0.5-0.6,0.5c-0.3,0-0.4-0.3-0.4-0.5
					C16.3,16.3,16.6,15.6,16.7,15.6z"/>
				<path class="st63" d="M16.7,15.6c0.2,0,0.5,0.6,0.5,0.9c0,0.3-0.3,0.5-0.5,0.4c-0.3,0-0.4-0.3-0.4-0.5
					C16.3,16.3,16.6,15.6,16.7,15.6z"/>
				<path class="st64" d="M16.7,15.6c0.1,0,0.5,0.6,0.5,0.9c0,0.3-0.3,0.4-0.5,0.4c-0.3,0-0.4-0.3-0.4-0.4
					C16.3,16.3,16.6,15.6,16.7,15.6z"/>
				<path class="st65" d="M16.7,15.6c0.1,0,0.5,0.5,0.4,0.9c0,0.3-0.2,0.4-0.5,0.4c-0.3,0-0.4-0.3-0.4-0.4
					C16.3,16.3,16.6,15.6,16.7,15.6z"/>
				<path class="st66" d="M16.7,15.6c0.1,0,0.4,0.5,0.4,0.8c0,0.2-0.2,0.4-0.4,0.4c-0.3,0-0.4-0.3-0.4-0.4
					C16.3,16.3,16.6,15.6,16.7,15.6z"/>
				<path class="st67" d="M16.7,15.6c0.1,0,0.4,0.5,0.4,0.8c0,0.2-0.2,0.4-0.4,0.4c-0.3,0-0.4-0.3-0.4-0.4
					C16.3,16.3,16.6,15.6,16.7,15.6z"/>
			</g>
			<path class="st68" d="M17,16.3c0,0.3-0.3,0.6-0.6,0.6c-0.3,0-0.6-0.3-0.6-0.6c0-0.6,0.6-1.3,0.6-1.3l0,0c0,0,0,0,0,0
				C16.6,15.2,17,15.9,17,16.3z"/>
			<path class="st69" d="M17.1,16.3c0,0.3-0.3,0.6-0.6,0.6c-0.3,0-0.6-0.3-0.6-0.6c0-0.5,0.6-1.4,0.6-1.4S17.1,15.8,17.1,16.3z"/>
		</g>
		<g>
			<g>
				<path class="st1" d="M12.6,19c0-0.8,0.9-2.5,1.7-2.6c0.8-0.1,2.4,1.7,2.2,2.8c-0.2,1.4-1.8,1.7-2.7,1.4
					C13,20.3,12.6,19.5,12.6,19z"/>
				<path class="st37" d="M14.3,16.5c0.8-0.1,2.3,1.6,2.2,2.8c-0.2,1.4-1.8,1.6-2.6,1.4c-0.8-0.3-1.2-1.1-1.2-1.6
					C12.6,18.2,13.6,16.5,14.3,16.5z"/>
				<path class="st38" d="M14.3,16.5c0.7-0.1,2.3,1.6,2.1,2.7c-0.2,1.3-1.7,1.6-2.5,1.3c-0.8-0.3-1.2-1.1-1.2-1.5
					C12.6,18.2,13.6,16.5,14.3,16.5z"/>
				<path class="st39" d="M14.2,16.5c0.7,0,2.2,1.6,2.1,2.7c-0.2,1.3-1.7,1.5-2.5,1.3c-0.8-0.2-1.1-1.1-1.2-1.5
					C12.7,18.2,13.6,16.6,14.2,16.5z"/>
				<path class="st40" d="M14.2,16.6c0.7,0,2.1,1.5,2,2.6c-0.1,1.3-1.6,1.5-2.4,1.3c-0.8-0.2-1.1-1.1-1.1-1.5
					C12.7,18.2,13.6,16.6,14.2,16.6z"/>
				<path class="st41" d="M14.2,16.6c0.7,0,2.1,1.5,2,2.6c-0.1,1.2-1.6,1.5-2.3,1.3c-0.8-0.2-1.1-1-1.1-1.5
					C12.7,18.2,13.6,16.6,14.2,16.6z"/>
				<path class="st42" d="M14.2,16.6c0.7,0,2,1.5,1.9,2.5c-0.1,1.2-1.5,1.4-2.3,1.2c-0.8-0.2-1.1-1-1.1-1.4
					C12.7,18.2,13.6,16.7,14.2,16.6z"/>
				<path class="st43" d="M14.2,16.6c0.6,0,2,1.5,1.9,2.5c-0.1,1.2-1.5,1.4-2.2,1.2c-0.8-0.2-1.1-1-1.1-1.4
					C12.7,18.2,13.6,16.7,14.2,16.6z"/>
				<path class="st44" d="M14.2,16.7c0.6,0,1.9,1.4,1.8,2.4c-0.1,1.1-1.4,1.4-2.1,1.2c-0.8-0.2-1-1-1.1-1.4
					C12.8,18.2,13.6,16.7,14.2,16.7z"/>
				<path class="st45" d="M14.2,16.7c0.6,0,1.9,1.4,1.8,2.4c-0.1,1.1-1.4,1.3-2.1,1.2c-0.7-0.2-1-0.9-1-1.3
					C12.8,18.3,13.6,16.7,14.2,16.7z"/>
				<path class="st46" d="M14.1,16.7c0.6,0,1.8,1.4,1.7,2.3c-0.1,1.1-1.3,1.3-2,1.1c-0.7-0.2-1-0.9-1-1.3
					C12.8,18.3,13.6,16.8,14.1,16.7z"/>
				<path class="st47" d="M14.1,16.8c0.6,0,1.8,1.4,1.6,2.3c-0.1,1-1.3,1.3-1.9,1.1c-0.7-0.2-1-0.9-1-1.3
					C12.8,18.3,13.6,16.8,14.1,16.8z"/>
				<path class="st48" d="M14.1,16.8c0.5,0,1.7,1.3,1.6,2.2c-0.1,1-1.2,1.2-1.9,1.1c-0.7-0.2-1-0.9-1-1.2
					C12.9,18.3,13.6,16.8,14.1,16.8z"/>
				<path class="st49" d="M14.1,16.8c0.5,0,1.6,1.3,1.5,2.2c-0.1,0.9-1.2,1.2-1.8,1.1c-0.7-0.2-0.9-0.8-1-1.2
					C12.9,18.3,13.6,16.9,14.1,16.8z"/>
				<path class="st50" d="M14.1,16.9c0.5,0,1.6,1.3,1.5,2.1c-0.1,0.9-1.1,1.2-1.7,1c-0.7-0.2-0.9-0.8-0.9-1.2
					C12.9,18.3,13.6,16.9,14.1,16.9z"/>
				<path class="st51" d="M14.1,16.9c0.5,0,1.5,1.2,1.4,2.1c-0.1,0.9-1.1,1.1-1.7,1c-0.7-0.1-0.9-0.8-0.9-1.1
					C12.9,18.3,13.6,16.9,14.1,16.9z"/>
				<path class="st52" d="M14.1,16.9c0.5,0,1.5,1.2,1.4,2c-0.1,0.8-1,1.1-1.6,1c-0.7-0.1-0.9-0.8-0.9-1.1
					C12.9,18.3,13.6,16.9,14.1,16.9z"/>
				<path class="st53" d="M14,16.9c0.4,0,1.4,1.2,1.3,2c-0.1,0.8-1,1.1-1.5,1c-0.6-0.1-0.9-0.8-0.9-1.1C13,18.3,13.6,17,14,16.9z"/>
				<path class="st54" d="M14,17c0.4,0,1.4,1.2,1.3,1.9c-0.1,0.8-0.9,1-1.5,0.9c-0.6-0.1-0.8-0.7-0.8-1C13,18.3,13.6,17,14,17z"/>
				<path class="st55" d="M14,17c0.4,0,1.3,1.1,1.2,1.9c-0.1,0.7-0.9,1-1.4,0.9c-0.6-0.1-0.8-0.7-0.8-1C13,18.3,13.6,17,14,17z"/>
				<path class="st56" d="M14,17c0.4,0,1.2,1.1,1.2,1.8c-0.1,0.7-0.8,1-1.3,0.9c-0.6-0.1-0.8-0.7-0.8-1C13,18.3,13.6,17.1,14,17z"/>
				<path class="st57" d="M14,17.1c0.4,0,1.2,1.1,1.1,1.8c-0.1,0.7-0.8,0.9-1.3,0.9c-0.6-0.1-0.8-0.7-0.8-0.9
					C13,18.3,13.6,17.1,14,17.1z"/>
				<path class="st58" d="M14,17.1c0.3,0,1.1,1,1.1,1.7c-0.1,0.6-0.7,0.9-1.2,0.8c-0.6-0.1-0.8-0.6-0.8-0.9
					C13.1,18.3,13.6,17.1,14,17.1z"/>
				<path class="st59" d="M13.9,17.1c0.3,0,1.1,1,1,1.7c-0.1,0.6-0.7,0.9-1.1,0.8c-0.6-0.1-0.7-0.6-0.7-0.9
					C13.1,18.3,13.6,17.1,13.9,17.1z"/>
				<path class="st60" d="M13.9,17.2c0.3,0,1,1,1,1.6c-0.1,0.6-0.6,0.8-1.1,0.8c-0.6-0.1-0.7-0.6-0.7-0.8
					C13.1,18.3,13.6,17.2,13.9,17.2z"/>
				<path class="st61" d="M13.9,17.2c0.3,0,1,1,0.9,1.6c-0.1,0.5-0.6,0.8-1,0.8c-0.5-0.1-0.7-0.6-0.7-0.8
					C13.1,18.3,13.6,17.2,13.9,17.2z"/>
				<path class="st62" d="M13.9,17.2c0.3,0,0.9,0.9,0.9,1.5c0,0.5-0.5,0.8-0.9,0.7c-0.5,0-0.7-0.5-0.7-0.8
					C13.2,18.3,13.6,17.2,13.9,17.2z"/>
				<path class="st63" d="M13.9,17.2c0.3,0,0.9,0.9,0.8,1.5c0,0.5-0.5,0.7-0.9,0.7c-0.5,0-0.7-0.5-0.7-0.7
					C13.2,18.3,13.6,17.3,13.9,17.2z"/>
				<path class="st64" d="M13.9,17.3c0.2,0,0.8,0.9,0.7,1.4c0,0.4-0.4,0.7-0.8,0.7c-0.5,0-0.6-0.5-0.6-0.7
					C13.2,18.3,13.6,17.3,13.9,17.3z"/>
				<path class="st65" d="M13.9,17.3c0.2,0,0.7,0.9,0.7,1.4c0,0.4-0.4,0.7-0.7,0.7c-0.5,0-0.6-0.5-0.6-0.7
					C13.2,18.3,13.6,17.3,13.9,17.3z"/>
				<path class="st66" d="M13.8,17.3c0.2,0,0.7,0.8,0.6,1.3c0,0.4-0.3,0.6-0.7,0.6c-0.5,0-0.6-0.5-0.6-0.6
					C13.2,18.3,13.6,17.3,13.8,17.3z"/>
				<path class="st67" d="M13.8,17.4c0.2,0,0.6,0.8,0.6,1.3c0,0.3-0.2,0.6-0.6,0.6c-0.5,0-0.6-0.4-0.6-0.6
					C13.3,18.4,13.7,17.4,13.8,17.4z"/>
			</g>
			<path class="st68" d="M14.4,18.4c0,0.5-0.4,1-1,1s-1-0.4-1-1c0-0.9,1-2.1,1-2.1l0.1,0c0,0,0,0,0,0.1
				C13.8,16.6,14.4,17.7,14.4,18.4z"/>
			<path class="st69" d="M14.5,18.5c0,0.5-0.4,1-1,1c-0.5,0-1-0.4-1-1c0-0.8,1-2.2,1-2.2S14.5,17.7,14.5,18.5z"/>
		</g>
	</g>
</g>
</svg>
