<?xml version="1.0" encoding="utf-8"?>
<!-- Generator: Adobe Illustrator 27.0.1, SVG Export Plug-In . SVG Version: 6.00 Build 0)  -->
<svg version="1.1" id="Ebene_1" xmlns="http://www.w3.org/2000/svg" xmlns:xlink="http://www.w3.org/1999/xlink" x="0px" y="0px"
	 viewBox="0 0 47.9 47.9" style="enable-background:new 0 0 47.9 47.9;" xml:space="preserve">
<style type="text/css">
	.st0{display:none;}
	.st1{display:inline;}
	.st2{fill:#FFFFFF;fill-opacity:0;}
	.st3{opacity:4.761905e-02;fill:#F9FBFB;enable-background:new    ;}
	.st4{opacity:9.523810e-02;fill:#F3F6F7;enable-background:new    ;}
	.st5{opacity:0.1429;fill:#EEF2F4;enable-background:new    ;}
	.st6{opacity:0.1905;fill:#E8EDF0;enable-background:new    ;}
	.st7{opacity:0.2381;fill:#E2E9EC;enable-background:new    ;}
	.st8{opacity:0.2857;fill:#DCE4E8;enable-background:new    ;}
	.st9{opacity:0.3333;fill:#D7E0E5;enable-background:new    ;}
	.st10{opacity:0.381;fill:#D1DCE1;enable-background:new    ;}
	.st11{opacity:0.4286;fill:#CBD7DD;enable-background:new    ;}
	.st12{opacity:0.4762;fill:#C5D3D9;enable-background:new    ;}
	.st13{opacity:0.5238;fill:#C0CED6;enable-background:new    ;}
	.st14{opacity:0.5714;fill:#BACAD2;enable-background:new    ;}
	.st15{opacity:0.619;fill:#B4C5CE;enable-background:new    ;}
	.st16{opacity:0.6667;fill:#AEC1CA;enable-background:new    ;}
	.st17{opacity:0.7143;fill:#A9BDC7;enable-background:new    ;}
	.st18{opacity:0.7619;fill:#A3B8C3;enable-background:new    ;}
	.st19{opacity:0.8095;fill:#9DB4BF;enable-background:new    ;}
	.st20{opacity:0.8571;fill:#97AFBB;enable-background:new    ;}
	.st21{opacity:0.9048;fill:#92ABB8;enable-background:new    ;}
	.st22{opacity:0.9524;fill:#8CA6B4;enable-background:new    ;}
	.st23{fill:#86A2B0;}
	.st24{fill:#FFE3AB;}
	.st25{fill:url(#SVGID_1_);}
	.st26{fill:url(#SVGID_00000008833148896264375200000013203099274194857118_);}
	.st27{fill:url(#SVGID_00000145030940325760528690000015382737258363400075_);}
	.st28{fill:url(#SVGID_00000149355351620638914970000006791517570605061034_);}
	.st29{fill:url(#SVGID_00000109000954171274341280000015377353545015560364_);}
	.st30{fill:url(#SVGID_00000168117805284954979370000006181912343587911320_);}
	.st31{fill:url(#SVGID_00000007411788191507762430000001537082406150211519_);}
	.st32{fill:url(#SVGID_00000033327272401490936240000006625104713986650773_);}
	.st33{fill:url(#SVGID_00000031903546660775578260000017790601325353727636_);}
	.st34{fill:url(#SVGID_00000159445391469887223800000004352865213498446993_);}
	.st35{fill:url(#SVGID_00000052810064430868343850000014974663661441749695_);}
	.st36{fill:url(#SVGID_00000132046866645915197610000018066084674041349027_);}
	.st37{fill:url(#SVGID_00000075843687474374731430000014414952444424381320_);}
	.st38{fill:url(#SVGID_00000062177659683421936190000006869399883564193202_);}
	.st39{fill:url(#SVGID_00000107572194931878293410000006112681731203405467_);}
	.st40{fill:url(#SVGID_00000100378418898333752670000008915722176896156094_);}
	.st41{display:inline;fill:#FFFFFF;fill-opacity:0;}
	.st42{display:inline;opacity:4.761905e-02;fill:#F9FBFB;enable-background:new    ;}
	.st43{display:inline;opacity:9.523810e-02;fill:#F3F6F7;enable-background:new    ;}
	.st44{display:inline;opacity:0.1429;fill:#EEF2F4;enable-background:new    ;}
	.st45{display:inline;opacity:0.1905;fill:#E8EDF0;enable-background:new    ;}
	.st46{display:inline;opacity:0.2381;fill:#E2E9EC;enable-background:new    ;}
	.st47{display:inline;opacity:0.2857;fill:#DCE4E8;enable-background:new    ;}
	.st48{display:inline;opacity:0.3333;fill:#D7E0E5;enable-background:new    ;}
	.st49{display:inline;opacity:0.381;fill:#D1DCE1;enable-background:new    ;}
	.st50{display:inline;opacity:0.4286;fill:#CBD7DD;enable-background:new    ;}
	.st51{display:inline;opacity:0.4762;fill:#C5D3D9;enable-background:new    ;}
	.st52{display:inline;opacity:0.5238;fill:#C0CED6;enable-background:new    ;}
	.st53{display:inline;opacity:0.5714;fill:#BACAD2;enable-background:new    ;}
	.st54{display:inline;opacity:0.619;fill:#B4C5CE;enable-background:new    ;}
	.st55{display:inline;opacity:0.6667;fill:#AEC1CA;enable-background:new    ;}
	.st56{display:inline;opacity:0.7143;fill:#A9BDC7;enable-background:new    ;}
	.st57{display:inline;opacity:0.7619;fill:#A3B8C3;enable-background:new    ;}
	.st58{display:inline;opacity:0.8095;fill:#9DB4BF;enable-background:new    ;}
	.st59{display:inline;opacity:0.8571;fill:#97AFBB;enable-background:new    ;}
	.st60{display:inline;opacity:0.9048;fill:#92ABB8;enable-background:new    ;}
	.st61{display:inline;opacity:0.9524;fill:#8CA6B4;enable-background:new    ;}
	.st62{display:inline;fill:#86A2B0;}
	.st63{fill:url(#SVGID_00000011709700539975270880000004013085783938956208_);}
	.st64{opacity:9.523810e-02;fill:#F4F6F8;enable-background:new    ;}
	.st65{opacity:0.1905;fill:#E9EDF1;enable-background:new    ;}
	.st66{opacity:0.2381;fill:#E3E9ED;enable-background:new    ;}
	.st67{opacity:0.2857;fill:#DEE5EA;enable-background:new    ;}
	.st68{opacity:0.3333;fill:#D8E0E6;enable-background:new    ;}
	.st69{opacity:0.381;fill:#D3DCE3;enable-background:new    ;}
	.st70{opacity:0.4286;fill:#CDD8DF;enable-background:new    ;}
	.st71{opacity:0.4762;fill:#C8D3DC;enable-background:new    ;}
	.st72{opacity:0.5238;fill:#C2CFD8;enable-background:new    ;}
	.st73{opacity:0.5714;fill:#BDCAD5;enable-background:new    ;}
	.st74{opacity:0.619;fill:#B7C6D1;enable-background:new    ;}
	.st75{opacity:0.6667;fill:#B2C2CE;enable-background:new    ;}
	.st76{opacity:0.7143;fill:#ACBDCA;enable-background:new    ;}
	.st77{opacity:0.7619;fill:#A7B9C7;enable-background:new    ;}
	.st78{opacity:0.8095;fill:#A1B5C3;enable-background:new    ;}
	.st79{opacity:0.8571;fill:#9CB0C0;enable-background:new    ;}
	.st80{opacity:0.9048;fill:#96ACBC;enable-background:new    ;}
	.st81{opacity:0.9524;fill:#91A7B9;enable-background:new    ;}
	.st82{fill:#8BA3B5;}
	.st83{fill:#FFFFFF;}
	.st84{fill:#E9F2F5;}
</style>
<g>
	<g>
		<g class="st0">
			<g class="st1">
				<path class="st2" d="M31.5,17.6c-2.2-0.7-2.4-3.2-0.4-5c1.1-0.9,2.8-1.5,4.7-1.3c2.2,0.4,3.2,2,1.7,3.9
					C36.2,17,33.5,18.3,31.5,17.6z"/>
				<path class="st3" d="M31.7,17.4c-2.2-0.7-2.2-3-0.4-4.8c1.1-0.9,2.6-1.5,4.7-1.3c2,0.4,3,2,1.5,3.7C36.2,17,33.5,18.1,31.7,17.4
					z"/>
				<path class="st4" d="M31.7,17.4c-2-0.7-2.2-3-0.4-4.7c1.1-0.9,2.6-1.5,4.5-1.3c2,0.4,3,1.9,1.5,3.7C36,16.8,33.5,17.9,31.7,17.4
					z"/>
				<path class="st5" d="M31.7,17.2c-2-0.7-2.2-2.8-0.4-4.5c1.1-0.9,2.6-1.5,4.5-1.1c2,0.4,2.8,1.9,1.5,3.5
					C36,16.8,33.7,17.8,31.7,17.2z"/>
				<path class="st6" d="M31.9,17c-2-0.7-2.2-2.8-0.4-4.3c0.9-0.9,2.6-1.3,4.3-1.1c1.9,0.2,2.8,1.9,1.3,3.5
					C36,16.6,33.7,17.8,31.9,17z"/>
				<path class="st7" d="M31.9,17c-2-0.6-2-2.6-0.4-4.3c1.1-0.9,2.6-1.3,4.3-1.1c1.9,0.2,2.6,1.7,1.3,3.3
					C35.8,16.6,33.7,17.6,31.9,17z"/>
				<path class="st8" d="M32.1,16.8c-2-0.6-2-2.6-0.4-4.1c1.1-0.9,2.6-1.3,4.1-1.1c1.7,0.2,2.6,1.7,1.1,3.2
					C35.8,16.5,33.7,17.4,32.1,16.8z"/>
				<path class="st9" d="M32.1,16.8c-1.9-0.6-2-2.4-0.4-3.9c1.1-0.9,2.6-1.3,4.1-1.1c1.7,0.2,2.4,1.7,1.1,3.2
					C35.8,16.5,33.7,17.2,32.1,16.8z"/>
				<path class="st10" d="M32.1,16.6c-1.9-0.6-2-2.4-0.4-3.7c1.1-0.9,2.4-1.3,3.9-0.9c1.7,0.2,2.4,1.5,1.1,3
					C35.6,16.3,33.9,17.2,32.1,16.6z"/>
				<path class="st11" d="M32.2,16.6c-1.9-0.4-1.9-2.2-0.4-3.5c1.1-0.7,2.4-1.1,3.9-0.9c1.5,0.2,2.2,1.5,0.9,3
					C35.6,16.3,33.9,17,32.2,16.6z"/>
				<path class="st12" d="M32.2,16.5c-1.9-0.4-1.9-2.2-0.4-3.5c1.1-0.7,2.4-1.1,3.7-0.9c1.5,0.2,2.2,1.3,0.9,2.8
					C35.6,16.1,33.9,16.8,32.2,16.5z"/>
				<path class="st13" d="M32.4,16.5c-1.9-0.4-1.9-2-0.4-3.3c1.1-0.7,2.4-1.1,3.7-0.9c1.5,0.2,2,1.3,0.7,2.8
					C35.4,16.1,33.9,16.6,32.4,16.5z"/>
				<path class="st14" d="M32.4,16.3c-1.7-0.4-1.9-2-0.4-3.2c1.1-0.7,2.4-1.1,3.5-0.9c1.3,0.2,2,1.3,0.7,2.6
					C35.4,15.9,33.9,16.6,32.4,16.3z"/>
				<path class="st15" d="M32.6,16.3c-1.7-0.2-1.7-1.9-0.4-3c1.1-0.7,2.4-0.9,3.3-0.9c1.3,0.2,1.9,1.1,0.7,2.4
					C35.4,15.9,33.9,16.5,32.6,16.3z"/>
				<path class="st16" d="M32.6,16.1c-1.7-0.2-1.7-1.9-0.4-2.8c1.1-0.7,2.4-0.9,3.3-0.9c1.1,0.2,1.9,1.1,0.6,2.4
					C35.2,15.7,34.1,16.3,32.6,16.1z"/>
				<path class="st17" d="M32.6,15.9c-1.7-0.2-1.7-1.9-0.4-2.8c1.1-0.7,2.2-0.9,3.2-0.7c1.1,0.2,1.7,1.1,0.6,2.2
					C35.2,15.7,34.1,16.1,32.6,15.9z"/>
				<path class="st18" d="M32.8,15.9c-1.7-0.2-1.7-1.7-0.4-2.6c1.1-0.7,2.2-0.9,3.2-0.7c1.1,0.2,1.7,0.9,0.4,2.2
					C35.2,15.5,34.1,15.9,32.8,15.9z"/>
				<path class="st19" d="M32.8,15.7c-1.5,0-1.5-1.7-0.4-2.4c1.1-0.7,2.2-0.9,3-0.7c0.9,0,1.5,0.9,0.4,2
					C35.2,15.5,34.1,15.9,32.8,15.7z"/>
				<path class="st20" d="M33,15.7c-1.5,0-1.5-1.5-0.4-2.2c1.1-0.7,2.2-0.7,3-0.7c0.9,0,1.5,0.9,0.4,2C35,15.3,34.1,15.7,33,15.7z"
					/>
				<path class="st21" d="M33,15.5c-1.5,0-1.5-1.5-0.4-2c1.1-0.6,2.2-0.7,2.8-0.7c0.9,0,1.3,0.7,0.2,1.9C35,15.3,34.1,15.5,33,15.5z
					"/>
				<path class="st22" d="M33,15.5c-1.5,0-1.5-1.3-0.4-2c1.1-0.6,2.2-0.7,2.8-0.7c0.7,0,1.3,0.7,0.2,1.7C35,15.2,34.3,15.3,33,15.5z
					"/>
				<path class="st23" d="M33.2,15.3c-1.5,0.2-1.3-1.3-0.4-1.9c1.1-0.6,2.2-0.7,2.6-0.7c0.7,0,1.1,0.7,0,1.7
					C34.9,15.2,34.3,15.3,33.2,15.3z"/>
			</g>
			<g class="st1">
				<path class="st2" d="M28.9,11.8c-2,0.9-4.3-0.7-4.3-3.5c0-1.5,0.7-3,2.4-4.3c1.7-1.3,4.1,0.2,4.5,2.4
					C31.9,8.6,30.9,10.9,28.9,11.8z"/>
				<path class="st3" d="M28.9,11.6c-2,0.9-4.1-0.7-4.1-3.3c0-1.5,0.7-3,2.4-4.1c1.7-1.3,4.1,0.2,4.3,2.4
					C31.9,8.6,30.8,10.7,28.9,11.6z"/>
				<path class="st4" d="M28.9,11.4c-2,0.9-4.1-0.7-3.9-3.3c0-1.5,0.9-3,2.4-4.1c1.7-1.3,3.9,0.2,4.1,2.4
					C31.7,8.6,30.8,10.5,28.9,11.4z"/>
				<path class="st5" d="M28.9,11.3c-2,1.1-4.1-0.6-3.9-3.2c0-1.3,0.9-2.8,2.2-3.9c1.7-1.1,3.7,0,4.1,2.2
					C31.5,8.5,30.6,10.5,28.9,11.3z"/>
				<path class="st6" d="M28.7,11.3c-1.9,0.9-3.9-0.6-3.7-3c0-1.3,0.9-2.8,2.2-3.9c1.5-1.1,3.5,0,3.9,2.2
					C31.3,8.5,30.6,10.3,28.7,11.3z"/>
				<path class="st7" d="M28.7,11.1c-1.9,0.9-3.7-0.6-3.5-3c0-1.3,0.9-2.8,2.2-3.7c1.5-1.1,3.5,0,3.7,2S30.4,10.1,28.7,11.1z"/>
				<path class="st8" d="M28.7,10.9c-1.9,0.9-3.5-0.6-3.3-2.8c0.2-1.3,0.9-2.8,2.2-3.7c1.5-1.1,3.3,0,3.5,2
					C31.1,8.3,30.4,9.9,28.7,10.9z"/>
				<path class="st9" d="M28.7,10.7c-1.7,0.9-3.5-0.6-3.3-2.8c0.2-1.3,0.9-2.6,2-3.5c1.3-1.1,3.2,0,3.3,2
					C30.9,8.3,30.2,9.9,28.7,10.7z"/>
				<path class="st10" d="M28.7,10.7c-1.7,0.9-3.3-0.4-3.2-2.6c0.2-1.3,0.9-2.6,2-3.5c1.3-0.9,3,0,3.2,1.9S30.2,9.8,28.7,10.7z"/>
				<path class="st11" d="M28.5,10.5c-1.7,0.9-3.3-0.4-3-2.4c0.2-1.3,0.9-2.6,2-3.3c1.3-0.9,3,0,3.2,1.9C30.8,8.1,30,9.6,28.5,10.5z
					"/>
				<path class="st12" d="M28.5,10.3c-1.5,0.9-3.2-0.4-3-2.4c0.2-1.3,0.9-2.6,1.9-3.3c1.1-0.9,2.8,0,3,1.9
					C30.6,8.1,29.8,9.4,28.5,10.3z"/>
				<path class="st13" d="M28.5,10.1c-1.5,0.9-3-0.4-2.8-2.2c0.2-1.3,0.9-2.4,1.9-3.2c1.1-0.9,2.6-0.2,2.8,1.7
					C30.4,8.1,29.8,9.4,28.5,10.1z"/>
				<path class="st14" d="M28.5,10.1c-1.5,0.9-3-0.4-2.6-2c0.2-1.3,0.9-2.4,1.9-3.2c0.9-0.9,2.4-0.2,2.4,1.5
					C30.4,7.9,29.6,9.2,28.5,10.1z"/>
				<path class="st15" d="M28.3,9.9c-1.3,0.9-2.8-0.2-2.6-2c0.2-1.3,0.9-2.4,1.9-3C28.7,4,30,4.7,30.2,6.6C30.2,7.9,29.6,9,28.3,9.9
					z"/>
				<path class="st16" d="M28.3,9.8c-1.3,1.1-2.6-0.2-2.4-1.9c0.2-1.3,0.9-2.4,1.7-3c0.9-0.7,2.2-0.2,2.2,1.5
					C30,7.7,29.5,8.8,28.3,9.8z"/>
				<path class="st17" d="M28.3,9.6c-1.3,1.1-2.6-0.2-2.2-1.7c0.2-1.3,0.9-2.2,1.7-2.8c0.9-0.7,2-0.2,2.2,1.5
					C30,7.7,29.5,8.8,28.3,9.6z"/>
				<path class="st18" d="M28.3,9.6c-1.1,1.1-2.4-0.2-2.2-1.7c0.2-1.3,0.9-2.2,1.7-2.8c0.7-0.7,2-0.2,2,1.5
					C29.8,7.7,29.3,8.6,28.3,9.6z"/>
				<path class="st19" d="M28.3,9.4c-1.1,1.1-2.2,0-2-1.5c0.2-1.3,0.9-2.2,1.7-2.8c0.7-0.6,1.9-0.2,1.9,1.3
					C29.6,7.5,29.3,8.5,28.3,9.4z"/>
				<path class="st20" d="M28.2,9.2c-1.1,1.1-2.2,0-1.9-1.3c0.2-1.1,0.9-2,1.5-2.6c0.7-0.6,1.7-0.2,1.7,1.3
					C29.5,7.5,29.1,8.3,28.2,9.2z"/>
				<path class="st21" d="M28.2,9c-1.1,1.1-2,0-1.9-1.3c0.2-1.1,0.9-2,1.5-2.6c0.6-0.6,1.5-0.4,1.5,1.3C29.5,7.5,29.1,8.3,28.2,9z"
					/>
				<path class="st22" d="M28.2,9c-0.9,1.1-2,0-1.7-1.1s0.9-2,1.5-2.4c0.6-0.6,1.5-0.4,1.3,1.1C29.3,7.3,28.9,8.1,28.2,9z"/>
				<path class="st23" d="M28.2,8.8c-0.9,1.1-1.9,0.2-1.5-1.1c0.2-1.1,0.9-1.9,1.3-2.2c0.6-0.6,1.3-0.4,1.3,1.1
					C29.1,7.3,28.9,7.9,28.2,8.8z"/>
			</g>
			<g class="st1">
				<path class="st2" d="M22.2,9.2c-0.7,2.2-3,2.6-4.8,0.7c-1.1-0.9-1.9-2.6-1.7-4.7c0.2-2.2,2.8-2.4,4.7-1.3
					C22.2,5.3,22.8,7.2,22.2,9.2z"/>
				<path class="st3" d="M22,9.2c-0.6,2.2-2.8,2.4-4.8,0.7c-1.1-0.9-1.7-2.6-1.5-4.5c0.2-2,2.6-2.4,4.5-1.1
					C22.2,5.3,22.8,7.2,22,9.2z"/>
				<path class="st4" d="M22,9c-0.6,2.2-2.8,2.4-4.7,0.7c-0.9-0.9-1.7-2.6-1.5-4.5c0.2-2,2.4-2.4,4.3-1.1S22.6,7.2,22,9z"/>
				<path class="st5" d="M21.8,9c-0.6,2-2.6,2.4-4.5,0.7c-0.9-0.9-1.7-2.6-1.5-4.3c0.2-2,2.4-2.2,4.3-1.1C21.8,5.5,22.4,7.2,21.8,9z
					"/>
				<path class="st6" d="M21.8,9c-0.6,2-2.6,2.2-4.3,0.6c-0.9-0.9-1.5-2.4-1.5-4.3c0.2-1.9,2.2-2.2,4.1-0.9C21.8,5.5,22.2,7,21.8,9z
					"/>
				<path class="st7" d="M21.6,8.8c-0.4,2-2.4,2.4-4.1,0.7c-0.9-0.9-1.5-2.4-1.3-4.1c0.2-1.9,2.2-2.2,3.9-0.9
					C21.6,5.5,22,7,21.6,8.8z"/>
				<path class="st8" d="M21.6,8.8c-0.4,2-2.4,2.2-4.1,0.6c-0.9-0.9-1.5-2.4-1.3-4.1c0.2-1.7,2-2,3.7-0.9C21.5,5.5,22,7,21.6,8.8z"
					/>
				<path class="st9" d="M21.5,8.8c-0.4,1.9-2.4,2.2-3.9,0.6c-0.9-0.9-1.5-2.4-1.3-3.9c0.2-1.7,2-2,3.7-0.9
					C21.5,5.7,21.8,7,21.5,8.8z"/>
				<path class="st10" d="M21.3,8.6c-0.4,1.9-2.2,2.2-3.7,0.6c-0.9-0.9-1.3-2.4-1.3-3.9c0.2-1.7,1.9-2,3.5-0.7
					C21.3,5.7,21.6,7,21.3,8.6z"/>
				<path class="st11" d="M21.3,8.6c-0.4,1.9-2.2,2-3.5,0.6c-0.9-0.9-1.3-2.4-1.3-3.7c0.2-1.5,1.9-1.9,3.3-0.7
					C21.1,5.7,21.5,7,21.3,8.6z"/>
				<path class="st12" d="M21.1,8.5c-0.2,1.9-2,2-3.3,0.6c-0.9-0.9-1.3-2.4-1.3-3.7c0-1.5,1.7-1.9,3.2-0.7C20.9,5.7,21.5,7,21.1,8.5
					z"/>
				<path class="st13" d="M21.1,8.5c-0.2,1.9-2,2-3.3,0.6c-0.9-0.9-1.3-2.4-1.1-3.5c0-1.5,1.7-1.9,3.2-0.7C20.9,5.7,21.3,7,21.1,8.5
					z"/>
				<path class="st14" d="M20.9,8.5c-0.2,1.7-1.9,1.9-3.2,0.6c-0.9-0.9-1.3-2.2-1.1-3.5c0-1.3,1.5-1.7,3-0.6
					C20.7,5.7,21.1,6.8,20.9,8.5z"/>
				<path class="st15" d="M20.9,8.3c-0.2,1.7-1.9,1.9-3,0.6c-0.7-0.9-1.1-2.2-1.1-3.3c0-1.3,1.3-1.7,2.8-0.6
					C20.5,5.9,20.9,6.8,20.9,8.3z"/>
				<path class="st16" d="M20.7,8.3c-0.2,1.7-1.7,1.9-2.8,0.6c-0.7-0.9-1.1-2.2-1.1-3.3c0-1.3,1.3-1.7,2.6-0.6
					C20.5,5.9,20.7,6.8,20.7,8.3z"/>
				<path class="st17" d="M20.5,8.3c0,1.7-1.7,1.9-2.6,0.6c-0.7-0.9-1.1-2.2-1.1-3.2c0-1.1,1.1-1.5,2.4-0.6
					C20.3,5.9,20.7,6.8,20.5,8.3z"/>
				<path class="st18" d="M20.5,8.1c0,1.7-1.5,1.7-2.6,0.6c-0.7-0.9-1.1-2.2-0.9-3.2c0-1.1,1.1-1.5,2.4-0.4
					C20.2,5.9,20.5,6.8,20.5,8.1z"/>
				<path class="st19" d="M20.3,8.1c0,1.5-1.5,1.7-2.4,0.6c-0.7-0.9-0.9-2.2-0.9-3c0-0.9,0.9-1.5,2.2-0.4
					C20.2,5.9,20.3,6.8,20.3,8.1z"/>
				<path class="st20" d="M20.3,7.9c0,1.5-1.3,1.7-2.2,0.6c-0.7-0.9-0.9-2.2-0.9-3c0-0.9,0.9-1.3,2-0.4C20,5.9,20.2,6.8,20.3,7.9z"
					/>
				<path class="st21" d="M20.2,7.9c0.2,1.5-1.3,1.5-2,0.6c-0.7-0.9-0.9-2-0.9-2.8c0-0.9,0.7-1.3,1.9-0.2C19.8,6,20.2,6.8,20.2,7.9z
					"/>
				<path class="st22" d="M20.2,7.9c0.2,1.5-1.1,1.5-1.9,0.6c-0.7-0.9-0.9-2-0.9-2.6c0-0.7,0.7-1.3,1.9-0.2C19.8,6,20,6.8,20.2,7.9z
					"/>
				<path class="st23" d="M20,7.7c0.2,1.3-1.1,1.5-1.9,0.6s-0.7-2-0.9-2.6c0-0.7,0.6-1.1,1.7-0.2C19.6,6,19.8,6.6,20,7.7z"/>
			</g>
			<g class="st1">
				<path class="st2" d="M29.8,24.1c-1.1-2,0.4-3.9,3-3.9c1.5,0,3,0.6,4.3,2.2c1.5,1.7,0.9,3.5-1.3,4.1
					C33.5,26.9,30.9,25.9,29.8,24.1z"/>
				<path class="st3" d="M30,24.1c-1.1-2,0.2-3.7,3-3.7c1.5,0,3,0.7,4.3,2.2c1.3,1.7,0.9,3.5-1.3,3.9C33.5,26.7,30.9,25.9,30,24.1z"
					/>
				<path class="st4" d="M30,24.1c-1.1-1.9,0.2-3.7,2.8-3.7c1.5,0,3,0.7,4.1,2c1.3,1.5,0.9,3.3-1.3,3.7C33.7,26.5,31.1,25.8,30,24.1
					z"/>
				<path class="st5" d="M30.2,24.1c-1.1-1.9,0.2-3.5,2.8-3.5c1.3,0,3,0.7,4.1,2c1.3,1.5,0.9,3.2-1.3,3.5
					C33.7,26.5,31.1,25.8,30.2,24.1z"/>
				<path class="st6" d="M30.4,23.9c-1.1-1.9,0.2-3.5,2.6-3.5c1.3,0,2.8,0.7,3.9,2c1.3,1.5,0.7,3.2-1.3,3.5
					C33.7,26.3,31.3,25.8,30.4,23.9z"/>
				<path class="st7" d="M30.4,23.9c-1.1-1.9,0.2-3.3,2.6-3.3c1.3,0,2.8,0.7,3.9,2c1.1,1.5,0.7,3-1.3,3.3
					C33.7,26.3,31.5,25.6,30.4,23.9z"/>
				<path class="st8" d="M30.6,23.9c-1.1-1.7,0.2-3.3,2.4-3.2c1.3,0,2.8,0.7,3.7,1.9c1.1,1.3,0.7,3-1.3,3.2
					C33.7,26.1,31.5,25.6,30.6,23.9z"/>
				<path class="st9" d="M30.8,23.9c-1.1-1.7,0.2-3.2,2.2-3.2c1.3,0,2.8,0.7,3.7,1.9c1.1,1.3,0.7,2.8-1.3,3.2
					C33.7,25.9,31.7,25.4,30.8,23.9z"/>
				<path class="st10" d="M30.8,23.9c-1.1-1.7,0.2-3.2,2.2-3c1.3,0,2.6,0.7,3.5,1.9c1.1,1.3,0.7,2.6-1.3,3
					C33.7,25.9,31.9,25.4,30.8,23.9z"/>
				<path class="st11" d="M30.9,23.9c-1.1-1.5,0-3,2-3c1.3,0,2.6,0.7,3.5,1.9c0.9,1.1,0.7,2.6-1.3,2.8
					C33.7,25.8,31.9,25.2,30.9,23.9z"/>
				<path class="st12" d="M31.1,23.9c-1.1-1.5,0-3,2-2.8c1.3,0,2.6,0.7,3.3,1.7c0.9,1.1,0.7,2.4-1.1,2.8
					C33.7,25.8,32.1,25.2,31.1,23.9z"/>
				<path class="st13" d="M31.1,23.9c-1.1-1.5,0-2.8,1.9-2.8c1.3,0,2.6,0.7,3.3,1.7c0.9,1.1,0.7,2.4-1.1,2.6
					C33.7,25.6,32.2,25,31.1,23.9z"/>
				<path class="st14" d="M31.3,23.7c-1.1-1.3,0-2.8,1.9-2.6c1.3,0.2,2.4,0.7,3.2,1.7c0.9,0.9,0.6,2.2-1.1,2.4
					C33.7,25.6,32.2,25,31.3,23.7z"/>
				<path class="st15" d="M31.5,23.7c-1.1-1.3,0-2.6,1.7-2.4c1.3,0.2,2.4,0.7,3.2,1.7c0.9,0.9,0.6,2-1.1,2.2
					C33.7,25.4,32.4,24.8,31.5,23.7z"/>
				<path class="st16" d="M31.5,23.7c-1.1-1.3,0-2.6,1.7-2.4c1.3,0.2,2.4,0.7,3,1.5c0.7,0.9,0.6,2-1.1,2.2
					C33.9,25.2,32.4,24.8,31.5,23.7z"/>
				<path class="st17" d="M31.7,23.7c-1.1-1.1,0-2.4,1.5-2.2c1.3,0.2,2.4,0.9,3,1.5c0.7,0.9,0.6,1.9-1.1,2
					C33.9,25.2,32.6,24.6,31.7,23.7z"/>
				<path class="st18" d="M31.9,23.7c-1.1-1.1-0.2-2.4,1.5-2.2c1.3,0.2,2.2,0.9,2.8,1.5c0.7,0.7,0.6,1.9-1.1,1.9
					C33.9,25,32.8,24.6,31.9,23.7z"/>
				<path class="st19" d="M31.9,23.7c-1.1-1.1-0.2-2.2,1.3-2c1.3,0.2,2.2,0.9,2.8,1.5c0.7,0.7,0.6,1.7-1.1,1.9
					C33.9,25,32.8,24.6,31.9,23.7z"/>
				<path class="st20" d="M32.1,23.7c-1.1-0.9-0.2-2,1.3-1.9c1.3,0.2,2.2,0.9,2.8,1.5c0.6,0.7,0.6,1.7-1.1,1.7
					C33.9,24.8,33,24.5,32.1,23.7z"/>
				<path class="st21" d="M32.2,23.5c-1.1-0.9-0.2-2,1.1-1.9c1.1,0.2,2.2,0.9,2.6,1.3c0.6,0.6,0.4,1.5-1.1,1.5
					C33.9,24.6,33.2,24.5,32.2,23.5z"/>
				<path class="st22" d="M32.2,23.5c-1.1-0.9-0.2-1.9,1.1-1.7c1.1,0.2,2,0.9,2.6,1.3c0.6,0.6,0.4,1.3-1.1,1.5
					C33.9,24.6,33.2,24.3,32.2,23.5z"/>
				<path class="st23" d="M32.4,23.5c-1.1-0.9-0.2-1.9,0.9-1.7c1.1,0.2,2,0.9,2.4,1.3c0.6,0.6,0.4,1.3-1.1,1.3
					C33.9,24.5,33.4,24.3,32.4,23.5z"/>
			</g>
			<g class="st1">
				<path class="st2" d="M24.4,27.4c0.7-2.2,3-2.4,4.8-0.6c1.1,0.9,1.7,2.6,1.5,4.7c-0.2,2.2-1.9,3.2-3.7,1.9
					C25.2,32.1,23.9,29.5,24.4,27.4z"/>
				<path class="st3" d="M24.6,27.4c0.7-2.2,2.8-2.4,4.8-0.6c0.9,0.9,1.7,2.6,1.5,4.5c-0.2,2-1.9,3.2-3.7,1.9
					C25.2,31.9,23.9,29.5,24.6,27.4z"/>
				<path class="st4" d="M24.6,27.4c0.6-2.2,2.8-2.4,4.7-0.6c0.9,0.9,1.7,2.6,1.5,4.5c-0.2,2-1.9,3-3.5,1.7
					C25.4,31.9,24.1,29.5,24.6,27.4z"/>
				<path class="st5" d="M24.8,27.6c0.6-2,2.8-2.4,4.5-0.6c0.9,0.9,1.5,2.4,1.3,4.3c-0.2,2-1.7,3-3.5,1.7
					C25.4,31.7,24.2,29.5,24.8,27.6z"/>
				<path class="st6" d="M24.8,27.6c0.6-2,2.6-2.2,4.3-0.6c0.9,0.9,1.5,2.4,1.3,4.1c-0.2,1.9-1.7,2.8-3.3,1.5
					C25.5,31.7,24.2,29.5,24.8,27.6z"/>
				<path class="st7" d="M25,27.6c0.6-2,2.6-2.2,4.3-0.6c0.9,0.9,1.5,2.4,1.3,4.1c-0.2,1.9-1.7,2.8-3.3,1.5
					C25.5,31.5,24.4,29.5,25,27.6z"/>
				<path class="st8" d="M25,27.6c0.6-2,2.6-2.2,4.1-0.6c0.9,0.9,1.5,2.4,1.3,3.9c-0.2,1.7-1.5,2.6-3.2,1.5
					C25.5,31.5,24.6,29.5,25,27.6z"/>
				<path class="st9" d="M25.2,27.8c0.4-1.9,2.4-2,3.9-0.6c0.9,0.9,1.3,2.4,1.3,3.9c-0.2,1.7-1.5,2.6-3.2,1.3
					C25.7,31.3,24.6,29.5,25.2,27.8z"/>
				<path class="st10" d="M25.2,27.8c0.4-1.9,2.4-2,3.7-0.6c0.9,0.9,1.3,2.2,1.1,3.7c-0.2,1.7-1.5,2.4-3,1.3
					C25.7,31.3,24.8,29.5,25.2,27.8z"/>
				<path class="st11" d="M25.2,27.8c0.4-1.9,2.2-2,3.7-0.6c0.9,0.9,1.3,2.2,1.1,3.5c-0.2,1.5-1.3,2.4-3,1.3
					C25.7,31.2,25,29.5,25.2,27.8z"/>
				<path class="st12" d="M25.4,27.8c0.4-1.9,2.2-2,3.5-0.6c0.9,0.9,1.1,2.2,1.1,3.5c-0.2,1.5-1.3,2.4-2.8,1.1
					C25.9,31.2,25,29.5,25.4,27.8z"/>
				<path class="st13" d="M25.4,28c0.2-1.9,2.2-1.9,3.3-0.4c0.9,0.9,1.1,2.2,1.1,3.3c-0.2,1.5-1.3,2.2-2.8,1.1
					C25.9,31,25.2,29.5,25.4,28z"/>
				<path class="st14" d="M25.5,28c0.2-1.7,2-1.9,3.3-0.4c0.7,0.9,1.1,2,1.1,3.3c-0.2,1.3-1.3,2.2-2.6,1.1
					C26.1,31,25.4,29.5,25.5,28z"/>
				<path class="st15" d="M25.5,28c0.2-1.7,2-1.9,3.2-0.4c0.7,0.9,1.1,2,0.9,3.2c0,1.3-1.1,2-2.6,0.9C26.1,30.8,25.4,29.5,25.5,28z"
					/>
				<path class="st16" d="M25.7,28c0.2-1.7,1.9-1.7,3-0.4c0.7,0.9,0.9,2,0.9,3c0,1.1-1.1,2-2.4,0.9C26.1,30.8,25.5,29.5,25.7,28z"/>
				<path class="st17" d="M25.7,28c0-1.7,1.9-1.7,2.8-0.4c0.7,0.9,0.9,2,0.9,3c0,1.1-1.1,1.9-2.4,0.7C26.3,30.6,25.7,29.5,25.7,28z"
					/>
				<path class="st18" d="M25.9,28.2c0-1.7,1.9-1.7,2.8-0.4c0.7,0.9,0.9,1.9,0.9,2.8c0,1.1-0.9,1.9-2.2,0.7
					C26.3,30.6,25.7,29.5,25.9,28.2z"/>
				<path class="st19" d="M25.9,28.2c0-1.5,1.7-1.5,2.6-0.4c0.7,0.9,0.9,1.9,0.9,2.8c0,0.9-0.9,1.9-2.2,0.7
					C26.3,30.4,25.9,29.5,25.9,28.2z"/>
				<path class="st20" d="M26.1,28.2c0-1.5,1.7-1.5,2.4-0.4c0.7,0.9,0.7,1.9,0.7,2.6c0,0.9-0.9,1.7-2,0.6
					C26.5,30.4,26.1,29.5,26.1,28.2z"/>
				<path class="st21" d="M26.1,28.2c-0.2-1.5,1.5-1.5,2.2-0.4c0.7,0.9,0.7,1.9,0.7,2.4c0,0.9-0.9,1.7-2,0.6
					C26.5,30.2,26.1,29.5,26.1,28.2z"/>
				<path class="st22" d="M26.1,28.4c-0.2-1.5,1.5-1.5,2.2-0.4c0.7,0.9,0.7,1.9,0.7,2.4c0,0.7-0.7,1.5-1.9,0.6
					C26.5,30.2,26.3,29.5,26.1,28.4z"/>
				<path class="st23" d="M26.3,28.4c-0.2-1.3,1.3-1.3,2-0.4c0.7,0.9,0.7,1.7,0.7,2.2c0,0.7-0.7,1.5-1.9,0.4
					C26.7,30,26.5,29.5,26.3,28.4z"/>
			</g>
			<g class="st1">
				<path class="st2" d="M17.9,26.3c2-1.1,3.9,0.2,4.1,2.8c0.2,1.5-0.6,3.2-2,4.5c-1.7,1.5-3.5,1.1-4.1-1.1
					C15.3,30.2,16.1,27.4,17.9,26.3z"/>
				<path class="st3" d="M17.9,26.5c2-1.1,3.7,0.2,3.9,2.8c0.2,1.5-0.6,3-2,4.3c-1.5,1.5-3.3,1.1-3.9-1.1
					C15.5,30.2,16.1,27.6,17.9,26.5z"/>
				<path class="st4" d="M17.9,26.5c1.9-1.1,3.7,0,3.7,2.6c0,1.5-0.6,3-1.9,4.3c-1.5,1.3-3.3,1.1-3.7-1.1
					C15.5,30.2,16.2,27.6,17.9,26.5z"/>
				<path class="st5" d="M17.9,26.7c1.9-1.1,3.5,0,3.7,2.6c0,1.3-0.6,3-1.9,4.1c-1.5,1.3-3.2,0.9-3.7-1.1
					C15.7,30.2,16.2,27.6,17.9,26.7z"/>
				<path class="st6" d="M17.9,26.7c1.7-1.1,3.3,0,3.5,2.4c0,1.3-0.6,3-1.9,4.1c-1.5,1.3-3.2,0.9-3.5-1.1
					C15.7,30.2,16.4,27.8,17.9,26.7z"/>
				<path class="st7" d="M17.9,26.9c1.7-1.1,3.3,0,3.5,2.2c0,1.3-0.6,2.8-1.9,3.9c-1.3,1.3-3,0.9-3.3-1.1
					C15.9,30,16.4,27.8,17.9,26.9z"/>
				<path class="st8" d="M18.1,26.9c1.7-0.9,3.2,0,3.3,2.2c0,1.3-0.6,2.8-1.7,3.9c-1.3,1.1-2.8,0.9-3.3-1.1
					C15.9,30,16.4,27.8,18.1,26.9z"/>
				<path class="st9" d="M18.1,27.1c1.5-0.9,3.2-0.2,3.2,2c0,1.3-0.6,2.8-1.7,3.7c-1.3,1.1-2.8,0.9-3.2-1.1
					C16.1,30,16.6,28,18.1,27.1z"/>
				<path class="st10" d="M18.1,27.1c1.5-0.9,3-0.2,3.2,2c0,1.3-0.6,2.6-1.7,3.7c-1.1,1.1-2.6,0.9-3-1.1C16.1,30,16.6,28,18.1,27.1z
					"/>
				<path class="st11" d="M18.1,27.1c1.5-0.9,2.8-0.2,3,1.9c0,1.3-0.6,2.6-1.7,3.5c-1.1,1.1-2.6,0.9-3-0.9
					C16.2,30,16.8,28,18.1,27.1z"/>
				<path class="st12" d="M18.1,27.2c1.3-0.9,2.8-0.2,2.8,1.9c0,1.3-0.6,2.6-1.5,3.5c-1.1,1.1-2.4,0.9-2.8-0.9
					C16.4,30,16.8,28,18.1,27.2z"/>
				<path class="st13" d="M18.1,27.2c1.3-0.9,2.6-0.2,2.8,1.7c0,1.3-0.6,2.6-1.5,3.3c-1.1,0.9-2.4,0.9-2.6-0.9
					C16.4,29.9,17,28.2,18.1,27.2z"/>
				<path class="st14" d="M18.1,27.4c1.1-0.9,2.6-0.2,2.6,1.5c0,1.3-0.6,2.4-1.5,3.3s-2.2,0.9-2.6-0.9C16.6,29.9,17,28.2,18.1,27.4z
					"/>
				<path class="st15" d="M18.1,27.4c1.1-0.7,2.4-0.4,2.4,1.5c0,1.3-0.6,2.4-1.3,3.2c-0.9,0.9-2,0.7-2.4-0.9
					C16.6,29.9,17.2,28.2,18.1,27.4z"/>
				<path class="st16" d="M18.1,27.6c1.1-0.7,2.2-0.4,2.4,1.3c0,1.3-0.6,2.4-1.3,3.2c-0.9,0.9-2,0.7-2.2-0.9
					C16.8,29.9,17.2,28.4,18.1,27.6z"/>
				<path class="st17" d="M18.1,27.6c0.9-0.7,2.2-0.4,2.2,1.3c0,1.3-0.6,2.4-1.3,3c-0.7,0.7-1.9,0.7-2-0.9
					C16.8,29.9,17.4,28.4,18.1,27.6z"/>
				<path class="st18" d="M18.3,27.8c0.9-0.7,2-0.4,2,1.1c0,1.1-0.6,2.2-1.3,3c-0.7,0.7-1.9,0.7-2-0.9C17,29.9,17.4,28.4,18.3,27.8z
					"/>
				<path class="st19" d="M18.3,27.8c0.9-0.7,2-0.4,2,1.1c0,1.1-0.6,2.2-1.1,2.8c-0.7,0.7-1.7,0.7-1.9-0.9
					C17,29.7,17.4,28.6,18.3,27.8z"/>
				<path class="st20" d="M18.3,28c0.7-0.7,1.9-0.6,1.9,0.9c0,1.1-0.7,2.2-1.1,2.8c-0.6,0.7-1.7,0.7-1.7-0.9
					C17.2,29.7,17.5,28.6,18.3,28z"/>
				<path class="st21" d="M18.3,28c0.7-0.7,1.7-0.6,1.9,0.7c0,1.1-0.7,2.2-1.1,2.6c-0.6,0.6-1.5,0.7-1.7-0.7
					C17.2,29.7,17.5,28.6,18.3,28z"/>
				<path class="st22" d="M18.3,28c0.6-0.7,1.7-0.6,1.7,0.7c0,1.1-0.7,2-1.1,2.6c-0.6,0.6-1.5,0.7-1.5-0.7
					C17.4,29.7,17.7,28.7,18.3,28z"/>
				<path class="st23" d="M18.3,28.2c0.6-0.6,1.5-0.6,1.5,0.6s-0.7,2-0.9,2.4c-0.6,0.6-1.3,0.7-1.3-0.7
					C17.4,29.7,17.7,28.7,18.3,28.2z"/>
			</g>
			<g class="st1">
				<path class="st2" d="M14,20.6c2.2,0.4,3,2.2,1.3,4.5c-0.7,1.1-2.6,1.7-4.7,1.9c-2.2,0.2-3.3-1.3-2.4-3.5
					C9.2,21.5,11.8,20.4,14,20.6z"/>
				<path class="st3" d="M13.8,20.7c2.2,0.4,2.8,2.2,1.3,4.3c-0.7,1.1-2.6,1.7-4.5,1.9c-2,0.2-3.3-1.3-2.2-3.3
					C9.4,21.5,11.8,20.4,13.8,20.7z"/>
				<path class="st4" d="M13.8,20.7c2.2,0.4,2.8,2,1.3,4.1c-0.7,1.1-2.6,1.7-4.5,1.9c-2,0.2-3.2-1.3-2.2-3.3
					C9.4,21.5,11.8,20.6,13.8,20.7z"/>
				<path class="st5" d="M13.8,20.7c2,0.4,2.8,2,1.3,4.1c-0.7,1.1-2.6,1.7-4.3,1.9c-2,0.2-3.2-1.3-2.2-3.2
					C9.6,21.5,11.8,20.6,13.8,20.7z"/>
				<path class="st6" d="M13.8,20.9c2,0.2,2.6,1.9,1.3,3.9c-0.7,1.1-2.4,1.7-4.3,1.7c-1.9,0.2-3-1.1-2-3.2
					C9.6,21.7,11.8,20.6,13.8,20.9z"/>
				<path class="st7" d="M13.6,20.9c2,0.2,2.6,1.9,1.3,3.7c-0.7,1.1-2.4,1.7-4.1,1.7c-1.9,0.2-3-1.1-2-3C9.7,21.7,12,20.7,13.6,20.9
					z"/>
				<path class="st8" d="M13.6,20.9c1.9,0.2,2.6,1.7,1.1,3.5c-0.7,1.1-2.4,1.7-3.9,1.7c-1.7,0.2-2.8-1.1-1.9-3
					C9.7,21.7,12,20.7,13.6,20.9z"/>
				<path class="st9" d="M13.6,21.1c1.9,0.2,2.4,1.7,1.1,3.3c-0.7,1.1-2.4,1.5-3.9,1.7c-1.7,0.2-2.8-0.9-1.9-2.8
					C9.9,21.7,12,20.9,13.6,21.1z"/>
				<path class="st10" d="M13.6,21.1c1.7,0.2,2.4,1.5,1.1,3.2c-0.7,1.1-2.4,1.5-3.7,1.7c-1.7,0.2-2.6-0.9-1.7-2.8
					C10.1,21.7,12,20.9,13.6,21.1z"/>
				<path class="st11" d="M13.5,21.1c1.7,0.2,2.4,1.3,1.1,3c-0.7,1.1-2.2,1.5-3.7,1.7c-1.5,0.2-2.6-0.9-1.7-2.6
					C10.1,21.9,12,21.1,13.5,21.1z"/>
				<path class="st12" d="M13.5,21.3c1.7,0.2,2.2,1.3,1.1,3c-0.7,1.1-2.2,1.5-3.5,1.5c-1.5,0.2-2.4-0.9-1.5-2.6
					C10.3,21.9,12,21.1,13.5,21.3z"/>
				<path class="st13" d="M13.5,21.3c1.5,0.2,2.2,1.1,1.1,2.8c-0.7,0.9-2.2,1.5-3.3,1.5c-1.5,0.2-2.4-0.7-1.5-2.4
					C10.3,21.9,12,21.3,13.5,21.3z"/>
				<path class="st14" d="M13.3,21.3c1.5,0,2,1.1,0.9,2.6c-0.7,0.9-2.2,1.5-3.3,1.5c-1.3,0.2-2.2-0.7-1.3-2.4
					C10.5,21.9,12,21.3,13.3,21.3z"/>
				<path class="st15" d="M13.3,21.5c1.5,0,2,0.9,0.9,2.4c-0.7,0.9-2,1.3-3.2,1.5c-1.3,0.2-2.2-0.7-1.3-2.2
					C10.5,21.9,12,21.3,13.3,21.5z"/>
				<path class="st16" d="M13.3,21.5c1.3,0,2,0.9,0.9,2.2c-0.7,0.9-2,1.3-3.2,1.5S9,24.5,9.9,23C10.7,22,12,21.5,13.3,21.5z"/>
				<path class="st17" d="M13.3,21.5c1.3,0,1.9,0.7,0.9,2c-0.7,0.9-2,1.3-3,1.5c-1.3,0.2-2-0.6-1.1-2C10.7,22,12,21.5,13.3,21.5z"/>
				<path class="st18" d="M13.1,21.7c1.1,0,1.9,0.7,0.9,1.9c-0.7,0.9-2,1.3-2.8,1.5c-1.1,0-1.9-0.6-1.1-2C10.9,22,12,21.7,13.1,21.7
					z"/>
				<path class="st19" d="M13.1,21.7c1.1,0,1.9,0.6,0.9,1.9c-0.7,0.9-2,1.3-2.8,1.3c-0.9,0.2-1.9-0.6-0.9-1.9
					C10.9,22,12.2,21.7,13.1,21.7z"/>
				<path class="st20" d="M13.1,21.7c1.1,0,1.7,0.6,0.9,1.7c-0.7,0.9-1.9,1.3-2.6,1.3c-0.9,0.2-1.7-0.4-0.7-1.9
					C11,22,12.2,21.9,13.1,21.7z"/>
				<path class="st21" d="M12.9,21.9c0.9,0,1.7,0.4,0.7,1.5c-0.7,0.9-1.9,1.3-2.6,1.3c-0.9,0.2-1.7-0.4-0.7-1.7
					C11,22.2,12.2,21.9,12.9,21.9z"/>
				<path class="st22" d="M12.9,21.9c0.9-0.2,1.7,0.4,0.7,1.3c-0.7,0.9-1.9,1.1-2.4,1.3c-0.7,0.2-1.5-0.4-0.6-1.5
					C11.2,22.2,12.2,22,12.9,21.9z"/>
				<path class="st23" d="M12.9,21.9c0.9-0.2,1.5,0.2,0.7,1.1s-1.9,1.1-2.2,1.3c-0.7,0.2-1.5-0.4-0.6-1.5
					C11.2,22.2,12.2,22,12.9,21.9z"/>
			</g>
			<g class="st1">
				<path class="st2" d="M30.8,21.5c-2-1.9-1.1-4.3,1.7-5.4c1.5-0.6,3.5-0.6,5.6,0.7c2.2,1.3,2.4,3.5,0.2,4.8
					C36,23,32.6,23.2,30.8,21.5z"/>
				<path class="st3" d="M30.9,21.3c-2-1.7-1.1-4.3,1.7-5.2c1.5-0.6,3.5-0.6,5.4,0.7c2,1.3,2.4,3.3,0,4.7C36,22.8,32.6,23,30.9,21.3
					z"/>
				<path class="st4" d="M30.9,21.3c-1.9-1.7-1.1-4.1,1.7-5.2c1.5-0.6,3.5-0.4,5.4,0.7c2,1.1,2.2,3.3,0,4.7
					C35.8,22.6,32.8,22.8,30.9,21.3z"/>
				<path class="st5" d="M31.1,21.1c-1.9-1.7-1.1-3.9,1.5-5c1.5-0.6,3.3-0.4,5.2,0.6c2,1.1,2.2,3.2,0,4.5
					C35.8,22.6,32.8,22.8,31.1,21.1z"/>
				<path class="st6" d="M31.3,21.1c-1.9-1.5-1.1-3.9,1.5-4.8c1.5-0.6,3.3-0.4,5,0.7c1.9,1.1,2,3,0,4.3C35.8,22.4,33,22.6,31.3,21.1
					z"/>
				<path class="st7" d="M31.3,21.1c-1.9-1.5-1.1-3.7,1.5-4.7c1.5-0.6,3.3-0.4,5,0.6c1.9,1.1,2,3,0,4.1S33.2,22.4,31.3,21.1z"/>
				<path class="st8" d="M31.5,20.9c-1.9-1.5-1.1-3.7,1.3-4.5c1.5-0.6,3.3-0.2,4.8,0.6c1.9,0.9,2,2.8-0.2,4.1
					C35.8,22.2,33.2,22.2,31.5,20.9z"/>
				<path class="st9" d="M31.7,20.9c-1.9-1.3-1.1-3.5,1.3-4.3c1.5-0.6,3.2-0.2,4.8,0.6c1.7,0.9,1.9,2.8-0.2,3.9
					C35.8,22,33.4,22.2,31.7,20.9z"/>
				<path class="st10" d="M31.7,20.7c-1.9-1.3-1.1-3.3,1.3-4.1c1.5-0.6,3.2-0.2,4.7,0.6c1.7,0.9,1.9,2.6-0.2,3.7
					C35.8,21.9,33.4,22,31.7,20.7z"/>
				<path class="st11" d="M31.9,20.7c-1.9-1.3-1.1-3.3,1.1-4.1c1.5-0.4,3.2-0.2,4.5,0.6c1.5,0.9,1.9,2.4-0.2,3.5
					C35.6,21.9,33.5,21.9,31.9,20.7z"/>
				<path class="st12" d="M32.1,20.7c-1.9-1.1-1.1-3.2,1.1-3.9c1.5-0.4,3.2-0.2,4.5,0.6c1.5,0.7,1.7,2.4-0.2,3.3
					C35.6,21.7,33.5,21.7,32.1,20.7z"/>
				<path class="st13" d="M32.1,20.6c-1.7-1.1-1.1-3.2,1.1-3.7c1.5-0.4,3-0.2,4.3,0.6c1.5,0.7,1.7,2.2-0.4,3.3
					C35.6,21.5,33.7,21.7,32.1,20.6z"/>
				<path class="st14" d="M32.2,20.6c-1.7-1.1-1.1-3,0.9-3.5c1.5-0.4,3-0.2,4.1,0.6c1.3,0.7,1.5,2.2-0.4,3.2
					C35.6,21.3,33.7,21.5,32.2,20.6z"/>
				<path class="st15" d="M32.4,20.4c-1.9-0.9-1.1-2.8,0.9-3.3c1.5-0.4,3,0,4.1,0.6c1.3,0.7,1.5,2-0.4,3
					C35.6,21.3,33.9,21.3,32.4,20.4z"/>
				<path class="st16" d="M32.4,20.4c-1.7-0.9-1.1-2.8,0.9-3.2c1.5-0.4,3,0,3.9,0.6c1.3,0.7,1.5,2-0.4,2.8
					C35.6,21.1,33.9,21.1,32.4,20.4z"/>
				<path class="st17" d="M32.6,20.4c-1.7-0.9-1.1-2.6,0.7-3c1.5-0.4,2.8,0,3.9,0.6s1.3,1.9-0.4,2.6C35.6,20.9,34.1,21.1,32.6,20.4z
					"/>
				<path class="st18" d="M32.8,20.2c-1.7-0.7-0.9-2.4,0.7-3c1.5-0.4,2.8,0,3.7,0.6c1.1,0.6,1.3,1.7-0.4,2.6
					C35.6,20.9,34.1,20.9,32.8,20.2z"/>
				<path class="st19" d="M32.8,20.2c-1.7-0.7-0.9-2.4,0.7-2.8c1.3-0.4,2.8,0,3.5,0.6c1.1,0.6,1.3,1.7-0.6,2.4
					C35.4,20.7,34.3,20.7,32.8,20.2z"/>
				<path class="st20" d="M33,20c-1.7-0.7-0.9-2.2,0.6-2.6c1.3-0.2,2.8,0.2,3.5,0.4c0.9,0.6,1.1,1.5-0.6,2.2
					C35.4,20.7,34.3,20.6,33,20z"/>
				<path class="st21" d="M33.2,20c-1.7-0.6-0.9-2,0.6-2.4c1.3-0.2,2.6,0.2,3.3,0.4c0.9,0.4,1.1,1.5-0.6,2
					C35.4,20.6,34.5,20.6,33.2,20z"/>
				<path class="st22" d="M33.2,20c-1.5-0.6-0.9-2,0.6-2.2c1.3-0.2,2.6,0.2,3.2,0.4c0.7,0.4,0.9,1.3-0.6,1.9
					C35.4,20.4,34.5,20.4,33.2,20z"/>
				<path class="st23" d="M33.4,19.8c-1.5-0.6-0.9-1.9,0.4-2c1.3-0.2,2.6,0.2,3.2,0.4c0.7,0.4,0.9,1.3-0.6,1.9
					C35.4,20.4,34.7,20.2,33.4,19.8z"/>
			</g>
			<g class="st1">
				<path class="st2" d="M30.4,15c-2.8,0-3.7-2.4-2.4-5.2c0.7-1.5,2.2-2.8,4.7-3.3c2.4-0.6,4.3,1.7,3.5,4.1C35.4,13.3,33,15,30.4,15
					z"/>
				<path class="st3" d="M30.6,14.8c-2.6,0-3.7-2.2-2.4-5c0.7-1.5,2.2-2.8,4.5-3.2C35,6,36.7,8.1,36,10.7
					C35.2,13.1,33,14.8,30.6,14.8z"/>
				<path class="st4" d="M30.6,14.8c-2.6,0-3.5-2.2-2.2-4.8c0.7-1.5,2.2-2.6,4.5-3.2s3.9,1.5,3.2,3.9C35,13.1,33,14.6,30.6,14.8z"/>
				<path class="st5" d="M30.6,14.6c-2.6,0.2-3.5-2.2-2.2-4.7c0.7-1.5,2.2-2.6,4.3-3c2.2-0.6,3.9,1.5,3.2,3.9
					C35,12.9,33,14.4,30.6,14.6z"/>
				<path class="st6" d="M30.6,14.4c-2.4,0.2-3.5-2-2.2-4.5c0.7-1.5,2.2-2.6,4.3-3c2.2-0.6,3.7,1.3,3,3.7
					C34.9,12.7,32.8,14.4,30.6,14.4z"/>
				<path class="st7" d="M30.6,14.2c-2.4,0.2-3.3-2-2-4.5c0.7-1.3,2.2-2.4,4.1-3c2-0.4,3.5,1.3,2.8,3.5
					C34.9,12.7,32.8,14.2,30.6,14.2z"/>
				<path class="st8" d="M30.8,14.2c-2.4,0.2-3.3-1.9-2-4.3c0.7-1.3,2.2-2.4,4.1-2.8c2-0.4,3.5,1.3,2.6,3.5
					C34.7,12.6,32.8,14,30.8,14.2z"/>
				<path class="st9" d="M30.8,14c-2.2,0.2-3.2-1.9-2-4.1c0.7-1.3,2.2-2.4,3.9-2.8c1.9-0.4,3.3,1.1,2.6,3.3
					C34.7,12.6,32.8,13.9,30.8,14z"/>
				<path class="st10" d="M30.8,13.9c-2.2,0.2-3.2-1.7-1.9-3.9c0.7-1.3,2.2-2.4,3.9-2.8c1.9-0.4,3.2,1.1,2.4,3.2
					C34.5,12.4,32.8,13.7,30.8,13.9z"/>
				<path class="st11" d="M30.8,13.7c-2.2,0.4-3-1.7-1.9-3.7c0.7-1.3,2.2-2.2,3.7-2.6c1.7-0.4,3,0.9,2.2,3.2
					C34.3,12.4,32.8,13.5,30.8,13.7z"/>
				<path class="st12" d="M30.9,13.7c-2,0.4-3-1.7-1.9-3.5c0.7-1.3,2.2-2.2,3.7-2.6c1.7-0.4,3,0.9,2.2,3
					C34.3,12.2,32.8,13.3,30.9,13.7z"/>
				<path class="st13" d="M30.9,13.5c-2,0.4-2.8-1.5-1.7-3.3c0.7-1.3,2.2-2.2,3.5-2.4c1.7-0.4,2.8,0.9,2,3
					C34.1,12,32.8,13.1,30.9,13.5z"/>
				<path class="st14" d="M30.9,13.3c-2,0.4-2.8-1.5-1.7-3.3c0.7-1.3,2.2-2,3.3-2.4c1.5-0.4,2.6,0.7,1.9,2.8
					C34.1,12,32.6,12.9,30.9,13.3z"/>
				<path class="st15" d="M30.9,13.1c-1.9,0.4-2.6-1.3-1.7-3.2c0.7-1.3,2-2,3.3-2.4c1.5-0.4,2.6,0.7,1.9,2.6
					C33.9,11.8,32.6,12.7,30.9,13.1z"/>
				<path class="st16" d="M30.9,13.1c-1.9,0.4-2.6-1.3-1.5-3c0.7-1.3,2-2,3.2-2.2c1.3-0.4,2.4,0.7,1.7,2.6
					C33.9,11.8,32.6,12.7,30.9,13.1z"/>
				<path class="st17" d="M31.1,12.9c-1.9,0.6-2.6-1.3-1.5-2.8c0.7-1.1,2-1.9,3.2-2.2c1.3-0.4,2.2,0.6,1.5,2.4
					C33.7,11.6,32.6,12.6,31.1,12.9z"/>
				<path class="st18" d="M31.1,12.7c-1.9,0.6-2.4-1.1-1.5-2.6c0.7-1.1,2-1.9,3-2.2c1.1-0.4,2.2,0.6,1.3,2.4
					C33.5,11.6,32.6,12.4,31.1,12.7z"/>
				<path class="st19" d="M31.1,12.6c-1.7,0.6-2.4-1.1-1.3-2.4c0.7-1.1,2-1.9,3-2c1.1-0.4,2,0.6,1.3,2.2
					C33.5,11.4,32.6,12.2,31.1,12.6z"/>
				<path class="st20" d="M31.1,12.6c-1.7,0.6-2.2-0.9-1.3-2.2c0.7-1.1,2-1.9,2.8-2c1.1-0.4,1.9,0.4,1.1,2
					C33.4,11.3,32.6,12,31.1,12.6z"/>
				<path class="st21" d="M31.3,12.4c-1.7,0.6-2.2-0.9-1.3-2s2-1.7,2.8-1.9c0.9-0.4,1.9,0.4,0.9,2C33.4,11.3,32.4,11.8,31.3,12.4z"
					/>
				<path class="st22" d="M31.3,12.2c-1.5,0.7-2-0.7-1.1-2c0.9-1.1,2-1.7,2.6-1.9c0.9-0.4,1.7,0.4,0.9,1.9
					C33.2,11.1,32.4,11.6,31.3,12.2z"/>
				<path class="st23" d="M31.3,12c-1.5,0.7-2-0.7-1.1-1.9s2-1.7,2.6-1.9c0.7-0.2,1.5,0.2,0.7,1.7C33.2,11.1,32.4,11.4,31.3,12z"/>
			</g>
			<g class="st1">
				<path class="st2" d="M26.5,10.3c-1.9,2-4.8,1.3-6-1.7c-0.6-1.5-0.4-3.5,0.7-5.6c1.3-2.2,4.7-2,6,0.2
					C28.5,5.7,28.2,8.5,26.5,10.3z"/>
				<path class="st3" d="M26.5,10.1c-1.9,1.9-4.7,1.3-5.8-1.7c-0.6-1.5-0.4-3.5,0.7-5.4c1.3-2,4.5-2,5.8,0.2
					C28.3,5.7,28.2,8.5,26.5,10.1z"/>
				<path class="st4" d="M26.3,10.1c-1.7,1.9-4.5,1.3-5.6-1.5c-0.6-1.5-0.4-3.5,0.7-5.4c1.3-2,4.3-2,5.6,0.2
					C28.2,5.7,28,8.3,26.3,10.1z"/>
				<path class="st5" d="M26.3,9.9c-1.7,1.9-4.5,1.3-5.4-1.5c-0.6-1.5-0.4-3.3,0.7-5.2c1.1-2,4.1-1.9,5.4,0.4
					C28.2,5.7,27.8,8.3,26.3,9.9z"/>
				<path class="st6" d="M26.1,9.8c-1.7,1.9-4.3,1.3-5.2-1.5c-0.6-1.5-0.4-3.3,0.7-5c1.1-1.9,3.9-1.9,5.2,0.4
					C28,5.7,27.6,8.1,26.1,9.8z"/>
				<path class="st7" d="M26.1,9.8c-1.5,1.9-4.1,1.1-5-1.3c-0.6-1.5-0.4-3.3,0.7-5c1.1-1.9,3.7-1.9,5,0.4
					C27.8,5.7,27.4,8.1,26.1,9.8z"/>
				<path class="st8" d="M25.9,9.6c-1.5,1.9-3.9,1.1-4.8-1.3c-0.6-1.5-0.2-3.3,0.7-4.8c1.1-1.7,3.5-1.7,4.7,0.4
					C27.6,5.7,27.2,7.9,25.9,9.6z"/>
				<path class="st9" d="M25.9,9.4c-1.5,1.9-3.9,1.1-4.7-1.3c-0.6-1.5-0.2-3.2,0.7-4.8c0.9-1.7,3.3-1.7,4.5,0.4
					C27.4,5.7,27,7.9,25.9,9.4z"/>
				<path class="st10" d="M25.7,9.4c-1.3,1.9-3.7,1.1-4.5-1.1c-0.4-1.5-0.2-3.2,0.6-4.7c0.9-1.7,3.3-1.7,4.3,0.4
					C27.2,5.7,26.9,7.7,25.7,9.4z"/>
				<path class="st11" d="M25.5,9.2c-1.3,1.9-3.5,1.1-4.3-1.1c-0.4-1.5-0.2-3.2,0.6-4.5C22.8,2.1,25,1.9,25.9,4
					C27,5.7,26.9,7.7,25.5,9.2z"/>
				<path class="st12" d="M25.5,9.2c-1.3,1.7-3.5,1.1-4.1-1.1c-0.4-1.5-0.2-3.2,0.6-4.5c0.9-1.5,3-1.5,4.1,0.4
					C26.9,5.7,26.7,7.5,25.5,9.2z"/>
				<path class="st13" d="M25.4,9c-1.1,1.7-3.3,1.1-3.9-0.9c-0.4-1.5-0.2-3,0.6-4.3c0.7-1.5,2.8-1.5,3.7,0.4
					C26.7,5.7,26.5,7.5,25.4,9z"/>
				<path class="st14" d="M25.4,8.8c-1.1,1.7-3.2,1.1-3.7-0.9c-0.4-1.5,0-3,0.6-4.1c0.7-1.3,2.6-1.5,3.5,0.6
					C26.5,5.7,26.3,7.3,25.4,8.8z"/>
				<path class="st15" d="M25.2,8.8c-0.9,1.7-3,1.1-3.5-0.9c-0.4-1.5,0-3,0.6-4.1c0.7-1.3,2.4-1.3,3.3,0.6
					C26.3,5.7,26.1,7.3,25.2,8.8z"/>
				<path class="st16" d="M25.2,8.6c-0.9,1.7-3,1.1-3.3-0.7c-0.4-1.5,0-3,0.6-3.9c0.7-1.3,2.2-1.3,3.2,0.6
					C26.1,5.7,25.9,7.2,25.2,8.6z"/>
				<path class="st17" d="M25,8.5c-0.7,1.7-2.8,1.1-3.2-0.7c-0.4-1.5,0-2.8,0.6-3.9s2.2-1.3,3,0.6C25.9,5.7,25.7,7.2,25,8.5z"/>
				<path class="st18" d="M25,8.5c-0.7,1.7-2.6,1.1-3-0.7c-0.4-1.5,0-2.8,0.6-3.7c0.6-1.1,2-1.1,2.8,0.6C25.7,5.7,25.7,7,25,8.5z"/>
				<path class="st19" d="M24.8,8.3c-0.7,1.7-2.4,0.9-2.8-0.7C21.6,6,22,4.7,22.6,4c0.6-1.1,1.9-1.1,2.6,0.6
					C25.5,5.9,25.5,7,24.8,8.3z"/>
				<path class="st20" d="M24.8,8.1c-0.7,1.7-2.4,0.9-2.6-0.6C22,6.2,22.4,4.7,22.8,4c0.4-0.9,1.5-0.9,2.2,0.7
					C25.4,5.9,25.4,6.8,24.8,8.1z"/>
				<path class="st21" d="M24.6,8.1c-0.6,1.7-2.2,0.9-2.4-0.6c-0.2-1.3,0.2-2.6,0.6-3.3c0.4-0.9,1.5-1.1,2.2,0.6
					C25.4,5.9,25.2,6.8,24.6,8.1z"/>
				<path class="st22" d="M24.6,7.9c-0.6,1.5-2,0.9-2.2-0.6c-0.2-1.3,0.2-2.6,0.6-3.2c0.4-0.7,1.3-0.9,2,0.6
					C25.2,5.9,25,6.6,24.6,7.9z"/>
				<path class="st23" d="M24.4,7.7c-0.6,1.5-1.9,0.9-2-0.4c-0.2-1.3,0.2-2.6,0.4-3.2c0.4-0.7,1.3-0.9,1.9,0.7
					C25,5.9,24.8,6.6,24.4,7.7z"/>
			</g>
			<g class="st1">
				<path class="st2" d="M20.3,13.7c-0.6,2.6-3.2,3.2-5.6,1.1c-1.3-1.1-2.2-3-2.2-5.4c0-2.6,1.9-3.7,4.3-2.4
					C19,8.3,20.9,11.1,20.3,13.7z"/>
				<path class="st3" d="M20.2,13.5c-0.6,2.6-3.2,3-5.4,1.1c-1.3-1.1-2.2-3-2-5.2c0-2.4,1.9-3.7,4.1-2.4C19,8.5,20.7,11.1,20.2,13.5
					z"/>
				<path class="st4" d="M20,13.5c-0.6,2.4-3,3-5.2,0.9c-1.3-0.9-2-2.8-2-5c0-2.4,1.9-3.5,4.1-2.2C18.9,8.5,20.5,11.1,20,13.5z"/>
				<path class="st5" d="M20,13.3c-0.6,2.6-3,3-5.2,1.1c-1.1-1.1-2-2.8-1.9-4.8c0-2.2,1.7-3.5,3.9-2C18.9,8.6,20.3,11.1,20,13.3z"/>
				<path class="st6" d="M19.8,13.3c-0.6,2.4-2.8,2.8-4.8,0.9c-1.3-0.9-2-2.8-2-4.7c0-2.2,1.7-3.3,3.7-2
					C18.7,8.6,20.2,11.1,19.8,13.3z"/>
				<path class="st7" d="M19.6,13.3c-0.4,2.4-2.8,2.8-4.8,0.9c-1.1-1.1-1.9-2.8-1.7-4.7c0-2,1.7-3.2,3.7-1.9
					C18.7,8.8,20,11.1,19.6,13.3z"/>
				<path class="st8" d="M19.6,13.1c-0.4,2.2-2.6,2.8-4.7,0.9c-1.1-0.9-1.9-2.6-1.9-4.5c0-2,1.5-3.2,3.5-1.9
					C18.5,8.8,19.8,11.1,19.6,13.1z"/>
				<path class="st9" d="M19.4,13.1c-0.4,2.2-2.6,2.6-4.5,0.9c-1.1-1.1-1.9-2.8-1.7-4.5c0-2,1.5-3,3.5-1.7
					C18.5,9,19.6,11.1,19.4,13.1z"/>
				<path class="st10" d="M19.2,12.9c-0.2,2.2-2.4,2.6-4.3,0.9c-1.1-0.9-1.7-2.6-1.7-4.3c0-1.9,1.5-2.8,3.3-1.7
					C18.3,9,19.6,11.1,19.2,12.9z"/>
				<path class="st11" d="M19,12.9c-0.2,2.2-2.2,2.6-3.9,0.9c-1.1-1.1-1.7-2.8-1.7-4.3c0-1.9,1.3-2.8,3.2-1.5
					C18.1,9,19.4,11.1,19,12.9z"/>
				<path class="st12" d="M19,12.9c-0.2,2-2.2,2.4-3.9,0.9c-1.1-1.1-1.7-2.8-1.7-4.3c0-1.7,1.3-2.6,3.2-1.5
					C18.1,9.2,19.2,10.9,19,12.9z"/>
				<path class="st13" d="M18.9,12.7c-0.2,2-2.2,2.4-3.7,0.9c-1.1-1.1-1.5-2.6-1.5-4.1c0-1.7,1.3-2.6,3-1.3
					C17.9,9.2,19,10.9,18.9,12.7z"/>
				<path class="st14" d="M18.7,12.7c-0.2,2-2,2.4-3.5,0.7c-0.9-0.9-1.5-2.6-1.5-3.9c0-1.5,1.1-2.4,3-1.3
					C17.9,9.4,18.9,10.9,18.7,12.7z"/>
				<path class="st15" d="M18.7,12.6c0,2-2,2.2-3.3,0.7c-1.1-0.9-1.5-2.4-1.5-3.7c0-1.5,1.1-2.2,2.8-1.1
					C17.7,9.4,18.7,10.9,18.7,12.6z"/>
				<path class="st16" d="M18.5,12.6c0,1.9-1.9,2.2-3.2,0.7c-1.1-1.1-1.5-2.4-1.5-3.7c0-1.5,1.1-2.2,2.6-0.9
					C17.7,9.6,18.5,10.9,18.5,12.6z"/>
				<path class="st17" d="M18.3,12.6c0,1.9-1.9,2.2-3,0.7c-0.9-1.1-1.3-2.6-1.5-3.7c0-1.3,0.9-2,2.6-0.9
					C17.5,9.6,18.3,10.9,18.3,12.6z"/>
				<path class="st18" d="M18.3,12.4c0,1.9-1.7,2-2.8,0.7C14.4,12,14,10.7,14,9.6c0-1.3,0.9-2,2.4-0.7C17.5,9.6,18.1,10.9,18.3,12.4
					z"/>
				<path class="st19" d="M18.1,12.4c0.2,1.9-1.7,2-2.8,0.7c-0.9-1.1-1.1-2.4-1.3-3.3c0-1.1,0.9-1.9,2.4-0.7
					C17.4,9.8,17.9,10.9,18.1,12.4z"/>
				<path class="st20" d="M17.9,12.2c0.2,1.7-1.5,1.9-2.6,0.7c-0.7-1.1-1.1-2.4-1.1-3.2c0-1.1,0.7-1.7,2.2-0.6
					C17.4,9.8,17.9,10.9,17.9,12.2z"/>
				<path class="st21" d="M17.9,12.2c0.2,1.7-1.5,1.9-2.4,0.7c-0.9-1.1-1.1-2.4-1.3-3.2c0-0.9,0.7-1.7,2-0.6
					C17.2,9.9,17.7,10.9,17.9,12.2z"/>
				<path class="st22" d="M17.7,12.2c0.4,1.7-1.3,1.9-2.2,0.7c-0.7-1.3-1.1-2.6-1.1-3.2c0-0.9,0.7-1.5,2-0.4
					C17.2,9.9,17.5,10.9,17.7,12.2z"/>
				<path class="st23" d="M17.5,12c0.4,1.7-1.1,1.7-2,0.6c-0.7-0.9-0.9-2.2-1.1-2.8c0-0.7,0.6-1.5,1.9-0.4
					C17,10.1,17.4,10.7,17.5,12z"/>
			</g>
			<g class="st1">
				<path class="st2" d="M13.8,31.9c-2.6,0.2-3.9-2.2-2.6-5c0.6-1.5,2.2-3,4.5-3.5c2.4-0.6,4.5,0.9,3.9,3.5
					C18.7,29.5,16.2,31.7,13.8,31.9z"/>
				<path class="st3" d="M13.8,31.7c-2.6,0.2-3.7-2-2.6-4.8c0.6-1.5,2-2.8,4.3-3.3c2.4-0.6,4.5,0.9,3.7,3.3
					C18.7,29.3,16.2,31.5,13.8,31.7z"/>
				<path class="st4" d="M13.8,31.5c-2.6,0.2-3.7-2-2.6-4.7c0.7-1.5,2-2.8,4.3-3.3s4.3,0.7,3.5,3.3C18.5,29.3,16.2,31.3,13.8,31.5z"
					/>
				<path class="st5" d="M13.8,31.5c-2.6,0.2-3.7-2-2.4-4.7c0.7-1.5,2-2.8,4.1-3.3c2.2-0.6,4.1,0.7,3.5,3.3
					C18.3,29.1,16.2,31.2,13.8,31.5z"/>
				<path class="st6" d="M13.8,31.3c-2.4,0.2-3.5-1.9-2.4-4.5c0.7-1.5,2-2.6,4.1-3.2s3.9,0.7,3.3,3.2C18.3,29.1,16.1,31.2,13.8,31.3
					z"/>
				<path class="st7" d="M13.8,31.2c-2.4,0.4-3.5-1.9-2.2-4.3c0.7-1.5,2-2.6,3.9-3.2c2-0.6,3.7,0.7,3.2,3.2
					C18.1,28.9,16.1,31,13.8,31.2z"/>
				<path class="st8" d="M14,31c-2.4,0.4-3.3-1.7-2.2-4.1c0.7-1.5,2-2.6,3.9-3c2-0.6,3.7,0.7,3,3C17.9,28.9,16.1,30.8,14,31z"/>
				<path class="st9" d="M14,31c-2.2,0.4-3.3-1.7-2.2-3.9c0.7-1.3,2-2.4,3.7-3c1.9-0.6,3.5,0.7,2.8,3C17.9,28.9,16.1,30.6,14,31z"/>
				<path class="st10" d="M14,30.8c-2.2,0.4-3.2-1.7-2-3.7c0.7-1.3,2-2.4,3.7-3c1.9-0.6,3.3,0.6,2.8,2.8
					C17.7,28.7,16.1,30.4,14,30.8z"/>
				<path class="st11" d="M14,30.6c-2.2,0.4-3.2-1.5-2-3.7c0.7-1.3,2-2.4,3.5-2.8c1.7-0.6,3.2,0.6,2.6,2.8
					C17.5,28.7,16.1,30.2,14,30.6z"/>
				<path class="st12" d="M14,30.4c-2,0.4-3-1.5-2-3.5c0.7-1.3,2-2.4,3.5-2.8c1.7-0.6,3.2,0.6,2.4,2.6C17.5,28.6,15.9,30,14,30.4z"
					/>
				<path class="st13" d="M14.2,30.2c-2,0.4-3-1.3-1.9-3.3c0.7-1.3,2-2.2,3.3-2.6c1.5-0.6,3,0.6,2.2,2.6
					C17.4,28.6,15.9,29.9,14.2,30.2z"/>
				<path class="st14" d="M14.2,30.2c-2,0.6-2.8-1.3-1.9-3.2c0.7-1.3,2-2.2,3.3-2.6c1.5-0.4,2.8,0.6,2.2,2.4
					C17.4,28.6,15.9,29.7,14.2,30.2z"/>
				<path class="st15" d="M14.2,30c-1.9,0.6-2.8-1.3-1.7-3c0.7-1.3,2-2.2,3.2-2.6c1.5-0.4,2.6,0.4,2,2.4
					C17.2,28.4,15.9,29.7,14.2,30z"/>
				<path class="st16" d="M14.2,29.9c-1.9,0.6-2.6-1.1-1.7-2.8c0.7-1.3,2-2,3.2-2.4c1.3-0.4,2.6,0.4,1.9,2.2
					C17,28.4,15.9,29.5,14.2,29.9z"/>
				<path class="st17" d="M14.2,29.7c-1.9,0.6-2.6-1.1-1.7-2.6c0.7-1.3,2-2,3-2.4c1.3-0.4,2.4,0.4,1.7,2.2
					C17,28.2,15.7,29.3,14.2,29.7z"/>
				<path class="st18" d="M14.2,29.7c-1.7,0.6-2.4-0.9-1.5-2.6c0.7-1.3,2-2,3-2.2c1.1-0.4,2.2,0.4,1.5,2.2
					C16.8,28.2,15.7,29.1,14.2,29.7z"/>
				<path class="st19" d="M14.4,29.5c-1.7,0.6-2.4-0.9-1.5-2.4c0.7-1.1,2-1.9,2.8-2.2c1.1-0.4,2,0.4,1.5,2
					C16.6,28,15.7,28.9,14.4,29.5z"/>
				<path class="st20" d="M14.4,29.3c-1.7,0.7-2.4-0.9-1.5-2.2c0.7-1.1,2-1.9,2.8-2.2c0.9-0.4,1.9,0.2,1.3,2
					C16.6,28,15.7,28.7,14.4,29.3z"/>
				<path class="st21" d="M14.4,29.1c-1.5,0.7-2.2-0.7-1.3-2c0.7-1.1,2-1.9,2.6-2c0.9-0.4,1.9,0.2,1.1,1.9
					C16.4,28,15.7,28.6,14.4,29.1z"/>
				<path class="st22" d="M14.4,29.1c-1.5,0.7-2-0.7-1.3-1.9s2-1.9,2.6-2c0.9-0.4,1.7,0.2,0.9,1.9C16.2,27.8,15.7,28.4,14.4,29.1z"
					/>
				<path class="st23" d="M14.4,28.9c-1.5,0.7-2-0.6-1.1-1.7c0.7-1.1,1.9-1.7,2.4-1.9c0.7-0.4,1.5,0.2,0.7,1.7
					C16.2,27.8,15.5,28.4,14.4,28.9z"/>
			</g>
			<g class="st1">
				<path class="st2" d="M7.9,22.2c-2.4-1.3-2-3.9,0.4-5.8c1.5-0.9,3.3-1.3,5.6-0.6c2.4,0.7,3.2,2.8,1.3,4.7
					C13.3,22.4,10.1,23.5,7.9,22.2z"/>
				<path class="st3" d="M8.1,22c-2.4-1.3-2-3.7,0.4-5.6c1.3-0.7,3.3-1.1,5.4-0.6c2.4,0.7,3.2,2.8,1.1,4.7
					C13.3,22.4,10.1,23.3,8.1,22z"/>
				<path class="st4" d="M8.1,22c-2.2-1.1-2-3.7,0.4-5.4c1.3-0.9,3.3-1.3,5.4-0.6c2.2,0.7,3,2.6,1.1,4.5C13.1,22.2,10.3,23.2,8.1,22
					z"/>
				<path class="st5" d="M8.2,21.9c-2.2-1.1-2-3.5,0.4-5.2c1.3-0.7,3.2-1.1,5.2-0.6c2.2,0.7,2.8,2.6,1.1,4.3
					C13.1,22,10.3,23,8.2,21.9z"/>
				<path class="st6" d="M8.2,21.9c-2.2-1.1-1.9-3.5,0.4-5c1.3-0.9,3.2-1.1,5.2-0.6s2.8,2.4,0.9,4.3C13.1,22,10.3,22.8,8.2,21.9z"/>
				<path class="st7" d="M8.4,21.7c-2.2-0.9-2-3.3,0.4-4.8c1.3-0.7,3.2-1.1,4.8-0.6c2,0.6,2.6,2.4,0.9,4.1
					C13.1,21.9,10.5,22.6,8.4,21.7z"/>
				<path class="st8" d="M8.6,21.7c-2.2-1.1-2-3.3,0.2-4.7c1.3-0.9,3.2-1.1,4.8-0.6c2,0.6,2.6,2.2,0.9,3.9
					C12.9,21.7,10.5,22.4,8.6,21.7z"/>
				<path class="st9" d="M8.6,21.5c-2-0.9-1.9-3.2,0.2-4.5c1.3-0.9,3.2-1.1,4.8-0.6c1.9,0.6,2.4,2.2,0.7,3.7
					C12.9,21.7,10.5,22.4,8.6,21.5z"/>
				<path class="st10" d="M8.8,21.5c-2-0.9-1.9-3,0.2-4.3c1.3-0.9,3-1.1,4.7-0.7c1.9,0.6,2.4,2,0.7,3.7
					C12.9,21.5,10.7,22.2,8.8,21.5z"/>
				<path class="st11" d="M8.8,21.3c-2-0.7-1.9-3,0.2-4.1c1.3-0.9,3-0.9,4.7-0.6c1.7,0.6,2.2,2,0.6,3.5C12.7,21.5,10.7,22,8.8,21.3z
					"/>
				<path class="st12" d="M9,21.1c-2-0.7-1.9-2.8,0.2-3.9c1.3-0.7,3-0.9,4.5-0.6c1.7,0.4,2.2,1.9,0.6,3.3
					C12.7,21.3,10.7,21.9,9,21.1z"/>
				<path class="st13" d="M9,21.1c-2-0.7-1.7-2.8,0.2-3.9c1.3-0.7,3-0.9,4.3-0.6c1.5,0.4,2,1.9,0.6,3.2C12.7,21.1,10.9,21.7,9,21.1z
					"/>
				<path class="st14" d="M9.2,20.9c-1.9-0.6-1.7-2.6,0.2-3.7c1.3-0.7,3-0.7,4.3-0.4s1.9,1.9,0.2,3.2C12.5,21.1,10.9,21.5,9.2,20.9z
					"/>
				<path class="st15" d="M9.2,20.9c-1.9-0.6-1.7-2.6,0.2-3.5c1.3-0.7,2.8-0.7,4.1-0.4c1.5,0.4,1.9,1.7,0.4,3
					C12.5,20.9,10.9,21.3,9.2,20.9z"/>
				<path class="st16" d="M9.4,20.7c-1.9-0.6-1.7-2.4,0-3.3c1.3-0.6,3-0.6,4.1-0.4c1.3,0.4,1.9,1.5,0.4,2.8
					C12.5,20.7,11,21.3,9.4,20.7z"/>
				<path class="st17" d="M9.6,20.7c-1.9-0.4-1.7-2.2,0-3.2c1.3-0.7,2.8-0.7,3.9-0.4c1.3,0.4,1.7,1.5,0.2,2.8
					C12.5,20.7,11,21.1,9.6,20.7z"/>
				<path class="st18" d="M9.6,20.6c-1.9-0.4-1.5-2.2,0-3c1.3-0.6,2.8-0.6,3.7-0.4c1.1,0.4,1.7,1.3,0.2,2.6
					C12.3,20.6,11,20.9,9.6,20.6z"/>
				<path class="st19" d="M9.7,20.6c-1.7-0.4-1.5-2,0-2.8c1.3-0.7,2.6-0.7,3.5-0.6c1.1,0.2,1.5,1.3,0,2.4
					C12.3,20.6,11.2,20.7,9.7,20.6z"/>
				<path class="st20" d="M9.7,20.4c-1.7-0.2-1.5-2,0-2.6c1.3-0.6,2.6-0.6,3.5-0.4c1.1,0.2,1.5,1.3,0,2.2
					C12.3,20.4,11.2,20.6,9.7,20.4z"/>
				<path class="st21" d="M9.9,20.2c-1.7-0.2-1.5-1.9,0-2.4c1.3-0.6,2.6-0.6,3.3-0.4c0.9,0.2,1.3,1.1,0,2.2
					C12.3,20.2,11.2,20.4,9.9,20.2z"/>
				<path class="st22" d="M9.9,20.2c-1.7-0.2-1.5-1.7,0-2.2c1.3-0.6,2.6-0.4,3.3-0.4c0.9,0.2,1.3,1.1-0.2,2
					C12.2,20.2,11.2,20.4,9.9,20.2z"/>
				<path class="st23" d="M10.1,20c-1.7,0-1.3-1.7-0.2-2c1.3-0.6,2.6-0.4,3.2-0.4c0.7,0.2,1.1,0.9-0.2,1.9
					C12.2,20,11.4,20.2,10.1,20z"/>
			</g>
			<g class="st1">
				<path class="st2" d="M27.4,27.2c-0.4-2.6,1.7-4.1,4.8-3.2c1.5,0.6,3.2,1.9,3.9,4.1c0.9,2.4-0.4,4.3-3,3.9
					C30.4,31.7,27.8,29.9,27.4,27.2z"/>
				<path class="st3" d="M27.4,27.4c-0.4-2.6,1.7-4.1,4.7-3.2c1.5,0.6,3,1.9,3.9,3.9c0.9,2.2-0.2,4.1-3,3.7
					C30.6,31.5,27.8,29.9,27.4,27.4z"/>
				<path class="st4" d="M27.6,27.4c-0.6-2.6,1.7-3.9,4.5-3c1.5,0.6,3,1.9,3.7,3.9c0.7,2.2-0.2,3.9-2.8,3.5
					C30.6,31.5,28,29.7,27.6,27.4z"/>
				<path class="st5" d="M27.8,27.4c-0.6-2.4,1.7-3.9,4.3-3c1.5,0.6,3,1.9,3.7,3.7c0.7,2.2-0.2,3.9-2.8,3.5
					C30.6,31.3,28.2,29.7,27.8,27.4z"/>
				<path class="st6" d="M27.8,27.4c-0.6-2.4,1.5-3.7,4.1-3c1.5,0.6,2.8,1.9,3.5,3.7c0.7,2-0.2,3.7-2.6,3.3
					C30.6,31.2,28.3,29.5,27.8,27.4z"/>
				<path class="st7" d="M28,27.4c-0.6-2.4,1.5-3.7,4.1-2.8c1.5,0.6,2.8,1.7,3.5,3.5c0.7,2-0.2,3.5-2.6,3.2
					C30.8,31,28.3,29.5,28,27.4z"/>
				<path class="st8" d="M28.2,27.4c-0.6-2.2,1.5-3.7,3.9-2.8c1.5,0.6,2.8,1.7,3.3,3.5c0.7,1.9-0.2,3.3-2.4,3.2
					C30.8,31,28.5,29.5,28.2,27.4z"/>
				<path class="st9" d="M28.2,27.4c-0.6-2.2,1.3-3.5,3.7-2.8c1.5,0.6,2.6,1.7,3.3,3.5c0.7,1.9,0,3.3-2.4,3
					C30.8,30.8,28.7,29.3,28.2,27.4z"/>
				<path class="st10" d="M28.3,27.4c-0.6-2.2,1.3-3.5,3.5-2.6c1.5,0.6,2.6,1.7,3.2,3.3c0.6,1.9,0,3.2-2.4,2.8
					C30.8,30.6,28.9,29.3,28.3,27.4z"/>
				<path class="st11" d="M28.3,27.4c-0.6-2,1.3-3.3,3.5-2.6c1.5,0.6,2.6,1.7,3.2,3.3c0.6,1.7,0,3-2.2,2.6
					C30.9,30.6,28.9,29.3,28.3,27.4z"/>
				<path class="st12" d="M28.5,27.4c-0.6-2,1.1-3.3,3.3-2.4c1.5,0.6,2.4,1.7,3,3.2c0.6,1.7,0,2.8-2.2,2.6
					C30.9,30.4,29.1,29.1,28.5,27.4z"/>
				<path class="st13" d="M28.7,27.4c-0.7-2,1.1-3.3,3.2-2.4c1.3,0.6,2.4,1.7,3,3.2c0.6,1.5,0,2.8-2,2.4
					C30.9,30.2,29.3,29.1,28.7,27.4z"/>
				<path class="st14" d="M28.7,27.4c-0.7-1.9,1.1-3.2,3-2.4c1.3,0.6,2.4,1.7,2.8,3c0.6,1.5,0,2.6-2,2.2
					C31.1,30,29.5,29.1,28.7,27.4z"/>
				<path class="st15" d="M28.9,27.4c-0.7-1.9,1.1-3.2,3-2.2c1.3,0.6,2.2,1.7,2.8,3c0.4,1.5,0.2,2.4-1.9,2
					C31.1,30,29.5,28.9,28.9,27.4z"/>
				<path class="st16" d="M29.1,27.4c-0.7-1.9,0.9-3,2.8-2.2c1.3,0.6,2.2,1.7,2.6,3c0.4,1.3,0.2,2.2-1.9,2
					C31.1,29.9,29.6,28.9,29.1,27.4z"/>
				<path class="st17" d="M29.1,27.4c-0.7-1.7,0.9-3,2.6-2.2c1.3,0.6,2.2,1.7,2.6,2.8c0.4,1.3,0.2,2.2-1.9,1.9
					C31.1,29.7,29.8,28.9,29.1,27.4z"/>
				<path class="st18" d="M29.3,27.4c-0.7-1.7,0.9-3,2.4-2c1.3,0.6,2,1.7,2.4,2.8s0.2,2-1.7,1.7C31.3,29.7,30,28.7,29.3,27.4z"/>
				<path class="st19" d="M29.5,27.4c-0.7-1.7,0.7-2.8,2.4-2c1.3,0.6,2,1.5,2.4,2.6c0.4,1.1,0.2,1.9-1.7,1.7
					C31.3,29.5,30,28.7,29.5,27.4z"/>
				<path class="st20" d="M29.5,27.4c-0.9-1.5,0.7-2.8,2.2-2c1.3,0.6,2,1.5,2.2,2.6c0.2,1.1,0.2,1.7-1.5,1.5
					C31.3,29.3,30.2,28.7,29.5,27.4z"/>
				<path class="st21" d="M29.6,27.4c-0.9-1.5,0.7-2.6,2-1.9c1.3,0.7,1.9,1.5,2.2,2.6c0.2,0.9,0.4,1.7-1.5,1.3
					C31.3,29.1,30.4,28.6,29.6,27.4z"/>
				<path class="st22" d="M29.8,27.4c-0.9-1.5,0.6-2.6,1.9-1.9c1.3,0.7,1.9,1.5,2,2.4c0.2,0.9,0.4,1.5-1.3,1.1
					C31.5,29.1,30.4,28.6,29.8,27.4z"/>
				<path class="st23" d="M29.8,27.4c-0.9-1.3,0.6-2.4,1.7-1.9c1.1,0.7,1.9,1.5,2,2.4c0.2,0.7,0.4,1.3-1.3,1.1
					C31.5,28.9,30.6,28.6,29.8,27.4z"/>
			</g>
			<g class="st1">
				<path class="st2" d="M25.9,26.9c-1.9-1.9-4.3-0.9-5.4,2c-0.6,1.5-0.4,3.5,0.9,5.6c1.3,2,3.7,2.2,4.8-0.2
					C27.6,31.9,27.6,28.6,25.9,26.9z"/>
				<path class="st3" d="M25.7,26.9c-1.9-1.9-4.3-0.9-5.2,1.9c-0.6,1.5-0.4,3.5,0.9,5.4c1.3,2,3.5,2.2,4.7-0.2
					C27.4,31.9,27.6,28.7,25.7,26.9z"/>
				<path class="st4" d="M25.7,27.1c-1.9-1.9-4.1-0.9-5,1.9c-0.6,1.5-0.2,3.5,0.9,5.2c1.3,2,3.3,2,4.7-0.2
					C27.4,31.9,27.4,28.7,25.7,27.1z"/>
				<path class="st5" d="M25.7,27.1c-1.7-1.9-4.1-0.9-5,1.9c-0.6,1.5-0.2,3.3,0.9,5.2c1.3,1.9,3.2,2,4.5-0.2
					C27.2,31.7,27.2,28.9,25.7,27.1z"/>
				<path class="st6" d="M25.5,27.2c-1.7-1.9-3.9-0.9-4.8,1.7c-0.4,1.5-0.2,3.3,0.9,5c1.3,1.9,3.2,2,4.3-0.2
					C27,31.7,27.2,28.9,25.5,27.2z"/>
				<path class="st7" d="M25.5,27.2c-1.7-1.9-3.9-0.9-4.7,1.7c-0.4,1.5-0.2,3.3,0.9,4.8c1.1,1.7,3,2,4.1-0.2
					C26.9,31.7,27,28.9,25.5,27.2z"/>
				<path class="st8" d="M25.5,27.4c-1.5-1.9-3.7-0.9-4.5,1.5c-0.4,1.5-0.2,3.2,0.9,4.8c1.1,1.7,2.8,1.9,3.9-0.2
					C26.9,31.7,26.9,29.1,25.5,27.4z"/>
				<path class="st9" d="M25.4,27.6c-1.5-1.7-3.7-0.9-4.5,1.5c-0.4,1.5-0.2,3.2,0.9,4.7c1.1,1.7,2.8,1.9,3.7-0.2
					C26.7,31.7,26.7,29.1,25.4,27.6z"/>
				<path class="st10" d="M25.4,27.6c-1.5-1.7-3.5-0.9-4.3,1.3c-0.4,1.5-0.2,3.2,0.9,4.7c1.1,1.5,2.6,1.9,3.7-0.2
					C26.5,31.5,26.7,29.3,25.4,27.6z"/>
				<path class="st11" d="M25.4,27.8c-1.3-1.7-3.5-0.9-4.1,1.3c-0.4,1.5-0.2,3,0.9,4.5s2.4,1.7,3.5-0.2
					C26.5,31.5,26.5,29.3,25.4,27.8z"/>
				<path class="st12" d="M25.2,27.8c-1.3-1.7-3.3-0.9-3.9,1.3c-0.4,1.5,0,3,0.9,4.3c0.9,1.3,2.2,1.7,3.3-0.2
					C26.3,31.5,26.3,29.3,25.2,27.8z"/>
				<path class="st13" d="M25.2,28c-1.3-1.7-3.3-0.9-3.9,1.1c-0.4,1.5,0,3,0.9,4.3s2.2,1.7,3.2-0.4C26.1,31.5,26.3,29.5,25.2,28z"/>
				<path class="st14" d="M25,28c-1.1-1.7-3.2-0.9-3.7,1.1c-0.4,1.5,0,3,0.9,4.1c0.9,1.3,2,1.5,3-0.4C25.9,31.5,26.1,29.5,25,28z"/>
				<path class="st15" d="M25,28.2c-1.1-1.7-3.2-0.9-3.5,0.9c-0.4,1.5,0,2.8,0.7,3.9c0.9,1.1,1.9,1.5,2.8-0.4
					C25.9,31.3,25.9,29.7,25,28.2z"/>
				<path class="st16" d="M25,28.2c-0.9-1.7-3-0.9-3.3,0.9c-0.4,1.5,0,2.8,0.7,3.9c0.9,1.1,1.9,1.5,2.8-0.4
					C25.7,31.3,25.7,29.7,25,28.2z"/>
				<path class="st17" d="M24.8,28.4c-0.9-1.7-3-0.9-3.3,0.9c-0.2,1.5,0,2.8,0.7,3.7c0.7,1.1,1.7,1.5,2.6-0.4
					C25.5,31.3,25.7,29.7,24.8,28.4z"/>
				<path class="st18" d="M24.8,28.4c-0.9-1.7-2.8-0.9-3.2,0.7c-0.2,1.5,0,2.6,0.7,3.5c0.7,0.9,1.5,1.3,2.4-0.4
					C25.4,31.3,25.5,29.9,24.8,28.4z"/>
				<path class="st19" d="M24.8,28.6c-0.7-1.7-2.8-0.9-3,0.7c-0.2,1.5,0,2.6,0.7,3.5c0.7,0.9,1.3,1.3,2.2-0.4
					C25.4,31.3,25.4,29.9,24.8,28.6z"/>
				<path class="st20" d="M24.6,28.7c-0.7-1.5-2.6-0.9-3,0.6c-0.2,1.5,0.2,2.6,0.7,3.3c0.7,0.7,1.3,1.3,2-0.4
					C25.2,31.2,25.4,29.9,24.6,28.7z"/>
				<path class="st21" d="M24.6,28.7c-0.7-1.5-2.6-0.9-2.8,0.6c-0.2,1.3,0.2,2.4,0.7,3.2c0.6,0.7,1.1,1.1,1.9-0.4
					C25,31.2,25.2,30,24.6,28.7z"/>
				<path class="st22" d="M24.6,28.9c-0.6-1.5-2.4-0.9-2.6,0.6c-0.2,1.3,0.2,2.4,0.7,3.2c0.6,0.7,0.9,1.1,1.9-0.4
					C25,31.2,25,30,24.6,28.9z"/>
				<path class="st23" d="M24.4,28.9C23.9,27.4,22,28,22,29.3c-0.2,1.3,0.2,2.4,0.7,3c0.6,0.6,0.9,1.1,1.7-0.4
					C24.8,31.2,25,30.2,24.4,28.9z"/>
			</g>
		</g>
		<g>
			<path class="st24" d="M24.6,5.9c0,1.9-1.9,3.5-1.9,3.5s-1.9-1.5-1.9-3.5c0-1.9,1.9-3.5,1.9-3.5S24.6,4,24.6,5.9z"/>
			<path class="st24" d="M24.6,30.2c0,1.9-1.9,3.5-1.9,3.5s-1.9-1.5-1.9-3.5s1.9-3.5,1.9-3.5S24.6,28.4,24.6,30.2z"/>
			<path class="st24" d="M10.7,16.3c1.9,0,3.5,1.9,3.5,1.9S12.7,20,10.7,20s-3.5-1.9-3.5-1.9S8.6,16.3,10.7,16.3z"/>
			<path class="st24" d="M35,16.3c1.9,0,3.5,1.9,3.5,1.9S37.1,20,35,20c-1.9,0-3.5-1.9-3.5-1.9S33,16.3,35,16.3z"/>
			<path class="st24" d="M12.9,25.4c1.3-1.3,3.7-1.1,3.7-1.1s0.2,2.4-1.1,3.7c-1.3,1.3-3.7,1.1-3.7,1.1S11.6,26.9,12.9,25.4z"/>
			<path class="st24" d="M30.2,8.3c1.3-1.3,3.7-1.1,3.7-1.1s0.2,2.4-1.1,3.7c-1.3,1.3-3.7,1.1-3.7,1.1S28.7,9.6,30.2,8.3z"/>
			<path class="st24" d="M30.2,28c-1.3-1.3-1.1-3.7-1.1-3.7s2.4-0.2,3.7,1.1c1.3,1.3,1.1,3.7,1.1,3.7S31.5,29.3,30.2,28z"/>
			<path class="st24" d="M12.9,10.7C11.6,9.4,11.8,7,11.8,7s2.4-0.2,3.7,1.1s1.1,3.7,1.1,3.7S14.2,12,12.9,10.7z"/>
		</g>
		<g>
			<path class="st24" d="M33.5,24.1c-1.5-0.6-2-2.4-2-2.4s1.7-0.9,3.2-0.2c1.5,0.6,2,2.4,2,2.4S34.9,24.6,33.5,24.1z"/>
			<path class="st24" d="M11,14.8c-1.5-0.7-2-2.4-2-2.4s1.7-0.9,3.2-0.4c1.5,0.6,2,2.4,2,2.4S12.3,15.3,11,14.8z"/>
			<path class="st24" d="M19.4,6.2c0.6,1.5-0.2,3.2-0.2,3.2s-1.9-0.6-2.4-2S17,4.2,17,4.2S18.9,4.7,19.4,6.2z"/>
			<path class="st24" d="M28.7,28.7c0.6,1.5-0.2,3.2-0.2,3.2s-1.9-0.6-2.4-2c-0.6-1.5,0.2-3.2,0.2-3.2S28.2,27.4,28.7,28.7z"/>
			<path class="st24" d="M11,21.5c1.5-0.6,3.2,0.2,3.2,0.2s-0.6,1.9-2,2.4S9,23.9,9,23.9S9.6,22,11,21.5z"/>
			<path class="st24" d="M33.5,12c1.5-0.6,3.2,0.2,3.2,0.2s-0.6,1.9-2,2.4c-1.5,0.6-3.2-0.2-3.2-0.2S32.1,12.7,33.5,12z"/>
			<path class="st24" d="M16.8,28.7c0.6-1.5,2.4-2,2.4-2s0.9,1.7,0.2,3.2c-0.6,1.5-2.4,2-2.4,2S16.2,30.2,16.8,28.7z"/>
			<path class="st24" d="M26.1,6.2c0.6-1.5,2.4-2,2.4-2s0.9,1.7,0.2,3.2c-0.6,1.5-2.4,2-2.4,2S25.5,7.7,26.1,6.2z"/>
		</g>
		<g>
			
				<linearGradient id="SVGID_1_" gradientUnits="userSpaceOnUse" x1="21.1974" y1="37.4537" x2="24.6949" y2="40.9513" gradientTransform="matrix(1 0 0 1 0 -33.1483)">
				<stop  offset="0" style="stop-color:#FFD45C"/>
				<stop  offset="1" style="stop-color:#FF9D00"/>
			</linearGradient>
			<path class="st25" d="M24.8,6c0,1.9-1.9,3.5-1.9,3.5S21.1,8.1,21.1,6c0-1.9,1.9-3.5,1.9-3.5S24.8,4.2,24.8,6z"/>
			
				<linearGradient id="SVGID_00000053521670245671492080000014637981241699488177_" gradientUnits="userSpaceOnUse" x1="21.2025" y1="61.8289" x2="24.7008" y2="65.3273" gradientTransform="matrix(1 0 0 1 0 -33.1483)">
				<stop  offset="0" style="stop-color:#FFD45C"/>
				<stop  offset="1" style="stop-color:#FF9D00"/>
			</linearGradient>
			<path style="fill:url(#SVGID_00000053521670245671492080000014637981241699488177_);" d="M24.8,30.4c0,1.9-1.9,3.5-1.9,3.5
				s-1.9-1.5-1.9-3.5c0-1.9,1.9-3.5,1.9-3.5S24.8,28.6,24.8,30.4z"/>
			
				<linearGradient id="SVGID_00000096771755510821692180000001905903783503579012_" gradientUnits="userSpaceOnUse" x1="2216.9941" y1="187.257" x2="2213.4961" y2="190.755" gradientTransform="matrix(0 -1 1 0 -178.2398 2233.479)">
				<stop  offset="0" style="stop-color:#FFD45C"/>
				<stop  offset="1" style="stop-color:#FF9D00"/>
			</linearGradient>
			<path style="fill:url(#SVGID_00000096771755510821692180000001905903783503579012_);" d="M10.9,16.5c1.9,0,3.5,1.9,3.5,1.9
				s-1.5,1.9-3.5,1.9c-1.9,0-3.5-1.9-3.5-1.9S8.8,16.5,10.9,16.5z"/>
			
				<linearGradient id="SVGID_00000109028493089990608650000004631515607645880963_" gradientUnits="userSpaceOnUse" x1="2216.9888" y1="211.6325" x2="2213.4907" y2="215.1305" gradientTransform="matrix(0 -1 1 0 -178.2398 2233.479)">
				<stop  offset="0" style="stop-color:#FFD45C"/>
				<stop  offset="1" style="stop-color:#FF9D00"/>
			</linearGradient>
			<path style="fill:url(#SVGID_00000109028493089990608650000004631515607645880963_);" d="M35.2,16.5c1.9,0,3.5,1.9,3.5,1.9
				s-1.5,1.9-3.5,1.9c-1.9,0-3.5-1.9-3.5-1.9S33.2,16.5,35.2,16.5z"/>
			
				<linearGradient id="SVGID_00000045608279609279690970000011984508392626952067_" gradientUnits="userSpaceOnUse" x1="2596.2622" y1="1316.2875" x2="2592.6934" y2="1316.2875" gradientTransform="matrix(-0.7071 -0.7071 0.7071 -0.7071 918.1578 2792.1418)">
				<stop  offset="0" style="stop-color:#FFD45C"/>
				<stop  offset="1" style="stop-color:#FF9D00"/>
			</linearGradient>
			<path style="fill:url(#SVGID_00000045608279609279690970000011984508392626952067_);" d="M13.1,25.6c1.3-1.3,3.7-1.1,3.7-1.1
				s0.2,2.4-1.1,3.7c-1.3,1.3-3.7,1.1-3.7,1.1S11.8,26.9,13.1,25.6z"/>
			
				<linearGradient id="SVGID_00000177444362988471249970000009159713478034306464_" gradientUnits="userSpaceOnUse" x1="2596.2622" y1="1340.7549" x2="2592.6936" y2="1340.7549" gradientTransform="matrix(-0.7071 -0.7071 0.7071 -0.7071 918.1578 2792.1418)">
				<stop  offset="0" style="stop-color:#FFD45C"/>
				<stop  offset="1" style="stop-color:#FF9D00"/>
			</linearGradient>
			<path style="fill:url(#SVGID_00000177444362988471249970000009159713478034306464_);" d="M30.4,8.3c1.3-1.3,3.7-1.1,3.7-1.1
				s0.2,2.4-1.1,3.7c-1.3,1.3-3.7,1.1-3.7,1.1S28.9,9.8,30.4,8.3z"/>
			
				<linearGradient id="SVGID_00000157283833699579703740000009637426124272171415_" gradientUnits="userSpaceOnUse" x1="938.2847" y1="2764.0183" x2="938.2847" y2="2757.0369" gradientTransform="matrix(-0.7071 0.7071 -0.7071 -0.7071 2647.0508 1315.3179)">
				<stop  offset="0" style="stop-color:#FFD45C"/>
				<stop  offset="1" style="stop-color:#FF9D00"/>
			</linearGradient>
			<path style="fill:url(#SVGID_00000157283833699579703740000009637426124272171415_);" d="M30.4,28.2c-1.3-1.3-1.1-3.7-1.1-3.7
				s2.4-0.2,3.7,1.1c1.3,1.3,1.1,3.7,1.1,3.7S31.7,29.5,30.4,28.2z"/>
			
				<linearGradient id="SVGID_00000013882029629686034070000001041322849235154065_" gradientUnits="userSpaceOnUse" x1="938.2847" y1="2788.3987" x2="938.2847" y2="2781.418" gradientTransform="matrix(-0.7071 0.7071 -0.7071 -0.7071 2647.0508 1315.3179)">
				<stop  offset="0" style="stop-color:#FFD45C"/>
				<stop  offset="1" style="stop-color:#FF9D00"/>
			</linearGradient>
			<path style="fill:url(#SVGID_00000013882029629686034070000001041322849235154065_);" d="M13.1,10.9C11.8,9.6,12,7.2,12,7.2
				s2.4-0.2,3.7,1.1s1.1,3.7,1.1,3.7S14.4,12.2,13.1,10.9z"/>
		</g>
		<g>
			
				<linearGradient id="SVGID_00000110444883658833692790000017212279914506293135_" gradientUnits="userSpaceOnUse" x1="32.3958" y1="54.2223" x2="36.0438" y2="57.8706" gradientTransform="matrix(1 0 0 1 0 -33.1483)">
				<stop  offset="0" style="stop-color:#FFBB31"/>
				<stop  offset="1" style="stop-color:#FF9D00"/>
			</linearGradient>
			<path style="fill:url(#SVGID_00000110444883658833692790000017212279914506293135_);" d="M33.7,24.3c-1.5-0.6-2-2.4-2-2.4
				s1.7-0.9,3.2-0.2c1.5,0.6,2,2.4,2,2.4S35,24.8,33.7,24.3z"/>
			
				<linearGradient id="SVGID_00000142168515221842697160000004393419292476869045_" gradientUnits="userSpaceOnUse" x1="9.8839" y1="44.8792" x2="13.5316" y2="48.5269" gradientTransform="matrix(1 0 0 1 0 -33.1483)">
				<stop  offset="0" style="stop-color:#FFBB31"/>
				<stop  offset="1" style="stop-color:#FF9D00"/>
			</linearGradient>
			<path style="fill:url(#SVGID_00000142168515221842697160000004393419292476869045_);" d="M11.2,15c-1.5-0.7-2-2.4-2-2.4
				s1.7-0.9,3.2-0.2c1.5,0.6,2,2.4,2,2.4S12.5,15.5,11.2,15z"/>
			
				<linearGradient id="SVGID_00000065053310068136932450000003172136264018851725_" gradientUnits="userSpaceOnUse" x1="16.4682" y1="38.2949" x2="20.1166" y2="41.9433" gradientTransform="matrix(1 0 0 1 0 -33.1483)">
				<stop  offset="0" style="stop-color:#FFBB31"/>
				<stop  offset="1" style="stop-color:#FF9D00"/>
			</linearGradient>
			<path style="fill:url(#SVGID_00000065053310068136932450000003172136264018851725_);" d="M19.6,6.4c0.6,1.5-0.2,3.2-0.2,3.2
				S17.5,9,17,7.5s0.2-3.2,0.2-3.2S19,4.9,19.6,6.4z"/>
			
				<linearGradient id="SVGID_00000070078711917937602080000009066261608061563050_" gradientUnits="userSpaceOnUse" x1="25.7921" y1="60.827" x2="29.4402" y2="64.475" gradientTransform="matrix(1 0 0 1 0 -33.1483)">
				<stop  offset="0" style="stop-color:#FFBB31"/>
				<stop  offset="1" style="stop-color:#FF9D00"/>
			</linearGradient>
			<path style="fill:url(#SVGID_00000070078711917937602080000009066261608061563050_);" d="M28.9,28.9c0.6,1.5-0.2,3.2-0.2,3.2
				s-1.9-0.6-2.4-2c-0.6-1.5,0.2-3.2,0.2-3.2S28.3,27.4,28.9,28.9z"/>
			
				<linearGradient id="SVGID_00000072248782642023567400000011179878244949113228_" gradientUnits="userSpaceOnUse" x1="10.7146" y1="54.865" x2="12.8767" y2="57.0271" gradientTransform="matrix(1 0 0 1 0 -33.1483)">
				<stop  offset="0" style="stop-color:#FFBB31"/>
				<stop  offset="1" style="stop-color:#FF9D00"/>
			</linearGradient>
			<path style="fill:url(#SVGID_00000072248782642023567400000011179878244949113228_);" d="M11.2,21.5c1.5-0.6,3.2,0.2,3.2,0.2
				s-0.6,1.9-2,2.4s-3.2-0.2-3.2-0.2S9.7,22.2,11.2,21.5z"/>
			
				<linearGradient id="SVGID_00000165956739819928828880000018215960485597381041_" gradientUnits="userSpaceOnUse" x1="33.2175" y1="45.5564" x2="35.3795" y2="47.7187" gradientTransform="matrix(1 0 0 1 0 -33.1483)">
				<stop  offset="0" style="stop-color:#FFBB31"/>
				<stop  offset="1" style="stop-color:#FF9D00"/>
			</linearGradient>
			<path style="fill:url(#SVGID_00000165956739819928828880000018215960485597381041_);" d="M33.7,12.2c1.5-0.6,3.2,0.2,3.2,0.2
				s-0.6,1.9-2,2.4c-1.5,0.6-3.2-0.2-3.2-0.2S32.2,12.9,33.7,12.2z"/>
			
				<linearGradient id="SVGID_00000063616495873706217720000014981995906567979914_" gradientUnits="userSpaceOnUse" x1="17.2193" y1="61.5557" x2="19.3808" y2="63.7172" gradientTransform="matrix(1 0 0 1 0 -33.1483)">
				<stop  offset="0" style="stop-color:#FFBB31"/>
				<stop  offset="1" style="stop-color:#FF9D00"/>
			</linearGradient>
			<path style="fill:url(#SVGID_00000063616495873706217720000014981995906567979914_);" d="M17,28.9c0.6-1.5,2.4-2,2.4-2
				s0.9,1.7,0.2,3.2c-0.6,1.5-2.4,2-2.4,2S16.4,30.4,17,28.9z"/>
			
				<linearGradient id="SVGID_00000083809889553468217640000002119463960931862154_" gradientUnits="userSpaceOnUse" x1="26.5273" y1="39.0524" x2="28.6895" y2="41.2146" gradientTransform="matrix(1 0 0 1 0 -33.1483)">
				<stop  offset="0" style="stop-color:#FFBB31"/>
				<stop  offset="1" style="stop-color:#FF9D00"/>
			</linearGradient>
			<path style="fill:url(#SVGID_00000083809889553468217640000002119463960931862154_);" d="M26.3,6.4c0.6-1.5,2.4-2,2.4-2
				s0.9,1.7,0.2,3.2c-0.6,1.5-2.4,2-2.4,2S25.7,7.9,26.3,6.4z"/>
		</g>
		<g class="st0">
			<path class="st41" d="M34.1,30.8c-5,4.1-11.9,5-18,1.3c-8.2-5-6.3-11.9-2.6-12.1s6.7,1.1,9.1-1.5c2.8-2.8,2.8-6.1,3.5-9.3
				c0.7-3.7,5.6-4.8,10.6,0.6C42.1,15.5,40.4,25.4,34.1,30.8z"/>
			<path class="st42" d="M33.9,30.4c-4.8,4.1-11.5,5-17.5,1.3c-8-4.8-6.3-11.5-2.6-11.7c3.5-0.2,6.7,1.1,9.1-1.5
				c2.8-3,2.8-6,3.3-9.3c0.7-3.5,5.4-4.8,10.2,0.6C41.7,15.5,40.1,25.2,33.9,30.4z"/>
			<path class="st43" d="M33.7,30c-4.8,4.1-11.2,5-17.1,1.5c-7.8-4.7-6.3-11.2-2.8-11.3c3.3-0.2,6.7,1.3,9.3-1.5
				c2.8-3,2.6-6,3.3-9.3c0.7-3.5,5-4.7,9.9,0.6C41.4,15.7,39.7,25,33.7,30z"/>
			<path class="st44" d="M33.5,29.9c-4.7,3.9-10.8,4.8-16.6,1.7c-7.6-4.3-6.3-10.6-3-10.8c3.3-0.2,6.7,1.3,9.3-1.5
				c2.8-3,2.6-6,3.2-9.1c0.6-3.3,4.8-4.5,9.5,0.6C40.8,15.7,39.5,24.8,33.5,29.9z"/>
			<path class="st45" d="M33.4,29.5c-4.5,3.9-10.4,4.8-16,1.7c-7.4-4.1-6.3-10.2-3.2-10.4c3.2-0.2,6.5,1.5,9.3-1.7
				c2.8-3,2.6-6,3.2-9.1c0.6-3.3,4.7-4.3,9.1,0.6C40.4,15.9,39.1,24.6,33.4,29.5z"/>
			<path class="st46" d="M33.4,29.1c-4.3,3.7-10.2,4.7-15.6,1.9c-7.3-3.9-6.5-9.9-3.3-10c3-0.2,6.5,1.5,9.3-1.7c2.8-3,2.6-6,3-8.9
				c0.6-3.2,4.5-4.1,8.7,0.6C40.1,15.9,38.8,24.3,33.4,29.1z"/>
			<path class="st47" d="M33.2,28.9c-4.3,3.7-9.9,4.7-15.1,2c-7.1-3.5-6.5-9.3-3.3-9.7c2.8-0.2,6.5,1.7,9.5-1.7c2.8-3,2.6-6,3-8.9
				c0.4-3.2,4.3-4.1,8.4,0.6C39.5,16.1,38.6,24.1,33.2,28.9z"/>
			<path class="st48" d="M33,28.6c-4.1,3.5-9.5,4.7-14.5,2c-7.1-3.3-6.5-8.9-3.5-9.1c2.8-0.2,6.5,1.7,9.5-1.7c2.8-3.2,2.4-6,2.8-8.9
				c0.4-3.2,4.1-3.9,8,0.6C39.1,16.1,38.2,23.9,33,28.6z"/>
			<path class="st49" d="M32.8,28.2c-3.9,3.5-9.1,4.5-14,2.2c-6.9-3.2-6.5-8.4-3.7-8.7c2.6-0.4,6.3,1.9,9.5-1.9
				c2.6-3.2,2.4-6,2.8-8.7c0.4-3,3.9-3.7,7.6,0.7C38.8,16.3,37.8,23.7,32.8,28.2z"/>
			<path class="st50" d="M32.6,28c-3.7,3.3-8.7,4.5-13.6,2.4c-6.7-3-6.5-8-3.9-8.4c2.4-0.4,6.3,1.9,9.5-1.9c2.6-3.2,2.4-5.8,2.8-8.7
				c0.2-2.8,3.7-3.7,7.3,0.7C38.2,16.3,37.6,23.5,32.6,28z"/>
			<path class="st51" d="M32.6,27.6c-3.7,3.3-8.4,4.3-13,2.4c-6.5-2.6-6.5-7.6-4.1-8c2.2-0.4,6.3,2,9.7-1.9c2.6-3.2,2.4-5.8,2.6-8.6
				c0.2-2.8,3.5-3.5,6.9,0.7C37.8,16.3,37.3,23.3,32.6,27.6z"/>
			<path class="st52" d="M32.4,27.2c-3.5,3.2-8,4.3-12.5,2.6c-6.3-2.4-6.5-7.1-4.1-7.4c2.2-0.4,6.3,2,9.7-2c2.6-3.2,2.4-5.8,2.6-8.6
				c0.2-2.6,3.3-3.3,6.5,0.7C37.5,16.5,36.9,23,32.4,27.2z"/>
			<path class="st53" d="M32.2,27.1c-3.3,3.2-7.6,4.3-12.1,2.6c-6.1-2.2-6.7-6.7-4.3-7.1c2-0.4,6.1,2.2,9.7-2
				c2.6-3.2,2.4-5.8,2.4-8.6c0.2-2.6,3.2-3.2,6.1,0.7C36.9,16.5,36.7,22.8,32.2,27.1z"/>
			<path class="st54" d="M32.1,26.7c-3.2,3.2-7.3,4.1-11.5,2.8c-6-1.9-6.7-6.3-4.5-6.7c1.9-0.4,6.1,2.2,9.7-2
				c2.6-3.2,2.2-5.8,2.4-8.4c0-2.4,3-3.2,5.8,0.7C36.5,16.6,36.3,22.6,32.1,26.7z"/>
			<path class="st55" d="M31.9,26.3c-3,3-6.9,4.1-11,3c-5.8-1.7-6.7-5.8-4.7-6.3c1.9-0.4,6.1,2.4,9.9-2c2.6-3.3,2.2-5.8,2.2-8.4
				c0-2.4,2.8-3,5.4,0.7C36.2,16.6,36,22.4,31.9,26.3z"/>
			<path class="st56" d="M31.7,26.1c-3,3-6.5,4.1-10.4,3c-5.8-1.5-6.7-5.4-4.7-5.8c1.7-0.4,6.1,2.4,9.9-2.2c2.6-3.3,2.2-5.8,2.2-8.2
				c0-2.2,2.6-2.8,5,0.7C35.6,16.8,35.8,22.2,31.7,26.1z"/>
			<path class="st57" d="M31.7,25.8c-2.8,2.8-6.3,3.9-10,3.2c-5.6-1.1-6.7-5-4.8-5.4c1.5-0.4,6,2.6,9.9-2.2c2.6-3.3,2.2-5.8,2-8.2
				c-0.2-2.2,2.4-2.8,4.7,0.9C35.2,16.8,35.4,21.9,31.7,25.8z"/>
			<path class="st58" d="M31.5,25.4c-2.6,2.8-6,3.9-9.5,3.3c-5.4-0.9-6.7-4.5-5-5c1.3-0.4,6,2.6,9.9-2.2c2.6-3.3,2.2-5.6,2-8.2
				c-0.2-2,2.2-2.6,4.3,0.9C34.9,17,35,21.7,31.5,25.4z"/>
			<path class="st59" d="M31.3,25.2c-2.6,2.6-5.6,3.9-8.9,3.3c-5.2-0.6-6.9-4.1-5.2-4.7c1.3-0.4,6,2.8,10-2.2c2.6-3.3,2.2-5.6,1.9-8
				c-0.2-2,2-2.4,3.9,0.9C34.5,17,34.9,21.5,31.3,25.2z"/>
			<path class="st60" d="M31.1,24.8c-2.4,2.6-5.2,3.7-8.6,3.5c-5-0.4-6.9-3.5-5.4-4.1c1.1-0.4,6,2.8,10-2.4c2.6-3.3,2-5.6,1.9-8
				c-0.2-1.9,1.9-2.4,3.5,0.9C33.9,17,34.5,21.3,31.1,24.8z"/>
			<path class="st61" d="M30.9,24.5c-2.2,2.4-4.8,3.7-8,3.7c-4.8-0.2-6.9-3.2-5.4-3.7c0.9-0.4,5.8,3,10-2.4c2.6-3.3,2-5.6,1.7-7.8
				c-0.4-1.9,1.7-2.2,3.2,0.9C33.5,17.2,34.1,21.1,30.9,24.5z"/>
			<path class="st62" d="M30.9,24.3c-2,2.4-4.5,3.7-7.4,3.7c-4.7,0.2-6.9-2.8-5.6-3.3c0.7-0.4,5.8,3,10-2.4c2.6-3.3,2-5.6,1.7-7.8
				c-0.4-1.9,1.7-2,2.8,0.9C33.2,17.2,33.9,20.7,30.9,24.3z"/>
		</g>
		<path class="st24" d="M32.8,18.1c0,5.6-4.5,9.9-9.9,9.9s-9.9-4.5-9.9-9.9s4.5-9.9,9.9-9.9S32.8,12.6,32.8,18.1z"/>
		
			<linearGradient id="SVGID_00000027566335388730023600000017588147680291243439_" gradientUnits="userSpaceOnUse" x1="15.8979" y1="44.3867" x2="29.9522" y2="58.441" gradientTransform="matrix(1 0 0 1 0 -33.1483)">
			<stop  offset="0" style="stop-color:#FFD45C"/>
			<stop  offset="1" style="stop-color:#FF9D00"/>
		</linearGradient>
		<path style="fill:url(#SVGID_00000027566335388730023600000017588147680291243439_);" d="M32.8,18.3c0,5.6-4.5,9.9-9.9,9.9
			s-9.9-4.5-9.9-9.9s4.5-9.9,9.9-9.9S32.8,12.7,32.8,18.3z"/>
	</g>
	<g>
		<g>
			<path class="st2" d="M45.1,39.7c3-2.6,2.4-10.4,0.9-12.5c-2-2.8-4.1-4.5-6-5.4c-1.9-0.9-7.1-1.7-9.5-1.7c-3.3,0-6.5,0.7-9.3,1.5
				s-8.6,2.8-11.2,5.8C6.9,31,9.7,37.7,10.5,38.8c1.5,1.9,3.3,3.7,5.6,4.8s4.1,0.9,5.8,1.1c1.3,0,6.7,0.7,9.9,0
				c2.2-0.6,6.1-1.1,7.3-1.7C40.2,42.3,42.8,41.8,45.1,39.7z"/>
			<path class="st3" d="M44.7,39.3c3-2.4,2.4-10,0.9-12.3c-2-2.8-4.1-4.3-6-5.2c-1.9-0.9-6.7-1.7-9.1-1.7c-3.2,0-6.5,0.7-9.1,1.5
				c-2.8,0.7-8.4,2.8-11,5.8c-3,3.3-0.4,10,0.4,11c1.5,1.9,3.2,3.7,5.4,4.7c2.2,0.9,4.1,0.9,5.6,1.1c1.3,0.2,6.5,0.7,9.7,0.2
				c2.2-0.6,6-1.3,7.1-1.9C39.9,41.9,42.3,41.4,44.7,39.3z"/>
			<path class="st64" d="M44.2,39.2c3-2.4,2.4-9.7,0.9-11.9c-1.9-2.8-4.1-4.3-6-5.2c-1.9-0.9-6.5-1.7-8.7-1.7
				c-3.2,0-6.3,0.7-8.9,1.5c-2.8,0.7-8.4,2.8-10.8,5.6c-3,3.2-0.6,9.7,0.4,10.8c1.5,1.7,3,3.5,5.4,4.7c2,0.9,3.9,0.9,5.6,0.9
				c1.1,0.2,6.3,0.9,9.5,0.2c2.2-0.6,6-1.3,6.9-1.9C39.3,41.6,41.9,41,44.2,39.2z"/>
			<path class="st5" d="M43.8,39c2.8-2.2,2.4-9.5,0.9-11.5c-1.9-2.8-4.1-4.3-5.8-5c-1.7-0.9-6.3-1.7-8.6-1.7c-3,0-6.3,0.6-8.9,1.3
				c-2.8,0.7-8.4,2.8-10.6,5.4c-2.8,3-0.6,9.3,0.4,10.6c1.3,1.7,2.8,3.5,5.2,4.5c2,0.9,3.9,0.7,5.4,0.9c1.1,0.2,6.1,0.9,9.3,0.4
				c2.4-0.4,5.8-1.3,6.7-1.9C38.9,41.2,41.4,40.8,43.8,39z"/>
			<path class="st65" d="M43.2,38.6c2.8-2.2,2.4-9.1,0.9-11.3c-1.9-2.8-3.9-4.1-5.8-5c-1.7-0.7-6-1.7-8.2-1.7
				c-3-0.2-6.1,0.6-8.7,1.3c-2.8,0.7-8.2,2.8-10.6,5.4c-2.8,3-0.6,9.1,0.4,10.2c1.3,1.7,2.8,3.3,5,4.5c2,0.9,3.9,0.7,5.2,0.9
				c1.1,0.2,6,1.1,9.1,0.4c2.4-0.4,5.6-1.5,6.7-1.9C38.4,40.8,40.8,40.5,43.2,38.6z"/>
			<path class="st66" d="M42.7,38.4c2.8-2.2,2.4-8.7,0.9-11c-1.9-2.8-3.9-4.1-5.6-4.8c-1.7-0.7-5.8-1.7-8-1.7
				c-3-0.2-6.1,0.6-8.6,1.3C18.7,23,13.3,25,11,27.4c-2.6,2.8-0.7,8.7,0.4,10c1.3,1.5,2.6,3.3,4.8,4.3c2,0.9,3.9,0.6,5.2,0.7
				c1.1,0.2,5.8,1.1,8.9,0.6c2.4-0.4,5.6-1.5,6.5-1.9C38,40.5,40.4,40.1,42.7,38.4z"/>
			<path class="st67" d="M42.3,38.2c2.8-2,2.4-8.4,1.1-10.6c-1.9-2.8-3.9-3.9-5.6-4.8c-1.7-0.7-5.4-1.7-7.6-1.7
				c-2.8-0.2-6,0.6-8.6,1.1c-2.8,0.7-8,2.8-10.2,5.2c-2.4,2.6-0.7,8.4,0.4,9.7c1.3,1.5,2.4,3.3,4.8,4.3c2,0.7,3.7,0.6,5,0.7
				c1.1,0.2,5.6,1.1,8.7,0.6c2.4-0.4,5.4-1.5,6.3-2S39.9,39.9,42.3,38.2z"/>
			<path class="st68" d="M41.7,37.9c2.8-2,2.4-8,1.1-10.2c-1.7-2.8-3.7-3.9-5.6-4.7c-1.5-0.7-5.2-1.5-7.3-1.7
				c-2.8-0.2-6,0.4-8.4,1.1c-2.8,0.7-8,2.8-10,5c-2.4,2.6-0.9,8.2,0.4,9.5c1.1,1.5,2.2,3.2,4.7,4.1c2,0.7,3.7,0.6,5,0.7
				c1.1,0.2,5.2,1.3,8.6,0.7c2.4-0.4,5.2-1.5,6.1-2C37.1,39.7,39.5,39.5,41.7,37.9z"/>
			<path class="st69" d="M41.4,37.7c2.6-1.9,2.4-7.6,1.1-10c-1.7-2.8-3.7-3.7-5.4-4.7c-1.5-0.7-4.8-1.5-7.1-1.7
				c-2.6-0.2-5.8,0.4-8.2,1.1c-2.8,0.7-7.8,2.8-9.9,5c-2.2,2.4-0.9,7.8,0.2,9.3s2.2,3.2,4.5,4.1c2,0.7,3.7,0.4,4.8,0.6
				c1.1,0.2,5,1.3,8.4,0.7c2.4-0.4,5.2-1.7,6-2C36.7,39.3,38.9,39.2,41.4,37.7z"/>
			<path class="st70" d="M40.8,37.3c2.6-1.9,2.4-7.4,1.1-9.7c-1.7-2.8-3.7-3.7-5.4-4.5c-1.5-0.7-4.7-1.5-6.7-1.7
				c-2.6-0.2-5.8,0.4-8.2,0.9c-2.8,0.9-7.8,3-9.7,4.8c-2.2,2.2-0.9,7.4,0.2,8.9c1.1,1.3,2,3,4.3,3.9c2,0.7,3.5,0.4,4.8,0.6
				c1.1,0.2,4.8,1.5,8,0.9c2.4-0.4,5-1.7,5.8-2C36.3,39,38.6,39,40.8,37.3z"/>
			<path class="st71" d="M40.2,37.1c2.6-1.7,2.4-7.1,1.1-9.3c-1.7-2.8-3.7-3.5-5.2-4.3c-1.5-0.7-4.3-1.5-6.5-1.7
				c-2.4-0.2-5.6,0.2-8,0.9c-2.6,0.7-7.6,2.8-9.5,4.7c-2,2.2-1.1,7.3,0.2,8.7c1.1,1.3,1.9,3,4.3,3.7c1.9,0.7,3.5,0.4,4.7,0.6
				s4.7,1.5,7.8,0.9c2.4-0.4,4.8-1.7,5.6-2.2C35.8,38.6,38,38.6,40.2,37.1z"/>
			<path class="st72" d="M39.9,36.9c2.6-1.7,2.4-6.7,1.1-9.1c-1.7-2.8-3.5-3.5-5.2-4.3c-1.5-0.7-4.1-1.5-6.1-1.7
				c-2.4-0.2-5.6,0.2-7.8,0.9c-2.6,0.7-7.6,2.8-9.3,4.7c-1.9,2-1.1,6.9,0.2,8.6c0.9,1.3,1.7,2.8,4.1,3.7c1.9,0.7,3.5,0.2,4.7,0.4
				c1.1,0.2,4.5,1.7,7.6,1.1c2.4-0.4,4.7-1.9,5.6-2.2C35.4,38.2,37.6,38.2,39.9,36.9z"/>
			<path class="st73" d="M39.3,36.6c2.4-1.7,2.4-6.3,1.1-8.7c-1.5-2.8-3.5-3.3-5.2-4.1c-1.3-0.6-3.7-1.5-5.8-1.7
				c-2.2-0.4-5.4,0.2-7.8,0.7c-2.6,0.7-7.6,2.8-9.1,4.5c-1.9,1.9-1.1,6.5,0.2,8.2c0.9,1.1,1.5,2.8,3.9,3.5c1.9,0.6,3.5,0.2,4.5,0.4
				c1.1,0.2,4.3,1.7,7.4,1.1c2.4-0.4,4.7-1.9,5.4-2.2C35,37.9,37.1,38,39.3,36.6z"/>
			<path class="st74" d="M38.9,36.4c2.4-1.5,2.4-6,1.1-8.4c-1.5-2.8-3.5-3.3-5-4.1c-1.3-0.6-3.5-1.5-5.6-1.7
				c-2.2-0.4-5.4,0.2-7.6,0.7c-2.6,0.7-7.4,2.8-8.9,4.5c-1.7,1.9-1.3,6.3,0.2,8c0.9,1.1,1.5,2.8,3.7,3.5c1.9,0.6,3.3,0,4.5,0.4
				c0.9,0.2,4.1,1.9,7.3,1.3c2.4-0.4,4.5-1.9,5.2-2.2C34.5,37.5,36.7,37.7,38.9,36.4z"/>
			<path class="st75" d="M38.4,36c2.4-1.5,2.4-5.6,1.1-8.2c-1.5-2.8-3.3-3.2-5-3.9c-1.3-0.6-3.3-1.5-5.2-1.7c-2-0.4-5.2,0-7.4,0.7
				c-2.6,0.7-7.4,2.8-8.7,4.3c-1.7,1.7-1.3,6,0.2,7.6c0.9,1.1,1.3,2.6,3.7,3.3c1.9,0.6,3.3,0,4.3,0.2c0.9,0.2,3.9,1.9,7.1,1.3
				c2.4-0.4,4.3-2,5-2.4C34.1,37.1,36.2,37.3,38.4,36z"/>
			<path class="st76" d="M37.8,35.8c2.4-1.3,2.4-5.4,1.1-7.8c-1.5-2.8-3.3-3.2-5-3.9c-1.3-0.6-3-1.3-5-1.7c-2-0.4-5,0-7.4,0.7
				c-2.6,0.7-7.3,2.8-8.6,4.1c-1.5,1.5-1.5,5.6,0.2,7.4c0.7,0.9,1.1,2.6,3.5,3.3c1.9,0.6,3.3,0,4.1,0.2c0.9,0.2,3.5,1.9,6.9,1.3
				c2.4-0.4,4.3-2,4.8-2.4C33.5,36.7,35.8,37.1,37.8,35.8z"/>
			<path class="st77" d="M37.5,35.6c2.2-1.3,2.4-5,1.3-7.4c-1.5-3-3.3-3-4.8-3.7c-1.3-0.6-2.8-1.3-4.7-1.7c-2-0.4-5,0-7.3,0.6
				c-2.6,0.7-7.3,2.8-8.4,4.1c-1.7,1.3-1.7,5.2-0.2,7.1c0.7,0.9,0.9,2.4,3.3,3.2c1.9,0.6,3.2-0.2,4.1,0.2c0.9,0.4,3.3,2,6.7,1.5
				c2.6-0.4,4.1-2,4.7-2.4C33.2,36.4,35.2,36.7,37.5,35.6z"/>
			<path class="st78" d="M36.9,35.2c2.2-1.3,2.4-4.7,1.3-7.1c-1.5-3-3.3-3-4.8-3.7c-1.1-0.6-2.4-1.3-4.5-1.7
				c-1.9-0.4-4.8-0.2-7.3,0.6c-2.6,0.7-7.1,2.8-8.2,3.9c-1.3,1.3-1.5,5,0,6.9c0.7,0.9,0.9,2.4,3.2,3.2c1.7,0.6,3.2-0.2,3.9,0
				c0.9,0.4,3.2,2,6.5,1.5c2.6-0.4,3.9-2.2,4.5-2.4C32.8,36,34.9,36.4,36.9,35.2z"/>
			<path class="st79" d="M36.3,35.1c2.2-1.1,2.4-4.3,1.3-6.9c-1.3-3-3.2-3-4.7-3.5c-1.1-0.6-2.2-1.3-4.1-1.7
				c-1.9-0.4-4.8-0.2-7.1,0.6c-2.6,0.7-7.1,2.8-8,3.7c-1.1,1.1-1.7,4.7,0,6.7c0.7,0.7,0.7,2.4,3.2,3c1.7,0.4,3.2-0.2,3.9,0
				c0.9,0.4,3,2.2,6.1,1.7c2.6-0.4,3.9-2.2,4.5-2.6C32.2,35.6,34.3,36.2,36.3,35.1z"/>
			<path class="st80" d="M36,34.7c2.2-1.1,2.4-3.9,1.3-6.5c-1.3-3-3.2-2.8-4.7-3.5c-1.1-0.6-1.9-1.3-3.7-1.7
				c-1.7-0.4-4.7-0.2-6.9,0.4c-2.4,0.7-6.9,2.8-7.8,3.7c-1.1,1.1-1.7,4.5,0,6.3c0.6,0.7,0.6,2.2,3,2.8c1.7,0.4,3.2-0.4,3.7,0
				c0.9,0.4,2.8,2.2,6,1.7c2.6-0.4,3.7-2.2,4.3-2.6C31.9,35.2,33.9,35.8,36,34.7z"/>
			<path class="st81" d="M35.4,34.5c2-0.9,2.4-3.5,1.3-6.1c-1.3-3-3.2-2.8-4.7-3.3c-0.9-0.6-1.5-1.3-3.3-1.7
				C27,23,24.1,23,21.8,23.7c-2.4,0.7-6.9,2.8-7.6,3.7c-0.9,0.9-1.7,4.1,0,6.1c0.6,0.7,0.4,2.2,2.8,2.8c1.7,0.4,3-0.4,3.7-0.2
				c0.9,0.4,2.6,2.4,5.8,1.9c2.6-0.4,3.5-2.4,4.1-2.6C31.5,34.9,33.4,35.4,35.4,34.5z"/>
			<path class="st82" d="M35,34.3c2-0.9,2.4-3.3,1.3-6c-1.3-3-3-2.6-4.5-3.3c-0.9-0.4-1.5-1.1-3.2-1.7C27.2,23,24.2,23,22,23.7
				c-2.4,0.7-6.7,2.8-7.4,3.5c-0.9,0.7-1.9,3.7,0,6c0.6,0.6,0.2,2,2.6,2.6c1.7,0.4,3-0.4,3.5-0.2c0.9,0.4,2.4,2.4,5.6,1.9
				c2.6-0.4,3.5-2.4,3.9-2.6C30.9,34.5,32.8,35.2,35,34.3z"/>
		</g>
		<path class="st83" d="M32.2,24.5c-0.2,0-0.2,0-0.4,0c-0.6-1.7-2.2-3-4.1-3c-0.6,0-1.1,0.2-1.7,0.4c-0.6-1.7-2.2-2.8-3.9-2.8
			c-1.9,0-3.3,1.1-3.9,2.6c-0.2,0-0.4,0-0.6,0c-1.9,0-3.5,1.5-3.7,3.3c-0.2,0-0.6,0-0.7,0C10.9,25,9,26.9,9,29.3s1.9,4.3,4.3,4.3
			c0,0,0,0,0.2,0c0.4,1.7,1.9,3,3.7,3c1.5,0,2.6-0.7,3.3-1.9c0.9,1.5,2.6,2.6,4.7,2.6c2.2,0,4.1-1.3,4.8-3.2
			c0.7,0.4,1.7,0.7,2.6,0.7c2.8,0,5-2.2,5-5C37.3,26.7,35,24.5,32.2,24.5z"/>
		<path class="st84" d="M32.4,24.6c-0.2,0-0.2,0-0.4,0c-0.6-1.7-2.2-3-4.1-3c-0.6,0-1.1,0.2-1.7,0.4c-0.6-1.7-2.2-2.8-3.9-2.8
			c-1.9,0-3.3,1.1-3.9,2.6c-0.2,0-0.4,0-0.6,0c-1.9,0-3.5,1.5-3.7,3.3c-0.2,0-0.6,0-0.7,0c-2.4,0-4.3,1.9-4.3,4.3s1.9,4.3,4.3,4.3
			c0,0,0,0,0.2,0c0.4,1.7,1.9,3,3.7,3c1.5,0,2.6-0.7,3.3-1.9c0.9,1.7,2.6,2.6,4.7,2.6c2.2,0,4.1-1.3,4.8-3.2
			c0.7,0.4,1.7,0.7,2.6,0.7c2.8,0,5-2.2,5-5C37.5,26.9,35.2,24.6,32.4,24.6z"/>
	</g>
	<g>
		<g>
			<path class="st2" d="M31.1,33.8c1.9-2.8,0.9-8.2-0.4-10c-1.9-2.4-4.5-2.8-6.1-3.5c-1.7-0.7-4.7-3-6.7-3c-3,0-4.5,1.1-6.7,1.7
				c-2.6,0.7-6.9,4.7-9.1,7.3c-2.8,3-2,7.6-1.3,8.4c1.3,1.7,3,3.3,4.8,4.3s3.5,0.9,5,0.9c1.1,0,2.4,0.6,5.2,0c2-0.4,3-0.6,3.9-0.9
				C21.8,38.2,28.7,37.3,31.1,33.8z"/>
			<path class="st3" d="M30.8,33.8c1.9-2.8,1.1-8-0.4-9.9c-1.7-2.4-4.5-2.8-6.1-3.5c-1.7-0.7-4.7-3-6.7-3c-2.8,0-4.3,0.9-6.7,1.7
				c-2.6,0.7-6.7,4.7-8.9,7.1c-2.6,3-2,7.4-1.3,8.4c1.3,1.7,2.8,3.2,4.8,4.1c2,0.7,3.5,0.7,5,0.7c1.1,0,2.4,0.7,5.2,0
				c2-0.4,3-0.6,3.9-0.9C21.6,37.9,28.3,37.1,30.8,33.8z"/>
			<path class="st64" d="M30.4,33.6c1.9-2.6,1.1-7.8-0.2-9.5c-1.7-2.4-4.5-2.6-6-3.5c-1.5-0.7-4.5-3-6.5-3c-2.8,0-4.3,0.9-6.7,1.5
				c-2.4,0.7-6.7,4.5-8.7,6.9c-2.6,2.8-2.2,7.1-1.5,8.2c1.3,1.5,2.8,3.2,4.8,4.1c1.9,0.9,3.5,0.7,4.8,0.7c1.1,0.2,2.4,0.7,5.2,0.2
				c2-0.4,3-0.6,3.9-0.9C21.6,37.7,28,36.7,30.4,33.6z"/>
			<path class="st5" d="M30,33.6c1.9-2.6,1.1-7.6-0.2-9.3c-1.7-2.4-4.5-2.6-6-3.3s-4.3-3-6.3-3.2c-2.6,0-4.3,0.9-6.5,1.5
				c-2.4,0.7-6.5,4.5-8.6,6.9c-2.4,2.6-2.2,6.9-1.5,8c1.1,1.5,2.6,3,4.7,3.9c2,0.7,3.5,0.6,4.8,0.7c1.1,0.2,2.4,0.7,5.2,0.2
				c2-0.4,3-0.7,3.9-0.9C21.5,37.3,27.8,36.6,30,33.6z"/>
			<path class="st65" d="M29.6,33.4c1.9-2.4,1.1-7.3,0-9.1c-1.7-2.4-4.3-2.6-6-3.3c-1.5-0.7-4.3-3-6.1-3.2c-2.6-0.2-4.3,0.7-6.5,1.5
				c-2.4,0.7-6.3,4.5-8.4,6.7c-2.4,2.6-2.4,6.7-1.5,7.8c1.1,1.5,2.6,3,4.7,3.7c2,0.7,3.5,0.6,4.7,0.6c1.1,0.2,2.4,0.7,5.2,0.2
				c2-0.4,3-0.7,3.9-0.9C21.5,36.9,27.4,36.4,29.6,33.4z"/>
			<path class="st66" d="M29.3,33.4c1.9-2.4,1.3-7.1,0-8.9c-1.7-2.4-4.3-2.6-6-3.3c-1.5-0.7-4.1-3-6-3.2c-2.6-0.2-4.3,0.7-6.5,1.3
				c-2.4,0.7-6.3,4.5-8.2,6.7c-2.2,2.4-2.4,6.5-1.5,7.6c1.1,1.3,2.4,3,4.5,3.7c2,0.7,3.5,0.4,4.7,0.6c0.9,0.2,2.4,0.7,5.2,0.2
				c2-0.4,3.2-0.7,3.9-0.9C21.3,36.6,27,36.2,29.3,33.4z"/>
			<path class="st67" d="M28.9,33.2c1.9-2.2,1.3-6.9,0-8.6c-1.7-2.4-4.3-2.4-5.8-3.2c-1.5-0.7-3.9-3-6-3.2c-2.4-0.4-4.1,0.6-6.3,1.1
				c-2.4,0.7-6.3,4.5-8.2,6.5c-2.2,2.4-2.4,6.3-1.5,7.4c1.1,1.3,2.4,2.8,4.5,3.5s3.3,0.4,4.7,0.4c0.9,0.2,2.4,0.9,5.2,0.4
				c2-0.4,3.2-0.7,3.9-0.9C21.3,36.4,26.7,35.8,28.9,33.2z"/>
			<path class="st68" d="M28.5,33c1.9-2.2,1.3-6.7,0.2-8.4c-1.7-2.4-4.3-2.4-5.8-3.2c-1.3-0.7-3.7-3-5.8-3.2
				c-2.4-0.2-4.3,0.6-6.5,1.3c-2.4,0.7-6.1,4.3-7.8,6.3c-2,2-2.4,6-1.5,7.1c1.1,1.3,2.2,2.8,4.3,3.3c2,0.6,3.3,0.2,4.5,0.4
				c0.9,0.2,2.4,0.9,5.2,0.4c2-0.4,3.2-0.7,3.9-0.9C21.1,36,26.3,35.6,28.5,33z"/>
			<path class="st69" d="M28.2,33c1.9-2,1.3-6.5,0.2-8.2c-1.7-2.4-4.1-2.4-5.8-3.2c-1.3-0.6-3.7-3-5.6-3.2c-2.2-0.2-4.3,0.6-6.3,1.1
				c-2.4,0.7-6,4.3-7.6,6.1c-2,2-2.6,5.8-1.7,7.1c0.9,1.3,2.2,2.6,4.3,3.3c2,0.6,3.3,0.2,4.5,0.4c0.9,0.2,2.4,0.9,5.2,0.4
				c2-0.4,3.2-0.9,3.9-0.9C21.1,35.6,25.9,35.4,28.2,33z"/>
			<path class="st70" d="M27.8,32.8c1.9-2,1.5-6.3,0.4-8c-1.7-2.4-4.1-2.4-5.6-3.2c-1.3-0.6-3.5-3-5.4-3.2c-2.2-0.2-4.3,0.6-6.3,1.1
				c-2.4,0.7-5.8,4.3-7.4,6c-1.9,2-2.6,5.6-1.7,6.9c0.9,1.1,2,2.6,4.3,3.2c2,0.6,3.3,0,4.5,0.2c0.9,0.2,2.4,0.9,5.2,0.6
				c2-0.4,3.2-0.9,3.9-0.9C20.9,35.4,25.5,35.2,27.8,32.8z"/>
			<path class="st71" d="M27.4,32.8c1.9-1.9,1.5-6.1,0.4-7.6c-1.7-2.4-4.1-2.2-5.6-3c-1.3-0.6-3.3-3-5.2-3.2
				c-2.2-0.2-4.3,0.4-6.3,1.1c-2.4,0.7-5.8,4.3-7.3,5.8c-1.9,1.9-2.8,5.4-1.7,6.7c0.9,1.1,2,2.6,4.1,3c2,0.6,3.3,0,4.3,0.2
				c0.9,0.2,2.4,1.1,5.2,0.6c2-0.4,3.2-0.9,3.9-0.9C20.7,35.1,25.2,35.1,27.4,32.8z"/>
			<path class="st72" d="M27,32.6c1.9-1.9,1.5-5.8,0.4-7.4c-1.7-2.4-4.1-2.2-5.6-3c-1.3-0.6-3.3-3-5-3.3c-2-0.2-4.1,0.4-6.3,0.9
				c-2.4,0.7-5.6,4.1-7.1,5.8c-1.7,1.9-2.8,5.2-1.7,6.5c0.9,1.1,2,2.4,4.1,3s3.3-0.2,4.3,0c0.9,0.2,2.4,1.1,5.2,0.6
				c2.2-0.4,3.2-0.9,3.9-0.9C20.7,34.7,24.8,34.7,27,32.6z"/>
			<path class="st73" d="M26.7,32.6c1.9-1.7,1.5-5.6,0.6-7.3c-1.5-2.4-3.9-2.2-5.4-3c-1.3-0.6-3.2-3.2-5-3.3c-2-0.2-4.1,0.4-6.3,0.9
				c-2.4,0.7-5.6,4.1-6.9,5.6c-1.7,1.7-3,5-1.7,6.3c0.9,0.9,1.9,2.4,3.9,2.8s3.3-0.2,4.3,0c0.9,0.2,2.4,1.1,5.2,0.6
				c2.2-0.4,3.2-0.9,3.9-0.9C20.5,34.3,24.6,34.5,26.7,32.6z"/>
			<path class="st74" d="M26.3,32.5c1.9-1.7,1.7-5.4,0.6-7.1c-1.5-2.4-3.9-2.2-5.4-2.8c-1.1-0.6-3-3.2-4.8-3.3
				c-1.9-0.2-4.1,0.2-6.1,0.7c-2.2,0.7-5.4,4.3-6.7,5.6c-1.5,1.5-3,4.7-1.7,6.1C2.9,32.6,4,33.9,6,34.3s3.2-0.4,4.1-0.2
				c0.9,0.2,2.4,1.1,5.2,0.7c2.2-0.4,3.3-0.9,3.9-0.9C20.5,34.1,24.2,34.3,26.3,32.5z"/>
			<path class="st75" d="M25.9,32.5c1.9-1.5,1.7-5.2,0.7-6.9c-1.5-2.4-3.9-2.2-5.4-2.8c-1.1-0.6-3-3.2-4.7-3.3
				c-1.9-0.4-4.1,0.2-6.1,0.7c-2.2,0.7-5.4,4.1-6.5,5.4c-1.5,1.5-3.2,4.5-1.9,6c0.7,0.9,1.7,2.2,3.7,2.6s3.2-0.4,4.1-0.2
				c0.9,0.2,2.4,1.3,5.2,0.7c2.2-0.4,3.3-1.1,3.9-0.9C20.3,33.8,23.9,34.1,25.9,32.5z"/>
			<path class="st76" d="M25.5,32.3c1.9-1.5,1.7-5,0.7-6.5c-1.5-2.4-3.9-2-5.2-2.8c-1.1-0.6-2.8-3.2-4.5-3.3
				c-1.9-0.4-4.1,0.2-6.1,0.7c-2.2,0.7-5.2,4.1-6.3,5.2c-1.3,1.3-3.2,4.3-1.9,6C3,32.5,4,33.6,6,33.9c2,0.4,3.2-0.6,3.9-0.4
				c0.9,0.2,2.4,1.3,5.2,0.7c2.2-0.4,3.3-1.1,3.9-0.9C20.3,33.4,23.5,33.8,25.5,32.3z"/>
			<path class="st77" d="M25.2,32.3c1.9-1.3,1.9-4.8,0.7-6.3c-1.5-2.4-3.9-2-5.2-2.6c-1.1-0.6-2.6-3.2-4.3-3.3
				c-1.7-0.4-4.1,0-6.1,0.6c-2.2,0.7-5,3.9-6.1,5c-1.3,1.3-3.2,4.1-1.9,5.8c0.7,0.7,1.5,2,3.7,2.2s3.2-0.7,3.9-0.6
				c0.9,0.2,2.4,1.3,5.2,0.7c2.2-0.4,3.3-1.1,3.9-0.9C20.2,33,23.1,33.6,25.2,32.3z"/>
			<path class="st78" d="M24.8,32.1c1.9-1.3,1.9-4.7,0.9-6.1c-1.5-2.4-3.7-2-5.2-2.6c-1.1-0.4-2.4-3.2-4.3-3.3c-1.7-0.4-4.1,0-6,0.6
				c-2.2,0.7-5,3.9-6,4.8C3.2,26.5,1,29.3,2.5,31C3,31.7,4,33,6,33.2c2.2,0.2,3.2-0.7,3.9-0.6s2.4,1.3,5.2,0.9
				c2.2-0.4,3.3-1.1,3.9-0.9C20,32.8,22.8,33.4,24.8,32.1z"/>
			<path class="st79" d="M24.4,32.1c1.9-1.1,1.9-4.3,0.9-6c-1.5-2.4-3.7-2-5-2.6c-0.9-0.4-2.4-3.2-4.1-3.5c-1.7-0.4-4.1-0.2-6,0.6
				c-2.2,0.7-5,3.9-5.8,4.8c-1.1,0.9-3.3,3.5-1.9,5.4c0.6,0.7,1.3,1.9,3.5,2s3.2-0.7,3.7-0.6c0.7,0.4,2.4,1.3,5.2,0.9
				c2.2-0.4,3.3-1.1,3.9-0.9C20,32.5,22.4,33.2,24.4,32.1z"/>
			<path class="st80" d="M24.1,31.9c1.9-0.9,1.9-4.1,1.1-5.6c-1.5-2.4-3.7-1.9-5-2.4c-0.9-0.4-2.2-3.2-3.9-3.5
				c-1.7-0.4-4.1-0.2-6.1,0.4c-2.2,0.7-4.8,3.9-5.6,4.7c-0.9,0.9-3.3,3.3-1.9,5.2C3.2,31.3,4,32.5,6,32.5c2.2,0.2,3.2-0.9,3.7-0.7
				c0.7,0.4,2.4,1.5,5.2,0.9c2.2-0.4,3.3-1.1,3.9-0.9C19.8,32.1,22.2,33,24.1,31.9z"/>
			<path class="st81" d="M23.7,31.7c1.9-0.9,2-3.9,1.1-5.4c-1.5-2.4-3.7-1.9-5-2.4c-0.9-0.4-2-3.2-3.7-3.5c-1.5-0.4-4.1-0.2-6,0.4
				c-2.2,0.7-4.7,3.7-5.4,4.5c-0.7,0.7-3.5,3.2-1.9,5c0.6,0.6,1.1,1.7,3.3,1.9c2.2,0,3-0.9,3.7-0.7c0.7,0.4,2.4,1.5,5.2,1.1
				c2.2-0.4,3.3-1.3,3.9-0.9C19.8,31.7,21.8,32.6,23.7,31.7z"/>
			<path class="st82" d="M23.3,31.7c1.9-0.7,2-3.7,1.1-5.2c-1.5-2.4-3.5-1.9-4.8-2.4c-0.9-0.4-2-3.2-3.5-3.5s-4.1-0.2-6,0.4
				c-2.2,0.7-4.5,3.7-5.2,4.3c-0.7,0.7-3.5,3-2,4.8C3.4,30.6,4,31.7,6,31.7c2.2,0,3-1.1,3.5-0.9c0.7,0.4,2.4,1.5,5.2,1.1
				c2.2-0.4,3.5-1.3,3.9-0.9C19.6,31.5,21.5,32.5,23.3,31.7z"/>
		</g>
		<path class="st83" d="M21.5,23.3c-0.6,0-0.9,0-1.5,0.2c-0.6-3-3.2-5.4-6.5-5.6c-3.2-0.2-6,1.9-6.9,4.7l0,0c-2.6-0.2-4.8,1.9-5,4.7
			c-0.2,2.6,1.9,4.8,4.7,5c1.3,0,2.6-0.4,3.5-1.3c0.9,0.6,2,0.9,3.2,0.9c2,0.2,3.9-0.7,5.2-2c0.7,0.9,1.7,1.5,3,1.5
			c2.2,0.2,4.1-1.7,4.3-3.7C25.4,25.4,23.7,23.5,21.5,23.3z"/>
	</g>
</g>
</svg>
