<?xml version="1.0" encoding="utf-8"?>
<!-- Generator: Adobe Illustrator 27.0.1, SVG Export Plug-In . SVG Version: 6.00 Build 0)  -->
<svg version="1.1" id="Ebene_1" xmlns="http://www.w3.org/2000/svg" xmlns:xlink="http://www.w3.org/1999/xlink" x="0px" y="0px"
	 viewBox="0 0 25.3 23.5" style="enable-background:new 0 0 25.3 23.5;" xml:space="preserve">
<style type="text/css">
	.st0{display:none;}
	.st1{display:inline;}
	.st2{fill:#FFFFFF;fill-opacity:0;}
	.st3{opacity:4.761905e-02;fill:#F9FBFB;enable-background:new    ;}
	.st4{opacity:9.523810e-02;fill:#F3F6F7;enable-background:new    ;}
	.st5{opacity:0.1429;fill:#EEF2F4;enable-background:new    ;}
	.st6{opacity:0.1905;fill:#E8EDF0;enable-background:new    ;}
	.st7{opacity:0.2381;fill:#E2E9EC;enable-background:new    ;}
	.st8{opacity:0.2857;fill:#DCE4E8;enable-background:new    ;}
	.st9{opacity:0.3333;fill:#D7E0E5;enable-background:new    ;}
	.st10{opacity:0.381;fill:#D1DCE1;enable-background:new    ;}
	.st11{opacity:0.4286;fill:#CBD7DD;enable-background:new    ;}
	.st12{opacity:0.4762;fill:#C5D3D9;enable-background:new    ;}
	.st13{opacity:0.5238;fill:#C0CED6;enable-background:new    ;}
	.st14{opacity:0.5714;fill:#BACAD2;enable-background:new    ;}
	.st15{opacity:0.619;fill:#B4C5CE;enable-background:new    ;}
	.st16{opacity:0.6667;fill:#AEC1CA;enable-background:new    ;}
	.st17{opacity:0.7143;fill:#A9BDC7;enable-background:new    ;}
	.st18{opacity:0.7619;fill:#A3B8C3;enable-background:new    ;}
	.st19{opacity:0.8095;fill:#9DB4BF;enable-background:new    ;}
	.st20{opacity:0.8571;fill:#97AFBB;enable-background:new    ;}
	.st21{opacity:0.9048;fill:#92ABB8;enable-background:new    ;}
	.st22{opacity:0.9524;fill:#8CA6B4;enable-background:new    ;}
	.st23{fill:#86A2B0;}
	.st24{fill:#FFE3AB;}
	.st25{fill:url(#SVGID_1_);}
	.st26{fill:url(#SVGID_00000106832552549335254580000016815648853638150552_);}
	.st27{fill:url(#SVGID_00000143590808952792497780000008365084066625609876_);}
	.st28{fill:url(#SVGID_00000149363174225313203260000003975956492449665167_);}
	.st29{fill:url(#SVGID_00000042721448573696996580000007054057989748249984_);}
	.st30{fill:url(#SVGID_00000018921656051180042180000012447162977130994588_);}
	.st31{fill:url(#SVGID_00000085961147598309819410000002449844082762268575_);}
	.st32{fill:url(#SVGID_00000148643749147276798920000012610350645692632708_);}
	.st33{fill:url(#SVGID_00000001631054526832856450000001759874522888662434_);}
	.st34{fill:url(#SVGID_00000046339784610363131360000005678243317936667027_);}
	.st35{fill:url(#SVGID_00000123413434668155247350000000561515612516977072_);}
	.st36{fill:url(#SVGID_00000096035631895169436470000008349197522488157079_);}
	.st37{fill:url(#SVGID_00000165235905626231882570000005008110470823280042_);}
	.st38{fill:url(#SVGID_00000030468669796089336320000017381947009850664885_);}
	.st39{fill:url(#SVGID_00000000187918318148241560000014397593213138259879_);}
	.st40{fill:url(#SVGID_00000105414156453935597330000015142069735376333205_);}
	.st41{display:inline;fill:#FFFFFF;fill-opacity:0;}
	.st42{display:inline;opacity:4.761905e-02;fill:#F9FBFB;enable-background:new    ;}
	.st43{display:inline;opacity:9.523810e-02;fill:#F3F6F7;enable-background:new    ;}
	.st44{display:inline;opacity:0.1429;fill:#EEF2F4;enable-background:new    ;}
	.st45{display:inline;opacity:0.1905;fill:#E8EDF0;enable-background:new    ;}
	.st46{display:inline;opacity:0.2381;fill:#E2E9EC;enable-background:new    ;}
	.st47{display:inline;opacity:0.2857;fill:#DCE4E8;enable-background:new    ;}
	.st48{display:inline;opacity:0.3333;fill:#D7E0E5;enable-background:new    ;}
	.st49{display:inline;opacity:0.381;fill:#D1DCE1;enable-background:new    ;}
	.st50{display:inline;opacity:0.4286;fill:#CBD7DD;enable-background:new    ;}
	.st51{display:inline;opacity:0.4762;fill:#C5D3D9;enable-background:new    ;}
	.st52{display:inline;opacity:0.5238;fill:#C0CED6;enable-background:new    ;}
	.st53{display:inline;opacity:0.5714;fill:#BACAD2;enable-background:new    ;}
	.st54{display:inline;opacity:0.619;fill:#B4C5CE;enable-background:new    ;}
	.st55{display:inline;opacity:0.6667;fill:#AEC1CA;enable-background:new    ;}
	.st56{display:inline;opacity:0.7143;fill:#A9BDC7;enable-background:new    ;}
	.st57{display:inline;opacity:0.7619;fill:#A3B8C3;enable-background:new    ;}
	.st58{display:inline;opacity:0.8095;fill:#9DB4BF;enable-background:new    ;}
	.st59{display:inline;opacity:0.8571;fill:#97AFBB;enable-background:new    ;}
	.st60{display:inline;opacity:0.9048;fill:#92ABB8;enable-background:new    ;}
	.st61{display:inline;opacity:0.9524;fill:#8CA6B4;enable-background:new    ;}
	.st62{display:inline;fill:#86A2B0;}
	.st63{fill:url(#SVGID_00000028325712194886744290000000739576774359881345_);}
	.st64{opacity:9.523810e-02;fill:#F4F6F8;enable-background:new    ;}
	.st65{opacity:0.1905;fill:#E9EDF1;enable-background:new    ;}
	.st66{opacity:0.2381;fill:#E3E9ED;enable-background:new    ;}
	.st67{opacity:0.2857;fill:#DEE5EA;enable-background:new    ;}
	.st68{opacity:0.3333;fill:#D8E0E6;enable-background:new    ;}
	.st69{opacity:0.381;fill:#D3DCE3;enable-background:new    ;}
	.st70{opacity:0.4286;fill:#CDD8DF;enable-background:new    ;}
	.st71{opacity:0.4762;fill:#C8D3DC;enable-background:new    ;}
	.st72{opacity:0.5238;fill:#C2CFD8;enable-background:new    ;}
	.st73{opacity:0.5714;fill:#BDCAD5;enable-background:new    ;}
	.st74{opacity:0.619;fill:#B7C6D1;enable-background:new    ;}
	.st75{opacity:0.6667;fill:#B2C2CE;enable-background:new    ;}
	.st76{opacity:0.7143;fill:#ACBDCA;enable-background:new    ;}
	.st77{opacity:0.7619;fill:#A7B9C7;enable-background:new    ;}
	.st78{opacity:0.8095;fill:#A1B5C3;enable-background:new    ;}
	.st79{opacity:0.8571;fill:#9CB0C0;enable-background:new    ;}
	.st80{opacity:0.9048;fill:#96ACBC;enable-background:new    ;}
	.st81{opacity:0.9524;fill:#91A7B9;enable-background:new    ;}
	.st82{fill:#8BA3B5;}
	.st83{fill:#FFFFFF;}
	.st84{fill:#E9F2F5;}
</style>
<g>
	<g>
		<g class="st0">
			<g class="st1">
				<path class="st2" d="M17.3,8.7C16.1,8.3,16,7,17.1,6c0.6-0.5,1.5-0.8,2.5-0.7c1.2,0.2,1.7,1.1,0.9,2.1
					C19.8,8.4,18.4,9.1,17.3,8.7z"/>
				<path class="st3" d="M17.4,8.6C16.2,8.2,16.2,7,17.2,6c0.6-0.5,1.4-0.8,2.5-0.7c1.1,0.2,1.6,1.1,0.8,2C19.8,8.4,18.4,9,17.4,8.6
					z"/>
				<path class="st4" d="M17.4,8.6c-1.1-0.4-1.2-1.6-0.2-2.5c0.6-0.5,1.4-0.8,2.4-0.7c1.1,0.2,1.6,1,0.8,2
					C19.7,8.3,18.4,8.9,17.4,8.6z"/>
				<path class="st5" d="M17.4,8.5c-1.1-0.4-1.2-1.5-0.2-2.4c0.6-0.5,1.4-0.8,2.4-0.6c1.1,0.2,1.5,1,0.8,1.9
					C19.7,8.3,18.5,8.8,17.4,8.5z"/>
				<path class="st6" d="M17.5,8.4c-1.1-0.4-1.2-1.5-0.2-2.3c0.5-0.5,1.4-0.7,2.3-0.6c1,0.1,1.5,1,0.7,1.9
					C19.7,8.2,18.5,8.8,17.5,8.4z"/>
				<path class="st7" d="M17.5,8.4c-1.1-0.3-1.1-1.4-0.2-2.3c0.6-0.5,1.4-0.7,2.3-0.6c1,0.1,1.4,0.9,0.7,1.8
					C19.6,8.2,18.5,8.7,17.5,8.4z"/>
				<path class="st8" d="M17.6,8.3c-1.1-0.3-1.1-1.4-0.2-2.2c0.6-0.5,1.4-0.7,2.2-0.6c0.9,0.1,1.4,0.9,0.6,1.7
					C19.6,8.1,18.5,8.6,17.6,8.3z"/>
				<path class="st9" d="M17.6,8.3c-1-0.3-1.1-1.3-0.2-2.1c0.6-0.5,1.4-0.7,2.2-0.6c0.9,0.1,1.3,0.9,0.6,1.7
					C19.6,8.1,18.5,8.5,17.6,8.3z"/>
				<path class="st10" d="M17.6,8.2c-1-0.3-1.1-1.3-0.2-2c0.6-0.5,1.3-0.7,2.1-0.5c0.9,0.1,1.3,0.8,0.6,1.6
					C19.5,8,18.6,8.5,17.6,8.2z"/>
				<path class="st11" d="M17.7,8.2c-1-0.2-1-1.2-0.2-1.9c0.6-0.4,1.3-0.6,2.1-0.5c0.8,0.1,1.2,0.8,0.5,1.6
					C19.5,8,18.6,8.4,17.7,8.2z"/>
				<path class="st12" d="M17.7,8.1c-1-0.2-1-1.2-0.2-1.9c0.6-0.4,1.3-0.6,2-0.5c0.8,0.1,1.2,0.7,0.5,1.5
					C19.5,7.9,18.6,8.3,17.7,8.1z"/>
				<path class="st13" d="M17.8,8.1c-1-0.2-1-1.1-0.2-1.8c0.6-0.4,1.3-0.6,2-0.5c0.8,0.1,1.1,0.7,0.4,1.5
					C19.4,7.9,18.6,8.2,17.8,8.1z"/>
				<path class="st14" d="M17.8,8c-0.9-0.2-1-1.1-0.2-1.7c0.6-0.4,1.3-0.6,1.9-0.5c0.7,0.1,1.1,0.7,0.4,1.4
					C19.4,7.8,18.6,8.2,17.8,8z"/>
				<path class="st15" d="M17.9,8C17,7.9,17,7,17.7,6.4C18.3,6,19,5.9,19.5,5.9c0.7,0.1,1,0.6,0.4,1.3C19.4,7.8,18.6,8.1,17.9,8z"/>
				<path class="st16" d="M17.9,7.9c-0.9-0.1-0.9-1-0.2-1.5C18.3,6,19,5.9,19.5,5.9c0.6,0.1,1,0.6,0.3,1.3C19.3,7.7,18.7,8,17.9,7.9
					z"/>
				<path class="st17" d="M17.9,7.8c-0.9-0.1-0.9-1-0.2-1.5c0.6-0.4,1.2-0.5,1.7-0.4C20,6,20.3,6.5,19.7,7.1
					C19.3,7.7,18.7,7.9,17.9,7.8z"/>
				<path class="st18" d="M18,7.8c-0.9-0.1-0.9-0.9-0.2-1.4C18.4,6,19,5.9,19.5,6c0.6,0.1,0.9,0.5,0.2,1.2C19.3,7.6,18.7,7.8,18,7.8
					z"/>
				<path class="st19" d="M18,7.7c-0.8,0-0.8-0.9-0.2-1.3C18.4,6,19,5.9,19.4,6c0.5,0,0.8,0.5,0.2,1.1C19.3,7.6,18.7,7.8,18,7.7z"/>
				<path class="st20" d="M18.1,7.7c-0.8,0-0.8-0.8-0.2-1.2c0.6-0.4,1.2-0.4,1.6-0.4c0.5,0,0.8,0.5,0.2,1.1
					C19.2,7.5,18.7,7.7,18.1,7.7z"/>
				<path class="st21" d="M18.1,7.6c-0.8,0-0.8-0.8-0.2-1.1c0.6-0.3,1.2-0.4,1.5-0.4c0.5,0,0.7,0.4,0.1,1
					C19.2,7.5,18.7,7.6,18.1,7.6z"/>
				<path class="st22" d="M18.1,7.6c-0.8,0-0.8-0.7-0.2-1.1c0.6-0.3,1.2-0.4,1.5-0.4c0.4,0,0.7,0.4,0.1,0.9
					C19.2,7.4,18.8,7.5,18.1,7.6z"/>
				<path class="st23" d="M18.2,7.5c-0.8,0.1-0.7-0.7-0.2-1c0.6-0.3,1.2-0.4,1.4-0.4c0.4,0,0.6,0.4,0,0.9
					C19.1,7.4,18.8,7.5,18.2,7.5z"/>
			</g>
			<g class="st1">
				<path class="st2" d="M15.9,5.6c-1.1,0.5-2.3-0.4-2.3-1.9c0-0.8,0.4-1.6,1.3-2.3c0.9-0.7,2.2,0.1,2.4,1.3
					C17.5,3.9,17,5.1,15.9,5.6z"/>
				<path class="st3" d="M15.9,5.5c-1.1,0.5-2.2-0.4-2.2-1.8c0-0.8,0.4-1.6,1.3-2.2c0.9-0.7,2.2,0.1,2.3,1.3
					C17.5,3.9,16.9,5,15.9,5.5z"/>
				<path class="st4" d="M15.9,5.4c-1.1,0.5-2.2-0.4-2.1-1.8c0-0.8,0.5-1.6,1.3-2.2c0.9-0.7,2.1,0.1,2.2,1.3S16.9,4.9,15.9,5.4z"/>
				<path class="st5" d="M15.9,5.3c-1.1,0.6-2.2-0.3-2.1-1.7c0-0.7,0.5-1.5,1.2-2.1c0.9-0.6,2,0,2.2,1.2C17.3,3.8,16.8,4.9,15.9,5.3
					z"/>
				<path class="st6" d="M15.8,5.3c-1,0.5-2.1-0.3-2-1.6c0-0.7,0.5-1.5,1.2-2.1c0.8-0.6,1.9,0,2.1,1.2C17.2,3.8,16.8,4.8,15.8,5.3z"
					/>
				<path class="st7" d="M15.8,5.2c-1,0.5-2-0.3-1.9-1.6c0-0.7,0.5-1.5,1.2-2c0.8-0.6,1.9,0,2,1.1C17.2,3.8,16.7,4.7,15.8,5.2z"/>
				<path class="st8" d="M15.8,5.1c-1,0.5-1.9-0.3-1.8-1.5c0.1-0.7,0.5-1.5,1.2-2C16,1,17,1.6,17.1,2.7C17.1,3.7,16.7,4.6,15.8,5.1z
					"/>
				<path class="st9" d="M15.8,5c-0.9,0.5-1.9-0.3-1.8-1.5c0.1-0.7,0.5-1.4,1.1-1.9c0.7-0.6,1.7,0,1.8,1.1C17,3.7,16.6,4.6,15.8,5z"
					/>
				<path class="st10" d="M15.8,5c-0.9,0.5-1.8-0.2-1.7-1.4c0.1-0.7,0.5-1.4,1.1-1.9c0.7-0.5,1.6,0,1.7,1S16.6,4.5,15.8,5z"/>
				<path class="st11" d="M15.7,4.9c-0.9,0.5-1.8-0.2-1.6-1.3c0.1-0.7,0.5-1.4,1.1-1.8c0.7-0.5,1.6,0,1.7,1
					C16.9,3.6,16.5,4.4,15.7,4.9z"/>
				<path class="st12" d="M15.7,4.8c-0.8,0.5-1.7-0.2-1.6-1.3c0.1-0.7,0.5-1.4,1-1.8c0.6-0.5,1.5,0,1.6,1
					C16.8,3.6,16.4,4.3,15.7,4.8z"/>
				<path class="st13" d="M15.7,4.7c-0.8,0.5-1.6-0.2-1.5-1.2c0.1-0.7,0.5-1.3,1-1.7c0.6-0.5,1.4-0.1,1.5,0.9
					C16.7,3.6,16.4,4.3,15.7,4.7z"/>
				<path class="st14" d="M15.7,4.7c-0.8,0.5-1.6-0.2-1.4-1.1c0.1-0.7,0.5-1.3,1-1.7c0.5-0.5,1.3-0.1,1.3,0.8
					C16.7,3.5,16.3,4.2,15.7,4.7z"/>
				<path class="st15" d="M15.6,4.6c-0.7,0.5-1.5-0.1-1.4-1.1c0.1-0.7,0.5-1.3,1-1.6c0.6-0.5,1.3-0.1,1.4,0.9
					C16.6,3.5,16.3,4.1,15.6,4.6z"/>
				<path class="st16" d="M15.6,4.5c-0.7,0.6-1.4-0.1-1.3-1c0.1-0.7,0.5-1.3,0.9-1.6c0.5-0.4,1.2-0.1,1.2,0.8
					C16.5,3.4,16.2,4,15.6,4.5z"/>
				<path class="st17" d="M15.6,4.4c-0.7,0.6-1.4-0.1-1.2-0.9c0.1-0.7,0.5-1.2,0.9-1.5c0.5-0.4,1.1-0.1,1.2,0.8
					C16.5,3.4,16.2,4,15.6,4.4z"/>
				<path class="st18" d="M15.6,4.4C15,5,14.3,4.3,14.4,3.5c0.1-0.7,0.5-1.2,0.9-1.5c0.4-0.4,1.1-0.1,1.1,0.8
					C16.4,3.4,16.1,3.9,15.6,4.4z"/>
				<path class="st19" d="M15.6,4.3c-0.6,0.6-1.2,0-1.1-0.8C14.6,2.8,15,2.3,15.4,2s1-0.1,1,0.7C16.3,3.3,16.1,3.8,15.6,4.3z"/>
				<path class="st20" d="M15.5,4.2c-0.6,0.6-1.2,0-1-0.7c0.1-0.6,0.5-1.1,0.8-1.4c0.4-0.3,0.9-0.1,0.9,0.7
					C16.2,3.3,16,3.7,15.5,4.2z"/>
				<path class="st21" d="M15.5,4.1c-0.6,0.6-1.1,0-1-0.7C14.6,2.8,15,2.3,15.3,2s0.8-0.2,0.8,0.7C16.2,3.3,16,3.7,15.5,4.1z"/>
				<path class="st22" d="M15.5,4.1c-0.5,0.6-1.1,0-0.9-0.6s0.5-1.1,0.8-1.3c0.3-0.3,0.8-0.2,0.7,0.6C16.1,3.2,15.9,3.6,15.5,4.1z"
					/>
				<path class="st23" d="M15.5,4c-0.5,0.6-1,0.1-0.8-0.6c0.1-0.6,0.5-1,0.7-1.2c0.3-0.3,0.7-0.2,0.7,0.6C16,3.2,15.9,3.5,15.5,4z"
					/>
			</g>
			<g class="st1">
				<path class="st2" d="M12.3,4.2c-0.4,1.2-1.6,1.4-2.6,0.4c-0.6-0.5-1-1.4-0.9-2.5c0.1-1.2,1.5-1.3,2.5-0.7
					C12.3,2.1,12.6,3.1,12.3,4.2z"/>
				<path class="st3" d="M12.2,4.2c-0.3,1.2-1.5,1.3-2.6,0.4C9,4.1,8.7,3.2,8.8,2.2c0.1-1.1,1.4-1.3,2.4-0.6
					C12.3,2.1,12.6,3.1,12.2,4.2z"/>
				<path class="st4" d="M12.2,4.1c-0.3,1.2-1.5,1.3-2.5,0.4C9.2,4,8.8,3.1,8.9,2.1C9,1,10.2,0.8,11.2,1.5S12.5,3.1,12.2,4.1z"/>
				<path class="st5" d="M12.1,4.1c-0.3,1.1-1.4,1.3-2.4,0.4C9.2,4,8.8,3.1,8.9,2.2C9,1.1,10.2,1,11.2,1.6
					C12.1,2.2,12.4,3.1,12.1,4.1z"/>
				<path class="st6" d="M12.1,4.1c-0.3,1.1-1.4,1.2-2.3,0.3C9.3,3.9,9,3.1,9,2.1c0.1-1,1.2-1.2,2.2-0.5C12.1,2.2,12.3,3,12.1,4.1z"
					/>
				<path class="st7" d="M12,4c-0.2,1.1-1.3,1.3-2.2,0.4C9.3,3.9,9,3.1,9.1,2.2c0.1-1,1.2-1.2,2.1-0.5C12,2.2,12.2,3,12,4z"/>
				<path class="st8" d="M12,4c-0.2,1.1-1.3,1.2-2.2,0.3C9.3,3.8,9,3,9.1,2.1s1.1-1.1,2-0.5C11.9,2.2,12.2,3,12,4z"/>
				<path class="st9" d="M11.9,4c-0.2,1-1.3,1.2-2.1,0.3C9.3,3.8,9,3,9.1,2.2c0.1-0.9,1.1-1.1,2-0.5C11.9,2.3,12.1,3,11.9,4z"/>
				<path class="st10" d="M11.8,3.9c-0.2,1-1.2,1.2-2,0.3C9.3,3.7,9.1,2.9,9.1,2.1c0.1-0.9,1-1.1,1.9-0.4C11.8,2.3,12,3,11.8,3.9z"
					/>
				<path class="st11" d="M11.8,3.9c-0.2,1-1.2,1.1-1.9,0.3c-0.5-0.5-0.7-1.3-0.7-2c0.1-0.8,1-1,1.8-0.4C11.7,2.3,11.9,3,11.8,3.9z"
					/>
				<path class="st12" d="M11.7,3.8c-0.1,1-1.1,1.1-1.8,0.3c-0.5-0.5-0.7-1.3-0.7-2c0-0.8,0.9-1,1.7-0.4C11.6,2.3,11.9,3,11.7,3.8z"
					/>
				<path class="st13" d="M11.7,3.8c-0.1,1-1.1,1.1-1.8,0.3C9.4,3.6,9.2,2.8,9.3,2.2c0-0.8,0.9-1,1.7-0.4C11.6,2.3,11.8,3,11.7,3.8z
					"/>
				<path class="st14" d="M11.6,3.8c-0.1,0.9-1,1-1.7,0.3C9.4,3.6,9.2,2.9,9.3,2.2c0-0.7,0.8-0.9,1.6-0.3
					C11.5,2.3,11.7,2.9,11.6,3.8z"/>
				<path class="st15" d="M11.6,3.7c-0.1,0.9-1,1-1.6,0.3C9.6,3.5,9.4,2.8,9.4,2.2c0-0.7,0.7-0.9,1.5-0.3
					C11.4,2.4,11.6,2.9,11.6,3.7z"/>
				<path class="st16" d="M11.5,3.7c-0.1,0.9-0.9,1-1.5,0.3C9.6,3.5,9.4,2.8,9.4,2.2c0-0.7,0.7-0.9,1.4-0.3
					C11.4,2.4,11.5,2.9,11.5,3.7z"/>
				<path class="st17" d="M11.4,3.7c0,0.9-0.9,1-1.4,0.3C9.6,3.5,9.4,2.8,9.4,2.3c0-0.6,0.6-0.8,1.3-0.3C11.3,2.4,11.5,2.9,11.4,3.7
					z"/>
				<path class="st18" d="M11.4,3.6c0,0.9-0.8,0.9-1.4,0.3C9.6,3.4,9.4,2.7,9.5,2.2c0-0.6,0.6-0.8,1.3-0.2
					C11.2,2.4,11.4,2.9,11.4,3.6z"/>
				<path class="st19" d="M11.3,3.6c0,0.8-0.8,0.9-1.3,0.3C9.6,3.4,9.5,2.7,9.5,2.3c0-0.5,0.5-0.8,1.2-0.2
					C11.2,2.4,11.3,2.9,11.3,3.6z"/>
				<path class="st20" d="M11.3,3.5c0,0.8-0.7,0.9-1.2,0.3C9.7,3.3,9.6,2.6,9.6,2.2c0-0.5,0.5-0.7,1.1-0.2
					C11.1,2.4,11.2,2.9,11.3,3.5z"/>
				<path class="st21" d="M11.2,3.5c0.1,0.8-0.7,0.8-1.1,0.3C9.7,3.3,9.6,2.7,9.6,2.3c0-0.5,0.4-0.7,1-0.1C11,2.5,11.2,2.9,11.2,3.5
					z"/>
				<path class="st22" d="M11.2,3.5c0.1,0.8-0.6,0.8-1,0.3S9.7,2.7,9.7,2.4c0-0.4,0.4-0.7,1-0.1C11,2.5,11.1,2.9,11.2,3.5z"/>
				<path class="st23" d="M11.1,3.4c0.1,0.7-0.6,0.8-1,0.3S9.7,2.6,9.6,2.3c0-0.4,0.3-0.6,0.9-0.1C10.9,2.5,11,2.8,11.1,3.4z"/>
			</g>
			<g class="st1">
				<path class="st2" d="M16.4,12.2c-0.6-1.1,0.2-2.1,1.6-2.1c0.8,0,1.6,0.3,2.3,1.2c0.8,0.9,0.5,1.9-0.7,2.2
					C18.4,13.7,17,13.2,16.4,12.2z"/>
				<path class="st3" d="M16.5,12.2c-0.6-1.1,0.1-2,1.6-2c0.8,0,1.6,0.4,2.3,1.2c0.7,0.9,0.5,1.9-0.7,2.1
					C18.4,13.6,17,13.2,16.5,12.2z"/>
				<path class="st4" d="M16.5,12.2c-0.6-1,0.1-2,1.5-2c0.8,0,1.6,0.4,2.2,1.1c0.7,0.8,0.5,1.8-0.7,2C18.5,13.5,17.1,13.1,16.5,12.2
					z"/>
				<path class="st5" d="M16.6,12.2c-0.6-1,0.1-1.9,1.5-1.9c0.7,0,1.6,0.4,2.2,1.1c0.7,0.8,0.5,1.7-0.7,1.9
					C18.5,13.5,17.1,13.1,16.6,12.2z"/>
				<path class="st6" d="M16.7,12.1c-0.6-1,0.1-1.9,1.4-1.9c0.7,0,1.5,0.4,2.1,1.1c0.7,0.8,0.4,1.7-0.7,1.9
					C18.5,13.4,17.2,13.1,16.7,12.1z"/>
				<path class="st7" d="M16.7,12.1c-0.6-1,0.1-1.8,1.4-1.8c0.7,0,1.5,0.4,2.1,1.1c0.6,0.8,0.4,1.6-0.7,1.8
					C18.5,13.4,17.3,13,16.7,12.1z"/>
				<path class="st8" d="M16.8,12.1c-0.6-0.9,0.1-1.8,1.3-1.7c0.7,0,1.5,0.4,2,1c0.6,0.7,0.4,1.6-0.7,1.7
					C18.5,13.3,17.3,13,16.8,12.1z"/>
				<path class="st9" d="M16.9,12.1c-0.6-0.9,0.1-1.7,1.2-1.7c0.7,0,1.5,0.4,2,1c0.6,0.7,0.4,1.5-0.7,1.7
					C18.5,13.2,17.4,12.9,16.9,12.1z"/>
				<path class="st10" d="M16.9,12.1c-0.6-0.9,0.1-1.7,1.2-1.6c0.7,0,1.4,0.4,1.9,1c0.6,0.7,0.4,1.4-0.7,1.6
					C18.5,13.2,17.5,12.9,16.9,12.1z"/>
				<path class="st11" d="M17,12.1c-0.6-0.8,0-1.6,1.1-1.6c0.7,0,1.4,0.4,1.9,1s0.4,1.4-0.7,1.5C18.5,13.1,17.5,12.8,17,12.1z"/>
				<path class="st12" d="M17.1,12.1c-0.6-0.8,0-1.6,1.1-1.5c0.7,0,1.4,0.4,1.8,0.9c0.5,0.6,0.4,1.3-0.6,1.5
					C18.5,13.1,17.6,12.8,17.1,12.1z"/>
				<path class="st13" d="M17.1,12.1c-0.6-0.8,0-1.5,1-1.5c0.7,0,1.4,0.4,1.8,0.9c0.5,0.6,0.4,1.3-0.6,1.4
					C18.5,13,17.7,12.7,17.1,12.1z"/>
				<path class="st14" d="M17.2,12c-0.6-0.7,0-1.5,1-1.4c0.7,0.1,1.3,0.4,1.7,0.9c0.5,0.5,0.3,1.2-0.6,1.3
					C18.5,13,17.7,12.7,17.2,12z"/>
				<path class="st15" d="M17.3,12c-0.6-0.7,0-1.4,0.9-1.3c0.7,0.1,1.3,0.4,1.7,0.9c0.5,0.5,0.3,1.1-0.6,1.2
					C18.5,12.9,17.8,12.6,17.3,12z"/>
				<path class="st16" d="M17.3,12c-0.6-0.7,0-1.4,0.9-1.3c0.7,0.1,1.3,0.4,1.6,0.8c0.4,0.5,0.3,1.1-0.6,1.2
					C18.6,12.8,17.8,12.6,17.3,12z"/>
				<path class="st17" d="M17.4,12c-0.6-0.6,0-1.3,0.8-1.2c0.7,0.1,1.3,0.5,1.6,0.8c0.4,0.5,0.3,1-0.6,1.1
					C18.6,12.8,17.9,12.5,17.4,12z"/>
				<path class="st18" d="M17.5,12c-0.6-0.6-0.1-1.3,0.8-1.2c0.7,0.1,1.2,0.5,1.5,0.8c0.4,0.4,0.3,1-0.6,1
					C18.6,12.7,18,12.5,17.5,12z"/>
				<path class="st19" d="M17.5,12c-0.6-0.6-0.1-1.2,0.7-1.1c0.7,0.1,1.2,0.5,1.5,0.8c0.4,0.4,0.3,0.9-0.6,1
					C18.6,12.7,18,12.5,17.5,12z"/>
				<path class="st20" d="M17.6,12c-0.6-0.5-0.1-1.1,0.7-1c0.7,0.1,1.2,0.5,1.5,0.8c0.3,0.4,0.3,0.9-0.6,0.9
					C18.6,12.6,18.1,12.4,17.6,12z"/>
				<path class="st21" d="M17.7,11.9c-0.6-0.5-0.1-1.1,0.6-1c0.6,0.1,1.2,0.5,1.4,0.7c0.3,0.3,0.2,0.8-0.6,0.8
					C18.6,12.5,18.2,12.4,17.7,11.9z"/>
				<path class="st22" d="M17.7,11.9c-0.6-0.5-0.1-1,0.6-0.9c0.6,0.1,1.1,0.5,1.4,0.7c0.3,0.3,0.2,0.7-0.6,0.8
					C18.6,12.5,18.2,12.3,17.7,11.9z"/>
				<path class="st23" d="M17.8,11.9c-0.6-0.5-0.1-1,0.5-0.9s1.1,0.5,1.3,0.7c0.3,0.3,0.2,0.7-0.6,0.7
					C18.6,12.4,18.3,12.3,17.8,11.9z"/>
			</g>
			<g class="st1">
				<path class="st2" d="M13.5,14c0.4-1.2,1.6-1.3,2.6-0.3c0.6,0.5,0.9,1.4,0.8,2.5c-0.1,1.2-1,1.7-2,1C13.9,16.5,13.2,15.1,13.5,14
					z"/>
				<path class="st3" d="M13.6,14c0.4-1.2,1.5-1.3,2.6-0.3c0.5,0.5,0.9,1.4,0.8,2.4c-0.1,1.1-1,1.7-2,1C13.9,16.4,13.2,15.1,13.6,14
					z"/>
				<path class="st4" d="M13.6,14c0.3-1.2,1.5-1.3,2.5-0.3c0.5,0.5,0.9,1.4,0.8,2.4c-0.1,1.1-1,1.6-1.9,0.9
					C14,16.4,13.3,15.1,13.6,14z"/>
				<path class="st5" d="M13.7,14.1c0.3-1.1,1.5-1.3,2.4-0.3c0.5,0.5,0.8,1.3,0.7,2.3c-0.1,1.1-0.9,1.6-1.9,0.9
					C14,16.3,13.4,15.1,13.7,14.1z"/>
				<path class="st6" d="M13.7,14.1c0.3-1.1,1.4-1.2,2.3-0.3c0.5,0.5,0.8,1.3,0.7,2.2c-0.1,1-0.9,1.5-1.8,0.8
					C14.1,16.3,13.4,15.1,13.7,14.1z"/>
				<path class="st7" d="M13.8,14.1c0.3-1.1,1.4-1.2,2.3-0.3c0.5,0.5,0.8,1.3,0.7,2.2c-0.1,1-0.9,1.5-1.8,0.8
					C14.1,16.2,13.5,15.1,13.8,14.1z"/>
				<path class="st8" d="M13.8,14.1c0.3-1.1,1.4-1.2,2.2-0.3c0.5,0.5,0.8,1.3,0.7,2.1c-0.1,0.9-0.8,1.4-1.7,0.8
					C14.1,16.2,13.6,15.1,13.8,14.1z"/>
				<path class="st9" d="M13.9,14.2c0.2-1,1.3-1.1,2.1-0.3c0.5,0.5,0.7,1.3,0.7,2.1c-0.1,0.9-0.8,1.4-1.7,0.7
					C14.2,16.1,13.6,15.1,13.9,14.2z"/>
				<path class="st10" d="M13.9,14.2c0.2-1,1.3-1.1,2-0.3c0.5,0.5,0.7,1.2,0.6,2c-0.1,0.9-0.8,1.3-1.6,0.7
					C14.2,16.1,13.7,15.1,13.9,14.2z"/>
				<path class="st11" d="M13.9,14.2c0.2-1,1.2-1.1,2-0.3c0.5,0.5,0.7,1.2,0.6,1.9c-0.1,0.8-0.7,1.3-1.6,0.7
					C14.2,16,13.8,15.1,13.9,14.2z"/>
				<path class="st12" d="M14,14.2c0.2-1,1.2-1.1,1.9-0.3c0.5,0.5,0.6,1.2,0.6,1.9c-0.1,0.8-0.7,1.3-1.5,0.6
					C14.3,16,13.8,15.1,14,14.2z"/>
				<path class="st13" d="M14,14.3c0.1-1,1.2-1,1.8-0.2c0.5,0.5,0.6,1.2,0.6,1.8c-0.1,0.8-0.7,1.2-1.5,0.6
					C14.3,15.9,13.9,15.1,14,14.3z"/>
				<path class="st14" d="M14.1,14.3c0.1-0.9,1.1-1,1.8-0.2c0.4,0.5,0.6,1.1,0.6,1.8c-0.1,0.7-0.7,1.2-1.4,0.6
					C14.4,15.9,14,15.1,14.1,14.3z"/>
				<path class="st15" d="M14.1,14.3c0.1-0.9,1.1-1,1.7-0.2c0.4,0.5,0.6,1.1,0.5,1.7c0,0.7-0.6,1.1-1.4,0.5
					C14.4,15.8,14,15.1,14.1,14.3z"/>
				<path class="st16" d="M14.2,14.3c0.1-0.9,1-0.9,1.6-0.2c0.4,0.5,0.5,1.1,0.5,1.6c0,0.6-0.6,1.1-1.3,0.5
					C14.4,15.8,14.1,15.1,14.2,14.3z"/>
				<path class="st17" d="M14.2,14.3c0-0.9,1-0.9,1.5-0.2c0.4,0.5,0.5,1.1,0.5,1.6c0,0.6-0.6,1-1.3,0.4
					C14.5,15.7,14.2,15.1,14.2,14.3z"/>
				<path class="st18" d="M14.3,14.4c0-0.9,1-0.9,1.5-0.2c0.4,0.5,0.5,1,0.5,1.5c0,0.6-0.5,1-1.2,0.4C14.5,15.7,14.2,15.1,14.3,14.4
					z"/>
				<path class="st19" d="M14.3,14.4c0-0.8,0.9-0.8,1.4-0.2c0.4,0.5,0.5,1,0.5,1.5c0,0.5-0.5,1-1.2,0.4
					C14.5,15.6,14.3,15.1,14.3,14.4z"/>
				<path class="st20" d="M14.4,14.4c0-0.8,0.9-0.8,1.3-0.2c0.4,0.5,0.4,1,0.4,1.4c0,0.5-0.5,0.9-1.1,0.3
					C14.6,15.6,14.4,15.1,14.4,14.4z"/>
				<path class="st21" d="M14.4,14.4c-0.1-0.8,0.8-0.8,1.2-0.2c0.4,0.5,0.4,1,0.4,1.3c0,0.5-0.5,0.9-1.1,0.3
					C14.6,15.5,14.4,15.1,14.4,14.4z"/>
				<path class="st22" d="M14.4,14.5c-0.1-0.8,0.8-0.8,1.2-0.2c0.4,0.5,0.4,1,0.4,1.3c0,0.4-0.4,0.8-1,0.3
					C14.6,15.5,14.5,15.1,14.4,14.5z"/>
				<path class="st23" d="M14.5,14.5c-0.1-0.7,0.7-0.7,1.1-0.2s0.4,0.9,0.4,1.2c0,0.4-0.4,0.8-1,0.2C14.7,15.4,14.6,15.1,14.5,14.5z
					"/>
			</g>
			<g class="st1">
				<path class="st2" d="M10,13.4c1.1-0.6,2.1,0.1,2.2,1.5c0.1,0.8-0.3,1.7-1.1,2.4c-0.9,0.8-1.9,0.6-2.2-0.6C8.6,15.5,9,14,10,13.4
					z"/>
				<path class="st3" d="M10,13.5c1.1-0.6,2,0.1,2.1,1.5c0.1,0.8-0.3,1.6-1.1,2.3c-0.8,0.8-1.8,0.6-2.1-0.6C8.7,15.5,9,14.1,10,13.5
					z"/>
				<path class="st4" d="M10,13.5c1-0.6,2,0,2,1.4c0,0.8-0.3,1.6-1,2.3c-0.8,0.7-1.8,0.6-2-0.6C8.7,15.5,9.1,14.1,10,13.5z"/>
				<path class="st5" d="M10,13.6c1-0.6,1.9,0,2,1.4c0,0.7-0.3,1.6-1,2.2c-0.8,0.7-1.7,0.5-2-0.6C8.8,15.5,9.1,14.1,10,13.6z"/>
				<path class="st6" d="M10,13.6c0.9-0.6,1.8,0,1.9,1.3c0,0.7-0.3,1.6-1,2.2c-0.8,0.7-1.7,0.5-1.9-0.6C8.8,15.5,9.2,14.2,10,13.6z"
					/>
				<path class="st7" d="M10,13.7c0.9-0.6,1.8,0,1.9,1.2c0,0.7-0.3,1.5-1,2.1c-0.7,0.7-1.6,0.5-1.8-0.6C8.9,15.4,9.2,14.2,10,13.7z"
					/>
				<path class="st8" d="M10.1,13.7c0.9-0.5,1.7,0,1.8,1.2c0,0.7-0.3,1.5-0.9,2.1c-0.7,0.6-1.5,0.5-1.8-0.6
					C8.9,15.4,9.2,14.2,10.1,13.7z"/>
				<path class="st9" d="M10.1,13.8c0.8-0.5,1.7-0.1,1.7,1.1c0,0.7-0.3,1.5-0.9,2c-0.7,0.6-1.5,0.5-1.7-0.6
					C9,15.4,9.3,14.3,10.1,13.8z"/>
				<path class="st10" d="M10.1,13.8c0.8-0.5,1.6-0.1,1.7,1.1c0,0.7-0.3,1.4-0.9,2c-0.6,0.6-1.4,0.5-1.6-0.6
					C9,15.4,9.3,14.3,10.1,13.8z"/>
				<path class="st11" d="M10.1,13.8c0.8-0.5,1.5-0.1,1.6,1c0,0.7-0.3,1.4-0.9,1.9c-0.6,0.6-1.4,0.5-1.6-0.5
					C9.1,15.4,9.4,14.3,10.1,13.8z"/>
				<path class="st12" d="M10.1,13.9c0.7-0.5,1.5-0.1,1.5,1c0,0.7-0.3,1.4-0.8,1.9c-0.6,0.6-1.3,0.5-1.5-0.5
					C9.2,15.4,9.4,14.3,10.1,13.9z"/>
				<path class="st13" d="M10.1,13.9c0.7-0.5,1.4-0.1,1.5,0.9c0,0.7-0.3,1.4-0.8,1.8c-0.6,0.5-1.3,0.5-1.4-0.5
					C9.2,15.3,9.5,14.4,10.1,13.9z"/>
				<path class="st14" d="M10.1,14c0.6-0.5,1.4-0.1,1.4,0.8c0,0.7-0.3,1.3-0.8,1.8s-1.2,0.5-1.4-0.5C9.3,15.3,9.5,14.4,10.1,14z"/>
				<path class="st15" d="M10.1,14c0.6-0.4,1.3-0.2,1.3,0.8c0,0.7-0.3,1.3-0.7,1.7C10.2,17,9.6,16.9,9.4,16
					C9.3,15.3,9.6,14.4,10.1,14z"/>
				<path class="st16" d="M10.1,14.1c0.6-0.4,1.2-0.2,1.3,0.7c0,0.7-0.3,1.3-0.7,1.7C10.2,17,9.6,16.9,9.5,16
					C9.4,15.3,9.6,14.5,10.1,14.1z"/>
				<path class="st17" d="M10.1,14.1c0.5-0.4,1.2-0.2,1.2,0.7c0,0.7-0.3,1.3-0.7,1.6c-0.4,0.4-1,0.4-1.1-0.5
					C9.4,15.3,9.7,14.5,10.1,14.1z"/>
				<path class="st18" d="M10.2,14.2c0.5-0.4,1.1-0.2,1.1,0.6c0,0.6-0.3,1.2-0.7,1.6s-1,0.4-1.1-0.5C9.5,15.3,9.7,14.5,10.2,14.2z"
					/>
				<path class="st19" d="M10.2,14.2c0.5-0.4,1.1-0.2,1.1,0.6c0,0.6-0.3,1.2-0.6,1.5c-0.4,0.4-0.9,0.4-1-0.5
					C9.5,15.2,9.7,14.6,10.2,14.2z"/>
				<path class="st20" d="M10.2,14.3c0.4-0.4,1-0.3,1,0.5c0,0.6-0.4,1.2-0.6,1.5c-0.3,0.4-0.9,0.4-0.9-0.5
					C9.6,15.2,9.8,14.6,10.2,14.3z"/>
				<path class="st21" d="M10.2,14.3c0.4-0.4,0.9-0.3,1,0.4c0,0.6-0.4,1.2-0.6,1.4c-0.3,0.3-0.8,0.4-0.9-0.4
					C9.6,15.2,9.8,14.6,10.2,14.3z"/>
				<path class="st22" d="M10.2,14.3c0.3-0.4,0.9-0.3,0.9,0.4c0,0.6-0.4,1.1-0.6,1.4c-0.3,0.3-0.8,0.4-0.8-0.4
					C9.7,15.2,9.9,14.7,10.2,14.3z"/>
				<path class="st23" d="M10.2,14.4c0.3-0.3,0.8-0.3,0.8,0.3s-0.4,1.1-0.5,1.3c-0.3,0.3-0.7,0.4-0.7-0.4
					C9.7,15.2,9.9,14.7,10.2,14.4z"/>
			</g>
			<g class="st1">
				<path class="st2" d="M7.9,10.3c1.2,0.2,1.6,1.2,0.7,2.4c-0.4,0.6-1.4,0.9-2.5,1c-1.2,0.1-1.8-0.7-1.3-1.9
					C5.3,10.8,6.7,10.2,7.9,10.3z"/>
				<path class="st3" d="M7.8,10.4c1.2,0.2,1.5,1.2,0.7,2.3c-0.4,0.6-1.4,0.9-2.4,1C5,13.8,4.3,13,4.9,11.9
					C5.4,10.8,6.7,10.2,7.8,10.4z"/>
				<path class="st4" d="M7.8,10.4c1.2,0.2,1.5,1.1,0.7,2.2c-0.4,0.6-1.4,0.9-2.4,1c-1.1,0.1-1.7-0.7-1.2-1.8
					C5.4,10.8,6.7,10.3,7.8,10.4z"/>
				<path class="st5" d="M7.8,10.4c1.1,0.2,1.5,1.1,0.7,2.2c-0.4,0.6-1.4,0.9-2.3,1c-1.1,0.1-1.7-0.7-1.2-1.7
					C5.5,10.8,6.7,10.3,7.8,10.4z"/>
				<path class="st6" d="M7.8,10.5c1.1,0.1,1.4,1,0.7,2.1c-0.4,0.6-1.3,0.9-2.3,0.9c-1,0.1-1.6-0.6-1.1-1.7
					C5.5,10.9,6.7,10.3,7.8,10.5z"/>
				<path class="st7" d="M7.7,10.5c1.1,0.1,1.4,1,0.7,2c-0.4,0.6-1.3,0.9-2.2,0.9c-1,0.1-1.6-0.6-1.1-1.6
					C5.6,10.9,6.8,10.4,7.7,10.5z"/>
				<path class="st8" d="M7.7,10.5c1,0.1,1.4,0.9,0.6,1.9C7.9,13,7,13.3,6.2,13.3c-0.9,0.1-1.5-0.6-1-1.6
					C5.6,10.9,6.8,10.4,7.7,10.5z"/>
				<path class="st9" d="M7.7,10.6c1,0.1,1.3,0.9,0.6,1.8C7.9,13,7,13.2,6.2,13.3c-0.9,0.1-1.5-0.5-1-1.5
					C5.7,10.9,6.8,10.5,7.7,10.6z"/>
				<path class="st10" d="M7.7,10.6c0.9,0.1,1.3,0.8,0.6,1.7c-0.4,0.6-1.3,0.8-2,0.9c-0.9,0.1-1.4-0.5-0.9-1.5
					C5.8,10.9,6.8,10.5,7.7,10.6z"/>
				<path class="st11" d="M7.6,10.6c0.9,0.1,1.3,0.7,0.6,1.6c-0.4,0.6-1.2,0.8-2,0.9c-0.8,0.1-1.4-0.5-0.9-1.4
					C5.8,11,6.8,10.6,7.6,10.6z"/>
				<path class="st12" d="M7.6,10.7c0.9,0.1,1.2,0.7,0.6,1.6c-0.4,0.6-1.2,0.8-1.9,0.8c-0.8,0.1-1.3-0.5-0.8-1.4
					C5.9,11,6.8,10.6,7.6,10.7z"/>
				<path class="st13" d="M7.6,10.7c0.8,0.1,1.2,0.6,0.6,1.5C7.8,12.7,7,13,6.4,13c-0.8,0.1-1.3-0.4-0.8-1.3
					C5.9,11,6.8,10.7,7.6,10.7z"/>
				<path class="st14" d="M7.5,10.7c0.8,0,1.1,0.6,0.5,1.4c-0.4,0.5-1.2,0.8-1.8,0.8C5.5,13,5,12.5,5.5,11.6C6,11,6.8,10.7,7.5,10.7
					z"/>
				<path class="st15" d="M7.5,10.8c0.8,0,1.1,0.5,0.5,1.3c-0.4,0.5-1.1,0.7-1.7,0.8c-0.7,0.1-1.2-0.4-0.7-1.2
					C6,11,6.8,10.7,7.5,10.8z"/>
				<path class="st16" d="M7.5,10.8c0.7,0,1.1,0.5,0.5,1.2c-0.4,0.5-1.1,0.7-1.7,0.8s-1.1-0.4-0.6-1.2C6.1,11.1,6.8,10.8,7.5,10.8z"
					/>
				<path class="st17" d="M7.5,10.8c0.7,0,1,0.4,0.5,1.1c-0.4,0.5-1.1,0.7-1.6,0.8c-0.7,0.1-1.1-0.3-0.6-1.1
					C6.1,11.1,6.8,10.8,7.5,10.8z"/>
				<path class="st18" d="M7.4,10.9c0.6,0,1,0.4,0.5,1c-0.4,0.5-1.1,0.7-1.5,0.8c-0.6,0-1-0.3-0.6-1.1C6.2,11.1,6.8,10.9,7.4,10.9z"
					/>
				<path class="st19" d="M7.4,10.9c0.6,0,1,0.3,0.5,1c-0.4,0.5-1.1,0.7-1.5,0.7c-0.5,0.1-1-0.3-0.5-1C6.2,11.1,6.9,10.9,7.4,10.9z"
					/>
				<path class="st20" d="M7.4,10.9c0.6,0,0.9,0.3,0.5,0.9c-0.4,0.5-1,0.7-1.4,0.7c-0.5,0.1-0.9-0.2-0.4-1C6.3,11.1,6.9,11,7.4,10.9
					z"/>
				<path class="st21" d="M7.3,11c0.5,0,0.9,0.2,0.4,0.8c-0.4,0.5-1,0.7-1.4,0.7c-0.5,0.1-0.9-0.2-0.4-0.9C6.3,11.2,6.9,11,7.3,11z"
					/>
				<path class="st22" d="M7.3,11c0.5-0.1,0.9,0.2,0.4,0.7c-0.4,0.5-1,0.6-1.3,0.7c-0.4,0.1-0.8-0.2-0.3-0.8
					C6.4,11.2,6.9,11.1,7.3,11z"/>
				<path class="st23" d="M7.3,11c0.5-0.1,0.8,0.1,0.4,0.6c-0.4,0.5-1,0.6-1.2,0.7c-0.4,0.1-0.8-0.2-0.3-0.8
					C6.4,11.2,6.9,11.1,7.3,11z"/>
			</g>
			<g class="st1">
				<path class="st2" d="M16.9,10.8c-1.1-1-0.6-2.3,0.9-2.9c0.8-0.3,1.9-0.3,3,0.4c1.2,0.7,1.3,1.9,0.1,2.6
					C19.7,11.6,17.9,11.7,16.9,10.8z"/>
				<path class="st3" d="M17,10.7c-1.1-0.9-0.6-2.3,0.9-2.8c0.8-0.3,1.9-0.3,2.9,0.4c1.1,0.7,1.3,1.8,0,2.5
					C19.7,11.5,17.9,11.6,17,10.7z"/>
				<path class="st4" d="M17,10.7c-1-0.9-0.6-2.2,0.9-2.8c0.8-0.3,1.9-0.2,2.9,0.4c1.1,0.6,1.2,1.8,0,2.5C19.6,11.4,18,11.5,17,10.7
					z"/>
				<path class="st5" d="M17.1,10.6c-1-0.9-0.6-2.1,0.8-2.7c0.8-0.3,1.8-0.2,2.8,0.3c1.1,0.6,1.2,1.7,0,2.4
					C19.6,11.4,18,11.5,17.1,10.6z"/>
				<path class="st6" d="M17.2,10.6c-1-0.8-0.6-2.1,0.8-2.6c0.8-0.3,1.8-0.2,2.7,0.4c1,0.6,1.1,1.6,0,2.3
					C19.6,11.3,18.1,11.4,17.2,10.6z"/>
				<path class="st7" d="M17.2,10.6c-1-0.8-0.6-2,0.8-2.5c0.8-0.3,1.8-0.2,2.7,0.3c1,0.6,1.1,1.6,0,2.2
					C19.6,11.2,18.2,11.3,17.2,10.6z"/>
				<path class="st8" d="M17.3,10.5c-1-0.8-0.6-2,0.7-2.4c0.8-0.3,1.8-0.1,2.6,0.3c1,0.5,1.1,1.5-0.1,2.2
					C19.6,11.2,18.2,11.2,17.3,10.5z"/>
				<path class="st9" d="M17.4,10.5c-1-0.7-0.6-1.9,0.7-2.3c0.8-0.3,1.7-0.1,2.6,0.3c0.9,0.5,1,1.5-0.1,2.1
					C19.6,11.1,18.3,11.2,17.4,10.5z"/>
				<path class="st10" d="M17.4,10.4c-1-0.7-0.6-1.8,0.7-2.2c0.8-0.3,1.7-0.1,2.5,0.3c0.9,0.5,1,1.4-0.1,2
					C19.6,11,18.3,11.1,17.4,10.4z"/>
				<path class="st11" d="M17.5,10.4c-1-0.7-0.6-1.8,0.6-2.2c0.8-0.2,1.7-0.1,2.4,0.3c0.8,0.5,1,1.3-0.1,1.9
					C19.5,11,18.4,11,17.5,10.4z"/>
				<path class="st12" d="M17.6,10.4c-1-0.6-0.6-1.7,0.6-2.1c0.8-0.2,1.7-0.1,2.4,0.3c0.8,0.4,0.9,1.3-0.1,1.8
					C19.5,10.9,18.4,10.9,17.6,10.4z"/>
				<path class="st13" d="M17.6,10.3c-0.9-0.6-0.6-1.7,0.6-2c0.8-0.2,1.6-0.1,2.3,0.3c0.8,0.4,0.9,1.2-0.2,1.8
					C19.5,10.8,18.5,10.9,17.6,10.3z"/>
				<path class="st14" d="M17.7,10.3c-0.9-0.6-0.6-1.6,0.5-1.9c0.8-0.2,1.6-0.1,2.2,0.3c0.7,0.4,0.8,1.2-0.2,1.7
					C19.5,10.7,18.5,10.8,17.7,10.3z"/>
				<path class="st15" d="M17.8,10.2c-1-0.5-0.6-1.5,0.5-1.8c0.8-0.2,1.6,0,2.2,0.3c0.7,0.4,0.8,1.1-0.2,1.6
					C19.5,10.7,18.6,10.7,17.8,10.2z"/>
				<path class="st16" d="M17.8,10.2c-0.9-0.5-0.6-1.5,0.5-1.7c0.8-0.2,1.6,0,2.1,0.3c0.7,0.4,0.8,1.1-0.2,1.5
					C19.5,10.6,18.6,10.6,17.8,10.2z"/>
				<path class="st17" d="M17.9,10.2c-0.9-0.5-0.6-1.4,0.4-1.6c0.8-0.2,1.5,0,2.1,0.3s0.7,1-0.2,1.4C19.5,10.5,18.7,10.6,17.9,10.2z
					"/>
				<path class="st18" d="M18,10.1c-0.9-0.4-0.5-1.3,0.4-1.6c0.8-0.2,1.5,0,2,0.3c0.6,0.3,0.7,0.9-0.2,1.4
					C19.5,10.5,18.7,10.5,18,10.1z"/>
				<path class="st19" d="M18,10.1c-0.9-0.4-0.5-1.3,0.4-1.5c0.7-0.2,1.5,0,1.9,0.3c0.6,0.3,0.7,0.9-0.3,1.3
					C19.4,10.4,18.8,10.4,18,10.1z"/>
				<path class="st20" d="M18.1,10c-0.9-0.4-0.5-1.2,0.3-1.4c0.7-0.1,1.5,0.1,1.9,0.2c0.5,0.3,0.6,0.8-0.3,1.2
					C19.4,10.4,18.8,10.3,18.1,10z"/>
				<path class="st21" d="M18.2,10c-0.9-0.3-0.5-1.1,0.3-1.3c0.7-0.1,1.4,0.1,1.8,0.2c0.5,0.2,0.6,0.8-0.3,1.1
					C19.4,10.3,18.9,10.3,18.2,10z"/>
				<path class="st22" d="M18.2,10c-0.8-0.3-0.5-1.1,0.3-1.2c0.7-0.1,1.4,0.1,1.7,0.2c0.4,0.2,0.5,0.7-0.3,1
					C19.4,10.2,18.9,10.2,18.2,10z"/>
				<path class="st23" d="M18.3,9.9c-0.8-0.3-0.5-1,0.2-1.1s1.4,0.1,1.7,0.2c0.4,0.2,0.5,0.7-0.3,1C19.4,10.2,19,10.1,18.3,9.9z"/>
			</g>
			<g class="st1">
				<path class="st2" d="M16.7,7.3c-1.5,0-2-1.3-1.3-2.8c0.4-0.8,1.2-1.5,2.5-1.8s2.3,0.9,1.9,2.2C19.4,6.4,18.1,7.3,16.7,7.3z"/>
				<path class="st3" d="M16.8,7.2c-1.4,0-2-1.2-1.3-2.7c0.4-0.8,1.2-1.5,2.4-1.7c1.3-0.3,2.2,0.8,1.8,2.2
					C19.3,6.3,18.1,7.2,16.8,7.2z"/>
				<path class="st4" d="M16.8,7.2c-1.4,0-1.9-1.2-1.2-2.6C16,3.8,16.8,3.2,18,2.9c1.2-0.3,2.1,0.8,1.7,2.1
					C19.2,6.3,18.1,7.1,16.8,7.2z"/>
				<path class="st5" d="M16.8,7.1c-1.4,0.1-1.9-1.2-1.2-2.5C16,3.8,16.8,3.2,17.9,3c1.2-0.3,2.1,0.8,1.7,2.1
					C19.2,6.2,18.1,7,16.8,7.1z"/>
				<path class="st6" d="M16.8,7c-1.3,0.1-1.9-1.1-1.2-2.4C16,3.8,16.8,3.2,17.9,3c1.2-0.3,2,0.7,1.6,2C19.1,6.1,18,7,16.8,7z"/>
				<path class="st7" d="M16.8,6.9C15.5,7,15,5.8,15.7,4.5c0.4-0.7,1.2-1.3,2.2-1.6c1.1-0.2,1.9,0.7,1.5,1.9
					C19.1,6.1,18,6.9,16.8,6.9z"/>
				<path class="st8" d="M16.9,6.9c-1.3,0.1-1.8-1-1.1-2.3C16.2,3.9,17,3.3,18,3.1c1.1-0.2,1.9,0.7,1.4,1.9C19,6,18,6.8,16.9,6.9z"
					/>
				<path class="st9" d="M16.9,6.8c-1.2,0.1-1.7-1-1.1-2.2c0.4-0.7,1.2-1.3,2.1-1.5c1-0.2,1.8,0.6,1.4,1.8C19,6,18,6.7,16.9,6.8z"/>
				<path class="st10" d="M16.9,6.7c-1.2,0.1-1.7-0.9-1-2.1c0.4-0.7,1.2-1.3,2.1-1.5c1-0.2,1.7,0.6,1.3,1.7
					C18.9,5.9,18,6.6,16.9,6.7z"/>
				<path class="st11" d="M16.9,6.6c-1.2,0.2-1.6-0.9-1-2c0.4-0.7,1.2-1.2,2-1.4c0.9-0.2,1.6,0.5,1.2,1.7C18.8,5.9,18,6.5,16.9,6.6z
					"/>
				<path class="st12" d="M17,6.6c-1.1,0.2-1.6-0.9-1-1.9c0.4-0.7,1.2-1.2,2-1.4c0.9-0.2,1.6,0.5,1.2,1.6C18.8,5.8,18,6.4,17,6.6z"
					/>
				<path class="st13" d="M17,6.5c-1.1,0.2-1.5-0.8-0.9-1.8C16.5,4,17.3,3.5,18,3.4c0.9-0.2,1.5,0.5,1.1,1.6C18.7,5.7,18,6.3,17,6.5
					z"/>
				<path class="st14" d="M17,6.4c-1.1,0.2-1.5-0.8-0.9-1.8c0.4-0.7,1.2-1.1,1.8-1.3c0.8-0.2,1.4,0.4,1,1.5
					C18.7,5.7,17.9,6.2,17,6.4z"/>
				<path class="st15" d="M17,6.3c-1,0.2-1.4-0.7-0.9-1.7c0.4-0.7,1.1-1.1,1.8-1.3c0.8-0.2,1.4,0.4,1,1.4C18.6,5.6,17.9,6.1,17,6.3z
					"/>
				<path class="st16" d="M17,6.3c-1,0.2-1.4-0.7-0.8-1.6c0.4-0.7,1.1-1.1,1.7-1.2c0.7-0.2,1.3,0.4,0.9,1.4
					C18.6,5.6,17.9,6.1,17,6.3z"/>
				<path class="st17" d="M17.1,6.2c-1,0.3-1.4-0.7-0.8-1.5c0.4-0.6,1.1-1,1.7-1.2c0.7-0.2,1.2,0.3,0.8,1.3
					C18.5,5.5,17.9,6,17.1,6.2z"/>
				<path class="st18" d="M17.1,6.1c-1,0.3-1.3-0.6-0.8-1.4c0.4-0.6,1.1-1,1.6-1.2c0.6-0.2,1.2,0.3,0.7,1.3
					C18.4,5.5,17.9,5.9,17.1,6.1z"/>
				<path class="st19" d="M17.1,6c-0.9,0.3-1.3-0.6-0.7-1.3c0.4-0.6,1.1-1,1.6-1.1c0.6-0.2,1.1,0.3,0.7,1.2
					C18.4,5.4,17.9,5.8,17.1,6z"/>
				<path class="st20" d="M17.1,6c-0.9,0.3-1.2-0.5-0.7-1.2c0.4-0.6,1.1-1,1.5-1.1c0.6-0.2,1,0.2,0.6,1.1C18.3,5.3,17.9,5.7,17.1,6z
					"/>
				<path class="st21" d="M17.2,5.9c-0.9,0.3-1.2-0.5-0.7-1.1s1.1-0.9,1.5-1c0.5-0.2,1,0.2,0.5,1.1C18.3,5.3,17.8,5.6,17.2,5.9z"/>
				<path class="st22" d="M17.2,5.8c-0.8,0.4-1.1-0.4-0.6-1.1c0.5-0.6,1.1-0.9,1.4-1c0.5-0.2,0.9,0.2,0.5,1
					C18.2,5.2,17.8,5.5,17.2,5.8z"/>
				<path class="st23" d="M17.2,5.7c-0.8,0.4-1.1-0.4-0.6-1s1.1-0.9,1.4-1c0.4-0.1,0.8,0.1,0.4,0.9C18.2,5.2,17.8,5.4,17.2,5.7z"/>
			</g>
			<g class="st1">
				<path class="st2" d="M14.6,4.8c-1,1.1-2.6,0.7-3.2-0.9c-0.3-0.8-0.2-1.9,0.4-3C12.5-0.3,14.3-0.2,15,1
					C15.7,2.3,15.5,3.8,14.6,4.8z"/>
				<path class="st3" d="M14.6,4.7c-1,1-2.5,0.7-3.1-0.9c-0.3-0.8-0.2-1.9,0.4-2.9C12.6-0.2,14.3-0.2,15,1
					C15.6,2.3,15.5,3.8,14.6,4.7z"/>
				<path class="st4" d="M14.5,4.7c-0.9,1-2.4,0.7-3-0.8C11.2,3.1,11.3,2,11.9,1c0.7-1.1,2.3-1.1,3,0.1C15.5,2.3,15.4,3.7,14.5,4.7z
					"/>
				<path class="st5" d="M14.5,4.6c-0.9,1-2.4,0.7-2.9-0.8C11.3,3,11.4,2,12,1c0.6-1.1,2.2-1,2.9,0.2C15.5,2.3,15.3,3.7,14.5,4.6z"
					/>
				<path class="st6" d="M14.4,4.5c-0.9,1-2.3,0.7-2.8-0.8C11.3,2.9,11.4,1.9,12,1c0.6-1,2.1-1,2.8,0.2C15.4,2.3,15.2,3.6,14.4,4.5z
					"/>
				<path class="st7" d="M14.4,4.5c-0.8,1-2.2,0.6-2.7-0.7C11.4,3,11.5,2,12.1,1.1c0.6-1,2-1,2.7,0.2C15.3,2.3,15.1,3.6,14.4,4.5z"
					/>
				<path class="st8" d="M14.3,4.4c-0.8,1-2.1,0.6-2.6-0.7c-0.3-0.8-0.1-1.8,0.4-2.6c0.6-0.9,1.9-0.9,2.5,0.2
					C15.2,2.3,15,3.5,14.3,4.4z"/>
				<path class="st9" d="M14.3,4.3c-0.8,1-2.1,0.6-2.5-0.7c-0.3-0.8-0.1-1.7,0.4-2.6s1.8-0.9,2.4,0.2C15.1,2.3,14.9,3.5,14.3,4.3z"
					/>
				<path class="st10" d="M14.2,4.3c-0.7,1-2,0.6-2.4-0.6c-0.2-0.8-0.1-1.7,0.3-2.5c0.5-0.9,1.8-0.9,2.3,0.2
					C15,2.3,14.8,3.4,14.2,4.3z"/>
				<path class="st11" d="M14.1,4.2c-0.7,1-1.9,0.6-2.3-0.6c-0.2-0.8-0.1-1.7,0.3-2.4c0.5-0.8,1.7-0.9,2.2,0.2
					C14.9,2.3,14.8,3.4,14.1,4.2z"/>
				<path class="st12" d="M14.1,4.2c-0.7,0.9-1.9,0.6-2.2-0.6c-0.2-0.8-0.1-1.7,0.3-2.4c0.5-0.8,1.6-0.8,2.2,0.2
					C14.8,2.3,14.7,3.3,14.1,4.2z"/>
				<path class="st13" d="M14,4.1c-0.6,0.9-1.8,0.6-2.1-0.5c-0.2-0.8-0.1-1.6,0.3-2.3c0.4-0.8,1.5-0.8,2,0.2
					C14.7,2.3,14.6,3.3,14,4.1z"/>
				<path class="st14" d="M14,4c-0.6,0.9-1.7,0.6-2-0.5c-0.2-0.8,0-1.6,0.3-2.2c0.4-0.7,1.4-0.8,1.9,0.3C14.6,2.3,14.5,3.2,14,4z"/>
				<path class="st15" d="M13.9,4c-0.5,0.9-1.6,0.6-1.9-0.5c-0.2-0.8,0-1.6,0.3-2.2c0.4-0.7,1.3-0.7,1.8,0.3
					C14.5,2.3,14.4,3.2,13.9,4z"/>
				<path class="st16" d="M13.9,3.9c-0.5,0.9-1.6,0.6-1.8-0.4c-0.2-0.8,0-1.6,0.3-2.1c0.4-0.7,1.2-0.7,1.7,0.3
					C14.4,2.3,14.3,3.1,13.9,3.9z"/>
				<path class="st17" d="M13.8,3.8c-0.4,0.9-1.5,0.6-1.7-0.4c-0.2-0.8,0-1.5,0.3-2.1s1.2-0.7,1.6,0.3C14.3,2.3,14.2,3.1,13.8,3.8z"
					/>
				<path class="st18" d="M13.8,3.8c-0.4,0.9-1.4,0.6-1.6-0.4c-0.2-0.8,0-1.5,0.3-2c0.3-0.6,1.1-0.6,1.5,0.3
					C14.2,2.3,14.2,3,13.8,3.8z"/>
				<path class="st19" d="M13.7,3.7c-0.4,0.9-1.3,0.5-1.5-0.4c-0.2-0.8,0-1.5,0.3-1.9c0.3-0.6,1-0.6,1.4,0.3
					C14.1,2.4,14.1,3,13.7,3.7z"/>
				<path class="st20" d="M13.7,3.6c-0.4,0.9-1.3,0.5-1.4-0.3c-0.1-0.7,0.1-1.5,0.3-1.9c0.2-0.5,0.8-0.5,1.2,0.4
					C14,2.4,14,2.9,13.7,3.6z"/>
				<path class="st21" d="M13.6,3.6c-0.3,0.9-1.2,0.5-1.3-0.3c-0.1-0.7,0.1-1.4,0.3-1.8c0.2-0.5,0.8-0.6,1.2,0.3
					C14,2.4,13.9,2.9,13.6,3.6z"/>
				<path class="st22" d="M13.6,3.5c-0.3,0.8-1.1,0.5-1.2-0.3c-0.1-0.7,0.1-1.4,0.3-1.7c0.2-0.4,0.7-0.5,1.1,0.3
					C13.9,2.4,13.8,2.8,13.6,3.5z"/>
				<path class="st23" d="M13.5,3.4c-0.3,0.8-1,0.5-1.1-0.2s0.1-1.4,0.2-1.7c0.2-0.4,0.7-0.5,1,0.4C13.8,2.4,13.7,2.8,13.5,3.4z"/>
			</g>
			<g class="st1">
				<path class="st2" d="M11.3,6.6C11,8,9.6,8.3,8.3,7.2C7.6,6.6,7.1,5.6,7.1,4.3c0-1.4,1-2,2.3-1.3C10.6,3.7,11.6,5.2,11.3,6.6z"/>
				<path class="st3" d="M11.2,6.5c-0.3,1.4-1.7,1.6-2.9,0.6C7.6,6.5,7.1,5.5,7.2,4.3c0-1.3,1-2,2.2-1.3C10.6,3.8,11.5,5.2,11.2,6.5
					z"/>
				<path class="st4" d="M11.1,6.5C10.8,7.8,9.5,8.1,8.3,7C7.6,6.5,7.2,5.5,7.2,4.3c0-1.3,1-1.9,2.2-1.2C10.5,3.8,11.4,5.2,11.1,6.5
					z"/>
				<path class="st5" d="M11.1,6.4C10.8,7.8,9.5,8,8.3,7c-0.6-0.6-1.1-1.5-1-2.6c0-1.2,0.9-1.9,2.1-1.1C10.5,3.9,11.3,5.2,11.1,6.4z
					"/>
				<path class="st6" d="M11,6.4c-0.3,1.3-1.5,1.5-2.6,0.5C7.7,6.4,7.3,5.4,7.3,4.4c0-1.2,0.9-1.8,2-1.1C10.4,3.9,11.2,5.2,11,6.4z"
					/>
				<path class="st7" d="M10.9,6.4c-0.2,1.3-1.5,1.5-2.6,0.5c-0.6-0.6-1-1.5-0.9-2.5c0-1.1,0.9-1.7,2-1C10.4,4,11.1,5.2,10.9,6.4z"
					/>
				<path class="st8" d="M10.9,6.3c-0.2,1.2-1.4,1.5-2.5,0.5c-0.6-0.5-1-1.4-1-2.4c0-1.1,0.8-1.7,1.9-1C10.3,4,11,5.2,10.9,6.3z"/>
				<path class="st9" d="M10.8,6.3c-0.2,1.2-1.4,1.4-2.4,0.5c-0.6-0.6-1-1.5-0.9-2.4c0-1.1,0.8-1.6,1.9-0.9
					C10.3,4.1,10.9,5.2,10.8,6.3z"/>
				<path class="st10" d="M10.7,6.2c-0.1,1.2-1.3,1.4-2.3,0.5C7.8,6.2,7.5,5.3,7.5,4.4c0-1,0.8-1.5,1.8-0.9
					C10.2,4.1,10.9,5.2,10.7,6.2z"/>
				<path class="st11" d="M10.6,6.2c-0.1,1.2-1.2,1.4-2.1,0.5C7.9,6.1,7.6,5.2,7.6,4.4c0-1,0.7-1.5,1.7-0.8
					C10.1,4.1,10.8,5.2,10.6,6.2z"/>
				<path class="st12" d="M10.6,6.2c-0.1,1.1-1.2,1.3-2.1,0.5C7.9,6.1,7.6,5.2,7.6,4.4c0-0.9,0.7-1.4,1.7-0.8
					C10.1,4.2,10.7,5.1,10.6,6.2z"/>
				<path class="st13" d="M10.5,6.1c-0.1,1.1-1.2,1.3-2,0.5C7.9,6,7.7,5.2,7.7,4.4c0-0.9,0.7-1.4,1.6-0.7C10,4.2,10.6,5.1,10.5,6.1z
					"/>
				<path class="st14" d="M10.4,6.1c-0.1,1.1-1.1,1.3-1.9,0.4C8,6,7.7,5.1,7.7,4.4c0-0.8,0.6-1.3,1.6-0.7C10,4.3,10.5,5.1,10.4,6.1z
					"/>
				<path class="st15" d="M10.4,6c0,1.1-1.1,1.2-1.8,0.4C8,5.9,7.8,5.1,7.8,4.4c0-0.8,0.6-1.2,1.5-0.6C9.9,4.3,10.4,5.1,10.4,6z"/>
				<path class="st16" d="M10.3,6c0,1-1,1.2-1.7,0.4C8,5.8,7.8,5.1,7.8,4.4c0-0.8,0.6-1.2,1.4-0.5C9.9,4.4,10.3,5.1,10.3,6z"/>
				<path class="st17" d="M10.2,6c0,1-1,1.2-1.6,0.4C8.1,5.8,7.9,5,7.8,4.4c0-0.7,0.5-1.1,1.4-0.5C9.8,4.4,10.2,5.1,10.2,6z"/>
				<path class="st18" d="M10.2,5.9c0,1-0.9,1.1-1.5,0.4C8.1,5.7,7.9,5,7.9,4.4c0-0.7,0.5-1.1,1.3-0.4C9.8,4.4,10.1,5.1,10.2,5.9z"
					/>
				<path class="st19" d="M10.1,5.9c0.1,1-0.9,1.1-1.5,0.4C8.1,5.7,8,5,7.9,4.5c0-0.6,0.5-1,1.3-0.4C9.7,4.5,10,5.1,10.1,5.9z"/>
				<path class="st20" d="M10,5.8c0.1,0.9-0.8,1-1.4,0.4C8.2,5.6,8,4.9,8,4.5c0-0.6,0.4-0.9,1.2-0.3C9.7,4.5,10,5.1,10,5.8z"/>
				<path class="st21" d="M10,5.8c0.1,0.9-0.8,1-1.3,0.4S8.1,4.9,8,4.5C8,4,8.4,3.6,9.1,4.2C9.6,4.6,9.9,5.1,10,5.8z"/>
				<path class="st22" d="M9.9,5.8c0.2,0.9-0.7,1-1.2,0.4C8.3,5.5,8.1,4.8,8.1,4.5c0-0.5,0.4-0.8,1.1-0.2C9.6,4.6,9.8,5.1,9.9,5.8z"
					/>
				<path class="st23" d="M9.8,5.7C10,6.6,9.2,6.6,8.7,6C8.3,5.5,8.2,4.8,8.1,4.5c0-0.4,0.3-0.8,1-0.2C9.5,4.7,9.7,5,9.8,5.7z"/>
			</g>
			<g class="st1">
				<path class="st2" d="M7.8,16.4c-1.4,0.1-2.1-1.2-1.4-2.7c0.3-0.8,1.2-1.6,2.4-1.9c1.3-0.3,2.4,0.5,2.1,1.9
					C10.4,15.1,9.1,16.3,7.8,16.4z"/>
				<path class="st3" d="M7.8,16.3c-1.4,0.1-2-1.1-1.4-2.6c0.3-0.8,1.1-1.5,2.3-1.8c1.3-0.3,2.4,0.5,2,1.8
					C10.4,15,9.1,16.2,7.8,16.3z"/>
				<path class="st4" d="M7.8,16.2c-1.4,0.1-2-1.1-1.4-2.5c0.4-0.8,1.1-1.5,2.3-1.8s2.3,0.4,1.9,1.8C10.3,15,9.1,16.1,7.8,16.2z"/>
				<path class="st5" d="M7.8,16.2c-1.4,0.1-2-1.1-1.3-2.5c0.4-0.8,1.1-1.5,2.2-1.8c1.2-0.3,2.2,0.4,1.9,1.8
					C10.2,14.9,9.1,16,7.8,16.2z"/>
				<path class="st6" d="M7.8,16.1c-1.3,0.1-1.9-1-1.3-2.4c0.4-0.8,1.1-1.4,2.2-1.7s2.1,0.4,1.8,1.7C10.2,14.9,9,16,7.8,16.1z"/>
				<path class="st7" d="M7.8,16c-1.3,0.2-1.9-1-1.2-2.3C7,12.9,7.7,12.3,8.7,12c1.1-0.3,2,0.4,1.7,1.7C10.1,14.8,9,15.9,7.8,16z"/>
				<path class="st8" d="M7.9,15.9c-1.3,0.2-1.8-0.9-1.2-2.2c0.4-0.8,1.1-1.4,2.1-1.6c1.1-0.3,2,0.4,1.6,1.6
					C10,14.8,9,15.8,7.9,15.9z"/>
				<path class="st9" d="M7.9,15.9c-1.2,0.2-1.8-0.9-1.2-2.1c0.4-0.7,1.1-1.3,2-1.6c1-0.3,1.9,0.4,1.5,1.6C10,14.8,9,15.7,7.9,15.9z
					"/>
				<path class="st10" d="M7.9,15.8c-1.2,0.2-1.7-0.9-1.1-2c0.4-0.7,1.1-1.3,2-1.6c1-0.3,1.8,0.3,1.5,1.5C9.9,14.7,9,15.6,7.9,15.8z
					"/>
				<path class="st11" d="M7.9,15.7c-1.2,0.2-1.7-0.8-1.1-2c0.4-0.7,1.1-1.3,1.9-1.5c0.9-0.3,1.7,0.3,1.4,1.5
					C9.8,14.7,9,15.5,7.9,15.7z"/>
				<path class="st12" d="M7.9,15.6c-1.1,0.2-1.6-0.8-1.1-1.9c0.4-0.7,1.1-1.3,1.9-1.5c0.9-0.3,1.7,0.3,1.3,1.4
					C9.8,14.6,8.9,15.4,7.9,15.6z"/>
				<path class="st13" d="M8,15.5c-1.1,0.2-1.6-0.7-1-1.8c0.4-0.7,1.1-1.2,1.8-1.4c0.8-0.3,1.6,0.3,1.2,1.4
					C9.7,14.6,8.9,15.3,8,15.5z"/>
				<path class="st14" d="M8,15.5c-1.1,0.3-1.5-0.7-1-1.7c0.4-0.7,1.1-1.2,1.8-1.4c0.8-0.2,1.5,0.3,1.2,1.3
					C9.7,14.6,8.9,15.2,8,15.5z"/>
				<path class="st15" d="M8,15.4c-1,0.3-1.5-0.7-0.9-1.6c0.4-0.7,1.1-1.2,1.7-1.4c0.8-0.2,1.4,0.2,1.1,1.3
					C9.6,14.5,8.9,15.2,8,15.4z"/>
				<path class="st16" d="M8,15.3c-1,0.3-1.4-0.6-0.9-1.5c0.4-0.7,1.1-1.1,1.7-1.3c0.7-0.2,1.4,0.2,1,1.2C9.5,14.5,8.9,15.1,8,15.3z
					"/>
				<path class="st17" d="M8,15.2c-1,0.3-1.4-0.6-0.9-1.4c0.4-0.7,1.1-1.1,1.6-1.3c0.7-0.2,1.3,0.2,0.9,1.2C9.5,14.4,8.8,15,8,15.2z
					"/>
				<path class="st18" d="M8,15.2c-0.9,0.3-1.3-0.5-0.8-1.4c0.4-0.7,1.1-1.1,1.6-1.2c0.6-0.2,1.2,0.2,0.8,1.2
					C9.4,14.4,8.8,14.9,8,15.2z"/>
				<path class="st19" d="M8.1,15.1c-0.9,0.3-1.3-0.5-0.8-1.3c0.4-0.6,1.1-1,1.5-1.2c0.6-0.2,1.1,0.2,0.8,1.1
					C9.3,14.3,8.8,14.8,8.1,15.1z"/>
				<path class="st20" d="M8.1,15c-0.9,0.4-1.3-0.5-0.8-1.2c0.4-0.6,1.1-1,1.5-1.2c0.5-0.2,1,0.1,0.7,1.1C9.3,14.3,8.8,14.7,8.1,15z
					"/>
				<path class="st21" d="M8.1,14.9c-0.8,0.4-1.2-0.4-0.7-1.1c0.4-0.6,1.1-1,1.4-1.1c0.5-0.2,1,0.1,0.6,1
					C9.2,14.3,8.8,14.6,8.1,14.9z"/>
				<path class="st22" d="M8.1,14.9c-0.8,0.4-1.1-0.4-0.7-1c0.4-0.6,1.1-1,1.4-1.1c0.5-0.2,0.9,0.1,0.5,1
					C9.1,14.2,8.8,14.5,8.1,14.9z"/>
				<path class="st23" d="M8.1,14.8c-0.8,0.4-1.1-0.3-0.6-0.9c0.4-0.6,1-0.9,1.3-1c0.4-0.2,0.8,0.1,0.4,0.9
					C9.1,14.2,8.7,14.5,8.1,14.8z"/>
			</g>
			<g class="st1">
				<path class="st2" d="M4.6,11.2c-1.3-0.7-1.1-2.1,0.2-3.1c0.8-0.5,1.8-0.7,3-0.3c1.3,0.4,1.7,1.5,0.7,2.5S5.8,11.9,4.6,11.2z"/>
				<path class="st3" d="M4.7,11.1c-1.3-0.7-1.1-2,0.2-3c0.7-0.4,1.8-0.6,2.9-0.3c1.3,0.4,1.7,1.5,0.6,2.5
					C7.5,11.3,5.8,11.8,4.7,11.1z"/>
				<path class="st4" d="M4.7,11.1c-1.2-0.6-1.1-2,0.2-2.9c0.7-0.5,1.8-0.7,2.9-0.3C9,8.3,9.4,9.3,8.4,10.3
					C7.4,11.2,5.9,11.7,4.7,11.1z"/>
				<path class="st5" d="M4.8,11C3.6,10.4,3.7,9.1,5,8.2c0.7-0.4,1.7-0.6,2.8-0.3C9,8.3,9.3,9.3,8.4,10.2C7.4,11.1,5.9,11.6,4.8,11z
					"/>
				<path class="st6" d="M4.8,11c-1.2-0.6-1-1.9,0.2-2.7C5.7,7.8,6.7,7.7,7.8,8s1.5,1.3,0.5,2.3C7.4,11.1,5.9,11.5,4.8,11z"/>
				<path class="st7" d="M4.9,10.9c-1.2-0.5-1.1-1.8,0.2-2.6C5.8,7.9,6.8,7.7,7.7,8c1.1,0.3,1.4,1.3,0.5,2.2C7.4,11,6,11.4,4.9,10.9
					z"/>
				<path class="st8" d="M5,10.9c-1.2-0.6-1.1-1.8,0.1-2.5c0.7-0.5,1.7-0.6,2.6-0.3c1.1,0.3,1.4,1.2,0.5,2.1C7.3,10.9,6,11.3,5,10.9
					z"/>
				<path class="st9" d="M5,10.8c-1.1-0.5-1-1.7,0.1-2.4c0.7-0.5,1.7-0.6,2.6-0.3c1,0.3,1.3,1.2,0.4,2C7.3,10.9,6,11.3,5,10.8z"/>
				<path class="st10" d="M5.1,10.8c-1.1-0.5-1-1.6,0.1-2.3C5.9,8,6.8,7.9,7.7,8.1c1,0.3,1.3,1.1,0.4,2C7.3,10.8,6.1,11.2,5.1,10.8z
					"/>
				<path class="st11" d="M5.1,10.7c-1.1-0.4-1-1.6,0.1-2.2C5.9,8,6.8,8,7.7,8.2C8.6,8.5,8.9,9.3,8,10.1C7.2,10.8,6.1,11.1,5.1,10.7
					z"/>
				<path class="st12" d="M5.2,10.6c-1.1-0.4-1-1.5,0.1-2.1C6,8.1,6.9,8,7.7,8.2C8.6,8.4,8.9,9.2,8,10C7.2,10.7,6.1,11,5.2,10.6z"/>
				<path class="st13" d="M5.2,10.6c-1.1-0.4-0.9-1.5,0.1-2.1C6,8.1,6.9,8,7.6,8.2c0.8,0.2,1.1,1,0.3,1.7
					C7.2,10.6,6.2,10.9,5.2,10.6z"/>
				<path class="st14" d="M5.3,10.5c-1-0.3-0.9-1.4,0.1-2C6.1,8.1,7,8.1,7.7,8.3c0.7,0.2,1,1,0.1,1.7C7.1,10.6,6.2,10.8,5.3,10.5z"
					/>
				<path class="st15" d="M5.3,10.5c-1-0.3-0.9-1.4,0.1-1.9c0.7-0.4,1.5-0.4,2.2-0.2c0.8,0.2,1,0.9,0.2,1.6
					C7.1,10.5,6.2,10.7,5.3,10.5z"/>
				<path class="st16" d="M5.4,10.4c-1-0.3-0.9-1.3,0-1.8C6.1,8.3,7,8.3,7.6,8.4c0.7,0.2,1,0.8,0.2,1.5C7.1,10.4,6.3,10.7,5.4,10.4z
					"/>
				<path class="st17" d="M5.5,10.4c-1-0.2-0.9-1.2,0-1.7C6.2,8.3,7,8.3,7.6,8.5C8.3,8.7,8.5,9.3,7.7,10C7.1,10.4,6.3,10.6,5.5,10.4
					z"/>
				<path class="st18" d="M5.5,10.3c-1-0.2-0.8-1.2,0-1.6c0.7-0.3,1.5-0.3,2-0.2c0.6,0.2,0.9,0.7,0.1,1.4C7,10.3,6.3,10.5,5.5,10.3z
					"/>
				<path class="st19" d="M5.6,10.3c-0.9-0.2-0.8-1.1,0-1.5C6.3,8.4,7,8.4,7.5,8.5c0.6,0.1,0.8,0.7,0,1.3C7,10.3,6.4,10.4,5.6,10.3z
					"/>
				<path class="st20" d="M5.6,10.2c-0.9-0.1-0.8-1.1,0-1.4C6.3,8.5,7,8.5,7.5,8.6c0.6,0.1,0.8,0.7,0,1.2C7,10.2,6.4,10.3,5.6,10.2z
					"/>
				<path class="st21" d="M5.7,10.1c-0.9-0.1-0.8-1,0-1.3c0.7-0.3,1.4-0.3,1.8-0.2c0.5,0.1,0.7,0.6,0,1.2C7,10.1,6.4,10.2,5.7,10.1z
					"/>
				<path class="st22" d="M5.7,10.1c-0.9-0.1-0.8-0.9,0-1.2c0.7-0.3,1.4-0.2,1.8-0.2C8,8.8,8.2,9.3,7.4,9.8
					C6.9,10.1,6.4,10.2,5.7,10.1z"/>
				<path class="st23" d="M5.8,10c-0.9,0-0.7-0.9-0.1-1.1c0.7-0.3,1.4-0.2,1.7-0.2c0.4,0.1,0.6,0.5-0.1,1C6.9,10,6.5,10.1,5.8,10z"
					/>
			</g>
			<g class="st1">
				<path class="st2" d="M15.1,13.9c-0.2-1.4,0.9-2.2,2.6-1.7c0.8,0.3,1.7,1,2.1,2.2c0.5,1.3-0.2,2.3-1.6,2.1
					C16.7,16.3,15.3,15.3,15.1,13.9z"/>
				<path class="st3" d="M15.1,14c-0.2-1.4,0.9-2.2,2.5-1.7c0.8,0.3,1.6,1,2.1,2.1c0.5,1.2-0.1,2.2-1.6,2
					C16.8,16.2,15.3,15.3,15.1,14z"/>
				<path class="st4" d="M15.2,14c-0.3-1.4,0.9-2.1,2.4-1.6c0.8,0.3,1.6,1,2,2.1c0.4,1.2-0.1,2.1-1.5,1.9
					C16.8,16.2,15.4,15.2,15.2,14z"/>
				<path class="st5" d="M15.3,14c-0.3-1.3,0.9-2.1,2.3-1.6c0.8,0.3,1.6,1,2,2c0.4,1.2-0.1,2.1-1.5,1.9C16.8,16.1,15.5,15.2,15.3,14
					z"/>
				<path class="st6" d="M15.3,14c-0.3-1.3,0.8-2,2.2-1.6c0.8,0.3,1.5,1,1.9,2c0.4,1.1-0.1,2-1.4,1.8C16.8,16,15.6,15.1,15.3,14z"/>
				<path class="st7" d="M15.4,14c-0.3-1.3,0.8-2,2.2-1.5c0.8,0.3,1.5,0.9,1.9,1.9c0.4,1.1-0.1,1.9-1.4,1.7
					C16.9,15.9,15.6,15.1,15.4,14z"/>
				<path class="st8" d="M15.5,14c-0.3-1.2,0.8-2,2.1-1.5c0.8,0.3,1.5,0.9,1.8,1.9c0.4,1-0.1,1.8-1.3,1.7
					C16.9,15.9,15.7,15.1,15.5,14z"/>
				<path class="st9" d="M15.5,14c-0.3-1.2,0.7-1.9,2-1.5c0.8,0.3,1.4,0.9,1.8,1.9s0,1.8-1.3,1.6C16.9,15.8,15.8,15,15.5,14z"/>
				<path class="st10" d="M15.6,14c-0.3-1.2,0.7-1.9,1.9-1.4c0.8,0.3,1.4,0.9,1.7,1.8c0.3,1,0,1.7-1.3,1.5
					C16.9,15.7,15.9,15,15.6,14z"/>
				<path class="st11" d="M15.6,14c-0.3-1.1,0.7-1.8,1.9-1.4c0.8,0.3,1.4,0.9,1.7,1.8c0.3,0.9,0,1.6-1.2,1.4
					C17,15.7,15.9,15,15.6,14z"/>
				<path class="st12" d="M15.7,14c-0.3-1.1,0.6-1.8,1.8-1.3c0.8,0.3,1.3,0.9,1.6,1.7c0.3,0.9,0,1.5-1.2,1.4
					C17,15.6,16,14.9,15.7,14z"/>
				<path class="st13" d="M15.8,14c-0.4-1.1,0.6-1.8,1.7-1.3c0.7,0.3,1.3,0.9,1.6,1.7c0.3,0.8,0,1.5-1.1,1.3
					C17,15.5,16.1,14.9,15.8,14z"/>
				<path class="st14" d="M15.8,14c-0.4-1,0.6-1.7,1.6-1.3c0.7,0.3,1.3,0.9,1.5,1.6c0.3,0.8,0,1.4-1.1,1.2
					C17.1,15.4,16.2,14.9,15.8,14z"/>
				<path class="st15" d="M15.9,14c-0.4-1,0.6-1.7,1.6-1.2c0.7,0.3,1.2,0.9,1.5,1.6c0.2,0.8,0.1,1.3-1,1.1
					C17.1,15.4,16.2,14.8,15.9,14z"/>
				<path class="st16" d="M16,14c-0.4-1,0.5-1.6,1.5-1.2c0.7,0.3,1.2,0.9,1.4,1.6c0.2,0.7,0.1,1.2-1,1.1C17.1,15.3,16.3,14.8,16,14z
					"/>
				<path class="st17" d="M16,14c-0.4-0.9,0.5-1.6,1.4-1.2c0.7,0.3,1.2,0.9,1.4,1.5c0.2,0.7,0.1,1.2-1,1C17.1,15.2,16.4,14.8,16,14z
					"/>
				<path class="st18" d="M16.1,14c-0.4-0.9,0.5-1.6,1.3-1.1c0.7,0.3,1.1,0.9,1.3,1.5c0.2,0.6,0.1,1.1-0.9,0.9
					C17.2,15.2,16.5,14.7,16.1,14z"/>
				<path class="st19" d="M16.2,14c-0.4-0.9,0.4-1.5,1.3-1.1c0.7,0.3,1.1,0.8,1.3,1.4c0.2,0.6,0.1,1-0.9,0.9
					C17.2,15.1,16.5,14.7,16.2,14z"/>
				<path class="st20" d="M16.2,14c-0.5-0.8,0.4-1.5,1.2-1.1c0.7,0.3,1.1,0.8,1.2,1.4c0.1,0.6,0.1,0.9-0.8,0.8
					C17.2,15,16.6,14.7,16.2,14z"/>
				<path class="st21" d="M16.3,14c-0.5-0.8,0.4-1.4,1.1-1s1,0.8,1.2,1.4c0.1,0.5,0.2,0.9-0.8,0.7C17.2,14.9,16.7,14.6,16.3,14z"/>
				<path class="st22" d="M16.4,14c-0.5-0.8,0.3-1.4,1-1s1,0.8,1.1,1.3s0.2,0.8-0.7,0.6C17.3,14.9,16.7,14.6,16.4,14z"/>
				<path class="st23" d="M16.4,14c-0.5-0.7,0.3-1.3,0.9-1c0.6,0.4,1,0.8,1.1,1.3c0.1,0.4,0.2,0.7-0.7,0.6
					C17.3,14.8,16.8,14.6,16.4,14z"/>
			</g>
			<g class="st1">
				<path class="st2" d="M14.3,13.7c-1-1-2.3-0.5-2.9,1.1c-0.3,0.8-0.2,1.9,0.5,3s2,1.2,2.6-0.1C15.2,16.4,15.2,14.6,14.3,13.7z"/>
				<path class="st3" d="M14.2,13.7c-1-1-2.3-0.5-2.8,1c-0.3,0.8-0.2,1.9,0.5,2.9c0.7,1.1,1.9,1.2,2.5-0.1
					C15.1,16.4,15.2,14.7,14.2,13.7z"/>
				<path class="st4" d="M14.2,13.8c-1-1-2.2-0.5-2.7,1c-0.3,0.8-0.1,1.9,0.5,2.8c0.7,1.1,1.8,1.1,2.5-0.1
					C15.1,16.4,15.1,14.7,14.2,13.8z"/>
				<path class="st5" d="M14.2,13.8c-0.9-1-2.2-0.5-2.7,1c-0.3,0.8-0.1,1.8,0.5,2.8c0.7,1,1.7,1.1,2.4-0.1
					C15,16.3,15,14.8,14.2,13.8z"/>
				<path class="st6" d="M14.1,13.9c-0.9-1-2.1-0.5-2.6,0.9c-0.2,0.8-0.1,1.8,0.5,2.7c0.7,1,1.7,1.1,2.3-0.1
					C14.9,16.3,15,14.8,14.1,13.9z"/>
				<path class="st7" d="M14.1,13.9c-0.9-1-2.1-0.5-2.5,0.9c-0.2,0.8-0.1,1.8,0.5,2.6c0.6,0.9,1.6,1.1,2.2-0.1
					C14.8,16.3,14.9,14.8,14.1,13.9z"/>
				<path class="st8" d="M14.1,14c-0.8-1-2-0.5-2.4,0.8c-0.2,0.8-0.1,1.7,0.5,2.6s1.5,1,2.1-0.1C14.8,16.3,14.8,14.9,14.1,14z"/>
				<path class="st9" d="M14,14.1c-0.8-0.9-2-0.5-2.4,0.8c-0.2,0.8-0.1,1.7,0.5,2.5c0.6,0.9,1.5,1,2-0.1
					C14.7,16.3,14.7,14.9,14,14.1z"/>
				<path class="st10" d="M14,14.1c-0.8-0.9-1.9-0.5-2.3,0.7c-0.2,0.8-0.1,1.7,0.5,2.5s1.4,1,2-0.1C14.6,16.2,14.7,15,14,14.1z"/>
				<path class="st11" d="M14,14.2c-0.7-0.9-1.9-0.5-2.2,0.7c-0.2,0.8-0.1,1.6,0.5,2.4s1.3,0.9,1.9-0.1C14.6,16.2,14.6,15,14,14.2z"
					/>
				<path class="st12" d="M13.9,14.2c-0.7-0.9-1.8-0.5-2.1,0.7c-0.2,0.8,0,1.6,0.5,2.3c0.5,0.7,1.2,0.9,1.8-0.1
					C14.5,16.2,14.5,15,13.9,14.2z"/>
				<path class="st13" d="M13.9,14.3c-0.7-0.9-1.8-0.5-2.1,0.6c-0.2,0.8,0,1.6,0.5,2.3c0.5,0.7,1.2,0.9,1.7-0.2
					C14.4,16.2,14.5,15.1,13.9,14.3z"/>
				<path class="st14" d="M13.8,14.3c-0.6-0.9-1.7-0.5-2,0.6c-0.2,0.8,0,1.6,0.5,2.2c0.5,0.7,1.1,0.8,1.6-0.2
					C14.3,16.2,14.4,15.1,13.8,14.3z"/>
				<path class="st15" d="M13.8,14.4c-0.6-0.9-1.7-0.5-1.9,0.5c-0.2,0.8,0,1.5,0.4,2.1c0.5,0.6,1,0.8,1.5-0.2
					C14.3,16.1,14.3,15.2,13.8,14.4z"/>
				<path class="st16" d="M13.8,14.4c-0.5-0.9-1.6-0.5-1.8,0.5c-0.2,0.8,0,1.5,0.4,2.1c0.5,0.6,1,0.8,1.5-0.2
					C14.2,16.1,14.2,15.2,13.8,14.4z"/>
				<path class="st17" d="M13.7,14.5c-0.5-0.9-1.6-0.5-1.8,0.5c-0.1,0.8,0,1.5,0.4,2c0.4,0.6,0.9,0.8,1.4-0.2
					C14.1,16.1,14.2,15.2,13.7,14.5z"/>
				<path class="st18" d="M13.7,14.5c-0.5-0.9-1.5-0.5-1.7,0.4c-0.1,0.8,0,1.4,0.4,1.9s0.8,0.7,1.3-0.2C14,16.1,14.1,15.3,13.7,14.5
					z"/>
				<path class="st19" d="M13.7,14.6c-0.4-0.9-1.5-0.5-1.6,0.4c-0.1,0.8,0,1.4,0.4,1.9s0.7,0.7,1.2-0.2C14,16.1,14,15.3,13.7,14.6z"
					/>
				<path class="st20" d="M13.6,14.7c-0.4-0.8-1.4-0.5-1.6,0.3c-0.1,0.8,0.1,1.4,0.4,1.8c0.4,0.4,0.7,0.7,1.1-0.2
					C13.9,16,14,15.3,13.6,14.7z"/>
				<path class="st21" d="M13.6,14.7c-0.4-0.8-1.4-0.5-1.5,0.3c-0.1,0.7,0.1,1.3,0.4,1.7c0.3,0.4,0.6,0.6,1-0.2
					C13.8,16,13.9,15.4,13.6,14.7z"/>
				<path class="st22" d="M13.6,14.8c-0.3-0.8-1.3-0.5-1.4,0.3c-0.1,0.7,0.1,1.3,0.4,1.7c0.3,0.4,0.5,0.6,1-0.2
					C13.8,16,13.8,15.4,13.6,14.8z"/>
				<path class="st23" d="M13.5,14.8c-0.3-0.8-1.3-0.5-1.3,0.2c-0.1,0.7,0.1,1.3,0.4,1.6c0.3,0.3,0.5,0.6,0.9-0.2
					C13.7,16,13.8,15.5,13.5,14.8z"/>
			</g>
		</g>
		<g>
			<path class="st24" d="M13.6,2.4c0,1-1,1.9-1,1.9s-1-0.8-1-1.9c0-1,1-1.9,1-1.9S13.6,1.4,13.6,2.4z"/>
			<path class="st24" d="M13.6,15.5c0,1-1,1.9-1,1.9s-1-0.8-1-1.9s1-1.9,1-1.9S13.6,14.5,13.6,15.5z"/>
			<path class="st24" d="M6.1,8C7.1,8,8,9,8,9s-0.8,1-1.9,1S4.2,9,4.2,9S5,8,6.1,8z"/>
			<path class="st24" d="M19.2,8c1,0,1.9,1,1.9,1s-0.8,1-1.9,1c-1,0-1.9-1-1.9-1S18.1,8,19.2,8z"/>
			<path class="st24" d="M7.3,12.9c0.7-0.7,2-0.6,2-0.6s0.1,1.3-0.6,2s-2,0.6-2,0.6S6.6,13.7,7.3,12.9z"/>
			<path class="st24" d="M16.6,3.7c0.7-0.7,2-0.6,2-0.6s0.1,1.3-0.6,2s-2,0.6-2,0.6S15.8,4.4,16.6,3.7z"/>
			<path class="st24" d="M16.6,14.3c-0.7-0.7-0.6-2-0.6-2s1.3-0.1,2,0.6c0.7,0.7,0.6,2,0.6,2S17.3,15,16.6,14.3z"/>
			<path class="st24" d="M7.3,5C6.6,4.3,6.7,3,6.7,3s1.3-0.1,2,0.6s0.6,2,0.6,2S8,5.7,7.3,5z"/>
		</g>
		<g>
			<path class="st24" d="M18.4,12.2c-0.8-0.3-1.1-1.3-1.1-1.3s0.9-0.5,1.7-0.1c0.8,0.3,1.1,1.3,1.1,1.3S19.1,12.5,18.4,12.2z"/>
			<path class="st24" d="M6.3,7.2C5.5,6.8,5.2,5.9,5.2,5.9s0.9-0.5,1.7-0.2S8,7,8,7S7,7.5,6.3,7.2z"/>
			<path class="st24" d="M10.8,2.6c0.3,0.8-0.1,1.7-0.1,1.7S9.7,4,9.4,3.2s0.1-1.7,0.1-1.7S10.5,1.8,10.8,2.6z"/>
			<path class="st24" d="M15.8,14.7c0.3,0.8-0.1,1.7-0.1,1.7s-1-0.3-1.3-1.1c-0.3-0.8,0.1-1.7,0.1-1.7S15.5,14,15.8,14.7z"/>
			<path class="st24" d="M6.3,10.8C7.1,10.5,8,10.9,8,10.9s-0.3,1-1.1,1.3s-1.7-0.1-1.7-0.1S5.5,11.1,6.3,10.8z"/>
			<path class="st24" d="M18.4,5.7c0.8-0.3,1.7,0.1,1.7,0.1s-0.3,1-1.1,1.3C18.2,7.4,17.3,7,17.3,7S17.6,6.1,18.4,5.7z"/>
			<path class="st24" d="M9.4,14.7c0.3-0.8,1.3-1.1,1.3-1.1s0.5,0.9,0.1,1.7c-0.3,0.8-1.3,1.1-1.3,1.1S9.1,15.5,9.4,14.7z"/>
			<path class="st24" d="M14.4,2.6c0.3-0.8,1.3-1.1,1.3-1.1s0.5,0.9,0.1,1.7c-0.3,0.8-1.3,1.1-1.3,1.1S14.1,3.4,14.4,2.6z"/>
		</g>
		<g>
			
				<linearGradient id="SVGID_1_" gradientUnits="userSpaceOnUse" x1="11.7367" y1="21.9538" x2="13.6168" y2="20.0737" gradientTransform="matrix(1 0 0 -1 0 23.5446)">
				<stop  offset="0" style="stop-color:#FFD45C"/>
				<stop  offset="1" style="stop-color:#FF9D00"/>
			</linearGradient>
			<path class="st25" d="M13.7,2.5c0,1-1,1.9-1,1.9s-1-0.8-1-1.9c0-1,1-1.9,1-1.9S13.7,1.5,13.7,2.5z"/>
			
				<linearGradient id="SVGID_00000141455055922184169840000018227730833412649136_" gradientUnits="userSpaceOnUse" x1="11.7394" y1="8.851" x2="13.6199" y2="6.9705" gradientTransform="matrix(1 0 0 -1 0 23.5446)">
				<stop  offset="0" style="stop-color:#FFD45C"/>
				<stop  offset="1" style="stop-color:#FF9D00"/>
			</linearGradient>
			<path style="fill:url(#SVGID_00000141455055922184169840000018227730833412649136_);" d="M13.7,15.6c0,1-1,1.9-1,1.9
				s-1-0.8-1-1.9c0-1,1-1.9,1-1.9S13.7,14.6,13.7,15.6z"/>
			
				<linearGradient id="SVGID_00000157996087677128534100000008758863099097039544_" gradientUnits="userSpaceOnUse" x1="2232.8357" y1="-126.8362" x2="2230.9553" y2="-128.7165" gradientTransform="matrix(0 -1 -1 0 -121.6469 2240.9734)">
				<stop  offset="0" style="stop-color:#FFD45C"/>
				<stop  offset="1" style="stop-color:#FF9D00"/>
			</linearGradient>
			<path style="fill:url(#SVGID_00000157996087677128534100000008758863099097039544_);" d="M6.2,8.1c1,0,1.9,1,1.9,1s-0.8,1-1.9,1
				c-1,0-1.9-1-1.9-1S5.1,8.1,6.2,8.1z"/>
			
				<linearGradient id="SVGID_00000130629735461994782570000010228735417753522072_" gradientUnits="userSpaceOnUse" x1="2232.8328" y1="-139.9391" x2="2230.9524" y2="-141.8194" gradientTransform="matrix(0 -1 -1 0 -121.6469 2240.9734)">
				<stop  offset="0" style="stop-color:#FFD45C"/>
				<stop  offset="1" style="stop-color:#FF9D00"/>
			</linearGradient>
			<path style="fill:url(#SVGID_00000130629735461994782570000010228735417753522072_);" d="M19.3,8.1c1,0,1.9,1,1.9,1s-0.8,1-1.9,1
				c-1,0-1.9-1-1.9-1S18.2,8.1,19.3,8.1z"/>
			
				<linearGradient id="SVGID_00000057123925123080815250000017264612593576507014_" gradientUnits="userSpaceOnUse" x1="2618.1726" y1="-1268.3005" x2="2616.2542" y2="-1268.3005" gradientTransform="matrix(-0.7071 -0.7071 -0.7071 0.7071 961.8719 2761.1509)">
				<stop  offset="0" style="stop-color:#FFD45C"/>
				<stop  offset="1" style="stop-color:#FF9D00"/>
			</linearGradient>
			<path style="fill:url(#SVGID_00000057123925123080815250000017264612593576507014_);" d="M7.4,13c0.7-0.7,2-0.6,2-0.6
				s0.1,1.3-0.6,2c-0.7,0.7-2,0.6-2,0.6S6.7,13.7,7.4,13z"/>
			
				<linearGradient id="SVGID_00000085935635882996343650000004103621174355692964_" gradientUnits="userSpaceOnUse" x1="2618.1726" y1="-1281.4529" x2="2616.2544" y2="-1281.4529" gradientTransform="matrix(-0.7071 -0.7071 -0.7071 0.7071 961.8719 2761.1509)">
				<stop  offset="0" style="stop-color:#FFD45C"/>
				<stop  offset="1" style="stop-color:#FF9D00"/>
			</linearGradient>
			<path style="fill:url(#SVGID_00000085935635882996343650000004103621174355692964_);" d="M16.7,3.7c0.7-0.7,2-0.6,2-0.6
				s0.1,1.3-0.6,2s-2,0.6-2,0.6S15.9,4.5,16.7,3.7z"/>
			
				<linearGradient id="SVGID_00000069371455560841829690000013815102269839298192_" gradientUnits="userSpaceOnUse" x1="942.7308" y1="-2734.1848" x2="942.7308" y2="-2730.4319" gradientTransform="matrix(-0.7071 0.7071 0.7071 0.7071 2615.9597 1279.0983)">
				<stop  offset="0" style="stop-color:#FFD45C"/>
				<stop  offset="1" style="stop-color:#FF9D00"/>
			</linearGradient>
			<path style="fill:url(#SVGID_00000069371455560841829690000013815102269839298192_);" d="M16.7,14.4c-0.7-0.7-0.6-2-0.6-2
				s1.3-0.1,2,0.6c0.7,0.7,0.6,2,0.6,2S17.4,15.1,16.7,14.4z"/>
			
				<linearGradient id="SVGID_00000149373015759271133160000009604758754441284509_" gradientUnits="userSpaceOnUse" x1="942.7308" y1="-2747.2903" x2="942.7308" y2="-2743.5378" gradientTransform="matrix(-0.7071 0.7071 0.7071 0.7071 2615.9597 1279.0983)">
				<stop  offset="0" style="stop-color:#FFD45C"/>
				<stop  offset="1" style="stop-color:#FF9D00"/>
			</linearGradient>
			<path style="fill:url(#SVGID_00000149373015759271133160000009604758754441284509_);" d="M7.4,5.1c-0.7-0.7-0.6-2-0.6-2
				s1.3-0.1,2,0.6s0.6,2,0.6,2S8.1,5.8,7.4,5.1z"/>
		</g>
		<g>
			
				<linearGradient id="SVGID_00000119077396839004256310000016748125206893154227_" gradientUnits="userSpaceOnUse" x1="17.7563" y1="12.9399" x2="19.7173" y2="10.9788" gradientTransform="matrix(1 0 0 -1 0 23.5446)">
				<stop  offset="0" style="stop-color:#FFBB31"/>
				<stop  offset="1" style="stop-color:#FF9D00"/>
			</linearGradient>
			<path style="fill:url(#SVGID_00000119077396839004256310000016748125206893154227_);" d="M18.5,12.3C17.7,12,17.4,11,17.4,11
				s0.9-0.5,1.7-0.1c0.8,0.3,1.1,1.3,1.1,1.3S19.2,12.6,18.5,12.3z"/>
			
				<linearGradient id="SVGID_00000027603513762698337820000005498459635186740102_" gradientUnits="userSpaceOnUse" x1="5.6552" y1="17.9623" x2="7.616" y2="16.0015" gradientTransform="matrix(1 0 0 -1 0 23.5446)">
				<stop  offset="0" style="stop-color:#FFBB31"/>
				<stop  offset="1" style="stop-color:#FF9D00"/>
			</linearGradient>
			<path style="fill:url(#SVGID_00000027603513762698337820000005498459635186740102_);" d="M6.4,7.3C5.6,6.9,5.3,6,5.3,6
				S6.2,5.5,7,5.9c0.8,0.3,1.1,1.3,1.1,1.3S7.1,7.6,6.4,7.3z"/>
			
				<linearGradient id="SVGID_00000060712467849745995260000013761499905995913912_" gradientUnits="userSpaceOnUse" x1="9.1945" y1="21.5016" x2="11.1557" y2="19.5404" gradientTransform="matrix(1 0 0 -1 0 23.5446)">
				<stop  offset="0" style="stop-color:#FFBB31"/>
				<stop  offset="1" style="stop-color:#FF9D00"/>
			</linearGradient>
			<path style="fill:url(#SVGID_00000060712467849745995260000013761499905995913912_);" d="M10.9,2.7c0.3,0.8-0.1,1.7-0.1,1.7
				s-1-0.3-1.3-1.1s0.1-1.7,0.1-1.7S10.6,1.9,10.9,2.7z"/>
			
				<linearGradient id="SVGID_00000013897505422347325820000013602983636166962612_" gradientUnits="userSpaceOnUse" x1="14.2065" y1="9.3896" x2="16.1675" y2="7.4286" gradientTransform="matrix(1 0 0 -1 0 23.5446)">
				<stop  offset="0" style="stop-color:#FFBB31"/>
				<stop  offset="1" style="stop-color:#FF9D00"/>
			</linearGradient>
			<path style="fill:url(#SVGID_00000013897505422347325820000013602983636166962612_);" d="M15.9,14.8c0.3,0.8-0.1,1.7-0.1,1.7
				s-1-0.3-1.3-1.1c-0.3-0.8,0.1-1.7,0.1-1.7S15.6,14,15.9,14.8z"/>
			
				<linearGradient id="SVGID_00000016784328867536598090000015462413182103006396_" gradientUnits="userSpaceOnUse" x1="6.1017" y1="12.5944" x2="7.2639" y2="11.4322" gradientTransform="matrix(1 0 0 -1 0 23.5446)">
				<stop  offset="0" style="stop-color:#FFBB31"/>
				<stop  offset="1" style="stop-color:#FF9D00"/>
			</linearGradient>
			<path style="fill:url(#SVGID_00000016784328867536598090000015462413182103006396_);" d="M6.4,10.8c0.8-0.3,1.7,0.1,1.7,0.1
				s-0.3,1-1.1,1.3s-1.7-0.1-1.7-0.1S5.6,11.2,6.4,10.8z"/>
			
				<linearGradient id="SVGID_00000137812710777387060420000017584473406990757769_" gradientUnits="userSpaceOnUse" x1="18.198" y1="17.5982" x2="19.3602" y2="16.4359" gradientTransform="matrix(1 0 0 -1 0 23.5446)">
				<stop  offset="0" style="stop-color:#FFBB31"/>
				<stop  offset="1" style="stop-color:#FF9D00"/>
			</linearGradient>
			<path style="fill:url(#SVGID_00000137812710777387060420000017584473406990757769_);" d="M18.5,5.8c0.8-0.3,1.7,0.1,1.7,0.1
				s-0.3,1-1.1,1.3c-0.8,0.3-1.7-0.1-1.7-0.1S17.7,6.2,18.5,5.8z"/>
			
				<linearGradient id="SVGID_00000009566117466481027640000002848642104370148028_" gradientUnits="userSpaceOnUse" x1="9.5983" y1="8.9979" x2="10.7602" y2="7.836" gradientTransform="matrix(1 0 0 -1 0 23.5446)">
				<stop  offset="0" style="stop-color:#FFBB31"/>
				<stop  offset="1" style="stop-color:#FF9D00"/>
			</linearGradient>
			<path style="fill:url(#SVGID_00000009566117466481027640000002848642104370148028_);" d="M9.5,14.8c0.3-0.8,1.3-1.1,1.3-1.1
				s0.5,0.9,0.1,1.7c-0.3,0.8-1.3,1.1-1.3,1.1S9.2,15.6,9.5,14.8z"/>
			
				<linearGradient id="SVGID_00000056401049524650665360000005689359312277277861_" gradientUnits="userSpaceOnUse" x1="14.6017" y1="21.0944" x2="15.764" y2="19.9321" gradientTransform="matrix(1 0 0 -1 0 23.5446)">
				<stop  offset="0" style="stop-color:#FFBB31"/>
				<stop  offset="1" style="stop-color:#FF9D00"/>
			</linearGradient>
			<path style="fill:url(#SVGID_00000056401049524650665360000005689359312277277861_);" d="M14.5,2.7c0.3-0.8,1.3-1.1,1.3-1.1
				s0.5,0.9,0.1,1.7c-0.3,0.8-1.3,1.1-1.3,1.1S14.2,3.5,14.5,2.7z"/>
		</g>
		<g class="st0">
			<path class="st41" d="M18.7,15.8C16,18,12.3,18.5,9,16.5c-4.4-2.7-3.4-6.4-1.4-6.5s3.6,0.6,4.9-0.8c1.5-1.5,1.5-3.3,1.9-5
				c0.4-2,3-2.6,5.7,0.3C23,7.6,22.1,12.9,18.7,15.8z"/>
			<path class="st42" d="M18.6,15.6c-2.6,2.2-6.2,2.7-9.4,0.7c-4.3-2.6-3.4-6.2-1.4-6.3c1.9-0.1,3.6,0.6,4.9-0.8
				c1.5-1.6,1.5-3.2,1.8-5c0.4-1.9,2.9-2.6,5.5,0.3C22.8,7.6,21.9,12.8,18.6,15.6z"/>
			<path class="st43" d="M18.5,15.4c-2.6,2.2-6,2.7-9.2,0.8c-4.2-2.5-3.4-6-1.5-6.1c1.8-0.1,3.6,0.7,5-0.8c1.5-1.6,1.4-3.2,1.8-5
				c0.4-1.9,2.7-2.5,5.3,0.3C22.6,7.7,21.7,12.7,18.5,15.4z"/>
			<path class="st44" d="M18.4,15.3c-2.5,2.1-5.8,2.6-8.9,0.9c-4.1-2.3-3.4-5.7-1.6-5.8s3.6,0.7,5-0.8c1.5-1.6,1.4-3.2,1.7-4.9
				c0.3-1.8,2.6-2.4,5.1,0.3C22.3,7.7,21.6,12.6,18.4,15.3z"/>
			<path class="st45" d="M18.3,15.1c-2.4,2.1-5.6,2.6-8.6,0.9c-4-2.2-3.4-5.5-1.7-5.6s3.5,0.8,5-0.9c1.5-1.6,1.4-3.2,1.7-4.9
				c0.3-1.8,2.5-2.3,4.9,0.3C22.1,7.8,21.4,12.5,18.3,15.1z"/>
			<path class="st46" d="M18.3,14.9c-2.3,2-5.5,2.5-8.4,1c-3.9-2.1-3.5-5.3-1.8-5.4c1.6-0.1,3.5,0.8,5-0.9c1.5-1.6,1.4-3.2,1.6-4.8
				c0.3-1.7,2.4-2.2,4.7,0.3C21.9,7.8,21.2,12.3,18.3,14.9z"/>
			<path class="st47" d="M18.2,14.8c-2.3,2-5.3,2.5-8.1,1.1c-3.8-1.9-3.5-5-1.8-5.2c1.5-0.1,3.5,0.9,5.1-0.9C14.9,8.2,14.8,6.6,15,5
				c0.2-1.7,2.3-2.2,4.5,0.3C21.6,7.9,21.1,12.2,18.2,14.8z"/>
			<path class="st48" d="M18.1,14.6c-2.2,1.9-5.1,2.5-7.8,1.1c-3.8-1.8-3.5-4.8-1.9-4.9c1.5-0.1,3.5,0.9,5.1-0.9
				C15,8.2,14.8,6.7,15,5.1c0.2-1.7,2.2-2.1,4.3,0.3C21.4,7.9,20.9,12.1,18.1,14.6z"/>
			<path class="st49" d="M18,14.4c-2.1,1.9-4.9,2.4-7.5,1.2c-3.7-1.7-3.5-4.5-2-4.7c1.4-0.2,3.4,1,5.1-1c1.4-1.7,1.3-3.2,1.5-4.7
				c0.2-1.6,2.1-2,4.1,0.4S20.7,12,18,14.4z"/>
			<path class="st50" d="M17.9,14.3c-2,1.8-4.7,2.4-7.3,1.3C7,14,7.1,11.3,8.5,11.1c1.3-0.2,3.4,1,5.1-1C15,8.4,14.9,7,15.1,5.4
				c0.1-1.5,2-2,3.9,0.4C20.9,8,20.6,11.9,17.9,14.3z"/>
			<path class="st51" d="M17.9,14.1c-2,1.8-4.5,2.3-7,1.3c-3.5-1.4-3.5-4.1-2.2-4.3c1.2-0.2,3.4,1.1,5.2-1c1.4-1.7,1.3-3.1,1.4-4.6
				s1.9-1.9,3.7,0.4C20.7,8,20.4,11.8,17.9,14.1z"/>
			<path class="st52" d="M17.8,13.9c-1.9,1.7-4.3,2.3-6.7,1.4c-3.4-1.3-3.5-3.8-2.2-4c1.2-0.2,3.4,1.1,5.2-1.1
				c1.4-1.7,1.3-3.1,1.4-4.6C15.6,4.2,17.3,3.8,19,6C20.5,8.1,20.2,11.6,17.8,13.9z"/>
			<path class="st53" d="M17.7,13.8c-1.8,1.7-4.1,2.3-6.5,1.4c-3.3-1.2-3.6-3.6-2.3-3.8c1.1-0.2,3.3,1.2,5.2-1.1
				c1.4-1.7,1.3-3.1,1.3-4.6c0.1-1.4,1.7-1.7,3.3,0.4C20.2,8.1,20.1,11.5,17.7,13.8z"/>
			<path class="st54" d="M17.6,13.6c-1.7,1.7-3.9,2.2-6.2,1.5c-3.2-1-3.6-3.4-2.4-3.6c1-0.2,3.3,1.2,5.2-1.1
				c1.4-1.7,1.2-3.1,1.3-4.5c0-1.3,1.6-1.7,3.1,0.4C20,8.2,19.9,11.4,17.6,13.6z"/>
			<path class="st55" d="M17.5,13.4c-1.6,1.6-3.7,2.2-5.9,1.6c-3.1-0.9-3.6-3.1-2.5-3.4c1-0.2,3.3,1.3,5.3-1.1
				c1.4-1.8,1.2-3.1,1.2-4.5c0-1.3,1.5-1.6,2.9,0.4C19.8,8.2,19.7,11.3,17.5,13.4z"/>
			<path class="st56" d="M17.4,13.3c-1.6,1.6-3.5,2.2-5.6,1.6c-3.1-0.8-3.6-2.9-2.5-3.1c0.9-0.2,3.3,1.3,5.3-1.2
				c1.4-1.8,1.2-3.1,1.2-4.4c0-1.2,1.4-1.5,2.7,0.4C19.5,8.3,19.6,11.2,17.4,13.3z"/>
			<path class="st57" d="M17.4,13.1c-1.5,1.5-3.4,2.1-5.4,1.7c-3-0.6-3.6-2.7-2.6-2.9c0.8-0.2,3.2,1.4,5.3-1.2
				c1.4-1.8,1.2-3.1,1.1-4.4c-0.1-1.2,1.3-1.5,2.5,0.5C19.3,8.3,19.4,11,17.4,13.1z"/>
			<path class="st58" d="M17.3,12.9c-1.4,1.5-3.2,2.1-5.1,1.8c-2.9-0.5-3.6-2.4-2.7-2.7c0.7-0.2,3.2,1.4,5.3-1.2
				c1.4-1.8,1.2-3,1.1-4.4c-0.1-1.1,1.2-1.4,2.3,0.5C19.1,8.4,19.2,10.9,17.3,12.9z"/>
			<path class="st59" d="M17.2,12.8c-1.4,1.4-3,2.1-4.8,1.8c-2.8-0.3-3.7-2.2-2.8-2.5c0.7-0.2,3.2,1.5,5.4-1.2c1.4-1.8,1.2-3,1-4.3
				c-0.1-1.1,1.1-1.3,2.1,0.5C18.9,8.4,19.1,10.8,17.2,12.8z"/>
			<path class="st60" d="M17.1,12.6c-1.3,1.4-2.8,2-4.6,1.9c-2.7-0.2-3.7-1.9-2.9-2.2c0.6-0.2,3.2,1.5,5.4-1.3c1.4-1.8,1.1-3,1-4.3
				c-0.1-1,1-1.3,1.9,0.5C18.6,8.4,18.9,10.7,17.1,12.6z"/>
			<path class="st61" d="M17,12.4c-1.2,1.3-2.6,2-4.3,2c-2.6-0.1-3.7-1.7-2.9-2c0.5-0.2,3.1,1.6,5.4-1.3c1.4-1.8,1.1-3,0.9-4.2
				c-0.2-1,0.9-1.2,1.7,0.5C18.4,8.5,18.7,10.6,17,12.4z"/>
			<path class="st62" d="M17,12.3c-1.1,1.3-2.4,2-4,2c-2.5,0.1-3.7-1.5-3-1.8c0.4-0.2,3.1,1.6,5.4-1.3c1.4-1.8,1.1-3,0.9-4.2
				c-0.2-1,0.9-1.1,1.5,0.5C18.2,8.5,18.6,10.4,17,12.3z"/>
		</g>
		<path class="st24" d="M18,9c0,3-2.4,5.3-5.3,5.3S7.4,11.9,7.4,9s2.4-5.3,5.3-5.3S18,6,18,9z"/>
		
			<linearGradient id="SVGID_00000049918450120828320190000006485709523838093736_" gradientUnits="userSpaceOnUse" x1="8.888" y1="18.227" x2="16.4428" y2="10.6722" gradientTransform="matrix(1 0 0 -1 0 23.5446)">
			<stop  offset="0" style="stop-color:#FFD45C"/>
			<stop  offset="1" style="stop-color:#FF9D00"/>
		</linearGradient>
		<path style="fill:url(#SVGID_00000049918450120828320190000006485709523838093736_);" d="M18,9.1c0,3-2.4,5.3-5.3,5.3
			S7.4,12,7.4,9.1s2.4-5.3,5.3-5.3S18,6.1,18,9.1z"/>
	</g>
	<g>
		<g>
			<path class="st2" d="M24.6,20.6c1.6-1.4,1.3-5.6,0.5-6.7c-1.1-1.5-2.2-2.4-3.2-2.9s-3.8-0.9-5.1-0.9c-1.8,0-3.5,0.4-5,0.8
				c-1.5,0.4-4.6,1.5-6,3.1c-1.7,1.9-0.2,5.5,0.2,6.1c0.8,1,1.8,2,3,2.6s2.2,0.5,3.1,0.6c0.7,0,3.6,0.4,5.3,0
				c1.2-0.3,3.3-0.6,3.9-0.9C22,22,23.4,21.7,24.6,20.6z"/>
			<path class="st3" d="M24.4,20.4c1.6-1.3,1.3-5.4,0.5-6.6c-1.1-1.5-2.2-2.3-3.2-2.8s-3.6-0.9-4.9-0.9c-1.7,0-3.5,0.4-4.9,0.8
				C10.4,11.3,7.4,12.4,6,14c-1.6,1.8-0.2,5.4,0.2,5.9c0.8,1,1.7,2,2.9,2.5s2.2,0.5,3,0.6c0.7,0.1,3.5,0.4,5.2,0.1
				c1.2-0.3,3.2-0.7,3.8-1C21.8,21.8,23.1,21.5,24.4,20.4z"/>
			<path class="st64" d="M24.1,20.3c1.6-1.3,1.3-5.2,0.5-6.4c-1-1.5-2.2-2.3-3.2-2.8s-3.5-0.9-4.7-0.9c-1.7,0-3.4,0.4-4.8,0.8
				c-1.5,0.4-4.5,1.5-5.8,3c-1.6,1.7-0.3,5.2,0.2,5.8c0.8,0.9,1.6,1.9,2.9,2.5c1.1,0.5,2.1,0.5,3,0.5c0.6,0.1,3.4,0.5,5.1,0.1
				c1.2-0.3,3.2-0.7,3.7-1C21.5,21.6,22.9,21.3,24.1,20.3z"/>
			<path class="st5" d="M23.9,20.2c1.5-1.2,1.3-5.1,0.5-6.2c-1-1.5-2.2-2.3-3.1-2.7c-0.9-0.5-3.4-0.9-4.6-0.9
				c-1.6,0-3.4,0.3-4.8,0.7c-1.5,0.4-4.5,1.5-5.7,2.9c-1.5,1.6-0.3,5,0.2,5.7c0.7,0.9,1.5,1.9,2.8,2.4c1.1,0.5,2.1,0.4,2.9,0.5
				c0.6,0.1,3.3,0.5,5,0.2c1.3-0.2,3.1-0.7,3.6-1C21.3,21.4,22.6,21.2,23.9,20.2z"/>
			<path class="st65" d="M23.6,20c1.5-1.2,1.3-4.9,0.5-6.1c-1-1.5-2.1-2.2-3.1-2.7c-0.9-0.4-3.2-0.9-4.4-0.9
				c-1.6-0.1-3.3,0.3-4.7,0.7c-1.5,0.4-4.4,1.5-5.7,2.9c-1.5,1.6-0.3,4.9,0.2,5.5c0.7,0.9,1.5,1.8,2.7,2.4c1.1,0.5,2.1,0.4,2.8,0.5
				c0.6,0.1,3.2,0.6,4.9,0.2c1.3-0.2,3-0.8,3.6-1C21,21.2,22.3,21,23.6,20z"/>
			<path class="st66" d="M23.3,19.9c1.5-1.2,1.3-4.7,0.5-5.9c-1-1.5-2.1-2.2-3-2.6c-0.9-0.4-3.1-0.9-4.3-0.9
				c-1.6-0.1-3.3,0.3-4.6,0.7c-1.5,0.4-4.4,1.5-5.6,2.8c-1.4,1.5-0.4,4.7,0.2,5.4c0.7,0.8,1.4,1.8,2.6,2.3c1.1,0.5,2.1,0.3,2.8,0.4
				c0.6,0.1,3.1,0.6,4.8,0.3c1.3-0.2,3-0.8,3.5-1C20.8,21,22.1,20.8,23.3,19.9z"/>
			<path class="st67" d="M23.1,19.8c1.5-1.1,1.3-4.5,0.6-5.7c-1-1.5-2.1-2.1-3-2.6c-0.9-0.4-2.9-0.9-4.1-0.9
				c-1.5-0.1-3.2,0.3-4.6,0.6c-1.5,0.4-4.3,1.5-5.5,2.8c-1.3,1.4-0.4,4.5,0.2,5.2C7.4,20,8,21,9.3,21.5c1.1,0.4,2,0.3,2.7,0.4
				c0.6,0.1,3,0.6,4.7,0.3c1.3-0.2,2.9-0.8,3.4-1.1C20.6,20.8,21.8,20.7,23.1,19.8z"/>
			<path class="st68" d="M22.8,19.6c1.5-1.1,1.3-4.3,0.6-5.5c-0.9-1.5-2-2.1-3-2.5c-0.8-0.4-2.8-0.8-3.9-0.9
				c-1.5-0.1-3.2,0.2-4.5,0.6c-1.5,0.4-4.3,1.5-5.4,2.7c-1.3,1.4-0.5,4.4,0.2,5.1c0.6,0.8,1.2,1.7,2.5,2.2c1.1,0.4,2,0.3,2.7,0.4
				c0.6,0.1,2.8,0.7,4.6,0.4c1.3-0.2,2.8-0.8,3.3-1.1C20.3,20.6,21.6,20.5,22.8,19.6z"/>
			<path class="st69" d="M22.6,19.5c1.4-1,1.3-4.1,0.6-5.4c-0.9-1.5-2-2-2.9-2.5c-0.8-0.4-2.6-0.8-3.8-0.9c-1.4-0.1-3.1,0.2-4.4,0.6
				c-1.5,0.4-4.2,1.5-5.3,2.7c-1.2,1.3-0.5,4.2,0.1,5c0.6,0.8,1.2,1.7,2.4,2.2c1.1,0.4,2,0.2,2.6,0.3c0.6,0.1,2.7,0.7,4.5,0.4
				c1.3-0.2,2.8-0.9,3.2-1.1C20.1,20.4,21.3,20.3,22.6,19.5z"/>
			<path class="st70" d="M22.3,19.3c1.4-1,1.3-4,0.6-5.2c-0.9-1.5-2-2-2.9-2.4c-0.8-0.4-2.5-0.8-3.6-0.9C15,10.7,13.3,11,12,11.3
				c-1.5,0.5-4.2,1.6-5.2,2.6c-1.2,1.2-0.5,4,0.1,4.8c0.6,0.7,1.1,1.6,2.3,2.1c1.1,0.4,1.9,0.2,2.6,0.3c0.6,0.1,2.6,0.8,4.3,0.5
				c1.3-0.2,2.7-0.9,3.1-1.1C19.9,20.2,21.1,20.2,22.3,19.3z"/>
			<path class="st71" d="M22,19.2c1.4-0.9,1.3-3.8,0.6-5c-0.9-1.5-2-1.9-2.8-2.3c-0.8-0.4-2.3-0.8-3.5-0.9c-1.3-0.1-3,0.1-4.3,0.5
				C10.6,11.9,7.9,13,6.9,14c-1.1,1.2-0.6,3.9,0.1,4.7c0.6,0.7,1,1.6,2.3,2c1,0.4,1.9,0.2,2.5,0.3c0.6,0.1,2.5,0.8,4.2,0.5
				c1.3-0.2,2.6-0.9,3-1.2C19.6,20,20.8,20,22,19.2z"/>
			<path class="st72" d="M21.8,19.1c1.4-0.9,1.3-3.6,0.6-4.9c-0.9-1.5-1.9-1.9-2.8-2.3c-0.8-0.4-2.2-0.8-3.3-0.9
				c-1.3-0.1-3,0.1-4.2,0.5C10.7,11.9,8,13,7.1,14c-1,1.1-0.6,3.7,0.1,4.6c0.5,0.7,0.9,1.5,2.2,2c1,0.4,1.9,0.1,2.5,0.2
				s2.4,0.9,4.1,0.6c1.3-0.2,2.5-1,3-1.2C19.4,19.8,20.6,19.8,21.8,19.1z"/>
			<path class="st73" d="M21.5,18.9c1.3-0.9,1.3-3.4,0.6-4.7c-0.8-1.5-1.9-1.8-2.8-2.2c-0.7-0.3-2-0.8-3.1-0.9
				c-1.2-0.2-2.9,0.1-4.2,0.4c-1.4,0.4-4.1,1.5-4.9,2.4c-1,1-0.6,3.5,0.1,4.4c0.5,0.6,0.8,1.5,2.1,1.9c1,0.3,1.9,0.1,2.4,0.2
				c0.6,0.1,2.3,0.9,4,0.6c1.3-0.2,2.5-1,2.9-1.2C19.2,19.6,20.3,19.7,21.5,18.9z"/>
			<path class="st74" d="M21.3,18.8c1.3-0.8,1.3-3.2,0.6-4.5c-0.8-1.5-1.9-1.8-2.7-2.2c-0.7-0.3-1.9-0.8-3-0.9
				c-1.2-0.2-2.9,0.1-4.1,0.4c-1.4,0.4-4,1.5-4.8,2.4c-0.9,1-0.7,3.4,0.1,4.3c0.5,0.6,0.8,1.5,2,1.9c1,0.3,1.8,0,2.4,0.2
				c0.5,0.1,2.2,1,3.9,0.7c1.3-0.2,2.4-1,2.8-1.2C18.9,19.4,20.1,19.5,21.3,18.8z"/>
			<path class="st75" d="M21,18.6c1.3-0.8,1.3-3,0.6-4.4c-0.8-1.5-1.8-1.7-2.7-2.1c-0.7-0.3-1.8-0.8-2.8-0.9c-1.1-0.2-2.8,0-4,0.4
				c-1.4,0.4-4,1.5-4.7,2.3c-0.9,0.9-0.7,3.2,0.1,4.1c0.5,0.6,0.7,1.4,2,1.8c1,0.3,1.8,0,2.3,0.1s2.1,1,3.8,0.7
				c1.3-0.2,2.3-1.1,2.7-1.3C18.7,19.2,19.8,19.3,21,18.6z"/>
			<path class="st76" d="M20.7,18.5c1.3-0.7,1.3-2.9,0.6-4.2c-0.8-1.5-1.8-1.7-2.7-2.1c-0.7-0.3-1.6-0.7-2.7-0.9s-2.7,0-4,0.4
				c-1.4,0.4-3.9,1.5-4.6,2.2c-0.8,0.8-0.8,3,0.1,4c0.4,0.5,0.6,1.4,1.9,1.8c1,0.3,1.8,0,2.2,0.1c0.5,0.1,1.9,1,3.7,0.7
				c1.3-0.2,2.3-1.1,2.6-1.3C18.4,19,19.6,19.2,20.7,18.5z"/>
			<path class="st77" d="M20.5,18.4c1.2-0.7,1.3-2.7,0.7-4c-0.8-1.6-1.8-1.6-2.6-2c-0.7-0.3-1.5-0.7-2.5-0.9c-1.1-0.2-2.7,0-3.9,0.3
				c-1.4,0.4-3.9,1.5-4.5,2.2c-0.9,0.7-0.9,2.8-0.1,3.8c0.4,0.5,0.5,1.3,1.8,1.7c1,0.3,1.7-0.1,2.2,0.1s1.8,1.1,3.6,0.8
				c1.4-0.2,2.2-1.1,2.5-1.3C18.2,18.8,19.3,19,20.5,18.4z"/>
			<path class="st78" d="M20.2,18.2c1.2-0.7,1.3-2.5,0.7-3.8c-0.8-1.6-1.8-1.6-2.6-2c-0.6-0.3-1.3-0.7-2.4-0.9
				c-1-0.2-2.6-0.1-3.9,0.3c-1.4,0.4-3.8,1.5-4.4,2.1c-0.7,0.7-0.8,2.7,0,3.7c0.4,0.5,0.5,1.3,1.7,1.7c0.9,0.3,1.7-0.1,2.1,0
				c0.5,0.2,1.7,1.1,3.5,0.8c1.4-0.2,2.1-1.2,2.4-1.3C18,18.6,19.1,18.8,20.2,18.2z"/>
			<path class="st79" d="M19.9,18.1c1.2-0.6,1.3-2.3,0.7-3.7c-0.7-1.6-1.7-1.6-2.5-1.9c-0.6-0.3-1.2-0.7-2.2-0.9s-2.6-0.1-3.8,0.3
				c-1.4,0.4-3.8,1.5-4.3,2c-0.6,0.6-0.9,2.5,0,3.6c0.4,0.4,0.4,1.3,1.7,1.6c0.9,0.2,1.7-0.1,2.1,0c0.5,0.2,1.6,1.2,3.3,0.9
				c1.4-0.2,2.1-1.2,2.4-1.4C17.7,18.4,18.8,18.7,19.9,18.1z"/>
			<path class="st80" d="M19.7,17.9c1.2-0.6,1.3-2.1,0.7-3.5c-0.7-1.6-1.7-1.5-2.5-1.9c-0.6-0.3-1-0.7-2-0.9
				c-0.9-0.2-2.5-0.1-3.7,0.2c-1.3,0.4-3.7,1.5-4.2,2c-0.6,0.6-0.9,2.4,0,3.4c0.3,0.4,0.3,1.2,1.6,1.5c0.9,0.2,1.7-0.2,2,0
				c0.5,0.2,1.5,1.2,3.2,0.9c1.4-0.2,2-1.2,2.3-1.4C17.5,18.2,18.6,18.5,19.7,17.9z"/>
			<path class="st81" d="M19.4,17.8c1.1-0.5,1.3-1.9,0.7-3.3c-0.7-1.6-1.7-1.5-2.5-1.8c-0.5-0.3-0.8-0.7-1.8-0.9
				c-0.9-0.2-2.5-0.2-3.7,0.2c-1.3,0.4-3.7,1.5-4.1,2c-0.5,0.5-0.9,2.2,0,3.3c0.3,0.4,0.2,1.2,1.5,1.5c0.9,0.2,1.6-0.2,2-0.1
				c0.5,0.2,1.4,1.3,3.1,1c1.4-0.2,1.9-1.3,2.2-1.4C17.3,18,18.3,18.3,19.4,17.8z"/>
			<path class="st82" d="M19.2,17.7c1.1-0.5,1.3-1.8,0.7-3.2c-0.7-1.6-1.6-1.4-2.4-1.8c-0.5-0.2-0.8-0.6-1.7-0.9
				c-0.8-0.2-2.4-0.2-3.6,0.2c-1.3,0.4-3.6,1.5-4,1.9c-0.5,0.4-1,2,0,3.2c0.3,0.3,0.1,1.1,1.4,1.4c0.9,0.2,1.6-0.2,1.9-0.1
				c0.5,0.2,1.3,1.3,3,1c1.4-0.2,1.9-1.3,2.1-1.4C17,17.8,18,18.2,19.2,17.7z"/>
		</g>
		<path class="st83" d="M17.7,12.4c-0.1,0-0.1,0-0.2,0c-0.3-0.9-1.2-1.6-2.2-1.6c-0.3,0-0.6,0.1-0.9,0.2c-0.3-0.9-1.2-1.5-2.1-1.5
			c-1,0-1.8,0.6-2.1,1.4c-0.1,0-0.2,0-0.3,0c-1,0-1.9,0.8-2,1.8c-0.1,0-0.3,0-0.4,0c-1.3,0-2.3,1-2.3,2.3s1,2.3,2.3,2.3
			c0,0,0,0,0.1,0c0.2,0.9,1,1.6,2,1.6c0.8,0,1.4-0.4,1.8-1c0.5,0.8,1.4,1.4,2.5,1.4c1.2,0,2.2-0.7,2.6-1.7c0.4,0.2,0.9,0.4,1.4,0.4
			c1.5,0,2.7-1.2,2.7-2.7C20.4,13.6,19.2,12.4,17.7,12.4z"/>
		<path class="st84" d="M17.8,12.5c-0.1,0-0.1,0-0.2,0c-0.3-0.9-1.2-1.6-2.2-1.6c-0.3,0-0.6,0.1-0.9,0.2c-0.3-0.9-1.2-1.5-2.1-1.5
			c-1,0-1.8,0.6-2.1,1.4c-0.1,0-0.2,0-0.3,0c-1,0-1.9,0.8-2,1.8c-0.1,0-0.3,0-0.4,0c-1.3,0-2.3,1-2.3,2.3s1,2.3,2.3,2.3
			c0,0,0,0,0.1,0c0.2,0.9,1,1.6,2,1.6c0.8,0,1.4-0.4,1.8-1c0.5,0.9,1.4,1.4,2.5,1.4c1.2,0,2.2-0.7,2.6-1.7c0.4,0.2,0.9,0.4,1.4,0.4
			c1.5,0,2.7-1.2,2.7-2.7C20.5,13.7,19.3,12.5,17.8,12.5z"/>
	</g>
	<g>
		<g>
			<path class="st2" d="M17.1,17.4c1-1.5,0.5-4.4-0.2-5.4c-1-1.3-2.4-1.5-3.3-1.9c-0.9-0.4-2.5-1.6-3.6-1.6c-1.6,0-2.4,0.6-3.6,0.9
				C5,9.8,2.7,11.9,1.5,13.3c-1.5,1.6-1.1,4.1-0.7,4.5c0.7,0.9,1.6,1.8,2.6,2.3s1.9,0.5,2.7,0.5c0.6,0,1.3,0.3,2.8,0
				c1.1-0.2,1.6-0.3,2.1-0.5C12.1,19.8,15.8,19.3,17.1,17.4z"/>
			<path class="st3" d="M16.9,17.4c1-1.5,0.6-4.3-0.2-5.3c-0.9-1.3-2.4-1.5-3.3-1.9c-0.9-0.4-2.5-1.6-3.6-1.6
				c-1.5,0-2.3,0.5-3.6,0.9C4.8,9.9,2.6,12,1.4,13.3c-1.4,1.6-1.1,4-0.7,4.5c0.7,0.9,1.5,1.7,2.6,2.2c1.1,0.4,1.9,0.4,2.7,0.4
				c0.6,0,1.3,0.4,2.8,0c1.1-0.2,1.6-0.3,2.1-0.5C12,19.6,15.6,19.2,16.9,17.4z"/>
			<path class="st64" d="M16.7,17.3c1-1.4,0.6-4.2-0.1-5.1c-0.9-1.3-2.4-1.4-3.2-1.9C12.6,9.9,11,8.7,9.9,8.7
				c-1.5,0-2.3,0.5-3.6,0.8C5,9.9,2.7,11.9,1.6,13.2c-1.4,1.5-1.2,3.8-0.8,4.4c0.7,0.8,1.5,1.7,2.6,2.2c1,0.5,1.9,0.4,2.6,0.4
				c0.6,0.1,1.3,0.4,2.8,0.1c1.1-0.2,1.6-0.3,2.1-0.5C12,19.5,15.4,19,16.7,17.3z"/>
			<path class="st5" d="M16.5,17.3c1-1.4,0.6-4.1-0.1-5c-0.9-1.3-2.4-1.4-3.2-1.8c-0.8-0.4-2.3-1.6-3.4-1.7c-1.4,0-2.3,0.5-3.5,0.8
				C5,10,2.8,12,1.7,13.3c-1.3,1.4-1.2,3.7-0.8,4.3c0.6,0.8,1.4,1.6,2.5,2.1C4.5,20.1,5.3,20,6,20.1c0.6,0.1,1.3,0.4,2.8,0.1
				c1.1-0.2,1.6-0.4,2.1-0.5C11.9,19.3,15.3,18.9,16.5,17.3z"/>
			<path class="st65" d="M16.3,17.2c1-1.3,0.6-3.9,0-4.9c-0.9-1.3-2.3-1.4-3.2-1.8c-0.8-0.4-2.3-1.6-3.3-1.7
				C8.4,8.7,7.5,9.2,6.3,9.6C5,10,2.9,12,1.8,13.2c-1.3,1.4-1.3,3.6-0.8,4.2c0.6,0.8,1.4,1.6,2.5,2s1.9,0.3,2.5,0.3
				c0.6,0.1,1.3,0.4,2.8,0.1c1.1-0.2,1.6-0.4,2.1-0.5C11.9,19.1,15.1,18.8,16.3,17.2z"/>
			<path class="st66" d="M16.1,17.2c1-1.3,0.7-3.8,0-4.8c-0.9-1.3-2.3-1.4-3.2-1.8c-0.8-0.4-2.2-1.6-3.2-1.7
				C8.3,8.8,7.4,9.3,6.2,9.6C4.9,10,2.8,12,1.8,13.2c-1.2,1.3-1.3,3.5-0.8,4.1c0.6,0.7,1.3,1.6,2.4,2s1.9,0.2,2.5,0.3
				c0.5,0.1,1.3,0.4,2.8,0.1c1.1-0.2,1.7-0.4,2.1-0.5C11.8,18.9,14.9,18.7,16.1,17.2z"/>
			<path class="st67" d="M15.9,17.1c1-1.2,0.7-3.7,0-4.6c-0.9-1.3-2.3-1.3-3.1-1.7s-2.1-1.6-3.2-1.7C8.3,8.9,7.4,9.4,6.2,9.7
				c-1.3,0.4-3.4,2.4-4.4,3.5c-1.2,1.3-1.3,3.4-0.8,4c0.6,0.7,1.3,1.5,2.4,1.9s1.8,0.2,2.5,0.2c0.5,0.1,1.3,0.5,2.8,0.2
				c1.1-0.2,1.7-0.4,2.1-0.5C11.8,18.8,14.7,18.5,15.9,17.1z"/>
			<path class="st68" d="M15.7,17c1-1.2,0.7-3.6,0.1-4.5c-0.9-1.3-2.3-1.3-3.1-1.7c-0.7-0.4-2-1.6-3.1-1.7C8.3,9,7.3,9.4,6.1,9.8
				c-1.3,0.4-3.3,2.3-4.2,3.4c-1.1,1.1-1.3,3.2-0.8,3.8c0.6,0.7,1.2,1.5,2.3,1.8s1.8,0.1,2.4,0.2c0.5,0.1,1.3,0.5,2.8,0.2
				c1.1-0.2,1.7-0.4,2.1-0.5C11.7,18.6,14.5,18.4,15.7,17z"/>
			<path class="st69" d="M15.5,17c1-1.1,0.7-3.5,0.1-4.4c-0.9-1.3-2.2-1.3-3.1-1.7c-0.7-0.3-2-1.6-3-1.7C8.3,9.1,7.2,9.5,6.1,9.8
				c-1.3,0.4-3.2,2.3-4.1,3.3c-1.1,1.1-1.4,3.1-0.9,3.8s1.2,1.4,2.3,1.8c1.1,0.3,1.8,0.1,2.4,0.2c0.5,0.1,1.3,0.5,2.8,0.2
				c1.1-0.2,1.7-0.5,2.1-0.5C11.7,18.4,14.3,18.3,15.5,17z"/>
			<path class="st70" d="M15.3,16.9c1-1.1,0.8-3.4,0.2-4.3c-0.9-1.3-2.2-1.3-3-1.7c-0.7-0.3-1.9-1.6-2.9-1.7
				C8.4,9.1,7.3,9.5,6.2,9.8c-1.3,0.4-3.1,2.3-4,3.2c-1,1.1-1.4,3-0.9,3.7c0.5,0.6,1.1,1.4,2.3,1.7c1.1,0.3,1.8,0,2.4,0.1
				c0.5,0.1,1.3,0.5,2.8,0.3c1.1-0.2,1.7-0.5,2.1-0.5C11.6,18.3,14.1,18.2,15.3,16.9z"/>
			<path class="st71" d="M15.1,16.9c1-1,0.8-3.3,0.2-4.1c-0.9-1.3-2.2-1.2-3-1.6c-0.7-0.3-1.8-1.6-2.8-1.7c-1.2-0.1-2.3,0.2-3.4,0.6
				c-1.3,0.4-3.1,2.3-3.9,3.1c-1,1-1.5,2.9-0.9,3.6c0.5,0.6,1.1,1.4,2.2,1.6c1.1,0.3,1.8,0,2.3,0.1s1.3,0.6,2.8,0.3
				c1.1-0.2,1.7-0.5,2.1-0.5C11.5,18.1,13.9,18.1,15.1,16.9z"/>
			<path class="st72" d="M14.9,16.8c1-1,0.8-3.1,0.2-4c-0.9-1.3-2.2-1.2-3-1.6c-0.7-0.3-1.8-1.6-2.7-1.8C8.3,9.3,7.2,9.6,6,9.9
				c-1.3,0.4-3,2.2-3.8,3.1c-0.9,1-1.5,2.8-0.9,3.5c0.5,0.6,1.1,1.3,2.2,1.6c1.1,0.3,1.8-0.1,2.3,0s1.3,0.6,2.8,0.3
				c1.2-0.2,1.7-0.5,2.1-0.5C11.5,17.9,13.7,17.9,14.9,16.8z"/>
			<path class="st73" d="M14.7,16.8c1-0.9,0.8-3,0.3-3.9c-0.8-1.3-2.1-1.2-2.9-1.6c-0.7-0.3-1.7-1.7-2.7-1.8C8.3,9.4,7.2,9.7,6,10
				c-1.3,0.4-3,2.2-3.7,3c-0.9,0.9-1.6,2.7-0.9,3.4c0.5,0.5,1,1.3,2.1,1.5s1.8-0.1,2.3,0s1.3,0.6,2.8,0.3c1.2-0.2,1.7-0.5,2.1-0.5
				C11.4,17.7,13.6,17.8,14.7,16.8z"/>
			<path class="st74" d="M14.5,16.7c1-0.9,0.9-2.9,0.3-3.8c-0.8-1.3-2.1-1.2-2.9-1.5c-0.6-0.3-1.6-1.7-2.6-1.8S7.1,9.7,6,10
				c-1.2,0.4-2.9,2.3-3.6,3c-0.8,0.8-1.6,2.5-0.9,3.3c0.4,0.5,1,1.2,2.1,1.4c1.1,0.2,1.7-0.2,2.2-0.1s1.3,0.6,2.8,0.4
				c1.2-0.2,1.8-0.5,2.1-0.5C11.4,17.6,13.4,17.7,14.5,16.7z"/>
			<path class="st75" d="M14.3,16.7c1-0.8,0.9-2.8,0.4-3.7c-0.8-1.3-2.1-1.2-2.9-1.5c-0.6-0.3-1.6-1.7-2.5-1.8
				c-1-0.2-2.2,0.1-3.3,0.4c-1.2,0.4-2.9,2.2-3.5,2.9c-0.8,0.8-1.7,2.4-1,3.2c0.4,0.5,0.9,1.2,2,1.4c1.1,0.2,1.7-0.2,2.2-0.1
				s1.3,0.7,2.8,0.4c1.2-0.2,1.8-0.6,2.1-0.5C11.3,17.4,13.2,17.6,14.3,16.7z"/>
			<path class="st76" d="M14.1,16.6c1-0.8,0.9-2.7,0.4-3.5c-0.8-1.3-2.1-1.1-2.8-1.5c-0.6-0.3-1.5-1.7-2.4-1.8
				c-1-0.2-2.2,0.1-3.3,0.4c-1.2,0.4-2.8,2.2-3.4,2.8c-0.7,0.7-1.7,2.3-1,3.2c0.4,0.5,0.9,1.1,2,1.3c1.1,0.2,1.7-0.3,2.1-0.2
				C6.2,17.4,7,18,8.5,17.7c1.2-0.2,1.8-0.6,2.1-0.5C11.3,17.2,13,17.4,14.1,16.6z"/>
			<path class="st77" d="M13.9,16.6c1-0.7,1-2.6,0.4-3.4c-0.8-1.3-2.1-1.1-2.8-1.4c-0.6-0.3-1.4-1.7-2.3-1.8C8.3,9.8,7,10,5.9,10.3
				c-1.2,0.4-2.7,2.1-3.3,2.7c-0.7,0.7-1.7,2.2-1,3.1c0.4,0.4,0.8,1.1,2,1.2c1.2,0.1,1.7-0.4,2.1-0.3c0.5,0.1,1.3,0.7,2.8,0.4
				c1.2-0.2,1.8-0.6,2.1-0.5C11.2,17,12.8,17.3,13.9,16.6z"/>
			<path class="st78" d="M13.7,16.5c1-0.7,1-2.5,0.5-3.3c-0.8-1.3-2-1.1-2.8-1.4c-0.6-0.2-1.3-1.7-2.3-1.8c-0.9-0.2-2.2,0-3.2,0.3
				c-1.2,0.4-2.7,2.1-3.2,2.6c-0.6,0.6-1.8,2.1-1,3C2,16.3,2.5,17,3.6,17.1c1.2,0.1,1.7-0.4,2.1-0.3s1.3,0.7,2.8,0.5
				c1.2-0.2,1.8-0.6,2.1-0.5C11.1,16.9,12.6,17.2,13.7,16.5z"/>
			<path class="st79" d="M13.5,16.5c1-0.6,1-2.3,0.5-3.2c-0.8-1.3-2-1.1-2.7-1.4c-0.5-0.2-1.3-1.7-2.2-1.9s-2.2-0.1-3.2,0.3
				c-1.2,0.4-2.7,2.1-3.1,2.6c-0.6,0.5-1.8,1.9-1,2.9c0.3,0.4,0.7,1,1.9,1.1s1.7-0.4,2-0.3c0.4,0.2,1.3,0.7,2.8,0.5
				c1.2-0.2,1.8-0.6,2.1-0.5C11.1,16.7,12.4,17.1,13.5,16.5z"/>
			<path class="st80" d="M13.3,16.4c1-0.5,1-2.2,0.6-3c-0.8-1.3-2-1-2.7-1.3c-0.5-0.2-1.2-1.7-2.1-1.9c-0.9-0.2-2.2-0.1-3.3,0.2
				c-1.2,0.4-2.6,2.1-3,2.5c-0.5,0.5-1.8,1.8-1,2.8c0.3,0.4,0.7,1,1.8,1c1.2,0.1,1.7-0.5,2-0.4c0.4,0.2,1.3,0.8,2.8,0.5
				c1.2-0.2,1.8-0.6,2.1-0.5C11,16.5,12.3,17,13.3,16.4z"/>
			<path class="st81" d="M13.1,16.3c1-0.5,1.1-2.1,0.6-2.9c-0.8-1.3-2-1-2.7-1.3c-0.5-0.2-1.1-1.7-2-1.9c-0.8-0.2-2.2-0.1-3.2,0.2
				c-1.2,0.4-2.5,2-2.9,2.4s-1.9,1.7-1,2.7c0.3,0.3,0.6,0.9,1.8,1c1.2,0,1.6-0.5,2-0.4c0.4,0.2,1.3,0.8,2.8,0.6
				c1.2-0.2,1.8-0.7,2.1-0.5C11,16.3,12.1,16.8,13.1,16.3z"/>
			<path class="st82" d="M12.9,16.3c1-0.4,1.1-2,0.6-2.8c-0.8-1.3-1.9-1-2.6-1.3C10.4,12,9.8,10.5,9,10.3c-0.8-0.2-2.2-0.1-3.2,0.2
				c-1.2,0.4-2.4,2-2.8,2.3c-0.4,0.4-1.9,1.6-1.1,2.6c0.3,0.3,0.6,0.9,1.7,0.9c1.2,0,1.6-0.6,1.9-0.5c0.4,0.2,1.3,0.8,2.8,0.6
				c1.2-0.2,1.9-0.7,2.1-0.5C10.9,16.2,11.9,16.7,12.9,16.3z"/>
		</g>
		<path class="st83" d="M11.9,11.8c-0.3,0-0.5,0-0.8,0.1c-0.3-1.6-1.7-2.9-3.5-3c-1.7-0.1-3.2,1-3.7,2.5l0,0c-1.4-0.1-2.6,1-2.7,2.5
			c-0.1,1.4,1,2.6,2.5,2.7c0.7,0,1.4-0.2,1.9-0.7c0.5,0.3,1.1,0.5,1.7,0.5c1.1,0.1,2.1-0.4,2.8-1.1c0.4,0.5,0.9,0.8,1.6,0.8
			c1.2,0.1,2.2-0.9,2.3-2C14,12.9,13.1,11.9,11.9,11.8z"/>
	</g>
</g>
</svg>
