<?xml version="1.0" encoding="utf-8"?>
<!-- Generator: Adobe Illustrator 27.0.1, SVG Export Plug-In . SVG Version: 6.00 Build 0)  -->
<svg version="1.1" id="Ebene_1" xmlns="http://www.w3.org/2000/svg" xmlns:xlink="http://www.w3.org/1999/xlink" x="0px" y="0px"
	 viewBox="0 0 27.3 16.2" style="enable-background:new 0 0 27.3 16.2;" xml:space="preserve">
<style type="text/css">
	.st0{fill:#FFFFFF;fill-opacity:0;}
	.st1{opacity:5.000000e-02;fill:#F9FBFB;enable-background:new    ;}
	.st2{opacity:0.1;fill:#F4F6F8;enable-background:new    ;}
	.st3{opacity:0.14;fill:#EEF2F4;enable-background:new    ;}
	.st4{opacity:0.19;fill:#E9EDF1;enable-background:new    ;}
	.st5{opacity:0.24;fill:#E3E9ED;enable-background:new    ;}
	.st6{opacity:0.29;fill:#DEE5EA;enable-background:new    ;}
	.st7{opacity:0.33;fill:#D8E0E6;enable-background:new    ;}
	.st8{opacity:0.38;fill:#D3DCE3;enable-background:new    ;}
	.st9{opacity:0.43;fill:#CDD8DF;enable-background:new    ;}
	.st10{opacity:0.48;fill:#C8D3DC;enable-background:new    ;}
	.st11{opacity:0.52;fill:#C2CFD8;enable-background:new    ;}
	.st12{opacity:0.57;fill:#BDCAD5;enable-background:new    ;}
	.st13{opacity:0.62;fill:#B7C6D1;enable-background:new    ;}
	.st14{opacity:0.67;fill:#B2C2CE;enable-background:new    ;}
	.st15{opacity:0.71;fill:#ACBDCA;enable-background:new    ;}
	.st16{opacity:0.76;fill:#A7B9C7;enable-background:new    ;}
	.st17{opacity:0.81;fill:#A1B5C3;enable-background:new    ;}
	.st18{opacity:0.86;fill:#9CB0C0;enable-background:new    ;}
	.st19{opacity:0.9;fill:#96ACBC;enable-background:new    ;}
	.st20{opacity:0.95;fill:#91A7B9;enable-background:new    ;}
	.st21{fill:#8BA3B5;}
	.st22{fill:#FFFFFF;}
	.st23{fill:#E4F1F5;}
	.st24{fill:#EEF7FA;}
</style>
<g id="Ebene_2_00000000922258872547012580000008730556991062451383_">
	<g id="Paper-Icons">
		<g>
			<g>
				<g>
					<path class="st0" d="M20.4,10.6c2.3-0.7,2.9-4,0.1-4.2C15.9,5.9,5.6,6.8,2.4,6.9C-1.3,7-0.2,10,2.3,10.5
						C5.7,11.2,17.3,11.5,20.4,10.6L20.4,10.6z"/>
					<path class="st1" d="M20.3,10.4c2.3-0.6,2.8-3.8,0.1-4.1C16,6,5.6,6.8,2.4,6.9c-3.6,0.1-2.5,3-0.1,3.5
						C5.7,11,17.3,11.3,20.3,10.4z"/>
					<path class="st2" d="M20.3,10.3c2.2-0.6,2.7-3.7,0-3.9C16,6.1,5.6,6.9,2.4,6.9C-1,7,0,9.9,2.3,10.3
						C5.5,10.9,17.2,11.2,20.3,10.3z"/>
					<path class="st3" d="M20.2,10.2c2.1-0.6,2.6-3.5,0-3.7C16.1,6.1,5.5,6.9,2.4,7c-3.3,0.1-2.3,2.8-0.1,3.2
						C5.5,10.8,17.2,11,20.2,10.2L20.2,10.2z"/>
					<path class="st4" d="M20.1,10.1c2-0.5,2.4-3.4,0-3.6C16.2,6.2,5.5,6.9,2.4,7c-3.1,0.1-2.2,2.7-0.1,3.1
						C5.4,10.6,17.1,10.9,20.1,10.1z"/>
					<path class="st5" d="M20.1,10c2-0.5,2.3-3.2,0-3.4C16.3,6.3,5.4,7,2.4,7.1c-3,0.1-2.2,2.6-0.1,2.9C5.3,10.5,17.1,10.7,20.1,10
						L20.1,10z"/>
					<path class="st6" d="M20,9.8c1.9-0.5,2.2-3.1,0-3.3C16.3,6.3,5.4,7,2.4,7.1c-2.9,0.1-2.1,2.4-0.1,2.8C5.2,10.4,17,10.6,20,9.8
						L20,9.8z"/>
					<path class="st7" d="M19.9,9.7c1.8-0.4,2.1-2.9-0.1-3.1C16.4,6.4,5.3,7.1,2.4,7.2c-2.7,0.1-2,2.3-0.1,2.6
						C5.1,10.2,16.9,10.4,19.9,9.7z"/>
					<path class="st8" d="M19.8,9.6c1.7-0.4,2-2.8-0.1-2.9C16.5,6.4,5.3,7.1,2.4,7.2c-2.6,0.1-1.9,2.2-0.2,2.5
						C5,10.1,16.9,10.3,19.8,9.6z"/>
					<path class="st9" d="M19.8,9.5c1.7-0.3,1.9-2.6-0.1-2.8C16.5,6.5,5.3,7.2,2.4,7.3C0,7.3,0.6,9.3,2.2,9.6
						C4.9,10,16.8,10.1,19.8,9.5L19.8,9.5z"/>
					<path class="st10" d="M19.7,9.4c1.6-0.3,1.8-2.5-0.1-2.6C16.6,6.6,5.2,7.2,2.4,7.3C0.1,7.4,0.7,9.2,2.3,9.5
						C4.9,9.8,16.8,9.9,19.7,9.4L19.7,9.4z"/>
					<path class="st11" d="M19.6,9.2c1.5-0.3,1.7-2.3-0.2-2.4C16.7,6.6,5.2,7.3,2.4,7.4c-2.2,0.1-1.7,1.8-0.2,2
						C4.8,9.7,16.7,9.8,19.6,9.2L19.6,9.2z"/>
					<path class="st12" d="M19.6,9.1C21,8.9,21.1,7,19.4,6.9c-2.6-0.2-14.3,0.5-17,0.6c-2,0.1-1.6,1.7-0.2,1.9
						C4.7,9.6,16.7,9.6,19.6,9.1z"/>
					<path class="st13" d="M19.5,9c1.4-0.2,1.5-2-0.2-2.1C16.8,6.8,5.1,7.4,2.4,7.5C0.5,7.5,0.9,9,2.2,9.2C4.6,9.4,16.6,9.5,19.5,9z
						"/>
					<path class="st14" d="M19.4,8.9c1.3-0.2,1.3-1.9-0.2-1.9C16.9,6.8,5,7.4,2.4,7.5C0.7,7.6,1,8.9,2.2,9.1
						C4.5,9.3,16.6,9.3,19.4,8.9z"/>
					<path class="st15" d="M19.3,8.8c1.2-0.2,1.2-1.7-0.2-1.8C17,6.9,5,7.5,2.4,7.6C0.8,7.6,1.1,8.9,2.2,9
						C4.4,9.2,16.5,9.2,19.3,8.8L19.3,8.8z"/>
					<path class="st16" d="M19.3,8.6C20.4,8.5,20.4,7.1,19,7C17.1,6.9,5,7.5,2.4,7.6c-1.5,0-1.3,1.2-0.2,1.3C4.3,9,16.5,9,19.3,8.6
						L19.3,8.6z"/>
					<path class="st17" d="M19.2,8.5c1.1-0.1,1-1.4-0.3-1.5C17.1,7,4.9,7.6,2.4,7.6c-1.3,0-1.2,1-0.2,1.1C4.3,8.9,16.4,8.9,19.2,8.5
						z"/>
					<path class="st18" d="M19.1,8.4c1-0.1,0.9-1.3-0.3-1.3c-1.6,0-14,0.5-16.4,0.6c-1.2,0-1.1,0.9-0.2,0.9
						C4.2,8.7,16.4,8.7,19.1,8.4L19.1,8.4z"/>
					<path class="st19" d="M19,8.3c0.9-0.1,0.8-1.1-0.3-1.1c-1.5,0-13.9,0.5-16.3,0.6c-1.1,0-1.1,0.8-0.2,0.8
						C4.1,8.6,16.3,8.5,19,8.3L19,8.3z"/>
					<path class="st20" d="M19,8.2c0.8-0.1,0.7-1-0.3-1c-1.3,0-13.9,0.5-16.2,0.6c-0.9,0-1,0.6-0.3,0.6C4,8.4,16.2,8.3,19,8.2z"/>
					<path class="st21" d="M18.9,8.1c0.8,0,0.6-0.8-0.4-0.8c-1.1,0-13.8,0.5-16.1,0.6c-0.8,0-0.9,0.5-0.3,0.5
						C3.9,8.3,16.2,8.2,18.9,8.1z"/>
				</g>
				<path class="st22" d="M20.3,6.6c0,0.6-0.5,1.2-1.1,1.2L1.6,8.3c-0.6,0-1.2-0.5-1.2-1.1h0C0.4,6.6,0.9,6,1.5,6l17.6-0.5
					C19.7,5.5,20.2,6,20.3,6.6C20.3,6.6,20.3,6.6,20.3,6.6z"/>
				<path class="st23" d="M20.4,6.7c0,0.6-0.5,1.2-1.1,1.2L1.7,8.4c-0.6,0-1.2-0.5-1.2-1.1h0c0-0.6,0.5-1.2,1.1-1.2l17.6-0.5
					C19.8,5.6,20.4,6.1,20.4,6.7L20.4,6.7z"/>
			</g>
			<g>
				<g>
					<path class="st0" d="M25.5,9.2c2.3-0.7,2.6-4.4-0.2-4.6C20.6,4.2,10.4,5,7.1,5.1C3.4,5.2,4.5,8.9,7,9
						C10,9.1,22.4,10.1,25.5,9.2L25.5,9.2z"/>
					<path class="st1" d="M25.4,9.1c2.3-0.6,2.5-4.2-0.2-4.4C20.7,4.2,10.4,5,7.1,5.1C3.6,5.2,4.6,8.8,7,8.8
						C9.9,8.9,22.3,9.9,25.4,9.1L25.4,9.1z"/>
					<path class="st2" d="M25.3,8.9c2.2-0.6,2.4-4-0.2-4.3C20.8,4.3,10.3,5.1,7.1,5.2C3.7,5.3,4.6,8.7,7,8.7
						C9.8,8.8,22.2,9.7,25.3,8.9z"/>
					<path class="st3" d="M25.2,8.8c2.1-0.6,2.3-3.9-0.2-4.1C20.8,4.4,10.3,5.1,7.1,5.2C3.9,5.3,4.7,8.6,7,8.6
						C9.8,8.7,22.2,9.6,25.2,8.8L25.2,8.8z"/>
					<path class="st4" d="M25.1,8.6c2-0.5,2.2-3.7-0.2-3.9C20.9,4.4,10.2,5.2,7.1,5.3C4,5.4,4.8,8.5,7,8.5
						C9.7,8.6,22.1,9.4,25.1,8.6z"/>
					<path class="st5" d="M25,8.5C27,8,27.1,5,24.8,4.8C21,4.5,10.2,5.2,7.2,5.3c-3,0.1-2.3,3-0.2,3.1C9.7,8.4,22,9.2,25,8.5L25,8.5
						z"/>
					<path class="st6" d="M24.9,8.4c1.9-0.5,2-3.4-0.3-3.5C21.1,4.6,10.1,5.3,7.2,5.4C4.3,5.4,5,8.2,7,8.3C9.6,8.3,22,9.1,24.9,8.4z
						"/>
					<path class="st7" d="M24.8,8.2c1.8-0.4,1.9-3.2-0.3-3.4C21.1,4.6,10.1,5.3,7.1,5.4C4.4,5.5,5.1,8.1,6.9,8.2
						C9.5,8.2,21.9,8.9,24.8,8.2L24.8,8.2z"/>
					<path class="st8" d="M24.8,8.1c1.7-0.4,1.8-3-0.3-3.2C21.2,4.7,10,5.4,7.2,5.5C4.6,5.5,5.2,8,7,8C9.5,8.1,21.8,8.7,24.8,8.1z"
						/>
					<path class="st9" d="M24.7,7.9c1.7-0.3,1.7-2.9-0.3-3C21.3,4.7,10,5.4,7.2,5.5C4.7,5.6,5.2,7.9,6.9,7.9
						C9.4,8,21.7,8.6,24.7,7.9L24.7,7.9z"/>
					<path class="st10" d="M24.6,7.8c1.6-0.3,1.6-2.7-0.3-2.8C21.4,4.8,10,5.5,7.2,5.6C4.9,5.6,5.3,7.8,7,7.8
						C9.3,7.9,21.7,8.4,24.6,7.8z"/>
					<path class="st11" d="M24.5,7.7C26,7.4,26,5.2,24.2,5C21.4,4.9,9.9,5.5,7.2,5.6C5,5.7,5.4,7.7,7,7.7C9.3,7.7,21.6,8.2,24.5,7.7
						L24.5,7.7z"/>
					<path class="st12" d="M24.4,7.5c1.5-0.3,1.4-2.3-0.3-2.4c-2.6-0.2-14.3,0.5-17,0.6c-2,0.1-1.7,1.9-0.2,1.9
						C9.2,7.6,21.5,8,24.4,7.5L24.4,7.5z"/>
					<path class="st13" d="M24.3,7.4c1.4-0.2,1.3-2.2-0.3-2.3C21.6,5,9.8,5.6,7.2,5.7C5.3,5.7,5.6,7.5,6.9,7.5
						C9.1,7.5,21.5,7.9,24.3,7.4z"/>
					<path class="st14" d="M24.2,7.3c1.3-0.2,1.3-2-0.3-2.1C21.7,5.1,9.8,5.7,7.2,5.7C5.4,5.8,5.7,7.4,6.9,7.4
						C9.1,7.4,21.4,7.7,24.2,7.3L24.2,7.3z"/>
					<path class="st15" d="M24.2,7.1c1.2-0.2,1.2-1.8-0.3-1.9C21.7,5.1,9.7,5.7,7.2,5.8c-1.6,0-1.4,1.5-0.2,1.5
						C9,7.2,21.4,7.5,24.2,7.1z"/>
					<path class="st16" d="M24.1,7c1.1-0.2,1.1-1.7-0.3-1.7c-2-0.1-14.1,0.5-16.6,0.6c-1.5,0-1.3,1.3-0.2,1.3C9,7.1,21.3,7.4,24.1,7
						z"/>
					<path class="st17" d="M24,6.8c1.1-0.1,1-1.5-0.3-1.5c-1.8-0.1-14,0.5-16.5,0.6C5.8,5.9,5.9,7,6.9,7C8.9,7,21.2,7.2,24,6.8
						L24,6.8z"/>
					<path class="st18" d="M23.9,6.7c1-0.1,0.9-1.3-0.3-1.4c-1.6,0-14,0.5-16.4,0.6C6,6,6,6.9,6.9,6.9C8.8,6.9,21.1,7,23.9,6.7
						L23.9,6.7z"/>
					<path class="st19" d="M23.8,6.6c0.9-0.1,0.8-1.2-0.3-1.2C22,5.4,9.6,5.9,7.2,6C6.1,6,6.1,6.8,6.9,6.8
						C8.8,6.8,21.1,6.8,23.8,6.6L23.8,6.6z"/>
					<path class="st20" d="M23.7,6.4c0.8-0.1,0.7-1-0.3-1C22.1,5.4,9.5,5.9,7.2,6c-0.9,0-1,0.7-0.3,0.7C8.7,6.6,21,6.6,23.7,6.4z"/>
					<path class="st21" d="M23.6,6.3c0.8,0,0.6-0.8-0.4-0.8C22.2,5.5,9.5,6,7.2,6.1c-0.8,0-0.9,0.5-0.3,0.5
						C8.6,6.5,20.9,6.4,23.6,6.3z"/>
				</g>
				<path class="st22" d="M25,4.8C25,5.5,24.5,6,23.9,6L6.3,6.5c-0.6,0-1.2-0.5-1.2-1.1l0,0c0-0.6,0.5-1.2,1.1-1.2l17.6-0.5
					C24.5,3.7,25,4.2,25,4.8L25,4.8z"/>
				<path class="st24" d="M25.1,5c0,0.6-0.5,1.2-1.1,1.2L6.5,6.7c-0.6,0-1.2-0.5-1.2-1.1l0,0c0-0.6,0.5-1.2,1.1-1.2L24,3.9
					C24.6,3.8,25.1,4.3,25.1,5L25.1,5z"/>
			</g>
			<g>
				<g>
					<path class="st0" d="M17,5.4c1.8-0.7,1.9-3.7-0.3-4C13.1,1,9.3,1.6,6.8,1.7C3.9,1.7,4.9,5,6.9,5.1C9.2,5.2,14.6,6.2,17,5.4
						L17,5.4z"/>
					<path class="st1" d="M16.9,5.3c1.7-0.6,1.8-3.6-0.3-3.8C13.2,1,9.2,1.6,6.8,1.7C4,1.8,5,4.9,6.9,5C9.1,5.1,14.5,6.1,16.9,5.3
						L16.9,5.3z"/>
					<path class="st2" d="M16.8,5.2c1.7-0.6,1.7-3.5-0.3-3.7c-3.3-0.4-7.3,0.2-9.8,0.3C4.1,1.8,5,4.8,6.8,4.9C9.1,5,14.5,6,16.8,5.2
						L16.8,5.2z"/>
					<path class="st3" d="M16.7,5c1.6-0.5,1.7-3.3-0.3-3.5c-3.2-0.4-7.3,0.2-9.7,0.3c-2.5,0.1-1.7,3,0,3C9,4.9,14.4,5.8,16.7,5
						L16.7,5z"/>
					<path class="st4" d="M16.7,4.9c1.6-0.5,1.6-3.2-0.3-3.4c-3-0.4-7.3,0.2-9.6,0.3c-2.4,0.1-1.6,2.8,0,2.9
						C8.9,4.8,14.4,5.7,16.7,4.9L16.7,4.9z"/>
					<path class="st5" d="M16.6,4.8c1.5-0.5,1.5-3-0.3-3.2c-2.9-0.3-7.2,0.2-9.5,0.3c-2.3,0.1-1.6,2.7,0,2.8
						C8.9,4.7,14.3,5.5,16.6,4.8L16.6,4.8z"/>
					<path class="st6" d="M16.5,4.7C18,4.3,18,1.8,16.3,1.6c-2.8-0.3-7.2,0.2-9.5,0.3C4.6,2,5.3,4.5,6.8,4.5
						C8.8,4.6,14.3,5.4,16.5,4.7L16.5,4.7z"/>
					<path class="st7" d="M16.5,4.6c1.4-0.4,1.4-2.8-0.3-2.9C13.5,1.4,9,1.9,6.8,2C4.7,2,5.3,4.4,6.8,4.4C8.7,4.5,14.2,5.3,16.5,4.6
						z"/>
					<path class="st8" d="M16.4,4.5c1.3-0.4,1.3-2.6-0.3-2.8C13.6,1.5,9,2,6.8,2c-2,0.1-1.4,2.3,0,2.3C8.7,4.4,14.1,5.1,16.4,4.5
						L16.4,4.5z"/>
					<path class="st9" d="M16.3,4.4c1.3-0.3,1.3-2.5-0.3-2.6C13.7,1.5,9,2,6.8,2.1c-1.9,0.1-1.3,2.2,0,2.2C8.7,4.3,14.1,5,16.3,4.4
						L16.3,4.4z"/>
					<path class="st10" d="M16.3,4.3C17.5,4,17.4,1.9,16,1.8c-2.3-0.2-7,0.2-9.2,0.3c-1.8,0.1-1.3,2,0,2.1C8.6,4.2,14,4.8,16.3,4.3z
						"/>
					<path class="st11" d="M16.2,4.2c1.2-0.3,1.1-2.2-0.3-2.3c-2.1-0.2-7,0.2-9.1,0.3C5.1,2.2,5.6,4,6.7,4.1
						C8.5,4.1,14,4.7,16.2,4.2L16.2,4.2z"/>
					<path class="st12" d="M16.1,4.1c1.1-0.3,1.1-2.1-0.3-2.2c-2-0.2-6.9,0.3-9,0.3C5.2,2.2,5.6,3.9,6.7,4C8.5,4,13.9,4.5,16.1,4.1
						L16.1,4.1z"/>
					<path class="st13" d="M16,3.9c1.1-0.2,1-1.9-0.3-2c-1.9-0.2-6.9,0.3-9,0.3c-1.5,0-1.1,1.6-0.1,1.6C8.4,3.9,13.8,4.4,16,3.9z"/>
					<path class="st14" d="M16,3.8c1-0.2,0.9-1.8-0.3-1.9c-1.8-0.1-6.9,0.3-8.9,0.3c-1.3,0-1.1,1.5-0.1,1.5C8.3,3.8,13.8,4.3,16,3.8
						z"/>
					<path class="st15" d="M15.9,3.7c0.9-0.2,0.9-1.6-0.3-1.7C14,1.9,8.8,2.3,6.8,2.3c-1.2,0-1,1.3-0.1,1.3
						C8.3,3.7,13.7,4.1,15.9,3.7z"/>
					<path class="st16" d="M15.8,3.6c0.9-0.1,0.8-1.5-0.3-1.6C14,2,8.8,2.3,6.8,2.4c-1.1,0-1,1.2-0.1,1.2C8.2,3.6,13.7,4,15.8,3.6z"
						/>
					<path class="st17" d="M15.8,3.5c0.8-0.1,0.7-1.4-0.3-1.4C14.1,2,8.7,2.4,6.8,2.4c-1,0-0.9,1.1-0.1,1.1
						C8.2,3.5,13.6,3.8,15.8,3.5z"/>
					<path class="st18" d="M15.7,3.4c0.8-0.1,0.6-1.2-0.3-1.3c-1.2-0.1-6.7,0.3-8.6,0.3C5.9,2.5,6,3.4,6.7,3.4
						C8.1,3.4,13.6,3.7,15.7,3.4L15.7,3.4z"/>
					<path class="st19" d="M15.6,3.3c0.7-0.1,0.6-1.1-0.3-1.1c-1.1,0-6.7,0.3-8.5,0.4C6,2.6,6,3.3,6.7,3.3
						C8.1,3.3,13.5,3.5,15.6,3.3z"/>
					<path class="st20" d="M15.5,3.2c0.6,0,0.5-0.9-0.3-1c-1,0-6.6,0.3-8.4,0.3c-0.7,0-0.8,0.7-0.2,0.6C8,3.2,13.5,3.3,15.5,3.2
						L15.5,3.2z"/>
					<path class="st21" d="M15.5,3.1c0.6,0,0.4-0.8-0.3-0.8c-0.9,0-6.6,0.3-8.4,0.4c-0.6,0-0.7,0.5-0.2,0.5
						C7.9,3.1,13.4,3.2,15.5,3.1z"/>
				</g>
				<path class="st22" d="M16.1,1.7c0,0.6-0.5,1.2-1.1,1.2L5.8,3.1C5.2,3.1,4.7,2.6,4.7,2l0,0c0-0.6,0.5-1.2,1.1-1.2L15,0.6
					C15.6,0.5,16.1,1,16.1,1.7L16.1,1.7z"/>
				<path class="st23" d="M16.3,1.8c0,0.6-0.5,1.2-1.1,1.2L6,3.2c-0.6,0-1.2-0.5-1.2-1.1l0,0c0-0.6,0.5-1.2,1.1-1.2l9.2-0.3
					C15.7,0.7,16.3,1.2,16.3,1.8C16.3,1.8,16.3,1.8,16.3,1.8z"/>
			</g>
			<g>
				<g>
					<path class="st0" d="M20.7,7c1.8-0.7,2.1-3.9-0.1-4.1c-3.5-0.4-7.4,0.2-9.9,0.3c-2.8,0.1-2.1,3.2-0.2,3.5
						C12.9,7.1,18.3,7.9,20.7,7L20.7,7z"/>
					<path class="st1" d="M20.6,6.9c1.7-0.6,2-3.7-0.1-3.9c-3.4-0.4-7.4,0.2-9.8,0.3c-2.7,0.1-2,3-0.2,3.4C12.8,7,18.2,7.7,20.6,6.9
						z"/>
					<path class="st2" d="M20.6,6.8c1.7-0.6,1.9-3.6-0.1-3.8c-3.3-0.4-7.3,0.2-9.8,0.3c-2.6,0.1-1.9,2.9-0.2,3.2
						C12.8,6.9,18.2,7.6,20.6,6.8z"/>
					<path class="st3" d="M20.5,6.7c1.6-0.5,1.9-3.4-0.1-3.6c-3.2-0.4-7.3,0.2-9.7,0.3c-2.5,0.1-1.9,2.8-0.2,3.1
						C12.7,6.7,18.2,7.5,20.5,6.7z"/>
					<path class="st4" d="M20.4,6.6c1.6-0.5,1.8-3.3-0.1-3.5c-3-0.4-7.3,0.2-9.6,0.3C8.3,3.4,8.9,6,10.6,6.3
						C12.7,6.6,18.1,7.3,20.4,6.6z"/>
					<path class="st5" d="M20.4,6.5c1.5-0.5,1.7-3.1-0.1-3.3c-2.9-0.3-7.2,0.2-9.5,0.3C8.4,3.5,9,5.9,10.5,6.2
						C12.6,6.5,18.1,7.2,20.4,6.5L20.4,6.5z"/>
					<path class="st6" d="M20.3,6.3c1.5-0.4,1.6-3-0.1-3.2c-2.8-0.3-7.2,0.2-9.5,0.3C8.5,3.5,9,5.9,10.5,6.1C12.6,6.4,18,7,20.3,6.3
						L20.3,6.3z"/>
					<path class="st7" d="M20.3,6.2c1.4-0.4,1.5-2.8-0.1-3c-2.6-0.3-7.1,0.2-9.4,0.3C8.6,3.6,9.1,5.8,10.6,6
						C12.6,6.3,18,6.9,20.3,6.2z"/>
					<path class="st8" d="M20.2,6.1c1.3-0.4,1.5-2.7-0.1-2.9c-2.5-0.3-7.1,0.2-9.3,0.3c-2,0.1-1.5,2.2-0.2,2.4
						C12.5,6.2,17.9,6.7,20.2,6.1z"/>
					<path class="st9" d="M20.1,6c1.3-0.3,1.4-2.5-0.2-2.7c-2.4-0.2-7.1,0.2-9.2,0.3c-1.9,0.1-1.5,2-0.2,2.2
						C12.4,6.1,17.9,6.6,20.1,6z"/>
					<path class="st10" d="M20.1,5.9c1.2-0.3,1.3-2.4-0.2-2.5c-2.3-0.2-7,0.2-9.2,0.3c-1.8,0.1-1.4,1.9-0.2,2.1
						C12.4,5.9,17.8,6.4,20.1,5.9z"/>
					<path class="st11" d="M20,5.8c1.2-0.3,1.2-2.3-0.2-2.4c-2.1-0.2-7,0.2-9.1,0.3c-1.7,0-1.3,1.8-0.2,1.9
						C12.4,5.8,17.8,6.3,20,5.8z"/>
					<path class="st12" d="M19.9,5.6c1.1-0.3,1.1-2.1-0.2-2.2c-2-0.2-6.9,0.3-9,0.3c-1.6,0-1.3,1.7-0.2,1.8
						C12.3,5.7,17.8,6.1,19.9,5.6L19.9,5.6z"/>
					<path class="st13" d="M19.9,5.5c1.1-0.2,1.1-2-0.2-2.1c-1.9-0.2-6.9,0.3-9,0.3c-1.5,0-1.2,1.5-0.2,1.6
						C12.3,5.6,17.7,6,19.9,5.5L19.9,5.5z"/>
					<path class="st14" d="M19.8,5.4c1-0.2,1-1.8-0.2-1.9c-1.8-0.1-6.9,0.3-8.9,0.3c-1.3,0-1.1,1.4-0.2,1.5
						C12.2,5.5,17.7,5.8,19.8,5.4L19.8,5.4z"/>
					<path class="st15" d="M19.8,5.3c0.9-0.2,0.9-1.7-0.2-1.8c-1.6-0.1-6.8,0.3-8.8,0.3c-1.2,0-1.1,1.3-0.2,1.4
						C12.2,5.4,17.6,5.7,19.8,5.3L19.8,5.3z"/>
					<path class="st16" d="M19.7,5.2c0.9-0.1,0.8-1.5-0.2-1.6c-1.5-0.1-6.8,0.3-8.7,0.3c-1.1,0-1,1.2-0.2,1.2
						C12.1,5.2,17.6,5.5,19.7,5.2L19.7,5.2z"/>
					<path class="st17" d="M19.6,5.1c0.8-0.1,0.8-1.4-0.2-1.4C18,3.6,12.6,3.9,10.7,4c-1,0-1,1-0.2,1.1C12.1,5.1,17.5,5.4,19.6,5.1
						L19.6,5.1z"/>
					<path class="st18" d="M19.6,5c0.8-0.1,0.7-1.2-0.2-1.3C18.1,3.6,12.6,4,10.8,4c-0.9,0-0.9,0.9-0.2,0.9C12,5,17.5,5.2,19.6,5z"
						/>
					<path class="st19" d="M19.5,4.8c0.7-0.1,0.6-1.1-0.3-1.1c-1.1,0-6.7,0.3-8.5,0.4c-0.8,0-0.8,0.8-0.2,0.8
						C12,4.9,17.4,5,19.5,4.8L19.5,4.8z"/>
					<path class="st20" d="M19.5,4.7c0.6,0,0.5-1-0.3-1c-1,0-6.6,0.3-8.4,0.3c-0.7,0-0.8,0.6-0.2,0.6C11.9,4.7,17.4,4.9,19.5,4.7z"
						/>
					<path class="st21" d="M19.4,4.6c0.6,0,0.4-0.8-0.3-0.8c-0.9,0-6.6,0.3-8.4,0.4c-0.6,0-0.7,0.5-0.2,0.5
						C11.9,4.6,17.3,4.7,19.4,4.6z"/>
				</g>
				<path class="st22" d="M20.2,3.3c0,0.6-0.5,1.2-1.1,1.2L9.9,4.8c-0.6,0-1.2-0.5-1.2-1.1l0,0c0-0.6,0.5-1.2,1.1-1.2L19,2.2
					C19.7,2.2,20.2,2.7,20.2,3.3C20.2,3.3,20.2,3.3,20.2,3.3z"/>
			</g>
			<g>
				<g>
					<path class="st0" d="M22,15.8c2.3-0.7,2.8-3.9,0-4.2c-4.6-0.4-9.6,0.3-12.9,0.4c-3.7,0.1-2.5,3.5,0,3.6
						C12.1,15.7,18.9,16.7,22,15.8L22,15.8z"/>
					<path class="st1" d="M21.9,15.7c2.3-0.6,2.7-3.8,0-4c-4.4-0.4-9.6,0.3-12.8,0.4c-3.6,0.1-2.4,3.4,0,3.4
						C12.1,15.6,18.8,16.6,21.9,15.7z"/>
					<path class="st2" d="M21.8,15.6c2.2-0.6,2.6-3.6,0-3.8c-4.3-0.4-9.5,0.3-12.7,0.4c-3.4,0.1-2.3,3.2,0,3.3
						C12,15.5,18.8,16.4,21.8,15.6z"/>
					<path class="st3" d="M21.8,15.5c2.1-0.6,2.5-3.5-0.1-3.7c-4.1-0.3-9.5,0.3-12.6,0.4c-3.3,0.1-2.2,3.1,0,3.1
						C11.9,15.4,18.7,16.3,21.8,15.5L21.8,15.5z"/>
					<path class="st4" d="M21.7,15.4c2-0.5,2.4-3.3-0.1-3.5c-3.9-0.3-9.4,0.3-12.5,0.4c-3.1,0.1-2.2,2.9,0,3
						C11.8,15.3,18.7,16.1,21.7,15.4L21.7,15.4z"/>
					<path class="st5" d="M21.6,15.2c2-0.5,2.3-3.2-0.1-3.4c-3.8-0.3-9.4,0.3-12.4,0.4c-3,0.1-2.1,2.8,0,2.9
						C11.8,15.2,18.6,16,21.6,15.2L21.6,15.2z"/>
					<path class="st6" d="M21.5,15.1c1.9-0.5,2.2-3-0.1-3.2c-3.6-0.3-9.3,0.3-12.3,0.4c-2.9,0.1-2,2.7,0,2.7
						C11.7,15.1,18.6,15.8,21.5,15.1L21.5,15.1z"/>
					<path class="st7" d="M21.5,15c1.8-0.4,2.1-2.9-0.1-3c-3.4-0.3-9.3,0.3-12.2,0.4c-2.7,0.1-1.9,2.5-0.1,2.6
						C11.6,15,18.5,15.7,21.5,15z"/>
					<path class="st8" d="M21.4,14.9c1.7-0.4,2-2.7-0.1-2.9C18,11.8,12,12.3,9.1,12.4c-2.6,0.1-1.9,2.4-0.1,2.4
						C11.5,14.9,18.4,15.6,21.4,14.9L21.4,14.9z"/>
					<path class="st9" d="M21.3,14.8c1.7-0.3,1.8-2.6-0.2-2.7c-3.1-0.2-9.2,0.3-12,0.4c-2.4,0.1-1.8,2.2-0.1,2.3
						C11.5,14.7,18.4,15.4,21.3,14.8z"/>
					<path class="st10" d="M21.2,14.7c1.6-0.3,1.7-2.4-0.2-2.6c-2.9-0.2-9.1,0.3-11.9,0.4c-2.3,0.1-1.7,2.1-0.1,2.1
						C11.4,14.6,18.3,15.2,21.2,14.7z"/>
					<path class="st11" d="M21.2,14.6c1.5-0.3,1.6-2.3-0.2-2.4c-2.8-0.2-9.1,0.3-11.8,0.4c-2.2,0.1-1.7,1.9-0.1,2
						C11.3,14.5,18.3,15.1,21.2,14.6L21.2,14.6z"/>
					<path class="st12" d="M21.1,14.4c1.5-0.3,1.5-2.1-0.2-2.2c-2.6-0.2-9,0.3-11.8,0.4c-2,0.1-1.6,1.8-0.1,1.8
						C11.3,14.4,18.2,14.9,21.1,14.4z"/>
					<path class="st13" d="M21,14.3c1.4-0.2,1.4-2-0.2-2.1c-2.4-0.1-9,0.3-11.7,0.4c-1.9,0.1-1.5,1.7-0.1,1.7
						C11.2,14.3,18.2,14.8,21,14.3L21,14.3z"/>
					<path class="st14" d="M20.9,14.2c1.3-0.2,1.3-1.8-0.2-1.9c-2.3-0.1-9,0.3-11.6,0.4c-1.8,0.1-1.4,1.5-0.2,1.5
						C11.1,14.2,18.1,14.6,20.9,14.2L20.9,14.2z"/>
					<path class="st15" d="M20.8,14.1c1.2-0.2,1.2-1.7-0.3-1.8c-2.1-0.1-8.9,0.3-11.5,0.4c-1.6,0-1.3,1.4-0.2,1.4
						C11,14.1,18,14.5,20.8,14.1L20.8,14.1z"/>
					<path class="st16" d="M20.8,14c1.1-0.2,1.1-1.5-0.3-1.6c-2-0.1-8.9,0.3-11.4,0.4C7.6,12.8,7.9,14,9,14C11,14,18,14.3,20.8,14
						L20.8,14z"/>
					<path class="st17" d="M20.7,13.9c1.1-0.1,1-1.4-0.3-1.4c-1.8-0.1-8.8,0.3-11.3,0.4c-1.3,0-1.2,1.1-0.2,1.1
						C10.9,13.9,17.9,14.2,20.7,13.9L20.7,13.9z"/>
					<path class="st18" d="M20.6,13.7c1-0.1,0.9-1.3-0.3-1.3c-1.6,0-8.8,0.3-11.2,0.4c-1.2,0-1.1,1-0.2,0.9
						C10.8,13.8,17.9,14,20.6,13.7L20.6,13.7z"/>
					<path class="st19" d="M20.5,13.6c0.9-0.1,0.8-1.1-0.3-1.1c-1.5,0-8.7,0.3-11.1,0.4c-1.1,0-1.1,0.8-0.2,0.8
						C10.7,13.7,17.8,13.8,20.5,13.6L20.5,13.6z"/>
					<path class="st20" d="M20.5,13.5c0.8-0.1,0.7-1-0.3-1c-1.3,0-8.7,0.4-11,0.4c-0.9,0-1,0.7-0.3,0.6
						C10.7,13.6,17.7,13.7,20.5,13.5z"/>
					<path class="st21" d="M20.4,13.4c0.8,0,0.6-0.8-0.4-0.8c-1.1,0-8.6,0.4-10.9,0.4c-0.8,0-0.9,0.5-0.3,0.5
						C10.6,13.5,17.7,13.5,20.4,13.4z"/>
				</g>
				<path class="st22" d="M21.7,11.9c0,0.6-0.5,1.2-1.1,1.2L8.3,13.5c-0.6,0-1.2-0.5-1.2-1.1l0,0c0-0.6,0.5-1.2,1.1-1.2l12.4-0.4
					C21.2,10.8,21.7,11.3,21.7,11.9L21.7,11.9z"/>
				<path class="st23" d="M21.9,12.1c0,0.6-0.5,1.2-1.1,1.2L8.4,13.6c-0.6,0-1.2-0.5-1.2-1.1l0,0c0-0.6,0.5-1.2,1.1-1.2L20.7,11
					C21.3,10.9,21.9,11.4,21.9,12.1L21.9,12.1z"/>
			</g>
		</g>
	</g>
</g>
</svg>
