<?xml version="1.0" encoding="utf-8"?>
<!-- Generator: Adobe Illustrator 27.0.1, SVG Export Plug-In . SVG Version: 6.00 Build 0)  -->
<svg version="1.1" id="Ebene_1" xmlns="http://www.w3.org/2000/svg" xmlns:xlink="http://www.w3.org/1999/xlink" x="0px" y="0px"
	 viewBox="0 0 24.4 16.7" style="enable-background:new 0 0 24.4 16.7;" xml:space="preserve">
<style type="text/css">
	.st0{fill:#FFFFFF;fill-opacity:0;}
	.st1{opacity:5.000000e-02;fill:#F9FBFB;enable-background:new    ;}
	.st2{opacity:0.1;fill:#F4F6F8;enable-background:new    ;}
	.st3{opacity:0.14;fill:#EEF2F4;enable-background:new    ;}
	.st4{opacity:0.19;fill:#E9EDF1;enable-background:new    ;}
	.st5{opacity:0.24;fill:#E3E9ED;enable-background:new    ;}
	.st6{opacity:0.29;fill:#DEE5EA;enable-background:new    ;}
	.st7{opacity:0.33;fill:#D8E0E6;enable-background:new    ;}
	.st8{opacity:0.38;fill:#D3DCE3;enable-background:new    ;}
	.st9{opacity:0.43;fill:#CDD8DF;enable-background:new    ;}
	.st10{opacity:0.48;fill:#C8D3DC;enable-background:new    ;}
	.st11{opacity:0.52;fill:#C2CFD8;enable-background:new    ;}
	.st12{opacity:0.57;fill:#BDCAD5;enable-background:new    ;}
	.st13{opacity:0.62;fill:#B7C6D1;enable-background:new    ;}
	.st14{opacity:0.67;fill:#B2C2CE;enable-background:new    ;}
	.st15{opacity:0.71;fill:#ACBDCA;enable-background:new    ;}
	.st16{opacity:0.76;fill:#A7B9C7;enable-background:new    ;}
	.st17{opacity:0.81;fill:#A1B5C3;enable-background:new    ;}
	.st18{opacity:0.86;fill:#9CB0C0;enable-background:new    ;}
	.st19{opacity:0.9;fill:#96ACBC;enable-background:new    ;}
	.st20{opacity:0.95;fill:#91A7B9;enable-background:new    ;}
	.st21{fill:#8BA3B5;}
	.st22{fill:#FFFFFF;}
	.st23{fill:#D5E4E9;}
	.st24{fill:#E4EEF2;}
	.st25{fill:#AEC9CC;}
	.st26{fill:#E4EBED;}
	.st27{fill:#DAE4E8;}
	.st28{fill:#CDDFE7;}
</style>
<g>
	<g>
		<path class="st0" d="M18.6,9.7c2.2-0.6,2.7-3.5,0.1-3.9C14.4,5.4,4.9,6,1.9,6.1c-3.5,0.1-2.4,2.8-0.1,3.3
			C4.9,10.1,15.7,10.4,18.6,9.7L18.6,9.7z"/>
		<path class="st1" d="M18.4,9.6c2.1-0.5,2.6-3.4,0-3.6c-4-0.4-13.6,0.1-16.6,0.2c-3.2,0-2.3,2.7-0.2,3.2
			C4.9,9.9,15.5,10.4,18.4,9.6z"/>
		<path class="st2" d="M18.4,9.5c2.1-0.5,2.4-3.3,0-3.5C14.5,5.6,4.8,6.1,1.9,6.2c-3.1,0-2.3,2.7-0.2,3.1
			C4.8,9.8,15.5,10.3,18.4,9.5z"/>
		<path class="st3" d="M18.3,9.4c2-0.5,2.4-3.2,0-3.4C14.5,5.6,4.7,6.1,1.8,6.2c-3,0-2.2,2.5-0.3,3C4.6,9.7,15.5,10.1,18.3,9.4
			L18.3,9.4z"/>
		<path class="st4" d="M18.3,9.2c1.9-0.5,2.3-3,0-3.3C14.7,5.6,4.8,6.1,1.9,6.2c-3,0-2.2,2.4-0.2,2.8C4.6,9.6,15.4,9.9,18.3,9.2z"/>
		<path class="st5" d="M18.2,9.1c1.9-0.3,2.2-2.8,0.1-3.1C14.7,5.8,4.6,6.2,1.9,6.3S-0.1,8.6,1.8,9C4.5,9.4,15.4,9.8,18.2,9.1
			L18.2,9.1z"/>
		<path class="st6" d="M18.1,9c1.7-0.3,2.2-2.7,0-3C14.6,5.8,4.6,6.2,1.8,6.3c-2.5,0-2,2.2-0.1,2.5C4.4,9.3,15.3,9.7,18.1,9L18.1,9z
			"/>
		<path class="st7" d="M18.1,8.9c1.7-0.3,2.1-2.6,0-2.8C14.8,5.9,4.6,6.3,1.9,6.4c-2.5,0-2,2.1-0.2,2.4C4.4,9.2,15.3,9.6,18.1,8.9z"
			/>
		<path class="st8" d="M18,8.8c1.6-0.3,2-2.5,0-2.6C14.9,6,4.5,6.4,1.8,6.5c-2.4,0-1.9,1.9-0.2,2.3C4.3,9.1,15.3,9.5,18,8.8z"/>
		<path class="st9" d="M18,8.7c1.5-0.2,1.9-2.4,0-2.5C15,6.1,4.6,6.4,1.9,6.5c-2.3,0-1.8,1.8-0.2,2C4.2,9,15.2,9.2,18,8.7L18,8.7z"
			/>
		<path class="st10" d="M17.9,8.6c1.5-0.2,1.7-2.2,0-2.4C15,6.1,4.5,6.4,1.9,6.5c-2.2,0.1-1.8,1.8-0.2,2C4.2,8.8,15.2,9.1,17.9,8.6
			L17.9,8.6z"/>
		<path class="st11" d="M17.9,8.4c1.4-0.2,1.6-2.1-0.1-2.3C15.2,6,4.5,6.3,1.9,6.4c-2,0-1.6,1.6-0.2,1.8C4.1,8.6,15.1,9,17.9,8.4
			L17.9,8.4z"/>
		<path class="st12" d="M17.7,8.3c1.4-0.2,1.5-1.9-0.1-2.1C15.1,6.1,4.3,6.4,1.7,6.5c-1.9,0-1.5,1.5-0.2,1.7
			C4,8.5,15.1,8.9,17.7,8.3z"/>
		<path class="st13" d="M17.7,8.2C19,8,19,6.4,17.5,6.3C15.2,6.2,4.3,6.5,1.9,6.6C0.1,6.7,0.5,8.1,1.8,8.2C4,8.4,15.1,8.7,17.7,8.2z
			"/>
		<path class="st14" d="M17.6,8.1c1.2-0.1,1.3-1.7-0.1-1.8C15.3,6.2,4.3,6.5,1.9,6.6C0.3,6.6,0.6,7.9,1.8,8C3.8,8.3,15,8.5,17.6,8.1
			z"/>
		<path class="st15" d="M17.5,8c1.2-0.1,1.2-1.5-0.1-1.6c-2-0.1-13.1,0.3-15.4,0.3C0.4,6.8,0.7,8,1.8,8.1C3.7,8.2,15,8.4,17.5,8
			L17.5,8z"/>
		<path class="st16" d="M17.5,7.9c1-0.1,1-1.4-0.2-1.5c-1.7-0.1-13,0.3-15.3,0.3c-1.4,0-1.3,1-0.2,1.1C3.7,8.1,14.8,8.3,17.5,7.9
			L17.5,7.9z"/>
		<path class="st17" d="M17.4,7.8c1-0.1,0.9-1.3-0.2-1.4c-1.6,0-12.9,0.3-15.2,0.3c-1.3,0-1.2,0.9-0.2,1C3.6,8,14.8,8.1,17.4,7.8z"
			/>
		<path class="st18" d="M17.4,7.7c0.9-0.1,0.9-1.1-0.2-1.1c-1.5-0.2-13,0.2-15.2,0.2c-1.2,0-1,0.8-0.2,0.9C3.5,7.7,14.8,8,17.4,7.7
			L17.4,7.7z"/>
		<path class="st19" d="M17.3,7.5c0.8,0,0.8-1-0.2-1C15.6,6.4,4.1,6.8,1.9,6.9c-1,0-1,0.7-0.2,0.7C3.5,7.6,14.7,7.9,17.3,7.5
			L17.3,7.5z"/>
		<path class="st20" d="M17.3,7.5c0.8,0,0.7-0.9-0.2-0.9C15.8,6.6,4.1,6.9,2,7c-1-0.1-1,0.5-0.3,0.6C3.4,7.5,14.7,7.6,17.3,7.5z"/>
		<path class="st21" d="M17.2,7.4c0.7,0,0.6-0.7-0.3-0.8c-1,0-12.7,0.3-15,0.3C1.1,7,1.1,7.5,1.8,7.5C3.3,7.4,14.6,7.5,17.2,7.4z"/>
	</g>
	<path class="st22" d="M18.3,6.1c0,0.6-0.5,1-1,1L1.1,7.4c-0.6,0-1-0.5-1-1l0,0c0-0.6,0.5-1,1-1l16.3-0.2C17.9,5,18.3,5.5,18.3,6.1
		L18.3,6.1z"/>
	<path class="st23" d="M18.5,6.2c0,0.6-0.5,1-1,1L1.3,7.5c-0.6,0-1-0.5-1-1l0,0c0-0.6,0.5-1,1-1l16.3-0.2C18,5.1,18.5,5.6,18.5,6.2
		L18.5,6.2z"/>
</g>
<g>
	<g>
		<path class="st0" d="M23.2,8.5c2.2-0.6,2.4-3.9-0.2-4.2C18.7,3.9,9.2,4.5,6.2,4.6C2.7,4.5,3.7,8,6,8.1C8.9,8.2,20.3,9.2,23.2,8.5
			L23.2,8.5z"/>
		<path class="st1" d="M23.2,8.3c2.1-0.5,2.3-3.8-0.2-4.1C18.9,3.8,9.3,4.4,6.3,4.5c-3.2,0-2.4,3.3-0.1,3.4
			C8.8,8.1,20.3,9.1,23.2,8.3L23.2,8.3z"/>
		<path class="st2" d="M23.1,8.2c2.1-0.5,2.2-3.6-0.2-3.9C19,3.9,9.2,4.5,6.3,4.6C3.2,4.6,4,7.7,6.2,7.8C8.8,8,20.2,9,23.1,8.2z"/>
		<path class="st3" d="M23,8.1c2-0.5,2.1-3.4-0.2-3.8C19,3.9,9.1,4.5,6.2,4.6c-3,0-2.3,3-0.2,3.1C8.7,8,20.2,8.9,23,8.1L23,8.1z"/>
		<path class="st4" d="M23,8c1.9-0.5,2-3.3-0.2-3.5C19.2,4.1,9.2,4.7,6.3,4.8s-2.2,2.8-0.2,3C8.7,7.9,20.1,8.7,23,8z"/>
		<path class="st5" d="M22.8,7.9c1.9-0.3,2.1-3.2-0.2-3.4C19.1,4.3,9,4.7,6.3,4.8c-2.7,0-2.2,2.7-0.2,2.8C8.6,7.7,20.1,8.6,22.8,7.9
			L22.8,7.9z"/>
		<path class="st6" d="M22.7,7.7c1.7-0.3,2-3-0.1-3.2C19.1,4.3,9.1,4.7,6.3,4.8c-2.7,0-2.1,2.6-0.2,2.7C8.6,7.6,19.9,8.3,22.7,7.7z"
			/>
		<path class="st7" d="M22.7,7.6c1.7-0.3,1.9-2.8-0.1-3.1C19.3,4.3,9.1,4.7,6.4,4.8C3.7,4.9,4.3,7.3,6.1,7.4
			C8.5,7.5,19.9,8.2,22.7,7.6L22.7,7.6z"/>
		<path class="st8" d="M22.6,7.4c1.6-0.3,1.7-2.7-0.1-2.8C19.4,4.4,9,4.8,6.3,4.9c-2.4,0-2,2.3-0.2,2.4C8.4,7.4,19.8,8.1,22.6,7.4z"
			/>
		<path class="st9" d="M22.5,7.3c1.6-0.2,1.7-2.5-0.1-2.7C19.4,4.5,9,4.8,6.3,4.9C4,4.9,4.4,7.1,6.1,7.1C8.3,7.3,19.8,7.9,22.5,7.3
			L22.5,7.3z"/>
		<path class="st10" d="M22.4,7.2c1.5-0.2,1.5-2.4-0.2-2.6C19.4,4.5,8.9,4.9,6.3,4.9C4.2,4.9,4.6,7,6.1,7C8.3,7.2,19.7,7.8,22.4,7.2
			z"/>
		<path class="st11" d="M22.3,7.1c1.4-0.2,1.5-2.3-0.2-2.4C19.6,4.6,8.9,5,6.3,5c-2,0-1.6,1.8-0.2,1.9C8.1,7.1,19.7,7.7,22.3,7.1
			L22.3,7.1z"/>
		<path class="st12" d="M22.2,7c1.4-0.2,1.4-2.1-0.3-2.3C19.5,4.6,8.7,5,6.1,5C4.2,5,4.5,6.7,5.9,6.8C8.1,6.9,19.6,7.4,22.2,7
			L22.2,7z"/>
		<path class="st13" d="M22.2,6.9C23.5,6.7,23.5,5,22,4.9C19.6,4.7,8.7,5.1,6.3,5.1c-1.8,0-1.5,1.6-0.2,1.6C8,6.8,19.5,7.3,22.2,6.9
			z"/>
		<path class="st14" d="M22.1,6.6c1.2-0.1,1.2-1.8-0.2-1.9C19.7,4.7,8.7,5.1,6.3,5.1c-1.6,0-1.4,1.5-0.2,1.5
			C8,6.7,19.4,7.1,22.1,6.6L22.1,6.6z"/>
		<path class="st15" d="M21.9,6.6c1.2-0.1,1.2-1.6-0.2-1.7c-1.9-0.1-13,0.3-15.4,0.3c-1.5,0-1.4,1.3-0.2,1.3
			C7.9,6.6,19.4,7,21.9,6.6z"/>
		<path class="st16" d="M21.9,6.5c1-0.1,1-1.5-0.2-1.6C19.8,4.8,8.6,5.2,6.3,5.2C4.9,5.2,5,6.3,6.1,6.3C7.9,6.5,19.3,6.9,21.9,6.5z"
			/>
		<path class="st17" d="M21.8,6.4c1-0.1,0.9-1.4-0.2-1.4C20,4.9,8.6,5.2,6.3,5.2c-1.3,0-1.2,1-0.2,1C7.8,6.4,19.3,6.6,21.8,6.4
			L21.8,6.4z"/>
		<path class="st18" d="M21.7,6.3c0.9-0.1,0.8-1.1-0.2-1.3C20,4.9,8.5,5.3,6.3,5.3c-1.2,0-1.2,0.9-0.2,0.9
			C7.8,6.3,19.2,6.5,21.7,6.3L21.7,6.3z"/>
		<path class="st19" d="M21.7,6.2c0.8,0,0.7-1-0.2-1C20.1,5,8.6,5.5,6.4,5.5c-1,0-1,0.7-0.2,0.7C7.7,6.1,19.2,6.3,21.7,6.2L21.7,6.2
			z"/>
		<path class="st20" d="M21.6,6.1c0.8,0,0.7-0.9-0.3-0.9c-1.2,0-12.9,0.3-15,0.3c-0.8,0-0.9,0.6-0.2,0.6C7.7,6,19,6.1,21.6,6.1z"/>
		<path class="st21" d="M21.6,5.9c0.7,0,0.6-0.7-0.3-0.8c-1,0-12.7,0.3-15,0.3C5.6,5.5,5.5,5.9,6.1,5.9C7.7,5.9,19,5.9,21.6,5.9z"/>
	</g>
	<path class="st22" d="M22.9,4.5c0,0.6-0.5,1-1,1L5.5,5.8c-0.6,0-1-0.5-1-1l0,0c0-0.6,0.5-1,1-1l16.3-0.2
		C22.4,3.4,22.9,3.9,22.9,4.5L22.9,4.5z"/>
	<path class="st24" d="M23,4.6c0,0.6-0.5,1-1,1L5.6,5.9c-0.6,0-1-0.5-1-1l0,0c0-0.6,0.5-1,1-1l16.3-0.2C22.5,3.6,23,4,23,4.6L23,4.6
		z"/>
</g>
<g>
	<g>
		<path class="st0" d="M15.3,5c1.7-0.6,1.8-3.4-0.2-3.6C12,0.9,8.4,1.5,6,1.5c-2.7,0-1.9,3,0,3.2C8.1,4.8,13.1,5.7,15.3,5L15.3,5z"
			/>
		<path class="st1" d="M15.3,4.9c1.6-0.5,1.7-3.2-0.2-3.5C12.1,0.9,8.4,1.5,6,1.5c-2.5,0-1.7,2.8,0,3.1C8.1,4.7,13.1,5.6,15.3,4.9
			L15.3,4.9z"/>
		<path class="st2" d="M15.2,4.8c1.6-0.5,1.7-3.1-0.2-3.4c-3-0.5-6.8,0.1-9,0.1c-2.4,0-1.7,2.7,0,2.8C8,4.5,13,5.5,15.2,4.8
			L15.2,4.8z"/>
		<path class="st3" d="M15.2,4.7c1.5-0.5,1.6-3-0.1-3.2C12.2,1,8.4,1.6,6.2,1.6c-2.3,0-1.6,2.6,0,2.7C8,4.4,13,5.4,15.2,4.7
			L15.2,4.7z"/>
		<path class="st4" d="M15.1,4.6C16.6,4,16.7,1.7,15,1.5C12.2,1,8.3,1.6,6.1,1.6c-2.2,0-1.7,2.5,0,2.6C7.9,4.3,13,5.1,15.1,4.6
			L15.1,4.6z"/>
		<path class="st5" d="M15.1,4.4c1.4-0.3,1.5-2.7-0.2-3c-2.7-0.3-6.7,0.1-8.8,0.1C3.9,1.6,4.5,4,5.9,4.1C7.9,4.2,12.9,5,15.1,4.4
			L15.1,4.4z"/>
		<path class="st6" d="M15,4.3c1.4-0.3,1.4-2.6-0.2-2.8C12.3,1.2,8.2,1.6,6,1.6C4,1.7,4.6,4,6,4C7.8,4.2,12.9,4.9,15,4.3L15,4.3z"/>
		<path class="st7" d="M15,4.2c1.3-0.3,1.3-2.4-0.2-2.6c-2.4-0.3-6.6,0.1-8.7,0.1C4.1,1.7,4.7,3.9,6,4C7.8,4.1,12.8,4.8,15,4.2z"/>
		<path class="st8" d="M14.9,4.2c1.3-0.3,1.3-2.4-0.2-2.6C12.4,1.3,8.1,1.7,6,1.7c-1.7,0-1.3,2.1,0,2.2C7.7,4,12.8,4.7,14.9,4.2
			L14.9,4.2z"/>
		<path class="st9" d="M14.9,4.1c1.2-0.2,1.3-2.3-0.2-2.4c-2.2-0.2-6.6,0.1-8.6,0.1C4.4,1.8,4.8,3.7,6,3.7
			C7.7,3.9,12.8,4.6,14.9,4.1L14.9,4.1z"/>
		<path class="st10" d="M14.7,4c1.2-0.2,1.2-2.1-0.2-2.3C12.4,1.5,8,1.8,6,1.8c-1.6,0-1.3,1.8-0.1,1.9C7.7,3.7,12.7,4.4,14.7,4z"/>
		<path class="st11" d="M14.6,3.9c1-0.2,1.2-1.9-0.2-2.2c-2-0.2-6.5,0.1-8.5,0.1c-1.5,0-1.2,1.7-0.1,1.7C7.6,3.7,12.7,4.3,14.6,3.9
			L14.6,3.9z"/>
		<path class="st12" d="M14.6,3.8c1-0.2,1-1.8-0.2-2.1c-1.9-0.2-6.5,0.1-8.3,0.1C4.6,1.8,4.9,3.4,6,3.4C7.6,3.6,12.5,4.1,14.6,3.8
			L14.6,3.8z"/>
		<path class="st13" d="M14.5,3.6c0.9-0.2,0.9-1.7-0.2-1.8C12.6,1.6,7.9,1.9,6,1.9c-1.3,0-1,1.5,0,1.5C7.4,3.5,12.5,4,14.5,3.6z"/>
		<path class="st14" d="M14.5,3.5c0.9-0.1,0.9-1.6-0.2-1.7c-1.6-0.2-6.4,0.1-8.2,0.1C4.8,2,5.1,3.3,6,3.3C7.4,3.4,12.4,3.9,14.5,3.5
			z"/>
		<path class="st15" d="M14.4,3.4c0.9-0.1,0.8-1.5-0.2-1.6C12.7,1.7,7.8,2,6.1,2C4.9,2,5.2,3.1,6,3.3C7.3,3.3,12.4,3.8,14.4,3.4z"/>
		<path class="st16" d="M14.4,3.3c0.8-0.1,0.8-1.4-0.2-1.5C12.8,1.7,7.9,2,6.1,2C5.1,2,5.2,3,6,3.1C7.3,3.2,12.3,3.6,14.4,3.3z"/>
		<path class="st17" d="M14.3,3.3C15.1,3.2,15,2,14.1,2c-1.3-0.1-6.3,0.2-8,0.2C5.2,2.2,5.2,3.1,6,3.1C7.2,3.2,12.3,3.4,14.3,3.3z"
			/>
		<path class="st18" d="M14.3,3.2c0.7-0.1,0.6-1.1-0.2-1.1c-1.2-0.1-6.3,0.2-8,0.2C5.2,2.2,5.2,3,5.9,3C7.2,3.1,12.3,3.3,14.3,3.2
			L14.3,3.2z"/>
		<path class="st19" d="M14.2,3.1c0.7,0,0.6-1-0.2-1C13,2,7.9,2.2,6.1,2.3C5.3,2.3,5.3,3,5.9,3C7.2,3,12.2,3.2,14.2,3.1z"/>
		<path class="st20" d="M14.2,3c0.6,0,0.5-0.8-0.2-0.9c-0.9,0-6.1,0.2-7.8,0.2c-0.8,0-0.8,0.6-0.3,0.6C7.1,2.8,12.2,3,14.2,3L14.2,3
			z"/>
		<path class="st21" d="M14.1,2.9c0.6,0,0.5-0.7-0.2-0.8c-0.8,0-6.1,0.2-7.8,0.2c-0.6,0-0.7,0.5-0.2,0.5C7.1,2.7,12.1,2.9,14.1,2.9z
			"/>
	</g>
	<path class="st22" d="M14.7,1.6c0,0.6-0.5,1-1,1L5.1,2.7c-0.6,0-1-0.5-1-1l0,0c0-0.6,0.5-1,1-1l8.5-0.1C14.1,0.6,14.7,1,14.7,1.6
		L14.7,1.6z"/>
	<path class="st25" d="M14.9,1.7c0,0.6-0.5,1-1,1L5.2,2.8c-0.6,0-1-0.5-1-1l0,0c0-0.6,0.5-1,1-1l8.5-0.1C14.3,0.7,14.9,1.1,14.9,1.7
		L14.9,1.7z"/>
</g>
<g>
	<g>
		<path class="st0" d="M18.8,6.5c1.6-0.6,2-3.4-0.1-3.8C15.6,2.2,12,2.8,9.6,2.8c-2.7,0-2,2.8-0.2,3.2C11.5,6.4,16.6,7.2,18.8,6.5
			L18.8,6.5z"/>
		<path class="st1" d="M18.7,6.4c1.6-0.5,1.9-3.3-0.1-3.6c-3.1-0.5-6.8,0.1-9.2,0.1S7.6,5.7,9.4,6C11.5,6.3,16.5,7.1,18.7,6.4z"/>
		<path class="st2" d="M18.7,6.3c1.6-0.5,1.9-3.2-0.1-3.4c-3-0.5-6.8,0.1-9,0.1c-2.4,0-1.9,2.6-0.2,3C11.5,6.3,16.5,7,18.7,6.3z"/>
		<path class="st3" d="M18.6,6.2c1.5-0.5,1.9-3.1-0.1-3.3C15.7,2.4,11.9,3,9.7,3c-2.3,0-1.9,2.5-0.2,2.7C11.4,6.2,16.4,6.9,18.6,6.2
			z"/>
		<path class="st4" d="M18.6,6.1c1.5-0.5,1.7-3,0-3.2C15.8,2.4,11.9,3,9.7,3S8,5.5,9.5,5.6C11.4,6,16.4,6.6,18.6,6.1z"/>
		<path class="st5" d="M18.5,5.9c1.4-0.3,1.6-2.8,0-3.1c-2.7-0.3-6.7,0.1-8.8,0.1C7.6,3,8.1,5.3,9.5,5.4C11.4,5.9,16.4,6.5,18.5,5.9
			L18.5,5.9z"/>
		<path class="st6" d="M18.5,5.8c1.4-0.3,1.6-2.6,0-2.8C16,2.7,11.9,3.1,9.7,3.1c-2.1,0-1.6,2.2-0.2,2.4C11.3,5.8,16.3,6.4,18.5,5.8
			L18.5,5.8z"/>
		<path class="st7" d="M18.3,5.7c1.3-0.3,1.5-2.5,0-2.7c-2.4-0.3-6.6,0.1-8.7,0.1c-2,0-1.5,2.1-0.2,2.3C11.3,5.7,16.3,6.3,18.3,5.7z
			"/>
		<path class="st8" d="M18.3,5.6c1.3-0.3,1.4-2.4,0-2.6C16,2.7,11.7,3.1,9.6,3.1c-1.9,0-1.5,1.9-0.2,2.2C11.2,5.6,16.3,6.2,18.3,5.6
			z"/>
		<path class="st9" d="M18.3,5.5c1.2-0.2,1.4-2.3-0.1-2.5C16,2.8,11.6,3.1,9.6,3.1C7.9,3.3,8.3,5.1,9.4,5.2
			C11.2,5.5,16.3,6.1,18.3,5.5z"/>
		<path class="st10" d="M18.2,5.4c1.2-0.2,1.3-2.2-0.1-2.3C16,2.9,11.6,3.2,9.6,3.2C8,3.3,8.2,5,9.4,5.1C11.2,5.4,16.1,5.8,18.2,5.4
			z"/>
		<path class="st11" d="M18.2,5.3c1-0.2,1.2-2.1-0.1-2.2c-2-0.2-6.5,0.1-8.5,0.1C8.1,3.4,8.4,5,9.4,5C11,5.2,16.1,5.7,18.2,5.3z"/>
		<path class="st12" d="M18.1,5.3c1-0.2,1.2-1.9-0.1-2.1C16.1,3,11.5,3.3,9.7,3.3c-1.5,0-1.3,1.5-0.2,1.6C11,5.1,16.1,5.6,18.1,5.3
			L18.1,5.3z"/>
		<path class="st13" d="M18.1,5.1c0.9-0.2,1-1.7-0.1-1.9C16.3,3,11.6,3.3,9.7,3.3c-1.4,0-1.2,1.4-0.2,1.5C11,5,16,5.5,18.1,5.1
			L18.1,5.1z"/>
		<path class="st14" d="M18,5c0.9-0.1,0.9-1.6-0.1-1.7c-1.6-0.2-6.4,0.1-8.2,0.1c-1.3,0-1.2,1.3-0.2,1.4C10.9,4.9,16,5.3,18,5L18,5z
			"/>
		<path class="st15" d="M18,4.9c0.9-0.1,0.9-1.5-0.1-1.6c-1.5-0.1-6.4,0.2-8.1,0.2c-1.2,0-1,1.1-0.2,1.3C10.9,4.8,15.9,5.1,18,4.9
			L18,4.9z"/>
		<path class="st16" d="M17.9,4.8c0.8-0.1,0.8-1.4-0.1-1.5c-1.4-0.1-6.3,0.2-8.1,0.2c-1,0-0.9,1-0.2,1.1C10.9,4.7,15.9,5,17.9,4.8
			L17.9,4.8z"/>
		<path class="st17" d="M17.9,4.7c0.8-0.1,0.7-1.3-0.3-1.4c-1.3-0.1-6.3,0.2-8,0.2c-0.9,0-0.9,0.9-0.2,0.9
			C10.8,4.6,15.9,4.9,17.9,4.7L17.9,4.7z"/>
		<path class="st18" d="M17.8,4.6c0.7-0.1,0.7-1.1-0.2-1.1c-1.2-0.1-6.3,0.2-8,0.2c-0.8,0-0.8,0.8-0.2,0.8
			C10.8,4.4,15.8,4.8,17.8,4.6z"/>
		<path class="st19" d="M17.8,4.5c0.7,0,0.6-1-0.2-1c-1-0.1-6.3,0.2-7.9,0.2c-0.8,0-0.8,0.7-0.2,0.7C10.7,4.3,15.8,4.6,17.8,4.5
			L17.8,4.5z"/>
		<path class="st20" d="M17.6,4.3c0.6,0,0.5-0.9-0.2-0.9c-0.9,0-6.1,0.2-7.8,0.2c-0.7,0-0.7,0.6-0.2,0.6C10.7,4.2,15.8,4.5,17.6,4.3
			z"/>
		<path class="st21" d="M17.6,4.2c0.6,0,0.5-0.7-0.2-0.8c-0.8,0-6.1,0.2-7.8,0.2C9,3.6,8.9,4.2,9.4,4.1C10.7,4.1,15.7,4.2,17.6,4.2z
			"/>
	</g>
	<path class="st26" d="M18.5,3.1c0,0.6-0.5,1-1,1L9,4.2c-0.6,0-1-0.5-1-1l0,0c0-0.6,0.5-1,1-1l8.5-0.1C18,2.1,18.5,2.5,18.5,3.1
		L18.5,3.1z"/>
</g>
<g>
	<g>
		<path class="st0" d="M13.9,15.9c2.2-0.6,2.7-3.5,0.1-3.8c-4.3-0.5-8.9,0-11.9,0c-3.5,0-2.3,3.1,0,3.3C4.8,15.5,11,16.7,13.9,15.9
			L13.9,15.9z"/>
		<path class="st1" d="M13.8,15.8c2.1-0.5,2.5-3.3,0.1-3.6c-4.1-0.5-8.9,0-11.8,0c-3.2,0-2.3,3-0.1,3.2
			C4.7,15.4,10.9,16.5,13.8,15.8z"/>
		<path class="st2" d="M13.8,15.6c2.1-0.5,2.5-3.2,0.1-3.5c-3.9-0.5-8.8,0-11.8,0c-3.1,0-2.2,2.8-0.1,3
			C4.7,15.3,10.9,16.3,13.8,15.6z"/>
		<path class="st3" d="M13.7,15.6c2-0.5,2.4-3.1,0-3.3c-3.8-0.5-8.8,0-11.7,0c-3,0-2.2,2.7-0.1,2.8C4.5,15.3,10.9,16.2,13.7,15.6
			L13.7,15.6z"/>
		<path class="st4" d="M13.6,15.5c1.9-0.5,2.3-3,0-3.2c-3.6-0.5-8.8,0-11.6,0c-2.9,0-2.1,2.6-0.1,2.7C4.5,15.2,10.8,16.1,13.6,15.5
			L13.6,15.5z"/>
		<path class="st5" d="M13.6,15.4c1.9-0.3,2.2-2.8,0-3.1c-3.5-0.3-8.7,0-11.5,0s-2,2.5-0.1,2.6C4.4,15.1,10.8,16,13.6,15.4
			L13.6,15.4z"/>
		<path class="st6" d="M13.5,15.3c1.7-0.3,2.1-2.7,0-3c-3.4-0.3-8.7,0-11.5,0c-2.7,0-2,2.4-0.1,2.5C4.4,15,10.7,15.9,13.5,15.3
			L13.5,15.3z"/>
		<path class="st7" d="M13.5,15.2c1.7-0.3,2-2.6,0-2.7c-3.2-0.3-8.6,0-11.4,0c-2.5,0-1.9,2.3-0.1,2.3C4.3,14.8,10.7,15.6,13.5,15.2z
			"/>
		<path class="st8" d="M13.3,15.1c1.6-0.3,1.9-2.4,0-2.6c-3-0.3-8.6,0-11.2,0c-2.4,0-1.9,2.2-0.1,2.2C4.2,14.7,10.6,15.5,13.3,15.1
			L13.3,15.1z"/>
		<path class="st9" d="M13.3,15c1.6-0.2,1.7-2.3-0.1-2.5c-2.9-0.2-8.6,0-11.1,0c-2.3,0-1.7,1.9-0.1,2.1C4.2,14.6,10.6,15.4,13.3,15z
			"/>
		<path class="st10" d="M13.2,14.8c1.5-0.2,1.6-2.2-0.1-2.3c-2.8-0.2-8.5,0-11.1,0c-2.1,0-1.6,1.8-0.1,1.9
			C4.1,14.5,10.6,15.3,13.2,14.8z"/>
		<path class="st11" d="M13.1,14.7c1.4-0.2,1.6-2.1-0.1-2.2c-2.5-0.2-8.5,0-11,0c-2,0-1.6,1.7-0.1,1.8C4.1,14.5,10.4,15.2,13.1,14.7
			L13.1,14.7z"/>
		<path class="st12" d="M13.1,14.6c1.4-0.2,1.5-1.9-0.1-2.1c-2.4-0.2-8.3,0-10.9,0c-1.9,0-1.5,1.6-0.1,1.7C4,14.4,10.4,15,13.1,14.6
			z"/>
		<path class="st13" d="M13,14.5c1.3-0.2,1.4-1.8-0.1-1.9c-2.3-0.2-8.3,0-10.8,0c-1.7,0-1.4,1.5-0.2,1.5C4,14.3,10.3,14.8,13,14.5
			L13,14.5z"/>
		<path class="st14" d="M13,14.4c1.2-0.1,1.3-1.6-0.2-1.7c-2.1-0.2-8.3,0-10.8,0c-1.6,0-1.4,1.4-0.2,1.4C3.8,14.2,10.3,14.7,13,14.4
			L13,14.4z"/>
		<path class="st15" d="M12.9,14.3c1.2-0.1,1.2-1.5-0.2-1.6c-2-0.1-8.2,0.1-10.7,0.1c-1.5,0-1.3,1.3-0.2,1.3
			C3.8,14,10.2,14.6,12.9,14.3L12.9,14.3z"/>
		<path class="st16" d="M12.8,14.2c1-0.1,1-1.4-0.2-1.5c-1.9-0.1-8.2,0.1-10.5,0.1c-1.4,0-1.3,1.1-0.2,1.1
			C3.7,13.9,10.2,14.5,12.8,14.2L12.8,14.2z"/>
		<path class="st17" d="M12.8,14c1-0.1,0.9-1.3-0.2-1.4c-1.7,0-8.2,0.2-10.5,0.2c-1.3,0-1.2,0.9-0.2,1C3.6,13.8,10.2,14.3,12.8,14
			L12.8,14z"/>
		<path class="st18" d="M12.6,13.9c0.9-0.1,0.9-1.1-0.2-1.1c-1.5-0.1-8.1,0.1-10.3,0.1c-1.2,0-1,0.8-0.2,0.8
			C3.6,13.7,10.1,14.2,12.6,13.9L12.6,13.9z"/>
		<path class="st19" d="M12.6,13.8c0.8,0,0.8-1-0.2-1c-1.4-0.1-8.1,0.1-10.3,0.1c-1,0-1,0.7-0.2,0.7C3.5,13.7,10.1,14,12.6,13.8
			L12.6,13.8z"/>
		<path class="st20" d="M12.5,13.7c0.8,0,0.7-0.9-0.2-0.9c-1.2,0-8,0.1-10.2,0.1c-0.8,0-0.9,0.6-0.2,0.6C3.5,13.6,10,13.8,12.5,13.7
			z"/>
		<path class="st21" d="M12.5,13.6c0.7,0,0.6-0.7-0.3-0.8c-1,0-8,0.1-10.1,0.1c-0.7,0-0.8,0.5-0.2,0.5C3.4,13.5,10,13.7,12.5,13.6z"
			/>
	</g>
	<path class="st27" d="M13.8,12.3c0,0.6-0.5,1-1,1H1.3c-0.6,0-1-0.5-1-1l0,0c0-0.6,0.5-1,1-1h11.5C13.3,11.3,13.8,11.8,13.8,12.3
		L13.8,12.3z"/>
	<path class="st28" d="M13.9,12.4c0,0.6-0.5,1-1,1H1.4c-0.6,0-1-0.5-1-1l0,0c0-0.6,0.5-1,1-1h11.5C13.5,11.4,13.9,11.9,13.9,12.4
		L13.9,12.4z"/>
</g>
</svg>
