<?xml version="1.0" encoding="utf-8"?>
<!-- Generator: Adobe Illustrator 27.0.1, SVG Export Plug-In . SVG Version: 6.00 Build 0)  -->
<svg version="1.1" id="Ebene_1" xmlns="http://www.w3.org/2000/svg" xmlns:xlink="http://www.w3.org/1999/xlink" x="0px" y="0px"
	 viewBox="0 0 27.3 13.7" style="enable-background:new 0 0 27.3 13.7;" xml:space="preserve">
<style type="text/css">
	.st0{fill:#FFFFFF;fill-opacity:0;}
	.st1{opacity:5.000000e-02;fill:#F9FBFB;enable-background:new    ;}
	.st2{opacity:0.1;fill:#F4F6F8;enable-background:new    ;}
	.st3{opacity:0.14;fill:#EEF2F4;enable-background:new    ;}
	.st4{opacity:0.19;fill:#E9EDF1;enable-background:new    ;}
	.st5{opacity:0.24;fill:#E3E9ED;enable-background:new    ;}
	.st6{opacity:0.29;fill:#DEE5EA;enable-background:new    ;}
	.st7{opacity:0.33;fill:#D8E0E6;enable-background:new    ;}
	.st8{opacity:0.38;fill:#D3DCE3;enable-background:new    ;}
	.st9{opacity:0.43;fill:#CDD8DF;enable-background:new    ;}
	.st10{opacity:0.48;fill:#C8D3DC;enable-background:new    ;}
	.st11{opacity:0.52;fill:#C2CFD8;enable-background:new    ;}
	.st12{opacity:0.57;fill:#BDCAD5;enable-background:new    ;}
	.st13{opacity:0.62;fill:#B7C6D1;enable-background:new    ;}
	.st14{opacity:0.67;fill:#B2C2CE;enable-background:new    ;}
	.st15{opacity:0.71;fill:#ACBDCA;enable-background:new    ;}
	.st16{opacity:0.76;fill:#A7B9C7;enable-background:new    ;}
	.st17{opacity:0.81;fill:#A1B5C3;enable-background:new    ;}
	.st18{opacity:0.86;fill:#9CB0C0;enable-background:new    ;}
	.st19{opacity:0.9;fill:#96ACBC;enable-background:new    ;}
	.st20{opacity:0.95;fill:#91A7B9;enable-background:new    ;}
	.st21{fill:#8BA3B5;}
	.st22{fill:#FFFFFF;}
	.st23{fill:#D5E4E9;}
	.st24{fill:#E4EEF2;}
	.st25{fill:#AEC9CC;}
	.st26{fill:#E4EBED;}
	.st27{fill:#DAE4E8;}
	.st28{fill:#CDDFE7;}
</style>
<g>
	<g id="Ebene_2_00000060013225703502659080000000309994452409908882_">
		<g id="Paper-Icons_00000179636034075273159570000013458205567609976728_">
			<g>
				<g>
					<g>
						<path class="st0" d="M18.8,10.2c1.9-0.5,2.4-3.1,0.2-3.4c-3.7-0.4-11.9,0-14.5,0c-3,0-2.1,2.5-0.2,2.9
							C7,10.4,16.3,10.8,18.8,10.2L18.8,10.2z"/>
						<path class="st1" d="M18.7,10.1c1.8-0.4,2.3-3,0.1-3.2c-3.5-0.4-11.8,0-14.4,0c-2.8,0-2,2.4-0.2,2.8
							C7,10.2,16.2,10.7,18.7,10.1z"/>
						<path class="st2" d="M18.7,10c1.8-0.4,2.2-2.9,0.1-3.1c-3.4-0.4-11.8,0-14.3,0c-2.7,0-2,2.3-0.2,2.7
							C6.9,10.1,16.2,10.6,18.7,10z"/>
						<path class="st3" d="M18.6,9.9c1.7-0.4,2.1-2.8,0.1-3c-3.3-0.4-11.8,0-14.3,0c-2.6,0-1.9,2.2-0.2,2.6
							C6.8,10,16.2,10.5,18.6,9.9L18.6,9.9z"/>
						<path class="st4" d="M18.6,9.8c1.6-0.4,2-2.6,0.1-2.9c-3.1-0.4-11.7,0-14.2,0C1.9,6.9,2.6,9,4.3,9.4
							C6.8,9.9,16.1,10.3,18.6,9.8z"/>
						<path class="st5" d="M18.5,9.7c1.6-0.3,1.9-2.5,0.1-2.7c-3-0.3-11.7,0-14.1,0C2.1,7,2.7,9,4.3,9.3C6.7,9.8,16.1,10.2,18.5,9.7
							L18.5,9.7z"/>
						<path class="st6" d="M18.4,9.6c1.5-0.3,1.9-2.4,0-2.6c-2.9-0.3-11.6,0-14,0C2.2,7,2.7,8.9,4.3,9.2C6.6,9.7,16,10.1,18.4,9.6
							L18.4,9.6z"/>
						<path class="st7" d="M18.4,9.5c1.5-0.3,1.8-2.3,0-2.5c-2.8-0.3-11.6,0-13.9,0c-2.2,0-1.7,1.8-0.2,2.1C6.6,9.6,16,10,18.4,9.5z
							"/>
						<path class="st8" d="M18.3,9.4c1.4-0.3,1.7-2.2,0-2.3c-2.6-0.3-11.6,0-13.9,0c-2.1,0-1.6,1.7-0.2,2C6.5,9.5,16,9.9,18.3,9.4z"
							/>
						<path class="st9" d="M18.3,9.3c1.3-0.2,1.6-2.1,0-2.2c-2.5-0.2-11.5,0-13.8,0c-2,0-1.5,1.6-0.2,1.8C6.4,9.4,15.9,9.7,18.3,9.3
							L18.3,9.3z"/>
						<path class="st10" d="M18.2,9.2c1.3-0.2,1.5-1.9,0-2.1c-2.4-0.2-11.5,0-13.7,0C2.6,7.2,3,8.7,4.3,8.9
							C6.4,9.2,15.9,9.6,18.2,9.2L18.2,9.2z"/>
						<path class="st11" d="M18.2,9.1c1.2-0.2,1.4-1.8-0.1-2c-2.2-0.2-11.4,0-13.6,0c-1.7,0-1.4,1.4-0.2,1.6
							C6.3,9.1,15.8,9.5,18.2,9.1L18.2,9.1z"/>
						<path class="st12" d="M18.1,9c1.2-0.2,1.3-1.7-0.1-1.8c-2.1-0.2-11.4,0-13.6,0c-1.6,0-1.3,1.3-0.2,1.5C6.2,9,15.8,9.4,18.1,9z
							"/>
						<path class="st13" d="M18.1,8.9c1.1-0.2,1.2-1.6-0.1-1.7c-2-0.2-11.4,0-13.5,0C3,7.3,3.2,8.5,4.3,8.6
							C6.2,8.9,15.8,9.2,18.1,8.9z"/>
						<path class="st14" d="M18,8.8c1-0.1,1.1-1.5-0.1-1.6c-1.8-0.2-11.3,0-13.4,0c-1.4,0-1.2,1.1-0.2,1.2C6.1,8.8,15.7,9.1,18,8.8z
							"/>
						<path class="st15" d="M17.9,8.7c1-0.1,1-1.3-0.1-1.4C16.1,7.2,6.5,7.4,4.5,7.4c-1.3,0-1.1,1-0.2,1.1C6,8.7,15.7,9,17.9,8.7
							L17.9,8.7z"/>
						<path class="st16" d="M17.9,8.6c0.9-0.1,0.9-1.2-0.2-1.3C16.2,7.2,6.5,7.4,4.5,7.4c-1.2,0-1.1,0.9-0.2,1
							C6,8.6,15.6,8.9,17.9,8.6L17.9,8.6z"/>
						<path class="st17" d="M17.8,8.5c0.9-0.1,0.8-1.1-0.2-1.2C16.2,7.3,6.5,7.4,4.5,7.4c-1.1,0-1,0.8-0.2,0.9
							C5.9,8.5,15.6,8.7,17.8,8.5z"/>
						<path class="st18" d="M17.8,8.4c0.8-0.1,0.8-1-0.2-1C16.3,7.3,6.4,7.5,4.5,7.5c-1,0-0.9,0.7-0.2,0.8
							C5.8,8.3,15.6,8.6,17.8,8.4L17.8,8.4z"/>
						<path class="st19" d="M17.7,8.3c0.7,0,0.7-0.9-0.2-0.9c-1.2-0.1-11.1,0.1-13,0.1c-0.9,0-0.9,0.6-0.2,0.6
							C5.8,8.2,15.5,8.5,17.7,8.3L17.7,8.3z"/>
						<path class="st20" d="M17.7,8.3c0.7,0,0.6-0.8-0.2-0.8c-1,0-11.1,0.1-12.9,0.1C3.7,7.5,3.7,8,4.3,8.1
							C5.7,8.1,15.5,8.3,17.7,8.3z"/>
						<path class="st21" d="M17.6,8.2c0.6,0,0.5-0.6-0.3-0.7c-0.9,0-11,0.1-12.9,0.1C3.8,7.6,3.7,8,4.3,8C5.6,8,15.4,8.2,17.6,8.2z"
							/>
					</g>
					<path class="st22" d="M18.7,7c0,0.5-0.4,0.9-0.9,0.9H3.8C3.3,7.9,2.9,7.5,2.9,7l0,0c0-0.5,0.4-0.9,0.9-0.9h14.1
						C18.3,6.1,18.7,6.5,18.7,7C18.7,7,18.7,7,18.7,7z"/>
					<path class="st23" d="M18.8,7.1c0,0.5-0.4,0.9-0.9,0.9H3.9C3.4,8,3,7.6,3,7.1h0c0-0.5,0.4-0.9,0.9-0.9h14.1
						C18.4,6.2,18.8,6.6,18.8,7.1L18.8,7.1z"/>
				</g>
				<g>
					<g>
						<path class="st0" d="M22.8,9.2c1.9-0.5,2.2-3.4-0.1-3.7c-3.7-0.4-11.9,0-14.5,0c-3,0-2.2,3-0.2,3.1
							C10.5,8.7,20.3,9.8,22.8,9.2L22.8,9.2z"/>
						<path class="st1" d="M22.8,9.1c1.8-0.4,2.1-3.3-0.1-3.6c-3.5-0.4-11.8,0-14.4,0c-2.8,0-2.2,2.9-0.2,3
							C10.4,8.6,20.3,9.7,22.8,9.1L22.8,9.1z"/>
						<path class="st2" d="M22.7,9c1.8-0.4,2-3.2-0.1-3.4c-3.4-0.4-11.8,0-14.3,0c-2.7,0-2.1,2.7-0.2,2.8C10.4,8.5,20.2,9.6,22.7,9z
							"/>
						<path class="st3" d="M22.6,8.9c1.7-0.4,1.9-3-0.1-3.3c-3.3-0.4-11.8,0-14.3,0c-2.6,0-2,2.6-0.2,2.7
							C10.3,8.5,20.2,9.5,22.6,8.9L22.6,8.9z"/>
						<path class="st4" d="M22.6,8.8c1.6-0.4,1.8-2.9-0.1-3.1c-3.1-0.4-11.7,0-14.2,0c-2.5,0-1.9,2.5-0.2,2.6
							C10.3,8.4,20.1,9.3,22.6,8.8z"/>
						<path class="st5" d="M22.5,8.7c1.6-0.3,1.8-2.8-0.1-3c-3-0.3-11.7,0-14.1,0c-2.4,0-1.9,2.4-0.2,2.5
							C10.2,8.3,20.1,9.2,22.5,8.7L22.5,8.7z"/>
						<path class="st6" d="M22.4,8.5c1.5-0.3,1.7-2.6-0.1-2.8c-2.9-0.3-11.6,0-14,0C6,5.7,6.5,8,8.1,8.1C10.2,8.2,20,9,22.4,8.5z"/>
						<path class="st7" d="M22.4,8.4c1.5-0.3,1.6-2.5-0.1-2.7c-2.8-0.3-11.6,0-13.9,0C6.1,5.8,6.6,7.9,8.1,8
							C10.1,8.1,20,8.9,22.4,8.4L22.4,8.4z"/>
						<path class="st8" d="M22.3,8.3c1.4-0.3,1.5-2.4-0.1-2.5c-2.6-0.3-11.6,0-13.9,0c-2.1,0-1.7,2-0.2,2.1
							C10.1,8,19.9,8.8,22.3,8.3z"/>
						<path class="st9" d="M22.2,8.2C23.6,8,23.7,6,22.1,5.8c-2.5-0.2-11.5,0-13.8,0c-2,0-1.6,1.9-0.2,1.9C10,7.9,19.9,8.6,22.2,8.2
							L22.2,8.2z"/>
						<path class="st10" d="M22.2,8.1C23.5,7.9,23.5,6,22,5.8c-2.4-0.2-11.5,0-13.7,0c-1.8,0-1.5,1.8-0.2,1.8
							C10,7.8,19.8,8.5,22.2,8.1z"/>
						<path class="st11" d="M22.1,8c1.2-0.2,1.3-2-0.2-2.1c-2.2-0.2-11.4,0-13.6,0c-1.7,0-1.4,1.6-0.2,1.7C9.9,7.7,19.8,8.4,22.1,8
							L22.1,8z"/>
						<path class="st12" d="M22,7.9c1.2-0.2,1.2-1.8-0.2-2c-2.1-0.2-11.4,0-13.6,0c-1.6,0-1.4,1.5-0.2,1.6C9.9,7.6,19.7,8.2,22,7.9
							L22,7.9z"/>
						<path class="st13" d="M22,7.8c1.1-0.2,1.1-1.7-0.2-1.8c-2-0.2-11.4,0-13.5,0C6.8,6,7,7.4,8.1,7.4C9.8,7.5,19.7,8.1,22,7.8z"/>
						<path class="st14" d="M21.9,7.6c1-0.1,1-1.6-0.2-1.7C19.9,5.8,10.4,6,8.3,6C6.9,6,7.1,7.3,8.1,7.3C9.8,7.4,19.6,7.9,21.9,7.6
							L21.9,7.6z"/>
						<path class="st15" d="M21.8,7.5c1-0.1,1-1.4-0.2-1.5C20,5.9,10.4,6.1,8.3,6.1C7,6.1,7.1,7.2,8.1,7.2
							C9.7,7.3,19.6,7.8,21.8,7.5z"/>
						<path class="st16" d="M21.8,7.4c0.9-0.1,0.9-1.3-0.2-1.4C20,5.9,10.3,6.1,8.3,6.1c-1.2,0-1.1,1-0.2,1
							C9.7,7.2,19.5,7.7,21.8,7.4z"/>
						<path class="st17" d="M21.7,7.3c0.9-0.1,0.8-1.2-0.2-1.2C20.1,6,10.3,6.1,8.3,6.1C7.2,6.1,7.3,7,8.1,7
							C9.6,7.1,19.5,7.5,21.7,7.3L21.7,7.3z"/>
						<path class="st18" d="M21.6,7.2c0.8-0.1,0.7-1-0.2-1.1C20.1,6,10.2,6.2,8.3,6.2c-1,0-1,0.8-0.2,0.8C9.6,7,19.4,7.4,21.6,7.2
							L21.6,7.2z"/>
						<path class="st19" d="M21.6,7.1c0.7,0,0.6-0.9-0.2-0.9c-1.2-0.1-11.1,0.1-13,0.1c-0.9,0-0.9,0.6-0.2,0.6
							C9.5,6.9,19.4,7.2,21.6,7.1L21.6,7.1z"/>
						<path class="st20" d="M21.5,7c0.7,0,0.6-0.8-0.3-0.8c-1,0-11.1,0.1-12.9,0.1c-0.7,0-0.8,0.5-0.2,0.5C9.5,6.8,19.3,7,21.5,7z"
							/>
						<path class="st21" d="M21.5,6.9c0.6,0,0.5-0.6-0.3-0.7c-0.9,0-11,0.1-12.9,0.1c-0.6,0-0.7,0.4-0.2,0.4
							C9.5,6.7,19.3,6.9,21.5,6.9z"/>
					</g>
					<path class="st22" d="M22.6,5.7c0,0.5-0.4,0.9-0.9,0.9H7.6c-0.5,0-0.9-0.4-0.9-0.9l0,0c0-0.5,0.4-0.9,0.9-0.9h14.1
						C22.2,4.8,22.6,5.2,22.6,5.7L22.6,5.7z"/>
					<path class="st24" d="M22.7,5.8c0,0.5-0.4,0.9-0.9,0.9H7.7c-0.5,0-0.9-0.4-0.9-0.9l0,0c0-0.5,0.4-0.9,0.9-0.9h14.1
						C22.3,4.9,22.7,5.3,22.7,5.8L22.7,5.8z"/>
				</g>
				<g>
					<g>
						<path class="st0" d="M16.1,6C17.6,5.5,17.7,3,16,2.8c-2.8-0.4-5.9,0-7.9,0c-2.3,0-1.6,2.6,0,2.8C9.9,5.7,14.2,6.6,16.1,6
							L16.1,6z"/>
						<path class="st1" d="M16.1,5.9c1.4-0.4,1.5-2.8-0.1-3.1c-2.7-0.4-5.9,0-7.9,0c-2.2,0-1.5,2.5,0,2.7C9.9,5.6,14.2,6.5,16.1,5.9
							L16.1,5.9z"/>
						<path class="st2" d="M16,5.8c1.4-0.4,1.5-2.7-0.1-3c-2.6-0.4-5.9,0-7.8,0c-2.1,0-1.5,2.4,0,2.5C9.8,5.5,14.1,6.4,16,5.8
							L16,5.8z"/>
						<path class="st3" d="M16,5.7c1.3-0.4,1.4-2.6-0.1-2.8c-2.5-0.4-5.8,0-7.7,0c-2,0-1.4,2.3,0,2.4C9.8,5.4,14.1,6.3,16,5.7
							L16,5.7z"/>
						<path class="st4" d="M15.9,5.6c1.3-0.4,1.4-2.5-0.1-2.7c-2.4-0.4-5.8,0-7.7,0c-1.9,0-1.4,2.2,0,2.3C9.7,5.3,14.1,6.1,15.9,5.6
							L15.9,5.6z"/>
						<path class="st5" d="M15.9,5.5c1.2-0.3,1.3-2.4-0.2-2.6c-2.3-0.3-5.8,0-7.6,0C6.2,2.9,6.8,5,8,5.1C9.7,5.2,14,6,15.9,5.5
							L15.9,5.5z"/>
						<path class="st6" d="M15.8,5.4c1.2-0.3,1.2-2.3-0.2-2.5c-2.2-0.3-5.7,0-7.6,0C6.3,3,6.8,5,8,5C9.6,5.2,14,5.9,15.8,5.4
							L15.8,5.4z"/>
						<path class="st7" d="M15.8,5.3C16.9,5,16.9,3.2,15.6,3c-2.1-0.3-5.7,0-7.5,0C6.4,3,6.9,4.9,8,5C9.6,5.1,13.9,5.8,15.8,5.3z"/>
						<path class="st8" d="M15.7,5.3C16.8,5,16.8,3.2,15.5,3c-2-0.3-5.7,0-7.5,0C6.5,3,6.9,4.8,8,4.9C9.5,5,13.9,5.7,15.7,5.3
							L15.7,5.3z"/>
						<path class="st9" d="M15.7,5.2c1-0.2,1.1-2-0.2-2.1c-1.9-0.2-5.7,0-7.4,0C6.6,3.1,7,4.8,8,4.8C9.5,4.9,13.9,5.6,15.7,5.2
							L15.7,5.2z"/>
						<path class="st10" d="M15.6,5.1c1-0.2,1-1.8-0.2-2c-1.8-0.2-5.6,0-7.3,0C6.7,3.1,7,4.7,8,4.8C9.5,4.8,13.8,5.5,15.6,5.1z"/>
						<path class="st11" d="M15.5,5c0.9-0.2,1-1.7-0.2-1.9c-1.7-0.2-5.6,0-7.3,0c-1.3,0-1,1.5-0.1,1.5C9.4,4.8,13.8,5.4,15.5,5
							L15.5,5z"/>
						<path class="st12" d="M15.5,4.9c0.9-0.2,0.9-1.6-0.2-1.8c-1.6-0.2-5.6,0-7.2,0c-1.3,0-1,1.4-0.1,1.4
							C9.4,4.7,13.7,5.2,15.5,4.9L15.5,4.9z"/>
						<path class="st13" d="M15.4,4.8c0.8-0.2,0.8-1.5-0.2-1.6c-1.5-0.2-5.5,0-7.2,0C6.9,3.2,7.1,4.5,8,4.5
							C9.3,4.6,13.7,5.1,15.4,4.8z"/>
						<path class="st14" d="M15.4,4.7c0.8-0.1,0.8-1.4-0.2-1.5c-1.4-0.2-5.5,0-7.1,0C7,3.3,7.2,4.4,8,4.4C9.3,4.5,13.6,5,15.4,4.7z"
							/>
						<path class="st15" d="M15.3,4.6c0.8-0.1,0.7-1.3-0.2-1.4c-1.3-0.1-5.5,0.1-7,0.1c-1,0-0.8,1-0.1,1.1
							C9.2,4.4,13.6,4.9,15.3,4.6z"/>
						<path class="st16" d="M15.3,4.5c0.7-0.1,0.7-1.2-0.2-1.3c-1.2-0.1-5.4,0.1-7,0.1c-0.9,0-0.8,0.9-0.1,1
							C9.2,4.3,13.5,4.8,15.3,4.5z"/>
						<path class="st17" d="M15.2,4.5c0.7-0.1,0.6-1.1-0.2-1.1c-1.1-0.1-5.4,0.1-6.9,0.1c-0.8,0-0.8,0.8-0.1,0.8
							C9.1,4.3,13.5,4.6,15.2,4.5z"/>
						<path class="st18" d="M15.2,4.4c0.6-0.1,0.5-1-0.2-1c-1-0.1-5.4,0.1-6.9,0.1C7.4,3.4,7.4,4.1,8,4.1C9.1,4.2,13.5,4.5,15.2,4.4
							L15.2,4.4z"/>
						<path class="st19" d="M15.1,4.3c0.6,0,0.5-0.9-0.2-0.9C14,3.3,9.6,3.4,8.1,3.5c-0.7,0-0.7,0.6-0.2,0.6
							C9.1,4.1,13.4,4.4,15.1,4.3z"/>
						<path class="st20" d="M15.1,4.2c0.5,0,0.4-0.7-0.2-0.8c-0.8,0-5.3,0.1-6.7,0.1C7.5,3.5,7.5,4,7.9,4C9,4,13.4,4.2,15.1,4.2
							L15.1,4.2z"/>
						<path class="st21" d="M15,4.1c0.5,0,0.4-0.6-0.2-0.7c-0.7,0-5.3,0.1-6.7,0.1c-0.5,0-0.6,0.4-0.2,0.4C9,3.9,13.3,4.1,15,4.1z"
							/>
					</g>
					<path class="st22" d="M15.6,3c0,0.5-0.4,0.9-0.9,0.9H7.3C6.8,3.9,6.4,3.5,6.4,3l0,0c0-0.5,0.4-0.9,0.9-0.9h7.3
						C15.1,2.1,15.6,2.5,15.6,3L15.6,3z"/>
					<path class="st25" d="M15.7,3.1c0,0.5-0.4,0.9-0.9,0.9H7.4C6.9,4,6.5,3.6,6.5,3.1l0,0c0-0.5,0.4-0.9,0.9-0.9h7.3
						C15.3,2.2,15.7,2.6,15.7,3.1C15.7,3.1,15.7,3.1,15.7,3.1z"/>
				</g>
				<g>
					<g>
						<path class="st0" d="M19.1,7.4c1.4-0.5,1.8-3,0-3.3c-2.8-0.4-5.9,0-7.9,0c-2.3,0-1.7,2.5-0.2,2.8C12.8,7.2,17.2,8,19.1,7.4
							L19.1,7.4z"/>
						<path class="st1" d="M19,7.3c1.4-0.4,1.7-2.9,0-3.2c-2.7-0.4-5.9,0-7.9,0C9,4.1,9.5,6.5,11,6.8C12.8,7.1,17.1,7.9,19,7.3z"/>
						<path class="st2" d="M19,7.2c1.4-0.4,1.6-2.8,0-3c-2.6-0.4-5.9,0-7.8,0c-2.1,0-1.6,2.3-0.2,2.6C12.8,7.1,17.1,7.8,19,7.2z"/>
						<path class="st3" d="M18.9,7.1c1.3-0.4,1.6-2.7,0-2.9c-2.5-0.4-5.8,0-7.7,0c-2,0-1.6,2.2-0.2,2.4C12.7,7,17,7.7,18.9,7.1z"/>
						<path class="st4" d="M18.9,7c1.3-0.4,1.5-2.6,0-2.8c-2.4-0.4-5.8,0-7.7,0c-1.9,0-1.5,2.1-0.2,2.3C12.7,6.9,17,7.5,18.9,7z"/>
						<path class="st5" d="M18.8,6.9c1.2-0.3,1.4-2.5,0-2.7c-2.3-0.3-5.8,0-7.6,0c-1.8,0-1.4,2-0.2,2.2C12.7,6.8,17,7.4,18.8,6.9
							L18.8,6.9z"/>
						<path class="st6" d="M18.8,6.8c1.2-0.3,1.4-2.3,0-2.5c-2.2-0.3-5.7,0-7.6,0c-1.8,0-1.4,1.9-0.2,2.1
							C12.6,6.7,16.9,7.3,18.8,6.8L18.8,6.8z"/>
						<path class="st7" d="M18.7,6.7c1.1-0.3,1.3-2.2,0-2.4c-2.1-0.3-5.7,0-7.5,0c-1.7,0-1.3,1.8-0.2,2C12.6,6.6,16.9,7.2,18.7,6.7z
							"/>
						<path class="st8" d="M18.7,6.6c1.1-0.3,1.2-2.1,0-2.3c-2-0.3-5.7,0-7.5,0c-1.6,0-1.3,1.7-0.2,1.9C12.5,6.5,16.9,7.1,18.7,6.6z
							"/>
						<path class="st9" d="M18.7,6.5c1-0.2,1.2-2-0.1-2.2c-1.9-0.2-5.7,0-7.4,0C9.7,4.4,10,6,11,6.2C12.5,6.4,16.9,7,18.7,6.5z"/>
						<path class="st10" d="M18.6,6.4c1-0.2,1.1-1.9-0.1-2c-1.8-0.2-5.6,0-7.3,0C9.8,4.4,10,5.9,11,6.1C12.5,6.3,16.8,6.8,18.6,6.4z
							"/>
						<path class="st11" d="M18.6,6.3c0.9-0.2,1-1.8-0.1-1.9c-1.7-0.2-5.6,0-7.3,0C9.9,4.5,10.1,5.9,11,6
							C12.4,6.2,16.8,6.7,18.6,6.3z"/>
						<path class="st12" d="M18.5,6.3c0.9-0.2,1-1.7-0.1-1.8c-1.6-0.2-5.6,0-7.2,0c-1.3,0-1.1,1.3-0.2,1.4
							C12.4,6.1,16.8,6.6,18.5,6.3L18.5,6.3z"/>
						<path class="st13" d="M18.5,6.2c0.8-0.2,0.9-1.5-0.1-1.7c-1.5-0.2-5.5,0-7.2,0c-1.2,0-1,1.2-0.2,1.3C12.4,6,16.7,6.5,18.5,6.2
							L18.5,6.2z"/>
						<path class="st14" d="M18.4,6.1c0.8-0.1,0.8-1.4-0.1-1.5c-1.4-0.2-5.5,0-7.1,0c-1.1,0-1,1.1-0.2,1.2
							C12.3,5.9,16.7,6.3,18.4,6.1L18.4,6.1z"/>
						<path class="st15" d="M18.4,6c0.8-0.1,0.8-1.3-0.1-1.4c-1.3-0.1-5.5,0.1-7,0.1c-1,0-0.9,1-0.2,1.1C12.3,5.8,16.6,6.2,18.4,6
							L18.4,6z"/>
						<path class="st16" d="M18.3,5.9C19,5.8,19,4.7,18.2,4.6c-1.2-0.1-5.4,0.1-7,0.1c-0.9,0-0.8,0.9-0.2,1
							C12.3,5.7,16.6,6.1,18.3,5.9L18.3,5.9z"/>
						<path class="st17" d="M18.3,5.8c0.7-0.1,0.6-1.1-0.2-1.2c-1.1-0.1-5.4,0.1-6.9,0.1c-0.8,0-0.8,0.8-0.2,0.8
							C12.2,5.6,16.6,6,18.3,5.8L18.3,5.8z"/>
						<path class="st18" d="M18.2,5.7c0.6-0.1,0.6-1-0.2-1c-1-0.1-5.4,0.1-6.9,0.1c-0.7,0-0.7,0.7-0.2,0.7
							C12.2,5.5,16.5,5.9,18.2,5.7z"/>
						<path class="st19" d="M18.2,5.6c0.6,0,0.5-0.9-0.2-0.9c-0.9-0.1-5.4,0.1-6.8,0.1c-0.7,0-0.7,0.6-0.2,0.6
							C12.1,5.4,16.5,5.7,18.2,5.6L18.2,5.6z"/>
						<path class="st20" d="M18.1,5.5c0.5,0,0.4-0.8-0.2-0.8c-0.8,0-5.3,0.1-6.7,0.1c-0.6,0-0.6,0.5-0.2,0.5
							C12.1,5.3,16.5,5.6,18.1,5.5z"/>
						<path class="st21" d="M18.1,5.4c0.5,0,0.4-0.6-0.2-0.7c-0.7,0-5.3,0.1-6.7,0.1c-0.5,0-0.6,0.4-0.2,0.4
							C12.1,5.2,16.4,5.4,18.1,5.4z"/>
					</g>
					<path class="st26" d="M18.8,4.4c0,0.5-0.4,0.9-0.9,0.9h-7.3c-0.5,0-0.9-0.4-0.9-0.9l0,0c0-0.5,0.4-0.9,0.9-0.9h7.3
						C18.4,3.5,18.8,3.9,18.8,4.4C18.8,4.4,18.8,4.4,18.8,4.4z"/>
				</g>
				<g>
					<g>
						<path class="st0" d="M21.1,12.8c1.9-0.5,2.3-3.1,0.1-3.3c-3.7-0.4-7.7,0-10.3,0c-3,0-2,2.7,0,2.9
							C13.2,12.5,18.6,13.5,21.1,12.8L21.1,12.8z"/>
						<path class="st1" d="M21,12.7c1.8-0.4,2.2-2.9,0.1-3.2c-3.5-0.4-7.7,0-10.2,0c-2.8,0-2,2.6-0.1,2.8
							C13.1,12.4,18.5,13.4,21,12.7z"/>
						<path class="st2" d="M21,12.6c1.8-0.4,2.2-2.8,0.1-3.1c-3.4-0.4-7.6,0-10.2,0c-2.7,0-1.9,2.5-0.1,2.6
							C13.1,12.3,18.5,13.2,21,12.6z"/>
						<path class="st3" d="M20.9,12.6c1.7-0.4,2.1-2.7,0-2.9c-3.3-0.4-7.6,0-10.1,0c-2.6,0-1.9,2.4-0.1,2.5
							C13,12.3,18.5,13.1,20.9,12.6L20.9,12.6z"/>
						<path class="st4" d="M20.8,12.5c1.6-0.4,2-2.6,0-2.8c-3.1-0.4-7.6,0-10,0c-2.5,0-1.8,2.3-0.1,2.4C13,12.2,18.4,13,20.8,12.5
							L20.8,12.5z"/>
						<path class="st5" d="M20.8,12.4c1.6-0.3,1.9-2.5,0-2.7c-3-0.3-7.5,0-9.9,0c-2.4,0-1.7,2.2-0.1,2.3
							C12.9,12.1,18.4,12.9,20.8,12.4L20.8,12.4z"/>
						<path class="st6" d="M20.7,12.3c1.5-0.3,1.8-2.4,0-2.6c-2.9-0.3-7.5,0-9.9,0c-2.3,0-1.7,2.1-0.1,2.2
							C12.9,12,18.3,12.8,20.7,12.3L20.7,12.3z"/>
						<path class="st7" d="M20.7,12.2c1.5-0.3,1.7-2.3,0-2.4c-2.8-0.3-7.4,0-9.8,0c-2.2,0-1.6,2-0.1,2
							C12.8,11.9,18.3,12.6,20.7,12.2z"/>
						<path class="st8" d="M20.6,12.1c1.4-0.3,1.6-2.1,0-2.3c-2.6-0.3-7.4,0-9.7,0c-2.1,0-1.6,1.9-0.1,1.9
							C12.7,11.8,18.2,12.5,20.6,12.1L20.6,12.1z"/>
						<path class="st9" d="M20.6,12c1.4-0.2,1.5-2-0.1-2.2c-2.5-0.2-7.4,0-9.6,0c-2,0-1.5,1.7-0.1,1.8C12.7,11.7,18.2,12.4,20.6,12z
							"/>
						<path class="st10" d="M20.5,11.9c1.3-0.2,1.4-1.9-0.1-2c-2.4-0.2-7.3,0-9.6,0c-1.8,0-1.4,1.6-0.1,1.7
							C12.6,11.6,18.2,12.3,20.5,11.9z"/>
						<path class="st11" d="M20.4,11.8c1.2-0.2,1.4-1.8-0.1-1.9c-2.2-0.2-7.3,0-9.5,0c-1.7,0-1.4,1.5-0.1,1.6
							C12.6,11.6,18.1,12.2,20.4,11.8L20.4,11.8z"/>
						<path class="st12" d="M20.4,11.7c1.2-0.2,1.3-1.7-0.1-1.8c-2.1-0.2-7.2,0-9.4,0c-1.6,0-1.3,1.4-0.1,1.5
							C12.5,11.5,18.1,12,20.4,11.7z"/>
						<path class="st13" d="M20.3,11.6c1.1-0.2,1.2-1.6-0.1-1.7c-2-0.2-7.2,0-9.3,0c-1.5,0-1.2,1.3-0.2,1.3
							C12.5,11.4,18,11.9,20.3,11.6L20.3,11.6z"/>
						<path class="st14" d="M20.3,11.5c1-0.1,1.1-1.4-0.2-1.5c-1.8-0.2-7.2,0-9.3,0c-1.4,0-1.2,1.2-0.2,1.2
							C12.4,11.3,18,11.8,20.3,11.5L20.3,11.5z"/>
						<path class="st15" d="M20.2,11.4c1-0.1,1-1.3-0.2-1.4c-1.7-0.1-7.1,0.1-9.2,0.1c-1.3,0-1.1,1.1-0.2,1.1
							C12.4,11.2,17.9,11.7,20.2,11.4L20.2,11.4z"/>
						<path class="st16" d="M20.1,11.3c0.9-0.1,0.9-1.2-0.2-1.3c-1.6-0.1-7.1,0.1-9.1,0.1c-1.2,0-1.1,1-0.2,1
							C12.3,11.1,17.9,11.6,20.1,11.3L20.1,11.3z"/>
						<path class="st17" d="M20.1,11.2c0.9-0.1,0.8-1.1-0.2-1.2c-1.4-0.1-7,0.1-9,0.1c-1.1,0-1,0.8-0.2,0.9
							C12.2,11,17.9,11.4,20.1,11.2L20.1,11.2z"/>
						<path class="st18" d="M20,11.1c0.8-0.1,0.8-1-0.2-1c-1.3-0.1-7,0.1-8.9,0.1c-1,0-0.9,0.7-0.2,0.7C12.2,10.9,17.8,11.3,20,11.1
							L20,11.1z"/>
						<path class="st19" d="M20,11c0.7,0,0.7-0.9-0.2-0.9c-1.2-0.1-7,0.1-8.9,0.1c-0.9,0-0.9,0.6-0.2,0.6C12.1,10.9,17.8,11.2,20,11
							L20,11z"/>
						<path class="st20" d="M19.9,10.9c0.7,0,0.6-0.8-0.2-0.8c-1,0-6.9,0.1-8.8,0.1c-0.7,0-0.8,0.5-0.2,0.5
							C12.1,10.8,17.7,11,19.9,10.9z"/>
						<path class="st21" d="M19.9,10.8c0.6,0,0.5-0.6-0.3-0.7c-0.9,0-6.9,0.1-8.7,0.1c-0.6,0-0.7,0.4-0.2,0.4
							C12,10.7,17.7,10.9,19.9,10.8z"/>
					</g>
					<path class="st27" d="M21,9.7c0,0.5-0.4,0.9-0.9,0.9h-9.9c-0.5,0-0.9-0.4-0.9-0.9l0,0c0-0.5,0.4-0.9,0.9-0.9h9.9
						C20.6,8.8,21,9.2,21,9.7L21,9.7z"/>
					<path class="st28" d="M21.1,9.8c0,0.5-0.4,0.9-0.9,0.9h-9.9c-0.5,0-0.9-0.4-0.9-0.9l0,0c0-0.5,0.4-0.9,0.9-0.9h9.9
						C20.7,8.9,21.1,9.3,21.1,9.8L21.1,9.8z"/>
				</g>
			</g>
		</g>
	</g>
</g>
</svg>
