<?xml version="1.0" encoding="utf-8"?>
<!-- Generator: Adobe Illustrator 27.0.1, SVG Export Plug-In . SVG Version: 6.00 Build 0)  -->
<svg version="1.1" id="Ebene_1" xmlns="http://www.w3.org/2000/svg" xmlns:xlink="http://www.w3.org/1999/xlink" x="0px" y="0px"
	 viewBox="0 0 47.9 47.9" style="enable-background:new 0 0 47.9 47.9;" xml:space="preserve">
<style type="text/css">
	.st0{fill:#FFFFFF;fill-opacity:0;}
	.st1{opacity:5.000000e-02;fill:#F9FBFB;enable-background:new    ;}
	.st2{opacity:0.1;fill:#F4F6F8;enable-background:new    ;}
	.st3{opacity:0.14;fill:#EEF2F4;enable-background:new    ;}
	.st4{opacity:0.19;fill:#E9EDF1;enable-background:new    ;}
	.st5{opacity:0.24;fill:#E3E9ED;enable-background:new    ;}
	.st6{opacity:0.29;fill:#DEE5EA;enable-background:new    ;}
	.st7{opacity:0.33;fill:#D8E0E6;enable-background:new    ;}
	.st8{opacity:0.38;fill:#D3DCE3;enable-background:new    ;}
	.st9{opacity:0.43;fill:#CDD8DF;enable-background:new    ;}
	.st10{opacity:0.48;fill:#C8D3DC;enable-background:new    ;}
	.st11{opacity:0.52;fill:#C2CFD8;enable-background:new    ;}
	.st12{opacity:0.57;fill:#BDCAD5;enable-background:new    ;}
	.st13{opacity:0.62;fill:#B7C6D1;enable-background:new    ;}
	.st14{opacity:0.67;fill:#B2C2CE;enable-background:new    ;}
	.st15{opacity:0.71;fill:#ACBDCA;enable-background:new    ;}
	.st16{opacity:0.76;fill:#A7B9C7;enable-background:new    ;}
	.st17{opacity:0.81;fill:#A1B5C3;enable-background:new    ;}
	.st18{opacity:0.86;fill:#9CB0C0;enable-background:new    ;}
	.st19{opacity:0.9;fill:#96ACBC;enable-background:new    ;}
	.st20{opacity:0.95;fill:#91A7B9;enable-background:new    ;}
	.st21{fill:#8BA3B5;}
	.st22{fill:#EEF7FA;}
	.st23{fill:#E4F1F5;}
	.st24{fill:#FFFFFF;}
	.st25{fill:#E9F2F5;}
</style>
<g>
	<g id="Ebene_2_00000078022075396992531930000007206352953557687453_">
		<g id="_ŽÓť_4">
			<g>
				<g>
					<g>
						<path class="st0" d="M45,34.1c3.5-4.7,3.3-8.4,2.2-12.7c-0.8-3.1-1.3-5.1-2.8-8C43,11,40.1,7.6,36,6.8S22.1,15,18.7,16.1
							c-3.5,1.6-8,4.9-12.7,7.6C3.7,25,0.2,29,0,31c-0.2,3.6,0.8,4.9,1.8,6.2c1,1.3,3.5,3.8,5,4.7c1.3,0.9,4.8,2.2,6,2.2
							c2.7,0.4,3.5-0.7,5.7-0.4c2.7,0.4,3.7,0.7,4.8,0.7s2-0.4,2.7-0.4c0.8,0,2.3,0,3.3-0.2c2.8-0.9,3.3-0.4,4.8-1.1
							C37.6,41.6,42,38.1,45,34.1L45,34.1z"/>
						<path class="st1" d="M44.5,34.1c3.5-4.4,3.3-8.2,2.2-12.2c-0.8-2.9-1.3-4.9-2.8-7.8c-1.3-2.4-4-5.8-8.2-6.7
							c-4-0.9-13.5,8-16.9,9.1c-3.5,1.3-7.9,4.7-12.4,7.1c-2.3,1.1-6,5.1-6,7.3c0,3.3,0.8,4.7,2,6c1.2,1.3,3.5,3.8,5,4.7
							s4.7,2,6,2.2c2.5,0.4,3.5-0.4,5.5-0.2c2.7,0.4,3.5,0.7,4.8,0.4c1.2,0,2-0.2,2.7-0.2c1,0,2.3,0,3.3-0.2
							c2.8-0.7,3.2-0.4,4.7-1.1C37.5,41,41.6,37.6,44.5,34.1z"/>
						<path class="st2" d="M44.1,33.9c3.3-4.2,3.2-8,2-11.8c-0.8-2.9-1.3-4.9-2.8-7.6c-1.3-2.4-3.8-5.6-8-6.7s-13.2,7.8-16.5,8.9
							c-3.5,1.3-7.7,4.7-12,7.1c-2.3,1.3-6.2,4.9-6.4,7.1c0,3.3,0.8,4.4,2,5.8c1.2,1.3,3.5,3.8,4.8,4.4c1.3,0.7,4.7,1.8,5.9,2
							c2.5,0.2,3.5-0.4,5.5-0.2c2.7,0.4,3.5,0.4,4.7,0.4c1,0,2-0.2,2.7-0.2c1,0,2.3,0,3.3-0.2c2.7-0.7,3.2-0.4,4.7-1.1
							C37.3,40.5,41.3,37.4,44.1,33.9L44.1,33.9z"/>
						<path class="st3" d="M43.6,33.6c3.3-4.2,3.2-7.8,2-11.5c-0.8-2.9-1.5-4.7-2.8-7.3c-1.3-2.4-3.7-5.6-7.9-6.7
							s-12.9,7.6-16.2,8.7c-3.5,1.6-7.4,4.9-11.7,7.3c-2.2,1.1-6.5,4.7-6.4,6.9c0,3.1,1,4.2,2.2,5.6C4,37.8,6.2,40.3,7.7,41
							c1.5,0.9,4.5,1.6,5.7,1.8c2.5,0.2,3.5-0.2,5.5,0c2.7,0.2,3.5,0.4,4.7,0.4c1,0,1.8-0.2,2.7-0.2c1,0,2.3,0,3.3-0.4
							c2.7-0.7,3-0.4,4.7-1.1C37.1,40.1,41,37,43.6,33.6L43.6,33.6z"/>
						<path class="st4" d="M43.3,33.4c3.2-4,3-7.6,1.8-11.1c-0.8-2.9-1.5-4.4-2.8-7.1C41,13,38.8,9.9,34.8,8.5
							c-3.8-1.1-12.5,7.3-15.9,8.4c-3.5,1.6-7.4,4.9-11.5,7.1c-2.2,1.1-6.7,4.4-6.5,6.7c0,3.1,0.8,4.2,2,5.3
							c1.2,1.1,3.3,3.6,4.7,4.2c1.5,0.7,4.3,1.3,5.7,1.6c2.5,0.2,3.5,0,5.5,0.2c2.7,0.2,3.3,0.4,4.5,0.2c1,0,1.8-0.2,2.7-0.2
							c1.2,0,2.3-0.2,3.3-0.4c2.5-0.7,3-0.2,4.7-1.1C37,39.6,40.6,36.7,43.3,33.4L43.3,33.4z"/>
						<path class="st5" d="M42.8,33.2c3-3.8,3-7.3,1.8-10.7c-0.8-2.7-1.5-4.4-3-6.9c-1.3-2.2-3.3-5.3-7.4-6.7
							c-3.8-1.3-12.4,7.1-15.5,8.2c-3.3,1.6-7,4.9-11.2,7.1c-2.2,1.1-6.9,4.2-6.7,6.4c0.2,2.9,1,4,2.2,5.1s3.3,3.6,4.7,4.2
							c1.5,0.7,4.2,1.1,5.5,1.3c2.5,0.2,3.3,0,5.5,0.2c2.7,0.2,3.3,0.2,4.5,0.2c1,0,1.8,0,2.7,0c1.2,0,2.3-0.2,3.5-0.4
							c2.5-0.7,3-0.2,4.5-0.9C36.8,39.2,40.3,36.3,42.8,33.2L42.8,33.2z"/>
						<path class="st6" d="M42.5,33c3-3.6,2.8-6.9,1.7-10.2c-1-2.7-1.7-4.2-3-6.7c-1.2-2.2-3.2-5.3-7.2-6.7
							c-3.8-1.3-12,6.9-15.2,8.2c-3.5,1.3-7,4.7-11,6.7c-1.8,1.1-6.9,4-6.7,6.4c0.2,2.7,1.2,3.8,2.3,4.9c1.2,1.1,3.3,3.6,4.7,4
							c1.7,0.7,4.2,0.9,5.5,1.1c2.5,0.2,3.3,0.2,5.3,0.4c2.7,0.2,3.2,0.2,4.5,0.2c1,0,1.8,0,2.7,0c1.2,0,2.5-0.2,3.5-0.4
							c2.5-0.7,2.8-0.2,4.5-0.9C36.6,38.7,40,36.1,42.5,33L42.5,33z"/>
						<path class="st7" d="M42.1,33c2.8-3.3,2.8-6.7,1.7-10c-1-2.7-1.7-4.2-3-6.4c-1.2-2.2-3-5.1-7-6.7c-3.7-1.3-11.7,6.7-14.9,8
							c-3.5,1.3-6.7,4.7-10.7,6.7c-2,1.1-7.2,3.6-7,6.2c0.2,2.7,1.2,3.6,2.3,4.7s3.2,3.6,4.5,4c1.7,0.7,4,0.7,5.3,0.9
							c2.3,0.2,3.3,0.4,5.3,0.4c2.7,0.2,3.2,0.2,4.3,0.2c1,0,1.7,0,2.7,0c1.3,0,2.5-0.4,3.5-0.7c2.3-0.7,2.8-0.2,4.5-0.9
							C36.5,38.1,39.6,35.6,42.1,33L42.1,33z"/>
						<path class="st8" d="M41.6,32.7c2.8-3.1,2.7-6.4,1.5-9.5c-1-2.4-1.7-4-3-6.2c-1.2-2-2.8-5.1-6.9-6.7
							c-3.7-1.6-11.4,6.7-14.5,7.8c-3.3,1.3-6.5,4.7-10.4,6.7c-2,1.1-7.4,3.3-7.2,6s1.3,3.3,2.5,4.4c1.2,1.3,3.2,3.3,4.5,3.8
							c1.7,0.7,3.8,0.4,5.2,0.7c2.3,0.2,3.3,0.4,5.3,0.7c2.7,0.2,3.2,0,4.3,0c1,0,1.7,0,2.7,0c1.3,0,2.5-0.4,3.5-0.7
							c2.3-0.4,2.7,0,4.3-0.9C36.3,37.6,39.1,35.4,41.6,32.7L41.6,32.7z"/>
						<path class="st9" d="M41.3,32.5c2.7-2.9,2.7-6.2,1.5-9.1c-1-2.4-1.8-3.8-3-6c-1.2-2-2.7-4.9-6.7-6.7c-3.7-1.6-11,6.4-14.2,7.6
							c-3.3,1.1-6.4,4.4-10,6.4c-1.8,1.1-7.7,3.1-7.4,5.8C1.7,33,2.9,33.6,4,34.7c1.2,1.3,3.2,3.3,4.5,3.8c1.8,0.4,3.7,0.4,5.2,0.4
							c2.3,0.2,3.3,0.7,5.3,0.9c2.7,0.2,3,0,4.2,0c0.8,0,1.7,0.2,2.7,0.2c1.3,0,2.5-0.4,3.5-0.7c2.2-0.4,2.7,0,4.3-0.9
							C36.3,37.2,39,35.2,41.3,32.5L41.3,32.5z"/>
						<path class="st10" d="M40.8,32.3c2.5-2.7,2.5-6,1.3-8.7c-1-2.4-1.8-3.8-3-5.8c-1.2-2-2.5-4.9-6.4-6.7
							c-3.7-1.8-10.9,6.2-13.9,7.3C15.6,19.9,12.7,23,9,25c-1.8,0.9-7.9,2.9-7.5,5.6c0.2,2.2,1.3,2.9,2.5,4c1.3,1.1,3.2,3.3,4.3,3.6
							c1.8,0.4,3.7,0.2,5,0.2c2.3,0.2,3.3,0.9,5.2,0.9c2.7,0.2,3,0,4.2,0c0.8,0,1.5,0.2,2.7,0.2c1.5,0,2.5-0.7,3.5-0.9
							c2.2-0.4,2.5,0,4.3-0.9C36.1,36.7,38.5,34.7,40.8,32.3z"/>
						<path class="st11" d="M40.5,32.1c2.5-2.4,2.5-5.8,1.3-8.4c-1-2.4-1.8-3.6-3-5.6c-1.2-2-2.3-4.7-6.2-6.7
							c-3.5-1.8-10.5,6-13.5,7.1c-3.3,1.3-6,4.4-9.5,6.4c-1.8,0.9-8,2.7-7.7,5.3C2,32.5,3.4,33,4.5,34.1c1.3,1.1,3,3.1,4.3,3.6
							c1.8,0.4,3.5,0,4.8,0.2c2.3,0.2,3.2,0.9,5.2,1.1c2.7,0.2,3-0.2,4.2,0c0.8,0,1.5,0.2,2.7,0.2c1.5,0,2.5-0.7,3.5-0.9
							c2-0.4,2.5,0,4.2-0.9C36,36.3,38.1,34.3,40.5,32.1L40.5,32.1z"/>
						<path class="st12" d="M40,32.1c2.3-2.2,2.3-5.3,1.2-8c-1-2.2-2-3.6-3.2-5.3c-1.2-1.8-2.2-4.7-6-6.7
							c-3.5-1.8-10.2,5.8-13.2,6.9c-3.3,1.3-5.9,4.4-9.4,6.4c-1.8,0.9-8.2,2.4-7.9,5.1c0.2,2,1.5,2.4,2.7,3.6c1.3,1.1,3,3.1,4.2,3.6
							c1.8,0.4,3.3-0.2,4.8,0c2.3,0.2,3.2,1.1,5.2,1.1c2.5,0.2,2.8-0.2,4-0.2c0.8,0,1.5,0.2,2.7,0.2c1.5,0,2.5-0.7,3.5-0.9
							c2-0.4,2.3,0,4.2-0.9C35.8,35.9,37.8,34.1,40,32.1L40,32.1z"/>
						<path class="st13" d="M39.6,31.9c2.3-2,2.3-5.1,1.2-7.6c-1-2.2-2-3.3-3.2-5.1c-1.2-1.8-2-4.4-5.9-6.7c-3.5-2-9.9,5.6-12.9,6.7
							c-3.3,1.3-5.7,4.4-9,6.2c-1.7,0.9-8.5,2.2-8,5.1c0.3,2,1.5,2.4,2.8,3.3C6,35,7.7,37,8.9,37.2c2,0.4,3.2-0.4,4.7-0.2
							c2.2,0.2,3.2,1.3,5.2,1.3c2.5,0.2,2.8-0.2,4-0.2c0.8,0,1.5,0.4,2.7,0.4c1.7,0,2.7-0.9,3.5-0.9c1.8-0.4,2.3,0.2,4.2-0.7
							C35.6,35.2,37.5,33.6,39.6,31.9z"/>
						<path class="st14" d="M39.3,31.6c2.2-1.8,2.2-4.9,1-7.3c-1-2-2-3.1-3.2-4.9c-1.2-1.8-1.8-4.4-5.7-6.7c-3.5-2-9.5,5.3-12.5,6.4
							c-3.3,1.3-5.5,4.4-8.7,6.2c-1.7,0.9-8.7,2-8.2,4.9c0.3,1.8,1.7,2.2,2.8,3.1c1.3,1.1,2.8,3.1,4.2,3.1c2,0.4,3-0.4,4.7-0.4
							c2.2,0.2,3.2,1.3,5.2,1.6c2.5,0.2,2.7-0.4,3.8-0.2c0.8,0,1.3,0.4,2.7,0.4c1.7,0,2.7-0.9,3.5-1.1c1.8-0.4,2.2,0.2,4.2-0.7
							C35.5,34.7,37.1,33.4,39.3,31.6L39.3,31.6z"/>
						<path class="st15" d="M38.8,31.4c2-1.6,2-4.7,1-6.9c-1-2-2.2-3.1-3.2-4.7c-1-1.6-1.7-4.2-5.3-6.7c-3.3-2.2-9.4,5.1-12.2,6.2
							c-3.2,1.3-5.3,4.4-8.4,6.2c-1.7,0.9-8.9,1.8-8.4,4.7c0.3,1.8,1.7,2,2.8,2.9c1.2,1.1,2.8,2.9,4,3.1c2,0.2,3-0.9,4.5-0.7
							c2.2,0.2,3.2,1.6,5,1.6c2.5,0.2,2.7-0.4,3.8-0.4c0.7,0,1.3,0.4,2.7,0.4c1.7,0,2.7-0.9,3.5-1.1c1.7-0.4,2.2,0.2,4-0.7
							C35.3,34.3,36.8,33,38.8,31.4L38.8,31.4z"/>
						<path class="st16" d="M38.5,31.2c2-1.3,2-4.4,0.8-6.4c-1-2-2.2-2.9-3.2-4.4c-1-1.6-1.5-4.2-5.2-6.9c-3.3-2.2-9,4.9-11.9,6.2
							c-3.2,1.3-5.2,4.4-8.2,6c-1.5,0.9-9,1.3-8.5,4.4c0.3,1.6,1.8,1.8,3,2.7c1.3,1.1,2.8,2.9,4,3.1c2,0.2,2.8-0.9,4.3-0.9
							c2.2,0.2,3.2,1.8,5,1.8c2.5,0,2.7-0.4,3.8-0.4c0.7,0,1.3,0.4,2.7,0.4c1.8,0,2.7-0.9,3.5-1.1c1.7-0.2,2,0.2,4-0.7
							C35.1,33.9,36.5,32.7,38.5,31.2L38.5,31.2z"/>
						<path class="st17" d="M38,31.2c1.8-1.3,1.8-4.2,0.8-6.2c-1-2-2.2-2.9-3.2-4.4c-1-1.6-1.3-4.2-5-6.7c-3.3-2.2-8.7,4.9-11.5,6
							c-3.2,1.3-4.8,4.4-7.9,6c-1.5,0.9-9.4,1.1-8.7,4.2c0.3,1.6,1.8,1.6,3,2.4c1.3,1.1,2.8,2.9,4,2.9c2.2,0.2,2.7-1.1,4.3-1.1
							c2.2,0.2,3,1.8,5,2c2.5,0,2.5-0.7,3.7-0.4c0.7,0,1.3,0.4,2.7,0.7c1.8,0,2.7-1.1,3.5-1.3c1.7-0.2,2,0.2,4-0.7
							C35,33.4,36,32.3,38,31.2L38,31.2z"/>
						<path class="st18" d="M37.6,31c1.8-1.1,1.8-4,0.7-5.8S36,22.5,35,21c-1-1.6-1-4-4.8-6.7c-3.3-2.4-8.4,4.7-11.2,5.8
							c-3.2,1.3-4.7,4.4-7.5,6c-1.5,0.9-9.5,0.9-8.9,4c0.3,1.3,1.8,1.3,3,2.2c1.3,1.1,2.7,2.7,3.8,2.9c2.2,0.2,2.5-1.3,4.2-1.3
							c2.2,0.2,3,2,4.8,2c2.5,0,2.5-0.7,3.7-0.4c0.7,0,1.2,0.7,2.7,0.7c1.8,0,2.7-1.1,3.5-1.3c1.5-0.2,1.8,0.4,4-0.7
							C34.8,33,35.6,32.1,37.6,31z"/>
						<path class="st19" d="M37.1,30.7c1.7-0.9,1.7-3.6,0.7-5.3c-1-1.8-2.3-2.4-3.3-4c-1-1.3-0.8-4-4.7-6.7c-3.2-2.4-8,4.4-10.9,5.6
							c-3.2,1.3-4.5,4.4-7.4,6c-1.5,0.7-9.7,0.7-9,4c0.3,1.3,2,1.1,3.2,2C7,33.2,8.4,35,9.5,35c2.2,0,2.3-1.6,4-1.6
							c2,0.2,3,2.2,4.8,2.2c2.5,0,2.5-0.7,3.5-0.7c0.7,0,1.2,0.7,2.7,0.7c2,0,2.8-1.1,3.5-1.3c1.5-0.2,1.8,0.4,3.8-0.7
							C34.8,32.3,35.3,31.6,37.1,30.7z"/>
						<path class="st20" d="M36.8,30.5c1.5-0.7,1.7-3.3,0.7-4.9c-1-1.6-2.3-2.4-3.3-3.8c-1-1.3-0.8-3.8-4.5-6.7
							c-3.2-2.4-7.7,4.2-10.5,5.3c-3.2,1.3-4.3,4.4-7,5.8c-1.3,0.7-10,0.4-9.2,3.8c0.3,1.1,2,0.9,3.2,1.8c1.3,0.9,2.7,2.7,3.7,2.7
							c2.2,0,2.3-1.8,4-1.8c2,0.2,3,2.2,4.8,2.2c2.5,0,2.3-0.9,3.5-0.7c0.7,0,1.2,0.7,2.7,0.7c2,0,2.8-1.3,3.5-1.3
							c1.3-0.2,1.8,0.4,3.8-0.4C34.6,31.9,35,31.4,36.8,30.5z"/>
						<path class="st21" d="M36.5,30.3c1.5-0.4,1.5-3.1,0.5-4.7c-1.2-1.6-2.5-2.2-3.3-3.6c-1-1.3-0.7-3.8-4.2-6.7
							c-3.2-2.7-7.5,4-10.2,5.1c-3.2,1.3-4.2,4.4-6.7,5.8c-1.3,0.7-10.4,0.2-9.4,3.6c0.3,1.1,2.2,0.7,3.3,1.6
							c1.3,0.9,2.7,2.4,3.7,2.4c2.3-0.2,2.2-2,3.8-2c2,0,3,2.4,4.8,2.4c2.5,0,2.3-0.9,3.5-0.7c0.7,0,1,0.9,2.7,0.9
							c2,0,2.8-1.3,3.7-1.3c1.3-0.2,1.7,0.4,3.8-0.4C34.4,31.4,34.6,31,36.5,30.3L36.5,30.3z"/>
					</g>
					<path class="st22" d="M35.5,23.9c-0.3-1.6-1-2.7-1.8-3.8c0.2-0.9,0.3-1.8,0.3-2.7c0.2-4.7-2.5-8.7-6-8.9c-2.7-0.2-5,2-6,4.9
						c-0.2,0-0.3,0-0.5,0c-2.2-0.2-4.2,1.3-5.5,3.3c-0.5,0.2-0.8,0-1.3,0c-1.8-0.2-3.5,1.8-3.7,4.4c0,0.4,0,0.9,0.2,1.3
						c-0.7,0.2-1.3,0.7-1.7,1.6c-0.5-1.3-1.3-2-2.5-2c-1.3,0-2.7,1.1-3.2,2.9H3.5C2.2,25,1,26.3,1,28.1s1,3.3,2.3,3.3
						c0.7,0,1.3-0.2,1.7-0.9c0.5,0.4,1,0.7,1.5,0.7c0.5,1.6,1.7,2.7,3,2.7s2.7-0.9,3.2-2.4c0.5,0,1,0.2,1.3,0.2c0.2,0,0.3,0,0.5,0
						c0.8,1.3,2,2.4,3.5,2.4s2.7-0.7,3.7-2c0.5,1.3,1.7,2.4,3,2.4s2.5-0.9,3.2-2.4c0.7,0.4,1.5,0.7,2.2,0.9c1.7,0,3.3-0.9,4.3-2.7
						c0.2,0.2,0.5,0.2,0.8,0.2c1.3,0,2.5-1.3,2.7-3.1C38,25.4,36.8,23.9,35.5,23.9L35.5,23.9z"/>
					<path class="st23" d="M35.6,23.9c-0.3-1.6-1-2.7-1.8-3.8c0.2-0.9,0.3-1.8,0.3-2.7c0.2-4.7-2.5-8.7-6-8.9c-2.7-0.2-5,2-6,4.9
						c-0.2,0-0.3,0-0.5,0c-2.5,0.2-4.5,1.6-5.7,3.8C15.6,17,15.1,17,14.7,17c-1.8-0.2-3.5,1.8-3.7,4.4c0,0.4,0,0.9,0.2,1.3
						c-0.7,0-1.3,0.4-1.7,1.3C9,23,8,22.3,7,22.3c-1.5,0-2.7,1.1-3.2,2.7H3.7c-1.3,0-2.5,1.3-2.5,3.1s1,3.3,2.3,3.3
						c0.7,0,1.3-0.2,1.7-0.9c0.5,0.4,1,0.7,1.5,0.7c0.5,1.6,1.7,2.7,3,2.7s2.7-0.9,3.2-2.4c0.5,0,0.8,0.2,1.3,0.2c0.2,0,0.3,0,0.5,0
						c0.8,1.3,2,2.4,3.5,2.4c1.5,0,2.7-0.7,3.7-2c0.5,1.3,1.7,2.4,3,2.4s2.5-0.9,3.2-2.4c0.7,0.4,1.5,0.7,2.2,0.9
						c1.7,0,3.3-0.9,4.3-2.7c0.2,0.2,0.5,0.2,0.8,0.2c1.3,0,2.5-1.3,2.7-3.1C38,25.6,37,24.1,35.6,23.9L35.6,23.9z"/>
				</g>
				<g>
					<g>
						<path class="st0" d="M31.6,28.5c1.7-3.8,0-8.9-0.8-11.8c-0.7-2-2.5-4.9-4.2-5.8c-1.5-1.1-2.2-2.2-4.2-2.4
							c-2.7-0.4-6.4,2.4-8.7,3.3s-6.5,3.6-8.9,6.7c-2.7,3.8-2.7,6.9-2,9.1c0.7,2.4,2,3.8,2.8,4.7s1.7,1.8,2.5,2.4
							c1.8,1.1,3.3,1.1,4.7,1.3c1,0,3.7,0.4,6.4-0.4c1.8-0.4,3.7-0.9,4.7-1.3C26.3,33.2,30.1,31.6,31.6,28.5z"/>
						<path class="st1" d="M31.3,28.3c1.7-3.8,0-8.7-0.7-11.3c-0.7-2-2.5-4.7-4-5.6c-1.5-1.1-2-2.2-4.2-2.7
							c-2.7-0.4-6.4,2.4-8.5,3.3c-2.3,0.9-6.5,3.3-8.7,6.7c-2.5,3.8-2.7,6.7-2,8.9s2,3.6,2.8,4.4c0.8,0.9,1.7,1.8,2.7,2.2
							c1.8,1.1,3.3,0.9,4.7,1.1c1,0.2,3.7,0.4,6.4-0.2c1.8-0.4,3.5-0.9,4.5-1.3C26.1,33,29.9,31.4,31.3,28.3L31.3,28.3z"/>
						<path class="st2" d="M30.9,28.1c1.7-3.6,0.2-8.4-0.7-10.9c-0.7-2-2.3-4.4-3.8-5.6c-1.5-0.9-1.8-2.4-4-2.9
							c-2.7-0.4-6.4,2.4-8.5,3.3c-2.5,0.9-6.5,3.6-8.5,6.4c-2.5,3.6-2.8,6.7-2,8.9s2,3.3,2.8,4.2c0.8,0.9,1.7,1.6,2.7,2.2
							c1.8,1.1,3.3,0.9,4.7,0.9c1,0.2,3.5,0.4,6.2-0.2c2-0.4,3.5-0.9,4.3-1.3C25.9,32.5,29.6,31.2,30.9,28.1L30.9,28.1z"/>
						<path class="st3" d="M30.6,28.1c1.7-3.6,0.2-8-0.5-10.7c-0.7-2-2.3-4.2-3.8-5.3c-1.5-0.9-1.8-2.7-4-3.1
							c-2.5-0.7-6.2,2.7-8.4,3.3c-2.3,0.9-6.4,3.3-8.4,6.2C3,21.9,2.7,25,3.4,27.2s2,3.1,2.8,4s1.7,1.6,2.7,2
							c1.8,1.1,3.3,0.7,4.5,0.9c1,0.2,3.5,0.7,6.2-0.2c2-0.4,3.5-0.9,4.3-1.3C25.8,32.1,29.3,30.7,30.6,28.1L30.6,28.1z"/>
						<path class="st4" d="M30.4,27.9c1.7-3.3,0.3-7.8-0.5-10.2c-0.7-2-2.3-4.2-3.8-5.1c-1.3-0.9-1.7-2.9-3.8-3.6
							c-2.5-0.7-6.2,2.7-8.4,3.6c-2.3,0.9-6.4,3.3-8.4,6c-2.2,3.3-2.8,6.2-2,8.7c0.8,2.2,2,3.1,2.8,4c0.8,0.7,1.7,1.3,2.7,2
							c1.8,0.9,3.3,0.4,4.5,0.7c1,0.2,3.3,0.7,6,0c2-0.4,3.3-0.9,4.2-1.3C25.8,31.6,29.1,30.5,30.4,27.9L30.4,27.9z"/>
						<path class="st5" d="M30.1,27.6c1.7-3.1,0.3-7.6-0.3-9.8c-0.7-1.8-2.3-4-3.7-4.9s-1.5-3.1-3.7-3.8c-2.5-0.7-6.4,2.7-8.4,3.6
							c-2.5,0.9-6.4,3.1-8.4,5.8c-2.2,3.1-3,6.2-2.2,8.4c0.8,2,2,2.9,3,3.8c0.8,0.7,1.7,1.3,2.7,1.8c1.8,0.9,3.2,0.4,4.3,0.4
							c1,0.2,3.3,0.7,6,0c2-0.4,3.3-0.9,4.2-1.3C25.6,31.4,28.8,30.3,30.1,27.6z"/>
						<path class="st6" d="M29.8,27.4c1.7-3.1,0.5-7.3-0.3-9.3c-0.7-1.8-2.2-3.8-3.5-4.7s-1.5-3.3-3.7-4c-2.5-0.9-6.4,2.9-8.4,3.6
							c-2.3,0.9-6.2,3.1-8,5.6c-2,2.9-3,6-2.2,8.2c0.8,2,2,2.7,3,3.6c0.8,0.9,1.8,1.3,2.7,1.8c1.8,0.9,3.2,0.2,4.3,0.4
							c1,0.2,3.2,0.9,6,0c2-0.4,3.2-1.1,4-1.3C25.4,31,28.4,29.9,29.8,27.4L29.8,27.4z"/>
						<path class="st7" d="M29.4,27.2c1.7-2.9,0.5-6.9-0.2-9.1c-0.7-1.8-2-3.6-3.5-4.4c-1.3-0.9-1.3-3.3-3.5-4.2
							c-2.5-0.9-6.4,2.9-8.4,3.6c-2.2,0.9-6,3.1-7.9,5.6c-2,2.9-3,5.8-2.2,8.2c0.8,2,2,2.7,3,3.3c0.8,0.7,1.8,1.1,2.7,1.6
							c1.8,0.9,3.2,0,4.2,0.2c1,0.2,3.2,0.9,5.9,0.2c2-0.4,3.2-1.1,3.8-1.1C25.3,30.5,28.3,29.6,29.4,27.2L29.4,27.2z"/>
						<path class="st8" d="M29.1,27.2c1.7-2.9,0.7-6.7-0.2-8.7c-0.7-1.8-2-3.3-3.3-4.2s-1.2-3.6-3.5-4.4c-2.5-0.9-6.2,2.9-8.4,3.8
							c-2,0.4-5.9,2.7-7.5,4.9c-1.8,2.7-3,5.6-2.2,8c0.8,2,2,2.4,3,3.1c0.8,0.7,1.8,1.1,2.7,1.6c2,0.9,3.2,0,4.2,0.2
							c1,0.2,3.2,0.9,5.9,0.2c2-0.4,3-1.1,3.8-1.1C25.3,30.1,27.9,29.4,29.1,27.2L29.1,27.2z"/>
						<path class="st9" d="M28.9,27c1.7-2.7,0.7-6.4,0-8.2c-0.7-1.6-1.8-3.3-3.3-4.2c-1.3-0.9-1-3.8-3.3-4.7
							c-2.5-1.1-6.2,2.9-8.2,3.8c-2.3,0.7-6.2,2.7-7.7,4.9c-1.8,2.7-3.2,5.6-2.2,8c0.7,1.8,2,2.2,3,2.9C8,30.1,9,30.5,9.9,30.7
							c2,0.7,3-0.2,4,0c0.8,0.2,3,0.9,5.7,0.2c2-0.4,3-1.1,3.7-1.1C25.1,29.6,27.6,29.2,28.9,27L28.9,27z"/>
						<path class="st10" d="M28.6,26.7c1.7-2.7,0.8-6,0-8c-0.7-1.6-1.8-3.1-3.2-4c-1.2-0.7-1-4-3.2-5.1c-2.3-1.1-6.2,3.1-8.2,3.8
							c-2.3,1.1-6,3.1-7.5,5.1c-1.7,2.4-3.2,5.3-2.2,7.8c0.7,1.8,2,2.2,3,2.7c0.8,0.4,1.8,0.9,2.8,1.3c2,0.7,3-0.4,4-0.2
							c0.8,0.2,3,1.1,5.7,0.4c2-0.4,3-1.1,3.7-1.1C24.9,29.4,27.4,28.7,28.6,26.7L28.6,26.7z"/>
						<path class="st11" d="M28.3,26.5c1.7-2.4,0.8-5.8,0.2-7.6c-0.7-1.6-1.7-2.9-3-3.8c-1.2-0.7-0.8-4.2-3.2-5.3s-6.2,3.1-8.2,4
							c-2.3,0.9-6,2.7-7.4,4.7c-1.7,2.2-3.2,5.1-2.2,7.6c0.7,1.8,2,2,3,2.7c0.8,0.4,1.8,0.9,2.8,1.1c2,0.7,3-0.4,3.8-0.2
							c0.8,0.2,2.8,1.1,5.5,0.4c2-0.4,2.8-1.1,3.5-1.1C24.8,29,27.1,28.5,28.3,26.5L28.3,26.5z"/>
						<path class="st12" d="M27.9,26.5c1.7-2.4,1-5.6,0.2-7.1c-0.7-1.6-1.7-2.7-3-3.6c-1.2-0.7-0.7-4.2-3-5.6s-6,2.9-8,3.8
							c-2.2,0.7-5.9,2.7-7.2,4.4c-1.5,2.2-3.3,5.1-2.2,7.6c0.7,1.8,2,1.8,3.2,2.4c0.8,0.4,2,0.7,2.8,1.1c2,0.7,3-0.7,3.8-0.4
							c0.8,0.2,2.8,1.1,5.5,0.4c2-0.4,2.8-1.1,3.5-1.1C24.6,28.5,26.8,28.1,27.9,26.5L27.9,26.5z"/>
						<path class="st13" d="M27.8,26.3c1.7-2.2,1-5.1,0.3-6.9c-0.7-1.6-1.5-2.7-2.8-3.3c-1.2-0.7-0.7-4.4-3-5.8s-6.2,3.1-8.2,4
							c-2.2,0.9-5.9,2.7-7,4.4c-1.5,2-3.3,4.9-2.2,7.3c0.7,1.6,2,1.8,3.2,2.2c0.8,0.4,2,0.7,2.8,0.9c2,0.4,3-0.9,3.8-0.4
							c0.8,0.4,2.7,1.3,5.3,0.7c2-0.4,2.7-1.1,3.3-1.1C24.6,28.1,26.6,27.9,27.8,26.3L27.8,26.3z"/>
						<path class="st14" d="M27.4,26.1c1.7-2.2,1.2-4.9,0.5-6.4c-0.7-1.3-1.5-2.4-2.8-3.1c-1-0.7-0.5-4.7-2.8-6s-6.2,3.1-8.2,3.8
							c-2.2,0.9-5.7,2.7-6.9,4.2c-1.3,2-3.3,4.9-2.3,7.3c0.7,1.6,2,1.6,3.2,2c1,0.4,2,0.7,2.8,0.9c2,0.4,2.8-0.9,3.7-0.7
							c0.8,0.2,2.7,1.3,5.3,0.7c2-0.4,2.7-1.1,3.2-1.1C24.4,27.6,26.3,27.6,27.4,26.1L27.4,26.1z"/>
						<path class="st15" d="M27.1,25.9c1.7-2,1.2-4.7,0.5-6s-1.3-2.2-2.7-2.9c-1-0.7-0.3-4.9-2.7-6.2c-2.3-1.6-6.2,3.1-8.2,3.8
							c-2.2,0.9-5.7,2.7-6.7,4C6,20.3,3.9,23.2,5,25.6c0.7,1.6,2,1.6,3.2,2c1,0.4,2,0.4,2.8,0.7c2,0.4,2.8-1.1,3.7-0.9
							c0.8,0.2,2.5,1.3,5.3,0.7c2-0.4,2.5-1.1,3.2-1.1C24.3,27.2,25.9,27.4,27.1,25.9L27.1,25.9z"/>
						<path class="st16" d="M26.8,25.9c1.7-2,1.3-4.2,0.5-5.8c-0.7-1.3-1.3-2-2.7-2.9c-1-0.7-0.3-4.9-2.7-6.7
							c-2.2-1.6-6.2,3.3-8,4.2c-1.8,0.9-5.3,2.4-6.4,4c-1.2,1.6-3.5,4.4-2.3,6.9c0.7,1.3,2,1.1,3.2,1.6c1,0.2,2,0.4,2.8,0.7
							c2,0.4,2.8-1.1,3.5-0.9c0.8,0.2,2.5,1.3,5.2,0.9c2.2-0.4,2.5-1.1,3-1.1C24.1,27,25.6,27.2,26.8,25.9L26.8,25.9z"/>
						<path class="st17" d="M26.6,25.6c1.7-1.8,1.3-4,0.7-5.3c-0.8-1.3-1.3-2-2.5-2.7c-1-0.7-0.2-5.1-2.5-6.9
							c-2.3-1.6-6.2,3.6-8,4.2c-2.2,0.9-5.7,2.4-6.5,3.6c-1,1.3-3.5,4.4-2.3,6.9c0.7,1.3,2,1.1,3.3,1.6c0.8,0.2,1.8,0.2,2.8,0.4
							c2,0.2,2.8-1.3,3.5-1.1c0.8,0.2,2.3,1.6,5.2,0.9c2.2-0.4,2.3-1.3,3-1.1C24.1,26.5,25.4,26.7,26.6,25.6L26.6,25.6z"/>
						<path class="st18" d="M26.3,25.4c1.7-1.8,1.5-3.8,0.8-4.9c-0.7-1.3-1.2-1.8-2.3-2.4c-1-0.4,0-5.3-2.5-7.1
							c-2.3-1.6-6.2,3.3-8,4.2c-2.2,0.7-5.5,2.2-6.4,3.3c-1,1.3-3.7,4.2-2.3,6.9c0.7,1.3,2,0.9,3.3,1.3c1,0.2,2,0.2,2.8,0.4
							c2,0.2,2.7-1.6,3.3-1.1c0.8,0.4,2.3,1.6,5,0.9c2.2-0.4,2.3-1.3,2.8-1.1C23.9,26.1,25.1,26.5,26.3,25.4L26.3,25.4z"/>
						<path class="st19" d="M25.9,25.2c1.7-1.6,1.5-3.6,0.8-4.7c-0.7-1.1-1-1.6-2.3-2.2c-1-0.4,0-5.6-2.3-7.3
							c-2.2-1.6-6,3.6-7.9,4.4c-2.2,0.7-5.5,2.2-6.2,3.1c-0.8,1.1-3.7,4-2.3,6.7c0.7,1.3,2,0.9,3.3,1.1c1,0.2,2,0.2,3,0.2
							c2.2,0.2,2.7-1.6,3.3-1.3c0.8,0.4,2.3,1.6,5,1.1c2.2-0.4,2.3-1.3,2.7-1.1C23.8,25.6,24.9,26.3,25.9,25.2L25.9,25.2z"/>
						<path class="st20" d="M25.6,25c1.7-1.3,1.7-3.1,1-4.2c-0.7-1.1-1-1.3-2.2-2c-0.8-0.4,0.2-5.6-2.3-7.6c-2.2-1.8-6,3.6-7.9,4.2
							c-2,0.9-5.3,2.2-6,3.1c-0.8,0.9-3.7,4-2.3,6.4c0.7,1.1,2,0.7,3.3,0.9c1,0.2,2.2,0,3,0.2c2,0.2,2.5-1.8,3-1.3
							c0.7,0.4,2.2,1.8,4.8,1.1c2.2-0.4,2.2-1.3,2.7-0.9C23.6,25.4,24.6,26.1,25.6,25L25.6,25z"/>
						<path class="st21" d="M25.3,25c1.7-1.3,1.7-2.9,1-3.8c-0.7-1.1-0.8-1.1-2.2-1.8c-0.8-0.4,0.3-5.8-2.2-7.8
							c-2-1.8-6,3.6-7.9,4.4c-2,0.9-5.3,2.2-6,2.9c-0.5,0.4-3.5,3.6-2.2,6c0.7,1.1,2,0.4,3.3,0.7c1,0.2,2.2,0,3,0
							c2.2,0,2.7-2,3.2-1.6c0.7,0.4,2.2,1.8,4.8,1.1c2.2-0.4,2.2-1.3,2.5-0.9C23.6,25,24.3,25.6,25.3,25L25.3,25z"/>
					</g>
					<path class="st24" d="M25.4,19.2c0.2-0.7,0.2-1.6,0.2-2.4c0-5.1-3-9.1-6.9-9.1c-3.2,0-5.9,2.9-6.7,6.9h-0.2
						c-1.5,0-2.8,1.1-3.5,2.7c-0.5-0.4-0.8-0.4-1.3-0.4c-1.8,0-3.3,2-3.3,4.4s1.5,4.4,3.3,4.4c0.8,0,1.5-0.4,2.2-1.1
						c0.7,0.9,1.7,1.3,2.7,1.3c1.2,0,2.2-0.7,3-1.6c1.2,1.1,2.5,1.6,3.8,1.6s2.5-0.4,3.5-1.3c0.5,0.9,1.2,1.3,2,1.3
						c1.5,0,2.7-1.6,2.7-3.6C26.9,21,26.3,19.6,25.4,19.2L25.4,19.2z"/>
					<path class="st23" d="M25.6,19.2c0.2-0.7,0.2-1.6,0.2-2.4c0-5.1-3-9.1-6.9-9.1c-3.2,0-5.9,2.9-6.7,6.9h-0.2
						c-1.5,0-2.8,1.1-3.7,2.7C8,17,7.5,16.8,7.2,16.8c-1.8,0-3.3,2-3.3,4.4s1.5,4.4,3.3,4.4c0.8,0,1.5-0.4,2.2-1.1
						c0.7,0.9,1.7,1.3,2.7,1.3c1.2,0,2.2-0.7,3-1.6c1.2,1.1,2.5,1.6,3.8,1.6c1.3,0,2.5-0.4,3.7-1.3c0.5,0.9,1.2,1.3,2,1.3
						c1.5,0,2.7-1.6,2.7-3.6C27.1,21,26.4,19.9,25.6,19.2L25.6,19.2z"/>
				</g>
				<g>
					<g>
						<path class="st0" d="M44.3,31.2c2-2.2,1.7-9.3,0.7-11.1c-1.3-2.4-2.8-4-4-4.9c-1.2-0.9-4.7-1.6-6.4-1.6
							c-2.2,0-4.3,0.7-6.2,1.3c-2,0.7-5.7,2.4-7.5,5.1c-2.2,3.1-0.2,9.1,0.3,10c1,1.8,2.2,3.3,3.7,4.2s2.7,0.9,3.8,0.9
							c0.8,0,4.5,0.7,6.7,0c1.5-0.4,4.2-1.1,4.8-1.6C41,33.6,42.6,33,44.3,31.2L44.3,31.2z"/>
						<path class="st1" d="M44,31c2-2.2,1.7-9.1,0.7-10.9c-1.3-2.4-2.7-4-4-4.7c-1.3-0.9-4.7-1.6-6.2-1.6c-2.2,0-4.3,0.7-6,1.3
							c-2,0.7-5.7,2.4-7.4,5.1c-2,2.9-0.3,8.9,0.3,9.8c1,1.6,2.2,3.3,3.7,4.2s2.7,0.9,3.8,0.9c0.8,0,4.3,0.7,6.5,0.2
							c1.5-0.4,4-1.1,4.8-1.6C40.6,33.2,42.3,32.7,44,31z"/>
						<path class="st2" d="M43.6,30.7c2-2.2,1.7-8.7,0.7-10.7c-1.3-2.4-2.7-3.8-4-4.7c-1.2-0.7-4.3-1.6-5.9-1.6
							c-2.2,0-4.2,0.7-6,1.3c-1.8,0.7-5.7,2.4-7.4,4.9c-2,2.9-0.3,8.7,0.3,9.5c1,1.6,2,3.1,3.5,4.2c1.5,0.9,2.7,0.7,3.7,0.9
							c0.8,0,4.2,0.9,6.4,0.2c1.5-0.4,4-1.1,4.7-1.6C40.3,33,42,32.5,43.6,30.7z"/>
						<path class="st3" d="M43.3,30.5c2-2,1.7-8.4,0.7-10.2c-1.3-2.4-2.7-3.8-3.8-4.4c-1.2-0.7-4.2-1.6-5.7-1.6
							c-2,0-4.2,0.7-5.9,1.1c-1.8,0.7-5.5,2.4-7.2,4.9c-1.8,2.7-0.3,8.4,0.2,9.3c1,1.6,2,3.1,3.5,4s2.7,0.7,3.7,0.9
							c0.8,0.2,4.2,0.9,6.4,0.2c1.5-0.4,3.8-1.1,4.5-1.8C40.1,32.5,41.6,32.1,43.3,30.5L43.3,30.5z"/>
						<path class="st4" d="M43,30.3c1.8-2,1.7-8,0.7-10c-1.3-2.4-2.7-3.8-3.8-4.4c-1.2-0.7-4-1.6-5.5-1.6c-2,0-4.2,0.4-5.9,1.1
							c-1.8,0.7-5.5,2.4-7,4.9c-1.8,2.4-0.5,8,0.2,9.1c0.8,1.6,1.8,3.1,3.3,4c1.3,0.9,2.5,0.7,3.5,0.9c0.8,0.2,4,0.9,6.2,0.4
							c1.5-0.4,3.8-1.3,4.5-1.8S41.3,31.9,43,30.3L43,30.3z"/>
						<path class="st5" d="M42.6,30.1c1.8-2,1.7-7.8,0.7-9.8c-1.2-2.4-2.7-3.6-3.8-4.4c-1.2-0.7-3.8-1.6-5.3-1.6
							c-2-0.2-4,0.4-5.9,1.1c-1.8,0.7-5.5,2.4-7,4.7c-1.7,2.4-0.5,7.8,0.2,8.9c0.8,1.3,1.7,2.9,3.3,3.8c1.3,0.9,2.5,0.7,3.5,0.7
							c0.8,0.2,3.8,0.9,6,0.4c1.7-0.4,3.7-1.3,4.3-1.8C39.5,31.9,41.1,31.6,42.6,30.1L42.6,30.1z"/>
						<path class="st6" d="M42.3,29.9c1.8-1.8,1.7-7.6,0.7-9.5c-1.2-2.4-2.5-3.6-3.7-4.2c-1-0.7-3.7-1.3-5.2-1.6
							c-1.8-0.2-4,0.4-5.7,1.1c-1.8,0.7-5.3,2.7-6.9,4.7c-1.7,2.4-0.5,7.6,0.2,8.7c0.8,1.3,1.7,2.9,3.2,3.8c1.3,0.7,2.5,0.4,3.5,0.7
							c0.8,0.2,3.7,1.1,5.9,0.4c1.7-0.4,3.7-1.3,4.2-1.8C39.1,31.6,40.8,31.4,42.3,29.9L42.3,29.9z"/>
						<path class="st7" d="M42,29.6c1.8-1.8,1.7-7.1,0.7-9.1c-1.2-2.4-2.5-3.3-3.7-4.2c-1-0.7-3.5-1.3-4.8-1.6
							c-1.8-0.2-4,0.4-5.7,0.9c-1.8,0.7-5.3,2.7-6.7,4.4c-1.5,2.2-0.5,7.3,0.2,8.4c0.7,1.1,1.5,2.9,3.2,3.6c1.3,0.7,2.5,0.4,3.3,0.7
							c0.8,0.2,3.5,1.1,5.7,0.7c1.7-0.4,3.5-1.3,4.2-1.8C38.8,31.2,40.5,31,42,29.6L42,29.6z"/>
						<path class="st8" d="M41.6,29.4c1.8-1.8,1.7-6.9,0.7-8.9c-1.2-2.4-2.5-3.3-3.7-4c-1-0.7-3.3-1.3-4.7-1.6
							c-1.8-0.2-3.8,0.4-5.5,0.9c-1.8,0.7-5.3,2.7-6.5,4.4c-1.5,2.2-0.7,6.9,0.2,8.2c0.8,1.3,1.5,2.7,3,3.6c1.3,0.7,2.5,0.4,3.3,0.4
							c0.7,0.2,3.3,1.3,5.5,0.7c1.7-0.4,3.5-1.6,4-1.8C38.6,31,40.1,30.7,41.6,29.4L41.6,29.4z"/>
						<path class="st9" d="M41.3,29.2c1.7-1.6,1.7-6.7,0.7-8.7c-1.2-2.4-2.5-3.3-3.7-4c-1-0.7-3.2-1.3-4.5-1.6
							c-1.7-0.2-3.8,0.2-5.5,0.9c-1.8,0.7-5.2,2.7-6.5,4.2c-1.5,2-0.7,6.7,0.2,8c0.7,1.1,1.3,2.7,2.8,3.6c1.3,0.7,2.3,0.2,3.2,0.4
							c0.7,0.2,3.3,1.3,5.3,0.7c1.7-0.4,3.3-1.6,3.8-2C38.3,30.5,39.8,30.5,41.3,29.2L41.3,29.2z"/>
						<path class="st10" d="M41,29c1.7-1.6,1.7-6.2,0.8-8.4c-1.2-2.4-2.5-3.1-3.5-3.8c-1-0.7-3-1.3-4.3-1.6
							c-1.7-0.2-3.7,0.2-5.3,0.9c-1.8,0.7-5.2,2.7-6.4,4.2c-1.3,2-0.7,6.4,0.2,7.8c0.7,1.1,1.3,2.7,2.8,3.3c1.3,0.7,2.3,0.2,3.2,0.4
							c0.7,0.2,3.2,1.3,5.3,0.9c1.7-0.4,3.3-1.6,3.8-2C38,30.3,39.5,30.3,41,29L41,29z"/>
						<path class="st11" d="M40.6,28.7c1.7-1.6,1.7-6,0.8-8c-1-2.4-2.3-3.1-3.5-3.8c-1-0.7-2.7-1.3-4.2-1.6
							c-1.7-0.2-3.7,0.2-5.3,0.9c-1.8,0.7-5.2,2.7-6.2,4c-1.3,1.8-0.7,6.2,0.2,7.6c0.7,1.1,1.2,2.7,2.7,3.3c1.3,0.7,2.3,0.2,3,0.4
							c0.7,0.2,3,1.3,5.2,0.9c1.7-0.4,3.2-1.6,3.7-2C37.6,29.9,39.1,29.9,40.6,28.7L40.6,28.7z"/>
						<path class="st12" d="M40.3,28.5c1.7-1.3,1.7-5.8,0.8-7.8c-1-2.4-2.3-3.1-3.5-3.8c-0.8-0.7-2.5-1.3-4-1.6s-3.7,0.2-5.2,0.7
							c-1.8,0.7-5,2.7-6.2,4c-1.2,1.8-0.8,5.8,0.2,7.3c0.7,1.1,1,2.4,2.7,3.1c1.3,0.7,2.3,0.2,3,0.2c0.7,0.2,2.8,1.6,5,0.9
							c1.7-0.4,3.2-1.8,3.5-2C37.5,29.6,38.8,29.6,40.3,28.5L40.3,28.5z"/>
						<path class="st13" d="M40,28.1c1.7-1.3,1.7-5.3,0.8-7.6c-1-2.4-2.3-2.9-3.3-3.6c-0.8-0.4-2.3-1.3-3.7-1.6
							c-1.5-0.2-3.5,0-5.2,0.7c-1.8,0.7-5,2.7-6,4c-1.2,1.6-0.8,5.6,0.2,7.1c0.7,0.9,1,2.4,2.5,3.1c1.3,0.4,2.3,0,3,0.2
							c0.7,0.2,2.7,1.6,4.8,1.1c1.7-0.4,3-1.8,3.5-2C37.1,29.2,38.6,29.4,40,28.1L40,28.1z"/>
						<path class="st14" d="M39.6,28.1c1.7-1.3,1.7-5.1,0.8-7.1c-1-2.4-2.3-2.9-3.3-3.6c-0.8-0.4-2.2-1.3-3.5-1.6
							c-1.5-0.2-3.5,0-5,0.7c-1.8,0.7-5,2.7-5.9,3.8c-1,1.6-0.8,5.3,0.2,6.9c0.7,0.9,0.8,2.4,2.5,3.1c1.2,0.4,2.2,0,2.8,0.2
							c0.7,0.2,2.5,1.6,4.7,1.1c1.7-0.4,3-1.8,3.3-2C36.8,29,38.3,29.2,39.6,28.1L39.6,28.1z"/>
						<path class="st15" d="M39.3,27.6c1.7-1.3,1.7-4.7,0.8-6.9c-1-2.7-2.3-2.9-3.3-3.3c-0.8-0.4-2-1.3-3.3-1.6s-3.3,0-5,0.7
							c-1.7,0.7-4.8,2.7-5.7,3.8c-1,1.3-1,4.9,0.2,6.7c0.5,0.9,0.8,2.2,2.3,2.9c1.2,0.4,2.2,0,2.8,0.2c0.7,0.2,2.5,1.8,4.7,1.3
							c1.7-0.4,2.8-1.8,3.3-2.2C36.5,28.5,38,29,39.3,27.6L39.3,27.6z"/>
						<path class="st16" d="M39,27.4c1.5-1.1,1.7-4.4,0.8-6.7c-1-2.7-2.2-2.7-3.3-3.3c-0.8-0.4-1.8-1.1-3.2-1.6s-3.3,0-4.8,0.4
							c-1.7,0.7-4.8,2.7-5.7,3.6c-1,1.3-1,4.7,0,6.4c0.5,0.9,0.7,2.2,2.3,2.9c1.2,0.4,2.2,0,2.7,0.2c0.7,0.2,2.3,1.8,4.5,1.3
							c1.7-0.4,2.7-1.8,3.2-2.2C36.3,28.3,37.6,28.5,39,27.4L39,27.4z"/>
						<path class="st17" d="M38.6,27.2c1.5-1.1,1.7-4.2,0.8-6.4c-0.8-2.4-2.2-2.4-3.2-3.1c-0.8-0.4-1.7-1.1-3-1.6
							c-1.3-0.4-3.3-0.2-4.8,0.4c-1.7,0.7-4.8,2.7-5.5,3.6c-0.8,1.1-1,4.4,0,6.2c0.5,0.9,0.5,2.2,2.2,2.7c1.2,0.4,2.2-0.2,2.7,0
							c0.7,0.2,2.2,1.8,4.3,1.3c1.7-0.4,2.7-2,3-2.2C36,27.9,37.3,28.3,38.6,27.2L38.6,27.2z"/>
						<path class="st18" d="M38.5,27c1.5-1.1,1.7-3.8,0.8-6c-1-2.7-2.2-2.7-3.2-3.1c-0.8-0.4-1.5-1.1-2.7-1.6s-3.3-0.2-4.8,0.4
							c-1.7,0.7-4.7,2.7-5.3,3.6c-0.8,1.1-1,4.2,0,6c0.5,0.7,0.5,2,2,2.7c1.2,0.4,2.2-0.2,2.7,0c0.7,0.2,2,2,4.2,1.6
							c1.7-0.4,2.5-2,3-2.2C35.6,27.6,37,28.1,38.5,27z"/>
						<path class="st19" d="M38.1,26.7c1.5-0.9,1.7-3.6,0.8-5.8c-0.8-2.7-2.2-2.4-3.2-3.1c-0.7-0.4-1.3-1.1-2.5-1.6
							c-1.2-0.4-3.2-0.2-4.7,0.4c-1.7,0.7-4.7,2.7-5.3,3.3c-0.7,0.9-1.2,4,0,5.8c0.3,0.7,0.3,2,2,2.4c1.2,0.4,2-0.2,2.5,0
							c0.7,0.2,1.8,2,4,1.6c1.7-0.4,2.5-2,2.8-2.2C35.3,27.2,36.6,27.6,38.1,26.7L38.1,26.7z"/>
						<path class="st20" d="M37.8,26.5c1.5-0.9,1.7-3.1,0.8-5.6c-0.8-2.7-2-2.4-3.2-2.9c-0.7-0.4-1.2-1.1-2.3-1.6
							c-1.2-0.4-3.2-0.2-4.5,0.4c-1.7,0.7-4.7,2.7-5.2,3.3c-0.7,0.9-1.2,3.6,0,5.6c0.3,0.7,0.3,2,1.8,2.4c1.2,0.4,2-0.2,2.5,0
							c0.7,0.2,1.7,2,3.8,1.6c1.7-0.4,2.3-2,2.7-2.4C35,26.7,36.3,27.4,37.8,26.5L37.8,26.5z"/>
						<path class="st21" d="M37.5,26.3c1.3-0.9,1.7-2.9,0.8-5.3c-0.8-2.7-2-2.2-3-2.9c-0.7-0.4-1-1.1-2.2-1.6c-1-0.4-3-0.2-4.5,0.2
							c-1.7,0.7-4.5,2.7-5,3.1c-0.5,0.7-1.2,3.3,0,5.3c0.3,0.4,0.2,2,1.8,2.4c1.2,0.2,2-0.4,2.3-0.2c0.7,0.2,1.7,2.2,3.7,1.8
							c1.7-0.4,2.3-2.2,2.7-2.4C34.8,26.5,36,27.2,37.5,26.3z"/>
					</g>
					<path class="st24" d="M35.5,17.6h-0.2C35,16.1,33.8,15,32.6,15c-0.3,0-0.8,0-1,0.2c-0.3-1.6-1.5-2.4-2.7-2.4
						c-1.2,0-2.2,0.9-2.7,2.4c-0.2,0-0.3,0-0.5,0c-1.3,0-2.3,1.3-2.5,2.9c-0.2,0-0.3,0-0.5,0c-1.5,0-2.8,1.8-2.8,3.8
						s1.3,3.8,2.8,3.8l0,0c0.3,1.6,1.3,2.7,2.5,2.7c1,0,1.8-0.7,2.2-1.8c0.7,1.3,1.8,2.4,3.2,2.4c1.5,0,2.7-1.1,3.3-2.9
						c0.5,0.4,1,0.7,1.7,0.7c1.8,0,3.3-2,3.3-4.4S37.5,17.6,35.5,17.6L35.5,17.6z"/>
					<path class="st25" d="M35.6,17.9h-0.2c-0.3-1.6-1.5-2.7-2.8-2.7c-0.3,0-0.8,0.2-1,0.2c-0.3-1.6-1.5-2.4-2.7-2.4
						c-1.2,0-2.3,0.9-2.7,2.2c-0.2,0-0.3,0-0.5,0c-1.3,0-2.3,1.3-2.5,2.9c-0.2,0-0.3,0-0.5,0c-1.5,0-2.8,1.8-2.8,3.8
						s1.3,3.8,2.8,3.8l0,0c0.3,1.6,1.3,2.7,2.5,2.7c1,0,1.8-0.7,2.2-1.8c0.7,1.3,1.8,2.4,3.2,2.4c1.5,0,2.7-1.1,3.3-2.9
						c0.5,0.4,1,0.7,1.7,0.7c1.8,0,3.3-2,3.3-4.4S37.5,17.6,35.6,17.9L35.6,17.9z"/>
				</g>
				<g>
					<g>
						<path class="st0" d="M42,23.2c2.3-3.3,2.2-10,0.8-12.4c-1.7-3.1-3.8-4.4-5.5-5.3c-1.7-1.1-3.8-2-5.9-2.4
							c-2.5-0.4-5.2,0.9-7.5,1.8c-2.5,0.9-10.2,4.4-12.5,7.8C10,14.3,9.7,16.8,10,19c0.2,2.4,1,4.7,1.3,5.3c1.3,2.2,6,4.2,8,5.6
							c1.8,1.1,3.5,1.1,4.8,1.3c1,0.2,4,0,6.9-0.9c2-0.4,4-2.7,4.8-3.1C37.1,26.5,40.1,25.6,42,23.2L42,23.2z"/>
						<path class="st1" d="M41.6,23c2.3-3.1,2.3-9.8,1-12.2c-1.7-3.1-3.8-4.2-5.3-5.3s-3.8-2-5.9-2.4c-2.5-0.4-5.2,0.9-7.4,1.8
							c-2.5,0.9-10.2,4.4-12.5,7.6c-1.3,1.8-1.7,4.2-1.3,6.4c0.3,2.4,1.2,4.7,1.5,5.1c1.3,2,5.9,4.2,7.9,5.3
							c1.8,1.1,3.5,0.9,4.8,1.1c1,0.2,4,0.2,6.9-0.7c2-0.4,3.8-2.7,4.8-3.3C36.8,26.1,39.8,25.4,41.6,23L41.6,23z"/>
						<path class="st2" d="M41.3,22.7c2.3-3.1,2.3-9.5,1-11.8c-1.7-3.1-3.7-4.2-5.2-5.1s-3.7-2-5.7-2.4c-2.3-0.4-5,0.9-7.4,1.6
							c-2.5,0.9-10.2,4.2-12.4,7.3c-1.3,1.8-1.7,4.2-1.3,6.4c0.3,2.4,1.2,4.4,1.7,5.1c1.3,1.8,5.7,4.2,7.5,5.3
							c1.8,1.1,3.3,0.9,4.7,0.9c1,0.2,3.8,0.4,6.7-0.4c2-0.4,3.8-2.7,4.7-3.3C36.6,25.6,39.5,25.2,41.3,22.7L41.3,22.7z"/>
						<path class="st3" d="M41,22.5c2.3-2.9,2.3-9.1,1-11.5c-1.7-3.1-3.7-4-5.2-5.1c-1.5-0.9-3.5-2-5.5-2.4C28.9,3,26.4,4.1,24.1,5
							c-2.3,1.1-10.2,4.4-12.4,7.3c-1.2,1.8-1.5,4.2-1.2,6.2c0.3,2.4,1.3,4.2,1.8,4.9c1.3,1.8,5.3,4,7.4,5.1
							c1.8,1.1,3.3,0.7,4.7,0.9c1,0.2,3.7,0.4,6.7-0.2c2-0.7,3.7-2.7,4.5-3.3C36.5,25.2,39.1,24.7,41,22.5L41,22.5z"/>
						<path class="st4" d="M40.6,22.3c2.3-2.9,2.3-8.9,1-11.3c-1.7-3.1-3.5-4-5-4.9c-1.5-0.9-3.3-2-5.3-2.4c-2.3-0.4-4.7,0.7-7,1.6
							s-10.2,4.2-12.4,7.1c-1.2,1.8-1.5,4-1.3,6.2c0.3,2.2,1.5,4,2,4.7c1.3,1.6,5.2,4,7.2,5.1c1.8,1.1,3.3,0.4,4.5,0.7
							c1,0.2,3.5,0.7,6.5-0.2c2-0.7,3.7-2.7,4.5-3.3C36.1,24.7,38.8,24.5,40.6,22.3L40.6,22.3z"/>
						<path class="st5" d="M40.3,22.1c2.3-2.7,2.3-8.4,1-10.9c-1.5-2.9-3.5-3.8-5-4.9c-1.5-0.9-3.2-1.8-5.2-2.2
							c-2.2-0.7-4.7,0.4-6.9,1.3c-2.3,0.9-10.4,4.2-12.4,6.9c-1.2,1.8-1.5,4-1.2,6c0.3,2.2,1.5,4,2,4.7c1.3,1.6,5,3.8,7,4.9
							c1.8,0.9,3.2,0.2,4.5,0.4c1,0.2,3.3,0.9,6.5,0c2-0.7,3.5-2.9,4.3-3.3C36,24.5,38.5,24.3,40.3,22.1L40.3,22.1z"/>
						<path class="st6" d="M39.8,21.9c2.2-2.7,2.3-8.2,1-10.7c-1.5-2.9-3.3-3.8-4.8-4.7c-1.3-0.9-3-1.8-5-2.2
							c-2.2-0.7-4.5,0.4-6.7,1.3c-2.3,0.9-10.4,4.2-12.2,6.7c-1.2,1.6-1.5,4-1.2,6c0.3,2.2,1.5,3.8,2.2,4.4c1.3,1.3,4.7,3.8,6.7,4.9
							c1.8,0.9,3.2,0,4.3,0.2c1,0.2,3.3,1.1,6.4,0.2c2-0.7,3.5-2.9,4.2-3.3C35.6,23.9,38.1,23.9,39.8,21.9L39.8,21.9z"/>
						<path class="st7" d="M39.5,21.6c2.2-2.4,2.3-8,1.2-10.2c-1.5-2.9-3.3-3.6-4.8-4.7c-1.3-0.9-2.8-1.8-4.8-2.2
							c-2-0.4-4.3,0.4-6.5,1.3c-2.3,0.9-10.4,4.2-12.2,6.7c-1.3,1.3-1.5,3.8-1.2,5.8c0.3,2.2,1.7,3.6,2.3,4.2
							c1.3,1.3,4.5,3.6,6.5,4.7c1.7,0.9,3.2,0,4.2,0.2c1,0.2,3.2,1.3,6.4,0.2c2-0.7,3.3-2.9,4.2-3.6C35.5,23.6,37.8,23.6,39.5,21.6
							L39.5,21.6z"/>
						<path class="st8" d="M39.1,21.4c2.2-2.4,2.3-7.6,1.2-10c-1.5-2.9-3.2-3.6-4.7-4.4c-1.3-0.9-2.7-1.8-4.7-2.2
							c-2-0.4-4.3,0.2-6.5,1.1c-2.3,0.9-10.4,4.2-12.2,6.4c-1.2,1.6-1.5,3.8-1.2,5.8c0.5,2.2,1.7,3.6,2.3,4c1.2,1.1,4.3,3.6,6.4,4.7
							c1.7,0.9,3-0.2,4.2,0c1,0.2,3,1.6,6.2,0.4c2-0.7,3.3-2.9,4-3.6C35.1,23.2,37.3,23.4,39.1,21.4L39.1,21.4z"/>
						<path class="st9" d="M38.8,21c2.2-2.2,2.3-7.3,1.2-9.5c-1.3-2.9-3.2-3.3-4.5-4.2c-1.3-0.9-2.5-1.8-4.5-2.2
							c-2-0.4-4.2,0.2-6.4,1.1c-2.3,0.9-10.4,4.2-12.2,6.2c-1.2,1.6-1.5,3.8-1.2,5.6c0.5,2,1.7,3.6,2.5,4c1,1.3,4.2,3.3,6.2,4.4
							c1.7,0.9,3-0.4,4-0.2s3,1.6,6.2,0.7c2-0.7,3.2-3.1,4-3.6C35,22.7,37,23,38.8,21L38.8,21z"/>
						<path class="st10" d="M38.5,20.7c2.2-2.2,2.3-7.1,1.2-9.3c-1.3-2.7-3-3.3-4.5-4.2c-1.3-0.7-2.5-1.6-4.3-2.2
							c-1.8-0.7-4,0.2-6.2,1.1c-2.3,1.1-10.4,4.2-12,6.2c-1.3,1.3-1.7,3.8-1.2,5.6c0.5,2,1.8,3.3,2.7,3.8c1,1.1,3.8,3.3,5.9,4.2
							c1.7,0.9,3-0.7,4-0.4c1,0.2,2.8,1.8,6,0.9c2-0.7,3.2-3.1,3.8-3.6C34.6,22.3,36.6,22.7,38.5,20.7z"/>
						<path class="st11" d="M38.1,20.5c2-2,2.3-6.7,1.2-8.9c-1.3-2.7-3-3.3-4.3-4c-1.2-0.7-2.3-1.6-4.3-2.2c-1.8-0.7-3.8,0-6,1.1
							c-2.2,0.7-10.4,4-12,5.8c-1.2,1.3-1.5,3.8-1,5.6c0.5,2,1.8,3.1,2.7,3.6c1,1.1,3.7,3.1,5.7,4.2c1.7,0.7,2.8-0.9,3.8-0.4
							s2.7,2,6,0.9c2-0.7,3-3.1,3.7-3.6C34.4,21.9,36.3,22.3,38.1,20.5L38.1,20.5z"/>
						<path class="st12" d="M37.8,20.3c2-2,2.2-6.4,1.2-8.7c-1.3-2.7-2.8-3.1-4.3-4c-1.2-0.7-2.2-1.6-4.2-2.2
							c-1.8-0.7-3.7,0-5.9,0.9c-2.2,1.1-10.4,4.4-11.9,6c-1.3,1.3-1.7,3.6-1,5.3c0.5,2,2,3.1,2.8,3.6c1,0.9,3.5,3.1,5.5,4
							c1.7,0.7,2.8-0.9,3.7-0.7c0.8,0.2,2.5,2.2,6,1.1c2-0.7,3-3.1,3.7-3.6C34.1,21.4,36,22.1,37.8,20.3L37.8,20.3z"/>
						<path class="st13" d="M37.3,20.1c2-1.8,2.3-6,1.3-8.2c-1.2-2.7-2.8-3.1-4.2-3.8c-1.2-0.7-2-1.6-4-2.2c-1.7-0.7-3.5,0-5.7,0.9
							c-2.2,0.9-10.5,4-12,5.6c-1.2,1.3-1.5,3.6-1,5.3c0.7,1.8,2,2.9,3,3.3c1,0.9,3.3,3.1,5.3,4c1.5,0.7,2.8-1.1,3.7-0.9
							c0.8,0.2,2.3,2.4,5.9,1.3c2-0.7,3-3.1,3.5-3.6C33.9,21,35.6,21.6,37.3,20.1L37.3,20.1z"/>
						<path class="st14" d="M37,19.9c2-1.8,2.3-5.8,1.3-8c-1.2-2.7-2.7-2.9-4-3.8c-1.2-0.7-1.8-1.3-3.8-2.2c-1.7-0.7-3.5,0-5.5,0.9
							c-2.3,0.9-10.7,4.2-12,5.6s-1.5,3.6-1,5.1c0.7,2,2.2,2.7,3.2,3.3c1,0.7,3,2.9,5,3.8c1.5,0.7,2.7-1.3,3.5-1.1
							c0.8,0.2,2.3,2.4,5.9,1.3c2-0.7,2.8-3.3,3.3-3.6C33.6,20.5,35.3,21.4,37,19.9L37,19.9z"/>
						<path class="st15" d="M36.6,19.6c2-1.6,2.3-5.6,1.3-7.8c-1.2-2.4-2.7-2.9-4-3.6c-1-0.7-1.7-1.3-3.7-2.2
							c-1.7-0.7-3.3-0.2-5.3,0.7c-2.2,1.1-10.7,4.2-11.9,5.6s-1.7,3.3-1,5.1s2.2,2.4,3.2,3.1c1,0.4,2.8,2.9,4.8,3.6
							c1.5,0.7,2.7-1.6,3.5-1.1c0.8,0.2,2.2,2.7,5.7,1.6c2-0.7,2.7-3.3,3.3-3.8C33.4,20.1,34.8,21.2,36.6,19.6L36.6,19.6z"/>
						<path class="st16" d="M36.3,19.4c1.8-1.6,2.3-5.1,1.3-7.3c-1.2-2.7-2.5-2.7-3.8-3.6c-1-0.7-1.5-1.3-3.5-2
							c-1.5-0.7-3.2-0.2-5.3,0.7s-10.7,4-11.9,5.1c-1.3,1.1-1.5,3.3-0.8,4.9c0.7,1.8,2.3,2.4,3.3,2.9c0.8,0.4,2.7,2.7,4.7,3.6
							c1.5,0.7,2.7-1.6,3.3-1.3c0.8,0.2,2,2.9,5.7,1.8c2.2-0.7,2.7-3.3,3.2-3.8C33.1,19.9,34.4,20.7,36.3,19.4L36.3,19.4z"/>
						<path class="st17" d="M36,19.2c1.8-1.6,2.3-4.9,1.3-7.1c-1-2.4-2.5-2.7-3.8-3.3c-1-0.7-1.5-1.3-3.3-2c-1.5-0.7-3-0.2-5.2,0.7
							c-2,0.9-10.7,4-11.7,4.9c-1.3,1.1-1.5,3.3-0.8,4.9c0.7,1.8,2.3,2.2,3.5,2.7c0.8,0.4,2.3,2.7,4.3,3.3c1.5,0.4,2.5-1.8,3.2-1.6
							c0.8,0.2,1.8,3.1,5.5,2c2.2-0.7,2.7-3.3,3.2-3.8C32.9,19.4,34.1,20.5,36,19.2z"/>
						<path class="st18" d="M35.6,19c1.8-1.3,2.3-4.7,1.5-6.7c-1-2.4-2.3-2.4-3.7-3.3c-1-0.7-1.3-1.3-3.2-2c-1.5-0.7-3-0.4-5,0.4
							c-2.2,0.9-10.7,4-11.9,4.9c-1.3,0.9-1.7,3.3-1,4.9c0.7,1.8,2.3,2.2,3.7,2.7c0.8,0.2,2.2,2.4,4.2,3.3c1.5,0.4,2.5-2,3.2-1.8
							c0.8,0.4,1.8,3.3,5.5,2c2.2-0.7,2.5-3.3,3-3.8C32.6,19,33.8,20.1,35.6,19L35.6,19z"/>
						<path class="st19" d="M35.1,18.7c1.8-1.3,2.3-4.2,1.5-6.4c-1-2.4-2.3-2.4-3.5-3.1c-1-0.4-1.2-1.1-3.2-2
							c-1.3-0.7-2.8-0.4-4.8,0.4c-2.2,0.9-10.9,4-11.7,4.7c-1.3,0.9-1.5,3.1-0.8,4.7c0.8,1.6,2.5,2,3.7,2.4c0.8,0.2,2,2.4,4,3.1
							c1.5,0.4,2.5-2.2,3-1.8c0.8,0.4,1.7,3.6,5.3,2.2c2.2-0.7,2.5-3.6,2.8-3.8C32.4,18.5,33.4,19.9,35.1,18.7L35.1,18.7z"/>
						<path class="st20" d="M34.8,18.3c1.8-1.1,2.3-4,1.5-6c-1-2.2-2.2-2.2-3.5-3.1c-0.8-0.4-1-1.1-3-2c-1.3-0.7-2.7-0.4-4.7,0.4
							s-10.9,4-11.7,4.4c-1.2,1.1-1.3,3.3-0.7,4.9c0.8,1.6,2.5,2,3.8,2.2c0.7,0.2,1.8,2.4,3.8,2.9c1.5,0.4,2.3-2.2,3-2
							c0.7,0.4,1.5,3.6,5.3,2.4c2.2-0.7,2.3-3.6,2.8-3.8C32.1,18.1,33.1,19.6,34.8,18.3L34.8,18.3z"/>
						<path class="st21" d="M34.4,18.1c1.8-1.1,2.3-3.6,1.5-5.8c-0.8-2.2-2.2-2.2-3.3-2.9c-0.8-0.4-0.8-1.1-2.8-2
							c-1.3-0.7-2.5-0.7-4.5,0.4s-10.9,4-11.7,4.4c-1.3,0.7-1.5,3.1-0.7,4.4c0.8,1.6,2.5,2,4,2.2c0.7,0.2,1.5,2.2,3.5,2.9
							c1.3,0.4,2.3-2.4,2.8-2.2c0.7,0.4,1.5,3.8,5.2,2.4c2.2-0.7,2.3-3.6,2.7-3.8C31.9,17.6,32.8,19.2,34.4,18.1L34.4,18.1z"/>
					</g>
					<path class="st24" d="M32.9,8.8c-0.2,0-0.3,0-0.5,0c-0.5-2.2-2.2-3.8-4-3.8c-0.8,0-1.7,0.2-2.3,0.9C25.6,4.1,24.4,3,22.9,3
						c-1.7,0-3,1.6-3.2,3.6c-0.5-0.4-1-0.7-1.7-0.7c-1.2,0-2.3,1.3-2.5,3.3l0,0c-2.2,0-3.8,2.2-3.8,5.3s1.7,5.1,3.8,5.1
						c0.7,0,1.3-0.2,1.8-0.7c0.2,1.8,1.3,3.1,2.8,3.1c1.2,0,2-0.9,2.5-2.2c0.8,1.8,2.3,2.9,4,2.9c2.2,0,4-1.8,4.5-4.4
						c0.5,0.4,1.2,0.4,1.7,0.4c2,0,3.8-2.2,3.8-5.1S35.1,9,32.9,8.8L32.9,8.8z"/>
					<path class="st22" d="M33.1,9c-0.2,0-0.3,0-0.5,0c-0.5-2.2-2.2-3.8-4-3.8c-0.8,0-1.7,0.4-2.3,0.9c-0.5-1.8-1.7-2.9-3.2-2.9
						c-1.7,0-3,1.6-3.2,3.6c-0.5-0.4-1-0.7-1.7-0.7c-1.3,0-2.5,1.3-2.7,3.1l0,0c-2.2,0-3.8,2.2-3.8,5.3s1.7,5.1,3.8,5.1
						c0.7,0,1.3-0.2,1.8-0.7c0.2,1.8,1.3,3.1,2.8,3.1c1.2,0,2-0.9,2.5-2.2c0.8,1.8,2.3,2.9,4,2.9c2.2,0,4-1.8,4.5-4.4
						c0.5,0.4,1.2,0.4,1.7,0.4c2,0,3.8-2.2,3.8-5.1S35.3,9,33.1,9L33.1,9z"/>
				</g>
				<g>
					<g>
						<path class="st0" d="M26.8,29.9c1.2-2.4,0.7-6.9-0.2-8.4c-1.2-2-2.7-2.9-3.7-3.8c-1-0.9-3.3-2-4.7-2c-1.8,0-2.8,0.9-4.3,1.6
							c-1.7,0.7-4.3,4-5.9,6.2c-1.8,2.7-1.3,6.4-0.8,7.1c0.8,1.3,1.8,2.9,3.2,3.6c1.2,0.9,2.3,0.7,3.2,0.9c0.7,0,1.5,0.4,3.3,0
							c1.3-0.4,1.8-0.4,2.5-0.9C20.9,33.6,25.3,32.7,26.8,29.9L26.8,29.9z"/>
						<path class="st1" d="M26.6,29.9c1.2-2.4,0.7-6.7-0.2-8.4c-1.2-2-2.7-2.9-3.7-3.6c-1-0.7-3.2-2-4.5-2c-1.8,0-2.8,0.9-4.3,1.3
							c-1.7,0.7-4.3,4-5.7,6c-1.7,2.4-1.3,6.2-0.8,7.1c0.7,1.3,1.7,2.7,3,3.6c1.2,0.7,2.3,0.7,3.2,0.7c0.7,0,1.5,0.4,3.3,0
							c1.3-0.4,1.8-0.4,2.5-0.7C20.7,33.4,25.1,32.5,26.6,29.9z"/>
						<path class="st2" d="M26.3,29.6c1.2-2.2,0.8-6.4,0-8.2c-1.2-2-2.7-2.9-3.7-3.6c-1-0.4-3.2-1.8-4.5-1.8c-1.8,0-2.8,0.9-4.2,1.3
							c-1.7,0.7-4.2,3.8-5.7,6c-1.7,2.4-1.3,6-0.8,6.9c0.8,1.3,1.7,2.7,3,3.3s2.2,0.7,3.2,0.7c0.7,0,1.5,0.4,3.3,0
							c1.3-0.4,2-0.4,2.5-0.7C20.7,33,24.8,32.5,26.3,29.6L26.3,29.6z"/>
						<path class="st3" d="M25.9,29.6c1.2-2.2,0.8-6.2,0-8c-1-2-2.7-2.9-3.7-3.6c-1-0.7-3-2-4.3-2c-1.7,0-2.8,0.7-4.2,1.3
							c-1.5,0.7-4,3.8-5.3,5.8c-1.5,2.2-1.5,5.8-0.8,6.7c0.8,1.3,1.7,2.7,3,3.3c1.2,0.7,2.2,0.7,3,0.7c0.7,0,1.5,0.4,3.3,0
							c1.3-0.4,2-0.4,2.5-0.7C20.6,32.7,24.6,32.1,25.9,29.6L25.9,29.6z"/>
						<path class="st4" d="M25.8,29.4c1.2-2,1-6,0.2-7.6c-1-2-2.7-2.9-3.5-3.3c-1-0.7-3-2-4.2-2c-1.7,0-2.7,0.7-4.2,1.3
							c-1.8,0.2-4.3,3.6-5.7,5.3c-1.5,2.2-1.5,5.8-1,6.7c0.7,1.3,1.7,2.4,3,3.1c1.3,0.7,2.2,0.4,3,0.4c0.7,0,1.5,0.4,3.3,0
							c1.3-0.2,2-0.4,2.5-0.7C20.6,32.5,24.3,32.1,25.8,29.4L25.8,29.4z"/>
						<path class="st5" d="M25.4,29.4c1.2-2,1-5.8,0.2-7.6c-1-2-2.5-2.7-3.5-3.3c-1-0.7-2.8-2-4.2-2c-1.7,0-2.7,0.7-4.2,1.1
							s-4,3.8-5.2,5.6c-1.5,2-1.5,5.6-1,6.4c0.7,1.1,1.5,2.4,2.8,3.1s2.2,0.2,3,0.4c0.7,0.2,1.5,0.4,3.3,0c1.3-0.2,2-0.7,2.5-0.7
							C20.4,32.1,24.1,31.6,25.4,29.4L25.4,29.4z"/>
						<path class="st6" d="M25.3,29.2c1.2-2,1-5.6,0.3-7.3c-1-2-2.5-2.7-3.5-3.3c-0.8-0.7-2.8-2-4-2c-1.7,0-2.8,0.7-4.3,1.1
							c-1.5,0.7-3.8,3.8-5,5.6c-1.3,2-1.5,5.3-1,6.2c0.7,1.1,1.5,2.4,2.8,3.1c1.3,0.7,2.2,0.2,3,0.4c0.7,0.2,1.5,0.4,3.3,0
							c1.3-0.2,2-0.7,2.5-0.7C20.4,31.9,23.8,31.4,25.3,29.2L25.3,29.2z"/>
						<path class="st7" d="M24.9,29.2c1.2-1.8,1.2-5.3,0.3-7.1c-1-2-2.5-2.7-3.5-3.3c-0.8-0.4-2.7-2-3.8-2c-1.5-0.2-2.8,0.4-4.2,1.1
							c-1.5,0.4-3.8,3.6-5,5.3c-1.3,2-1.7,5.1-1,6.2c0.7,1.1,1.5,2.2,2.8,2.7c1.3,0.4,2.2,0.2,2.8,0.2c0.7,0.2,1.5,0.4,3.3,0
							c1.3-0.2,2-0.7,2.5-0.7C20.4,31.6,23.6,31.4,24.9,29.2z"/>
						<path class="st8" d="M24.8,29c1.2-1.8,1.2-5.1,0.3-6.7c-0.8-2.2-2.5-2.7-3.5-3.3c-0.8-0.4-2.7-2-3.8-2.2c-1.5,0-2.7,0.7-4,1.1
							c-1.5,0.7-3.8,3.6-5,5.1c-1.3,1.8-1.7,4.9-1,6c0.7,1.1,1.3,2.2,2.7,2.9c1.3,0.7,2.2,0,2.8,0.2c0.7,0.2,1.5,0.4,3.3,0
							c1.3-0.2,2-0.7,2.5-0.7C20.2,31.2,23.3,31.2,24.8,29L24.8,29z"/>
						<path class="st9" d="M24.4,29c1.2-1.8,1.3-4.9,0.5-6.7c-1-2.2-2.5-2.4-3.5-3.1c-0.8-0.4-2.5-2-3.7-2.2c-1.5-0.2-2.7,0.4-4,0.9
							c-1.5,0.7-3.8,3.8-4.8,5.1c-1.2,1.8-1.7,4.7-1,5.8c0.7,0.9,1.3,2.2,2.7,2.7s2.2,0,2.8,0.2c0.7,0.2,1.5,0.4,3.2,0
							c1.3-0.2,2-0.7,2.5-0.7C20.2,31,23.1,30.7,24.4,29L24.4,29z"/>
						<path class="st10" d="M24.3,28.7c1.2-1.6,1.3-4.7,0.7-6.4c-1-2.2-2.5-2.4-3.5-3.1c-0.8-0.4-2.5-2-3.7-2.2
							c-1.3,0-2.7,0.4-4,1.1C12.2,18.5,10,21.6,9,23c-1.2,1.6-1.8,4.7-1,5.8c0.5,0.9,1.3,2.2,2.7,2.7s2.2,0,2.8,0
							c0.7,0.2,1.5,0.4,3.2,0c1.3-0.2,2-0.7,2.5-0.7C20.1,30.7,22.9,30.7,24.3,28.7L24.3,28.7z"/>
						<path class="st11" d="M23.9,28.7c1.2-1.6,1.5-4.4,0.7-6.2c-0.8-2.2-2.5-2.4-3.5-3.1c-0.8-0.4-2.3-2-3.5-2.2
							c-1.3,0-2.7,0.4-4,0.9C12.1,18.7,10,21.6,9,23c-1.2,1.6-1.8,4.4-1,5.6c0.5,0.9,1.2,2,2.5,2.4s2.2-0.2,2.7,0
							c0.5,0.2,1.5,0.4,3.2,0.2c1.3-0.2,2.2-0.7,2.5-0.7C20.1,30.3,22.6,30.5,23.9,28.7L23.9,28.7z"/>
						<path class="st12" d="M23.8,28.5c1.2-1.6,1.5-4.2,0.8-6c-0.8-2.2-2.5-2.4-3.5-2.9c-0.8-0.4-2.3-2-3.5-2.2
							c-1.3-0.2-2.7,0.2-4,0.7c-1.5,0.7-3.5,3.6-4.3,4.9c-1,1.3-1.8,4.2-1.2,5.3c0.5,0.9,1.2,2,2.5,2.4s2-0.2,2.7,0
							c0.7,0.2,1.3,0.4,3.2,0.2c1.3-0.2,2.2-0.7,2.5-0.7C19.9,30.1,22.4,30.3,23.8,28.5z"/>
						<path class="st13" d="M23.4,28.5c1.2-1.3,1.7-4,0.8-5.8c-0.8-2.2-2.5-2.4-3.3-2.9c-0.7-0.4-2.2-2-3.3-2.2
							c-1.3-0.2-2.7,0.2-4,0.7c-1.5,0.4-3.5,3.6-4.3,4.7c-1,1.3-1.8,4-1.2,5.3c0.5,0.9,1.2,2,2.5,2.2c1.3,0.2,2-0.2,2.7-0.2
							s1.5,0.4,3.2,0.2c1.3-0.2,2.2-0.7,2.5-0.7C19.9,29.9,22.1,30.1,23.4,28.5z"/>
						<path class="st14" d="M23.3,28.3c1.2-1.3,1.7-3.8,1-5.6c-0.8-2.2-2.5-2.2-3.3-2.9c-0.7-0.4-2.2-2-3.3-2.4
							c-1.3,0-2.7,0.4-4,0.9c-1.5,0.7-3.3,3.3-4.2,4.4c-0.8,1.3-2,3.8-1.2,5.1c0.5,0.9,1.2,1.8,2.5,2.2s2-0.4,2.5-0.2
							c0.5,0.2,1.5,0.4,3.2,0.2c1.3-0.2,2.2-0.7,2.5-0.7C19.7,29.4,21.9,29.9,23.3,28.3L23.3,28.3z"/>
						<path class="st15" d="M22.9,28.3c1.2-1.3,1.8-3.6,1-5.3c-0.8-2.2-2.5-2.2-3.3-2.9c-0.7-0.4-2-2-3.2-2.4
							c-1.2-0.4-2.7,0.2-3.8,0.7c-1.5,0.7-3.3,3.3-4,4.4c-0.8,1.1-2,3.6-1.2,4.9c0.5,0.7,1,1.8,2.3,2c1.3,0.2,2-0.4,2.5-0.2
							c0.5,0.2,1.3,0.4,3.2,0.2c1.3-0.2,2.2-0.7,2.5-0.7C19.7,29.2,21.6,29.6,22.9,28.3z"/>
						<path class="st16" d="M22.7,28.1c1.2-1.1,1.8-3.1,1.2-5.1c-0.8-2.2-2.5-2.2-3.3-2.7c-0.8-0.4-2.2-2-3.2-2.4s-2.7,0-3.8,0.4
							c-1.5,0.7-3.3,3.6-4,4.4c-0.8,1.1-2,3.6-1.2,4.9c0.5,0.7,1,1.8,2.3,2c1.3,0.2,2-0.4,2.5-0.4c0.5,0.2,1.3,0.7,3.2,0.2
							c1.5-0.2,2.2-0.7,2.5-0.7C19.7,29,21.4,29.4,22.7,28.1L22.7,28.1z"/>
						<path class="st17" d="M22.4,28.1c1.2-1.1,1.8-2.9,1.2-4.9c-0.8-2.2-2.5-2.2-3.3-2.7c-0.7-0.4-1.8-2-3-2.4
							c-1.2-0.4-2.7,0-3.8,0.4c-1.3,0.7-3.2,3.3-3.7,4.2c-0.8,0.9-2.2,3.3-1.3,4.7c0.3,0.7,1,1.8,2.3,1.8s2-0.7,2.5-0.4
							c0.5,0.2,1.3,0.4,3.2,0.2c1.5-0.2,2.2-0.7,2.5-0.7C19.6,28.7,21.2,29.2,22.4,28.1L22.4,28.1z"/>
						<path class="st18" d="M22.1,27.9c1.2-0.9,2-2.7,1.3-4.7c-0.8-2.2-2.5-2-3.3-2.7c-0.7-0.4-1.8-2.2-2.8-2.4s-2.7,0-3.8,0.4
							c-1.3,0.7-3.2,3.3-3.7,4.2c-0.7,0.9-2.2,3.1-1.2,4.4c0.3,0.7,0.8,1.6,2.2,1.8c1.3,0.2,2-0.7,2.3-0.4c0.5,0.2,1.3,0.4,3.2,0.2
							c1.5-0.2,2.2-0.9,2.5-0.7C19.6,28.3,20.9,29,22.1,27.9L22.1,27.9z"/>
						<path class="st19" d="M21.9,27.9c1.2-0.9,2-2.4,1.3-4.4c-0.7-2.2-2.5-2-3.3-2.4c-0.5-0.4-1.7-2.2-2.7-2.7
							c-1-0.2-2.7,0-3.8,0.4c-1.3,0.7-3,3.3-3.5,4c-0.7,0.9-2.2,2.9-1.2,4.4c0.3,0.4,0.8,1.6,2.2,1.6c1.3,0.2,2-0.9,2.3-0.7
							c0.5,0.2,1.3,0.4,3.2,0.2c1.5-0.2,2.2-0.9,2.5-0.7C19.6,28.1,20.7,28.7,21.9,27.9L21.9,27.9z"/>
						<path class="st20" d="M21.6,27.6c1.2-0.9,2.2-2.2,1.5-4.2c-0.7-2.2-2.5-2-3.3-2.4c-0.7-0.4-1.7-2.2-2.7-2.4
							c-0.8-0.2-2.5-0.2-3.7,0.2c-1.5,0.7-3,3.3-3.5,4c-0.5,0.7-2.2,2.7-1.2,4.2c0.3,0.4,0.7,1.6,2.2,1.6c1.3,0,2-0.9,2.3-0.7
							c0.5,0.2,1.3,0.4,3.2,0.2c1.5-0.2,2.3-0.9,2.5-0.7C19.4,27.9,20.4,28.5,21.6,27.6L21.6,27.6z"/>
						<path class="st21" d="M21.4,27.6c1.2-0.7,2.2-2,1.5-4c-0.7-2.2-2.3-2-3.2-2.4c-0.5-0.2-1.7-2.2-2.7-2.4
							c-0.8-0.4-2.5-0.4-3.7,0.2c-1.3,0.7-2.8,3.1-3.3,3.8c-0.5,0.7-2.3,2.4-1.3,4.2c0.3,0.2,0.7,1.1,2.2,1.1c1.3,0,2-0.9,2.3-0.7
							c0.5,0.2,1.3,0.4,3.2,0.2c1.5-0.2,2.3-0.9,2.5-0.7C19.4,27.4,20.2,28.3,21.4,27.6L21.4,27.6z"/>
					</g>
					<path class="st24" d="M20.6,21c-0.3,0-0.7,0-1,0.2c-0.3-2.7-2-4.7-4-4.7c-2-0.2-3.8,1.6-4.3,3.8l0,0c-1.7-0.2-3.2,1.6-3.2,4
						s1.2,4.2,3,4.2c0.8,0,1.7-0.4,2.3-1.1c0.7,0.4,1.3,0.7,2,0.9c1.3,0,2.5-0.7,3.3-1.8c0.5,0.7,1.2,1.3,1.8,1.3
						c1.5,0,2.7-1.3,2.7-3.1C23.1,22.7,22.1,21.2,20.6,21L20.6,21z"/>
				</g>
			</g>
		</g>
	</g>
</g>
</svg>
