<?xml version="1.0" encoding="utf-8"?>
<!-- Generator: Adobe Illustrator 27.0.1, SVG Export Plug-In . SVG Version: 6.00 Build 0)  -->
<svg version="1.1" id="Ebene_1" xmlns="http://www.w3.org/2000/svg" xmlns:xlink="http://www.w3.org/1999/xlink" x="0px" y="0px"
	 viewBox="0 0 47.9 47.9" style="enable-background:new 0 0 47.9 47.9;" xml:space="preserve">
<style type="text/css">
	.st0{display:none;}
	.st1{display:inline;}
	.st2{fill:#FFFFFF;fill-opacity:0;}
	.st3{opacity:4.761905e-02;fill:#FAFBFC;enable-background:new    ;}
	.st4{opacity:9.523810e-02;fill:#F4F6F8;enable-background:new    ;}
	.st5{opacity:0.1429;fill:#EFF1F4;enable-background:new    ;}
	.st6{opacity:0.1905;fill:#E9ECF0;enable-background:new    ;}
	.st7{opacity:0.2381;fill:#E3E8EC;enable-background:new    ;}
	.st8{opacity:0.2857;fill:#DEE3E8;enable-background:new    ;}
	.st9{opacity:0.3333;fill:#D8DEE4;enable-background:new    ;}
	.st10{opacity:0.381;fill:#D3DAE0;enable-background:new    ;}
	.st11{opacity:0.4286;fill:#CDD5DC;enable-background:new    ;}
	.st12{opacity:0.4762;fill:#C8D1D9;enable-background:new    ;}
	.st13{opacity:0.5238;fill:#C2CDD5;enable-background:new    ;}
	.st14{opacity:0.5714;fill:#BDC8D1;enable-background:new    ;}
	.st15{opacity:0.619;fill:#B7C4CD;enable-background:new    ;}
	.st16{opacity:0.6667;fill:#B1C0CA;enable-background:new    ;}
	.st17{opacity:0.7143;fill:#ABBBC6;enable-background:new    ;}
	.st18{opacity:0.7619;fill:#A5B7C3;enable-background:new    ;}
	.st19{opacity:0.8095;fill:#9FB3BF;enable-background:new    ;}
	.st20{opacity:0.8571;fill:#99AFBB;enable-background:new    ;}
	.st21{opacity:0.9048;fill:#93ABB8;enable-background:new    ;}
	.st22{opacity:0.9524;fill:#8DA7B4;enable-background:new    ;}
	.st23{fill:#87A3B1;}
	.st24{display:none;fill:#FFFFFF;fill-opacity:0;}
	.st25{display:none;opacity:4.761905e-02;fill:#FAFBFC;enable-background:new    ;}
	.st26{display:none;opacity:9.523810e-02;fill:#F4F6F8;enable-background:new    ;}
	.st27{display:none;opacity:0.1429;fill:#EFF1F4;enable-background:new    ;}
	.st28{display:none;opacity:0.1905;fill:#E9ECF0;enable-background:new    ;}
	.st29{display:none;opacity:0.2381;fill:#E3E8EC;enable-background:new    ;}
	.st30{display:none;opacity:0.2857;fill:#DEE3E8;enable-background:new    ;}
	.st31{display:none;opacity:0.3333;fill:#D8DEE4;enable-background:new    ;}
	.st32{display:none;opacity:0.381;fill:#D3DAE0;enable-background:new    ;}
	.st33{display:none;opacity:0.4286;fill:#CDD5DC;enable-background:new    ;}
	.st34{display:none;opacity:0.4762;fill:#C8D1D9;enable-background:new    ;}
	.st35{display:none;opacity:0.5714;fill:#BDC8D1;enable-background:new    ;}
	.st36{display:none;opacity:0.619;fill:#B7C4CD;enable-background:new    ;}
	.st37{display:none;opacity:0.6667;fill:#B1C0CA;enable-background:new    ;}
	.st38{display:none;opacity:0.8571;fill:#99AFBB;enable-background:new    ;}
	.st39{display:none;opacity:0.9048;fill:#93ABB8;enable-background:new    ;}
	.st40{display:none;opacity:0.9524;fill:#8DA7B4;enable-background:new    ;}
	.st41{display:none;fill:#87A3B1;}
	.st42{fill:#FFE3AC;}
	.st43{fill:url(#SVGID_1_);}
	.st44{fill:url(#SVGID_00000000196862334490976390000010556645522993131448_);}
	.st45{fill:url(#SVGID_00000049213484643345017040000013998245787927536817_);}
	.st46{fill:url(#SVGID_00000013191279654064142750000013888311915486434235_);}
	.st47{fill:url(#SVGID_00000064323463474940979890000000920258094179338909_);}
	.st48{fill:url(#SVGID_00000183938479072790711250000011442074805794904963_);}
	.st49{fill:url(#SVGID_00000133515084265272878950000015424763017782986672_);}
	.st50{fill:url(#SVGID_00000113336519636942030130000016022804872328133531_);}
	.st51{fill:url(#SVGID_00000182528052442103391650000010592766570324070286_);}
	.st52{fill:url(#SVGID_00000130610509788807872450000006467393547580298406_);}
	.st53{fill:url(#SVGID_00000060710185911334165810000014773443595228722621_);}
	.st54{fill:url(#SVGID_00000143600964585105293290000001941119892478016653_);}
	.st55{fill:url(#SVGID_00000039091471062136569310000001065032470360755131_);}
	.st56{fill:url(#SVGID_00000061436074610547665130000014265089003854276798_);}
	.st57{fill:url(#SVGID_00000049901232326529545650000001716424995504639105_);}
	.st58{fill:url(#SVGID_00000062165196227522286920000010164327912708863922_);}
	.st59{fill:url(#SVGID_00000139977068029725118000000001402086567411470472_);}
</style>
<g class="st0">
	<g class="st1">
		<path class="st2" d="M37.7,22c-3.5-1.3-3.8-4.9-0.6-7.9c1.7-1.6,4.4-2.5,7.6-2c3.5,0.5,5,3.3,2.7,6.2C45.2,21.3,41,23.3,37.7,22z"
			/>
		<path class="st3" d="M37.8,21.9c-3.5-1.2-3.7-4.8-0.6-7.6c1.7-1.5,4.3-2.4,7.5-1.9c3.4,0.5,4.8,3.2,2.6,6.1
			C45.1,21.1,41.1,23,37.8,21.9z"/>
		<path class="st4" d="M38,21.7c-3.4-1.2-3.6-4.6-0.6-7.4c1.7-1.5,4.3-2.3,7.3-1.9c3.3,0.5,4.7,3.1,2.4,5.9C45,21,41.1,22.8,38,21.7
			z"/>
		<path class="st5" d="M38.1,21.6c-3.4-1.1-3.6-4.5-0.6-7.2c1.7-1.5,4.3-2.3,7.1-1.9c3.2,0.5,4.5,3,2.3,5.7
			C44.9,20.8,41.2,22.6,38.1,21.6z"/>
		<path class="st6" d="M38.2,21.4c-3.3-1-3.5-4.4-0.6-6.9c1.7-1.5,4.2-2.2,7-1.8c3.1,0.4,4.4,2.8,2.2,5.5
			C44.8,20.7,41.2,22.3,38.2,21.4z"/>
		<path class="st7" d="M38.3,21.2c-3.2-1-3.4-4.2-0.6-6.7c1.7-1.4,4.2-2.1,6.8-1.8c2.9,0.4,4.2,2.7,2.1,5.4
			C44.7,20.5,41.3,22.1,38.3,21.2z"/>
		<path class="st8" d="M38.5,21.1c-3.2-0.9-3.4-4.1-0.6-6.5c1.7-1.4,4.1-2.1,6.7-1.7c2.8,0.4,4.1,2.6,1.9,5.2
			C44.6,20.4,41.3,21.9,38.5,21.1z"/>
		<path class="st9" d="M38.6,20.9c-3.1-0.8-3.3-4-0.6-6.2c1.7-1.4,4.1-2,6.5-1.7c2.7,0.4,3.9,2.5,1.8,5
			C44.5,20.2,41.4,21.7,38.6,20.9z"/>
		<path class="st10" d="M38.7,20.7c-3-0.8-3.2-3.8-0.6-6c1.7-1.4,4-1.9,6.3-1.6c2.6,0.4,3.8,2.4,1.7,4.9
			C44.4,20.1,41.4,21.4,38.7,20.7z"/>
		<path class="st11" d="M38.8,20.6c-3-0.7-3.1-3.7-0.6-5.7c1.7-1.3,4-1.9,6.2-1.6c2.5,0.3,3.6,2.3,1.6,4.7
			C44.3,19.9,41.5,21.2,38.8,20.6z"/>
		<path class="st12" d="M39,20.4c-2.9-0.6-3.1-3.5-0.6-5.5c1.7-1.3,3.9-1.8,6-1.5c2.4,0.3,3.5,2.2,1.5,4.5
			C44.2,19.8,41.5,21,39,20.4z"/>
		<path class="st13" d="M39.1,20.3c-2.9-0.6-3-3.4-0.6-5.3c1.7-1.3,3.9-1.7,5.9-1.5c2.3,0.3,3.3,2.1,1.3,4.3
			C44.1,19.6,41.6,20.7,39.1,20.3z"/>
		<path class="st14" d="M39.2,20.1c-2.8-0.5-2.9-3.3-0.6-5c1.7-1.2,3.9-1.7,5.7-1.5c2.2,0.3,3.2,2,1.2,4.2
			C44,19.5,41.6,20.5,39.2,20.1z"/>
		<path class="st15" d="M39.3,19.9c-2.7-0.4-2.8-3.1-0.6-4.8c1.7-1.2,3.8-1.6,5.6-1.4c2.1,0.2,3,1.9,1.1,4
			C43.9,19.3,41.7,20.3,39.3,19.9z"/>
		<path class="st16" d="M39.5,19.8c-2.7-0.3-2.8-3-0.6-4.6c1.7-1.2,3.8-1.5,5.4-1.4c1.9,0.2,2.9,1.8,1,3.8
			C43.8,19.2,41.7,20.1,39.5,19.8z"/>
		<path class="st17" d="M39.6,19.6c-2.6-0.3-2.7-2.8-0.6-4.3c1.7-1.2,3.7-1.5,5.2-1.3c1.8,0.2,2.7,1.7,0.8,3.7
			C43.7,19.1,41.8,19.8,39.6,19.6z"/>
		<path class="st18" d="M39.7,19.4c-2.6-0.2-2.6-2.7-0.6-4.1c1.7-1.1,3.7-1.4,5.1-1.3c1.7,0.2,2.6,1.6,0.7,3.5
			C43.6,18.9,41.8,19.6,39.7,19.4z"/>
		<path class="st19" d="M39.8,19.3c-2.5-0.1-2.5-2.5-0.6-3.8c1.7-1.1,3.6-1.3,4.9-1.2c1.6,0.1,2.4,1.5,0.6,3.3
			C43.5,18.8,41.9,19.4,39.8,19.3z"/>
		<path class="st20" d="M39.9,19.1c-2.4,0-2.5-2.4-0.6-3.6c1.7-1.1,3.6-1.3,4.8-1.2c1.5,0.1,2.3,1.4,0.5,3.1
			C43.5,18.6,42,19.2,39.9,19.1z"/>
		<path class="st21" d="M40.1,19c-2.4,0-2.4-2.2-0.6-3.4c1.7-1,3.5-1.2,4.6-1.1c1.4,0.1,2.1,1.3,0.3,3C43.4,18.5,42,18.9,40.1,19z"
			/>
		<path class="st22" d="M40.2,18.8c-2.3,0.1-2.3-2.1-0.6-3.1s3.5-1.1,4.4-1.1c1.3,0.1,2,1.2,0.2,2.8C43.3,18.3,42.1,18.7,40.2,18.8z
			"/>
		<path class="st23" d="M40.3,18.6c-2.3,0.2-2.2-1.9-0.6-2.9c1.7-1,3.5-1.1,4.3-1.1c1.2,0,1.9,1.1,0.1,2.6
			C43.2,18.2,42.1,18.5,40.3,18.6z"/>
	</g>
	<g class="st1">
		<path class="st2" d="M33.5,12.8c-3.4,1.5-6.9-1.3-6.8-5.6c0.1-2.3,1.3-4.8,3.9-6.7c2.9-2.1,6.7,0.2,7.2,3.9
			C38.4,8,36.8,11.4,33.5,12.8z"/>
		<path class="st3" d="M33.5,12.6c-3.3,1.5-6.8-1.2-6.6-5.5c0.1-2.3,1.3-4.7,3.9-6.6c2.8-2,6.5,0.2,7,3.8
			C38.2,7.9,36.6,11.2,33.5,12.6z"/>
		<path class="st4" d="M33.4,12.4c-3.3,1.6-6.6-1.2-6.4-5.3c0.1-2.2,1.4-4.7,3.8-6.5c2.7-2,6.3,0.2,6.7,3.7
			C37.9,7.8,36.4,10.9,33.4,12.4z"/>
		<path class="st5" d="M33.3,12.1c-3.2,1.6-6.4-1.1-6.2-5.1c0.1-2.2,1.4-4.6,3.7-6.3c2.6-1.9,6,0.1,6.5,3.6
			C37.7,7.7,36.3,10.7,33.3,12.1z"/>
		<path class="st6" d="M33.3,11.9c-3.1,1.6-6.2-1-6-4.9c0.1-2.2,1.4-4.5,3.6-6.2c2.5-1.8,5.8,0.1,6.2,3.5
			C37.5,7.6,36.1,10.5,33.3,11.9z"/>
		<path class="st7" d="M33.2,11.7c-3,1.6-6-1-5.8-4.7c0.1-2.2,1.4-4.4,3.5-6c2.4-1.8,5.6,0,6,3.4C37.3,7.5,35.9,10.3,33.2,11.7z"/>
		<path class="st8" d="M33.1,11.5c-2.9,1.6-5.8-0.9-5.6-4.5c0.2-2.2,1.4-4.4,3.5-5.9c2.3-1.7,5.4,0,5.7,3.3
			C37.1,7.4,35.8,10,33.1,11.5z"/>
		<path class="st9" d="M33.1,11.3c-2.8,1.6-5.7-0.8-5.4-4.3c0.2-2.1,1.4-4.3,3.4-5.7c2.2-1.6,5.2,0,5.5,3.2
			C36.9,7.3,35.6,9.8,33.1,11.3z"/>
		<path class="st10" d="M33,11c-2.7,1.6-5.5-0.7-5.2-4.1c0.2-2.1,1.5-4.2,3.3-5.6c2.1-1.6,4.9-0.1,5.2,3.1C36.6,7.2,35.4,9.6,33,11z
			"/>
		<path class="st11" d="M33,10.8c-2.6,1.6-5.3-0.7-4.9-3.9c0.2-2.1,1.5-4.1,3.2-5.5c2-1.5,4.7-0.1,5,3C36.4,7.1,35.3,9.4,33,10.8z"
			/>
		<path class="st12" d="M32.9,10.6c-2.5,1.6-5.1-0.6-4.7-3.7c0.2-2.1,1.5-4,3.1-5.3c1.9-1.5,4.5-0.1,4.7,2.9
			C36.2,6.9,35.1,9.2,32.9,10.6z"/>
		<path class="st13" d="M32.8,10.4c-2.4,1.6-4.9-0.5-4.5-3.6c0.3-2.1,1.5-4,3.1-5.2c1.8-1.4,4.3-0.2,4.5,2.8
			C36,6.8,34.9,8.9,32.8,10.4z"/>
		<path class="st14" d="M32.8,10.1c-2.3,1.6-4.7-0.5-4.3-3.4c0.3-2,1.5-3.9,3-5c1.7-1.3,4-0.2,4.2,2.7C35.8,6.7,34.8,8.7,32.8,10.1z
			"/>
		<path class="st15" d="M32.7,9.9c-2.2,1.6-4.5-0.4-4.1-3.2c0.3-2,1.5-3.8,2.9-4.9c1.6-1.3,3.8-0.2,4,2.6
			C35.6,6.6,34.6,8.5,32.7,9.9z"/>
		<path class="st16" d="M32.6,9.7c-2.1,1.6-4.3-0.3-3.9-3C29,4.7,30.3,3,31.5,2c1.5-1.2,3.6-0.3,3.7,2.5C35.3,6.5,34.5,8.3,32.6,9.7
			z"/>
		<path class="st17" d="M32.6,9.5c-2,1.7-4.1-0.2-3.7-2.8c0.3-2,1.6-3.7,2.8-4.6c1.4-1.2,3.4-0.3,3.5,2.4
			C35.1,6.4,34.3,8.1,32.6,9.5z"/>
		<path class="st18" d="M32.5,9.2C30.6,10.9,28.6,9,29,6.6c0.4-2,1.6-3.6,2.7-4.5C33,1,34.9,1.7,34.9,4.4
			C34.9,6.3,34.1,7.9,32.5,9.2z"/>
		<path class="st19" d="M32.4,9c-1.8,1.7-3.8-0.1-3.3-2.4c0.4-1.9,1.6-3.5,2.6-4.3c1.2-1,2.9-0.4,3,2.2C34.7,6.2,34,7.6,32.4,9z"/>
		<path class="st20" d="M32.4,8.8c-1.8,1.7-3.6,0-3.1-2.2c0.4-1.9,1.6-3.4,2.5-4.2c1.1-1,2.7-0.4,2.7,2.1
			C34.5,6.1,33.8,7.4,32.4,8.8z"/>
		<path class="st21" d="M32.3,8.6c-1.7,1.7-3.4,0-2.9-2c0.4-1.9,1.6-3.3,2.4-4c1-0.9,2.5-0.5,2.5,2C34.3,6,33.6,7.2,32.3,8.6z"/>
		<path class="st22" d="M32.2,8.4c-1.6,1.7-3.2,0.1-2.7-1.8c0.5-2,1.7-3.4,2.4-4c1-0.9,2.3-0.5,2.2,1.9C34.1,5.9,33.5,7,32.2,8.4z"
			/>
		<path class="st23" d="M32.2,8.1c-1.5,1.7-3,0.2-2.5-1.7c0.5-1.8,1.7-3.2,2.3-3.7c0.9-0.8,2.1-0.5,2,1.8
			C33.9,5.8,33.3,6.8,32.2,8.1z"/>
	</g>
	<g class="st1">
		<path class="st2" d="M22.6,8.8c-1.1,3.6-4.7,4.1-7.9,1.1c-1.7-1.6-2.8-4.2-2.5-7.4c0.3-3.5,4.4-4,7.5-1.9
			C22.8,2.6,23.6,5.5,22.6,8.8z"/>
		<path class="st3" d="M22.5,8.7c-1,3.5-4.6,4-7.7,1.1c-1.7-1.6-2.7-4.1-2.5-7.2c0.3-3.4,4.2-3.9,7.3-1.9
			C22.6,2.7,23.4,5.4,22.5,8.7z"/>
		<path class="st4" d="M22.3,8.6c-1,3.4-4.4,3.9-7.4,1.1c-1.6-1.5-2.7-4.1-2.4-7.1c0.3-3.3,4.1-3.8,7.1-1.8
			C22.3,2.7,23.2,5.4,22.3,8.6z"/>
		<path class="st5" d="M22.1,8.5c-0.9,3.4-4.3,3.8-7.2,1c-1.6-1.5-2.6-4-2.4-6.9c0.3-3.2,3.9-3.7,6.8-1.7
			C22.1,2.8,22.9,5.3,22.1,8.5z"/>
		<path class="st6" d="M21.9,8.4c-0.8,3.3-4.2,3.7-7,1c-1.6-1.5-2.5-4-2.3-6.8c0.2-3,3.7-3.6,6.6-1.6C21.9,2.8,22.7,5.3,21.9,8.4z"
			/>
		<path class="st7" d="M21.8,8.2c-0.8,3.2-4,3.7-6.7,1c-1.6-1.5-2.5-4-2.3-6.6c0.2-2.9,3.6-3.5,6.4-1.5C21.7,2.9,22.5,5.3,21.8,8.2z
			"/>
		<path class="st8" d="M21.6,8.1c-0.7,3.2-3.9,3.6-6.5,1c-1.5-1.5-2.4-3.9-2.2-6.4c0.2-2.8,3.4-3.4,6.1-1.5
			C21.5,2.9,22.2,5.2,21.6,8.1z"/>
		<path class="st9" d="M21.4,8c-0.6,3.1-3.8,3.5-6.2,1c-1.5-1.5-2.3-3.9-2.1-6.3C13.3,0,16.3-0.6,19,1.3C21.3,3,22,5.2,21.4,8z"/>
		<path class="st10" d="M21.3,7.9c-0.6,3.1-3.6,3.4-6,1c-1.5-1.5-2.2-3.8-2.1-6.1c0.2-2.6,3.1-3.2,5.7-1.3C21.1,3,21.8,5.2,21.3,7.9
			z"/>
		<path class="st11" d="M21.1,7.8c-0.5,3-3.5,3.3-5.8,0.9c-1.5-1.5-2.2-3.8-2-6c0.2-2.5,2.9-3.1,5.4-1.2C20.9,3.1,21.5,5.1,21.1,7.8
			z"/>
		<path class="st12" d="M20.9,7.7c-0.4,2.9-3.4,3.3-5.5,0.9c-1.4-1.5-2.1-3.8-2-5.8c0.2-2.4,2.7-3,5.2-1.2
			C20.7,3.1,21.3,5.1,20.9,7.7z"/>
		<path class="st13" d="M20.7,7.6c-0.4,2.9-3.2,3.2-5.3,0.9c-1.4-1.5-2-3.7-1.9-5.7c0.1-2.3,2.6-2.9,5-1.1
			C20.4,3.2,21.1,5.1,20.7,7.6z"/>
		<path class="st14" d="M20.6,7.5c-0.3,2.8-3.1,3.1-5,0.9c-1.4-1.5-2-3.7-1.9-5.5c0.1-2.2,2.4-2.8,4.7-1C20.2,3.2,20.8,5,20.6,7.5z"
			/>
		<path class="st15" d="M20.4,7.4c-0.2,2.7-2.9,3-4.8,0.9c-1.3-1.5-1.9-3.6-1.8-5.4c0.1-2,2.2-2.7,4.5-0.9C20,3.3,20.6,5,20.4,7.4z"
			/>
		<path class="st16" d="M20.2,7.2c-0.2,2.7-2.8,2.9-4.6,0.9c-1.3-1.6-1.8-3.6-1.8-5.2c0.1-1.9,2.1-2.6,4.3-0.8
			C19.8,3.4,20.4,5,20.2,7.2z"/>
		<path class="st17" d="M20,7.1C19.9,9.7,17.3,10,15.7,8C14.4,6.4,14,4.4,14,2.9c0.1-1.8,1.9-2.5,4-0.8C19.6,3.4,20.1,4.9,20,7.1z"
			/>
		<path class="st18" d="M19.9,7c0,2.5-2.5,2.8-4.1,0.8c-1.3-1.6-1.7-3.5-1.6-4.9c0-1.7,1.8-2.4,3.8-0.7C19.4,3.5,19.9,4.9,19.9,7z"
			/>
		<path class="st19" d="M19.7,6.9c0.1,2.5-2.4,2.7-3.8,0.8c-1.2-1.6-1.6-3.5-1.6-4.8c0-1.6,1.6-2.3,3.6-0.6
			C19.2,3.5,19.7,4.9,19.7,6.9z"/>
		<path class="st20" d="M19.5,6.8c0.1,2.4-2.2,2.6-3.6,0.8C14.7,6,14.4,4.1,14.4,3c0-1.5,1.4-2.2,3.4-0.5C19,3.5,19.4,4.8,19.5,6.8z
			"/>
		<path class="st21" d="M19.4,6.7C19.6,9,17.3,9.2,16,7.5c-1.2-1.6-1.5-3.4-1.5-4.5c0-1.4,1.3-2.1,3.1-0.4
			C18.8,3.6,19.2,4.8,19.4,6.7z"/>
		<path class="st22" d="M19.2,6.6c0.3,2.3-2,2.4-3.1,0.8S14.7,4,14.7,3.1c0-1.3,1.1-2,2.9-0.4C18.6,3.6,19,4.8,19.2,6.6z"/>
		<path class="st23" d="M19,6.5c0.4,2.2-1.8,2.3-2.9,0.8C15,5.7,14.8,4,14.7,3.1c0-1.2,1-1.9,2.7-0.3C18.4,3.7,18.7,4.7,19,6.5z"/>
	</g>
	<g class="st1">
		<path class="st2" d="M35,32.5c-1.8-3.3,0.5-6.1,4.9-6.3c2.3-0.1,5,1,7,3.5c2.3,2.7,1.5,5.7-2.2,6.4C41.1,36.9,36.6,35.6,35,32.5z"
			/>
		<path class="st3" d="M35.2,32.5c-1.8-3.2,0.4-6,4.7-6.1c2.3,0,4.9,1,6.9,3.4c2.2,2.6,1.5,5.5-2.2,6.2
			C41.1,36.7,36.8,35.5,35.2,32.5z"/>
		<path class="st4" d="M35.4,32.5c-1.8-3.2,0.4-5.9,4.5-5.9c2.3,0,4.8,1.1,6.7,3.4c2.1,2.5,1.4,5.4-2.1,6
			C41.1,36.5,37,35.4,35.4,32.5z"/>
		<path class="st5" d="M35.6,32.4c-1.8-3,0.4-5.8,4.4-5.7c2.2,0,4.7,1.1,6.6,3.3c2.1,2.4,1.4,5.2-2.1,5.8
			C41.2,36.4,37.2,35.2,35.6,32.4z"/>
		<path class="st6" d="M35.8,32.4c-1.8-2.9,0.3-5.6,4.2-5.6c2.2,0,4.6,1.1,6.4,3.2c2,2.3,1.4,5-2.1,5.6
			C41.2,36.2,37.4,35.1,35.8,32.4z"/>
		<path class="st7" d="M36,32.3c-1.8-2.8,0.3-5.5,4.1-5.4c2.2,0.1,4.6,1.1,6.3,3.2c1.9,2.2,1.3,4.8-2.1,5.4C41.2,36,37.6,35,36,32.3
			z"/>
		<path class="st8" d="M36.2,32.3c-1.8-2.8,0.2-5.3,3.9-5.2c2.2,0,4.5,1.1,6.1,3.1c1.9,2.2,1.3,4.6-2,5.2
			C41.2,35.8,37.8,34.8,36.2,32.3z"/>
		<path class="st9" d="M36.4,32.3c-1.8-2.7,0.2-5.1,3.8-5c2.2,0.1,4.4,1.2,6,3c1.8,2.1,1.2,4.5-2,5C41.3,35.7,38,34.7,36.4,32.3z"/>
		<path class="st10" d="M36.6,32.2c-1.8-2.6,0.2-5,3.6-4.8c2.2,0.1,4.3,1.2,5.8,2.9c1.7,2,1.2,4.3-2,4.7
			C41.3,35.5,38.2,34.5,36.6,32.2z"/>
		<path class="st11" d="M36.8,32.2c-1.8-2.5,0.1-4.8,3.4-4.7c2.1,0.1,4.2,1.2,5.7,2.9c1.7,1.9,1.1,4.1-2,4.5
			C41.3,35.3,38.4,34.4,36.8,32.2z"/>
		<path class="st12" d="M37,32.2c-1.8-2.4,0.1-4.7,3.3-4.5c2.1,0.1,4.2,1.2,5.5,2.8c1.6,1.8,1.1,3.9-2,4.3
			C41.3,35.1,38.6,34.3,37,32.2z"/>
		<path class="st13" d="M37.2,32.1c-1.8-2.3,0-4.5,3.1-4.3c2.1,0.1,4.1,1.3,5.4,2.7c1.5,1.7,1.1,3.7-1.9,4.1
			C41.4,35,38.7,34.1,37.2,32.1z"/>
		<path class="st14" d="M37.4,32.1c-1.8-2.2,0-4.4,3-4.1c2.1,0.2,4,1.3,5.3,2.7c1.4,1.6,1,3.6-1.9,3.9C41.4,34.8,38.9,34,37.4,32.1z
			"/>
		<path class="st15" d="M37.6,32c-1.8-2.1,0-4.2,2.8-4c2.1,0.2,3.9,1.3,5.1,2.6c1.4,1.5,1,3.4-1.9,3.7C41.4,34.6,39.1,33.8,37.6,32z
			"/>
		<path class="st16" d="M37.8,32c-1.8-2-0.1-4,2.6-3.8c2,0.2,3.9,1.3,5,2.5c1.3,1.4,0.9,3.2-1.9,3.5C41.5,34.4,39.3,33.7,37.8,32z"
			/>
		<path class="st17" d="M38,32c-1.8-1.9-0.1-3.9,2.5-3.6c2,0.2,3.8,1.3,4.8,2.4c1.2,1.3,0.9,3-1.8,3.3C41.5,34.3,39.5,33.6,38,32z"
			/>
		<path class="st18" d="M38.2,31.9c-1.8-1.8-0.2-3.7,2.3-3.4c2,0.2,3.7,1.4,4.7,2.4c1.2,1.3,0.9,2.9-1.8,3.1
			C41.5,34.1,39.7,33.4,38.2,31.9z"/>
		<path class="st19" d="M38.4,31.9c-1.8-1.8-0.2-3.6,2.2-3.3c2,0.3,3.6,1.4,4.5,2.3c1.1,1.2,0.8,2.7-1.8,2.9
			C41.5,33.9,39.9,33.3,38.4,31.9z"/>
		<path class="st20" d="M38.6,31.8c-1.8-1.6-0.2-3.4,2-3.1c2,0.3,3.5,1.4,4.4,2.2c1,1.1,0.8,2.5-1.8,2.7
			C41.6,33.8,40.1,33.2,38.6,31.8z"/>
		<path class="st21" d="M38.8,31.8c-1.8-1.5-0.3-3.2,1.8-2.9c1.9,0.3,3.5,1.4,4.2,2.2c1,1,0.8,2.4-1.7,2.5
			C41.6,33.6,40.3,33,38.8,31.8z"/>
		<path class="st22" d="M39,31.8c-1.8-1.4-0.3-3.1,1.7-2.7c1.9,0.3,3.4,1.4,4.1,2.1c0.9,0.9,0.7,2.2-1.7,2.2
			C41.6,33.4,40.5,32.9,39,31.8z"/>
		<path class="st23" d="M39.2,31.7c-1.8-1.3-0.4-2.9,1.5-2.5s3.3,1.5,3.9,2c0.9,0.8,0.7,2-1.7,2C41.6,33.2,40.6,32.8,39.2,31.7z"/>
	</g>
	<g class="st1">
		<path class="st2" d="M26.3,37.9c1.2-3.6,4.8-4,7.9-0.9c1.7,1.6,2.7,4.2,2.4,7.4c-0.4,3.5-3.1,5.1-6.2,2.9
			C27.5,45.2,25.3,41.2,26.3,37.9z"/>
		<path class="st3" d="M26.5,37.9c1.1-3.5,4.7-3.9,7.7-0.9c1.6,1.6,2.6,4.1,2.3,7.2c-0.3,3.4-3,4.9-6,2.8
			C27.6,45.1,25.5,41.2,26.5,37.9z"/>
		<path class="st4" d="M26.6,38c1-3.4,4.5-3.8,7.5-0.9c1.6,1.6,2.6,4.1,2.3,7.1c-0.3,3.3-2.9,4.8-5.9,2.7
			C27.7,44.9,25.7,41.2,26.6,38z"/>
		<path class="st5" d="M26.8,38.1c1-3.4,4.4-3.7,7.3-0.9c1.6,1.6,2.5,4,2.2,6.9c-0.3,3.1-2.8,4.7-5.7,2.6
			C27.8,44.8,25.9,41.2,26.8,38.1z"/>
		<path class="st6" d="M26.9,38.2c0.9-3.3,4.3-3.6,7.1-0.9c1.6,1.6,2.4,3.9,2.1,6.7c-0.3,3-2.7,4.5-5.5,2.5
			C27.9,44.6,26.1,41.2,26.9,38.2z"/>
		<path class="st7" d="M27,38.2c0.8-3.2,4.2-3.6,6.8-0.9c1.5,1.6,2.3,3.9,2.1,6.5c-0.3,2.9-2.6,4.4-5.4,2.4
			C28,44.5,26.3,41.2,27,38.2z"/>
		<path class="st8" d="M27.2,38.3c0.8-3.2,4.1-3.5,6.6-0.8c1.5,1.6,2.3,3.8,2,6.3c-0.3,2.8-2.5,4.3-5.2,2.3
			C28.2,44.3,26.5,41.2,27.2,38.3z"/>
		<path class="st9" d="M27.3,38.4c0.7-3.1,4-3.4,6.4-0.8c1.5,1.6,2.2,3.7,2,6.1c-0.2,2.7-2.4,4.1-5.1,2.2
			C28.3,44.2,26.7,41.2,27.3,38.4z"/>
		<path class="st10" d="M27.4,38.4c0.6-3,3.8-3.3,6.2-0.8c1.5,1.6,2.1,3.7,1.9,6c-0.2,2.6-2.3,4-4.9,2.1
			C28.4,44,26.9,41.2,27.4,38.4z"/>
		<path class="st11" d="M27.6,38.5c0.6-3,3.7-3.2,5.9-0.8c1.4,1.6,2,3.6,1.8,5.8c-0.2,2.5-2.3,3.9-4.8,2
			C28.5,43.9,27.1,41.2,27.6,38.5z"/>
		<path class="st12" d="M27.7,38.6c0.5-2.9,3.6-3.1,5.7-0.8c1.4,1.6,1.9,3.5,1.8,5.6c-0.2,2.4-2.2,3.7-4.6,1.9
			C28.6,43.7,27.3,41.2,27.7,38.6z"/>
		<path class="st13" d="M27.8,38.6c0.4-2.9,3.5-3,5.5-0.7c1.4,1.6,1.9,3.5,1.7,5.4c-0.2,2.3-2.1,3.6-4.4,1.8
			C28.7,43.6,27.5,41.2,27.8,38.6z"/>
		<path class="st14" d="M28,38.7c0.3-2.8,3.4-3,5.3-0.7c1.3,1.6,1.8,3.4,1.7,5.2c-0.2,2.2-2,3.5-4.3,1.6
			C28.8,43.4,27.7,41.1,28,38.7z"/>
		<path class="st15" d="M28.1,38.8c0.3-2.7,3.2-2.9,5.1-0.7c1.3,1.6,1.7,3.3,1.6,5.1c-0.1,2-1.9,3.3-4.1,1.5
			C28.9,43.3,27.9,41.1,28.1,38.8z"/>
		<path class="st16" d="M28.3,38.9c0.2-2.7,3.1-2.8,4.8-0.7c1.3,1.6,1.6,3.3,1.5,4.9c-0.1,1.9-1.8,3.2-4,1.4
			C29,43.1,28.1,41.1,28.3,38.9z"/>
		<path class="st17" d="M28.4,38.9c0.1-2.6,3-2.7,4.6-0.7c1.3,1.6,1.6,3.2,1.5,4.7c-0.1,1.8-1.7,3.1-3.8,1.3
			C29.2,43,28.3,41.1,28.4,38.9z"/>
		<path class="st18" d="M28.5,39c0.1-2.5,2.9-2.6,4.4-0.6c1.2,1.6,1.5,3.1,1.4,4.5c-0.1,1.7-1.6,3-3.7,1.2
			C29.3,42.9,28.5,41.1,28.5,39z"/>
		<path class="st19" d="M28.7,39.1c0-2.5,2.7-2.5,4.2-0.6c1.2,1.6,1.4,3.1,1.4,4.3c-0.1,1.6-1.6,2.8-3.5,1.1
			C29.4,42.7,28.7,41.1,28.7,39.1z"/>
		<path class="st20" d="M28.8,39.1c-0.1-2.4,2.6-2.4,3.9-0.6c1.2,1.6,1.3,3,1.3,4.1c0,1.5-1.5,2.7-3.3,1
			C29.5,42.6,28.9,41.1,28.8,39.1z"/>
		<path class="st21" d="M28.9,39.2c-0.2-2.4,2.5-2.3,3.7-0.6c1.1,1.6,1.3,2.9,1.2,4c0,1.4-1.4,2.6-3.2,0.9
			C29.6,42.4,29.1,41.1,28.9,39.2z"/>
		<path class="st22" d="M29.1,39.3c-0.2-2.3,2.4-2.2,3.5-0.6c1.1,1.6,1.2,2.8,1.2,3.8c0,1.3-1.3,2.5-3,0.8
			C29.7,42.3,29.3,41.1,29.1,39.3z"/>
		<path class="st23" d="M29.2,39.4c-0.3-2.2,2.2-2.1,3.3-0.5c1.1,1.6,1.1,2.8,1.1,3.6c0,1.2-1.2,2.3-2.9,0.7
			C29.8,42.1,29.5,41.1,29.2,39.4z"/>
	</g>
	<g class="st1">
		<path class="st2" d="M15.7,36.2c3.3-1.9,6.2,0.2,6.5,4.5c0.2,2.3-0.8,4.9-3.2,7.1c-2.6,2.3-5.7,1.7-6.6-1.9
			C11.6,42.4,12.6,38,15.7,36.2z"/>
		<path class="st3" d="M15.7,36.4c3.2-1.8,6.1,0.2,6.3,4.4c0.2,2.3-0.8,4.9-3.2,6.9c-2.5,2.3-5.5,1.7-6.4-1.9
			C11.7,42.4,12.8,38.1,15.7,36.4z"/>
		<path class="st4" d="M15.8,36.5c3-1.8,5.9,0.1,6.2,4.2c0.1,2.2-0.9,4.8-3.1,6.8c-2.5,2.2-5.4,1.7-6.2-1.8
			C11.9,42.3,12.9,38.2,15.8,36.5z"/>
		<path class="st5" d="M15.8,36.6c2.9-1.8,5.7,0.1,6,4c0.1,2.2-0.9,4.7-3,6.6c-2.4,2.1-5.2,1.6-6-1.8C12,42.3,13,38.3,15.8,36.6z"/>
		<path class="st6" d="M15.8,36.8c2.8-1.7,5.5,0,5.8,3.9c0.1,2.2-0.9,4.6-2.9,6.5c-2.3,2.1-5,1.6-5.7-1.8
			C12.2,42.2,13.2,38.4,15.8,36.8z"/>
		<path class="st7" d="M15.8,36.9c2.7-1.7,5.4-0.1,5.6,3.7c0.1,2.2-0.9,4.5-2.9,6.3c-2.2,2-4.8,1.6-5.5-1.7
			C12.4,42.2,13.3,38.5,15.8,36.9z"/>
		<path class="st8" d="M15.9,37c2.6-1.6,5.2-0.1,5.4,3.5c0.1,2.1-0.9,4.5-2.8,6.2c-2.1,1.9-4.7,1.5-5.3-1.7
			C12.5,42.1,13.4,38.6,15.9,37z"/>
		<path class="st9" d="M15.9,37.2c2.5-1.6,5-0.2,5.2,3.4c0.1,2.1-0.9,4.4-2.7,6c-2,1.9-4.5,1.5-5.1-1.7
			C12.7,42.1,13.6,38.6,15.9,37.2z"/>
		<path class="st10" d="M15.9,37.3c2.4-1.5,4.8-0.2,5,3.2c0.1,2.1-0.9,4.3-2.6,5.9c-1.9,1.8-4.3,1.5-4.9-1.7
			C12.8,42,13.7,38.7,15.9,37.3z"/>
		<path class="st11" d="M16,37.4c2.3-1.5,4.6-0.3,4.8,3c0.1,2.1-0.9,4.2-2.6,5.7c-1.8,1.7-4.1,1.4-4.7-1.6C13,42,13.9,38.8,16,37.4z
			"/>
		<path class="st12" d="M16,37.6c2.2-1.5,4.5-0.3,4.6,2.9c0.1,2.1-1,4.1-2.5,5.6c-1.7,1.6-4,1.4-4.5-1.6C13.2,41.9,14,38.9,16,37.6z
			"/>
		<path class="st13" d="M16,37.7c2-1.4,4.3-0.4,4.4,2.7c0.1,2-1,4.1-2.4,5.4c-1.7,1.6-3.8,1.4-4.3-1.6C13.3,41.9,14.1,39,16,37.7z"
			/>
		<path class="st14" d="M16,37.9c1.9-1.4,4.1-0.4,4.2,2.5c0.1,2-1,4-2.3,5.3c-1.6,1.5-3.6,1.3-4.1-1.5C13.5,41.8,14.3,39.1,16,37.9z
			"/>
		<path class="st15" d="M16.1,38c1.8-1.3,3.9-0.5,4,2.3c0.1,2-1,3.9-2.3,5.1c-1.5,1.4-3.4,1.3-3.9-1.5C13.6,41.8,14.4,39.2,16.1,38z
			"/>
		<path class="st16" d="M16.1,38.1c1.7-1.3,3.7-0.5,3.8,2.2c0.1,2-1,3.8-2.2,5c-1.4,1.4-3.3,1.3-3.7-1.5
			C13.8,41.7,14.5,39.3,16.1,38.1z"/>
		<path class="st17" d="M16.1,38.3c1.6-1.3,3.6-0.6,3.6,2c0.1,1.9-1,3.7-2.1,4.8c-1.3,1.3-3.1,1.2-3.5-1.5
			C13.9,41.7,14.7,39.4,16.1,38.3z"/>
		<path class="st18" d="M16.2,38.4c1.5-1.2,3.4-0.6,3.4,1.8c0,1.9-1,3.7-2,4.7c-1.2,1.2-2.9,1.2-3.3-1.4
			C14.1,41.6,14.8,39.5,16.2,38.4z"/>
		<path class="st19" d="M16.2,38.5c1.4-1.2,3.2-0.7,3.2,1.7c0,1.9-1.1,3.6-2,4.5c-1.1,1.1-2.8,1.2-3-1.4
			C14.3,41.6,14.9,39.6,16.2,38.5z"/>
		<path class="st20" d="M16.2,38.7c1.3-1.1,3-0.8,3.1,1.5c0,1.9-1.1,3.5-1.9,4.3c-1,1.1-2.6,1.2-2.8-1.4
			C14.4,41.5,15.1,39.7,16.2,38.7z"/>
		<path class="st21" d="M16.3,38.8c1.2-1.1,2.8-0.8,2.9,1.3c0,1.8-1.1,3.4-1.8,4.2c-1,1-2.4,1.1-2.6-1.3
			C14.6,41.5,15.2,39.8,16.3,38.8z"/>
		<path class="st22" d="M16.3,38.9c1-1,2.7-0.9,2.7,1.2c0,1.8-1.1,3.3-1.7,4c-0.9,0.9-2.3,1.1-2.4-1.3
			C14.7,41.4,15.3,39.9,16.3,38.9z"/>
		<path class="st23" d="M16.3,39.1c0.9-1,2.5-0.9,2.5,1c0,1.8-1.1,3.3-1.6,3.9c-0.8,0.9-2.1,1.1-2.2-1.3
			C14.9,41.4,15.5,40,16.3,39.1z"/>
	</g>
	<g class="st1">
		<path class="st2" d="M9.3,27c3.7,0.6,4.7,3.6,2.2,7.2c-1.3,1.9-4.3,2.8-7.5,3c-3.5,0.2-5.5-2.2-3.9-5.6C1.7,28.3,5.8,26.5,9.3,27z
			"/>
		<path class="st3" d="M9.2,27.1c3.6,0.5,4.6,3.4,2.2,6.9c-1.3,1.8-4.2,2.8-7.4,2.9c-3.4,0.3-5.4-2.1-3.7-5.3
			C1.8,28.4,5.8,26.6,9.2,27.1z"/>
		<path class="st4" d="M9.1,27.2c3.5,0.5,4.5,3.3,2.1,6.6C9.9,35.6,7,36.5,4,36.7c-3.3,0.2-5.2-2-3.6-5.3C2,28.5,5.9,26.8,9.1,27.2z
			"/>
		<path class="st5" d="M9.1,27.3c3.4,0.5,4.4,3.1,2.1,6.4c-1.3,1.8-4.1,2.7-7,2.8c-3.2,0.2-5.1-2-3.5-5.1
			C2.1,28.5,5.9,26.9,9.1,27.3z"/>
		<path class="st6" d="M9,27.4c3.3,0.4,4.3,3,2,6.1c-1.3,1.8-4,2.6-6.8,2.8c-3.1,0.2-4.9-1.9-3.3-5C2.3,28.6,5.9,27,9,27.4z"/>
		<path class="st7" d="M8.9,27.5c3.2,0.4,4.2,2.8,2,5.9c-1.3,1.8-4,2.6-6.6,2.7c-3,0.2-4.8-1.8-3.2-4.8C2.5,28.6,5.9,27.2,8.9,27.5z
			"/>
		<path class="st8" d="M8.8,27.6c3.1,0.4,4.1,2.7,1.9,5.6c-1.3,1.7-3.9,2.5-6.5,2.7c-2.9,0.2-4.6-1.7-3-4.6
			C2.6,28.7,6,27.3,8.8,27.6z"/>
		<path class="st9" d="M8.7,27.7c2.9,0.3,4,2.5,1.9,5.4c-1.3,1.7-3.8,2.5-6.3,2.7c-2.7,0.2-4.4-1.6-2.9-4.5
			C2.8,28.7,6,27.4,8.7,27.7z"/>
		<path class="st10" d="M8.6,27.8c2.8,0.3,3.9,2.4,1.8,5.1c-1.3,1.7-3.8,2.4-6.1,2.6C1.7,35.7,0,34,1.5,31.2
			C2.9,28.8,6,27.6,8.6,27.8z"/>
		<path class="st11" d="M8.6,27.9c2.7,0.2,3.8,2.2,1.8,4.9c-1.2,1.7-3.7,2.4-5.9,2.6c-2.5,0.2-4.1-1.5-2.6-4.2
			C3.1,28.9,6,27.7,8.6,27.9z"/>
		<path class="st12" d="M8.5,28c2.6,0.2,3.7,2.1,1.7,4.6C9,34.2,6.6,35,4.5,35.1c-2.4,0.2-4-1.4-2.5-4C3.2,28.9,6.1,27.8,8.5,28z"/>
		<path class="st13" d="M8.4,28.1c2.5,0.2,3.5,1.9,1.7,4.4c-1.2,1.6-3.6,2.3-5.6,2.5c-2.3,0.2-3.8-1.3-2.3-3.9
			C3.4,29,6.1,28,8.4,28.1z"/>
		<path class="st14" d="M8.3,28.2c2.4,0.1,3.4,1.8,1.6,4.1c-1.2,1.6-3.5,2.3-5.4,2.4c-2.2,0.2-3.7-1.2-2.2-3.7
			C3.6,29,6.1,28.1,8.3,28.2z"/>
		<path class="st15" d="M8.2,28.3c2.3,0.1,3.3,1.6,1.6,3.9c-1.2,1.6-3.4,2.2-5.2,2.4c-2.1,0.2-3.5-1.1-2-3.6
			C3.7,29.1,6.1,28.2,8.2,28.3z"/>
		<path class="st16" d="M8.1,28.4c2.2,0.1,3.2,1.5,1.6,3.6c-1.2,1.6-3.4,2.2-5,2.3c-1.9,0.2-3.4-1-1.9-3.4
			C3.9,29.2,6.2,28.4,8.1,28.4z"/>
		<path class="st17" d="M8.1,28.5c2,0,3.1,1.3,1.5,3.4c-1.2,1.5-3.3,2.1-4.8,2.3c-1.8,0.2-3.2-1-1.8-3.3C4,29.2,6.2,28.5,8.1,28.5z"
			/>
		<path class="st18" d="M8,28.6c1.9,0,3,1.1,1.5,3.1c-1.2,1.5-3.3,2.1-4.7,2.2c-1.7,0.2-3-0.9-1.6-3.1C4.2,29.3,6.2,28.6,8,28.6z"/>
		<path class="st19" d="M7.9,28.7c1.8,0,2.9,1,1.4,2.9c-1.2,1.5-3.2,2-4.5,2.2c-1.6,0.2-2.9-0.8-1.5-3C4.3,29.3,6.2,28.8,7.9,28.7z"
			/>
		<path class="st20" d="M7.8,28.8c1.7-0.1,2.8,0.8,1.4,2.6c-1.2,1.5-3.1,2-4.3,2.1c-1.5,0.2-2.7-0.7-1.3-2.8
			C4.5,29.4,6.3,28.9,7.8,28.8z"/>
		<path class="st21" d="M7.7,28.9c1.6-0.1,2.7,0.7,1.3,2.4c-1.2,1.4-3.1,1.9-4.1,2.1c-1.3,0.2-2.6-0.7-1.1-2.7
			C4.6,29.4,6.3,29,7.7,28.9z"/>
		<path class="st22" d="M7.6,29c1.5-0.2,2.6,0.5,1.3,2.1c-1.2,1.4-3,1.9-3.9,2c-1.3,0.2-2.5-0.6-1-2.5C4.8,29.5,6.3,29.2,7.6,29z"/>
		<path class="st23" d="M7.6,29.1c1.4-0.2,2.5,0.4,1.2,1.9c-1.1,1.4-2.9,1.9-3.8,2c-1.2,0.2-2.3-0.5-0.9-2.4
			C4.9,29.6,6.3,29.3,7.6,29.1z"/>
	</g>
	<g class="st1">
		<path class="st2" d="M36.4,28.3c-3.2-2.9-1.9-6.9,2.8-8.7c2.5-1,5.8-0.8,9,1.1c3.5,2.1,3.9,5.6,0.2,7.8
			C44.8,30.6,39.5,31,36.4,28.3z"/>
		<path class="st3" d="M36.6,28.2c-3.2-2.8-1.9-6.7,2.7-8.4c2.5-0.9,5.7-0.8,8.8,1.1c3.4,2,3.8,5.4,0.1,7.6
			C44.7,30.5,39.6,30.8,36.6,28.2z"/>
		<path class="st4" d="M36.9,28.1c-3.2-2.7-1.9-6.5,2.6-8.2c2.5-0.9,5.6-0.7,8.6,1c3.3,1.9,3.7,5.3,0.1,7.3
			C44.7,30.2,39.8,30.6,36.9,28.1z"/>
		<path class="st5" d="M37.1,27.9c-3.1-2.6-1.9-6.3,2.5-7.9c2.4-0.9,5.6-0.6,8.5,1c3.2,1.8,3.6,5.1,0,7.1
			C44.7,30,39.9,30.3,37.1,27.9z"/>
		<path class="st6" d="M37.3,27.8c-3.1-2.5-1.9-6.2,2.4-7.7c2.4-0.9,5.5-0.6,8.3,1c3.1,1.8,3.4,4.9-0.1,6.9
			C44.6,29.8,40.1,30.1,37.3,27.8z"/>
		<path class="st7" d="M37.5,27.7c-3-2.4-1.8-6,2.3-7.4c2.4-0.8,5.4-0.5,8.1,1c3,1.7,3.3,4.7-0.1,6.6C44.6,29.6,40.2,29.9,37.5,27.7
			z"/>
		<path class="st8" d="M37.7,27.6c-3-2.3-1.8-5.8,2.2-7.2c2.4-0.8,5.3-0.5,7.9,1c2.9,1.6,3.2,4.5-0.2,6.4
			C44.5,29.4,40.4,29.7,37.7,27.6z"/>
		<path class="st9" d="M37.9,27.4c-3-2.2-1.8-5.6,2.1-6.9c2.4-0.8,5.2-0.4,7.7,1c2.8,1.6,3.1,4.4-0.2,6.2
			C44.5,29.2,40.5,29.4,37.9,27.4z"/>
		<path class="st10" d="M38.1,27.3c-2.9-2.1-1.8-5.5,2-6.7c2.4-0.8,5.2-0.4,7.5,0.9c2.6,1.5,3,4.2-0.3,5.9
			C44.5,29,40.7,29.2,38.1,27.3z"/>
		<path class="st11" d="M38.3,27.2c-2.9-2-1.8-5.3,1.9-6.4c2.4-0.7,5.1-0.3,7.3,0.9c2.5,1.4,2.9,4-0.3,5.7
			C44.4,28.8,40.9,29,38.3,27.2z"/>
		<path class="st12" d="M38.5,27.1c-2.9-1.9-1.8-5.1,1.8-6.1c2.3-0.7,5-0.3,7.1,0.9c2.4,1.3,2.8,3.8-0.4,5.5
			C44.4,28.6,41,28.8,38.5,27.1z"/>
		<path class="st13" d="M38.7,27c-2.8-1.8-1.7-4.9,1.7-5.9c2.3-0.7,4.9-0.2,6.9,0.9c2.3,1.3,2.6,3.7-0.5,5.2
			C44.3,28.4,41.2,28.5,38.7,27z"/>
		<path class="st14" d="M38.9,26.8c-2.8-1.7-1.7-4.7,1.6-5.6c2.3-0.6,4.9-0.2,6.8,0.9c2.2,1.2,2.5,3.5-0.5,5
			C44.3,28.2,41.3,28.3,38.9,26.8z"/>
		<path class="st15" d="M39.1,26.7c-2.8-1.6-1.7-4.5,1.5-5.4c2.3-0.6,4.8-0.1,6.6,0.8c2.1,1.1,2.4,3.3-0.6,4.7
			C44.3,28,41.5,28.1,39.1,26.7z"/>
		<path class="st16" d="M39.3,26.6c-2.7-1.5-1.7-4.4,1.4-5.1c2.3-0.6,4.7-0.1,6.4,0.8c2,1,2.3,3.1-0.6,4.5
			C44.2,27.8,41.6,27.9,39.3,26.6z"/>
		<path class="st17" d="M39.5,26.5c-2.7-1.4-1.7-4.2,1.3-4.9c2.3-0.5,4.6,0,6.2,0.8c1.9,1,2.2,3-0.7,4.3
			C44.2,27.6,41.8,27.7,39.5,26.5z"/>
		<path class="st18" d="M39.7,26.4c-2.7-1.3-1.6-4,1.2-4.6c2.3-0.5,4.6,0,6,0.8c1.8,0.9,2.1,2.8-0.7,4
			C44.1,27.4,41.9,27.4,39.7,26.4z"/>
		<path class="st19" d="M39.9,26.2c-2.6-1.2-1.6-3.8,1.1-4.4c2.3-0.5,4.5,0.1,5.8,0.8c1.7,0.8,2,2.6-0.8,3.8
			C44.1,27.3,42.1,27.2,39.9,26.2z"/>
		<path class="st20" d="M40.1,26.1c-2.6-1.1-1.6-3.6,1-4.1c2.2-0.4,4.4,0.2,5.6,0.7c1.6,0.8,1.9,2.4-0.9,3.6
			C44.1,27.1,42.2,27,40.1,26.1z"/>
		<path class="st21" d="M40.3,26c-2.6-1-1.6-3.4,0.9-3.9c2.2-0.4,4.3,0.2,5.4,0.7c1.5,0.7,1.8,2.3-0.9,3.3
			C44,26.9,42.4,26.8,40.3,26z"/>
		<path class="st22" d="M40.5,25.9c-2.5-0.9-1.6-3.2,0.8-3.6c2.2-0.4,4.3,0.3,5.2,0.7c1.3,0.6,1.6,2.1-1,3.1
			C44,26.7,42.5,26.6,40.5,25.9z"/>
		<path class="st23" d="M40.7,25.8c-2.5-0.8-1.5-3,0.7-3.3s4.2,0.3,5.1,0.7c1.2,0.5,1.5,1.9-1,2.9C44,26.5,42.7,26.3,40.7,25.8z"/>
	</g>
	<g class="st1">
		<path class="st2" d="M36,18c-4.4,0-6.1-3.8-3.9-8.3c1.2-2.4,3.7-4.5,7.4-5.2c4-0.8,6.9,2.6,5.6,6.7C43.9,15.2,40.1,18,36,18z"/>
		<path class="st3" d="M36.1,17.8c-4.3,0.1-6-3.7-3.8-8c1.2-2.3,3.7-4.4,7.2-5.1c3.9-0.8,6.7,2.5,5.4,6.5
			C43.7,15.1,40,17.8,36.1,17.8z"/>
		<path class="st4" d="M36.1,17.6c-4.2,0.1-5.8-3.5-3.7-7.8c1.2-2.3,3.7-4.3,7.1-5c3.7-0.8,6.4,2.3,5.2,6.3
			C43.5,14.9,40,17.5,36.1,17.6z"/>
		<path class="st5" d="M36.2,17.4c-4.1,0.2-5.7-3.4-3.6-7.5c1.2-2.3,3.7-4.2,6.9-4.9c3.6-0.8,6.2,2.2,5,6.1
			C43.4,14.7,39.9,17.2,36.2,17.4z"/>
		<path class="st6" d="M36.2,17.1c-4,0.2-5.6-3.3-3.5-7.3c1.2-2.3,3.6-4.1,6.8-4.8c3.5-0.8,6,2.1,4.8,5.9
			C43.2,14.5,39.9,16.9,36.2,17.1z"/>
		<path class="st7" d="M36.3,16.9c-3.9,0.3-5.5-3.2-3.4-7c1.2-2.2,3.6-4,6.6-4.7c3.4-0.7,5.8,2,4.6,5.7C43,14.4,39.9,16.7,36.3,16.9
			z"/>
		<path class="st8" d="M36.4,16.7c-3.8,0.3-5.3-3.1-3.3-6.7c1.2-2.2,3.6-3.9,6.5-4.6c3.2-0.7,5.6,1.9,4.4,5.6
			C42.8,14.2,39.8,16.4,36.4,16.7z"/>
		<path class="st9" d="M36.4,16.5c-3.7,0.4-5.2-2.9-3.2-6.5c1.2-2.2,3.6-3.8,6.3-4.4c3.1-0.7,5.4,1.8,4.1,5.4
			C42.7,14,39.8,16.1,36.4,16.5z"/>
		<path class="st10" d="M36.5,16.2c-3.6,0.4-5-2.8-3.1-6.2c1.2-2.1,3.6-3.7,6.2-4.3c3-0.7,5.2,1.7,3.9,5.2
			C42.5,13.9,39.7,15.9,36.5,16.2z"/>
		<path class="st11" d="M36.6,16c-3.5,0.5-4.9-2.7-3-6c1.2-2.1,3.5-3.6,6-4.2c2.8-0.7,4.9,1.6,3.7,5C42.3,13.7,39.7,15.6,36.6,16z"
			/>
		<path class="st12" d="M36.6,15.8c-3.4,0.5-4.8-2.6-2.9-5.7C34.9,8,37.2,6.5,39.6,6c2.7-0.6,4.7,1.5,3.5,4.8
			C42.1,13.5,39.7,15.3,36.6,15.8z"/>
		<path class="st13" d="M36.7,15.6c-3.3,0.6-4.6-2.5-2.8-5.5c1.3-2,3.5-3.5,5.7-4c2.6-0.6,4.5,1.4,3.3,4.6
			C42,13.4,39.6,15.1,36.7,15.6z"/>
		<path class="st14" d="M36.8,15.3c-3.2,0.6-4.5-2.3-2.7-5.2c1.3-2,3.5-3.4,5.6-3.9c2.4-0.6,4.3,1.3,3.1,4.5
			C41.8,13.2,39.6,14.8,36.8,15.3z"/>
		<path class="st15" d="M36.8,15.1c-3.1,0.7-4.4-2.2-2.6-4.9c1.3-2,3.4-3.3,5.4-3.8c2.3-0.6,4.1,1.2,2.9,4.3
			C41.6,13,39.5,14.5,36.8,15.1z"/>
		<path class="st16" d="M36.9,14.9c-3,0.7-4.2-2.1-2.5-4.7c1.3-2,3.4-3.2,5.3-3.7c2.2-0.6,3.9,1.1,2.7,4.1
			C41.4,12.8,39.5,14.3,36.9,14.9z"/>
		<path class="st17" d="M37,14.7c-2.9,0.8-4.1-2-2.4-4.4c1.3-1.9,3.4-3.1,5.1-3.5c2.1-0.5,3.7,1,2.5,3.9C41.3,12.7,39.5,14,37,14.7z
			"/>
		<path class="st18" d="M37,14.4c-2.8,0.8-3.9-1.8-2.3-4.2c1.3-1.9,3.4-3,5-3.4c1.9-0.5,3.5,0.9,2.3,3.7
			C41.1,12.5,39.4,13.7,37,14.4z"/>
		<path class="st19" d="M37.1,14.2c-2.8,0.9-3.8-1.7-2.2-3.9c1.3-1.9,3.4-2.9,4.8-3.3c1.8-0.5,3.3,0.8,2,3.5
			C40.9,12.3,39.4,13.5,37.1,14.2z"/>
		<path class="st20" d="M37.2,14c-2.7,0.9-3.6-1.6-2.1-3.7c1.4-1.8,3.3-2.8,4.6-3.2c1.7-0.5,3.1,0.7,1.8,3.4
			C40.8,12.2,39.4,13.2,37.2,14z"/>
		<path class="st21" d="M37.2,13.8c-2.6,1-3.5-1.5-2-3.4c1.4-1.8,3.4-2.8,4.5-3.1c1.5-0.5,2.9,0.6,1.6,3.2
			C40.6,12,39.3,13,37.2,13.8z"/>
		<path class="st22" d="M37.3,13.5c-2.5,1.1-3.4-1.3-1.9-3.2c1.4-1.8,3.3-2.7,4.3-3c1.4-0.5,2.7,0.5,1.4,3
			C40.4,11.8,39.3,12.7,37.3,13.5z"/>
		<path class="st23" d="M37.4,13.3c-2.4,1.1-3.2-1.2-1.8-2.9s3.3-2.6,4.2-2.9c1.3-0.4,2.5,0.4,1.2,2.8
			C40.3,11.7,39.2,12.4,37.4,13.3z"/>
	</g>
	<g class="st1">
		<path class="st2" d="M29.6,10.5c-3,3.1-7.8,2-9.6-2.6c-0.9-2.5-0.7-5.7,1.2-8.9c2.1-3.5,7.4-3.4,9.6,0.4C33,3,32.4,7.6,29.6,10.5z
			"/>
		<path class="st3" d="M29.5,10.3c-2.9,3.1-7.5,2-9.3-2.5c-0.9-2.4-0.7-5.6,1.2-8.7c2-3.3,7.1-3.3,9.3,0.4
			C32.7,3,32.1,7.4,29.5,10.3z"/>
		<path class="st4" d="M29.3,10.1c-2.8,3.1-7.3,2-9-2.5c-0.9-2.4-0.6-5.6,1.2-8.5c2-3.2,6.9-3.2,8.9,0.4C32.4,3,31.9,7.3,29.3,10.1z
			"/>
		<path class="st5" d="M29.1,10c-2.7,3-7.1,2-8.7-2.4c-0.8-2.4-0.5-5.5,1.2-8.3c1.9-3.1,6.6-3.1,8.6,0.5C32.1,3,31.6,7.1,29.1,10z"
			/>
		<path class="st6" d="M29,9.8c-2.6,3-6.9,2-8.4-2.3c-0.8-2.4-0.5-5.4,1.1-8.2c1.8-3,6.3-3,8.3,0.5C31.8,3.1,31.3,7,29,9.8z"/>
		<path class="st7" d="M28.8,9.6c-2.5,3-6.7,1.9-8.1-2.2c-0.8-2.4-0.5-5.3,1.1-8c1.7-2.9,6.1-2.9,8,0.5C31.5,3.1,31.1,6.9,28.8,9.6z
			"/>
		<path class="st8" d="M28.7,9.4c-2.4,2.9-6.5,1.9-7.8-2.1C20.1,4.9,20.5,2,22-0.5c1.6-2.8,5.8-2.8,7.6,0.6
			C31.3,3.1,30.8,6.7,28.7,9.4z"/>
		<path class="st9" d="M28.5,9.2c-2.3,2.9-6.2,1.9-7.5-2c-0.7-2.4-0.4-5.2,1.1-7.6c1.6-2.7,5.6-2.7,7.3,0.6
			C31,3.1,30.6,6.6,28.5,9.2z"/>
		<path class="st10" d="M28.3,9c-2.2,2.9-6,1.9-7.2-1.9c-0.7-2.3-0.3-5.1,1-7.4c1.5-2.6,5.3-2.6,7,0.6C30.7,3.1,30.3,6.4,28.3,9z"/>
		<path class="st11" d="M28.2,8.8c-2.1,2.8-5.8,1.8-6.9-1.8c-0.7-2.3-0.3-5,1-7.2c1.5-2.5,5-2.5,6.7,0.7C30.4,3.1,30,6.3,28.2,8.8z"
			/>
		<path class="st12" d="M28,8.6c-2,2.8-5.6,1.8-6.6-1.7c-0.7-2.3-0.2-5,1-7c1.4-2.4,4.8-2.4,6.4,0.7C30.1,3.2,29.8,6.1,28,8.6z"/>
		<path class="st13" d="M27.9,8.4c-1.9,2.8-5.4,1.8-6.3-1.6c-0.6-2.3-0.2-4.9,1-6.9c1.2-2.2,4.4-2.3,6,0.8C29.8,3.2,29.5,6,27.9,8.4
			z"/>
		<path class="st14" d="M27.7,8.2c-1.8,2.7-5.1,1.7-6-1.5c-0.6-2.3-0.1-4.8,0.9-6.6c1.2-2.2,4.3-2.3,5.8,0.8
			C29.6,3.2,29.2,5.9,27.7,8.2z"/>
		<path class="st15" d="M27.6,8.1c-1.6,2.7-4.9,1.7-5.7-1.4c-0.6-2.3-0.1-4.7,0.9-6.5C24-1.9,26.8-2,28.2,1
			C29.3,3.2,29,5.7,27.6,8.1z"/>
		<path class="st16" d="M27.4,7.9c-1.5,2.7-4.7,1.7-5.4-1.3c-0.6-2.3,0-4.7,0.9-6.3c1.1-2,3.7-2.1,5.1,0.8C29,3.2,28.7,5.6,27.4,7.9
			z"/>
		<path class="st17" d="M27.2,7.7c-1.4,2.6-4.5,1.7-5.1-1.2c-0.5-2.3,0-4.6,0.9-6.1c1-1.9,3.5-2,4.8,0.9C28.7,3.2,28.5,5.4,27.2,7.7
			z"/>
		<path class="st18" d="M27.1,7.5c-1.3,2.6-4.2,1.6-4.8-1.2c-0.5-2.2,0.1-4.5,0.9-5.9c0.9-1.7,3.2-1.9,4.5,0.9
			C28.4,3.3,28.2,5.3,27.1,7.5z"/>
		<path class="st19" d="M26.9,7.3c-1.2,2.6-4,1.6-4.5-1.1c-0.5-2.2,0.2-4.4,0.8-5.7c0.9-1.6,3-1.8,4.2,0.9
			C28.2,3.3,27.9,5.1,26.9,7.3z"/>
		<path class="st20" d="M26.8,7.1c-1.1,2.6-3.8,1.6-4.3-1c-0.4-2.2,0.2-4.4,0.8-5.5c0.8-1.5,2.7-1.7,3.8,1C27.9,3.3,27.7,5,26.8,7.1
			z"/>
		<path class="st21" d="M26.6,6.9c-1,2.5-3.5,1.5-4-0.9c-0.4-2.2,0.3-4.3,0.8-5.4c0.7-1.4,2.5-1.7,3.5,1C27.6,3.3,27.4,4.9,26.6,6.9
			z"/>
		<path class="st22" d="M26.4,6.7c-0.9,2.5-3.3,1.5-3.7-0.8c-0.3-2.2,0.3-4.2,0.8-5.2c0.6-1.3,2.2-1.6,3.2,1
			C27.3,3.3,27.2,4.7,26.4,6.7z"/>
		<path class="st23" d="M26.3,6.5C25.5,9,23.2,8,22.9,5.8s0.4-4.1,0.8-5c0.6-1.2,2-1.5,2.9,1.1C27.1,3.3,26.9,4.6,26.3,6.5z"/>
	</g>
	<g class="st1">
		<path class="st2" d="M19.5,15.8c-1,4.2-5.2,4.9-9.1,1.7c-2-1.7-3.5-4.6-3.4-8.3c0.1-4,3.1-6.1,6.8-3.9
			C17.6,7.4,20.5,11.8,19.5,15.8z"/>
		<path class="st3" d="M19.3,15.6c-1,4.1-5,4.9-8.8,1.7c-2-1.7-3.4-4.6-3.3-8.2c0.1-3.9,3-5.9,6.7-3.7C17.4,7.5,20.2,11.8,19.3,15.6
			z"/>
		<path class="st4" d="M19.1,15.5c-0.9,4-4.9,4.8-8.5,1.7c-2-1.7-3.3-4.5-3.2-8c0.1-3.8,2.9-5.7,6.5-3.6
			C17.3,7.7,19.9,11.8,19.1,15.5z"/>
		<path class="st5" d="M18.9,15.4c-0.8,3.9-4.7,4.7-8.2,1.6c-2-1.7-3.2-4.5-3.1-7.8c0.1-3.6,2.8-5.5,6.3-3.4
			C17.1,7.8,19.7,11.8,18.9,15.4z"/>
		<path class="st6" d="M18.7,15.3c-0.8,3.9-4.6,4.6-8,1.6c-1.9-1.7-3.2-4.5-3.1-7.7c0.1-3.5,2.7-5.3,6.1-3.2
			C17,7.9,19.4,11.7,18.7,15.3z"/>
		<path class="st7" d="M18.5,15.2c-0.7,3.8-4.4,4.5-7.7,1.6c-1.9-1.7-3.1-4.4-3-7.5c0.1-3.4,2.6-5.2,5.9-3.1
			C16.8,8.1,19.1,11.7,18.5,15.2z"/>
		<path class="st8" d="M18.3,15.1c-0.6,3.7-4.3,4.4-7.4,1.5C9,14.9,7.9,12.2,8,9.3c0.1-3.3,2.5-5,5.8-2.9
			C16.6,8.2,18.8,11.7,18.3,15.1z"/>
		<path class="st9" d="M18.1,14.9c-0.5,3.6-4.1,4.3-7.1,1.5c-1.8-1.7-2.9-4.3-2.9-7.1c0.1-3.1,2.4-4.8,5.6-2.8
			C16.5,8.3,18.6,11.7,18.1,14.9z"/>
		<path class="st10" d="M17.9,14.8c-0.5,3.6-4,4.2-6.9,1.5c-1.8-1.7-2.8-4.3-2.8-7c0-3,2.3-4.6,5.4-2.6
			C16.3,8.5,18.3,11.6,17.9,14.8z"/>
		<path class="st11" d="M17.7,14.7c-0.4,3.5-3.8,4.1-6.6,1.4c-1.8-1.7-2.7-4.3-2.7-6.8c0-2.9,2.2-4.4,5.2-2.4
			C16.2,8.6,18,11.6,17.7,14.7z"/>
		<path class="st12" d="M17.5,14.6c-0.3,3.4-3.7,4-6.3,1.4c-1.7-1.7-2.6-4.2-2.6-6.6c0-2.7,2.1-4.2,5-2.3
			C16,8.7,17.7,11.6,17.5,14.6z"/>
		<path class="st13" d="M17.3,14.5c-0.2,3.3-3.5,3.9-6,1.4c-1.7-1.7-2.6-4.2-2.6-6.4c0-2.6,2-4,4.9-2.1
			C15.8,8.8,17.5,11.5,17.3,14.5z"/>
		<path class="st14" d="M17,14.3c-0.2,3.2-3.4,3.8-5.8,1.3c-1.7-1.7-2.5-4.1-2.5-6.3c0-2.5,1.9-3.9,4.7-1.9
			C15.7,9,17.2,11.5,17,14.3z"/>
		<path class="st15" d="M16.8,14.2c-0.1,3.2-3.2,3.7-5.5,1.3c-1.6-1.7-2.4-4.1-2.4-6.1c0-2.4,1.8-3.7,4.5-1.8
			C15.5,9.1,16.9,11.5,16.8,14.2z"/>
		<path class="st16" d="M16.6,14.1c0,3.1-3.1,3.5-5.2,1.3c-1.6-1.7-2.3-4.1-2.3-5.9c0-2.2,1.7-3.5,4.3-1.6
			C15.4,9.2,16.7,11.5,16.6,14.1z"/>
		<path class="st17" d="M16.4,14c0.1,3-2.9,3.4-4.9,1.2c-1.6-1.7-2.2-4-2.3-5.7c0-2.1,1.6-3.3,4.1-1.5C15.2,9.4,16.4,11.4,16.4,14z"
			/>
		<path class="st18" d="M16.2,13.9c0.1,2.9-2.7,3.3-4.7,1.2c-1.5-1.7-2.1-4-2.2-5.6c0-2,1.5-3.1,3.9-1.3
			C15.1,9.5,16.1,11.4,16.2,13.9z"/>
		<path class="st19" d="M16,13.8c0.2,2.9-2.6,3.2-4.4,1.2c-1.5-1.7-2.1-3.9-2.1-5.4c-0.1-1.8,1.4-3,3.8-1.1
			C14.9,9.6,15.8,11.4,16,13.8z"/>
		<path class="st20" d="M15.8,13.6c0.3,2.8-2.4,3.1-4.1,1.1c-1.5-1.7-2-3.9-2-5.2c-0.1-1.7,1.3-2.8,3.6-1
			C14.7,9.7,15.6,11.4,15.8,13.6z"/>
		<path class="st21" d="M15.6,13.5c0.4,2.7-2.3,3-3.8,1.1c-1.4-1.7-1.9-3.8-2-5.1C9.7,7.9,11,6.9,13.2,8.7
			C14.6,9.9,15.3,11.3,15.6,13.5z"/>
		<path class="st22" d="M15.4,13.4c0.5,2.6-2.1,2.9-3.6,1.1c-1.4-1.7-1.8-3.8-1.9-4.9C9.8,8.1,11,7.2,13.1,9
			C14.4,10,15,11.3,15.4,13.4z"/>
		<path class="st23" d="M15.2,13.3c0.5,2.5-1.9,2.8-3.3,1c-1.3-1.7-1.7-3.7-1.8-4.7c-0.1-1.3,1-2.3,3-0.5
			C14.3,10.1,14.8,11.3,15.2,13.3z"/>
	</g>
	<g class="st1">
		<path class="st2" d="M9,45c-4.4,0.2-6.3-3.5-4.3-8.1c1-2.4,3.5-4.6,7.1-5.6c3.9-1,7.3,1.5,6.3,5.6S13,44.8,9,45z"/>
		<path class="st3" d="M9,44.8c-4.3,0.3-6.1-3.3-4.2-7.8c1.1-2.4,3.5-4.6,7-5.5c3.8-1,7.1,1.4,6.1,5.5C16.9,40.9,13,44.5,9,44.8z"/>
		<path class="st4" d="M9.1,44.5c-4.2,0.3-6-3.2-4.1-7.6c1.1-2.4,3.4-4.5,6.8-5.4c3.7-1,6.9,1.3,5.8,5.3
			C16.7,40.8,12.9,44.3,9.1,44.5z"/>
		<path class="st5" d="M9.1,44.3c-4.1,0.4-5.9-3.1-4-7.3c1.1-2.3,3.4-4.4,6.7-5.2c3.6-1,6.6,1.3,5.6,5.2C16.5,40.7,12.9,44,9.1,44.3
			z"/>
		<path class="st6" d="M9.2,44.1c-4,0.4-5.7-3-3.9-7.1c1.1-2.3,3.4-4.3,6.5-5.1c3.4-0.9,6.4,1.2,5.4,5.1
			C16.3,40.5,12.8,43.7,9.2,44.1z"/>
		<path class="st7" d="M9.2,43.9c-3.9,0.5-5.6-2.9-3.7-6.8c1.1-2.3,3.4-4.2,6.4-5c3.3-0.9,6.2,1.2,5.1,4.9
			C16.1,40.4,12.8,43.4,9.2,43.9z"/>
		<path class="st8" d="M9.3,43.6c-3.8,0.5-5.5-2.8-3.6-6.6c1.1-2.3,3.4-4.1,6.2-4.9c3.2-0.9,5.9,1.1,4.9,4.8
			C15.9,40.3,12.7,43.2,9.3,43.6z"/>
		<path class="st9" d="M9.3,43.4c-3.7,0.5-5.3-2.7-3.5-6.3c1.1-2.2,3.4-4,6.1-4.8c3.1-0.9,5.7,1.1,4.7,4.7
			C15.7,40.2,12.7,42.9,9.3,43.4z"/>
		<path class="st10" d="M9.4,43.2c-3.6,0.6-5.2-2.6-3.4-6.1c1.1-2.2,3.3-3.9,5.9-4.6c2.9-0.8,5.5,1,4.4,4.5
			C15.5,40,12.6,42.6,9.4,43.2z"/>
		<path class="st11" d="M9.5,43c-3.5,0.6-5-2.4-3.3-5.8c1.1-2.2,3.3-3.8,5.8-4.5c2.8-0.8,5.2,0.9,4.2,4.4
			C15.3,39.9,12.6,42.4,9.5,43z"/>
		<path class="st12" d="M9.5,42.7c-3.4,0.7-4.9-2.3-3.2-5.6c1.1-2.1,3.3-3.7,5.6-4.4c2.7-0.8,5,0.9,3.9,4.2
			C15.1,39.8,12.5,42.1,9.5,42.7z"/>
		<path class="st13" d="M9.6,42.5c-3.3,0.7-4.8-2.2-3.1-5.3c1.2-2.1,3.3-3.6,5.5-4.3c2.5-0.7,4.8,0.8,3.7,4.1
			C14.9,39.7,12.4,41.9,9.6,42.5z"/>
		<path class="st14" d="M9.6,42.3c-3.2,0.8-4.6-2.1-3-5.1c1.2-2.1,3.3-3.5,5.4-4.2c2.4-0.7,4.5,0.8,3.5,4
			C14.7,39.5,12.4,41.6,9.6,42.3z"/>
		<path class="st15" d="M9.7,42c-3.1,0.8-4.5-2-2.8-4.8c1.2-2,3.3-3.5,5.2-4c2.3-0.7,4.3,0.7,3.2,3.8C14.5,39.4,12.3,41.3,9.7,42z"
			/>
		<path class="st16" d="M9.7,41.8c-3,0.9-4.3-1.9-2.7-4.6c1.2-2,3.3-3.4,5.1-3.9c2.2-0.7,4.1,0.7,3,3.7
			C14.3,39.3,12.3,41.1,9.7,41.8z"/>
		<path class="st17" d="M9.8,41.6c-2.9,0.9-4.2-1.7-2.6-4.3c1.2-2,3.2-3.3,4.9-3.8c2-0.6,3.8,0.6,2.8,3.6
			C14.1,39.2,12.2,40.8,9.8,41.6z"/>
		<path class="st18" d="M9.8,41.4c-2.8,1-4-1.6-2.5-4.1c1.2-2,3.2-3.2,4.8-3.7c1.9-0.6,3.6,0.5,2.5,3.4C13.9,39,12.2,40.5,9.8,41.4z
			"/>
		<path class="st19" d="M9.9,41.1c-2.7,1-3.9-1.5-2.4-3.8c1.2-1.9,3.2-3.1,4.6-3.6c1.8-0.6,3.4,0.5,2.3,3.3
			C13.7,38.9,12.1,40.3,9.9,41.1z"/>
		<path class="st20" d="M9.9,40.9c-2.6,1.1-3.7-1.4-2.3-3.6c1.3-1.9,3.2-3,4.5-3.4c1.6-0.6,3.1,0.4,2.1,3.1
			C13.5,38.8,12.1,40,9.9,40.9z"/>
		<path class="st21" d="M10,40.7c-2.5,1.1-3.6-1.3-2.2-3.3c1.3-1.9,3.2-2.9,4.3-3.3c1.5-0.5,2.9,0.4,1.8,3
			C13.3,38.7,12,39.8,10,40.7z"/>
		<path class="st22" d="M10.1,40.4c-2.4,1.2-3.4-1.1-2.1-3c1.3-1.8,3.2-2.8,4.2-3.2c1.4-0.5,2.7,0.3,1.6,2.9
			C13.1,38.6,12,39.5,10.1,40.4z"/>
		<path class="st23" d="M10.1,40.2c-2.3,1.2-3.3-1-2-2.8s3.1-2.7,4-3.1c1.3-0.5,2.5,0.3,1.3,2.7C12.9,38.4,11.9,39.2,10.1,40.2z"/>
	</g>
	<g class="st1">
		<path class="st2" d="M-0.5,29.6c-3.8-2.1-3.5-6.2,0.7-9.1c2.2-1.5,5.4-2.1,9-1c3.9,1.2,5.1,4.6,2,7.6C8.2,29.9,3.1,31.5-0.5,29.6z
			"/>
		<path class="st3" d="M-0.3,29.4c-3.8-2-3.4-6.1,0.6-8.8c2.2-1.5,5.4-2.1,8.8-1c3.8,1.1,5,4.4,1.9,7.3C8.1,29.7,3.2,31.3-0.3,29.4z
			"/>
		<path class="st4" d="M-0.1,29.2c-3.7-1.9-3.4-5.9,0.6-8.6c2.2-1.5,5.3-2,8.7-1c3.7,1.1,4.8,4.3,1.8,7.1C8,29.5,3.3,31-0.1,29.2z"
			/>
		<path class="st5" d="M0,29.1c-3.6-1.8-3.3-5.7,0.6-8.3c2.2-1.4,5.2-1.9,8.5-1c3.5,1,4.7,4.1,1.7,6.9C7.9,29.4,3.4,30.7,0,29.1z"/>
		<path class="st6" d="M0.2,28.9c-3.6-1.7-3.3-5.6,0.5-8C2.9,19.5,5.9,19.1,9,20c3.4,1,4.5,4,1.6,6.7C7.8,29.2,3.5,30.5,0.2,28.9z"
			/>
		<path class="st7" d="M0.4,28.7c-3.5-1.6-3.2-5.4,0.5-7.7C3,19.6,6,19.2,9,20.1c3.3,1,4.4,3.8,1.5,6.5C7.7,29,3.6,30.2,0.4,28.7z"
			/>
		<path class="st8" d="M0.5,28.6c-3.5-1.5-3.1-5.2,0.4-7.5C3,19.8,6,19.4,8.8,20.2c3.2,0.9,4.2,3.7,1.3,6.3
			C7.7,28.8,3.7,30,0.5,28.6z"/>
		<path class="st9" d="M0.7,28.4c-3.4-1.5-3.1-5.1,0.4-7.2c2.1-1.3,5-1.6,7.7-0.9c3,0.9,4,3.5,1.2,6C7.6,28.6,3.8,29.7,0.7,28.4z"/>
		<path class="st10" d="M0.9,28.2c-3.4-1.4-3-4.9,0.4-6.9c2.1-1.3,4.9-1.6,7.5-0.8c2.9,0.8,3.9,3.4,1.1,5.8
			C7.5,28.4,3.9,29.5,0.9,28.2z"/>
		<path class="st11" d="M1,28.1c-3.3-1.3-3-4.7,0.3-6.7c2.1-1.2,4.9-1.5,7.3-0.8c2.8,0.8,3.7,3.2,1,5.6C7.4,28.2,4,29.2,1,28.1z"/>
		<path class="st12" d="M1.2,27.9c-3.2-1.2-2.9-4.5,0.3-6.4c2.1-1.2,4.8-1.4,7.1-0.8c2.7,0.7,3.6,3.1,0.9,5.4
			C7.3,28.1,4.1,29,1.2,27.9z"/>
		<path class="st13" d="M1.4,27.8c-3.2-1.1-2.9-4.4,0.2-6.2c2.1-1.2,4.8-1.4,7-0.8c2.6,0.7,3.4,2.9,0.8,5.2
			C7.2,27.9,4.2,28.7,1.4,27.8z"/>
		<path class="st14" d="M1.5,27.6c-3.1-1-2.8-4.2,0.2-5.8c2.1-1.2,4.7-1.3,6.8-0.7c2.4,0.6,3.3,2.8,0.7,5
			C7.1,27.7,4.3,28.5,1.5,27.6z"/>
		<path class="st15" d="M1.7,27.4c-3.1-0.9-2.7-4,0.2-5.6c2.1-1.1,4.6-1.2,6.6-0.7c2.3,0.6,3.1,2.7,0.6,4.8
			C7.1,27.5,4.4,28.2,1.7,27.4z"/>
		<path class="st16" d="M1.9,27.3c-3-0.8-2.7-3.8,0.1-5.3c2.1-1.1,4.6-1.1,6.4-0.7c2.2,0.6,3,2.5,0.5,4.5C7,27.3,4.4,28,1.9,27.3z"
			/>
		<path class="st17" d="M2,27.1c-3-0.7-2.6-3.7,0.1-5C4.2,21,6.6,21,8.3,21.4c2.1,0.5,2.8,2.4,0.3,4.3C6.9,27.1,4.5,27.7,2,27.1z"/>
		<path class="st18" d="M2.2,26.9c-2.9-0.6-2.5-3.5,0-4.8c2.1-1,4.4-1,6-0.6c1.9,0.5,2.7,2.2,0.2,4.1C6.8,27,4.6,27.5,2.2,26.9z"/>
		<path class="st19" d="M2.4,26.8c-2.8-0.5-2.5-3.3,0-4.5c2.1-1,4.4-0.9,5.8-0.6c1.8,0.4,2.5,2.1,0.1,3.9
			C6.7,26.8,4.7,27.2,2.4,26.8z"/>
		<path class="st20" d="M2.5,26.6c-2.8-0.4-2.4-3.1,0-4.2c2.1-0.9,4.3-0.9,5.6-0.6c1.7,0.4,2.4,1.9,0,3.7C6.6,26.6,4.8,27,2.5,26.6z
			"/>
		<path class="st21" d="M2.7,26.4c-2.7-0.3-2.3-2.9-0.1-3.9c2.1-0.9,4.3-0.8,5.5-0.6c1.6,0.3,2.2,1.8-0.1,3.5
			C6.5,26.4,4.9,26.7,2.7,26.4z"/>
		<path class="st22" d="M2.9,26.3c-2.7-0.3-2.3-2.8-0.1-3.7c2.1-0.9,4.2-0.7,5.3-0.5c1.5,0.3,2.1,1.7-0.2,3.2
			C6.5,26.2,5,26.5,2.9,26.3z"/>
		<path class="st23" d="M3.1,26.1c-2.6-0.1-2.2-2.6-0.2-3.4C5,21.9,7,22,8,22.2c1.3,0.2,2,1.5-0.3,3C6.4,26.1,5.1,26.2,3.1,26.1z"/>
	</g>
	<g class="st1">
		<path class="st2" d="M30.9,37.7c-0.7-4.3,2.8-6.5,7.7-5.1c2.5,0.8,5,2.9,6.4,6.4c1.5,3.8-0.5,6.8-4.8,6.2
			C36,44.7,31.6,41.7,30.9,37.7z"/>
		<path class="st3" d="M31.1,37.8c-0.7-4.2,2.7-6.4,7.5-5c2.5,0.8,4.9,2.9,6.2,6.3c1.4,3.7-0.4,6.6-4.7,6
			C36.1,44.5,31.8,41.6,31.1,37.8z"/>
		<path class="st4" d="M31.3,37.8c-0.8-4.1,2.7-6.3,7.2-4.8c2.5,0.8,4.8,2.9,6.1,6.2c1.3,3.5-0.4,6.3-4.5,5.8
			C36.1,44.3,32,41.5,31.3,37.8z"/>
		<path class="st5" d="M31.5,37.8c-0.8-4,2.6-6.2,7-4.7c2.5,0.8,4.7,2.9,5.9,6c1.3,3.4-0.3,6.1-4.4,5.6
			C36.2,44.1,32.2,41.4,31.5,37.8z"/>
		<path class="st6" d="M31.7,37.8c-0.8-3.9,2.5-6.1,6.8-4.6c2.4,0.8,4.6,2.8,5.8,5.9c1.2,3.3-0.3,5.9-4.3,5.3
			C36.3,43.9,32.5,41.3,31.7,37.8z"/>
		<path class="st7" d="M31.9,37.8c-0.9-3.8,2.4-6,6.5-4.5c2.4,0.8,4.5,2.8,5.6,5.8c1.2,3.2-0.2,5.7-4.2,5.1
			C36.4,43.7,32.7,41.2,31.9,37.8z"/>
		<path class="st8" d="M32.1,37.8c-0.9-3.7,2.3-5.8,6.3-4.4c2.4,0.8,4.4,2.8,5.5,5.7c1.1,3.1-0.2,5.5-4,4.9
			C36.4,43.5,32.9,41.1,32.1,37.8z"/>
		<path class="st9" d="M32.3,37.8c-0.9-3.6,2.2-5.7,6.1-4.3c2.4,0.9,4.3,2.8,5.3,5.5c1.1,3-0.1,5.2-3.9,4.7
			C36.5,43.2,33.1,41,32.3,37.8z"/>
		<path class="st10" d="M32.5,37.8c-1-3.5,2.1-5.6,5.8-4.2c2.3,0.9,4.2,2.7,5.2,5.4c1,2.8-0.1,5-3.8,4.5
			C36.6,43,33.4,40.9,32.5,37.8z"/>
		<path class="st11" d="M32.7,37.8c-1-3.4,2-5.5,5.6-4.1c2.3,0.9,4.1,2.7,5,5.3c0.9,2.7,0,4.8-3.6,4.3
			C36.7,42.8,33.6,40.8,32.7,37.8z"/>
		<path class="st12" d="M32.9,37.8c-1-3.3,2-5.4,5.4-4c2.3,0.9,4,2.7,4.9,5.2c0.9,2.6,0,4.6-3.5,4.1C36.8,42.6,33.8,40.7,32.9,37.8z
			"/>
		<path class="st13" d="M33.1,37.8c-1.1-3.2,1.9-5.2,5.2-3.9c2.2,0.9,3.9,2.7,4.7,5c0.8,2.5,0.1,4.3-3.4,3.8
			C36.8,42.4,34,40.6,33.1,37.8z"/>
		<path class="st14" d="M33.3,37.8c-1.1-3.1,1.8-5.1,4.9-3.8c2.2,0.9,3.8,2.6,4.6,4.9c0.8,2.4,0.1,4.1-3.3,3.6
			C36.9,42.2,34.3,40.5,33.3,37.8z"/>
		<path class="st15" d="M33.5,37.8c-1.2-3,1.7-5,4.7-3.7c2.2,0.9,3.7,2.6,4.4,4.8c0.7,2.3,0.2,3.9-3.1,3.4
			C37,42,34.5,40.4,33.5,37.8z"/>
		<path class="st16" d="M33.7,37.8c-1.2-2.9,1.6-4.9,4.5-3.6c2.2,1,3.6,2.6,4.3,4.6c0.7,2.1,0.2,3.7-3,3.2
			C37.1,41.8,34.7,40.3,33.7,37.8z"/>
		<path class="st17" d="M33.9,37.8c-1.2-2.8,1.5-4.7,4.2-3.5c2.1,1,3.5,2.6,4.1,4.5c0.6,2,0.3,3.4-2.9,3
			C37.2,41.6,34.9,40.2,33.9,37.8z"/>
		<path class="st18" d="M34.1,37.8c-1.3-2.7,1.4-4.6,4-3.4c2.1,1,3.4,2.5,4,4.4c0.5,1.9,0.3,3.2-2.7,2.8
			C37.2,41.4,35.1,40.1,34.1,37.8z"/>
		<path class="st19" d="M34.3,37.9c-1.3-2.5,1.3-4.5,3.8-3.3c2.1,1,3.3,2.5,3.8,4.3s0.4,3-2.6,2.6C37.3,41.1,35.4,40,34.3,37.9z"/>
		<path class="st20" d="M34.5,37.9c-1.4-2.4,1.2-4.3,3.5-3.2c2,1,3.2,2.5,3.7,4.1c0.4,1.7,0.4,2.8-2.5,2.3
			C37.4,40.9,35.6,39.9,34.5,37.9z"/>
		<path class="st21" d="M34.7,37.9c-1.4-2.3,1.1-4.2,3.3-3.1c2,1.1,3.1,2.5,3.5,4s0.5,2.6-2.4,2.1C37.5,40.7,35.8,39.8,34.7,37.9z"
			/>
		<path class="st22" d="M34.8,37.9c-1.4-2.2,1-4.1,3.1-2.9c2,1.1,3,2.4,3.3,3.9c0.3,1.4,0.6,2.3-2.2,1.9
			C37.6,40.5,36,39.7,34.8,37.9z"/>
		<path class="st23" d="M35,37.9c-1.5-2.1,0.9-4,2.9-2.8c1.9,1.1,2.9,2.4,3.2,3.8c0.3,1.3,0.6,2.1-2.1,1.7
			C37.6,40.3,36.2,39.6,35,37.9z"/>
	</g>
	<g class="st1">
		<path class="st24" d="M28.6,36.9c-3.1-3-7-1.5-8.6,3.2c-0.8,2.5-0.5,5.7,1.5,8.8c2.3,3.4,5.9,3.6,7.9-0.2
			C31.4,45.1,31.5,39.8,28.6,36.9z"/>
		<path class="st25" d="M28.5,37.1c-3-3-6.9-1.5-8.4,3.1c-0.8,2.5-0.5,5.7,1.5,8.7c2.2,3.3,5.7,3.5,7.6-0.2
			C31.2,45,31.3,39.9,28.5,37.1z"/>
		<path class="st26" d="M28.4,37.3c-2.9-3-6.7-1.5-8.2,3c-0.8,2.5-0.4,5.6,1.5,8.5c2.1,3.1,5.4,3.4,7.4-0.3
			C30.9,44.9,31.1,40,28.4,37.3z"/>
		<path class="st27" d="M28.3,37.4c-2.8-2.9-6.6-1.6-8,2.8c-0.8,2.4-0.4,5.5,1.5,8.3c2.1,3,5.2,3.3,7.1-0.3
			C30.7,44.9,30.8,40.1,28.3,37.4z"/>
		<path class="st28" d="M28.2,37.6c-2.7-2.9-6.4-1.6-7.8,2.7c-0.7,2.4-0.4,5.4,1.5,8.1c2,2.9,5,3.2,6.9-0.3
			C30.5,44.8,30.6,40.3,28.2,37.6z"/>
		<path class="st29" d="M28,37.7c-2.6-2.9-6.3-1.6-7.5,2.6c-0.7,2.4-0.3,5.3,1.5,7.9c1.9,2.8,4.8,3.1,6.6-0.3
			C30.3,44.8,30.4,40.4,28,37.7z"/>
		<path class="st30" d="M27.9,37.9c-2.5-2.8-6.2-1.6-7.3,2.5c-0.7,2.4-0.3,5.2,1.5,7.7c1.9,2.7,4.6,3,6.4-0.4
			C30.1,44.7,30.2,40.5,27.9,37.9z"/>
		<path class="st31" d="M27.8,38.1c-2.4-2.8-6-1.6-7.1,2.3c-0.7,2.4-0.3,5.1,1.4,7.5c1.8,2.6,4.4,3,6.1-0.4
			C29.8,44.6,30,40.6,27.8,38.1z"/>
		<path class="st32" d="M27.7,38.2c-2.3-2.8-5.9-1.6-6.9,2.2c-0.6,2.4-0.2,5,1.4,7.3c1.7,2.5,4.2,2.9,5.9-0.4
			C29.6,44.6,29.8,40.7,27.7,38.2z"/>
		<path class="st33" d="M27.6,38.4c-2.2-2.8-5.7-1.6-6.7,2.1c-0.6,2.4-0.2,4.9,1.4,7.1c1.7,2.3,3.9,2.8,5.6-0.4
			C29.4,44.5,29.5,40.9,27.6,38.4z"/>
		<path class="st34" d="M27.5,38.5c-2.1-2.7-5.5-1.6-6.4,2c-0.6,2.3-0.1,4.8,1.4,6.9c1.6,2.2,3.7,2.7,5.4-0.4
			C29.2,44.5,29.3,41,27.5,38.5z"/>
		<path class="st13" d="M26.6,38.6c-2-2.7-4.6-1.5-5.4,2c-0.6,2.3-0.1,4.7,1.4,6.7c1.6,1.6,3,1.4,4.6-1.2
			C28.5,43.7,28.3,41,26.6,38.6z"/>
		<path class="st35" d="M27.3,38.9c-1.9-2.7-5.2-1.6-6,1.7c-0.5,2.3-0.1,4.6,1.4,6.5c1.5,2,3.3,2.5,4.9-0.5
			C28.7,44.3,28.9,41.2,27.3,38.9z"/>
		<path class="st36" d="M27.2,39c-1.8-2.6-5.1-1.6-5.8,1.6c-0.5,2.3,0,4.5,1.4,6.3c1.4,1.9,3.1,2.4,4.6-0.5
			C28.5,44.3,28.7,41.3,27.2,39z"/>
		<path class="st37" d="M27.1,39.2c-1.6-2.6-4.9-1.6-5.5,1.5c-0.5,2.3,0,4.4,1.3,6.1c1.4,1.8,2.9,2.3,4.4-0.5
			C28.3,44.2,28.5,41.4,27.1,39.2z"/>
		<path class="st17" d="M26.6,39.3c-1.5-2.6-4.8-1.6-5.3,1.4c-0.4,2.3,0.1,4.3,1.3,5.9c1.3,1.7,2.7,2.2,4.1-0.6
			C27.7,44.1,27.9,41.5,26.6,39.3z"/>
		<path class="st18" d="M26.1,39.8c-1.4-2.6-4.6-1.6-5.1,1.2c-0.4,2.3,0.1,4.2,1.3,5.7c1.2,1.5,2.4,2.2,3.9-0.6
			C27.2,44.4,27.4,42,26.1,39.8z"/>
		<path class="st19" d="M26.6,39.2c-1.3-2.5-4.4-1.6-4.9,1.1c-0.4,2.2,0.1,4.1,1.3,5.5c1.2,1.4,2.2,2.1,3.6-0.6
			C27.6,43.5,27.7,41.3,26.6,39.2z"/>
		<path class="st38" d="M26.6,39.8c-1.2-2.5-4.3-1.6-4.7,1c-0.3,2.2,0.2,4,1.3,5.4c1.1,1.3,2,2,3.4-0.6C27.4,44,27.6,41.9,26.6,39.8
			z"/>
		<path class="st39" d="M26.5,40c-1.1-2.5-4.1-1.6-4.4,0.9c-0.3,2.2,0.2,3.9,1.3,5.2c1.1,1.2,1.8,1.9,3.1-0.6
			C27.2,43.9,27.4,42,26.5,40z"/>
		<path class="st40" d="M26.4,40.2c-1-2.5-4-1.6-4.2,0.8c-0.3,2.2,0.2,3.9,1.2,5s1.6,1.8,2.9-0.7C27,43.9,27.2,42.1,26.4,40.2z"/>
		<path class="st41" d="M26.3,40.3c-0.9-2.4-3.8-1.6-4,0.6c-0.2,2.2,0.3,3.8,1.2,4.8c0.9,1,1.4,1.7,2.6-0.7
			C26.8,43.8,27,42.2,26.3,40.3z"/>
	</g>
</g>
<g>
	<path class="st42" d="M26.2,6.1c0,2.8-2.7,5-2.7,5s-2.7-2.3-2.7-5s2.7-5,2.7-5S26.2,3.4,26.2,6.1z"/>
	<path class="st42" d="M26.2,41.3c0,2.8-2.7,5-2.7,5s-2.7-2.3-2.7-5c0-2.8,2.7-5,2.7-5S26.2,38.5,26.2,41.3z"/>
	<path class="st42" d="M5.2,21.2c2.9,0,5.2,2.6,5.2,2.6s-2.3,2.6-5.2,2.6S0,23.8,0,23.8S2.3,21.2,5.2,21.2z"/>
	<path class="st42" d="M41.8,21.2c2.9,0,5.2,2.6,5.2,2.6s-2.3,2.6-5.2,2.6c-2.9,0-5.2-2.6-5.2-2.6S38.9,21.2,41.8,21.2z"/>
	<path class="st42" d="M8.6,34.3c2-2,5.6-1.7,5.6-1.7s0.3,3.4-1.9,5.4c-2,2-5.6,1.7-5.6,1.7S6.6,36.3,8.6,34.3z"/>
	<path class="st42" d="M34.5,9.5c2-2,5.6-1.7,5.6-1.7s0.3,3.4-1.9,5.4c-2,2-5.6,1.7-5.6,1.7S32.5,11.4,34.5,9.5z"/>
	<path class="st42" d="M34.5,38c-2-2-1.9-5.4-1.9-5.4s3.5-0.2,5.6,1.7c2,2,1.9,5.4,1.9,5.4S36.6,39.9,34.5,38z"/>
	<path class="st42" d="M8.6,13.2c-2-2-1.8-5.4-1.8-5.4s3.5-0.2,5.6,1.7c2,2,1.9,5.4,1.9,5.4S10.7,15.1,8.6,13.2z"/>
</g>
<g>
	<path class="st42" d="M39.5,32.4c-2.1-0.9-3.1-3.4-3.1-3.4s2.5-1.2,4.7-0.4c2.1,0.8,3.1,3.4,3.1,3.4S41.7,33.2,39.5,32.4z"/>
	<path class="st42" d="M5.8,18.9c-2.1-0.8-3.1-3.4-3.1-3.4s2.6-1.2,4.7-0.4s3.1,3.4,3.1,3.4S7.9,19.7,5.8,18.9z"/>
	<path class="st42" d="M18.5,6.8c0.9,2.1-0.4,4.5-0.4,4.5s-2.7-0.9-3.6-3c-0.9-2.1,0.4-4.5,0.4-4.5S17.5,4.7,18.5,6.8z"/>
	<path class="st42" d="M32.5,39.2c0.9,2.1-0.4,4.5-0.4,4.5s-2.7-0.9-3.6-2.9c-0.9-2.1,0.4-4.5,0.4-4.5S31.6,37.1,32.5,39.2z"/>
	<path class="st42" d="M5.8,28.6c2.1-0.8,4.7,0.4,4.7,0.4s-0.9,2.6-3.1,3.4C5.3,33.2,2.7,32,2.7,32S3.6,29.4,5.8,28.6z"/>
	<path class="st42" d="M39.5,15.1c2.1-0.8,4.7,0.4,4.7,0.4s-0.9,2.6-3.1,3.4s-4.7-0.4-4.7-0.4S37.4,16,39.5,15.1z"/>
	<path class="st42" d="M14.5,39.2c0.9-2.1,3.6-3,3.6-3s1.3,2.4,0.4,4.5s-3.6,2.9-3.6,2.9S13.6,41.2,14.5,39.2z"/>
	<path class="st42" d="M28.5,6.8c0.9-2.1,3.6-3,3.6-3s1.3,2.4,0.4,4.5c-0.9,2.1-3.6,3-3.6,3S27.7,8.7,28.5,6.8z"/>
</g>
<g>
	
		<linearGradient id="SVGID_1_" gradientUnits="userSpaceOnUse" x1="21.8045" y1="3.333" x2="26.8586" y2="8.3871" gradientTransform="matrix(1 0 0 1 0 -1.144409e-05)">
		<stop  offset="0" style="stop-color:#FFD45E"/>
		<stop  offset="1" style="stop-color:#F59B1B"/>
	</linearGradient>
	<path class="st43" d="M27,5.9c0,2.8-2.7,5-2.7,5s-2.7-2.3-2.7-5s2.7-5,2.7-5S27,3.1,27,5.9z"/>
	
		<linearGradient id="SVGID_00000060752436507648078080000015723592525615212690_" gradientUnits="userSpaceOnUse" x1="21.7867" y1="38.4839" x2="26.8396" y2="43.5368" gradientTransform="matrix(1 0 0 1 0 -1.144409e-05)">
		<stop  offset="0" style="stop-color:#FFD45E"/>
		<stop  offset="1" style="stop-color:#F59B1B"/>
	</linearGradient>
	<path style="fill:url(#SVGID_00000060752436507648078080000015723592525615212690_);" d="M27,41c0,2.8-2.7,5-2.7,5s-2.7-2.3-2.7-5
		c0-2.8,2.7-5,2.7-5S27,38.2,27,41z"/>
	
		<linearGradient id="SVGID_00000060742839658325135670000009413418414286217137_" gradientUnits="userSpaceOnUse" x1="2272.5664" y1="157.5712" x2="2267.3242" y2="162.8134" gradientTransform="matrix(0 -1 1 0 -154.1665 2293.3735)">
		<stop  offset="0" style="stop-color:#FFD45E"/>
		<stop  offset="1" style="stop-color:#F59B1B"/>
	</linearGradient>
	<path style="fill:url(#SVGID_00000060742839658325135670000009413418414286217137_);" d="M6,20.8c2.9,0,5.2,2.6,5.2,2.6
		S8.9,26.1,6,26.1s-5.2-2.6-5.2-2.6S3.2,20.8,6,20.8z"/>
	
		<linearGradient id="SVGID_00000042004972558853448650000008078111058189357743_" gradientUnits="userSpaceOnUse" x1="2272.5996" y1="194.2098" x2="2267.3584" y2="199.4512" gradientTransform="matrix(0 -1 1 0 -154.1665 2293.3735)">
		<stop  offset="0" style="stop-color:#FFD45E"/>
		<stop  offset="1" style="stop-color:#F59B1B"/>
	</linearGradient>
	<path style="fill:url(#SVGID_00000042004972558853448650000008078111058189357743_);" d="M42.7,20.8c2.9,0,5.2,2.6,5.2,2.6
		s-2.3,2.6-5.2,2.6c-2.9,0-5.2-2.6-5.2-2.6S39.8,20.8,42.7,20.8z"/>
	
		<linearGradient id="SVGID_00000060743099626334838410000014387675977583794843_" gradientUnits="userSpaceOnUse" x1="2660.5891" y1="1315.6074" x2="2655.3357" y2="1315.6074" gradientTransform="matrix(-0.7071 -0.7071 0.7071 -0.7071 960.5901 2845.5388)">
		<stop  offset="0" style="stop-color:#FFD45E"/>
		<stop  offset="1" style="stop-color:#F59B1B"/>
	</linearGradient>
	<path style="fill:url(#SVGID_00000060743099626334838410000014387675977583794843_);" d="M9.6,34c2-2,5.6-1.7,5.6-1.7
		s0.3,3.4-1.9,5.4c-2,2-5.6,1.7-5.6,1.7S7.5,36,9.6,34z"/>
	
		<linearGradient id="SVGID_00000137818160160772757720000003933720141117898630_" gradientUnits="userSpaceOnUse" x1="2659.8545" y1="1351.4586" x2="2654.6016" y2="1351.4586" gradientTransform="matrix(-0.7071 -0.7071 0.7071 -0.7071 960.5901 2845.5388)">
		<stop  offset="0" style="stop-color:#FFD45E"/>
		<stop  offset="1" style="stop-color:#F59B1B"/>
	</linearGradient>
	<path style="fill:url(#SVGID_00000137818160160772757720000003933720141117898630_);" d="M35.5,9.2c2-2,5.6-1.7,5.6-1.7
		s0.3,3.4-1.9,5.4c-2,2-5.6,1.7-5.6,1.7S33.3,11.2,35.5,9.2z"/>
	
		<linearGradient id="SVGID_00000047738982175112661380000002826112184490937728_" gradientUnits="userSpaceOnUse" x1="959.6288" y1="2798.9629" x2="959.6288" y2="2788.6929" gradientTransform="matrix(-0.7071 0.7071 -0.7071 -0.7071 2691.373 1332.7805)">
		<stop  offset="0" style="stop-color:#FFD45E"/>
		<stop  offset="1" style="stop-color:#F59B1B"/>
	</linearGradient>
	<path style="fill:url(#SVGID_00000047738982175112661380000002826112184490937728_);" d="M35.5,37.7c-2-2-1.9-5.4-1.9-5.4
		s3.5-0.3,5.6,1.7c2,2,1.9,5.4,1.9,5.4S37.5,39.7,35.5,37.7z"/>
	
		<linearGradient id="SVGID_00000033335960806532823740000004335611211598350225_" gradientUnits="userSpaceOnUse" x1="960.3457" y1="2834.8325" x2="960.3457" y2="2824.5618" gradientTransform="matrix(-0.7071 0.7071 -0.7071 -0.7071 2691.373 1332.7805)">
		<stop  offset="0" style="stop-color:#FFD45E"/>
		<stop  offset="1" style="stop-color:#F59B1B"/>
	</linearGradient>
	<path style="fill:url(#SVGID_00000033335960806532823740000004335611211598350225_);" d="M9.6,12.8c-2-2-1.9-5.4-1.9-5.4
		s3.5-0.2,5.6,1.7c2,2,1.9,5.4,1.9,5.4S11.6,14.8,9.6,12.8z"/>
</g>
<g>
	
		<linearGradient id="SVGID_00000081641667877434214770000008347821409202954655_" gradientUnits="userSpaceOnUse" x1="37.9891" y1="27.345" x2="43.4019" y2="32.7577" gradientTransform="matrix(1 0 0 1 0 -1.144409e-05)">
		<stop  offset="0" style="stop-color:#FBBA37"/>
		<stop  offset="1" style="stop-color:#F59B1B"/>
	</linearGradient>
	<path style="fill:url(#SVGID_00000081641667877434214770000008347821409202954655_);" d="M39.8,31.9c-2.1-0.8-3.1-3.4-3.1-3.4
		s2.6-1.2,4.7-0.4c2.1,0.8,3.1,3.4,3.1,3.4S42,32.8,39.8,31.9z"/>
	
		<linearGradient id="SVGID_00000044170775464260866470000000031585276409757863_" gradientUnits="userSpaceOnUse" x1="4.1827" y1="13.8961" x2="9.5954" y2="19.3088" gradientTransform="matrix(1 0 0 1 0 -1.144409e-05)">
		<stop  offset="0" style="stop-color:#FBBA37"/>
		<stop  offset="1" style="stop-color:#F59B1B"/>
	</linearGradient>
	<path style="fill:url(#SVGID_00000044170775464260866470000000031585276409757863_);" d="M6,18.5C3.9,17.7,3,15.1,3,15.1
		s2.6-1.2,4.7-0.4c2.1,0.8,3.1,3.4,3.1,3.4S8.2,19.4,6,18.5z"/>
	
		<linearGradient id="SVGID_00000088822271258774075720000009048813704915064230_" gradientUnits="userSpaceOnUse" x1="14.0715" y1="4.4842" x2="19.3934" y2="9.8061" gradientTransform="matrix(1 0 0 1 0 -1.144409e-05)">
		<stop  offset="0" style="stop-color:#FBBA37"/>
		<stop  offset="1" style="stop-color:#F59B1B"/>
	</linearGradient>
	<path style="fill:url(#SVGID_00000088822271258774075720000009048813704915064230_);" d="M18.7,6.3c0.9,2.1-0.4,4.5-0.4,4.5
		s-2.7-0.9-3.6-2.9C13.7,5.9,15,3.4,15,3.4S17.8,4.2,18.7,6.3z"/>
	
		<linearGradient id="SVGID_00000041282904451677136590000008647032116629135026_" gradientUnits="userSpaceOnUse" x1="28.0973" y1="36.9276" x2="33.4195" y2="42.2498" gradientTransform="matrix(1 0 0 1 0 -1.144409e-05)">
		<stop  offset="0" style="stop-color:#FBBA37"/>
		<stop  offset="1" style="stop-color:#F59B1B"/>
	</linearGradient>
	<path style="fill:url(#SVGID_00000041282904451677136590000008647032116629135026_);" d="M32.7,38.8c0.9,2.1-0.4,4.5-0.4,4.5
		s-2.7-0.9-3.6-3c-0.9-2.1,0.4-4.5,0.4-4.5S31.8,36.7,32.7,38.8z"/>
	
		<linearGradient id="SVGID_00000050665197310020746040000013828243880518820006_" gradientUnits="userSpaceOnUse" x1="5.285" y1="28.4347" x2="8.4933" y2="31.6429" gradientTransform="matrix(1 0 0 1 0 -1.144409e-05)">
		<stop  offset="0" style="stop-color:#FBBA37"/>
		<stop  offset="1" style="stop-color:#F59B1B"/>
	</linearGradient>
	<path style="fill:url(#SVGID_00000050665197310020746040000013828243880518820006_);" d="M6,28.1c2.1-0.8,4.7,0.4,4.7,0.4
		s-0.9,2.6-3.1,3.4S3,31.6,3,31.6S3.9,29,6,28.1z"/>
	
		<linearGradient id="SVGID_00000021805377647377420330000016899234076960385188_" gradientUnits="userSpaceOnUse" x1="39.0871" y1="15.0067" x2="42.2951" y2="18.2147" gradientTransform="matrix(1 0 0 1 0 -1.144409e-05)">
		<stop  offset="0" style="stop-color:#FBBA37"/>
		<stop  offset="1" style="stop-color:#F59B1B"/>
	</linearGradient>
	<path style="fill:url(#SVGID_00000021805377647377420330000016899234076960385188_);" d="M39.8,14.7c2.1-0.8,4.7,0.4,4.7,0.4
		s-0.9,2.6-3.1,3.4s-4.7-0.4-4.7-0.4S37.7,15.6,39.8,14.7z"/>
	
		<linearGradient id="SVGID_00000155104144006043066530000014775013840334687158_" gradientUnits="userSpaceOnUse" x1="15.158" y1="38.0239" x2="18.3148" y2="41.1808" gradientTransform="matrix(1 0 0 1 0 -1.144409e-05)">
		<stop  offset="0" style="stop-color:#FBBA37"/>
		<stop  offset="1" style="stop-color:#F59B1B"/>
	</linearGradient>
	<path style="fill:url(#SVGID_00000155104144006043066530000014775013840334687158_);" d="M14.8,38.8c0.9-2.1,3.6-2.9,3.6-2.9
		s1.3,2.4,0.4,4.5c-0.9,2.1-3.6,3-3.6,3S13.8,40.8,14.8,38.8z"/>
	
		<linearGradient id="SVGID_00000039115547612505268950000017324222269251314849_" gradientUnits="userSpaceOnUse" x1="29.196" y1="5.5347" x2="32.3546" y2="8.6931" gradientTransform="matrix(1 0 0 1 0 -1.144409e-05)">
		<stop  offset="0" style="stop-color:#FBBA37"/>
		<stop  offset="1" style="stop-color:#F59B1B"/>
	</linearGradient>
	<path style="fill:url(#SVGID_00000039115547612505268950000017324222269251314849_);" d="M28.8,6.3c0.9-2.1,3.6-2.9,3.6-2.9
		s1.3,2.4,0.4,4.5c-0.9,2.1-3.6,2.9-3.6,2.9S27.9,8.4,28.8,6.3z"/>
</g>
<path class="st42" d="M38.4,23.7c0,7.9-6.7,14.3-14.9,14.3S8.5,31.6,8.5,23.7S15.2,9.4,23.5,9.4S38.4,15.9,38.4,23.7z"/>
<linearGradient id="SVGID_00000112611811925981329570000010189229023721207699_" gradientUnits="userSpaceOnUse" x1="13.4991" y1="13.4369" x2="34.18" y2="34.1177" gradientTransform="matrix(1 0 0 1 0 -1.144409e-05)">
	<stop  offset="0" style="stop-color:#FFD45E"/>
	<stop  offset="1" style="stop-color:#F59B1B"/>
</linearGradient>
<path style="fill:url(#SVGID_00000112611811925981329570000010189229023721207699_);" d="M38.8,23.8c0,7.9-6.7,14.3-14.9,14.3
	S8.9,31.7,8.9,23.8S15.6,9.5,23.9,9.5S38.8,15.9,38.8,23.8z"/>
</svg>
