<?xml version="1.0" encoding="UTF-8"?>
<svg xmlns="http://www.w3.org/2000/svg" xmlns:xlink="http://www.w3.org/1999/xlink" viewBox="0 0 28.55 18.89">
  <defs>
    <linearGradient id="linear-gradient" x1="6.68" y1="4.74" x2="18.11" y2="16.17" gradientUnits="userSpaceOnUse">
      <stop offset="0" stop-color="#1062a1"/>
      <stop offset="1" stop-color="#0a4d80"/>
    </linearGradient>
    <linearGradient id="linear-gradient-2" x1="2.21" y1="6.33" x2="16.13" y2="6.33" gradientUnits="userSpaceOnUse">
      <stop offset="0" stop-color="#076bba"/>
      <stop offset="1" stop-color="#0060ab"/>
    </linearGradient>
    <linearGradient id="linear-gradient-3" x1="11.83" y1="8.21" x2="23.28" y2="8.21" xlink:href="#linear-gradient-2"/>
  </defs>
  <g isolation="isolate">
    <g id="Ebene_2" data-name="Ebene 2">
      <g id="_ŽÓť_4" data-name="—ŽÓť_4">
        <g>
          <g>
            <g mix-blend-mode="multiply">
              <path d="M26.79,14.14c2.12-2.13,2.02-3.83,1.31-5.66-.53-1.38-.78-2.29-1.67-3.56-.8-1.14-2.49-2.6-5.02-2.96-2.45-.35-8.27,3.65-10.27,4.18-2.16,.58-4.8,2.1-7.58,3.23C2.14,9.95,.04,11.76,0,12.73c-.06,1.57,.46,2.21,1.15,2.84,.69,.63,2.13,1.72,2.99,2.13,.81,.39,2.93,.96,3.64,1.04,1.56,.17,2.13-.31,3.37-.18,1.62,.17,2.16,.29,2.9,.27,.68-.02,1.23-.16,1.6-.18,.54-.02,2.02,.36,2.68,.22,1.71-.36,1.31-.54,2.19-.81,1.87-.58,4.51-2.16,6.25-3.91Z" fill="#fff" opacity="0"/>
              <path d="M26.54,14.06c2.06-2.04,1.96-3.72,1.26-5.49-.54-1.35-.81-2.23-1.69-3.46-.79-1.11-2.39-2.55-4.91-2.96-2.42-.39-8.09,3.56-10.07,4.09-2.15,.58-4.69,2.1-7.41,3.2C2.35,10,.11,11.72,.09,12.7c-.03,1.51,.5,2.12,1.19,2.74,.7,.62,2.1,1.7,2.95,2.08,.84,.38,2.85,.87,3.58,.95,1.54,.16,2.11-.25,3.35-.12,1.61,.17,2.12,.26,2.86,.24,.66-.02,1.2-.14,1.6-.15,.57-.02,2,.31,2.65,.18,1.67-.34,1.3-.5,2.2-.78,1.84-.58,4.36-2.09,6.07-3.77Z" fill="#f9fbfb" opacity=".05"/>
              <path d="M26.3,13.98c2.01-1.94,1.92-3.6,1.21-5.32-.54-1.32-.84-2.17-1.7-3.37-.78-1.09-2.29-2.51-4.79-2.97-2.4-.43-7.9,3.47-9.87,4.01-2.13,.58-4.59,2.09-7.24,3.16-1.36,.55-3.74,2.17-3.75,3.18,0,1.46,.53,2.03,1.23,2.63,.71,.61,2.07,1.68,2.91,2.03,.86,.36,2.77,.78,3.51,.86,1.53,.15,2.1-.18,3.33-.06,1.61,.16,2.09,.22,2.82,.21,.65-.01,1.17-.11,1.6-.13,.6-.02,1.99,.27,2.63,.14,1.62-.33,1.29-.46,2.2-.76,1.81-.57,4.22-2.02,5.89-3.63Z" fill="#f4f6f8" opacity=".1"/>
              <path d="M26.06,13.9c1.95-1.84,1.87-3.49,1.17-5.15-.54-1.29-.88-2.11-1.72-3.27-.77-1.06-2.18-2.47-4.67-2.97-2.37-.47-7.72,3.39-9.67,3.92-2.12,.58-4.48,2.09-7.07,3.13-1.33,.54-3.86,2.07-3.84,3.1,.02,1.41,.57,1.94,1.27,2.53,.71,.6,2.04,1.66,2.88,1.99,.89,.35,2.69,.69,3.45,.77,1.51,.14,2.08-.11,3.3,0,1.6,.15,2.05,.19,2.78,.18,.63,0,1.14-.09,1.6-.1,.64-.02,1.97,.22,2.6,.09,1.58-.32,1.27-.43,2.2-.73,1.78-.58,4.08-1.95,5.71-3.49Z" fill="#eef2f4" opacity=".14"/>
              <path d="M25.81,13.81c1.9-1.75,1.82-3.37,1.12-4.98-.55-1.26-.91-2.05-1.73-3.18-.76-1.04-2.08-2.43-4.55-2.97-2.34-.52-7.54,3.3-9.47,3.83-2.1,.58-4.37,2.08-6.9,3.1-1.3,.53-3.97,1.96-3.94,3.02,.04,1.35,.61,1.85,1.31,2.43,.72,.59,2.02,1.63,2.84,1.94,.91,.33,2.62,.61,3.39,.68,1.5,.14,2.06-.04,3.28,.07,1.59,.14,2.01,.16,2.74,.15,.62,0,1.12-.06,1.6-.07,.67-.01,1.96,.17,2.58,.05,1.54-.31,1.26-.39,2.21-.7,1.75-.57,3.93-1.88,5.53-3.35Z" fill="#e9edf1" opacity=".19"/>
              <path d="M25.57,13.73c1.84-1.66,1.77-3.26,1.07-4.81-.55-1.23-.94-1.99-1.75-3.08-.75-1.01-1.98-2.39-4.43-2.98-2.31-.56-7.36,3.21-9.27,3.74-2.09,.58-4.26,2.07-6.73,3.07-1.27,.51-4.09,1.85-4.04,2.93,.06,1.3,.65,1.77,1.34,2.33,.72,.58,1.99,1.61,2.8,1.89,.94,.32,2.54,.52,3.33,.59,1.48,.13,2.04,.02,3.26,.13,1.59,.13,1.98,.14,2.7,.12,.6,0,1.09-.04,1.6-.05,.7-.01,1.94,.13,2.55,.01,1.49-.29,1.24-.36,2.21-.68,1.73-.57,3.79-1.8,5.35-3.22Z" fill="#e3e9ed" opacity=".24"/>
              <path d="M25.33,13.65c1.78-1.56,1.72-3.14,1.02-4.64-.56-1.2-.97-1.92-1.76-2.99-.74-.98-1.88-2.35-4.32-2.98-2.28-.6-7.18,3.12-9.07,3.65-2.07,.58-4.15,2.07-6.56,3.04-1.24,.5-4.21,1.74-4.14,2.85,.08,1.25,.68,1.68,1.38,2.23,.73,.57,1.96,1.59,2.77,1.84,.96,.3,2.46,.43,3.26,.5,1.46,.12,2.03,.09,3.23,.19,1.58,.12,1.94,.11,2.66,.1,.58,0,1.06-.01,1.6-.02,.73,0,1.92,.08,2.53-.03,1.45-.28,1.23-.32,2.21-.65,1.7-.57,3.65-1.74,5.17-3.08Z" fill="#dee5ea" opacity=".29"/>
              <path d="M25.08,13.57c1.72-1.47,1.67-3.03,.97-4.47-.56-1.17-1-1.87-1.78-2.9-.73-.96-1.77-2.3-4.2-2.99-2.25-.64-7,3.04-8.87,3.56-2.06,.58-4.04,2.06-6.39,3.01-1.21,.49-4.32,1.63-4.23,2.76,.1,1.19,.72,1.59,1.42,2.13,.73,.56,1.93,1.56,2.73,1.79,.99,.29,2.38,.34,3.2,.41,1.44,.12,2.01,.16,3.21,.25,1.57,.12,1.9,.07,2.62,.07,.57,0,1.03,0,1.6,0,.77,0,1.91,.04,2.5-.07,1.4-.26,1.21-.28,2.22-.62,1.67-.57,3.5-1.66,5-2.94Z" fill="#d8e0e6" opacity=".33"/>
              <path d="M24.84,13.49c1.67-1.38,1.61-2.91,.92-4.29-.57-1.14-1.03-1.81-1.8-2.8-.71-.93-1.67-2.26-4.08-2.99-2.22-.68-6.82,2.95-8.67,3.47-2.04,.58-3.93,2.06-6.22,2.98-1.18,.48-4.44,1.52-4.33,2.68,.11,1.14,.76,1.5,1.46,2.03,.74,.55,1.91,1.53,2.69,1.74,1.02,.27,2.3,.25,3.14,.32,1.43,.11,1.99,.23,3.19,.31,1.57,.11,1.87,.03,2.58,.04,.55,0,1,.03,1.6,.03,.8,0,1.89,0,2.48-.11,1.36-.25,1.2-.24,2.22-.59,1.64-.56,3.36-1.59,4.82-2.8Z" fill="#d3dce3" opacity=".38"/>
              <path d="M24.6,13.41c1.61-1.28,1.56-2.8,.88-4.12-.57-1.11-1.06-1.75-1.81-2.71-.7-.91-1.57-2.21-3.96-3-2.2-.72-6.64,2.86-8.47,3.38-2.03,.58-3.82,2.05-6.06,2.95-1.15,.46-4.56,1.41-4.43,2.6,.12,1.08,.8,1.41,1.5,1.93,.74,.54,1.88,1.51,2.65,1.69,1.05,.25,2.23,.17,3.07,.23,1.41,.1,1.97,.29,3.16,.37,1.56,.1,1.83,0,2.54,.01,.54,0,.97,.06,1.61,.06,.83,0,1.88-.05,2.45-.16,1.32-.24,1.18-.21,2.22-.57,1.62-.56,3.21-1.52,4.64-2.66Z" fill="#cdd8df" opacity=".43"/>
              <path d="M24.36,13.33c1.55-1.19,1.51-2.68,.83-3.95-.58-1.08-1.1-1.68-1.83-2.61-.69-.88-1.47-2.17-3.84-3-2.17-.75-6.45,2.77-8.27,3.29-2.02,.58-3.71,2.04-5.89,2.92-1.12,.45-4.68,1.3-4.52,2.51,.13,1.03,.83,1.32,1.53,1.83,.75,.54,1.85,1.48,2.62,1.65,1.07,.23,2.15,.08,3.01,.14,1.39,.1,1.96,.36,3.14,.43,1.55,.09,1.79-.03,2.5-.02,.52,.01,.95,.08,1.61,.08,.87,0,1.86-.1,2.43-.2,1.27-.22,1.17-.17,2.23-.54,1.59-.56,3.06-1.45,4.46-2.52Z" fill="#c8d3dc" opacity=".48"/>
              <path d="M24.11,13.25c1.49-1.1,1.46-2.57,.78-3.78-.58-1.04-1.13-1.62-1.84-2.52-.68-.86-1.36-2.13-3.73-3-2.14-.79-6.27,2.68-8.07,3.2-2,.58-3.61,2.04-5.72,2.89-1.09,.44-4.8,1.19-4.62,2.43,.14,.98,.87,1.24,1.57,1.72,.75,.53,1.83,1.45,2.58,1.6,1.1,.22,2.07,0,2.95,.05,1.38,.09,1.94,.43,3.12,.49,1.55,.08,1.76-.06,2.46-.05,.51,.01,.92,.11,1.61,.11,.9,0,1.85-.14,2.4-.24,1.23-.21,1.16-.13,2.23-.51,1.56-.55,2.92-1.38,4.28-2.39Z" fill="#c2cfd8" opacity=".52"/>
              <path d="M23.87,13.17c1.43-1.01,1.41-2.45,.73-3.61-.59-1.01-1.16-1.56-1.86-2.43-.67-.83-1.26-2.08-3.61-3.01-2.11-.83-6.09,2.6-7.87,3.11-1.99,.58-3.5,2.04-5.55,2.86-1.06,.43-4.92,1.08-4.72,2.34,.15,.92,.91,1.15,1.61,1.62,.76,.52,1.8,1.42,2.54,1.55,1.13,.19,1.99-.1,2.89-.04,1.36,.09,1.92,.5,3.09,.55,1.54,.08,1.72-.1,2.42-.07,.49,.02,.89,.13,1.61,.14,.93,0,1.83-.19,2.38-.28,1.18-.2,1.14-.09,2.23-.49,1.54-.55,2.77-1.32,4.1-2.25Z" fill="#bdcad5" opacity=".57"/>
              <path d="M23.63,13.08c1.37-.91,1.35-2.33,.68-3.44-.6-.98-1.19-1.5-1.87-2.33-.66-.8-1.16-2.04-3.49-3.01-2.08-.87-5.91,2.51-7.67,3.02-1.97,.58-3.39,2.03-5.38,2.83-1.03,.42-5.05,.97-4.82,2.26,.16,.87,.95,1.06,1.65,1.52,.76,.51,1.77,1.39,2.51,1.5,1.16,.17,1.91-.18,2.82-.13,1.34,.08,1.9,.56,3.07,.61,1.53,.07,1.68-.13,2.38-.1,.48,.02,.86,.16,1.61,.16,.96,0,1.81-.23,2.35-.32,1.14-.19,1.13-.06,2.23-.46,1.51-.55,2.63-1.25,3.92-2.11Z" fill="#b7c6d1" opacity=".62"/>
              <path d="M23.38,13c1.31-.82,1.3-2.22,.64-3.27-.6-.95-1.22-1.44-1.89-2.24-.65-.78-1.06-1.99-3.37-3.02-2.06-.91-5.73,2.42-7.47,2.93-1.96,.58-3.28,2.02-5.21,2.8-1,.4-5.17,.86-4.91,2.18,.16,.82,.99,.97,1.69,1.42,.77,.5,1.75,1.36,2.47,1.45,1.19,.15,1.84-.27,2.76-.22,1.33,.08,1.89,.63,3.05,.67,1.53,.06,1.65-.16,2.34-.13,.46,.02,.83,.18,1.61,.19,1,0,1.8-.28,2.33-.36,1.1-.18,1.11-.02,2.24-.43,1.48-.54,2.48-1.18,3.74-1.97Z" fill="#b2c2ce" opacity=".67"/>
              <path d="M23.14,12.92c1.25-.73,1.25-2.1,.59-3.1-.61-.92-1.26-1.38-1.91-2.14-.64-.75-.95-1.95-3.25-3.02-2.03-.95-5.55,2.34-7.27,2.84-1.94,.58-3.17,2.02-5.04,2.77-.98,.39-5.3,.76-5.01,2.09,.17,.76,1.02,.88,1.73,1.32,.78,.49,1.72,1.33,2.43,1.4,1.21,.13,1.76-.36,2.7-.31,1.31,.07,1.87,.7,3.02,.73,1.52,.05,1.61-.2,2.3-.16,.44,.02,.8,.21,1.61,.21,1.03,0,1.78-.33,2.3-.41,1.05-.16,1.1,.02,2.24-.4,1.46-.54,2.33-1.11,3.56-1.83Z" fill="#acbdca" opacity=".71"/>
              <path d="M22.9,12.84c1.18-.64,1.19-1.99,.54-2.93-.62-.89-1.29-1.32-1.92-2.05-.63-.73-.85-1.9-3.13-3.03-2-.99-5.37,2.25-7.07,2.75-1.93,.57-3.06,2.01-4.87,2.74-.95,.38-5.43,.65-5.11,2.01,.17,.71,1.06,.79,1.76,1.22,.78,.48,1.7,1.3,2.39,1.36,1.24,.1,1.68-.45,2.63-.4,1.29,.07,1.85,.76,3,.79,1.51,.04,1.57-.23,2.26-.19,.43,.03,.78,.23,1.61,.24,1.06,.01,1.77-.37,2.28-.45,1.01-.15,1.08,.05,2.24-.38,1.43-.53,2.18-1.04,3.38-1.69Z" fill="#a7b9c7" opacity=".76"/>
              <path d="M22.65,12.76c1.12-.56,1.14-1.87,.49-2.76-.63-.86-1.32-1.26-1.94-1.96-.62-.7-.75-1.86-3.02-3.03-1.97-1.02-5.19,2.16-6.87,2.67-1.91,.57-2.95,2.01-4.7,2.71-.92,.37-5.57,.54-5.2,1.92,.17,.66,1.1,.7,1.8,1.12,.79,.47,1.67,1.27,2.36,1.31,1.27,.07,1.6-.53,2.57-.49,1.28,.06,1.83,.83,2.98,.86,1.51,.03,1.54-.26,2.22-.22,.41,.03,.75,.26,1.61,.27,1.09,.01,1.75-.42,2.25-.49,.96-.14,1.07,.09,2.25-.35,1.4-.53,2.03-.98,3.2-1.56Z" fill="#a1b5c3" opacity=".81"/>
              <path d="M22.41,12.68c1.06-.47,1.08-1.75,.44-2.59-.63-.83-1.35-1.2-1.95-1.86-.61-.67-.65-1.81-2.9-3.04-1.95-1.06-5,2.07-6.67,2.58-1.9,.57-2.84,2-4.53,2.68-.89,.36-5.7,.44-5.3,1.84,.17,.61,1.14,.61,1.84,1.01,.8,.46,1.65,1.24,2.32,1.26,1.3,.04,1.52-.62,2.51-.58,1.26,.06,1.82,.9,2.95,.92,1.5,.03,1.5-.3,2.18-.25,.4,.03,.72,.28,1.61,.29,1.13,.02,1.74-.46,2.23-.53,.92-.13,1.06,.13,2.25-.32,1.38-.52,1.88-.91,3.02-1.42Z" fill="#9cb0c0" opacity=".86"/>
              <path d="M22.17,12.6c1-.38,1.03-1.63,.4-2.42-.64-.79-1.39-1.14-1.97-1.77-.6-.65-.55-1.76-2.78-3.04-1.92-1.1-4.82,1.99-6.47,2.49-1.88,.57-2.73,2-4.36,2.65-.86,.34-5.85,.33-5.4,1.75,.18,.55,1.18,.52,1.88,.91,.8,.45,1.62,1.22,2.28,1.21,1.33-.03,1.45-.71,2.44-.67,1.24,.05,1.8,.96,2.93,.98,1.49,.02,1.46-.33,2.14-.27,.38,.03,.69,.3,1.61,.32,1.16,.02,1.72-.51,2.2-.57,.88-.11,1.04,.17,2.25-.29,1.35-.52,1.73-.85,2.84-1.28Z" fill="#96acbc" opacity=".9"/>
              <path d="M21.93,12.52c.93-.3,.97-1.51,.35-2.25-.65-.76-1.42-1.08-1.99-1.67-.59-.62-.45-1.71-2.66-3.04-1.89-1.13-4.64,1.9-6.27,2.4-1.87,.57-2.62,1.99-4.19,2.62-.83,.33-6,.23-5.5,1.67,.18,.5,1.21,.43,1.92,.81,.81,.44,1.59,1.17,2.25,1.16,1.35-.02,1.37-.79,2.38-.76,1.23,.05,1.78,1.03,2.91,1.04,1.49,0,1.43-.37,2.1-.3,.37,.03,.66,.33,1.61,.34,1.19,.02,1.7-.55,2.18-.61,.83-.1,1.03,.21,2.26-.27,1.32-.51,1.58-.79,2.66-1.14Z" fill="#91a7b9" opacity=".95"/>
              <path d="M21.68,12.44c.87-.22,.92-1.39,.3-2.07-.66-.73-1.45-1.02-2-1.58-.58-.59-.35-1.67-2.54-3.05-1.87-1.17-4.46,1.81-6.07,2.31-1.85,.57-2.52,1.98-4.03,2.59-.8,.32-6.16,.14-5.59,1.59,.18,.46,1.25,.34,1.95,.71,.81,.43,1.56,1.14,2.21,1.11,1.38-.05,1.29-.88,2.32-.85,1.21,.04,1.76,1.1,2.88,1.1,1.48,0,1.39-.4,2.06-.33,.35,.04,.63,.35,1.61,.37,1.23,.02,1.69-.6,2.15-.65,.79-.09,1.02,.25,2.26-.24,1.3-.51,1.43-.74,2.48-1Z" fill="#8ba3b5"/>
            </g>
            <path d="M21.12,9.49c-.19-.67-.59-1.25-1.14-1.66,.14-.37,.22-.76,.24-1.17,.09-2.1-1.54-3.88-3.64-3.96-1.61-.07-3.02,.87-3.64,2.25-.11-.01-.22-.03-.33-.03-1.33-.06-2.53,.56-3.27,1.55-.21-.08-.43-.13-.67-.14-1.14-.05-2.11,.84-2.16,1.98,0,.19,.01,.37,.05,.55-.42,.07-.77,.32-.99,.67-.35-.47-.89-.78-1.52-.8-.87-.04-1.62,.48-1.93,1.24-.04,0-.08,0-.12,0-.79-.03-1.46,.58-1.49,1.37-.03,.79,.58,1.46,1.37,1.49,.41,.02,.78-.14,1.05-.4,.27,.17,.59,.27,.94,.29,.31,.69,.99,1.18,1.8,1.22,.84,.04,1.58-.43,1.93-1.13,.24,.11,.5,.17,.77,.19,.09,0,.17,0,.26,0,.48,.65,1.25,1.08,2.12,1.12,.85,.04,1.63-.31,2.17-.89,.33,.63,.98,1.08,1.75,1.11,.81,.04,1.54-.41,1.9-1.08,.4,.21,.85,.33,1.33,.35,1.05,.04,2-.42,2.62-1.17,.14,.05,.3,.09,.46,.09,.83,.04,1.53-.61,1.56-1.44,.04-.83-.6-1.52-1.43-1.56Z" fill="#008dd4"/>
            <path d="M21.18,9.55c-.19-.67-.59-1.25-1.14-1.66,.14-.37,.22-.76,.24-1.17,.09-2.1-1.54-3.88-3.64-3.97-1.61-.07-3.02,.87-3.64,2.25-.11-.01-.22-.03-.33-.03-1.33-.06-2.53,.56-3.27,1.55-.21-.08-.43-.13-.67-.14-1.14-.05-2.11,.84-2.16,1.98,0,.19,.01,.37,.05,.55-.42,.07-.77,.32-.99,.67-.35-.47-.89-.78-1.52-.8-.87-.04-1.62,.48-1.93,1.24-.04,0-.08,0-.12-.01-.79-.03-1.46,.58-1.49,1.37-.03,.79,.58,1.46,1.37,1.49,.41,.02,.78-.14,1.05-.4,.27,.17,.6,.27,.94,.29,.31,.69,.99,1.18,1.8,1.22,.84,.04,1.58-.43,1.93-1.13,.24,.11,.5,.17,.77,.19,.09,0,.17,0,.26,0,.48,.65,1.25,1.08,2.12,1.12,.85,.04,1.63-.31,2.17-.89,.33,.63,.98,1.08,1.74,1.11,.81,.03,1.54-.41,1.9-1.08,.4,.21,.85,.33,1.33,.35,1.05,.04,2-.42,2.62-1.17,.14,.05,.3,.09,.46,.09,.83,.04,1.53-.61,1.56-1.44,.04-.83-.6-1.52-1.43-1.56Z" fill="url(#linear-gradient)"/>
          </g>
          <g>
            <g mix-blend-mode="multiply">
              <path d="M18.79,11.59c.98-1.71-.02-4.04-.49-5.26-.36-.92-1.53-2.17-2.46-2.63-.92-.46-1.27-.95-2.53-1.08-1.64-.16-3.82,1.09-5.16,1.45-1.44,.39-3.91,1.57-5.26,3.04-1.57,1.72-1.61,3.09-1.18,4.09,.45,1.07,1.2,1.66,1.67,2.08,.46,.42,.98,.79,1.55,1.06,1.09,.52,2.04,.5,2.85,.55,.62,.04,2.21,.17,3.82-.16,1.14-.24,2.17-.41,2.76-.59,1.24-.39,3.61-1.12,4.43-2.55Z" fill="#fff" opacity="0"/>
              <path d="M18.61,11.51c.98-1.66,.03-3.91-.44-5.09-.36-.9-1.49-2.09-2.4-2.55-.9-.45-1.2-1.04-2.47-1.19-1.62-.2-3.81,1.12-5.13,1.47-1.43,.39-3.88,1.54-5.17,2.96-1.52,1.66-1.64,3.02-1.2,4.04,.45,1.04,1.2,1.59,1.68,1.99,.47,.4,.99,.75,1.56,1.01,1.1,.5,2.02,.43,2.81,.49,.61,.05,2.17,.2,3.78-.13,1.15-.24,2.13-.42,2.7-.58,1.21-.35,3.48-1.04,4.29-2.42Z" fill="#f9fbfb" opacity=".05"/>
              <path d="M18.43,11.43c.97-1.61,.08-3.78-.38-4.92-.36-.88-1.44-2.01-2.34-2.46-.88-.44-1.13-1.12-2.42-1.31-1.6-.24-3.8,1.14-5.11,1.5-1.42,.39-3.84,1.51-5.09,2.88-1.46,1.6-1.66,2.96-1.21,3.98,.45,1.01,1.2,1.51,1.7,1.91,.48,.38,1,.72,1.57,.96,1.11,.48,2,.36,2.76,.43,.6,.05,2.12,.23,3.73-.1,1.16-.23,2.09-.43,2.64-.58,1.17-.32,3.35-.96,4.15-2.28Z" fill="#f4f6f8" opacity=".1"/>
              <path d="M18.25,11.36c.97-1.55,.14-3.65-.33-4.76-.36-.86-1.39-1.93-2.29-2.38-.86-.43-1.06-1.21-2.36-1.43-1.58-.27-3.79,1.17-5.09,1.52-1.41,.38-3.81,1.49-5.01,2.79-1.41,1.53-1.69,2.89-1.22,3.92,.45,.99,1.2,1.45,1.72,1.83,.49,.36,1.02,.68,1.58,.91,1.11,.46,1.98,.3,2.72,.37,.59,.06,2.08,.26,3.69-.06,1.16-.23,2.05-.44,2.58-.57,1.13-.29,3.22-.88,4.02-2.15Z" fill="#eef2f4" opacity=".14"/>
              <path d="M18.08,11.28c.97-1.5,.19-3.52-.28-4.59-.37-.84-1.34-1.86-2.23-2.29-.85-.42-1-1.29-2.3-1.55-1.56-.31-3.78,1.2-5.07,1.55-1.4,.38-3.77,1.46-4.93,2.71-1.35,1.47-1.72,2.82-1.23,3.86,.45,.96,1.2,1.38,1.73,1.75,.49,.34,1.03,.64,1.59,.86,1.12,.44,1.95,.23,2.67,.31,.58,.06,2.03,.29,3.64-.03,1.17-.23,2-.44,2.52-.56,1.1-.26,3.1-.79,3.88-2.02Z" fill="#e9edf1" opacity=".19"/>
              <path d="M17.9,11.2c.97-1.45,.24-3.39-.23-4.42-.37-.82-1.3-1.78-2.17-2.2-.83-.4-.93-1.37-2.24-1.66-1.54-.34-3.77,1.22-5.04,1.57-1.39,.38-3.74,1.43-4.85,2.63-1.3,1.41-1.75,2.75-1.25,3.8,.45,.93,1.2,1.3,1.75,1.66,.5,.33,1.05,.61,1.6,.81,1.13,.42,1.93,.16,2.62,.25,.58,.07,1.99,.32,3.6,0,1.18-.23,1.96-.45,2.46-.56,1.06-.23,2.97-.71,3.75-1.88Z" fill="#e3e9ed" opacity=".24"/>
              <path d="M17.72,11.12c.96-1.4,.29-3.26-.17-4.25-.37-.8-1.25-1.7-2.12-2.12-.81-.39-.86-1.46-2.18-1.78-1.52-.37-3.76,1.25-5.02,1.6-1.38,.38-3.71,1.4-4.77,2.55-1.24,1.34-1.78,2.69-1.26,3.74,.45,.9,1.2,1.23,1.76,1.58,.51,.31,1.06,.57,1.61,.76,1.14,.4,1.91,.1,2.58,.19,.57,.08,1.94,.34,3.55,.04,1.19-.23,1.92-.46,2.4-.55,1.02-.19,2.84-.63,3.61-1.75Z" fill="#dee5ea" opacity=".29"/>
              <path d="M17.55,11.05c.96-1.34,.34-3.13-.12-4.08-.38-.78-1.2-1.62-2.06-2.03-.79-.38-.79-1.54-2.12-1.9-1.5-.4-3.75,1.27-5,1.62-1.37,.38-3.67,1.38-4.69,2.47-1.19,1.28-1.81,2.62-1.27,3.68,.45,.88,1.2,1.16,1.78,1.5,.51,.29,1.07,.53,1.62,.71,1.14,.37,1.89,.03,2.53,.13,.56,.08,1.9,.37,3.51,.07,1.19-.22,1.88-.47,2.34-.54,.99-.16,2.71-.55,3.47-1.61Z" fill="#d8e0e6" opacity=".33"/>
              <path d="M17.37,10.97c.96-1.29,.39-3-.07-3.92-.38-.76-1.15-1.54-2-1.95-.77-.37-.72-1.62-2.06-2.02-1.48-.44-3.74,1.3-4.97,1.65-1.36,.38-3.64,1.35-4.61,2.39-1.13,1.21-1.84,2.55-1.28,3.62,.45,.85,1.19,1.09,1.8,1.41,.52,.27,1.09,.49,1.63,.66,1.15,.35,1.87-.03,2.49,.07,.55,.09,1.85,.4,3.46,.1,1.2-.22,1.83-.47,2.28-.54,.95-.13,2.58-.46,3.34-1.48Z" fill="#d3dce3" opacity=".38"/>
              <path d="M17.19,10.89c.96-1.24,.44-2.87-.02-3.75-.38-.74-1.11-1.46-1.95-1.86-.75-.36-.65-1.7-2.01-2.13-1.46-.46-3.73,1.33-4.95,1.67-1.35,.38-3.6,1.32-4.52,2.31-1.08,1.15-1.87,2.49-1.3,3.56,.44,.82,1.19,1.02,1.81,1.33,.52,.26,1.1,.46,1.64,.61,1.16,.33,1.85-.1,2.44,0,.54,.09,1.81,.43,3.42,.13,1.21-.22,1.79-.48,2.22-.53,.91-.1,2.46-.38,3.2-1.34Z" fill="#cdd8df" opacity=".43"/>
              <path d="M17.02,10.82c.96-1.19,.49-2.74,.04-3.58-.39-.72-1.06-1.38-1.89-1.78-.73-.34-.58-1.78-1.95-2.25-1.44-.49-3.72,1.35-4.93,1.7-1.34,.38-3.57,1.3-4.44,2.23-1.02,1.09-1.91,2.42-1.31,3.5,.44,.8,1.19,.96,1.83,1.25,.53,.24,1.12,.42,1.66,.56,1.17,.3,1.83-.16,2.39-.05,.54,.1,1.76,.46,3.37,.17,1.21-.22,1.75-.49,2.16-.52,.88-.07,2.33-.3,3.07-1.21Z" fill="#c8d3dc" opacity=".48"/>
              <path d="M16.84,10.74c.96-1.13,.54-2.6,.09-3.41-.39-.7-1.01-1.31-1.83-1.69-.71-.33-.51-1.86-1.89-2.37-1.42-.52-3.71,1.38-4.91,1.72-1.33,.38-3.54,1.27-4.36,2.14-.97,1.02-1.94,2.36-1.32,3.44,.44,.77,1.19,.89,1.85,1.16,.53,.22,1.13,.38,1.67,.51,1.18,.28,1.8-.23,2.35-.12,.53,.11,1.72,.49,3.33,.2,1.22-.22,1.71-.5,2.11-.52,.84-.04,2.2-.21,2.93-1.08Z" fill="#c2cfd8" opacity=".52"/>
              <path d="M16.66,10.66c.96-1.08,.59-2.47,.14-3.25-.39-.68-.96-1.23-1.78-1.61-.69-.32-.44-1.94-1.83-2.48-1.4-.55-3.7,1.41-4.88,1.75-1.32,.38-3.5,1.24-4.28,2.06-.91,.96-1.97,2.29-1.34,3.38,.43,.75,1.18,.82,1.86,1.08,.54,.21,1.15,.34,1.68,.46,1.19,.26,1.78-.29,2.3-.18,.52,.11,1.67,.52,3.28,.23,1.23-.21,1.66-.51,2.05-.51,.8,0,2.07-.13,2.79-.94Z" fill="#bdcad5" opacity=".57"/>
              <path d="M16.49,10.58c.96-1.03,.64-2.34,.2-3.08-.4-.66-.92-1.15-1.72-1.52-.67-.31-.37-2.02-1.77-2.6-1.38-.58-3.69,1.43-4.86,1.77-1.31,.38-3.47,1.22-4.2,1.98-.86,.9-2,2.22-1.35,3.32,.43,.72,1.18,.75,1.88,1,.54,.19,1.16,.31,1.69,.41,1.2,.23,1.76-.36,2.26-.24,.51,.12,1.63,.55,3.24,.27,1.24-.21,1.62-.51,1.99-.5,.76,.03,1.95-.05,2.66-.81Z" fill="#b7c6d1" opacity=".62"/>
              <path d="M16.31,10.51c.96-.98,.69-2.21,.25-2.91-.4-.64-.87-1.07-1.66-1.44-.65-.3-.3-2.09-1.71-2.72-1.36-.6-3.68,1.46-4.84,1.8-1.3,.38-3.43,1.19-4.12,1.9-.8,.83-2.04,2.16-1.36,3.26,.43,.69,1.18,.68,1.9,.91,.55,.18,1.18,.27,1.7,.36,1.2,.21,1.74-.42,2.21-.3,.5,.13,1.58,.58,3.19,.3,1.24-.21,1.58-.52,1.93-.49,.73,.06,1.82,.04,2.52-.67Z" fill="#b2c2ce" opacity=".67"/>
              <path d="M16.13,10.43c.96-.92,.74-2.08,.3-2.74-.41-.62-.82-.99-1.61-1.35-.63-.29-.23-2.17-1.65-2.84-1.35-.63-3.67,1.48-4.81,1.82-1.29,.38-3.4,1.16-4.04,1.82-.75,.77-2.07,2.09-1.37,3.2,.42,.67,1.18,.62,1.91,.83,.55,.16,1.19,.23,1.71,.31,1.21,.18,1.72-.48,2.16-.36,.49,.14,1.54,.6,3.15,.33,1.25-.21,1.54-.53,1.87-.49,.69,.09,1.7,.12,2.39-.54Z" fill="#acbdca" opacity=".71"/>
              <path d="M15.95,10.35c.96-.87,.79-1.95,.35-2.57-.41-.59-.77-.92-1.55-1.27-.61-.28-.17-2.25-1.6-2.95-1.33-.66-3.66,1.51-4.79,1.85-1.28,.38-3.36,1.13-3.96,1.74-.69,.71-2.1,2.03-1.39,3.14,.42,.64,1.17,.55,1.93,.75,.56,.15,1.2,.19,1.72,.26,1.22,.16,1.7-.54,2.12-.42,.48,.14,1.49,.63,3.1,.37,1.26-.21,1.49-.54,1.81-.48,.65,.12,1.57,.21,2.25-.4Z" fill="#a7b9c7" opacity=".76"/>
              <path d="M15.78,10.28c.97-.81,.84-1.81,.41-2.41-.42-.57-.73-.84-1.5-1.18-.59-.26-.1-2.32-1.54-3.07-1.31-.68-3.65,1.54-4.77,1.87-1.27,.38-3.33,1.11-3.88,1.66-.64,.64-2.14,1.97-1.4,3.08,.41,.62,1.17,.49,1.95,.67,.56,.13,1.22,.15,1.73,.21,1.23,.13,1.67-.61,2.07-.48,.48,.15,1.45,.66,3.06,.4,1.26-.2,1.45-.55,1.75-.47,.62,.16,1.45,.29,2.11-.27Z" fill="#a1b5c3" opacity=".81"/>
              <path d="M15.6,10.2c.97-.76,.89-1.68,.46-2.24-.42-.55-.68-.76-1.44-1.09-.57-.25-.03-2.4-1.48-3.19-1.29-.71-3.64,1.56-4.75,1.9-1.26,.38-3.3,1.08-3.8,1.58-.58,.58-2.17,1.9-1.41,3.02,.41,.59,1.17,.42,1.96,.58,.57,.12,1.23,.11,1.74,.16,1.24,.11,1.65-.67,2.02-.54,.47,.16,1.4,.69,3.01,.43,1.27-.2,1.41-.56,1.69-.47,.58,.19,1.32,.38,1.98-.14Z" fill="#9cb0c0" opacity=".86"/>
              <path d="M15.42,10.12c.97-.7,.93-1.55,.51-2.07-.43-.53-.63-.68-1.38-1.01-.55-.24,.03-2.47-1.42-3.31-1.28-.73-3.63,1.59-4.72,1.92-1.25,.38-3.26,1.05-3.71,1.49-.53,.52-2.21,1.84-1.42,2.96,.4,.57,1.16,.35,1.98,.5,.57,.1,1.25,.07,1.75,.11,1.25,.08,1.63-.73,1.98-.6,.46,.17,1.36,.72,2.97,.47,1.28-.2,1.37-.56,1.63-.46,.54,.22,1.2,.46,1.84,0Z" fill="#96acbc" opacity=".9"/>
              <path d="M15.25,10.04c.97-.64,.98-1.42,.57-1.9-.43-.51-.58-.6-1.33-.92-.53-.23,.1-2.55-1.36-3.42-1.26-.76-3.62,1.62-4.7,1.95-1.24,.38-3.23,1.03-3.63,1.41-.48,.45-2.25,1.78-1.44,2.9,.39,.54,1.16,.29,2,.42,.58,.09,1.26,.03,1.76,.05,1.26,.05,1.61-.79,1.93-.66,.45,.18,1.31,.75,2.92,.5,1.29-.2,1.32-.57,1.57-.45,.51,.25,1.07,.55,1.7,.13Z" fill="#91a7b9" opacity=".95"/>
              <path d="M15.07,9.97c.98-.58,1.03-1.28,.62-1.74-.44-.48-.54-.53-1.27-.84-.51-.22,.16-2.62-1.3-3.54-1.24-.78-3.61,1.64-4.68,1.97-1.23,.38-3.19,1-3.55,1.33-.42,.39-2.29,1.71-1.45,2.84,.39,.52,1.16,.22,2.01,.33,.58,.07,1.28,0,1.78,0,1.27,.03,1.58-.86,1.89-.72,.44,.19,1.27,.78,2.88,.53,1.29-.2,1.28-.58,1.51-.44,.47,.28,.95,.64,1.57,.27Z" fill="#8ba3b5"/>
            </g>
            <path d="M15.12,7.37c.1-.35,.15-.72,.15-1.1,0-2.27-1.84-4.11-4.11-4.11-1.92,0-3.54,1.32-3.99,3.1-.04,0-.08,0-.12,0-.9,0-1.69,.46-2.15,1.16-.23-.1-.49-.15-.76-.15-1.1,0-1.99,.89-1.99,1.99s.89,1.99,1.99,1.99c.48,0,.93-.17,1.27-.46,.44,.37,1.01,.59,1.63,.59,.69,0,1.32-.28,1.78-.72,.66,.46,1.46,.72,2.33,.72,.79,0,1.53-.22,2.15-.61,.28,.36,.72,.59,1.21,.59,.86,0,1.55-.7,1.55-1.55,0-.65-.4-1.2-.96-1.43Z" fill="#4fc5ff"/>
            <path d="M15.18,7.43c.1-.35,.15-.72,.15-1.1,0-2.27-1.84-4.11-4.11-4.11-1.92,0-3.54,1.32-3.99,3.1-.04,0-.08,0-.12,0-.9,0-1.69,.46-2.15,1.16-.23-.1-.49-.15-.76-.15-1.1,0-1.99,.89-1.99,1.99s.89,1.99,1.99,1.99c.48,0,.93-.17,1.27-.46,.44,.37,1.01,.59,1.63,.59,.69,0,1.32-.28,1.78-.72,.66,.46,1.46,.72,2.33,.72,.79,0,1.53-.22,2.15-.61,.28,.36,.72,.58,1.21,.58,.86,0,1.55-.69,1.55-1.55,0-.65-.4-1.2-.96-1.43Z" fill="url(#linear-gradient-2)"/>
          </g>
          <g>
            <path d="M21.17,6.69s-.09,0-.13,0c-.24-.68-.89-1.17-1.66-1.17-.23,0-.45,.04-.65,.12-.24-.66-.87-1.13-1.6-1.13s-1.33,.45-1.58,1.07c-.08-.01-.17-.02-.26-.02-.78,0-1.41,.59-1.49,1.34-.11-.02-.22-.03-.33-.03-.94,0-1.69,.76-1.69,1.69s.76,1.69,1.69,1.69c.01,0,.03,0,.04,0,.17,.68,.78,1.19,1.52,1.19,.57,0,1.07-.3,1.34-.76,.37,.63,1.06,1.06,1.85,1.06,.87,0,1.62-.52,1.96-1.27,.3,.17,.64,.27,1.01,.27,1.12,0,2.03-.91,2.03-2.03s-.91-2.03-2.03-2.03Z" fill="#4fc5ff"/>
            <path d="M21.24,6.76s-.09,0-.13,0c-.24-.69-.89-1.18-1.66-1.18-.23,0-.45,.05-.65,.12-.24-.66-.87-1.13-1.6-1.13s-1.33,.44-1.58,1.07c-.08-.01-.17-.02-.26-.02-.78,0-1.41,.59-1.49,1.34-.11-.02-.22-.03-.33-.03-.93,0-1.69,.76-1.69,1.69s.76,1.69,1.69,1.69c.01,0,.03,0,.04,0,.17,.68,.78,1.19,1.52,1.19,.57,0,1.07-.3,1.34-.76,.37,.64,1.06,1.06,1.85,1.06,.87,0,1.62-.52,1.96-1.27,.3,.17,.64,.27,1.01,.27,1.12,0,2.03-.91,2.03-2.03s-.91-2.03-2.03-2.03Z" fill="url(#linear-gradient-3)"/>
          </g>
          <g>
            <path d="M19.51,2.59c-.09,0-.18,0-.27,.02-.34-1.01-1.29-1.73-2.41-1.73-.52,0-1,.15-1.4,.42-.28-.75-1-1.29-1.85-1.29-.96,0-1.76,.69-1.93,1.6-.27-.2-.61-.32-.97-.32-.83,0-1.52,.62-1.62,1.43,0,0,0,0-.01,0-1.3,0-2.35,1.05-2.35,2.35s1.05,2.35,2.35,2.35c.41,0,.8-.11,1.14-.3,.12,.81,.82,1.44,1.67,1.44,.67,0,1.25-.39,1.52-.95,.52,.76,1.39,1.26,2.38,1.26,1.28,0,2.36-.83,2.73-1.98,.31,.16,.66,.25,1.04,.25,1.25,0,2.26-1.01,2.26-2.26s-1.01-2.26-2.26-2.26Z" fill="#63ccff"/>
            <path d="M19.58,2.65c-.09,0-.18,0-.27,.02-.34-1.01-1.29-1.73-2.41-1.73-.52,0-1,.15-1.4,.42-.28-.76-1-1.3-1.85-1.3-.96,0-1.76,.69-1.93,1.6-.27-.2-.61-.32-.97-.32-.83,0-1.52,.63-1.62,1.43h-.01c-1.3,0-2.35,1.05-2.35,2.35s1.05,2.35,2.35,2.35c.41,0,.8-.11,1.14-.29,.12,.81,.82,1.44,1.67,1.44,.67,0,1.25-.39,1.52-.96,.52,.76,1.39,1.26,2.38,1.26,1.28,0,2.36-.83,2.73-1.98,.31,.16,.66,.25,1.04,.25,1.25,0,2.26-1.01,2.26-2.26s-1.01-2.26-2.26-2.26Z" fill="#007fc9"/>
          </g>
          <g>
            <path d="M12.16,8.22c-.2,0-.38,.02-.56,.08-.23-1.17-1.23-2.07-2.47-2.14-1.2-.06-2.26,.69-2.64,1.77h0c-1.02-.05-1.89,.73-1.94,1.75-.05,1.02,.73,1.89,1.75,1.94,.53,.03,1.01-.17,1.36-.5,.35,.21,.76,.33,1.2,.36,.78,.04,1.5-.26,2.01-.77,.26,.34,.67,.57,1.13,.59,.85,.04,1.57-.61,1.61-1.45,.04-.85-.61-1.57-1.45-1.61Z" fill="#6ed8ff"/>
            <path d="M12.25,8.23c-.2,0-.38,.02-.56,.08-.23-1.17-1.23-2.07-2.47-2.14-1.2-.06-2.26,.69-2.64,1.77h0c-1.02-.05-1.89,.73-1.94,1.75-.05,1.02,.73,1.89,1.75,1.94,.52,.03,1.01-.17,1.36-.5,.35,.21,.76,.33,1.2,.36,.78,.04,1.5-.26,2.01-.77,.26,.34,.67,.57,1.13,.59,.85,.04,1.57-.61,1.61-1.45,.04-.85-.61-1.57-1.45-1.61Z" fill="#008cde"/>
          </g>
          <g>
            <g>
              <path d="M13.73,17.64c0,.6-.49,1.09-1.09,1.09s-1.13-.49-1.13-1.09c0-1.02,1.14-2.38,1.14-2.38l.08-.04s0,.05,.02,.08c.21,.32,.98,1.57,.98,2.35Z" fill="#b3edff"/>
              <path d="M13.82,17.67c0,.6-.49,1.09-1.09,1.09s-1.09-.49-1.09-1.09c0-.9,1.09-2.46,1.09-2.46,0,0,1.09,1.56,1.09,2.46Z" fill="#61d7ff"/>
            </g>
            <g>
              <path d="M10.71,14.52c0,.44-.36,.8-.8,.8s-.83-.36-.83-.8c0-.75,.84-1.76,.84-1.76l.06-.03s0,.04,.02,.06c.15,.24,.72,1.16,.72,1.73Z" fill="#b3edff"/>
              <path d="M10.78,14.55c0,.44-.36,.8-.8,.8s-.8-.36-.8-.8c0-.67,.8-1.82,.8-1.82,0,0,.8,1.15,.8,1.82Z" fill="#61d7ff"/>
            </g>
            <g>
              <path d="M4.5,13.5c0,.35-.29,.64-.64,.64s-.66-.29-.66-.64c0-.6,.67-1.41,.67-1.41l.05-.02s0,.03,.01,.05c.12,.19,.57,.92,.57,1.38Z" fill="#b3edff"/>
              <path d="M4.56,13.52c0,.35-.29,.64-.64,.64s-.64-.29-.64-.64c0-.53,.64-1.45,.64-1.45,0,0,.64,.92,.64,1.45Z" fill="#61d7ff"/>
            </g>
            <g>
              <path d="M21.94,11.02c0,.33-.27,.6-.6,.6s-.62-.27-.62-.6c0-.56,.63-1.32,.63-1.32l.05-.02s0,.03,.01,.04c.11,.18,.54,.87,.54,1.3Z" fill="#b3edff"/>
              <path d="M22,11.04c0,.33-.27,.6-.6,.6s-.6-.27-.6-.6c0-.5,.6-1.36,.6-1.36,0,0,.6,.86,.6,1.36Z" fill="#61d7ff"/>
            </g>
            <g>
              <path d="M20.63,16.51c0,.33-.27,.6-.6,.6s-.62-.27-.62-.6c0-.56,.63-1.32,.63-1.32l.05-.02s0,.03,.01,.04c.11,.18,.54,.87,.54,1.3Z" fill="#b3edff"/>
              <path d="M20.68,16.53c0,.33-.27,.6-.6,.6s-.6-.27-.6-.6c0-.5,.6-1.36,.6-1.36,0,0,.6,.86,.6,1.36Z" fill="#61d7ff"/>
            </g>
            <g>
              <path d="M18.58,14.62c0,.53-.43,.96-.96,.96s-1-.43-1-.96c0-.9,1.01-2.11,1.01-2.11l.07-.04s0,.04,.02,.07c.18,.29,.86,1.39,.86,2.07Z" fill="#b3edff"/>
              <path d="M18.66,14.65c0,.53-.43,.96-.96,.96s-.96-.43-.96-.96c0-.8,.96-2.17,.96-2.17,0,0,.96,1.38,.96,2.17Z" fill="#61d7ff"/>
            </g>
          </g>
        </g>
      </g>
    </g>
  </g>
</svg>