<?xml version="1.0" encoding="utf-8"?>
<!-- Generator: Adobe Illustrator 27.0.1, SVG Export Plug-In . SVG Version: 6.00 Build 0)  -->
<svg version="1.1" id="Ebene_1" xmlns="http://www.w3.org/2000/svg" xmlns:xlink="http://www.w3.org/1999/xlink" x="0px" y="0px"
	 viewBox="0 0 47.9 47.9" style="enable-background:new 0 0 47.9 47.9;" xml:space="preserve">
<style type="text/css">
	.st0{fill:#FFFFFF;fill-opacity:0;}
	.st1{opacity:4.761905e-02;fill:#F9FBFB;enable-background:new    ;}
	.st2{opacity:9.523810e-02;fill:#F3F6F7;enable-background:new    ;}
	.st3{opacity:0.1429;fill:#EEF2F4;enable-background:new    ;}
	.st4{opacity:0.1905;fill:#E8EDF0;enable-background:new    ;}
	.st5{opacity:0.2381;fill:#E2E9EC;enable-background:new    ;}
	.st6{opacity:0.2857;fill:#DCE4E8;enable-background:new    ;}
	.st7{opacity:0.3333;fill:#D7E0E5;enable-background:new    ;}
	.st8{opacity:0.381;fill:#D1DCE1;enable-background:new    ;}
	.st9{opacity:0.4286;fill:#CBD7DD;enable-background:new    ;}
	.st10{opacity:0.4762;fill:#C5D3D9;enable-background:new    ;}
	.st11{opacity:0.5238;fill:#C0CED6;enable-background:new    ;}
	.st12{opacity:0.5714;fill:#BACAD2;enable-background:new    ;}
	.st13{opacity:0.619;fill:#B4C5CE;enable-background:new    ;}
	.st14{opacity:0.6667;fill:#AEC1CA;enable-background:new    ;}
	.st15{opacity:0.7143;fill:#A9BDC7;enable-background:new    ;}
	.st16{opacity:0.7619;fill:#A3B8C3;enable-background:new    ;}
	.st17{opacity:0.8095;fill:#9DB4BF;enable-background:new    ;}
	.st18{opacity:0.8571;fill:#97AFBB;enable-background:new    ;}
	.st19{opacity:0.9048;fill:#92ABB8;enable-background:new    ;}
	.st20{opacity:0.9524;fill:#8CA6B4;enable-background:new    ;}
	.st21{fill:#86A2B0;}
	.st22{fill:#FFE3AB;}
	.st23{fill:url(#SVGID_1_);}
	.st24{fill:url(#SVGID_00000178901621340302022920000005431218458790057890_);}
	.st25{fill:url(#SVGID_00000026145091843847057940000009868014375779642027_);}
	.st26{fill:url(#SVGID_00000115486025213174342310000006501554829483415964_);}
	.st27{fill:url(#SVGID_00000054238257637301901780000002415589909285127337_);}
	.st28{fill:url(#SVGID_00000036952002446946232130000014327558810981332918_);}
	.st29{fill:url(#SVGID_00000062151351952326778740000001873772452327967895_);}
	.st30{fill:url(#SVGID_00000113327213155581603300000017810593762603841209_);}
	.st31{fill:url(#SVGID_00000134230778746682027870000013307624737778069130_);}
	.st32{fill:url(#SVGID_00000113312616599203150390000002897972892906737334_);}
	.st33{fill:url(#SVGID_00000142866955792985357120000001256456735192609153_);}
	.st34{fill:url(#SVGID_00000042727217859127669080000014976478261868162725_);}
	.st35{fill:url(#SVGID_00000045620890590409165810000011010857099363931010_);}
	.st36{fill:url(#SVGID_00000155857284561303798200000017965903946895606704_);}
	.st37{fill:url(#SVGID_00000181083941739324012240000005048702287527519128_);}
	.st38{fill:url(#SVGID_00000121958598805118634450000007394074026708891305_);}
	.st39{fill:url(#SVGID_00000091715896929510776670000013758135484842748336_);}
	.st40{opacity:9.523810e-02;fill:#F4F6F8;enable-background:new    ;}
	.st41{opacity:0.1905;fill:#E9EDF1;enable-background:new    ;}
	.st42{opacity:0.2381;fill:#E3E9ED;enable-background:new    ;}
	.st43{opacity:0.2857;fill:#DEE5EA;enable-background:new    ;}
	.st44{opacity:0.3333;fill:#D8E0E6;enable-background:new    ;}
	.st45{opacity:0.381;fill:#D3DCE3;enable-background:new    ;}
	.st46{opacity:0.4286;fill:#CDD8DF;enable-background:new    ;}
	.st47{opacity:0.4762;fill:#C8D3DC;enable-background:new    ;}
	.st48{opacity:0.5238;fill:#C2CFD8;enable-background:new    ;}
	.st49{opacity:0.5714;fill:#BDCAD5;enable-background:new    ;}
	.st50{opacity:0.619;fill:#B7C6D1;enable-background:new    ;}
	.st51{opacity:0.6667;fill:#B2C2CE;enable-background:new    ;}
	.st52{opacity:0.7143;fill:#ACBDCA;enable-background:new    ;}
	.st53{opacity:0.7619;fill:#A7B9C7;enable-background:new    ;}
	.st54{opacity:0.8095;fill:#A1B5C3;enable-background:new    ;}
	.st55{opacity:0.8571;fill:#9CB0C0;enable-background:new    ;}
	.st56{opacity:0.9048;fill:#96ACBC;enable-background:new    ;}
	.st57{opacity:0.9524;fill:#91A7B9;enable-background:new    ;}
	.st58{fill:#8BA3B5;}
	.st59{fill:#FFFFFF;}
	.st60{fill:#E9F2F5;}
</style>
<g>
	<g>
		<g>
			<g>
				<path class="st0" d="M32.1,18.3c-2.2-0.9-2.4-3.1-0.4-4.9c1.1-0.9,2.7-1.6,4.7-1.3c2.2,0.4,3.1,2,1.6,4
					C36.6,18,34.1,19.2,32.1,18.3z"/>
				<path class="st1" d="M32.1,18.3c-2.2-0.7-2.4-3.1-0.4-4.7c1.1-0.9,2.7-1.5,4.5-1.3c2.2,0.4,2.9,2,1.6,3.8
					C36.6,17.8,34.1,19.1,32.1,18.3z"/>
				<path class="st2" d="M32.3,18.1c-2.2-0.7-2.2-2.9-0.4-4.7c1.1-0.9,2.7-1.5,4.5-1.3c2,0.4,2.9,2,1.5,3.6
					C36.6,17.8,34.1,18.9,32.3,18.1z"/>
				<path class="st3" d="M32.3,18.1c-2-0.7-2.2-2.9-0.4-4.5c1.1-0.9,2.5-1.5,4.4-1.1c2,0.4,2.7,1.8,1.5,3.6
					C36.5,17.6,34.3,18.7,32.3,18.1z"/>
				<path class="st4" d="M32.5,18c-2-0.7-2.2-2.7-0.4-4.4c1.1-0.9,2.5-1.5,4.4-1.1c1.8,0.4,2.7,1.8,1.3,3.5
					C36.5,17.6,34.3,18.7,32.5,18z"/>
				<path class="st5" d="M32.5,18c-2-0.5-2.2-2.7-0.4-4.2c1.1-0.9,2.5-1.3,4.2-1.1c1.8,0.2,2.5,1.6,1.3,3.5
					C36.5,17.4,34.3,18.5,32.5,18z"/>
				<path class="st6" d="M32.5,17.8c-2-0.5-2-2.5-0.4-4c1.1-0.9,2.5-1.3,4.2-1.1c1.8,0.2,2.5,1.6,1.3,3.3
					C36.3,17.4,34.3,18.3,32.5,17.8z"/>
				<path class="st7" d="M32.6,17.8c-2-0.5-2-2.5-0.4-4c1.1-0.9,2.5-1.3,4-1.1c1.6,0.2,2.4,1.6,1.1,3.1
					C36.3,17.2,34.3,18.1,32.6,17.8z"/>
				<path class="st8" d="M32.6,17.6c-1.8-0.5-2-2.4-0.4-3.8c1.1-0.9,2.5-1.3,4-1.1c1.6,0.2,2.4,1.5,1.1,3.1
					C36.3,17.2,34.3,18,32.6,17.6z"/>
				<path class="st9" d="M32.8,17.4c-1.8-0.4-2-2.4-0.4-3.6c1.1-0.9,2.5-1.1,3.8-0.9c1.5,0.2,2.2,1.5,0.9,2.9
					C36.1,17.1,34.5,18,32.8,17.4z"/>
				<path class="st10" d="M32.8,17.4C31,17.1,31,15.2,32.5,14c1.1-0.9,2.4-1.1,3.8-0.9s2.2,1.5,0.9,2.9
					C36.1,17.1,34.5,17.8,32.8,17.4z"/>
				<path class="st11" d="M32.8,17.2C31,16.9,31,15,32.5,14c1.1-0.7,2.4-1.1,3.6-0.9c1.5,0.2,2,1.3,0.9,2.7
					C36.1,16.9,34.5,17.6,32.8,17.2z"/>
				<path class="st12" d="M33,17.2c-1.8-0.4-1.8-2-0.4-3.1c1.1-0.9,2.4-1.3,3.5-1.1c1.5,0.2,2,1.3,0.7,2.7
					C35.9,16.9,34.5,17.4,33,17.2z"/>
				<path class="st13" d="M33,17.1c-1.6-0.2-1.6-2-0.4-2.9c1.1-0.9,2.4-1.1,3.5-0.9c1.3,0.2,1.8,1.3,0.7,2.5
					C35.9,16.7,34.5,17.2,33,17.1z"/>
				<path class="st14" d="M33.2,17.1c-1.6-0.2-1.6-1.8-0.4-2.9c1.1-0.7,2.4-0.9,3.3-0.9c1.3,0.2,1.8,1.1,0.5,2.4
					C35.9,16.7,34.6,17.2,33.2,17.1z"/>
				<path class="st15" d="M33.2,16.9c-1.6-0.2-1.6-1.8-0.4-2.7c1.1-0.7,2.4-0.9,3.3-0.9c1.1,0.2,1.6,1.1,0.5,2.4
					C35.7,16.5,34.6,17.1,33.2,16.9z"/>
				<path class="st16" d="M33.4,16.7c-1.6-0.2-1.6-1.6-0.4-2.5c1.1-0.7,2.4-0.9,3.1-0.7c1.1,0.2,1.6,0.9,0.4,2.2
					C35.7,16.5,34.6,16.9,33.4,16.7z"/>
				<path class="st17" d="M33.4,16.7c-1.6,0-1.6-1.6-0.4-2.4c1.1-0.7,2.2-0.9,3.1-0.7c0.9,0,1.5,0.9,0.4,2
					C35.7,16.3,34.6,16.7,33.4,16.7z"/>
				<path class="st18" d="M33.4,16.5c-1.5,0-1.5-1.5-0.4-2.2c1.1-0.7,2.2-0.7,2.9-0.7c0.9,0,1.5,0.9,0.4,2
					C35.6,16.3,34.6,16.5,33.4,16.5z"/>
				<path class="st19" d="M33.6,16.5c-1.5,0-1.5-1.5-0.4-2.2c1.1-0.7,2.2-0.7,2.9-0.7c0.9,0,1.3,0.7,0.2,1.8
					C35.6,16.1,34.6,16.5,33.6,16.5z"/>
				<path class="st20" d="M33.6,16.3c-1.5,0-1.5-1.3-0.4-2c1.1-0.5,2.2-0.7,2.7-0.7c0.7,0,1.3,0.7,0.2,1.8
					C35.6,16.1,34.8,16.3,33.6,16.3z"/>
				<path class="st21" d="M33.7,16.3c-1.5,0.2-1.5-1.3-0.4-1.8c1.1-0.5,2.2-0.7,2.7-0.7c0.7,0,1.1,0.7,0,1.6
					C35.4,16,34.8,16.1,33.7,16.3z"/>
			</g>
			<g>
				<path class="st0" d="M29.5,12.7c-2.2,0.9-4.4-0.9-4.2-3.6c0-1.5,0.7-3.1,2.4-4.2c1.8-1.3,4.2,0.2,4.5,2.5
					C32.5,9.6,31.5,11.8,29.5,12.7z"/>
				<path class="st1" d="M29.4,12.5c-2,0.9-4.2-0.7-4-3.5c0-1.5,0.9-2.9,2.4-4.2c1.6-1.3,4,0.2,4.4,2.4
					C32.3,9.4,31.4,11.6,29.4,12.5z"/>
				<path class="st2" d="M29.4,12.3c-2,0.9-4-0.7-4-3.3c0-1.5,0.9-2.9,2.4-4c1.6-1.3,3.8,0.2,4.2,2.4C32.3,9.4,31.2,11.4,29.4,12.3z
					"/>
				<path class="st3" d="M29.4,12.1c-2,1.1-4-0.7-3.8-3.1c0-1.5,0.9-2.9,2.4-4c1.6-1.3,3.8,0,4,2.4C32.1,9.4,31.2,11.2,29.4,12.1z"
					/>
				<path class="st4" d="M29.4,12c-1.8,0.9-3.8-0.7-3.6-3.1c0-1.5,0.9-2.9,2.2-3.8c1.5-1.1,3.6,0,3.8,2.2C31.9,9.2,31,11,29.4,12z"
					/>
				<path class="st5" d="M29.2,12c-1.8,0.9-3.6-0.5-3.6-2.9c0.2-1.5,0.9-2.7,2.2-3.8c1.5-1.1,3.5,0,3.6,2.2C31.7,9.2,31,11,29.2,12z
					"/>
				<path class="st6" d="M29.2,11.8c-1.8,0.9-3.6-0.5-3.5-2.9c0.2-1.3,0.9-2.7,2.2-3.6c1.5-1.1,3.3,0,3.5,2
					C31.7,9.2,30.8,10.9,29.2,11.8z"/>
				<path class="st7" d="M29.2,11.6c-1.6,0.9-3.5-0.5-3.3-2.7c0.2-1.3,0.9-2.7,2.2-3.6c1.3-1.1,3.3,0,3.5,2
					C31.5,9,30.8,10.7,29.2,11.6z"/>
				<path class="st8" d="M29.2,11.4c-1.6,1.1-3.5-0.5-3.3-2.5c0.2-1.3,0.9-2.7,2-3.5c1.3-0.9,3.1,0,3.3,2
					C31.4,9,30.6,10.5,29.2,11.4z"/>
				<path class="st9" d="M29.2,11.4c-1.6,1.1-3.3-0.4-3.1-2.5c0.2-1.3,0.9-2.5,2-3.5c1.3-0.9,2.9,0,3.1,1.8
					C31.2,9,30.6,10.5,29.2,11.4z"/>
				<path class="st10" d="M29,11.2c-1.6,1.1-3.1-0.4-2.9-2.4c0.2-1.3,0.9-2.5,2-3.3c1.1-0.9,2.7,0,2.9,1.8
					C31.2,8.9,30.5,10.3,29,11.2z"/>
				<path class="st11" d="M29,11c-1.5,1.1-3.1-0.4-2.7-2.2c0.2-1.3,0.9-2.5,1.8-3.3c1.1-0.9,2.5-0.2,2.7,1.8C31,8.9,30.3,10.1,29,11
					z"/>
				<path class="st12" d="M29,10.9c-1.5,1.1-2.9-0.4-2.7-2.2c0.2-1.3,0.9-2.4,1.8-3.1c1.1-0.9,2.5-0.2,2.5,1.6
					C30.8,8.9,30.3,10,29,10.9z"/>
				<path class="st13" d="M29,10.7c-1.5,1.1-2.7-0.2-2.5-2c0.2-1.3,0.9-2.4,1.8-3.1c1.1-0.7,2.4-0.2,2.4,1.6
					C30.6,8.7,30.1,10,29,10.7z"/>
				<path class="st14" d="M29,10.7c-1.3,1.1-2.7-0.2-2.4-1.8c0.2-1.3,0.9-2.4,1.8-2.9c0.9-0.7,2.2-0.2,2.4,1.6
					C30.6,8.7,30.1,9.8,29,10.7z"/>
				<path class="st15" d="M28.8,10.5c-1.3,1.1-2.5-0.2-2.4-1.8c0.2-1.3,0.9-2.4,1.6-2.9c0.9-0.7,2-0.2,2.2,1.5
					C30.5,8.5,29.9,9.6,28.8,10.5z"/>
				<path class="st16" d="M28.8,10.3c-1.3,1.1-2.4-0.2-2.2-1.6c0.2-1.3,1.1-2.2,1.6-2.7c0.9-0.7,2-0.2,2,1.5
					C30.3,8.5,29.9,9.4,28.8,10.3z"/>
				<path class="st17" d="M28.8,10.1c-1.1,1.1-2.4,0-2-1.5C27,7.4,27.7,6.5,28.3,6c0.7-0.7,1.8-0.2,1.8,1.5
					C30.3,8.5,29.7,9.4,28.8,10.1z"/>
				<path class="st18" d="M28.8,10.1c-1.1,1.1-2.2,0-2-1.5c0.2-1.3,1.1-2.2,1.6-2.5c0.7-0.5,1.6-0.4,1.6,1.3
					C30.1,8.3,29.7,9.2,28.8,10.1z"/>
				<path class="st19" d="M28.6,10c-1.1,1.1-2,0-1.8-1.3s1.1-2.2,1.5-2.5c0.7-0.5,1.6-0.4,1.5,1.3C29.9,8.3,29.5,9,28.6,10z"/>
				<path class="st20" d="M28.6,9.8c-0.9,1.1-2,0-1.6-1.1c0.4-1.1,1.1-2,1.5-2.4C29,5.8,29.9,6,29.9,7.6C29.7,8.3,29.4,8.9,28.6,9.8
					z"/>
				<path class="st21" d="M28.6,9.6c-0.9,1.1-1.8,0.2-1.5-1.1c0.4-1.1,1.1-2,1.5-2.4c0.5-0.5,1.3-0.4,1.3,1.1
					C29.7,8.1,29.4,8.9,28.6,9.6z"/>
			</g>
			<g>
				<path class="st0" d="M22.8,10.1c-0.7,2.2-2.9,2.5-4.9,0.7c-1.1-1.1-1.8-2.7-1.6-4.7C16.4,3.9,19,3.6,21,4.9
					C22.8,6.1,23.4,8,22.8,10.1z"/>
				<path class="st1" d="M22.6,10c-0.5,2.2-2.9,2.5-4.7,0.7c-1.1-0.9-1.6-2.5-1.6-4.5c0.2-2.2,2.5-2.4,4.5-1.1
					C22.6,6.1,23.2,8,22.6,10z"/>
				<path class="st2" d="M22.4,10c-0.5,2.2-2.7,2.4-4.5,0.7c-1.1-1.1-1.6-2.7-1.5-4.5c0.2-2,2.5-2.4,4.4-1.1C22.6,6.3,23,8,22.4,10z
					"/>
				<path class="st3" d="M22.4,9.8c-0.5,2.2-2.7,2.4-4.4,0.7C17,9.6,16.3,8,16.4,6.1c0.2-2,2.4-2.4,4.2-1.1C22.4,6.3,23,8,22.4,9.8z
					"/>
				<path class="st4" d="M22.3,9.8c-0.5,2-2.5,2.4-4.4,0.7C17,9.4,16.4,8,16.6,6.1c0.2-2,2.4-2.2,4-1.1C22.3,6.3,22.8,8,22.3,9.8z"
					/>
				<path class="st5" d="M22.3,9.8c-0.5,2-2.5,2.4-4.2,0.7C17,9.4,16.4,8,16.6,6.1c0.2-1.8,2.2-2.2,4-0.9
					C22.1,6.3,22.6,7.8,22.3,9.8z"/>
				<path class="st6" d="M22.1,9.6c-0.4,2-2.4,2.2-4,0.5c-0.9-0.9-1.5-2.4-1.3-4c0-1.6,2-2,3.6-0.9S22.4,7.8,22.1,9.6z"/>
				<path class="st7" d="M21.9,9.6c-0.4,2-2.4,2.2-3.8,0.5c-0.9-0.9-1.5-2.4-1.3-3.8c0.2-1.6,2-2,3.6-0.9
					C21.9,6.5,22.3,7.8,21.9,9.6z"/>
				<path class="st8" d="M21.9,9.6c-0.4,2-2.2,2.2-3.6,0.5c-1.1-0.9-1.5-2.4-1.5-3.8c0.2-1.6,1.8-2,3.5-0.9
					C21.7,6.5,22.3,7.8,21.9,9.6z"/>
				<path class="st9" d="M21.7,9.4c-0.4,1.8-2.2,2.2-3.6,0.5C17.4,9,16.8,7.6,17,6.3c0.2-1.6,1.8-2,3.3-0.7
					C21.7,6.5,22.1,7.8,21.7,9.4z"/>
				<path class="st10" d="M21.7,9.4c-0.2,1.8-2,2-3.5,0.5C17.4,9,17,7.6,17,6.3c0-1.5,1.6-1.8,3.3-0.7C21.5,6.5,21.9,7.8,21.7,9.4z"
					/>
				<path class="st11" d="M21.5,9.2c-0.2,1.8-2,2-3.3,0.5C17.4,8.9,17,7.4,17,6.1c0-1.5,1.6-1.8,3.1-0.7C21.4,6.5,21.7,7.8,21.5,9.2
					z"/>
				<path class="st12" d="M21.5,9.2c-0.2,1.8-1.8,2-3.1,0.5c-0.9-0.9-1.3-2.4-1.3-3.5c0-1.3,1.5-1.8,2.9-0.5
					C21.2,6.5,21.5,7.8,21.5,9.2z"/>
				<path class="st13" d="M21.4,9.2c-0.2,1.6-1.8,1.8-2.9,0.5c-0.9-1.1-1.3-2.4-1.3-3.5c0-1.3,1.5-1.6,2.7-0.5
					C21.2,6.7,21.5,7.6,21.4,9.2z"/>
				<path class="st14" d="M21.2,9c-0.2,1.6-1.8,1.8-2.9,0.5c-0.7-0.9-0.9-2.2-0.9-3.3c0-1.3,1.3-1.6,2.7-0.5C21,6.7,21.4,7.6,21.2,9
					z"/>
				<path class="st15" d="M21.2,9c0,1.6-1.6,1.8-2.7,0.5c-0.7-1.1-1.1-2.4-1.1-3.3c0-1.1,1.3-1.6,2.5-0.5C20.8,6.7,21.2,7.6,21.2,9z
					"/>
				<path class="st16" d="M21,9c0,1.6-1.6,1.8-2.5,0.5c-0.7-1.1-0.9-2.4-0.9-3.3c0-1.1,1.1-1.5,2.4-0.4C20.8,6.7,21,7.6,21,9z"/>
				<path class="st17" d="M21,8.9c0,1.6-1.5,1.6-2.4,0.5c-0.9-0.9-1.1-2.2-1.1-3.1c0-1.1,0.9-1.5,2.2-0.4C20.6,6.7,20.8,7.6,21,8.9z
					"/>
				<path class="st18" d="M20.8,8.9c0,1.5-1.5,1.6-2.2,0.5c-0.7-1.1-0.9-2.2-0.9-2.9c0-0.9,0.9-1.5,2-0.4
					C20.4,6.7,20.8,7.6,20.8,8.9z"/>
				<path class="st19" d="M20.6,8.7c0.2,1.5-1.3,1.6-2,0.5c-0.7-0.9-0.9-2.2-0.9-2.7c0-0.9,0.7-1.3,2-0.4
					C20.3,6.9,20.6,7.6,20.6,8.7z"/>
				<path class="st20" d="M20.6,8.7c0.2,1.5-1.3,1.5-2,0.5c-0.7-1.1-0.9-2.2-0.9-2.7c0-0.7,0.7-1.3,1.8-0.2
					C20.3,6.9,20.4,7.6,20.6,8.7z"/>
				<path class="st21" d="M20.4,8.7c0.2,1.5-1.1,1.5-1.8,0.5c-0.5-1.1-0.7-2.2-0.7-2.7c0-0.7,0.5-1.3,1.6-0.2
					C20.1,6.9,20.3,7.6,20.4,8.7z"/>
			</g>
			<g>
				<path class="st0" d="M30.5,25.1c-1.1-2,0.4-3.8,3.1-4c1.5,0,3.1,0.7,4.4,2.2c1.5,1.6,0.9,3.6-1.3,4
					C34.1,27.8,31.4,27.1,30.5,25.1z"/>
				<path class="st1" d="M30.5,25.1c-1.1-2,0.4-3.8,2.9-3.8c1.5,0,3.1,0.7,4.2,2.2c1.3,1.6,0.9,3.5-1.3,3.8
					C34.1,27.6,31.5,26.9,30.5,25.1z"/>
				<path class="st2" d="M30.6,25.1c-1.1-2,0.2-3.6,2.7-3.6c1.5,0,2.9,0.7,4.2,2.2c1.3,1.6,0.9,3.5-1.3,3.8
					C34.1,27.6,31.5,26.9,30.6,25.1z"/>
				<path class="st3" d="M30.8,24.9c-1.1-1.8,0.2-3.6,2.7-3.6c1.5,0,2.9,0.7,4,2c1.3,1.5,0.9,3.3-1.3,3.6
					C34.3,27.4,31.7,26.7,30.8,24.9z"/>
				<path class="st4" d="M30.8,24.9c-1.1-1.8,0.2-3.5,2.5-3.5c1.5,0,2.9,0.7,4,2c1.3,1.5,0.9,3.1-1.3,3.5
					C34.3,27.2,31.9,26.7,30.8,24.9z"/>
				<path class="st5" d="M31,24.9c-1.1-1.8,0.2-3.5,2.5-3.5c1.5,0,2.9,0.7,3.8,2c1.3,1.5,0.7,3.1-1.3,3.5
					C34.3,27.2,31.9,26.5,31,24.9z"/>
				<path class="st6" d="M31.2,24.9c-1.1-1.8,0.2-3.3,2.4-3.3c1.3,0,2.7,0.7,3.8,2c1.1,1.3,0.7,2.9-1.3,3.3
					C34.3,27.1,32.1,26.5,31.2,24.9z"/>
				<path class="st7" d="M31.2,24.9c-1.1-1.6,0.2-3.3,2.4-3.1c1.3,0,2.7,0.7,3.6,1.8c1.1,1.3,0.7,2.7-1.3,3.1
					C34.3,27.1,32.3,26.3,31.2,24.9z"/>
				<path class="st8" d="M31.4,24.9c-1.1-1.6,0.2-3.1,2.2-3.1c1.3,0,2.7,0.7,3.6,1.8c1.1,1.3,0.7,2.7-1.3,2.9
					C34.3,26.9,32.3,26.3,31.4,24.9z"/>
				<path class="st9" d="M31.5,24.9c-1.1-1.6,0-3.1,2.2-2.9c1.3,0,2.5,0.7,3.5,1.8c1.1,1.3,0.7,2.5-1.3,2.9
					C34.3,26.7,32.5,26.2,31.5,24.9z"/>
				<path class="st10" d="M31.5,24.7c-1.1-1.5,0-2.9,2-2.9c1.3,0,2.5,0.7,3.5,1.8c0.9,1.1,0.7,2.5-1.3,2.7
					C34.3,26.7,32.6,26.2,31.5,24.7z"/>
				<path class="st11" d="M31.7,24.7c-1.1-1.5,0-2.9,2-2.7c1.3,0,2.5,0.7,3.3,1.6c0.9,1.1,0.7,2.4-1.3,2.5
					C34.3,26.5,32.6,26,31.7,24.7z"/>
				<path class="st12" d="M31.9,24.7c-1.1-1.5,0-2.7,1.8-2.5c1.3,0.2,2.5,0.7,3.3,1.6c0.9,1.1,0.5,2.2-1.1,2.5
					C34.3,26.5,32.8,26,31.9,24.7z"/>
				<path class="st13" d="M31.9,24.7c-1.1-1.3,0-2.7,1.8-2.5c1.3,0.2,2.4,0.7,3.1,1.6c0.9,0.9,0.5,2.2-1.1,2.4
					C34.3,26.3,33,25.8,31.9,24.7z"/>
				<path class="st14" d="M32.1,24.7c-1.1-1.3,0-2.5,1.6-2.4c1.3,0.2,2.4,0.9,3.1,1.6c0.7,0.9,0.5,2-1.1,2.2
					C34.5,26.2,33,25.8,32.1,24.7z"/>
				<path class="st15" d="M32.3,24.7c-1.1-1.3,0-2.4,1.5-2.2c1.3,0.2,2.4,0.9,2.9,1.5c0.7,0.9,0.5,2-1.1,2
					C34.5,26.2,33.2,25.6,32.3,24.7z"/>
				<path class="st16" d="M32.3,24.7c-1.1-1.1-0.2-2.4,1.5-2.2c1.3,0.2,2.4,0.9,2.9,1.5c0.7,0.7,0.5,1.8-1.1,2
					C34.5,26,33.4,25.6,32.3,24.7z"/>
				<path class="st17" d="M32.5,24.5c-1.1-1.1-0.2-2.2,1.3-2c1.3,0.2,2.2,0.9,2.7,1.5c0.7,0.7,0.5,1.6-1.1,1.8
					C34.5,26,33.4,25.4,32.5,24.5z"/>
				<path class="st18" d="M32.6,24.5c-1.1-1.1-0.2-2.2,1.3-2c1.3,0.2,2.2,0.9,2.7,1.5c0.7,0.7,0.5,1.6-1.1,1.6
					C34.5,25.8,33.6,25.4,32.6,24.5z"/>
				<path class="st19" d="M32.8,24.5c-1.1-0.9-0.2-2,1.1-1.8s2.2,0.9,2.5,1.3c0.5,0.5,0.5,1.5-1.1,1.6
					C34.5,25.6,33.6,25.2,32.8,24.5z"/>
				<path class="st20" d="M32.8,24.5c-1.1-0.9-0.2-2,1.1-1.6c1.3,0.2,2.2,0.9,2.5,1.3c0.5,0.5,0.4,1.5-1.1,1.5
					C34.5,25.6,33.7,25.2,32.8,24.5z"/>
				<path class="st21" d="M33,24.5c-1.1-0.9-0.2-1.8,0.9-1.6s2,0.9,2.4,1.3c0.5,0.5,0.4,1.3-1.1,1.3C34.5,25.4,33.9,25.2,33,24.5z"
					/>
			</g>
			<g>
				<path class="st0" d="M25,28.3c0.7-2.2,2.9-2.5,4.9-0.5c1.1,0.9,1.6,2.7,1.5,4.7c-0.2,2.2-1.8,3.3-3.8,1.8
					C25.7,33.1,24.3,30.5,25,28.3z"/>
				<path class="st1" d="M25.2,28.3c0.7-2.2,2.9-2.4,4.7-0.5c1.1,0.9,1.6,2.5,1.5,4.5c-0.2,2.2-1.8,3.1-3.6,1.8
					C25.7,32.9,24.5,30.5,25.2,28.3z"/>
				<path class="st2" d="M25.2,28.5c0.5-2.2,2.7-2.4,4.5-0.5c0.9,0.9,1.6,2.5,1.5,4.4c-0.2,2-1.8,3.1-3.6,1.6
					C25.9,32.9,24.6,30.5,25.2,28.5z"/>
				<path class="st3" d="M25.4,28.5c0.5-2.2,2.7-2.4,4.5-0.5c0.9,0.9,1.5,2.5,1.3,4.4c-0.2,2-1.6,2.9-3.5,1.6
					C25.9,32.7,24.8,30.5,25.4,28.5z"/>
				<path class="st4" d="M25.4,28.5c0.5-2,2.7-2.4,4.4-0.5c0.9,0.9,1.5,2.5,1.3,4.2c-0.2,2-1.6,2.9-3.5,1.6
					C26.1,32.7,24.8,30.5,25.4,28.5z"/>
				<path class="st5" d="M25.4,28.5c0.5-2,2.5-2.2,4.2-0.5c0.9,0.9,1.5,2.4,1.3,4.2c-0.2,1.8-1.6,2.7-3.3,1.5
					C26.1,32.5,25,30.5,25.4,28.5z"/>
				<path class="st6" d="M25.5,28.7c0.5-2,2.5-2.2,4-0.5c0.9,0.9,1.5,2.4,1.3,4c-0.2,1.8-1.6,2.7-3.3,1.5
					C26.1,32.5,25.2,30.5,25.5,28.7z"/>
				<path class="st7" d="M25.5,28.7c0.4-2,2.4-2.2,4-0.5c0.9,0.9,1.3,2.4,1.3,3.8c-0.2,1.6-1.5,2.5-3.1,1.5
					C26.3,32.3,25.2,30.5,25.5,28.7z"/>
				<path class="st8" d="M25.7,28.7c0.4-2,2.4-2,3.8-0.5c0.9,0.9,1.3,2.4,1.1,3.8c-0.2,1.6-1.5,2.5-3.1,1.3
					C26.3,32.2,25.4,30.5,25.7,28.7z"/>
				<path class="st9" d="M25.7,28.7c0.4-1.8,2.4-2,3.6-0.5c0.9,0.9,1.3,2.2,1.1,3.6c-0.2,1.6-1.5,2.4-2.9,1.3
					C26.3,32.2,25.5,30.5,25.7,28.7z"/>
				<path class="st10" d="M25.9,28.9c0.4-1.8,2.2-2,3.5-0.5c0.9,0.9,1.3,2.2,1.1,3.5c-0.2,1.5-1.3,2.4-2.9,1.1
					C26.5,32,25.5,30.5,25.9,28.9z"/>
				<path class="st11" d="M25.9,28.9c0.2-1.8,2.2-2,3.5-0.5c0.9,0.9,1.1,2.2,1.1,3.5c-0.2,1.5-1.3,2.2-2.7,1.1
					C26.5,32,25.7,30.5,25.9,28.9z"/>
				<path class="st12" d="M26.1,28.9c0.2-1.8,2-1.8,3.3-0.4c0.9,0.9,1.1,2.2,1.1,3.3c-0.2,1.3-1.3,2.2-2.7,1.1
					C26.6,31.8,25.9,30.5,26.1,28.9z"/>
				<path class="st13" d="M26.1,28.9c0.2-1.6,2-1.8,3.1-0.4c0.7,0.9,1.1,2,0.9,3.1c0,1.3-1.1,2.2-2.5,0.9
					C26.6,31.8,25.9,30.5,26.1,28.9z"/>
				<path class="st14" d="M26.3,29.1c0.2-1.6,2-1.8,2.9-0.4c0.7,0.9,1.1,2,0.9,3.1c0,1.3-1.1,2-2.5,0.9
					C26.6,31.6,26.1,30.5,26.3,29.1z"/>
				<path class="st15" d="M26.3,29.1c0-1.6,1.8-1.6,2.9-0.4c0.7,0.9,0.9,2,0.9,2.9c0,1.1-1.1,2-2.4,0.9
					C26.8,31.6,26.3,30.3,26.3,29.1z"/>
				<path class="st16" d="M26.5,29.1c0-1.6,1.8-1.6,2.7-0.4c0.7,0.9,0.9,2,0.9,2.9c0,1.1-1.1,1.8-2.2,0.7
					C26.8,31.4,26.3,30.3,26.5,29.1z"/>
				<path class="st17" d="M26.5,29.1c0-1.6,1.6-1.6,2.5-0.4c0.7,0.9,0.9,2,0.9,2.7c0,1.1-0.9,1.8-2.2,0.7
					C26.8,31.4,26.5,30.3,26.5,29.1z"/>
				<path class="st18" d="M26.6,29.2c0-1.5,1.6-1.5,2.4-0.4c0.7,0.9,0.9,1.8,0.7,2.5c0,0.9-0.9,1.6-2,0.5
					C27,31.2,26.6,30.3,26.6,29.2z"/>
				<path class="st19" d="M26.6,29.2c-0.2-1.5,1.5-1.5,2.4-0.4c0.7,1.1,0.7,1.8,0.7,2.5c0,0.9-0.9,1.6-2,0.5
					C27,31.2,26.6,30.3,26.6,29.2z"/>
				<path class="st20" d="M26.6,29.2c-0.2-1.5,1.5-1.5,2.2-0.4c0.7,1.1,0.7,1.8,0.7,2.4c0,0.7-0.7,1.5-1.8,0.5
					C27.2,31.1,26.8,30.3,26.6,29.2z"/>
				<path class="st21" d="M26.8,29.2c-0.2-1.5,1.5-1.3,2-0.4c0.7,1.1,0.7,1.8,0.7,2.2c0,0.7-0.7,1.5-1.8,0.4
					C27.2,31.1,27,30.3,26.8,29.2z"/>
			</g>
			<g>
				<path class="st0" d="M18.4,27.4c2-1.1,3.8,0.2,4,2.9c0.2,1.5-0.5,3.1-2,4.5c-1.6,1.5-3.5,1.1-4-1.3
					C15.9,31.2,16.6,28.5,18.4,27.4z"/>
				<path class="st1" d="M18.4,27.4c2-1.1,3.8,0.2,4,2.7c0.2,1.5-0.5,3.1-2,4.4c-1.6,1.5-3.5,1.1-4-1.1
					C15.9,31.2,16.6,28.5,18.4,27.4z"/>
				<path class="st2" d="M18.4,27.4c1.8-1.1,3.6,0,3.8,2.7c0,1.5-0.5,3.1-2,4.2c-1.5,1.5-3.3,1.1-3.8-1.1
					C16.1,31.2,16.6,28.5,18.4,27.4z"/>
				<path class="st3" d="M18.4,27.6c1.8-1.1,3.5,0,3.6,2.5c0,1.5-0.5,2.9-1.8,4.2c-1.5,1.3-3.3,1.1-3.6-1.1
					C16.3,31.1,16.8,28.7,18.4,27.6z"/>
				<path class="st4" d="M18.4,27.6c1.8-1.1,3.5,0,3.6,2.4c0,1.5-0.5,2.9-1.8,4c-1.5,1.3-3.1,1.1-3.6-1.1
					C16.3,31.1,16.8,28.7,18.4,27.6z"/>
				<path class="st5" d="M18.4,27.8c1.6-1.1,3.3,0,3.5,2.4c0,1.3-0.5,2.9-1.8,4c-1.3,1.1-2.9,0.9-3.3-1.1
					C16.4,31.1,17,28.7,18.4,27.8z"/>
				<path class="st6" d="M18.6,27.8c1.6-1.1,3.3,0,3.3,2.2c0,1.3-0.5,2.7-1.6,3.8c-1.3,1.3-2.9,0.9-3.3-1.1
					C16.4,31.1,17,28.9,18.6,27.8z"/>
				<path class="st7" d="M18.6,28c1.5-0.9,3.1-0.2,3.3,2.2c0,1.3-0.5,2.7-1.6,3.8c-1.3,1.1-2.7,0.9-3.1-1.1
					C16.6,31.1,17.2,28.9,18.6,28z"/>
				<path class="st8" d="M18.6,28c1.5-0.9,2.9-0.2,3.1,2c0,1.3-0.5,2.7-1.6,3.6c-1.3,1.1-2.7,0.9-3.1-1.1
					C16.6,31.1,17.2,28.9,18.6,28z"/>
				<path class="st9" d="M18.6,28.2c1.5-0.9,2.9-0.2,2.9,1.8c0,1.3-0.5,2.7-1.6,3.6c-1.1,1.1-2.5,0.9-2.9-1.1
					C16.8,30.9,17.4,29.1,18.6,28.2z"/>
				<path class="st10" d="M18.6,28.2c1.3-0.9,2.7-0.2,2.9,1.8c0,1.3-0.5,2.5-1.5,3.5c-1.1,1.1-2.4,0.9-2.7-1.1
					C16.8,30.9,17.4,29.1,18.6,28.2z"/>
				<path class="st11" d="M18.6,28.3c1.3-0.9,2.7-0.2,2.7,1.6c0,1.3-0.5,2.5-1.5,3.5c-1.1,0.9-2.4,0.9-2.7-0.9
					C17,30.9,17.5,29.1,18.6,28.3z"/>
				<path class="st12" d="M18.6,28.3c1.3-0.9,2.5-0.2,2.5,1.6c0,1.3-0.5,2.5-1.5,3.3c-0.9,0.9-2.2,0.9-2.5-0.9
					C17,30.9,17.5,29.2,18.6,28.3z"/>
				<path class="st13" d="M18.6,28.5c1.1-0.9,2.4-0.4,2.5,1.5c0,1.3-0.5,2.4-1.5,3.3c-0.9,0.9-2.2,0.9-2.4-0.9
					C17.2,30.9,17.7,29.2,18.6,28.5z"/>
				<path class="st14" d="M18.6,28.5c1.1-0.7,2.4-0.4,2.4,1.5c0,1.3-0.5,2.4-1.3,3.1c-0.9,0.9-2,0.7-2.2-0.9
					C17.4,30.9,17.7,29.2,18.6,28.5z"/>
				<path class="st15" d="M18.6,28.7c0.9-0.7,2.2-0.4,2.2,1.3c0,1.3-0.5,2.4-1.3,3.1c-0.7,0.7-2,0.7-2.2-0.9
					C17.4,30.7,17.7,29.2,18.6,28.7z"/>
				<path class="st16" d="M18.8,28.7c0.9-0.7,2-0.4,2.2,1.1c0,1.3-0.7,2.4-1.3,2.9c-0.7,0.7-1.8,0.7-2-0.9
					C17.5,30.7,17.9,29.4,18.8,28.7z"/>
				<path class="st17" d="M18.8,28.7c0.9-0.7,2-0.4,2,1.1c0,1.3-0.7,2.2-1.3,2.9c-0.7,0.7-1.6,0.7-1.8-0.9
					C17.5,30.7,17.9,29.4,18.8,28.7z"/>
				<path class="st18" d="M18.8,28.9c0.7-0.7,1.8-0.5,1.8,0.9c0,1.1-0.7,2.2-1.1,2.7c-0.7,0.7-1.6,0.7-1.8-0.9
					C17.7,30.7,18.1,29.4,18.8,28.9z"/>
				<path class="st19" d="M18.8,28.9c0.7-0.7,1.8-0.5,1.8,0.9c0,1.1-0.7,2.2-1.1,2.7c-0.5,0.5-1.5,0.7-1.6-0.9
					C17.7,30.7,18.1,29.6,18.8,28.9z"/>
				<path class="st20" d="M18.8,29.1c0.7-0.7,1.6-0.5,1.6,0.7c0,1.1-0.7,2.2-1.1,2.5c-0.5,0.5-1.5,0.7-1.5-0.9
					C17.9,30.5,18.3,29.6,18.8,29.1z"/>
				<path class="st21" d="M18.8,29.1c0.5-0.5,1.5-0.5,1.5,0.5s-0.7,2-1.1,2.4c-0.5,0.5-1.3,0.7-1.5-0.7
					C17.9,30.5,18.3,29.6,18.8,29.1z"/>
			</g>
			<g>
				<path class="st0" d="M14.4,21.6c2.4,0.4,2.9,2.2,1.5,4.4c-0.9,1.1-2.7,1.8-4.7,1.8C9,28,7.7,26.3,8.8,24.3
					C9.7,22.3,12.3,21.2,14.4,21.6z"/>
				<path class="st1" d="M14.4,21.6c2.2,0.4,2.9,2.2,1.3,4.4c-0.7,1.1-2.5,1.8-4.5,1.8C9,28,7.9,26.5,8.8,24.3
					C9.9,22.3,12.4,21.2,14.4,21.6z"/>
				<path class="st2" d="M14.4,21.6c2.2,0.4,2.7,2,1.3,4.2c-0.7,1.1-2.5,1.6-4.4,1.8c-2,0.2-3.3-1.3-2.2-3.3
					C9.9,22.5,12.4,21.4,14.4,21.6z"/>
				<path class="st3" d="M14.3,21.8c2.2,0.4,2.7,2,1.3,4c-0.7,1.1-2.5,1.6-4.4,1.8c-2,0.2-3.1-1.3-2.2-3.3
					C10.1,22.5,12.4,21.4,14.3,21.8z"/>
				<path class="st4" d="M14.3,21.8c2,0.2,2.7,1.8,1.3,3.8c-0.7,1.1-2.5,1.6-4.2,1.8c-1.8,0.2-3.1-1.1-2-3.1
					C10.1,22.5,12.4,21.6,14.3,21.8z"/>
				<path class="st5" d="M14.3,21.8c2,0.2,2.5,1.8,1.3,3.6c-0.7,1.1-2.4,1.6-4.2,1.6c-1.8,0.2-2.9-1.1-2-3.1
					C10.3,22.5,12.4,21.6,14.3,21.8z"/>
				<path class="st6" d="M14.3,22c1.8,0.2,2.5,1.6,1.3,3.6c-0.7,1.1-2.4,1.6-4,1.6c-1.8,0.2-2.9-1.1-1.8-2.9
					C10.4,22.5,12.4,21.8,14.3,22z"/>
				<path class="st7" d="M14.1,22c1.8,0.2,2.5,1.6,1.1,3.5c-0.7,1.1-2.4,1.6-3.8,1.6c-1.6,0.2-2.7-1.1-1.8-2.9
					C10.4,22.7,12.4,21.8,14.1,22z"/>
				<path class="st8" d="M14.1,22c1.8,0.2,2.4,1.5,1.1,3.3c-0.7,1.1-2.4,1.5-3.8,1.6c-1.5,0.2-2.5-0.9-1.6-2.7
					C10.6,22.7,12.4,22,14.1,22z"/>
				<path class="st9" d="M14.1,22.1c1.6,0.2,2.4,1.5,1.1,3.1c-0.7,1.1-2.4,1.5-3.6,1.6c-1.6,0-2.5-0.9-1.6-2.7
					C10.6,22.7,12.4,22,14.1,22.1z"/>
				<path class="st10" d="M13.9,22.1c1.6,0.2,2.4,1.3,1.1,2.9c-0.7,1.1-2.2,1.5-3.6,1.6c-1.5,0.2-2.4-0.9-1.5-2.5
					C10.8,22.7,12.4,22,13.9,22.1z"/>
				<path class="st11" d="M13.9,22.3c1.6,0,2.2,1.1,1.1,2.7c-0.7,1.1-2.2,1.5-3.5,1.6c-1.5,0.2-2.4-0.7-1.5-2.4
					C10.8,22.7,12.4,22.1,13.9,22.3z"/>
				<path class="st12" d="M13.9,22.3c1.5,0,2.2,1.1,1.1,2.5c-0.7,1.1-2.2,1.5-3.3,1.5c-1.3,0.2-2.2-0.7-1.3-2.4
					C11,22.9,12.4,22.1,13.9,22.3z"/>
				<path class="st13" d="M13.9,22.3c1.5,0,2,1.1,0.9,2.4c-0.7,0.9-2.2,1.5-3.3,1.5c-1.3,0.2-2.2-0.7-1.3-2.2
					C11,22.9,12.6,22.3,13.9,22.3z"/>
				<path class="st14" d="M13.7,22.5c1.3,0,2,0.9,0.9,2.4c-0.7,0.9-2.2,1.5-3.1,1.5c-1.3,0.2-2-0.7-1.1-2.2
					C11.2,22.9,12.6,22.3,13.7,22.5z"/>
				<path class="st15" d="M13.7,22.5c1.3,0,2,0.9,0.9,2.2c-0.7,0.9-2,1.3-2.9,1.3c-1.1,0.2-2-0.5-1.1-2
					C11.2,22.9,12.6,22.5,13.7,22.5z"/>
				<path class="st16" d="M13.7,22.5c1.3,0,1.8,0.7,0.9,2c-0.7,0.9-2,1.3-2.9,1.5c-1.1,0.2-1.8-0.5-0.9-2
					C11.3,22.9,12.6,22.5,13.7,22.5z"/>
				<path class="st17" d="M13.5,22.7c1.1,0,1.8,0.5,0.9,1.8c-0.7,0.9-2,1.3-2.7,1.5c-0.9,0.2-1.8-0.5-0.9-1.8
					C11.3,23.1,12.6,22.7,13.5,22.7z"/>
				<path class="st18" d="M13.5,22.7c1.1,0,1.6,0.5,0.9,1.6c-0.7,0.9-2,1.3-2.7,1.3c-0.9,0.2-1.6-0.5-0.9-1.8
					C11.5,23.1,12.6,22.7,13.5,22.7z"/>
				<path class="st19" d="M13.5,22.7c0.9,0,1.6,0.4,0.9,1.5c-0.7,0.9-1.8,1.3-2.5,1.3c-0.9,0.2-1.6-0.4-0.7-1.6
					C11.5,23.1,12.6,22.9,13.5,22.7z"/>
				<path class="st20" d="M13.5,22.9c0.9-0.2,1.5,0.2,0.7,1.3c-0.7,0.9-1.8,1.3-2.4,1.3c-0.7,0.2-1.5-0.4-0.7-1.6
					C11.7,23.1,12.6,22.9,13.5,22.9z"/>
				<path class="st21" d="M13.4,22.9c0.9-0.2,1.5,0.2,0.7,1.1s-1.8,1.1-2.4,1.3c-0.7,0.2-1.5-0.4-0.5-1.5
					C11.7,23.1,12.6,23.1,13.4,22.9z"/>
			</g>
			<g>
				<path class="st0" d="M31.2,22.3c-2-1.8-1.1-4.4,1.8-5.5c1.5-0.5,3.6-0.5,5.6,0.7c2.2,1.3,2.4,3.5,0.2,4.9
					C36.5,23.8,33.2,24,31.2,22.3z"/>
				<path class="st1" d="M31.4,22.3c-2-1.8-1.1-4.2,1.6-5.3c1.5-0.5,3.5-0.5,5.5,0.7c2.2,1.3,2.4,3.5,0,4.7
					C36.5,23.8,33.2,24,31.4,22.3z"/>
				<path class="st2" d="M31.5,22.1c-2-1.6-1.3-4,1.6-5.1c1.5-0.5,3.5-0.4,5.3,0.7c2,1.3,2.2,3.3,0,4.5
					C36.5,23.6,33.4,23.8,31.5,22.1z"/>
				<path class="st3" d="M31.7,22.1c-2-1.6-1.3-4,1.5-5.1c1.5-0.5,3.5-0.4,5.3,0.7c2,1.1,2.2,3.3,0,4.5
					C36.3,23.4,33.4,23.6,31.7,22.1z"/>
				<path class="st4" d="M31.7,22c-1.8-1.6-1.1-3.8,1.5-4.9c1.5-0.5,3.5-0.4,5.1,0.5c1.8,1.1,2.2,3.1,0,4.4
					C36.3,23.2,33.6,23.4,31.7,22z"/>
				<path class="st5" d="M31.9,22c-1.8-1.5-1.1-3.8,1.5-4.7c1.5-0.5,3.3-0.4,4.9,0.5c1.8,1.1,2,2.9,0,4.2
					C36.3,23.2,33.6,23.4,31.9,22z"/>
				<path class="st6" d="M32.1,22c-1.8-1.5-1.1-3.6,1.3-4.5c1.5-0.5,3.3-0.4,4.9,0.5c1.8,1.1,2,2.9-0.2,4
					C36.3,23.1,33.7,23.2,32.1,22z"/>
				<path class="st7" d="M32.1,21.8c-1.8-1.5-1.1-3.5,1.3-4.4c1.5-0.5,3.3-0.2,4.7,0.5c1.6,0.9,2,2.7-0.2,3.8
					C36.3,22.9,33.7,23.1,32.1,21.8z"/>
				<path class="st8" d="M32.3,21.8c-1.8-1.3-1.1-3.5,1.3-4.2c1.5-0.5,3.3-0.2,4.7,0.5c1.6,0.9,1.8,2.5-0.2,3.8
					C36.3,22.9,33.9,22.9,32.3,21.8z"/>
				<path class="st9" d="M32.5,21.6c-1.8-1.3-1.1-3.3,1.1-4c1.5-0.5,3.1-0.2,4.5,0.5c1.6,0.9,1.8,2.5-0.2,3.6
					C36.3,22.7,33.9,22.7,32.5,21.6z"/>
				<path class="st10" d="M32.5,21.6c-1.8-1.3-1.1-3.3,1.1-3.8c1.5-0.4,3.1-0.2,4.4,0.5c1.5,0.9,1.6,2.4-0.2,3.5
					C36.1,22.5,34.1,22.7,32.5,21.6z"/>
				<path class="st11" d="M32.6,21.4c-1.8-1.1-1.1-3.1,1.1-3.6c1.5-0.4,3.1-0.2,4.4,0.5c1.5,0.7,1.6,2.4-0.4,3.3
					C36.1,22.5,34.3,22.5,32.6,21.4z"/>
				<path class="st12" d="M32.8,21.4c-1.8-1.1-1.1-2.9,0.9-3.5c1.5-0.4,3.1-0.2,4.2,0.5c1.5,0.7,1.6,2.2-0.4,3.1
					C36.1,22.3,34.3,22.3,32.8,21.4z"/>
				<path class="st13" d="M32.8,21.4c-1.6-1.1-1.1-2.9,0.9-3.5c1.5-0.4,2.9,0,4,0.5c1.3,0.7,1.5,2-0.4,2.9
					C36.1,22.1,34.5,22.1,32.8,21.4z"/>
				<path class="st14" d="M33,21.2c-1.6-0.9-1.1-2.7,0.9-3.3c1.5-0.4,2.9,0,4,0.5c1.3,0.7,1.5,2-0.4,2.9
					C36.1,22.1,34.5,22.1,33,21.2z"/>
				<path class="st15" d="M33.2,21.2c-1.6-0.9-1.1-2.5,0.7-3.1c1.5-0.4,2.9,0,3.8,0.5c1.1,0.5,1.3,1.8-0.4,2.7
					C36.1,22,34.6,22,33.2,21.2z"/>
				<path class="st16" d="M33.4,21.1c-1.6-0.7-1.1-2.5,0.7-2.9c1.5-0.4,2.7,0,3.6,0.5c1.1,0.5,1.3,1.8-0.5,2.5
					C36.1,21.8,34.6,21.8,33.4,21.1z"/>
				<path class="st17" d="M33.4,21.1c-1.6-0.7-1.1-2.4,0.7-2.7c1.5-0.4,2.7,0,3.6,0.5c1.1,0.5,1.3,1.6-0.5,2.4
					C36.1,21.6,34.8,21.6,33.4,21.1z"/>
				<path class="st18" d="M33.6,21.1c-1.6-0.7-0.9-2.2,0.5-2.5c1.5-0.4,2.7,0.2,3.5,0.5c0.9,0.5,1.1,1.5-0.5,2.2
					C35.9,21.6,34.8,21.6,33.6,21.1z"/>
				<path class="st19" d="M33.7,20.9c-1.6-0.5-0.9-2.2,0.5-2.4c1.5-0.2,2.7,0.2,3.3,0.4c0.9,0.4,1.1,1.5-0.5,2.2
					C35.9,21.4,35,21.4,33.7,20.9z"/>
				<path class="st20" d="M33.7,20.9c-1.6-0.5-0.9-2,0.5-2.2c1.3-0.4,2.5,0,3.3,0.4c0.9,0.4,1.1,1.3-0.5,2
					C35.9,21.2,35,21.2,33.7,20.9z"/>
				<path class="st21" d="M33.9,20.7c-1.6-0.5-0.9-1.8,0.4-2.2c1.5-0.2,2.5,0.2,3.1,0.4c0.7,0.4,0.9,1.3-0.7,1.8
					C35.9,21.2,35.2,21.1,33.9,20.7z"/>
			</g>
			<g>
				<path class="st0" d="M31,16c-2.7,0-3.8-2.4-2.4-5.3C29.4,9.2,31,8,33.2,7.4c2.5-0.5,4.2,1.6,3.5,4.2S33.6,16,31,16z"/>
				<path class="st1" d="M31,15.8c-2.7,0-3.6-2.4-2.4-5.1C29.4,9.2,31,8,33.2,7.4c2.4-0.5,4.2,1.5,3.3,4C35.7,14,33.6,15.8,31,15.8z
					"/>
				<path class="st2" d="M31,15.6c-2.5,0-3.6-2.2-2.2-4.9C29.5,9.2,31,8,33.2,7.6c2.4-0.5,4,1.5,3.3,4C35.7,14,33.6,15.6,31,15.6z"
					/>
				<path class="st3" d="M31.2,15.4c-2.5,0.2-3.5-2.2-2.2-4.7c0.5-1.5,2.2-2.5,4.2-3.1C35.4,7,37,9,36.3,11.4
					C35.6,13.8,33.4,15.4,31.2,15.4z"/>
				<path class="st4" d="M31.2,15.2c-2.5,0.2-3.5-2-2.2-4.5c0.7-1.3,2.2-2.5,4.2-2.9c2.2-0.5,3.6,1.3,2.9,3.8
					C35.4,13.8,33.4,15.2,31.2,15.2z"/>
				<path class="st5" d="M31.2,15.2c-2.4,0.2-3.5-2-2-4.4c0.7-1.5,2.2-2.5,4-3.1c2-0.5,3.6,1.3,2.9,3.6C35.4,13.6,33.4,15,31.2,15.2
					z"/>
				<path class="st6" d="M31.2,15c-2.4,0.2-3.3-2-2-4.2c0.7-1.5,2.2-2.5,4-2.9c2-0.4,3.5,1.3,2.7,3.5C35.2,13.4,33.4,14.9,31.2,15z"
					/>
				<path class="st7" d="M31.2,14.9c-2.4,0.2-3.3-1.8-2-4c0.7-1.3,2.2-2.4,3.8-2.7c2-0.4,3.3,1.1,2.5,3.5
					C35.2,13.4,33.4,14.7,31.2,14.9z"/>
				<path class="st8" d="M31.4,14.7c-2.2,0.2-3.1-1.8-1.8-4c0.7-1.3,2.2-2.4,3.8-2.7c1.8-0.4,3.3,1.1,2.4,3.3
					C35,13.2,33.4,14.5,31.4,14.7z"/>
				<path class="st9" d="M31.4,14.7c-2.2,0.4-3.1-1.6-1.8-3.8c0.7-1.3,2.2-2.4,3.6-2.7c1.8-0.4,3.1,1.1,2.4,3.3
					C34.8,13.2,33.4,14.3,31.4,14.7z"/>
				<path class="st10" d="M31.4,14.5c-2.2,0.4-2.9-1.6-1.8-3.6c0.7-1.3,2.2-2.2,3.6-2.5c1.6-0.4,2.9,0.9,2.2,3.1
					C34.8,13,33.2,14.1,31.4,14.5z"/>
				<path class="st11" d="M31.4,14.3c-2,0.4-2.9-1.5-1.6-3.5c0.7-1.3,2.2-2.2,3.5-2.5c1.6-0.4,2.7,0.9,2,2.9
					C34.6,12.9,33.2,14,31.4,14.3z"/>
				<path class="st12" d="M31.5,14.1c-2,0.4-2.7-1.5-1.6-3.3c0.7-1.3,2-2,3.3-2.4c1.5-0.4,2.7,0.9,2,2.7
					C34.6,12.9,33.2,13.8,31.5,14.1z"/>
				<path class="st13" d="M31.5,14c-2,0.4-2.7-1.5-1.6-3.1c0.7-1.3,2.2-2,3.3-2.4c1.5-0.4,2.5,0.7,1.8,2.7
					C34.5,12.7,33.2,13.6,31.5,14z"/>
				<path class="st14" d="M31.5,14c-1.8,0.5-2.5-1.3-1.5-2.9c0.7-1.3,2.2-2,3.3-2.4c1.3-0.4,2.4,0.7,1.6,2.5
					C34.3,12.7,33.2,13.6,31.5,14z"/>
				<path class="st15" d="M31.5,13.8c-1.8,0.5-2.5-1.3-1.5-2.7c0.7-1.3,2.2-2,3.1-2.2c1.3-0.4,2.4,0.5,1.5,2.5
					C34.3,12.5,33.2,13.4,31.5,13.8z"/>
				<path class="st16" d="M31.7,13.6c-1.8,0.5-2.4-1.1-1.5-2.5c0.7-1.3,2.2-1.8,3.1-2.2c1.3-0.4,2.2,0.5,1.5,2.4
					C34.1,12.3,33.2,13.2,31.7,13.6z"/>
				<path class="st17" d="M31.7,13.4c-1.6,0.5-2.4-1.1-1.3-2.5c0.9-1.1,2-1.8,2.9-2.2c1.1-0.4,2,0.5,1.3,2.2
					C34.1,12.3,33.2,13,31.7,13.4z"/>
				<path class="st18" d="M31.7,13.4c-1.6,0.5-2.2-0.9-1.3-2.4c0.9-1.1,2-1.8,2.9-2c1.1-0.4,1.8,0.4,1.1,2.2
					C33.9,12.1,33,12.9,31.7,13.4z"/>
				<path class="st19" d="M31.7,13.2c-1.6,0.5-2.2-0.9-1.3-2.2c0.9-1.1,2-1.8,2.7-2c0.9-0.4,1.8,0.4,1.1,2
					C33.9,12.1,33,12.7,31.7,13.2z"/>
				<path class="st20" d="M31.7,13c-1.5,0.7-2-0.9-1.1-2c0.9-1.1,2-1.6,2.7-1.8c0.9-0.4,1.6,0.4,0.9,1.8C33.7,12,33,12.5,31.7,13z"
					/>
				<path class="st21" d="M31.9,12.9c-1.5,0.7-2-0.7-1.1-1.8c0.9-1.1,2-1.6,2.5-1.8c0.7-0.2,1.5,0.2,0.7,1.8
					C33.6,12,33,12.3,31.9,12.9z"/>
			</g>
			<g>
				<path class="st0" d="M27,11.2c-1.8,2-4.7,1.3-5.8-1.6C20.6,8,20.6,6,21.9,3.9c1.3-2.2,4.5-2.2,5.8,0.2
					C29.2,6.5,28.8,9.2,27,11.2z"/>
				<path class="st1" d="M27,11c-1.8,2-4.7,1.3-5.6-1.6C20.8,8,21,5.8,22.1,3.9c1.1-2.2,4.4-2,5.6,0.2C29,6.5,28.6,9.2,27,11z"/>
				<path class="st2" d="M26.8,10.9c-1.6,2-4.5,1.3-5.5-1.5C20.8,8,21,6,22.1,3.9c1.3-2,4.2-2,5.5,0.4C28.8,6.5,28.5,9,26.8,10.9z"
					/>
				<path class="st3" d="M26.8,10.9c-1.6,2-4.4,1.3-5.3-1.5c-0.7-1.6-0.5-3.6,0.5-5.3c1.1-2,4-2,5.3,0.4C28.6,6.5,28.3,9,26.8,10.9z
					"/>
				<path class="st4" d="M26.6,10.7c-1.6,1.8-4.2,1.3-5.1-1.5c-0.5-1.5-0.4-3.5,0.5-5.1c1.1-1.8,4-1.8,5.1,0.4
					C28.5,6.5,28.1,8.9,26.6,10.7z"/>
				<path class="st5" d="M26.6,10.5c-1.5,1.8-4.2,1.3-4.9-1.5c-0.7-1.3-0.5-3.3,0.5-4.9c1.1-1.8,3.8-1.8,4.9,0.4
					C28.3,6.5,27.9,8.9,26.6,10.5z"/>
				<path class="st6" d="M26.5,10.5c-1.5,1.8-4,1.3-4.7-1.3c-0.5-1.5-0.2-3.3,0.7-4.9c1.1-1.8,3.6-1.8,4.7,0.4
					C28.1,6.5,27.7,8.7,26.5,10.5z"/>
				<path class="st7" d="M26.3,10.3c-1.5,1.8-3.8,1.1-4.5-1.3c-0.5-1.5-0.2-3.3,0.7-4.7c0.9-1.6,3.5-1.6,4.5,0.4
					C27.9,6.5,27.5,8.7,26.3,10.3z"/>
				<path class="st8" d="M26.3,10.1c-1.3,1.8-3.6,1.1-4.4-1.3c-0.4-1.5-0.2-3.3,0.7-4.7c0.9-1.6,3.3-1.6,4.4,0.4
					C27.7,6.5,27.5,8.5,26.3,10.1z"/>
				<path class="st9" d="M26.1,10.1c-1.3,1.8-3.6,1.1-4.2-1.1c-0.4-1.5-0.2-3.1,0.5-4.5c0.9-1.6,3.1-1.6,4.2,0.4
					C27.5,6.5,27.4,8.5,26.1,10.1z"/>
				<path class="st10" d="M26.1,10c-1.3,1.8-3.5,1.1-4-1.1c-0.4-1.5-0.2-3.1,0.5-4.4c0.9-1.5,2.9-1.5,4,0.4
					C27.4,6.5,27.2,8.3,26.1,10z"/>
				<path class="st11" d="M25.9,9.8c-1.1,1.8-3.3,1.1-3.8-1.1c-0.4-1.5-0.2-3.1,0.5-4.4c0.7-1.5,2.7-1.5,3.8,0.5
					C27.2,6.5,27,8.3,25.9,9.8z"/>
				<path class="st12" d="M25.9,9.8c-1.1,1.6-3.1,1.1-3.6-0.9c-0.4-1.5,0-3.1,0.5-4.2c0.7-1.5,2.5-1.5,3.6,0.5
					C27,6.5,26.8,8.1,25.9,9.8z"/>
				<path class="st13" d="M25.7,9.6c-1.1,1.6-3.1,1.1-3.5-0.9c-0.4-1.5,0-2.9,0.5-4c0.7-1.3,2.5-1.5,3.3,0.5
					C26.8,6.5,26.6,8.1,25.7,9.6z"/>
				<path class="st14" d="M25.7,9.4c-0.9,1.6-2.9,1.1-3.3-0.9c-0.4-1.5,0-2.9,0.5-4c0.7-1.3,2.4-1.3,3.1,0.5
					C26.6,6.5,26.5,8,25.7,9.4z"/>
				<path class="st15" d="M25.5,9.4c-0.9,1.6-2.7,1.1-3.1-0.7c-0.4-1.5,0-2.9,0.5-3.8c0.5-1.1,2.2-1.3,2.9,0.5
					C26.5,6.5,26.3,8,25.5,9.4z"/>
				<path class="st16" d="M25.5,9.2c-0.9,1.6-2.5,1.1-2.9-0.7c-0.4-1.5,0-2.9,0.5-3.6c0.5-1.1,2-1.3,2.7,0.5
					C26.3,6.5,26.1,7.8,25.5,9.2z"/>
				<path class="st17" d="M25.4,9c-0.7,1.6-2.5,1.1-2.7-0.7c-0.4-1.5,0.2-2.7,0.5-3.6c0.5-1.1,1.8-1.1,2.5,0.5
					C26.1,6.5,26.1,7.8,25.4,9z"/>
				<path class="st18" d="M25.4,9c-0.7,1.6-2.4,0.9-2.5-0.5C22.6,7,23,5.8,23.4,5c0.5-0.9,1.6-1.1,2.4,0.5C25.9,6.7,25.9,7.6,25.4,9
					z"/>
				<path class="st19" d="M25.2,8.9c-0.5,1.6-2.2,0.9-2.4-0.5s0.2-2.7,0.5-3.5c0.4-0.9,1.5-1.1,2.2,0.5C25.7,6.7,25.7,7.6,25.2,8.9z
					"/>
				<path class="st20" d="M25.2,8.7c-0.5,1.6-2,0.9-2.2-0.5c-0.2-1.5,0.2-2.7,0.5-3.3c0.4-0.9,1.5-0.9,2,0.7
					C25.7,6.7,25.5,7.6,25.2,8.7z"/>
				<path class="st21" d="M25,8.7c-0.5,1.6-1.8,0.9-2-0.4c-0.2-1.5,0.2-2.5,0.5-3.1c0.4-0.7,1.3-0.9,1.8,0.7
					C25.5,6.7,25.4,7.4,25,8.7z"/>
			</g>
			<g>
				<path class="st0" d="M20.8,14.5c-0.7,2.5-3.3,3.1-5.6,1.1c-1.3-1.1-2.2-2.9-2-5.3c0-2.5,1.8-3.8,4.2-2.5
					C19.5,9.2,21.4,12,20.8,14.5z"/>
				<path class="st1" d="M20.6,14.3c-0.5,2.5-3.1,3.1-5.5,1.1c-1.1-1.1-2-2.9-2-5.1c0-2.5,1.8-3.6,4.2-2.4
					C19.5,9.2,21.2,12,20.6,14.3z"/>
				<path class="st2" d="M20.6,14.3c-0.5,2.5-3.1,2.9-5.3,1.1c-1.3-1.1-2.2-2.9-2-5.1c0-2.4,1.8-3.6,4-2.2C19.4,9.4,21,12,20.6,14.3
					z"/>
				<path class="st3" d="M20.4,14.1c-0.5,2.5-2.9,2.9-5.1,1.1c-1.3-1.1-2-2.7-2-4.9c0-2.4,1.8-3.5,3.8-2.2
					C19.4,9.4,20.8,12,20.4,14.1z"/>
				<path class="st4" d="M20.3,14.1c-0.5,2.4-2.9,2.9-4.9,1.1c-1.3-1.1-2-2.7-1.8-4.7c0-2.2,1.6-3.3,3.8-2
					C19.2,9.6,20.6,12,20.3,14.1z"/>
				<path class="st5" d="M20.1,14.1c-0.4,2.4-2.7,2.7-4.7,0.9c-1.1-1.1-1.8-2.7-1.8-4.7c0-2.2,1.6-3.3,3.6-2S20.6,12,20.1,14.1z"/>
				<path class="st6" d="M20.1,14c-0.4,2.4-2.7,2.7-4.5,1.1c-1.1-1.1-1.8-2.7-1.8-4.5c0-2,1.5-3.1,3.6-1.8C19,9.8,20.4,12,20.1,14z"
					/>
				<path class="st7" d="M19.9,14c-0.4,2.4-2.5,2.7-4.4,0.9c-1.1-1.1-1.8-2.7-1.8-4.5c0-2,1.5-3.1,3.5-1.8C19,9.8,20.3,11.8,19.9,14
					z"/>
				<path class="st8" d="M19.7,13.8c-0.4,2.2-2.5,2.5-4.2,0.9c-1.1-1.1-1.8-2.7-1.6-4.4c0-1.8,1.5-2.9,3.3-1.6
					C18.8,9.8,20.1,11.8,19.7,13.8z"/>
				<path class="st9" d="M19.7,13.8c-0.2,2.2-2.4,2.5-4,0.9c-1.3-1.1-1.8-2.7-1.8-4.2c0-1.8,1.3-2.7,3.3-1.5
					C18.8,10,19.9,11.8,19.7,13.8z"/>
				<path class="st10" d="M19.5,13.8c-0.2,2.2-2.2,2.5-3.8,0.9c-1.1-1.1-1.6-2.7-1.6-4.2c0-1.8,1.3-2.7,3.1-1.5
					C18.6,10,19.7,11.8,19.5,13.8z"/>
				<path class="st11" d="M19.4,13.6c-0.2,2-2.2,2.4-3.8,0.9c-0.9-1.1-1.5-2.5-1.5-4c0-1.6,1.3-2.5,3.1-1.3
					C18.4,10.1,19.5,11.8,19.4,13.6z"/>
				<path class="st12" d="M19.4,13.6c-0.2,2-2,2.4-3.6,0.9c-1.1-1.1-1.5-2.7-1.5-4c0-1.6,1.1-2.4,2.9-1.3
					C18.4,10.1,19.4,11.8,19.4,13.6z"/>
				<path class="st13" d="M19.2,13.4c0,2-2,2.4-3.5,0.9c-0.9-1.1-1.5-2.5-1.5-3.8c0-1.5,1.1-2.4,2.7-1.1
					C18.3,10.3,19.2,11.8,19.2,13.4z"/>
				<path class="st14" d="M19,13.4c0,2-1.8,2.2-3.3,0.7c-0.9-1.1-1.5-2.5-1.5-3.6c0-1.5,1.1-2.2,2.7-1.1C18.3,10.3,19,11.8,19,13.4z
					"/>
				<path class="st15" d="M18.8,13.4c0,1.8-1.8,2.2-3.1,0.7c-0.9-1.1-1.5-2.5-1.5-3.6c0-1.3,0.9-2,2.5-0.9
					C18.1,10.5,18.8,11.8,18.8,13.4z"/>
				<path class="st16" d="M18.8,13.2c0,1.8-1.6,2.2-2.9,0.7c-0.9-1.1-1.3-2.4-1.3-3.5c0-1.3,0.9-2,2.4-0.7
					C18.1,10.5,18.6,11.8,18.8,13.2z"/>
				<path class="st17" d="M18.6,13.2c0.2,1.8-1.6,2-2.7,0.7c-0.9-1.1-1.3-2.5-1.3-3.5c0-1.1,0.9-1.8,2.4-0.7
					C17.9,10.5,18.4,11.8,18.6,13.2z"/>
				<path class="st18" d="M18.4,13c0.2,1.8-1.5,2-2.5,0.7c-0.9-1.1-1.1-2.4-1.1-3.3c0-1.1,0.7-1.8,2.2-0.5
					C17.9,10.7,18.4,11.8,18.4,13z"/>
				<path class="st19" d="M18.4,13c0.2,1.6-1.5,1.8-2.4,0.7c-0.9-1.1-1.3-2.5-1.3-3.3c0-1.1,0.7-1.6,2.2-0.5
					C17.7,10.7,18.3,11.6,18.4,13z"/>
				<path class="st20" d="M18.3,13c0.4,1.6-1.3,1.8-2.2,0.7c-0.9-1.3-1.1-2.5-1.3-3.3c0-0.9,0.7-1.5,2-0.4
					C17.7,10.9,18.1,11.6,18.3,13z"/>
				<path class="st21" d="M18.1,12.9c0.4,1.6-1.3,1.8-2,0.7c-0.7-1.1-1.1-2.4-1.1-3.1c0-0.9,0.5-1.5,1.8-0.4
					C17.5,10.9,17.9,11.6,18.1,12.9z"/>
			</g>
			<g>
				<path class="st0" d="M14.3,32.9c-2.7,0.2-3.8-2.2-2.7-5.1c0.7-1.5,2.2-2.9,4.4-3.5c2.4-0.7,4.5,0.9,3.8,3.5
					C19.4,30.3,16.8,32.7,14.3,32.9z"/>
				<path class="st1" d="M14.3,32.7c-2.5,0.2-3.8-2.2-2.5-4.9c0.7-1.5,2.2-2.9,4.4-3.5c2.4-0.7,4.4,0.9,3.8,3.5
					C19.2,30.3,16.8,32.5,14.3,32.7z"/>
				<path class="st2" d="M14.3,32.5c-2.5,0.2-3.6-2-2.5-4.7c0.7-1.5,2.2-2.7,4.2-3.5c2.4-0.5,4.2,0.9,3.6,3.5
					C19,30.2,16.8,32.3,14.3,32.5z"/>
				<path class="st3" d="M14.4,32.5c-2.5,0.2-3.6-2-2.4-4.5c0.7-1.5,2.2-2.7,4.2-3.3c2.2-0.5,4.2,0.7,3.5,3.3
					C19,30.2,16.6,32.2,14.4,32.5z"/>
				<path class="st4" d="M14.4,32.3c-2.4,0.2-3.6-1.8-2.4-4.4c0.7-1.5,2.2-2.7,4-3.3c2.2-0.5,4,0.7,3.3,3.3
					C18.8,30,16.6,32,14.4,32.3z"/>
				<path class="st5" d="M14.4,32.2c-2.4,0.4-3.5-1.8-2.4-4.4c0.7-1.5,2.2-2.5,4-3.1c2-0.5,3.8,0.7,3.1,3.1
					C18.6,30,16.6,32,14.4,32.2z"/>
				<path class="st6" d="M14.4,32c-2.4,0.4-3.5-1.8-2.2-4.2c0.7-1.5,2-2.5,3.8-3.1c2-0.5,3.6,0.7,3.1,3.1C18.6,30,16.6,31.8,14.4,32
					z"/>
				<path class="st7" d="M14.4,31.8c-2.2,0.4-3.3-1.6-2.2-4c0.7-1.5,2-2.5,3.8-2.9c1.8-0.5,3.5,0.7,2.9,2.9
					C18.4,29.8,16.6,31.6,14.4,31.8z"/>
				<path class="st8" d="M14.6,31.8c-2.2,0.4-3.3-1.6-2.2-3.8c0.7-1.5,2-2.5,3.6-2.9c1.8-0.5,3.5,0.5,2.7,2.9
					C18.3,29.8,16.4,31.4,14.6,31.8z"/>
				<path class="st9" d="M14.6,31.6c-2.2,0.4-3.1-1.5-2-3.6c0.7-1.3,2-2.4,3.6-2.9c1.8-0.5,3.3,0.5,2.5,2.7
					C18.1,29.6,16.4,31.2,14.6,31.6z"/>
				<path class="st10" d="M14.6,31.4c-2,0.4-3.1-1.5-2-3.5c0.7-1.3,2-2.4,3.5-2.7c1.6-0.5,3.1,0.5,2.4,2.7
					C18.1,29.6,16.4,31.1,14.6,31.4z"/>
				<path class="st11" d="M14.6,31.2c-2,0.5-2.9-1.5-1.8-3.3c0.7-1.3,2-2.4,3.5-2.7c1.6-0.5,2.9,0.5,2.4,2.5
					C17.9,29.4,16.4,30.9,14.6,31.2z"/>
				<path class="st12" d="M14.6,31.1c-2,0.5-2.9-1.3-1.8-3.1c0.7-1.3,2-2.2,3.3-2.5c1.5-0.4,2.7,0.5,2.2,2.5
					C17.7,29.4,16.4,30.7,14.6,31.1z"/>
				<path class="st13" d="M14.6,31.1c-2,0.5-2.7-1.3-1.8-3.1c0.7-1.3,2-2.2,3.3-2.5c1.5-0.4,2.7,0.4,2,2.4
					C17.7,29.4,16.4,30.5,14.6,31.1z"/>
				<path class="st14" d="M14.8,30.9c-1.8,0.5-2.7-1.1-1.6-2.9c0.7-1.3,2-2.2,3.1-2.5c1.3-0.4,2.5,0.4,1.8,2.4
					C17.5,29.2,16.3,30.3,14.8,30.9z"/>
				<path class="st15" d="M14.8,30.7c-1.8,0.5-2.5-1.1-1.6-2.7c0.7-1.3,2-2,3.1-2.4c1.3-0.4,2.4,0.4,1.6,2.2
					C17.4,29.2,16.3,30.2,14.8,30.7z"/>
				<path class="st16" d="M14.8,30.5c-1.8,0.5-2.5-1.1-1.6-2.5c0.7-1.3,2-2,2.9-2.4c1.3-0.4,2.4,0.4,1.6,2.2
					C17.4,29.1,16.3,30,14.8,30.5z"/>
				<path class="st17" d="M14.8,30.3c-1.6,0.7-2.4-0.9-1.5-2.4c0.7-1.3,2-2,2.9-2.2c1.1-0.4,2,0.4,1.5,2
					C17.2,29.1,16.3,30,14.8,30.3z"/>
				<path class="st18" d="M14.8,30.3c-1.6,0.7-2.4-0.9-1.5-2.2c0.7-1.3,2-1.8,2.7-2.2c1.1-0.4,2,0.4,1.3,2
					C17,28.9,16.3,29.8,14.8,30.3z"/>
				<path class="st19" d="M15,30.2c-1.6,0.7-2.2-0.7-1.3-2c0.7-1.1,2-1.8,2.7-2.2c0.9-0.4,1.8,0.2,1.1,1.8
					C17,28.9,16.1,29.6,15,30.2z"/>
				<path class="st20" d="M15,30c-1.5,0.7-2.2-0.7-1.3-2c0.7-1.1,2-1.8,2.5-2c0.9-0.4,1.6,0.2,0.9,1.8C16.8,28.9,16.1,29.4,15,30z"
					/>
				<path class="st21" d="M15,29.8c-1.5,0.7-2-0.7-1.3-1.8c0.7-1.1,2-1.6,2.5-2c0.7-0.4,1.5,0.2,0.9,1.6
					C16.8,28.7,16.1,29.2,15,29.8z"/>
			</g>
			<g>
				<path class="st0" d="M8.4,23.1c-2.4-1.3-2.2-4,0.4-5.6c1.3-0.9,3.3-1.3,5.6-0.7c2.4,0.9,3.1,2.9,1.3,4.9
					C13.7,23.4,10.6,24.3,8.4,23.1z"/>
				<path class="st1" d="M8.6,23.1c-2.4-1.3-2.2-3.8,0.4-5.6c1.3-0.9,3.3-1.3,5.5-0.5c2.4,0.7,3.1,2.7,1.1,4.5
					C13.7,23.2,10.6,24.1,8.6,23.1z"/>
				<path class="st2" d="M8.6,22.9c-2.4-1.3-2-3.6,0.4-5.5c1.5-0.7,3.3-1.1,5.5-0.5c2.2,0.7,2.9,2.7,1.1,4.5
					C13.7,23.1,10.8,24,8.6,22.9z"/>
				<path class="st3" d="M8.8,22.9c-2.2-1.1-2-3.6,0.4-5.3c1.3-0.9,3.3-1.3,5.3-0.5c2.2,0.7,2.9,2.5,1.1,4.4
					C13.7,23.1,10.8,24,8.8,22.9z"/>
				<path class="st4" d="M8.8,22.7c-2.2-1.1-2-3.5,0.4-5.1c1.3-0.7,3.3-1.1,5.1-0.5c2.2,0.5,2.7,2.5,0.9,4.2
					C13.5,22.9,10.8,23.8,8.8,22.7z"/>
				<path class="st5" d="M9,22.7c-2.2-1.1-2-3.5,0.4-4.9c1.3-0.9,3.1-1.1,4.9-0.5c2,0.5,2.7,2.4,0.9,4C13.5,22.7,11,23.6,9,22.7z"/>
				<path class="st6" d="M9,22.5c-2.2-0.9-2-3.3,0.2-4.7c1.3-0.9,3.1-1.1,4.9-0.5c2.2,0.5,2.7,2.4,0.9,4C13.5,22.7,11,23.4,9,22.5z"
					/>
				<path class="st7" d="M9.2,22.3c-2.2-0.9-2-3.1,0.2-4.5c1.5-0.7,3.1-0.9,4.9-0.4c1.8,0.5,2.5,2.2,0.7,3.8
					C13.4,22.5,11,23.2,9.2,22.3z"/>
				<path class="st8" d="M9.3,22.3c-2-0.9-1.8-3.1,0.2-4.4c1.3-0.7,3.1-0.9,4.7-0.5c1.8,0.5,2.4,2.2,0.7,3.6
					C13.4,22.5,11.2,23.1,9.3,22.3z"/>
				<path class="st9" d="M9.3,22.1c-2-0.7-1.8-2.9,0.2-4.2c1.3-0.7,3.1-0.9,4.5-0.5c1.8,0.5,2.4,2,0.5,3.5
					C13.4,22.3,11.2,22.9,9.3,22.1z"/>
				<path class="st10" d="M9.5,22.1c-2-0.7-1.8-2.9,0.2-4c1.3-0.7,2.9-0.9,4.4-0.5c1.6,0.5,2.2,2,0.5,3.5
					C13.2,22.1,11.2,22.7,9.5,22.1z"/>
				<path class="st11" d="M9.5,22c-2-0.7-1.8-2.7,0.2-3.8c1.3-0.7,2.9-0.9,4.4-0.5c1.6,0.4,2.2,1.8,0.5,3.3
					C13.2,22.1,11.3,22.7,9.5,22z"/>
				<path class="st12" d="M9.7,22c-2-0.5-1.6-2.7,0.2-3.6c1.3-0.7,2.9-0.7,4.2-0.5c1.5,0.4,2,1.8,0.4,3.1C13.2,22,11.3,22.5,9.7,22z
					"/>
				<path class="st13" d="M9.7,21.8c-1.8-0.5-1.6-2.5,0.2-3.5c1.3-0.7,2.9-0.7,4-0.4c1.5,0.4,2,1.6,0.4,2.9
					C13.2,21.8,11.3,22.3,9.7,21.8z"/>
				<path class="st14" d="M9.9,21.6c-1.8-0.5-1.6-2.4,0-3.3c1.5-0.7,2.9-0.7,4-0.4c1.3,0.4,1.8,1.6,0.4,2.9
					C13,21.8,11.5,22.1,9.9,21.6z"/>
				<path class="st15" d="M10.1,21.6c-1.8-0.5-1.6-2.4,0-3.1c1.3-0.7,2.7-0.7,3.8-0.5c1.3,0.4,1.8,1.5,0.2,2.7
					C13,21.6,11.5,22,10.1,21.6z"/>
				<path class="st16" d="M10.1,21.4c-1.8-0.4-1.6-2.2,0-2.9c1.3-0.7,2.7-0.5,3.6-0.4c1.3,0.2,1.8,1.3,0.4,2.5
					C13,21.4,11.5,21.8,10.1,21.4z"/>
				<path class="st17" d="M10.3,21.4c-1.8-0.4-1.5-2,0-2.9c1.3-0.5,2.7-0.5,3.6-0.4c1.1,0.2,1.6,1.3,0,2.4
					C12.8,21.4,11.7,21.6,10.3,21.4z"/>
				<path class="st18" d="M10.3,21.2c-1.6-0.4-1.5-2,0-2.7c1.3-0.5,2.7-0.5,3.5-0.4c1.1,0.2,1.5,1.3,0,2.4
					C12.8,21.2,11.7,21.4,10.3,21.2z"/>
				<path class="st19" d="M10.4,21.2c-1.6-0.2-1.5-1.8,0-2.5c1.3-0.5,2.5-0.5,3.5-0.4c0.9,0.2,1.5,1.1,0,2.2
					C12.8,21.2,11.7,21.4,10.4,21.2z"/>
				<path class="st20" d="M10.4,21.1c-1.6-0.2-1.5-1.8,0-2.4c1.3-0.5,2.5-0.5,3.3-0.4c0.9,0.4,1.3,1.1-0.2,2.2
					C12.8,21.1,11.9,21.2,10.4,21.1z"/>
				<path class="st21" d="M10.6,20.9c-1.6-0.2-1.5-1.6-0.2-2.2c1.5-0.4,2.7-0.4,3.3-0.2c0.9,0.2,1.3,0.9-0.2,1.8
					C12.6,20.9,11.9,21.1,10.6,20.9z"/>
			</g>
			<g>
				<path class="st0" d="M27.9,28.3c-0.4-2.7,1.8-4.2,4.7-3.1c1.6,0.5,3.1,1.8,4,4c0.9,2.4-0.4,4.4-2.9,3.8
					C31,32.7,28.3,30.9,27.9,28.3z"/>
				<path class="st1" d="M27.9,28.3c-0.4-2.5,1.6-4,4.5-3.1c1.6,0.5,3.1,1.8,3.8,4c0.9,2.4-0.4,4.2-2.9,3.8
					C31,32.5,28.5,30.7,27.9,28.3z"/>
				<path class="st2" d="M28.1,28.3c-0.5-2.5,1.6-4,4.5-3.1c1.5,0.5,2.9,1.8,3.8,3.8c0.9,2.2-0.2,4-2.7,3.6
					C31,32.3,28.5,30.7,28.1,28.3z"/>
				<path class="st3" d="M28.3,28.3c-0.5-2.5,1.6-3.8,4.4-2.9c1.5,0.5,2.9,1.8,3.6,3.8c0.7,2.2-0.2,3.8-2.7,3.5
					C31.2,32.3,28.6,30.5,28.3,28.3z"/>
				<path class="st4" d="M28.3,28.3c-0.5-2.4,1.5-3.8,4.2-2.9c1.5,0.5,2.9,1.8,3.6,3.6c0.7,2-0.2,3.6-2.7,3.3
					C31.2,32.2,28.8,30.5,28.3,28.3z"/>
				<path class="st5" d="M28.5,28.3c-0.5-2.4,1.5-3.8,4-2.9c1.5,0.5,2.7,1.8,3.5,3.6c0.7,2-0.2,3.6-2.5,3.3
					C31.2,32,29,30.5,28.5,28.3z"/>
				<path class="st6" d="M28.6,28.3c-0.5-2.4,1.5-3.6,3.8-2.7c1.5,0.5,2.7,1.8,3.5,3.6c0.7,2-0.2,3.5-2.5,3.1
					C31.2,32,29.2,30.3,28.6,28.3z"/>
				<path class="st7" d="M28.6,28.3c-0.5-2.2,1.5-3.6,3.8-2.7c1.5,0.5,2.7,1.8,3.3,3.5c0.7,1.8,0,3.3-2.4,2.9
					C31.4,31.8,29.2,30.3,28.6,28.3z"/>
				<path class="st8" d="M28.8,28.3c-0.5-2.2,1.3-3.5,3.6-2.7c1.5,0.5,2.5,1.6,3.3,3.5c0.5,1.8,0,3.1-2.4,2.9
					C31.4,31.6,29.4,30.3,28.8,28.3z"/>
				<path class="st9" d="M29,28.3c-0.5-2.2,1.3-3.5,3.5-2.5c1.5,0.5,2.5,1.6,3.1,3.3c0.5,1.6,0,3.1-2.2,2.7
					C31.4,31.4,29.5,30.2,29,28.3z"/>
				<path class="st10" d="M29,28.3c-0.7-2,1.3-3.5,3.3-2.5c1.5,0.5,2.5,1.6,3.1,3.3c0.5,1.6,0,2.9-2.2,2.5
					C31.5,31.4,29.7,30.2,29,28.3z"/>
				<path class="st11" d="M29.2,28.3c-0.7-2,1.1-3.3,3.3-2.4c1.5,0.5,2.4,1.6,2.9,3.1c0.5,1.6,0,2.7-2,2.4
					C31.5,31.2,29.7,30.2,29.2,28.3z"/>
				<path class="st12" d="M29.4,28.3c-0.7-2,1.1-3.3,3.1-2.4c1.5,0.5,2.4,1.6,2.7,3.1c0.5,1.5,0,2.5-2,2.4
					C31.5,31.1,29.9,30,29.4,28.3z"/>
				<path class="st13" d="M29.4,28.3c-0.7-1.8,1.1-3.1,2.9-2.4c1.3,0.5,2.4,1.6,2.7,3.1c0.4,1.5,0.2,2.4-2,2.2
					C31.5,30.9,30.1,30,29.4,28.3z"/>
				<path class="st14" d="M29.5,28.3c-0.7-1.8,0.9-3.1,2.7-2.2c1.3,0.5,2.2,1.6,2.5,2.9c0.4,1.3,0.2,2.4-1.8,2
					C31.7,30.9,30.3,30,29.5,28.3z"/>
				<path class="st15" d="M29.7,28.3c-0.7-1.8,0.9-2.9,2.5-2.2c1.3,0.5,2.2,1.6,2.5,2.9c0.4,1.3,0.2,2.2-1.8,1.8
					C31.7,30.7,30.3,29.8,29.7,28.3z"/>
				<path class="st16" d="M29.7,28.3c-0.7-1.6,0.9-2.9,2.5-2.2c1.3,0.5,2.2,1.6,2.4,2.7c0.4,1.3,0.2,2-1.6,1.8
					C31.7,30.5,30.5,29.8,29.7,28.3z"/>
				<path class="st17" d="M29.9,28.3c-0.7-1.6,0.7-2.7,2.4-2c1.3,0.7,2,1.6,2.4,2.7c0.4,1.1,0.2,1.8-1.6,1.6
					C31.7,30.5,30.6,29.6,29.9,28.3z"/>
				<path class="st18" d="M30.1,28.3c-0.9-1.5,0.7-2.7,2.2-2c1.3,0.7,2,1.6,2.2,2.5c0.2,1.1,0.4,1.8-1.5,1.5
					C31.9,30.3,30.8,29.6,30.1,28.3z"/>
				<path class="st19" d="M30.1,28.3c-0.9-1.5,0.7-2.7,2-2c1.3,0.7,2,1.6,2.2,2.5c0.2,0.9,0.4,1.6-1.5,1.3
					C31.9,30.2,30.8,29.6,30.1,28.3z"/>
				<path class="st20" d="M30.3,28.3c-0.9-1.5,0.5-2.5,1.8-1.8c1.3,0.7,1.8,1.5,2,2.4s0.4,1.5-1.5,1.3C31.9,30,31,29.4,30.3,28.3z"
					/>
				<path class="st21" d="M30.5,28.3c-0.9-1.3,0.5-2.5,1.8-1.8c1.3,0.7,1.8,1.5,2,2.4s0.4,1.3-1.3,1.1C32.1,30,31.2,29.4,30.5,28.3z
					"/>
			</g>
			<g>
				<path class="st0" d="M26.5,27.8c-2-1.8-4.4-0.9-5.3,2c-0.5,1.6-0.4,3.6,0.9,5.6c1.5,2.2,3.6,2.2,4.9-0.2
					C28.1,32.9,28.3,29.6,26.5,27.8z"/>
				<path class="st1" d="M26.3,28c-1.8-1.8-4.2-0.9-5.3,2c-0.5,1.6-0.4,3.6,0.9,5.5c1.3,2,3.5,2.2,4.7-0.2
					C28.1,32.9,28.1,29.6,26.3,28z"/>
				<path class="st2" d="M26.3,28c-1.8-1.8-4.2-0.9-5.1,1.8c-0.5,1.6-0.4,3.5,0.9,5.3c1.3,2,3.3,2.2,4.5-0.2
					C27.9,32.9,27.9,29.8,26.3,28z"/>
				<path class="st3" d="M26.3,28.2c-1.6-1.8-4-0.9-4.9,1.8c-0.5,1.5-0.4,3.3,0.9,5.1s3.3,2,4.4-0.2C27.7,32.7,27.7,29.8,26.3,28.2z
					"/>
				<path class="st4" d="M26.1,28.2c-1.6-1.8-4-0.9-4.7,1.6c-0.5,1.6-0.2,3.5,0.9,5.3c1.3,1.8,3.1,2,4.2-0.2
					C27.5,32.7,27.7,29.8,26.1,28.2z"/>
				<path class="st5" d="M26.1,28.3c-1.6-1.8-3.8-0.9-4.7,1.6c-0.4,1.5-0.2,3.3,0.9,4.9c1.3,1.8,2.9,2,4.2-0.2
					C27.5,32.7,27.5,30,26.1,28.3z"/>
				<path class="st6" d="M26.1,28.3c-1.5-1.8-3.8-0.9-4.5,1.6c-0.4,1.5-0.2,3.3,0.9,4.9c1.1,1.6,2.9,2,4-0.2
					C27.4,32.7,27.4,30,26.1,28.3z"/>
				<path class="st7" d="M25.9,28.5c-1.5-1.8-3.6-0.9-4.4,1.5c-0.4,1.5-0.2,3.3,0.9,4.7c1.1,1.6,2.7,1.8,3.8-0.2
					C27.2,32.7,27.4,30.2,25.9,28.5z"/>
				<path class="st8" d="M25.9,28.5c-1.5-1.8-3.6-0.9-4.2,1.5c-0.4,1.5-0.2,3.1,0.9,4.5c1.1,1.6,2.5,1.8,3.6-0.2
					C27,32.5,27.2,30.2,25.9,28.5z"/>
				<path class="st9" d="M25.7,28.7c-1.3-1.8-3.5-0.9-4.2,1.3c-0.4,1.5-0.2,3.1,0.9,4.5s2.4,1.8,3.5-0.2C27,32.5,27,30.3,25.7,28.7z
					"/>
				<path class="st10" d="M25.7,28.9c-1.3-1.6-3.5-0.9-4,1.3c-0.4,1.5,0,3.1,0.9,4.4c1.1,1.5,2.4,1.6,3.3-0.4
					C26.8,32.5,26.8,30.3,25.7,28.9z"/>
				<path class="st11" d="M25.7,28.9c-1.3-1.6-3.3-0.9-3.8,1.1c-0.4,1.5,0,2.9,0.9,4.2c0.9,1.3,2.2,1.6,3.1-0.4
					C26.6,32.5,26.8,30.3,25.7,28.9z"/>
				<path class="st12" d="M25.5,29.1c-1.1-1.6-3.3-0.9-3.6,1.1c-0.4,1.5,0,2.9,0.9,4.2c0.9,1.3,2,1.6,3.1-0.4
					C26.5,32.5,26.6,30.5,25.5,29.1z"/>
				<path class="st13" d="M25.5,29.1c-1.1-1.6-3.1-0.9-3.6,1.1c-0.4,1.5,0,2.9,0.9,4c0.9,1.3,2,1.5,2.9-0.4
					C26.5,32.3,26.5,30.5,25.5,29.1z"/>
				<path class="st14" d="M25.5,29.2c-1.1-1.6-3.1-0.9-3.5,0.9c-0.4,1.5,0,2.7,0.9,3.8c0.9,1.1,1.8,1.5,2.7-0.4
					C26.3,32.3,26.3,30.7,25.5,29.2z"/>
				<path class="st15" d="M25.4,29.2c-0.9-1.6-2.9-0.9-3.3,0.9c-0.2,1.5,0,2.7,0.7,3.8c0.7,1.1,1.6,1.5,2.5-0.4
					C26.1,32.3,26.3,30.7,25.4,29.2z"/>
				<path class="st16" d="M25.4,29.4c-0.9-1.6-2.9-0.9-3.1,0.7c-0.2,1.5,0,2.7,0.7,3.6c0.7,0.9,1.5,1.3,2.4-0.4
					C25.9,32.3,26.1,30.7,25.4,29.4z"/>
				<path class="st17" d="M25.4,29.4c-0.9-1.6-2.7-0.9-3.1,0.7c-0.2,1.5,0,2.5,0.7,3.5c0.7,0.9,1.5,1.3,2.2-0.4
					C25.9,32.3,25.9,30.9,25.4,29.4z"/>
				<path class="st18" d="M25.2,29.6c-0.7-1.6-2.7-0.9-2.9,0.5c-0.2,1.5,0.2,2.5,0.7,3.5c0.7,0.9,1.3,1.3,2-0.4
					C25.7,32.2,25.9,30.9,25.2,29.6z"/>
				<path class="st19" d="M25.2,29.8c-0.7-1.6-2.5-0.9-2.7,0.5s0.2,2.5,0.7,3.3c0.7,0.7,1.1,1.3,2-0.4
					C25.5,32.2,25.7,31.1,25.2,29.8z"/>
				<path class="st20" d="M25,29.8c-0.5-1.6-2.4-0.9-2.5,0.5c-0.2,1.5,0.2,2.4,0.7,3.1c0.5,0.7,0.9,1.1,1.8-0.4
					C25.4,32.2,25.5,31.1,25,29.8z"/>
				<path class="st21" d="M25,30c-0.5-1.5-2.4-0.9-2.5,0.4c-0.2,1.5,0.2,2.4,0.7,2.9c0.5,0.5,0.9,1.1,1.6-0.4
					C25.4,32.2,25.4,31.1,25,30z"/>
			</g>
		</g>
		<g>
			<path class="st22" d="M25.2,6.7c0,2-1.8,3.5-1.8,3.5s-1.8-1.6-1.8-3.5c0-2,1.8-3.5,1.8-3.5S25.2,4.7,25.2,6.7z"/>
			<path class="st22" d="M25.2,31.2c0,2-1.8,3.5-1.8,3.5s-1.8-1.6-1.8-3.5c0-1.8,1.8-3.5,1.8-3.5S25.2,29.2,25.2,31.2z"/>
			<path class="st22" d="M11.2,17.2c2,0,3.5,1.8,3.5,1.8s-1.6,1.8-3.5,1.8s-3.5-2-3.5-2S9.2,17.2,11.2,17.2z"/>
			<path class="st22" d="M35.6,17.2c2,0,3.5,1.8,3.5,1.8s-1.6,1.8-3.5,1.8c-2,0-3.5-1.8-3.5-1.8S33.6,17.2,35.6,17.2z"/>
			<path class="st22" d="M13.4,26.3c1.3-1.5,3.6-1.3,3.6-1.3s0.2,2.4-1.3,3.8c-1.3,1.5-3.6,1.3-3.6,1.3S12.1,27.8,13.4,26.3z"/>
			<path class="st22" d="M30.6,9c1.3-1.5,3.6-1.3,3.6-1.3s0.2,2.4-1.3,3.8c-1.3,1.5-3.6,1.3-3.6,1.3S29.4,10.3,30.6,9z"/>
			<path class="st22" d="M30.6,28.9c-1.3-1.5-1.3-3.8-1.3-3.8s2.4-0.2,3.6,1.3c1.3,1.5,1.3,3.8,1.3,3.8S32.1,30.3,30.6,28.9z"/>
			<path class="st22" d="M13.4,11.6c-1.3-1.5-1.1-3.8-1.1-3.8s2.4-0.2,3.6,1.3s1.3,3.8,1.3,3.8S14.8,12.9,13.4,11.6z"/>
		</g>
		<g>
			<path class="st22" d="M34.1,25.1c-1.5-0.5-2-2.4-2-2.4s1.6-0.9,3.1-0.2c1.5,0.5,2,2.4,2,2.4S35.6,25.6,34.1,25.1z"/>
			<path class="st22" d="M11.5,15.6c-1.5-0.5-2-2.4-2-2.4s1.6-0.9,3.1-0.2c1.5,0.5,2,2.4,2,2.4S13,16.1,11.5,15.6z"/>
			<path class="st22" d="M19.9,7c0.5,1.5-0.2,3.1-0.2,3.1s-1.8-0.5-2.4-2C16.8,6.7,17.5,5,17.5,5S19.4,5.6,19.9,7z"/>
			<path class="st22" d="M29.4,29.8c0.5,1.5-0.2,3.1-0.2,3.1s-1.8-0.5-2.4-2c-0.5-1.5,0.2-3.1,0.2-3.1S28.6,28.3,29.4,29.8z"/>
			<path class="st22" d="M11.5,22.3c1.5-0.5,3.1,0.2,3.1,0.2s-0.5,1.8-2,2.4c-1.5,0.7-3.1-0.2-3.1-0.2S10.1,22.9,11.5,22.3z"/>
			<path class="st22" d="M34.1,12.9c1.5-0.5,3.1,0.4,3.1,0.4s-0.5,1.8-2,2.4c-1.5,0.5-3.1-0.2-3.1-0.2S32.6,13.6,34.1,12.9z"/>
			<path class="st22" d="M17.4,29.8c0.5-1.5,2.4-2,2.4-2s0.9,1.6,0.2,3.1c-0.5,1.5-2.4,2-2.4,2S16.8,31.2,17.4,29.8z"/>
			<path class="st22" d="M26.6,7C27.2,5.6,29,5,29,5s0.9,1.6,0.2,3.1c-0.5,1.5-2.4,2-2.4,2S26.1,8.5,26.6,7z"/>
		</g>
		<g>
			
				<linearGradient id="SVGID_1_" gradientUnits="userSpaceOnUse" x1="21.7614" y1="43.5281" x2="25.2791" y2="40.0104" gradientTransform="matrix(1 0 0 -1 0 48.5984)">
				<stop  offset="0" style="stop-color:#FFD45C"/>
				<stop  offset="1" style="stop-color:#FF9D00"/>
			</linearGradient>
			<path class="st23" d="M25.4,6.9c0,2-1.8,3.5-1.8,3.5s-1.8-1.6-1.8-3.5c0-2,1.8-3.5,1.8-3.5S25.4,4.9,25.4,6.9z"/>
			
				<linearGradient id="SVGID_00000000918410730120993870000015205198479675619490_" gradientUnits="userSpaceOnUse" x1="21.7416" y1="18.9818" x2="25.2602" y2="15.4632" gradientTransform="matrix(1 0 0 -1 0 48.5984)">
				<stop  offset="0" style="stop-color:#FFD45C"/>
				<stop  offset="1" style="stop-color:#FF9D00"/>
			</linearGradient>
			<path style="fill:url(#SVGID_00000000918410730120993870000015205198479675619490_);" d="M25.4,31.4c0,2-1.8,3.5-1.8,3.5
				s-1.8-1.6-1.8-3.5c0-2,1.8-3.5,1.8-3.5S25.4,29.4,25.4,31.4z"/>
			
				<linearGradient id="SVGID_00000101089298189374765710000009830622036478852257_" gradientUnits="userSpaceOnUse" x1="2246.5996" y1="-112.5424" x2="2243.1001" y2="-116.0417" gradientTransform="matrix(0 -1 -1 0 -103.0246 2264.0027)">
				<stop  offset="0" style="stop-color:#FFD45C"/>
				<stop  offset="1" style="stop-color:#FF9D00"/>
			</linearGradient>
			<path style="fill:url(#SVGID_00000101089298189374765710000009830622036478852257_);" d="M11.3,17.4c2,0,3.5,1.8,3.5,1.8
				s-1.6,1.8-3.5,1.8c-2,0-3.5-1.8-3.5-1.8S9.3,17.4,11.3,17.4z"/>
			
				<linearGradient id="SVGID_00000115491106605447846500000012070116673696686746_" gradientUnits="userSpaceOnUse" x1="2246.5999" y1="-136.9263" x2="2243.1003" y2="-140.4258" gradientTransform="matrix(0 -1 -1 0 -103.0246 2264.0027)">
				<stop  offset="0" style="stop-color:#FFD45C"/>
				<stop  offset="1" style="stop-color:#FF9D00"/>
			</linearGradient>
			<path style="fill:url(#SVGID_00000115491106605447846500000012070116673696686746_);" d="M35.7,17.4c2,0,3.5,1.8,3.5,1.8
				s-1.6,1.8-3.5,1.8c-2,0-3.5-1.8-3.5-1.8S33.7,17.4,35.7,17.4z"/>
			
				<linearGradient id="SVGID_00000020374400966979209360000014863822690151319443_" gradientUnits="userSpaceOnUse" x1="2628.8057" y1="-1257.2759" x2="2625.2258" y2="-1257.2759" gradientTransform="matrix(-0.7071 -0.7071 -0.7071 0.7071 983.3388 2774.45)">
				<stop  offset="0" style="stop-color:#FFD45C"/>
				<stop  offset="1" style="stop-color:#FF9D00"/>
			</linearGradient>
			<path style="fill:url(#SVGID_00000020374400966979209360000014863822690151319443_);" d="M13.5,26.5c1.3-1.5,3.6-1.3,3.6-1.3
				s0.2,2.4-1.3,3.8c-1.3,1.5-3.6,1.3-3.6,1.3S12.3,28,13.5,26.5z"/>
			
				<linearGradient id="SVGID_00000006695599064244464850000009101541516378805919_" gradientUnits="userSpaceOnUse" x1="2628.8765" y1="-1281.724" x2="2625.2969" y2="-1281.724" gradientTransform="matrix(-0.7071 -0.7071 -0.7071 0.7071 983.3388 2774.45)">
				<stop  offset="0" style="stop-color:#FFD45C"/>
				<stop  offset="1" style="stop-color:#FF9D00"/>
			</linearGradient>
			<path style="fill:url(#SVGID_00000006695599064244464850000009101541516378805919_);" d="M30.8,9.2C32.1,7.8,34.5,8,34.5,8
				s0.2,2.4-1.3,3.8c-1.3,1.5-3.6,1.3-3.6,1.3S29.5,10.5,30.8,9.2z"/>
			
				<linearGradient id="SVGID_00000083775611090329625860000004220997229568506254_" gradientUnits="userSpaceOnUse" x1="946.08" y1="-2721.3511" x2="946.08" y2="-2714.3481" gradientTransform="matrix(-0.7071 0.7071 0.7071 0.7071 2622.8274 1280.6609)">
				<stop  offset="0" style="stop-color:#FFD45C"/>
				<stop  offset="1" style="stop-color:#FF9D00"/>
			</linearGradient>
			<path style="fill:url(#SVGID_00000083775611090329625860000004220997229568506254_);" d="M30.8,29.1c-1.3-1.5-1.3-3.8-1.3-3.8
				s2.4-0.2,3.6,1.3c1.3,1.5,1.3,3.8,1.3,3.8S32.3,30.5,30.8,29.1z"/>
			
				<linearGradient id="SVGID_00000159439528865755320260000000767126778644746163_" gradientUnits="userSpaceOnUse" x1="946.0156" y1="-2745.8057" x2="946.0156" y2="-2738.804" gradientTransform="matrix(-0.7071 0.7071 0.7071 0.7071 2622.8274 1280.6609)">
				<stop  offset="0" style="stop-color:#FFD45C"/>
				<stop  offset="1" style="stop-color:#FF9D00"/>
			</linearGradient>
			<path style="fill:url(#SVGID_00000159439528865755320260000000767126778644746163_);" d="M13.5,11.8C12.3,10.3,12.4,8,12.4,8
				s2.4-0.2,3.6,1.3s1.3,3.8,1.3,3.8S15,13,13.5,11.8z"/>
		</g>
		<g>
			
				<linearGradient id="SVGID_00000183951936552681358550000012449504626743490470_" gradientUnits="userSpaceOnUse" x1="32.9771" y1="26.6609" x2="36.632" y2="23.006" gradientTransform="matrix(1 0 0 -1 0 48.5984)">
				<stop  offset="0" style="stop-color:#FFBB31"/>
				<stop  offset="1" style="stop-color:#FF9D00"/>
			</linearGradient>
			<path style="fill:url(#SVGID_00000183951936552681358550000012449504626743490470_);" d="M34.3,25.1c-1.5-0.5-2-2.4-2-2.4
				s1.6-0.9,3.1-0.2c1.5,0.5,2,2.4,2,2.4S35.6,25.8,34.3,25.1z"/>
			
				<linearGradient id="SVGID_00000051365567777369109760000017227122733407162257_" gradientUnits="userSpaceOnUse" x1="10.424" y1="36.0211" x2="14.0783" y2="32.3668" gradientTransform="matrix(1 0 0 -1 0 48.5984)">
				<stop  offset="0" style="stop-color:#FFBB31"/>
				<stop  offset="1" style="stop-color:#FF9D00"/>
			</linearGradient>
			<path style="fill:url(#SVGID_00000051365567777369109760000017227122733407162257_);" d="M11.7,15.8c-1.5-0.5-2-2.4-2-2.4
				s1.6-0.9,3.1-0.4s2,2.4,2,2.4S13.2,16.3,11.7,15.8z"/>
			
				<linearGradient id="SVGID_00000166659678550670875070000003025968228570634923_" gradientUnits="userSpaceOnUse" x1="16.9965" y1="42.6415" x2="20.6606" y2="38.9775" gradientTransform="matrix(1 0 0 -1 0 48.5984)">
				<stop  offset="0" style="stop-color:#FFBB31"/>
				<stop  offset="1" style="stop-color:#FF9D00"/>
			</linearGradient>
			<path style="fill:url(#SVGID_00000166659678550670875070000003025968228570634923_);" d="M20.1,7.2c0.5,1.5-0.2,3.1-0.2,3.1
				s-1.8-0.5-2.4-2c-0.5-1.5,0.2-3.1,0.2-3.1S19.5,5.8,20.1,7.2z"/>
			
				<linearGradient id="SVGID_00000168825194400751697380000003137991172818164122_" gradientUnits="userSpaceOnUse" x1="26.3312" y1="19.9841" x2="29.995" y2="16.3205" gradientTransform="matrix(1 0 0 -1 0 48.5984)">
				<stop  offset="0" style="stop-color:#FFBB31"/>
				<stop  offset="1" style="stop-color:#FF9D00"/>
			</linearGradient>
			<path style="fill:url(#SVGID_00000168825194400751697380000003137991172818164122_);" d="M29.5,30c0.5,1.5-0.2,3.1-0.2,3.1
				s-1.8-0.5-2.4-2c-0.7-1.5,0-3.3,0-3.3S28.8,28.5,29.5,30z"/>
			
				<linearGradient id="SVGID_00000165934069089044275420000010327727723514487985_" gradientUnits="userSpaceOnUse" x1="11.1757" y1="25.8979" x2="13.3419" y2="23.7317" gradientTransform="matrix(1 0 0 -1 0 48.5984)">
				<stop  offset="0" style="stop-color:#FFBB31"/>
				<stop  offset="1" style="stop-color:#FF9D00"/>
			</linearGradient>
			<path style="fill:url(#SVGID_00000165934069089044275420000010327727723514487985_);" d="M11.7,22.5c1.5-0.5,3.1,0.2,3.1,0.2
				s-0.5,1.8-2,2.4c-1.5,0.5-3.1-0.2-3.1-0.2S10.3,23.1,11.7,22.5z"/>
			
				<linearGradient id="SVGID_00000044878029370065265640000016441243926643624871_" gradientUnits="userSpaceOnUse" x1="33.7597" y1="35.3408" x2="35.9259" y2="33.1746" gradientTransform="matrix(1 0 0 -1 0 48.5984)">
				<stop  offset="0" style="stop-color:#FFBB31"/>
				<stop  offset="1" style="stop-color:#FF9D00"/>
			</linearGradient>
			<path style="fill:url(#SVGID_00000044878029370065265640000016441243926643624871_);" d="M34.3,13c1.5-0.5,3.1,0.2,3.1,0.2
				s-0.5,1.8-2,2.4c-1.5,0.5-3.1-0.2-3.1-0.2S32.8,13.8,34.3,13z"/>
			
				<linearGradient id="SVGID_00000065070075214766037270000008768762552514364587_" gradientUnits="userSpaceOnUse" x1="17.7001" y1="19.1915" x2="19.8706" y2="17.0209" gradientTransform="matrix(1 0 0 -1 0 48.5984)">
				<stop  offset="0" style="stop-color:#FFBB31"/>
				<stop  offset="1" style="stop-color:#FF9D00"/>
			</linearGradient>
			<path style="fill:url(#SVGID_00000065070075214766037270000008768762552514364587_);" d="M17.5,30c0.5-1.5,2.4-2,2.4-2
				s0.9,1.6,0.2,3.1c-0.5,1.5-2.4,2-2.4,2S17,31.4,17.5,30z"/>
			
				<linearGradient id="SVGID_00000077285875907425076340000011432663660364391811_" gradientUnits="userSpaceOnUse" x1="27.0489" y1="41.8697" x2="29.2202" y2="39.6984" gradientTransform="matrix(1 0 0 -1 0 48.5984)">
				<stop  offset="0" style="stop-color:#FFBB31"/>
				<stop  offset="1" style="stop-color:#FF9D00"/>
			</linearGradient>
			<path style="fill:url(#SVGID_00000077285875907425076340000011432663660364391811_);" d="M26.8,7.2c0.5-1.5,2.4-2,2.4-2
				s0.9,1.6,0.2,3.1c-0.5,1.5-2.4,2-2.4,2S26.3,8.7,26.8,7.2z"/>
		</g>
		<g>
			<path class="st0" d="M34.6,31.8c-5.1,4.2-12,5.1-18,1.3c-8.2-5.1-6.2-12-2.5-12.2c3.6-0.2,6.7,1.1,9.1-1.5
				c2.7-2.9,2.7-6.2,3.5-9.5c0.7-3.6,5.5-4.9,10.6,0.5C42.6,16.3,41,26.3,34.6,31.8z"/>
			<path class="st1" d="M34.5,31.4c-4.9,4.2-11.6,5.1-17.5,1.5c-8-4.9-6.4-11.6-2.7-11.8c3.5-0.2,6.7,1.1,9.1-1.5
				c2.7-2.9,2.7-6,3.5-9.3c0.7-3.6,5.3-4.7,10.2,0.5C42.3,16.5,40.6,26.2,34.5,31.4z"/>
			<path class="st2" d="M34.3,31.1c-4.7,4-11.3,4.9-17.1,1.5c-7.8-4.5-6.4-11.1-2.9-11.3s6.7,1.3,9.3-1.5c2.7-2.9,2.7-6,3.3-9.3
				c0.9-3.6,5.3-4.7,10,0.5C41.7,16.5,40.3,26,34.3,31.1z"/>
			<path class="st3" d="M34.1,30.7c-4.5,4-10.9,4.9-16.6,1.6c-7.6-4.4-6.4-10.7-2.9-10.9c3.3-0.2,6.6,1.3,9.3-1.6
				c2.7-2.9,2.7-6,3.3-9.3C27.7,7,32.1,6,36.6,11C41.4,16.7,39.9,25.8,34.1,30.7z"/>
			<path class="st4" d="M33.9,30.5c-4.5,3.8-10.6,4.7-16,1.8c-7.5-4.2-6.4-10.2-3.1-10.6c3.1-0.2,6.6,1.5,9.3-1.6s2.5-6,3.1-9.1
				c0.5-3.3,4.7-4.4,9.1,0.5C41,16.7,39.7,25.6,33.9,30.5z"/>
			<path class="st5" d="M33.7,30.2C29.4,34,23.5,34.9,18.3,32c-7.3-3.8-6.4-9.8-3.3-10c2.9-0.2,6.6,1.5,9.5-1.6
				c2.7-3.1,2.5-6,3.1-9.1c0.5-3.3,4.5-4.2,8.7,0.5C40.5,16.9,39.4,25.2,33.7,30.2z"/>
			<path class="st6" d="M33.7,29.8c-4.2,3.6-9.8,4.7-15.1,2c-7.1-3.6-6.4-9.5-3.5-9.6c2.9-0.2,6.6,1.6,9.5-1.6
				c2.7-3.1,2.5-6,2.9-8.9c0.4-3.1,4.4-4,8.4,0.5C40.1,16.9,39,25.1,33.7,29.8z"/>
			<path class="st7" d="M33.6,29.6c-4,3.6-9.5,4.5-14.6,2.2c-6.9-3.5-6.6-8.9-3.6-9.3c2.7-0.2,6.4,1.6,9.5-1.8
				c2.7-3.1,2.5-6,2.9-8.9c0.4-3.1,4.2-4,8,0.7C39.7,17.1,38.8,24.9,33.6,29.6z"/>
			<path class="st8" d="M33.4,29.2c-4,3.5-9.1,4.5-14,2.2c-6.7-3.1-6.6-8.6-3.6-8.7c2.5-0.4,6.4,1.8,9.5-1.8
				c2.7-3.1,2.5-5.8,2.7-8.9c0.4-2.9,4-3.8,7.6,0.7C39.2,17.1,38.5,24.7,33.4,29.2z"/>
			<path class="st9" d="M33.2,28.9c-3.8,3.5-8.7,4.4-13.5,2.4c-6.7-2.9-6.6-8-3.8-8.4c2.4-0.4,6.4,1.8,9.6-1.8
				c2.7-3.1,2.4-5.8,2.7-8.7c0.2-2.9,3.8-3.6,7.3,0.7C38.8,17.2,38.1,24.3,33.2,28.9z"/>
			<path class="st10" d="M33,28.5c-3.6,3.3-8.4,4.4-13.1,2.5c-6.6-2.7-6.6-7.6-4-8c2.4-0.4,6.4,2,9.6-2c2.7-3.1,2.4-5.8,2.5-8.7
				c0.2-2.7,3.6-3.5,6.9,0.7C38.3,17.2,37.7,24.1,33,28.5z"/>
			<path class="st11" d="M32.8,28.3c-3.5,3.3-8,4.4-12.6,2.5c-6.4-2.4-6.6-7.3-4.2-7.6c2.2-0.4,6.2,2.2,9.6-2
				c2.7-3.3,2.4-5.8,2.5-8.6s3.5-3.5,6.6,0.7C37.9,17.4,37.6,24,32.8,28.3z"/>
			<path class="st12" d="M32.8,28c-3.3,3.1-7.6,4.2-12,2.7c-6.2-2.2-6.6-6.7-4.4-7.1c2-0.4,6.2,2.2,9.6-2c2.7-3.3,2.4-5.8,2.4-8.6
				c0.2-2.5,3.1-3.3,6.2,0.7C37.6,17.4,37.2,23.8,32.8,28z"/>
			<path class="st13" d="M32.6,27.6c-3.3,3.1-7.3,4.2-11.5,2.7c-6-2-6.7-6.4-4.4-6.7c1.8-0.4,6.2,2.4,9.8-2c2.7-3.3,2.4-5.8,2.4-8.6
				c0-2.5,2.9-3.1,5.8,0.7C37,17.4,36.8,23.6,32.6,27.6z"/>
			<path class="st14" d="M32.5,27.2c-3.1,3.1-6.9,4.2-11.1,2.9c-5.8-1.6-6.7-5.8-4.5-6.4c1.8-0.4,6.2,2.4,9.8-2.2
				c2.7-3.3,2.2-5.8,2.2-8.4c0-2.4,2.7-2.9,5.5,0.7C36.6,17.6,36.6,23.2,32.5,27.2z"/>
			<path class="st15" d="M32.3,27.1c-2.9,2.9-6.6,4-10.6,3.1c-5.6-1.5-6.7-5.5-4.7-5.8c1.6-0.4,6,2.5,9.8-2.2
				c2.7-3.5,2.4-5.8,2.2-8.6c0-2.4,2.5-2.9,5.1,0.9C36.3,17.6,36.3,23.1,32.3,27.1z"/>
			<path class="st16" d="M32.1,26.7c-2.7,2.9-6.2,4-10,3.1c-5.5-1.1-6.7-4.9-4.9-5.5c1.5-0.4,6,2.5,9.8-2.2c2.7-3.3,2.2-5.6,2-8.2
				c-0.2-2.2,2.4-2.7,4.7,0.9C35.7,17.8,35.9,22.9,32.1,26.7z"/>
			<path class="st17" d="M31.9,26.3c-2.7,2.7-5.8,3.8-9.5,3.3c-5.3-0.9-6.7-4.5-5.1-5.1c1.5-0.4,6,2.7,10-2.4c2.7-3.3,2.2-5.6,2-8.2
				c-0.2-2.2,2.2-2.5,4.4,0.9C35.4,17.8,35.6,22.7,31.9,26.3z"/>
			<path class="st18" d="M31.9,26.2c-2.5,2.7-5.5,3.8-8.9,3.5c-5.3-0.7-6.7-4-5.1-4.5c1.3-0.4,6,2.7,10-2.4c2.7-3.3,2.2-5.6,1.8-8.2
				c-0.2-2,2-2.5,4,0.9C35,18,35.4,22.3,31.9,26.2z"/>
			<path class="st19" d="M31.7,25.8c-2.4,2.5-5.1,3.8-8.6,3.5c-5.1-0.4-6.9-3.6-5.3-4.2c1.1-0.4,5.8,2.9,10-2.4
				c2.7-3.5,2.2-5.6,1.8-8c-0.2-2,1.8-2.4,3.6,0.9C34.5,18,35,22.1,31.7,25.8z"/>
			<path class="st20" d="M31.5,25.4c-2.2,2.5-4.9,3.8-8,3.6c-4.9-0.2-6.9-3.1-5.5-3.8c0.9-0.4,5.8,2.9,10-2.4c2.7-3.5,2.2-5.6,1.6-8
				c-0.4-1.8,1.8-2.2,3.3,0.9C34.1,18,34.6,22,31.5,25.4z"/>
			<path class="st21" d="M31.4,25.1c-2,2.4-4.5,3.6-7.5,3.8c-4.7,0.2-6.9-2.7-5.6-3.3c0.9-0.4,5.8,3.1,10.2-2.5
				c2.7-3.5,2-5.6,1.6-7.8c-0.4-1.8,1.6-2.2,2.9,0.9C33.7,18.1,34.3,21.8,31.4,25.1z"/>
		</g>
		<path class="st22" d="M33.2,18.9c0,5.5-4.4,10-10,10s-10-4.5-10-10s4.4-10,10-10S33.2,13.4,33.2,18.9z"/>
		
			<linearGradient id="SVGID_00000147917586685193854430000014300648155005657741_" gradientUnits="userSpaceOnUse" x1="16.4113" y1="36.4938" x2="30.5086" y2="22.3965" gradientTransform="matrix(1 0 0 -1 0 48.5984)">
			<stop  offset="0" style="stop-color:#FFD45C"/>
			<stop  offset="1" style="stop-color:#FF9D00"/>
		</linearGradient>
		<path style="fill:url(#SVGID_00000147917586685193854430000014300648155005657741_);" d="M33.4,19.1c0,5.5-4.4,10-10,10
			s-10-4.5-10-10s4.4-10,10-10S33.4,13.6,33.4,19.1z"/>
	</g>
	<g>
		<g>
			<path class="st0" d="M45.7,40.7c3.1-2.5,2.5-10.6,0.9-12.6c-2-2.7-4.2-4.5-6-5.5c-1.8-0.9-7.1-1.8-9.5-1.8
				c-3.3,0-6.6,0.7-9.3,1.5c-2.9,0.7-8.6,2.9-11.3,5.8c-2.9,3.6-0.2,10.6,0.5,11.5c1.5,1.8,3.3,3.8,5.6,4.9c2.2,1.1,4,0.9,5.6,1.1
				c1.3,0,6.7,0.7,10,0c2.4-0.5,6.2-1.3,7.3-1.8C40.8,43.4,43.4,42.7,45.7,40.7z"/>
			<path class="st1" d="M45.2,40.5c2.9-2.5,2.5-10.2,0.9-12.4c-2-2.7-4.2-4.4-6-5.3c-1.8-0.9-6.7-1.6-9.1-1.8
				c-3.3,0-6.4,0.7-9.1,1.5c-2.9,0.7-8.4,2.9-11.1,5.6c-3.1,3.3-0.4,10,0.4,11.1c1.5,1.8,3.1,3.6,5.5,4.7c2.2,1.1,4,0.9,5.6,1.1
				c1.3,0.2,6.6,0.7,9.8,0.2c2.4-0.5,6-1.3,7.1-1.8C40.3,43.1,42.8,42.5,45.2,40.5z"/>
			<path class="st40" d="M44.7,40.2c2.9-2.4,2.5-9.8,0.9-12c-2-2.7-4-4.4-5.8-5.3c-1.8-0.9-6.6-1.6-8.7-1.8c-3.1,0-6.4,0.7-8.9,1.5
				c-2.9,0.7-8.4,2.9-10.9,5.6c-2.9,3.3-0.5,9.6,0.4,10.9c1.5,1.8,3.1,3.6,5.3,4.7c2.2,0.9,4,0.9,5.5,0.9c1.3,0.2,6.4,0.9,9.5,0.2
				c2.4-0.5,5.8-1.3,6.9-1.8C39.9,42.7,42.3,42.2,44.7,40.2z"/>
			<path class="st3" d="M44.3,40c2.9-2.4,2.5-9.5,0.9-11.6c-1.8-2.7-4-4.2-5.8-5.1c-1.8-0.9-6.2-1.6-8.6-1.8c-3.1,0-6.2,0.7-8.9,1.3
				c-2.9,0.7-8.4,2.9-10.7,5.5c-2.7,3.1-0.5,9.5,0.4,10.6c1.6,1.8,3.1,3.6,5.5,4.7c2.2,0.9,4,0.7,5.5,0.9c1.3,0.2,6.2,0.9,9.3,0.4
				c2.4-0.5,5.8-1.3,6.7-1.8C39.4,42.3,41.9,41.8,44.3,40z"/>
			<path class="st41" d="M43.7,39.6c2.9-2.2,2.5-9.1,1.1-11.3c-1.8-2.7-4-4.2-5.6-5.1s-6-1.6-8.2-1.8c-2.9-0.2-6.2,0.5-8.7,1.3
				c-2.7,0.7-8.2,2.9-10.6,5.5C9,31.1,11,37.3,12.1,38.5c1.3,1.6,2.7,3.5,5.1,4.4c2,0.9,3.8,0.7,5.3,0.9c1.1,0.2,5.8,1.1,9.1,0.4
				c2.4-0.5,5.6-1.5,6.6-2C39,42,41.4,41.4,43.7,39.6z"/>
			<path class="st42" d="M43.2,39.4c2.7-2.2,2.5-8.7,1.1-11.1c-1.8-2.9-3.8-4-5.6-4.9c-1.6-0.7-5.6-1.6-8-1.6
				c-2.9-0.2-6,0.5-8.6,1.3c-2.7,0.7-8.2,2.9-10.4,5.3c-2.5,2.9-0.7,8.7,0.4,10c1.3,1.6,2.5,3.5,4.9,4.4c2,0.9,3.8,0.7,5.3,0.7
				c1.1,0.2,5.6,1.1,8.9,0.5c2.4-0.5,5.5-1.5,6.4-2C38.6,41.6,41,41.3,43.2,39.4z"/>
			<path class="st43" d="M42.8,39.1c2.7-2,2.5-8.4,1.1-10.7c-1.8-2.9-3.8-4-5.6-4.7c-1.6-0.7-5.5-1.6-7.6-1.6
				c-2.7-0.2-6,0.5-8.6,1.1c-2.7,0.7-8,2.9-10.2,5.1c-2.5,2.7-0.7,8.6,0.4,9.8c1.3,1.5,2.4,3.3,4.7,4.2c2,0.9,3.8,0.5,5.1,0.7
				c1.1,0.2,5.5,1.3,8.7,0.5c2.4-0.4,5.5-1.5,6.4-2C38.1,41.1,40.5,40.9,42.8,39.1z"/>
			<path class="st44" d="M42.3,38.9c2.7-2,2.5-8.2,1.1-10.4c-1.8-2.9-3.8-3.8-5.5-4.7c-1.6-0.7-5.1-1.6-7.3-1.6
				c-2.7-0.2-5.8,0.4-8.4,1.1c-2.7,0.7-8,2.9-10,5.1c-2.4,2.5-0.9,8.2,0.4,9.5c1.3,1.5,2.4,3.3,4.5,4.2c2,0.7,3.6,0.5,4.9,0.7
				c1.1,0.2,5.3,1.3,8.6,0.7c2.4-0.4,5.3-1.6,6.2-2C37.7,40.7,40.1,40.5,42.3,38.9z"/>
			<path class="st45" d="M41.7,38.7c2.7-2,2.5-7.8,1.1-10c-1.6-2.9-3.8-3.8-5.5-4.5c-1.5-0.7-4.9-1.6-7.1-1.6
				c-2.5-0.2-5.8,0.4-8.2,1.1c-2.7,0.7-7.8,2.9-9.8,4.9c-2.2,2.4-0.9,7.8,0.2,9.3s2.2,3.1,4.5,4c2,0.7,3.6,0.4,4.9,0.5
				c1.1,0.2,5.1,1.5,8.4,0.7c2.4-0.4,5.1-1.6,6-2C37.2,40.3,39.6,40.3,41.7,38.7z"/>
			<path class="st46" d="M41.4,38.3c2.5-1.8,2.5-7.5,1.1-9.8c-1.6-2.9-3.6-3.6-5.5-4.5c-1.5-0.7-4.5-1.5-6.7-1.6
				c-2.5-0.2-5.6,0.4-8.2,1.1c-2.7,0.7-7.8,2.9-9.6,4.9c-2.2,2.4-0.9,7.5,0.2,9.1c1.1,1.3,2,3.1,4.4,4c2,0.7,3.6,0.4,4.7,0.5
				c1.1,0.2,4.9,1.5,8,0.9c2.4-0.4,4.9-1.6,5.8-2.2C36.8,40,39,40,41.4,38.3z"/>
			<path class="st47" d="M40.8,38.2c2.5-1.8,2.5-7.1,1.1-9.5c-1.6-2.9-3.6-3.6-5.3-4.4c-1.5-0.7-4.4-1.5-6.4-1.6
				c-2.5-0.4-5.6,0.2-8,0.9c-2.7,0.7-7.6,2.9-9.5,4.7c-2,2.2-1.1,7.3,0.2,8.7c1.1,1.3,1.8,2.9,4.2,3.8c2,0.7,3.6,0.4,4.7,0.5
				c1.1,0.2,4.7,1.5,7.8,0.9c2.4-0.4,4.9-1.8,5.6-2.2C36.3,39.6,38.6,39.6,40.8,38.2z"/>
			<path class="st48" d="M40.3,37.8c2.5-1.6,2.5-6.7,1.1-9.1c-1.6-2.9-3.6-3.5-5.3-4.4c-1.5-0.7-4-1.5-6.2-1.6
				c-2.4-0.2-5.5,0.2-7.8,0.9c-2.7,0.7-7.6,2.9-9.3,4.5c-2,2-1.1,6.9,0.2,8.6c1.1,1.3,1.6,2.9,4,3.6c2,0.7,3.5,0.2,4.5,0.4
				s4.4,1.6,7.6,1.1c2.4-0.4,4.7-1.8,5.5-2.2C35.9,39.3,38.1,39.3,40.3,37.8z"/>
			<path class="st49" d="M39.9,37.6c2.5-1.6,2.5-6.4,1.1-8.7c-1.6-2.9-3.5-3.5-5.1-4.2c-1.5-0.7-3.8-1.5-5.8-1.6
				c-2.4-0.4-5.5,0.2-7.8,0.9c-2.7,0.7-7.5,2.9-9.1,4.5c-1.8,2-1.3,6.6,0.2,8.2c0.9,1.1,1.6,2.9,4,3.6c1.8,0.7,3.5,0.2,4.5,0.4
				c1.1,0.2,4.2,1.6,7.5,1.1c2.5-0.4,4.5-1.8,5.3-2.2C35.6,38.9,37.7,39.1,39.9,37.6z"/>
			<path class="st50" d="M39.4,37.3c2.4-1.5,2.5-6,1.1-8.6c-1.5-2.9-3.5-3.3-5.1-4c-1.3-0.5-3.5-1.5-5.6-1.6
				c-2.2-0.4-5.3,0.2-7.6,0.7c-2.5,0.7-7.5,2.9-8.9,4.4c-1.6,1.8-1.3,6.2,0.2,8c0.9,1.1,1.5,2.7,3.8,3.5c1.8,0.5,3.5,0,4.4,0.4
				c1.1,0.2,4,1.8,7.3,1.3c2.5-0.4,4.5-2,5.1-2.4C35,38.5,37.2,38.7,39.4,37.3z"/>
			<path class="st51" d="M38.8,37.1c2.4-1.5,2.5-5.6,1.3-8.2c-1.5-2.9-3.5-3.3-5.1-4c-1.3-0.5-3.3-1.5-5.3-1.6
				c-2.2-0.4-5.3,0-7.5,0.7c-2.5,0.7-7.3,2.9-8.7,4.4c-1.6,1.6-1.3,6,0.2,7.8c0.9,1.1,1.3,2.7,3.6,3.5c1.8,0.5,3.3,0,4.4,0.2
				c1.1,0.2,3.8,1.8,7.1,1.3c2.5-0.4,4.4-2,5.1-2.4C34.6,38.2,36.6,38.3,38.8,37.1z"/>
			<path class="st52" d="M38.5,36.9c2.4-1.5,2.5-5.3,1.3-7.8c-1.5-2.9-3.5-3.1-4.9-3.8c-1.3-0.5-3.1-1.5-4.9-1.6
				c-2-0.4-5.1,0-7.5,0.7c-2.5,0.7-7.3,2.9-8.6,4.2c-1.5,1.6-1.5,5.6,0.2,7.5c0.7,0.9,1.1,2.5,3.5,3.3c1.8,0.5,3.3,0,4.2,0.2
				s3.6,2,6.9,1.5c2.5-0.4,4.2-2,4.9-2.4C34.1,37.8,36.3,38,38.5,36.9z"/>
			<path class="st53" d="M37.9,36.5c2.4-1.3,2.5-5.1,1.3-7.5c-1.5-2.9-3.3-3.1-4.9-3.8c-1.3-0.5-2.7-1.3-4.7-1.6
				c-2-0.4-5.1,0-7.3,0.5c-2.5,0.7-7.3,2.9-8.4,4.2c-1.5,1.5-1.5,5.3,0.2,7.3c0.7,0.7,0.9,2.4,3.3,3.1c1.8,0.5,3.3-0.2,4,0.2
				c0.9,0.4,3.5,2,6.6,1.5c2.5-0.4,4-2.2,4.7-2.4C33.7,37.4,35.7,37.8,37.9,36.5z"/>
			<path class="st54" d="M37.4,36.3c2.2-1.3,2.5-4.7,1.3-7.3c-1.5-2.9-3.3-2.9-4.7-3.6c-1.3-0.5-2.5-1.3-4.4-1.6
				c-1.8-0.4-4.9-0.2-7.1,0.5c-2.5,0.7-7.1,2.9-8.2,4c-1.3,1.3-1.5,5.1,0,6.9c0.7,0.9,0.7,2.4,3.1,3.1c1.8,0.5,3.3-0.2,4,0
				c0.9,0.4,3.3,2.2,6.4,1.6c2.5-0.4,4-2.2,4.5-2.5C33.4,36.9,35.4,37.4,37.4,36.3z"/>
			<path class="st55" d="M37,36c2.2-1.1,2.5-4.4,1.3-6.9c-1.5-2.9-3.3-2.9-4.7-3.6c-1.1-0.5-2.2-1.3-4-1.6c-1.8-0.4-4.9-0.2-7.1,0.5
				c-2.5,0.7-7.1,2.9-8,3.8c-1.1,1.1-1.6,4.7,0,6.7c0.5,0.9,0.5,2.4,3.1,3.1c1.8,0.4,3.1-0.2,3.8,0c0.9,0.4,3.1,2.2,6.2,1.6
				c2.5-0.4,3.8-2.2,4.4-2.5C32.8,36.5,34.8,37.1,37,36z"/>
			<path class="st56" d="M36.5,35.8c2.2-1.1,2.4-4,1.3-6.6c-1.3-2.9-3.1-2.7-4.7-3.5c-1.1-0.5-2-1.3-3.8-1.6
				c-1.6-0.4-4.7-0.2-6.9,0.4c-2.5,0.7-6.9,2.9-7.8,3.8c-1.1,1.1-1.6,4.4,0,6.4c0.5,0.7,0.5,2.4,2.9,2.9c1.6,0.4,3.1-0.4,3.8,0
				c0.9,0.4,2.7,2.4,6,1.8c2.5-0.4,3.6-2.4,4.2-2.5C32.5,36.2,34.3,36.9,36.5,35.8z"/>
			<path class="st57" d="M35.9,35.4c2.2-0.9,2.4-3.6,1.3-6.2c-1.3-2.9-3.1-2.7-4.5-3.5c-1.1-0.5-1.6-1.3-3.5-1.6
				c-1.6-0.4-4.7-0.4-6.7,0.4c-2.5,0.7-6.9,2.9-7.6,3.6c-0.9,0.9-1.8,4,0,6.2c0.5,0.7,0.4,2.2,2.7,2.7c1.6,0.4,3.1-0.4,3.6-0.2
				c0.9,0.4,2.5,2.4,5.8,1.8c2.5-0.4,3.6-2.4,4-2.5C31.9,35.8,33.9,36.5,35.9,35.4z"/>
			<path class="st58" d="M35.6,35.2c2-0.9,2.4-3.3,1.3-6c-1.3-2.9-3.1-2.7-4.5-3.3c-1.1-0.4-1.5-1.3-3.3-1.6
				c-1.6-0.4-4.5-0.4-6.7,0.4c-2.5,0.7-6.7,2.9-7.5,3.6c-0.9,0.7-1.8,3.8,0,6c0.5,0.5,0.2,2.2,2.7,2.7c1.6,0.4,2.9-0.4,3.6-0.2
				c0.9,0.4,2.4,2.4,5.6,2c2.5-0.4,3.5-2.4,3.8-2.7C31.5,35.4,33.4,36.2,35.6,35.2z"/>
		</g>
		<path class="st59" d="M32.6,25.4c-0.2,0-0.2,0-0.4,0c-0.5-1.6-2.2-2.9-4.2-2.9c-0.5,0-1.1,0.2-1.6,0.4c-0.5-1.6-2.2-2.7-4-2.7
			c-1.8,0-3.3,1.1-4,2.7c-0.2,0-0.4,0-0.7,0c-2,0-3.5,1.5-3.6,3.3c-0.2,0-0.5,0-0.9,0C10.8,26.2,9,28,9,30.3s1.8,4.2,4.2,4.2
			c0,0,0,0,0.2,0c0.4,1.6,2,2.9,3.8,2.9c1.5,0,2.7-0.7,3.3-1.8c0.9,1.6,2.7,2.7,4.5,2.7c2.2,0,4-1.3,4.9-3.3
			c0.7,0.4,1.6,0.7,2.5,0.7c2.7,0,5.1-2.4,5.1-5.1C37.7,27.6,35.6,25.4,32.6,25.4z"/>
		<path class="st60" d="M32.8,25.6c-0.2,0-0.2,0-0.4,0c-0.5-1.6-2.2-2.9-4.2-2.9c-0.5,0-1.1,0.2-1.6,0.4c-0.5-1.6-2.2-2.7-4-2.7
			c-1.8,0-3.3,1.1-4,2.7c-0.2,0-0.4,0-0.7,0c-2,0-3.5,1.5-3.6,3.3c-0.2,0-0.5,0-0.9,0c-2-0.4-3.8,1.6-3.8,4s1.8,4.2,4.2,4.2
			c0,0,0,0,0.2,0c0.4,1.6,2,2.9,3.8,2.9c1.5,0,2.7-0.7,3.3-1.8c0.9,1.6,2.7,2.7,4.5,2.7c2.2,0,4-1.3,4.9-3.3
			c0.7,0.4,1.6,0.7,2.5,0.7c2.7,0,5.1-2.4,5.1-5.1C37.9,27.8,35.7,25.6,32.8,25.6z"/>
	</g>
	<g>
		<g>
			<path class="st0" d="M31.5,34.7c2-2.9,0.9-8.2-0.4-10c-1.8-2.4-4.5-2.7-6.2-3.6c-1.5-0.7-4.5-2.9-6.7-2.9c-2.9,0-4.4,1.1-6.7,1.6
				c-2.5,0.7-6.9,4.7-9.3,7.3c-2.7,3.1-2,7.6-1.3,8.6c1.3,1.6,2.9,3.3,4.9,4.4c2,0.9,3.6,0.9,5.1,0.9c1.1,0,2.4,0.5,5.1,0
				c2-0.4,2.9-0.5,4-0.9C22.4,39.3,29.4,38.3,31.5,34.7z"/>
			<path class="st1" d="M31.2,34.7c2-2.7,1.1-8-0.4-9.8c-1.8-2.4-4.5-2.7-6.2-3.5c-1.6-0.7-4.5-3.1-6.6-3.1c-2.9,0-4.4,1.1-6.7,1.6
				c-2.5,0.7-6.7,4.5-8.9,7.1C-0.3,30,0.2,34.5,1,35.4c1.5,1.5,3.1,3.1,5.1,4c2,0.9,3.6,0.7,4.9,0.9c1.1,0,2.4,0.7,5.1,0
				c2-0.4,2.9-0.5,4-0.9C22.3,38.9,29,38,31.2,34.7z"/>
			<path class="st40" d="M30.8,34.5c2-2.7,1.1-7.8-0.2-9.6c-1.8-2.4-4.4-2.7-6-3.5c-1.6-0.7-4.4-3.1-6.6-3.1c-2.7,0-4.4,0.9-6.7,1.6
				c-2.5,0.7-6.6,4.5-8.7,6.9c-2.5,2.9-2.2,7.3-1.3,8.2c1.3,1.6,2.7,3.1,4.7,4c2,0.9,3.5,0.7,4.9,0.7c1.1,0.2,2.4,0.7,5.1,0.2
				c2-0.4,3.1-0.7,4-0.9C22.1,38.5,28.6,37.8,30.8,34.5z"/>
			<path class="st3" d="M30.5,34.5c1.8-2.5,1.1-7.6-0.2-9.5c-1.6-2.4-4.4-2.7-6-3.5c-1.5-0.7-4.4-3.1-6.4-3.1
				c-2.7,0-4.4,0.9-6.6,1.5c-2.5,0.7-6.6,4.5-8.6,6.9c-2.4,2.7-2.2,7.1-1.5,8c1.3,1.5,2.7,3.1,4.7,3.8c2,0.7,3.5,0.5,4.7,0.7
				c1.1,0.2,2.4,0.7,5.1,0.2c2-0.4,3.1-0.7,4-0.9C22.1,38.3,28.3,37.6,30.5,34.5z"/>
			<path class="st41" d="M30.1,34.3c1.8-2.5,1.3-7.5,0-9.1c-1.6-2.4-4.4-2.5-6-3.5c-1.5-0.7-4.2-3.1-6.2-3.1c-2.5,0-4.2,0.9-6.6,1.5
				C8.8,20.9,5,24.7,3,26.9c-2.4,2.5-2.4,6.7-1.5,7.8c1.1,1.5,2.5,2.9,4.5,3.8c2,0.7,3.5,0.5,4.7,0.5c1.1,0.2,2.4,0.7,5.1,0.2
				c2-0.4,3.1-0.7,4-0.9C21.9,38,27.9,37.4,30.1,34.3z"/>
			<path class="st42" d="M29.7,34.3c1.8-2.4,1.3-7.1,0-8.9c-1.6-2.4-4.4-2.5-5.8-3.3s-4-3.1-6-3.1c-2.5-0.2-4.4,0.5-6.6,1.3
				C9,21.1,5,24.7,3.2,26.9c-2.4,2.5-2.4,6.6-1.5,7.6c1.1,1.5,2.5,2.9,4.5,3.6c1.8,0.7,3.3,0.4,4.5,0.5c1.1,0.2,2.4,0.9,5.1,0.4
				c2-0.4,3.1-0.7,4-0.9C21.9,37.6,27.5,37.1,29.7,34.3z"/>
			<path class="st43" d="M29.4,34.2c1.8-2.4,1.3-6.9,0-8.7c-1.6-2.4-4.2-2.5-5.8-3.3c-1.5-0.7-4-3.1-5.8-3.1
				c-2.4-0.2-4.2,0.7-6.4,1.3c-2.4,0.7-6.2,4.4-8,6.4c-2.2,2.4-2.5,6.4-1.5,7.5c1.1,1.3,2.4,2.9,4.4,3.5c2,0.7,3.5,0.4,4.5,0.5
				c0.9,0.2,2.4,0.9,5.1,0.4c2-0.4,3.1-0.7,4-0.9C21.7,37.3,27.2,36.9,29.4,34.2z"/>
			<path class="st44" d="M29,34.2c1.8-2.2,1.3-6.7,0.2-8.6c-1.6-2.4-4.2-2.5-5.8-3.3c-1.5-0.7-3.8-3.1-5.6-3.3
				c-2.4,0-4.2,0.7-6.4,1.5c-2.4,0.7-6,4.4-7.8,6.4c-2,2.2-2.5,6-1.6,7.3c1.1,1.3,2.4,2.7,4.4,3.5s3.5,0.2,4.5,0.4
				c0.9,0,2.4,0.7,5.1,0.2c2.2-0.4,3.1-0.7,4-0.9C21.5,37.1,26.8,36.7,29,34.2z"/>
			<path class="st45" d="M28.6,34c1.8-2.2,1.5-6.6,0.2-8.2c-1.6-2.4-4.2-2.4-5.6-3.1c-1.3-0.7-3.6-3.1-5.6-3.3
				c-2.2-0.2-4.2,0.5-6.4,1.1c-2.4,0.7-6,4.4-7.6,6.2c-2,2.2-2.5,5.8-1.6,7.1c1.1,1.3,2.2,2.7,4.4,3.3c2,0.5,3.5,0.2,4.5,0.4
				c0.9,0.2,2.4,0.9,5.1,0.4c2.2-0.4,3.1-0.9,4-0.9C21.5,36.7,26.5,36.5,28.6,34z"/>
			<path class="st46" d="M28.3,34c1.8-2,1.5-6.4,0.4-8c-1.6-2.4-4.2-2.4-5.6-3.1c-1.3-0.5-3.5-3.1-5.5-3.3c-2.2-0.2-4.2,0.5-6.4,1.1
				c-2.4,0.7-5.8,4.4-7.5,6c-1.8,2-2.7,5.6-1.6,6.9c0.9,1.1,2.2,2.5,4.2,3.1s3.3,0,4.4,0.2c0.9,0.2,2.4,1.1,5.1,0.5
				c2.2-0.4,3.1-0.9,4-0.9C21.4,36.3,26.1,36.2,28.3,34z"/>
			<path class="st47" d="M27.9,33.8c1.8-2,1.5-6,0.4-7.8c-1.6-2.4-4-2.4-5.6-3.1c-1.3-0.5-3.5-3.1-5.3-3.3c-2.2-0.2-4.2,0.4-6.4,1.1
				c-2.4,0.7-5.8,4.2-7.3,5.8c-1.8,2-2.7,5.5-1.6,6.7c0.9,1.1,2,2.5,4.2,3.1c2,0.5,3.3,0,4.4,0.2c0.9,0.2,2.4,1.1,5.1,0.5
				c2.2-0.4,3.3-0.9,4-0.9C21.4,36,25.7,36,27.9,33.8z"/>
			<path class="st48" d="M27.5,33.6c1.8-1.8,1.5-5.8,0.4-7.5c-1.6-2.4-4-2.4-5.5-2.9c-1.3-0.5-3.3-3.1-5.1-3.3
				c-2-0.4-4.2,0.4-6.2,0.9c-2.4,0.7-5.6,4.2-7.1,5.8c-1.8,1.6-2.9,5.1-1.8,6.6c0.9,1.1,2,2.4,4,2.9c2,0.5,3.3-0.2,4.2,0
				c0.9,0.2,2.4,1.1,5.1,0.5c2.2-0.4,3.3-0.9,4-0.9C21.2,35.6,25.4,35.8,27.5,33.6z"/>
			<path class="st49" d="M27.2,33.6c1.8-1.6,1.6-5.6,0.5-7.3c-1.6-2.4-4-2.2-5.5-2.9c-1.3-0.5-3.1-3.1-4.9-3.3
				c-2-0.4-4.2,0.2-6.4,0.7c-2.4,0.7-5.5,4.2-6.9,5.6c-1.6,1.6-2.9,4.9-1.6,6.4c0.9,1.1,1.8,2.4,4,2.7c2,0.4,3.3-0.2,4.2,0
				c0.9,0.2,2.4,1.1,5.1,0.5c2.2-0.4,3.3-0.9,4-0.9C21.2,35.4,25,35.4,27.2,33.6z"/>
			<path class="st50" d="M26.8,33.4c1.8-1.6,1.6-5.5,0.5-7.1c-1.6-2.4-4-2.2-5.5-2.9c-1.1-0.5-3.1-3.1-4.7-3.3
				c-2-0.2-4.2,0.4-6.2,0.9c-2.4,0.7-5.5,4.2-6.7,5.5c-1.5,1.6-2.9,4.7-1.8,6.2c0.7,0.9,1.8,2.4,3.8,2.7c2.2,0.4,3.3-0.4,4.2-0.2
				c0.9,0.2,2.4,1.1,5.1,0.7c2.2-0.4,3.3-1.1,3.8-0.9C21,35.1,24.6,35.2,26.8,33.4z"/>
			<path class="st51" d="M26.5,33.4c1.8-1.5,1.6-5.3,0.7-6.9c-1.5-2.4-3.8-2.2-5.3-2.7c-1.1-0.5-2.9-3.1-4.7-3.5
				C15.4,20,13,20.5,11,21.1c-2.4,0.7-5.3,4-6.6,5.3c-1.5,1.5-3.1,4.5-1.8,6c0.7,0.9,1.6,2.2,3.8,2.5c2.2,0.4,3.3-0.4,4-0.2
				c0.9,0.4,2.4,1.5,5.3,0.9c2.2-0.4,3.3-1.1,3.8-0.9C20.8,34.7,24.5,35.1,26.5,33.4z"/>
			<path class="st52" d="M26.1,33.2c1.8-1.5,1.6-5.1,0.7-6.6c-1.5-2.4-3.8-2.2-5.3-2.7c-1.1-0.5-2.7-3.1-4.5-3.5
				c-1.8-0.4-4.2,0.2-6.2,0.7c-2.2,0.7-5.3,4-6.4,5.3c-1.3,1.3-3.1,4.4-1.8,5.8c0.7,0.9,1.6,2.2,3.6,2.4c2.2,0.4,3.3-0.5,4-0.4
				c0.9,0.2,2.4,1.3,5.1,0.7c2.2-0.4,3.3-1.1,3.8-0.9C20.8,34.3,24.1,34.9,26.1,33.2z"/>
			<path class="st53" d="M25.7,33.2c1.8-1.3,1.8-4.7,0.7-6.4c-1.5-2.4-3.8-2-5.1-2.7c-1.1-0.5-2.5-3.1-4.4-3.5s-4,0-6,0.5
				c-2.2,0.7-5.1,4-6.2,5.1c-1.3,1.3-3.3,4-1.8,5.6c0.7,0.7,1.5,2,3.6,2.4c2.2,0.2,3.1-0.7,3.8-0.4c0.9,0.2,2.4,1.3,5.1,0.9
				c2.2-0.4,3.3-1.1,3.8-0.9C20.6,34.2,23.7,34.5,25.7,33.2z"/>
			<path class="st54" d="M25.4,33.1c1.8-1.3,1.8-4.5,0.9-6.2c-1.5-2.4-3.8-2-5.1-2.5c-1.1-0.5-2.5-3.1-4.2-3.5c-1.6-0.4-4,0-6,0.5
				c-2.2,0.7-4.9,4-6,4.9c-1.1,1.1-3.3,3.8-1.8,5.6c0.7,0.7,1.5,2,3.6,2.2s3.1-0.7,3.8-0.5c0.9,0.2,2.4,1.3,5.1,0.9
				c2.2-0.4,3.3-1.1,3.8-1.1C20.6,33.8,23.4,34.3,25.4,33.1z"/>
			<path class="st55" d="M24.8,33.1c1.8-1.1,1.8-4.4,0.9-5.8c-1.5-2.4-3.6-2-5.1-2.5c-0.9-0.5-2.2-3.3-3.8-3.6c-1.6-0.4-4-0.2-6,0.5
				c-2.2,0.7-4.9,4-5.8,4.7c-1.1,1.1-3.3,3.6-1.8,5.5c0.5,0.7,1.3,1.8,3.5,2c2.2,0.2,3.1-0.9,3.8-0.5c0.9,0.4,2.4,1.5,5.1,0.9
				c2.2-0.4,3.5-1.1,3.8-1.1C20.4,33.4,23,34.2,24.8,33.1z"/>
			<path class="st56" d="M24.5,32.9c1.8-1.1,2-4.2,1.1-5.6c-1.5-2.4-3.6-2-4.9-2.5c-0.9-0.4-2.2-3.1-3.8-3.5c-1.5-0.4-4-0.2-6,0.4
				c-2.4,0.7-4.9,3.8-5.6,4.7c-0.9,0.9-3.5,3.5-1.8,5.3c0.5,0.7,1.3,1.8,3.5,2s3.1-0.9,3.6-0.7c0.7,0.4,2.4,1.5,5.1,0.9
				c2.2-0.4,3.5-1.3,3.8-1.1C20.4,33.1,22.6,34,24.5,32.9z"/>
			<path class="st57" d="M24.1,32.7c1.8-0.9,2-4,1.1-5.5c-1.5-2.4-3.6-1.8-4.9-2.5c-0.9-0.4-2.2-3.1-3.8-3.5c-1.5-0.4-4-0.2-6,0.4
				c-2.2,0.7-4.7,3.8-5.5,4.5c-0.9,0.7-3.5,3.3-2,5.1c0.5,0.5,1.1,1.8,3.3,1.8s3.1-0.9,3.6-0.7c0.7,0.4,2.4,1.5,5.3,1.1
				c2.2-0.4,3.5-1.3,3.8-1.1C20.3,32.7,22.3,33.8,24.1,32.7z"/>
			<path class="st58" d="M23.7,32.7c1.8-0.7,2-3.8,1.1-5.3c-1.5-2.4-3.6-1.8-4.9-2.4c-0.9-0.4-2-3.1-3.6-3.6c-1.5-0.4-4-0.4-5.8,0.4
				c-2.2,0.7-4.5,3.8-5.1,4.4c-0.7,0.7-3.6,2.9-2,4.9c0.5,0.5,1.1,1.6,3.3,1.6s3.1-1.1,3.6-0.9c0.7,0.4,2.4,1.5,5.3,1.1
				c2.4-0.4,3.5-1.3,3.8-1.1C20.1,32.5,21.9,33.4,23.7,32.7z"/>
		</g>
		<path class="st59" d="M22.1,24.3c-0.5,0-1.1,0-1.5,0.2c-0.5-3.1-3.3-5.5-6.4-5.6s-5.8,1.8-6.9,4.7l0,0c-2.7-0.2-4.9,2-5.1,4.5
			c-0.2,2.7,1.8,4.9,4.5,5.1c1.5,0,2.5-0.4,3.6-1.3c0.9,0.5,2,0.9,3.1,0.9c2,0.2,4-0.7,5.3-2c0.7,0.9,1.8,1.5,2.9,1.6
			c2.2,0.2,4.2-1.6,4.2-3.8C25.9,26.3,24.3,24.5,22.1,24.3z"/>
	</g>
</g>
</svg>
