<?xml version="1.0" encoding="utf-8"?>
<!-- Generator: Adobe Illustrator 27.0.1, SVG Export Plug-In . SVG Version: 6.00 Build 0)  -->
<svg version="1.1" id="Ebene_1" xmlns="http://www.w3.org/2000/svg" xmlns:xlink="http://www.w3.org/1999/xlink" x="0px" y="0px"
	 viewBox="0 0 28.5 20" style="enable-background:new 0 0 28.5 20;" xml:space="preserve">
<style type="text/css">
	.st0{fill:#FFFFFF;fill-opacity:0;}
	.st1{opacity:5.000000e-02;fill:#F9FBFB;enable-background:new    ;}
	.st2{opacity:0.1;fill:#F4F6F8;enable-background:new    ;}
	.st3{opacity:0.14;fill:#EEF2F4;enable-background:new    ;}
	.st4{opacity:0.19;fill:#E9EDF1;enable-background:new    ;}
	.st5{opacity:0.24;fill:#E3E9ED;enable-background:new    ;}
	.st6{opacity:0.29;fill:#DEE5EA;enable-background:new    ;}
	.st7{opacity:0.33;fill:#D8E0E6;enable-background:new    ;}
	.st8{opacity:0.38;fill:#D3DCE3;enable-background:new    ;}
	.st9{opacity:0.43;fill:#CDD8DF;enable-background:new    ;}
	.st10{opacity:0.48;fill:#C8D3DC;enable-background:new    ;}
	.st11{opacity:0.52;fill:#C2CFD8;enable-background:new    ;}
	.st12{opacity:0.57;fill:#BDCAD5;enable-background:new    ;}
	.st13{opacity:0.62;fill:#B7C6D1;enable-background:new    ;}
	.st14{opacity:0.67;fill:#B2C2CE;enable-background:new    ;}
	.st15{opacity:0.71;fill:#ACBDCA;enable-background:new    ;}
	.st16{opacity:0.76;fill:#A7B9C7;enable-background:new    ;}
	.st17{opacity:0.81;fill:#A1B5C3;enable-background:new    ;}
	.st18{opacity:0.86;fill:#9CB0C0;enable-background:new    ;}
	.st19{opacity:0.9;fill:#96ACBC;enable-background:new    ;}
	.st20{opacity:0.95;fill:#91A7B9;enable-background:new    ;}
	.st21{fill:#8BA3B5;}
	.st22{fill:#EEF7FA;}
	.st23{fill:#91D5EB;}
	.st24{fill:#FFFFFF;}
	.st25{fill:#9DDEF2;}
	.st26{fill:#A2DEF2;}
	.st27{fill:#BEE9F7;}
	.st28{fill:#C8EEFA;}
	.st29{fill:url(#SVGID_1_);}
</style>
<g>
	<g id="Ebene_2_00000127744499201729593940000012137800360199281844_">
		<g id="Paper-Icons">
			<g>
				<g>
					<g>
						<path class="st0" d="M26.8,14.3c2.1-2.1,2-3.8,1.3-5.7c-0.5-1.4-0.8-2.3-1.7-3.6c-0.8-1.1-2.5-2.6-5-3
							C19,1.7,13.1,5.7,11.1,6.3C9,6.9,6.3,8.4,3.6,9.5C2.1,10.1,0,11.9,0,12.9c-0.1,1.6,0.5,2.2,1.1,2.8s2.1,1.7,3,2.1
							c0.8,0.4,2.9,1,3.6,1c1.6,0.2,2.1-0.3,3.4-0.2c1.6,0.2,2.2,0.3,2.9,0.3c0.7,0,1.2-0.2,1.6-0.2c0.5,0,1.4,0,2-0.1
							c1.7-0.4,2-0.2,2.9-0.5C22.4,17.6,25,16,26.8,14.3L26.8,14.3z"/>
						<path class="st1" d="M26.5,14.2c2.1-2,2-3.7,1.3-5.5c-0.5-1.3-0.8-2.2-1.7-3.5c-0.8-1.1-2.4-2.6-4.9-3
							c-2.4-0.4-8.1,3.6-10.1,4.1C9,7,6.4,8.5,3.7,9.6c-1.4,0.6-3.6,2.3-3.6,3.3c0,1.5,0.5,2.1,1.2,2.7c0.7,0.6,2.1,1.7,2.9,2.1
							s2.8,0.9,3.6,1c1.5,0.2,2.1-0.2,3.3-0.1c1.6,0.2,2.1,0.3,2.9,0.2c0.7,0,1.2-0.1,1.6-0.1c0.6,0,1.4,0,2-0.1
							c1.7-0.3,1.9-0.2,2.8-0.5C22.3,17.4,24.8,15.9,26.5,14.2z"/>
						<path class="st2" d="M26.3,14.1c2-1.9,1.9-3.6,1.2-5.3c-0.5-1.3-0.8-2.2-1.7-3.4c-0.8-1.1-2.3-2.5-4.8-3s-7.9,3.5-9.9,4
							C9,7,6.6,8.5,3.9,9.6c-1.4,0.6-3.7,2.2-3.8,3.2c0,1.5,0.5,2,1.2,2.6c0.7,0.6,2.1,1.7,2.9,2s2.8,0.8,3.5,0.9
							c1.5,0.1,2.1-0.2,3.3-0.1c1.6,0.2,2.1,0.2,2.8,0.2c0.6,0,1.2-0.1,1.6-0.1c0.6,0,1.4,0,2-0.1c1.6-0.3,1.9-0.2,2.8-0.5
							C22.2,17.2,24.6,15.7,26.3,14.1L26.3,14.1z"/>
						<path class="st3" d="M26.1,14c2-1.9,1.9-3.5,1.2-5.2c-0.5-1.3-0.9-2.1-1.7-3.3c-0.8-1.1-2.2-2.5-4.7-3S13.1,6,11.2,6.6
							C9.1,7.1,6.7,8.6,4.1,9.7c-1.3,0.5-3.9,2.1-3.8,3.1c0,1.4,0.6,1.9,1.3,2.5s2,1.7,2.9,2c0.9,0.4,2.7,0.7,3.4,0.8
							c1.5,0.1,2.1-0.1,3.3,0c1.6,0.1,2.1,0.2,2.8,0.2c0.6,0,1.1-0.1,1.6-0.1c0.6,0,1.4,0,2-0.2c1.6-0.3,1.8-0.2,2.8-0.5
							C22.1,16.9,24.4,15.6,26.1,14L26.1,14z"/>
						<path class="st4" d="M25.8,13.9c1.9-1.8,1.8-3.4,1.1-5c-0.5-1.3-0.9-2-1.7-3.2c-0.8-1-2.1-2.4-4.5-3c-2.3-0.5-7.5,3.3-9.5,3.8
							C9.1,7.2,6.8,8.7,4.3,9.7c-1.3,0.5-4,2-3.9,3c0,1.4,0.6,1.9,1.3,2.4s2,1.6,2.8,1.9c0.9,0.3,2.6,0.6,3.4,0.7
							c1.5,0.1,2.1,0,3.3,0.1c1.6,0.1,2,0.2,2.7,0.1c0.6,0,1.1-0.1,1.6-0.1c0.7,0,1.4-0.1,2-0.2c1.5-0.3,1.8-0.1,2.8-0.5
							C22,16.7,24.2,15.4,25.8,13.9L25.8,13.9z"/>
						<path class="st5" d="M25.6,13.9c1.8-1.7,1.8-3.3,1.1-4.8c-0.5-1.2-0.9-2-1.8-3.1c-0.8-1-2-2.4-4.4-3c-2.3-0.6-7.4,3.2-9.3,3.7
							C9.1,7.3,6.9,8.8,4.5,9.8c-1.3,0.5-4.1,1.9-4,2.9c0.1,1.3,0.6,1.8,1.3,2.3s2,1.6,2.8,1.9c0.9,0.3,2.5,0.5,3.3,0.6
							c1.5,0.1,2,0,3.3,0.1c1.6,0.1,2,0.1,2.7,0.1c0.6,0,1.1,0,1.6,0c0.7,0,1.4-0.1,2-0.2c1.5-0.3,1.8-0.1,2.7-0.4
							C21.9,16.5,24,15.3,25.6,13.9L25.6,13.9z"/>
						<path class="st6" d="M25.3,13.8c1.8-1.6,1.7-3.1,1-4.6c-0.6-1.2-1-1.9-1.8-3c-0.7-1-1.9-2.4-4.3-3c-2.3-0.6-7.2,3.1-9.1,3.7
							c-2.1,0.6-4.2,2.1-6.6,3c-1.2,0.5-4.2,1.7-4.1,2.8c0.1,1.2,0.7,1.7,1.4,2.2s2,1.6,2.8,1.8c1,0.3,2.5,0.4,3.3,0.5
							c1.5,0.1,2,0.1,3.2,0.2c1.6,0.1,1.9,0.1,2.7,0.1c0.6,0,1.1,0,1.6,0c0.7,0,1.5-0.1,2-0.2c1.5-0.3,1.7-0.1,2.7-0.4
							C21.8,16.3,23.8,15.1,25.3,13.8L25.3,13.8z"/>
						<path class="st7" d="M25.1,13.7c1.7-1.5,1.7-3,1-4.5c-0.6-1.2-1-1.9-1.8-2.9c-0.7-1-1.8-2.3-4.2-3c-2.2-0.6-7,3-8.9,3.6
							c-2.1,0.6-4,2.1-6.4,3c-1.2,0.5-4.3,1.6-4.2,2.8c0.1,1.2,0.7,1.6,1.4,2.1s1.9,1.6,2.7,1.8c1,0.3,2.4,0.3,3.2,0.4
							c1.4,0.1,2,0.2,3.2,0.2c1.6,0.1,1.9,0.1,2.6,0.1c0.6,0,1,0,1.6,0c0.8,0,1.5-0.2,2.1-0.3c1.4-0.3,1.7-0.1,2.7-0.4
							C21.8,16.1,23.6,15,25.1,13.7L25.1,13.7z"/>
						<path class="st8" d="M24.8,13.6c1.7-1.4,1.6-2.9,0.9-4.3c-0.6-1.1-1-1.8-1.8-2.8c-0.7-0.9-1.7-2.3-4.1-3
							c-2.2-0.7-6.8,3-8.7,3.5c-2,0.6-3.9,2.1-6.2,3c-1.2,0.5-4.4,1.5-4.3,2.7s0.8,1.5,1.5,2c0.7,0.6,1.9,1.5,2.7,1.7
							c1,0.3,2.3,0.2,3.1,0.3c1.4,0.1,2,0.2,3.2,0.3c1.6,0.1,1.9,0,2.6,0c0.6,0,1,0,1.6,0c0.8,0,1.5-0.2,2.1-0.3
							c1.4-0.2,1.6,0,2.6-0.4C21.7,15.9,23.4,14.9,24.8,13.6L24.8,13.6z"/>
						<path class="st9" d="M24.6,13.6c1.6-1.3,1.6-2.8,0.9-4.1c-0.6-1.1-1.1-1.7-1.8-2.7c-0.7-0.9-1.6-2.2-4-3
							c-2.2-0.7-6.6,2.9-8.5,3.4c-2,0.6-3.8,2-6.1,2.9c-1.2,0.5-4.6,1.4-4.4,2.6c0.1,1.1,0.8,1.4,1.5,1.9c0.7,0.6,1.9,1.5,2.7,1.7
							C6,16.5,7.1,16.4,8,16.5c1.4,0.1,2,0.3,3.2,0.4c1.6,0.1,1.8,0,2.5,0c0.5,0,1,0.1,1.6,0.1c0.8,0,1.5-0.2,2.1-0.3
							c1.3-0.2,1.6,0,2.6-0.4C21.6,15.7,23.2,14.7,24.6,13.6L24.6,13.6z"/>
						<path class="st10" d="M24.4,13.5c1.5-1.2,1.5-2.7,0.8-3.9c-0.6-1.1-1.1-1.7-1.8-2.6s-1.5-2.2-3.8-3c-2.2-0.8-6.4,2.8-8.3,3.3
							c-2,0.6-3.7,2-5.9,2.9c-1.1,0.4-4.7,1.3-4.5,2.5c0.1,1,0.8,1.3,1.5,1.8C3.1,15,4.2,15.9,5,16.1c1.1,0.2,2.2,0.1,3,0.1
							c1.4,0.1,2,0.4,3.1,0.4c1.6,0.1,1.8,0,2.5,0c0.5,0,0.9,0.1,1.6,0.1c0.9,0,1.5-0.3,2.1-0.4c1.3-0.2,1.5,0,2.6-0.4
							C21.5,15.4,23,14.5,24.4,13.5z"/>
						<path class="st11" d="M24.1,13.4c1.5-1.1,1.5-2.6,0.8-3.8c-0.6-1.1-1.1-1.6-1.8-2.5s-1.4-2.1-3.7-3c-2.1-0.8-6.3,2.7-8.1,3.2
							c-2,0.6-3.6,2-5.7,2.9c-1.1,0.4-4.8,1.2-4.6,2.4c0.1,1,0.9,1.2,1.6,1.7c0.8,0.5,1.8,1.4,2.6,1.6c1.1,0.2,2.1,0,2.9,0.1
							c1.4,0.1,1.9,0.4,3.1,0.5c1.6,0.1,1.8-0.1,2.5,0c0.5,0,0.9,0.1,1.6,0.1c0.9,0,1.5-0.3,2.1-0.4c1.2-0.2,1.5,0,2.5-0.4
							C21.4,15.2,22.8,14.4,24.1,13.4L24.1,13.4z"/>
						<path class="st12" d="M23.9,13.3c1.4-1,1.4-2.4,0.7-3.6c-0.6-1-1.2-1.6-1.9-2.4s-1.3-2.1-3.6-3C17,3.4,13,6.9,11.3,7.4
							c-2,0.6-3.5,2-5.6,2.9c-1.1,0.4-4.9,1.1-4.7,2.3c0.1,0.9,0.9,1.1,1.6,1.6c0.8,0.5,1.8,1.4,2.5,1.6c1.1,0.2,2-0.1,2.9,0
							c1.4,0.1,1.9,0.5,3.1,0.6c1.5,0.1,1.7-0.1,2.4-0.1c0.5,0,0.9,0.1,1.6,0.1c0.9,0,1.5-0.3,2.1-0.4c1.2-0.2,1.4,0,2.5-0.4
							C21.3,15,22.5,14.2,23.9,13.3L23.9,13.3z"/>
						<path class="st13" d="M23.6,13.2c1.4-0.9,1.4-2.3,0.7-3.4c-0.6-1-1.2-1.5-1.9-2.3s-1.2-2-3.5-3c-2.1-0.9-5.9,2.5-7.7,3
							c-2,0.6-3.4,2-5.4,2.8c-1,0.4-5.1,1-4.8,2.3c0.2,0.9,1,1.1,1.7,1.5c0.8,0.5,1.8,1.4,2.5,1.5c1.2,0.2,1.9-0.2,2.8-0.1
							c1.3,0.1,1.9,0.6,3.1,0.6c1.5,0.1,1.7-0.1,2.4-0.1c0.5,0,0.9,0.2,1.6,0.2c1,0,1.6-0.4,2.1-0.4c1.1-0.2,1.4,0.1,2.5-0.3
							C21.2,14.8,22.3,14.1,23.6,13.2z"/>
						<path class="st14" d="M23.4,13.1c1.3-0.8,1.3-2.2,0.6-3.3c-0.6-0.9-1.2-1.4-1.9-2.2s-1.1-2-3.4-3C16.7,3.7,13,7,11.3,7.5
							c-2,0.6-3.3,2-5.2,2.8c-1,0.4-5.2,0.9-4.9,2.2c0.2,0.8,1,1,1.7,1.4c0.8,0.5,1.8,1.4,2.5,1.4c1.2,0.1,1.8-0.3,2.8-0.2
							c1.3,0.1,1.9,0.6,3.1,0.7c1.5,0.1,1.6-0.2,2.3-0.1c0.5,0,0.8,0.2,1.6,0.2c1,0,1.6-0.4,2.1-0.5c1.1-0.2,1.3,0.1,2.5-0.3
							C21.1,14.6,22.1,13.9,23.4,13.1L23.4,13.1z"/>
						<path class="st15" d="M23.1,13.1c1.2-0.7,1.2-2.1,0.6-3.1c-0.6-0.9-1.3-1.4-1.9-2.1s-1-1.9-3.2-3c-2-1-5.6,2.3-7.3,2.8
							c-1.9,0.6-3.2,2-5,2.8c-1,0.4-5.3,0.8-5,2.1c0.2,0.8,1,0.9,1.7,1.3c0.8,0.5,1.7,1.3,2.4,1.4c1.2,0.1,1.8-0.4,2.7-0.3
							c1.3,0.1,1.9,0.7,3,0.7c1.5,0.1,1.6-0.2,2.3-0.2c0.4,0,0.8,0.2,1.6,0.2c1,0,1.6-0.4,2.1-0.5c1-0.2,1.3,0.1,2.4-0.3
							C21,14.3,21.9,13.8,23.1,13.1L23.1,13.1z"/>
						<path class="st16" d="M22.9,13c1.2-0.6,1.2-2,0.5-2.9c-0.6-0.9-1.3-1.3-1.9-2s-0.9-1.9-3.1-3c-2-1-5.4,2.2-7.1,2.8
							c-1.9,0.6-3.1,2-4.9,2.7c-0.9,0.4-5.4,0.6-5.1,2c0.2,0.7,1.1,0.8,1.8,1.2c0.8,0.5,1.7,1.3,2.4,1.4c1.2,0.1,1.7-0.4,2.6-0.4
							c1.3,0.1,1.9,0.8,3,0.8c1.5,0,1.6-0.2,2.3-0.2c0.4,0,0.8,0.2,1.6,0.2c1.1,0,1.6-0.4,2.1-0.5c1-0.1,1.2,0.1,2.4-0.3
							C20.9,14.1,21.7,13.6,22.9,13L22.9,13z"/>
						<path class="st17" d="M22.7,12.9c1.1-0.6,1.1-1.9,0.5-2.8s-1.3-1.3-1.9-2s-0.8-1.9-3-3c-2-1-5.2,2.2-6.9,2.7
							c-1.9,0.6-2.9,2-4.7,2.7c-0.9,0.4-5.6,0.5-5.2,1.9c0.2,0.7,1.1,0.7,1.8,1.1C4,14,4.9,14.8,5.6,14.9c1.3,0.1,1.6-0.5,2.6-0.5
							c1.3,0.1,1.8,0.8,3,0.9c1.5,0,1.5-0.3,2.2-0.2c0.4,0,0.8,0.3,1.6,0.3c1.1,0,1.6-0.5,2.1-0.6c1-0.1,1.2,0.1,2.4-0.3
							C20.8,13.9,21.5,13.5,22.7,12.9L22.7,12.9z"/>
						<path class="st18" d="M22.4,12.8c1.1-0.5,1.1-1.8,0.4-2.6s-1.4-1.2-2-1.9c-0.6-0.7-0.6-1.8-2.9-3c-2-1.1-5,2.1-6.7,2.6
							c-1.9,0.6-2.8,2-4.5,2.7c-0.9,0.4-5.7,0.4-5.3,1.8c0.2,0.6,1.1,0.6,1.8,1c0.8,0.5,1.6,1.2,2.3,1.3c1.3,0.1,1.5-0.6,2.5-0.6
							C9.4,14.2,10,15,11.1,15c1.5,0,1.5-0.3,2.2-0.2c0.4,0,0.7,0.3,1.6,0.3c1.1,0,1.6-0.5,2.1-0.6c0.9-0.1,1.1,0.2,2.4-0.3
							C20.8,13.7,21.3,13.3,22.4,12.8z"/>
						<path class="st19" d="M22.2,12.7c1-0.4,1-1.6,0.4-2.4s-1.4-1.1-2-1.8c-0.6-0.6-0.5-1.8-2.8-3c-1.9-1.1-4.8,2-6.5,2.5
							C9.5,8.6,8.6,10,7,10.6C6.1,11,1.1,11,1.6,12.4c0.2,0.6,1.2,0.5,1.9,0.9c0.8,0.4,1.6,1.2,2.3,1.2c1.3,0,1.4-0.7,2.4-0.7
							c1.2,0.1,1.8,1,2.9,1c1.5,0,1.5-0.3,2.1-0.3c0.4,0,0.7,0.3,1.6,0.3c1.2,0,1.7-0.5,2.1-0.6c0.9-0.1,1.1,0.2,2.3-0.3
							C20.7,13.5,21.1,13.2,22.2,12.7z"/>
						<path class="st20" d="M21.9,12.6c0.9-0.3,1-1.5,0.4-2.2s-1.4-1.1-2-1.7c-0.6-0.6-0.5-1.7-2.7-3c-1.9-1.1-4.6,1.9-6.3,2.4
							c-1.9,0.6-2.6,2-4.2,2.6c-0.8,0.3-6,0.2-5.5,1.7c0.2,0.5,1.2,0.4,1.9,0.8c0.8,0.4,1.6,1.2,2.2,1.2c1.3,0,1.4-0.8,2.4-0.8
							c1.2,0.1,1.8,1,2.9,1c1.5,0,1.4-0.4,2.1-0.3c0.4,0,0.7,0.3,1.6,0.4c1.2,0,1.7-0.6,2.1-0.6c0.8-0.1,1.1,0.2,2.3-0.2
							C20.6,13.3,20.9,13,21.9,12.6L21.9,12.6z"/>
						<path class="st21" d="M21.7,12.6c0.9-0.2,0.9-1.4,0.3-2.1c-0.7-0.7-1.5-1-2-1.6c-0.6-0.6-0.4-1.7-2.5-3
							c-1.9-1.2-4.5,1.8-6.1,2.3c-1.9,0.6-2.5,2-4,2.6c-0.8,0.3-6.2,0.1-5.6,1.6c0.2,0.4,1.2,0.3,2,0.7c0.8,0.4,1.6,1.1,2.2,1.1
							c1.4-0.1,1.3-0.9,2.3-0.9c1.2,0,1.8,1.1,2.9,1.1c1.5,0,1.4-0.4,2.1-0.3c0.4,0,0.6,0.4,1.6,0.4c1.2,0,1.7-0.6,2.2-0.6
							c0.8-0.1,1,0.2,2.3-0.2C20.5,13.1,20.6,12.8,21.7,12.6L21.7,12.6z"/>
					</g>
					<path class="st22" d="M21.1,9.6C20.9,9,20.5,8.4,20,8c0.1-0.4,0.2-0.8,0.2-1.2c0.1-2.1-1.5-3.9-3.6-4c-1.6-0.1-3,0.9-3.6,2.3
						c-0.1,0-0.2,0-0.3,0C11.3,5,10.1,5.6,9.3,6.6C9.1,6.5,8.9,6.5,8.7,6.5c-1.1-0.1-2.1,0.8-2.2,2c0,0.2,0,0.4,0.1,0.6
						c-0.4,0.1-0.8,0.3-1,0.7C5.2,9.2,4.7,8.9,4.1,8.9c-0.9,0-1.6,0.5-1.9,1.2c0,0-0.1,0-0.1,0c-0.8,0-1.5,0.6-1.5,1.4
						s0.6,1.5,1.4,1.5c0.4,0,0.8-0.1,1-0.4c0.3,0.2,0.6,0.3,0.9,0.3c0.3,0.7,1,1.2,1.8,1.2c0.8,0,1.6-0.4,1.9-1.1
						c0.2,0.1,0.5,0.2,0.8,0.2c0.1,0,0.2,0,0.3,0c0.5,0.6,1.2,1.1,2.1,1.1c0.9,0,1.6-0.3,2.2-0.9c0.3,0.6,1,1.1,1.8,1.1
						c0.8,0,1.5-0.4,1.9-1.1c0.4,0.2,0.9,0.3,1.3,0.4c1,0,2-0.4,2.6-1.2c0.1,0.1,0.3,0.1,0.5,0.1c0.8,0,1.5-0.6,1.6-1.4
						C22.6,10.4,21.9,9.7,21.1,9.6L21.1,9.6z"/>
					<path class="st23" d="M21.2,9.7C21,9,20.6,8.4,20,8c0.1-0.4,0.2-0.8,0.2-1.2c0.1-2.1-1.5-3.9-3.6-4c-1.6-0.1-3,0.9-3.6,2.3
						c-0.1,0-0.2,0-0.3,0c-1.3-0.1-2.5,0.6-3.3,1.5C9.2,6.6,9,6.5,8.7,6.5c-1.1-0.1-2.1,0.8-2.2,2c0,0.2,0,0.4,0.1,0.6
						c-0.4,0.1-0.8,0.3-1,0.7C5.3,9.3,4.7,8.9,4.1,8.9c-0.9,0-1.6,0.5-1.9,1.2c0,0-0.1,0-0.1,0c-0.8,0-1.5,0.6-1.5,1.4
						S1.2,13,1.9,13c0.4,0,0.8-0.1,1-0.4c0.3,0.2,0.6,0.3,0.9,0.3c0.3,0.7,1,1.2,1.8,1.2c0.8,0,1.6-0.4,1.9-1.1
						c0.2,0.1,0.5,0.2,0.8,0.2c0.1,0,0.2,0,0.3,0c0.5,0.6,1.2,1.1,2.1,1.1c0.9,0,1.6-0.3,2.2-0.9c0.3,0.6,1,1.1,1.8,1.1
						c0.8,0,1.5-0.4,1.9-1.1c0.4,0.2,0.9,0.3,1.3,0.4c1,0,2-0.4,2.6-1.2c0.1,0.1,0.3,0.1,0.5,0.1c0.8,0,1.5-0.6,1.6-1.4
						C22.6,10.4,22,9.8,21.2,9.7L21.2,9.7z"/>
				</g>
				<g>
					<g>
						<path class="st0" d="M18.8,11.7c1-1.7,0-4-0.5-5.3c-0.4-0.9-1.5-2.2-2.5-2.6c-0.9-0.5-1.3-1-2.5-1.1c-1.6-0.2-3.8,1.1-5.2,1.5
							c-1.4,0.4-3.9,1.6-5.3,3C1.3,9,1.3,10.3,1.7,11.3c0.4,1.1,1.2,1.7,1.7,2.1c0.5,0.4,1,0.8,1.5,1.1C6,15,7,15,7.8,15
							c0.6,0,2.2,0.2,3.8-0.2c1.1-0.2,2.2-0.4,2.8-0.6C15.6,13.9,18,13.1,18.8,11.7z"/>
						<path class="st1" d="M18.6,11.6c1-1.7,0-3.9-0.4-5.1c-0.4-0.9-1.5-2.1-2.4-2.5c-0.9-0.5-1.2-1-2.5-1.2
							c-1.6-0.2-3.8,1.1-5.1,1.5C6.7,4.7,4.3,5.8,3,7.3c-1.5,1.7-1.6,3-1.2,4s1.2,1.6,1.7,2s1,0.8,1.6,1c1.1,0.5,2,0.4,2.8,0.5
							c0.6,0.1,2.2,0.2,3.8-0.1c1.1-0.2,2.1-0.4,2.7-0.6C15.5,13.7,17.8,13,18.6,11.6L18.6,11.6z"/>
						<path class="st2" d="M18.4,11.6c1-1.6,0.1-3.8-0.4-4.9c-0.4-0.9-1.4-2-2.3-2.5c-0.9-0.4-1.1-1.1-2.4-1.3
							C11.7,2.6,9.5,4,8.2,4.4C6.8,4.8,4.3,5.9,3.1,7.3c-1.5,1.6-1.7,3-1.2,4s1.2,1.5,1.7,1.9s1,0.7,1.6,1c1.1,0.5,2,0.4,2.8,0.4
							c0.6,0.1,2.1,0.2,3.7-0.1c1.2-0.2,2.1-0.4,2.6-0.6C15.4,13.5,17.6,12.9,18.4,11.6z"/>
						<path class="st3" d="M18.2,11.5c1-1.6,0.1-3.6-0.3-4.8c-0.4-0.9-1.4-1.9-2.3-2.4c-0.9-0.4-1.1-1.2-2.4-1.4
							c-1.6-0.3-3.8,1.2-5.1,1.5c-1.4,0.4-3.8,1.5-5,2.8C1.8,8.8,1.5,10.1,2,11.2s1.2,1.4,1.7,1.8c0.5,0.4,1,0.7,1.6,0.9
							c1.1,0.5,2,0.3,2.7,0.4c0.6,0.1,2.1,0.3,3.7-0.1c1.2-0.2,2.1-0.4,2.6-0.6C15.4,13.3,17.5,12.8,18.2,11.5L18.2,11.5z"/>
						<path class="st4" d="M18.1,11.4c1-1.5,0.2-3.5-0.3-4.6C17.4,6,16.5,5,15.6,4.5c-0.8-0.4-1-1.3-2.3-1.6
							c-1.6-0.3-3.8,1.2-5.1,1.6C6.8,4.9,4.4,6,3.3,7.2C1.9,8.7,1.5,10.1,2,11.1c0.5,1,1.2,1.4,1.7,1.8c0.5,0.3,1,0.6,1.6,0.9
							c1.1,0.4,2,0.2,2.7,0.3c0.6,0.1,2,0.3,3.6,0c1.2-0.2,2-0.4,2.5-0.6C15.3,13.2,17.3,12.6,18.1,11.4L18.1,11.4z"/>
						<path class="st5" d="M17.9,11.3c1-1.4,0.2-3.4-0.2-4.4c-0.4-0.8-1.3-1.8-2.2-2.2c-0.8-0.4-0.9-1.4-2.2-1.7
							c-1.5-0.3-3.8,1.2-5,1.6C6.8,5,4.5,6.1,3.4,7.3C2.1,8.7,1.6,10,2.1,11.1c0.5,0.9,1.2,1.3,1.8,1.7c0.5,0.3,1,0.6,1.6,0.8
							c1.1,0.4,1.9,0.2,2.6,0.2c0.6,0.1,2,0.3,3.6,0c1.2-0.2,2-0.4,2.5-0.6C15.2,13,17.1,12.5,17.9,11.3z"/>
						<path class="st6" d="M17.7,11.3C18.7,9.9,18,8,17.5,7c-0.4-0.8-1.2-1.7-2.1-2.1c-0.8-0.4-0.9-1.5-2.2-1.8
							c-1.5-0.4-3.8,1.3-5,1.6C6.8,5.1,4.5,6.1,3.5,7.3C2.2,8.6,1.7,10,2.2,11c0.5,0.9,1.2,1.2,1.8,1.6c0.5,0.3,1.1,0.6,1.6,0.8
							c1.1,0.4,1.9,0.1,2.6,0.2c0.6,0.1,1.9,0.4,3.6,0c1.2-0.2,1.9-0.5,2.4-0.6C15.1,12.8,16.9,12.4,17.7,11.3L17.7,11.3z"/>
						<path class="st7" d="M17.5,11.2c1-1.4,0.3-3.1-0.1-4.1c-0.4-0.8-1.2-1.6-2.1-2c-0.8-0.4-0.8-1.5-2.1-1.9
							c-1.5-0.4-3.8,1.3-5,1.6C6.9,5.2,4.6,6.2,3.6,7.3c-1.2,1.3-1.8,2.6-1.3,3.7c0.5,0.9,1.2,1.2,1.8,1.5c0.5,0.3,1.1,0.5,1.6,0.7
							c1.1,0.4,1.9,0,2.5,0.1c0.6,0.1,1.9,0.4,3.5,0.1c1.2-0.2,1.9-0.5,2.3-0.5C15.1,12.6,16.8,12.2,17.5,11.2L17.5,11.2z"/>
						<path class="st8" d="M17.4,11.1c1-1.3,0.4-3-0.1-3.9c-0.4-0.8-1.1-1.5-2-1.9c-0.8-0.4-0.7-1.6-2.1-2c-1.5-0.4-3.7,1.3-5,1.7
							C6.9,5.3,4.6,6.2,3.7,7.3c-1.1,1.2-1.8,2.5-1.3,3.6c0.5,0.9,1.2,1.1,1.8,1.4c0.5,0.3,1.1,0.5,1.6,0.7c1.2,0.4,1.9,0,2.5,0.1
							c0.6,0.1,1.9,0.4,3.5,0.1c1.2-0.2,1.8-0.5,2.3-0.5C15,12.4,16.6,12.1,17.4,11.1L17.4,11.1z"/>
						<path class="st9" d="M17.2,11c1-1.2,0.4-2.9,0-3.7c-0.4-0.7-1.1-1.5-1.9-1.9c-0.8-0.4-0.6-1.7-2-2.1C11.8,2.8,9.5,4.6,8.3,5
							C6.9,5.3,4.7,6.3,3.7,7.3c-1.1,1.1-1.9,2.5-1.3,3.6c0.4,0.8,1.2,1,1.8,1.3c0.5,0.3,1.1,0.5,1.6,0.6c1.2,0.3,1.8-0.1,2.4,0
							c0.5,0.1,1.8,0.4,3.4,0.1c1.2-0.2,1.8-0.5,2.2-0.5C14.9,12.3,16.4,12,17.2,11L17.2,11z"/>
						<path class="st10" d="M17,10.9c1-1.2,0.5-2.7,0-3.6C16.7,6.7,16,6,15.2,5.6c-0.7-0.3-0.6-1.8-1.9-2.3C11.8,2.9,9.5,4.7,8.3,5
							C7,5.4,4.7,6.3,3.9,7.3c-1,1.1-1.9,2.4-1.3,3.5c0.4,0.8,1.2,1,1.8,1.2c0.5,0.2,1.1,0.4,1.7,0.6c1.2,0.3,1.8-0.2,2.4-0.1
							c0.5,0.1,1.8,0.5,3.4,0.2c1.2-0.2,1.8-0.5,2.2-0.5C14.8,12.1,16.3,11.9,17,10.9L17,10.9z"/>
						<path class="st11" d="M16.8,10.9c1-1.1,0.5-2.6,0.1-3.4c-0.4-0.7-1-1.3-1.8-1.7c-0.7-0.3-0.5-1.9-1.9-2.4S9.5,4.8,8.3,5.1
							C7,5.5,4.8,6.4,3.9,7.3c-1,1-1.9,2.4-1.3,3.4c0.4,0.8,1.2,0.9,1.8,1.2c0.5,0.2,1.1,0.4,1.7,0.5c1.2,0.3,1.8-0.2,2.3-0.1
							s1.7,0.5,3.3,0.2c1.2-0.2,1.7-0.5,2.1-0.5C14.8,11.9,16.1,11.7,16.8,10.9L16.8,10.9z"/>
						<path class="st12" d="M16.7,10.8c1-1.1,0.6-2.5,0.1-3.2c-0.4-0.7-1-1.2-1.8-1.6c-0.7-0.3-0.4-1.9-1.8-2.5S9.5,4.9,8.3,5.2
							C7,5.6,4.8,6.4,4,7.3c-0.9,1-2,2.3-1.3,3.4c0.4,0.8,1.2,0.8,1.9,1.1c0.5,0.2,1.2,0.3,1.7,0.5C7.4,12.4,8,11.9,8.5,12
							s1.7,0.5,3.3,0.2c1.2-0.2,1.7-0.5,2.1-0.5C14.7,11.7,15.9,11.6,16.7,10.8L16.7,10.8z"/>
						<path class="st13" d="M16.5,10.7c1-1,0.6-2.3,0.2-3.1C16.3,7,15.8,6.5,15,6.1c-0.7-0.3-0.4-2-1.8-2.6S9.5,5,8.3,5.3
							C7,5.7,4.9,6.5,4.1,7.3c-0.9,0.9-2,2.2-1.3,3.3c0.4,0.7,1.2,0.8,1.9,1c0.5,0.2,1.2,0.3,1.7,0.4c1.2,0.2,1.8-0.4,2.3-0.2
							s1.6,0.6,3.2,0.3c1.2-0.2,1.6-0.5,2-0.5C14.6,11.6,15.8,11.5,16.5,10.7L16.5,10.7z"/>
						<path class="st14" d="M16.3,10.6c1-1,0.7-2.2,0.2-2.9c-0.4-0.6-0.9-1.1-1.7-1.4c-0.6-0.3-0.3-2.1-1.7-2.7S9.5,5,8.3,5.4
							C7,5.8,4.9,6.6,4.2,7.3c-0.8,0.8-2,2.2-1.4,3.3c0.4,0.7,1.2,0.7,1.9,0.9c0.6,0.2,1.2,0.3,1.7,0.4c1.2,0.2,1.7-0.4,2.2-0.3
							c0.5,0.1,1.6,0.6,3.2,0.3c1.2-0.2,1.6-0.5,1.9-0.5C14.5,11.4,15.6,11.4,16.3,10.6L16.3,10.6z"/>
						<path class="st15" d="M16.1,10.6c1-0.9,0.7-2.1,0.3-2.7c-0.4-0.6-0.8-1-1.6-1.3c-0.6-0.3-0.2-2.2-1.6-2.8
							C11.8,3,9.5,5.1,8.4,5.5C7.1,5.8,5,6.6,4.3,7.3c-0.8,0.8-2.1,2.1-1.4,3.2c0.4,0.7,1.2,0.6,1.9,0.8c0.6,0.2,1.2,0.2,1.7,0.3
							c1.2,0.2,1.7-0.5,2.2-0.4c0.5,0.1,1.5,0.6,3.2,0.3c1.2-0.2,1.5-0.5,1.9-0.5C14.4,11.2,15.4,11.2,16.1,10.6L16.1,10.6z"/>
						<path class="st16" d="M15.9,10.5c1-0.9,0.8-1.9,0.3-2.6c-0.4-0.6-0.8-0.9-1.6-1.3c-0.6-0.3-0.2-2.2-1.6-3
							C11.8,3,9.5,5.2,8.4,5.6C7.1,5.9,5,6.7,4.4,7.3C3.7,8,2.3,9.3,3,10.4c0.4,0.6,1.2,0.6,1.9,0.8c0.6,0.1,1.2,0.2,1.7,0.3
							c1.2,0.2,1.7-0.5,2.1-0.4c0.5,0.1,1.5,0.6,3.1,0.4c1.3-0.2,1.5-0.5,1.8-0.5C14.3,11,15.3,11.1,15.9,10.5L15.9,10.5z"/>
						<path class="st17" d="M15.8,10.4c1-0.8,0.8-1.8,0.4-2.4s-0.7-0.8-1.5-1.2c-0.6-0.3-0.1-2.3-1.5-3.1c-1.3-0.7-3.7,1.5-4.8,1.9
							C7.1,6,5.1,6.7,4.5,7.3c-0.6,0.6-2.1,2-1.4,3.1c0.4,0.6,1.2,0.5,2,0.7c0.6,0.1,1.2,0.1,1.7,0.2c1.2,0.1,1.7-0.6,2.1-0.5
							c0.5,0.1,1.4,0.7,3.1,0.4c1.3-0.2,1.4-0.6,1.8-0.5C14.3,10.9,15.1,11,15.8,10.4L15.8,10.4z"/>
						<path class="st18" d="M15.6,10.3c1-0.8,0.9-1.7,0.5-2.2S15.4,7.3,14.6,7c-0.6-0.2,0-2.4-1.5-3.2c-1.3-0.7-3.6,1.6-4.8,1.9
							C7.1,6.1,5.1,6.8,4.6,7.3c-0.6,0.6-2.2,1.9-1.4,3c0.4,0.6,1.2,0.4,2,0.6C5.7,11,6.4,11,6.9,11c1.2,0.1,1.6-0.7,2-0.5
							c0.5,0.2,1.4,0.7,3,0.4c1.3-0.2,1.4-0.6,1.7-0.5C14.2,10.6,14.9,10.8,15.6,10.3L15.6,10.3z"/>
						<path class="st19" d="M15.4,10.3c1-0.7,0.9-1.6,0.5-2.1s-0.6-0.7-1.4-1c-0.6-0.2,0-2.5-1.4-3.3c-1.3-0.7-3.6,1.6-4.7,1.9
							c-1.2,0.4-3.3,1-3.7,1.5c-0.5,0.5-2.2,1.8-1.4,3c0.4,0.6,1.2,0.4,2,0.5c0.6,0.1,1.2,0.1,1.8,0.1c1.3,0.1,1.6-0.7,2-0.6
							c0.5,0.2,1.4,0.7,3,0.5c1.3-0.2,1.4-0.6,1.6-0.5C14.1,10.5,14.8,10.7,15.4,10.3L15.4,10.3z"/>
						<path class="st20" d="M15.2,10.2c1-0.6,1-1.4,0.6-1.9s-0.6-0.6-1.3-0.9c-0.5-0.2,0.1-2.5-1.4-3.4c-1.3-0.8-3.6,1.6-4.7,2
							c-1.2,0.4-3.2,1-3.6,1.4c-0.5,0.4-2.2,1.8-1.4,2.9c0.4,0.5,1.2,0.3,2,0.4c0.6,0.1,1.3,0,1.8,0.1C8.4,10.7,8.7,9.9,9,10
							c0.4,0.2,1.3,0.8,2.9,0.5c1.3-0.2,1.3-0.6,1.6-0.4C14,10.3,14.6,10.6,15.2,10.2L15.2,10.2z"/>
						<path class="st21" d="M15.1,10.1c1-0.6,1-1.3,0.6-1.7c-0.4-0.5-0.5-0.5-1.3-0.8c-0.5-0.2,0.2-2.6-1.3-3.5
							c-1.2-0.8-3.6,1.6-4.7,2C7.2,6.3,5.3,7,4.9,7.3C4.5,7.7,2.6,9,3.4,10.1c0.4,0.5,1.2,0.2,2,0.3c0.6,0.1,1.3,0,1.8,0
							c1.3,0,1.6-0.9,1.9-0.7c0.4,0.2,1.3,0.8,2.9,0.5c1.3-0.2,1.3-0.6,1.5-0.4C14,10.1,14.5,10.5,15.1,10.1L15.1,10.1z"/>
					</g>
					<path class="st24" d="M15.1,7.5c0.1-0.3,0.1-0.7,0.1-1.1c0-2.3-1.8-4.1-4.1-4.1c-1.9,0-3.5,1.3-4,3.1c0,0-0.1,0-0.1,0
						c-0.9,0-1.7,0.5-2.2,1.2C4.7,6.5,4.4,6.4,4.1,6.4c-1.1,0-2,0.9-2,2s0.9,2,2,2c0.5,0,0.9-0.2,1.3-0.5c0.4,0.4,1,0.6,1.6,0.6
						c0.7,0,1.3-0.3,1.8-0.7c0.7,0.5,1.5,0.7,2.3,0.7c0.8,0,1.5-0.2,2.2-0.6c0.3,0.4,0.7,0.6,1.2,0.6c0.9,0,1.6-0.7,1.6-1.6
						C16.1,8.3,15.7,7.7,15.1,7.5L15.1,7.5z"/>
					<path class="st25" d="M15.2,7.6c0.1-0.3,0.1-0.7,0.1-1.1c0-2.3-1.8-4.1-4.1-4.1c-1.9,0-3.5,1.3-4,3.1c0,0-0.1,0-0.1,0
						C6.2,5.5,5.4,5.9,5,6.6C4.7,6.5,4.5,6.5,4.2,6.5c-1.1,0-2,0.9-2,2s0.9,2,2,2c0.5,0,0.9-0.2,1.3-0.5c0.4,0.4,1,0.6,1.6,0.6
						c0.7,0,1.3-0.3,1.8-0.7c0.7,0.5,1.5,0.7,2.3,0.7c0.8,0,1.5-0.2,2.1-0.6c0.3,0.4,0.7,0.6,1.2,0.6c0.9,0,1.6-0.7,1.6-1.6
						C16.1,8.3,15.7,7.8,15.2,7.6L15.2,7.6z"/>
				</g>
				<g>
					<g>
						<path class="st0" d="M26.4,12.9c1.2-1,1-4.2,0.4-5c-0.8-1.1-1.7-1.8-2.4-2.2s-2.8-0.7-3.8-0.7c-1.3,0-2.6,0.3-3.7,0.6
							C15.7,6,13.4,6.8,12.4,8c-1.3,1.4-0.1,4.1,0.2,4.5c0.6,0.8,1.3,1.5,2.2,1.9c0.9,0.4,1.6,0.4,2.3,0.4c0.5,0,2.7,0.3,4,0
							c0.9-0.2,2.5-0.5,2.9-0.7C24.4,14,25.4,13.8,26.4,12.9L26.4,12.9z"/>
						<path class="st1" d="M26.2,12.8c1.2-1,1-4.1,0.4-4.9c-0.8-1.1-1.6-1.8-2.4-2.1c-0.7-0.4-2.7-0.7-3.7-0.7
							c-1.3,0-2.6,0.3-3.6,0.6C15.7,6,13.5,6.9,12.4,8c-1.2,1.3-0.2,4,0.2,4.4c0.6,0.7,1.3,1.5,2.2,1.9c0.9,0.4,1.6,0.4,2.2,0.4
							c0.5,0,2.6,0.3,3.9,0.1c0.9-0.2,2.4-0.5,2.9-0.7C24.2,13.9,25.2,13.6,26.2,12.8z"/>
						<path class="st2" d="M26,12.7c1.2-1,1-3.9,0.4-4.8c-0.8-1.1-1.6-1.7-2.4-2.1c-0.7-0.3-2.6-0.7-3.5-0.7c-1.3,0-2.5,0.3-3.6,0.6
							c-1.1,0.3-3.4,1.1-4.4,2.2c-1.2,1.3-0.2,3.9,0.2,4.3c0.6,0.7,1.2,1.4,2.1,1.9c0.9,0.4,1.6,0.3,2.2,0.4c0.5,0,2.5,0.4,3.8,0.1
							c0.9-0.2,2.4-0.5,2.8-0.7C24,13.7,25,13.5,26,12.7L26,12.7z"/>
						<path class="st3" d="M25.8,12.6c1.2-0.9,1-3.8,0.4-4.6c-0.8-1.1-1.6-1.7-2.3-2c-0.7-0.3-2.5-0.7-3.4-0.7
							c-1.2,0-2.5,0.3-3.5,0.5c-1.1,0.3-3.3,1.1-4.3,2.2c-1.1,1.2-0.2,3.8,0.1,4.2c0.6,0.7,1.2,1.4,2.1,1.8c0.9,0.4,1.6,0.3,2.2,0.4
							c0.5,0.1,2.5,0.4,3.8,0.1c0.9-0.2,2.3-0.5,2.7-0.8C23.9,13.6,24.9,13.4,25.8,12.6L25.8,12.6z"/>
						<path class="st4" d="M25.6,12.5c1.1-0.9,1-3.6,0.4-4.5c-0.8-1.1-1.6-1.7-2.3-2c-0.7-0.3-2.4-0.7-3.3-0.7
							c-1.2,0-2.5,0.2-3.5,0.5C15.8,6.1,13.6,7,12.7,8c-1.1,1.2-0.3,3.6,0.1,4.1c0.5,0.7,1.1,1.4,2,1.8c0.8,0.4,1.5,0.3,2.1,0.4
							c0.5,0.1,2.4,0.4,3.7,0.2c0.9-0.2,2.3-0.6,2.7-0.8S24.7,13.3,25.6,12.5L25.6,12.5z"/>
						<path class="st5" d="M25.4,12.4c1.1-0.9,1-3.5,0.4-4.4c-0.7-1.1-1.6-1.6-2.3-2c-0.7-0.3-2.3-0.7-3.2-0.7
							c-1.2-0.1-2.4,0.2-3.5,0.5C15.8,6.2,13.6,7,12.8,8c-1,1.1-0.3,3.5,0.1,4c0.5,0.6,1,1.3,2,1.7c0.8,0.4,1.5,0.3,2.1,0.3
							c0.5,0.1,2.3,0.4,3.6,0.2c1-0.2,2.2-0.6,2.6-0.8C23.5,13.3,24.5,13.1,25.4,12.4L25.4,12.4z"/>
						<path class="st6" d="M25.2,12.3c1.1-0.8,1-3.4,0.4-4.3c-0.7-1.1-1.5-1.6-2.2-1.9c-0.6-0.3-2.2-0.6-3.1-0.7
							c-1.1-0.1-2.4,0.2-3.4,0.5c-1.1,0.3-3.2,1.2-4.1,2.1c-1,1.1-0.3,3.4,0.1,3.9c0.5,0.6,1,1.3,1.9,1.7c0.8,0.3,1.5,0.2,2.1,0.3
							c0.5,0.1,2.2,0.5,3.5,0.2c1-0.2,2.2-0.6,2.5-0.8C23.4,13.1,24.3,13,25.2,12.3L25.2,12.3z"/>
						<path class="st7" d="M25,12.2c1.1-0.8,1-3.2,0.4-4.1c-0.7-1.1-1.5-1.5-2.2-1.9c-0.6-0.3-2.1-0.6-2.9-0.7
							c-1.1-0.1-2.4,0.2-3.4,0.4c-1.1,0.3-3.2,1.2-4,2c-0.9,1-0.3,3.3,0.1,3.8s0.9,1.3,1.9,1.6c0.8,0.3,1.5,0.2,2,0.3
							c0.5,0.1,2.1,0.5,3.4,0.3c1-0.2,2.1-0.6,2.5-0.8C23.2,13,24.1,12.9,25,12.2L25,12.2z"/>
						<path class="st8" d="M24.8,12.1c1.1-0.8,1-3.1,0.4-4c-0.7-1.1-1.5-1.5-2.2-1.8c-0.6-0.3-2-0.6-2.8-0.7
							c-1.1-0.1-2.3,0.2-3.3,0.4c-1.1,0.3-3.2,1.2-3.9,2c-0.9,1-0.4,3.1,0.1,3.7s0.9,1.2,1.8,1.6c0.8,0.3,1.5,0.2,2,0.2
							c0.4,0.1,2,0.6,3.3,0.3c1-0.2,2.1-0.7,2.4-0.8C23,12.8,23.9,12.8,24.8,12.1L24.8,12.1z"/>
						<path class="st9" d="M24.6,12c1-0.7,1-3,0.4-3.9c-0.7-1.1-1.5-1.5-2.2-1.8c-0.6-0.3-1.9-0.6-2.7-0.7c-1-0.1-2.3,0.1-3.3,0.4
							c-1.1,0.3-3.1,1.2-3.9,1.9c-0.9,0.9-0.4,3,0.1,3.6c0.4,0.5,0.8,1.2,1.7,1.6c0.8,0.3,1.4,0.1,1.9,0.2c0.4,0.1,2,0.6,3.2,0.3
							c1-0.2,2-0.7,2.3-0.9C22.8,12.7,23.7,12.6,24.6,12z"/>
						<path class="st10" d="M24.4,11.9c1-0.7,1-2.8,0.5-3.8c-0.7-1.1-1.5-1.4-2.1-1.7c-0.6-0.3-1.8-0.6-2.6-0.7
							c-1-0.1-2.2,0.1-3.2,0.4c-1.1,0.3-3.1,1.2-3.8,1.9c-0.8,0.9-0.4,2.9,0.1,3.5c0.4,0.5,0.8,1.2,1.7,1.5c0.8,0.3,1.4,0.1,1.9,0.2
							c0.4,0.1,1.9,0.6,3.2,0.4c1-0.2,2-0.7,2.3-0.9C22.6,12.5,23.5,12.5,24.4,11.9L24.4,11.9z"/>
						<path class="st11" d="M24.2,11.8c1-0.7,1-2.7,0.5-3.6C24,7,23.2,6.8,22.6,6.5C22,6.2,21,5.9,20.1,5.8c-1-0.1-2.2,0.1-3.2,0.4
							c-1.1,0.3-3.1,1.2-3.7,1.8c-0.8,0.8-0.4,2.7,0.1,3.4c0.4,0.5,0.7,1.2,1.6,1.5c0.8,0.3,1.4,0.1,1.8,0.2s1.8,0.6,3.1,0.4
							c1-0.2,1.9-0.7,2.2-0.9C22.4,12.4,23.3,12.4,24.2,11.8L24.2,11.8z"/>
						<path class="st12" d="M24,11.7c1-0.6,1-2.6,0.5-3.5c-0.6-1.1-1.4-1.4-2.1-1.7c-0.5-0.3-1.5-0.6-2.4-0.7
							c-0.9-0.1-2.2,0.1-3.1,0.3c-1.1,0.3-3,1.2-3.6,1.8c-0.7,0.8-0.5,2.6,0.1,3.3c0.4,0.5,0.6,1.1,1.6,1.4c0.8,0.3,1.4,0.1,1.8,0.1
							s1.7,0.7,3,0.4c1-0.2,1.9-0.8,2.1-0.9C22.3,12.2,23.2,12.3,24,11.7L24,11.7z"/>
						<path class="st13" d="M23.9,11.6c1-0.6,1-2.4,0.5-3.4c-0.6-1.1-1.4-1.3-2-1.6C21.7,6.3,20.9,6,20,5.9c-0.9-0.1-2.1,0-3.1,0.3
							c-1.1,0.3-3,1.2-3.6,1.8c-0.7,0.7-0.5,2.5,0.1,3.2c0.4,0.4,0.6,1.1,1.5,1.4c0.8,0.2,1.4,0,1.8,0.1s1.6,0.7,2.9,0.5
							c1-0.2,1.8-0.8,2.1-0.9C22.1,12.1,23,12.1,23.9,11.6L23.9,11.6z"/>
						<path class="st14" d="M23.7,11.5c1-0.6,1-2.3,0.5-3.2c-0.6-1.1-1.4-1.3-2-1.6C21.6,6.4,20.8,6.1,20,6c-0.9-0.1-2.1,0-3,0.3
							c-1.1,0.3-3,1.2-3.5,1.7c-0.6,0.7-0.5,2.4,0.1,3.1c0.4,0.4,0.5,1.1,1.5,1.4c0.7,0.2,1.3,0,1.7,0.1c0.4,0.1,1.5,0.7,2.8,0.5
							c1-0.2,1.8-0.8,2-0.9C21.9,11.9,22.8,12,23.7,11.5L23.7,11.5z"/>
						<path class="st15" d="M23.5,11.4c1-0.6,1-2.1,0.5-3.1c-0.6-1.2-1.4-1.3-2-1.5c-0.5-0.2-1.2-0.6-2-0.7s-2,0-3,0.3
							c-1,0.3-2.9,1.2-3.4,1.7c-0.6,0.6-0.6,2.2,0.1,3c0.3,0.4,0.5,1,1.4,1.3c0.7,0.2,1.3,0,1.7,0.1c0.4,0.1,1.5,0.8,2.8,0.6
							c1-0.2,1.7-0.8,2-1C21.7,11.8,22.6,11.9,23.5,11.4L23.5,11.4z"/>
						<path class="st16" d="M23.3,11.3c0.9-0.5,1-2,0.5-3c-0.6-1.2-1.3-1.2-2-1.5c-0.5-0.2-1.1-0.5-1.9-0.7s-2,0-2.9,0.2
							c-1,0.3-2.9,1.2-3.4,1.6c-0.6,0.6-0.6,2.1,0,2.9c0.3,0.4,0.4,1,1.4,1.3c0.7,0.2,1.3,0,1.6,0.1c0.4,0.1,1.4,0.8,2.7,0.6
							c1-0.2,1.6-0.8,1.9-1C21.6,11.6,22.4,11.8,23.3,11.3L23.3,11.3z"/>
						<path class="st17" d="M23.1,11.2c0.9-0.5,1-1.9,0.5-2.9c-0.6-1.2-1.3-1.2-1.9-1.5c-0.5-0.2-1-0.5-1.8-0.7s-2-0.1-2.9,0.2
							c-1,0.3-2.9,1.2-3.3,1.6c-0.5,0.5-0.6,2,0,2.8c0.3,0.4,0.3,1,1.3,1.2c0.7,0.2,1.3-0.1,1.6,0c0.4,0.1,1.3,0.8,2.6,0.6
							c1-0.2,1.6-0.9,1.8-1C21.4,11.4,22.2,11.6,23.1,11.2L23.1,11.2z"/>
						<path class="st18" d="M22.9,11.1c0.9-0.5,1-1.7,0.5-2.7c-0.5-1.2-1.3-1.2-1.9-1.4c-0.5-0.2-0.9-0.5-1.6-0.7S17.9,6.2,17,6.4
							c-1,0.3-2.8,1.2-3.2,1.6c-0.5,0.5-0.6,1.9,0,2.7c0.3,0.3,0.3,0.9,1.2,1.2c0.7,0.2,1.3-0.1,1.6,0c0.4,0.1,1.2,0.9,2.5,0.7
							c1-0.2,1.5-0.9,1.8-1C21.2,11.3,22,11.5,22.9,11.1z"/>
						<path class="st19" d="M22.7,11c0.9-0.4,1-1.6,0.5-2.6c-0.5-1.2-1.3-1.1-1.9-1.4c-0.4-0.2-0.8-0.5-1.5-0.7
							c-0.7-0.2-1.9-0.1-2.8,0.2c-1,0.3-2.8,1.2-3.1,1.5c-0.4,0.4-0.7,1.8,0,2.6c0.2,0.3,0.2,0.9,1.2,1.1c0.7,0.2,1.2-0.1,1.5,0
							c0.4,0.1,1.1,0.9,2.4,0.7c1-0.2,1.5-0.9,1.7-1C21.1,11.1,21.9,11.4,22.7,11L22.7,11z"/>
						<path class="st20" d="M22.5,10.9c0.9-0.4,1-1.4,0.5-2.5c-0.5-1.2-1.2-1.1-1.9-1.3c-0.4-0.2-0.7-0.5-1.4-0.7
							c-0.7-0.2-1.9-0.1-2.7,0.2C16,6.8,14.3,7.7,14,8c-0.4,0.4-0.7,1.6,0,2.5c0.2,0.3,0.2,0.9,1.1,1.1c0.7,0.2,1.2-0.1,1.5,0
							c0.4,0.1,1,0.9,2.3,0.7c1-0.2,1.4-0.9,1.6-1.1C20.9,11,21.6,11.2,22.5,10.9L22.5,10.9z"/>
						<path class="st21" d="M22.3,10.8c0.8-0.4,1-1.3,0.5-2.4c-0.5-1.2-1.2-1.1-1.8-1.3c-0.4-0.2-0.6-0.5-1.3-0.7
							c-0.6-0.2-1.8-0.1-2.7,0.1c-1,0.3-2.7,1.2-3,1.4c-0.3,0.3-0.7,1.5,0,2.4c0.2,0.2,0.1,0.9,1.1,1.1c0.7,0.1,1.2-0.2,1.4-0.1
							c0.4,0.1,1,1,2.2,0.8c1-0.2,1.4-1,1.6-1.1C20.7,10.9,21.5,11.1,22.3,10.8L22.3,10.8z"/>
					</g>
					<path class="st24" d="M21.2,6.8c0,0-0.1,0-0.1,0c-0.2-0.7-0.9-1.2-1.7-1.2c-0.2,0-0.5,0-0.6,0.1c-0.2-0.7-0.9-1.1-1.6-1.1
						s-1.3,0.4-1.6,1.1c-0.1,0-0.2,0-0.3,0c-0.8,0-1.4,0.6-1.5,1.3c-0.1,0-0.2,0-0.3,0c-0.9,0-1.7,0.8-1.7,1.7s0.8,1.7,1.7,1.7
						c0,0,0,0,0,0c0.2,0.7,0.8,1.2,1.5,1.2c0.6,0,1.1-0.3,1.3-0.8c0.4,0.6,1.1,1.1,1.9,1.1c0.9,0,1.6-0.5,2-1.3
						c0.3,0.2,0.6,0.3,1,0.3c1.1,0,2-0.9,2-2S22.3,6.8,21.2,6.8L21.2,6.8z"/>
					<path class="st26" d="M21.2,6.9c0,0-0.1,0-0.1,0c-0.2-0.7-0.9-1.2-1.7-1.2c-0.2,0-0.5,0-0.6,0.1c-0.2-0.7-0.9-1.1-1.6-1.1
						s-1.3,0.4-1.6,1.1c-0.1,0-0.2,0-0.3,0c-0.8,0-1.4,0.6-1.5,1.3c-0.1,0-0.2,0-0.3,0c-0.9,0-1.7,0.8-1.7,1.7s0.8,1.7,1.7,1.7h0
						c0.2,0.7,0.8,1.2,1.5,1.2c0.6,0,1.1-0.3,1.3-0.8c0.4,0.6,1.1,1.1,1.9,1.1c0.9,0,1.6-0.5,2-1.3c0.3,0.2,0.6,0.3,1,0.3
						c1.1,0,2-0.9,2-2S22.4,6.9,21.2,6.9L21.2,6.9z"/>
				</g>
				<g>
					<g>
						<path class="st0" d="M24.9,9.2c1.4-1.5,1.3-4.5,0.5-5.6c-1-1.4-2.3-2-3.3-2.4c-1-0.5-2.3-0.9-3.5-1.1
							c-1.5-0.2-3.1,0.4-4.5,0.8c-1.5,0.4-6.1,2-7.5,3.5c-0.8,0.8-1,1.9-0.8,2.9c0.1,1.1,0.6,2.1,0.8,2.4c0.8,1,3.6,1.9,4.8,2.5
							c1.1,0.5,2.1,0.5,2.9,0.6c0.6,0,2.4,0,4.1-0.4c1.2-0.2,2.4-1.2,2.9-1.4C21.9,10.7,23.8,10.3,24.9,9.2L24.9,9.2z"/>
						<path class="st1" d="M24.7,9.1c1.4-1.4,1.4-4.4,0.6-5.5c-1-1.4-2.3-1.9-3.2-2.4c-0.9-0.5-2.3-0.9-3.5-1.1
							c-1.5-0.2-3.1,0.4-4.4,0.8c-1.5,0.4-6.1,2-7.4,3.4c-0.8,0.8-1,1.9-0.8,2.9C6,8.3,6.6,9.3,6.8,9.6c0.8,0.9,3.5,1.9,4.7,2.4
							c1.1,0.5,2.1,0.4,2.9,0.5c0.6,0.1,2.4,0.1,4.1-0.3c1.2-0.2,2.3-1.2,2.9-1.5C21.8,10.5,23.6,10.2,24.7,9.1L24.7,9.1z"/>
						<path class="st2" d="M24.5,9c1.4-1.4,1.4-4.3,0.6-5.3c-1-1.4-2.2-1.9-3.1-2.3c-0.9-0.4-2.2-0.9-3.4-1.1
							c-1.4-0.2-3,0.4-4.4,0.7c-1.5,0.4-6.1,1.9-7.4,3.3C6,5.1,5.8,6.2,6,7.2c0.2,1.1,0.7,2,1,2.3c0.8,0.8,3.4,1.9,4.5,2.4
							c1.1,0.5,2,0.4,2.8,0.4c0.6,0.1,2.3,0.2,4-0.2c1.2-0.2,2.3-1.2,2.8-1.5C21.6,10.3,23.4,10.1,24.5,9L24.5,9z"/>
						<path class="st3" d="M24.3,8.9c1.4-1.3,1.4-4.1,0.6-5.2c-1-1.4-2.2-1.8-3.1-2.3c-0.9-0.4-2.1-0.9-3.3-1.1
							c-1.4-0.2-2.9,0.3-4.3,0.7C12.8,1.5,8.1,3,6.8,4.3C6.1,5.1,5.9,6.2,6,7.1c0.2,1.1,0.8,1.9,1.1,2.2c0.8,0.8,3.2,1.8,4.4,2.3
							c1.1,0.5,2,0.3,2.8,0.4c0.6,0.1,2.2,0.2,4-0.1c1.2-0.3,2.2-1.2,2.7-1.5S23.2,9.9,24.3,8.9L24.3,8.9z"/>
						<path class="st4" d="M24.1,8.8c1.4-1.3,1.4-4,0.6-5.1c-1-1.4-2.1-1.8-3-2.2c-0.9-0.4-2-0.9-3.2-1.1c-1.4-0.2-2.8,0.3-4.2,0.7
							c-1.4,0.4-6.1,1.9-7.4,3.2C6.1,5.1,5.9,6.1,6.1,7.1c0.2,1,0.8,1.9,1.1,2.1c0.8,0.7,3.1,1.8,4.3,2.3c1.1,0.5,2,0.2,2.7,0.3
							c0.6,0.1,2.1,0.3,3.9-0.1c1.2-0.3,2.2-1.2,2.7-1.5S23,9.8,24.1,8.8L24.1,8.8z"/>
						<path class="st5" d="M23.8,8.7c1.4-1.2,1.4-3.9,0.6-4.9c-0.9-1.3-2.1-1.7-3-2.2c-0.9-0.4-1.9-0.8-3.1-1
							c-1.3-0.3-2.8,0.2-4.1,0.6c-1.4,0.4-6.2,1.9-7.4,3.1C6.2,5.1,6,6.1,6.2,7c0.2,1,0.9,1.8,1.2,2.1c0.8,0.7,3,1.7,4.2,2.2
							c1.1,0.4,1.9,0.1,2.7,0.2c0.6,0.1,2,0.4,3.9,0c1.2-0.3,2.1-1.3,2.6-1.5S22.8,9.7,23.8,8.7L23.8,8.7z"/>
						<path class="st6" d="M23.6,8.6C25,7.4,25,4.8,24.3,3.8c-0.9-1.3-2-1.7-2.9-2.1c-0.8-0.4-1.8-0.8-3-1c-1.3-0.3-2.7,0.2-4,0.6
							c-1.4,0.4-6.2,1.9-7.3,3C6.3,5,6.1,6.1,6.3,7c0.2,1,0.9,1.7,1.3,2c0.8,0.6,2.8,1.7,4,2.2c1.1,0.4,1.9,0,2.6,0.1
							c0.6,0.1,2,0.5,3.8,0.1c1.2-0.3,2.1-1.3,2.5-1.5C21.1,9.5,22.6,9.5,23.6,8.6L23.6,8.6z"/>
						<path class="st7" d="M23.4,8.5c1.3-1.1,1.4-3.6,0.7-4.6c-0.9-1.3-2-1.6-2.9-2.1c-0.8-0.4-1.7-0.8-2.9-1s-2.6,0.2-3.9,0.6
							c-1.4,0.4-6.2,1.9-7.3,3C6.3,5,6.1,6.1,6.4,6.9c0.2,1,1,1.6,1.4,1.9c0.8,0.6,2.7,1.6,3.9,2.1c1,0.4,1.9,0,2.5,0.1
							c0.6,0.1,1.9,0.6,3.8,0.1c1.2-0.3,2-1.3,2.5-1.6C20.9,9.3,22.4,9.4,23.4,8.5L23.4,8.5z"/>
						<path class="st8" d="M23.2,8.4c1.3-1.1,1.4-3.4,0.7-4.5c-0.9-1.3-1.9-1.6-2.8-2c-0.8-0.4-1.6-0.8-2.8-1S15.7,1,14.4,1.4
							C13,1.8,8.2,3.3,7.1,4.3C6.4,5,6.2,6,6.4,6.9c0.3,1,1,1.6,1.4,1.8c0.7,0.5,2.6,1.6,3.8,2.1c1,0.4,1.8-0.1,2.5,0
							c0.6,0.1,1.8,0.7,3.7,0.2c1.2-0.3,2-1.3,2.4-1.6C20.8,9.2,22.1,9.3,23.2,8.4L23.2,8.4z"/>
						<path class="st9" d="M23,8.2c1.3-1,1.4-3.3,0.7-4.3C22.9,2.7,21.8,2.4,21,2c-0.8-0.4-1.5-0.8-2.7-1s-2.4,0.1-3.8,0.5
							c-1.4,0.4-6.2,1.9-7.3,2.8C6.4,5,6.3,6,6.5,6.8c0.3,0.9,1,1.6,1.5,1.8c0.6,0.6,2.5,1.5,3.7,2c1,0.4,1.8-0.2,2.4-0.1
							c0.6,0.1,1.8,0.7,3.7,0.3c1.2-0.3,1.9-1.4,2.4-1.6C20.6,9,21.9,9.1,23,8.2L23,8.2z"/>
						<path class="st10" d="M22.8,8.1C24,7.2,24.1,5,23.5,4c-0.8-1.2-1.8-1.5-2.7-1.9c-0.8-0.3-1.5-0.7-2.6-1s-2.4,0.1-3.7,0.5
							C13.1,2,8.2,3.4,7.3,4.3C6.5,5,6.3,6,6.6,6.8c0.3,0.9,1.1,1.5,1.6,1.7c0.6,0.5,2.3,1.5,3.5,1.9c1,0.4,1.8-0.3,2.4-0.2
							c0.6,0.1,1.7,0.8,3.6,0.4c1.2-0.3,1.9-1.4,2.3-1.6C20.5,8.8,21.7,9,22.8,8.1L22.8,8.1z"/>
						<path class="st11" d="M22.5,8c1.2-0.9,1.4-3,0.7-4c-0.8-1.2-1.8-1.4-2.6-1.8c-0.7-0.3-1.4-0.7-2.6-1c-1.1-0.3-2.3,0-3.6,0.5
							C13.2,2,8.3,3.5,7.3,4.3C6.5,4.9,6.4,6,6.7,6.8C7,7.7,7.8,8.2,8.3,8.4c0.6,0.5,2.2,1.4,3.4,1.9c1,0.3,1.7-0.4,2.3-0.2
							s1.6,0.9,3.6,0.4c1.2-0.3,1.8-1.4,2.2-1.6C20.3,8.6,21.5,8.8,22.5,8L22.5,8z"/>
						<path class="st12" d="M22.3,7.9C23.6,7,23.7,5,23.1,4c-0.8-1.2-1.7-1.4-2.6-1.8c-0.7-0.3-1.3-0.7-2.5-1
							c-1.1-0.3-2.2,0-3.5,0.4c-1.3,0.4-6.3,1.9-7.2,2.6C6.6,4.9,6.4,5.9,6.8,6.7c0.3,0.9,1.2,1.4,1.7,1.6c0.6,0.4,2.1,1.4,3.3,1.8
							c1,0.3,1.7-0.4,2.2-0.3s1.5,1,3.6,0.5c1.2-0.3,1.8-1.4,2.2-1.6C20.2,8.4,21.3,8.7,22.3,7.9z"/>
						<path class="st13" d="M22.1,7.8c1.2-0.8,1.4-2.8,0.8-3.8c-0.7-1.2-1.7-1.4-2.5-1.7c-0.7-0.3-1.2-0.7-2.4-1
							c-1-0.3-2.1,0-3.4,0.4c-1.3,0.4-6.3,1.9-7.2,2.5C6.7,4.9,6.5,5.9,6.8,6.7C7.2,7.5,8,8,8.6,8.2c0.6,0.4,2,1.4,3.2,1.8
							c0.9,0.3,1.7-0.5,2.2-0.4s1.4,1.1,3.5,0.6c1.2-0.3,1.8-1.4,2.1-1.6C20,8.2,21.1,8.5,22.1,7.8L22.1,7.8z"/>
						<path class="st14" d="M21.9,7.7c1.2-0.8,1.4-2.6,0.8-3.6c-0.7-1.2-1.6-1.3-2.4-1.7c-0.7-0.3-1.1-0.6-2.3-1
							c-1-0.3-2.1,0-3.3,0.4c-1.3,0.4-6.3,1.9-7.1,2.5S6.6,5.9,6.9,6.6c0.4,0.8,1.3,1.2,1.9,1.4c0.6,0.3,1.8,1.3,3,1.7
							c0.9,0.3,1.6-0.6,2.1-0.5c0.5,0.1,1.4,1.1,3.5,0.6c1.2-0.3,1.7-1.5,2-1.6C19.9,8,20.9,8.4,21.9,7.7L21.9,7.7z"/>
						<path class="st15" d="M21.7,7.6c1.2-0.7,1.4-2.5,0.8-3.5c-0.7-1.1-1.6-1.3-2.4-1.6c-0.6-0.3-1-0.6-2.2-1c-1-0.3-2-0.1-3.2,0.3
							c-1.3,0.4-6.4,1.8-7.1,2.4S6.6,5.8,7,6.6C7.4,7.4,8.3,7.7,8.9,8c0.6,0.2,1.7,1.3,2.9,1.6c0.9,0.3,1.6-0.7,2.1-0.5
							c0.5,0.1,1.3,1.2,3.4,0.7c1.2-0.3,1.6-1.5,2-1.7C19.7,7.8,20.6,8.3,21.7,7.6L21.7,7.6z"/>
						<path class="st16" d="M21.5,7.5c1.1-0.7,1.4-2.3,0.8-3.3C21.6,3,20.8,3,20,2.6C19.4,2.3,19,2,17.9,1.6
							c-0.9-0.3-1.9-0.1-3.2,0.3c-1.3,0.4-6.4,1.8-7.1,2.3C6.8,4.8,6.7,5.8,7.1,6.5c0.4,0.8,1.4,1.1,2,1.3c0.5,0.2,1.6,1.2,2.8,1.6
							c0.9,0.3,1.6-0.7,2-0.6c0.5,0.1,1.2,1.3,3.4,0.8c1.3-0.3,1.6-1.5,1.9-1.7C19.6,7.7,20.4,8.1,21.5,7.5L21.5,7.5z"/>
						<path class="st17" d="M21.3,7.4c1.1-0.7,1.4-2.2,0.8-3.2c-0.6-1.1-1.5-1.2-2.3-1.5c-0.6-0.3-0.9-0.6-2-0.9
							C16.9,1.5,16,1.6,14.7,2c-1.3,0.4-6.4,1.8-7.1,2.2C6.9,4.8,6.7,5.8,7.1,6.5c0.4,0.8,1.4,1,2.1,1.2c0.5,0.2,1.4,1.2,2.6,1.5
							c0.9,0.2,1.5-0.8,1.9-0.7c0.5,0.1,1.1,1.4,3.3,0.9c1.3-0.3,1.6-1.5,1.9-1.7C19.5,7.5,20.2,8,21.3,7.4L21.3,7.4z"/>
						<path class="st18" d="M21,7.3c1.1-0.6,1.4-2.1,0.9-3c-0.6-1.1-1.4-1.1-2.2-1.5c-0.6-0.3-0.8-0.6-1.9-0.9
							c-0.9-0.3-1.8-0.2-3,0.2c-1.3,0.4-6.4,1.8-7.1,2.2C6.9,4.7,6.8,5.8,7.2,6.5c0.4,0.8,1.4,1,2.2,1.2c0.5,0.1,1.3,1.1,2.5,1.5
							c0.9,0.2,1.5-0.9,1.9-0.8c0.5,0.2,1.1,1.5,3.3,0.9c1.3-0.3,1.5-1.5,1.8-1.7C19.3,7.3,20,7.8,21,7.3L21,7.3z"/>
						<path class="st19" d="M20.8,7.2c1.1-0.6,1.4-1.9,0.9-2.9c-0.6-1.1-1.4-1.1-2.1-1.4C19,2.6,18.9,2.3,17.7,2
							c-0.8-0.3-1.7-0.2-2.9,0.2c-1.3,0.4-6.5,1.8-7,2.1C7,4.7,6.9,5.7,7.3,6.4c0.5,0.7,1.5,0.9,2.2,1.1c0.5,0.1,1.2,1.1,2.4,1.4
							c0.9,0.2,1.5-1,1.8-0.8c0.5,0.2,1,1.6,3.2,1c1.3-0.3,1.5-1.6,1.7-1.7C19.2,7.1,19.8,7.7,20.8,7.2L20.8,7.2z"/>
						<path class="st20" d="M20.6,7.1c1.1-0.5,1.4-1.8,0.9-2.7c-0.6-1-1.3-1-2.1-1.4c-0.5-0.2-0.6-0.5-1.8-0.9
							c-0.8-0.3-1.6-0.2-2.8,0.2c-1.2,0.4-6.5,1.8-7,2C7,4.7,6.9,5.7,7.4,6.4c0.5,0.7,1.5,0.9,2.3,1c0.4,0.1,1.1,1.1,2.3,1.3
							c0.9,0.2,1.4-1,1.8-0.9c0.4,0.2,0.9,1.6,3.2,1.1c1.3-0.3,1.4-1.6,1.7-1.7C19,6.9,19.6,7.5,20.6,7.1L20.6,7.1z"/>
						<path class="st21" d="M20.4,6.9c1.1-0.5,1.4-1.6,0.9-2.6c-0.5-1-1.3-1-2-1.3c-0.5-0.2-0.5-0.5-1.7-0.9
							c-0.8-0.3-1.5-0.3-2.7,0.2c-1.2,0.5-6.5,1.8-7,2C7.1,4.6,7,5.7,7.5,6.3C8,7,9,7.2,9.8,7.3c0.4,0,0.9,1,2.1,1.3
							c0.8,0.2,1.4-1.1,1.7-1c0.4,0.2,0.9,1.7,3.1,1.1c1.3-0.3,1.4-1.6,1.6-1.7C18.9,6.7,19.4,7.4,20.4,6.9L20.4,6.9z"/>
					</g>
					<path class="st24" d="M19.5,2.7c-0.1,0-0.2,0-0.3,0C18.9,1.7,18,1,16.8,1c-0.5,0-1,0.2-1.4,0.4c-0.3-0.8-1-1.3-1.9-1.3
						c-1,0-1.8,0.7-1.9,1.6c-0.3-0.2-0.6-0.3-1-0.3C9.8,1.4,9.2,2,9.1,2.8h0c-1.3,0-2.3,1-2.3,2.4s1,2.3,2.3,2.3
						c0.4,0,0.8-0.1,1.1-0.3c0.1,0.8,0.8,1.4,1.7,1.4c0.7,0,1.2-0.4,1.5-1C13.9,8.5,14.8,9,15.8,9c1.3,0,2.4-0.8,2.7-2
						c0.3,0.2,0.7,0.2,1,0.2c1.2,0,2.3-1,2.3-2.3S20.8,2.7,19.5,2.7L19.5,2.7z"/>
					<path class="st27" d="M19.6,2.8c-0.1,0-0.2,0-0.3,0c-0.3-1-1.3-1.7-2.4-1.7c-0.5,0-1,0.2-1.4,0.4c-0.3-0.8-1-1.3-1.9-1.3
						c-1,0-1.8,0.7-1.9,1.6c-0.3-0.2-0.6-0.3-1-0.3c-0.8,0-1.5,0.6-1.6,1.4h0c-1.3,0-2.3,1-2.3,2.4s1,2.3,2.3,2.3
						c0.4,0,0.8-0.1,1.1-0.3c0.1,0.8,0.8,1.4,1.7,1.4c0.7,0,1.2-0.4,1.5-1c0.5,0.8,1.4,1.3,2.4,1.3c1.3,0,2.4-0.8,2.7-2
						c0.3,0.2,0.7,0.2,1,0.2c1.2,0,2.3-1,2.3-2.3S20.8,2.8,19.6,2.8L19.6,2.8z"/>
				</g>
				<g>
					<g>
						<path class="st0" d="M15.9,12.4c0.7-1.1,0.4-3.1-0.1-3.8c-0.7-0.9-1.6-1.3-2.2-1.7S11.6,6,10.8,6C9.7,6,9.1,6.4,8.3,6.6
							c-1,0.3-2.6,1.8-3.5,2.8c-1.1,1.2-0.8,2.9-0.5,3.2c0.5,0.6,1.1,1.3,1.9,1.6c0.7,0.4,1.4,0.3,1.9,0.4c0.4,0,0.9,0.2,2,0
							c0.8-0.2,1.1-0.2,1.5-0.4C12.4,14,15,13.7,15.9,12.4L15.9,12.4z"/>
						<path class="st1" d="M15.8,12.3c0.7-1.1,0.4-3-0.1-3.8c-0.7-0.9-1.6-1.3-2.2-1.6c-0.6-0.3-1.9-0.9-2.7-0.9
							C9.7,6,9.1,6.4,8.2,6.7c-1,0.3-2.6,1.8-3.4,2.7c-1,1.1-0.8,2.8-0.5,3.2c0.5,0.6,1.1,1.2,1.8,1.6c0.7,0.3,1.4,0.3,1.9,0.3
							c0.4,0,0.9,0.2,2,0c0.8-0.2,1.1-0.2,1.5-0.3C12.3,13.9,14.9,13.6,15.8,12.3z"/>
						<path class="st2" d="M15.6,12.3c0.7-1,0.5-2.9,0-3.6C14.9,7.7,14,7.3,13.4,7c-0.6-0.3-1.9-0.9-2.6-0.9c-1.1,0-1.7,0.4-2.5,0.6
							C7.3,7,5.7,8.5,4.9,9.4c-1,1.1-0.8,2.7-0.5,3.1c0.5,0.6,1.1,1.2,1.8,1.5s1.3,0.3,1.9,0.3c0.4,0,0.9,0.2,2,0
							c0.8-0.2,1.2-0.2,1.5-0.3C12.3,13.8,14.7,13.5,15.6,12.3L15.6,12.3z"/>
						<path class="st3" d="M15.5,12.2c0.7-1,0.5-2.8,0-3.6c-0.6-0.9-1.6-1.3-2.2-1.6c-0.6-0.3-1.8-0.9-2.6-0.9c-1,0-1.7,0.3-2.5,0.6
							C7.3,7,5.7,8.5,4.9,9.4c-1,1-0.9,2.7-0.6,3c0.5,0.6,1,1.2,1.8,1.5s1.3,0.2,1.8,0.3c0.4,0,0.9,0.2,2,0c0.8-0.2,1.2-0.2,1.5-0.3
							C12.2,13.6,14.6,13.4,15.5,12.2L15.5,12.2z"/>
						<path class="st4" d="M15.3,12.2c0.7-0.9,0.6-2.7,0.1-3.4c-0.6-0.9-1.6-1.3-2.1-1.5c-0.6-0.3-1.8-0.9-2.5-0.9
							c-1,0-1.6,0.3-2.5,0.6C7.3,7.1,5.7,8.5,5,9.4c-0.9,1-0.9,2.6-0.6,3c0.4,0.6,1,1.1,1.8,1.4S7.5,14,8,14c0.4,0,0.9,0.2,2,0
							c0.8-0.1,1.2-0.2,1.5-0.3C12.2,13.5,14.5,13.3,15.3,12.2L15.3,12.2z"/>
						<path class="st5" d="M15.2,12.1c0.7-0.9,0.6-2.6,0.1-3.4c-0.6-0.9-1.5-1.2-2.1-1.5c-0.6-0.3-1.7-0.9-2.5-0.9
							c-1,0-1.6,0.3-2.5,0.5C7.2,7.1,5.8,8.5,5,9.3c-0.9,0.9-0.9,2.5-0.6,2.9c0.4,0.5,0.9,1.1,1.7,1.4s1.3,0.1,1.8,0.2
							c0.4,0.1,0.9,0.2,2,0c0.8-0.1,1.2-0.3,1.5-0.3C12.2,13.4,14.3,13.2,15.2,12.1L15.2,12.1z"/>
						<path class="st6" d="M15,12.1c0.7-0.9,0.6-2.5,0.2-3.3c-0.6-0.9-1.5-1.2-2.1-1.5c-0.5-0.3-1.7-0.9-2.4-0.9
							C9.7,6.3,9,6.6,8.2,6.9C7.2,7.1,5.8,8.5,5.1,9.3c-0.8,0.9-0.9,2.4-0.6,2.8c0.4,0.5,0.9,1.1,1.7,1.4s1.3,0.1,1.8,0.2
							c0.4,0.1,0.9,0.2,2,0c0.8-0.1,1.2-0.3,1.5-0.3C12.1,13.2,14.2,13.1,15,12.1L15,12.1z"/>
						<path class="st7" d="M14.9,12c0.7-0.8,0.7-2.4,0.2-3.2c-0.6-0.9-1.5-1.2-2.1-1.5c-0.5-0.3-1.6-0.9-2.4-0.9
							C9.7,6.4,9,6.7,8.1,6.9c-0.9,0.3-2.3,1.7-3,2.4c-0.8,0.9-1,2.3-0.6,2.8s0.9,1.1,1.7,1.3s1.3,0.1,1.7,0.1c0.4,0.1,0.9,0.2,2,0
							c0.8-0.1,1.2-0.3,1.5-0.3C12.1,13.1,14,13,14.9,12z"/>
						<path class="st8" d="M14.7,12c0.7-0.8,0.7-2.3,0.3-3.1c-0.6-0.9-1.5-1.2-2.1-1.4c-0.5-0.2-1.6-0.9-2.3-1
							C9.7,6.4,8.9,6.7,8.1,6.9C7.2,7.2,5.8,8.6,5.2,9.3c-0.8,0.8-1,2.2-0.6,2.7s0.8,1,1.6,1.3s1.3,0,1.7,0.1c0.4,0.1,0.9,0.2,2,0
							c0.8-0.1,1.2-0.3,1.5-0.3C12,13,13.9,12.9,14.7,12L14.7,12z"/>
						<path class="st9" d="M14.6,11.9c0.7-0.8,0.8-2.2,0.3-3c-0.6-1-1.5-1.1-2.1-1.4c-0.5-0.2-1.5-0.9-2.2-1C9.7,6.5,8.9,6.7,8.1,7
							C7.2,7.2,5.9,8.6,5.2,9.3c-0.7,0.8-1,2.1-0.6,2.6c0.4,0.4,0.8,1,1.6,1.2s1.3,0,1.7,0.1c0.4,0.1,0.9,0.2,1.9,0
							c0.8-0.1,1.2-0.3,1.5-0.3C12,12.8,13.7,12.8,14.6,11.9L14.6,11.9z"/>
						<path class="st10" d="M14.4,11.9c0.7-0.7,0.8-2.1,0.4-2.9c-0.6-1-1.5-1.1-2.1-1.4c-0.5-0.2-1.5-0.9-2.2-1
							C9.7,6.5,8.9,6.8,8.1,7C7.2,7.3,5.9,8.6,5.3,9.2c-0.7,0.7-1.1,2.1-0.6,2.6c0.3,0.4,0.8,1,1.6,1.2s1.3,0,1.7,0
							c0.4,0.1,0.9,0.2,1.9,0c0.8-0.1,1.2-0.3,1.5-0.3C12,12.7,13.6,12.7,14.4,11.9L14.4,11.9z"/>
						<path class="st11" d="M14.2,11.8c0.7-0.7,0.9-2,0.4-2.8c-0.5-1-1.5-1.1-2.1-1.4c-0.5-0.2-1.4-0.9-2.1-1C9.7,6.6,8.9,6.8,8.1,7
							C7.2,7.3,5.9,8.6,5.3,9.2c-0.7,0.7-1.1,2-0.6,2.5c0.3,0.4,0.8,0.9,1.5,1.1s1.3-0.1,1.6,0s0.9,0.2,1.9,0.1
							c0.8-0.1,1.3-0.3,1.5-0.3C11.9,12.6,13.4,12.6,14.2,11.8L14.2,11.8z"/>
						<path class="st12" d="M14.1,11.8c0.7-0.7,0.9-1.9,0.5-2.7c-0.5-1-1.5-1.1-2.1-1.3c-0.5-0.2-1.4-0.9-2.1-1
							C9.7,6.6,8.8,6.8,8,7.1C7.2,7.3,5.9,8.7,5.4,9.2c-0.6,0.6-1.1,1.9-0.7,2.4c0.3,0.4,0.7,0.9,1.5,1.1s1.2-0.1,1.6,0
							s0.8,0.2,1.9,0.1c0.8-0.1,1.3-0.3,1.5-0.3C11.9,12.4,13.3,12.5,14.1,11.8z"/>
						<path class="st13" d="M13.9,11.7c0.7-0.6,1-1.8,0.5-2.6c-0.5-1-1.5-1.1-2-1.3c-0.4-0.2-1.3-0.9-2-1C9.6,6.7,8.8,6.9,8,7.1
							C7.1,7.4,5.9,8.7,5.5,9.2C4.9,9.8,4.3,11,4.8,11.6c0.3,0.4,0.7,0.9,1.5,1s1.2-0.1,1.6-0.1s0.9,0.2,1.9,0.1
							c0.8-0.1,1.3-0.3,1.5-0.3C11.8,12.3,13.2,12.4,13.9,11.7L13.9,11.7z"/>
						<path class="st14" d="M13.8,11.7c0.7-0.6,1-1.7,0.6-2.5c-0.5-1-1.5-1-2-1.3c-0.4-0.2-1.3-0.9-2-1C9.6,6.8,8.8,6.9,8,7.2
							c-0.9,0.3-2,1.5-2.5,2C5,9.8,4.3,10.9,4.8,11.5c0.3,0.4,0.7,0.8,1.5,1s1.2-0.2,1.5-0.1c0.3,0.1,0.9,0.2,1.9,0.1
							c0.8-0.1,1.3-0.3,1.5-0.3C11.8,12.2,13,12.3,13.8,11.7L13.8,11.7z"/>
						<path class="st15" d="M13.6,11.6c0.7-0.6,1.1-1.6,0.6-2.4c-0.5-1-1.5-1-2-1.3C11.8,7.8,11,7,10.3,6.9S8.8,7,8,7.2
							c-0.9,0.3-2,1.5-2.4,2c-0.5,0.5-1.2,1.6-0.7,2.2c0.3,0.3,0.6,0.8,1.4,0.9s1.2-0.2,1.5-0.1c0.3,0.1,0.8,0.2,1.9,0.1
							c0.8-0.1,1.3-0.3,1.5-0.3C11.7,12.1,12.9,12.2,13.6,11.6L13.6,11.6z"/>
						<path class="st16" d="M13.5,11.6c0.7-0.5,1.1-1.4,0.7-2.3c-0.5-1-1.5-1-2-1.2c-0.4-0.2-1.2-0.9-1.9-1.1S8.7,7,8,7.2
							C7.1,7.5,6,8.7,5.6,9.2c-0.5,0.5-1.2,1.6-0.7,2.2c0.3,0.3,0.6,0.8,1.4,0.9s1.2-0.2,1.5-0.2c0.3,0.1,0.8,0.2,1.9,0.1
							c0.9-0.1,1.3-0.3,1.5-0.3C11.7,11.9,12.7,12.1,13.5,11.6L13.5,11.6z"/>
						<path class="st17" d="M13.3,11.5c0.7-0.5,1.1-1.3,0.7-2.2c-0.5-1-1.5-1-2-1.2c-0.4-0.2-1.1-0.9-1.8-1.1S8.7,7.1,8,7.3
							C7.1,7.5,6,8.8,5.7,9.2C5.2,9.6,4.4,10.6,5,11.3c0.2,0.3,0.6,0.8,1.4,0.8s1.2-0.3,1.5-0.2C8.1,12,8.6,12.2,9.7,12
							c0.9-0.1,1.3-0.3,1.5-0.3C11.7,11.8,12.6,12,13.3,11.5L13.3,11.5z"/>
						<path class="st18" d="M13.2,11.5c0.7-0.4,1.2-1.2,0.8-2.1c-0.5-1-1.5-0.9-2-1.2c-0.4-0.2-1.1-1-1.7-1.1s-1.6,0-2.3,0.2
							C7.1,7.6,6.1,8.8,5.7,9.1C5.3,9.5,4.4,10.5,5,11.2c0.2,0.3,0.5,0.7,1.3,0.8s1.2-0.3,1.4-0.2c0.3,0.1,0.8,0.2,1.9,0.1
							c0.9-0.1,1.3-0.4,1.5-0.3C11.6,11.7,12.4,11.9,13.2,11.5L13.2,11.5z"/>
						<path class="st19" d="M13,11.4c0.7-0.4,1.2-1.1,0.8-2c-0.4-1-1.5-0.9-2-1.1c-0.4-0.2-1.1-1-1.7-1.1C9.6,7,8.7,7.1,7.9,7.3
							C7.1,7.6,6.1,8.8,5.8,9.1c-0.4,0.4-1.3,1.3-0.7,2c0.2,0.2,0.5,0.7,1.3,0.7c0.8,0.1,1.2-0.4,1.4-0.3c0.3,0.1,0.8,0.2,1.9,0.1
							c0.9-0.1,1.3-0.4,1.5-0.3C11.6,11.5,12.3,11.8,13,11.4L13,11.4z"/>
						<path class="st20" d="M12.9,11.4c0.7-0.4,1.3-1,0.9-1.9c-0.4-1-1.5-0.9-2-1.1c-0.4-0.2-1-1-1.6-1.1C9.6,7.1,8.6,7.2,7.9,7.4
							C7,7.6,6.1,8.8,5.8,9.1C5.5,9.4,4.5,10.3,5.1,11c0.2,0.2,0.4,0.7,1.3,0.7c0.8,0,1.2-0.4,1.4-0.3c0.3,0.1,0.8,0.2,1.9,0.1
							c0.9-0.1,1.4-0.4,1.5-0.3C11.5,11.4,12.2,11.8,12.9,11.4L12.9,11.4z"/>
						<path class="st21" d="M12.7,11.3c0.7-0.3,1.3-0.9,0.9-1.8c-0.4-1-1.4-0.9-1.9-1.1c-0.3-0.1-1-1-1.6-1.1
							C9.6,7.2,8.6,7.2,7.9,7.4c-0.8,0.3-1.7,1.4-2,1.7c-0.3,0.3-1.4,1.1-0.8,1.9c0.2,0.2,0.4,0.6,1.2,0.6c0.8,0,1.2-0.4,1.4-0.3
							c0.3,0.1,0.8,0.2,1.9,0.1c0.9-0.1,1.4-0.4,1.5-0.3C11.5,11.3,12,11.6,12.7,11.3L12.7,11.3z"/>
					</g>
					<path class="st24" d="M12.2,8.3c-0.2,0-0.4,0-0.6,0.1c-0.2-1.2-1.2-2.1-2.5-2.1C7.9,6.2,6.9,6.9,6.5,8l0,0
						c-1-0.1-1.9,0.7-1.9,1.8s0.7,1.9,1.8,1.9c0.5,0,1-0.2,1.4-0.5c0.4,0.2,0.8,0.3,1.2,0.4c0.8,0,1.5-0.3,2-0.8
						c0.3,0.3,0.7,0.6,1.1,0.6c0.9,0,1.6-0.6,1.6-1.4C13.7,9.1,13,8.4,12.2,8.3L12.2,8.3z"/>
					<path class="st28" d="M12.2,8.4c-0.2,0-0.4,0-0.6,0.1c-0.2-1.2-1.2-2.1-2.5-2.1C8,6.2,7,7,6.6,8.1l0,0C5.6,8,4.7,8.8,4.6,9.8
						s0.7,1.9,1.8,1.9c0.5,0,1-0.2,1.4-0.5c0.4,0.2,0.8,0.3,1.2,0.4c0.8,0,1.5-0.3,2-0.8c0.3,0.3,0.7,0.6,1.1,0.6
						c0.9,0,1.6-0.6,1.6-1.4C13.7,9.1,13.1,8.4,12.2,8.4L12.2,8.4z"/>
				</g>
				<g>
					
						<radialGradient id="SVGID_1_" cx="-40.9501" cy="211.4978" r="1.9315" gradientTransform="matrix(0.9834 0.1812 0.1812 -0.9834 13.6969 230.2092)" gradientUnits="userSpaceOnUse">
						<stop  offset="0" style="stop-color:#AED5EB"/>
						<stop  offset="0.19" style="stop-color:#C0DEEF"/>
						<stop  offset="0.69" style="stop-color:#EDF5FA"/>
						<stop  offset="0.95" style="stop-color:#FFFFFF"/>
					</radialGradient>
					<path class="st29" d="M13.6,15.1c-0.2,1.1-1.2,1.7-2.2,1.6s-1.7-1.2-1.6-2.2s1.2-1.7,2.2-1.6S13.8,14.1,13.6,15.1z"/>
					<path class="st24" d="M12,14.2c0,0.6-0.5,1.1-1.1,1.1s-1.1-0.5-1.1-1.1s0.5-1.1,1.1-1.1S12,13.5,12,14.2z"/>
					<path class="st28" d="M12.1,14.2c0,0.6-0.5,1.1-1.1,1.1s-1.1-0.5-1.1-1.1s0.5-1.1,1.1-1.1S12.1,13.6,12.1,14.2z"/>
				</g>
				<g>
					<path class="st24" d="M19.5,17.4c0,0.6-0.5,1.1-1.1,1.1s-1.1-0.5-1.1-1.1s0.5-1.1,1.1-1.1S19.5,16.8,19.5,17.4z"/>
					<circle class="st28" cx="18.5" cy="17.5" r="1.1"/>
				</g>
				<g>
					<path class="st24" d="M8.4,17.5c0,0.5-0.4,0.9-0.9,0.9S6.6,18,6.6,17.5s0.4-0.9,0.9-0.9S8.4,17,8.4,17.5z"/>
					<circle class="st25" cx="7.6" cy="17.5" r="0.9"/>
				</g>
				<g>
					<path class="st24" d="M17.3,11.4c0,0.5-0.4,0.9-0.9,0.9s-0.9-0.4-0.9-0.9s0.4-0.9,0.9-0.9S17.3,10.9,17.3,11.4z"/>
					<path class="st28" d="M17.4,11.4c0,0.5-0.4,0.9-0.9,0.9s-0.9-0.4-0.9-0.9s0.4-0.9,0.9-0.9S17.4,11,17.4,11.4z"/>
				</g>
				<g>
					<path class="st24" d="M22,14.1c0,0.5-0.4,0.9-0.9,0.9s-0.9-0.4-0.9-0.9s0.4-0.9,0.9-0.9S22,13.7,22,14.1z"/>
					<path class="st25" d="M22.1,14.2c0,0.5-0.4,0.9-0.9,0.9s-0.9-0.4-0.9-0.9s0.4-0.9,0.9-0.9S22.1,13.7,22.1,14.2z"/>
				</g>
				<g>
					<path class="st24" d="M13.8,18c0,0.3-0.3,0.6-0.6,0.6s-0.6-0.3-0.6-0.6s0.3-0.6,0.6-0.6S13.8,17.6,13.8,18z"/>
					<path class="st25" d="M13.8,18c0,0.3-0.3,0.6-0.6,0.6s-0.6-0.3-0.6-0.6s0.3-0.6,0.6-0.6S13.8,17.7,13.8,18z"/>
				</g>
				<g>
					<path class="st24" d="M5.2,15.3c0,0.3-0.3,0.6-0.6,0.6S4,15.6,4,15.3s0.3-0.6,0.6-0.6S5.2,14.9,5.2,15.3z"/>
					<path class="st28" d="M5.2,15.3c0,0.3-0.3,0.6-0.6,0.6s-0.6-0.3-0.6-0.6s0.3-0.6,0.6-0.6S5.2,14.9,5.2,15.3z"/>
				</g>
			</g>
		</g>
	</g>
</g>
</svg>
