<?xml version="1.0" encoding="utf-8"?>
<!-- Generator: Adobe Illustrator 27.0.1, SVG Export Plug-In . SVG Version: 6.00 Build 0)  -->
<svg version="1.1" id="Ebene_1" xmlns="http://www.w3.org/2000/svg" xmlns:xlink="http://www.w3.org/1999/xlink" x="0px" y="0px"
	 viewBox="0 0 47.9 47.9" style="enable-background:new 0 0 47.9 47.9;" xml:space="preserve">
<style type="text/css">
	.st0{fill:#FFFFFF;fill-opacity:0;}
	.st1{opacity:5.000000e-02;fill:#F9FBFB;enable-background:new    ;}
	.st2{opacity:0.1;fill:#F4F6F8;enable-background:new    ;}
	.st3{opacity:0.14;fill:#EEF2F4;enable-background:new    ;}
	.st4{opacity:0.19;fill:#E9EDF1;enable-background:new    ;}
	.st5{opacity:0.24;fill:#E3E9ED;enable-background:new    ;}
	.st6{opacity:0.29;fill:#DEE5EA;enable-background:new    ;}
	.st7{opacity:0.33;fill:#D8E0E6;enable-background:new    ;}
	.st8{opacity:0.38;fill:#D3DCE3;enable-background:new    ;}
	.st9{opacity:0.43;fill:#CDD8DF;enable-background:new    ;}
	.st10{opacity:0.48;fill:#C8D3DC;enable-background:new    ;}
	.st11{opacity:0.52;fill:#C2CFD8;enable-background:new    ;}
	.st12{opacity:0.57;fill:#BDCAD5;enable-background:new    ;}
	.st13{opacity:0.62;fill:#B7C6D1;enable-background:new    ;}
	.st14{opacity:0.67;fill:#B2C2CE;enable-background:new    ;}
	.st15{opacity:0.71;fill:#ACBDCA;enable-background:new    ;}
	.st16{opacity:0.76;fill:#A7B9C7;enable-background:new    ;}
	.st17{opacity:0.81;fill:#A1B5C3;enable-background:new    ;}
	.st18{opacity:0.86;fill:#9CB0C0;enable-background:new    ;}
	.st19{opacity:0.9;fill:#96ACBC;enable-background:new    ;}
	.st20{opacity:0.95;fill:#91A7B9;enable-background:new    ;}
	.st21{fill:#8BA3B5;}
	.st22{fill:#FFFFFF;}
	.st23{fill:#D5E4E9;}
	.st24{fill:#E4EEF2;}
	.st25{fill:#AEC9CC;}
	.st26{fill:#E4EBED;}
	.st27{fill:#DAE4E8;}
	.st28{fill:#CDDFE7;}
</style>
<g>
	<g>
		<path class="st0" d="M36.2,27.7c4.1-1.7,5-10.1,0.2-11.3c-8-1.2-25.7,0.6-31.2,0.9c-6.5,0.3-4.5,8.1-0.2,9.5
			C10.7,28.9,30.8,29.8,36.2,27.7L36.2,27.7z"/>
		<path class="st1" d="M35.8,27.5c3.9-1.4,4.8-9.8,0-10.4c-7.4-1.2-25.3,0.3-30.9,0.6c-6,0-4.3,7.8-0.4,9.2
			C10.7,28.3,30.4,29.8,35.8,27.5z"/>
		<path class="st2" d="M35.8,27.2c3.9-1.4,4.5-9.5,0-10.1c-7.3-1.2-25.3,0.3-30.7,0.6c-5.8,0-4.3,7.8-0.4,8.9
			C10.5,28,30.4,29.5,35.8,27.2z"/>
		<path class="st3" d="M35.6,26.9c3.7-1.4,4.5-9.2,0-9.8c-7.1-1.2-25.3,0.3-30.7,0.6c-5.6,0-4.1,7.2-0.6,8.7
			C10.1,27.7,30.4,28.9,35.6,26.9L35.6,26.9z"/>
		<path class="st4" d="M35.6,26.3c3.5-1.4,4.3-8.7,0-9.5c-6.7-0.9-25.1,0.6-30.5,0.9c-5.6,0-4.1,6.9-0.4,8.1
			C10.1,27.5,30.2,28.3,35.6,26.3z"/>
		<path class="st5" d="M35.4,26c3.5-0.9,4.1-8.1,0.2-8.9c-6.7-0.6-25.5,0.6-30.5,0.9c-5,0.3-3.7,6.6-0.2,7.8
			C10,26.9,30.2,28,35.4,26L35.4,26z"/>
		<path class="st6" d="M35.3,25.7c3.2-0.9,4.1-7.8,0-8.7c-6.5-0.6-25.1,0.6-30.3,0.9c-4.6,0-3.7,6.3-0.2,7.2
			C9.8,26.6,30,27.7,35.3,25.7L35.3,25.7z"/>
		<path class="st7" d="M35.3,25.4c3.2-0.9,3.9-7.5,0-8.1c-6.1-0.6-25.1,0.6-30.1,0.9c-4.6,0-3.7,6.1-0.4,6.9
			C9.8,26.3,30,27.5,35.3,25.4z"/>
		<path class="st8" d="M35.1,25.1c3-0.9,3.7-7.2,0-7.5c-5.8-0.6-25.1,0.6-30.1,0.9c-4.5,0-3.5,5.5-0.4,6.6C9.6,26,30,27.2,35.1,25.1
			z"/>
		<path class="st9" d="M35.1,24.9c2.8-0.6,3.5-6.9,0-7.2c-5.6-0.3-24.9,0.6-29.9,0.9c-4.3,0-3.3,5.2-0.4,5.8
			C9.4,25.7,29.9,26.3,35.1,24.9L35.1,24.9z"/>
		<path class="st10" d="M34.9,24.6c2.8-0.6,3.2-6.3,0-6.9c-5.4-0.3-24.9,0.6-29.8,0.9c-4.1,0.3-3.3,5.2-0.4,5.8
			C9.4,25.1,29.9,26,34.9,24.6L34.9,24.6z"/>
		<path class="st11" d="M34.9,24c2.6-0.6,3-6.1-0.2-6.6c-4.8-0.3-24.7,0.6-29.6,0.9c-3.7,0-3,4.6-0.4,5.2
			C9.2,24.6,29.7,25.7,34.9,24L34.9,24z"/>
		<path class="st12" d="M34.5,23.7c2.6-0.6,2.8-5.5-0.2-6.1c-4.6-0.3-24.7,0.6-29.6,0.9c-3.5,0-2.8,4.3-0.4,4.9
			C9,24.3,29.7,25.4,34.5,23.7z"/>
		<path class="st13" d="M34.5,23.4c2.4-0.6,2.4-5.2-0.4-5.5c-4.3-0.3-24.6,0.6-29,0.9c-3.3,0.3-2.6,4.3-0.2,4.6
			C9,24,29.7,24.9,34.5,23.4z"/>
		<path class="st14" d="M34.3,23.1c2.2-0.3,2.4-4.9-0.2-5.2c-4.1-0.3-24.6,0.6-29,0.9c-3,0-2.4,3.8-0.2,4
			C8.7,23.7,29.5,24.3,34.3,23.1z"/>
		<path class="st15" d="M34.1,22.8c2.2-0.3,2.2-4.3-0.2-4.6c-3.7-0.3-24.4,0.9-28.6,0.9c-3,0.3-2.4,3.8-0.4,4
			C8.5,23.4,29.5,24,34.1,22.8L34.1,22.8z"/>
		<path class="st16" d="M34.1,22.6c1.9-0.3,1.9-4-0.4-4.3c-3.2-0.3-24.2,0.9-28.5,0.9c-2.6,0-2.4,2.9-0.4,3.2
			C8.5,23.1,29.1,23.7,34.1,22.6L34.1,22.6z"/>
		<path class="st17" d="M34,22.3c1.9-0.3,1.7-3.8-0.4-4c-3,0-24,0.9-28.3,0.9c-2.4,0-2.2,2.6-0.4,2.9C8.3,22.8,29.1,23.1,34,22.3z"
			/>
		<path class="st18" d="M34,22c1.7-0.3,1.7-3.2-0.4-3.2c-2.8-0.6-24.2,0.6-28.3,0.6c-2.2,0-1.9,2.3-0.4,2.6C8.1,22,29.1,22.8,34,22
			L34,22z"/>
		<path class="st19" d="M33.8,21.4c1.5,0,1.5-2.9-0.4-2.9c-2.8-0.3-24.2,0.9-28.3,1.2c-1.9,0-1.9,2-0.4,2
			C8.1,21.7,28.9,22.6,33.8,21.4L33.8,21.4z"/>
		<path class="st20" d="M33.8,21.4c1.5,0,1.3-2.6-0.4-2.6C31,18.8,9.2,19.7,5.3,20c-1.9-0.3-1.9,1.4-0.6,1.7
			C7.9,21.4,28.9,21.7,33.8,21.4z"/>
		<path class="st21" d="M33.6,21.1c1.3,0,1.1-2-0.6-2.3c-1.9,0-23.6,0.9-27.9,0.9c-1.5,0.3-1.5,1.7-0.2,1.7
			C7.7,21.1,28.7,21.4,33.6,21.1z"/>
	</g>
	<path class="st22" d="M35.6,17.4c0,1.7-0.9,2.9-1.9,2.9L3.6,21.1c-1.1,0-1.9-1.4-1.9-2.9l0,0c0-1.7,0.9-2.9,1.9-2.9L34,14.8
		C34.9,14.2,35.6,15.6,35.6,17.4L35.6,17.4z"/>
	<path class="st23" d="M36,17.6c0,1.7-0.9,2.9-1.9,2.9L4,21.4c-1.1,0-1.9-1.4-1.9-2.9l0,0c0-1.7,0.9-2.9,1.9-2.9l30.3-0.6
		C35.1,14.5,36,15.9,36,17.6L36,17.6z"/>
</g>
<g>
	<g>
		<path class="st0" d="M44.7,24.3c4.1-1.7,4.5-11.3-0.4-12.1c-8-1.2-25.7,0.6-31.2,0.9c-6.5-0.3-4.6,9.8-0.4,10.1
			C18.1,23.4,39.3,26.3,44.7,24.3L44.7,24.3z"/>
		<path class="st1" d="M44.7,23.7c3.9-1.4,4.3-11-0.4-11.8c-7.6-1.2-25.5,0.6-31.1,0.9c-6,0-4.5,9.5-0.2,9.8
			C18,23.1,39.3,26,44.7,23.7L44.7,23.7z"/>
		<path class="st2" d="M44.6,23.4c3.9-1.4,4.1-10.4-0.4-11.3C36.9,11,18.7,12.7,13.3,13C7.5,13,9,22,13.1,22.3
			C18,22.8,39.2,25.7,44.6,23.4z"/>
		<path class="st3" d="M44.4,23.1c3.7-1.4,3.9-9.8-0.4-11C36.9,11,18.5,12.7,13.1,13c-5.6,0-4.3,8.7-0.4,8.9
			C17.8,22.8,39.2,25.4,44.4,23.1L44.4,23.1z"/>
		<path class="st4" d="M44.4,22.8c3.5-1.4,3.7-9.5-0.4-10.1c-6.7-1.2-25.3,0.6-30.7,0.9s-4.1,8.1-0.4,8.7
			C17.8,22.6,39,24.9,44.4,22.8z"/>
		<path class="st5" d="M44,22.6c3.5-0.9,3.9-9.2-0.4-9.8c-6.5-0.6-25.3,0.6-30.3,0.9c-5,0-4.1,7.8-0.4,8.1C17.6,22,39,24.6,44,22.6
			L44,22.6z"/>
		<path class="st6" d="M43.8,22c3.2-0.9,3.7-8.7-0.2-9.2c-6.5-0.6-25.1,0.6-30.3,0.9c-5,0-3.9,7.5-0.4,7.8
			C17.6,21.7,38.6,23.7,43.8,22z"/>
		<path class="st7" d="M43.8,21.7c3.2-0.9,3.5-8.1-0.2-8.9c-6.1-0.6-25.1,0.6-30.1,0.9c-5,0.3-3.9,7.2-0.6,7.5
			C17.4,21.4,38.6,23.4,43.8,21.7L43.8,21.7z"/>
		<path class="st8" d="M43.6,21.1c3-0.9,3.2-7.8-0.2-8.1c-5.8-0.6-25.1,0.6-30.1,0.9c-4.5,0-3.7,6.6-0.4,6.9
			C17.2,21.1,38.4,23.1,43.6,21.1z"/>
		<path class="st9" d="M43.4,20.8c3-0.6,3.2-7.2-0.2-7.8c-5.6-0.3-24.9,0.6-29.9,0.9c-4.3,0-3.5,6.3-0.4,6.3
			C17,20.8,38.4,22.6,43.4,20.8L43.4,20.8z"/>
		<path class="st10" d="M43.3,20.5C46,20,46,13.6,42.9,13c-5.2-0.3-24.7,0.9-29.6,0.9c-3.9,0-3.2,6.1-0.4,6.1
			C17,20.5,38.2,22.3,43.3,20.5z"/>
		<path class="st11" d="M43.1,20.2c2.6-0.6,2.8-6.6-0.4-6.9C38,13,18.1,14.2,13.3,14.2c-3.7,0-3,5.2-0.4,5.5
			C16.7,20.2,38.2,22,43.1,20.2L43.1,20.2z"/>
		<path class="st12" d="M42.9,20c2.6-0.6,2.6-6.1-0.6-6.6c-4.5-0.3-24.6,0.9-29.4,0.9c-3.5,0-3,4.9-0.4,5.2
			C16.7,19.7,38,21.1,42.9,20L42.9,20z"/>
		<path class="st13" d="M42.9,19.7c2.4-0.6,2.4-5.5-0.4-5.8c-4.5-0.6-24.7,0.6-29.2,0.6c-3.3,0-2.8,4.6-0.4,4.6
			C16.5,19.4,37.9,20.8,42.9,19.7z"/>
		<path class="st14" d="M42.7,18.8c2.2-0.3,2.2-5.2-0.4-5.5c-4.1,0-24.6,1.2-29,1.2c-3,0-2.6,4.3-0.4,4.3
			C16.5,19.1,37.7,20.2,42.7,18.8L42.7,18.8z"/>
		<path class="st15" d="M42.3,18.8c2.2-0.3,2.2-4.6-0.4-4.9c-3.5-0.3-24.2,0.9-28.6,0.9c-2.8,0-2.6,3.8-0.4,3.8
			C16.3,18.8,37.7,20,42.3,18.8z"/>
		<path class="st16" d="M42.3,18.5c1.9-0.3,1.9-4.3-0.4-4.6c-3.5-0.3-24.4,0.9-28.6,0.9c-2.6,0-2.4,3.2-0.4,3.2
			C16.3,18.5,37.5,19.7,42.3,18.5z"/>
		<path class="st17" d="M42.1,18.2c1.9-0.3,1.7-4-0.4-4c-3-0.3-24.2,0.6-28.5,0.6c-2.4,0-2.2,2.9-0.4,2.9
			C16.1,18.2,37.5,18.8,42.1,18.2L42.1,18.2z"/>
		<path class="st18" d="M42,17.9c1.7-0.3,1.5-3.2-0.4-3.8c-2.8-0.3-24.2,0.9-28.3,0.9c-2.2,0-2.2,2.6-0.4,2.6
			C16.1,17.9,37.3,18.5,42,17.9L42,17.9z"/>
		<path class="st19" d="M42,17.6c1.5,0,1.3-2.9-0.4-2.9c-2.6-0.6-24,0.9-28.1,0.9c-1.9,0-1.9,2-0.4,2C15.9,17.4,37.3,17.9,42,17.6
			L42,17.6z"/>
		<path class="st20" d="M41.8,17.4c1.5,0,1.3-2.6-0.6-2.6c-2.2,0-24,0.9-27.9,0.9c-1.5,0-1.7,1.7-0.4,1.7
			C15.9,17.1,36.9,17.4,41.8,17.4z"/>
		<path class="st21" d="M41.8,16.8c1.3,0,1.1-2-0.6-2.3c-1.9,0-23.6,0.9-27.9,0.9c-1.3,0.3-1.5,1.4-0.4,1.4
			C15.9,16.8,36.9,16.8,41.8,16.8z"/>
	</g>
	<path class="st22" d="M44.2,12.7c0,1.7-0.9,2.9-1.9,2.9l-30.5,0.9c-1.1,0-1.9-1.4-1.9-2.9l0,0c0-1.7,0.9-2.9,1.9-2.9l30.3-0.6
		C43.3,9.6,44.2,11,44.2,12.7L44.2,12.7z"/>
	<path class="st24" d="M44.4,13c0,1.7-0.9,2.9-1.9,2.9L12,16.8c-1.1,0-1.9-1.4-1.9-2.9l0,0c0-1.7,0.9-2.9,1.9-2.9l30.3-0.6
		C43.4,10.1,44.4,11.3,44.4,13L44.4,13z"/>
</g>
<g>
	<g>
		<path class="st0" d="M30,14.2c3.2-1.7,3.3-9.8-0.4-10.4c-5.8-1.4-12.5,0.3-16.9,0.3c-5,0-3.5,8.7,0,9.2C16.7,13.6,26,16.2,30,14.2
			L30,14.2z"/>
		<path class="st1" d="M30,13.9c3-1.4,3.2-9.2-0.4-10.1c-5.6-1.4-12.5,0.3-16.9,0.3c-4.6,0-3.2,8.1,0,8.9C16.7,13.3,26,15.9,30,13.9
			L30,13.9z"/>
		<path class="st2" d="M29.9,13.6c3-1.4,3.2-8.9-0.4-9.8c-5.6-1.4-12.6,0.3-16.7,0.3c-4.5,0-3.2,7.8,0,8.1
			C16.5,12.7,25.8,15.6,29.9,13.6L29.9,13.6z"/>
		<path class="st3" d="M29.9,13.3c2.8-1.4,3-8.7-0.2-9.2c-5.4-1.4-12.5,0.3-16.6,0.3c-4.3,0-3,7.5,0,7.8
			C16.5,12.5,25.8,15.3,29.9,13.3L29.9,13.3z"/>
		<path class="st4" d="M29.7,13c2.8-1.7,3-8.4-0.2-8.9C24.3,2.6,17,4.4,12.9,4.4s-3.2,7.2,0,7.5C16.3,12.2,25.8,14.5,29.7,13
			L29.7,13z"/>
		<path class="st5" d="M29.7,12.5c2.6-0.9,2.8-7.8-0.4-8.7c-5-0.9-12.5,0.3-16.4,0.3c-4.1,0.3-3,7.2-0.4,7.5
			C16.3,11.9,25.6,14.2,29.7,12.5L29.7,12.5z"/>
		<path class="st6" d="M29.5,12.2c2.6-0.9,2.6-7.5-0.4-8.1c-4.6-0.9-12.3,0.3-16.4,0.3c-3.7,0.3-2.6,6.9,0,6.9
			C16.1,11.9,25.6,13.9,29.5,12.2L29.5,12.2z"/>
		<path class="st7" d="M29.5,11.9c2.4-0.9,2.4-6.9-0.4-7.5c-4.5-0.9-12.3,0.3-16.2,0.3c-3.7,0-2.6,6.3-0.2,6.6
			C16.1,11.6,25.4,13.6,29.5,11.9z"/>
		<path class="st8" d="M29.3,11.9c2.4-0.9,2.4-6.9-0.4-7.5c-4.3-0.9-12.3,0.3-16.2,0.3c-3.2,0-2.4,6.1,0,6.3
			C15.9,11.3,25.4,13.3,29.3,11.9L29.3,11.9z"/>
		<path class="st9" d="M29.3,11.6c2.2-0.6,2.4-6.6-0.4-6.9C24.8,4.1,16.7,5,12.9,5c-3.2,0-2.4,5.5-0.2,5.5
			C15.9,11,25.4,13,29.3,11.6L29.3,11.6z"/>
		<path class="st10" d="M28.9,11.3c2.2-0.6,2.2-6.1-0.4-6.6C24.7,4.1,16.5,5,12.8,5c-3,0-2.4,5.2-0.2,5.5
			C15.9,10.4,25.2,12.5,28.9,11.3z"/>
		<path class="st11" d="M28.7,11c1.9-0.6,2.2-5.5-0.4-6.3C24.7,4.1,16.3,5,12.6,5c-2.8,0-2.2,4.9-0.2,4.9
			C15.7,10.4,25.2,12.2,28.7,11L28.7,11z"/>
		<path class="st12" d="M28.7,10.7c1.9-0.6,1.9-5.2-0.4-6.1C24.8,4.1,16.3,5,12.9,5c-2.8,0-2.2,4.6-0.2,4.6
			C15.7,10.1,24.8,11.6,28.7,10.7L28.7,10.7z"/>
		<path class="st13" d="M28.6,10.1c1.7-0.6,1.7-4.9-0.4-5.2C25,4.4,16.3,5.2,12.8,5.2c-2.4,0-1.9,4.3,0,4.3
			C15.4,9.9,24.8,11.3,28.6,10.1z"/>
		<path class="st14" d="M28.6,9.9c1.7-0.3,1.7-4.6-0.4-4.9c-3-0.6-11.9,0.3-15.3,0.3c-2.4,0.3-1.9,4-0.2,4
			C15.4,9.6,24.7,11,28.6,9.9z"/>
		<path class="st15" d="M28.4,9.6C30,9.3,29.9,5.2,28,5c-2.8-0.3-11.9,0.6-15.1,0.6c-2.2,0-1.7,3.2-0.2,3.8
			C15.2,9.3,24.7,10.7,28.4,9.6z"/>
		<path class="st16" d="M28.4,9.3C29.9,9,29.9,5.2,28,5c-2.6-0.3-11.7,0.6-15.1,0.6c-1.9,0-1.7,2.9-0.2,3.2
			C15.2,9,24.5,10.1,28.4,9.3z"/>
		<path class="st17" d="M28.2,9.3c1.5-0.3,1.3-3.8-0.4-3.8c-2.4-0.3-11.7,0.6-14.9,0.6c-1.7,0-1.7,2.6-0.2,2.6
			C15,9,24.5,9.6,28.2,9.3z"/>
		<path class="st18" d="M28.2,9c1.3-0.3,1.1-3.2-0.4-3.2c-2.2-0.3-11.7,0.6-14.9,0.6c-1.7-0.3-1.7,2-0.4,2C15,8.7,24.5,9.3,28.2,9
			L28.2,9z"/>
		<path class="st19" d="M28,8.7c1.3,0,1.1-2.9-0.4-2.9c-1.9-0.3-11.3,0.3-14.7,0.6c-1.5,0-1.5,2-0.4,2C15,8.4,24.3,9,28,8.7z"/>
		<path class="st20" d="M28,8.4c1.1,0,0.9-2.3-0.4-2.6c-1.7,0-11.3,0.6-14.5,0.6c-1.5,0-1.5,1.7-0.6,1.7C14.8,7.8,24.3,8.4,28,8.4
			L28,8.4z"/>
		<path class="st21" d="M27.8,8.1c1.1,0,0.9-2-0.4-2.3c-1.5,0-11.3,0.6-14.5,0.6c-1.1,0-1.3,1.4-0.4,1.4C14.8,7.6,24.1,8.1,27.8,8.1
			z"/>
	</g>
	<path class="st22" d="M28.9,4.4c0,1.7-0.9,2.9-1.9,2.9l-16,0.3c-1.1,0-1.9-1.4-1.9-2.9l0,0c0-1.7,0.9-2.9,1.9-2.9l15.8-0.3
		C27.8,1.5,28.9,2.6,28.9,4.4L28.9,4.4z"/>
	<path class="st25" d="M29.3,4.7c0,1.7-0.9,2.9-1.9,2.9L11.3,7.8c-1.1,0-1.9-1.4-1.9-2.9l0,0c0-1.7,0.9-2.9,1.9-2.9l15.8-0.3
		C28.2,1.8,29.3,2.9,29.3,4.7L29.3,4.7z"/>
</g>
<g>
	<g>
		<path class="st0" d="M36.6,18.5c3-1.7,3.7-9.8-0.2-11c-5.8-1.4-12.5,0.3-16.9,0.3c-5,0-3.7,8.1-0.4,9.2
			C23,18.2,32.5,20.5,36.6,18.5L36.6,18.5z"/>
		<path class="st1" d="M36.4,18.2c3-1.4,3.5-9.5-0.2-10.4c-5.8-1.4-12.6,0.3-17.1,0.3s-3.3,8.1,0,8.9C23,17.9,32.3,20.2,36.4,18.2z"
			/>
		<path class="st2" d="M36.4,17.9c3-1.4,3.5-9.2-0.2-9.8c-5.6-1.4-12.6,0.3-16.7,0.3c-4.5,0-3.5,7.5-0.4,8.7
			C23,17.9,32.3,20,36.4,17.9z"/>
		<path class="st3" d="M36.2,17.6c2.8-1.4,3.5-8.9-0.2-9.5c-5.2-1.4-12.3,0.3-16.4,0.3c-4.3,0-3.5,7.2-0.4,7.8
			C22.8,17.6,32.1,19.7,36.2,17.6z"/>
		<path class="st4" d="M36.2,17.4c2.8-1.4,3.2-8.7,0-9.2C31,6.7,23.7,8.4,19.6,8.4s-3.2,7.2-0.4,7.5C22.8,17.1,32.1,18.8,36.2,17.4z
			"/>
		<path class="st5" d="M36,16.8c2.6-0.9,3-8.1,0-8.9C31,7,23.5,8.1,19.6,8.1c-3.9,0.3-3,6.9-0.4,7.2C22.8,16.8,32.1,18.5,36,16.8
			L36,16.8z"/>
		<path class="st6" d="M36,16.5c2.6-0.9,3-7.5,0-8.1c-4.6-0.9-12.3,0.3-16.4,0.3c-3.9,0-3,6.3-0.4,6.9C22.6,16.5,31.9,18.2,36,16.5
			L36,16.5z"/>
		<path class="st7" d="M35.6,16.2c2.4-0.9,2.8-7.2,0-7.8c-4.5-0.9-12.3,0.3-16.2,0.3c-3.7,0-2.8,6.1-0.4,6.6
			C22.6,16.2,31.9,17.9,35.6,16.2z"/>
		<path class="st8" d="M35.6,15.9c2.4-0.9,2.6-6.9,0-7.5c-4.3-0.9-12.3,0.3-16.2,0.3c-3.5,0-2.8,5.5-0.4,6.3
			C22.4,15.9,31.9,17.6,35.6,15.9z"/>
		<path class="st9" d="M35.6,15.6c2.2-0.6,2.6-6.6-0.2-7.2c-4.1-0.6-12.3,0.3-16,0.3c-3.2,0.6-2.4,5.8-0.4,6.1
			C22.4,15.6,31.9,17.4,35.6,15.6z"/>
		<path class="st10" d="M35.4,15.3c2.2-0.6,2.4-6.3-0.2-6.6C31.4,8.1,23.2,9,19.4,9c-3,0.3-2.6,5.2-0.4,5.5
			C22.4,15.3,31.5,16.5,35.4,15.3z"/>
		<path class="st11" d="M35.4,15.1c1.9-0.6,2.2-6.1-0.2-6.3C31.5,8.1,23.2,9,19.4,9c-2.8,0.6-2.2,5.2-0.4,5.2
			C22.1,14.8,31.5,16.2,35.4,15.1z"/>
		<path class="st12" d="M35.3,15.1c1.9-0.6,2.2-5.5-0.2-6.1C31.5,8.4,23,9.3,19.6,9.3c-2.8,0-2.4,4.3-0.4,4.6
			C22.1,14.5,31.5,15.9,35.3,15.1L35.3,15.1z"/>
		<path class="st13" d="M35.3,14.5c1.7-0.6,1.9-4.9-0.2-5.5c-3.2-0.6-11.9,0.3-15.4,0.3c-2.6,0-2.2,4-0.4,4.3
			C22.1,14.2,31.4,15.6,35.3,14.5L35.3,14.5z"/>
		<path class="st14" d="M35.1,14.2c1.7-0.3,1.7-4.6-0.2-4.9c-3-0.6-11.9,0.3-15.3,0.3c-2.4,0-2.2,3.8-0.4,4
			C21.9,13.9,31.4,15.1,35.1,14.2L35.1,14.2z"/>
		<path class="st15" d="M35.1,13.9c1.7-0.3,1.7-4.3-0.2-4.6C32.1,9,23,9.9,19.8,9.9c-2.2,0-1.9,3.2-0.4,3.8
			C21.9,13.6,31.2,14.5,35.1,13.9L35.1,13.9z"/>
		<path class="st16" d="M34.9,13.6c1.5-0.3,1.5-4-0.2-4.3C32.1,9,23,9.9,19.6,9.9c-1.9,0-1.7,2.9-0.4,3.2
			C21.9,13.3,31.2,14.2,34.9,13.6L34.9,13.6z"/>
		<path class="st17" d="M34.9,13.3c1.5-0.3,1.3-3.8-0.6-4C31.9,9,22.6,9.9,19.4,9.9c-1.7,0-1.7,2.6-0.4,2.6
			C21.7,13,31.2,13.9,34.9,13.3L34.9,13.3z"/>
		<path class="st18" d="M34.7,13c1.3-0.3,1.3-3.2-0.4-3.2c-2.2-0.3-11.7,0.6-14.9,0.6c-1.5,0-1.5,2.3-0.4,2.3
			C21.7,12.5,31,13.6,34.7,13z"/>
		<path class="st19" d="M34.7,12.7c1.3,0,1.1-2.9-0.4-2.9c-1.9-0.3-11.7,0.6-14.7,0.6c-1.5,0-1.5,2-0.4,2C21.5,12.2,31,13,34.7,12.7
			L34.7,12.7z"/>
		<path class="st20" d="M34.3,12.2c1.1,0,0.9-2.6-0.4-2.6c-1.7,0-11.3,0.6-14.5,0.6c-1.3,0-1.3,1.7-0.4,1.7
			C21.5,11.9,31,12.7,34.3,12.2z"/>
		<path class="st21" d="M34.3,11.9c1.1,0,0.9-2-0.4-2.3c-1.5,0-11.3,0.6-14.5,0.6c-1.1,0-1.3,1.7-0.4,1.4
			C21.5,11.6,30.8,11.9,34.3,11.9z"/>
	</g>
	<path class="st26" d="M36,8.7c0,1.7-0.9,2.9-1.9,2.9l-15.8,0.3c-1.1,0-1.9-1.4-1.9-2.9l0,0c0-1.7,0.9-2.9,1.9-2.9l15.8-0.3
		C35.1,5.8,36,7,36,8.7L36,8.7z"/>
</g>
<g>
	<g>
		<path class="st0" d="M27.4,45.6c4.1-1.7,5-10.1,0.2-11c-8-1.4-16.6,0-22.1,0c-6.5,0-4.3,8.9,0,9.5C10.5,44.5,22.1,47.9,27.4,45.6
			L27.4,45.6z"/>
		<path class="st1" d="M27.3,45.3c3.9-1.4,4.6-9.5,0.2-10.4c-7.6-1.4-16.6,0-21.9,0c-6,0-4.3,8.7-0.2,9.2
			C10.3,44.2,21.9,47.4,27.3,45.3z"/>
		<path class="st2" d="M27.3,44.8c3.9-1.4,4.6-9.2,0.2-10.1c-7.3-1.4-16.4,0-21.9,0c-5.8,0-4.1,8.1-0.2,8.7
			C10.3,43.9,21.9,46.8,27.3,44.8z"/>
		<path class="st3" d="M27.1,44.8c3.7-1.4,4.5-8.9,0-9.5c-7.1-1.4-16.4,0-21.8,0c-5.6,0-4.1,7.8-0.2,8.1
			C10,43.9,21.9,46.5,27.1,44.8L27.1,44.8z"/>
		<path class="st4" d="M26.9,44.5c3.5-1.4,4.3-8.7,0-9.2c-6.7-1.4-16.4,0-21.6,0c-5.4,0-3.9,7.5-0.2,7.8
			C10,43.6,21.7,46.2,26.9,44.5L26.9,44.5z"/>
		<path class="st5" d="M26.9,44.2c3.5-0.9,4.1-8.1,0-8.9c-6.5-0.9-16.2,0-21.4,0s-3.7,7.2-0.2,7.5C9.8,43.3,21.7,45.9,26.9,44.2
			L26.9,44.2z"/>
		<path class="st6" d="M26.7,43.9c3.2-0.9,3.9-7.8,0-8.7c-6.3-0.9-16.2,0-21.4,0c-5,0-3.7,6.9-0.2,7.2C9.8,43,21.5,45.6,26.7,43.9
			L26.7,43.9z"/>
		<path class="st7" d="M26.7,43.6c3.2-0.9,3.7-7.5,0-7.8c-6-0.9-16,0-21.2,0c-4.6,0-3.5,6.6-0.2,6.6C9.6,42.5,21.5,44.8,26.7,43.6z"
			/>
		<path class="st8" d="M26.3,43.3c3-0.9,3.5-6.9,0-7.5c-5.6-0.9-16,0-20.8,0c-4.5,0-3.5,6.3-0.2,6.3C9.4,42.2,21.3,44.5,26.3,43.3
			L26.3,43.3z"/>
		<path class="st9" d="M26.3,43c3-0.6,3.2-6.6-0.2-7.2c-5.4-0.6-16,0-20.6,0c-4.3,0-3.2,5.5-0.2,6.1C9.4,41.9,21.3,44.2,26.3,43z"/>
		<path class="st10" d="M26.1,42.5c2.8-0.6,3-6.3-0.2-6.6c-5.2-0.6-15.8,0-20.6,0c-3.9,0-3,5.2-0.2,5.5
			C9.2,41.6,21.3,43.9,26.1,42.5z"/>
		<path class="st11" d="M26,42.2c2.6-0.6,3-6.1-0.2-6.3c-4.6-0.6-15.8,0-20.5,0c-3.7,0-3,4.9-0.2,5.2C9.2,41.6,20.9,43.6,26,42.2
			L26,42.2z"/>
		<path class="st12" d="M26,41.9c2.6-0.6,2.8-5.5-0.2-6.1c-4.5-0.6-15.4,0-20.3,0c-3.5,0-2.8,4.6-0.2,4.9C9,41.3,20.9,43,26,41.9z"
			/>
		<path class="st13" d="M25.8,41.6c2.4-0.6,2.6-5.2-0.2-5.5c-4.3-0.6-15.4,0-20.1,0c-3.2,0-2.6,4.3-0.4,4.3
			C9,41,20.7,42.5,25.8,41.6L25.8,41.6z"/>
		<path class="st14" d="M25.8,41.3c2.2-0.3,2.4-4.6-0.4-4.9c-3.9-0.6-15.4,0-20.1,0c-3,0-2.6,4-0.4,4C8.7,40.7,20.7,42.2,25.8,41.3
			L25.8,41.3z"/>
		<path class="st15" d="M25.6,41c2.2-0.3,2.2-4.3-0.4-4.6c-3.7-0.3-15.3,0.3-19.9,0.3c-2.8,0-2.4,3.8-0.4,3.8
			C8.7,40.1,20.6,41.9,25.6,41L25.6,41z"/>
		<path class="st16" d="M25.4,40.7c1.9-0.3,1.9-4-0.4-4.3c-3.5-0.3-15.3,0.3-19.5,0.3c-2.6,0-2.4,3.2-0.4,3.2
			C8.5,39.9,20.6,41.6,25.4,40.7L25.4,40.7z"/>
		<path class="st17" d="M25.4,40.1c1.9-0.3,1.7-3.8-0.4-4c-3.2,0-15.3,0.6-19.5,0.6c-2.4,0-2.2,2.6-0.4,2.9
			C8.3,39.6,20.6,41,25.4,40.1L25.4,40.1z"/>
		<path class="st18" d="M25,39.9c1.7-0.3,1.7-3.2-0.4-3.2C21.9,36.4,9.6,37,5.5,37c-2.2,0-1.9,2.3-0.4,2.3
			C8.3,39.3,20.4,40.7,25,39.9L25,39.9z"/>
		<path class="st19" d="M25,39.6c1.5,0,1.5-2.9-0.4-2.9C22.1,36.4,9.6,37,5.5,37c-1.9,0-1.9,2-0.4,2C8.1,39.3,20.4,40.1,25,39.6
			L25,39.6z"/>
		<path class="st20" d="M24.8,39.3c1.5,0,1.3-2.6-0.4-2.6c-2.2,0-14.9,0.3-19,0.3c-1.5,0-1.7,1.7-0.4,1.7
			C8.1,39,20.2,39.6,24.8,39.3z"/>
		<path class="st21" d="M24.8,39c1.3,0,1.1-2-0.6-2.3C22.4,36.7,9.4,37,5.5,37c-1.3,0-1.5,1.4-0.4,1.4C7.9,38.7,20.2,39.3,24.8,39z"
			/>
	</g>
	<path class="st27" d="M27.3,35.2c0,1.7-0.9,2.9-1.9,2.9H4c-1.1,0-1.9-1.4-1.9-2.9l0,0c0-1.7,0.9-2.9,1.9-2.9h21.4
		C26.3,32.4,27.3,33.8,27.3,35.2L27.3,35.2z"/>
	<path class="st28" d="M27.4,35.5c0,1.7-0.9,2.9-1.9,2.9H4.2c-1.1,0-1.9-1.4-1.9-2.9l0,0c0-1.7,0.9-2.9,1.9-2.9h21.4
		C26.7,32.6,27.4,34.1,27.4,35.5L27.4,35.5z"/>
</g>
</svg>
