<?xml version="1.0" encoding="utf-8"?>
<!-- Generator: Adobe Illustrator 27.0.1, SVG Export Plug-In . SVG Version: 6.00 Build 0)  -->
<svg version="1.1" id="Ebene_1" xmlns="http://www.w3.org/2000/svg" xmlns:xlink="http://www.w3.org/1999/xlink" x="0px" y="0px"
	 viewBox="0 0 47.9 47.9" style="enable-background:new 0 0 47.9 47.9;" xml:space="preserve">
<style type="text/css">
	.st0{fill:#FFFFFF;fill-opacity:0;}
	.st1{opacity:5.000000e-02;fill:#F9FBFB;enable-background:new    ;}
	.st2{opacity:0.1;fill:#F4F6F8;enable-background:new    ;}
	.st3{opacity:0.14;fill:#EEF2F4;enable-background:new    ;}
	.st4{opacity:0.19;fill:#E9EDF1;enable-background:new    ;}
	.st5{opacity:0.24;fill:#E3E9ED;enable-background:new    ;}
	.st6{opacity:0.29;fill:#DEE5EA;enable-background:new    ;}
	.st7{opacity:0.33;fill:#D8E0E6;enable-background:new    ;}
	.st8{opacity:0.38;fill:#D3DCE3;enable-background:new    ;}
	.st9{opacity:0.43;fill:#CDD8DF;enable-background:new    ;}
	.st10{opacity:0.48;fill:#C8D3DC;enable-background:new    ;}
	.st11{opacity:0.52;fill:#C2CFD8;enable-background:new    ;}
	.st12{opacity:0.57;fill:#BDCAD5;enable-background:new    ;}
	.st13{opacity:0.62;fill:#B7C6D1;enable-background:new    ;}
	.st14{opacity:0.67;fill:#B2C2CE;enable-background:new    ;}
	.st15{opacity:0.71;fill:#ACBDCA;enable-background:new    ;}
	.st16{opacity:0.76;fill:#A7B9C7;enable-background:new    ;}
	.st17{opacity:0.81;fill:#A1B5C3;enable-background:new    ;}
	.st18{opacity:0.86;fill:#9CB0C0;enable-background:new    ;}
	.st19{opacity:0.9;fill:#96ACBC;enable-background:new    ;}
	.st20{opacity:0.95;fill:#91A7B9;enable-background:new    ;}
	.st21{fill:#8BA3B5;}
	.st22{fill:#FFFFFF;}
	.st23{fill:#E4F1F5;}
	.st24{fill:#EEF7FA;}
</style>
<g id="Ebene_2_00000000922258872547012580000008730556991062451383_">
	<g id="Paper-Icons">
		<g>
			<g>
				<g>
					<path class="st0" d="M35.5,30.5c4-2.1,5-12,0.2-12.6c-7.9-1.5-25.6,1.2-31.1,1.5c-6.4,0.3-4.5,9.3-0.2,10.8
						C10.3,32.3,30.2,33.2,35.5,30.5L35.5,30.5z"/>
					<path class="st1" d="M35.3,29.9c4-1.8,4.8-11.4,0.2-12.3c-7.6-0.9-25.4,1.5-30.9,1.8c-6.2,0.3-4.3,9-0.2,10.5
						C10.3,31.7,30.2,32.6,35.3,29.9z"/>
					<path class="st2" d="M35.3,29.6c3.8-1.8,4.6-11.1,0-11.7c-7.4-0.9-25.3,1.5-30.8,1.5c-5.8,0.3-4.1,9-0.2,10.2
						C9.9,31.4,30,32.3,35.3,29.6z"/>
					<path class="st3" d="M35.2,29.3c3.6-1.8,4.5-10.5,0-11.1c-7-1.2-25.3,1.2-30.6,1.5c-5.7,0.3-4,8.4-0.2,9.6
						C9.9,31.1,30,31.7,35.2,29.3L35.2,29.3z"/>
					<path class="st4" d="M35,29c3.4-1.5,4.1-10.2,0-10.8c-6.7-0.9-25.1,1.2-30.4,1.5C-0.7,20,0.8,27.8,4.4,29
						C9.7,30.5,29.8,31.4,35,29z"/>
					<path class="st5" d="M35,28.7c3.4-1.5,4-9.6,0-10.2C28.5,17.7,9.7,19.7,4.6,20c-5.2,0.3-3.8,7.8-0.2,8.7
						C9.6,30.2,29.8,30.8,35,28.7L35,28.7z"/>
					<path class="st6" d="M34.8,28.1c3.3-1.5,3.8-9.3,0-9.9C28.5,17.7,9.7,19.7,4.6,20c-5,0.3-3.6,7.2-0.2,8.4
						C9.4,29.9,29.7,30.5,34.8,28.1L34.8,28.1z"/>
					<path class="st7" d="M34.7,27.8c3.1-1.2,3.6-8.7-0.2-9.3C28.6,18,9.6,20,4.6,20.3c-4.6,0.3-3.4,6.9-0.2,7.8
						C9.2,29.3,29.5,29.9,34.7,27.8z"/>
					<path class="st8" d="M34.5,27.5c2.9-1.2,3.4-8.4-0.2-8.7C28.8,18,9.6,20,4.6,20.3c-4.5,0.3-3.3,6.6-0.3,7.5
						C9,29,29.5,29.6,34.5,27.5z"/>
					<path class="st9" d="M34.5,27.2c2.9-0.9,3.3-7.8-0.2-8.4c-5.5-0.6-24.7,1.5-29.7,1.8c-4.1,0-3.1,6-0.3,6.9
						C8.9,28.7,29.3,29,34.5,27.2L34.5,27.2z"/>
					<path class="st10" d="M34.3,26.9c2.7-0.9,3.1-7.5-0.2-7.8C29,18.6,9.4,20.3,4.6,20.6c-4,0.3-2.9,5.7-0.2,6.6
						C8.9,28.1,29.3,28.4,34.3,26.9L34.3,26.9z"/>
					<path class="st11" d="M34.1,26.3c2.6-0.9,2.9-6.9-0.3-7.2c-4.6-0.6-24.4,1.5-29.2,1.8c-3.8,0.3-2.9,5.4-0.3,6
						C8.7,27.8,29.2,28.1,34.1,26.3L34.1,26.3z"/>
					<path class="st12" d="M34.1,26c2.4-0.6,2.6-6.3-0.3-6.6c-4.5-0.6-24.6,1.5-29.2,1.8c-3.4,0.3-2.7,5.1-0.3,5.7
						C8.5,27.5,29.2,27.5,34.1,26z"/>
					<path class="st13" d="M34,25.7c2.4-0.6,2.6-6-0.3-6.3c-4.3-0.3-24.4,1.5-29,1.8c-3.3,0-2.6,4.5-0.3,5.1
						C8.4,26.9,29,27.2,34,25.7z"/>
					<path class="st14" d="M33.8,25.4c2.2-0.6,2.2-5.7-0.3-5.7c-4-0.6-24.4,1.2-28.9,1.5c-2.9,0.3-2.4,4.2-0.3,4.8
						C8.2,26.6,29,26.6,33.8,25.4z"/>
					<path class="st15" d="M33.6,25.1c2.1-0.6,2.1-5.1-0.3-5.4C29.7,19.4,9,21.2,4.6,21.5c-2.7,0-2.2,3.9-0.3,4.2
						C8,26.3,28.8,26.3,33.6,25.1L33.6,25.1z"/>
					<path class="st16" d="M33.6,24.5c1.9-0.3,1.9-4.5-0.5-4.8C29.8,19.4,9,21.2,4.6,21.5c-2.6,0-2.2,3.6-0.3,3.9
						C7.8,25.7,28.8,25.7,33.6,24.5L33.6,24.5z"/>
					<path class="st17" d="M33.5,24.2c1.9-0.3,1.7-4.2-0.5-4.5c-3.1,0-24.1,1.8-28.4,1.8c-2.2,0-2.1,3-0.3,3.3
						C7.8,25.4,28.6,25.4,33.5,24.2z"/>
					<path class="st18" d="M33.3,23.9c1.7-0.3,1.5-3.9-0.5-3.9C30,20,8.7,21.5,4.6,21.8c-2.1,0-1.9,2.7-0.3,2.7
						C7.7,24.8,28.6,24.8,33.3,23.9L33.3,23.9z"/>
					<path class="st19" d="M33.1,23.6c1.5-0.3,1.4-3.3-0.5-3.3c-2.6,0-23.9,1.5-28,1.8c-1.9,0-1.9,2.4-0.3,2.4
						C7.5,24.5,28.5,24.2,33.1,23.6L33.1,23.6z"/>
					<path class="st20" d="M33.1,23.3c1.4-0.3,1.2-3-0.5-3c-2.2,0-23.9,1.5-27.8,1.8c-1.5,0-1.7,1.8-0.5,1.8
						C7.3,23.9,28.3,23.6,33.1,23.3z"/>
					<path class="st21" d="M32.9,23c1.4,0,1-2.4-0.7-2.4c-1.9,0-23.7,1.5-27.7,1.8c-1.4,0-1.5,1.5-0.5,1.5
						C7.2,23.6,28.3,23.3,32.9,23z"/>
				</g>
				<path class="st22" d="M35.3,18.6c0,1.8-0.9,3.6-1.9,3.6L3.2,23.6c-1,0-2.1-1.5-2.1-3.3l0,0c0-1.8,0.9-3.6,1.9-3.6l30.2-1.5
					C34.3,15.3,35.2,16.8,35.3,18.6L35.3,18.6z"/>
				<path class="st23" d="M35.5,18.8c0,1.8-0.9,3.6-1.9,3.6L3.4,23.9c-1,0-2.1-1.5-2.1-3.3l0,0c0-1.8,0.9-3.6,1.9-3.6l30.2-1.5
					C34.5,15.6,35.5,17.1,35.5,18.8L35.5,18.8z"/>
			</g>
			<g>
				<g>
					<path class="st0" d="M44.3,26.3c4-2.1,4.5-13.2-0.3-13.8c-8.1-1.2-25.6,1.2-31.3,1.5c-6.4,0.3-4.5,11.4-0.2,11.7
						C17.6,26,39,29,44.3,26.3L44.3,26.3z"/>
					<path class="st1" d="M44.1,26c4-1.8,4.3-12.6-0.3-13.2c-7.7-1.5-25.4,0.9-31.1,1.2c-6,0.3-4.3,11.1-0.2,11.1
						C17.5,25.4,38.8,28.4,44.1,26L44.1,26z"/>
					<path class="st2" d="M43.9,25.4c3.8-1.8,4.1-12-0.3-12.9c-7.4-0.9-25.4,1.5-30.9,1.8c-5.8,0.3-4.3,10.5-0.2,10.5
						C17.3,25.1,38.6,27.8,43.9,25.4z"/>
					<path class="st3" d="M43.8,25.1c3.6-1.8,4-11.7-0.3-12.3c-7.2-0.9-25.3,1.2-30.8,1.5c-5.5,0.3-4.1,10.2-0.2,10.2
						C17.3,24.8,38.6,27.5,43.8,25.1L43.8,25.1z"/>
					<path class="st4" d="M43.6,24.5c3.4-1.5,3.8-11.1-0.3-11.7C36.4,12,18,14.4,12.7,14.7c-5.3,0.3-4,9.6-0.2,9.6
						C17.1,24.5,38.4,26.9,43.6,24.5z"/>
					<path class="st5" d="M43.4,24.2c3.4-1.5,3.6-10.5-0.3-11.1c-6.5-0.9-25.1,1.2-30.2,1.5c-5.2,0.3-4,9-0.3,9.3
						C17.1,23.9,38.3,26.3,43.4,24.2L43.4,24.2z"/>
					<path class="st6" d="M43.2,23.9c3.3-1.5,3.4-10.2-0.5-10.5c-6-0.9-24.9,1.2-29.9,1.5c-5,0-3.8,8.4-0.3,8.7
						C17,23.6,38.3,26,43.2,23.9z"/>
					<path class="st7" d="M43.1,23.3c3.1-1.2,3.3-9.6-0.5-10.2c-5.8-0.6-24.7,1.5-29.9,1.8C8,15.3,9.2,23,12.3,23.3
						C16.8,23.3,38.1,25.4,43.1,23.3L43.1,23.3z"/>
					<path class="st8" d="M43.1,23c2.9-1.2,3.1-9-0.5-9.6c-5.7-0.6-24.9,1.5-29.7,1.8c-4.5,0-3.4,7.5-0.3,7.5
						C16.8,23,37.9,24.8,43.1,23z"/>
					<path class="st9" d="M42.9,22.4c2.9-0.9,2.9-8.7-0.5-9c-5.3-0.6-24.7,1.5-29.6,1.8c-4.3,0.3-3.4,7.2-0.5,7.2
						C16.6,22.7,37.7,24.5,42.9,22.4L42.9,22.4z"/>
					<path class="st10" d="M42.7,22.1c2.7-0.9,2.7-8.1-0.5-8.4c-5-0.6-24.6,1.5-29.4,1.8c-4,0-3.3,6.6-0.3,6.6
						C16.4,22.4,37.7,23.9,42.7,22.1z"/>
					<path class="st11" d="M42.6,21.8c2.6-0.9,2.6-7.5-0.5-8.1c-4.8-0.3-24.6,1.5-29.2,1.8c-3.8,0.3-3.1,6.3-0.3,6.3
						C16.4,21.8,37.6,23.3,42.6,21.8L42.6,21.8z"/>
					<path class="st12" d="M42.4,21.2c2.6-0.9,2.4-6.9-0.5-7.2c-4.5-0.6-24.6,1.5-29.2,1.8c-3.4,0.3-2.9,5.7-0.3,5.7
						C16.3,21.5,37.4,22.7,42.4,21.2L42.4,21.2z"/>
					<path class="st13" d="M42.2,20.9c2.4-0.6,2.2-6.6-0.5-6.9c-4.1-0.3-24.4,1.5-28.9,1.8c-3.3,0-2.7,5.4-0.5,5.4
						C16.1,21.2,37.4,22.4,42.2,20.9z"/>
					<path class="st14" d="M42,20.6c2.2-0.6,2.2-6-0.5-6.3c-3.8-0.3-24.2,1.5-28.7,1.5c-3.1,0.3-2.6,5.1-0.5,5.1
						C16.1,20.9,37.2,21.8,42,20.6L42,20.6z"/>
					<path class="st15" d="M42,20c2.1-0.6,2.1-5.4-0.5-5.7c-3.8-0.3-24.4,1.5-28.7,1.8c-2.7,0-2.4,4.5-0.3,4.5
						C15.9,20.3,37.2,21.2,42,20z"/>
					<path class="st16" d="M41.9,19.7c1.9-0.6,1.9-5.1-0.5-5.1c-3.4-0.3-24.2,1.5-28.5,1.8c-2.6,0-2.2,3.9-0.3,3.9
						C15.9,20,37.1,20.9,41.9,19.7z"/>
					<path class="st17" d="M41.7,19.1c1.9-0.3,1.7-4.5-0.5-4.5c-3.1-0.3-24.1,1.5-28.4,1.8c-2.4,0-2.2,3.3-0.5,3.3
						C15.8,19.7,36.9,20.3,41.7,19.1L41.7,19.1z"/>
					<path class="st18" d="M41.5,18.8c1.7-0.3,1.5-3.9-0.5-4.2c-2.7,0-24.1,1.5-28.2,1.8c-2.1,0.3-2.1,3-0.5,3
						C15.6,19.4,36.7,19.7,41.5,18.8L41.5,18.8z"/>
					<path class="st19" d="M41.4,18.6c1.5-0.3,1.4-3.6-0.5-3.6c-2.6,0-23.9,1.5-28,1.8c-1.9,0-1.9,2.4-0.5,2.4
						C15.6,19.1,36.7,19.1,41.4,18.6L41.4,18.6z"/>
					<path class="st20" d="M41.2,18c1.4-0.3,1.2-3-0.5-3c-2.2,0-23.9,1.5-27.8,1.8c-1.5,0-1.7,2.1-0.5,2.1
						C15.4,18.6,36.5,18.6,41.2,18z"/>
					<path class="st21" d="M41,17.7c1.4,0,1-2.4-0.7-2.4c-1.7,0-23.5,1.5-27.5,1.8c-1.4,0-1.5,1.5-0.5,1.5
						C15.2,18.3,36.4,18,41,17.7z"/>
				</g>
				<path class="st22" d="M43.4,13.2c0,2.1-0.9,3.6-1.9,3.6l-30.2,1.5c-1,0-2.1-1.5-2.1-3.3l0,0c0-1.8,0.9-3.6,1.9-3.6l30.2-1.5
					C42.6,9.9,43.4,11.4,43.4,13.2L43.4,13.2z"/>
				<path class="st24" d="M43.6,13.8c0,1.8-0.9,3.6-1.9,3.6l-30.1,1.5c-1,0-2.1-1.5-2.1-3.3l0,0c0-1.8,0.9-3.6,1.9-3.6l30.2-1.5
					C42.7,10.2,43.6,11.7,43.6,13.8L43.6,13.8z"/>
			</g>
			<g>
				<g>
					<path class="st0" d="M29.7,15c3.1-2.1,3.3-11.1-0.5-12c-6.2-1.2-12.7,0.6-17,0.9c-5,0-3.3,9.9,0.2,10.2
						C16.3,14.4,25.5,17.4,29.7,15L29.7,15z"/>
					<path class="st1" d="M29.5,14.7c2.9-1.8,3.1-10.8-0.5-11.4c-5.8-1.5-12.7,0.3-16.8,0.6c-4.8,0.3-3.1,9.6,0.2,9.9
						C16.1,14.1,25.4,17.1,29.5,14.7L29.5,14.7z"/>
					<path class="st2" d="M29.3,14.4c2.9-1.8,2.9-10.5-0.5-11.1C23.1,2.1,16.3,3.9,12,4.2c-4.5,0-2.9,9,0.2,9.3
						C16.1,13.8,25.4,16.8,29.3,14.4L29.3,14.4z"/>
					<path class="st3" d="M29.2,13.8c2.7-1.5,2.9-9.9-0.5-10.5C23.1,2.1,16.1,3.9,12,4.2c-4.3,0.3-2.9,9,0,9
						C15.9,13.5,25.2,16.2,29.2,13.8L29.2,13.8z"/>
					<path class="st4" d="M29.2,13.5c2.7-1.5,2.7-9.6-0.5-10.2c-5.2-1.2-12.5,0.6-16.5,0.9c-4.1,0.3-2.7,8.4,0,8.7
						C15.8,13.2,25.2,15.9,29.2,13.5L29.2,13.5z"/>
					<path class="st5" d="M29,13.2c2.6-1.5,2.6-9-0.5-9.6c-5-0.9-12.4,0.6-16.3,0.9s-2.7,8.1,0,8.4C15.8,12.9,25,15.3,29,13.2
						L29,13.2z"/>
					<path class="st6" d="M28.8,12.9c2.6-1.2,2.6-8.7-0.3-9.3c-4.8-0.9-12.4,0.6-16.3,0.9c-3.8,0.3-2.6,7.8,0,7.8
						C15.6,12.6,25,15,28.8,12.9L28.8,12.9z"/>
					<path class="st7" d="M28.8,12.6c2.4-1.2,2.4-8.4-0.5-8.7C23.7,3,15.9,4.5,12.1,4.8c-3.6,0-2.6,7.2,0,7.2
						C15.4,12.3,24.9,14.7,28.8,12.6z"/>
					<path class="st8" d="M28.6,12.3c2.2-1.2,2.2-7.8-0.5-8.4c-4.3-0.6-12.2,0.9-16,0.9c-3.4,0.3-2.4,6.9,0,6.9
						C15.4,12,24.7,14.1,28.6,12.3L28.6,12.3z"/>
					<path class="st9" d="M28.5,12c2.2-0.9,2.2-7.5-0.5-7.8c-4-0.9-12,0.6-15.8,0.9c-3.3,0.3-2.2,6.6,0,6.6
						C15.4,11.7,24.7,13.8,28.5,12L28.5,12z"/>
					<path class="st10" d="M28.5,11.7c2.1-0.9,1.9-7.2-0.5-7.5c-4-0.6-12,0.6-15.8,0.9c-3.1,0.3-2.2,6,0,6.3
						C15.2,11.4,24.5,13.2,28.5,11.7z"/>
					<path class="st11" d="M28.3,11.4c2.1-0.9,1.9-6.6-0.5-6.9c-3.6-0.6-12,0.6-15.6,0.9c-2.9,0-2.1,5.4-0.2,5.7
						C15.1,11.1,24.5,12.9,28.3,11.4L28.3,11.4z"/>
					<path class="st12" d="M28.1,11.1c1.9-0.9,1.9-6.3-0.5-6.6c-3.4-0.6-11.9,0.9-15.5,0.9c-2.7,0-2.1,5.1-0.2,5.4
						C15.1,10.8,24.3,12.3,28.1,11.1L28.1,11.1z"/>
					<path class="st13" d="M28,10.5c1.9-0.6,1.7-5.7-0.5-6C24.2,3.9,15.6,5.4,12,5.4c-2.6,0-1.9,4.8-0.2,4.8
						C14.9,10.5,24.2,12,28,10.5z"/>
					<path class="st14" d="M28,10.2c1.7-0.6,1.5-5.4-0.5-5.7c-3.1-0.3-11.9,0.9-15.3,0.9c-2.2,0-1.9,4.5-0.2,4.5
						C14.7,10.2,24.2,11.7,28,10.2z"/>
					<path class="st15" d="M27.8,9.9c1.5-0.6,1.5-4.8-0.5-5.1c-2.7-0.3-11.7,0.9-15.1,0.9c-2.1,0-1.7,3.9-0.2,3.9
						C14.7,9.9,24,11.1,27.8,9.9z"/>
					<path class="st16" d="M27.6,9.6c1.5-0.3,1.4-4.5-0.5-4.8c-2.6,0-11.5,0.9-15,1.2c-1.9,0-1.7,3.6-0.2,3.6
						C14.5,9.6,24,10.8,27.6,9.6z"/>
					<path class="st17" d="M27.6,9.3C29,9,28.8,5.1,27.1,5.1C24.7,4.8,15.4,6,12.1,6c-1.7,0-1.5,3.3-0.2,3.3
						C14.5,9.3,23.8,10.2,27.6,9.3z"/>
					<path class="st18" d="M27.4,9c1.4-0.3,1-3.6-0.5-3.9C24.9,4.8,15.4,6,12.1,6c-1.5,0.3-1.4,3-0.2,3C14.4,9,23.8,9.9,27.4,9
						L27.4,9z"/>
					<path class="st19" d="M27.3,8.7c1.2-0.3,1-3.3-0.5-3.3c-1.9,0-11.5,0.9-14.6,1.2c-1.4,0-1.4,2.1-0.2,2.1
						C14.4,8.7,23.7,9.3,27.3,8.7z"/>
					<path class="st20" d="M27.1,8.4c1,0,0.9-2.7-0.5-3c-1.7,0-11.3,0.9-14.4,0.9c-1.2,0-1.4,2.1-0.3,1.8
						C14.2,8.4,23.7,8.7,27.1,8.4L27.1,8.4z"/>
					<path class="st21" d="M27.1,8.1c1,0,0.7-2.4-0.5-2.4c-1.5,0-11.3,0.9-14.4,1.2c-1,0-1.2,1.5-0.3,1.5C14,8.1,23.5,8.4,27.1,8.1z
						"/>
				</g>
				<path class="st22" d="M28.1,3.9c0,1.8-0.9,3.6-1.9,3.6L10.4,8.1c-1,0-1.9-1.5-1.9-3.3l0,0c0-1.8,0.9-3.6,1.9-3.6l15.8-0.6
					C27.3,0.3,28.1,1.8,28.1,3.9L28.1,3.9z"/>
				<path class="st23" d="M28.5,4.2c0,1.8-0.9,3.6-1.9,3.6L10.8,8.4c-1,0-2.1-1.5-2.1-3.3l0,0c0-1.8,0.9-3.6,1.9-3.6l15.8-0.9
					C27.4,0.9,28.5,2.4,28.5,4.2L28.5,4.2z"/>
			</g>
			<g>
				<g>
					<path class="st0" d="M36,19.7c3.1-2.1,3.6-11.7-0.2-12.3c-6-1.2-12.7,0.6-17,0.9C14,8.7,15.2,18,18.5,18.8
						C22.6,20,31.9,22.4,36,19.7L36,19.7z"/>
					<path class="st1" d="M35.9,19.4c2.9-1.8,3.4-11.1-0.2-11.7C29.8,6.6,23,8.4,18.8,8.7c-4.6,0.3-3.4,9-0.3,10.2
						C22.5,19.7,31.7,21.8,35.9,19.4z"/>
					<path class="st2" d="M35.9,19.1c2.9-1.8,3.3-10.8-0.2-11.4C30,6.6,23.1,8.4,18.8,8.7c-4.5,0.3-3.3,8.7-0.3,9.6
						C22.5,19.4,31.7,21.5,35.9,19.1z"/>
					<path class="st3" d="M35.7,18.8c2.7-1.5,3.3-10.2-0.2-10.8C30,6.9,23,8.7,18.8,9c-4.3,0.3-3.3,8.4-0.3,9.3
						C22.3,18.8,31.7,21.2,35.7,18.8z"/>
					<path class="st4" d="M35.5,18.6c2.7-1.5,3.1-9.9-0.2-10.5C30.2,6.9,22.8,8.7,18.8,9c-4.1,0-3.1,7.8-0.2,8.7
						C22.3,18.6,31.6,20.6,35.5,18.6z"/>
					<path class="st5" d="M35.5,18.3c2.6-1.5,2.9-9.3-0.2-9.9C30.4,7.5,23,9,19,9.3c-4.1,0-3.1,7.2-0.5,8.1
						C22.1,18.3,31.6,20.3,35.5,18.3L35.5,18.3z"/>
					<path class="st6" d="M35.3,17.7c2.6-1.2,2.7-9-0.2-9.6C30.4,7.2,22.8,8.7,18.8,9c-3.8,0.3-2.9,7.5-0.3,8.1
						C22.1,18,31.4,19.7,35.3,17.7L35.3,17.7z"/>
					<path class="st7" d="M35.3,17.4c2.4-1.2,2.6-8.4-0.2-9C30.7,7.5,23,9,19,9.3c-3.8,0.3-2.9,6.9-0.3,7.5
						C22.1,17.7,31.4,19.4,35.3,17.4z"/>
					<path class="st8" d="M35.2,17.1c2.2-1.2,2.6-8.1-0.2-8.7C30.7,7.5,22.8,9,19,9.3c-3.4,0.3-2.6,6.6-0.3,7.2
						C21.9,17.4,31.2,18.8,35.2,17.1z"/>
					<path class="st9" d="M35,16.8c2.2-0.9,2.4-7.5-0.3-8.1c-4.1-0.6-12.2,0.6-15.8,0.9c-3.3,0.3-2.6,6-0.3,6.6
						C21.8,17.1,31.2,18.6,35,16.8z"/>
					<path class="st10" d="M35,16.5c2.1-0.9,2.2-7.2-0.3-7.5c-4-0.6-12,0.6-15.8,0.9c-3.1,0.3-2.4,5.7-0.3,6.3
						C21.8,16.5,31,18,35,16.5z"/>
					<path class="st11" d="M34.8,16.2c2.1-0.9,2.1-6.9-0.3-7.2c-3.6-0.6-12,0.6-15.6,0.9c-2.9,0-2.2,5.4-0.3,5.7
						C21.8,16.2,31,17.7,34.8,16.2z"/>
					<path class="st12" d="M34.7,15.6c1.9-0.9,1.9-6.3-0.3-6.6c-3.4-0.6-11.9,0.9-15.5,0.9c-2.7,0-2.2,5.1-0.3,5.4
						C21.6,15.9,31,17.1,34.7,15.6L34.7,15.6z"/>
					<path class="st13" d="M34.7,15.3c1.9-0.6,1.9-6-0.3-6.3C31,8.4,22.5,9.9,18.8,9.9c-2.6,0-2.1,4.5-0.3,4.8
						C21.6,15.6,30.9,16.8,34.7,15.3L34.7,15.3z"/>
					<path class="st14" d="M34.5,15c1.7-0.6,1.7-5.4-0.3-5.7C31,9,22.3,10.2,18.8,10.2c-2.2,0-1.9,4.2-0.3,4.5
						C21.4,15.3,30.9,16.2,34.5,15L34.5,15z"/>
					<path class="st15" d="M34.5,14.7c1.5-0.6,1.5-5.1-0.3-5.4C31.4,9,22.5,10.2,19,10.2c-2.1,0-1.9,3.9-0.3,4.2
						C21.4,15,30.7,15.9,34.5,14.7L34.5,14.7z"/>
					<path class="st16" d="M34.3,14.4c1.5-0.3,1.4-4.5-0.3-4.8c-2.6-0.3-11.7,0.9-15,0.9c-1.9,0-1.7,3.6-0.3,3.6
						C21.3,14.4,30.7,15.3,34.3,14.4L34.3,14.4z"/>
					<path class="st17" d="M34.1,14.1c1.4-0.3,1.4-4.2-0.3-4.2c-2.4-0.3-11.7,0.6-15,0.9c-1.7,0-1.7,3-0.3,3.3
						C21.3,14.1,30.5,15,34.1,14.1L34.1,14.1z"/>
					<path class="st18" d="M34.1,13.8c1.4-0.3,1.2-3.6-0.3-3.9c-2.2-0.3-11.7,0.9-14.8,0.9c-1.5,0-1.5,2.7-0.3,2.7
						C21.1,13.8,30.5,14.4,34.1,13.8z"/>
					<path class="st19" d="M34,13.2c1.2-0.3,1-3.3-0.5-3.3c-1.9,0-11.5,0.9-14.6,1.2c-1.4,0-1.4,2.4-0.3,2.4
						C21.1,13.5,30.4,13.8,34,13.2L34,13.2z"/>
					<path class="st20" d="M34,12.9c1,0,0.9-3-0.5-3c-1.7,0-11.3,0.9-14.4,0.9c-1.2,0-1.4,1.8-0.3,1.8C20.9,12.9,30.4,13.5,34,12.9z
						"/>
					<path class="st21" d="M33.8,12.6c1,0,0.7-2.4-0.5-2.4c-1.5,0-11.3,0.9-14.4,1.2c-1,0-1.2,1.5-0.3,1.5
						C20.9,12.6,30.2,12.9,33.8,12.6z"/>
				</g>
				<path class="st22" d="M35.2,8.7c0,1.8-0.9,3.6-1.9,3.6l-15.8,0.9c-1,0-2.1-1.5-2.1-3.3l0,0c0-1.8,0.9-3.6,1.9-3.6l15.8-0.9
					C34.3,5.4,35.2,6.9,35.2,8.7L35.2,8.7z"/>
			</g>
			<g>
				<g>
					<path class="st0" d="M38.3,46.1c4-2.1,4.8-11.7,0-12.6c-7.9-1.2-16.5,0.9-22.2,1.2c-6.4,0.3-4.3,10.5,0,10.8
						C21.3,45.8,32.9,48.8,38.3,46.1L38.3,46.1z"/>
					<path class="st1" d="M38.1,45.8c4-1.8,4.6-11.4,0-12c-7.6-1.2-16.5,0.9-22,1.2c-6.2,0.3-4.1,10.2,0,10.2
						C21.3,45.5,32.8,48.5,38.1,45.8z"/>
					<path class="st2" d="M37.9,45.5c3.8-1.8,4.5-10.8,0-11.4c-7.4-1.2-16.3,0.9-21.8,1.2c-5.8,0.3-4,9.6,0,9.9
						C21.1,45.2,32.8,47.9,37.9,45.5z"/>
					<path class="st3" d="M37.9,45.2c3.6-1.8,4.3-10.5-0.2-11.1c-7-0.9-16.3,0.9-21.7,1.2c-5.7,0.3-3.8,9.3,0,9.3
						C20.9,44.9,32.6,47.6,37.9,45.2L37.9,45.2z"/>
					<path class="st4" d="M37.7,44.9c3.4-1.5,4.1-9.9-0.2-10.5c-6.7-0.9-16.2,0.9-21.5,1.2s-3.8,8.7,0,9
						C20.7,44.6,32.6,47,37.7,44.9L37.7,44.9z"/>
					<path class="st5" d="M37.6,44.3c3.4-1.5,4-9.6-0.2-10.2c-6.5-0.9-16.2,0.9-21.3,1.2c-5.2,0.3-3.6,8.4,0,8.7
						C20.7,44.3,32.4,46.7,37.6,44.3L37.6,44.3z"/>
					<path class="st6" d="M37.4,44c3.3-1.5,3.8-9-0.2-9.6c-6.2-0.9-16,0.9-21.1,1.2c-5,0.3-3.4,8.1,0,8.1C20.6,44,32.4,46.1,37.4,44
						L37.4,44z"/>
					<path class="st7" d="M37.4,43.7c3.1-1.2,3.6-8.7-0.2-9c-5.8-0.9-16,0.9-21,1.2c-4.6,0.3-3.3,7.5-0.2,7.8
						C20.4,43.7,32.2,45.8,37.4,43.7z"/>
					<path class="st8" d="M37.2,43.4c2.9-1.2,3.4-8.1-0.2-8.7c-5.7-0.6-16,0.9-21,1.2c-4.5,0.3-3.3,7.2-0.2,7.2
						C20.2,43.4,32.1,45.5,37.2,43.4L37.2,43.4z"/>
					<path class="st9" d="M37.1,43.1c2.9-0.9,3.1-7.8-0.3-8.1c-5.3-0.6-15.8,0.9-20.6,1.2c-4.1,0.3-3.1,6.6-0.2,6.9
						C20.2,42.8,32.1,44.9,37.1,43.1z"/>
					<path class="st10" d="M36.9,42.8c2.7-0.9,2.9-7.2-0.3-7.8c-5-0.6-15.6,0.9-20.4,1.2c-4,0.3-2.9,6.3-0.2,6.3
						C20,42.5,31.9,44.3,36.9,42.8z"/>
					<path class="st11" d="M36.9,42.5c2.6-0.9,2.7-6.9-0.3-7.2c-4.8-0.6-15.6,0.9-20.3,1.2c-3.8,0.3-2.9,5.7-0.2,6
						C19.9,42.2,31.9,44,36.9,42.5L36.9,42.5z"/>
					<path class="st12" d="M36.7,41.9c2.6-0.9,2.6-6.3-0.3-6.6c-4.5-0.6-15.5,0.9-20.3,1.2c-3.4,0.3-2.7,5.4-0.2,5.4
						C19.9,41.9,31.7,43.4,36.7,41.9z"/>
					<path class="st13" d="M36.5,41.6c2.4-0.6,2.4-6-0.3-6.3c-4.1-0.3-15.5,0.9-20.1,1.2c-3.3,0.3-2.6,5.1-0.2,5.1
						C19.7,41.6,31.7,43.1,36.5,41.6L36.5,41.6z"/>
					<path class="st14" d="M36.4,41.3c2.2-0.6,2.2-5.4-0.3-5.7c-4-0.3-15.5,0.9-19.9,1.2c-3.1,0.3-2.4,4.5-0.3,4.5
						C19.5,41.3,31.6,42.5,36.4,41.3L36.4,41.3z"/>
					<path class="st15" d="M36.2,41c2.1-0.6,2.1-5.1-0.5-5.4c-3.6-0.3-15.3,0.9-19.8,1.2c-2.7,0-2.2,4.2-0.3,4.2
						C19.4,41,31.4,42.2,36.2,41L36.2,41z"/>
					<path class="st16" d="M36.2,40.7c1.9-0.6,1.9-4.5-0.5-4.8c-3.4-0.3-15.3,0.9-19.6,1.2c-2.6,0-2.1,3.6-0.2,3.6
						C19.4,40.7,31.4,41.6,36.2,40.7L36.2,40.7z"/>
					<path class="st17" d="M36,40.4c1.9-0.3,1.7-4.2-0.5-4.2c-3.1-0.3-15.1,0.9-19.4,1.2c-2.2,0-2.1,3.3-0.3,3.3
						C19.2,40.4,31.2,41.3,36,40.4L36,40.4z"/>
					<path class="st18" d="M35.9,39.8c1.7-0.3,1.5-3.9-0.5-3.9c-2.7,0-15.1,0.9-19.2,1.2c-2.1,0-1.9,3-0.3,2.7
						C19,40.1,31.2,40.7,35.9,39.8L35.9,39.8z"/>
					<path class="st19" d="M35.7,39.5c1.5-0.3,1.4-3.3-0.5-3.3c-2.6,0-15,0.9-19.1,1.2c-1.9,0-1.9,2.4-0.3,2.4
						C18.8,39.8,31,40.1,35.7,39.5L35.7,39.5z"/>
					<path class="st20" d="M35.7,39.2c1.4-0.3,1.2-3-0.5-3c-2.2,0-15,1.2-18.9,1.2c-1.5,0-1.7,2.1-0.5,1.8
						C18.8,39.5,30.9,39.8,35.7,39.2z"/>
					<path class="st21" d="M35.5,38.9c1.4,0,1-2.4-0.7-2.4c-1.9,0-14.8,1.2-18.7,1.2c-1.4,0-1.5,1.5-0.5,1.5
						C18.7,39.2,30.9,39.2,35.5,38.9z"/>
				</g>
				<path class="st22" d="M37.7,34.4c0,1.8-0.9,3.6-1.9,3.6l-21.1,1.2c-1,0-2.1-1.5-2.1-3.3l0,0c0-1.8,0.9-3.6,1.9-3.6l21.3-1.2
					C36.9,31.1,37.7,32.6,37.7,34.4L37.7,34.4z"/>
				<path class="st23" d="M38.1,35c0,1.8-0.9,3.6-1.9,3.6l-21.3,0.9c-1,0-2.1-1.5-2.1-3.3l0,0c0-1.8,0.9-3.6,1.9-3.6L36,31.7
					C37.1,31.4,38.1,32.9,38.1,35L38.1,35z"/>
			</g>
		</g>
	</g>
</g>
</svg>
