<?xml version="1.0" encoding="utf-8"?>
<!-- Generator: Adobe Illustrator 27.0.1, SVG Export Plug-In . SVG Version: 6.00 Build 0)  -->
<svg version="1.1" id="Ebene_1" xmlns="http://www.w3.org/2000/svg" xmlns:xlink="http://www.w3.org/1999/xlink" x="0px" y="0px"
	 viewBox="0 0 27.3 19" style="enable-background:new 0 0 27.3 19;" xml:space="preserve">
<style type="text/css">
	.st0{fill:#FFFFFF;fill-opacity:0;}
	.st1{opacity:5.000000e-02;fill:#F9FBFB;enable-background:new    ;}
	.st2{opacity:0.1;fill:#F4F6F8;enable-background:new    ;}
	.st3{opacity:0.14;fill:#EEF2F4;enable-background:new    ;}
	.st4{opacity:0.19;fill:#E9EDF1;enable-background:new    ;}
	.st5{opacity:0.24;fill:#E3E9ED;enable-background:new    ;}
	.st6{opacity:0.29;fill:#DEE5EA;enable-background:new    ;}
	.st7{opacity:0.33;fill:#D8E0E6;enable-background:new    ;}
	.st8{opacity:0.38;fill:#D3DCE3;enable-background:new    ;}
	.st9{opacity:0.43;fill:#CDD8DF;enable-background:new    ;}
	.st10{opacity:0.48;fill:#C8D3DC;enable-background:new    ;}
	.st11{opacity:0.52;fill:#C2CFD8;enable-background:new    ;}
	.st12{opacity:0.57;fill:#BDCAD5;enable-background:new    ;}
	.st13{opacity:0.62;fill:#B7C6D1;enable-background:new    ;}
	.st14{opacity:0.67;fill:#B2C2CE;enable-background:new    ;}
	.st15{opacity:0.71;fill:#ACBDCA;enable-background:new    ;}
	.st16{opacity:0.76;fill:#A7B9C7;enable-background:new    ;}
	.st17{opacity:0.81;fill:#A1B5C3;enable-background:new    ;}
	.st18{opacity:0.86;fill:#9CB0C0;enable-background:new    ;}
	.st19{opacity:0.9;fill:#96ACBC;enable-background:new    ;}
	.st20{opacity:0.95;fill:#91A7B9;enable-background:new    ;}
	.st21{fill:#8BA3B5;}
	.st22{fill:#008DD4;}
	.st23{fill:url(#SVGID_1_);}
	.st24{fill:#4FC5FF;}
	.st25{fill:url(#SVGID_00000173120502642956066400000001669467361948850065_);}
	.st26{fill:url(#SVGID_00000066483100898474382870000007248343392205277113_);}
	.st27{fill:#63CCFF;}
	.st28{fill:#007FC9;}
	.st29{fill:#6ED8FF;}
	.st30{fill:#008CDE;}
	.st31{fill:#B3EDFF;}
	.st32{fill:#61D7FF;}
</style>
<g>
	<g id="Ebene_2_00000075127772400973149010000009780603634635151764_">
		<g id="_ŽÓť_4">
			<g>
				<g>
					<g>
						<path class="st0" d="M26.6,14.3c2.1-2.1,2-3.8,1.3-5.7c-0.5-1.4-0.8-2.3-1.7-3.6c-0.8-1.1-2.5-2.6-5-3C18.8,1.7,13,5.7,11,6.3
							C8.8,6.9,6.2,8.4,3.4,9.5c-1.4,0.6-3.5,2.4-3.6,3.4c-0.1,1.6,0.5,2.2,1.1,2.8s2.1,1.7,3,2.1c0.8,0.4,2.9,1,3.6,1
							c1.6,0.2,2.1-0.3,3.4-0.2c1.6,0.2,2.2,0.3,2.9,0.3c0.7,0,1.2-0.2,1.6-0.2c0.5,0,2,0.4,2.7,0.2c1.7-0.4,1.3-0.5,2.2-0.8
							C22.2,17.6,24.9,16,26.6,14.3L26.6,14.3z"/>
						<path class="st1" d="M26.4,14.2c2.1-2,2-3.7,1.3-5.5c-0.5-1.3-0.8-2.2-1.7-3.5c-0.8-1.1-2.4-2.6-4.9-3C18.6,1.9,13,5.8,11,6.4
							C8.8,7,6.3,8.5,3.6,9.6c-1.4,0.6-3.6,2.3-3.6,3.3c0,1.5,0.5,2.1,1.2,2.7c0.7,0.6,2.1,1.7,2.9,2.1c0.8,0.4,2.8,0.9,3.6,1
							c1.5,0.2,2.1-0.2,3.3-0.1c1.6,0.2,2.1,0.3,2.9,0.2c0.7,0,1.2-0.1,1.6-0.1c0.6,0,2,0.3,2.7,0.2c1.7-0.3,1.3-0.5,2.2-0.8
							C22.2,17.4,24.7,15.9,26.4,14.2L26.4,14.2z"/>
						<path class="st2" d="M26.1,14.1c2-1.9,1.9-3.6,1.2-5.3c-0.5-1.3-0.8-2.2-1.7-3.4c-0.8-1.1-2.3-2.5-4.8-3C18.5,2,13,5.9,11,6.5
							C8.9,7,6.4,8.5,3.8,9.6C2.4,10.2,0,11.8,0,12.8c0,1.5,0.5,2,1.2,2.6c0.7,0.6,2.1,1.7,2.9,2c0.9,0.4,2.8,0.8,3.5,0.9
							c1.5,0.1,2.1-0.2,3.3-0.1c1.6,0.2,2.1,0.2,2.8,0.2c0.6,0,1.2-0.1,1.6-0.1c0.6,0,2,0.3,2.6,0.1c1.6-0.3,1.3-0.5,2.2-0.8
							C22,17.1,24.5,15.7,26.1,14.1L26.1,14.1z"/>
						<path class="st3" d="M25.9,14c2-1.8,1.9-3.5,1.2-5.2c-0.5-1.3-0.9-2.1-1.7-3.3c-0.8-1.1-2.2-2.5-4.7-3C18.3,2.2,13,6,11,6.6
							C8.9,7.1,6.5,8.6,3.9,9.7c-1.3,0.5-3.9,2.1-3.8,3.1c0,1.4,0.6,1.9,1.3,2.5c0.7,0.6,2,1.7,2.9,2c0.9,0.4,2.7,0.7,3.4,0.8
							c1.5,0.1,2.1-0.1,3.3,0c1.6,0.1,2.1,0.2,2.8,0.2c0.6,0,1.1-0.1,1.6-0.1c0.6,0,2,0.2,2.6,0.1c1.6-0.3,1.3-0.4,2.2-0.7
							C22,16.9,24.3,15.6,25.9,14L25.9,14z"/>
						<path class="st4" d="M25.7,13.9c1.9-1.8,1.8-3.4,1.1-5c-0.5-1.3-0.9-2-1.7-3.2c-0.8-1-2.1-2.4-4.5-3C18.2,2.3,13,6.1,11,6.6
							C8.9,7.2,6.7,8.7,4.1,9.7c-1.3,0.5-4,2-3.9,3c0,1.4,0.6,1.9,1.3,2.4c0.7,0.6,2,1.6,2.8,1.9c0.9,0.3,2.6,0.6,3.4,0.7
							c1.5,0.1,2.1,0,3.3,0.1c1.6,0.1,2,0.2,2.7,0.1c0.6,0,1.1-0.1,1.6-0.1c0.7,0,2,0.2,2.6,0c1.5-0.3,1.3-0.4,2.2-0.7
							C21.9,16.7,24.1,15.4,25.7,13.9L25.7,13.9z"/>
						<path class="st5" d="M25.4,13.9c1.8-1.7,1.8-3.3,1.1-4.8c-0.5-1.2-0.9-2-1.8-3.1c-0.8-1-2-2.4-4.4-3C18,2.4,12.9,6.2,11,6.7
							C8.9,7.3,6.8,8.8,4.3,9.8c-1.3,0.5-4.1,1.9-4,2.9c0.1,1.3,0.6,1.8,1.3,2.3c0.7,0.6,2,1.6,2.8,1.9c0.9,0.3,2.5,0.5,3.3,0.6
							c1.5,0.1,2,0,3.3,0.1c1.6,0.1,2,0.1,2.7,0.1c0.6,0,1.1,0,1.6,0c0.7,0,1.9,0.1,2.5,0c1.5-0.3,1.2-0.4,2.2-0.7
							C21.8,16.5,23.8,15.3,25.4,13.9L25.4,13.9z"/>
						<path class="st6" d="M25.2,13.8c1.8-1.6,1.7-3.1,1-4.6c-0.6-1.2-1-1.9-1.8-3c-0.7-1-1.9-2.4-4.3-3c-2.3-0.6-7.2,3.1-9.1,3.7
							C9,7.4,6.9,8.9,4.5,9.9c-1.2,0.5-4.2,1.7-4.1,2.8C0.4,14,1,14.4,1.7,14.9c0.7,0.6,2,1.6,2.8,1.8c1,0.3,2.5,0.4,3.3,0.5
							c1.5,0.1,2,0.1,3.2,0.2c1.6,0.1,1.9,0.1,2.7,0.1c0.6,0,1.1,0,1.6,0c0.7,0,1.9,0.1,2.5,0c1.5-0.3,1.2-0.3,2.2-0.6
							C21.7,16.3,23.6,15.1,25.2,13.8L25.2,13.8z"/>
						<path class="st7" d="M24.9,13.7c1.7-1.5,1.7-3,1-4.5c-0.6-1.2-1-1.9-1.8-2.9c-0.7-1-1.8-2.3-4.2-3c-2.2-0.6-7,3-8.9,3.6
							C9,7.5,7,9,4.7,9.9c-1.2,0.5-4.3,1.6-4.2,2.8c0.1,1.2,0.7,1.6,1.4,2.1c0.7,0.6,1.9,1.6,2.7,1.8c1,0.3,2.4,0.3,3.2,0.4
							c1.4,0.1,2,0.2,3.2,0.2c1.6,0.1,1.9,0.1,2.6,0.1c0.6,0,1,0,1.6,0c0.8,0,1.9,0,2.5-0.1c1.4-0.3,1.2-0.3,2.2-0.6
							C21.6,16.1,23.4,15,24.9,13.7L24.9,13.7z"/>
						<path class="st8" d="M24.7,13.6c1.7-1.4,1.6-2.9,0.9-4.3c-0.6-1.1-1-1.8-1.8-2.8c-0.7-0.9-1.7-2.3-4.1-3
							c-2.2-0.7-6.8,3-8.7,3.5c-2,0.6-3.9,2.1-6.2,3c-1.2,0.5-4.4,1.5-4.3,2.7c0.1,1.1,0.8,1.5,1.5,2c0.7,0.6,1.9,1.5,2.7,1.7
							c1,0.3,2.3,0.2,3.1,0.3c1.4,0.1,2,0.2,3.2,0.3c1.6,0.1,1.9,0,2.6,0c0.6,0,1,0,1.6,0c0.8,0,1.9,0,2.5-0.1
							c1.4-0.2,1.2-0.2,2.2-0.6C21.5,15.9,23.2,14.9,24.7,13.6L24.7,13.6z"/>
						<path class="st9" d="M24.4,13.6c1.6-1.3,1.6-2.8,0.9-4.1c-0.6-1.1-1.1-1.7-1.8-2.7c-0.7-0.9-1.6-2.2-4-3
							c-2.2-0.7-6.6,2.9-8.5,3.4c-2,0.6-3.8,2-6.1,2.9c-1.2,0.5-4.6,1.4-4.4,2.6c0.1,1.1,0.8,1.4,1.5,1.9c0.7,0.5,1.9,1.5,2.7,1.7
							c1,0.2,2.2,0.2,3.1,0.2c1.4,0.1,2,0.3,3.2,0.4c1.6,0.1,1.8,0,2.5,0c0.5,0,1,0.1,1.6,0.1c0.8,0,1.9,0,2.5-0.2
							c1.3-0.2,1.2-0.2,2.2-0.6C21.4,15.7,23,14.7,24.4,13.6L24.4,13.6z"/>
						<path class="st10" d="M24.2,13.5c1.5-1.2,1.5-2.7,0.8-3.9c-0.6-1.1-1.1-1.7-1.8-2.6c-0.7-0.9-1.5-2.2-3.8-3
							c-2.2-0.8-6.5,2.8-8.3,3.3c-2,0.6-3.7,2-5.9,2.9c-1.1,0.4-4.7,1.3-4.5,2.5c0.1,1,0.8,1.3,1.5,1.8C3,15,4.1,15.9,4.8,16.1
							c1.1,0.2,2.2,0.1,3,0.1c1.4,0.1,2,0.4,3.1,0.4c1.6,0.1,1.8,0,2.5,0c0.5,0,0.9,0.1,1.6,0.1c0.9,0,1.9-0.1,2.4-0.2
							c1.3-0.2,1.2-0.2,2.2-0.5C21.3,15.4,22.8,14.5,24.2,13.5L24.2,13.5z"/>
						<path class="st11" d="M24,13.4c1.5-1.1,1.5-2.6,0.8-3.8c-0.6-1-1.1-1.6-1.8-2.5c-0.7-0.9-1.4-2.1-3.7-3
							c-2.1-0.8-6.3,2.7-8.1,3.2c-2,0.6-3.6,2-5.7,2.9c-1.1,0.4-4.8,1.2-4.6,2.4c0.1,1,0.9,1.2,1.6,1.7c0.8,0.5,1.8,1.4,2.6,1.6
							C6,16.1,7,15.9,7.9,16c1.4,0.1,1.9,0.4,3.1,0.5c1.6,0.1,1.8-0.1,2.5,0c0.5,0,0.9,0.1,1.6,0.1c0.9,0,1.8-0.1,2.4-0.2
							c1.2-0.2,1.2-0.1,2.2-0.5C21.2,15.2,22.6,14.4,24,13.4z"/>
						<path class="st12" d="M23.7,13.3c1.4-1,1.4-2.4,0.7-3.6c-0.6-1-1.2-1.6-1.9-2.4c-0.7-0.8-1.3-2.1-3.6-3
							c-2.1-0.8-6.1,2.6-7.9,3.1c-2,0.6-3.5,2-5.6,2.9c-1.1,0.4-4.9,1.1-4.7,2.3c0.1,0.9,0.9,1.1,1.6,1.6c0.8,0.5,1.8,1.4,2.5,1.6
							c1.1,0.2,2-0.1,2.9,0c1.4,0.1,1.9,0.5,3.1,0.6c1.5,0.1,1.7-0.1,2.4-0.1c0.5,0,0.9,0.1,1.6,0.1c0.9,0,1.8-0.2,2.4-0.3
							c1.2-0.2,1.1-0.1,2.2-0.5C21.1,15,22.4,14.2,23.7,13.3L23.7,13.3z"/>
						<path class="st13" d="M23.5,13.2c1.4-0.9,1.4-2.3,0.7-3.4c-0.6-1-1.2-1.5-1.9-2.3c-0.7-0.8-1.2-2-3.5-3
							c-2.1-0.9-5.9,2.5-7.7,3c-2,0.6-3.4,2-5.4,2.8c-1,0.4-5.1,1-4.8,2.3c0.2,0.9,1,1.1,1.7,1.5c0.8,0.5,1.8,1.4,2.5,1.5
							c1.2,0.2,1.9-0.2,2.8-0.1c1.3,0.1,1.9,0.6,3.1,0.6c1.5,0.1,1.7-0.1,2.4-0.1c0.5,0,0.9,0.2,1.6,0.2c1,0,1.8-0.2,2.4-0.3
							c1.1-0.2,1.1-0.1,2.2-0.5C21,14.8,22.2,14.1,23.5,13.2L23.5,13.2z"/>
						<path class="st14" d="M23.2,13.1c1.3-0.8,1.3-2.2,0.6-3.3c-0.6-0.9-1.2-1.4-1.9-2.2c-0.6-0.8-1.1-2-3.4-3
							c-2.1-0.9-5.7,2.4-7.5,2.9c-2,0.6-3.3,2-5.2,2.8c-1,0.4-5.2,0.9-4.9,2.2c0.2,0.8,1,1,1.7,1.4c0.8,0.5,1.8,1.4,2.5,1.4
							c1.2,0.1,1.8-0.3,2.8-0.2c1.3,0.1,1.9,0.6,3.1,0.7c1.5,0.1,1.6-0.2,2.3-0.1c0.5,0,0.8,0.2,1.6,0.2c1,0,1.8-0.3,2.3-0.4
							c1.1-0.2,1.1,0,2.2-0.4C21,14.6,22,13.9,23.2,13.1L23.2,13.1z"/>
						<path class="st15" d="M23,13.1c1.2-0.7,1.2-2.1,0.6-3.1C23,9,22.3,8.6,21.7,7.8c-0.6-0.8-1-1.9-3.2-3c-2-1-5.6,2.3-7.3,2.8
							c-1.9,0.6-3.2,2-5,2.8c-1,0.4-5.3,0.8-5,2.1c0.2,0.8,1,0.9,1.7,1.3c0.8,0.5,1.7,1.3,2.4,1.4C6.5,15.3,7,14.9,8,14.9
							c1.3,0.1,1.9,0.7,3,0.7c1.5,0.1,1.6-0.2,2.3-0.2c0.4,0,0.8,0.2,1.6,0.2c1,0,1.8-0.3,2.3-0.4c1-0.2,1.1,0,2.2-0.4
							C20.9,14.3,21.8,13.8,23,13.1L23,13.1z"/>
						<path class="st16" d="M22.7,13c1.2-0.6,1.2-2,0.5-2.9c-0.6-0.9-1.3-1.3-1.9-2s-0.9-1.9-3.1-3c-2-1-5.4,2.2-7.1,2.8
							c-1.9,0.6-3.1,2-4.9,2.7c-0.9,0.4-5.4,0.6-5.1,2c0.2,0.7,1.1,0.8,1.8,1.2C3.7,14.2,4.6,15,5.3,15C6.6,15.1,7,14.6,8,14.6
							c1.3,0.1,1.9,0.8,3,0.8c1.5,0,1.6-0.2,2.3-0.2c0.4,0,0.8,0.2,1.6,0.2c1.1,0,1.8-0.4,2.3-0.4c1-0.1,1.1,0.1,2.2-0.4
							C20.8,14.1,21.5,13.6,22.7,13L22.7,13z"/>
						<path class="st17" d="M22.5,12.9c1.1-0.6,1.1-1.9,0.5-2.8c-0.6-0.9-1.3-1.3-1.9-2c-0.6-0.7-0.8-1.9-3-3c-2-1-5.2,2.2-6.9,2.7
							c-1.9,0.6-2.9,2-4.7,2.7c-0.9,0.4-5.6,0.5-5.2,1.9c0.2,0.7,1.1,0.7,1.8,1.1c0.8,0.5,1.7,1.3,2.4,1.3C6.7,14.9,7,14.3,8,14.4
							c1.3,0.1,1.8,0.8,3,0.9c1.5,0,1.5-0.3,2.2-0.2c0.4,0,0.8,0.3,1.6,0.3c1.1,0,1.7-0.4,2.2-0.5c1-0.1,1.1,0.1,2.2-0.4
							C20.7,13.9,21.3,13.5,22.5,12.9z"/>
						<path class="st18" d="M22.3,12.8c1.1-0.5,1.1-1.8,0.4-2.6c-0.6-0.8-1.3-1.2-2-1.9c-0.6-0.7-0.6-1.8-2.9-3
							c-2-1.1-5,2.1-6.7,2.6c-1.9,0.6-2.8,2-4.5,2.7c-0.9,0.4-5.7,0.4-5.3,1.8c0.2,0.6,1.1,0.6,1.8,1c0.8,0.5,1.7,1.2,2.3,1.3
							c1.3,0,1.5-0.6,2.5-0.6C9.3,14.2,9.8,15,11,15c1.5,0,1.5-0.3,2.2-0.2c0.4,0,0.7,0.3,1.6,0.3c1.1,0,1.7-0.5,2.2-0.5
							c0.9-0.1,1.1,0.1,2.2-0.3C20.6,13.7,21.1,13.3,22.3,12.8L22.3,12.8z"/>
						<path class="st19" d="M22,12.7c1-0.4,1-1.6,0.4-2.4c-0.6-0.8-1.4-1.1-2-1.8c-0.6-0.6-0.5-1.8-2.8-3c-1.9-1.1-4.8,2-6.5,2.5
							c-1.9,0.6-2.7,2-4.4,2.7C6,11,1,11,1.4,12.4c0.2,0.6,1.2,0.5,1.9,0.9c0.8,0.4,1.6,1.2,2.3,1.2c1.3,0,1.4-0.7,2.4-0.7
							c1.2,0.1,1.8,1,2.9,1c1.5,0,1.5-0.3,2.1-0.3c0.4,0,0.7,0.3,1.6,0.3c1.2,0,1.7-0.5,2.2-0.6c0.9-0.1,1,0.2,2.2-0.3
							C20.5,13.5,20.9,13.2,22,12.7L22,12.7z"/>
						<path class="st20" d="M21.8,12.6c0.9-0.3,1-1.5,0.3-2.2c-0.6-0.8-1.4-1.1-2-1.7c-0.6-0.6-0.5-1.7-2.7-3
							c-1.9-1.1-4.6,1.9-6.3,2.4c-1.9,0.6-2.6,2-4.2,2.6c-0.8,0.3-6,0.2-5.5,1.7c0.2,0.5,1.2,0.4,1.9,0.8c0.8,0.4,1.6,1.2,2.2,1.2
							c1.3,0,1.4-0.8,2.4-0.8c1.2,0.1,1.8,1,2.9,1c1.5,0,1.4-0.4,2.1-0.3c0.4,0,0.7,0.3,1.6,0.3c1.2,0,1.7-0.6,2.2-0.6
							c0.8-0.1,1,0.2,2.3-0.3C20.4,13.3,20.7,13,21.8,12.6L21.8,12.6z"/>
						<path class="st21" d="M21.5,12.6c0.9-0.2,0.9-1.4,0.3-2.1c-0.7-0.7-1.5-1-2-1.6c-0.6-0.6-0.4-1.7-2.5-3
							c-1.9-1.2-4.5,1.8-6.1,2.3c-1.9,0.6-2.5,2-4,2.6c-0.8,0.3-6.2,0.1-5.6,1.6c0.2,0.5,1.2,0.3,2,0.7c0.8,0.4,1.6,1.1,2.2,1.1
							c1.4-0.1,1.3-0.9,2.3-0.9c1.2,0,1.8,1.1,2.9,1.1c1.5,0,1.4-0.4,2.1-0.3c0.4,0,0.6,0.4,1.6,0.4c1.2,0,1.7-0.6,2.1-0.6
							c0.8-0.1,1,0.2,2.3-0.2C20.3,13.1,20.5,12.8,21.5,12.6L21.5,12.6z"/>
					</g>
					<path class="st22" d="M21,9.6C20.8,9,20.4,8.4,19.8,8C20,7.6,20,7.2,20.1,6.8c0.1-2.1-1.5-3.9-3.6-4c-1.6-0.1-3,0.9-3.6,2.3
						c-0.1,0-0.2,0-0.3,0C11.1,5,9.9,5.6,9.2,6.6C9,6.5,8.8,6.5,8.5,6.5c-1.1-0.1-2.1,0.8-2.2,2c0,0.2,0,0.4,0.1,0.6
						C6,9.1,5.6,9.3,5.4,9.7C5.1,9.2,4.5,8.9,3.9,8.9C3,8.8,2.3,9.3,2,10.1c0,0-0.1,0-0.1,0c-0.8,0-1.5,0.6-1.5,1.4s0.6,1.5,1.4,1.5
						c0.4,0,0.8-0.1,1-0.4c0.3,0.2,0.6,0.3,0.9,0.3c0.3,0.7,1,1.2,1.8,1.2c0.8,0,1.6-0.4,1.9-1.1c0.2,0.1,0.5,0.2,0.8,0.2
						c0.1,0,0.2,0,0.3,0c0.5,0.6,1.2,1.1,2.1,1.1c0.9,0,1.6-0.3,2.2-0.9c0.3,0.6,1,1.1,1.8,1.1c0.8,0,1.5-0.4,1.9-1.1
						c0.4,0.2,0.8,0.3,1.3,0.4c1,0,2-0.4,2.6-1.2c0.1,0.1,0.3,0.1,0.5,0.1c0.8,0,1.5-0.6,1.6-1.4C22.4,10.4,21.8,9.7,21,9.6L21,9.6z
						"/>
					
						<linearGradient id="SVGID_1_" gradientUnits="userSpaceOnUse" x1="6.508" y1="15.8053" x2="17.9441" y2="4.3692" gradientTransform="matrix(1 0 0 -1 0 20.6929)">
						<stop  offset="0" style="stop-color:#1062A1"/>
						<stop  offset="1" style="stop-color:#0A4D80"/>
					</linearGradient>
					<path class="st23" d="M21,9.7C20.8,9,20.4,8.4,19.9,8c0.1-0.4,0.2-0.8,0.2-1.2c0.1-2.1-1.5-3.9-3.6-4c-1.6-0.1-3,0.9-3.6,2.2
						c-0.1,0-0.2,0-0.3,0C11.2,5,10,5.7,9.2,6.7C9,6.6,8.8,6.5,8.6,6.5c-1.1-0.1-2.1,0.8-2.2,2c0,0.2,0,0.4,0.1,0.6
						C6,9.1,5.7,9.4,5.5,9.7C5.1,9.2,4.6,8.9,4,8.9c-0.9,0-1.6,0.5-1.9,1.2c0,0-0.1,0-0.1,0c-0.8,0-1.5,0.6-1.5,1.4S1,13,1.8,13
						c0.4,0,0.8-0.1,1-0.4c0.3,0.2,0.6,0.3,0.9,0.3c0.3,0.7,1,1.2,1.8,1.2c0.8,0,1.6-0.4,1.9-1.1c0.2,0.1,0.5,0.2,0.8,0.2
						c0.1,0,0.2,0,0.3,0c0.5,0.6,1.2,1.1,2.1,1.1c0.9,0,1.6-0.3,2.2-0.9c0.3,0.6,1,1.1,1.7,1.1c0.8,0,1.5-0.4,1.9-1.1
						c0.4,0.2,0.8,0.3,1.3,0.4c1,0,2-0.4,2.6-1.2c0.1,0.1,0.3,0.1,0.5,0.1c0.8,0,1.5-0.6,1.6-1.4C22.5,10.4,21.8,9.7,21,9.7L21,9.7z
						"/>
				</g>
				<g>
					<g>
						<path class="st0" d="M18.6,11.7c1-1.7,0-4-0.5-5.3c-0.4-0.9-1.5-2.2-2.5-2.6c-0.9-0.5-1.3-1-2.5-1.1C11.5,2.6,9.3,3.8,8,4.2
							c-1.4,0.4-3.9,1.6-5.3,3C1.2,9,1.1,10.3,1.6,11.3C2,12.4,2.8,13,3.2,13.4c0.5,0.4,1,0.8,1.5,1.1C5.9,15,6.8,15,7.6,15
							c0.6,0,2.2,0.2,3.8-0.2c1.1-0.2,2.2-0.4,2.8-0.6C15.4,13.9,17.8,13.1,18.6,11.7z"/>
						<path class="st1" d="M18.5,11.6c1-1.7,0-3.9-0.4-5.1c-0.4-0.9-1.5-2.1-2.4-2.6c-0.9-0.5-1.2-1-2.5-1.2C11.5,2.6,9.3,3.9,8,4.3
							c-1.4,0.4-3.9,1.5-5.2,3c-1.5,1.7-1.6,3-1.2,4c0.5,1,1.2,1.6,1.7,2c0.5,0.4,1,0.8,1.6,1c1.1,0.5,2,0.4,2.8,0.5
							c0.6,0.1,2.2,0.2,3.8-0.1c1.1-0.2,2.1-0.4,2.7-0.6C15.4,13.7,17.7,13,18.5,11.6L18.5,11.6z"/>
						<path class="st2" d="M18.3,11.6c1-1.6,0.1-3.8-0.4-4.9c-0.4-0.9-1.4-2-2.3-2.5c-0.9-0.4-1.1-1.1-2.4-1.3C11.5,2.6,9.3,4,8,4.4
							C6.6,4.8,4.2,5.9,2.9,7.3c-1.5,1.6-1.7,3-1.2,4c0.5,1,1.2,1.5,1.7,1.9c0.5,0.4,1,0.7,1.6,1c1.1,0.5,2,0.4,2.8,0.4
							c0.6,0.1,2.1,0.2,3.7-0.1c1.2-0.2,2.1-0.4,2.6-0.6C15.3,13.5,17.5,12.9,18.3,11.6L18.3,11.6z"/>
						<path class="st3" d="M18.1,11.5c1-1.6,0.1-3.6-0.3-4.8c-0.4-0.9-1.4-1.9-2.3-2.4c-0.9-0.4-1.1-1.2-2.4-1.4
							C11.5,2.6,9.3,4.1,8,4.4C6.6,4.8,4.2,5.9,3,7.2c-1.4,1.5-1.7,2.9-1.2,3.9c0.5,1,1.2,1.4,1.7,1.8c0.5,0.4,1,0.7,1.6,0.9
							c1.1,0.5,2,0.3,2.7,0.4c0.6,0.1,2.1,0.3,3.7-0.1c1.2-0.2,2.1-0.4,2.6-0.6C15.2,13.3,17.3,12.7,18.1,11.5L18.1,11.5z"/>
						<path class="st4" d="M17.9,11.4c1-1.5,0.2-3.5-0.3-4.6C17.3,6,16.3,5,15.4,4.5c-0.9-0.4-1-1.3-2.3-1.6C11.6,2.7,9.3,4.2,8,4.5
							C6.6,4.9,4.3,6,3.1,7.2c-1.4,1.5-1.7,2.8-1.2,3.9c0.5,1,1.2,1.4,1.7,1.8c0.5,0.3,1,0.6,1.6,0.9c1.1,0.4,2,0.2,2.7,0.3
							c0.6,0.1,2,0.3,3.6,0c1.2-0.2,2-0.4,2.5-0.6C15.1,13.2,17.1,12.6,17.9,11.4L17.9,11.4z"/>
						<path class="st5" d="M17.7,11.3c1-1.4,0.2-3.4-0.2-4.4c-0.4-0.8-1.3-1.8-2.2-2.2c-0.8-0.4-0.9-1.4-2.2-1.7
							c-1.5-0.3-3.8,1.2-5,1.6C6.7,5,4.3,6.1,3.2,7.3C1.9,8.7,1.5,10,2,11.1c0.5,0.9,1.2,1.3,1.8,1.7c0.5,0.3,1,0.6,1.6,0.8
							c1.1,0.4,1.9,0.2,2.6,0.2c0.6,0.1,2,0.3,3.6,0c1.2-0.2,2-0.4,2.5-0.6C15.1,13,17,12.5,17.7,11.3z"/>
						<path class="st6" d="M17.6,11.3c1-1.4,0.3-3.3-0.2-4.2c-0.4-0.8-1.2-1.7-2.1-2.1c-0.8-0.4-0.9-1.5-2.2-1.8
							c-1.5-0.4-3.8,1.3-5,1.6C6.7,5.1,4.4,6.1,3.3,7.3C2.1,8.6,1.5,10,2,11c0.5,0.9,1.2,1.2,1.8,1.6c0.5,0.3,1.1,0.6,1.6,0.8
							c1.1,0.4,1.9,0.1,2.6,0.2c0.6,0.1,1.9,0.3,3.6,0c1.2-0.2,1.9-0.5,2.4-0.6C15,12.8,16.8,12.4,17.6,11.3L17.6,11.3z"/>
						<path class="st7" d="M17.4,11.2c1-1.3,0.3-3.1-0.1-4.1c-0.4-0.8-1.2-1.6-2.1-2c-0.8-0.4-0.8-1.5-2.1-1.9
							c-1.5-0.4-3.8,1.3-5,1.6C6.7,5.2,4.4,6.2,3.4,7.3c-1.2,1.3-1.8,2.6-1.3,3.7c0.5,0.9,1.2,1.2,1.8,1.5C4.4,12.7,5,13,5.5,13.2
							c1.1,0.4,1.9,0,2.5,0.1c0.6,0.1,1.9,0.4,3.5,0.1c1.2-0.2,1.9-0.5,2.3-0.5C14.9,12.7,16.6,12.3,17.4,11.2L17.4,11.2z"/>
						<path class="st8" d="M17.2,11.1c1-1.3,0.4-3-0.1-3.9c-0.4-0.8-1.1-1.5-2-1.9c-0.8-0.4-0.7-1.6-2.1-2c-1.5-0.4-3.7,1.3-5,1.7
							C6.8,5.3,4.5,6.2,3.5,7.3c-1.1,1.2-1.8,2.5-1.3,3.6C2.7,11.7,3.4,12,4,12.3c0.5,0.3,1.1,0.5,1.6,0.7c1.2,0.4,1.9,0,2.5,0.1
							c0.6,0.1,1.9,0.4,3.5,0.1c1.2-0.2,1.8-0.5,2.3-0.5C14.8,12.4,16.5,12.1,17.2,11.1L17.2,11.1z"/>
						<path class="st9" d="M17,11c1-1.2,0.4-2.9,0-3.7c-0.4-0.7-1.1-1.5-1.9-1.9c-0.8-0.4-0.6-1.7-2-2.1C11.6,2.8,9.3,4.6,8.1,5
							C6.8,5.3,4.5,6.3,3.6,7.3c-1.1,1.1-1.9,2.5-1.3,3.6c0.4,0.8,1.2,1,1.8,1.3c0.5,0.3,1.1,0.5,1.6,0.6c1.2,0.3,1.8-0.1,2.4,0
							c0.5,0.1,1.8,0.4,3.4,0.1c1.2-0.2,1.8-0.5,2.2-0.5C14.7,12.3,16.3,12,17,11L17,11z"/>
						<path class="st10" d="M16.9,10.9c1-1.2,0.5-2.7,0-3.6C16.5,6.7,15.8,6,15,5.6c-0.7-0.3-0.6-1.8-1.9-2.3
							C11.6,2.9,9.3,4.7,8.1,5C6.8,5.4,4.6,6.3,3.7,7.3c-1,1.1-1.9,2.4-1.3,3.5c0.4,0.8,1.2,1,1.8,1.2c0.5,0.2,1.1,0.4,1.7,0.6
							c1.2,0.3,1.8-0.2,2.4-0.1c0.5,0.1,1.8,0.5,3.4,0.2c1.2-0.2,1.8-0.5,2.2-0.5C14.7,12.1,16.1,11.9,16.9,10.9L16.9,10.9z"/>
						<path class="st11" d="M16.7,10.9c1-1.1,0.5-2.6,0.1-3.4c-0.4-0.7-1-1.3-1.8-1.7c-0.7-0.3-0.5-1.9-1.9-2.4
							c-1.4-0.5-3.7,1.4-4.9,1.7C6.8,5.5,4.6,6.4,3.8,7.3c-1,1-1.9,2.4-1.3,3.4c0.4,0.8,1.2,0.9,1.8,1.2c0.5,0.2,1.1,0.4,1.7,0.5
							c1.2,0.3,1.8-0.2,2.3-0.1c0.5,0.1,1.7,0.5,3.3,0.2c1.2-0.2,1.7-0.5,2.1-0.5C14.6,11.9,16,11.7,16.7,10.9L16.7,10.9z"/>
						<path class="st12" d="M16.5,10.8c1-1.1,0.6-2.5,0.1-3.2c-0.4-0.7-1-1.2-1.8-1.6C14.2,5.6,14.4,4,13,3.5
							c-1.4-0.5-3.7,1.4-4.9,1.8C6.8,5.6,4.7,6.5,3.9,7.3c-0.9,1-2,2.3-1.3,3.4c0.4,0.8,1.2,0.8,1.9,1.1c0.5,0.2,1.2,0.3,1.7,0.5
							c1.2,0.3,1.8-0.3,2.3-0.2c0.5,0.1,1.7,0.5,3.3,0.2c1.2-0.2,1.7-0.5,2.1-0.5C14.5,11.7,15.8,11.6,16.5,10.8L16.5,10.8z"/>
						<path class="st13" d="M16.3,10.7c1-1,0.6-2.3,0.2-3.1c-0.4-0.7-0.9-1.2-1.7-1.5c-0.7-0.3-0.4-2-1.8-2.6
							C11.7,2.9,9.4,5,8.2,5.3C6.9,5.7,4.7,6.5,4,7.3c-0.9,0.9-2,2.2-1.3,3.3c0.4,0.7,1.2,0.8,1.9,1c0.5,0.2,1.2,0.3,1.7,0.4
							c1.2,0.2,1.8-0.4,2.3-0.2c0.5,0.1,1.6,0.6,3.2,0.3c1.2-0.2,1.6-0.5,2-0.5C14.5,11.6,15.6,11.5,16.3,10.7L16.3,10.7z"/>
						<path class="st14" d="M16.2,10.6c1-1,0.7-2.2,0.2-2.9c-0.4-0.6-0.9-1.1-1.7-1.4C14.1,6,14.4,4.2,13,3.6C11.7,3,9.4,5,8.2,5.4
							C6.9,5.8,4.8,6.6,4.1,7.3c-0.8,0.8-2,2.2-1.4,3.3c0.4,0.7,1.2,0.7,1.9,0.9c0.6,0.2,1.2,0.3,1.7,0.4c1.2,0.2,1.7-0.4,2.2-0.3
							c0.5,0.1,1.6,0.6,3.2,0.3c1.2-0.2,1.6-0.5,1.9-0.5C14.4,11.4,15.5,11.4,16.2,10.6L16.2,10.6z"/>
						<path class="st15" d="M16,10.6c1-0.9,0.7-2.1,0.3-2.7c-0.4-0.6-0.8-1-1.6-1.3C14,6.2,14.4,4.3,13,3.6C11.7,3,9.3,5.1,8.2,5.5
							c-1.3,0.4-3.4,1.2-4,1.8C3.4,8,2.1,9.4,2.8,10.5c0.4,0.7,1.2,0.6,1.9,0.8c0.6,0.2,1.2,0.2,1.7,0.3c1.2,0.2,1.7-0.5,2.2-0.4
							c0.5,0.1,1.5,0.6,3.2,0.3c1.2-0.2,1.5-0.5,1.9-0.5C14.3,11.2,15.3,11.2,16,10.6L16,10.6z"/>
						<path class="st16" d="M15.8,10.5c1-0.9,0.8-1.9,0.4-2.6c-0.4-0.6-0.8-0.9-1.6-1.3c-0.6-0.3-0.2-2.2-1.6-3
							C11.7,3,9.3,5.2,8.2,5.6c-1.3,0.4-3.4,1.1-4,1.7c-0.7,0.7-2.1,2-1.4,3.1C3.3,11.1,4,11,4.8,11.2c0.6,0.1,1.2,0.2,1.7,0.3
							c1.2,0.2,1.7-0.5,2.1-0.4c0.5,0.1,1.5,0.6,3.1,0.4c1.3-0.2,1.5-0.5,1.8-0.5C14.2,11,15.1,11.1,15.8,10.5L15.8,10.5z"/>
						<path class="st17" d="M15.6,10.4c1-0.8,0.8-1.8,0.4-2.4c-0.4-0.6-0.7-0.8-1.5-1.2c-0.6-0.3-0.1-2.3-1.5-3.1
							c-1.3-0.7-3.7,1.5-4.8,1.9C7,6,4.9,6.7,4.3,7.3c-0.6,0.6-2.1,2-1.4,3.1c0.4,0.6,1.2,0.5,2,0.7c0.6,0.1,1.2,0.1,1.7,0.2
							c1.2,0.1,1.7-0.6,2.1-0.5c0.5,0.1,1.4,0.7,3.1,0.4c1.3-0.2,1.4-0.6,1.8-0.5C14.1,10.9,15,11,15.6,10.4L15.6,10.4z"/>
						<path class="st18" d="M15.4,10.3c1-0.8,0.9-1.7,0.5-2.2c-0.4-0.5-0.7-0.8-1.4-1.1c-0.6-0.2,0-2.4-1.5-3.2
							c-1.3-0.7-3.6,1.6-4.8,1.9C7,6.1,4.9,6.8,4.4,7.3c-0.6,0.6-2.2,1.9-1.4,3c0.4,0.6,1.2,0.4,2,0.6C5.6,11,6.2,11,6.7,11
							c1.2,0.1,1.6-0.7,2-0.5c0.5,0.2,1.4,0.7,3,0.4c1.3-0.2,1.4-0.6,1.7-0.5C14,10.7,14.8,10.8,15.4,10.3L15.4,10.3z"/>
						<path class="st19" d="M15.3,10.3c1-0.7,0.9-1.6,0.5-2.1c-0.4-0.5-0.6-0.7-1.4-1c-0.6-0.2,0-2.5-1.4-3.3
							c-1.3-0.7-3.6,1.6-4.7,1.9C7,6.2,5,6.8,4.5,7.3c-0.5,0.5-2.2,1.8-1.4,3c0.4,0.6,1.2,0.4,2,0.5c0.6,0.1,1.2,0.1,1.8,0.1
							c1.3,0.1,1.6-0.7,2-0.6c0.5,0.2,1.4,0.7,3,0.5c1.3-0.2,1.4-0.6,1.6-0.5C14,10.5,14.6,10.7,15.3,10.3L15.3,10.3z"/>
						<path class="st20" d="M15.1,10.2c1-0.6,1-1.4,0.6-1.9c-0.4-0.5-0.6-0.6-1.3-0.9c-0.5-0.2,0.1-2.6-1.4-3.4
							c-1.3-0.8-3.6,1.6-4.7,2C7,6.3,5,6.9,4.6,7.3c-0.5,0.4-2.2,1.8-1.4,2.9c0.4,0.5,1.2,0.3,2,0.4c0.6,0.1,1.3,0,1.8,0.1
							c1.3,0.1,1.6-0.8,1.9-0.7c0.4,0.2,1.3,0.8,2.9,0.5c1.3-0.2,1.3-0.6,1.6-0.4C13.9,10.3,14.5,10.6,15.1,10.2L15.1,10.2z"/>
						<path class="st21" d="M14.9,10.1c1-0.6,1-1.3,0.6-1.7c-0.4-0.5-0.5-0.5-1.3-0.8C13.8,7.3,14.4,4.9,13,4
							c-1.2-0.8-3.6,1.6-4.7,2C7.1,6.3,5.1,7,4.7,7.3C4.3,7.7,2.4,9,3.3,10.1c0.4,0.5,1.2,0.2,2,0.3c0.6,0.1,1.3,0,1.8,0
							c1.3,0,1.6-0.9,1.9-0.7c0.4,0.2,1.3,0.8,2.9,0.5c1.3-0.2,1.3-0.6,1.5-0.4C13.8,10.1,14.3,10.5,14.9,10.1L14.9,10.1z"/>
					</g>
					<path class="st24" d="M15,7.5c0.1-0.3,0.1-0.7,0.1-1.1c0-2.3-1.8-4.1-4.1-4.1c-1.9,0-3.5,1.3-4,3.1c0,0-0.1,0-0.1,0
						C6,5.4,5.2,5.9,4.7,6.6C4.5,6.5,4.3,6.4,4,6.4c-1.1,0-2,0.9-2,2s0.9,2,2,2c0.5,0,0.9-0.2,1.3-0.5c0.4,0.4,1,0.6,1.6,0.6
						c0.7,0,1.3-0.3,1.8-0.7c0.7,0.5,1.5,0.7,2.3,0.7c0.8,0,1.5-0.2,2.2-0.6c0.3,0.4,0.7,0.6,1.2,0.6c0.9,0,1.6-0.7,1.6-1.6
						C15.9,8.3,15.5,7.8,15,7.5L15,7.5z"/>
					
						<linearGradient id="SVGID_00000089570463740674957590000007809144364829951142_" gradientUnits="userSpaceOnUse" x1="2.05" y1="14.2329" x2="15.96" y2="14.2329" gradientTransform="matrix(1 0 0 -1 0 20.6929)">
						<stop  offset="0" style="stop-color:#076BBA"/>
						<stop  offset="1" style="stop-color:#0060AB"/>
					</linearGradient>
					<path style="fill:url(#SVGID_00000089570463740674957590000007809144364829951142_);" d="M15,7.6c0.1-0.3,0.1-0.7,0.1-1.1
						c0-2.3-1.8-4.1-4.1-4.1c-1.9,0-3.5,1.3-4,3.1c0,0-0.1,0-0.1,0c-0.9,0-1.7,0.5-2.2,1.2C4.6,6.5,4.3,6.5,4,6.5c-1.1,0-2,0.9-2,2
						s0.9,2,2,2c0.5,0,0.9-0.2,1.3-0.5c0.4,0.4,1,0.6,1.6,0.6c0.7,0,1.3-0.3,1.8-0.7c0.7,0.5,1.5,0.7,2.3,0.7c0.8,0,1.5-0.2,2.2-0.6
						c0.3,0.4,0.7,0.6,1.2,0.6c0.9,0,1.6-0.7,1.6-1.6C16,8.3,15.6,7.8,15,7.6L15,7.6z"/>
				</g>
				<g>
					<g>
						<path class="st0" d="M26.2,12.9c1.2-1,1-4.2,0.4-5c-0.8-1.1-1.7-1.8-2.4-2.2c-0.7-0.4-2.8-0.7-3.8-0.7c-1.3,0-2.6,0.3-3.7,0.6
							C15.6,6,13.3,6.8,12.2,8c-1.3,1.4-0.1,4.1,0.2,4.5c0.6,0.8,1.3,1.5,2.2,1.9c0.9,0.4,1.6,0.4,2.3,0.4c0.5,0,2.7,0.3,4,0
							c0.9-0.2,2.5-0.5,2.9-0.7C24.2,14,25.3,13.8,26.2,12.9L26.2,12.9z"/>
						<path class="st1" d="M26,12.8c1.2-1,1-4.1,0.4-4.9c-0.8-1.1-1.7-1.8-2.4-2.1c-0.7-0.4-2.7-0.7-3.7-0.7c-1.3,0-2.6,0.3-3.7,0.6
							C15.6,6,13.3,6.9,12.3,8c-1.2,1.3-0.2,4,0.2,4.4c0.6,0.7,1.3,1.5,2.2,1.9c0.9,0.4,1.6,0.4,2.2,0.4c0.5,0,2.6,0.3,3.9,0.1
							c0.9-0.2,2.4-0.5,2.9-0.7C24.1,13.9,25.1,13.6,26,12.8L26,12.8z"/>
						<path class="st2" d="M25.8,12.7c1.2-1,1-3.9,0.4-4.8c-0.8-1.1-1.6-1.7-2.4-2.1c-0.7-0.3-2.6-0.7-3.5-0.7
							c-1.3,0-2.5,0.3-3.6,0.6c-1.1,0.3-3.4,1.1-4.4,2.2c-1.2,1.3-0.2,3.9,0.2,4.3c0.6,0.7,1.2,1.4,2.1,1.9c0.9,0.4,1.6,0.3,2.2,0.4
							c0.5,0,2.5,0.4,3.8,0.1c0.9-0.2,2.4-0.5,2.8-0.7C23.9,13.7,24.9,13.5,25.8,12.7L25.8,12.7z"/>
						<path class="st3" d="M25.6,12.6c1.2-0.9,1-3.8,0.4-4.6c-0.8-1.1-1.6-1.7-2.3-2c-0.7-0.3-2.5-0.7-3.4-0.7
							c-1.2,0-2.5,0.3-3.5,0.5c-1.1,0.3-3.3,1.1-4.3,2.2c-1.1,1.2-0.2,3.8,0.1,4.2c0.6,0.7,1.2,1.4,2.1,1.8c0.9,0.4,1.6,0.3,2.2,0.4
							c0.5,0.1,2.5,0.4,3.8,0.1c0.9-0.2,2.3-0.5,2.7-0.8C23.7,13.6,24.7,13.4,25.6,12.6L25.6,12.6z"/>
						<path class="st4" d="M25.5,12.5c1.1-0.9,1-3.6,0.4-4.5c-0.8-1.1-1.6-1.7-2.3-2c-0.7-0.3-2.4-0.7-3.3-0.7
							c-1.2,0-2.5,0.2-3.5,0.5C15.6,6.1,13.5,7,12.5,8c-1.1,1.2-0.3,3.6,0.1,4.1c0.5,0.7,1.1,1.4,2,1.8c0.8,0.4,1.5,0.3,2.1,0.4
							c0.5,0.1,2.4,0.4,3.7,0.2c0.9-0.2,2.3-0.6,2.7-0.8C23.5,13.4,24.5,13.3,25.5,12.5L25.5,12.5z"/>
						<path class="st5" d="M25.3,12.4c1.1-0.9,1-3.5,0.4-4.4c-0.7-1.1-1.6-1.6-2.3-2c-0.7-0.3-2.3-0.7-3.2-0.7
							c-1.2-0.1-2.4,0.2-3.5,0.5C15.6,6.2,13.5,7,12.6,8c-1,1.1-0.3,3.5,0.1,4c0.5,0.6,1,1.3,2,1.7c0.8,0.4,1.5,0.2,2.1,0.3
							c0.5,0.1,2.3,0.4,3.6,0.2c1-0.2,2.2-0.6,2.6-0.8C23.4,13.3,24.3,13.1,25.3,12.4z"/>
						<path class="st6" d="M25.1,12.3c1.1-0.8,1-3.4,0.4-4.3c-0.7-1.1-1.5-1.6-2.2-1.9c-0.6-0.3-2.2-0.6-3.1-0.7
							c-1.1-0.1-2.4,0.2-3.4,0.5c-1.1,0.3-3.2,1.2-4.1,2.1c-1,1.1-0.3,3.4,0.1,3.9c0.5,0.6,1,1.3,1.9,1.7c0.8,0.3,1.5,0.2,2.1,0.3
							c0.5,0.1,2.2,0.5,3.5,0.2c1-0.2,2.2-0.6,2.5-0.8C23.2,13.1,24.2,13,25.1,12.3L25.1,12.3z"/>
						<path class="st7" d="M24.9,12.2c1.1-0.8,1-3.2,0.4-4.1c-0.7-1.1-1.5-1.5-2.2-1.9c-0.6-0.3-2.1-0.6-2.9-0.7
							c-1.1-0.1-2.4,0.2-3.4,0.4c-1.1,0.3-3.2,1.2-4,2c-0.9,1-0.3,3.2,0.1,3.8c0.5,0.6,0.9,1.3,1.9,1.6c0.8,0.3,1.5,0.2,2,0.3
							c0.5,0.1,2.1,0.5,3.4,0.3c1-0.2,2.1-0.6,2.5-0.8C23,13,24,12.9,24.9,12.2L24.9,12.2z"/>
						<path class="st8" d="M24.7,12.1c1.1-0.8,1-3.1,0.4-4c-0.7-1.1-1.5-1.5-2.2-1.8c-0.6-0.3-2-0.6-2.8-0.7C19,5.5,17.8,5.7,16.8,6
							c-1.1,0.3-3.2,1.2-3.9,2c-0.9,1-0.4,3.1,0.1,3.7c0.5,0.6,0.9,1.2,1.8,1.6c0.8,0.3,1.5,0.2,2,0.2c0.4,0.1,2,0.5,3.3,0.3
							c1-0.2,2.1-0.7,2.4-0.8C22.8,12.8,23.8,12.8,24.7,12.1L24.7,12.1z"/>
						<path class="st9" d="M24.5,12c1-0.7,1-3,0.4-3.9c-0.7-1.1-1.5-1.5-2.2-1.8C22.2,6,20.9,5.7,20,5.6c-1-0.1-2.3,0.1-3.3,0.4
							c-1.1,0.3-3.1,1.2-3.9,1.9c-0.9,0.9-0.4,3,0.1,3.6c0.4,0.5,0.8,1.2,1.7,1.6c0.8,0.3,1.5,0.1,1.9,0.2c0.4,0.1,2,0.6,3.2,0.3
							c1-0.2,2-0.7,2.3-0.9C22.7,12.7,23.6,12.6,24.5,12L24.5,12z"/>
						<path class="st10" d="M24.3,11.9c1-0.7,1-2.8,0.5-3.8c-0.7-1.1-1.5-1.4-2.1-1.7C22,6.1,20.9,5.8,20,5.7
							c-1-0.1-2.2,0.1-3.2,0.4C15.7,6.4,13.7,7.2,13,8c-0.8,0.9-0.4,2.9,0.1,3.5c0.4,0.5,0.8,1.2,1.7,1.5c0.8,0.3,1.4,0.1,1.9,0.2
							c0.4,0.1,1.9,0.6,3.2,0.4c1-0.2,2-0.7,2.3-0.9C22.5,12.5,23.4,12.5,24.3,11.9L24.3,11.9z"/>
						<path class="st11" d="M24.1,11.8c1-0.7,1-2.7,0.5-3.6c-0.6-1.1-1.4-1.4-2.1-1.7c-0.6-0.3-1.6-0.6-2.5-0.7
							c-1-0.1-2.2,0.1-3.2,0.4c-1.1,0.3-3.1,1.2-3.7,1.8c-0.8,0.8-0.4,2.7,0.1,3.4c0.4,0.5,0.7,1.2,1.6,1.5c0.8,0.3,1.4,0.1,1.8,0.2
							c0.4,0.1,1.8,0.6,3.1,0.4c1-0.2,1.9-0.7,2.2-0.9C22.3,12.4,23.2,12.4,24.1,11.8z"/>
						<path class="st12" d="M23.9,11.7c1-0.6,1-2.6,0.5-3.5c-0.6-1.1-1.4-1.4-2.1-1.7c-0.5-0.3-1.5-0.6-2.4-0.7
							c-0.9-0.1-2.2,0.1-3.1,0.3c-1.1,0.3-3,1.2-3.7,1.8c-0.7,0.8-0.5,2.6,0.1,3.3c0.4,0.5,0.6,1.1,1.6,1.4c0.8,0.3,1.4,0.1,1.8,0.2
							c0.4,0.1,1.7,0.7,3,0.4c1-0.2,1.9-0.8,2.1-0.9C22.1,12.2,23,12.3,23.9,11.7L23.9,11.7z"/>
						<path class="st13" d="M23.7,11.6c1-0.6,1-2.4,0.5-3.4c-0.6-1.1-1.4-1.3-2-1.6c-0.5-0.2-1.4-0.6-2.2-0.7
							c-0.9-0.1-2.1,0-3.1,0.3c-1.1,0.3-3,1.2-3.6,1.8c-0.7,0.7-0.5,2.5,0.1,3.2c0.4,0.4,0.6,1.1,1.5,1.4c0.8,0.2,1.4,0,1.8,0.1
							c0.4,0.1,1.6,0.7,2.9,0.5c1-0.2,1.8-0.8,2.1-0.9C22,12.1,22.8,12.1,23.7,11.6L23.7,11.6z"/>
						<path class="st14" d="M23.5,11.5c1-0.6,1-2.3,0.5-3.2c-0.6-1.1-1.4-1.3-2-1.6c-0.5-0.2-1.3-0.6-2.1-0.7c-0.9-0.1-2.1,0-3,0.3
							c-1.1,0.3-3,1.2-3.5,1.7c-0.6,0.7-0.5,2.4,0.1,3.1c0.4,0.4,0.5,1.1,1.5,1.4c0.7,0.2,1.3,0,1.7,0.1c0.4,0.1,1.5,0.7,2.8,0.5
							c1-0.2,1.7-0.8,2-0.9C21.8,11.9,22.6,12,23.5,11.5L23.5,11.5z"/>
						<path class="st15" d="M23.3,11.4c1-0.6,1-2.1,0.5-3.1c-0.6-1.1-1.4-1.3-2-1.5c-0.5-0.2-1.2-0.6-2-0.7c-0.8-0.1-2,0-3,0.3
							c-1,0.3-2.9,1.2-3.4,1.7c-0.6,0.6-0.6,2.2,0.1,3c0.3,0.4,0.5,1,1.4,1.3c0.7,0.2,1.3,0,1.7,0.1c0.4,0.1,1.5,0.8,2.8,0.6
							c1-0.2,1.7-0.8,2-1C21.6,11.8,22.4,11.9,23.3,11.4L23.3,11.4z"/>
						<path class="st16" d="M23.1,11.3c0.9-0.5,1-2,0.5-3c-0.6-1.2-1.3-1.2-2-1.5c-0.5-0.2-1.1-0.5-1.9-0.7c-0.8-0.2-2,0-2.9,0.2
							c-1,0.3-2.9,1.2-3.4,1.6c-0.6,0.6-0.6,2.1,0,2.9c0.3,0.4,0.4,1,1.4,1.3c0.7,0.2,1.3,0,1.6,0.1c0.4,0.1,1.4,0.8,2.7,0.6
							c1-0.2,1.6-0.8,1.9-1C21.4,11.6,22.3,11.8,23.1,11.3L23.1,11.3z"/>
						<path class="st17" d="M22.9,11.2c0.9-0.5,1-1.9,0.5-2.9c-0.6-1.2-1.3-1.2-1.9-1.5c-0.5-0.2-1-0.5-1.8-0.7
							c-0.8-0.2-2-0.1-2.9,0.2c-1,0.3-2.9,1.2-3.3,1.6c-0.5,0.5-0.6,2,0,2.8c0.3,0.4,0.3,1,1.3,1.2c0.7,0.2,1.3-0.1,1.6,0
							c0.4,0.1,1.3,0.8,2.6,0.6c1-0.2,1.6-0.9,1.8-1C21.2,11.5,22,11.6,22.9,11.2L22.9,11.2z"/>
						<path class="st18" d="M22.7,11.1c0.9-0.5,1-1.7,0.5-2.7c-0.5-1.2-1.3-1.2-1.9-1.4c-0.5-0.2-0.9-0.5-1.6-0.7
							c-0.7-0.2-1.9-0.1-2.8,0.2c-1,0.3-2.8,1.2-3.2,1.6c-0.5,0.5-0.6,1.9,0,2.7c0.3,0.3,0.3,0.9,1.2,1.2c0.7,0.2,1.3-0.1,1.6,0
							c0.4,0.1,1.2,0.9,2.5,0.7c1-0.2,1.5-0.9,1.8-1C21.1,11.3,21.9,11.5,22.7,11.1L22.7,11.1z"/>
						<path class="st19" d="M22.5,11c0.9-0.4,1-1.6,0.5-2.6c-0.5-1.2-1.3-1.1-1.9-1.4c-0.4-0.2-0.8-0.5-1.5-0.7
							c-0.7-0.2-1.9-0.1-2.8,0.2c-1,0.3-2.8,1.2-3.1,1.5c-0.4,0.4-0.7,1.8,0,2.6c0.2,0.3,0.2,0.9,1.2,1.1c0.7,0.2,1.2-0.1,1.5,0
							c0.4,0.1,1.1,0.9,2.4,0.7c1-0.2,1.5-0.9,1.7-1C20.9,11.1,21.7,11.4,22.5,11L22.5,11z"/>
						<path class="st20" d="M22.3,10.9c0.9-0.4,1-1.4,0.5-2.5C22.3,7.2,21.6,7.3,21,7c-0.4-0.2-0.7-0.5-1.4-0.7
							c-0.7-0.2-1.9-0.1-2.7,0.2c-1,0.3-2.8,1.2-3.1,1.5c-0.4,0.4-0.7,1.6,0,2.5c0.2,0.3,0.2,0.9,1.1,1.1c0.7,0.2,1.2-0.1,1.5,0
							c0.4,0.1,1,0.9,2.3,0.7c1-0.2,1.4-0.9,1.6-1.1C20.7,11,21.5,11.2,22.3,10.9L22.3,10.9z"/>
						<path class="st21" d="M22.1,10.8c0.8-0.4,1-1.3,0.5-2.4c-0.5-1.2-1.2-1-1.8-1.3c-0.4-0.2-0.6-0.5-1.3-0.7
							c-0.6-0.2-1.8-0.1-2.7,0.1c-1,0.3-2.7,1.2-3,1.4c-0.3,0.3-0.7,1.5,0,2.4c0.2,0.2,0.1,0.9,1.1,1.1c0.7,0.1,1.2-0.2,1.4-0.1
							c0.3,0.1,1,1,2.2,0.8c1-0.2,1.4-1,1.6-1.1C20.5,10.9,21.3,11.1,22.1,10.8z"/>
					</g>
					<path class="st24" d="M21,6.8c0,0-0.1,0-0.1,0c-0.2-0.7-0.9-1.2-1.7-1.2c-0.2,0-0.5,0-0.7,0.1c-0.2-0.7-0.9-1.1-1.6-1.1
						s-1.3,0.4-1.6,1.1c-0.1,0-0.2,0-0.3,0c-0.8,0-1.4,0.6-1.5,1.3c-0.1,0-0.2,0-0.3,0c-0.9,0-1.7,0.8-1.7,1.7s0.8,1.7,1.7,1.7
						c0,0,0,0,0,0c0.2,0.7,0.8,1.2,1.5,1.2c0.6,0,1.1-0.3,1.3-0.8c0.4,0.6,1.1,1.1,1.9,1.1c0.9,0,1.6-0.5,2-1.3
						c0.3,0.2,0.6,0.3,1,0.3c1.1,0,2-0.9,2-2S22.2,6.8,21,6.8L21,6.8z"/>
					
						<linearGradient id="SVGID_00000065770445006123310480000011939809437118987433_" gradientUnits="userSpaceOnUse" x1="11.67" y1="12.3679" x2="23.11" y2="12.3679" gradientTransform="matrix(1 0 0 -1 0 20.6929)">
						<stop  offset="0" style="stop-color:#076BBA"/>
						<stop  offset="1" style="stop-color:#0060AB"/>
					</linearGradient>
					<path style="fill:url(#SVGID_00000065770445006123310480000011939809437118987433_);" d="M21.1,6.9c0,0-0.1,0-0.1,0
						c-0.2-0.7-0.9-1.2-1.7-1.2c-0.2,0-0.5,0.1-0.7,0.1c-0.2-0.7-0.9-1.1-1.6-1.1s-1.3,0.4-1.6,1.1c-0.1,0-0.2,0-0.3,0
						c-0.8,0-1.4,0.6-1.5,1.3c-0.1,0-0.2,0-0.3,0c-0.9,0-1.7,0.8-1.7,1.7s0.8,1.7,1.7,1.7c0,0,0,0,0,0c0.2,0.7,0.8,1.2,1.5,1.2
						c0.6,0,1.1-0.3,1.3-0.8c0.4,0.6,1.1,1.1,1.9,1.1c0.9,0,1.6-0.5,2-1.3c0.3,0.2,0.6,0.3,1,0.3c1.1,0,2-0.9,2-2S22.2,6.9,21.1,6.9
						L21.1,6.9z"/>
				</g>
				<g>
					<g>
						<path class="st0" d="M24.8,9.2c1.4-1.5,1.3-4.5,0.5-5.6c-1-1.4-2.3-2-3.3-2.4c-1-0.5-2.3-0.9-3.5-1.1C17-0.2,15.4,0.5,14,0.8
							c-1.5,0.4-6.1,2-7.5,3.5c-0.8,0.8-1,1.9-0.8,2.9c0.1,1.1,0.6,2.1,0.8,2.4c0.8,1,3.6,1.9,4.8,2.5c1.1,0.5,2.1,0.5,2.9,0.6
							c0.6,0,2.4,0,4.1-0.4c1.2-0.2,2.3-1.2,2.9-1.4C21.8,10.7,23.7,10.3,24.8,9.2L24.8,9.2z"/>
						<path class="st1" d="M24.5,9.1c1.4-1.4,1.3-4.4,0.6-5.5c-1-1.4-2.3-1.9-3.2-2.4c-0.9-0.5-2.3-0.9-3.5-1.1
							C17-0.1,15.4,0.5,14,0.9c-1.5,0.4-6.1,1.9-7.4,3.4c-0.8,0.8-1,1.9-0.8,2.9c0.2,1.1,0.7,2.1,0.9,2.3c0.8,0.9,3.5,1.9,4.7,2.4
							c1.1,0.5,2.1,0.5,2.9,0.5c0.6,0.1,2.3,0.1,4.1-0.3c1.2-0.2,2.3-1.2,2.9-1.4C21.6,10.5,23.5,10.2,24.5,9.1L24.5,9.1z"/>
						<path class="st2" d="M24.3,9.1c1.4-1.4,1.4-4.3,0.6-5.4c-1-1.4-2.2-1.9-3.2-2.3c-0.9-0.4-2.2-0.9-3.4-1.1C17,0,15.4,0.6,14,1
							c-1.5,0.4-6.1,1.9-7.4,3.3c-0.8,0.8-1,1.9-0.8,2.9c0.2,1.1,0.7,2,1,2.3c0.8,0.8,3.4,1.9,4.5,2.4c1.1,0.5,2,0.4,2.8,0.5
							c0.6,0.1,2.3,0.1,4-0.2c1.2-0.2,2.3-1.2,2.8-1.4C21.5,10.4,23.2,10.1,24.3,9.1L24.3,9.1z"/>
						<path class="st3" d="M24.1,9c1.4-1.3,1.3-4.2,0.6-5.3c-1-1.4-2.2-1.8-3.1-2.3c-0.9-0.4-2.1-0.9-3.3-1.1
							C17,0.1,15.4,0.7,14.1,1C12.6,1.5,8,3,6.7,4.3C5.9,5.1,5.7,6.2,5.9,7.1c0.2,1.1,0.8,1.9,1.1,2.2c0.8,0.8,3.2,1.8,4.4,2.3
							c1.1,0.5,2,0.4,2.8,0.5c0.6,0.1,2.2,0.2,4-0.2c1.2-0.3,2.2-1.2,2.8-1.5S23,10,24.1,9z"/>
						<path class="st4" d="M23.9,8.9c1.4-1.3,1.4-4.1,0.6-5.1c-1-1.4-2.1-1.8-3-2.2c-0.9-0.4-2-0.9-3.2-1.1
							c-1.4-0.2-2.8,0.3-4.2,0.7C12.7,1.5,8,3.1,6.7,4.3C6,5.1,5.8,6.1,6,7.1c0.2,1,0.8,1.9,1.1,2.1c0.8,0.7,3.1,1.8,4.3,2.3
							c1.1,0.5,2,0.4,2.7,0.4c0.6,0.1,2.1,0.2,3.9-0.1c1.2-0.3,2.2-1.2,2.7-1.5C21.3,10.1,22.8,9.9,23.9,8.9L23.9,8.9z"/>
						<path class="st5" d="M23.7,8.8c1.4-1.2,1.4-4,0.6-5c-0.9-1.3-2.1-1.7-3-2.2c-0.9-0.4-1.9-0.8-3.1-1c-1.3-0.3-2.8,0.2-4.1,0.6
							C12.7,1.6,8,3.1,6.8,4.3C6,5,5.8,6.1,6,7c0.2,1,0.9,1.8,1.2,2.1c0.8,0.7,3,1.7,4.2,2.2c1.1,0.4,1.9,0.3,2.7,0.4
							c0.6,0.1,2.1,0.3,3.9-0.1c1.2-0.3,2.2-1.2,2.7-1.5C21.1,9.9,22.6,9.8,23.7,8.8L23.7,8.8z"/>
						<path class="st6" d="M23.5,8.7c1.3-1.2,1.4-3.8,0.7-4.9c-0.9-1.3-2-1.7-2.9-2.1c-0.8-0.4-1.8-0.8-3-1c-1.3-0.3-2.7,0.2-4,0.6
							c-1.4,0.4-6.2,1.9-7.3,3C6.1,5,5.9,6.1,6.1,7c0.2,1,0.9,1.7,1.3,2c0.8,0.6,2.8,1.7,4,2.2c1.1,0.4,1.9,0.3,2.6,0.4
							c0.6,0.1,2,0.4,3.8-0.1c1.2-0.3,2.1-1.2,2.6-1.5C21,9.7,22.4,9.6,23.5,8.7L23.5,8.7z"/>
						<path class="st7" d="M23.3,8.6c1.3-1.1,1.4-3.7,0.7-4.8c-0.9-1.3-2-1.6-2.8-2.1c-0.8-0.4-1.7-0.8-2.9-1
							c-1.2-0.3-2.6,0.2-3.9,0.6c-1.4,0.4-6.2,1.9-7.3,3C6.2,5,6,6.1,6.2,6.9c0.2,1,1,1.6,1.4,1.9c0.8,0.6,2.7,1.6,3.9,2.1
							c1,0.4,1.9,0.2,2.5,0.3c0.6,0.1,1.9,0.4,3.8,0C19,11,19.9,10,20.4,9.8C20.9,9.6,22.2,9.5,23.3,8.6L23.3,8.6z"/>
						<path class="st8" d="M23,8.5c1.3-1.1,1.4-3.6,0.7-4.6c-0.9-1.3-1.9-1.6-2.8-2c-0.8-0.4-1.6-0.8-2.8-1
							c-1.2-0.3-2.5,0.1-3.8,0.5C12.9,1.8,8.1,3.3,7,4.3C6.2,5,6,6,6.3,6.9c0.3,1,1,1.6,1.4,1.9c0.7,0.5,2.6,1.6,3.8,2.1
							c1,0.4,1.8,0.2,2.5,0.3c0.6,0.1,1.8,0.5,3.7,0.1c1.2-0.3,2.1-1.3,2.5-1.5C20.7,9.4,22,9.4,23,8.5L23,8.5z"/>
						<path class="st9" d="M22.8,8.4c1.3-1,1.4-3.5,0.7-4.5c-0.8-1.3-1.9-1.5-2.7-1.9c-0.8-0.4-1.5-0.8-2.7-1
							c-1.2-0.3-2.4,0.1-3.7,0.5C12.9,1.9,8.1,3.4,7,4.3C6.3,5,6.1,6,6.4,6.8c0.3,0.9,1,1.6,1.5,1.8c0.6,0.6,2.5,1.5,3.7,2
							c1,0.4,1.8,0.2,2.4,0.3c0.6,0.1,1.8,0.6,3.7,0.1c1.2-0.3,2-1.3,2.5-1.5C20.6,9.2,21.8,9.3,22.8,8.4L22.8,8.4z"/>
						<path class="st10" d="M22.6,8.3C23.9,7.4,24,5,23.3,4c-0.8-1.2-1.8-1.5-2.7-1.9c-0.8-0.3-1.5-0.7-2.7-1
							c-1.1-0.3-2.4,0.1-3.7,0.5C13,2,8.1,3.4,7.1,4.3C6.3,4.9,6.2,6,6.4,6.8C6.8,7.7,7.5,8.3,8,8.5c0.6,0.5,2.3,1.5,3.5,1.9
							c1,0.4,1.8,0.1,2.4,0.2c0.6,0.1,1.7,0.6,3.6,0.2c1.2-0.3,2-1.3,2.4-1.5C20.5,9.1,21.6,9.2,22.6,8.3L22.6,8.3z"/>
						<path class="st11" d="M22.4,8.2C23.6,7.3,23.8,5,23.1,4c-0.8-1.2-1.8-1.5-2.6-1.8c-0.7-0.3-1.4-0.7-2.6-1
							c-1.1-0.3-2.3,0-3.6,0.5C13,2,8.1,3.5,7.2,4.3C6.4,4.9,6.2,6,6.5,6.8c0.3,0.9,1.1,1.5,1.7,1.6c0.6,0.5,2.2,1.4,3.4,1.9
							c1,0.3,1.7,0.1,2.3,0.2c0.5,0.1,1.6,0.7,3.6,0.2c1.2-0.3,2-1.3,2.3-1.5C20.3,8.9,21.4,9,22.4,8.2L22.4,8.2z"/>
						<path class="st12" d="M22.2,8.2C23.4,7.3,23.6,5,22.9,4c-0.8-1.2-1.7-1.4-2.6-1.8c-0.7-0.3-1.3-0.7-2.5-1
							c-1.1-0.3-2.2,0-3.5,0.4c-1.3,0.4-6.3,1.9-7.2,2.6C6.4,4.9,6.3,5.9,6.6,6.7c0.3,0.9,1.2,1.4,1.7,1.6c0.6,0.4,2.1,1.4,3.3,1.8
							c1,0.3,1.7,0.1,2.2,0.2s1.5,0.8,3.5,0.3c1.2-0.3,1.9-1.3,2.3-1.5C20.2,8.8,21.1,8.9,22.2,8.2L22.2,8.2z"/>
						<path class="st13" d="M22,8.1c1.2-0.8,1.4-3,0.8-4c-0.7-1.2-1.7-1.4-2.5-1.7c-0.7-0.3-1.2-0.7-2.4-1c-1-0.3-2.1,0-3.4,0.4
							c-1.3,0.4-6.3,1.9-7.2,2.5C6.5,4.9,6.3,5.9,6.7,6.7C7,7.5,7.9,8,8.5,8.2c0.6,0.4,2,1.4,3.2,1.8c0.9,0.3,1.7,0,2.2,0.1
							c0.5,0.1,1.4,0.8,3.5,0.3c1.2-0.3,1.9-1.3,2.2-1.5C20,8.6,20.9,8.8,22,8.1L22,8.1z"/>
						<path class="st14" d="M21.8,8c1.2-0.8,1.4-2.9,0.8-3.9c-0.7-1.2-1.6-1.3-2.4-1.7c-0.7-0.3-1.1-0.6-2.3-1c-1-0.3-2.1,0-3.3,0.4
							c-1.3,0.4-6.3,1.9-7.1,2.5C6.6,4.8,6.4,5.9,6.8,6.6C7.1,7.5,8,7.8,8.6,8.1c0.6,0.3,1.8,1.3,3,1.7c0.9,0.3,1.6,0,2.1,0.1
							c0.5,0.1,1.4,0.9,3.5,0.4c1.2-0.3,1.9-1.3,2.2-1.5C19.9,8.4,20.7,8.7,21.8,8L21.8,8z"/>
						<path class="st15" d="M21.5,7.9c1.2-0.7,1.4-2.8,0.8-3.8C21.6,3,20.8,2.9,20,2.5c-0.6-0.3-1-0.6-2.2-1c-1-0.3-2-0.1-3.2,0.3
							c-1.3,0.4-6.4,1.8-7.1,2.4C6.6,4.8,6.5,5.8,6.8,6.6C7.2,7.4,8.1,7.7,8.8,8c0.6,0.2,1.7,1.3,2.9,1.6c0.9,0.3,1.6-0.1,2.1,0.1
							c0.5,0.1,1.3,0.9,3.4,0.4c1.2-0.3,1.8-1.4,2.2-1.5C19.8,8.3,20.5,8.6,21.5,7.9L21.5,7.9z"/>
						<path class="st16" d="M21.3,7.8c1.1-0.7,1.4-2.7,0.8-3.6C21.5,3,20.6,3,19.8,2.6c-0.6-0.3-0.9-0.6-2.1-0.9
							c-0.9-0.3-1.9-0.1-3.2,0.3c-1.3,0.4-6.4,1.8-7.1,2.3C6.7,4.8,6.5,5.8,6.9,6.5c0.4,0.8,1.4,1.1,2,1.3c0.5,0.2,1.6,1.2,2.8,1.6
							c0.9,0.3,1.6-0.1,2,0c0.5,0.1,1.2,1,3.4,0.5c1.3-0.3,1.8-1.4,2.1-1.5C19.6,8.1,20.3,8.4,21.3,7.8L21.3,7.8z"/>
						<path class="st17" d="M21.1,7.7c1.1-0.7,1.4-2.5,0.8-3.5c-0.6-1.1-1.5-1.2-2.3-1.5c-0.6-0.3-0.9-0.6-2-0.9
							c-0.9-0.3-1.8-0.1-3.1,0.3c-1.3,0.4-6.4,1.8-7.1,2.2C6.7,4.8,6.6,5.8,7,6.5c0.4,0.8,1.4,1,2.1,1.2c0.5,0.2,1.4,1.2,2.6,1.5
							c0.9,0.2,1.5-0.1,1.9,0c0.5,0.1,1.1,1.1,3.3,0.5c1.3-0.3,1.8-1.4,2-1.5C19.5,8,20,8.3,21.1,7.7L21.1,7.7z"/>
						<path class="st18" d="M20.9,7.6C22,7,22.3,5.2,21.8,4.2c-0.6-1.1-1.4-1.1-2.2-1.5c-0.6-0.3-0.8-0.6-1.9-0.9
							c-0.9-0.3-1.8-0.2-3,0.2c-1.3,0.4-6.4,1.8-7.1,2.2C6.8,4.7,6.7,5.8,7.1,6.5c0.4,0.8,1.4,1,2.2,1.2c0.5,0.1,1.3,1.1,2.5,1.5
							c0.9,0.2,1.5-0.2,1.9,0c0.5,0.2,1.1,1.1,3.3,0.6c1.3-0.3,1.7-1.4,2-1.5C19.4,7.8,19.8,8.2,20.9,7.6L20.9,7.6z"/>
						<path class="st19" d="M20.7,7.5c1.1-0.6,1.4-2.3,0.9-3.3c-0.6-1.1-1.4-1.1-2.1-1.4c-0.6-0.2-0.7-0.5-1.9-0.9
							c-0.8-0.3-1.7-0.2-2.9,0.2c-1.3,0.4-6.5,1.8-7,2.1C6.8,4.7,6.7,5.7,7.1,6.4c0.5,0.7,1.5,0.9,2.2,1.1c0.5,0.1,1.2,1.1,2.4,1.4
							c0.9,0.2,1.5-0.2,1.8-0.1c0.5,0.2,1,1.2,3.2,0.6c1.3-0.3,1.7-1.4,1.9-1.5C19.2,7.6,19.6,8.1,20.7,7.5z"/>
						<path class="st20" d="M20.5,7.5c1.1-0.5,1.4-2.2,0.9-3.1c-0.6-1-1.3-1-2.1-1.4c-0.5-0.2-0.6-0.5-1.8-0.9
							c-0.8-0.3-1.6-0.2-2.8,0.2c-1.2,0.4-6.5,1.8-7,2C6.9,4.7,6.8,5.7,7.2,6.4c0.5,0.7,1.5,0.9,2.3,1c0.4,0.1,1.1,1.1,2.3,1.3
							c0.9,0.2,1.4-0.2,1.8-0.1c0.4,0.2,0.9,1.2,3.2,0.7C18,9,18.4,7.9,18.6,7.7C19.1,7.5,19.4,7.9,20.5,7.5L20.5,7.5z"/>
						<path class="st21" d="M20.2,7.4c1.1-0.5,1.4-2.1,0.9-3c-0.5-1-1.3-1-2-1.3c-0.5-0.2-0.5-0.5-1.7-0.9c-0.8-0.3-1.5-0.3-2.7,0.2
							c-1.2,0.5-6.5,1.8-7,2C6.9,4.6,6.8,5.7,7.3,6.3C7.8,7,8.9,7.2,9.7,7.3c0.4,0.1,0.9,1,2.1,1.3c0.8,0.2,1.4-0.3,1.7-0.1
							c0.4,0.2,0.9,1.3,3.1,0.7c1.3-0.3,1.6-1.4,1.8-1.6C19,7.3,19.2,7.8,20.2,7.4L20.2,7.4z"/>
					</g>
					<path class="st27" d="M19.4,2.7c-0.1,0-0.2,0-0.3,0c-0.3-1-1.3-1.7-2.4-1.7c-0.5,0-1,0.1-1.4,0.4c-0.3-0.8-1-1.3-1.9-1.3
						c-1,0-1.8,0.7-1.9,1.6c-0.3-0.2-0.6-0.3-1-0.3C9.7,1.4,9,2,8.9,2.9c0,0,0,0,0,0c-1.3,0-2.3,1-2.3,2.4s1,2.3,2.3,2.3
						c0.4,0,0.8-0.1,1.1-0.3c0.1,0.8,0.8,1.4,1.7,1.4c0.7,0,1.2-0.4,1.5-0.9C13.7,8.5,14.6,9,15.6,9c1.3,0,2.4-0.8,2.7-2
						c0.3,0.2,0.7,0.2,1,0.2c1.2,0,2.3-1,2.3-2.3S20.6,2.8,19.4,2.7L19.4,2.7z"/>
					<path class="st28" d="M19.4,2.8c-0.1,0-0.2,0-0.3,0c-0.3-1-1.3-1.7-2.4-1.7c-0.5,0-1,0.1-1.4,0.4c-0.3-0.8-1-1.3-1.9-1.3
						c-1,0-1.8,0.7-1.9,1.6c-0.3-0.2-0.6-0.3-1-0.3C9.8,1.5,9.1,2.1,9,2.9h0c-1.3,0-2.3,1-2.3,2.4s1,2.3,2.3,2.3
						c0.4,0,0.8-0.1,1.1-0.3c0.1,0.8,0.8,1.4,1.7,1.4c0.7,0,1.2-0.4,1.5-1c0.5,0.8,1.4,1.3,2.4,1.3c1.3,0,2.4-0.8,2.7-2
						c0.3,0.2,0.7,0.2,1,0.2c1.2,0,2.3-1,2.3-2.3S20.7,2.8,19.4,2.8L19.4,2.8z"/>
				</g>
				<g>
					<g>
						<path class="st0" d="M15.8,12.4c0.7-1.1,0.4-3.1-0.1-3.8c-0.7-0.9-1.6-1.3-2.2-1.7S11.5,6,10.7,6C9.6,6,9,6.4,8.1,6.6
							c-1,0.3-2.6,1.8-3.5,2.8c-1.1,1.2-0.8,2.9-0.5,3.2c0.5,0.6,1.1,1.3,1.9,1.6c0.7,0.4,1.4,0.3,1.9,0.4c0.4,0,0.9,0.2,2,0
							c0.8-0.2,1.1-0.2,1.5-0.4C12.2,14,14.9,13.7,15.8,12.4L15.8,12.4z"/>
						<path class="st1" d="M15.6,12.3c0.7-1.1,0.4-3-0.1-3.8c-0.7-0.9-1.6-1.3-2.2-1.6c-0.6-0.3-1.9-0.9-2.7-0.9
							C9.6,6,9,6.4,8.1,6.7c-1,0.3-2.6,1.8-3.4,2.7c-1,1.1-0.8,2.8-0.5,3.2c0.5,0.6,1.1,1.2,1.8,1.6c0.7,0.3,1.4,0.3,1.9,0.3
							c0.4,0,0.9,0.2,2,0c0.8-0.2,1.1-0.2,1.5-0.3C12.2,13.9,14.7,13.6,15.6,12.3z"/>
						<path class="st2" d="M15.5,12.3c0.7-1,0.5-2.9,0-3.6c-0.7-0.9-1.6-1.3-2.2-1.6c-0.6-0.3-1.9-0.9-2.6-0.9
							C9.6,6.1,9,6.5,8.1,6.7C7.1,7,5.5,8.5,4.7,9.4c-1,1.1-0.8,2.7-0.5,3.1C4.6,13.1,5.2,13.7,6,14c0.8,0.3,1.3,0.3,1.9,0.3
							c0.4,0,0.9,0.2,2,0c0.8-0.2,1.2-0.2,1.5-0.3C12.1,13.8,14.6,13.5,15.5,12.3L15.5,12.3z"/>
						<path class="st3" d="M15.3,12.2c0.7-1,0.5-2.8,0-3.6c-0.6-0.9-1.6-1.3-2.2-1.6c-0.6-0.3-1.8-0.9-2.6-0.9c-1,0-1.7,0.3-2.5,0.6
							C7.1,7,5.6,8.5,4.8,9.4c-1,1-0.9,2.7-0.6,3c0.5,0.6,1,1.2,1.8,1.5c0.8,0.3,1.3,0.2,1.8,0.3c0.4,0,0.9,0.2,2,0
							c0.8-0.2,1.2-0.2,1.5-0.3C12.1,13.7,14.4,13.4,15.3,12.2z"/>
						<path class="st4" d="M15.2,12.2c0.7-0.9,0.6-2.7,0.1-3.4c-0.6-0.9-1.6-1.3-2.1-1.5c-0.6-0.3-1.8-0.9-2.5-0.9
							c-1,0-1.6,0.3-2.5,0.6C7.1,7.1,5.6,8.5,4.8,9.4c-0.9,1-0.9,2.6-0.6,3c0.4,0.6,1,1.1,1.8,1.4C6.8,14.1,7.3,14,7.8,14
							c0.4,0,0.9,0.2,2,0c0.8-0.1,1.2-0.2,1.5-0.3C12.1,13.5,14.3,13.3,15.2,12.2L15.2,12.2z"/>
						<path class="st5" d="M15,12.1c0.7-0.9,0.6-2.6,0.1-3.4c-0.6-0.9-1.5-1.2-2.1-1.5c-0.6-0.3-1.7-0.9-2.5-0.9
							c-1,0-1.6,0.3-2.5,0.5C7.1,7.1,5.6,8.5,4.9,9.3c-0.9,0.9-0.9,2.5-0.6,2.9c0.4,0.5,0.9,1.1,1.7,1.4c0.8,0.3,1.3,0.1,1.8,0.2
							c0.4,0.1,0.9,0.2,2,0c0.8-0.1,1.2-0.3,1.5-0.3C12,13.4,14.2,13.2,15,12.1L15,12.1z"/>
						<path class="st6" d="M14.9,12.1c0.7-0.9,0.6-2.5,0.2-3.3c-0.6-0.9-1.5-1.2-2.1-1.5c-0.5-0.3-1.7-0.9-2.4-0.9
							C9.5,6.3,8.9,6.6,8,6.9C7.1,7.1,5.6,8.5,4.9,9.3c-0.8,0.9-0.9,2.4-0.6,2.8c0.4,0.5,0.9,1.1,1.7,1.4c0.8,0.3,1.3,0.1,1.8,0.2
							c0.4,0.1,0.9,0.2,2,0c0.8-0.1,1.2-0.3,1.5-0.3C12,13.2,14,13.1,14.9,12.1L14.9,12.1z"/>
						<path class="st7" d="M14.7,12c0.7-0.8,0.7-2.4,0.2-3.2c-0.6-0.9-1.5-1.2-2.1-1.5c-0.5-0.3-1.6-0.9-2.4-0.9
							C9.5,6.4,8.8,6.7,8,6.9C7.1,7.2,5.6,8.6,5,9.3c-0.8,0.9-1,2.3-0.6,2.8c0.4,0.5,0.9,1.1,1.7,1.3c0.8,0.2,1.3,0.1,1.7,0.1
							c0.4,0.1,0.9,0.2,2,0c0.8-0.1,1.2-0.3,1.5-0.3C11.9,13.1,13.9,13,14.7,12L14.7,12z"/>
						<path class="st8" d="M14.5,12c0.7-0.8,0.7-2.3,0.3-3.1c-0.6-0.9-1.5-1.2-2.1-1.4c-0.5-0.2-1.6-0.9-2.3-1C9.5,6.4,8.8,6.7,8,7
							C7,7.2,5.7,8.6,5,9.3c-0.8,0.8-1,2.2-0.6,2.7c0.4,0.5,0.8,1,1.6,1.3c0.8,0.2,1.3,0,1.7,0.1c0.4,0.1,0.9,0.2,2,0
							c0.8-0.1,1.2-0.3,1.5-0.3C11.9,13,13.7,12.9,14.5,12L14.5,12z"/>
						<path class="st9" d="M14.4,11.9c0.7-0.8,0.8-2.2,0.3-3c-0.6-1-1.5-1.1-2.1-1.4c-0.5-0.2-1.5-0.9-2.2-1C9.5,6.5,8.8,6.7,7.9,7
							C7,7.2,5.7,8.6,5.1,9.3c-0.7,0.8-1,2.1-0.6,2.6c0.4,0.4,0.8,1,1.6,1.2c0.8,0.2,1.3,0,1.7,0.1c0.4,0.1,0.9,0.2,1.9,0
							c0.8-0.1,1.2-0.3,1.5-0.3C11.8,12.8,13.6,12.8,14.4,11.9z"/>
						<path class="st10" d="M14.2,11.9c0.7-0.7,0.8-2.1,0.4-2.9c-0.6-1-1.5-1.1-2.1-1.4c-0.5-0.2-1.5-0.9-2.2-1
							C9.5,6.5,8.7,6.8,7.9,7C7,7.3,5.7,8.6,5.1,9.2c-0.7,0.7-1.1,2.1-0.6,2.6c0.3,0.4,0.8,1,1.6,1.2c0.8,0.2,1.3,0,1.7,0
							c0.4,0.1,0.9,0.2,1.9,0c0.8-0.1,1.2-0.3,1.5-0.3C11.8,12.7,13.4,12.7,14.2,11.9L14.2,11.9z"/>
						<path class="st11" d="M14.1,11.8c0.7-0.7,0.9-2,0.4-2.8c-0.5-1-1.5-1.1-2.1-1.4c-0.5-0.2-1.4-0.9-2.1-1C9.5,6.6,8.7,6.8,7.9,7
							C7,7.3,5.7,8.6,5.2,9.2c-0.7,0.7-1.1,2-0.6,2.5c0.3,0.4,0.8,0.9,1.5,1.1c0.8,0.2,1.3-0.1,1.6,0c0.4,0.1,0.9,0.2,1.9,0.1
							c0.8-0.1,1.3-0.3,1.5-0.3C11.7,12.6,13.3,12.6,14.1,11.8L14.1,11.8z"/>
						<path class="st12" d="M13.9,11.8c0.7-0.7,0.9-1.9,0.5-2.7c-0.5-1-1.5-1.1-2.1-1.3c-0.5-0.2-1.4-0.9-2.1-1
							C9.5,6.6,8.7,6.8,7.9,7.1C7,7.3,5.8,8.7,5.2,9.2c-0.6,0.6-1.1,1.9-0.7,2.4c0.3,0.4,0.7,0.9,1.5,1.1s1.2-0.1,1.6,0
							c0.3,0.1,0.8,0.2,1.9,0.1c0.8-0.1,1.3-0.3,1.5-0.3C11.7,12.4,13.1,12.5,13.9,11.8z"/>
						<path class="st13" d="M13.8,11.7c0.7-0.6,1-1.8,0.5-2.6c-0.5-1-1.5-1.1-2-1.3c-0.4-0.2-1.3-0.9-2-1C9.5,6.7,8.7,6.9,7.9,7.1
							C7,7.4,5.8,8.7,5.3,9.2C4.7,9.8,4.2,11,4.6,11.6c0.3,0.4,0.7,0.9,1.5,1s1.2-0.1,1.6-0.1s0.9,0.2,1.9,0.1
							c0.8-0.1,1.3-0.3,1.5-0.3C11.7,12.3,13,12.4,13.8,11.7L13.8,11.7z"/>
						<path class="st14" d="M13.6,11.7c0.7-0.6,1-1.7,0.6-2.5c-0.5-1-1.5-1-2-1.3c-0.4-0.2-1.3-0.9-2-1.1C9.5,6.8,8.6,6.9,7.8,7.2
							c-0.9,0.3-2,1.5-2.5,2c-0.5,0.6-1.2,1.7-0.7,2.3c0.3,0.4,0.7,0.8,1.5,1s1.2-0.2,1.5-0.1c0.3,0.1,0.9,0.2,1.9,0.1
							c0.8-0.1,1.3-0.3,1.5-0.3C11.6,12.2,12.8,12.3,13.6,11.7L13.6,11.7z"/>
						<path class="st15" d="M13.5,11.6c0.7-0.5,1.1-1.6,0.6-2.4c-0.5-1-1.5-1-2-1.3c-0.4-0.2-1.2-0.9-1.9-1.1C9.5,6.8,8.6,7,7.8,7.2
							c-0.9,0.3-2,1.5-2.4,2c-0.5,0.5-1.2,1.6-0.7,2.2c0.3,0.3,0.6,0.8,1.4,0.9c0.8,0.1,1.2-0.2,1.5-0.1c0.3,0.1,0.8,0.2,1.9,0.1
							c0.8-0.1,1.3-0.3,1.5-0.3C11.6,12,12.7,12.2,13.5,11.6L13.5,11.6z"/>
						<path class="st16" d="M13.3,11.6c0.7-0.5,1.1-1.4,0.7-2.3c-0.5-1-1.5-1-2-1.2c-0.4-0.2-1.2-0.9-1.9-1.1C9.5,6.9,8.6,7,7.8,7.2
							C7,7.5,5.9,8.7,5.5,9.2C5,9.6,4.2,10.7,4.8,11.3c0.3,0.3,0.6,0.8,1.4,0.9C7,12.3,7.4,12,7.7,12.1c0.3,0.1,0.8,0.2,1.9,0.1
							c0.9-0.1,1.3-0.3,1.5-0.3C11.6,11.9,12.6,12.1,13.3,11.6L13.3,11.6z"/>
						<path class="st17" d="M13.2,11.5c0.7-0.5,1.1-1.3,0.7-2.2c-0.5-1-1.5-1-2-1.2c-0.4-0.2-1.1-0.9-1.8-1.1s-1.6,0-2.3,0.2
							C6.9,7.5,5.9,8.8,5.5,9.2c-0.4,0.4-1.2,1.5-0.7,2.1c0.2,0.3,0.6,0.8,1.4,0.8c0.8,0.1,1.2-0.3,1.5-0.2C8,12,8.5,12.2,9.6,12
							c0.9-0.1,1.3-0.3,1.5-0.3C11.5,11.8,12.4,12,13.2,11.5L13.2,11.5z"/>
						<path class="st18" d="M13,11.5c0.7-0.4,1.2-1.2,0.8-2.1c-0.5-1-1.5-0.9-2-1.2c-0.4-0.2-1.1-1-1.7-1.1C9.5,7,8.5,7.1,7.8,7.3
							C6.9,7.6,5.9,8.8,5.6,9.1c-0.4,0.4-1.3,1.4-0.7,2.1c0.2,0.3,0.5,0.7,1.3,0.8C7,12,7.4,11.6,7.6,11.7c0.3,0.1,0.8,0.2,1.9,0.1
							c0.9-0.1,1.3-0.4,1.5-0.3C11.5,11.7,12.3,11.9,13,11.5z"/>
						<path class="st19" d="M12.9,11.4c0.7-0.4,1.2-1.1,0.8-2c-0.4-1-1.5-0.9-2-1.1c-0.4-0.2-1.1-1-1.7-1.1C9.5,7,8.5,7.1,7.8,7.3
							C6.9,7.6,5.9,8.8,5.6,9.1c-0.4,0.4-1.3,1.3-0.7,2c0.2,0.2,0.5,0.7,1.3,0.7c0.8,0.1,1.2-0.4,1.4-0.3c0.3,0.1,0.8,0.2,1.9,0.1
							c0.9-0.1,1.3-0.4,1.5-0.3C11.4,11.5,12.2,11.8,12.9,11.4L12.9,11.4z"/>
						<path class="st20" d="M12.7,11.4c0.7-0.4,1.3-1,0.9-1.9c-0.4-1-1.5-0.9-2-1.1c-0.4-0.2-1-1-1.6-1.1C9.5,7.1,8.5,7.2,7.7,7.4
							C6.9,7.6,5.9,8.8,5.7,9.1C5.4,9.4,4.3,10.3,4.9,11c0.2,0.2,0.4,0.7,1.3,0.7c0.8,0,1.2-0.4,1.4-0.3c0.3,0.1,0.8,0.2,1.9,0.1
							c0.9-0.1,1.4-0.4,1.5-0.3C11.4,11.4,12,11.7,12.7,11.4L12.7,11.4z"/>
						<path class="st21" d="M12.6,11.3c0.7-0.3,1.3-0.9,0.9-1.8c-0.4-1-1.4-0.9-1.9-1.1c-0.3-0.1-1-1-1.6-1.1
							C9.4,7.2,8.4,7.2,7.7,7.4C6.9,7.7,6,8.9,5.7,9.1C5.5,9.3,4.4,10.2,5,10.9c0.2,0.2,0.4,0.6,1.2,0.6c0.8,0,1.2-0.4,1.4-0.3
							c0.3,0.1,0.8,0.2,1.9,0.1c0.9-0.1,1.4-0.4,1.5-0.3C11.3,11.2,11.8,11.6,12.6,11.3L12.6,11.3z"/>
					</g>
					<path class="st29" d="M12,8.4c-0.2,0-0.4,0-0.6,0.1C11.2,7.3,10.2,6.4,9,6.3C7.8,6.2,6.7,7,6.3,8.1l0,0C5.3,8,4.4,8.8,4.4,9.8
						s0.7,1.9,1.8,1.9c0.5,0,1-0.2,1.4-0.5c0.4,0.2,0.8,0.3,1.2,0.4c0.8,0,1.5-0.3,2-0.8c0.3,0.3,0.7,0.6,1.1,0.6
						c0.9,0,1.6-0.6,1.6-1.4C13.5,9.1,12.8,8.4,12,8.4L12,8.4z"/>
					<path class="st30" d="M12.1,8.4c-0.2,0-0.4,0-0.6,0.1c-0.2-1.2-1.2-2.1-2.5-2.1C7.9,6.2,6.8,7,6.4,8.1l0,0
						C5.4,8,4.5,8.8,4.5,9.8s0.7,1.9,1.8,1.9c0.5,0,1-0.2,1.4-0.5c0.4,0.2,0.8,0.3,1.2,0.4c0.8,0,1.5-0.3,2-0.8
						c0.3,0.3,0.7,0.6,1.1,0.6c0.9,0,1.6-0.6,1.6-1.4C13.6,9.1,12.9,8.4,12.1,8.4L12.1,8.4z"/>
				</g>
				<g>
					<g>
						<path class="st31" d="M13.6,17.8c0,0.6-0.5,1.1-1.1,1.1s-1.1-0.5-1.1-1.1c0-1,1.1-2.4,1.1-2.4l0.1,0c0,0,0,0.1,0,0.1
							C12.8,15.8,13.6,17,13.6,17.8L13.6,17.8z"/>
						<path class="st32" d="M13.7,17.8c0,0.6-0.5,1.1-1.1,1.1s-1.1-0.5-1.1-1.1c0-0.9,1.1-2.5,1.1-2.5S13.7,16.9,13.7,17.8z"/>
					</g>
					<g>
						<path class="st31" d="M10.6,14.7c0,0.4-0.4,0.8-0.8,0.8s-0.8-0.4-0.8-0.8c0-0.8,0.8-1.8,0.8-1.8l0.1,0c0,0,0,0,0,0.1
							C10,13.2,10.6,14.1,10.6,14.7L10.6,14.7z"/>
						<path class="st32" d="M10.6,14.7c0,0.4-0.4,0.8-0.8,0.8S9,15.1,9,14.7c0-0.7,0.8-1.8,0.8-1.8S10.6,14,10.6,14.7z"/>
					</g>
					<g>
						<path class="st31" d="M4.3,13.6c0,0.4-0.3,0.6-0.6,0.6S3,14,3,13.6c0-0.6,0.7-1.4,0.7-1.4l0,0c0,0,0,0,0,0.1
							C3.9,12.4,4.3,13.2,4.3,13.6z"/>
						<path class="st32" d="M4.4,13.7c0,0.4-0.3,0.6-0.6,0.6S3.1,14,3.1,13.7c0-0.5,0.6-1.4,0.6-1.4S4.4,13.1,4.4,13.7z"/>
					</g>
					<g>
						<path class="st31" d="M21.8,11.1c0,0.3-0.3,0.6-0.6,0.6c-0.3,0-0.6-0.3-0.6-0.6c0-0.6,0.6-1.3,0.6-1.3l0,0c0,0,0,0,0,0
							C21.4,10,21.8,10.7,21.8,11.1L21.8,11.1z"/>
						<path class="st32" d="M21.8,11.2c0,0.3-0.3,0.6-0.6,0.6c-0.3,0-0.6-0.3-0.6-0.6c0-0.5,0.6-1.4,0.6-1.4S21.8,10.7,21.8,11.2z"
							/>
					</g>
					<g>
						<path class="st31" d="M20.5,16.6c0,0.3-0.3,0.6-0.6,0.6c-0.3,0-0.6-0.3-0.6-0.6c0-0.6,0.6-1.3,0.6-1.3l0,0c0,0,0,0,0,0
							C20,15.5,20.5,16.2,20.5,16.6L20.5,16.6z"/>
						<path class="st32" d="M20.5,16.7c0,0.3-0.3,0.6-0.6,0.6c-0.3,0-0.6-0.3-0.6-0.6c0-0.5,0.6-1.4,0.6-1.4S20.5,16.2,20.5,16.7z"
							/>
					</g>
					<g>
						<path class="st31" d="M18.4,14.8c0,0.5-0.4,1-1,1s-1-0.4-1-1c0-0.9,1-2.1,1-2.1l0.1,0c0,0,0,0,0,0.1
							C17.7,13,18.4,14.1,18.4,14.8L18.4,14.8z"/>
						<path class="st32" d="M18.5,14.8c0,0.5-0.4,1-1,1s-1-0.4-1-1c0-0.8,1-2.2,1-2.2S18.5,14,18.5,14.8z"/>
					</g>
				</g>
			</g>
		</g>
	</g>
</g>
</svg>
