<?xml version="1.0" encoding="utf-8"?>
<!-- Generator: Adobe Illustrator 27.0.1, SVG Export Plug-In . SVG Version: 6.00 Build 0)  -->
<svg version="1.1" id="Ebene_1" xmlns="http://www.w3.org/2000/svg" xmlns:xlink="http://www.w3.org/1999/xlink" x="0px" y="0px"
	 viewBox="0 0 47.9 47.9" style="enable-background:new 0 0 47.9 47.9;" xml:space="preserve">
<style type="text/css">
	.st0{fill:#FFFFFF;fill-opacity:0;}
	.st1{opacity:4.761905e-02;fill:#F9FBFB;enable-background:new    ;}
	.st2{opacity:9.523810e-02;fill:#F4F6F8;enable-background:new    ;}
	.st3{opacity:0.1429;fill:#EEF2F4;enable-background:new    ;}
	.st4{opacity:0.1905;fill:#E9EDF1;enable-background:new    ;}
	.st5{opacity:0.2381;fill:#E3E9ED;enable-background:new    ;}
	.st6{opacity:0.2857;fill:#DEE5EA;enable-background:new    ;}
	.st7{opacity:0.3333;fill:#D8E0E6;enable-background:new    ;}
	.st8{opacity:0.381;fill:#D3DCE3;enable-background:new    ;}
	.st9{opacity:0.4286;fill:#CDD8DF;enable-background:new    ;}
	.st10{opacity:0.4762;fill:#C8D3DC;enable-background:new    ;}
	.st11{opacity:0.5238;fill:#C2CFD8;enable-background:new    ;}
	.st12{opacity:0.5714;fill:#BDCAD5;enable-background:new    ;}
	.st13{opacity:0.619;fill:#B7C6D1;enable-background:new    ;}
	.st14{opacity:0.6667;fill:#B2C2CE;enable-background:new    ;}
	.st15{opacity:0.7143;fill:#ACBDCA;enable-background:new    ;}
	.st16{opacity:0.7619;fill:#A7B9C7;enable-background:new    ;}
	.st17{opacity:0.8095;fill:#A1B5C3;enable-background:new    ;}
	.st18{opacity:0.8571;fill:#9CB0C0;enable-background:new    ;}
	.st19{opacity:0.9048;fill:#96ACBC;enable-background:new    ;}
	.st20{opacity:0.9524;fill:#91A7B9;enable-background:new    ;}
	.st21{fill:#8BA3B5;}
	.st22{fill:#FFFFFF;}
	.st23{fill:#E9F2F5;}
</style>
<g>
	<g>
		<g>
			<path class="st0" d="M45.6,33c3.2-2.8,2.7-11.5,1.1-13.8c-2.1-3-4.4-5-6.5-5.8c-1.9-1.1-7.6-1.9-10.1-1.9c-3.5,0-7.1,0.9-9.9,1.6
				c-3.4,0.9-9.4,3.2-12.4,6.5C4.4,23.3,7.4,30.9,8.3,32c1.6,2.1,3.5,4.1,6,5.3c2.3,1.2,4.4,1.1,6.2,1.2c1.4,0.2,7.3,0.7,10.8,0
				c2.5-0.5,6.7-1.2,7.8-1.9C40.1,36.1,42.9,35.3,45.6,33z"/>
			<path class="st1" d="M45,32.9c3.2-2.7,2.7-11.1,1.1-13.4c-2.1-3-4.4-4.8-6.4-5.8c-1.9-1.1-7.3-1.9-9.9-1.9
				c-3.5,0-6.9,0.9-9.9,1.6c-3,0.9-9.2,3.2-12,6.4c-3.2,3.5-0.4,11,0.5,12c1.6,1.9,3.4,4.1,5.8,5.1c2.3,1.1,4.4,1.1,6,1.2
				c1.2,0.2,7.1,0.9,10.6,0.2c2.5-0.5,6.5-1.4,7.6-1.9C39.7,35.7,42.4,35,45,32.9z"/>
			<path class="st2" d="M44.5,32.5c3.2-2.7,2.7-10.8,1.1-13.1c-2.1-3-4.4-4.8-6.4-5.7c-1.9-0.9-7.1-1.8-9.6-1.9
				c-3.4,0-6.9,0.7-9.7,1.6c-3,0.9-9,3.2-11.7,6.2c-3.2,3.5-0.5,10.6,0.4,11.9c1.6,1.9,3.4,3.9,5.8,5.1c2.3,1.1,4.2,0.9,6,1.1
				c1.2,0.2,6.9,0.9,10.3,0.2c2.5-0.5,6.4-1.4,7.4-1.9C39.2,35.2,41.9,34.6,44.5,32.5z"/>
			<path class="st3" d="M44,32.3c3.2-2.5,2.7-10.4,1.1-12.7c-2.1-3-4.2-4.6-6.2-5.7c-1.9-0.9-6.7-1.8-9.2-1.9
				c-3.4-0.2-6.7,0.7-9.6,1.4c-3.2,0.9-9,3.2-11.7,6.2c-3,3.4-0.7,10.3,0.4,11.5c1.4,1.9,3.2,3.9,5.7,5c2.3,1.1,4.2,0.9,5.8,1.1
				c1.2,0.2,6.5,1.1,10.1,0.4c2.5-0.5,6.2-1.4,7.3-2.1C38.7,34.8,41.3,34.3,44,32.3z"/>
			<path class="st4" d="M43.5,32c3-2.5,2.7-9.9,1.1-12.4c-1.9-3-4.2-4.6-6.2-5.5c-1.8-0.9-6.4-1.8-8.8-1.9c-3.2-0.2-6.7,0.7-9.4,1.4
				c-3.2,0.9-9,3.2-11.5,6c-3,3.2-0.7,9.9,0.4,11.3c1.4,1.8,3,3.7,5.5,5c2.3,1.1,4.2,0.7,5.7,0.9c1.2,0.2,6.4,1.1,9.9,0.4
				c2.5-0.5,6-1.6,7.1-2.1C38.3,34.5,41,33.9,43.5,32z"/>
			<path class="st5" d="M42.9,31.6c3-2.3,2.7-9.6,1.1-12c-1.9-3-4.2-4.4-6.2-5.3c-1.8-0.9-6.2-1.8-8.5-1.9c-3.2-0.2-6.5,0.5-9.4,1.4
				c-3,0.9-8.7,3.2-11.1,5.8c-2.8,3-0.7,9.6,0.4,11c1.4,1.8,2.8,3.7,5.3,4.8c2.3,0.9,4.1,0.7,5.7,0.9c1.2,0.2,6.2,1.2,9.7,0.5
				c2.5-0.5,6-1.6,6.9-2.1C37.8,33.9,40.4,33.6,42.9,31.6z"/>
			<path class="st6" d="M42.4,31.5c3-2.3,2.7-9.2,1.1-11.7c-1.9-3.2-4.2-4.2-6-5.3c-1.8-0.9-5.8-1.8-8.3-1.9c-3-0.2-6.5,0.5-9.2,1.2
				c-2.8,0.9-8.7,3.2-11,5.8c-2.7,2.8-0.7,9.2,0.4,10.6c1.4,1.6,2.7,3.5,5.1,4.6c2.1,0.9,4.1,0.7,5.5,0.9c1.2,0.2,6,1.2,9.4,0.7
				c2.5-0.5,5.8-1.6,6.7-2.1C37.3,33.6,39.9,33.2,42.4,31.5z"/>
			<path class="st7" d="M41.9,31.1c3-2.1,2.7-8.8,1.1-11.3c-1.9-3.2-4.1-4.2-6-5.1c-1.8-0.9-5.7-1.8-8-1.9c-3-0.2-6.4,0.5-9,1.2
				c-2.8,0.9-8.5,3.2-10.6,5.7C6.7,22.4,8.4,28.4,9.7,30c1.2,1.6,2.5,3.5,5,4.6c2.1,0.9,4.1,0.5,5.5,0.7c1.2,0.2,5.7,1.4,9.2,0.7
				c2.7-0.5,5.7-1.8,6.7-2.3C36.9,33.2,39.4,33,41.9,31.1z"/>
			<path class="st8" d="M41.3,30.9c2.8-2.1,2.7-8.5,1.2-11c-1.9-3.2-4.1-4.1-5.8-5c-1.6-0.9-5.3-1.8-7.6-1.9
				c-2.8-0.2-6.2,0.4-8.8,1.2c-3.2,0.7-8.7,3-10.8,5.3C7,22.3,8.4,28.1,9.9,29.7c1.2,1.6,2.3,3.4,4.8,4.4c2.1,0.9,3.9,0.5,5.3,0.7
				c1.2,0.2,5.5,1.4,9,0.9c2.7-0.5,5.5-1.8,6.5-2.3C36.4,32.7,38.9,32.7,41.3,30.9z"/>
			<path class="st9" d="M40.8,30.6c2.8-1.9,2.7-8.1,1.2-10.6c-1.8-3.2-4.1-4.1-5.8-5c-1.6-0.7-5-1.6-7.3-1.9
				c-2.8-0.2-6.2,0.4-8.8,1.1c-3,0.9-8.5,3.2-10.4,5.3c-2.3,2.7-1.1,8.3,0.4,9.9c1.2,1.4,2.1,3.4,4.8,4.2c2.1,0.9,3.9,0.4,5.1,0.7
				c1.2,0.2,5.3,1.6,8.7,0.9c2.7-0.5,5.5-1.9,6.4-2.3C35.9,32.3,38.3,32.3,40.8,30.6z"/>
			<path class="st10" d="M40.3,30.2c2.8-1.9,2.7-7.8,1.2-10.3c-1.8-3.2-3.9-3.9-5.7-4.8c-1.6-0.7-4.8-1.6-6.9-1.9
				c-2.7-0.4-6,0.4-8.7,1.1c-3,0.9-8.5,3.2-10.4,5.1c-2.3,2.5-1.1,8,0.2,9.6c1.1,1.4,1.9,3.2,4.6,4.2c2.1,0.7,3.9,0.4,5.1,0.5
				c1.2,0.2,5,1.6,8.5,1.1c2.7-0.5,5.3-1.9,6.2-2.3C35.5,32,37.8,32,40.3,30.2z"/>
			<path class="st11" d="M39.7,30c2.8-1.8,2.7-7.4,1.2-9.9c-1.8-3.2-3.9-3.9-5.7-4.8c-1.6-0.7-4.4-1.6-6.7-1.9
				c-2.7-0.4-6,0.2-8.5,1.1c-2.8,0.9-8.1,3.2-10.1,5c-2.1,2.3-1.2,7.6,0.2,9.4c1.2,1.4,1.9,3.2,4.4,4.1c2.1,0.7,3.7,0.2,5,0.5
				c1.1,0.2,4.8,1.8,8.3,1.1c2.7-0.5,5.1-1.9,6-2.5C35,31.5,37.3,31.6,39.7,30z"/>
			<path class="st12" d="M39.2,29.7c2.7-1.8,2.7-6.9,1.2-9.6c-1.8-3.2-3.9-3.7-5.7-4.6c-1.4-0.7-4.1-1.6-6.4-1.9
				c-2.5-0.4-5.8,0.2-8.3,0.9c-2.8,0.9-8.1,3.2-9.7,5c-2.1,2.1-1.4,7.3,0.2,9c1.1,1.2,1.8,3,4.2,3.9c2.1,0.7,3.7,0.2,4.8,0.4
				c1.1,0.2,4.6,1.8,8.1,1.2c2.7-0.5,5-2.1,5.8-2.5C34.4,31.1,36.9,31.3,39.2,29.7z"/>
			<path class="st13" d="M38.7,29.3c2.7-1.6,2.7-6.5,1.2-9.2c-1.6-3.2-3.7-3.7-5.5-4.4c-1.4-0.7-3.9-1.6-6-1.9
				c-2.5-0.4-5.7,0.2-8.3,0.9c-2.8,0.9-8,3.2-9.6,4.8c-1.8,1.9-1.4,6.9,0.2,8.7c1.1,1.2,1.6,3,4.1,3.9c1.9,0.7,3.7,0.2,4.8,0.4
				c1.1,0.2,4.4,1.9,7.8,1.4c2.7-0.5,4.8-2.1,5.7-2.5C34.1,30.7,36.4,30.9,38.7,29.3z"/>
			<path class="st14" d="M38.1,29.2c2.7-1.6,2.7-6.2,1.2-8.8c-1.6-3.2-3.7-3.5-5.5-4.4c-1.4-0.7-3.5-1.6-5.7-1.9
				c-2.3-0.4-5.7,0-8.1,0.7c-2.7,0.9-8,3.4-9.4,4.8C9,21.2,9.3,26,10.9,27.9c0.9,1.1,1.4,3,3.9,3.7c1.9,0.7,3.5,0,4.6,0.4
				c1.1,0.4,4.1,2.1,7.6,1.4c2.7-0.5,4.8-2.1,5.5-2.7C33.6,30.2,35.9,30.6,38.1,29.2z"/>
			<path class="st15" d="M37.6,28.8c2.5-1.4,2.7-5.8,1.2-8.5c-1.6-3.2-3.7-3.5-5.3-4.2c-1.4-0.7-3.2-1.6-5.3-1.9
				c-2.3-0.4-5.5,0-8,0.7c-2.8,0.9-8,3.2-9.4,4.6c-1.6,1.8-1.6,6.2,0.2,8.1c0.9,1.1,1.2,2.8,3.7,3.5c1.9,0.5,3.5,0,4.6,0.2
				c1.1,0.4,3.9,2.1,7.4,1.6c2.7-0.5,4.6-2.3,5.3-2.7C33,29.9,35.3,30.2,37.6,28.8z"/>
			<path class="st16" d="M37.1,28.6c2.5-1.4,2.7-5.5,1.2-8.1c-1.6-3.2-3.5-3.4-5.3-4.1c-1.2-0.5-3-1.4-5.1-1.9c-2.1-0.4-5.5,0-8,0.7
				c-2.5,0.7-7.4,3-8.8,4.2c-1.4,1.6-1.6,5.8,0.2,8c0.9,1.1,1.1,2.8,3.7,3.5c1.9,0.5,3.5-0.2,4.4,0.2c1.1,0.4,3.7,2.3,7.3,1.6
				c2.7-0.5,4.4-2.3,5.1-2.7C32.5,29.5,34.8,29.9,37.1,28.6z"/>
			<path class="st17" d="M36.6,28.3c2.5-1.4,2.7-5.1,1.4-7.8c-1.6-3.2-3.5-3.2-5.1-4.1c-1.2-0.5-2.7-1.4-4.8-1.9
				c-2.1-0.4-5.3-0.2-7.8,0.5c-2.8,0.9-7.8,3.2-8.8,4.4c-1.4,1.4-1.8,5.5,0,7.6c0.7,0.9,0.9,2.7,3.5,3.4c1.9,0.5,3.4-0.2,4.2,0.2
				c1.1,0.4,3.5,2.3,6.9,1.8c2.7-0.5,4.2-2.3,5-2.7C32.1,29,34.3,29.5,36.6,28.3z"/>
			<path class="st18" d="M36,27.9c2.5-1.2,2.7-4.8,1.4-7.4c-1.4-3.2-3.5-3.2-5.1-3.9c-1.2-0.5-2.3-1.4-4.4-1.9
				c-1.9-0.4-5.3-0.2-7.6,0.5c-2.8,0.9-7.6,3.2-8.7,4.2c-1.2,1.2-1.8,5.1,0,7.3c0.7,0.9,0.7,2.7,3.4,3.2c1.9,0.5,3.4-0.2,4.2,0
				c1.1,0.4,3.2,2.5,6.7,1.8c2.8-0.5,4.1-2.5,4.8-2.8C31.6,28.6,33.7,29.2,36,27.9z"/>
			<path class="st19" d="M35.5,27.7c2.3-1.2,2.7-4.4,1.4-7.3c-1.4-3.2-3.4-3-5.1-3.9c-1.2-0.5-2.1-1.4-4.1-1.9s-5.1-0.2-7.4,0.5
				c-2.7,1.1-7.4,3.4-8.5,4.2c-1.1,1.1-1.8,4.8,0,7.1c0.7,0.9,0.5,2.5,3.2,3.2c1.8,0.5,3.4-0.4,4.1,0c1.1,0.4,3,2.5,6.5,1.9
				c2.8-0.4,4.1-2.5,4.6-2.8C31.1,28.3,33.2,28.8,35.5,27.7z"/>
			<path class="st20" d="M35,27.4c2.3-1.1,2.7-3.9,1.4-6.9c-1.4-3.2-3.4-3-5-3.7c-1.1-0.5-1.8-1.4-3.7-1.9c-1.8-0.5-5-0.4-7.4,0.4
				c-2.7,1.1-7.4,3.4-8.3,4.2c-1.1,1.1-1.9,4.6,0,6.9c0.7,0.7,0.4,2.5,3,3c1.8,0.4,3.2-0.4,3.9-0.2c0.9,0.4,2.8,2.7,6.4,1.9
				c2.8-0.4,3.9-2.5,4.4-2.8C30.7,27.7,32.8,28.4,35,27.4z"/>
			<path class="st21" d="M34.4,27.2c2.3-1.1,2.7-3.5,1.4-6.5c-1.4-3.2-3.4-2.8-5-3.5c-1.1-0.5-1.6-1.2-3.5-1.9
				c-1.8-0.5-5-0.4-7.3,0.4c-2.5,0.9-7.1,3.2-8,3.9c-0.9,0.9-1.9,4.1,0,6.5c0.5,0.7,0.4,2.3,2.8,3c1.8,0.4,3.2-0.5,3.9-0.2
				c0.9,0.4,2.7,2.7,6,2.1c2.8-0.4,3.7-2.7,4.2-3C30.2,27.4,32.3,28.1,34.4,27.2z"/>
		</g>
		<path class="st22" d="M31.4,16.4c-0.2,0-0.2,0-0.4,0c-0.7-1.9-2.5-3.2-4.4-3.2c-0.5,0-1.2,0.2-1.8,0.4c-0.7-1.8-2.3-3-4.2-3
			s-3.5,1.2-4.2,3c-0.2,0-0.5,0-0.7,0c-2.1,0-3.9,1.6-4.1,3.7c-0.4,0-0.5-0.2-0.9-0.2c-2.5,0-4.6,2.1-4.6,4.6s2.1,4.6,4.6,4.6
			c0,0,0,0,0.2,0c0.5,1.9,2.1,3.2,4.1,3.2c1.6,0,2.8-0.9,3.5-2.1c1.1,1.8,2.8,2.8,5,2.8c2.3,0,4.4-1.4,5.3-3.5
			c0.9,0.5,1.8,0.7,2.7,0.7c3,0,5.5-2.5,5.5-5.5S34.4,16.4,31.4,16.4z"/>
		<path class="st23" d="M31.6,16.6c-0.2,0-0.2,0-0.4,0c-0.7-1.9-2.5-3.2-4.4-3.2c-0.5,0-1.2,0.2-1.8,0.4c-0.7-1.8-2.3-3-4.2-3
			s-3.5,1.2-4.2,3c-0.2,0-0.5,0-0.7,0c-2.1,0-3.9,1.6-4.1,3.7c-0.4-0.4-0.5-0.4-0.9-0.4c-2.5,0-4.6,2.1-4.6,4.6s2.1,4.6,4.6,4.6
			c0,0,0,0,0.2,0c0.5,1.9,2.1,3.2,4.1,3.2c1.6,0,2.8-0.9,3.5-2.1c1.1,1.8,2.8,2.8,5,2.8c2.3,0,4.4-1.4,5.3-3.5
			c0.9,0.5,1.8,0.7,2.7,0.7c3,0,5.5-2.5,5.5-5.5C37.1,19.1,34.6,16.6,31.6,16.6z"/>
	</g>
	<g>
		<g>
			<path class="st0" d="M29.8,24.7c1.8-2.8,0.9-8-0.4-9.7c-1.8-2.3-4.2-2.7-5.8-3.5c-1.4-0.7-4.4-2.8-6.4-2.8
				c-2.7,0-4.1,1.1-6.4,1.6c-2.5,0.7-6.5,4.4-8.7,7.1c-2.7,2.8-1.9,7.3-1.4,8.1c1.2,1.6,2.8,3.2,4.8,4.1c1.8,0.9,3.4,0.9,4.8,0.9
				c1.1,0,2.3,0.5,5,0c1.9-0.4,2.8-0.5,3.7-0.9C21.2,29,27.7,28.1,29.8,24.7z"/>
			<path class="st1" d="M29.5,24.6c1.8-2.7,1.1-7.6-0.2-9.6c-1.6-2.3-4.2-2.5-5.8-3.4c-1.6-0.7-4.4-2.8-6.4-3
				c-2.7,0.2-4.1,1.1-6.2,1.8c-2.5,0.5-6.4,4.4-8.7,6.7c-2.5,2.8-1.9,7.1-1.2,8c1.2,1.6,2.7,3.2,4.6,4.1C7.4,30,9,29.9,10.4,30
				c1.1,0,2.3,0.7,5,0c1.9-0.4,2.8-0.5,3.7-0.9C21,28.6,27.4,27.7,29.5,24.6z"/>
			<path class="st2" d="M29.1,24.4c1.8-2.7,1.1-7.4-0.2-9.2c-1.6-2.3-4.2-2.7-5.7-3.4C21.9,11.1,19,9,17.1,9
				c-2.7-0.2-4.1,0.9-6.2,1.4c-2.5,0.7-6.4,4.4-8.5,6.7c-2.5,2.7-2.1,6.9-1.2,7.8c1.2,1.4,2.7,3,4.6,3.9c1.8,0.9,3.4,0.7,4.6,0.7
				c1.1,0.2,2.3,0.7,5,0.2c1.9-0.4,2.8-0.7,3.7-0.9C21,28.3,27,27.6,29.1,24.4z"/>
			<path class="st3" d="M28.8,24.4c1.8-2.5,1.1-7.3-0.2-9c-1.6-2.3-4.2-2.5-5.7-3.4c-1.4-0.7-4.1-2.8-5.8-2.8
				c-2.7-0.2-4.2,0.7-6.4,1.4c-2.3,0.5-6.2,4.2-8.1,6.5c-2.3,2.7-2.1,6.7-1.4,7.6c1.2,1.4,2.5,3,4.4,3.7S9,29,10.2,29.2
				c1.1,0.2,2.3,0.7,5,0.2c1.9-0.4,2.8-0.7,3.7-0.9C20.8,28.1,26.7,27.4,28.8,24.4z"/>
			<path class="st4" d="M28.4,24.2c1.8-2.5,1.1-7.1,0-8.8c-1.6-2.3-4.1-2.5-5.7-3.2c-1.4-0.7-3.9-3-5.8-3c-2.5,0-4.1,0.9-6.2,1.4
				c-2.3,0.7-6,4.4-8,6.5c-2.3,2.5-2.3,6.4-1.4,7.4c1.1,1.4,2.5,2.8,4.4,3.7c1.9,0.7,3.4,0.5,4.4,0.5c1.1,0.2,2.3,0.7,5,0.2
				c1.9-0.4,2.8-0.7,3.7-0.9C20.6,27.7,26.3,27.2,28.4,24.2z"/>
			<path class="st5" d="M28.1,24.2c1.8-2.3,1.2-6.9,0-8.5c-1.6-2.3-4.1-2.5-5.5-3.2c-1.4-0.7-3.9-3-5.7-3c-2.5-0.2-4.1,0.5-6.2,1.2
				c-2.3,0.5-6,4.2-7.8,6.2c-2.3,2.5-2.3,6.4-1.6,7.4c1.1,1.4,2.3,2.8,4.2,3.5S9,28.3,10,28.4c0.9,0.2,2.3,0.9,5,0.2
				c1.9-0.4,3-0.7,3.7-0.9C20.6,27.4,25.9,26.9,28.1,24.2z"/>
			<path class="st6" d="M27.7,24c1.8-2.3,1.2-6.7,0-8.3c-1.6-2.3-4.1-2.5-5.5-3.2c-1.4-0.7-3.7-3-5.5-3c-2.3-0.2-4.1,0.7-6.2,1.2
				C8.3,11.5,4.7,15,3,16.9c-1.9,2.3-2.3,6-1.4,7.3c1.1,1.2,2.3,2.7,4.2,3.4s3.2,0.4,4.4,0.4c0.9,0.2,2.3,0.9,5,0.4
				c1.9-0.4,3-0.7,3.7-0.9C20.5,27,25.8,26.7,27.7,24z"/>
			<path class="st7" d="M27.4,24c1.8-2.1,1.2-6.5,0.2-8.1c-1.6-2.3-4.1-2.3-5.5-3c-1.2-0.7-3.5-3-5.5-3c-2.1-0.4-3.9,0.4-6,1.1
				c-2.3,0.7-5.7,4.2-7.4,6c-1.9,2.1-2.5,5.8-1.4,7.1c0.9,1.2,2.1,2.7,4.1,3.2S9,27.4,10,27.6c0.9,0.2,2.3,0.9,5,0.4
				c1.9-0.4,3-0.7,3.7-0.9C20.5,26.7,25.4,26.5,27.4,24z"/>
			<path class="st8" d="M27,23.8c1.8-1.9,1.2-6.2,0.2-8c-1.6-2.3-3.9-2.3-5.3-3c-1.2-0.7-3.5-3-5.3-3c-2.1-0.2-3.9,0.5-6,1.1
				c-2.3,0.7-5.7,4.2-7.3,6c-1.9,1.9-2.5,5.7-1.6,6.7c1.1,1.2,2.1,2.7,4.1,3.2C7.7,27.4,9,27,10,27.2c0.9,0.2,2.3,0.9,5,0.4
				c1.9-0.4,3-0.9,3.7-0.9C20.3,26.5,25.1,26.1,27,23.8z"/>
			<path class="st9" d="M26.7,23.8c1.8-1.9,1.4-6,0.4-7.6c-1.6-2.3-3.9-2.3-5.3-3c-1.2-0.7-3.4-3-5.1-3.2c-2.1-0.2-4.1,0.5-6,1.1
				c-2.3,0.7-5.5,4.1-7.1,5.8c-1.8,1.9-2.5,5.5-1.6,6.7c0.9,1.1,1.9,2.3,3.9,3c1.9,0.5,3.2,0,4.2,0.2c0.9,0.2,2.3,0.9,5,0.5
				c1.9-0.4,3-0.9,3.7-0.9C20.3,26.1,24.7,26,26.7,23.8z"/>
			<path class="st10" d="M26.3,23.7c1.8-1.8,1.4-5.8,0.4-7.4c-1.6-2.3-3.9-2.3-5.3-2.8c-1.2-0.5-3.2-3-5-3.2c-1.9-0.2-3.9,0.4-6,0.9
				c-2.1,0.7-5.3,4.1-6.9,5.7c-1.8,1.8-2.7,5.1-1.6,6.5c0.9,1.1,1.9,2.5,3.9,3c2.1,0.4,3.4-0.2,4.2,0c0.9,0.2,2.3,1.1,5,0.5
				c1.9-0.4,3-0.9,3.7-0.9C20.1,25.8,24.4,25.8,26.3,23.7z"/>
			<path class="st11" d="M25.9,23.7c1.8-1.8,1.4-5.7,0.4-7.3c-1.6-2.3-3.9-2.1-5.1-2.8c-1.2-0.5-3.2-3-4.8-3.2
				c-1.9-0.4-4.1,0.4-6,0.9c-2.3,0.7-5.3,4.1-6.7,5.5c-1.6,1.8-2.7,5-1.6,6.4C3,24.2,4,25.4,6,26c1.9,0.5,3.2-0.2,4.1,0
				c0.9,0.2,2.1,1.1,5,0.5c2.1-0.4,3-0.9,3.7-0.9C19.9,25.4,24,25.6,25.9,23.7z"/>
			<path class="st12" d="M25.6,23.5c1.8-1.6,1.4-5.5,0.5-7.1c-1.4-2.3-3.7-2.1-5.1-2.8c-1.1-0.4-3-2.8-4.8-3
				c-1.8-0.4-3.9,0.2-5.8,0.7c-2.1,0.7-5.3,4.1-6.5,5.3c-1.6,1.8-2.8,5-1.6,6.4C3.1,24,4,25.3,6,25.6s3.2-0.2,3.9,0
				c0.9,0.2,2.3,1.1,5,0.5c2.1-0.4,3-0.9,3.7-0.9C19.9,25.3,23.6,25.4,25.6,23.5z"/>
			<path class="st13" d="M25.2,23.3c1.8-1.6,1.6-5.3,0.5-6.7c-1.4-2.3-3.7-2.1-5.1-2.8c-1.1-0.4-2.8-2.8-4.4-3.2
				c-1.8-0.2-3.9,0.4-5.8,0.9c-2.1,0.7-5.1,3.9-6.4,5.3c-1.4,1.4-2.8,4.4-1.8,6C3,23.7,4,24.9,6,25.4c2.1,0.2,3.2-0.5,3.9-0.4
				c0.9,0.2,2.3,1.1,5,0.7c2.1-0.4,3.2-0.9,3.7-0.9C19.8,24.9,23.3,25.1,25.2,23.3z"/>
			<path class="st14" d="M24.9,23.3c1.8-1.4,1.6-5,0.7-6.5c-1.4-2.3-3.7-2.1-5-2.7c-1.2-0.5-2.8-3-4.6-3.4c-1.8-0.4-3.9,0.2-5.8,0.7
				c-2.1,0.7-5,4.1-6.2,5.1C2.8,18,1.2,21,2.4,22.4C3.1,23.3,4,24.6,6,24.9c2.1,0.4,3.2-0.4,3.9-0.2c0.9,0.2,2.3,1.2,5,0.7
				c2.1-0.4,3.2-1.1,3.7-0.9C19.8,24.6,22.9,24.9,24.9,23.3z"/>
			<path class="st15" d="M24.5,23.1c1.8-1.4,1.6-4.8,0.7-6.4c-1.4-2.3-3.7-1.9-5-2.7c-1.1-0.5-2.7-3-4.2-3.2
				c-1.8-0.2-3.9,0.2-5.8,0.7c-2.1,0.7-5,3.9-6,5c-1.2,1.2-3,4.1-1.8,5.7C3.1,23.1,4,24.4,6,24.6c2.1,0.4,3.2-0.4,3.9-0.2
				c0.9,0.2,2.3,1.2,5,0.7c2.1-0.4,3.2-1.1,3.7-0.9C19.6,24.2,22.8,24.7,24.5,23.1z"/>
			<path class="st16" d="M24.2,23.1c1.8-1.2,1.8-4.6,0.7-6.2c-1.4-2.3-3.5-1.9-5-2.7c-1.1-0.5-2.5-3-4.1-3.4
				c-1.6-0.2-3.7,0.2-5.7,0.9c-2.1,0.5-4.8,3.7-5.8,4.8c-1.2,1.2-3,3.9-1.8,5.5C3.3,22.8,4,24,6.1,24.4c1.9,0.2,3-0.7,3.7-0.5
				c0.9,0.2,2.3,1.2,5,0.9c2.1-0.4,3.2-1.1,3.7-0.9C19.6,24,22.4,24.6,24.2,23.1z"/>
			<path class="st17" d="M23.8,23c1.8-1.2,1.8-4.4,0.9-5.8c-1.4-2.3-3.5-1.9-4.8-2.5c-1.1-0.5-2.3-3-3.9-3.4c-1.6-0.4-3.9,0-5.7,0.5
				c-2.3,0.7-5,3.9-5.8,4.8c-1.1,1.1-3.2,3.7-1.8,5.3c0.5,0.7,1.4,1.9,3.4,2.1c2.1,0.2,3-0.7,3.7-0.5c0.7,0.2,2.3,1.2,5,0.9
				c2.1-0.4,3.2-1.1,3.7-0.9C19.4,23.7,22.1,24.2,23.8,23z"/>
			<path class="st18" d="M23.5,23c1.8-1.1,1.8-4.2,0.9-5.7c-1.4-2.3-3.5-1.9-4.8-2.5c-0.9-0.5-2.1-3-3.7-3.4
				C14.3,11.1,12,11.3,10,12c-1.9,0.5-4.6,3.7-5.3,4.6c-1.1,1.1-3.2,3.5-1.8,5.1c0.5,0.7,1.2,1.8,3.4,1.9c1.9,0.2,2.8-0.7,3.4-0.5
				c0.7,0.4,2.3,1.4,5,0.9c2.1-0.4,3.2-1.1,3.7-0.9C19.4,23.3,21.7,24,23.5,23z"/>
			<path class="st19" d="M23.1,22.8c1.8-1.1,1.8-4.1,1.1-5.5c-1.4-2.3-3.5-1.9-4.8-2.5c-0.9-0.4-2.1-3-3.7-3.4
				c-1.4-0.2-3.7,0-5.7,0.5c-2.1,0.7-4.4,3.7-5.3,4.4c-0.9,0.9-3.2,3.4-1.8,5.1c0.5,0.7,1.2,1.8,3.2,1.9c2.1,0.2,3-0.9,3.5-0.7
				c0.7,0.4,2.3,1.4,5,0.9c2.1-0.4,3.2-1.2,3.7-1.1C19.2,23,21.3,23.8,23.1,22.8z"/>
			<path class="st20" d="M22.8,22.8c1.8-0.9,1.9-3.9,1.1-5.1c-1.4-2.3-3.4-1.8-4.6-2.3c-0.9-0.4-1.9-3-3.5-3.4
				c-1.4-0.5-3.9-0.5-5.7,0.2c-2.1,0.5-4.4,3.5-5.1,4.2c-0.7,0.7-3.4,3-1.8,4.8c0.5,0.5,1.1,1.6,3.2,1.8c1.9,0.2,2.8-0.9,3.4-0.7
				c0.7,0.4,2.3,1.4,5,1.1c2.1-0.4,3.2-1.2,3.7-1.1C19,22.8,21,23.7,22.8,22.8z"/>
			<path class="st21" d="M22.4,22.6c1.8-0.7,1.9-3.5,1.1-5c-1.4-2.3-3.4-1.8-4.6-2.3c-0.9-0.4-1.9-3-3.4-3.4
				c-1.2-0.5-3.7-0.4-5.5,0.2c-2.1,0.7-4.4,3.7-5,4.2c-0.7,0.7-3.4,2.8-1.9,4.6c0.5,0.5,1.1,1.6,3,1.6c2.1,0,2.8-1.1,3.4-0.9
				c0.7,0.4,2.3,1.4,5,1.1c2.1-0.4,3.4-1.2,3.7-1.1C19,22.4,20.6,23.5,22.4,22.6z"/>
		</g>
		<path class="st22" d="M20.8,14.6c-0.5,0-0.9,0-1.4,0.2c-0.5-3-3-5.3-6.2-5.3c-3-0.2-5.7,1.8-6.5,4.4l0,0c-2.5-0.2-4.6,1.8-4.8,4.2
			c-0.2,2.7,1.8,4.8,4.4,5c1.2,0,2.5-0.4,3.4-1.2c0.9,0.5,1.8,0.9,3,0.9c1.9,0.2,3.7-0.7,5-1.9c0.7,0.9,1.6,1.4,2.8,1.4
			c2.1,0.2,3.9-1.6,4.1-3.7C24.5,16.6,22.9,14.6,20.8,14.6z"/>
	</g>
</g>
</svg>
