<?xml version="1.0" encoding="utf-8"?>
<!-- Generator: Adobe Illustrator 27.0.1, SVG Export Plug-In . SVG Version: 6.00 Build 0)  -->
<svg version="1.1" id="Ebene_1" xmlns="http://www.w3.org/2000/svg" xmlns:xlink="http://www.w3.org/1999/xlink" x="0px" y="0px"
	 viewBox="0 0 13.3 17.5" style="enable-background:new 0 0 13.3 17.5;" xml:space="preserve">
<style type="text/css">
	.st0{opacity:0;fill:#FFFFFF;}
	.st1{opacity:2.580645e-02;fill:#FBFCFC;}
	.st2{opacity:5.161290e-02;fill:#F7F9FA;}
	.st3{opacity:7.741936e-02;fill:#F3F6F7;}
	.st4{opacity:0.1032;fill:#EFF3F5;}
	.st5{opacity:0.129;fill:#EBF0F2;}
	.st6{opacity:0.1548;fill:#E8EDF0;}
	.st7{opacity:0.1806;fill:#E4EAED;}
	.st8{opacity:0.2065;fill:#E0E7EB;}
	.st9{opacity:0.2323;fill:#DCE4E8;}
	.st10{opacity:0.2581;fill:#D8E1E6;}
	.st11{opacity:0.2839;fill:#D4DEE3;}
	.st12{opacity:0.3097;fill:#D0DBE0;}
	.st13{opacity:0.3355;fill:#CCD8DE;}
	.st14{opacity:0.3613;fill:#C8D5DB;}
	.st15{opacity:0.3871;fill:#C4D2D9;}
	.st16{opacity:0.4129;fill:#C1CFD6;}
	.st17{opacity:0.4387;fill:#BDCCD4;}
	.st18{opacity:0.4645;fill:#B9C9D1;}
	.st19{opacity:0.4903;fill:#B5C6CF;}
	.st20{opacity:0.5161;fill:#B1C3CC;}
	.st21{opacity:0.5419;fill:#ADC0C9;}
	.st22{opacity:0.5677;fill:#A9BDC7;}
	.st23{opacity:0.5935;fill:#A5BAC4;}
	.st24{opacity:0.6194;fill:#A1B7C2;}
	.st25{opacity:0.6452;fill:#9DB4BF;}
	.st26{opacity:0.671;fill:#9AB1BD;}
	.st27{opacity:0.6968;fill:#96AEBA;}
	.st28{opacity:0.7226;fill:#92ABB8;}
	.st29{opacity:0.7484;fill:#8EA8B5;}
	.st30{opacity:0.7742;fill:#8AA5B3;}
	.st31{opacity:0.8;fill:#86A2B0;}
	.st32{fill:#BEE9F7;}
	.st33{fill:url(#SVGID_1_);}
	.st34{clip-path:url(#SVGID_00000098939745772322062510000012173862722705658541_);}
	.st35{opacity:4.761905e-02;fill:#F9FBFB;}
	.st36{opacity:9.523810e-02;fill:#F4F6F8;}
	.st37{opacity:0.1429;fill:#EEF2F4;}
	.st38{opacity:0.1905;fill:#E9EDF1;}
	.st39{opacity:0.2381;fill:#E3E9ED;}
	.st40{opacity:0.2857;fill:#DEE5EA;}
	.st41{opacity:0.3333;fill:#D8E0E6;}
	.st42{opacity:0.381;fill:#D3DCE3;}
	.st43{opacity:0.4286;fill:#CDD8DF;}
	.st44{opacity:0.4762;fill:#C8D3DC;}
	.st45{opacity:0.5238;fill:#C2CFD8;}
	.st46{opacity:0.5714;fill:#BDCAD5;}
	.st47{opacity:0.619;fill:#B7C6D1;}
	.st48{opacity:0.6667;fill:#B2C2CE;}
	.st49{opacity:0.7143;fill:#ACBDCA;}
	.st50{opacity:0.7619;fill:#A7B9C7;}
	.st51{opacity:0.8095;fill:#A1B5C3;}
	.st52{opacity:0.8571;fill:#9CB0C0;}
	.st53{opacity:0.9048;fill:#96ACBC;}
	.st54{opacity:0.9524;fill:#91A7B9;}
	.st55{fill:#8BA3B5;}
	.st56{fill:#FFFFFF;}
	.st57{fill:#E4F1F5;}
	.st58{fill:#0A4D80;}
</style>
<g>
	<g>
		<path class="st0" d="M2.8,12.1C2.7,10.6,3.8,1.4,5.3,1.4c1.8,0,3,4.5,3.4,5.6c0.5,1.6,1.5,1.8,2.2,2.6c1.2,1.3,2.5,4.1,1,6.2
			c-1.4,1.9-4.8,2.5-7.5,0.7C2,14.9,2.8,13,2.8,12.1z"/>
		<path class="st1" d="M5.3,1.5c1.8,0,2.9,4.4,3.3,5.6c0.5,1.6,1.5,1.7,2.2,2.6c1.2,1.3,2.4,4,1,6.1c-1.4,1.9-4.7,2.4-7.3,0.8
			c-2.4-1.5-1.6-3.4-1.6-4.3C2.7,10.7,3.9,1.5,5.3,1.5z"/>
		<path class="st2" d="M5.3,1.6c1.7,0,2.8,4.4,3.2,5.5C9,8.7,10,8.8,10.7,9.6c1.2,1.3,2.4,3.9,1,6c-1.3,1.9-4.6,2.4-7.2,0.8
			c-2.3-1.5-1.6-3.3-1.6-4.2C2.8,10.7,3.9,1.6,5.3,1.6z"/>
		<path class="st3" d="M5.3,1.7c1.7,0,2.7,4.4,3.1,5.5C9,8.7,9.9,8.9,10.6,9.7c1.2,1.3,2.3,3.9,0.9,5.9c-1.3,1.8-4.5,2.4-7,0.8
			c-2.3-1.4-1.6-3.3-1.6-4.1C2.8,10.8,3.9,1.7,5.3,1.7z"/>
		<path class="st4" d="M5.3,1.7c1.7,0,2.7,4.4,3,5.5c0.5,1.5,1.4,1.7,2.1,2.5c1.1,1.3,2.3,3.8,0.9,5.8c-1.2,1.8-4.4,2.4-6.9,0.9
			c-2.3-1.4-1.6-3.2-1.7-4.1C2.8,10.9,4,1.7,5.3,1.7z"/>
		<path class="st5" d="M5.3,1.8c1.6,0,2.6,4.4,3,5.5c0.5,1.4,1.4,1.7,2.1,2.4c1.1,1.3,2.2,3.7,0.9,5.7c-1.2,1.8-4.3,2.4-6.7,0.9
			c-2.2-1.4-1.6-3.2-1.7-4C2.9,10.9,4,1.8,5.3,1.8z"/>
		<path class="st6" d="M5.3,1.9c1.6,0,2.5,4.3,2.9,5.4C8.7,8.8,9.6,9,10.3,9.7c1.1,1.2,2.2,3.7,0.9,5.6C10,17,7,17.7,4.6,16.2
			c-2.2-1.3-1.6-3.1-1.7-3.9C2.9,11,4.1,1.9,5.3,1.9z"/>
		<path class="st7" d="M5.3,2c1.5,0,2.4,4.3,2.8,5.4c0.5,1.4,1.4,1.6,2,2.4c1.1,1.2,2.1,3.6,0.9,5.5c-1.1,1.7-4,2.4-6.4,1
			C2.4,14.9,3,13.2,3,12.4C2.9,11,4.1,2,5.3,2z"/>
		<path class="st8" d="M5.3,2.1c1.5,0,2.3,4.3,2.7,5.4c0.5,1.4,1.4,1.6,2,2.3c1,1.2,2,3.5,0.8,5.4c-1.1,1.6-3.9,2.4-6.2,1
			c-2.2-1.2-1.6-3-1.7-3.8C2.9,11.1,4.1,2.1,5.3,2.1z"/>
		<path class="st9" d="M5.3,2.2c1.5,0,2.2,4.3,2.6,5.3c0.5,1.3,1.4,1.6,2,2.3c1,1.2,2,3.5,0.8,5.2c-1,1.6-3.8,2.3-6.1,1.1
			C2.6,14.9,3,13.2,3,12.4C3,11.2,4.2,2.2,5.3,2.2z"/>
		<path class="st10" d="M5.3,2.2c1.4,0,2.1,4.3,2.6,5.3c0.5,1.3,1.4,1.6,2,2.3c1,1.2,1.9,3.4,0.8,5.1c-1,1.6-3.7,2.3-5.9,1.1
			c-2.1-1.2-1.6-2.9-1.7-3.6C3,11.2,4.2,2.2,5.3,2.2z"/>
		<path class="st11" d="M5.3,2.3c1.4,0,2,4.2,2.5,5.3c0.5,1.3,1.3,1.5,1.9,2.3c1,1.2,1.9,3.3,0.8,5c-1,1.5-3.6,2.3-5.8,1.1
			c-2.1-1.1-1.7-2.8-1.7-3.5C3,11.3,4.2,2.3,5.3,2.3z"/>
		<path class="st12" d="M5.3,2.4c1.4,0,1.9,4.2,2.4,5.3c0.5,1.2,1.3,1.5,1.9,2.2c0.9,1.2,1.8,3.3,0.8,4.9c-0.9,1.5-3.5,2.3-5.6,1.2
			c-2-1.1-1.7-2.8-1.7-3.5C3.1,11.3,4.3,2.4,5.3,2.4z"/>
		<path class="st13" d="M5.3,2.5c1.3,0,1.8,4.2,2.3,5.2C8.2,8.9,9,9.2,9.5,9.9c0.9,1.1,1.7,3.2,0.7,4.8C9.4,16.2,6.9,17,4.8,16
			c-2-1-1.7-2.7-1.7-3.4C3.1,11.4,4.3,2.5,5.3,2.5z"/>
		<path class="st14" d="M5.3,2.6c1.3,0,1.8,4.2,2.2,5.2c0.5,1.2,1.3,1.5,1.9,2.2c0.9,1.1,1.7,3.1,0.7,4.7c-0.9,1.4-3.3,2.3-5.3,1.2
			c-2-1-1.7-2.6-1.7-3.3C3.1,11.5,4.3,2.6,5.3,2.6z"/>
		<path class="st15" d="M5.3,2.6c1.2,0,1.7,4.2,2.1,5.2C8,9,8.8,9.3,9.3,10c0.9,1.1,1.6,3.1,0.7,4.6c-0.8,1.4-3.1,2.3-5.2,1.3
			c-2-1-1.7-2.6-1.7-3.2C3.1,11.5,4.4,2.6,5.3,2.6z"/>
		<path class="st16" d="M5.3,2.7c1.2,0,1.6,4.1,2.1,5.1C7.9,9,8.7,9.3,9.2,10c0.9,1.1,1.6,3,0.7,4.5c-0.8,1.3-3,2.2-5,1.3
			c-1.9-0.9-1.7-2.5-1.7-3.2C3.2,11.6,4.4,2.7,5.3,2.7z"/>
		<path class="st17" d="M5.4,2.8c1.2,0,1.5,4.1,2,5.1C7.9,9,8.6,9.4,9.1,10c0.8,1.1,1.5,2.9,0.6,4.4c-0.7,1.3-2.9,2.2-4.8,1.4
			c-1.9-0.9-1.7-2.5-1.7-3.1C3.2,11.6,4.5,2.8,5.4,2.8z"/>
		<path class="st18" d="M5.4,2.9C6.5,2.9,6.7,7,7.2,8C7.8,9,8.5,9.4,9,10c0.8,1.1,1.5,2.8,0.6,4.3c-0.7,1.3-2.8,2.2-4.7,1.4
			c-1.9-0.8-1.7-2.4-1.7-3C3.2,11.7,4.5,2.9,5.4,2.9z"/>
		<path class="st19" d="M5.4,3C6.4,3,6.7,7.1,7.2,8c0.5,1,1.3,1.4,1.7,2c0.8,1.1,1.4,2.8,0.6,4.2c-0.7,1.2-2.7,2.2-4.5,1.4
			c-1.8-0.8-1.7-2.3-1.7-2.9C3.3,11.8,4.5,3,5.4,3z"/>
		<path class="st20" d="M5.4,3.1c1,0,1.2,4.1,1.7,5c0.5,1,1.2,1.4,1.7,2c0.8,1,1.3,2.7,0.6,4.1c-0.6,1.2-2.6,2.2-4.4,1.5
			c-1.8-0.7-1.7-2.3-1.7-2.9C3.3,11.8,4.6,3.1,5.4,3.1z"/>
		<path class="st21" d="M5.4,3.1c1,0,1.1,4.1,1.6,5c0.5,1,1.2,1.3,1.7,2c0.7,1,1.3,2.6,0.6,4c-0.6,1.1-2.5,2.2-4.2,1.5
			c-1.8-0.7-1.7-2.2-1.7-2.8C3.3,11.9,4.6,3.1,5.4,3.1z"/>
		<path class="st22" d="M5.4,3.2c1,0,1,4,1.6,5c0.5,0.9,1.2,1.3,1.7,1.9c0.7,1,1.2,2.6,0.5,3.9c-0.6,1.1-2.4,2.2-4.1,1.5
			c-1.8-0.7-1.7-2.2-1.7-2.7C3.3,11.9,4.6,3.2,5.4,3.2z"/>
		<path class="st23" d="M5.4,3.3c0.9,0,0.9,4,1.5,5C7.4,9.2,8,9.6,8.5,10.2c0.7,1,1.2,2.5,0.5,3.8c-0.5,1.1-2.2,2.2-3.9,1.6
			c-1.7-0.6-1.7-2.1-1.7-2.6C3.4,12,4.7,3.3,5.4,3.3z"/>
		<path class="st24" d="M5.4,3.4c0.9,0,0.8,4,1.4,4.9C7.3,9.2,8,9.6,8.4,10.2c0.7,1,1.1,2.4,0.5,3.7c-0.5,1-2.1,2.2-3.7,1.6
			c-1.7-0.6-1.7-2-1.7-2.6C3.4,12.1,4.7,3.4,5.4,3.4z"/>
		<path class="st25" d="M5.4,3.5c0.9,0,0.7,4,1.3,4.9c0.5,0.9,1.2,1.3,1.6,1.9c0.7,1,1,2.4,0.5,3.6c-0.4,1-2,2.1-3.6,1.7
			c-1.7-0.5-1.7-2-1.7-2.5C3.4,12.1,4.7,3.5,5.4,3.5z"/>
		<path class="st26" d="M5.4,3.5c0.8,0,0.6,4,1.2,4.9c0.5,0.8,1.2,1.2,1.6,1.8c0.6,0.9,1,2.3,0.5,3.5c-0.4,1-1.9,2.1-3.4,1.7
			c-1.7-0.5-1.7-1.9-1.7-2.4C3.5,12.2,4.8,3.5,5.4,3.5z"/>
		<path class="st27" d="M5.4,3.6c0.8,0,0.6,3.9,1.1,4.8C7,9.3,7.7,9.7,8.1,10.3c0.6,0.9,0.9,2.2,0.4,3.4c-0.4,0.9-1.8,2.1-3.3,1.7
			c-1.6-0.4-1.7-1.9-1.7-2.3C3.5,12.2,4.8,3.6,5.4,3.6z"/>
		<path class="st28" d="M5.4,3.7c0.7,0,0.5,3.9,1.1,4.8C7,9.3,7.6,9.7,7.9,10.3c0.6,0.9,0.9,2.1,0.4,3.3c-0.3,0.9-1.7,2.1-3.1,1.8
			c-1.6-0.4-1.7-1.8-1.7-2.3C3.5,12.3,4.8,3.7,5.4,3.7z"/>
		<path class="st29" d="M5.4,3.8c0.7,0,0.4,3.9,1,4.8c0.5,0.7,1.1,1.2,1.5,1.7c0.6,0.9,0.8,2.1,0.4,3.2c-0.3,0.8-1.6,2.1-3,1.8
			c-1.6-0.4-1.7-1.7-1.7-2.2C3.5,12.4,4.9,3.8,5.4,3.8z"/>
		<path class="st30" d="M5.4,3.9c0.7,0,0.3,3.9,0.9,4.8c0.5,0.7,1.1,1.2,1.5,1.7c0.5,0.9,0.7,2,0.4,3.1c-0.3,0.8-1.5,2.1-2.8,1.8
			c-1.5-0.3-1.7-1.7-1.7-2.1C3.6,12.4,4.9,3.9,5.4,3.9z"/>
		<path class="st31" d="M5.4,4C6,4,5.6,7.8,6.2,8.7c0.5,0.7,1.1,1.1,1.4,1.7c0.5,0.9,0.7,1.9,0.4,3c-0.2,0.8-1.4,2.1-2.6,1.9
			c-1.5-0.3-1.7-1.6-1.7-2C3.6,12.5,5,4,5.4,4z"/>
	</g>
	<path class="st32" d="M4.4,11.4c-0.4,0-0.6-0.3-0.6-0.6V2.7C3.8,2.3,4.1,2,4.4,2c0.3,0,0.6,0.3,0.6,0.6v8.1
		C5.1,11.1,4.8,11.4,4.4,11.4z"/>
	<linearGradient id="SVGID_1_" gradientUnits="userSpaceOnUse" x1="2.9672" y1="10.1373" x2="6.2802" y2="13.4502">
		<stop  offset="0" style="stop-color:#076BBA"/>
		<stop  offset="1" style="stop-color:#0060AB"/>
	</linearGradient>
	<path class="st33" d="M5.1,9.5V8.2H3.8v1.3C2.7,9.8,1.9,10.8,1.9,12c0,1.4,1.1,2.5,2.6,2.5C5.8,14.5,7,13.4,7,12
		C7,10.8,6.2,9.8,5.1,9.5z"/>
	<g>
		<defs>
			<path id="SVGID_00000180350771415103163260000008154616545364574342_" d="M5.1,9.5V6.2V2.7C5.1,2.3,4.8,2,4.4,2
				C4.1,2,3.8,2.3,3.8,2.7v3.5v3.3C2.7,9.8,1.9,10.8,1.9,12c0,1.4,1.1,2.5,2.6,2.5C5.8,14.5,7,13.4,7,12C7,10.8,6.2,9.8,5.1,9.5z"/>
		</defs>
		<clipPath id="SVGID_00000011741776087007627800000012410086294313468808_">
			<use xlink:href="#SVGID_00000180350771415103163260000008154616545364574342_"  style="overflow:visible;"/>
		</clipPath>
		<g style="clip-path:url(#SVGID_00000011741776087007627800000012410086294313468808_);">
			<path class="st0" d="M4.3,12c-0.4,0.8-0.1,1.8,0,2.4c0.3,1.3-1.6,1.2-2.3,0.8c-2.5-1.4-2-4.3-1.5-5.1C1.1,9.3,1.8,8.9,2.4,8
				c0.3-0.4,0.5-2.7,0.5-4.5c0-0.7-0.2-1.2,0.7-2.2C4.1,0.8,6,1,5.4,2C4.9,2.9,5.1,3.6,5.1,4.4C5,5.6,5.3,9.1,5,10.1
				C4.7,11,4.6,11.4,4.3,12z"/>
			<path class="st35" d="M4.2,11.9c-0.4,0.8-0.1,1.8,0,2.4c0.3,1.2-1.5,1.2-2.2,0.8c-2.4-1.3-1.9-4.2-1.4-4.9
				c0.5-0.8,1.3-1.3,1.8-2.1c0.3-0.4,0.4-2.8,0.5-4.5c0-0.7-0.2-1.2,0.7-2.2C4.1,0.8,5.9,1.1,5.3,2C4.8,2.9,5,3.6,5,4.4
				C5,5.6,5.3,9.1,4.9,10.1C4.7,10.9,4.5,11.4,4.2,11.9z"/>
			<path class="st36" d="M4.1,11.9c-0.4,0.8-0.1,1.8,0,2.4C4.4,15.5,2.7,15.4,2,15c-2.3-1.3-1.8-4-1.3-4.8c0.5-0.8,1.3-1.3,1.8-2.1
				C2.8,7.7,2.9,5.3,3,3.5c0-0.7-0.2-1.2,0.6-2.2c0.5-0.5,2.3-0.3,1.7,0.7C4.8,2.9,5,3.5,4.9,4.3c0,1.2,0.3,4.8-0.1,5.7
				C4.6,10.9,4.4,11.3,4.1,11.9z"/>
			<path class="st37" d="M4,11.8c-0.4,0.8-0.1,1.9,0,2.4c0.3,1.2-1.4,1.1-2.1,0.7c-2.1-1.3-1.7-3.9-1.3-4.7C1.2,9.5,2,9,2.5,8.2
				C2.8,7.7,2.9,5.3,3,3.5c0-0.7-0.2-1.2,0.6-2.1c0.5-0.5,2.2-0.3,1.6,0.6C4.8,2.8,4.9,3.5,4.9,4.3c0,1.2,0.2,4.8-0.1,5.8
				C4.6,10.8,4.3,11.2,4,11.8z"/>
			<path class="st38" d="M3.9,11.8c-0.4,0.8-0.1,1.9,0,2.4c0.3,1.2-1.4,1.1-2,0.7c-2-1.2-1.7-3.8-1.2-4.5C1.2,9.6,2,9,2.6,8.2
				C2.8,7.8,3,5.3,3,3.5c0-0.7-0.2-1.2,0.6-2.1c0.5-0.5,2.1-0.3,1.6,0.6C4.7,2.8,4.9,3.5,4.8,4.2c0,1.3,0.2,4.9-0.1,5.8
				C4.5,10.8,4.2,11.1,3.9,11.8z"/>
			<path class="st39" d="M3.8,11.7c-0.4,0.8-0.1,1.9,0,2.4c0.3,1.1-1.3,1-1.9,0.7c-1.9-1.2-1.6-3.6-1.1-4.4c0.5-0.8,1.3-1.3,1.8-2.1
				C2.9,7.8,3,5.2,3,3.5c0-0.7-0.1-1.2,0.6-2c0.5-0.5,2-0.3,1.5,0.6C4.7,2.8,4.8,3.4,4.8,4.2C4.8,5.5,5,9.1,4.7,10
				C4.5,10.7,4.2,11.1,3.8,11.7z"/>
			<path class="st40" d="M3.7,11.7c-0.4,0.8-0.1,1.9,0,2.4c0.3,1.1-1.2,1-1.8,0.6c-1.8-1.1-1.5-3.5-1.1-4.2c0.5-0.8,1.3-1.3,1.8-2.1
				C2.9,7.9,3,5.2,3.1,3.6c0-0.7-0.1-1.2,0.6-2c0.5-0.5,2-0.3,1.5,0.5C4.7,2.7,4.8,3.4,4.7,4.2c0,1.3,0.2,5-0.1,5.8
				C4.4,10.7,4.1,11,3.7,11.7z"/>
			<path class="st41" d="M3.6,11.6c-0.4,0.8-0.2,1.9,0,2.4c0.3,1.1-1.2,0.9-1.7,0.6c-1.7-1.1-1.5-3.4-1-4.1c0.5-0.8,1.4-1.4,1.8-2.1
				C2.9,7.9,3,5.2,3.1,3.6c0-0.7-0.1-1.2,0.6-2C4.1,1.1,5.6,1.3,5,2.1c-0.4,0.6-0.3,1.3-0.4,2c0,1.3,0.2,5-0.1,5.8
				C4.4,10.6,4,10.9,3.6,11.6z"/>
			<path class="st42" d="M3.5,11.6c-0.4,0.8-0.2,1.9,0,2.4c0.3,1-1.1,0.9-1.6,0.5c-1.6-1.1-1.4-3.2-1-3.9c0.4-0.8,1.4-1.4,1.8-2.1
				C3,8,3.1,5.2,3.1,3.6c0-0.7-0.1-1.2,0.5-1.9C4.1,1.1,5.5,1.4,5,2.1c-0.4,0.6-0.3,1.2-0.4,2c0,1.4,0.2,5.1-0.1,5.9
				C4.3,10.6,3.9,10.8,3.5,11.6z"/>
			<path class="st43" d="M3.4,11.5c-0.4,0.8-0.2,2,0,2.4c0.4,1-1.1,0.9-1.6,0.5c-1.5-1-1.3-3.1-0.9-3.8c0.4-0.8,1.4-1.4,1.8-2.1
				C3,8,3.1,5.2,3.1,3.6c0-0.7-0.1-1.2,0.5-1.9c0.5-0.5,1.8-0.3,1.3,0.4C4.6,2.6,4.6,3.3,4.6,4c0,1.4,0.2,5.1-0.1,5.9
				C4.3,10.5,3.8,10.8,3.4,11.5z"/>
			<path class="st44" d="M3.3,11.5c-0.4,0.8-0.2,2,0,2.4c0.4,1-1,0.8-1.5,0.5c-1.3-1-1.2-2.9-0.8-3.6c0.4-0.8,1.4-1.4,1.8-2.1
				c0.3-0.5,0.3-3.3,0.4-5c0-0.7,0-1.2,0.5-1.9c0.5-0.5,1.7-0.3,1.2,0.4C4.5,2.6,4.5,3.2,4.5,4c0,1.4,0.2,5.2-0.1,5.9
				C4.2,10.5,3.7,10.7,3.3,11.5z"/>
			<path class="st45" d="M3.2,11.4c-0.4,0.8-0.2,2,0,2.4c0.4,1-0.9,0.8-1.4,0.4c-1.2-0.9-1.2-2.8-0.8-3.5C1.5,10,2.5,9.3,2.8,8.6
				c0.3-0.5,0.3-3.4,0.4-5c0-0.7,0-1.2,0.5-1.8c0.5-0.5,1.6-0.3,1.2,0.4C4.5,2.6,4.5,3.2,4.5,3.9c0,1.4,0.2,5.3-0.1,5.9
				C4.2,10.4,3.7,10.6,3.2,11.4z"/>
			<path class="st46" d="M3.1,11.4c-0.4,0.8-0.2,2,0,2.4c0.4,0.9-0.9,0.7-1.3,0.4c-1.1-0.9-1.1-2.7-0.7-3.4c0.4-0.7,1.4-1.4,1.8-2.1
				c0.3-0.5,0.3-3.5,0.3-5.1c0-0.7,0-1.2,0.5-1.8c0.5-0.5,1.6-0.3,1.1,0.3c-0.3,0.4-0.4,1-0.4,1.8c0,1.5,0.2,5.3-0.1,5.9
				C4.1,10.4,3.6,10.5,3.1,11.4z"/>
			<path class="st47" d="M3,11.3c-0.5,0.8-0.2,2,0,2.4c0.4,0.9-0.8,0.7-1.2,0.4c-1-0.8-1-2.5-0.7-3.2c0.4-0.7,1.4-1.5,1.7-2.1
				c0.3-0.5,0.3-3.5,0.3-5.1c0-0.7,0-1.2,0.5-1.8c0.5-0.5,1.5-0.3,1.1,0.3c-0.3,0.4-0.4,1-0.4,1.7c0,1.5,0.2,5.4-0.1,6
				C4.1,10.3,3.5,10.5,3,11.3z"/>
			<path class="st48" d="M2.9,11.3c-0.5,0.9-0.2,2,0,2.4c0.4,0.9-0.8,0.6-1.1,0.3c-0.9-0.8-0.9-2.4-0.6-3.1c0.4-0.7,1.5-1.5,1.7-2.1
				c0.2-0.5,0.3-3.6,0.3-5.2c0-0.7,0-1.3,0.4-1.7c0.5-0.5,1.4-0.3,1,0.3C4.4,2.5,4.3,3.1,4.3,3.8c0,1.5,0.2,5.4-0.1,6
				C4,10.3,3.4,10.4,2.9,11.3z"/>
			<path class="st49" d="M2.8,11.2c-0.5,0.9-0.2,2,0,2.4c0.4,0.8-0.7,0.6-1.1,0.3C1,13.2,0.9,11.6,1.2,11C1.6,10.2,2.7,9.5,3,8.9
				c0.2-0.5,0.3-3.7,0.3-5.3c0-0.7,0-1.3,0.4-1.7c0.5-0.6,1.4-0.3,0.9,0.2C4.3,2.5,4.3,3,4.3,3.8c0,1.5,0.2,5.5-0.1,6
				C4,10.2,3.3,10.3,2.8,11.2z"/>
			<path class="st50" d="M2.7,11.2c-0.5,0.9-0.2,2.1,0,2.4c0.4,0.8-0.6,0.6-1,0.2C1.1,13.1,1,11.7,1.3,11C1.6,10.3,2.8,9.5,3,8.9
				c0.2-0.5,0.3-3.7,0.3-5.3C3.3,3,3.3,2.4,3.7,2C4.2,1.4,5,1.7,4.6,2.1C4.3,2.4,4.2,3,4.2,3.7c0,1.6,0.2,5.5-0.1,6
				C3.9,10.2,3.3,10.2,2.7,11.2z"/>
			<path class="st51" d="M2.6,11.1c-0.5,0.9-0.2,2.1,0,2.4C3,14.3,2,14,1.7,13.7c-0.6-0.6-0.7-2-0.4-2.6C1.6,10.4,2.8,9.5,3,9
				c0.2-0.6,0.3-3.8,0.3-5.4C3.3,3,3.4,2.4,3.7,2c0.5-0.6,1.2-0.3,0.8,0.1C4.3,2.4,4.2,2.9,4.2,3.7c0,1.6,0.2,5.6-0.1,6
				C3.9,10.1,3.2,10.2,2.6,11.1z"/>
			<path class="st52" d="M2.5,11.1c-0.5,0.9-0.2,2.1,0,2.4C3,14.2,2,13.9,1.7,13.6c-0.5-0.5-0.6-1.8-0.4-2.5C1.7,10.4,2.9,9.6,3.1,9
				c0.2-0.6,0.2-3.8,0.3-5.4C3.3,3,3.4,2.4,3.7,2c0.5-0.6,1.2-0.3,0.8,0.1C4.2,2.4,4.1,2.9,4.1,3.6c0,1.6,0.1,5.7,0,6.1
				C3.8,10.1,3.1,10.1,2.5,11.1z"/>
			<path class="st53" d="M2.4,11c-0.5,0.9-0.2,2.1,0,2.4c0.4,0.7-0.5,0.5-0.7,0.1c-0.4-0.5-0.6-1.7-0.3-2.4c0.3-0.7,1.5-1.6,1.7-2.1
				c0.2-0.6,0.2-3.9,0.2-5.5c0-0.6,0.1-1.3,0.3-1.6c0.5-0.6,1.1-0.3,0.7,0.1C4.2,2.4,4,2.9,4,3.6c0,1.6,0.1,5.7,0,6.1
				C3.8,10,3,10,2.4,11z"/>
			<path class="st54" d="M2.4,11c-0.5,0.9-0.2,2.1,0,2.4c0.5,0.7-0.4,0.4-0.6,0.1c-0.3-0.4-0.5-1.6-0.2-2.2C1.7,10.6,3,9.7,3.2,9.2
				c0.2-0.6,0.2-4,0.2-5.5c0-0.6,0.1-1.3,0.3-1.5c0.5-0.6,1-0.3,0.7,0C4.2,2.3,4,2.8,4,3.5c0,1.7,0.1,5.8,0,6.1
				C3.7,10,2.9,10,2.4,11z"/>
			<path class="st55" d="M2.3,10.9c-0.5,0.9-0.2,2.1,0,2.4c0.5,0.7-0.4,0.4-0.6,0.1c-0.2-0.3-0.4-1.4-0.2-2.1
				C1.8,10.6,3,9.7,3.2,9.2c0.2-0.6,0.2-4,0.2-5.6c0-0.6,0.1-1.3,0.3-1.5c0.5-0.6,1-0.3,0.6,0C4.1,2.3,3.9,2.8,3.9,3.5
				c0,1.7,0.1,5.8,0,6.1C3.7,9.9,2.8,9.9,2.3,10.9z"/>
		</g>
	</g>
	<path class="st56" d="M5.7,8.9V2.6c0-0.8-0.6-1.4-1.4-1.4C3.6,1.2,3,1.8,3,2.6v6.3c-1.1,0.5-1.9,1.7-1.9,3c0,1.8,1.5,3.3,3.3,3.3
		c1.8,0,3.3-1.5,3.3-3.3C7.7,10.6,6.9,9.5,5.7,8.9z M4.4,14.5c-1.4,0-2.5-1.1-2.5-2.5c0-1.2,0.8-2.2,1.9-2.5V6.1V2.6
		C3.7,2.3,4,2,4.4,2C4.7,2,5,2.3,5,2.6v3.5v3.3c1.1,0.3,1.9,1.3,1.9,2.5C6.9,13.3,5.8,14.5,4.4,14.5z"/>
	<path class="st57" d="M5.8,9V2.7c0-0.8-0.6-1.4-1.4-1.4C3.7,1.3,3,1.9,3,2.7V9c-1.1,0.5-1.9,1.7-1.9,3c0,1.8,1.5,3.3,3.3,3.3
		c1.8,0,3.3-1.5,3.3-3.3C7.7,10.7,6.9,9.5,5.8,9z M4.4,14.5c-1.4,0-2.6-1.1-2.6-2.5c0-1.2,0.8-2.2,1.9-2.5V6.2V2.7
		C3.8,2.3,4.1,2,4.4,2c0.3,0,0.6,0.3,0.6,0.6v3.5v3.3C6.2,9.8,7,10.8,7,12C7,13.4,5.8,14.5,4.4,14.5z"/>
	<g>
		<rect x="5.2" y="4.5" class="st58" width="0.6" height="0.4"/>
		<rect x="5.2" y="3.3" class="st58" width="0.6" height="0.4"/>
		<rect x="5.2" y="5.8" class="st58" width="0.6" height="0.4"/>
		<rect x="5.2" y="7" class="st58" width="0.6" height="0.4"/>
		<rect x="5.2" y="8.2" class="st58" width="0.6" height="0.4"/>
	</g>
</g>
</svg>
