<?xml version="1.0" encoding="UTF-8"?>
<svg id="Ebene_2" data-name="Ebene 2" xmlns="http://www.w3.org/2000/svg" xmlns:xlink="http://www.w3.org/1999/xlink" viewBox="0 0 7.13 15.04">
  <defs>
    <linearGradient id="linear-gradient" x1="2.05" y1="9.53" x2="5.59" y2="13.07" gradientUnits="userSpaceOnUse">
      <stop offset="0" stop-color="#076bba"/>
      <stop offset="1" stop-color="#0060ab"/>
    </linearGradient>
  </defs>
  <g id="_ŽÓť_4" data-name="—ŽÓť_4">
    <g>
      <path d="M3.6,10.87c-.37,0-.68-.3-.68-.68V1.55c0-.38,.3-.68,.68-.68s.68,.3,.68,.68V10.19c0,.37-.3,.68-.68,.68Z" fill="#bee9f7"/>
      <path d="M4.28,8.87v-1.39h-1.36v1.39c-1.17,.3-2.05,1.37-2.05,2.64,0,1.5,1.22,2.72,2.73,2.72s2.72-1.22,2.72-2.72c0-1.27-.87-2.33-2.05-2.64Z" fill="url(#linear-gradient)"/>
      <path d="M5.01,8.23V1.48c0-.82-.66-1.48-1.48-1.48s-1.48,.66-1.48,1.48v6.75c-1.21,.56-2.05,1.78-2.05,3.2,0,1.95,1.58,3.53,3.53,3.53s3.53-1.58,3.53-3.53c0-1.42-.84-2.64-2.05-3.2Zm-1.48,5.93c-1.5,0-2.72-1.22-2.72-2.72,0-1.27,.87-2.33,2.05-2.64V1.48c0-.37,.3-.68,.68-.68s.68,.3,.68,.68v7.32c1.17,.3,2.05,1.37,2.05,2.64,0,1.5-1.22,2.72-2.72,2.72Z" fill="#fff"/>
      <path d="M5.08,8.31V1.55C5.08,.74,4.42,.07,3.6,.07s-1.48,.66-1.48,1.48v6.75C.91,8.87,.07,10.09,.07,11.51c0,1.95,1.58,3.53,3.53,3.53s3.53-1.58,3.53-3.53c0-1.42-.84-2.64-2.05-3.2Zm-1.48,5.93c-1.5,0-2.73-1.22-2.73-2.72,0-1.27,.87-2.33,2.05-2.64V1.55c0-.38,.3-.68,.68-.68s.68,.3,.68,.68v7.32c1.17,.3,2.05,1.37,2.05,2.64,0,1.5-1.22,2.72-2.72,2.72Z" fill="#e4f1f5"/>
      <g>
        <rect x="4.42" y="3.51" width=".66" height=".41" fill="#0a4d80"/>
        <rect x="4.42" y="2.18" width=".66" height=".41" fill="#0a4d80"/>
        <rect x="4.42" y="4.84" width=".66" height=".41" fill="#0a4d80"/>
        <rect x="4.42" y="6.17" width=".66" height=".41" fill="#0a4d80"/>
        <rect x="4.42" y="7.5" width=".66" height=".41" fill="#0a4d80"/>
      </g>
    </g>
  </g>
</svg>