<?xml version="1.0" encoding="UTF-8"?>
<svg xmlns="http://www.w3.org/2000/svg" viewBox="0 0 49.93 26.28">
  <g isolation="isolate">
    <g id="Ebene_2" data-name="Ebene 2">
      <g id="_ŽÓť_9" data-name="—ŽÓť_9">
        <g>
          <g>
            <path d="M39.29,10.33c-.09,0-.18,0-.26,.02-.34-.91-1-1.67-1.85-2.13,0-.06,0-.12,0-.18,0-3.59-2.91-6.5-6.51-6.5-2.6,0-4.85,1.53-5.89,3.74-.67-.39-1.44-.61-2.27-.61-.6,0-1.16,.12-1.68,.33-.84-2.89-3.51-5-6.67-5-3.84,0-6.95,3.11-6.95,6.95,0,.3,.02,.6,.06,.89-1.26,.07-2.35,.75-2.99,1.75-.36-.15-.75-.23-1.17-.23-1.72,0-3.11,1.39-3.11,3.11s1.39,3.11,3.11,3.11c.86,0,1.64-.35,2.2-.91,.61,.42,1.35,.67,2.15,.67,.66,0,1.28-.17,1.83-.47,.61,2.12,2.56,3.67,4.87,3.67,.97,0,1.87-.27,2.64-.74,1.05,1.57,2.85,2.61,4.88,2.61,2.5,0,4.64-1.57,5.48-3.78,.57,.63,1.39,1.02,2.3,1.02,1.65,0,2.99-1.28,3.1-2.9,.71,.64,1.65,1.03,2.68,1.03,1.22,0,2.31-.54,3.05-1.4,.29,.15,.63,.24,.98,.24,1.19,0,2.15-.96,2.15-2.15s-.96-2.15-2.15-2.15Z" fill="#fff"/>
            <path d="M39.43,10.47c-.09,0-.18,0-.26,.02-.34-.91-1-1.67-1.85-2.13,0-.06,0-.12,0-.18,0-3.59-2.91-6.5-6.51-6.5-2.6,0-4.85,1.53-5.89,3.74-.67-.39-1.44-.61-2.27-.61-.6,0-1.16,.12-1.68,.33C20.13,2.25,17.46,.14,14.3,.14,10.46,.14,7.35,3.25,7.35,7.09c0,.3,.02,.6,.06,.89-1.26,.07-2.35,.75-2.99,1.75-.36-.15-.75-.23-1.17-.23-1.72,0-3.11,1.39-3.11,3.11s1.39,3.11,3.11,3.11c.86,0,1.64-.35,2.2-.91,.61,.42,1.35,.67,2.15,.67,.66,0,1.28-.17,1.83-.47,.61,2.12,2.56,3.67,4.87,3.67,.97,0,1.87-.27,2.64-.74,1.05,1.57,2.85,2.61,4.88,2.61,2.5,0,4.64-1.57,5.48-3.78,.57,.63,1.39,1.02,2.3,1.02,1.65,0,2.99-1.28,3.1-2.9,.71,.64,1.65,1.03,2.68,1.03,1.22,0,2.31-.55,3.05-1.4,.29,.15,.63,.24,.98,.24,1.19,0,2.15-.96,2.15-2.15s-.96-2.15-2.15-2.15Z" fill="#e4f1f5"/>
          </g>
          <g>
            <path d="M49.79,17.68c0-1.65-1.34-2.98-2.98-2.98-.52,0-1,.13-1.42,.36-.67-.43-1.47-.68-2.33-.68-.96,0-1.85,.31-2.58,.84-.9-1.76-2.73-2.96-4.84-2.96-.01,0-.02,0-.03,0-.35-3.74-3.49-6.66-7.32-6.66-3.44,0-6.34,2.37-7.13,5.56-.22-.03-.44-.04-.67-.04-2.83,0-5.12,2.29-5.12,5.12s2.29,5.12,5.12,5.12c.48,0,.95-.07,1.4-.19,.64,2.85,3.18,4.98,6.22,4.98,2.43,0,4.55-1.36,5.63-3.37,.59,.22,1.24,.34,1.91,.34,1.56,0,2.96-.66,3.95-1.71,.8,1.04,2.05,1.71,3.46,1.71,1.73,0,3.23-1.01,3.93-2.46,1.57-.09,2.81-1.39,2.81-2.98Z" fill="#fff"/>
            <path d="M49.93,17.81c0-1.65-1.34-2.98-2.98-2.98-.52,0-1,.13-1.42,.36-.68-.43-1.48-.68-2.33-.68-.96,0-1.85,.31-2.58,.84-.9-1.76-2.73-2.96-4.84-2.96-.01,0-.02,0-.03,0-.35-3.74-3.49-6.66-7.32-6.66-3.44,0-6.33,2.37-7.13,5.56-.22-.03-.44-.04-.67-.04-2.83,0-5.12,2.29-5.12,5.12s2.29,5.12,5.12,5.12c.48,0,.95-.07,1.4-.19,.64,2.85,3.18,4.98,6.22,4.98,2.43,0,4.55-1.36,5.63-3.37,.59,.22,1.24,.34,1.91,.34,1.56,0,2.96-.66,3.95-1.71,.8,1.04,2.05,1.71,3.46,1.71,1.73,0,3.23-1.01,3.93-2.46,1.57-.09,2.81-1.39,2.81-2.98Z" fill="#eef7fa"/>
          </g>
          <g>
            <g mix-blend-mode="multiply">
              <path d="M37.22,18.62c1.64-1.55,2.08-3.72,2-6-.05-1.44-.4-2.63-1.64-4.38-1.11-1.56-3-1.43-4.87-3.57-1.63-1.87-3-1.78-7.61-2.8-3.3-.73-5.99,1.91-7.62,5.5-.55,1.21-6.91,3.77-7.64,5.06-.84,1.49-2,3.15-.72,4.73,.8,.98,1.21,1.71,2.07,2.63,.83,.88,1.41,1.54,2.2,1.78,.93,.29,1.96,.82,3.43,1.45,1.81,.79,3.61,1.17,5,1.2,2.21,.04,4.43-.28,5.19-.41,1.12-.19,3.72-1.84,5.51-2.55,1.39-.55,3.13-1.17,4.69-2.64Z" fill="#fff" opacity="0"/>
              <path d="M25.12,1.96c-3.21-.72-5.87,1.93-7.64,5.43-.65,1.28-6.87,3.84-7.56,5.09-.8,1.45-1.89,3.05-.65,4.56,.77,.94,1.18,1.65,2.02,2.52s1.42,1.47,2.2,1.72c.18,.06,.36,.12,.55,.2,.78,.32,1.66,.77,2.82,1.27,.47,.2,.94,.37,1.4,.52,1.3,.42,2.51,.6,3.55,.64,1.86,.06,3.7-.12,4.72-.26,.16-.02,.3-.04,.41-.06,.8-.13,2.3-.96,3.7-1.72,.6-.32,1.19-.63,1.71-.86,.71-.3,1.51-.61,2.36-1.03,.78-.39,1.55-.89,2.3-1.57,1.64-1.49,2.09-3.63,1.97-5.84-.03-.63-.16-1.22-.4-1.84-.3-.8-.77-1.59-1.45-2.59-1.05-1.52-2.88-1.41-4.68-3.47-1.58-1.8-2.91-1.74-7.34-2.72Z" fill="#f9fbfb" opacity=".05"/>
              <path d="M25.14,2.05c-3.12-.71-5.77,1.94-7.67,5.36-.75,1.36-6.82,3.91-7.48,5.13-.76,1.41-1.78,2.94-.58,4.4,.75,.91,1.15,1.59,1.96,2.42s1.43,1.41,2.2,1.65c.18,.06,.36,.12,.54,.2,.78,.35,1.64,.79,2.78,1.27,.46,.2,.92,.36,1.39,.51,1.29,.4,2.47,.56,3.52,.61,1.83,.09,3.61-.04,4.67-.18,.16-.02,.3-.04,.41-.06,.82-.13,2.29-.94,3.66-1.72,.58-.33,1.15-.65,1.65-.89,.68-.32,1.47-.63,2.33-1.04,.78-.37,1.55-.87,2.3-1.52,1.64-1.43,2.1-3.54,1.94-5.68-.05-.63-.23-1.22-.5-1.85-.37-.83-.87-1.61-1.55-2.62-.99-1.48-2.76-1.39-4.49-3.36-1.52-1.73-2.82-1.68-7.07-2.64Z" fill="#f4f6f8" opacity=".1"/>
              <path d="M25.15,2.14c-3.03-.7-5.69,1.95-7.69,5.29-.86,1.43-6.78,3.97-7.41,5.16-.72,1.37-1.67,2.84-.5,4.23,.72,.87,1.12,1.52,1.91,2.31s1.44,1.34,2.2,1.59c.18,.06,.36,.13,.53,.21,.77,.37,1.61,.81,2.74,1.28,.45,.19,.91,.35,1.38,.49,1.28,.39,2.42,.52,3.48,.59,1.79,.12,3.52,.05,4.62-.09,.16-.02,.29-.04,.4-.06,.83-.13,2.29-.92,3.62-1.72,.57-.34,1.1-.67,1.6-.92,.66-.33,1.43-.65,2.3-1.04,.79-.36,1.54-.85,2.29-1.48,1.64-1.37,2.11-3.45,1.9-5.52-.06-.63-.29-1.22-.61-1.85-.43-.87-.98-1.63-1.66-2.65-.94-1.43-2.63-1.37-4.3-3.26-1.46-1.66-2.73-1.63-6.8-2.57Z" fill="#eef2f4" opacity=".14"/>
              <path d="M25.16,2.23c-2.94-.69-5.61,1.95-7.72,5.22-.97,1.5-6.74,4.04-7.33,5.19-.68,1.32-1.55,2.74-.43,4.07,.7,.83,1.09,1.46,1.85,2.21s1.45,1.28,2.2,1.53c.18,.06,.35,.13,.52,.21,.76,.39,1.59,.83,2.69,1.29,.45,.18,.9,.34,1.37,.48,1.27,.38,2.38,.48,3.45,.57,1.76,.14,3.43,.13,4.56,0,.15-.02,.29-.04,.4-.06,.85-.12,2.29-.9,3.57-1.72,.55-.35,1.06-.69,1.54-.95,.64-.34,1.39-.67,2.27-1.05,.79-.34,1.54-.83,2.29-1.43,1.64-1.3,2.12-3.36,1.87-5.36-.08-.63-.36-1.22-.71-1.86-.5-.9-1.09-1.65-1.76-2.69-.89-1.39-2.51-1.34-4.11-3.15-1.41-1.59-2.64-1.57-6.53-2.49Z" fill="#e9edf1" opacity=".19"/>
              <path d="M25.18,2.32c-2.85-.68-5.55,1.96-7.75,5.15-1.08,1.57-6.7,4.11-7.25,5.22-.64,1.28-1.44,2.63-.36,3.91,.68,.79,1.06,1.4,1.8,2.11,.78,.75,1.46,1.21,2.21,1.46,.17,.06,.35,.13,.52,.22,.76,.41,1.56,.85,2.65,1.29,.44,.18,.89,.33,1.35,.46,1.26,.36,2.33,.44,3.42,.54,1.73,.17,3.34,.21,4.51,.08,.15-.02,.28-.04,.39-.05,.86-.12,2.28-.88,3.53-1.72,.53-.36,1.02-.72,1.49-.98,.62-.36,1.36-.69,2.24-1.05,.8-.33,1.54-.82,2.29-1.39,1.64-1.24,2.12-3.27,1.83-5.2-.09-.63-.42-1.22-.82-1.87-.57-.93-1.2-1.67-1.86-2.72-.84-1.34-2.39-1.32-3.92-3.05-1.35-1.52-2.55-1.52-6.26-2.41Z" fill="#e3e9ed" opacity=".24"/>
              <path d="M25.19,2.41c-2.76-.67-5.49,1.95-7.77,5.08-1.2,1.64-6.65,4.18-7.18,5.26-.6,1.24-1.33,2.53-.29,3.74,.65,.75,1.02,1.33,1.74,2,.77,.72,1.47,1.14,2.21,1.4,.17,.06,.34,.13,.51,.22,.75,.44,1.54,.87,2.61,1.3,.43,.17,.88,.32,1.34,.45,1.25,.35,2.28,.4,3.38,.52,1.7,.19,3.25,.29,4.46,.16,.15-.02,.28-.04,.39-.05,.88-.12,2.28-.86,3.49-1.72,.52-.36,.98-.74,1.43-1.02,.6-.37,1.32-.71,2.21-1.06,.8-.31,1.54-.8,2.29-1.34,1.64-1.18,2.13-3.18,1.8-5.04-.11-.62-.49-1.21-.93-1.88-.63-.96-1.31-1.68-1.97-2.76-.79-1.29-2.27-1.3-3.73-2.94-1.3-1.45-2.46-1.47-5.99-2.33Z" fill="#dee5ea" opacity=".29"/>
              <path d="M25.21,2.5c-2.67-.66-5.44,1.94-7.8,5.01-1.32,1.71-6.61,4.24-7.1,5.29-.56,1.2-1.22,2.43-.22,3.58,.63,.72,.99,1.27,1.69,1.9,.76,.69,1.48,1.08,2.21,1.33,.17,.06,.34,.13,.5,.23,.74,.46,1.51,.89,2.56,1.31,.43,.17,.87,.31,1.33,.44,1.23,.34,2.24,.35,3.35,.5,1.67,.22,3.16,.37,4.4,.24,.15-.01,.28-.03,.39-.05,.89-.12,2.28-.84,3.45-1.72,.5-.37,.94-.76,1.38-1.05,.58-.39,1.28-.73,2.18-1.06,.81-.3,1.53-.78,2.29-1.3,1.63-1.12,2.13-3.09,1.77-4.88-.13-.62-.56-1.21-1.03-1.88-.7-.99-1.42-1.7-2.07-2.79-.74-1.24-2.15-1.27-3.54-2.84-1.24-1.38-2.37-1.42-5.72-2.25Z" fill="#d8e0e6" opacity=".33"/>
              <path d="M25.22,2.6c-2.58-.65-5.39,1.93-7.82,4.94-1.44,1.78-6.57,4.31-7.03,5.32-.52,1.15-1.11,2.32-.15,3.41,.6,.68,.97,1.2,1.63,1.79,.75,.66,1.49,1.01,2.21,1.27,.17,.06,.34,.13,.49,.23,.74,.48,1.48,.91,2.52,1.32,.42,.16,.86,.3,1.32,.42,1.22,.33,2.19,.31,3.31,.47,1.63,.24,3.06,.45,4.35,.33,.14-.01,.27-.03,.38-.05,.91-.12,2.27-.82,3.4-1.72,.48-.38,.9-.77,1.33-1.08,.56-.4,1.24-.75,2.15-1.07,.81-.28,1.53-.76,2.28-1.25,1.63-1.06,2.13-3,1.73-4.72-.14-.62-.62-1.21-1.14-1.89-.77-1.02-1.53-1.72-2.17-2.83-.69-1.19-2.02-1.25-3.36-2.73-1.18-1.31-2.28-1.37-5.45-2.17Z" fill="#d3dce3" opacity=".38"/>
              <path d="M25.23,2.69c-2.49-.64-5.35,1.92-7.85,4.87-1.56,1.85-6.53,4.38-6.95,5.36-.48,1.11-1,2.22-.08,3.25,.58,.64,.94,1.14,1.58,1.69,.74,.64,1.5,.95,2.21,1.21,.17,.06,.33,.14,.48,.24,.73,.51,1.46,.93,2.48,1.32,.41,.16,.85,.29,1.31,.41,1.21,.31,2.14,.27,3.28,.45,1.6,.26,2.97,.53,4.3,.41,.14-.01,.27-.03,.38-.04,.92-.11,2.27-.8,3.36-1.72,.46-.39,.86-.79,1.27-1.11,.53-.41,1.2-.77,2.12-1.07,.82-.27,1.52-.74,2.28-1.21,1.63-1,2.12-2.91,1.7-4.56-.16-.62-.69-1.21-1.24-1.9-.84-1.05-1.64-1.73-2.28-2.86s-1.9-1.23-3.17-2.63c-1.13-1.24-2.19-1.32-5.18-2.1Z" fill="#cdd8df" opacity=".43"/>
              <path d="M25.25,2.78c-2.4-.64-5.31,1.9-7.88,4.8-1.69,1.91-6.49,4.44-6.87,5.39-.44,1.07-.89,2.12,0,3.08,.55,.6,.91,1.07,1.52,1.59,.73,.61,1.51,.88,2.21,1.14,.17,.06,.33,.14,.47,.24,.72,.53,1.43,.96,2.43,1.33,.41,.15,.84,.28,1.3,.39,1.2,.3,2.1,.22,3.25,.43,1.57,.28,2.88,.6,4.24,.5,.14-.01,.26-.03,.38-.04,.94-.11,2.26-.78,3.32-1.72,.45-.4,.82-.81,1.22-1.14,.51-.43,1.16-.79,2.09-1.08,.83-.25,1.52-.72,2.28-1.16,1.63-.94,2.12-2.83,1.67-4.4-.18-.62-.76-1.2-1.35-1.91-.91-1.08-1.75-1.75-2.38-2.89s-1.78-1.2-2.98-2.52c-1.07-1.17-2.1-1.27-4.91-2.02Z" fill="#c8d3dc" opacity=".48"/>
              <path d="M25.26,2.87c-2.31-.63-5.27,1.88-7.9,4.73-1.82,1.97-6.44,4.51-6.8,5.42-.4,1.02-.78,2.02,.07,2.92,.53,.56,.88,1.01,1.47,1.48,.72,.58,1.52,.81,2.21,1.08,.17,.06,.33,.14,.46,.25,.71,.56,1.41,.98,2.39,1.34,.4,.15,.83,.27,1.29,.38,1.19,.29,2.05,.18,3.21,.4,1.54,.3,2.79,.68,4.19,.58,.14,0,.26-.03,.37-.04,.95-.11,2.26-.76,3.27-1.72,.43-.4,.78-.83,1.16-1.18,.49-.44,1.12-.81,2.07-1.08,.83-.24,1.52-.71,2.28-1.12,1.63-.88,2.11-2.74,1.63-4.24-.2-.62-.82-1.2-1.46-1.92-.98-1.11-1.86-1.76-2.48-2.93-.55-1.04-1.66-1.18-2.79-2.42-1.02-1.1-2.01-1.22-4.65-1.94Z" fill="#c2cfd8" opacity=".52"/>
              <path d="M25.28,2.96c-2.22-.62-5.24,1.86-7.93,4.66-1.95,2.03-6.4,4.58-6.72,5.45-.36,.98-.66,1.91,.14,2.75,.5,.53,.85,.94,1.41,1.38,.71,.55,1.53,.75,2.22,1.01,.16,.06,.32,.14,.46,.25,.7,.58,1.38,1,2.35,1.34,.39,.14,.82,.26,1.27,.36,1.18,.28,2,.13,3.18,.38,1.51,.32,2.7,.76,4.13,.67,.13,0,.26-.02,.37-.04,.97-.11,2.26-.74,3.23-1.72,.41-.41,.74-.85,1.11-1.21,.47-.45,1.08-.84,2.04-1.09,.84-.22,1.51-.69,2.28-1.07,1.63-.82,2.1-2.65,1.6-4.08-.22-.62-.89-1.2-1.56-1.92-1.05-1.14-1.98-1.78-2.59-2.96-.51-.99-1.54-1.16-2.6-2.31-.96-1.04-1.92-1.18-4.38-1.86Z" fill="#bdcad5" opacity=".57"/>
              <path d="M25.29,3.05c-2.13-.61-5.21,1.84-7.95,4.59-2.08,2.09-6.36,4.65-6.64,5.49-.32,.94-.55,1.81,.21,2.59,.48,.49,.82,.88,1.36,1.27,.71,.53,1.54,.68,2.22,.95,.16,.07,.32,.15,.45,.26,.7,.61,1.36,1.02,2.3,1.35,.39,.14,.81,.25,1.26,.35,1.17,.26,1.96,.09,3.14,.36,1.47,.34,2.61,.84,4.08,.75,.13,0,.25-.02,.36-.03,.98-.11,2.25-.72,3.19-1.72,.39-.42,.7-.87,1.05-1.24,.45-.46,1.05-.86,2.01-1.09,.84-.21,1.51-.67,2.27-1.03,1.63-.76,2.09-2.56,1.56-3.92-.24-.62-.96-1.19-1.67-1.93-1.12-1.17-2.09-1.79-2.69-3-.47-.94-1.41-1.13-2.41-2.21-.9-.97-1.83-1.13-4.11-1.78Z" fill="#b7c6d1" opacity=".62"/>
              <path d="M25.3,3.14c-2.04-.61-5.17,1.81-7.98,4.52-2.21,2.14-6.32,4.71-6.57,5.52-.28,.89-.44,1.71,.28,2.42,.46,.45,.8,.81,1.3,1.17,.7,.5,1.55,.62,2.22,.88,.16,.07,.31,.15,.44,.26,.69,.64,1.33,1.04,2.26,1.36,.38,.13,.79,.23,1.25,.33,1.16,.25,1.91,.04,3.11,.33,1.44,.36,2.52,.91,4.03,.83,.13,0,.25-.02,.36-.03,1-.1,2.25-.7,3.14-1.72,.38-.43,.66-.89,1-1.27,.43-.48,1.01-.88,1.98-1.1,.85-.19,1.5-.65,2.27-.98,1.63-.7,2.07-2.47,1.53-3.76-.26-.61-1.03-1.19-1.77-1.94-1.19-1.2-2.2-1.81-2.79-3.03-.42-.88-1.29-1.11-2.22-2.1-.85-.9-1.74-1.08-3.84-1.7Z" fill="#b2c2ce" opacity=".67"/>
              <path d="M25.32,3.23c-1.95-.6-5.14,1.78-8.01,4.45-2.35,2.19-6.28,4.78-6.49,5.55-.24,.85-.33,1.6,.35,2.26,.43,.41,.77,.74,1.25,1.07,.69,.47,1.56,.55,2.22,.82,.16,.07,.31,.15,.43,.27,.68,.66,1.3,1.06,2.22,1.37,.38,.13,.78,.22,1.24,.32,1.15,.24,1.87,0,3.08,.31,1.41,.37,2.43,.99,3.97,.92,.13,0,.25-.02,.36-.03,1.01-.1,2.25-.68,3.1-1.72,.36-.44,.62-.91,.95-1.3,.41-.49,.97-.9,1.95-1.1,.85-.18,1.5-.63,2.27-.94,1.62-.64,2.06-2.37,1.5-3.6-.28-.61-1.1-1.19-1.88-1.95-1.26-1.22-2.32-1.82-2.89-3.06-.38-.83-1.17-1.09-2.03-2-.79-.83-1.65-1.04-3.57-1.63Z" fill="#acbdca" opacity=".71"/>
              <path d="M25.33,3.32c-1.86-.59-5.11,1.75-8.03,4.38-2.49,2.24-6.24,4.85-6.42,5.59-.2,.81-.22,1.5,.42,2.09,.41,.37,.74,.67,1.19,.96,.69,.44,1.57,.48,2.22,.76,.16,.07,.3,.15,.42,.27,.67,.69,1.28,1.08,2.17,1.37,.37,.12,.77,.21,1.23,.31,1.13,.23,1.82-.06,3.04,.29,1.38,.39,2.33,1.07,3.92,1,.12,0,.24-.02,.35-.03,1.03-.1,2.24-.66,3.06-1.72,.34-.44,.58-.93,.89-1.34,.39-.5,.93-.92,1.92-1.11,.86-.17,1.5-.62,2.27-.89,1.62-.58,2.04-2.28,1.46-3.44-.3-.61-1.16-1.18-1.98-1.96-1.33-1.25-2.44-1.83-3-3.1-.34-.78-1.05-1.07-1.84-1.89-.74-.76-1.55-.99-3.3-1.55Z" fill="#a7b9c7" opacity=".76"/>
              <path d="M25.35,3.42c-1.77-.59-5.08,1.72-8.06,4.31-2.63,2.29-6.2,4.91-6.34,5.62-.16,.76-.11,1.4,.49,1.93,.38,.34,.72,.61,1.14,.86,.68,.4,1.58,.42,2.22,.69,.16,.07,.3,.16,.41,.28,.66,.72,1.25,1.1,2.13,1.38,.36,.11,.76,.2,1.22,.29,1.12,.22,1.78-.11,3.01,.26,1.35,.41,2.24,1.14,3.87,1.09,.12,0,.24-.01,.35-.02,1.04-.09,2.24-.64,3.01-1.72,.32-.45,.54-.95,.84-1.37,.37-.51,.89-.94,1.89-1.11,.86-.15,1.49-.6,2.27-.85,1.62-.52,2.02-2.19,1.43-3.28-.33-.6-1.23-1.18-2.09-1.96-1.4-1.28-2.56-1.84-3.1-3.13-.3-.72-.93-1.04-1.66-1.79-.68-.69-1.46-.95-3.03-1.47Z" fill="#a1b5c3" opacity=".81"/>
              <path d="M25.36,3.51c-1.68-.59-5.05,1.68-8.08,4.24-2.77,2.33-6.15,4.98-6.26,5.65-.12,.72,0,1.29,.56,1.76,.36,.3,.69,.54,1.08,.75,.68,.37,1.59,.35,2.22,.63,.16,.07,.3,.16,.4,.28,.65,.75,1.23,1.12,2.09,1.39,.36,.11,.75,.19,1.21,.28,1.11,.21,1.73-.16,2.97,.24,1.32,.42,2.15,1.22,3.81,1.17,.12,0,.23-.01,.35-.02,1.06-.09,2.24-.62,2.97-1.72,.31-.46,.5-.97,.78-1.4,.35-.53,.85-.96,1.86-1.12,.87-.14,1.49-.58,2.26-.8,1.62-.46,2-2.09,1.39-3.12-.35-.6-1.3-1.17-2.2-1.97-1.47-1.31-2.68-1.85-3.2-3.17-.27-.67-.8-1.02-1.47-1.68-.62-.62-1.37-.9-2.76-1.39Z" fill="#9cb0c0" opacity=".86"/>
              <path d="M25.37,3.6c-1.59-.59-5.02,1.65-8.11,4.17-2.91,2.37-6.11,5.05-6.19,5.69-.08,.68,.12,1.19,.64,1.6,.33,.26,.66,.47,1.03,.65,.67,.34,1.6,.29,2.23,.56,.16,.07,.29,.16,.4,.29,.63,.77,1.2,1.14,2.04,1.39,.35,.1,.74,.18,1.19,.26,1.1,.19,1.69-.21,2.94,.22s2.06,1.29,3.76,1.26c.12,0,.23,0,.34-.02,1.07-.09,2.23-.6,2.93-1.72,.29-.47,.46-.99,.73-1.43,.33-.54,.81-.98,1.83-1.12,.87-.12,1.48-.56,2.26-.76,1.62-.41,1.98-1.99,1.36-2.96-.38-.59-1.37-1.17-2.3-1.98-1.54-1.33-2.81-1.86-3.31-3.2-.23-.61-.68-1-1.28-1.58-.57-.55-1.28-.86-2.49-1.31Z" fill="#96acbc" opacity=".9"/>
              <path d="M25.39,3.69c-1.49-.59-4.99,1.61-8.14,4.1s-6.07,5.11-6.11,5.72c-.04,.63,.23,1.09,.71,1.43,.31,.22,.64,.4,.97,.54,.67,.3,1.62,.22,2.23,.5,.15,.07,.29,.16,.39,.29,.62,.8,1.18,1.16,2,1.4,.34,.1,.73,.17,1.18,.25,1.09,.18,1.64-.26,2.91,.19s1.97,1.36,3.71,1.34c.11,0,.23,0,.34-.02,1.09-.09,2.23-.58,2.89-1.72,.27-.47,.42-1.01,.67-1.46,.31-.55,.77-1,1.8-1.13,.88-.11,1.48-.55,2.26-.71,1.62-.35,1.96-1.89,1.33-2.8-.41-.58-1.44-1.16-2.41-1.99-1.61-1.36-2.94-1.87-3.41-3.24-.19-.56-.56-.97-1.09-1.47-.51-.48-1.18-.82-2.22-1.23Z" fill="#91a7b9" opacity=".95"/>
              <path d="M30.73,14.88c.88-.1,1.48-.53,2.26-.67,1.61-.29,1.94-1.79,1.29-2.64-.44-.58-1.5-1.16-2.51-1.99-1.68-1.39-3.08-1.88-3.51-3.27-.31-1-1.11-1.78-2.85-2.52-2.78-1.19-14.19,8.64-14.19,9.78,0,.98,.92,1.41,1.7,1.71,.83,.32,2.13,.08,2.61,.73,.86,1.18,1.59,1.4,3.13,1.64,1.08,.17,1.6-.31,2.87,.17,1.23,.46,1.88,1.44,3.65,1.42,1.2,0,2.5-.45,3.18-1.73,.56-1.06,.5-2.42,2.39-2.63Z" fill="#8ba3b5"/>
            </g>
            <path d="M32.61,11.1c-.36-1.66-2-2.72-3.66-2.36-.08,.02-.17,.04-.25,.07,.02-.5-.02-1-.13-1.51-.71-3.28-3.94-5.36-7.22-4.65-2.67,.58-4.55,2.84-4.76,5.42-.61,.29-1.15,.71-1.57,1.21-.6-.29-1.29-.39-1.99-.24-1.66,.36-2.72,2-2.36,3.66,.36,1.66,2,2.72,3.66,2.36,.1-.02,.2-.05,.3-.08,1.05,1.62,3.03,2.51,5.02,2.08,.48-.1,.93-.28,1.34-.51,.67,1.89,2.65,3.03,4.66,2.6,2.05-.44,3.4-2.38,3.16-4.42,.46,.12,.95,.14,1.44,.04,.77-.17,1.4-.61,1.83-1.2,.31,.23,.71,.32,1.11,.24,.75-.16,1.22-.9,1.06-1.64-.16-.75-.9-1.22-1.64-1.06Z" fill="#fff"/>
          </g>
        </g>
      </g>
    </g>
  </g>
</svg>