<?xml version="1.0" encoding="UTF-8"?>
<svg xmlns="http://www.w3.org/2000/svg" xmlns:xlink="http://www.w3.org/1999/xlink" viewBox="0 0 26.95 22.47">
  <defs>
    <style>
      .cls-1 {
        fill: #f9fbfb;
        opacity: .05;
      }

      .cls-2 {
        fill: #f3f6f7;
      }

      .cls-2, .cls-3 {
        opacity: .1;
      }

      .cls-3 {
        fill: #f4f6f8;
      }

      .cls-4 {
        fill: url(#linear-gradient);
      }

      .cls-5 {
        fill: #e9f2f5;
      }

      .cls-6 {
        fill: #ffe3ab;
      }

      .cls-7, .cls-8 {
        fill: #fff;
      }

      .cls-9 {
        fill: #8ba3b5;
      }

      .cls-10 {
        fill: #86a2b0;
      }

      .cls-11 {
        mix-blend-mode: multiply;
      }

      .cls-12 {
        fill: #eef2f4;
        opacity: .14;
      }

      .cls-13 {
        fill: #e8edf0;
      }

      .cls-13, .cls-14 {
        opacity: .19;
      }

      .cls-14 {
        fill: #e9edf1;
      }

      .cls-8 {
        opacity: 0;
      }

      .cls-15 {
        isolation: isolate;
      }

      .cls-16 {
        fill: #bdcad5;
      }

      .cls-16, .cls-17 {
        opacity: .57;
      }

      .cls-17 {
        fill: #bacad2;
      }

      .cls-18 {
        fill: #b7c6d1;
      }

      .cls-18, .cls-19 {
        opacity: .62;
      }

      .cls-19 {
        fill: #b4c5ce;
      }

      .cls-20 {
        fill: #c0ced6;
      }

      .cls-20, .cls-21 {
        opacity: .52;
      }

      .cls-21 {
        fill: #c2cfd8;
      }

      .cls-22 {
        fill: #c8d3dc;
      }

      .cls-22, .cls-23 {
        opacity: .48;
      }

      .cls-23 {
        fill: #c5d3d9;
      }

      .cls-24 {
        fill: #96acbc;
      }

      .cls-24, .cls-25 {
        opacity: .9;
      }

      .cls-25 {
        fill: #92abb8;
      }

      .cls-26 {
        fill: #9cb0c0;
      }

      .cls-26, .cls-27 {
        opacity: .86;
      }

      .cls-27 {
        fill: #97afbb;
      }

      .cls-28 {
        fill: #a7b9c7;
      }

      .cls-28, .cls-29 {
        opacity: .76;
      }

      .cls-29 {
        fill: #a3b8c3;
      }

      .cls-30 {
        fill: #a1b5c3;
      }

      .cls-30, .cls-31 {
        opacity: .81;
      }

      .cls-31 {
        fill: #9db4bf;
      }

      .cls-32 {
        fill: #acbdca;
      }

      .cls-32, .cls-33 {
        opacity: .71;
      }

      .cls-33 {
        fill: #a9bdc7;
      }

      .cls-34 {
        fill: #d7e0e5;
      }

      .cls-34, .cls-35 {
        opacity: .33;
      }

      .cls-35 {
        fill: #d8e0e6;
      }

      .cls-36 {
        fill: #dee5ea;
      }

      .cls-36, .cls-37 {
        opacity: .29;
      }

      .cls-37 {
        fill: #dce4e8;
      }

      .cls-38 {
        fill: #e2e9ec;
      }

      .cls-38, .cls-39 {
        opacity: .24;
      }

      .cls-39 {
        fill: #e3e9ed;
      }

      .cls-40 {
        fill: #cbd7dd;
      }

      .cls-40, .cls-41 {
        opacity: .43;
      }

      .cls-41 {
        fill: #cdd8df;
      }

      .cls-42 {
        fill: #d3dce3;
      }

      .cls-42, .cls-43 {
        opacity: .38;
      }

      .cls-43 {
        fill: #d1dce1;
      }

      .cls-44 {
        fill: #b2c2ce;
      }

      .cls-44, .cls-45 {
        opacity: .67;
      }

      .cls-45 {
        fill: #aec1ca;
      }

      .cls-46 {
        fill: #8ca6b4;
      }

      .cls-46, .cls-47 {
        opacity: .95;
      }

      .cls-47 {
        fill: #91a7b9;
      }
    </style>
    <linearGradient id="linear-gradient" x1="548.49" y1="-189.42" x2="558.29" y2="-179.61" gradientTransform="translate(-245.17 528.71) rotate(-45)" gradientUnits="userSpaceOnUse">
      <stop offset="0" stop-color="#ffd45c"/>
      <stop offset="1" stop-color="#ff9d00"/>
    </linearGradient>
  </defs>
  <g class="cls-15">
    <g id="Ebene_2" data-name="Ebene 2">
      <g id="Paper-Icons">
        <g>
          <g>
            <g class="cls-11">
              <path class="cls-8" d="M25.61,19.26c1.84-1.56,1.51-6.39,.57-7.68-1.24-1.7-2.55-2.73-3.68-3.3-1.13-.57-4.31-1.06-5.76-1.06-2.02,0-4.01,.49-5.64,.93-1.76,.47-5.23,1.74-6.88,3.54-1.92,2.11-.23,6.3,.26,6.92,.92,1.15,2.03,2.29,3.43,2.96,1.34,.64,2.5,.61,3.5,.68,.76,.05,4.12,.43,6.09,.02,1.4-.29,3.77-.72,4.44-1.06,.63-.31,2.19-.72,3.66-1.96Z"/>
              <path class="cls-1" d="M25.32,19.1c1.81-1.51,1.51-6.18,.58-7.49-1.21-1.7-2.52-2.68-3.64-3.23-1.11-.55-4.15-1.04-5.58-1.06-1.97-.01-3.95,.46-5.57,.89-1.75,.47-5.18,1.74-6.77,3.48-1.86,2.03-.27,6.11,.25,6.76,.89,1.11,1.94,2.25,3.34,2.9,1.32,.62,2.47,.57,3.43,.64,.75,.06,4,.48,5.97,.07,1.41-.29,3.69-.76,4.34-1.08,.63-.31,2.16-.68,3.63-1.89Z"/>
              <path class="cls-3" d="M25.02,18.95c1.79-1.46,1.51-5.97,.59-7.29-1.19-1.71-2.48-2.62-3.59-3.17-1.08-.54-3.98-1.03-5.4-1.06-1.92-.03-3.89,.42-5.49,.86-1.74,.47-5.13,1.74-6.66,3.41-1.79,1.95-.31,5.92,.24,6.6,.86,1.08,1.85,2.2,3.26,2.84,1.31,.6,2.43,.52,3.37,.6,.74,.07,3.87,.53,5.84,.13,1.42-.29,3.61-.79,4.24-1.11,.62-.31,2.14-.63,3.59-1.82Z"/>
              <path class="cls-12" d="M24.72,18.79c1.77-1.41,1.51-5.76,.6-7.1-1.17-1.71-2.45-2.57-3.55-3.11-1.06-.52-3.82-1.02-5.21-1.05-1.87-.05-3.83,.39-5.42,.82-1.73,.47-5.08,1.74-6.55,3.35-1.72,1.88-.35,5.73,.23,6.45,.84,1.04,1.77,2.15,3.17,2.77,1.29,.58,2.4,.48,3.31,.57,.73,.07,3.74,.58,5.71,.18,1.42-.28,3.53-.83,4.15-1.14,.62-.31,2.12-.59,3.56-1.74Z"/>
              <path class="cls-14" d="M24.42,18.63c1.74-1.36,1.51-5.56,.61-6.9-1.14-1.72-2.42-2.52-3.51-3.05-1.04-.51-3.65-1-5.03-1.05-1.82-.06-3.77,.36-5.35,.79-1.72,.47-5.02,1.75-6.44,3.28-1.66,1.8-.39,5.54,.21,6.29,.81,1,1.68,2.1,3.08,2.71,1.28,.55,2.37,.43,3.25,.53,.72,.08,3.62,.63,5.59,.24,1.43-.28,3.45-.86,4.05-1.16s2.1-.55,3.53-1.67Z"/>
              <path class="cls-39" d="M24.13,18.47c1.71-1.31,1.51-5.35,.63-6.71-1.12-1.72-2.39-2.46-3.46-2.99-1.01-.49-3.49-.99-4.85-1.05-1.77-.08-3.72,.32-5.27,.76-1.7,.47-4.97,1.75-6.33,3.22-1.59,1.72-.43,5.35,.2,6.13,.78,.96,1.59,2.05,3,2.65,1.26,.53,2.34,.39,3.18,.49,.71,.09,3.49,.68,5.46,.3,1.44-.28,3.37-.9,3.95-1.19,.61-.31,2.08-.51,3.5-1.6Z"/>
              <path class="cls-36" d="M23.83,18.31c1.69-1.27,1.51-5.14,.64-6.52-1.1-1.73-2.36-2.41-3.42-2.92-.99-.48-3.32-.98-4.67-1.05-1.72-.1-3.66,.29-5.2,.72-1.69,.47-4.92,1.75-6.22,3.15-1.52,1.64-.48,5.16,.19,5.97,.76,.93,1.5,2,2.91,2.58,1.25,.51,2.3,.35,3.12,.46,.7,.09,3.36,.73,5.33,.35,1.45-.28,3.29-.93,3.85-1.22,.61-.31,2.06-.47,3.46-1.53Z"/>
              <path class="cls-35" d="M23.53,18.15c1.66-1.22,1.51-4.93,.65-6.32-1.08-1.73-2.32-2.36-3.38-2.86-.96-.47-3.16-.96-4.49-1.05-1.67-.11-3.6,.26-5.13,.69-1.68,.47-4.87,1.75-6.11,3.09-1.45,1.57-.52,4.97,.18,5.82s1.41,1.95,2.83,2.52c1.23,.49,2.27,.31,3.06,.42,.69,.1,3.23,.78,5.21,.41,1.46-.27,3.21-.97,3.76-1.25,.6-.31,2.03-.43,3.43-1.45Z"/>
              <path class="cls-42" d="M23.23,17.99c1.63-1.17,1.51-4.72,.66-6.13-1.05-1.74-2.29-2.3-3.33-2.8-.94-.45-2.99-.95-4.31-1.05-1.61-.12-3.54,.23-5.05,.65-1.67,.47-4.82,1.75-6.01,3.02-1.39,1.49-.56,4.77,.16,5.66s1.32,1.91,2.74,2.45c1.22,.47,2.24,.26,3,.38,.68,.11,3.11,.83,5.08,.46,1.47-.27,3.14-1,3.66-1.27,.6-.31,2.01-.39,3.4-1.38Z"/>
              <path class="cls-41" d="M22.94,17.84c1.61-1.12,1.51-4.51,.67-5.93-1.03-1.74-2.26-2.25-3.29-2.74-.92-.44-2.83-.93-4.13-1.05-1.56-.14-3.48,.19-4.98,.62-1.66,.47-4.77,1.75-5.9,2.95-1.32,1.41-.6,4.58,.15,5.5,.67,.82,1.23,1.86,2.66,2.39,1.2,.45,2.21,.22,2.93,.35,.67,.12,2.98,.88,4.95,.52,1.48-.27,3.06-1.04,3.56-1.3,.59-.31,1.99-.35,3.37-1.31Z"/>
              <path class="cls-22" d="M22.64,17.68c1.58-1.07,1.51-4.3,.68-5.74-1.01-1.74-2.23-2.19-3.25-2.68-.89-.42-2.66-.92-3.95-1.05-1.51-.15-3.42,.16-4.91,.58-1.64,.47-4.72,1.75-5.79,2.89-1.25,1.33-.64,4.39,.14,5.34,.64,.78,1.14,1.81,2.57,2.33,1.19,.43,2.18,.18,2.87,.31,.66,.12,2.85,.93,4.83,.57,1.49-.27,2.98-1.07,3.46-1.33,.59-.31,1.97-.31,3.34-1.23Z"/>
              <path class="cls-21" d="M22.34,17.52c1.55-1.03,1.51-4.09,.69-5.54-.99-1.75-2.2-2.14-3.2-2.61-.87-.41-2.5-.9-3.77-1.05-1.46-.17-3.37,.13-4.83,.55-1.63,.47-4.67,1.75-5.68,2.82-1.19,1.25-.69,4.2,.13,5.19,.61,.75,1.05,1.76,2.48,2.26,1.17,.41,2.14,.14,2.81,.27s2.73,.98,4.7,.63c1.5-.26,2.9-1.11,3.37-1.35,.59-.31,1.94-.27,3.3-1.16Z"/>
              <path class="cls-16" d="M22.04,17.36c1.53-.98,1.51-3.89,.7-5.35-.97-1.75-2.16-2.09-3.16-2.55-.84-.39-2.33-.89-3.59-1.05-1.41-.18-3.31,.09-4.76,.51-1.62,.47-4.61,1.75-5.57,2.76-1.12,1.18-.73,4.01,.11,5.03,.59,.71,.97,1.72,2.4,2.2,1.16,.39,2.11,.1,2.75,.24s2.6,1.03,4.57,.69c1.5-.26,2.82-1.14,3.27-1.38,.58-.31,1.92-.22,3.27-1.09Z"/>
              <path class="cls-18" d="M21.75,17.2c1.5-.93,1.51-3.68,.72-5.16-.95-1.76-2.13-2.03-3.12-2.49-.82-.38-2.17-.87-3.41-1.05-1.36-.19-3.25,.06-4.68,.48-1.61,.47-4.56,1.75-5.46,2.69-1.05,1.1-.77,3.82,.1,4.87,.56,.67,.88,1.67,2.31,2.14,1.14,.37,2.08,.06,2.69,.2s2.47,1.08,4.45,.74c1.51-.26,2.74-1.18,3.17-1.41,.58-.31,1.9-.18,3.24-1.02Z"/>
              <path class="cls-44" d="M21.45,17.04c1.47-.88,1.51-3.47,.73-4.96-.92-1.76-2.1-1.98-3.07-2.43-.79-.36-2-.86-3.22-1.04-1.31-.2-3.19,.03-4.61,.44-1.6,.47-4.51,1.75-5.35,2.63-.98,1.02-.81,3.63,.09,4.71,.53,.64,.79,1.62,2.23,2.07,1.13,.35,2.05,.02,2.62,.16,.61,.16,2.35,1.13,4.32,.8,1.52-.26,2.66-1.21,3.07-1.44,.57-.31,1.87-.14,3.21-.94Z"/>
              <path class="cls-32" d="M21.15,16.89c1.44-.84,1.51-3.26,.74-4.77-.9-1.76-2.07-1.93-3.03-2.37-.77-.35-1.84-.84-3.04-1.04s-3.13,0-4.54,.41c-1.58,.47-4.46,1.76-5.24,2.56-.92,.94-.85,3.44,.08,4.56,.5,.6,.7,1.58,2.14,2.01,1.11,.33,2.02-.02,2.56,.12,.6,.17,2.22,1.18,4.19,.85,1.53-.25,2.58-1.25,2.98-1.46,.57-.31,1.85-.11,3.17-.87Z"/>
              <path class="cls-28" d="M20.85,16.73c1.42-.79,1.51-3.05,.75-4.57-.88-1.77-2.04-1.87-2.99-2.3-.75-.34-1.68-.82-2.86-1.04s-3.07-.04-4.46,.37c-1.57,.47-4.41,1.76-5.14,2.5-.85,.87-.9,3.25,.06,4.4,.47,.57,.61,1.53,2.05,1.95,1.1,.31,1.98-.06,2.5,.09,.59,.18,2.09,1.24,4.06,.91,1.54-.25,2.5-1.29,2.88-1.49,.57-.31,1.83-.07,3.14-.8Z"/>
              <path class="cls-30" d="M20.56,16.57c1.39-.74,1.51-2.84,.76-4.38-.86-1.77-2-1.82-2.95-2.24-.72-.32-1.51-.8-2.68-1.04s-3.02-.07-4.39,.34c-1.56,.47-4.36,1.76-5.03,2.43-.78,.79-.94,3.06,.05,4.24,.44,.53,.52,1.49,1.97,1.88,1.08,.29,1.95-.1,2.44,.05,.58,.19,1.97,1.29,3.94,.96,1.55-.25,2.42-1.32,2.78-1.52,.56-.31,1.8-.03,3.11-.73Z"/>
              <path class="cls-26" d="M20.26,16.41c1.36-.7,1.51-2.63,.77-4.18-.84-1.77-1.97-1.77-2.9-2.18-.7-.31-1.35-.79-2.5-1.04s-2.96-.11-4.32,.3c-1.55,.47-4.31,1.76-4.92,2.36-.72,.71-.98,2.87,.04,4.08,.42,.49,.43,1.44,1.88,1.82,1.06,.28,1.92-.14,2.37,.01,.57,.2,1.84,1.34,3.81,1.02,1.56-.25,2.35-1.36,2.69-1.54,.56-.31,1.78,.01,3.08-.65Z"/>
              <path class="cls-24" d="M19.96,16.25c1.33-.65,1.5-2.42,.78-3.99-.82-1.78-1.94-1.72-2.86-2.12-.67-.3-1.18-.77-2.32-1.04-1.06-.25-2.9-.14-4.24,.27-1.54,.47-4.26,1.76-4.81,2.3-.65,.63-1.03,2.68,.03,3.93,.39,.46,.34,1.4,1.8,1.76,1.05,.26,1.88-.18,2.31-.02,.56,.21,1.71,1.39,3.68,1.08,1.57-.24,2.27-1.39,2.59-1.57,.55-.31,1.76,.05,3.04-.58Z"/>
              <path class="cls-47" d="M19.66,16.09c1.3-.61,1.5-2.21,.79-3.8-.8-1.78-1.91-1.66-2.82-2.06-.65-.28-1.02-.75-2.14-1.04-1.01-.26-2.84-.17-4.17,.23-1.52,.47-4.2,1.76-4.7,2.23-.58,.55-1.07,2.49,.01,3.77,.36,.42,.25,1.35,1.71,1.69,1.03,.24,1.85-.22,2.25-.06,.55,.22,1.58,1.44,3.56,1.13,1.58-.24,2.19-1.43,2.49-1.6,.55-.31,1.73,.09,3.01-.51Z"/>
              <path class="cls-9" d="M19.37,15.93c1.28-.56,1.5-2,.8-3.6-.78-1.78-1.87-1.61-2.77-2-.62-.27-.86-.73-1.96-1.04-.96-.27-2.78-.21-4.1,.2-1.51,.47-4.15,1.76-4.59,2.17-.51,.48-1.12,2.3,0,3.61,.33,.39,.16,1.31,1.63,1.63,1.02,.22,1.82-.26,2.19-.1,.54,.23,1.46,1.49,3.43,1.19,1.58-.24,2.11-1.46,2.39-1.62,.55-.31,1.71,.12,2.98-.44Z"/>
            </g>
            <path class="cls-7" d="M17.66,9.93c-.07,0-.14,0-.2,0-.37-1.04-1.36-1.79-2.53-1.79-.35,0-.68,.07-.99,.19-.36-1-1.32-1.72-2.45-1.72s-2.03,.68-2.42,1.64c-.13-.02-.26-.03-.39-.03-1.18,0-2.16,.9-2.28,2.05-.16-.03-.34-.05-.51-.05-1.43,0-2.58,1.16-2.58,2.58s1.16,2.58,2.58,2.58c.02,0,.04,0,.07,0,.25,1.04,1.19,1.82,2.31,1.82,.87,0,1.63-.46,2.04-1.16,.57,.97,1.62,1.62,2.82,1.62,1.33,0,2.48-.8,2.99-1.94,.45,.26,.98,.41,1.54,.41,1.71,0,3.1-1.39,3.1-3.1s-1.39-3.1-3.1-3.1Z"/>
            <path class="cls-5" d="M17.77,10.04c-.07,0-.14,0-.2,0-.37-1.04-1.36-1.79-2.53-1.79-.35,0-.68,.07-.99,.19-.36-1-1.32-1.72-2.45-1.72s-2.03,.68-2.42,1.64c-.13-.02-.26-.03-.39-.03-1.18,0-2.16,.9-2.28,2.05-.16-.03-.34-.05-.51-.05-1.43,0-2.58,1.16-2.58,2.58s1.16,2.58,2.58,2.58c.02,0,.04,0,.07,0,.25,1.04,1.19,1.82,2.31,1.82,.87,0,1.63-.46,2.04-1.16,.57,.97,1.62,1.62,2.82,1.62,1.33,0,2.48-.8,2.99-1.94,.45,.26,.98,.41,1.54,.41,1.71,0,3.1-1.39,3.1-3.1s-1.39-3.1-3.1-3.1Z"/>
          </g>
          <g>
            <g>
              <g class="cls-11">
                <path class="cls-8" d="M18.13,16.56c-2.97,.23-7.49-1.44-8.52-3.64-.98-2.12-.2-3.7,1.4-4.24,.99-.33,3.49,1.53,5.74,1.46,3.04-.1,3.61-1.09,4.6-2.54,.81-1.18,4.77-.32,4.39,2.72-.49,3.97-3.88,5.95-7.62,6.24Z"/>
                <path class="cls-1" d="M18.14,16.4c-2.89,.24-7.26-1.38-8.3-3.49s-.31-3.59,1.23-4.11c.96-.33,3.43,1.53,5.72,1.43,2.99-.13,3.62-1.14,4.59-2.55,.79-1.15,4.54-.26,4.14,2.67-.51,3.81-3.75,5.74-7.38,6.05Z"/>
                <path class="cls-2" d="M18.15,16.24c-2.81,.26-7.02-1.32-8.09-3.34s-.42-3.48,1.06-3.99c.93-.32,3.37,1.53,5.71,1.41,2.93-.15,3.63-1.19,4.58-2.57,.77-1.12,4.3-.21,3.9,2.63-.53,3.65-3.63,5.53-7.15,5.85Z"/>
                <path class="cls-12" d="M18.16,16.09c-2.73,.27-6.79-1.26-7.88-3.18s-.53-3.36,.89-3.86c.89-.32,3.32,1.53,5.69,1.39,2.88-.18,3.64-1.24,4.57-2.59,.75-1.09,4.07-.15,3.65,2.59-.54,3.49-3.5,5.32-6.92,5.66Z"/>
                <path class="cls-13" d="M18.17,15.93c-2.65,.29-6.56-1.2-7.67-3.03s-.64-3.24,.72-3.74c.86-.31,3.26,1.53,5.67,1.36,2.83-.2,3.66-1.29,4.56-2.6,.73-1.06,3.84-.1,3.4,2.54-.56,3.33-3.38,5.12-6.69,5.46Z"/>
                <path class="cls-38" d="M18.18,15.77c-2.57,.3-6.33-1.14-7.46-2.88-1.19-1.85-.75-3.13,.55-3.61,.83-.31,3.2,1.54,5.66,1.34,2.77-.22,3.67-1.34,4.55-2.62,.71-1.03,3.61-.05,3.15,2.5-.58,3.17-3.25,4.91-6.46,5.27Z"/>
                <path class="cls-37" d="M18.19,15.61c-2.5,.31-6.11-1.08-7.24-2.73-1.23-1.79-.86-3.02,.39-3.48,.8-.3,3.14,1.54,5.64,1.31,2.72-.24,3.68-1.4,4.54-2.64,.69-1,3.39,0,2.9,2.46-.59,3.01-3.13,4.69-6.22,5.08Z"/>
                <path class="cls-34" d="M18.21,15.45c-2.42,.32-5.88-1.01-7.03-2.57-1.28-1.74-.97-2.9,.22-3.36,.76-.3,3.09,1.54,5.63,1.29s3.7-1.45,4.53-2.65c.67-.97,3.16,.06,2.65,2.41-.61,2.85-3.01,4.48-5.99,4.88Z"/>
                <path class="cls-43" d="M18.22,15.29c-2.34,.34-5.66-.95-6.82-2.42-1.33-1.69-1.08-2.79,.05-3.23,.73-.29,3.03,1.55,5.61,1.27s3.71-1.5,4.52-2.67c.65-.94,2.93,.12,2.41,2.37-.62,2.69-2.88,4.27-5.76,4.69Z"/>
                <path class="cls-40" d="M18.23,15.13c-2.26,.35-5.44-.89-6.61-2.27-1.38-1.63-1.18-2.67-.12-3.11,.7-.29,2.97,1.55,5.59,1.24s3.72-1.55,4.51-2.69c.63-.91,2.7,.17,2.16,2.32-.64,2.53-2.76,4.07-5.53,4.5Z"/>
                <path class="cls-23" d="M18.24,14.97c-2.18,.36-5.22-.82-6.4-2.11-1.43-1.58-1.29-2.56-.29-2.98,.67-.28,2.91,1.56,5.58,1.22,2.5-.32,3.73-1.6,4.49-2.7,.61-.88,2.47,.22,1.91,2.28-.65,2.37-2.64,3.86-5.3,4.3Z"/>
                <path class="cls-20" d="M18.25,14.81c-2.1,.38-5.01-.76-6.18-1.96-1.49-1.52-1.4-2.44-.46-2.86,.63-.28,2.86,1.56,5.56,1.19,2.44-.33,3.75-1.65,4.48-2.72,.59-.85,2.25,.28,1.66,2.24-.66,2.21-2.51,3.65-5.06,4.11Z"/>
                <path class="cls-17" d="M18.26,14.65c-2.02,.39-4.79-.69-5.97-1.81-1.54-1.46-1.51-2.33-.63-2.73,.6-.27,2.8,1.57,5.55,1.17,2.39-.35,3.76-1.71,4.47-2.74,.57-.82,2.02,.33,1.41,2.19-.67,2.05-2.39,3.44-4.83,3.91Z"/>
                <path class="cls-19" d="M18.27,14.49c-1.94,.41-4.58-.62-5.76-1.66-1.6-1.41-1.62-2.22-.79-2.61,.57-.27,2.74,1.58,5.53,1.15,2.34-.36,3.77-1.76,4.46-2.75,.55-.79,1.8,.38,1.16,2.15-.68,1.89-2.26,3.23-4.6,3.72Z"/>
                <path class="cls-45" d="M18.28,14.33c-1.87,.42-4.37-.55-5.55-1.5-1.66-1.34-1.73-2.1-.96-2.48,.53-.26,2.68,1.59,5.51,1.12,2.28-.38,3.78-1.81,4.45-2.77,.53-.76,1.57,.44,.92,2.11s-2.14,3.02-4.37,3.53Z"/>
                <path class="cls-33" d="M18.29,14.18c-1.79,.43-4.16-.48-5.34-1.35-1.72-1.28-1.84-1.99-1.13-2.36,.5-.26,2.63,1.6,5.5,1.1,2.23-.39,3.8-1.86,4.44-2.79,.51-.73,1.35,.49,.67,2.06s-2.01,2.82-4.14,3.33Z"/>
                <path class="cls-29" d="M18.3,14.02c-1.71,.45-3.95-.4-5.12-1.2-1.79-1.21-1.95-1.88-1.3-2.23,.47-.26,2.57,1.61,5.48,1.07,2.18-.4,3.81-1.91,4.43-2.8,.49-.71,1.14,.54,.42,2.02s-1.89,2.61-3.9,3.14Z"/>
                <path class="cls-31" d="M18.31,13.86c-1.63,.46-3.74-.33-4.91-1.05-1.85-1.14-2.06-1.77-1.47-2.11,.44-.25,2.52,1.63,5.47,1.05,2.12-.41,3.82-1.96,4.42-2.82,.47-.68,.92,.6,.17,1.98-.69,1.26-1.77,2.4-3.67,2.95Z"/>
                <path class="cls-27" d="M18.32,13.7c-1.55,.48-3.53-.25-4.7-.89-1.92-1.06-2.17-1.65-1.64-1.98,.4-.25,2.46,1.64,5.45,1.03,2.07-.43,3.84-2.02,4.41-2.83,.45-.65,.71,.66-.08,1.93-.68,1.1-1.64,2.19-3.44,2.75Z"/>
                <path class="cls-25" d="M18.33,13.54c-1.47,.5-3.32-.17-4.49-.74-1.99-.98-2.28-1.54-1.81-1.86,.37-.25,2.4,1.66,5.43,1,2.02-.44,3.85-2.07,4.4-2.85,.43-.62,.5,.72-.33,1.89-.67,.95-1.52,1.99-3.21,2.56Z"/>
                <path class="cls-46" d="M18.34,13.38c-1.39,.51-3.11-.08-4.28-.59-2.05-.89-2.39-1.43-1.97-1.73,.33-.24,2.35,1.68,5.42,.98,1.96-.45,3.86-2.12,4.39-2.87,.41-.59,.3,.79-.57,1.84-.66,.8-1.39,1.78-2.98,2.36Z"/>
                <path class="cls-10" d="M18.35,13.22c-1.31,.53-2.9,0-4.07-.43-2.12-.8-2.5-1.32-2.14-1.61,.3-.24,2.3,1.7,5.4,.96,1.91-.46,3.87-2.17,4.37-2.88,.39-.56,.1,.87-.82,1.8-.65,.66-1.27,1.58-2.75,2.17Z"/>
              </g>
              <g class="cls-11">
                <path class="cls-8" d="M9,3.87C10.18,1.02,13.39,.02,14.98,.04c.99,0,1.86,1.05,.42,3.45-1.61,2.69-.77,4.93,.46,6.13,1.47,1.42,3.54,1.38,3.1,2.6-.76,2.14-4.5,2.58-7.41,.87-2.93-1.72-3.91-5.94-2.55-9.22Z"/>
                <path class="cls-1" d="M9.04,3.96C10.19,1.1,13.38,.05,14.89,.08c.94,.02,1.72,1.02,.31,3.39-1.6,2.69-.76,4.92,.46,6.14,1.43,1.42,3.53,1.43,3.11,2.6-.74,2.05-4.42,2.46-7.26,.79-2.85-1.68-3.79-5.81-2.49-9.04Z"/>
                <path class="cls-2" d="M9.08,4.05C10.2,1.18,13.37,.07,14.8,.12c.89,.03,1.59,1,.21,3.33-1.59,2.7-.75,4.92,.47,6.15,1.4,1.41,3.53,1.49,3.13,2.6-.71,1.95-4.34,2.35-7.1,.71-2.77-1.64-3.66-5.68-2.43-8.85Z"/>
                <path class="cls-12" d="M9.13,4.15C10.21,1.25,13.36,.1,14.72,.16c.84,.04,1.45,.97,.11,3.27-1.58,2.7-.74,4.91,.48,6.16,1.37,1.4,3.53,1.55,3.14,2.6-.68,1.86-4.25,2.23-6.95,.63-2.69-1.6-3.54-5.56-2.37-8.67Z"/>
                <path class="cls-13" d="M9.17,4.24C10.22,1.33,13.35,.12,14.63,.2c.79,.05,1.32,.94,0,3.21-1.56,2.71-.73,4.9,.49,6.17,1.34,1.4,3.52,1.6,3.15,2.6-.65,1.76-4.17,2.11-6.79,.54-2.62-1.56-3.42-5.43-2.31-8.49Z"/>
                <path class="cls-38" d="M9.21,4.33C10.23,1.41,13.34,.15,14.54,.24c.75,.06,1.19,.91-.1,3.15-1.55,2.71-.72,4.89,.49,6.18,1.3,1.39,3.52,1.66,3.17,2.6-.63,1.66-4.09,2-6.64,.46-2.54-1.52-3.3-5.31-2.26-8.31Z"/>
                <path class="cls-37" d="M9.26,4.42C10.24,1.48,13.33,.17,14.46,.28c.7,.07,1.05,.88-.2,3.09-1.54,2.72-.7,4.88,.5,6.19,1.27,1.38,3.52,1.72,3.18,2.61-.6,1.57-4,1.88-6.49,.38-2.46-1.48-3.19-5.18-2.2-8.13Z"/>
                <path class="cls-34" d="M9.3,4.51C10.25,1.56,13.32,.2,14.37,.33c.65,.08,.92,.86-.3,3.03-1.53,2.72-.69,4.87,.51,6.2s3.51,1.77,3.19,2.61c-.57,1.47-3.92,1.77-6.33,.3-2.38-1.45-3.07-5.06-2.14-7.94Z"/>
                <path class="cls-43" d="M9.34,4.61C10.26,1.63,13.31,.22,14.29,.37c.6,.09,.78,.83-.4,2.97-1.52,2.73-.68,4.86,.52,6.21s3.51,1.83,3.2,2.61c-.54,1.38-3.84,1.65-6.18,.22-2.3-1.41-2.95-4.94-2.08-7.76Z"/>
                <path class="cls-40" d="M9.39,4.7C10.27,1.7,13.3,.25,14.2,.41c.56,.1,.65,.8-.51,2.91-1.5,2.73-.67,4.85,.52,6.22s3.51,1.89,3.22,2.61c-.52,1.28-3.76,1.53-6.02,.13-2.22-1.37-2.84-4.82-2.02-7.58Z"/>
                <path class="cls-23" d="M9.43,4.79C10.27,1.78,13.3,.27,14.11,.45c.51,.11,.52,.78-.61,2.85-1.49,2.74-.65,4.84,.53,6.23s3.51,1.94,3.23,2.61c-.49,1.19-3.67,1.42-5.87,.05-2.15-1.33-2.72-4.69-1.97-7.4Z"/>
                <path class="cls-20" d="M9.47,4.88C10.28,1.85,13.29,.3,14.03,.49c.46,.12,.39,.75-.71,2.79-1.48,2.74-.64,4.83,.54,6.24s3.5,2,3.24,2.61c-.46,1.09-3.59,1.3-5.72-.03-2.07-1.29-2.61-4.57-1.91-7.22Z"/>
                <path class="cls-17" d="M9.51,4.98C10.28,1.93,13.28,.32,13.94,.53c.42,.13,.25,.72-.81,2.73-1.46,2.75-.63,4.82,.55,6.25,1.09,1.33,3.5,2.06,3.26,2.61-.43,1-3.51,1.18-5.56-.11-1.99-1.25-2.5-4.45-1.85-7.04Z"/>
                <path class="cls-19" d="M9.56,5.07C10.28,2,13.27,.35,13.85,.57c.37,.14,.12,.7-.92,2.67-1.45,2.76-.61,4.81,.55,6.26,1.06,1.32,3.5,2.11,3.27,2.62-.41,.9-3.42,1.07-5.41-.2-1.91-1.21-2.39-4.33-1.79-6.85Z"/>
                <path class="cls-45" d="M9.6,5.16C10.28,2.07,13.27,.37,13.77,.61c.32,.15-.01,.67-1.02,2.61-1.43,2.76-.6,4.79,.56,6.27,1.03,1.31,3.49,2.17,3.28,2.62-.38,.8-3.34,.95-5.26-.28-1.83-1.17-2.28-4.21-1.73-6.67Z"/>
                <path class="cls-33" d="M9.64,5.25C10.28,2.14,13.26,.4,13.68,.65c.28,.16-.15,.64-1.12,2.55-1.42,2.77-.58,4.78,.57,6.28,1,1.3,3.49,2.23,3.29,2.62-.35,.71-3.26,.84-5.1-.36-1.75-1.13-2.17-4.09-1.68-6.49Z"/>
                <path class="cls-29" d="M9.69,5.34c.59-3.13,3.57-4.91,3.91-4.65,.23,.18-.28,.62-1.23,2.49-1.41,2.78-.57,4.77,.58,6.29,.97,1.29,3.49,2.28,3.31,2.62-.32,.61-3.17,.72-4.95-.44-1.68-1.09-2.06-3.97-1.62-6.31Z"/>
                <path class="cls-31" d="M9.73,5.44c.55-3.15,3.52-4.97,3.78-4.7,.19,.19-.41,.59-1.33,2.43-1.39,2.78-.55,4.76,.58,6.3,.95,1.28,3.48,2.34,3.32,2.62-.3,.52-3.09,.6-4.79-.52-1.6-1.05-1.96-3.85-1.56-6.13Z"/>
                <path class="cls-27" d="M9.77,5.53c.5-3.17,3.46-5.03,3.65-4.76,.14,.21-.54,.57-1.43,2.37-1.37,2.79-.54,4.75,.59,6.31,.92,1.27,3.48,2.4,3.33,2.62-.27,.42-3.01,.49-4.64-.61-1.52-1.01-1.85-3.73-1.5-5.94Z"/>
                <path class="cls-25" d="M9.81,5.62c.44-3.19,3.41-5.09,3.52-4.81,.09,.22-.67,.54-1.53,2.31-1.35,2.8-.52,4.73,.6,6.32,.89,1.26,3.47,2.45,3.35,2.62-.24,.33-2.92,.37-4.49-.69-1.44-.98-1.75-3.6-1.44-5.76Z"/>
                <path class="cls-46" d="M9.86,5.71c.39-3.21,3.35-5.15,3.39-4.86,.03,.24-.8,.51-1.64,2.25-1.34,2.8-.5,4.72,.61,6.33,.86,1.25,3.47,2.51,3.36,2.63-.22,.23-2.84,.25-4.33-.77-1.36-.94-1.64-3.48-1.39-5.58Z"/>
                <path class="cls-10" d="M9.9,5.8c.33-3.23,3.29-5.21,3.26-4.91-.02,.25-.94,.49-1.74,2.19-1.33,2.81-.49,4.71,.61,6.34,.84,1.24,3.47,2.57,3.37,2.63-.19,.13-2.76,.14-4.18-.85-1.28-.9-1.54-3.36-1.33-5.4Z"/>
              </g>
            </g>
            <path class="cls-6" d="M20.77,9.76c-2.27,2.27-5.96,2.27-8.23,0-2.27-2.27-2.27-5.96,0-8.23C13.43,.64,14.65,.2,15.8,0c-1.82-.08-3.76,.53-5.15,1.92-2.71,2.71-2.71,7.1,0,9.8,2.71,2.71,7.1,2.71,9.8,0,1.53-1.53,2.3-3.48,2.1-5.47-.17,1.32-.78,2.49-1.79,3.5Z"/>
            <path class="cls-4" d="M20.88,9.87c-2.27,2.27-5.96,2.27-8.23,0-2.27-2.27-2.27-5.96,0-8.23C13.54,.74,14.65,.2,15.8,0c-1.82-.04-3.65,.64-5.04,2.03-2.71,2.71-2.71,7.1,0,9.8,2.71,2.71,7.1,2.71,9.8,0,1.53-1.53,2.19-3.58,2-5.58-.12,1.31-.68,2.6-1.68,3.6Z"/>
          </g>
          <g>
            <g class="cls-11">
              <path class="cls-8" d="M16.77,15.96c1.04-1.54,.54-4.4-.19-5.39-.95-1.31-2.44-1.49-3.32-1.93-.87-.44-2.53-1.61-3.64-1.61-1.56,0-2.35,.58-3.61,.91-1.36,.36-3.67,2.49-4.94,3.88C-.42,13.45-.04,15.9,.34,16.37c.71,.89,1.57,1.77,2.64,2.29,1.03,.49,1.93,.47,2.7,.52,.58,.04,1.27,.33,2.79,.01,1.08-.22,1.59-.31,2.15-.49,1.17-.37,4.9-.88,6.16-2.75Z"/>
              <path class="cls-1" d="M16.57,15.9c1.04-1.49,.56-4.28-.15-5.27-.94-1.31-2.42-1.47-3.28-1.9-.85-.43-2.46-1.61-3.56-1.62-1.52,0-2.34,.54-3.59,.88-1.35,.36-3.62,2.47-4.84,3.81C-.29,13.37,0,15.76,.4,16.26c.69,.86,1.52,1.73,2.6,2.22,1.04,.47,1.91,.42,2.66,.48,.58,.05,1.27,.35,2.79,.04,1.09-.22,1.61-.33,2.14-.49,1.14-.34,4.73-.8,5.98-2.6Z"/>
              <path class="cls-3" d="M16.37,15.85c1.03-1.44,.59-4.17-.11-5.14-.93-1.31-2.4-1.44-3.25-1.86-.84-.41-2.39-1.62-3.48-1.64-1.48-.03-2.33,.51-3.57,.84-1.34,.36-3.56,2.44-4.74,3.73C-.16,13.29,.04,15.62,.46,16.14c.67,.83,1.47,1.68,2.56,2.16,1.05,.45,1.9,.37,2.62,.43,.57,.05,1.27,.38,2.79,.07,1.09-.22,1.62-.35,2.14-.49,1.11-.3,4.56-.72,5.8-2.45Z"/>
              <path class="cls-12" d="M16.17,15.8c1.03-1.39,.61-4.05-.07-5.02-.93-1.31-2.37-1.42-3.22-1.83-.82-.4-2.32-1.62-3.4-1.65-1.44-.04-2.32,.47-3.55,.81-1.33,.36-3.5,2.42-4.63,3.66C-.03,13.2,.08,15.48,.53,16.03c.65,.8,1.43,1.65,2.52,2.09s1.89,.31,2.59,.38c.56,.06,1.27,.4,2.79,.09,1.1-.22,1.63-.36,2.14-.49,1.07-.27,4.39-.64,5.62-2.3Z"/>
              <path class="cls-14" d="M15.97,15.74c1.02-1.34,.64-3.94-.03-4.89-.92-1.31-2.35-1.39-3.18-1.8-.8-.39-2.25-1.63-3.32-1.67-1.4-.05-2.31,.44-3.53,.77-1.32,.36-3.44,2.4-4.53,3.59C.1,13.12,.12,15.33,.59,15.91c.63,.77,1.38,1.6,2.47,2.02s1.87,.26,2.55,.34c.55,.06,1.27,.42,2.79,.12,1.11-.22,1.64-.38,2.13-.5,1.04-.24,4.23-.57,5.44-2.15Z"/>
              <path class="cls-39" d="M15.77,15.69c1.02-1.29,.67-3.83,0-4.77-.91-1.31-2.32-1.37-3.15-1.77-.78-.38-2.18-1.63-3.23-1.68-1.36-.06-2.3,.4-3.51,.73-1.32,.36-3.38,2.38-4.43,3.51C.23,13.04,.16,15.19,.65,15.8c.6,.74,1.33,1.56,2.43,1.96s1.86,.21,2.51,.29c.54,.07,1.27,.44,2.79,.15,1.11-.22,1.66-.4,2.13-.5,1-.21,4.06-.49,5.26-2Z"/>
              <path class="cls-36" d="M15.57,15.63c1.01-1.23,.69-3.71,.05-4.65-.9-1.3-2.3-1.35-3.12-1.74-.76-.37-2.11-1.63-3.15-1.69-1.32-.07-2.29,.37-3.48,.7-1.31,.36-3.32,2.36-4.33,3.44-1.17,1.27-1.34,3.36-.82,3.99,.58,.72,1.29,1.52,2.39,1.89s1.84,.16,2.47,.24c.54,.07,1.27,.47,2.79,.17,1.12-.21,1.67-.42,2.13-.5,.97-.18,3.89-.41,5.08-1.86Z"/>
              <path class="cls-35" d="M15.36,15.58c1.01-1.18,.72-3.6,.08-4.52-.89-1.3-2.27-1.32-3.08-1.71-.74-.36-2.04-1.64-3.07-1.71-1.28-.09-2.28,.33-3.46,.66-1.3,.36-3.26,2.33-4.22,3.37-1.12,1.21-1.37,3.24-.84,3.9s1.24,1.48,2.35,1.83,1.83,.11,2.44,.2c.53,.08,1.27,.49,2.79,.2,1.13-.21,1.68-.43,2.12-.51,.93-.15,3.72-.33,4.9-1.71Z"/>
              <path class="cls-42" d="M15.16,15.53c1.01-1.13,.74-3.48,.12-4.4-.88-1.3-2.25-1.3-3.05-1.68-.72-.35-1.97-1.64-2.99-1.72-1.25-.1-2.27,.3-3.44,.62-1.29,.36-3.21,2.31-4.12,3.29-1.07,1.15-1.41,3.12-.85,3.81s1.19,1.44,2.3,1.76,1.82,.06,2.4,.15c.52,.08,1.27,.51,2.79,.23,1.13-.21,1.69-.45,2.12-.51,.9-.12,3.56-.25,4.72-1.56Z"/>
              <path class="cls-41" d="M14.96,15.47c1-1.08,.77-3.37,.16-4.27-.87-1.3-2.22-1.27-3.02-1.65-.71-.34-1.9-1.64-2.91-1.73-1.21-.11-2.26,.26-3.42,.59-1.28,.36-3.15,2.29-4.02,3.22-1.02,1.09-1.45,3.01-.87,3.71,.52,.63,1.15,1.4,2.26,1.7s1.8,0,2.36,.1c.51,.09,1.27,.54,2.79,.26,1.14-.21,1.71-.47,2.12-.51,.86-.09,3.39-.17,4.54-1.41Z"/>
              <path class="cls-22" d="M14.76,15.42c1-1.03,.79-3.26,.2-4.15-.86-1.3-2.2-1.25-2.98-1.62-.69-.33-1.83-1.65-2.82-1.75-1.17-.12-2.25,.23-3.4,.55-1.27,.36-3.09,2.27-3.92,3.15-.97,1.03-1.49,2.89-.88,3.62,.5,.6,1.1,1.35,2.22,1.63s1.79-.04,2.32,.06c.51,.09,1.27,.56,2.79,.28,1.15-.21,1.72-.49,2.11-.52,.83-.06,3.22-.09,4.36-1.26Z"/>
              <path class="cls-21" d="M14.56,15.37c1-.98,.82-3.14,.24-4.02-.85-1.3-2.17-1.22-2.95-1.59-.67-.31-1.76-1.65-2.74-1.76-1.13-.13-2.25,.19-3.38,.52-1.26,.36-3.03,2.25-3.81,3.07-.91,.97-1.53,2.77-.9,3.53,.47,.58,1.05,1.31,2.17,1.57s1.77-.09,2.29,.01,1.27,.58,2.79,.31c1.15-.2,1.73-.5,2.11-.52,.79-.03,3.06,0,4.18-1.11Z"/>
              <path class="cls-16" d="M14.36,15.31c1-.92,.85-3.03,.28-3.9-.85-1.3-2.15-1.2-2.92-1.56-.65-.3-1.69-1.65-2.66-1.77-1.09-.14-2.24,.16-3.35,.48-1.25,.36-2.97,2.22-3.71,3-.86,.91-1.56,2.65-.92,3.43,.45,.55,1.01,1.27,2.13,1.5s1.76-.14,2.25-.04,1.27,.6,2.79,.34c1.16-.2,1.74-.52,2.11-.52,.76,0,2.89,.07,4.01-.96Z"/>
              <path class="cls-18" d="M14.16,15.26c.99-.87,.87-2.91,.32-3.77-.84-1.3-2.13-1.18-2.89-1.53-.63-.29-1.63-1.65-2.58-1.79-1.05-.15-2.23,.12-3.33,.44-1.24,.36-2.91,2.2-3.61,2.93-.81,.85-1.6,2.53-.93,3.34,.43,.52,.96,1.23,2.09,1.43s1.75-.19,2.21-.08,1.27,.63,2.79,.36c1.17-.2,1.76-.54,2.1-.53,.72,.03,2.73,.15,3.83-.81Z"/>
              <path class="cls-44" d="M13.96,15.21c.99-.82,.9-2.8,.36-3.65-.83-1.3-2.1-1.15-2.85-1.5-.61-.28-1.56-1.66-2.5-1.8-1.01-.16-2.22,.09-3.31,.41-1.23,.36-2.86,2.18-3.51,2.85-.76,.79-1.64,2.41-.95,3.25,.41,.49,.91,1.18,2.05,1.37s1.73-.24,2.18-.13c.47,.12,1.27,.65,2.79,.39,1.17-.2,1.77-.56,2.1-.53,.69,.06,2.56,.24,3.65-.66Z"/>
              <path class="cls-32" d="M13.75,15.15c.99-.77,.93-2.69,.4-3.53-.82-1.3-2.08-1.13-2.82-1.47-.59-.27-1.49-1.66-2.42-1.82s-2.21,.05-3.29,.37c-1.22,.36-2.8,2.16-3.4,2.78-.71,.73-1.68,2.3-.96,3.16,.39,.46,.87,1.14,2,1.3s1.72-.29,2.14-.18c.47,.13,1.27,.67,2.79,.42,1.18-.2,1.78-.57,2.1-.53,.65,.09,2.4,.32,3.47-.51Z"/>
              <path class="cls-28" d="M13.55,15.1c.99-.71,.95-2.57,.44-3.4-.81-1.3-2.05-1.1-2.79-1.44-.58-.26-1.42-1.66-2.33-1.83s-2.2,.02-3.27,.34c-1.21,.36-2.74,2.14-3.3,2.71-.66,.67-1.72,2.18-.98,3.06,.36,.44,.82,1.1,1.96,1.24s1.7-.34,2.1-.22c.46,.14,1.27,.69,2.79,.44,1.19-.19,1.8-.59,2.09-.54,.62,.12,2.23,.4,3.29-.36Z"/>
              <path class="cls-30" d="M13.35,15.05c.99-.66,.98-2.46,.48-3.28-.8-1.3-2.03-1.08-2.75-1.41-.56-.25-1.35-1.66-2.25-1.84s-2.19-.02-3.25,.3c-1.2,.36-2.68,2.11-3.2,2.63-.6,.61-1.76,2.06-.99,2.97,.34,.41,.77,1.06,1.92,1.17s1.69-.39,2.06-.27c.45,.14,1.27,.72,2.79,.47,1.2-.19,1.81-.61,2.09-.54,.58,.15,2.07,.48,3.11-.21Z"/>
              <path class="cls-26" d="M13.15,14.99c.99-.6,1.01-2.35,.52-3.15-.79-1.3-2-1.06-2.72-1.38-.54-.24-1.28-1.66-2.17-1.86s-2.18-.05-3.22,.26c-1.19,.36-2.62,2.09-3.09,2.56-.55,.55-1.8,1.94-1.01,2.88,.32,.38,.73,1.01,1.87,1.11s1.67-.44,2.03-.32c.44,.15,1.27,.74,2.79,.5,1.2-.19,1.82-.63,2.09-.54,.55,.18,1.9,.56,2.93-.06Z"/>
              <path class="cls-24" d="M12.95,14.94c.99-.55,1.03-2.23,.55-3.03-.78-1.3-1.98-1.03-2.69-1.35-.52-.23-1.21-1.66-2.09-1.87-.81-.2-2.17-.09-3.2,.23-1.19,.36-2.56,2.07-2.99,2.49-.5,.49-1.84,1.82-1.03,2.78,.3,.35,.68,.97,1.83,1.04,1.18,.07,1.66-.49,1.99-.36,.43,.16,1.27,.76,2.79,.52,1.21-.19,1.83-.64,2.08-.54,.51,.21,1.74,.65,2.75,.09Z"/>
              <path class="cls-47" d="M12.75,14.88c.98-.49,1.06-2.12,.59-2.9-.77-1.3-1.95-1.01-2.65-1.31-.5-.22-1.14-1.66-2.01-1.88-.78-.2-2.16-.12-3.18,.19-1.18,.36-2.51,2.05-2.89,2.41-.45,.43-1.88,1.71-1.04,2.69,.28,.33,.64,.93,1.79,.98,1.19,.05,1.64-.53,1.95-.41,.42,.17,1.27,.79,2.79,.55,1.22-.19,1.85-.66,2.08-.55,.48,.24,1.58,.73,2.57,.24Z"/>
              <path class="cls-9" d="M12.55,14.83c.98-.43,1.08-2,.63-2.78-.76-1.3-1.93-.99-2.62-1.28-.48-.21-1.07-1.66-1.92-1.9-.74-.21-2.15-.16-3.16,.15-1.17,.36-2.45,2.03-2.79,2.34-.4,.37-1.92,1.59-1.06,2.6,.25,.3,.59,.89,1.75,.91,1.2,.02,1.63-.58,1.91-.46,.41,.18,1.27,.81,2.79,.58,1.22-.19,1.86-.68,2.08-.55,.44,.27,1.41,.82,2.39,.39Z"/>
            </g>
            <path class="cls-7" d="M11.61,10.36c-.27-.01-.54,.02-.78,.11-.32-1.64-1.72-2.91-3.47-3-1.69-.09-3.17,.96-3.71,2.48h0c-1.43-.07-2.65,1.02-2.72,2.45-.07,1.43,1.02,2.65,2.45,2.72,.74,.04,1.42-.24,1.91-.71,.5,.29,1.07,.47,1.68,.5,1.1,.06,2.1-.37,2.83-1.08,.37,.48,.94,.8,1.59,.83,1.19,.06,2.2-.85,2.26-2.04,.06-1.19-.85-2.2-2.04-2.26Z"/>
          </g>
        </g>
      </g>
    </g>
  </g>
</svg>