<?xml version="1.0" encoding="UTF-8"?>
<svg xmlns="http://www.w3.org/2000/svg" viewBox="0 0 27.29 13.74">
  <defs>
    <style>
      .cls-1 {
        fill: #f9fbfb;
        opacity: .05;
      }

      .cls-2 {
        fill: #f4f6f8;
        opacity: .1;
      }

      .cls-3, .cls-4 {
        fill: #fff;
      }

      .cls-5 {
        fill: #eef7fa;
      }

      .cls-6 {
        fill: #e4f1f5;
      }

      .cls-7 {
        fill: #8ba3b5;
      }

      .cls-8 {
        mix-blend-mode: multiply;
      }

      .cls-9 {
        fill: #eef2f4;
        opacity: .14;
      }

      .cls-10 {
        fill: #e9edf1;
        opacity: .19;
      }

      .cls-4 {
        opacity: 0;
      }

      .cls-11 {
        isolation: isolate;
      }

      .cls-12 {
        fill: #bdcad5;
        opacity: .57;
      }

      .cls-13 {
        fill: #b7c6d1;
        opacity: .62;
      }

      .cls-14 {
        fill: #c2cfd8;
        opacity: .52;
      }

      .cls-15 {
        fill: #c8d3dc;
        opacity: .48;
      }

      .cls-16 {
        fill: #96acbc;
        opacity: .9;
      }

      .cls-17 {
        fill: #9cb0c0;
        opacity: .86;
      }

      .cls-18 {
        fill: #a7b9c7;
        opacity: .76;
      }

      .cls-19 {
        fill: #a1b5c3;
        opacity: .81;
      }

      .cls-20 {
        fill: #acbdca;
        opacity: .71;
      }

      .cls-21 {
        fill: #d8e0e6;
        opacity: .33;
      }

      .cls-22 {
        fill: #dee5ea;
        opacity: .29;
      }

      .cls-23 {
        fill: #e3e9ed;
        opacity: .24;
      }

      .cls-24 {
        fill: #cdd8df;
        opacity: .43;
      }

      .cls-25 {
        fill: #d3dce3;
        opacity: .38;
      }

      .cls-26 {
        fill: #b2c2ce;
        opacity: .67;
      }

      .cls-27 {
        fill: #91a7b9;
        opacity: .95;
      }
    </style>
  </defs>
  <g class="cls-11">
    <g id="Ebene_2" data-name="Ebene 2">
      <g id="Paper-Icons">
        <g>
          <g>
            <g class="cls-8">
              <path class="cls-4" d="M20.32,10.17c2.36-.6,3-3.9,.2-4.22-4.59-.53-14.85-.02-18.11-.02-3.7,0-2.64,3.1-.19,3.66,3.41,.78,14.97,1.38,18.1,.59Z"/>
              <path class="cls-1" d="M20.25,10.05c2.28-.56,2.89-3.75,.18-4.06-4.43-.51-14.8-.02-18.01-.02-3.56,0-2.56,2.97-.2,3.51,3.33,.74,14.93,1.34,18.03,.57Z"/>
              <path class="cls-2" d="M20.18,9.93c2.21-.53,2.77-3.6,.15-3.9-4.26-.48-14.75-.01-17.92-.01-3.42,0-2.48,2.86-.2,3.36,3.24,.71,14.88,1.29,17.97,.55Z"/>
              <path class="cls-9" d="M20.11,9.81c2.14-.49,2.66-3.46,.13-3.74-4.1-.46-14.7,0-17.82,0-3.28,0-2.4,2.73-.21,3.21,3.16,.68,14.84,1.24,17.9,.54Z"/>
              <path class="cls-10" d="M20.05,9.68c2.06-.46,2.54-3.31,.1-3.57-3.93-.44-14.65,0-17.73,0-3.14,0-2.32,2.61-.21,3.05,3.08,.65,14.79,1.2,17.84,.52Z"/>
              <path class="cls-23" d="M19.98,9.56c1.99-.43,2.43-3.16,.08-3.41-3.77-.41-14.6,0-17.63,0-3.01,0-2.24,2.49-.21,2.9,3,.61,14.75,1.15,17.77,.5Z"/>
              <path class="cls-22" d="M19.91,9.44c1.91-.4,2.32-3.01,.05-3.25-3.6-.39-14.55,.01-17.53,.01-2.87,0-2.15,2.37-.22,2.75,2.92,.58,14.7,1.11,17.7,.48Z"/>
              <path class="cls-21" d="M19.84,9.32c1.84-.37,2.2-2.87,.02-3.09-3.44-.36-14.5,.02-17.44,.02-2.73,0-2.07,2.25-.22,2.6,2.84,.55,14.66,1.06,17.64,.47Z"/>
              <path class="cls-25" d="M19.77,9.2c1.76-.33,2.09-2.71,0-2.93-3.27-.33-14.45,.03-17.34,.03-2.59,0-1.99,2.12-.23,2.45,2.76,.51,14.61,1.01,17.57,.45Z"/>
              <path class="cls-24" d="M19.7,9.08c1.68-.3,1.97-2.57-.03-2.76-3.11-.31-14.4,.03-17.25,.03-2.45,0-1.91,2-.23,2.3,2.67,.48,14.56,.96,17.5,.43Z"/>
              <path class="cls-15" d="M19.64,8.95c1.61-.28,1.86-2.42-.05-2.6-2.94-.28-14.35,.04-17.15,.04-2.31,0-1.83,1.88-.23,2.15,2.59,.44,14.52,.91,17.44,.41Z"/>
              <path class="cls-14" d="M19.57,8.83c1.53-.25,1.75-2.27-.08-2.44-2.77-.26-14.3,.04-17.06,.05-2.18,0-1.75,1.75-.24,2,2.51,.41,14.47,.86,17.37,.4Z"/>
              <path class="cls-12" d="M19.5,8.71c1.46-.22,1.63-2.12-.1-2.28-2.61-.24-14.26,.05-16.96,.05-2.04,0-1.67,1.63-.24,1.85,2.43,.37,14.42,.81,17.3,.38Z"/>
              <path class="cls-13" d="M19.43,8.59c1.38-.19,1.52-1.97-.13-2.12-2.44-.21-14.21,.06-16.86,.06-1.9,0-1.58,1.51-.25,1.7,2.35,.34,14.38,.76,17.24,.36Z"/>
              <path class="cls-26" d="M19.36,8.47c1.3-.17,1.4-1.83-.15-1.95-2.28-.19-14.16,.06-16.77,.06-1.76,0-1.5,1.38-.25,1.55,2.27,.3,14.33,.7,17.17,.34Z"/>
              <path class="cls-20" d="M19.29,8.35c1.23-.14,1.29-1.68-.18-1.79-2.11-.16-14.11,.07-16.67,.07-1.62,0-1.42,1.26-.25,1.4,2.19,.26,14.28,.65,17.11,.33Z"/>
              <path class="cls-18" d="M19.23,8.22c1.15-.12,1.18-1.53-.21-1.63-1.95-.14-14.06,.08-16.58,.08-1.49,0-1.34,1.13-.26,1.25,2.11,.22,14.23,.59,17.04,.31Z"/>
              <path class="cls-19" d="M19.16,8.1c1.08-.09,1.06-1.39-.23-1.47-1.78-.12-14.01,.08-16.48,.08-1.35,0-1.26,1.01-.26,1.1,2.03,.18,14.18,.53,16.97,.29Z"/>
              <path class="cls-17" d="M19.09,7.98c1-.07,.95-1.24-.26-1.31-1.62-.09-13.96,.09-16.38,.09-1.21,0-1.17,.88-.27,.94,1.95,.14,14.14,.47,16.91,.27Z"/>
              <path class="cls-16" d="M19.02,7.86c.92-.05,.83-1.09-.28-1.15-1.45-.07-13.91,.09-16.29,.1-1.07,0-1.09,.75-.27,.79,1.87,.1,14.09,.4,16.84,.25Z"/>
              <path class="cls-27" d="M18.95,7.74c.85-.03,.72-.95-.31-.98-1.28-.05-13.86,.1-16.19,.1-.93,0-1.01,.62-.27,.64,1.79,.05,14.04,.32,16.77,.24Z"/>
              <path class="cls-7" d="M18.88,7.62c.77,0,.61-.8-.33-.82-1.12-.03-13.81,.11-16.1,.11-.79,0-.93,.49-.28,.49,1.71,0,13.99,.25,16.71,.22Z"/>
            </g>
            <path class="cls-3" d="M20.28,6.2c0,.63-.51,1.14-1.14,1.14H1.56c-.63,0-1.14-.51-1.14-1.14H.42c0-.63,.51-1.14,1.14-1.14H19.14c.63,0,1.14,.51,1.14,1.14h0Z"/>
            <path class="cls-6" d="M20.41,6.34c0,.63-.51,1.14-1.14,1.14H1.69c-.63,0-1.14-.51-1.14-1.14H.55c0-.63,.51-1.14,1.14-1.14H19.27c.63,0,1.14,.51,1.14,1.14h0Z"/>
          </g>
          <g>
            <g class="cls-8">
              <path class="cls-4" d="M25.4,8.95c2.36-.6,2.71-4.3-.08-4.63-4.59-.53-14.85-.03-18.11-.03-3.7,0-2.78,3.72-.27,3.88,2.99,.18,15.34,1.57,18.47,.78Z"/>
              <path class="cls-1" d="M25.32,8.81c2.28-.56,2.61-4.14-.09-4.45-4.43-.51-14.8-.02-18.01-.02-3.56,0-2.69,3.57-.27,3.71,2.93,.17,15.28,1.51,18.38,.75Z"/>
              <path class="cls-2" d="M25.23,8.67c2.21-.53,2.51-3.97-.11-4.26-4.26-.48-14.75-.01-17.92-.01-3.42,0-2.6,3.42-.27,3.55,2.87,.16,15.21,1.46,18.3,.72Z"/>
              <path class="cls-9" d="M25.15,8.53c2.14-.49,2.41-3.8-.12-4.08-4.1-.46-14.7,0-17.82,0-3.28,0-2.51,3.26-.27,3.39,2.81,.15,15.15,1.41,18.22,.7Z"/>
              <path class="cls-10" d="M25.07,8.39c2.06-.46,2.31-3.64-.13-3.9-3.93-.44-14.65,0-17.73,0-3.14,0-2.43,3.11-.27,3.23,2.75,.15,15.09,1.35,18.13,.67Z"/>
              <path class="cls-23" d="M24.99,8.25c1.99-.43,2.21-3.47-.14-3.72-3.77-.41-14.6,0-17.63,0-3.01,0-2.34,2.96-.27,3.07,2.69,.14,15.03,1.3,18.05,.64Z"/>
              <path class="cls-22" d="M24.91,8.11c1.91-.4,2.11-3.3-.15-3.54-3.6-.39-14.55,.01-17.53,.01-2.87,0-2.25,2.81-.28,2.91,2.63,.14,14.96,1.24,17.96,.62Z"/>
              <path class="cls-21" d="M24.82,7.97c1.84-.36,2.01-3.14-.17-3.36-3.44-.36-14.5,.02-17.44,.02-2.73,0-2.16,2.65-.28,2.75,2.57,.13,14.9,1.18,17.88,.59Z"/>
              <path class="cls-25" d="M24.74,7.82c1.76-.33,1.91-2.97-.18-3.18-3.27-.34-14.45,.03-17.34,.03-2.59,0-2.07,2.5-.28,2.59,2.5,.12,14.84,1.13,17.8,.56Z"/>
              <path class="cls-24" d="M24.66,7.68c1.68-.3,1.81-2.8-.19-3-3.11-.31-14.4,.03-17.25,.03-2.45,0-1.99,2.35-.28,2.43,2.44,.11,14.77,1.07,17.71,.54Z"/>
              <path class="cls-15" d="M24.58,7.54c1.61-.28,1.71-2.63-.2-2.81-2.94-.28-14.35,.04-17.15,.04-2.31,0-1.9,2.19-.28,2.26,2.38,.11,14.71,1.01,17.63,.51Z"/>
              <path class="cls-14" d="M24.5,7.4c1.53-.25,1.61-2.46-.21-2.63-2.77-.26-14.3,.04-17.06,.05-2.18,0-1.81,2.04-.28,2.1,2.32,.1,14.65,.95,17.54,.49Z"/>
              <path class="cls-12" d="M24.41,7.26c1.46-.22,1.51-2.3-.23-2.45-2.61-.24-14.26,.05-16.96,.05-2.04,0-1.72,1.89-.28,1.94,2.26,.09,14.58,.89,17.46,.46Z"/>
              <path class="cls-13" d="M24.33,7.12c1.38-.19,1.41-2.13-.24-2.27-2.44-.21-14.21,.06-16.86,.06-1.9,0-1.63,1.73-.28,1.78,2.2,.08,14.52,.83,17.38,.43Z"/>
              <path class="cls-26" d="M24.25,6.98c1.3-.17,1.31-1.96-.25-2.09-2.28-.19-14.16,.06-16.77,.06-1.76,0-1.54,1.58-.28,1.62,2.14,.07,14.45,.77,17.29,.41Z"/>
              <path class="cls-20" d="M24.17,6.84c1.23-.14,1.21-1.8-.26-1.91-2.11-.16-14.11,.07-16.67,.07-1.62,0-1.46,1.42-.28,1.46,2.08,.06,14.39,.7,17.21,.38Z"/>
              <path class="cls-18" d="M24.09,6.7c1.15-.12,1.11-1.63-.27-1.73-1.95-.14-14.06,.08-16.58,.08-1.49,0-1.37,1.27-.28,1.3,2.01,.05,14.32,.64,17.13,.35Z"/>
              <path class="cls-19" d="M24.01,6.56c1.08-.09,1.01-1.46-.29-1.55-1.78-.12-14.01,.08-16.48,.08-1.35,0-1.28,1.11-.28,1.14,1.95,.04,14.25,.57,17.04,.33Z"/>
              <path class="cls-17" d="M23.92,6.42c1-.07,.91-1.3-.3-1.36-1.62-.09-13.96,.09-16.38,.09-1.21,0-1.19,.96-.28,.98,1.89,.03,14.19,.49,16.96,.3Z"/>
              <path class="cls-16" d="M23.84,6.27c.92-.05,.81-1.13-.31-1.18-1.45-.07-13.91,.09-16.29,.1-1.07,0-1.1,.8-.28,.81,1.83,.02,14.12,.42,16.87,.27Z"/>
              <path class="cls-27" d="M23.76,6.13c.85-.03,.71-.96-.32-1-1.28-.05-13.86,.1-16.19,.1-.93,0-1.02,.65-.28,.65,1.77,.01,14.06,.33,16.79,.25Z"/>
              <path class="cls-7" d="M23.68,5.99c.77,0,.61-.8-.33-.82-1.12-.03-13.81,.11-16.1,.11-.79,0-.93,.49-.28,.49,1.71,0,13.99,.25,16.71,.22Z"/>
            </g>
            <path class="cls-3" d="M25.07,4.58c0,.63-.51,1.14-1.14,1.14H6.35c-.63,0-1.14-.51-1.14-1.14h0c0-.63,.51-1.14,1.14-1.14H23.93c.63,0,1.14,.51,1.14,1.14h0Z"/>
            <path class="cls-5" d="M25.21,4.71c0,.63-.51,1.14-1.14,1.14H6.48c-.63,0-1.14-.51-1.14-1.14h0c0-.63,.51-1.14,1.14-1.14H24.07c.63,0,1.14,.51,1.14,1.14h0Z"/>
          </g>
          <g>
            <g class="cls-8">
              <path class="cls-4" d="M17.03,4.88c1.81-.6,1.98-3.68-.17-4-3.53-.53-7.41-.02-9.91-.02-2.84,0-1.94,3.31-.01,3.46,2.3,.18,7.69,1.36,10.1,.57Z"/>
              <path class="cls-1" d="M16.96,4.77c1.75-.56,1.91-3.54-.17-3.85-3.4-.51-7.37-.02-9.84-.02-2.73,0-1.88,3.17-.02,3.32,2.25,.17,7.65,1.32,10.04,.56Z"/>
              <path class="cls-2" d="M16.89,4.66c1.7-.53,1.84-3.41-.17-3.7-3.27-.48-7.33-.01-9.77-.01-2.63,0-1.82,3.04-.03,3.17,2.21,.16,7.61,1.27,9.98,.54Z"/>
              <path class="cls-9" d="M16.82,4.55c1.64-.49,1.77-3.27-.18-3.55-3.15-.46-7.29,0-9.69,0-2.52,0-1.76,2.9-.04,3.03,2.16,.15,7.57,1.23,9.92,.52Z"/>
              <path class="cls-10" d="M16.75,4.43c1.59-.46,1.69-3.13-.18-3.4-3.02-.44-7.26,0-9.62,0-2.41,0-1.71,2.77-.05,2.89,2.11,.15,7.52,1.18,9.86,.51Z"/>
              <path class="cls-23" d="M16.69,4.32c1.53-.43,1.62-2.99-.19-3.25-2.89-.41-7.22,0-9.55,0-2.31,0-1.65,2.64-.06,2.75,2.06,.14,7.48,1.14,9.8,.49Z"/>
              <path class="cls-22" d="M16.62,4.21c1.47-.4,1.55-2.86-.19-3.1-2.77-.39-7.18,.01-9.47,.01-2.2,0-1.59,2.51-.07,2.61,2.02,.14,7.44,1.09,9.74,.47Z"/>
              <path class="cls-21" d="M16.55,4.1c1.41-.37,1.48-2.72-.2-2.94-2.64-.36-7.14,.02-9.4,.02-2.1,0-1.53,2.37-.08,2.47,1.97,.13,7.39,1.05,9.68,.45Z"/>
              <path class="cls-25" d="M16.48,3.99c1.36-.34,1.4-2.58-.2-2.79-2.51-.33-7.11,.03-9.33,.03-1.99,0-1.47,2.24-.09,2.33,1.92,.12,7.35,1,9.62,.44Z"/>
              <path class="cls-24" d="M16.42,3.88c1.3-.31,1.33-2.44-.2-2.64-2.39-.31-7.07,.03-9.25,.03-1.88,0-1.41,2.11-.1,2.19,1.88,.11,7.3,.95,9.56,.42Z"/>
              <path class="cls-15" d="M16.35,3.77c1.24-.28,1.26-2.3-.21-2.49-2.26-.28-7.03,.04-9.18,.04-1.78,0-1.36,1.97-.11,2.05,1.83,.11,7.26,.9,9.5,.4Z"/>
              <path class="cls-14" d="M16.28,3.66c1.18-.25,1.19-2.17-.21-2.34-2.13-.26-6.99,.04-9.1,.05-1.67,0-1.3,1.84-.12,1.9,1.78,.1,7.21,.85,9.44,.39Z"/>
              <path class="cls-12" d="M16.21,3.54c1.12-.22,1.12-2.03-.22-2.19-2-.24-6.95,.05-9.03,.05-1.57,0-1.24,1.71-.13,1.76,1.74,.09,7.17,.8,9.38,.37Z"/>
              <path class="cls-13" d="M16.14,3.43c1.06-.19,1.04-1.89-.22-2.03-1.88-.21-6.92,.06-8.96,.06-1.46,0-1.18,1.57-.14,1.62,1.69,.08,7.12,.75,9.32,.35Z"/>
              <path class="cls-26" d="M16.08,3.32c1.01-.17,.97-1.75-.23-1.88-1.75-.19-6.88,.06-8.88,.06-1.35,0-1.12,1.44-.15,1.48,1.64,.07,7.08,.7,9.26,.34Z"/>
              <path class="cls-20" d="M16.01,3.21c.95-.14,.9-1.62-.23-1.73-1.62-.16-6.84,.07-8.81,.07-1.25,0-1.06,1.3-.16,1.34,1.59,.06,7.03,.64,9.2,.32Z"/>
              <path class="cls-18" d="M15.94,3.1c.89-.12,.83-1.48-.23-1.58-1.5-.14-6.8,.08-8.74,.08-1.14,0-1,1.17-.17,1.2,1.55,.05,6.98,.59,9.14,.3Z"/>
              <path class="cls-19" d="M15.87,2.99c.83-.09,.75-1.34-.24-1.43-1.37-.12-6.76,.08-8.66,.08-1.03,0-.95,1.03-.18,1.06,1.5,.04,6.94,.53,9.08,.29Z"/>
              <path class="cls-17" d="M15.81,2.88c.77-.07,.68-1.21-.24-1.28-1.24-.09-6.73,.09-8.59,.09-.93,0-.89,.9-.18,.92,1.45,.03,6.89,.46,9.02,.27Z"/>
              <path class="cls-16" d="M15.74,2.76c.71-.05,.61-1.07-.25-1.12-1.11-.07-6.69,.09-8.52,.1-.82,0-.83,.76-.19,.77,1.41,.02,6.84,.4,8.96,.25Z"/>
              <path class="cls-27" d="M15.67,2.65c.65-.03,.54-.93-.25-.97-.99-.05-6.65,.1-8.44,.1-.72,0-.77,.63-.2,.63,1.36,.01,6.8,.32,8.9,.24Z"/>
              <path class="cls-7" d="M15.6,2.54c.59,0,.47-.8-.26-.82-.86-.03-6.61,.11-8.37,.11-.61,0-.71,.49-.21,.49,1.31,0,6.75,.25,8.84,.22Z"/>
            </g>
            <path class="cls-3" d="M16.3,1.14c0,.63-.51,1.14-1.14,1.14H5.97c-.63,0-1.14-.51-1.14-1.14h0c0-.63,.51-1.14,1.14-1.14H15.16c.63,0,1.14,.51,1.14,1.14h0Z"/>
            <path class="cls-6" d="M16.44,1.27c0,.63-.51,1.14-1.14,1.14H6.11c-.63,0-1.14-.51-1.14-1.14h0c0-.63,.51-1.14,1.14-1.14H15.3c.63,0,1.14,.51,1.14,1.14h0Z"/>
          </g>
          <g>
            <g class="cls-8">
              <path class="cls-4" d="M20.69,6.64c1.81-.6,2.21-3.79,.06-4.11-3.53-.53-7.41-.03-9.91-.03-2.84,0-2.15,3.11-.26,3.49,2.33,.48,7.72,1.44,10.12,.64Z"/>
              <path class="cls-1" d="M20.63,6.52c1.75-.56,2.12-3.64,.04-3.95-3.4-.51-7.37-.02-9.84-.02-2.73,0-2.08,2.98-.26,3.35,2.29,.45,7.67,1.39,10.06,.62Z"/>
              <path class="cls-2" d="M20.57,6.41c1.7-.53,2.04-3.5,.03-3.8-3.27-.48-7.33-.01-9.77-.01-2.63,0-2.02,2.86-.26,3.21,2.24,.44,7.63,1.34,10,.6Z"/>
              <path class="cls-9" d="M20.51,6.29c1.64-.49,1.96-3.36,.01-3.64-3.15-.46-7.29,0-9.69,0-2.52,0-1.95,2.74-.25,3.06,2.19,.42,7.58,1.29,9.93,.58Z"/>
              <path class="cls-10" d="M20.46,6.17c1.59-.46,1.87-3.22,0-3.48-3.02-.44-7.26,0-9.62,0-2.41,0-1.88,2.62-.25,2.92,2.14,.4,7.54,1.24,9.87,.56Z"/>
              <path class="cls-23" d="M20.4,6.06c1.53-.43,1.79-3.07-.02-3.33-2.89-.41-7.22,0-9.55,0-2.31,0-1.81,2.49-.25,2.78,2.09,.38,7.5,1.19,9.81,.54Z"/>
              <path class="cls-22" d="M20.34,5.94c1.47-.4,1.71-2.93-.03-3.17-2.77-.39-7.18,.01-9.47,.01-2.2,0-1.74,2.37-.25,2.63,2.04,.36,7.45,1.14,9.75,.52Z"/>
              <path class="cls-21" d="M20.29,5.82c1.41-.37,1.63-2.79-.05-3.01-2.64-.36-7.14,.02-9.4,.02-2.1,0-1.67,2.25-.24,2.49,1.99,.34,7.41,1.09,9.69,.5Z"/>
              <path class="cls-25" d="M20.23,5.71c1.36-.34,1.54-2.64-.06-2.86-2.51-.33-7.11,.03-9.33,.03-1.99,0-1.61,2.13-.24,2.35,1.94,.32,7.36,1.04,9.63,.48Z"/>
              <path class="cls-24" d="M20.17,5.59c1.3-.31,1.46-2.5-.08-2.7-2.39-.31-7.07,.03-9.25,.03-1.88,0-1.54,2-.24,2.21,1.89,.3,7.32,.99,9.57,.46Z"/>
              <path class="cls-15" d="M20.11,5.48c1.24-.28,1.38-2.36-.09-2.54-2.26-.28-7.03,.04-9.18,.04-1.78,0-1.47,1.88-.24,2.06,1.84,.28,7.27,.94,9.51,.44Z"/>
              <path class="cls-14" d="M20.06,5.36c1.18-.25,1.29-2.22-.11-2.39-2.13-.26-6.99,.04-9.1,.05-1.67,0-1.4,1.76-.24,1.92,1.8,.25,7.23,.89,9.45,.42Z"/>
              <path class="cls-12" d="M20,5.24c1.12-.22,1.21-2.07-.12-2.23-2-.24-6.95,.05-9.03,.05-1.57,0-1.33,1.63-.23,1.78,1.75,.23,7.18,.83,9.39,.4Z"/>
              <path class="cls-13" d="M19.94,5.13c1.06-.19,1.13-1.93-.14-2.07-1.88-.21-6.92,.06-8.96,.06-1.46,0-1.26,1.51-.23,1.63,1.7,.21,7.13,.78,9.32,.38Z"/>
              <path class="cls-26" d="M19.89,5.01c1.01-.17,1.05-1.79-.15-1.92-1.75-.19-6.88,.06-8.88,.06-1.35,0-1.19,1.38-.23,1.49,1.65,.19,7.09,.72,9.26,.36Z"/>
              <path class="cls-20" d="M19.83,4.89c.95-.14,.96-1.65-.17-1.76-1.62-.16-6.84,.07-8.81,.07-1.25,0-1.13,1.26-.23,1.35,1.6,.17,7.04,.66,9.2,.34Z"/>
              <path class="cls-18" d="M19.77,4.78c.89-.12,.88-1.51-.18-1.6-1.5-.14-6.8,.08-8.74,.08-1.14,0-1.06,1.13-.22,1.21,1.55,.14,6.99,.6,9.14,.32Z"/>
              <path class="cls-19" d="M19.71,4.66c.83-.09,.8-1.36-.2-1.45-1.37-.12-6.76,.08-8.66,.08-1.04,0-.99,1-.22,1.06,1.51,.12,6.94,.54,9.08,.3Z"/>
              <path class="cls-17" d="M19.66,4.55c.77-.07,.71-1.22-.21-1.29-1.24-.09-6.73,.09-8.59,.09-.93,0-.92,.88-.22,.92,1.46,.09,6.89,.48,9.02,.28Z"/>
              <path class="cls-16" d="M19.6,4.43c.71-.05,.63-1.08-.23-1.14-1.11-.07-6.69,.09-8.52,.1-.82,0-.85,.75-.22,.78,1.41,.06,6.85,.4,8.96,.26Z"/>
              <path class="cls-27" d="M19.54,4.31c.65-.03,.55-.94-.24-.98-.99-.05-6.65,.1-8.44,.1-.72,0-.78,.62-.22,.64,1.36,.03,6.8,.33,8.9,.24Z"/>
              <path class="cls-7" d="M19.49,4.2c.59,0,.47-.8-.26-.82-.86-.03-6.61,.11-8.37,.11-.61,0-.71,.49-.21,.49,1.31,0,6.75,.25,8.84,.22Z"/>
            </g>
            <path class="cls-3" d="M20.32,2.93c0,.63-.51,1.14-1.14,1.14H9.99c-.63,0-1.14-.51-1.14-1.14h0c0-.63,.51-1.14,1.14-1.14h9.19c.63,0,1.14,.51,1.14,1.14h0Z"/>
          </g>
          <g>
            <g class="cls-8">
              <path class="cls-4" d="M23.21,13.48c2.36-.6,2.91-3.82,.11-4.15-4.59-.53-9.64-.03-12.91-.03-3.7,0-2.56,3.43-.06,3.58,2.99,.18,9.73,1.38,12.86,.59Z"/>
              <path class="cls-1" d="M23.13,13.36c2.28-.56,2.8-3.68,.09-3.99-4.43-.51-9.6-.02-12.81-.02-3.56,0-2.48,3.29-.07,3.44,2.93,.17,9.69,1.34,12.79,.57Z"/>
              <path class="cls-2" d="M23.06,13.24c2.21-.53,2.69-3.54,.07-3.83-4.26-.49-9.55-.01-12.72-.01-3.42,0-2.41,3.15-.08,3.29,2.87,.16,9.64,1.29,12.73,.55Z"/>
              <path class="cls-9" d="M22.99,13.12c2.14-.49,2.58-3.39,.05-3.67-4.1-.46-9.5,0-12.62,0-3.28,0-2.33,3.01-.09,3.14,2.81,.16,9.6,1.25,12.66,.54Z"/>
              <path class="cls-10" d="M22.91,13c2.06-.46,2.47-3.25,.03-3.51-3.93-.44-9.45,0-12.52,0-3.14,0-2.25,2.87-.1,3,2.75,.15,9.56,1.2,12.6,.52Z"/>
              <path class="cls-23" d="M22.84,12.88c1.99-.43,2.36-3.1,0-3.36-3.77-.41-9.4,0-12.43,0-3,0-2.17,2.74-.11,2.85,2.69,.14,9.51,1.15,12.53,.5Z"/>
              <path class="cls-22" d="M22.77,12.77c1.91-.4,2.25-2.96-.02-3.2-3.6-.39-9.35,.01-12.33,.01-2.87,0-2.1,2.6-.12,2.7,2.63,.14,9.47,1.11,12.47,.48Z"/>
              <path class="cls-21" d="M22.7,12.65c1.84-.37,2.14-2.82-.04-3.04-3.44-.36-9.3,.02-12.24,.02-2.73,0-2.02,2.46-.13,2.55,2.57,.13,9.43,1.06,12.41,.47Z"/>
              <path class="cls-25" d="M22.62,12.53c1.76-.33,2.03-2.67-.06-2.88-3.27-.33-9.25,.03-12.14,.03-2.59,0-1.94,2.32-.14,2.41,2.5,.12,9.38,1.01,12.34,.45Z"/>
              <path class="cls-24" d="M22.55,12.41c1.69-.3,1.92-2.52-.08-2.72-3.11-.31-9.2,.03-12.05,.03-2.45,0-1.86,2.18-.15,2.26,2.44,.11,9.34,.96,12.28,.43Z"/>
              <path class="cls-15" d="M22.48,12.29c1.61-.28,1.81-2.38-.1-2.56-2.94-.28-9.15,.04-11.95,.04-2.31,0-1.78,2.04-.16,2.11,2.38,.1,9.29,.91,12.21,.41Z"/>
              <path class="cls-14" d="M22.4,12.18c1.53-.25,1.7-2.24-.12-2.41-2.77-.26-9.1,.04-11.85,.05-2.18,0-1.71,1.9-.17,1.96,2.32,.1,9.25,.86,12.15,.4Z"/>
              <path class="cls-12" d="M22.33,12.06c1.46-.22,1.59-2.09-.14-2.25-2.61-.24-9.05,.05-11.76,.05-2.04,0-1.63,1.76-.18,1.82,2.26,.09,9.2,.81,12.08,.38Z"/>
              <path class="cls-13" d="M22.26,11.94c1.38-.19,1.48-1.95-.16-2.09-2.44-.21-9,.06-11.66,.06-1.9,0-1.55,1.62-.19,1.67,2.2,.08,9.16,.76,12.02,.36Z"/>
              <path class="cls-26" d="M22.19,11.82c1.31-.17,1.37-1.8-.19-1.93-2.28-.19-8.96,.06-11.57,.06-1.76,0-1.47,1.48-.2,1.52,2.14,.07,9.11,.7,11.96,.34Z"/>
              <path class="cls-20" d="M22.11,11.7c1.23-.14,1.26-1.66-.21-1.77-2.11-.16-8.91,.07-11.47,.07-1.62,0-1.39,1.34-.21,1.38,2.08,.06,9.07,.65,11.89,.33Z"/>
              <path class="cls-18" d="M22.04,11.58c1.15-.12,1.15-1.51-.23-1.61-1.95-.14-8.86,.08-11.37,.08-1.49,0-1.32,1.2-.22,1.23,2.01,.05,9.02,.59,11.83,.31Z"/>
              <path class="cls-19" d="M21.97,11.47c1.08-.09,1.04-1.37-.25-1.45-1.78-.12-8.81,.08-11.28,.08-1.35,0-1.24,1.06-.24,1.08,1.95,.04,8.97,.53,11.76,.29Z"/>
              <path class="cls-17" d="M21.9,11.35c1-.07,.94-1.23-.27-1.3-1.62-.09-8.76,.09-11.18,.09-1.21,0-1.16,.92-.25,.93,1.89,.03,8.93,.47,11.7,.27Z"/>
              <path class="cls-16" d="M21.82,11.23c.92-.05,.83-1.08-.29-1.14-1.45-.07-8.71,.09-11.09,.1-1.07,0-1.08,.78-.26,.79,1.83,.02,8.88,.4,11.63,.25Z"/>
              <path class="cls-27" d="M21.75,11.11c.85-.03,.72-.94-.31-.98-1.28-.05-8.66,.1-10.99,.1-.93,0-1,.63-.27,.64,1.77,.01,8.84,.32,11.57,.24Z"/>
              <path class="cls-7" d="M21.68,10.99c.77,0,.61-.8-.33-.82-1.12-.03-8.61,.11-10.89,.11-.79,0-.93,.49-.28,.49,1.71,0,8.79,.24,11.5,.22Z"/>
            </g>
            <path class="cls-3" d="M23.07,9.58c0,.63-.51,1.14-1.14,1.14H9.55c-.63,0-1.14-.51-1.14-1.14h0c0-.63,.51-1.14,1.14-1.14h12.38c.63,0,1.14,.51,1.14,1.14h0Z"/>
            <path class="cls-6" d="M23.21,9.71c0,.63-.51,1.14-1.14,1.14H9.69c-.63,0-1.14-.51-1.14-1.14h0c0-.63,.51-1.14,1.14-1.14h12.38c.63,0,1.14,.51,1.14,1.14h0Z"/>
          </g>
        </g>
      </g>
    </g>
  </g>
</svg>