<?xml version="1.0" encoding="UTF-8"?>
<svg xmlns="http://www.w3.org/2000/svg" xmlns:xlink="http://www.w3.org/1999/xlink" viewBox="0 0 19.59 22.16">
  <defs>
    <style>
      .cls-1 {
        fill: #f7f9fa;
        opacity: .05;
      }

      .cls-2 {
        fill: #fbfcfc;
        opacity: .03;
      }

      .cls-3 {
        fill: #f3f6f7;
        opacity: .08;
      }

      .cls-4 {
        fill: #eff3f5;
        opacity: .1;
      }

      .cls-5 {
        fill: url(#radial-gradient-2);
      }

      .cls-5, .cls-6, .cls-7, .cls-8, .cls-9, .cls-10, .cls-11, .cls-12, .cls-13 {
        mix-blend-mode: multiply;
      }

      .cls-6 {
        fill: url(#radial-gradient-5);
      }

      .cls-7 {
        fill: url(#radial-gradient-6);
      }

      .cls-8 {
        fill: url(#radial-gradient-3);
      }

      .cls-9 {
        fill: url(#radial-gradient-4);
      }

      .cls-14 {
        fill: url(#linear-gradient);
      }

      .cls-15, .cls-16 {
        fill: #fff;
      }

      .cls-17 {
        fill: #479600;
      }

      .cls-18 {
        fill: #76e036;
      }

      .cls-10 {
        fill: url(#linear-gradient-4);
      }

      .cls-11 {
        fill: url(#linear-gradient-2);
      }

      .cls-19 {
        fill: #e8edf0;
        opacity: .15;
      }

      .cls-20 {
        fill: #ebf0f2;
        opacity: .13;
      }

      .cls-21 {
        fill: #dce4e8;
        opacity: .23;
      }

      .cls-22 {
        fill: #e0e7eb;
        opacity: .21;
      }

      .cls-23 {
        fill: #e4eaed;
        opacity: .18;
      }

      .cls-24 {
        fill: url(#linear-gradient-3);
      }

      .cls-25 {
        fill: url(#linear-gradient-6);
      }

      .cls-26 {
        fill: url(#linear-gradient-7);
      }

      .cls-27 {
        fill: url(#linear-gradient-5);
      }

      .cls-13 {
        fill: url(#radial-gradient);
      }

      .cls-16 {
        opacity: 0;
      }

      .cls-28 {
        isolation: isolate;
      }

      .cls-29 {
        fill: #a5bac4;
        opacity: .59;
      }

      .cls-30 {
        fill: #a9bdc7;
        opacity: .57;
      }

      .cls-31 {
        fill: #a1b7c2;
        opacity: .62;
      }

      .cls-32 {
        fill: #b1c3cc;
        opacity: .52;
      }

      .cls-33 {
        fill: #adc0c9;
        opacity: .54;
      }

      .cls-34 {
        fill: #b5c6cf;
        opacity: .49;
      }

      .cls-35 {
        fill: #8aa5b3;
        opacity: .77;
      }

      .cls-36 {
        fill: #86a2b0;
        opacity: .8;
      }

      .cls-37 {
        fill: #96aeba;
        opacity: .7;
      }

      .cls-38 {
        fill: #92abb8;
        opacity: .72;
      }

      .cls-39 {
        fill: #8ea8b5;
        opacity: .75;
      }

      .cls-40 {
        fill: #ccd8de;
        opacity: .34;
      }

      .cls-41 {
        fill: #d0dbe0;
        opacity: .31;
      }

      .cls-42 {
        fill: #d8e1e6;
        opacity: .26;
      }

      .cls-43 {
        fill: #d4dee3;
        opacity: .28;
      }

      .cls-44 {
        fill: #b9c9d1;
        opacity: .46;
      }

      .cls-45 {
        fill: #c1cfd6;
        opacity: .41;
      }

      .cls-46 {
        fill: #bdccd4;
        opacity: .44;
      }

      .cls-47 {
        fill: #c4d2d9;
        opacity: .39;
      }

      .cls-48 {
        fill: #c8d5db;
        opacity: .36;
      }

      .cls-49 {
        fill: #9db4bf;
        opacity: .65;
      }

      .cls-50 {
        fill: #9ab1bd;
        opacity: .67;
      }
    </style>
    <linearGradient id="linear-gradient" x1="-2972.07" y1="-1988.45" x2="-2965.25" y2="-1981.63" gradientTransform="translate(706.97 3512.59) rotate(45)" gradientUnits="userSpaceOnUse">
      <stop offset="0" stop-color="#65bf2e"/>
      <stop offset=".62" stop-color="#449a0e"/>
      <stop offset="1" stop-color="#358900"/>
    </linearGradient>
    <linearGradient id="linear-gradient-2" x1="-4909.77" y1="-1986.38" x2="-4913.53" y2="-1985.09" gradientTransform="translate(-4866.33 -2060.71) rotate(-135) scale(1 -1)" gradientUnits="userSpaceOnUse">
      <stop offset="0" stop-color="#fff"/>
      <stop offset=".4" stop-color="#ededed"/>
      <stop offset="1" stop-color="#ccc"/>
    </linearGradient>
    <linearGradient id="linear-gradient-3" x1="1.06" y1="4.04" x2="9.77" y2="12.75" gradientTransform="matrix(1, 0, 0, 1, 0, 0)" xlink:href="#linear-gradient"/>
    <linearGradient id="linear-gradient-4" x1="-7882.95" y1="6.68" x2="-7887.75" y2="8.33" gradientTransform="translate(-7882) rotate(-180) scale(1 -1)" xlink:href="#linear-gradient-2"/>
    <radialGradient id="radial-gradient" cx="-48.83" cy="-196.62" fx="-48.83" fy="-196.62" r="2.95" gradientTransform="translate(20.12 213.84) rotate(10.44)" gradientUnits="userSpaceOnUse">
      <stop offset="0" stop-color="#aed5eb"/>
      <stop offset=".19" stop-color="#c0deef"/>
      <stop offset=".69" stop-color="#edf5fa"/>
      <stop offset=".95" stop-color="#fff"/>
    </radialGradient>
    <radialGradient id="radial-gradient-2" cx="-49.2" cy="-196.51" fx="-49.2" fy="-196.51" r="2.71" xlink:href="#radial-gradient"/>
    <linearGradient id="linear-gradient-5" x1="5.33" y1="9.53" x2="7.76" y2="11.95" gradientUnits="userSpaceOnUse">
      <stop offset="0" stop-color="#6bd9ff"/>
      <stop offset="1" stop-color="#3ec9f7"/>
    </linearGradient>
    <radialGradient id="radial-gradient-3" cx="-45.04" cy="-202.16" fx="-45.04" fy="-202.16" r="2.26" xlink:href="#radial-gradient"/>
    <radialGradient id="radial-gradient-4" cx="-45.32" cy="-202.08" fx="-45.32" fy="-202.08" r="2.08" xlink:href="#radial-gradient"/>
    <linearGradient id="linear-gradient-6" x1="10.63" y1="5.25" x2="12.49" y2="7.11" xlink:href="#linear-gradient-5"/>
    <radialGradient id="radial-gradient-5" cx="-52.53" cy="-199.71" fx="-52.53" fy="-199.71" r="1.87" xlink:href="#radial-gradient"/>
    <radialGradient id="radial-gradient-6" cx="-52.76" cy="-199.64" fx="-52.76" fy="-199.64" r="1.71" xlink:href="#radial-gradient"/>
    <linearGradient id="linear-gradient-7" x1="3.13" y1="6.59" x2="4.67" y2="8.12" xlink:href="#linear-gradient-5"/>
  </defs>
  <g class="cls-28">
    <g id="Ebene_2" data-name="Ebene 2">
      <g id="Paper-Icons">
        <g>
          <g>
            <g class="cls-12">
              <path class="cls-16" d="M6.19,10.87c2.15-2.34,10.05-5.87,12.23-3.98,2.35,2.04,1.03,10.9-2.6,13.77-4.39,3.46-8.76,.27-10.32-2.79-1.63-3.18-.56-5.65,.69-7Z"/>
              <path class="cls-2" d="M18.27,6.97c2.29,1.99,.99,10.68-2.58,13.49-4.28,3.38-8.56,.29-10.1-2.69-1.62-3.12-.55-5.56,.67-6.89,2.11-2.29,9.88-5.76,12-3.91Z"/>
              <path class="cls-1" d="M18.13,7.05c2.23,1.94,.94,10.46-2.56,13.22-4.17,3.29-8.35,.32-9.87-2.6-1.61-3.06-.55-5.46,.65-6.77,2.07-2.24,9.71-5.65,11.78-3.85Z"/>
              <path class="cls-3" d="M17.98,7.13c2.17,1.89,.89,10.24-2.54,12.94-4.06,3.21-8.14,.34-9.65-2.51-1.59-3.01-.54-5.37,.64-6.65,2.02-2.19,9.54-5.55,11.55-3.79Z"/>
              <path class="cls-4" d="M17.84,7.21c2.11,1.84,.84,10.01-2.51,12.67-3.95,3.12-7.94,.36-9.43-2.42-1.58-2.95-.54-5.28,.62-6.53,1.98-2.15,9.37-5.44,11.32-3.73Z"/>
              <path class="cls-20" d="M17.69,7.29c2.05,1.79,.79,9.79-2.49,12.4-3.84,3.04-7.73,.38-9.2-2.33-1.57-2.89-.53-5.19,.6-6.41,1.94-2.1,9.19-5.33,11.1-3.66Z"/>
              <path class="cls-19" d="M17.55,7.37c1.99,1.74,.74,9.57-2.47,12.12-3.74,2.96-7.52,.41-8.98-2.24-1.56-2.83-.53-5.1,.58-6.29,1.9-2.05,9.02-5.22,10.87-3.6Z"/>
              <path class="cls-23" d="M17.41,7.45c1.93,1.69,.69,9.35-2.45,11.85-3.63,2.87-7.32,.43-8.75-2.14-1.55-2.77-.52-5.01,.56-6.17,1.85-2,8.85-5.11,10.65-3.54Z"/>
              <path class="cls-22" d="M17.26,7.53c1.87,1.64,.64,9.13-2.43,11.57-3.52,2.79-7.11,.45-8.53-2.05-1.54-2.71-.52-4.91,.54-6.05,1.81-1.95,8.68-5.01,10.42-3.47Z"/>
              <path class="cls-21" d="M17.12,7.61c1.81,1.59,.59,8.91-2.41,11.3-3.41,2.71-6.9,.48-8.31-1.96-1.53-2.66-.51-4.82,.52-5.93,1.77-1.9,8.5-4.9,10.19-3.41Z"/>
              <path class="cls-42" d="M16.97,7.68c1.75,1.54,.54,8.68-2.39,11.03-3.3,2.62-6.7,.5-8.08-1.87-1.52-2.6-.51-4.73,.5-5.81,1.73-1.85,8.33-4.79,9.97-3.35Z"/>
              <path class="cls-43" d="M16.83,7.76c1.69,1.49,.5,8.46-2.36,10.75-3.19,2.54-6.49,.52-7.86-1.78-1.51-2.54-.5-4.64,.48-5.69,1.68-1.8,8.16-4.68,9.74-3.28Z"/>
              <path class="cls-41" d="M16.68,7.84c1.63,1.44,.45,8.24-2.34,10.48-3.08,2.45-6.29,.55-7.63-1.69-1.5-2.48-.5-4.55,.46-5.57,1.64-1.76,7.99-4.58,9.51-3.22Z"/>
              <path class="cls-40" d="M16.54,7.92c1.57,1.39,.4,8.02-2.32,10.2-2.97,2.37-6.08,.57-7.41-1.59-1.48-2.42-.49-4.46,.44-5.45,1.6-1.71,7.81-4.47,9.29-3.16Z"/>
              <path class="cls-48" d="M16.39,8c1.51,1.34,.35,7.8-2.3,9.93-2.87,2.29-5.88,.59-7.18-1.5-1.47-2.36-.49-4.37,.42-5.33,1.56-1.66,7.64-4.36,9.06-3.1Z"/>
              <path class="cls-47" d="M16.25,8.08c1.45,1.29,.3,7.58-2.28,9.65-2.75,2.21-5.67,.62-6.96-1.41-1.46-2.3-.48-4.27,.4-5.21,1.51-1.61,7.47-4.25,8.84-3.03Z"/>
              <path class="cls-45" d="M16.11,8.16c1.39,1.24,.26,7.36-2.26,9.38-2.64,2.13-5.47,.64-6.74-1.32-1.46-2.24-.48-4.18,.38-5.09,1.47-1.56,7.3-4.15,8.61-2.97Z"/>
              <path class="cls-46" d="M15.96,8.24c1.33,1.19,.21,7.14-2.23,9.11-2.54,2.04-5.26,.66-6.51-1.23-1.45-2.19-.47-4.09,.36-4.97,1.43-1.51,7.12-4.04,8.38-2.91Z"/>
              <path class="cls-44" d="M15.82,8.32c1.27,1.14,.16,6.92-2.21,8.83-2.43,1.96-5.06,.69-6.29-1.14-1.44-2.13-.47-4,.34-4.85,1.39-1.46,6.95-3.93,8.16-2.84Z"/>
              <path class="cls-34" d="M15.67,8.4c1.21,1.09,.11,6.7-2.19,8.56s-4.85,.71-6.06-1.05c-1.43-2.07-.46-3.91,.32-4.73,1.34-1.41,6.78-3.82,7.93-2.78Z"/>
              <path class="cls-32" d="M15.53,8.48c1.15,1.04,.06,6.47-2.17,8.28s-4.65,.74-5.84-.95c-1.42-2.01-.45-3.82,.31-4.61,1.3-1.37,6.61-3.71,7.7-2.72Z"/>
              <path class="cls-33" d="M15.38,8.56c1.09,.99,.01,6.25-2.15,8.01s-4.44,.76-5.62-.86c-1.41-1.95-.45-3.72,.29-4.49,1.26-1.32,6.43-3.61,7.48-2.65Z"/>
              <path class="cls-30" d="M15.24,8.64c1.03,.94-.04,6.03-2.13,7.73s-4.24,.79-5.39-.77c-1.4-1.89-.44-3.63,.27-4.37,1.22-1.27,6.26-3.5,7.25-2.59Z"/>
              <path class="cls-29" d="M15.1,8.71c.97,.89-.09,5.81-2.11,7.46-1.88,1.54-4.03,.81-5.17-.68-1.39-1.83-.44-3.54,.25-4.25,1.17-1.22,6.09-3.39,7.03-2.53Z"/>
              <path class="cls-31" d="M14.95,8.79c.91,.84-.14,5.59-2.08,7.19-1.77,1.46-3.83,.83-4.94-.59-1.38-1.77-.43-3.45,.23-4.13,1.13-1.17,5.92-3.28,6.8-2.47Z"/>
              <path class="cls-49" d="M14.81,8.87c.85,.79-.19,5.37-2.06,6.91-1.67,1.37-3.63,.86-4.72-.5-1.38-1.71-.43-3.36,.21-4.01,1.09-1.12,5.74-3.18,6.57-2.4Z"/>
              <path class="cls-50" d="M14.66,8.95c.79,.74-.23,5.14-2.04,6.64-1.56,1.29-3.42,.88-4.49-.4-1.37-1.65-.42-3.27,.19-3.89,1.05-1.07,5.57-3.07,6.35-2.34Z"/>
              <path class="cls-37" d="M14.52,9.03c.73,.69-.28,4.92-2.02,6.36-1.45,1.2-3.22,.91-4.27-.31-1.36-1.59-.42-3.17,.17-3.77,1-1.02,5.4-2.96,6.12-2.28Z"/>
              <path class="cls-38" d="M14.37,9.11c.67,.64-.33,4.7-2,6.09-1.34,1.12-3.02,.94-4.05-.22-1.36-1.53-.41-3.08,.15-3.65,.96-.98,5.23-2.85,5.89-2.21Z"/>
              <path class="cls-39" d="M14.23,9.19c.61,.59-.38,4.48-1.98,5.82-1.23,1.04-2.82,.96-3.82-.13-1.35-1.46-.41-2.99,.13-3.54,.92-.93,5.05-2.75,5.67-2.15Z"/>
              <path class="cls-35" d="M14.09,9.27c.55,.54-.43,4.25-1.95,5.54-1.13,.95-2.61,.99-3.6-.04-1.34-1.4-.4-2.9,.11-3.42,.88-.88,4.88-2.64,5.44-2.09Z"/>
              <path class="cls-36" d="M13.94,9.35c.49,.49-.48,4.03-1.93,5.27-1.02,.87-2.41,1.02-3.37,.05-1.34-1.34-.4-2.81,.09-3.3,.83-.83,4.71-2.53,5.21-2.02Z"/>
            </g>
            <path class="cls-18" d="M12.43,13.37c-1.45,1.45-3.8,1.45-5.25,0-1.45-1.45-1.45-3.8,0-5.25,2.17-2.17,8.55-3.3,8.55-3.3,0,0-1.13,6.38-3.3,8.55Z"/>
            <path class="cls-17" d="M12.43,13.57c-1.45,1.45-3.8,1.45-5.25,0-1.45-1.45-1.45-3.8,0-5.25,2.17-2.17,8.55-3.3,8.55-3.3,0,0-1.13,6.38-3.3,8.55Z"/>
            <path class="cls-14" d="M12.43,13.57c2.17-2.17,3.3-8.55,3.3-8.55L7.18,13.57c1.45,1.45,3.8,1.45,5.25,0Z"/>
            <path class="cls-11" d="M7.18,8.32c2.17-2.17,8.55-3.3,8.55-3.3L7.18,13.57c-1.45-1.45-1.45-3.8,0-5.25Z"/>
          </g>
          <g>
            <g class="cls-12">
              <path class="cls-16" d="M1.86,12.16C1.73,8.89,4.91,.56,7.87,.35c3.19-.22,8.69,7.19,8.13,11.92-.68,5.72-6.19,6.58-9.55,5.49-3.5-1.13-4.52-3.71-4.6-5.61Z"/>
              <path class="cls-2" d="M7.85,.52c3.12-.22,8.52,7.09,7.97,11.75-.66,5.59-6.03,6.47-9.34,5.41-3.47-1.1-4.47-3.66-4.54-5.52C1.81,8.94,4.95,.71,7.85,.52Z"/>
              <path class="cls-1" d="M7.82,.68c3.05-.21,8.34,6.99,7.8,11.57-.64,5.46-5.87,6.35-9.12,5.34-3.43-1.06-4.42-3.61-4.49-5.44C1.89,8.98,4.99,.87,7.82,.68Z"/>
              <path class="cls-3" d="M7.8,.84c2.97-.2,8.16,6.88,7.64,11.4-.62,5.33-5.71,6.23-8.91,5.26-3.39-1.03-4.36-3.56-4.43-5.36C1.97,9.03,5.04,1.02,7.8,.84Z"/>
              <path class="cls-4" d="M7.77,1c2.9-.2,7.98,6.78,7.47,11.22-.61,5.2-5.55,6.12-8.7,5.18-3.36-1-4.31-3.51-4.38-5.28-.12-3.04,2.91-10.95,5.61-11.13Z"/>
              <path class="cls-20" d="M7.75,1.16c2.82-.19,7.81,6.68,7.31,11.05-.59,5.07-5.39,6-8.49,5.1-3.32-.96-4.26-3.46-4.32-5.2-.12-2.99,2.87-10.78,5.51-10.96Z"/>
              <path class="cls-19" d="M7.73,1.32c2.75-.18,7.63,6.58,7.14,10.87-.57,4.94-5.23,5.89-8.28,5.03-3.29-.93-4.21-3.41-4.27-5.11-.11-2.93,2.84-10.62,5.41-10.79Z"/>
              <path class="cls-23" d="M7.7,1.48c2.67-.17,7.45,6.48,6.98,10.7-.55,4.81-5.07,5.77-8.07,4.95-3.25-.89-4.15-3.36-4.21-5.03-.11-2.87,2.81-10.46,5.3-10.62Z"/>
              <path class="cls-22" d="M7.68,1.64c2.6-.17,7.28,6.38,6.81,10.52-.54,4.68-4.91,5.66-7.86,4.87-3.22-.86-4.1-3.31-4.16-4.95-.1-2.81,2.77-10.29,5.2-10.45Z"/>
              <path class="cls-21" d="M7.65,1.8c2.52-.16,7.1,6.28,6.65,10.35-.52,4.55-4.75,5.55-7.65,4.8-3.18-.83-4.05-3.26-4.1-4.87-.1-2.76,2.74-10.13,5.1-10.28Z"/>
              <path class="cls-42" d="M7.63,1.96c2.45-.15,6.92,6.18,6.48,10.17-.5,4.42-4.59,5.43-7.43,4.72-3.15-.79-4-3.21-4.05-4.79-.09-2.7,2.7-9.97,5-10.11Z"/>
              <path class="cls-43" d="M7.6,2.12c2.38-.14,6.75,6.08,6.32,10-.49,4.29-4.43,5.32-7.22,4.64-3.11-.76-3.94-3.16-3.99-4.7-.09-2.64,2.67-9.8,4.9-9.94Z"/>
              <path class="cls-41" d="M7.58,2.28c2.3-.14,6.57,5.98,6.15,9.82-.47,4.16-4.27,5.21-7.01,4.56-3.08-.72-3.89-3.11-3.94-4.62-.08-2.59,2.63-9.64,4.8-9.77Z"/>
              <path class="cls-40" d="M7.55,2.44c2.23-.13,6.39,5.88,5.99,9.65-.45,4.03-4.12,5.09-6.8,4.49-3.04-.69-3.84-3.07-3.88-4.54-.08-2.53,2.6-9.48,4.7-9.6Z"/>
              <path class="cls-48" d="M7.53,2.6c2.15-.12,6.22,5.78,5.82,9.48-.42,3.9-3.96,4.98-6.59,4.41-3.01-.65-3.79-3.02-3.83-4.46-.07-2.47,2.56-9.31,4.6-9.43Z"/>
              <path class="cls-47" d="M7.5,2.76c2.08-.12,6.05,5.68,5.66,9.3-.41,3.78-3.8,4.87-6.38,4.33-2.97-.62-3.73-2.97-3.77-4.37-.07-2.42,2.53-9.15,4.5-9.26Z"/>
              <path class="cls-45" d="M7.48,2.93c2-.11,5.87,5.58,5.49,9.13s-3.64,4.75-6.17,4.25c-2.94-.58-3.68-2.92-3.72-4.29-.07-2.36,2.49-8.99,4.4-9.09Z"/>
              <path class="cls-46" d="M7.45,3.09c1.93-.1,5.69,5.48,5.32,8.95-.37,3.52-3.48,4.64-5.96,4.18-2.9-.54-3.63-2.87-3.66-4.21-.06-2.3,2.46-8.83,4.3-8.92Z"/>
              <path class="cls-44" d="M7.43,3.25c1.85-.09,5.52,5.38,5.16,8.78s-3.32,4.53-5.75,4.1c-2.87-.51-3.58-2.82-3.61-4.13-.06-2.24,2.42-8.66,4.19-8.75Z"/>
              <path class="cls-34" d="M7.4,3.41c1.78-.09,5.34,5.28,4.99,8.6s-3.16,4.42-5.53,4.02c-2.83-.47-3.53-2.77-3.55-4.05-.05-2.19,2.39-8.5,4.09-8.58Z"/>
              <path class="cls-32" d="M7.38,3.57c1.71-.08,5.16,5.18,4.83,8.43s-3.01,4.31-5.32,3.95c-2.8-.43-3.47-2.72-3.5-3.96-.05-2.13,2.35-8.34,3.99-8.41Z"/>
              <path class="cls-33" d="M7.35,3.73c1.63-.07,4.98,5.08,4.66,8.25-.3,3-2.85,4.19-5.11,3.87-2.76-.4-3.42-2.67-3.44-3.88-.04-2.07,2.32-8.17,3.89-8.24Z"/>
              <path class="cls-30" d="M7.33,3.89c1.56-.07,4.81,4.98,4.5,8.08-.29,2.87-2.69,4.08-4.9,3.79-2.73-.36-3.37-2.62-3.39-3.8-.04-2.02,2.28-8.01,3.79-8.07Z"/>
              <path class="cls-29" d="M7.3,4.05c1.48-.06,4.63,4.88,4.33,7.9-.27,2.74-2.53,3.97-4.69,3.71-2.69-.32-3.32-2.57-3.33-3.72-.03-1.96,2.25-7.85,3.69-7.9Z"/>
              <path class="cls-31" d="M7.28,4.21c1.41-.05,4.45,4.78,4.17,7.73-.25,2.61-2.37,3.86-4.48,3.64-2.66-.28-3.26-2.52-3.28-3.64-.03-1.9,2.21-7.68,3.59-7.73Z"/>
              <path class="cls-49" d="M7.25,4.37c1.33-.04,4.28,4.68,4,7.55-.23,2.48-2.21,3.75-4.27,3.56-2.63-.24-3.21-2.47-3.22-3.55-.02-1.85,2.18-7.52,3.49-7.56Z"/>
              <path class="cls-50" d="M7.23,4.53c1.26-.04,4.1,4.58,3.84,7.38-.22,2.35-2.05,3.64-4.06,3.48-2.59-.2-3.16-2.43-3.17-3.47-.02-1.79,2.14-7.36,3.39-7.39Z"/>
              <path class="cls-37" d="M7.2,4.69c1.18-.03,3.92,4.48,3.67,7.2-.2,2.22-1.9,3.53-3.84,3.41-2.56-.17-3.11-2.38-3.11-3.39-.02-1.73,2.11-7.19,3.29-7.22Z"/>
              <path class="cls-38" d="M7.18,4.85c1.11-.02,3.74,4.38,3.51,7.03-.18,2.09-1.74,3.42-3.63,3.33-2.52-.12-3.05-2.33-3.06-3.31-.01-1.67,2.07-7.03,3.19-7.05Z"/>
              <path class="cls-39" d="M7.15,5.01c1.04-.01,3.56,4.28,3.34,6.86-.17,1.96-1.58,3.31-3.42,3.25-2.49-.08-3-2.28-3-3.23,0-1.62,2.04-6.87,3.08-6.88Z"/>
              <path class="cls-35" d="M7.13,5.17c.96,0,3.38,4.18,3.18,6.68-.15,1.83-1.42,3.2-3.21,3.17-2.45-.04-2.95-2.23-2.95-3.14,0-1.56,2-6.7,2.98-6.71Z"/>
              <path class="cls-36" d="M7.11,5.33c.89,0,3.21,4.08,3.01,6.51-.14,1.7-1.26,3.1-3,3.1-2.42,0-2.9-2.18-2.89-3.06,0-1.5,1.97-6.54,2.88-6.54Z"/>
            </g>
            <path class="cls-18" d="M9.49,10.71c0,2.62-2.12,4.74-4.74,4.74S0,13.33,0,10.71C0,6.79,4.74,0,4.74,0c0,0,4.74,6.79,4.74,10.71Z"/>
            <path class="cls-17" d="M9.66,10.89c0,2.62-2.12,4.74-4.74,4.74S.18,13.51,.18,10.89C.18,6.96,4.92,.18,4.92,.18c0,0,4.74,6.79,4.74,10.71Z"/>
            <path class="cls-24" d="M9.66,10.89C9.66,6.96,4.92,.18,4.92,.18V15.63c2.62,0,4.74-2.12,4.74-4.74Z"/>
            <path class="cls-10" d="M.18,10.89C.18,6.96,4.92,.18,4.92,.18V15.63C2.3,15.63,.18,13.51,.18,10.89Z"/>
          </g>
          <g>
            <path class="cls-13" d="M10.62,12.15c-.3,1.6-1.84,2.67-3.44,2.37-1.6-.3-2.67-1.84-2.37-3.44,.3-1.6,1.84-2.67,3.44-2.37,1.6,.3,2.67,1.84,2.37,3.44Z"/>
            <path class="cls-5" d="M10,12.14c-.27,1.47-1.68,2.44-3.15,2.17-1.47-.27-2.44-1.68-2.17-3.15,.27-1.47,1.68-2.44,3.15-2.17,1.47,.27,2.44,1.68,2.17,3.15Z"/>
            <path class="cls-15" d="M8.11,10.66c0,.95-.77,1.72-1.72,1.72s-1.72-.77-1.72-1.72,.77-1.72,1.72-1.72,1.72,.77,1.72,1.72Z"/>
            <path class="cls-27" d="M8.26,10.74c0,.95-.77,1.72-1.72,1.72s-1.72-.77-1.72-1.72,.77-1.72,1.72-1.72,1.72,.77,1.72,1.72Z"/>
          </g>
          <g>
            <path class="cls-8" d="M14.68,7.26c-.23,1.23-1.41,2.04-2.64,1.82-1.23-.23-2.04-1.41-1.82-2.64,.23-1.23,1.41-2.04,2.64-1.82,1.23,.23,2.04,1.41,1.82,2.64Z"/>
            <path class="cls-9" d="M14.21,7.25c-.21,1.13-1.29,1.87-2.42,1.67-1.13-.21-1.87-1.29-1.67-2.42,.21-1.13,1.29-1.87,2.42-1.67,1.13,.21,1.87,1.29,1.67,2.42Z"/>
            <path class="cls-15" d="M12.76,6.12c0,.73-.59,1.32-1.32,1.32s-1.32-.59-1.32-1.32,.59-1.32,1.32-1.32,1.32,.59,1.32,1.32Z"/>
            <path class="cls-25" d="M12.87,6.18c0,.73-.59,1.32-1.32,1.32s-1.32-.59-1.32-1.32,.59-1.32,1.32-1.32,1.32,.59,1.32,1.32Z"/>
          </g>
          <g>
            <path class="cls-6" d="M6.48,8.24c-.19,1.01-1.16,1.68-2.17,1.5-1.01-.19-1.68-1.16-1.5-2.17,.19-1.01,1.16-1.68,2.17-1.5,1.01,.19,1.68,1.16,1.5,2.17Z"/>
            <path class="cls-7" d="M6.08,8.24c-.17,.93-1.06,1.54-1.99,1.37-.93-.17-1.54-1.06-1.37-1.99,.17-.93,1.06-1.54,1.99-1.37,.93,.17,1.54,1.06,1.37,1.99Z"/>
            <path class="cls-15" d="M4.89,7.31c0,.6-.49,1.08-1.08,1.08s-1.08-.49-1.08-1.08,.49-1.08,1.08-1.08,1.08,.49,1.08,1.08Z"/>
            <path class="cls-26" d="M4.98,7.35c0,.6-.49,1.08-1.08,1.08s-1.08-.49-1.08-1.08,.48-1.08,1.08-1.08,1.08,.49,1.08,1.08Z"/>
          </g>
        </g>
      </g>
    </g>
  </g>
</svg>