<?xml version="1.0" encoding="UTF-8"?>
<svg xmlns="http://www.w3.org/2000/svg" xmlns:xlink="http://www.w3.org/1999/xlink" viewBox="0 0 28.55 21.03">
  <defs>
    <style>
      .cls-1 {
        fill: #fbfcfc;
        opacity: .03;
      }

      .cls-2 {
        fill: #f9fbfb;
        opacity: .05;
      }

      .cls-3 {
        fill: #f7f9fa;
        opacity: .06;
      }

      .cls-4 {
        fill: #f4f6f8;
        opacity: .1;
      }

      .cls-5 {
        fill: #f3f6f7;
        opacity: .1;
      }

      .cls-6 {
        fill: url(#radial-gradient-2);
      }

      .cls-6, .cls-7, .cls-8, .cls-9, .cls-10, .cls-11, .cls-12 {
        mix-blend-mode: multiply;
      }

      .cls-7 {
        fill: url(#radial-gradient-5);
      }

      .cls-8 {
        fill: url(#radial-gradient-6);
      }

      .cls-9 {
        fill: url(#radial-gradient-3);
      }

      .cls-10 {
        fill: url(#radial-gradient-4);
      }

      .cls-13, .cls-14 {
        fill: #fff;
      }

      .cls-15 {
        fill: #eef7fa;
      }

      .cls-16 {
        fill: #91d5eb;
      }

      .cls-17 {
        fill: #b3edff;
      }

      .cls-18 {
        fill: #8ba3b5;
      }

      .cls-19 {
        fill: #9ddef2;
      }

      .cls-20 {
        fill: #bee9f7;
      }

      .cls-21 {
        fill: #c8eefa;
      }

      .cls-22 {
        fill: #e1f0fa;
      }

      .cls-23 {
        fill: #a2def2;
      }

      .cls-24 {
        fill: #86a2b0;
      }

      .cls-25 {
        fill: #61d7ff;
      }

      .cls-26 {
        fill: #eef2f4;
        opacity: .14;
      }

      .cls-27 {
        fill: #eff3f5;
        opacity: .13;
      }

      .cls-28 {
        fill: #e4eaed;
        opacity: .23;
      }

      .cls-29 {
        fill: #e8edf0;
        opacity: .19;
      }

      .cls-30 {
        fill: #e9edf1;
        opacity: .19;
      }

      .cls-31 {
        fill: #d8e1e6;
        opacity: .32;
      }

      .cls-32 {
        fill: #ebf0f2;
        opacity: .16;
      }

      .cls-12 {
        fill: url(#radial-gradient);
      }

      .cls-14 {
        opacity: 0;
      }

      .cls-33 {
        isolation: isolate;
      }

      .cls-34 {
        fill: #bdcad5;
        opacity: .57;
      }

      .cls-35 {
        fill: #b9c9d1;
        opacity: .58;
      }

      .cls-36 {
        fill: #b7c6d1;
        opacity: .62;
      }

      .cls-37 {
        fill: #c1cfd6;
        opacity: .52;
      }

      .cls-38 {
        fill: #c2cfd8;
        opacity: .52;
      }

      .cls-39 {
        fill: #bdccd4;
        opacity: .55;
      }

      .cls-40 {
        fill: #c4d2d9;
        opacity: .48;
      }

      .cls-41 {
        fill: #c8d3dc;
        opacity: .48;
      }

      .cls-42 {
        fill: #96acbc;
        opacity: .9;
      }

      .cls-43 {
        fill: #92abb8;
        opacity: .9;
      }

      .cls-44 {
        fill: #8ea8b5;
        opacity: .94;
      }

      .cls-45 {
        fill: #9ab1bd;
        opacity: .84;
      }

      .cls-46 {
        fill: #9cb0c0;
        opacity: .86;
      }

      .cls-47 {
        fill: #96aeba;
        opacity: .87;
      }

      .cls-48 {
        fill: #a7b9c7;
        opacity: .76;
      }

      .cls-49 {
        fill: #a1b7c2;
        opacity: .77;
      }

      .cls-50 {
        fill: #a1b5c3;
        opacity: .81;
      }

      .cls-51 {
        fill: #9db4bf;
        opacity: .81;
      }

      .cls-52 {
        fill: #adc0c9;
        opacity: .68;
      }

      .cls-53 {
        fill: #acbdca;
        opacity: .71;
      }

      .cls-54 {
        fill: #a9bdc7;
        opacity: .71;
      }

      .cls-55 {
        fill: #a5bac4;
        opacity: .74;
      }

      .cls-56 {
        fill: #d8e0e6;
        opacity: .33;
      }

      .cls-57 {
        fill: #dce4e8;
        opacity: .29;
      }

      .cls-58 {
        fill: #dee5ea;
        opacity: .29;
      }

      .cls-59 {
        fill: #e0e7eb;
        opacity: .26;
      }

      .cls-60 {
        fill: #e3e9ed;
        opacity: .24;
      }

      .cls-61 {
        fill: #c8d5db;
        opacity: .45;
      }

      .cls-62 {
        fill: #ccd8de;
        opacity: .42;
      }

      .cls-63 {
        fill: #cdd8df;
        opacity: .43;
      }

      .cls-64 {
        fill: #d0dbe0;
        opacity: .39;
      }

      .cls-65 {
        fill: #d3dce3;
        opacity: .38;
      }

      .cls-66 {
        fill: #d4dee3;
        opacity: .35;
      }

      .cls-67 {
        fill: #b5c6cf;
        opacity: .61;
      }

      .cls-68 {
        fill: #b1c3cc;
        opacity: .65;
      }

      .cls-69 {
        fill: #b2c2ce;
        opacity: .67;
      }

      .cls-70 {
        fill: #91a7b9;
        opacity: .95;
      }

      .cls-71 {
        fill: #8aa5b3;
        opacity: .97;
      }
    </style>
    <radialGradient id="radial-gradient" cx="-45.82" cy="-181.28" fx="-45.82" fy="-181.28" r="2.62" gradientTransform="translate(21.53 202.26) rotate(10.44)" gradientUnits="userSpaceOnUse">
      <stop offset="0" stop-color="#aed5eb"/>
      <stop offset=".19" stop-color="#c0deef"/>
      <stop offset=".69" stop-color="#edf5fa"/>
      <stop offset=".95" stop-color="#fff"/>
    </radialGradient>
    <radialGradient id="radial-gradient-2" cx="-44.93" cy="-182.59" fx="-44.93" fy="-182.59" r="3.22" xlink:href="#radial-gradient"/>
    <radialGradient id="radial-gradient-3" cx="-44.91" cy="-181.47" fx="-44.91" fy="-181.47" r="3.22" xlink:href="#radial-gradient"/>
    <radialGradient id="radial-gradient-4" cx="-49.21" cy="-177.27" fx="-49.21" fy="-177.27" r="1.67" xlink:href="#radial-gradient"/>
    <radialGradient id="radial-gradient-5" cx="-48.65" cy="-178.11" fx="-48.65" fy="-178.11" r="2.05" xlink:href="#radial-gradient"/>
    <radialGradient id="radial-gradient-6" cx="-48.64" cy="-177.39" fx="-48.64" fy="-177.39" r="2.05" xlink:href="#radial-gradient"/>
  </defs>
  <g class="cls-33">
    <g id="Ebene_2" data-name="Ebene 2">
      <g id="Paper-Icons">
        <g>
          <g>
            <g class="cls-11">
              <path class="cls-14" d="M26.79,14.27c2.12-2.13,2.02-3.83,1.31-5.66-.53-1.38-.78-2.29-1.67-3.56-.8-1.14-2.49-2.6-5.02-2.96-2.45-.35-8.27,3.65-10.27,4.18-2.16,.58-4.8,2.1-7.58,3.23C2.14,10.08,.04,11.9,0,12.86c-.06,1.57,.46,2.21,1.15,2.83s2.13,1.72,2.99,2.13c.81,.39,2.93,.96,3.64,1.04,1.56,.17,2.13-.31,3.37-.18,1.62,.17,2.16,.29,2.9,.27,.68-.02,1.23-.16,1.6-.18,.54-.02,1.35,.05,2.01-.09,1.71-.36,1.98-.23,2.86-.5,1.87-.58,4.51-2.16,6.25-3.91Z"/>
              <path class="cls-2" d="M26.54,14.19c2.06-2.04,1.96-3.72,1.26-5.49-.54-1.35-.81-2.23-1.68-3.46-.79-1.11-2.39-2.55-4.91-2.96-2.42-.39-8.09,3.56-10.07,4.09-2.15,.58-4.69,2.1-7.41,3.2C2.35,10.13,.11,11.85,.09,12.84c-.03,1.51,.5,2.12,1.19,2.73,.7,.62,2.1,1.7,2.95,2.08s2.85,.87,3.58,.95c1.54,.16,2.11-.24,3.35-.12,1.61,.17,2.12,.26,2.86,.24,.66-.02,1.2-.14,1.6-.15,.57-.02,1.37,.02,2.02-.12,1.67-.34,1.93-.21,2.83-.49,1.84-.58,4.36-2.09,6.07-3.77Z"/>
              <path class="cls-4" d="M26.3,14.11c2.01-1.94,1.92-3.6,1.21-5.32-.54-1.32-.84-2.17-1.7-3.37-.78-1.09-2.29-2.51-4.79-2.97-2.4-.43-7.9,3.47-9.87,4.01-2.13,.58-4.59,2.09-7.24,3.17-1.36,.55-3.74,2.17-3.75,3.18,0,1.46,.53,2.03,1.23,2.63,.71,.61,2.07,1.68,2.91,2.03s2.77,.78,3.51,.86c1.53,.15,2.1-.18,3.33-.06,1.61,.16,2.09,.22,2.82,.21,.65-.01,1.17-.11,1.6-.13,.6-.02,1.38-.01,2.03-.14,1.62-.33,1.89-.19,2.8-.48,1.81-.58,4.22-2.02,5.89-3.63Z"/>
              <path class="cls-26" d="M26.06,14.03c1.95-1.85,1.87-3.49,1.17-5.15-.54-1.29-.88-2.11-1.72-3.27-.77-1.06-2.18-2.47-4.67-2.97s-7.72,3.39-9.67,3.92c-2.12,.58-4.48,2.09-7.07,3.13-1.33,.54-3.86,2.07-3.84,3.1,.02,1.41,.57,1.94,1.27,2.53s2.04,1.66,2.88,1.99c.89,.35,2.69,.69,3.45,.77,1.51,.14,2.08-.11,3.3,0,1.6,.15,2.05,.19,2.78,.18,.63,0,1.14-.09,1.6-.1,.64-.02,1.4-.04,2.03-.17,1.58-.32,1.84-.16,2.77-.47,1.78-.58,4.08-1.95,5.71-3.49Z"/>
              <path class="cls-30" d="M25.81,13.95c1.9-1.75,1.82-3.37,1.12-4.98-.55-1.26-.91-2.05-1.73-3.18-.76-1.04-2.08-2.43-4.55-2.97-2.34-.52-7.54,3.3-9.47,3.83-2.1,.58-4.37,2.08-6.9,3.1-1.3,.52-3.97,1.96-3.94,3.01,.04,1.35,.61,1.85,1.31,2.43s2.02,1.63,2.84,1.94c.91,.33,2.62,.61,3.39,.68,1.49,.14,2.06-.04,3.28,.07,1.59,.14,2.01,.16,2.74,.15,.62,0,1.12-.06,1.6-.07,.67-.01,1.42-.07,2.04-.2,1.54-.31,1.8-.14,2.75-.45,1.75-.57,3.93-1.88,5.53-3.35Z"/>
              <path class="cls-60" d="M25.57,13.87c1.84-1.66,1.77-3.26,1.07-4.81-.55-1.23-.94-1.99-1.75-3.09-.75-1.01-1.98-2.39-4.43-2.98-2.31-.56-7.36,3.21-9.27,3.74-2.09,.58-4.26,2.08-6.73,3.07-1.27,.51-4.09,1.85-4.04,2.93,.06,1.3,.65,1.76,1.34,2.33s1.99,1.61,2.8,1.89c.94,.32,2.54,.52,3.33,.59,1.48,.13,2.04,.02,3.26,.13,1.59,.13,1.98,.13,2.7,.12,.6,0,1.09-.04,1.6-.05,.7-.01,1.43-.1,2.04-.22,1.49-.29,1.75-.12,2.72-.44,1.73-.57,3.79-1.81,5.35-3.22Z"/>
              <path class="cls-58" d="M25.33,13.79c1.78-1.56,1.72-3.14,1.02-4.64-.56-1.2-.97-1.93-1.76-2.99-.74-.98-1.88-2.35-4.32-2.98-2.28-.6-7.18,3.12-9.07,3.65-2.07,.58-4.15,2.07-6.56,3.04-1.24,.5-4.21,1.74-4.14,2.85,.08,1.25,.68,1.68,1.38,2.23s1.96,1.59,2.77,1.84c.96,.3,2.46,.43,3.26,.5,1.46,.12,2.03,.09,3.23,.19,1.58,.12,1.94,.11,2.66,.1,.58,0,1.06-.02,1.6-.02,.73-.01,1.45-.14,2.05-.25,1.45-.28,1.7-.1,2.69-.43,1.7-.57,3.65-1.74,5.17-3.08Z"/>
              <path class="cls-56" d="M25.09,13.71c1.72-1.47,1.67-3.03,.97-4.47-.56-1.17-1-1.87-1.78-2.9-.73-.96-1.77-2.3-4.2-2.99-2.25-.64-7,3.04-8.87,3.56-2.06,.58-4.04,2.06-6.39,3.01-1.21,.49-4.32,1.63-4.23,2.76,.1,1.19,.72,1.59,1.42,2.13s1.93,1.56,2.73,1.79c.99,.29,2.38,.34,3.2,.41,1.44,.12,2.01,.16,3.21,.25,1.57,.12,1.9,.07,2.62,.07,.57,0,1.03,0,1.6,0,.77,0,1.46-.17,2.06-.28,1.4-.26,1.66-.08,2.66-.42,1.67-.57,3.5-1.67,5-2.94Z"/>
              <path class="cls-65" d="M24.84,13.63c1.67-1.38,1.61-2.91,.92-4.29-.57-1.14-1.03-1.81-1.8-2.8-.72-.93-1.67-2.26-4.08-2.99-2.22-.68-6.82,2.95-8.67,3.47-2.04,.58-3.93,2.06-6.22,2.98-1.18,.48-4.44,1.52-4.33,2.68s.76,1.5,1.46,2.03c.74,.55,1.91,1.53,2.69,1.74,1.02,.27,2.3,.25,3.14,.32,1.43,.11,1.99,.23,3.19,.31,1.57,.11,1.87,.03,2.58,.04,.55,0,1,.03,1.6,.03,.8,0,1.48-.2,2.06-.3,1.36-.25,1.61-.05,2.63-.4,1.65-.56,3.36-1.59,4.82-2.8Z"/>
              <path class="cls-63" d="M24.6,13.55c1.61-1.28,1.56-2.8,.88-4.12-.57-1.11-1.06-1.75-1.81-2.71-.7-.91-1.57-2.22-3.96-3-2.2-.72-6.64,2.86-8.47,3.38-2.03,.58-3.82,2.05-6.05,2.95-1.15,.46-4.56,1.41-4.43,2.6,.12,1.08,.8,1.41,1.5,1.92,.74,.55,1.88,1.51,2.65,1.7,1.05,.25,2.23,.17,3.07,.23,1.41,.1,1.97,.29,3.16,.37,1.56,.1,1.83,0,2.54,.01,.54,0,.97,.06,1.61,.06,.83,0,1.5-.23,2.07-.33,1.32-.24,1.56-.03,2.6-.39,1.62-.56,3.21-1.52,4.64-2.66Z"/>
              <path class="cls-41" d="M24.36,13.46c1.55-1.19,1.51-2.68,.83-3.95-.58-1.08-1.1-1.69-1.83-2.61s-1.47-2.17-3.84-3c-2.17-.76-6.45,2.77-8.27,3.29-2.01,.58-3.71,2.05-5.89,2.92-1.12,.45-4.68,1.3-4.52,2.51,.13,1.03,.83,1.32,1.54,1.82,.75,.54,1.85,1.48,2.62,1.65,1.07,.23,2.15,.08,3.01,.14,1.39,.1,1.96,.36,3.14,.43,1.55,.09,1.79-.03,2.5-.02,.52,.01,.95,.08,1.61,.08,.87,0,1.51-.26,2.08-.36,1.27-.23,1.52,0,2.57-.38,1.59-.56,3.06-1.45,4.46-2.52Z"/>
              <path class="cls-38" d="M24.11,13.38c1.49-1.1,1.46-2.57,.78-3.78-.58-1.05-1.13-1.62-1.84-2.52s-1.36-2.13-3.73-3.01c-2.14-.79-6.27,2.69-8.07,3.2-2,.58-3.61,2.04-5.72,2.89-1.09,.44-4.8,1.19-4.62,2.43,.14,.98,.87,1.23,1.57,1.72,.75,.53,1.83,1.45,2.58,1.6,1.1,.22,2.07,0,2.95,.05,1.38,.09,1.94,.43,3.12,.49,1.55,.08,1.76-.06,2.46-.05,.51,.01,.92,.11,1.61,.11,.9,0,1.53-.29,2.08-.39,1.23-.21,1.47,.01,2.55-.37,1.56-.55,2.92-1.38,4.28-2.39Z"/>
              <path class="cls-34" d="M23.87,13.3c1.43-1.01,1.41-2.45,.73-3.61-.59-1.02-1.16-1.56-1.86-2.43s-1.26-2.08-3.61-3.01c-2.11-.83-6.09,2.6-7.87,3.11-1.99,.58-3.5,2.03-5.55,2.86-1.06,.43-4.92,1.08-4.72,2.34,.15,.92,.91,1.14,1.61,1.62,.76,.52,1.8,1.42,2.54,1.55,1.13,.19,1.99-.1,2.89-.04,1.36,.09,1.92,.49,3.09,.55,1.54,.07,1.72-.1,2.42-.07,.49,.02,.89,.13,1.61,.14,.93,0,1.54-.32,2.09-.41,1.18-.2,1.43,.04,2.52-.35,1.54-.55,2.77-1.32,4.1-2.25Z"/>
              <path class="cls-36" d="M23.63,13.22c1.37-.91,1.35-2.34,.68-3.44-.6-.98-1.19-1.5-1.87-2.33s-1.16-2.04-3.49-3.01c-2.08-.87-5.91,2.51-7.67,3.02-1.97,.58-3.39,2.03-5.38,2.83-1.03,.42-5.05,.97-4.82,2.26,.16,.87,.95,1.06,1.65,1.52,.76,.51,1.77,1.39,2.51,1.5,1.16,.17,1.91-.19,2.82-.13,1.34,.08,1.9,.56,3.07,.61,1.53,.07,1.68-.13,2.38-.1,.48,.02,.86,.16,1.61,.16,.96,0,1.56-.35,2.1-.44,1.14-.19,1.38,.06,2.49-.34,1.51-.55,2.63-1.25,3.92-2.11Z"/>
              <path class="cls-69" d="M23.38,13.14c1.31-.82,1.3-2.22,.64-3.27-.6-.95-1.22-1.44-1.89-2.24s-1.06-1.99-3.37-3.02c-2.06-.91-5.73,2.42-7.47,2.93-1.96,.57-3.28,2.02-5.21,2.8-1.01,.4-5.17,.86-4.91,2.18,.16,.81,.99,.97,1.69,1.42,.77,.5,1.75,1.36,2.47,1.45,1.19,.15,1.84-.27,2.76-.22,1.33,.08,1.89,.63,3.05,.67,1.53,.06,1.65-.16,2.34-.13,.46,.02,.83,.18,1.61,.19,1,0,1.58-.38,2.1-.47,1.1-.18,1.34,.08,2.46-.33,1.48-.54,2.48-1.18,3.74-1.97Z"/>
              <path class="cls-53" d="M23.14,13.06c1.25-.73,1.25-2.1,.59-3.1-.61-.92-1.26-1.38-1.91-2.14s-.95-1.95-3.25-3.02c-2.03-.95-5.55,2.34-7.27,2.84-1.94,.57-3.17,2.02-5.04,2.77-.98,.39-5.3,.76-5.01,2.09,.17,.76,1.02,.88,1.73,1.32,.78,.49,1.72,1.33,2.43,1.4,1.21,.13,1.76-.36,2.7-.31,1.31,.07,1.87,.7,3.02,.73,1.52,.05,1.61-.2,2.3-.16,.44,.02,.8,.21,1.61,.21,1.03,0,1.59-.41,2.11-.49,1.05-.16,1.29,.11,2.43-.32,1.46-.54,2.33-1.11,3.56-1.83Z"/>
              <path class="cls-48" d="M22.9,12.98c1.18-.64,1.19-1.99,.54-2.93-.62-.89-1.29-1.32-1.92-2.05s-.85-1.9-3.14-3.03c-2-.99-5.37,2.25-7.07,2.76-1.93,.57-3.06,2.01-4.87,2.74-.95,.38-5.43,.65-5.11,2.01,.17,.71,1.06,.79,1.76,1.22,.78,.48,1.7,1.3,2.39,1.36,1.24,.1,1.68-.45,2.63-.4,1.29,.07,1.85,.76,3,.8,1.51,.04,1.57-.23,2.26-.19,.43,.03,.77,.23,1.61,.24,1.06,.01,1.61-.44,2.12-.52,1.01-.15,1.24,.13,2.4-.3,1.43-.53,2.18-1.04,3.38-1.69Z"/>
              <path class="cls-50" d="M22.66,12.9c1.12-.56,1.14-1.87,.49-2.76s-1.32-1.26-1.94-1.96-.75-1.86-3.02-3.03c-1.97-1.02-5.19,2.16-6.87,2.67-1.91,.57-2.95,2.01-4.7,2.71-.92,.37-5.57,.54-5.21,1.92,.17,.66,1.1,.7,1.8,1.11,.79,.47,1.67,1.27,2.36,1.31,1.27,.07,1.6-.53,2.57-.49,1.28,.06,1.83,.83,2.98,.86,1.51,.03,1.54-.26,2.22-.22,.41,.03,.75,.25,1.61,.27,1.09,.01,1.63-.47,2.12-.55,.96-.14,1.2,.15,2.37-.29,1.4-.53,2.03-.98,3.2-1.56Z"/>
              <path class="cls-46" d="M22.41,12.82c1.06-.47,1.08-1.75,.44-2.59s-1.35-1.2-1.95-1.86-.65-1.81-2.9-3.04c-1.95-1.06-5,2.07-6.67,2.58-1.9,.57-2.84,2-4.53,2.68-.89,.36-5.71,.44-5.3,1.84,.17,.6,1.14,.61,1.84,1.01,.79,.45,1.64,1.24,2.32,1.26,1.3,.05,1.52-.62,2.51-.58,1.26,.06,1.82,.9,2.95,.92,1.5,.02,1.5-.3,2.18-.24,.4,.03,.72,.28,1.61,.29,1.13,.02,1.64-.51,2.13-.57,.92-.13,1.15,.18,2.35-.28,1.38-.52,1.88-.91,3.02-1.42Z"/>
              <path class="cls-42" d="M22.17,12.73c1-.38,1.03-1.63,.4-2.42s-1.38-1.14-1.97-1.77c-.6-.65-.55-1.76-2.78-3.04-1.92-1.1-4.82,1.99-6.47,2.49-1.88,.57-2.73,1.99-4.36,2.65-.86,.34-5.85,.33-5.4,1.76,.18,.55,1.18,.52,1.88,.91,.8,.45,1.62,1.22,2.28,1.21,1.32-.03,1.45-.71,2.45-.67,1.24,.05,1.8,.97,2.93,.98,1.49,.02,1.46-.33,2.14-.27,.38,.03,.69,.3,1.61,.32,1.16,.02,1.66-.54,2.14-.6,.88-.12,1.11,.2,2.32-.27,1.35-.52,1.73-.85,2.84-1.28Z"/>
              <path class="cls-70" d="M21.93,12.65c.93-.3,.97-1.51,.35-2.25s-1.42-1.08-1.99-1.67c-.59-.62-.45-1.71-2.66-3.04-1.89-1.13-4.64,1.9-6.27,2.4-1.87,.57-2.62,1.99-4.19,2.62-.83,.33-6,.23-5.5,1.67,.18,.5,1.22,.43,1.92,.81,.81,.44,1.59,1.17,2.25,1.16,1.35-.01,1.37-.79,2.38-.76,1.23,.05,1.78,1.03,2.91,1.04,1.49,0,1.43-.36,2.1-.3,.37,.03,.66,.33,1.61,.34,1.19,.02,1.67-.57,2.14-.63,.83-.1,1.06,.23,2.29-.25,1.32-.51,1.58-.79,2.66-1.14Z"/>
              <path class="cls-18" d="M21.68,12.57c.87-.22,.92-1.4,.3-2.07-.66-.73-1.45-1.02-2-1.58-.58-.59-.35-1.67-2.54-3.05-1.87-1.17-4.46,1.81-6.07,2.31-1.85,.57-2.52,1.98-4.02,2.58-.8,.32-6.16,.14-5.59,1.59,.18,.45,1.25,.34,1.95,.71,.81,.43,1.56,1.14,2.21,1.11,1.38-.05,1.29-.88,2.32-.85,1.21,.04,1.76,1.1,2.88,1.1,1.48,0,1.39-.4,2.06-.33,.35,.04,.63,.35,1.61,.37,1.23,.02,1.69-.6,2.15-.65,.79-.09,1.02,.25,2.26-.24,1.3-.51,1.43-.74,2.48-1Z"/>
            </g>
            <path class="cls-15" d="M21.12,9.63c-.19-.67-.59-1.25-1.14-1.66,.14-.37,.22-.76,.24-1.17,.09-2.1-1.54-3.88-3.64-3.97-1.61-.07-3.02,.87-3.64,2.25-.11-.01-.22-.03-.33-.03-1.33-.06-2.53,.56-3.27,1.55-.21-.08-.43-.13-.67-.14-1.14-.05-2.11,.84-2.16,1.98,0,.19,.01,.37,.05,.55-.42,.07-.77,.32-.99,.67-.35-.47-.89-.78-1.52-.8-.87-.04-1.62,.48-1.93,1.24-.04,0-.08,0-.12-.01-.79-.03-1.46,.58-1.49,1.37-.03,.79,.58,1.46,1.37,1.49,.41,.02,.78-.14,1.05-.4,.28,.17,.6,.27,.94,.29,.31,.69,.99,1.18,1.8,1.22,.84,.04,1.58-.43,1.93-1.13,.24,.11,.5,.17,.77,.19,.09,0,.17,0,.26,0,.48,.65,1.25,1.08,2.12,1.12,.85,.04,1.63-.31,2.17-.89,.33,.63,.98,1.08,1.75,1.11,.81,.03,1.54-.41,1.9-1.08,.4,.21,.85,.33,1.33,.35,1.05,.04,2-.42,2.62-1.17,.14,.05,.3,.09,.46,.09,.83,.04,1.53-.61,1.56-1.44,.04-.83-.6-1.52-1.43-1.56Z"/>
            <path class="cls-16" d="M21.18,9.69c-.19-.67-.59-1.25-1.14-1.66,.14-.37,.22-.76,.24-1.17,.09-2.1-1.54-3.88-3.64-3.96-1.61-.07-3.02,.87-3.64,2.25-.11-.01-.22-.03-.33-.03-1.33-.06-2.53,.56-3.27,1.55-.21-.08-.43-.13-.67-.14-1.14-.05-2.11,.84-2.16,1.98,0,.19,.01,.37,.05,.55-.42,.07-.77,.32-.99,.67-.35-.47-.89-.78-1.52-.8-.87-.04-1.62,.48-1.93,1.24-.04,0-.08,0-.12-.01-.79-.03-1.46,.58-1.49,1.37-.03,.79,.58,1.46,1.37,1.49,.41,.02,.78-.14,1.05-.4,.28,.17,.6,.27,.94,.29,.31,.69,.99,1.18,1.8,1.22,.84,.04,1.58-.43,1.93-1.13,.24,.11,.5,.17,.77,.19,.09,0,.17,0,.26,0,.48,.65,1.25,1.08,2.12,1.12,.85,.04,1.63-.31,2.17-.89,.33,.63,.98,1.08,1.75,1.11,.81,.04,1.54-.41,1.9-1.08,.4,.21,.85,.33,1.33,.35,1.05,.04,2-.42,2.62-1.17,.14,.05,.3,.09,.46,.09,.83,.04,1.53-.61,1.56-1.44,.04-.83-.6-1.52-1.43-1.56Z"/>
          </g>
          <g>
            <path class="cls-12" d="M11.89,16.15c-.26,1.42-1.63,2.37-3.06,2.1-1.43-.26-2.37-1.63-2.11-3.06,.26-1.43,1.63-2.37,3.06-2.11,1.42,.26,2.37,1.63,2.1,3.06Z"/>
            <path class="cls-6" d="M13.59,15.12c-.32,1.75-2,2.91-3.75,2.58-1.75-.32-2.91-2-2.59-3.75,.32-1.75,2-2.91,3.75-2.58,1.75,.32,2.91,2,2.58,3.75Z"/>
            <path class="cls-9" d="M13.4,16.23c-.32,1.75-2,2.9-3.74,2.58-1.75-.32-2.9-2-2.58-3.74,.32-1.75,2-2.9,3.74-2.58,1.75,.32,2.9,2,2.58,3.75Z"/>
            <g>
              <path class="cls-13" d="M11.22,13.53s-.01,0-.02,0l-4.68,2.17s-.06,.01-.09,0c-.03-.01-.05-.03-.07-.06-.02-.05,0-.12,.04-.15,0,0,0,0,.02,0l4.68-2.17c.06-.03,.13,0,.16,.06,.02,.05,0,.12-.04,.15Z"/>
              <path class="cls-13" d="M10.95,14.07s-.01,0-.02,0c-.06,.03-.13,0-.16-.06l-.32-.68c-.02-.05,0-.12,.04-.15,0,0,.01,0,.02,0,.06-.03,.13,0,.16,.06l.32,.68c.02,.05,0,.12-.04,.15Z"/>
              <path class="cls-13" d="M7.13,15.84s-.01,0-.02,0c-.06,.03-.13,0-.16-.06l-.32-.69c-.03-.05,0-.12,.04-.15,0,0,0,0,.02,0,.06-.03,.13,0,.16,.06l.32,.68c.03,.05,0,.12-.04,.15Z"/>
              <path class="cls-13" d="M9.97,16.95s-.01,0-.02,0c-.03,.01-.06,.01-.09,0-.03-.01-.05-.03-.07-.06l-2.17-4.68c-.02-.05,0-.12,.04-.15,0,0,.01,0,.02,0,.03-.01,.06-.02,.09,0,.03,.01,.05,.03,.07,.06l2.17,4.68c.02,.05,0,.12-.04,.15Z"/>
              <path class="cls-13" d="M10.11,16.37s0,0-.02,0l-.68,.32s-.06,.01-.09,0c-.03-.01-.05-.03-.07-.06-.02-.05,0-.12,.04-.15,0,0,.01,0,.02,0l.69-.32s.06-.01,.09,0c.03,.01,.05,.03,.07,.06,.02,.05,0,.12-.04,.15Z"/>
              <path class="cls-13" d="M8.34,12.55s0,0-.02,0l-.68,.32s-.06,.01-.09,0c-.03-.01-.05-.03-.07-.06-.02-.05,0-.12,.04-.15,0,0,.01,0,.02,0l.69-.32s.06-.02,.09,0c.03,.01,.05,.03,.07,.06,.03,.05,0,.12-.04,.15Z"/>
              <path class="cls-13" d="M8,17.03s0,0-.02,0c-.03,.01-.06,.02-.09,0-.03-.01-.05-.03-.07-.06-.01-.03-.01-.06,0-.09l1.77-4.84s.02-.04,.05-.06c.03-.02,.07-.03,.11-.01,.03,.01,.05,.03,.07,.06,.01,.03,.02,.06,0,.09l-1.77,4.84s-.02,.04-.05,.06Z"/>
              <path class="cls-13" d="M8.51,16.72s-.01,0-.02,0c-.03,.01-.06,.02-.09,0l-.71-.26s-.05-.03-.07-.06c-.01-.03-.02-.06,0-.09,0-.03,.03-.04,.05-.06,.03-.02,.07-.03,.11-.01l.71,.26s.05,.03,.07,.06,.01,.06,0,.09c0,.02-.03,.04-.05,.06Z"/>
              <path class="cls-13" d="M9.96,12.77s0,0-.02,0c-.03,.01-.06,.01-.09,0l-.71-.26c-.06-.02-.09-.09-.07-.15,0-.02,.02-.04,.05-.06,.03-.02,.07-.03,.11-.01l.71,.26s.05,.03,.07,.06c.01,.03,.01,.06,0,.09,0,.02-.02,.05-.05,.06Z"/>
              <path class="cls-13" d="M11.3,15.5s-.01,0-.02,0c-.03,.01-.06,.01-.09,0l-4.84-1.78s-.05-.03-.07-.06c-.01-.03-.01-.06,0-.09,0-.02,.03-.05,.05-.06,.03-.02,.07-.03,.11-.01l4.84,1.78s.05,.03,.07,.06c.01,.03,.02,.06,0,.09,0,.03-.02,.04-.05,.06Z"/>
              <path class="cls-13" d="M6.78,14.24s-.01,0-.02,0c-.03,.01-.06,.01-.09,0-.03-.01-.05-.03-.07-.06s-.02-.06,0-.09l.26-.71s.03-.04,.05-.06c.03-.02,.07-.03,.11-.01,.03,.01,.05,.03,.07,.06,.01,.03,.02,.06,0,.09l-.26,.71s-.02,.04-.05,.06Z"/>
              <path class="cls-13" d="M10.73,15.69s-.01,0-.02,0c-.03,.01-.06,.02-.09,0-.03-.01-.05-.03-.07-.06-.01-.03-.02-.06,0-.09l.26-.71s.02-.04,.05-.06c.03-.02,.07-.03,.11-.01,.03,.01,.05,.03,.07,.06,.01,.03,.01,.06,0,.09l-.26,.71s-.03,.05-.05,.06Z"/>
              <path class="cls-13" d="M9.48,15.91s0,0-.01,0c-.03,.01-.07,.01-.1,0l-.5-.28-.48,.33s-.07,.02-.1,.01c-.03-.01-.06-.04-.07-.07l-.16-.56-.57-.11s-.06-.03-.08-.06c-.01-.03-.01-.07,0-.1l.28-.5-.32-.48s-.02-.07-.01-.1c0-.02,.02-.04,.04-.05,0,0,.02-.01,.03-.01l.56-.16,.11-.57s.02-.05,.05-.07c0,0,0,0,.01,0,.03-.01,.07-.01,.1,0l.5,.28,.48-.32s.07-.02,.1-.01c.03,.01,.06,.04,.07,.07l.16,.56,.57,.11s.06,.03,.08,.06c.01,.03,.01,.07,0,.1l-.28,.5,.32,.47s.01,.02,.02,.03c.02,.05,0,.11-.04,.13,0,0,0,0-.01,0h0s0,0-.01,0l-.56,.16-.11,.57s-.02,.05-.05,.07Zm-.68-.5s0,0,.01,0c.03-.01,.07-.01,.1,0l.43,.24,.09-.49s.02-.05,.05-.07c0,0,.02-.01,.03-.01l.48-.13-.28-.41s-.02-.08,0-.11l.24-.43-.49-.09s-.07-.04-.08-.08l-.13-.48-.41,.28s-.08,.02-.11,0l-.43-.24-.09,.49s-.02,.05-.05,.07c0,0-.02,.01-.03,.01l-.48,.13,.28,.41s.02,.08,0,.11l-.24,.43,.49,.09s.07,.04,.08,.08l.13,.48,.41-.28h0Z"/>
              <path class="cls-13" d="M10.27,15.89s0,0-.01,0c-.02,0-.04,.01-.06,0l-.78-.09-.43,.66s-.02,.02-.03,.03c-.02,.01-.04,.02-.05,.02-.03,0-.07-.01-.09-.04l-.49-.62-.77,.16s-.07,0-.09-.03c-.03-.02-.04-.06-.03-.09l.09-.78-.66-.43s-.05-.05-.05-.09c0-.04,.01-.07,.04-.09l.62-.49-.16-.77s0-.07,.03-.09c0,0,.01-.01,.02-.02,.02-.01,.05-.02,.07-.02l.78,.09,.43-.66s.02-.02,.03-.03c.02-.01,.04-.02,.06-.02,.03,0,.07,.01,.09,.04l.49,.62,.77-.16s.07,0,.09,.03c.03,.02,.04,.06,.03,.09l-.09,.78,.66,.43s.05,.05,.05,.08c0,.04-.01,.07-.04,.09l-.62,.49,.16,.77s0,.07-.03,.1c0,0-.01,.01-.02,.02Zm-.97-.28s.05-.02,.07-.02l.7,.08-.14-.69s0-.08,.04-.11l.55-.44-.59-.39s-.05-.06-.05-.1l.08-.7-.69,.14s-.08,0-.11-.04l-.43-.55-.39,.59s-.02,.02-.03,.03c-.02,.01-.05,.02-.07,.02l-.7-.08,.14,.69s0,.08-.04,.11l-.55,.44,.59,.39s.05,.06,.05,.1l-.08,.7,.69-.14s.08,0,.11,.04l.44,.55,.39-.59s.02-.02,.03-.03Z"/>
            </g>
            <g>
              <path class="cls-22" d="M11.28,13.53s0,0-.02,0l-4.68,2.17s-.06,.01-.09,0c-.03-.01-.05-.03-.07-.06-.02-.05,0-.12,.04-.15,0,0,.01,0,.02,0l4.68-2.17c.06-.03,.13,0,.16,.06,.02,.05,0,.12-.04,.15Z"/>
              <path class="cls-22" d="M11.01,14.07s-.01,0-.02,0c-.06,.03-.13,0-.16-.06l-.32-.68c-.03-.05,0-.12,.04-.15,0,0,0,0,.02,0,.06-.03,.13,0,.16,.06l.32,.68c.02,.05,0,.12-.04,.15Z"/>
              <path class="cls-22" d="M7.19,15.84s-.01,0-.02,0c-.06,.03-.13,0-.16-.06l-.32-.69c-.02-.05,0-.12,.04-.15,0,0,.01,0,.02,0,.06-.03,.13,0,.16,.06l.32,.68c.03,.05,0,.12-.04,.15Z"/>
              <path class="cls-22" d="M10.03,16.95s-.01,0-.02,0c-.03,.01-.06,.01-.09,0-.03-.01-.05-.03-.07-.06l-2.17-4.68c-.02-.05,0-.12,.04-.15,0,0,.01,0,.02,0,.03-.01,.06-.02,.09,0,.03,.01,.05,.03,.07,.06l2.17,4.68c.02,.05,0,.12-.04,.15Z"/>
              <path class="cls-22" d="M10.17,16.37s-.01,0-.02,0l-.69,.32s-.06,.01-.09,0c-.03-.01-.05-.03-.07-.06-.02-.05,0-.12,.04-.15,0,0,0,0,.02,0l.68-.32s.06-.01,.09,0c.03,.01,.05,.03,.07,.06,.03,.05,0,.12-.04,.15Z"/>
              <path class="cls-22" d="M8.4,12.55s-.01,0-.02,0l-.69,.32s-.06,.01-.09,0c-.03-.01-.05-.03-.07-.06-.02-.05,0-.12,.04-.15,0,0,0,0,.02,0l.68-.32s.06-.02,.09,0c.03,.01,.05,.03,.07,.06,.02,.05,0,.12-.04,.15Z"/>
              <path class="cls-22" d="M8.06,17.03s-.01,0-.02,0c-.03,.01-.06,.02-.09,0-.03-.01-.05-.03-.07-.06-.01-.03-.02-.06,0-.09l1.77-4.84s.02-.04,.05-.06c.03-.02,.07-.03,.11-.01,.03,.01,.05,.03,.07,.06,.01,.03,.02,.06,0,.09l-1.77,4.84s-.03,.04-.05,.06Z"/>
              <path class="cls-22" d="M8.57,16.72s0,0-.02,0c-.03,.01-.06,.02-.09,0l-.71-.26s-.05-.03-.07-.06c-.01-.03-.01-.06,0-.09,0-.03,.03-.04,.05-.06,.03-.02,.07-.03,.11-.01l.71,.26s.05,.03,.07,.06c.01,.03,.02,.06,0,.09,0,.02-.02,.04-.05,.06Z"/>
              <path class="cls-22" d="M10.02,12.77s0,0-.02,0c-.03,.01-.06,.01-.09,0l-.71-.26c-.06-.02-.09-.09-.07-.15,0-.02,.03-.04,.05-.06,.03-.02,.07-.03,.11-.01l.71,.26s.05,.03,.07,.06c.01,.03,.01,.06,0,.09,0,.02-.03,.05-.05,.06Z"/>
              <path class="cls-22" d="M11.36,15.5s0,0-.02,0c-.03,.01-.06,.01-.09,0l-4.84-1.78s-.05-.03-.07-.06c-.01-.03-.01-.06,0-.09,0-.02,.02-.05,.05-.06,.03-.02,.07-.03,.11-.01l4.84,1.78s.05,.03,.07,.06c.01,.03,.01,.06,0,.09,0,.03-.03,.04-.05,.06Z"/>
              <path class="cls-22" d="M6.84,14.24s-.01,0-.02,0c-.03,.01-.06,.01-.09,0-.03-.01-.05-.03-.07-.06-.01-.03-.02-.06,0-.09l.26-.71s.03-.04,.05-.06c.03-.02,.07-.03,.11-.01,.03,.01,.05,.03,.07,.06,.01,.03,.01,.06,0,.09l-.26,.71s-.03,.04-.05,.06Z"/>
              <path class="cls-22" d="M10.79,15.69s-.01,0-.02,0c-.03,.01-.06,.02-.09,0-.03-.01-.05-.03-.07-.06-.01-.03-.02-.06,0-.09l.26-.71s.03-.04,.05-.06c.03-.02,.07-.03,.11-.01,.03,.01,.05,.03,.07,.06,.01,.03,.01,.06,0,.09l-.26,.71s-.03,.05-.05,.06Z"/>
              <path class="cls-22" d="M9.54,15.91s0,0-.01,0c-.03,.01-.07,.01-.1,0l-.5-.28-.48,.33s-.07,.02-.1,.01c-.03-.01-.06-.04-.07-.07l-.16-.56-.57-.11s-.06-.03-.08-.06c-.01-.03-.01-.07,0-.1l.28-.5-.32-.48s-.02-.07-.01-.1c0-.02,.02-.04,.04-.05,0,0,.02-.01,.03-.01l.56-.16,.11-.57s.02-.05,.05-.07c0,0,0,0,.01,0,.03-.01,.07-.01,.1,0l.5,.28,.48-.32s.06-.02,.1-.01c.03,.01,.06,.04,.07,.07l.16,.56,.57,.11s.06,.03,.08,.06c.01,.03,.01,.07,0,.1l-.28,.5,.32,.47s.01,.02,.02,.03c.02,.05,0,.11-.04,.13,0,0,0,0-.01,0h0s0,0-.01,0l-.56,.16-.11,.57s-.02,.05-.05,.07Zm-.68-.5s0,0,.01,0c.03-.01,.07-.01,.1,0l.43,.24,.09-.49s.02-.05,.05-.07c0,0,.02-.01,.03-.01l.48-.13-.28-.41s-.02-.08,0-.11l.24-.43-.49-.09s-.07-.04-.08-.08l-.13-.48-.41,.28s-.08,.02-.11,0l-.43-.24-.09,.49s-.02,.05-.05,.07c0,0-.02,.01-.03,.01l-.48,.13,.28,.41s.02,.08,0,.11l-.24,.43,.49,.09s.07,.04,.08,.08l.13,.48,.41-.28h0Z"/>
              <path class="cls-22" d="M10.34,15.89s0,0-.01,0c-.02,0-.04,.01-.06,0l-.78-.09-.43,.66s-.02,.02-.03,.03c-.02,.01-.04,.02-.06,.02-.03,0-.07-.01-.09-.04l-.49-.62-.77,.16s-.07,0-.1-.03-.04-.06-.03-.09l.09-.78-.66-.43s-.05-.05-.05-.09c0-.04,.01-.07,.04-.09l.62-.49-.16-.77s0-.07,.03-.09c0,0,.01-.01,.02-.02,.02-.01,.05-.02,.07-.02l.78,.09,.43-.66s.02-.02,.03-.03c.02-.01,.04-.02,.05-.02,.03,0,.07,.01,.09,.04l.49,.62,.77-.16s.07,0,.1,.03c.02,.02,.04,.06,.03,.09l-.09,.78,.66,.43s.05,.05,.05,.08c0,.04-.01,.07-.04,.09l-.62,.49,.16,.77s0,.07-.03,.1c0,0-.01,.01-.02,.02Zm-.97-.28s.05-.02,.07-.02l.7,.08-.14-.69s0-.08,.04-.11l.55-.44-.59-.39s-.05-.06-.05-.1l.08-.7-.69,.14s-.08,0-.11-.04l-.43-.55-.39,.59s-.02,.02-.03,.03c-.02,.01-.05,.02-.07,.02l-.7-.08,.14,.69s0,.08-.04,.11l-.55,.44,.59,.39s.05,.06,.05,.1l-.08,.7,.69-.14s.08,0,.11,.04l.44,.55,.39-.59s.02-.02,.03-.03Z"/>
            </g>
          </g>
          <g>
            <path class="cls-10" d="M6.89,19.3c-.17,.91-1.04,1.51-1.94,1.34-.91-.17-1.51-1.04-1.34-1.94,.17-.91,1.04-1.51,1.94-1.34,.91,.17,1.51,1.04,1.34,1.94Z"/>
            <path class="cls-7" d="M7.97,18.65c-.21,1.11-1.27,1.85-2.39,1.64-1.11-.2-1.85-1.27-1.64-2.39,.21-1.11,1.27-1.85,2.39-1.64s1.85,1.27,1.64,2.39Z"/>
            <path class="cls-8" d="M7.85,19.35c-.21,1.11-1.27,1.85-2.38,1.64-1.11-.21-1.85-1.27-1.64-2.38,.2-1.11,1.27-1.85,2.38-1.64,1.11,.21,1.85,1.27,1.64,2.38Z"/>
            <g>
              <path class="cls-13" d="M6.46,17.64s0,0-.01,0l-2.97,1.38s-.04,0-.06,0c-.02,0-.03-.02-.04-.04-.02-.03,0-.08,.03-.1,0,0,0,0,0,0l2.97-1.38s.08,0,.1,.04c.02,.03,0,.08-.03,.1Z"/>
              <path class="cls-13" d="M6.29,17.98s0,0,0,0c-.04,.02-.08,0-.1-.04l-.2-.44s0-.08,.03-.1c0,0,0,0,0,0,.04-.02,.08,0,.1,.04l.2,.44s0,.08-.03,.1Z"/>
              <path class="cls-13" d="M3.86,19.11s0,0-.01,0c-.04,.02-.08,0-.1-.04l-.2-.44s0-.08,.03-.1c0,0,0,0,.01,0,.04-.02,.08,0,.1,.04l.2,.44s0,.08-.03,.1Z"/>
              <path class="cls-13" d="M5.66,19.81s0,0-.01,0c-.02,0-.04,0-.06,0-.02,0-.03-.02-.04-.04l-1.38-2.97s0-.08,.03-.1c0,0,0,0,0,0,.02,0,.04,0,.06,0,.02,0,.03,.02,.04,.04l1.38,2.97s0,.08-.03,.1Z"/>
              <path class="cls-13" d="M5.76,19.44s0,0-.01,0l-.44,.2s-.04,0-.06,0c-.02,0-.03-.02-.04-.04-.02-.03,0-.08,.03-.1,0,0,0,0,0,0l.44-.2s.04,0,.06,0c.02,0,.03,.02,.04,.04,.02,.03,0,.08-.03,.1Z"/>
              <path class="cls-13" d="M4.63,17.01s0,0,0,0l-.44,.2s-.04,0-.06,0c-.02,0-.03-.02-.04-.04-.02-.03,0-.08,.03-.1,0,0,0,0,0,0l.44-.2s.04,0,.06,0c.02,0,.03,.02,.04,.04,.02,.03,0,.08-.03,.1Z"/>
              <path class="cls-13" d="M4.41,19.86s0,0,0,0c-.02,0-.04,0-.06,0-.02,0-.03-.02-.04-.04,0-.02,0-.04,0-.06l1.13-3.08s.02-.03,.03-.04c.02-.01,.05-.02,.07,0,.02,0,.04,.02,.04,.04,0,.02,0,.04,0,.06l-1.13,3.08s-.02,.03-.03,.04Z"/>
              <path class="cls-13" d="M4.74,19.67s0,0,0,0c-.02,0-.04,0-.06,0l-.45-.17s-.03-.02-.04-.04c0-.02,0-.04,0-.06,0-.02,.02-.03,.03-.04,.02-.01,.05-.02,.07,0l.45,.17s.03,.02,.04,.04c0,.02,0,.04,0,.06,0,.01-.02,.03-.03,.04Z"/>
              <path class="cls-13" d="M5.66,17.15s0,0,0,0c-.02,0-.04,0-.06,0l-.45-.17s-.06-.06-.05-.1c0-.01,.02-.03,.03-.04,.02-.01,.05-.02,.07,0l.45,.17s.03,.02,.04,.04c0,.02,0,.04,0,.06,0,.02-.02,.03-.03,.04Z"/>
              <path class="cls-13" d="M6.51,18.89s0,0,0,0c-.02,0-.04,0-.06,0l-3.08-1.13s-.03-.02-.04-.04c0-.02,0-.04,0-.06,0-.01,.02-.03,.03-.04,.02-.01,.04-.02,.07,0l3.08,1.13s.03,.02,.04,.04c0,.02,0,.04,0,.06,0,.02-.02,.03-.03,.04Z"/>
              <path class="cls-13" d="M3.63,18.09s0,0,0,0c-.02,0-.04,0-.06,0-.02,0-.03-.02-.04-.04,0-.02,0-.04,0-.06l.17-.45s.02-.03,.03-.04c.02-.01,.05-.02,.07,0,.02,0,.03,.02,.04,.04,0,.02,0,.04,0,.06l-.17,.45s-.02,.03-.03,.04Z"/>
              <path class="cls-13" d="M6.15,19.01s0,0,0,0c-.02,0-.04,0-.06,0-.02,0-.03-.02-.04-.04,0-.02,0-.04,0-.06l.17-.45s.02-.03,.03-.04c.02-.01,.05-.02,.07,0,.02,0,.03,.02,.04,.04,0,.02,0,.04,0,.06l-.17,.45s-.02,.03-.03,.04Z"/>
              <path class="cls-13" d="M5.35,19.15s0,0,0,0c-.02,0-.04,0-.06,0l-.32-.18-.3,.21s-.04,.02-.06,0-.04-.03-.04-.05l-.1-.35-.36-.07s-.04-.02-.05-.04c0-.02,0-.04,0-.06l.18-.32-.21-.3s-.02-.04,0-.06c0-.01,.01-.03,.03-.03,0,0,.01,0,.02,0l.35-.1,.07-.36s.01-.03,.03-.04c0,0,0,0,0,0,.02,0,.04,0,.06,0l.32,.18,.31-.21s.04-.01,.06,0c.02,0,.04,.02,.04,.04l.1,.36,.36,.07s.04,.02,.05,.04c0,.02,0,.04,0,.06l-.18,.32,.2,.3s0,.01,.01,.02c.01,.03,0,.07-.02,.09,0,0,0,0,0,0h0s0,0,0,0l-.35,.1-.07,.36s-.01,.03-.03,.04Zm-.43-.32s0,0,0,0c.02,0,.04,0,.06,0l.27,.15,.06-.31s.01-.03,.03-.04c0,0,.01,0,.02,0l.3-.09-.18-.26s-.02-.05,0-.07l.15-.28-.31-.06s-.05-.02-.05-.05l-.09-.3-.26,.18s-.05,.02-.07,0l-.27-.16-.06,.31s-.01,.03-.03,.04c0,0-.01,0-.02,0l-.3,.09,.18,.26s.02,.05,0,.07l-.15,.27,.31,.06s.05,.02,.05,.05l.09,.3,.26-.18h0Z"/>
              <path class="cls-13" d="M5.86,19.14s0,0,0,0c-.01,0-.02,0-.04,0l-.5-.06-.28,.42s-.01,.01-.02,.02c-.01,0-.02,.01-.03,.01-.02,0-.04,0-.06-.03l-.31-.39-.49,.1s-.04,0-.06-.02c-.02-.02-.02-.04-.02-.06l.06-.5-.42-.28s-.03-.03-.03-.05c0-.02,0-.04,.03-.06l.39-.31-.1-.49s0-.04,.02-.06c0,0,0,0,.01-.01,.01,0,.03-.01,.05,0l.5,.06,.28-.42s.01-.01,.02-.02c.01,0,.02-.01,.03-.01,.02,0,.04,0,.06,.03l.31,.39,.49-.1s.04,0,.06,.02c.02,.01,.02,.04,.02,.06l-.06,.5,.42,.28s.03,.03,.03,.05c0,.02,0,.04-.03,.06l-.39,.31,.1,.49s0,.04-.02,.06c0,0,0,0-.01,.01Zm-.61-.18s.03-.01,.05-.01l.44,.05-.09-.44s0-.05,.02-.07l.35-.28-.37-.25s-.03-.04-.03-.07l.05-.44-.44,.09s-.05,0-.07-.02l-.28-.35-.25,.37s-.01,.01-.02,.02c-.01,0-.03,.01-.05,0l-.44-.05,.09,.44s0,.05-.02,.07l-.35,.28,.37,.25s.03,.04,.03,.07l-.05,.44,.44-.09s.05,0,.07,.02l.28,.35,.25-.37s.01-.01,.02-.02Z"/>
            </g>
            <g>
              <path class="cls-22" d="M6.5,17.64s0,0,0,0l-2.97,1.38s-.04,0-.06,0c-.02,0-.03-.02-.04-.04-.02-.03,0-.08,.03-.1,0,0,0,0,0,0l2.97-1.38s.08,0,.1,.04c.02,.03,0,.08-.03,.1Z"/>
              <path class="cls-22" d="M6.33,17.98s0,0,0,0c-.04,.02-.08,0-.1-.04l-.2-.44s0-.08,.03-.1c0,0,0,0,.01,0,.04-.02,.08,0,.1,.04l.2,.44s0,.08-.03,.1Z"/>
              <path class="cls-22" d="M3.9,19.11s0,0-.01,0c-.04,.02-.08,0-.1-.04l-.2-.44s0-.08,.03-.1c0,0,0,0,0,0,.04-.02,.08,0,.1,.04l.2,.44s0,.08-.03,.1Z"/>
              <path class="cls-22" d="M5.7,19.81s0,0-.01,0c-.02,0-.04,0-.06,0-.02,0-.03-.02-.04-.04l-1.38-2.97s0-.08,.03-.1c0,0,0,0,0,0,.02,0,.04,0,.06,0,.02,0,.03,.02,.04,.04l1.38,2.97s0,.08-.03,.1Z"/>
              <path class="cls-22" d="M5.79,19.44s0,0-.01,0l-.44,.2s-.04,0-.06,0c-.02,0-.03-.02-.04-.04-.02-.03,0-.08,.03-.1,0,0,0,0,0,0l.44-.2s.04,0,.06,0c.02,0,.03,.02,.04,.04,.02,.03,0,.08-.03,.1Z"/>
              <path class="cls-22" d="M4.67,17.01s0,0,0,0l-.44,.2s-.04,0-.06,0c-.02,0-.03-.02-.04-.04-.02-.03,0-.08,.03-.1,0,0,0,0,0,0l.44-.2s.04,0,.06,0c.02,0,.03,.02,.04,.04,.02,.03,0,.08-.03,.1Z"/>
              <path class="cls-22" d="M4.45,19.86s0,0,0,0c-.02,0-.04,0-.06,0-.02,0-.03-.02-.04-.04s0-.04,0-.06l1.13-3.08s.02-.03,.03-.04c.02-.01,.05-.02,.07,0,.02,0,.03,.02,.04,.04,0,.02,0,.04,0,.06l-1.13,3.08s-.02,.03-.03,.04Z"/>
              <path class="cls-22" d="M4.78,19.67s0,0,0,0c-.02,0-.04,0-.06,0l-.45-.17s-.03-.02-.04-.04c0-.02,0-.04,0-.06,0-.02,.02-.03,.03-.04,.02-.01,.05-.02,.07,0l.45,.17s.03,.02,.04,.04c0,.02,0,.04,0,.06,0,.01-.02,.03-.03,.04Z"/>
              <path class="cls-22" d="M5.7,17.15s0,0,0,0c-.02,0-.04,0-.06,0l-.45-.17s-.06-.06-.05-.1c0-.01,.02-.03,.03-.04,.02-.01,.05-.02,.07,0l.45,.17s.03,.02,.04,.04c0,.02,0,.04,0,.06,0,.02-.02,.03-.03,.04Z"/>
              <path class="cls-22" d="M6.55,18.89s0,0-.01,0c-.02,0-.04,0-.06,0l-3.08-1.13s-.03-.02-.04-.04c0-.02,0-.04,0-.06,0-.01,.02-.03,.03-.04,.02-.01,.05-.02,.07,0l3.08,1.13s.03,.02,.04,.04c0,.02,0,.04,0,.06,0,.02-.02,.03-.03,.04Z"/>
              <path class="cls-22" d="M3.67,18.09s0,0,0,0c-.02,0-.04,0-.06,0-.02,0-.03-.02-.04-.04,0-.02,0-.04,0-.06l.17-.45s.02-.03,.03-.04c.02-.01,.05-.02,.07,0,.02,0,.03,.02,.04,.04,0,.02,0,.04,0,.06l-.17,.45s-.02,.03-.03,.04Z"/>
              <path class="cls-22" d="M6.19,19.01s0,0,0,0c-.02,0-.04,0-.06,0-.02,0-.03-.02-.04-.04,0-.02,0-.04,0-.06l.17-.45s.02-.03,.03-.04c.02-.01,.04-.02,.07,0,.02,0,.03,.02,.04,.04,0,.02,0,.04,0,.06l-.16,.45s-.02,.03-.03,.04Z"/>
              <path class="cls-22" d="M5.39,19.15s0,0,0,0c-.02,0-.04,0-.06,0l-.32-.18-.31,.21s-.04,.02-.06,0-.04-.03-.04-.05l-.1-.35-.36-.07s-.04-.02-.05-.04c0-.02,0-.04,0-.06l.18-.32-.21-.3s-.02-.04,0-.06c0-.01,.01-.03,.03-.03,0,0,.01,0,.02,0l.35-.1,.07-.36s.01-.03,.03-.04c0,0,0,0,0,0,.02,0,.04,0,.06,0l.32,.18,.31-.21s.04-.01,.06,0c.02,0,.04,.02,.04,.04l.1,.36,.36,.07s.04,.02,.05,.04,0,.04,0,.06l-.18,.32,.2,.3s0,.01,.01,.02c.01,.03,0,.07-.02,.09,0,0,0,0,0,0h0s0,0,0,0l-.35,.1-.07,.36s-.01,.03-.03,.04Zm-.43-.32s0,0,0,0c.02,0,.04,0,.06,0l.27,.15,.06-.31s.01-.03,.03-.04c0,0,.01,0,.02,0l.3-.09-.18-.26s-.02-.05,0-.07l.15-.28-.31-.06s-.05-.02-.05-.05l-.09-.3-.26,.18s-.05,.02-.07,0l-.27-.16-.06,.31s-.01,.03-.03,.04c0,0-.01,0-.02,0l-.3,.09,.18,.26s.02,.05,0,.07l-.15,.27,.31,.06s.05,.02,.05,.05l.08,.3,.26-.18h0Z"/>
              <path class="cls-22" d="M5.9,19.14s0,0,0,0c-.01,0-.02,0-.04,0l-.5-.06-.28,.42s-.01,.01-.02,.02c-.01,0-.02,.01-.04,.01-.02,0-.04,0-.06-.03l-.31-.39-.49,.1s-.04,0-.06-.02c-.02-.02-.02-.04-.02-.06l.06-.5-.42-.28s-.03-.03-.03-.05c0-.02,0-.04,.03-.06l.39-.31-.1-.49s0-.04,.02-.06c0,0,0,0,.01-.01,.01,0,.03-.01,.05,0l.5,.06,.28-.42s.01-.01,.02-.02c.01,0,.02-.01,.04-.01,.02,0,.04,0,.06,.03l.31,.39,.49-.1s.04,0,.06,.02c.02,.01,.02,.04,.02,.06l-.06,.5,.42,.28s.03,.03,.03,.05c0,.02,0,.04-.03,.06l-.39,.31,.1,.49s0,.04-.02,.06c0,0,0,0-.01,.01Zm-.61-.18s.03-.01,.05-.01l.44,.05-.09-.44s0-.05,.02-.07l.35-.28-.37-.25s-.03-.04-.03-.07l.05-.44-.44,.09s-.05,0-.07-.02l-.28-.35-.25,.37s-.01,.01-.02,.02c-.01,0-.03,.01-.05,0l-.44-.05,.09,.44s0,.05-.03,.07l-.35,.28,.37,.25s.03,.04,.03,.07l-.05,.44,.44-.09s.05,0,.07,.02l.28,.35,.25-.37s.01-.01,.02-.02Z"/>
            </g>
          </g>
          <g>
            <g class="cls-11">
              <path class="cls-14" d="M18.79,11.72c.98-1.71-.02-4.04-.49-5.26-.35-.92-1.53-2.17-2.46-2.63-.92-.46-1.27-.95-2.53-1.08-1.64-.17-3.82,1.09-5.16,1.45-1.44,.39-3.91,1.57-5.25,3.04-1.57,1.72-1.61,3.09-1.18,4.09,.45,1.07,1.2,1.66,1.67,2.08,.46,.42,.98,.79,1.55,1.06,1.09,.52,2.04,.5,2.85,.55,.62,.04,2.21,.17,3.82-.16,1.14-.24,2.17-.41,2.76-.59,1.24-.39,3.61-1.12,4.43-2.55Z"/>
              <path class="cls-2" d="M18.61,11.65c.98-1.66,.03-3.91-.44-5.09-.36-.9-1.49-2.09-2.4-2.54-.9-.45-1.2-1.04-2.48-1.19-1.62-.2-3.81,1.12-5.13,1.47-1.43,.39-3.88,1.54-5.17,2.96-1.52,1.66-1.64,3.02-1.2,4.03s1.2,1.59,1.68,1.99,.99,.75,1.56,1.01c1.1,.5,2.02,.43,2.81,.49,.61,.05,2.17,.2,3.78-.13,1.15-.24,2.13-.42,2.7-.58,1.21-.35,3.48-1.04,4.29-2.42Z"/>
              <path class="cls-4" d="M18.43,11.57c.97-1.61,.08-3.78-.38-4.93-.36-.88-1.44-2.01-2.34-2.46-.88-.44-1.13-1.12-2.42-1.31-1.6-.24-3.8,1.14-5.11,1.5-1.42,.39-3.84,1.51-5.09,2.88-1.46,1.59-1.66,2.96-1.21,3.98s1.2,1.52,1.7,1.91,1,.72,1.57,.96c1.11,.48,2,.36,2.76,.43,.6,.05,2.12,.23,3.73-.1,1.16-.23,2.09-.43,2.64-.58,1.17-.32,3.35-.96,4.15-2.28Z"/>
              <path class="cls-26" d="M18.25,11.49c.97-1.55,.14-3.65-.33-4.76-.36-.86-1.39-1.93-2.29-2.37-.87-.43-1.07-1.21-2.36-1.43-1.58-.27-3.79,1.17-5.09,1.52-1.41,.39-3.81,1.48-5.01,2.8-1.41,1.53-1.69,2.89-1.22,3.92s1.2,1.44,1.72,1.83c.49,.36,1.02,.68,1.58,.91,1.11,.46,1.97,.3,2.72,.37,.59,.06,2.08,.26,3.69-.06,1.16-.23,2.05-.43,2.58-.57,1.13-.29,3.22-.88,4.02-2.15Z"/>
              <path class="cls-30" d="M18.08,11.42c.97-1.5,.19-3.52-.28-4.59-.37-.84-1.34-1.86-2.23-2.29-.85-.42-1-1.29-2.3-1.55-1.56-.31-3.78,1.2-5.07,1.55-1.4,.38-3.77,1.46-4.93,2.71-1.35,1.47-1.72,2.82-1.23,3.86,.45,.96,1.2,1.37,1.73,1.74,.49,.34,1.03,.64,1.59,.86,1.12,.44,1.95,.23,2.67,.31,.59,.06,2.03,.29,3.64-.03,1.17-.23,2-.44,2.52-.56,1.1-.26,3.1-.79,3.88-2.01Z"/>
              <path class="cls-60" d="M17.9,11.34c.97-1.45,.24-3.39-.23-4.42-.37-.82-1.3-1.78-2.17-2.2-.83-.4-.93-1.37-2.24-1.66-1.54-.34-3.77,1.22-5.04,1.57-1.39,.38-3.74,1.43-4.85,2.63-1.3,1.4-1.75,2.75-1.25,3.8,.45,.93,1.2,1.3,1.75,1.66,.5,.33,1.05,.61,1.6,.81,1.13,.42,1.93,.17,2.62,.25,.58,.07,1.99,.32,3.6,0,1.18-.23,1.96-.45,2.46-.56,1.06-.23,2.97-.71,3.75-1.88Z"/>
              <path class="cls-58" d="M17.72,11.26c.96-1.4,.29-3.26-.17-4.25-.37-.8-1.25-1.7-2.12-2.12-.81-.39-.86-1.46-2.18-1.78-1.52-.37-3.76,1.25-5.02,1.6-1.38,.38-3.71,1.4-4.77,2.55-1.24,1.34-1.78,2.69-1.26,3.74,.45,.91,1.2,1.23,1.76,1.58,.51,.31,1.06,.57,1.61,.76,1.14,.4,1.91,.1,2.58,.19,.57,.08,1.94,.35,3.55,.04,1.18-.23,1.92-.46,2.4-.55,1.02-.19,2.84-.63,3.61-1.75Z"/>
              <path class="cls-56" d="M17.55,11.18c.96-1.35,.34-3.13-.12-4.09-.38-.78-1.2-1.62-2.06-2.03-.79-.38-.79-1.54-2.12-1.9-1.5-.4-3.75,1.27-5,1.62-1.37,.38-3.67,1.38-4.69,2.47-1.19,1.28-1.81,2.62-1.27,3.68,.45,.88,1.2,1.16,1.78,1.5,.51,.29,1.07,.53,1.62,.71,1.14,.37,1.89,.03,2.53,.13,.56,.08,1.9,.37,3.51,.07,1.19-.22,1.88-.47,2.34-.54,.99-.16,2.71-.55,3.47-1.61Z"/>
              <path class="cls-65" d="M17.37,11.11c.96-1.29,.39-3-.07-3.92-.38-.76-1.15-1.54-2-1.95-.77-.37-.72-1.62-2.06-2.02-1.48-.43-3.74,1.3-4.97,1.65-1.36,.38-3.64,1.35-4.61,2.39-1.13,1.21-1.84,2.55-1.29,3.62,.45,.85,1.19,1.09,1.8,1.41,.52,.27,1.09,.49,1.63,.66,1.15,.35,1.87-.03,2.49,.07,.55,.09,1.85,.4,3.46,.1,1.2-.22,1.83-.48,2.28-.54,.95-.13,2.58-.46,3.34-1.48Z"/>
              <path class="cls-63" d="M17.19,11.03c.96-1.24,.44-2.87-.02-3.75-.38-.74-1.11-1.46-1.95-1.86-.75-.36-.65-1.7-2.01-2.13-1.46-.46-3.73,1.33-4.95,1.67-1.35,.38-3.6,1.32-4.52,2.31-1.08,1.15-1.87,2.49-1.3,3.56,.44,.82,1.19,1.02,1.81,1.33,.52,.26,1.1,.46,1.64,.61,1.16,.33,1.85-.1,2.44,0,.54,.09,1.81,.43,3.42,.14,1.21-.22,1.79-.48,2.22-.53,.91-.1,2.46-.38,3.2-1.34Z"/>
              <path class="cls-41" d="M17.02,10.95c.96-1.19,.49-2.74,.04-3.58-.39-.72-1.06-1.38-1.89-1.78-.73-.34-.58-1.78-1.95-2.25-1.44-.49-3.72,1.35-4.93,1.7-1.34,.38-3.57,1.3-4.44,2.23-1.02,1.09-1.9,2.42-1.31,3.5,.44,.8,1.19,.96,1.83,1.25,.53,.24,1.12,.42,1.66,.56,1.17,.31,1.83-.16,2.39-.05,.54,.1,1.76,.46,3.37,.17,1.21-.22,1.75-.49,2.16-.52,.87-.07,2.33-.3,3.07-1.21Z"/>
              <path class="cls-38" d="M16.84,10.87c.96-1.14,.54-2.61,.09-3.41-.39-.7-1.01-1.31-1.83-1.69-.71-.33-.51-1.86-1.89-2.37s-3.71,1.38-4.91,1.72c-1.33,.38-3.54,1.27-4.36,2.14-.97,1.02-1.94,2.35-1.32,3.44,.44,.77,1.19,.89,1.85,1.16,.53,.22,1.13,.38,1.67,.51,1.18,.28,1.8-.23,2.35-.12s1.72,.49,3.33,.2c1.22-.22,1.71-.5,2.1-.51,.84-.03,2.2-.21,2.93-1.08Z"/>
              <path class="cls-34" d="M16.66,10.8c.96-1.08,.59-2.47,.14-3.25-.39-.68-.96-1.23-1.78-1.61-.69-.32-.44-1.94-1.83-2.49s-3.7,1.41-4.88,1.75c-1.32,.38-3.5,1.24-4.28,2.06-.91,.96-1.97,2.29-1.34,3.38,.43,.75,1.18,.82,1.86,1.08,.54,.21,1.15,.34,1.68,.46,1.19,.26,1.78-.29,2.3-.18s1.67,.52,3.28,.23c1.23-.21,1.66-.5,2.05-.51,.8,0,2.07-.13,2.79-.94Z"/>
              <path class="cls-36" d="M16.49,10.72c.96-1.03,.64-2.34,.2-3.08-.4-.66-.92-1.15-1.72-1.52-.67-.31-.37-2.02-1.77-2.6s-3.69,1.43-4.86,1.77c-1.31,.38-3.47,1.22-4.2,1.98-.86,.9-2,2.22-1.35,3.32,.43,.72,1.18,.75,1.88,1,.54,.19,1.16,.31,1.69,.41,1.2,.23,1.76-.35,2.26-.24s1.63,.55,3.24,.27c1.24-.21,1.62-.52,1.99-.5,.76,.03,1.95-.05,2.66-.81Z"/>
              <path class="cls-69" d="M16.31,10.64c.96-.98,.69-2.21,.25-2.91-.4-.64-.87-1.07-1.66-1.44-.65-.3-.3-2.09-1.71-2.72s-3.68,1.46-4.84,1.8c-1.3,.38-3.43,1.19-4.12,1.9-.8,.83-2.04,2.16-1.36,3.26,.43,.69,1.18,.68,1.9,.91,.55,.18,1.18,.27,1.7,.36,1.2,.21,1.74-.42,2.21-.3,.5,.13,1.58,.58,3.19,.3,1.24-.21,1.58-.52,1.93-.49,.73,.06,1.82,.04,2.52-.67Z"/>
              <path class="cls-53" d="M16.13,10.57c.96-.92,.74-2.08,.3-2.74-.41-.61-.82-.99-1.61-1.35-.63-.29-.24-2.17-1.65-2.84-1.35-.63-3.67,1.48-4.81,1.82-1.29,.38-3.4,1.16-4.04,1.82-.75,.77-2.07,2.09-1.37,3.2,.42,.67,1.18,.62,1.91,.83,.55,.16,1.19,.23,1.71,.31,1.21,.19,1.72-.48,2.16-.36,.49,.14,1.54,.6,3.15,.33,1.25-.21,1.54-.53,1.87-.49,.69,.09,1.7,.12,2.39-.54Z"/>
              <path class="cls-48" d="M15.95,10.49c.96-.87,.79-1.95,.35-2.57-.41-.59-.77-.91-1.55-1.27-.61-.28-.17-2.25-1.6-2.95-1.33-.66-3.66,1.51-4.79,1.85-1.28,.38-3.36,1.13-3.96,1.74-.69,.71-2.1,2.03-1.39,3.14,.42,.64,1.17,.55,1.93,.75,.56,.15,1.21,.19,1.72,.26,1.22,.16,1.7-.54,2.12-.42,.48,.14,1.49,.63,3.1,.37,1.26-.21,1.49-.54,1.81-.48,.65,.13,1.57,.21,2.25-.4Z"/>
              <path class="cls-50" d="M15.78,10.41c.97-.81,.84-1.81,.41-2.41s-.73-.84-1.5-1.18c-.59-.26-.1-2.32-1.54-3.07-1.31-.68-3.65,1.54-4.77,1.87-1.27,.38-3.33,1.11-3.88,1.66-.64,.64-2.14,1.96-1.4,3.08,.41,.62,1.17,.49,1.95,.67,.56,.13,1.22,.15,1.73,.21,1.23,.13,1.67-.61,2.07-.48,.48,.15,1.45,.66,3.06,.4,1.26-.2,1.45-.55,1.75-.47,.62,.16,1.45,.29,2.11-.27Z"/>
              <path class="cls-46" d="M15.6,10.33c.97-.76,.89-1.68,.46-2.24s-.68-.76-1.44-1.1c-.57-.25-.03-2.4-1.48-3.19-1.29-.71-3.64,1.56-4.74,1.9-1.26,.38-3.3,1.08-3.8,1.58-.58,.58-2.17,1.9-1.41,3.02,.41,.59,1.17,.42,1.96,.58,.57,.12,1.23,.11,1.74,.16,1.24,.11,1.65-.67,2.02-.54,.47,.16,1.4,.69,3.01,.43,1.27-.2,1.41-.56,1.69-.47,.58,.19,1.32,.38,1.98-.14Z"/>
              <path class="cls-42" d="M15.42,10.26c.97-.7,.93-1.55,.51-2.07s-.63-.68-1.38-1.01c-.55-.24,.03-2.47-1.42-3.31-1.28-.73-3.63,1.59-4.72,1.92-1.25,.38-3.26,1.05-3.71,1.49-.53,.52-2.21,1.84-1.42,2.96,.4,.57,1.16,.35,1.98,.5,.57,.1,1.25,.07,1.75,.11,1.25,.08,1.63-.73,1.98-.6,.46,.17,1.36,.72,2.97,.47,1.28-.2,1.37-.57,1.63-.46,.54,.22,1.2,.46,1.84,0Z"/>
              <path class="cls-70" d="M15.25,10.18c.97-.64,.98-1.42,.56-1.9s-.58-.6-1.33-.93c-.53-.23,.1-2.55-1.36-3.42-1.26-.76-3.62,1.62-4.7,1.95-1.24,.38-3.23,1.03-3.63,1.41-.47,.45-2.25,1.78-1.44,2.9,.39,.55,1.16,.29,2,.42,.58,.09,1.26,.03,1.76,.06,1.26,.05,1.61-.79,1.93-.66,.45,.18,1.31,.75,2.92,.5,1.29-.2,1.32-.57,1.57-.45,.51,.25,1.07,.55,1.7,.13Z"/>
              <path class="cls-18" d="M15.07,10.1c.98-.58,1.03-1.28,.62-1.74-.44-.48-.54-.53-1.27-.84-.51-.22,.16-2.62-1.3-3.54-1.24-.78-3.61,1.64-4.68,1.97-1.23,.38-3.19,1-3.55,1.33-.42,.39-2.29,1.71-1.45,2.84,.39,.52,1.16,.23,2.01,.33,.58,.07,1.28,0,1.78,0,1.27,.03,1.58-.86,1.89-.72,.44,.19,1.27,.78,2.88,.53,1.29-.2,1.28-.58,1.51-.44,.47,.28,.95,.64,1.57,.27Z"/>
            </g>
            <path class="cls-13" d="M15.12,7.51c.1-.35,.15-.72,.15-1.1,0-2.27-1.84-4.11-4.11-4.11-1.92,0-3.54,1.32-3.99,3.1-.04,0-.08,0-.12,0-.9,0-1.69,.46-2.15,1.16-.23-.1-.49-.15-.76-.15-1.1,0-1.99,.89-1.99,1.99s.89,1.99,1.99,1.99c.48,0,.93-.17,1.27-.46,.44,.37,1.01,.59,1.63,.59,.69,0,1.32-.28,1.78-.72,.66,.46,1.46,.72,2.33,.72,.79,0,1.53-.22,2.15-.61,.28,.36,.72,.58,1.21,.58,.86,0,1.55-.69,1.55-1.55,0-.65-.4-1.2-.96-1.43Z"/>
            <path class="cls-19" d="M15.18,7.56c.1-.35,.15-.72,.15-1.1,0-2.27-1.84-4.11-4.11-4.11-1.92,0-3.54,1.32-3.99,3.1-.04,0-.08,0-.12,0-.9,0-1.69,.46-2.15,1.16-.23-.1-.49-.15-.76-.15-1.1,0-1.99,.89-1.99,1.99s.89,1.99,1.99,1.99c.48,0,.93-.17,1.27-.46,.44,.37,1.01,.59,1.63,.59,.69,0,1.32-.28,1.78-.72,.66,.46,1.46,.72,2.33,.72,.79,0,1.53-.22,2.15-.61,.28,.36,.72,.58,1.21,.58,.86,0,1.55-.69,1.55-1.55,0-.65-.4-1.2-.96-1.43Z"/>
          </g>
          <g>
            <g class="cls-11">
              <path class="cls-14" d="M26.39,12.95c1.21-1.02,.99-4.19,.37-5.04-.81-1.11-1.67-1.79-2.41-2.16s-2.83-.69-3.78-.69c-1.33,0-2.63,.32-3.7,.61-1.16,.31-3.43,1.14-4.51,2.33-1.26,1.38-.15,4.13,.17,4.54,.6,.75,1.33,1.5,2.25,1.94,.88,.42,1.64,.4,2.29,.45,.5,.03,2.7,.28,4,0,.92-.19,2.47-.47,2.91-.69,.41-.2,1.43-.47,2.4-1.29Z"/>
              <path class="cls-2" d="M26.19,12.84c1.19-.99,.99-4.05,.38-4.91-.8-1.12-1.65-1.76-2.38-2.12-.73-.36-2.72-.68-3.66-.69-1.29,0-2.59,.3-3.65,.58-1.15,.31-3.4,1.14-4.44,2.28-1.22,1.33-.18,4.01,.16,4.43,.58,.73,1.27,1.47,2.19,1.9,.87,.41,1.62,.37,2.25,.42,.49,.04,2.62,.31,3.91,.05,.92-.19,2.42-.5,2.85-.71,.41-.2,1.42-.44,2.38-1.24Z"/>
              <path class="cls-4" d="M26,12.74c1.17-.96,.99-3.91,.39-4.78-.78-1.12-1.63-1.72-2.36-2.08-.71-.35-2.61-.68-3.54-.69-1.26-.02-2.55,.28-3.6,.56-1.14,.31-3.36,1.14-4.37,2.24-1.17,1.28-.2,3.88,.16,4.33,.57,.71,1.22,1.44,2.13,1.86,.86,.39,1.6,.34,2.21,.4,.48,.04,2.54,.35,3.83,.08,.93-.19,2.37-.52,2.78-.73,.41-.2,1.4-.42,2.36-1.19Z"/>
              <path class="cls-26" d="M25.8,12.63c1.16-.93,.99-3.78,.4-4.65-.77-1.12-1.61-1.69-2.33-2.04-.69-.34-2.5-.67-3.42-.69-1.23-.03-2.51,.26-3.55,.54-1.13,.31-3.33,1.14-4.29,2.2-1.13,1.23-.23,3.76,.15,4.23,.55,.68,1.16,1.41,2.08,1.82,.85,.38,1.57,.31,2.17,.37,.48,.05,2.45,.38,3.75,.12,.93-.19,2.31-.54,2.72-.75,.4-.2,1.39-.39,2.34-1.14Z"/>
              <path class="cls-30" d="M25.61,12.53c1.14-.89,.99-3.64,.4-4.53-.75-1.13-1.59-1.65-2.3-2-.68-.33-2.4-.66-3.3-.69-1.19-.04-2.47,.23-3.51,.52-1.13,.31-3.3,1.15-4.22,2.15-1.09,1.18-.26,3.63,.14,4.12,.53,.66,1.1,1.38,2.02,1.78,.84,.36,1.55,.29,2.13,.35,.47,.05,2.37,.41,3.66,.16,.94-.18,2.26-.57,2.66-.76s1.38-.36,2.31-1.1Z"/>
              <path class="cls-60" d="M25.41,12.43c1.12-.86,.99-3.51,.41-4.4-.74-1.13-1.57-1.62-2.27-1.96-.66-.32-2.29-.65-3.18-.69-1.16-.05-2.44,.21-3.46,.49-1.12,.31-3.26,1.15-4.15,2.11-1.04,1.13-.28,3.51,.13,4.02,.51,.63,1.04,1.34,1.97,1.73,.83,.35,1.53,.26,2.09,.32,.46,.06,2.29,.45,3.58,.19,.95-.18,2.21-.59,2.59-.78,.4-.2,1.36-.33,2.29-1.05Z"/>
              <path class="cls-58" d="M25.22,12.32c1.11-.83,.99-3.37,.42-4.27-.72-1.13-1.54-1.58-2.24-1.92-.65-.32-2.18-.64-3.06-.69-1.13-.06-2.4,.19-3.41,.47-1.11,.31-3.23,1.15-4.08,2.07-1,1.08-.31,3.38,.12,3.92,.5,.61,.98,1.31,1.91,1.69,.82,.34,1.51,.23,2.05,.3,.46,.06,2.2,.48,3.5,.23,.95-.18,2.16-.61,2.53-.8,.4-.2,1.35-.31,2.27-1Z"/>
              <path class="cls-56" d="M25.02,12.22c1.09-.8,.99-3.23,.43-4.14-.71-1.13-1.52-1.54-2.21-1.88-.63-.3-2.07-.63-2.94-.69-1.09-.07-2.36,.17-3.36,.45-1.1,.31-3.19,1.15-4.01,2.02-.95,1.03-.34,3.26,.12,3.81,.48,.58,.93,1.28,1.85,1.65,.81,.32,1.49,.2,2.01,.28,.45,.07,2.12,.51,3.41,.27,.96-.18,2.11-.63,2.46-.82,.4-.2,1.33-.28,2.25-.95Z"/>
              <path class="cls-65" d="M24.83,12.11c1.07-.77,.99-3.1,.43-4.02-.69-1.14-1.5-1.51-2.19-1.84-.62-.3-1.96-.62-2.83-.69-1.06-.08-2.32,.15-3.31,.43-1.09,.31-3.16,1.15-3.94,1.98-.91,.98-.37,3.13,.11,3.71s.87,1.25,1.8,1.61c.8,.31,1.47,.17,1.97,.25,.44,.07,2.04,.54,3.33,.3,.96-.18,2.06-.66,2.4-.83,.39-.2,1.32-.25,2.23-.91Z"/>
              <path class="cls-63" d="M24.63,12.01c1.05-.73,.99-2.96,.44-3.89-.68-1.14-1.48-1.47-2.16-1.8-.6-.29-1.86-.61-2.71-.69-1.02-.09-2.28,.13-3.26,.4-1.09,.31-3.13,1.15-3.87,1.94-.87,.92-.39,3.01,.1,3.61,.44,.54,.81,1.22,1.74,1.57,.79,.3,1.45,.15,1.92,.23,.44,.08,1.95,.58,3.25,.34,.97-.18,2-.68,2.34-.85,.39-.2,1.3-.23,2.21-.86Z"/>
              <path class="cls-41" d="M24.44,11.91c1.04-.7,.99-2.82,.45-3.76-.66-1.14-1.46-1.44-2.13-1.76-.58-.28-1.75-.6-2.59-.69-.99-.1-2.25,.1-3.22,.38-1.08,.31-3.09,1.15-3.8,1.9-.82,.87-.42,2.88,.09,3.5,.42,.51,.75,1.19,1.68,1.53,.78,.28,1.43,.12,1.88,.2,.43,.08,1.87,.61,3.16,.38,.97-.17,1.95-.7,2.27-.87,.39-.2,1.29-.2,2.19-.81Z"/>
              <path class="cls-38" d="M24.24,11.8c1.02-.67,.99-2.68,.45-3.63-.65-1.15-1.44-1.4-2.1-1.71-.57-.27-1.64-.59-2.47-.69-.96-.11-2.21,.08-3.17,.36-1.07,.31-3.06,1.15-3.72,1.85-.78,.82-.45,2.75,.08,3.4,.4,.49,.69,1.16,1.63,1.48,.77,.27,1.41,.09,1.84,.18s1.79,.64,3.08,.41c.98-.17,1.9-.73,2.21-.89,.38-.2,1.27-.17,2.17-.76Z"/>
              <path class="cls-34" d="M24.05,11.7c1-.64,.99-2.55,.46-3.51-.63-1.15-1.42-1.37-2.07-1.67-.55-.26-1.53-.58-2.35-.69-.92-.12-2.17,.06-3.12,.34-1.06,.31-3.03,1.15-3.65,1.81-.73,.77-.48,2.63,.07,3.3,.38,.47,.63,1.13,1.57,1.44,.76,.26,1.38,.06,1.8,.16s1.7,.68,3,.45c.99-.17,1.85-.75,2.14-.91,.38-.2,1.26-.15,2.14-.71Z"/>
              <path class="cls-36" d="M23.85,11.6c.98-.61,.99-2.41,.47-3.38-.62-1.15-1.4-1.33-2.04-1.63-.54-.25-1.42-.57-2.23-.69-.89-.12-2.13,.04-3.07,.31-1.05,.31-2.99,1.15-3.58,1.77-.69,.72-.5,2.5,.07,3.19,.37,.44,.57,1.1,1.52,1.4,.75,.24,1.36,.04,1.76,.13s1.62,.71,2.91,.49c.99-.17,1.8-.77,2.08-.92,.38-.2,1.24-.12,2.12-.67Z"/>
              <path class="cls-69" d="M23.66,11.49c.96-.58,.99-2.27,.48-3.25-.61-1.15-1.38-1.3-2.02-1.59-.52-.24-1.31-.56-2.11-.69-.86-.13-2.09,.02-3.02,.29-1.05,.31-2.96,1.15-3.51,1.72-.65,.67-.53,2.38,.06,3.09,.35,.42,.52,1.07,1.46,1.36,.74,.23,1.34,.01,1.72,.11,.4,.1,1.54,.74,2.83,.52,1-.17,1.75-.8,2.02-.94,.38-.2,1.23-.1,2.1-.62Z"/>
              <path class="cls-53" d="M23.46,11.39c.95-.55,.99-2.14,.48-3.12-.59-1.16-1.36-1.26-1.99-1.55-.51-.23-1.21-.55-2-.68s-2.05,0-2.97,.27c-1.04,.31-2.92,1.15-3.44,1.68-.6,.62-.56,2.25,.05,2.99,.33,.39,.46,1.04,1.4,1.32,.73,.22,1.32-.02,1.68,.08,.4,.11,1.46,.78,2.75,.56,1-.17,1.69-.82,1.95-.96,.37-.2,1.21-.07,2.08-.57Z"/>
              <path class="cls-48" d="M23.27,11.28c.93-.52,.99-2,.49-3-.58-1.16-1.34-1.23-1.96-1.51-.49-.22-1.1-.54-1.88-.68s-2.02-.03-2.93,.24c-1.03,.31-2.89,1.15-3.37,1.64-.56,.57-.59,2.13,.04,2.88,.31,.37,.4,1.01,1.35,1.28,.72,.2,1.3-.04,1.64,.06,.39,.12,1.37,.81,2.66,.6,1.01-.17,1.64-.84,1.89-.98,.37-.2,1.2-.04,2.06-.52Z"/>
              <path class="cls-50" d="M23.07,11.18c.91-.49,.99-1.86,.5-2.87-.56-1.16-1.31-1.19-1.93-1.47-.47-.21-.99-.53-1.76-.68s-1.98-.05-2.88,.22c-1.02,.31-2.86,1.15-3.3,1.59-.51,.52-.62,2.01,.03,2.78,.29,.35,.34,.98,1.29,1.23,.71,.19,1.28-.07,1.6,.03,.38,.12,1.29,.84,2.58,.63,1.02-.16,1.59-.87,1.82-.99,.37-.2,1.18-.02,2.04-.48Z"/>
              <path class="cls-46" d="M22.88,11.08c.89-.46,.99-1.72,.51-2.74-.55-1.16-1.29-1.16-1.9-1.43-.46-.2-.88-.52-1.64-.68s-1.94-.07-2.83,.2c-1.01,.31-2.82,1.15-3.23,1.55-.47,.47-.64,1.88,.02,2.68,.27,.32,.28,.95,1.23,1.19,.7,.18,1.26-.09,1.56,.01,.37,.13,1.21,.88,2.5,.67,1.02-.16,1.54-.89,1.76-1.01,.37-.2,1.17,0,2.02-.43Z"/>
              <path class="cls-42" d="M22.68,10.97c.87-.43,.99-1.59,.51-2.62-.54-1.16-1.27-1.13-1.87-1.39-.44-.19-.78-.5-1.52-.68-.69-.17-1.9-.09-2.78,.18-1.01,.31-2.79,1.15-3.15,1.51-.43,.41-.67,1.76,.02,2.57,.25,.3,.22,.92,1.18,1.15,.69,.17,1.24-.12,1.52-.01,.37,.14,1.12,.91,2.42,.71,1.03-.16,1.49-.91,1.7-1.03,.36-.2,1.15,.03,2-.38Z"/>
              <path class="cls-70" d="M22.49,10.87c.85-.4,.98-1.45,.52-2.49-.52-1.17-1.25-1.09-1.85-1.35-.43-.19-.67-.49-1.4-.68-.66-.17-1.86-.11-2.73,.15-1,.31-2.76,1.15-3.08,1.46-.38,.36-.7,1.63,0,2.47,.23,.28,.16,.89,1.12,1.11,.68,.16,1.21-.14,1.47-.04,.36,.15,1.04,.94,2.33,.74,1.03-.16,1.43-.94,1.63-1.05,.36-.2,1.14,.06,1.97-.33Z"/>
              <path class="cls-18" d="M22.29,10.76c.84-.37,.98-1.31,.53-2.36-.51-1.17-1.23-1.06-1.82-1.31-.41-.18-.56-.48-1.28-.68-.63-.18-1.83-.13-2.69,.13-.99,.31-2.72,1.16-3.01,1.42-.34,.31-.73,1.51,0,2.37,.22,.25,.1,.86,1.07,1.07,.67,.14,1.19-.17,1.43-.06,.35,.15,.96,.97,2.25,.78,1.04-.16,1.38-.96,1.57-1.07,.36-.2,1.12,.08,1.95-.29Z"/>
            </g>
            <path class="cls-13" d="M21.17,6.83s-.09,0-.13,0c-.24-.68-.89-1.17-1.66-1.17-.23,0-.45,.04-.65,.12-.24-.66-.87-1.13-1.6-1.13s-1.33,.45-1.58,1.07c-.08-.01-.17-.02-.26-.02-.78,0-1.41,.59-1.49,1.34-.11-.02-.22-.03-.34-.03-.93,0-1.69,.76-1.69,1.69s.76,1.69,1.69,1.69c.01,0,.03,0,.04,0,.17,.68,.78,1.19,1.52,1.19,.57,0,1.07-.3,1.34-.76,.37,.63,1.06,1.06,1.85,1.06,.87,0,1.62-.52,1.96-1.27,.3,.17,.64,.27,1.01,.27,1.12,0,2.03-.91,2.03-2.03s-.91-2.03-2.03-2.03Z"/>
            <path class="cls-23" d="M21.24,6.9s-.09,0-.13,0c-.24-.68-.89-1.17-1.66-1.17-.23,0-.45,.04-.65,.12-.24-.66-.87-1.13-1.6-1.13s-1.33,.44-1.58,1.07c-.08-.01-.17-.02-.26-.02-.78,0-1.41,.59-1.49,1.34-.11-.02-.22-.03-.33-.03-.93,0-1.69,.76-1.69,1.69s.76,1.69,1.69,1.69c.01,0,.03,0,.04,0,.17,.68,.78,1.19,1.52,1.19,.57,0,1.07-.3,1.34-.76,.37,.64,1.06,1.06,1.85,1.06,.87,0,1.62-.52,1.96-1.27,.3,.17,.64,.27,1.01,.27,1.12,0,2.03-.91,2.03-2.03s-.91-2.03-2.03-2.03Z"/>
          </g>
          <g>
            <g class="cls-11">
              <path class="cls-14" d="M24.92,9.23c1.44-1.49,1.34-4.55,.55-5.64-1.04-1.43-2.31-1.96-3.26-2.44-.96-.48-2.34-.92-3.55-1.1-1.49-.22-3.14,.42-4.52,.79-1.49,.4-6.09,1.95-7.48,3.47-.77,.84-.96,1.93-.85,2.94,.13,1.12,.63,2.14,.85,2.41,.78,.97,3.61,1.94,4.79,2.51,1.13,.54,2.11,.52,2.95,.57,.64,.04,2.43,0,4.09-.35,1.18-.25,2.35-1.16,2.92-1.44,.53-.26,2.42-.6,3.51-1.73Z"/>
              <path class="cls-2" d="M24.7,9.12c1.42-1.44,1.35-4.41,.56-5.5-1.02-1.41-2.26-1.92-3.2-2.38-.93-.47-2.26-.9-3.46-1.09-1.46-.23-3.06,.39-4.43,.76-1.48,.4-6.1,1.95-7.46,3.4-.77,.82-.96,1.91-.83,2.9,.15,1.1,.68,2.07,.92,2.34,.79,.9,3.48,1.9,4.67,2.45,1.12,.53,2.08,.43,2.89,.5,.63,.05,2.35,.08,4.05-.28,1.19-.25,2.31-1.18,2.86-1.46,.53-.26,2.35-.55,3.43-1.65Z"/>
              <path class="cls-4" d="M24.49,9.01c1.41-1.39,1.35-4.27,.58-5.35-1-1.39-2.21-1.87-3.15-2.33-.91-.45-2.17-.88-3.37-1.08-1.42-.23-2.99,.35-4.35,.73-1.47,.4-6.12,1.94-7.43,3.33-.77,.81-.96,1.89-.81,2.86,.16,1.08,.73,2,.99,2.27,.79,.84,3.36,1.85,4.54,2.39,1.1,.51,2.04,.35,2.83,.42,.62,.05,2.28,.16,4-.21,1.19-.25,2.26-1.2,2.8-1.47,.52-.26,2.28-.49,3.36-1.57Z"/>
              <path class="cls-26" d="M24.27,8.9c1.39-1.34,1.35-4.13,.6-5.21-.97-1.37-2.16-1.82-3.09-2.28-.89-.44-2.08-.87-3.28-1.07-1.39-.24-2.91,.32-4.26,.7-1.45,.41-6.13,1.94-7.41,3.26-.76,.79-.95,1.86-.79,2.82,.18,1.06,.78,1.93,1.06,2.2,.8,.77,3.23,1.81,4.41,2.34,1.09,.49,2.01,.27,2.77,.35,.61,.06,2.2,.25,3.96-.14,1.19-.26,2.21-1.23,2.73-1.49,.52-.26,2.21-.44,3.29-1.48Z"/>
              <path class="cls-30" d="M24.06,8.79c1.37-1.29,1.36-3.99,.62-5.06-.95-1.36-2.11-1.77-3.03-2.22-.87-.43-1.99-.85-3.19-1.06-1.35-.24-2.83,.29-4.18,.67-1.44,.41-6.15,1.94-7.38,3.18-.76,.77-.95,1.84-.77,2.78,.2,1.04,.83,1.86,1.14,2.13,.79,.71,3.1,1.76,4.29,2.28,1.08,.47,1.98,.2,2.72,.28,.6,.07,2.13,.33,3.91-.07,1.2-.26,2.17-1.25,2.67-1.5,.52-.26,2.14-.39,3.21-1.4Z"/>
              <path class="cls-60" d="M23.84,8.68c1.36-1.24,1.36-3.86,.63-4.91-.92-1.34-2.07-1.73-2.97-2.17-.85-.42-1.9-.83-3.1-1.05-1.32-.25-2.76,.25-4.09,.64-1.43,.41-6.16,1.93-7.36,3.11-.76,.75-.95,1.81-.75,2.74,.22,1.02,.88,1.79,1.21,2.06,.78,.66,2.98,1.72,4.16,2.22,1.06,.45,1.94,.12,2.66,.2,.59,.07,2.05,.41,3.87,0,1.2-.27,2.12-1.27,2.61-1.52s2.07-.34,3.14-1.32Z"/>
              <path class="cls-58" d="M23.63,8.57c1.34-1.19,1.37-3.72,.65-4.77-.9-1.32-2.02-1.68-2.91-2.11-.83-.4-1.82-.81-3.01-1.04-1.28-.25-2.68,.22-4.01,.61-1.42,.41-6.18,1.93-7.34,3.04-.76,.73-.95,1.79-.73,2.69,.24,1,.93,1.72,1.28,1.99,.77,.6,2.85,1.67,4.04,2.16,1.05,.43,1.91,.04,2.6,.13,.58,.08,1.98,.49,3.82,.07,1.21-.27,2.07-1.29,2.55-1.53,.51-.26,2-.29,3.07-1.24Z"/>
              <path class="cls-56" d="M23.41,8.46c1.32-1.14,1.37-3.58,.67-4.62-.88-1.3-1.97-1.63-2.85-2.06-.81-.39-1.73-.79-2.92-1.04s-2.6,.19-3.92,.58c-1.4,.41-6.2,1.92-7.31,2.97-.76,.71-.95,1.77-.71,2.65,.25,.98,.98,1.65,1.36,1.92,.75,.55,2.72,1.63,3.91,2.1,1.04,.41,1.87-.04,2.54,.05,.58,.08,1.9,.58,3.77,.15,1.21-.28,2.03-1.31,2.48-1.55,.51-.26,1.93-.24,2.99-1.16Z"/>
              <path class="cls-65" d="M23.2,8.35c1.3-1.09,1.38-3.44,.68-4.48-.85-1.28-1.92-1.59-2.79-2-.79-.38-1.64-.77-2.83-1.03s-2.53,.15-3.84,.55c-1.39,.42-6.21,1.92-7.29,2.9-.76,.7-.94,1.74-.7,2.61,.27,.96,1.03,1.58,1.43,1.85,.73,.5,2.6,1.58,3.78,2.05,1.02,.4,1.84-.12,2.48-.02,.57,.09,1.83,.66,3.73,.22,1.22-.28,1.98-1.33,2.42-1.56,.5-.26,1.85-.19,2.92-1.08Z"/>
              <path class="cls-63" d="M22.98,8.24c1.29-1.04,1.38-3.3,.7-4.33-.83-1.26-1.87-1.54-2.73-1.95-.77-.37-1.55-.75-2.74-1.02s-2.45,.12-3.75,.52c-1.38,.42-6.23,1.91-7.26,2.82-.76,.68-.94,1.72-.68,2.57,.29,.94,1.03,1.59,1.5,1.78,.62,.58,2.47,1.54,3.66,1.99,1.01,.38,1.81-.2,2.42-.09,.56,.1,1.75,.74,3.68,.29,1.22-.28,1.93-1.36,2.36-1.58,.5-.26,1.78-.14,2.85-1Z"/>
              <path class="cls-41" d="M22.77,8.14c1.27-.99,1.38-3.16,.72-4.19-.81-1.24-1.82-1.49-2.67-1.89-.75-.35-1.46-.73-2.65-1.01s-2.37,.08-3.67,.49c-1.37,.42-6.25,1.9-7.24,2.75-.77,.66-.94,1.69-.66,2.53,.31,.92,1.08,1.53,1.58,1.71,.6,.53,2.34,1.5,3.53,1.93,1,.36,1.77-.28,2.36-.17,.55,.1,1.68,.82,3.64,.36,1.23-.29,1.89-1.38,2.3-1.59,.49-.26,1.71-.09,2.77-.92Z"/>
              <path class="cls-38" d="M22.55,8.03c1.25-.94,1.39-3.03,.74-4.04-.78-1.22-1.77-1.44-2.62-1.84-.73-.34-1.37-.71-2.56-1-1.11-.27-2.29,.05-3.58,.45-1.35,.42-6.27,1.9-7.22,2.68-.77,.64-.94,1.67-.64,2.49,.32,.9,1.12,1.47,1.65,1.64,.59,.49,2.21,1.45,3.41,1.87,.98,.34,1.74-.36,2.3-.24s1.6,.91,3.59,.43c1.23-.29,1.84-1.4,2.23-1.61,.49-.26,1.64-.04,2.7-.83Z"/>
              <path class="cls-34" d="M22.34,7.92c1.23-.89,1.39-2.89,.75-3.9-.76-1.2-1.72-1.4-2.56-1.79-.71-.33-1.29-.69-2.48-.99-1.07-.27-2.22,.02-3.5,.42-1.34,.43-6.3,1.89-7.19,2.61-.77,.62-.93,1.65-.62,2.45,.34,.88,1.17,1.41,1.72,1.57,.57,.44,2.09,1.41,3.28,1.81,.97,.33,1.71-.43,2.24-.32s1.53,.99,3.55,.5c1.24-.3,1.79-1.42,2.17-1.62,.49-.26,1.57,.01,2.63-.75Z"/>
              <path class="cls-36" d="M22.12,7.81c1.21-.84,1.4-2.75,.77-3.75-.74-1.18-1.67-1.35-2.5-1.73-.68-.32-1.2-.67-2.39-.98-1.04-.27-2.14-.02-3.41,.39-1.33,.43-6.32,1.88-7.17,2.53-.77,.6-.93,1.62-.6,2.4,.36,.86,1.21,1.35,1.79,1.51,.55,.4,1.96,1.37,3.16,1.76,.95,.31,1.67-.51,2.18-.39s1.45,1.07,3.5,.57c1.24-.3,1.75-1.44,2.11-1.64,.48-.26,1.5,.06,2.55-.67Z"/>
              <path class="cls-69" d="M21.91,7.7c1.19-.79,1.4-2.61,.79-3.61-.71-1.16-1.63-1.3-2.44-1.68-.66-.31-1.11-.65-2.3-.97-1-.27-2.06-.05-3.33,.36-1.32,.43-6.34,1.87-7.14,2.46s-.93,1.6-.58,2.36c.38,.84,1.29,1.18,1.87,1.44s1.83,1.32,3.03,1.7c.94,.29,1.64-.59,2.12-.47,.51,.13,1.38,1.15,3.46,.64,1.25-.3,1.7-1.47,2.05-1.65,.48-.26,1.42,.11,2.48-.59Z"/>
              <path class="cls-53" d="M21.69,7.59c1.17-.74,1.4-2.47,.8-3.46-.69-1.14-1.58-1.26-2.38-1.62-.64-.29-1.02-.63-2.21-.96-.97-.27-1.99-.08-3.24,.33-1.31,.43-6.37,1.85-7.12,2.39s-.93,1.57-.57,2.32c.4,.82,1.33,1.12,1.94,1.37,.56,.22,1.7,1.28,2.9,1.64,.93,.28,1.61-.66,2.06-.54,.5,.14,1.3,1.24,3.41,.71,1.25-.31,1.65-1.49,1.98-1.67,.48-.26,1.35,.16,2.41-.51Z"/>
              <path class="cls-48" d="M21.48,7.48c1.15-.7,1.41-2.33,.82-3.32-.67-1.12-1.53-1.21-2.32-1.57-.62-.28-.94-.61-2.12-.95-.93-.27-1.91-.12-3.16,.3-1.29,.43-6.39,1.84-7.09,2.32-.78,.53-.92,1.55-.55,2.28,.41,.8,1.37,1.07,2.01,1.3,.54,.19,1.57,1.24,2.78,1.58,.91,.26,1.57-.74,2-.61,.49,.15,1.23,1.32,3.37,.78,1.26-.31,1.61-1.51,1.92-1.68,.47-.26,1.28,.21,2.33-.43Z"/>
              <path class="cls-50" d="M21.26,7.37c1.14-.65,1.41-2.19,.84-3.17-.64-1.1-1.48-1.16-2.26-1.51-.6-.27-.85-.58-2.03-.94-.9-.27-1.83-.15-3.07,.27-1.28,.44-6.42,1.83-7.07,2.25-.79,.51-.92,1.53-.53,2.24,.43,.78,1.41,1.02,2.09,1.23,.51,.16,1.45,1.19,2.65,1.52,.9,.25,1.54-.82,1.94-.69,.48,.15,1.15,1.4,3.32,.85,1.26-.32,1.56-1.53,1.86-1.69,.47-.26,1.21,.26,2.26-.35Z"/>
              <path class="cls-46" d="M21.05,7.26c1.12-.6,1.41-2.05,.86-3.03-.62-1.08-1.43-1.12-2.2-1.46-.58-.26-.76-.56-1.94-.93-.86-.27-1.76-.18-2.98,.24-1.27,.44-6.44,1.81-7.05,2.17-.8,.48-.92,1.5-.51,2.2,.45,.76,1.45,.97,2.16,1.16,.48,.13,1.32,1.15,2.53,1.47,.88,.23,1.5-.89,1.88-.76,.47,.16,1.08,1.48,3.27,.92,1.27-.32,1.51-1.55,1.8-1.71,.46-.26,1.13,.3,2.19-.26Z"/>
              <path class="cls-42" d="M20.83,7.15c1.1-.56,1.42-1.91,.87-2.88-.6-1.06-1.38-1.07-2.14-1.4-.56-.25-.67-.54-1.85-.92-.83-.27-1.68-.22-2.9,.21-1.26,.44-6.47,1.79-7.02,2.1-.81,.45-.92,1.48-.49,2.16,.47,.74,1.49,.92,2.23,1.09,.46,.1,1.19,1.11,2.4,1.41,.87,.21,1.47-.97,1.82-.84,.46,.17,1,1.57,3.23,.99,1.27-.33,1.47-1.58,1.73-1.72,.46-.26,1.06,.35,2.11-.18Z"/>
              <path class="cls-70" d="M20.62,7.04c1.08-.51,1.42-1.77,.89-2.74-.58-1.04-1.33-1.02-2.08-1.35-.54-.23-.59-.51-1.76-.91-.8-.27-1.6-.25-2.81,.18-1.24,.44-6.5,1.77-7,2.03-.82,.41-.92,1.45-.47,2.11,.48,.72,1.53,.89,2.31,1.02,.44,.07,1.06,1.07,2.27,1.35,.86,.2,1.43-1.04,1.76-.91,.45,.18,.93,1.65,3.18,1.06,1.28-.33,1.42-1.6,1.67-1.74,.46-.26,.99,.4,2.04-.1Z"/>
              <path class="cls-18" d="M20.4,6.94c1.06-.47,1.42-1.64,.91-2.59-.55-1.02-1.28-.98-2.03-1.3-.52-.22-.5-.49-1.67-.91-.76-.27-1.53-.28-2.73,.15-1.23,.45-6.52,1.75-6.97,1.96-.83,.37-.91,1.43-.45,2.07,.5,.7,1.57,.86,2.38,.95,.42,.04,.93,1.03,2.15,1.29,.84,.18,1.4-1.12,1.71-.99,.44,.19,.85,1.73,3.14,1.13,1.28-.33,1.37-1.62,1.61-1.75,.45-.26,.92,.44,1.97-.02Z"/>
            </g>
            <path class="cls-13" d="M19.51,2.72c-.09,0-.18,0-.27,.02-.34-1.01-1.29-1.73-2.42-1.73-.52,0-1,.16-1.4,.42-.28-.75-1-1.29-1.85-1.29-.96,0-1.76,.69-1.93,1.6-.27-.2-.61-.32-.97-.32-.83,0-1.52,.62-1.62,1.43,0,0,0,0-.01,0-1.3,0-2.35,1.05-2.35,2.35s1.05,2.35,2.35,2.35c.41,0,.8-.11,1.14-.29,.12,.81,.82,1.44,1.67,1.44,.67,0,1.25-.39,1.52-.96,.52,.76,1.39,1.26,2.38,1.26,1.28,0,2.36-.83,2.73-1.98,.31,.16,.66,.25,1.04,.25,1.25,0,2.26-1.01,2.26-2.26s-1.01-2.26-2.26-2.26Z"/>
            <path class="cls-20" d="M19.58,2.79c-.09,0-.18,0-.27,.02-.34-1.01-1.29-1.73-2.41-1.73-.52,0-1,.15-1.4,.42-.28-.75-1-1.29-1.85-1.29-.96,0-1.76,.69-1.93,1.59-.27-.2-.61-.32-.97-.32-.83,0-1.52,.62-1.62,1.43,0,0,0,0-.01,0-1.3,0-2.35,1.05-2.35,2.35s1.05,2.35,2.35,2.35c.41,0,.8-.11,1.14-.29,.12,.81,.82,1.44,1.67,1.44,.67,0,1.25-.39,1.52-.96,.52,.76,1.39,1.26,2.38,1.26,1.28,0,2.36-.83,2.73-1.98,.31,.16,.66,.25,1.04,.25,1.25,0,2.26-1.01,2.26-2.26s-1.01-2.26-2.26-2.26Z"/>
          </g>
          <g>
            <g class="cls-11">
              <path class="cls-14" d="M15.93,12.35c.74-1.1,.38-3.13-.14-3.84-.68-.93-1.57-1.35-2.19-1.66-.62-.31-1.98-.86-2.77-.86-1.11,0-1.68,.41-2.57,.65-.97,.26-2.62,1.77-3.52,2.77-1.06,1.16-.79,2.9-.52,3.24,.5,.63,1.12,1.26,1.88,1.63,.74,.35,1.37,.33,1.92,.37,.42,.03,.9,.24,1.99,0,.77-.16,1.14-.22,1.53-.35,.84-.26,3.49-.63,4.39-1.96Z"/>
              <path class="cls-2" d="M15.78,12.3c.74-1.06,.43-3.03-.08-3.75-.67-.94-1.56-1.32-2.18-1.63-.61-.3-1.93-.87-2.71-.88-1.08,0-1.67,.39-2.56,.63-.96,.26-2.58,1.76-3.45,2.71-1.02,1.12-.82,2.82-.53,3.18,.49,.61,1.08,1.23,1.85,1.58,.74,.34,1.36,.3,1.9,.34,.41,.03,.9,.24,1.98,.01,.77-.16,1.15-.23,1.53-.34,.81-.24,3.36-.57,4.25-1.85Z"/>
              <path class="cls-4" d="M15.62,12.26c.73-1.03,.47-2.92-.03-3.65-.66-.94-1.56-1.3-2.17-1.6-.6-.29-1.88-.88-2.65-.89-1.06-.02-1.66,.36-2.54,.6-.96,.26-2.53,1.74-3.38,2.66-.98,1.07-.84,2.73-.54,3.11,.48,.59,1.05,1.2,1.82,1.54,.75,.32,1.35,.26,1.87,.31,.41,.04,.89,.24,1.98,.02,.78-.16,1.16-.24,1.53-.34,.79-.22,3.23-.52,4.12-1.75Z"/>
              <path class="cls-26" d="M15.47,12.21c.73-.99,.52-2.82,.02-3.55-.64-.94-1.55-1.28-2.15-1.58-.58-.29-1.83-.88-2.6-.9-1.03-.03-1.66,.34-2.53,.57-.95,.26-2.49,1.73-3.3,2.61-.95,1.03-.87,2.65-.55,3.04,.46,.57,1.02,1.17,1.79,1.49,.75,.3,1.34,.22,1.84,.27,.4,.04,.89,.24,1.97,.02,.78-.16,1.17-.24,1.53-.34,.76-.2,3.11-.46,3.98-1.64Z"/>
              <path class="cls-30" d="M15.32,12.16c.73-.95,.56-2.71,.07-3.45-.63-.94-1.55-1.26-2.14-1.55-.57-.28-1.78-.89-2.54-.92-1-.04-1.65,.31-2.51,.55-.94,.26-2.45,1.71-3.23,2.56-.91,.99-.9,2.57-.56,2.98,.45,.55,.98,1.14,1.76,1.44s1.33,.19,1.82,.24c.39,.04,.89,.24,1.97,.02,.79-.15,1.18-.25,1.53-.33,.74-.17,2.98-.4,3.84-1.54Z"/>
              <path class="cls-60" d="M15.16,12.11c.73-.92,.61-2.61,.12-3.36-.62-.95-1.54-1.24-2.13-1.52-.56-.27-1.73-.89-2.48-.93-.97-.04-1.64,.29-2.5,.52-.94,.26-2.41,1.69-3.16,2.5-.87,.95-.92,2.48-.57,2.91,.43,.53,.95,1.11,1.73,1.4s1.32,.15,1.79,.21c.39,.05,.88,.24,1.97,.03,.79-.15,1.19-.26,1.53-.33,.71-.15,2.85-.35,3.71-1.43Z"/>
              <path class="cls-58" d="M15.01,12.06c.72-.88,.65-2.5,.17-3.26-.6-.95-1.53-1.21-2.12-1.5-.54-.26-1.68-.9-2.42-.94-.94-.05-1.63,.26-2.48,.5-.93,.26-2.37,1.68-3.08,2.45-.84,.9-.95,2.4-.59,2.84,.42,.51,.92,1.08,1.7,1.35s1.31,.11,1.76,.17c.38,.05,.88,.24,1.96,.03,.8-.15,1.2-.26,1.53-.33,.69-.13,2.73-.29,3.57-1.32Z"/>
              <path class="cls-56" d="M14.86,12.01c.72-.84,.7-2.4,.22-3.16-.59-.95-1.53-1.19-2.11-1.47-.53-.26-1.63-.91-2.37-.95-.92-.06-1.63,.24-2.47,.47-.92,.26-2.33,1.66-3.01,2.4-.8,.86-.98,2.31-.6,2.78,.4,.49,.88,1.05,1.67,1.3s1.3,.08,1.74,.14c.38,.06,.87,.24,1.96,.03,.8-.15,1.21-.27,1.53-.32,.66-.11,2.6-.23,3.44-1.22Z"/>
              <path class="cls-65" d="M14.7,11.97c.72-.81,.74-2.29,.27-3.07-.58-.95-1.52-1.17-2.1-1.44-.52-.25-1.59-.91-2.31-.97-.89-.07-1.62,.21-2.45,.45-.92,.26-2.28,1.65-2.94,2.35-.76,.82-1.01,2.23-.61,2.71s.85,1.02,1.64,1.26,1.29,.04,1.71,.11c.37,.06,.87,.24,1.95,.04,.81-.15,1.22-.28,1.53-.32,.64-.09,2.47-.18,3.3-1.11Z"/>
              <path class="cls-63" d="M14.55,11.92c.72-.77,.78-2.19,.32-2.97-.57-.96-1.52-1.15-2.09-1.42-.5-.24-1.54-.92-2.25-.98-.86-.08-1.61,.19-2.44,.42-.91,.26-2.24,1.63-2.86,2.29-.73,.77-1.03,2.14-.62,2.65,.37,.45,.82,.99,1.61,1.21s1.28,0,1.68,.07c.37,.06,.87,.24,1.95,.04,.81-.15,1.23-.28,1.53-.32,.61-.07,2.34-.12,3.17-1Z"/>
              <path class="cls-41" d="M14.4,11.87c.71-.73,.83-2.08,.37-2.87-.56-.96-1.51-1.13-2.07-1.39-.49-.23-1.49-.92-2.19-.99-.83-.08-1.61,.16-2.42,.39-.9,.26-2.2,1.62-2.79,2.24-.69,.73-1.06,2.06-.63,2.58,.35,.43,.78,.96,1.58,1.16s1.27-.03,1.66,.04c.36,.07,.86,.24,1.95,.04,.82-.15,1.24-.29,1.52-.31,.59-.04,2.22-.06,3.03-.9Z"/>
              <path class="cls-38" d="M14.24,11.82c.71-.7,.87-1.98,.42-2.77-.54-.96-1.51-1.1-2.06-1.36-.48-.22-1.44-.93-2.14-1.01-.8-.09-1.6,.14-2.41,.37-.9,.26-2.16,1.6-2.72,2.19-.65,.69-1.09,1.97-.64,2.51,.34,.41,.75,.93,1.55,1.12s1.26-.07,1.63,0,.86,.24,1.94,.05c.82-.15,1.25-.3,1.52-.31,.56-.02,2.09,0,2.9-.79Z"/>
              <path class="cls-34" d="M14.09,11.77c.71-.66,.92-1.87,.47-2.68-.53-.96-1.5-1.08-2.05-1.34-.46-.22-1.39-.93-2.08-1.02-.78-.1-1.59,.11-2.39,.34-.89,.26-2.12,1.58-2.64,2.14-.61,.65-1.11,1.89-.65,2.45,.32,.39,.72,.9,1.52,1.07s1.25-.1,1.6-.03,.85,.24,1.94,.05c.83-.14,1.27-.31,1.52-.31,.54,0,1.97,.05,2.76-.68Z"/>
              <path class="cls-36" d="M13.94,11.72c.71-.62,.96-1.77,.52-2.58-.52-.96-1.5-1.06-2.04-1.31-.45-.21-1.34-.94-2.02-1.03-.75-.1-1.59,.09-2.37,.32-.88,.26-2.08,1.57-2.57,2.09-.58,.6-1.14,1.8-.66,2.38,.31,.37,.68,.87,1.49,1.02s1.24-.14,1.58-.06,.85,.24,1.94,.05c.83-.14,1.28-.31,1.52-.3,.51,.02,1.84,.11,2.62-.58Z"/>
              <path class="cls-69" d="M13.78,11.68c.71-.58,1.01-1.66,.57-2.48-.51-.97-1.49-1.04-2.03-1.28-.44-.2-1.29-.94-1.96-1.04-.72-.11-1.58,.06-2.36,.29-.88,.26-2.04,1.55-2.5,2.03-.54,.56-1.17,1.72-.68,2.31,.29,.35,.65,.84,1.46,.98s1.23-.17,1.55-.09c.34,.09,.85,.24,1.93,.06,.84-.14,1.29-.32,1.52-.3,.49,.04,1.72,.17,2.49-.47Z"/>
              <path class="cls-53" d="M13.63,11.63c.7-.55,1.05-1.56,.63-2.38-.5-.97-1.49-1.02-2.02-1.26-.42-.19-1.24-.95-1.91-1.06s-1.57,.04-2.34,.26c-.87,.26-1.99,1.54-2.42,1.98-.5,.52-1.2,1.63-.69,2.25,.28,.33,.62,.81,1.43,.93s1.22-.21,1.52-.12c.33,.09,.84,.24,1.93,.06,.84-.14,1.3-.33,1.52-.3,.46,.06,1.59,.23,2.35-.36Z"/>
              <path class="cls-48" d="M13.48,11.58c.7-.51,1.09-1.45,.68-2.29-.48-.97-1.48-.99-2.01-1.23-.41-.19-1.2-.95-1.85-1.07s-1.56,.01-2.33,.24c-.86,.26-1.95,1.52-2.35,1.93-.47,.48-1.22,1.55-.7,2.18,.26,.31,.59,.78,1.4,.88s1.21-.24,1.5-.16c.33,.1,.84,.24,1.92,.06,.85-.14,1.31-.33,1.52-.29,.44,.08,1.46,.29,2.22-.26Z"/>
              <path class="cls-50" d="M13.32,11.53c.7-.47,1.14-1.35,.73-2.19-.47-.97-1.48-.97-1.99-1.2-.4-.18-1.15-.95-1.79-1.08s-1.56-.01-2.31,.21c-.86,.26-1.91,1.51-2.28,1.88-.43,.43-1.25,1.47-.71,2.12,.24,.29,.55,.75,1.37,.84s1.2-.28,1.47-.19c.32,.1,.84,.24,1.92,.07,.85-.14,1.32-.34,1.52-.29,.42,.11,1.34,.34,2.08-.15Z"/>
              <path class="cls-46" d="M13.17,11.48c.7-.43,1.18-1.24,.78-2.09-.46-.97-1.47-.95-1.98-1.18-.38-.17-1.1-.96-1.73-1.1s-1.55-.04-2.3,.19c-.85,.26-1.87,1.49-2.21,1.82-.39,.39-1.28,1.38-.72,2.05,.23,.27,.52,.72,1.34,.79,.84,.07,1.19-.31,1.44-.22,.31,.11,.83,.24,1.92,.07,.86-.14,1.33-.35,1.52-.29,.39,.13,1.22,.4,1.95-.04Z"/>
              <path class="cls-42" d="M13.02,11.43c.7-.39,1.22-1.13,.83-2-.45-.98-1.46-.93-1.97-1.15-.37-.16-1.05-.96-1.68-1.11-.58-.14-1.54-.06-2.28,.16-.84,.26-1.83,1.47-2.13,1.77-.36,.35-1.31,1.3-.73,1.98,.21,.25,.49,.69,1.31,.74,.84,.05,1.18-.34,1.42-.26,.31,.11,.83,.24,1.91,.08,.86-.13,1.34-.35,1.52-.28,.37,.15,1.09,.46,1.81,.06Z"/>
              <path class="cls-70" d="M12.86,11.39c.7-.35,1.27-1.03,.88-1.9-.44-.98-1.46-.91-1.96-1.12-.36-.15-1-.96-1.62-1.12-.55-.14-1.54-.09-2.27,.14-.84,.26-1.79,1.46-2.06,1.72-.32,.3-1.34,1.21-.74,1.92,.2,.23,.45,.66,1.27,.7,.85,.03,1.17-.38,1.39-.29,.3,.12,.82,.25,1.91,.08,.87-.13,1.35-.36,1.52-.28,.34,.17,.97,.52,1.68,.17Z"/>
              <path class="cls-18" d="M12.71,11.34c.7-.31,1.31-.92,.93-1.8-.43-.98-1.45-.88-1.95-1.1-.34-.15-.95-.96-1.56-1.14-.53-.15-1.53-.11-2.25,.11-.83,.26-1.74,1.44-1.99,1.67-.28,.26-1.37,1.13-.75,1.85,.18,.21,.42,.63,1.24,.65,.85,.02,1.16-.41,1.36-.32,.29,.13,.82,.25,1.9,.08,.87-.13,1.36-.37,1.52-.28,.32,.19,.84,.58,1.54,.28Z"/>
            </g>
            <path class="cls-13" d="M12.18,8.3c-.2-.01-.38,.02-.56,.07-.23-1.17-1.23-2.07-2.47-2.14-1.2-.06-2.26,.69-2.64,1.77h0c-1.02-.05-1.89,.73-1.94,1.75-.05,1.02,.73,1.89,1.75,1.94,.53,.03,1.01-.17,1.36-.5,.35,.21,.76,.33,1.2,.36,.78,.04,1.5-.26,2.01-.77,.26,.34,.67,.57,1.13,.59,.85,.04,1.57-.61,1.61-1.45,.04-.85-.61-1.57-1.45-1.61Z"/>
            <path class="cls-21" d="M12.25,8.36c-.2,0-.38,.02-.56,.07-.23-1.17-1.23-2.07-2.47-2.14-1.2-.06-2.26,.69-2.64,1.77h0c-1.02-.05-1.89,.73-1.94,1.75-.05,1.02,.73,1.89,1.75,1.94,.53,.03,1.01-.17,1.36-.5,.35,.21,.76,.33,1.2,.36,.78,.04,1.5-.26,2.01-.77,.26,.34,.67,.57,1.13,.59,.85,.04,1.57-.61,1.61-1.45,.04-.85-.61-1.57-1.45-1.61Z"/>
          </g>
          <g>
            <g>
              <g class="cls-11">
                <path class="cls-14" d="M18.46,18.42c-.03-.67,.79-2.11,1.39-2.16,.65-.04,1.98,1.38,1.86,2.35-.14,1.16-1.54,1.38-2.23,1.16-.71-.23-1.01-.96-1.03-1.35Z"/>
                <path class="cls-1" d="M19.84,16.29c.63-.04,1.93,1.36,1.82,2.3-.13,1.14-1.5,1.35-2.17,1.14-.7-.22-1-.94-1.01-1.32-.03-.65,.77-2.08,1.36-2.12Z"/>
                <path class="cls-3" d="M19.82,16.31c.62-.04,1.88,1.34,1.78,2.26-.13,1.11-1.46,1.32-2.11,1.12-.69-.22-.98-.92-.99-1.29-.03-.64,.76-2.05,1.33-2.09Z"/>
                <path class="cls-5" d="M19.81,16.34c.6-.04,1.84,1.31,1.73,2.22-.13,1.08-1.41,1.3-2.06,1.1-.68-.21-.96-.9-.98-1.27-.03-.62,.74-2.01,1.3-2.05Z"/>
                <path class="cls-27" d="M19.8,16.36c.59-.04,1.79,1.29,1.69,2.18-.12,1.05-1.37,1.27-2,1.08-.67-.2-.94-.88-.96-1.24-.02-.61,.73-1.98,1.27-2.02Z"/>
                <path class="cls-32" d="M19.79,16.39c.57-.04,1.74,1.27,1.64,2.14-.12,1.02-1.33,1.24-1.95,1.05-.66-.2-.93-.86-.94-1.21-.02-.6,.71-1.95,1.24-1.98Z"/>
                <path class="cls-29" d="M19.77,16.41c.55-.04,1.7,1.24,1.6,2.1-.12,.99-1.28,1.21-1.89,1.03-.65-.19-.91-.84-.92-1.18-.02-.58,.7-1.91,1.21-1.95Z"/>
                <path class="cls-28" d="M19.76,16.44c.54-.03,1.65,1.22,1.56,2.06-.11,.96-1.24,1.18-1.83,1.01-.64-.18-.89-.82-.9-1.16-.02-.57,.68-1.88,1.18-1.91Z"/>
                <path class="cls-59" d="M19.75,16.46c.52-.03,1.6,1.2,1.51,2.02-.11,.94-1.2,1.15-1.78,.99-.63-.17-.87-.81-.89-1.13-.02-.56,.67-1.85,1.15-1.88Z"/>
                <path class="cls-57" d="M19.74,16.49c.5-.03,1.56,1.18,1.47,1.97-.1,.91-1.15,1.12-1.72,.97-.62-.17-.86-.79-.87-1.1-.02-.54,.65-1.81,1.12-1.84Z"/>
                <path class="cls-31" d="M19.72,16.51c.49-.03,1.51,1.15,1.42,1.93-.1,.88-1.11,1.1-1.67,.95-.61-.16-.84-.77-.85-1.08-.02-.53,.64-1.78,1.09-1.81Z"/>
                <path class="cls-66" d="M19.71,16.54c.47-.03,1.46,1.13,1.38,1.89-.1,.85-1.07,1.07-1.61,.93-.6-.15-.82-.75-.83-1.05-.02-.52,.62-1.74,1.06-1.77Z"/>
                <path class="cls-64" d="M19.7,16.56c.45-.03,1.42,1.11,1.33,1.85-.09,.82-1.02,1.04-1.55,.91-.59-.15-.81-.73-.81-1.02-.02-.5,.61-1.71,1.04-1.74Z"/>
                <path class="cls-62" d="M19.69,16.59c.44-.03,1.37,1.08,1.29,1.81-.09,.79-.98,1.01-1.5,.89-.58-.14-.79-.71-.8-.99-.02-.49,.59-1.68,1.01-1.7Z"/>
                <path class="cls-61" d="M19.68,16.61c.42-.02,1.32,1.06,1.25,1.77-.09,.76-.94,.98-1.44,.87-.57-.13-.77-.69-.78-.97-.02-.48,.58-1.64,.98-1.67Z"/>
                <path class="cls-40" d="M19.66,16.64c.41-.02,1.28,1.04,1.2,1.73-.08,.74-.89,.95-1.39,.84-.56-.12-.75-.67-.76-.94-.01-.46,.56-1.61,.95-1.63Z"/>
                <path class="cls-37" d="M19.65,16.66c.39-.02,1.23,1.01,1.16,1.69-.08,.71-.85,.93-1.33,.82-.55-.12-.74-.65-.74-.91-.01-.45,.55-1.58,.92-1.6Z"/>
                <path class="cls-39" d="M19.64,16.69c.37-.02,1.18,.99,1.11,1.65s-.81,.9-1.28,.8c-.54-.11-.72-.63-.73-.88-.01-.44,.53-1.54,.89-1.56Z"/>
                <path class="cls-35" d="M19.63,16.71c.36-.02,1.14,.97,1.07,1.6s-.77,.87-1.22,.78c-.53-.1-.7-.61-.71-.86-.01-.42,.52-1.51,.86-1.53Z"/>
                <path class="cls-67" d="M19.61,16.74c.34-.02,1.09,.95,1.02,1.56s-.72,.84-1.16,.76c-.52-.1-.68-.59-.69-.83-.01-.41,.5-1.48,.83-1.49Z"/>
                <path class="cls-68" d="M19.6,16.76c.32-.02,1.04,.92,.98,1.52s-.68,.81-1.11,.74c-.51-.09-.67-.57-.67-.8,0-.4,.49-1.44,.8-1.46Z"/>
                <path class="cls-52" d="M19.59,16.79c.31-.01,1,.9,.94,1.48s-.64,.78-1.05,.72c-.5-.08-.65-.55-.65-.78,0-.38,.47-1.41,.77-1.42Z"/>
                <path class="cls-54" d="M19.58,16.82c.29-.01,.95,.88,.89,1.44s-.59,.76-1,.7c-.49-.07-.63-.53-.64-.75,0-.37,.46-1.38,.74-1.39Z"/>
                <path class="cls-55" d="M19.56,16.84c.28-.01,.9,.85,.85,1.4-.05,.51-.55,.73-.94,.68-.48-.06-.61-.51-.62-.72,0-.35,.44-1.34,.71-1.35Z"/>
                <path class="cls-49" d="M19.55,16.87c.26-.01,.86,.83,.8,1.36-.05,.48-.51,.7-.88,.65-.47-.06-.6-.49-.6-.69,0-.34,.43-1.31,.68-1.32Z"/>
                <path class="cls-51" d="M19.54,16.89c.24,0,.81,.81,.76,1.32-.04,.45-.46,.67-.83,.63-.46-.05-.58-.47-.58-.67,0-.33,.41-1.27,.65-1.28Z"/>
                <path class="cls-45" d="M19.53,16.92c.23,0,.76,.78,.72,1.27-.04,.42-.42,.65-.77,.61-.45-.04-.56-.45-.56-.64,0-.31,.4-1.24,.62-1.25Z"/>
                <path class="cls-47" d="M19.52,16.94c.21,0,.71,.76,.67,1.23-.04,.39-.38,.62-.72,.59-.44-.03-.54-.44-.55-.61,0-.3,.38-1.21,.59-1.21Z"/>
                <path class="cls-43" d="M19.5,16.97c.19,0,.67,.74,.63,1.19-.03,.36-.34,.59-.66,.57-.43-.03-.53-.42-.53-.58,0-.29,.37-1.17,.56-1.18Z"/>
                <path class="cls-44" d="M19.49,16.99c.18,0,.62,.72,.58,1.15-.03,.34-.29,.56-.6,.55-.42-.02-.51-.4-.51-.56,0-.27,.35-1.14,.53-1.14Z"/>
                <path class="cls-71" d="M19.48,17.02c.16,0,.57,.69,.54,1.11-.03,.31-.25,.54-.55,.53-.41,0-.49-.38-.49-.53,0-.26,.34-1.11,.5-1.11Z"/>
                <path class="cls-24" d="M19.47,17.04c.15,0,.53,.67,.49,1.07-.02,.28-.21,.51-.49,.51-.4,0-.48-.36-.48-.5,0-.25,.32-1.07,.47-1.07Z"/>
              </g>
              <path class="cls-17" d="M19.97,17.93c0,.44-.36,.8-.8,.8s-.83-.36-.83-.8c0-.75,.84-1.76,.84-1.76l.06-.03s0,.04,.02,.06c.15,.24,.72,1.16,.72,1.73Z"/>
              <path class="cls-25" d="M20.04,17.96c0,.44-.36,.8-.8,.8s-.8-.36-.8-.8c0-.67,.8-1.81,.8-1.81,0,0,.8,1.15,.8,1.81Z"/>
            </g>
            <g>
              <g class="cls-11">
                <path class="cls-14" d="M21.52,15.41c-.02-.5,.59-1.58,1.04-1.61,.49-.03,1.48,1.03,1.39,1.75-.1,.87-1.15,1.03-1.66,.87-.53-.17-.76-.72-.77-1.01Z"/>
                <path class="cls-1" d="M22.55,13.82c.47-.03,1.44,1.02,1.36,1.72-.1,.85-1.12,1.01-1.62,.85-.53-.17-.74-.7-.76-.99-.02-.49,.58-1.56,1.02-1.59Z"/>
                <path class="cls-3" d="M22.54,13.83c.46-.03,1.41,1,1.33,1.69-.1,.83-1.09,.99-1.58,.84-.52-.16-.73-.69-.74-.97-.02-.48,.57-1.53,.99-1.56Z"/>
                <path class="cls-5" d="M22.53,13.85c.45-.03,1.37,.98,1.29,1.66-.09,.81-1.06,.97-1.54,.82-.51-.16-.72-.68-.73-.95-.02-.47,.55-1.51,.97-1.53Z"/>
                <path class="cls-27" d="M22.52,13.87c.44-.03,1.34,.96,1.26,1.63-.09,.78-1.02,.95-1.5,.8-.5-.15-.71-.66-.72-.93-.02-.46,.54-1.48,.95-1.51Z"/>
                <path class="cls-32" d="M22.51,13.89c.43-.03,1.3,.95,1.23,1.6-.09,.76-.99,.93-1.46,.79-.49-.15-.69-.65-.7-.91-.02-.45,.53-1.46,.93-1.48Z"/>
                <path class="cls-29" d="M22.5,13.91c.41-.03,1.27,.93,1.2,1.57-.09,.74-.96,.9-1.41,.77-.49-.14-.68-.63-.69-.89-.02-.44,.52-1.43,.91-1.46Z"/>
                <path class="cls-28" d="M22.49,13.93c.4-.03,1.23,.91,1.16,1.54-.08,.72-.93,.88-1.37,.76-.48-.14-.67-.62-.68-.87-.02-.43,.51-1.41,.88-1.43Z"/>
                <path class="cls-59" d="M22.48,13.95c.39-.03,1.2,.9,1.13,1.51-.08,.7-.89,.86-1.33,.74-.47-.13-.65-.6-.66-.84-.02-.42,.5-1.38,.86-1.4Z"/>
                <path class="cls-57" d="M22.47,13.97c.38-.02,1.16,.88,1.1,1.48-.08,.68-.86,.84-1.29,.73-.46-.13-.64-.59-.65-.82-.02-.41,.49-1.35,.84-1.38Z"/>
                <path class="cls-31" d="M22.47,13.99c.36-.02,1.13,.86,1.06,1.44-.08,.66-.83,.82-1.25,.71-.46-.12-.63-.57-.64-.8-.01-.4,.48-1.33,.82-1.35Z"/>
                <path class="cls-66" d="M22.46,14c.35-.02,1.09,.84,1.03,1.41-.07,.64-.8,.8-1.2,.69-.45-.11-.61-.56-.62-.78-.01-.39,.47-1.3,.8-1.32Z"/>
                <path class="cls-64" d="M22.45,14.02c.34-.02,1.06,.83,1,1.38-.07,.61-.77,.78-1.16,.68-.44-.11-.6-.54-.61-.76-.01-.38,.45-1.28,.77-1.3Z"/>
                <path class="cls-62" d="M22.44,14.04c.33-.02,1.02,.81,.96,1.35-.07,.59-.73,.76-1.12,.66-.43-.1-.59-.53-.6-.74-.01-.37,.44-1.25,.75-1.27Z"/>
                <path class="cls-61" d="M22.43,14.06c.32-.02,.99,.79,.93,1.32-.06,.57-.7,.73-1.08,.65-.43-.1-.58-.51-.58-.72-.01-.36,.43-1.23,.73-1.25Z"/>
                <path class="cls-40" d="M22.42,14.08c.3-.02,.95,.78,.9,1.29-.06,.55-.67,.71-1.04,.63-.42-.09-.56-.5-.57-.7-.01-.35,.42-1.2,.71-1.22Z"/>
                <path class="cls-37" d="M22.41,14.1c.29-.02,.92,.76,.87,1.26-.06,.53-.64,.69-.99,.62-.41-.09-.55-.49-.56-.68-.01-.34,.41-1.18,.69-1.19Z"/>
                <path class="cls-39" d="M22.4,14.12c.28-.02,.88,.74,.83,1.23s-.6,.67-.95,.6c-.4-.08-.54-.47-.54-.66,0-.33,.4-1.15,.66-1.17Z"/>
                <path class="cls-35" d="M22.39,14.14c.27-.01,.85,.72,.8,1.2s-.57,.65-.91,.58c-.39-.08-.52-.46-.53-.64,0-.32,.39-1.13,.64-1.14Z"/>
                <path class="cls-67" d="M22.38,14.15c.25-.01,.81,.71,.77,1.17s-.54,.63-.87,.57c-.39-.07-.51-.44-.52-.62,0-.31,.38-1.1,.62-1.12Z"/>
                <path class="cls-68" d="M22.37,14.17c.24-.01,.78,.69,.73,1.14s-.51,.61-.83,.55c-.38-.07-.5-.43-.5-.6,0-.3,.36-1.08,.6-1.09Z"/>
                <path class="cls-52" d="M22.36,14.19c.23-.01,.74,.67,.7,1.11s-.48,.59-.79,.54c-.37-.06-.49-.41-.49-.58,0-.29,.35-1.05,.57-1.06Z"/>
                <path class="cls-54" d="M22.35,14.21c.22,0,.71,.66,.67,1.08s-.44,.57-.74,.52c-.36-.05-.47-.4-.48-.56,0-.27,.34-1.03,.55-1.04Z"/>
                <path class="cls-55" d="M22.35,14.23c.21,0,.67,.64,.63,1.04-.04,.38-.41,.55-.7,.51-.36-.05-.46-.38-.46-.54,0-.26,.33-1,.53-1.01Z"/>
                <path class="cls-49" d="M22.34,14.25c.19,0,.64,.62,.6,1.01-.04,.36-.38,.52-.66,.49-.35-.04-.45-.37-.45-.52,0-.25,.32-.98,.51-.98Z"/>
                <path class="cls-51" d="M22.33,14.27c.18,0,.6,.6,.57,.98-.03,.34-.35,.5-.62,.47-.34-.04-.43-.35-.44-.5,0-.24,.31-.95,.49-.96Z"/>
                <path class="cls-45" d="M22.32,14.29c.17,0,.57,.59,.53,.95-.03,.32-.32,.48-.58,.46-.33-.03-.42-.34-.42-.48,0-.23,.3-.93,.46-.93Z"/>
                <path class="cls-47" d="M22.31,14.31c.16,0,.53,.57,.5,.92-.03,.29-.28,.46-.53,.44-.33-.02-.41-.32-.41-.46,0-.22,.29-.9,.44-.91Z"/>
                <path class="cls-43" d="M22.3,14.32c.15,0,.5,.55,.47,.89-.02,.27-.25,.44-.49,.43-.32-.02-.39-.31-.4-.44,0-.21,.28-.88,.42-.88Z"/>
                <path class="cls-44" d="M22.29,14.34c.13,0,.46,.54,.44,.86-.02,.25-.22,.42-.45,.41-.31-.01-.38-.3-.38-.42,0-.2,.26-.85,.4-.85Z"/>
                <path class="cls-71" d="M22.28,14.36c.12,0,.43,.52,.4,.83-.02,.23-.19,.4-.41,.4-.3,0-.37-.28-.37-.4,0-.19,.25-.83,.38-.83Z"/>
                <path class="cls-24" d="M22.27,14.38c.11,0,.39,.5,.37,.8-.02,.21-.15,.38-.37,.38-.3,0-.36-.27-.36-.38,0-.18,.24-.8,.35-.8Z"/>
              </g>
              <path class="cls-17" d="M22.65,15.05c0,.33-.27,.6-.6,.6s-.62-.27-.62-.6c0-.56,.63-1.32,.63-1.32l.05-.02s0,.03,.01,.04c.11,.18,.54,.87,.54,1.3Z"/>
              <path class="cls-25" d="M22.7,15.06c0,.33-.27,.6-.6,.6s-.6-.27-.6-.6c0-.5,.6-1.36,.6-1.36,0,0,.6,.86,.6,1.36Z"/>
            </g>
            <g>
              <g class="cls-11">
                <path class="cls-14" d="M15.57,16.74c-.02-.5,.59-1.58,1.04-1.61,.49-.03,1.48,1.03,1.39,1.75-.1,.87-1.15,1.03-1.66,.87-.53-.17-.76-.72-.77-1.01Z"/>
                <path class="cls-1" d="M16.6,15.15c.47-.03,1.44,1.02,1.36,1.72-.1,.85-1.12,1.01-1.62,.85-.53-.17-.74-.7-.76-.99-.02-.49,.58-1.55,1.02-1.59Z"/>
                <path class="cls-3" d="M16.6,15.17c.46-.03,1.41,1,1.33,1.69-.1,.83-1.09,.99-1.58,.83-.52-.16-.73-.69-.74-.97-.02-.48,.57-1.53,1-1.56Z"/>
                <path class="cls-5" d="M16.59,15.19c.45-.03,1.37,.98,1.29,1.66-.09,.81-1.06,.97-1.54,.82-.51-.16-.72-.67-.73-.95-.02-.47,.55-1.5,.97-1.53Z"/>
                <path class="cls-27" d="M16.58,15.21c.44-.03,1.34,.96,1.26,1.63-.09,.78-1.02,.95-1.5,.8-.5-.15-.71-.66-.72-.93-.02-.46,.54-1.48,.95-1.51Z"/>
                <path class="cls-32" d="M16.57,15.22c.43-.03,1.3,.95,1.23,1.6-.09,.76-.99,.93-1.45,.79-.49-.15-.69-.65-.7-.91-.02-.45,.53-1.45,.93-1.48Z"/>
                <path class="cls-29" d="M16.56,15.24c.41-.03,1.27,.93,1.2,1.57-.09,.74-.96,.9-1.41,.77-.49-.14-.68-.63-.69-.89-.02-.44,.52-1.43,.91-1.45Z"/>
                <path class="cls-28" d="M16.55,15.26c.4-.03,1.23,.91,1.16,1.54-.08,.72-.93,.88-1.37,.76-.48-.14-.67-.62-.68-.87-.02-.43,.51-1.4,.88-1.43Z"/>
                <path class="cls-59" d="M16.54,15.28c.39-.03,1.2,.89,1.13,1.51-.08,.7-.89,.86-1.33,.74-.47-.13-.65-.6-.66-.84-.02-.42,.5-1.38,.86-1.4Z"/>
                <path class="cls-57" d="M16.53,15.3c.38-.02,1.16,.88,1.1,1.48-.08,.68-.86,.84-1.29,.73-.46-.13-.64-.59-.65-.82-.01-.41,.49-1.35,.84-1.38Z"/>
                <path class="cls-31" d="M16.52,15.32c.36-.02,1.13,.86,1.06,1.44-.07,.66-.83,.82-1.25,.71-.46-.12-.63-.57-.64-.8-.01-.4,.48-1.33,.82-1.35Z"/>
                <path class="cls-66" d="M16.51,15.34c.35-.02,1.09,.84,1.03,1.41-.07,.64-.8,.8-1.2,.69-.45-.11-.62-.56-.62-.78-.01-.39,.47-1.3,.8-1.32Z"/>
                <path class="cls-64" d="M16.5,15.36c.34-.02,1.06,.83,1,1.38-.07,.61-.77,.78-1.16,.68-.44-.11-.6-.54-.61-.76-.01-.38,.45-1.28,.77-1.3Z"/>
                <path class="cls-62" d="M16.49,15.37c.33-.02,1.02,.81,.96,1.35-.07,.59-.73,.76-1.12,.66-.43-.1-.59-.53-.6-.74-.01-.37,.44-1.25,.75-1.27Z"/>
                <path class="cls-61" d="M16.48,15.39c.32-.02,.99,.79,.93,1.32-.06,.57-.7,.73-1.08,.65-.43-.1-.58-.51-.58-.72-.01-.36,.43-1.23,.73-1.25Z"/>
                <path class="cls-40" d="M16.48,15.41c.3-.02,.95,.77,.9,1.29-.06,.55-.67,.71-1.04,.63-.42-.09-.56-.5-.57-.7-.01-.35,.42-1.2,.71-1.22Z"/>
                <path class="cls-37" d="M16.47,15.43c.29-.02,.92,.76,.87,1.26-.06,.53-.64,.69-.99,.62-.41-.09-.55-.49-.56-.68-.01-.34,.41-1.18,.69-1.19Z"/>
                <path class="cls-39" d="M16.46,15.45c.28-.02,.88,.74,.83,1.23s-.6,.67-.95,.6c-.4-.08-.54-.47-.54-.66,0-.33,.4-1.15,.66-1.17Z"/>
                <path class="cls-35" d="M16.45,15.47c.27-.01,.85,.72,.8,1.2s-.57,.65-.91,.58c-.39-.08-.52-.46-.53-.64,0-.32,.39-1.13,.64-1.14Z"/>
                <path class="cls-67" d="M16.44,15.49c.26-.01,.81,.71,.77,1.17s-.54,.63-.87,.57c-.39-.07-.51-.44-.52-.62,0-.31,.38-1.1,.62-1.12Z"/>
                <path class="cls-68" d="M16.43,15.51c.24-.01,.78,.69,.73,1.14s-.51,.61-.83,.55c-.38-.07-.5-.43-.5-.6,0-.3,.36-1.08,.6-1.09Z"/>
                <path class="cls-52" d="M16.42,15.53c.23-.01,.74,.67,.7,1.11s-.48,.59-.79,.54c-.37-.06-.49-.41-.49-.58,0-.29,.35-1.05,.57-1.06Z"/>
                <path class="cls-54" d="M16.41,15.54c.22,0,.71,.65,.67,1.08s-.44,.57-.74,.52c-.36-.05-.47-.4-.48-.56,0-.28,.34-1.03,.55-1.04Z"/>
                <path class="cls-55" d="M16.4,15.56c.21,0,.67,.64,.63,1.04-.04,.38-.41,.54-.7,.51-.36-.05-.46-.38-.46-.54,0-.27,.33-1,.53-1.01Z"/>
                <path class="cls-49" d="M16.39,15.58c.19,0,.64,.62,.6,1.01-.04,.36-.38,.52-.66,.49-.35-.04-.45-.37-.45-.52,0-.26,.32-.98,.51-.98Z"/>
                <path class="cls-51" d="M16.38,15.6c.18,0,.6,.6,.57,.98-.03,.34-.35,.5-.62,.47-.34-.04-.43-.35-.44-.5,0-.25,.31-.95,.49-.96Z"/>
                <path class="cls-45" d="M16.37,15.62c.17,0,.57,.59,.53,.95-.03,.32-.32,.48-.58,.46-.33-.03-.42-.34-.42-.48,0-.24,.3-.93,.46-.93Z"/>
                <path class="cls-47" d="M16.36,15.64c.16,0,.53,.57,.5,.92-.03,.29-.28,.46-.54,.44-.33-.02-.41-.33-.41-.46,0-.22,.29-.9,.44-.91Z"/>
                <path class="cls-43" d="M16.36,15.66c.15,0,.5,.55,.47,.89-.02,.27-.25,.44-.49,.43-.32-.02-.39-.31-.4-.44,0-.21,.27-.88,.42-.88Z"/>
                <path class="cls-44" d="M16.35,15.68c.13,0,.46,.53,.44,.86-.02,.25-.22,.42-.45,.41-.31-.01-.38-.3-.38-.42,0-.2,.26-.85,.4-.85Z"/>
                <path class="cls-71" d="M16.34,15.7c.12,0,.43,.52,.4,.83-.02,.23-.19,.4-.41,.4-.3,0-.37-.28-.37-.4,0-.19,.25-.83,.38-.83Z"/>
                <path class="cls-24" d="M16.33,15.71c.11,0,.39,.5,.37,.8-.02,.21-.15,.38-.37,.38-.3,0-.36-.27-.35-.38,0-.18,.24-.8,.35-.8Z"/>
              </g>
              <path class="cls-17" d="M16.7,16.38c0,.33-.27,.6-.6,.6s-.62-.27-.62-.6c0-.56,.63-1.32,.63-1.32l.05-.02s0,.03,.01,.04c.11,.18,.54,.87,.54,1.3Z"/>
              <path class="cls-25" d="M16.76,16.4c0,.33-.27,.6-.6,.6s-.6-.27-.6-.6c0-.5,.6-1.36,.6-1.36,0,0,.6,.86,.6,1.36Z"/>
            </g>
            <g>
              <g class="cls-11">
                <path class="cls-14" d="M12.28,19.07c-.03-.8,.94-2.53,1.66-2.58,.78-.05,2.37,1.65,2.23,2.81-.17,1.39-1.84,1.65-2.66,1.39-.85-.28-1.21-1.15-1.23-1.61Z"/>
                <path class="cls-1" d="M13.93,16.52c.76-.05,2.31,1.62,2.18,2.76-.16,1.36-1.79,1.62-2.6,1.36-.84-.27-1.19-1.13-1.21-1.58-.03-.78,.92-2.49,1.63-2.54Z"/>
                <path class="cls-3" d="M13.92,16.55c.74-.05,2.25,1.6,2.13,2.71-.16,1.32-1.74,1.58-2.53,1.34-.83-.26-1.17-1.1-1.19-1.55-.03-.76,.91-2.45,1.59-2.5Z"/>
                <path class="cls-5" d="M13.9,16.58c.72-.05,2.2,1.57,2.07,2.66-.15,1.29-1.69,1.55-2.46,1.31-.82-.25-1.15-1.08-1.17-1.52-.03-.75,.89-2.41,1.56-2.45Z"/>
                <path class="cls-27" d="M13.89,16.61c.7-.05,2.14,1.54,2.02,2.61-.15,1.26-1.64,1.52-2.4,1.29-.8-.24-1.13-1.06-1.15-1.48-.03-.73,.87-2.37,1.52-2.41Z"/>
                <path class="cls-32" d="M13.87,16.65c.68-.05,2.09,1.52,1.97,2.56-.14,1.22-1.59,1.48-2.33,1.26-.79-.23-1.11-1.03-1.12-1.45-.03-.72,.85-2.33,1.49-2.37Z"/>
                <path class="cls-29" d="M13.86,16.68c.66-.04,2.03,1.49,1.91,2.51-.14,1.19-1.53,1.45-2.26,1.24-.78-.23-1.09-1.01-1.1-1.42-.03-.7,.83-2.29,1.45-2.33Z"/>
                <path class="cls-28" d="M13.84,16.71c.64-.04,1.97,1.46,1.86,2.46-.13,1.15-1.48,1.41-2.19,1.21-.77-.22-1.07-.99-1.08-1.38-.03-.68,.82-2.25,1.41-2.29Z"/>
                <path class="cls-59" d="M13.83,16.74c.62-.04,1.92,1.43,1.81,2.41-.13,1.12-1.43,1.38-2.13,1.19-.75-.21-1.05-.96-1.06-1.35-.02-.67,.8-2.21,1.38-2.24Z"/>
                <path class="cls-57" d="M13.81,16.77c.6-.04,1.86,1.41,1.75,2.36-.13,1.09-1.38,1.34-2.06,1.16-.74-.2-1.03-.94-1.04-1.32-.02-.65,.78-2.17,1.34-2.2Z"/>
                <path class="cls-31" d="M13.8,16.8c.58-.04,1.81,1.38,1.7,2.31-.12,1.05-1.33,1.31-1.99,1.14-.73-.19-1-.92-1.02-1.29-.02-.63,.76-2.13,1.31-2.16Z"/>
                <path class="cls-66" d="M13.78,16.83c.56-.04,1.75,1.35,1.65,2.26-.12,1.02-1.28,1.28-1.93,1.11-.72-.18-.98-.89-1-1.25-.02-.62,.74-2.09,1.27-2.12Z"/>
                <path class="cls-64" d="M13.77,16.86c.54-.03,1.69,1.32,1.6,2.21-.11,.98-1.23,1.24-1.86,1.09-.71-.17-.96-.87-.97-1.22-.02-.6,.73-2.05,1.24-2.08Z"/>
                <path class="cls-62" d="M13.75,16.89c.52-.03,1.64,1.3,1.54,2.16-.11,.95-1.17,1.21-1.79,1.06-.69-.17-.94-.85-.95-1.19-.02-.59,.71-2.01,1.2-2.04Z"/>
                <path class="cls-61" d="M13.74,16.92c.51-.03,1.58,1.27,1.49,2.12-.1,.91-1.12,1.17-1.73,1.03-.68-.16-.92-.82-.93-1.16-.02-.57,.69-1.97,1.17-1.99Z"/>
                <path class="cls-40" d="M13.72,16.95c.49-.03,1.53,1.24,1.44,2.07-.1,.88-1.07,1.14-1.66,1.01-.67-.15-.9-.8-.91-1.12-.02-.55,.67-1.93,1.13-1.95Z"/>
                <path class="cls-37" d="M13.71,16.98c.47-.03,1.47,1.21,1.38,2.02-.09,.85-1.02,1.11-1.59,.98-.66-.14-.88-.78-.89-1.09-.02-.54,.65-1.89,1.1-1.91Z"/>
                <path class="cls-39" d="M13.69,17.01c.45-.02,1.42,1.19,1.33,1.97s-.97,1.07-1.53,.96c-.64-.13-.86-.75-.87-1.06-.01-.52,.64-1.85,1.06-1.87Z"/>
                <path class="cls-35" d="M13.68,17.04c.43-.02,1.36,1.16,1.28,1.92s-.92,1.04-1.46,.93c-.63-.12-.84-.73-.85-1.03-.01-.5,.62-1.81,1.03-1.83Z"/>
                <path class="cls-67" d="M13.66,17.07c.41-.02,1.3,1.13,1.23,1.87s-.86,1.01-1.39,.91c-.62-.11-.82-.71-.82-.99-.01-.49,.6-1.77,.99-1.78Z"/>
                <path class="cls-68" d="M13.65,17.1c.39-.02,1.25,1.1,1.17,1.82s-.81,.97-1.32,.88c-.61-.1-.8-.68-.8-.96-.01-.47,.58-1.73,.96-1.74Z"/>
                <path class="cls-52" d="M13.63,17.13c.37-.02,1.19,1.08,1.12,1.77s-.76,.94-1.26,.86c-.6-.1-.78-.66-.78-.93-.01-.46,.57-1.69,.92-1.7Z"/>
                <path class="cls-54" d="M13.62,17.16c.35-.02,1.14,1.05,1.07,1.72s-.71,.9-1.19,.83c-.58-.09-.76-.64-.76-.9,0-.44,.55-1.64,.88-1.66Z"/>
                <path class="cls-55" d="M13.61,17.19c.33-.01,1.08,1.02,1.01,1.67-.06,.61-.66,.87-1.12,.81-.57-.08-.74-.61-.74-.86,0-.42,.53-1.6,.85-1.62Z"/>
                <path class="cls-49" d="M13.59,17.22c.31-.01,1.02,.99,.96,1.62-.06,.57-.61,.84-1.06,.78-.56-.07-.71-.59-.72-.83,0-.41,.51-1.56,.81-1.58Z"/>
                <path class="cls-51" d="M13.58,17.25c.29-.01,.97,.97,.91,1.57-.05,.54-.56,.8-.99,.76-.55-.06-.69-.57-.7-.8,0-.39,.49-1.52,.78-1.53Z"/>
                <path class="cls-45" d="M13.56,17.28c.27,0,.91,.94,.86,1.52-.05,.5-.5,.77-.92,.73-.54-.05-.67-.54-.68-.76,0-.38,.48-1.48,.74-1.49Z"/>
                <path class="cls-47" d="M13.55,17.31c.25,0,.86,.91,.8,1.47-.04,.47-.45,.74-.86,.71-.52-.04-.65-.52-.65-.73,0-.36,.46-1.44,.71-1.45Z"/>
                <path class="cls-43" d="M13.53,17.34c.23,0,.8,.88,.75,1.43-.04,.44-.4,.71-.79,.68-.51-.03-.63-.5-.63-.7,0-.34,.44-1.4,.67-1.41Z"/>
                <path class="cls-44" d="M13.52,17.37c.21,0,.74,.86,.7,1.38-.04,.4-.35,.67-.72,.66-.5-.02-.61-.47-.61-.67,0-.33,.42-1.36,.64-1.37Z"/>
                <path class="cls-71" d="M13.5,17.4c.19,0,.69,.83,.64,1.33-.03,.37-.3,.64-.66,.63-.49-.01-.59-.45-.59-.63,0-.31,.4-1.32,.6-1.33Z"/>
                <path class="cls-24" d="M13.49,17.43c.17,0,.63,.8,.59,1.28-.03,.33-.25,.61-.59,.61-.47,0-.57-.43-.57-.6,0-.29,.39-1.28,.57-1.28Z"/>
              </g>
              <path class="cls-17" d="M14.09,18.5c0,.53-.43,.96-.96,.96s-1-.43-1-.96c0-.9,1.01-2.11,1.01-2.11l.07-.04s0,.04,.02,.07c.18,.29,.86,1.39,.86,2.08Z"/>
              <path class="cls-25" d="M14.17,18.52c0,.53-.43,.96-.96,.96s-.96-.43-.96-.96c0-.79,.96-2.17,.96-2.17,0,0,.96,1.38,.96,2.17Z"/>
            </g>
          </g>
        </g>
      </g>
    </g>
  </g>
</svg>